999
dxflib 2.2.0.0
  0
SECTION
  2
HEADER
  9
$ACADVER
  1
AC1015
  9
$HANDSEED
  5
FFFF
  9
$DIMASZ
 40
2.5
  9
$PLIMMIN
 10
0.0
 20
0.0
  9
$DIMEXE
 40
1.25
  9
$DIMGAP
 40
0.625
  9
$PLIMMAX
 10
210.0
 20
297.0
  9
$INSUNITS
 70
4
  9
$DIMSTYLE
  2
Standard
  9
$MEASUREMENT
 70
1
  9
$CLAYER
  8
0
  9
$DIMEXO
 40
0.625
  9
$DIMTXT
 40
2.5
  9
$CLAYER
  8
Laser cut size
  0
ENDSEC
  0
SECTION
  2
TABLES
  0
TABLE
  2
VPORT
  5
8
100
AcDbSymbolTable
 70
1
  0
VPORT
  5
30
100
AcDbSymbolTableRecord
100
AcDbViewportTableRecord
  2
*Active
 70
0
 10
0.0
 20
0.0
 11
1.0
 21
1.0
 12
286.30555555555549
 22
148.5
 13
0.0
 23
0.0
 14
10.0
 24
10.0
 15
10.0
 25
10.0
 16
0.0
 26
0.0
 36
1.0
 17
0.0
 27
0.0
 37
0.0
 40
297.0
 41
1.92798353909465
 42
50.0
 43
0.0
 44
0.0
 50
0.0
 51
0.0
 71
0
 72
100
 73
1
 74
3
 75
1
 76
1
 77
0
 78
0
281
0
 65
1
110
0.0
120
0.0
130
0.0
111
1.0
121
0.0
131
0.0
112
0.0
122
1.0
132
0.0
 79
0
146
0.0
  0
ENDTAB
  0
TABLE
  2
LTYPE
  5
5
100
AcDbSymbolTable
 70
21
  0
LTYPE
  5
14
100
AcDbSymbolTableRecord
100
AcDbLinetypeTableRecord
  2
ByBlock
 70
0
  3

 72
65
 73
0
 40
0.0
  0
LTYPE
  5
15
100
AcDbSymbolTableRecord
100
AcDbLinetypeTableRecord
  2
ByLayer
 70
0
  3

 72
65
 73
0
 40
0.0
  0
LTYPE
  5
16
100
AcDbSymbolTableRecord
100
AcDbLinetypeTableRecord
  2
CONTINUOUS
 70
0
  3
Solid line
 72
65
 73
0
 40
0.0
  0
LTYPE
  5
31
100
AcDbSymbolTableRecord
100
AcDbLinetypeTableRecord
  2
DOT
 70
0
  3
Dot . . . . . . . . . . . . . . . . . . . . . .
 72
65
 73
2
 40
6.3499999999999996
 49
0.0
 74
0
 49
-6.3499999999999996
 74
0
  0
LTYPE
  5
32
100
AcDbSymbolTableRecord
100
AcDbLinetypeTableRecord
  2
DOT2
 70
0
  3
Dot (.5x) .....................................
 72
65
 73
2
 40
3.1749999999999998
 49
0.0
 74
0
 49
-3.1749999999999998
 74
0
  0
LTYPE
  5
33
100
AcDbSymbolTableRecord
100
AcDbLinetypeTableRecord
  2
DOTX2
 70
0
  3
Dot (2x) .  .  .  .  .  .  .  .  .  .  .  .  .
 72
65
 73
2
 40
12.699999999999999
 49
0.0
 74
0
 49
-12.699999999999999
 74
0
  0
LTYPE
  5
34
100
AcDbSymbolTableRecord
100
AcDbLinetypeTableRecord
  2
DASHED
 70
0
  3
Dashed __ __ __ __ __ __ __ __ __ __ __ __ __ _
 72
65
 73
2
 40
19.050000000000001
 49
12.699999999999999
 74
0
 49
-6.3499999999999996
 74
0
  0
LTYPE
  5
35
100
AcDbSymbolTableRecord
100
AcDbLinetypeTableRecord
  2
DASHED2
 70
0
  3
Dashed (.5x) _ _ _ _ _ _ _ _ _ _ _ _ _ _ _ _ _
 72
65
 73
2
 40
9.5250000000000004
 49
6.3499999999999996
 74
0
 49
-3.1749999999999998
 74
0
  0
LTYPE
  5
36
100
AcDbSymbolTableRecord
100
AcDbLinetypeTableRecord
  2
DASHEDX2
 70
0
  3
Dashed (2x) ____  ____  ____  ____  ____  ___
 72
65
 73
2
 40
38.100000000000001
 49
25.399999999999999
 74
0
 49
-12.699999999999999
 74
0
  0
LTYPE
  5
37
100
AcDbSymbolTableRecord
100
AcDbLinetypeTableRecord
  2
DASHDOT
 70
0
  3
Dash dot __ . __ . __ . __ . __ . __ . __ . __
 72
65
 73
4
 40
25.399999999999999
 49
12.699999999999999
 74
0
 49
-6.3499999999999996
 74
0
 49
0.0
 74
0
 49
-6.3499999999999996
 74
0
  0
LTYPE
  5
38
100
AcDbSymbolTableRecord
100
AcDbLinetypeTableRecord
  2
DASHDOT2
 70
0
  3
Dash dot (.5x) _._._._._._._._._._._._._._._.
 72
65
 73
4
 40
12.699999999999999
 49
6.3499999999999996
 74
0
 49
-3.1749999999999998
 74
0
 49
0.0
 74
0
 49
-3.1749999999999998
 74
0
  0
LTYPE
  5
39
100
AcDbSymbolTableRecord
100
AcDbLinetypeTableRecord
  2
DASHDOTX2
 70
0
  3
Dash dot (2x) ____  .  ____  .  ____  .  ___
 72
65
 73
4
 40
50.799999999999997
 49
25.399999999999999
 74
0
 49
-12.699999999999999
 74
0
 49
0.0
 74
0
 49
-12.699999999999999
 74
0
  0
LTYPE
  5
3A
100
AcDbSymbolTableRecord
100
AcDbLinetypeTableRecord
  2
DIVIDE
 70
0
  3
Divide ____ . . ____ . . ____ . . ____ . . ____
 72
65
 73
6
 40
31.75
 49
12.699999999999999
 74
0
 49
-6.3499999999999996
 74
0
 49
0.0
 74
0
 49
-6.3499999999999996
 74
0
 49
0.0
 74
0
 49
-6.3499999999999996
 74
0
  0
LTYPE
  5
3B
100
AcDbSymbolTableRecord
100
AcDbLinetypeTableRecord
  2
DIVIDE2
 70
0
  3
Divide (.5x) __..__..__..__..__..__..__..__.._
 72
65
 73
6
 40
15.875
 49
6.3499999999999996
 74
0
 49
-3.1749999999999998
 74
0
 49
0.0
 74
0
 49
-3.1749999999999998
 74
0
 49
0.0
 74
0
 49
-3.1749999999999998
 74
0
  0
LTYPE
  5
3C
100
AcDbSymbolTableRecord
100
AcDbLinetypeTableRecord
  2
DIVIDEX2
 70
0
  3
Divide (2x) ________  .  .  ________  .  .  _
 72
65
 73
6
 40
63.5
 49
25.399999999999999
 74
0
 49
-12.699999999999999
 74
0
 49
0.0
 74
0
 49
-12.699999999999999
 74
0
 49
0.0
 74
0
 49
-12.699999999999999
 74
0
  0
LTYPE
  5
3D
100
AcDbSymbolTableRecord
100
AcDbLinetypeTableRecord
  2
CENTER
 70
0
  3
Center ____ _ ____ _ ____ _ ____ _ ____ _ ____
 72
65
 73
4
 40
50.799999999999997
 49
31.75
 74
0
 49
-6.3499999999999996
 74
0
 49
6.3499999999999996
 74
0
 49
-6.3499999999999996
 74
0
  0
LTYPE
  5
3E
100
AcDbSymbolTableRecord
100
AcDbLinetypeTableRecord
  2
CENTER2
 70
0
  3
Center (.5x) ___ _ ___ _ ___ _ ___ _ ___ _ ___
 72
65
 73
4
 40
28.574999999999999
 49
19.050000000000001
 74
0
 49
-3.1749999999999998
 74
0
 49
3.1749999999999998
 74
0
 49
-3.1749999999999998
 74
0
  0
LTYPE
  5
3F
100
AcDbSymbolTableRecord
100
AcDbLinetypeTableRecord
  2
CENTERX2
 70
0
  3
Center (2x) ________  __  ________  __  _____
 72
65
 73
4
 40
101.59999999999999
 49
63.5
 74
0
 49
-12.699999999999999
 74
0
 49
12.699999999999999
 74
0
 49
-12.699999999999999
 74
0
  0
LTYPE
  5
40
100
AcDbSymbolTableRecord
100
AcDbLinetypeTableRecord
  2
BORDER
 70
0
  3
Border __ __ . __ __ . __ __ . __ __ . __ __ .
 72
65
 73
6
 40
44.450000000000003
 49
12.699999999999999
 74
0
 49
-6.3499999999999996
 74
0
 49
12.699999999999999
 74
0
 49
-6.3499999999999996
 74
0
 49
0.0
 74
0
 49
-6.3499999999999996
 74
0
  0
LTYPE
  5
41
100
AcDbSymbolTableRecord
100
AcDbLinetypeTableRecord
  2
BORDER2
 70
0
  3
Border (.5x) __.__.__.__.__.__.__.__.__.__.__.
 72
65
 73
6
 40
22.225000000000001
 49
6.3499999999999996
 74
0
 49
-3.1749999999999998
 74
0
 49
6.3499999999999996
 74
0
 49
-3.1749999999999998
 74
0
 49
0.0
 74
0
 49
-3.1749999999999998
 74
0
  0
LTYPE
  5
42
100
AcDbSymbolTableRecord
100
AcDbLinetypeTableRecord
  2
BORDERX2
 70
0
  3
Border (2x) ____  ____  .  ____  ____  .  ___
 72
65
 73
6
 40
88.900000000000006
 49
25.399999999999999
 74
0
 49
-12.699999999999999
 74
0
 49
25.399999999999999
 74
0
 49
-12.699999999999999
 74
0
 49
0.0
 74
0
 49
-12.699999999999999
 74
0
  0
ENDTAB
  0
TABLE
  2
LAYER
  5
2
100
AcDbSymbolTable
 70
3
  0
LAYER
  5
10
100
AcDbSymbolTableRecord
100
AcDbLayerTableRecord
  2
0
 70
0
 62
7
420
16777215
  6
CONTINUOUS
390
F
  0
LAYER
  5
43
100
AcDbSymbolTableRecord
100
AcDbLayerTableRecord
  2
Layer_1
 70
0
 62
7
420
16777215
  6
CONTINUOUS
390
F
  0
LAYER
  5
44
100
AcDbSymbolTableRecord
100
AcDbLayerTableRecord
  2
Laser cut size
 70
0
 62
3
420
65280
  6
CONTINUOUS
370
0
390
F
  0
ENDTAB
  0
TABLE
  2
STYLE
  5
3
100
AcDbSymbolTable
 70
1
  0
STYLE
  5
11
100
AcDbSymbolTableRecord
100
AcDbTextStyleTableRecord
  2
Standard
 70
0
 40
0.0
 41
0.75
 50
0.0
 71
0
 42
2.5
  3
txt
  4

  0
ENDTAB
  0
TABLE
  2
VIEW
  5
6
100
AcDbSymbolTable
 70
0
  0
ENDTAB
  0
TABLE
  2
UCS
  5
7
100
AcDbSymbolTable
 70
0
  0
ENDTAB
  0
TABLE
  2
APPID
  5
9
100
AcDbSymbolTable
 70
1
  0
APPID
  5
12
100
AcDbSymbolTableRecord
100
AcDbRegAppTableRecord
  2
ACAD
 70
0
  0
ENDTAB
  0
TABLE
  2
DIMSTYLE
  5
A
100
AcDbSymbolTable
 70
1
100
AcDbDimStyleTable
 71
0
  0
DIMSTYLE
105
27
100
AcDbSymbolTableRecord
100
AcDbDimStyleTableRecord
  2
Standard
 41
2.5
 42
0.625
 43
3.75
 44
1.25
 70
0
 73
0
 74
0
 77
1
 78
8
140
2.5
141
2.5
143
0.03937007874016
147
0.625
171
3
172
1
271
2
272
2
274
3
278
44
283
0
284
8
340
11
  0
ENDTAB
  0
TABLE
  2
BLOCK_RECORD
  5
1
100
AcDbSymbolTable
 70
1
  0
BLOCK_RECORD
  5
1F
100
AcDbSymbolTableRecord
100
AcDbBlockTableRecord
  2
*Model_Space
340
22
  0
BLOCK_RECORD
  5
1B
100
AcDbSymbolTableRecord
100
AcDbBlockTableRecord
  2
*Paper_Space
340
1E
  0
BLOCK_RECORD
  5
23
100
AcDbSymbolTableRecord
100
AcDbBlockTableRecord
  2
*Paper_Space0
340
26
  0
ENDTAB
  0
ENDSEC
  0
SECTION
  2
BLOCKS
  0
BLOCK
  5
20
100
AcDbEntity
  8
0
100
AcDbBlockBegin
  2
*Model_Space
 70
0
 10
0.0
 20
0.0
 30
0.0
  3
*Model_Space
  1

  0
ENDBLK
  5
21
100
AcDbEntity
  8
0
100
AcDbBlockEnd
  0
BLOCK
  5
1C
100
AcDbEntity
 67
1
  8
0
100
AcDbBlockBegin
  2
*Paper_Space
 70
0
 10
0.0
 20
0.0
 30
0.0
  3
*Paper_Space
  1

  0
ENDBLK
  5
1D
100
AcDbEntity
 67
1
  8
0
100
AcDbBlockEnd
  0
BLOCK
  5
24
100
AcDbEntity
  8
0
100
AcDbBlockBegin
  2
*Paper_Space0
 70
0
 10
0.0
 20
0.0
 30
0.0
  3
*Paper_Space0
  1

  0
ENDBLK
  5
25
100
AcDbEntity
  8
0
100
AcDbBlockEnd
  0
ENDSEC
  0
SECTION
  2
ENTITIES
  0
SPLINE
  5
45
  8
Layer_1
 62
1
420
16711680
370
-1
  6
ByLayer
100
AcDbEntity
100
AcDbSpline
 70
8
 71
3
 72
8
 73
4
 74
0
 40
0.0
 40
0.0
 40
0.0
 40
0.0
 40
1.0
 40
1.0
 40
1.0
 40
1.0
 10
24.202348000000001
 20
48.862363999999999
 30
0.0
 10
24.178640999999999
 20
48.883248000000002
 30
0.0
 10
24.152958999999999
 20
48.902157000000003
 30
0.0
 10
24.127841
 20
48.922477000000001
 30
0.0
  0
SPLINE
  5
46
  8
Layer_1
 62
1
420
16711680
370
-1
  6
ByLayer
100
AcDbEntity
100
AcDbSpline
 70
8
 71
3
 72
8
 73
4
 74
0
 40
0.0
 40
0.0
 40
0.0
 40
0.0
 40
1.0
 40
1.0
 40
1.0
 40
1.0
 10
24.127841
 20
64.220332999999997
 30
0.0
 10
24.127841
 20
65.987889999999993
 30
0.0
 10
22.695844999999998
 20
67.420450000000002
 30
0.0
 10
20.928570000000001
 20
67.420450000000002
 30
0.0
  0
LWPOLYLINE
  5
47
  8
Layer_1
 62
1
420
16711680
370
-1
  6
ByLayer
100
AcDbEntity
100
AcDbPolyline
 90
2
 70
0
 10
24.127841
 20
48.922477000000001
 10
24.127841
 20
64.220332999999997
  0
SPLINE
  5
48
  8
Layer_1
 62
1
420
16711680
370
-1
  6
ByLayer
100
AcDbEntity
100
AcDbSpline
 70
8
 71
3
 72
8
 73
4
 74
0
 40
0.0
 40
0.0
 40
0.0
 40
0.0
 40
1.0
 40
1.0
 40
1.0
 40
1.0
 10
20.581719
 20
67.420450000000002
 30
0.0
 10
18.814443000000001
 20
67.420450000000002
 30
0.0
 10
17.381882999999998
 20
65.987889999999993
 30
0.0
 10
17.381882999999998
 20
64.220332999999997
 30
0.0
  0
LWPOLYLINE
  5
49
  8
Layer_1
 62
1
420
16711680
370
-1
  6
ByLayer
100
AcDbEntity
100
AcDbPolyline
 90
2
 70
0
 10
20.928570000000001
 20
67.420450000000002
 10
20.581719
 20
67.420450000000002
  0
SPLINE
  5
4A
  8
Layer_1
 62
1
420
16711680
370
-1
  6
ByLayer
100
AcDbEntity
100
AcDbSpline
 70
8
 71
3
 72
8
 73
4
 74
0
 40
0.0
 40
0.0
 40
0.0
 40
0.0
 40
1.0
 40
1.0
 40
1.0
 40
1.0
 10
17.381882999999998
 20
48.969889999999999
 30
0.0
 10
17.138324999999998
 20
48.773181999999998
 30
0.0
 10
16.906621000000001
 20
48.555588
 30
0.0
 10
16.694953999999999
 20
48.310336999999997
 30
0.0
  0
SPLINE
  5
4B
  8
Layer_1
 62
1
420
16711680
370
-1
  6
ByLayer
100
AcDbEntity
100
AcDbSpline
 70
8
 71
3
 72
8
 73
4
 74
0
 40
0.0
 40
0.0
 40
0.0
 40
0.0
 40
1.0
 40
1.0
 40
1.0
 40
1.0
 10
16.694953999999999
 20
48.310336999999997
 30
0.0
 10
16.506993999999999
 20
48.093308
 30
0.0
 10
16.347256999999999
 20
47.863297000000003
 30
0.0
 10
16.201065
 20
47.627358999999998
 30
0.0
  0
LWPOLYLINE
  5
4C
  8
Layer_1
 62
1
420
16711680
370
-1
  6
ByLayer
100
AcDbEntity
100
AcDbPolyline
 90
2
 70
0
 10
17.381882999999998
 20
64.220332999999997
 10
17.381882999999998
 20
48.969889999999999
  0
SPLINE
  5
4D
  8
Layer_1
 62
1
420
16711680
370
-1
  6
ByLayer
100
AcDbEntity
100
AcDbSpline
 70
8
 71
3
 72
8
 73
4
 74
0
 40
0.0
 40
0.0
 40
0.0
 40
0.0
 40
1.0
 40
1.0
 40
1.0
 40
1.0
 10
16.201065
 20
42.023555000000002
 30
0.0
 10
16.478207999999999
 20
41.576515000000001
 30
0.0
 10
16.827317000000001
 20
41.163623999999999
 30
0.0
 10
17.246134000000001
 20
40.801532999999999
 30
0.0
  0
SPLINE
  5
4E
  8
Layer_1
 62
1
420
16711680
370
-1
  6
ByLayer
100
AcDbEntity
100
AcDbSpline
 70
8
 71
3
 72
8
 73
4
 74
0
 40
0.0
 40
0.0
 40
0.0
 40
0.0
 40
1.0
 40
1.0
 40
1.0
 40
1.0
 10
17.246134000000001
 20
40.801532999999999
 30
0.0
 10
19.472303
 20
38.881010000000003
 30
0.0
 10
22.833288
 20
39.128518999999997
 30
0.0
 10
24.754657000000002
 20
41.354405999999997
 30
0.0
  0
SPLINE
  5
4F
  8
Layer_1
 62
1
420
16711680
370
-1
  6
ByLayer
100
AcDbEntity
100
AcDbSpline
 70
8
 71
3
 72
8
 73
4
 74
0
 40
0.0
 40
0.0
 40
0.0
 40
0.0
 40
1.0
 40
1.0
 40
1.0
 40
1.0
 10
24.754657000000002
 20
41.354405999999997
 30
0.0
 10
26.675460999999999
 20
43.579728000000003
 30
0.0
 10
26.428516999999999
 20
46.940995000000001
 30
0.0
 10
24.202348000000001
 20
48.862363999999999
 30
0.0
  0
LWPOLYLINE
  5
50
  8
Layer_1
 62
1
420
16711680
370
-1
  6
ByLayer
100
AcDbEntity
100
AcDbPolyline
 90
2
 70
0
 10
16.201065
 20
47.627358999999998
 10
16.201065
 20
42.023555000000002
  0
SPLINE
  5
51
  8
Layer_1
 62
1
420
16711680
370
-1
  6
ByLayer
100
AcDbEntity
100
AcDbSpline
 70
8
 71
3
 72
8
 73
4
 74
0
 40
0.0
 40
0.0
 40
0.0
 40
0.0
 40
1.0
 40
1.0
 40
1.0
 40
1.0
 10
21.756045
 20
63.664355
 30
0.0
 10
21.545508000000002
 20
63.095112999999998
 30
0.0
 10
20.912765
 20
62.804141999999999
 30
0.0
 10
20.343240999999999
 20
63.014679000000001
 30
0.0
  0
SPLINE
  5
52
  8
Layer_1
 62
1
420
16711680
370
-1
  6
ByLayer
100
AcDbEntity
100
AcDbSpline
 70
8
 71
3
 72
8
 73
4
 74
0
 40
0.0
 40
0.0
 40
0.0
 40
0.0
 40
1.0
 40
1.0
 40
1.0
 40
1.0
 10
20.343240999999999
 20
63.014679000000001
 30
0.0
 10
19.773434000000002
 20
63.225217000000001
 30
0.0
 10
19.482462999999999
 20
63.857677000000002
 30
0.0
 10
19.692719
 20
64.427484000000007
 30
0.0
  0
SPLINE
  5
53
  8
Layer_1
 62
1
420
16711680
370
-1
  6
ByLayer
100
AcDbEntity
100
AcDbSpline
 70
8
 71
3
 72
8
 73
4
 74
0
 40
0.0
 40
0.0
 40
0.0
 40
0.0
 40
1.0
 40
1.0
 40
1.0
 40
1.0
 10
19.692719
 20
64.427484000000007
 30
0.0
 10
19.903821000000001
 20
64.997007999999994
 30
0.0
 10
20.535999
 20
65.287696999999994
 30
0.0
 10
21.105805
 20
65.077442000000005
 30
0.0
  0
SPLINE
  5
54
  8
Layer_1
 62
1
420
16711680
370
-1
  6
ByLayer
100
AcDbEntity
100
AcDbSpline
 70
8
 71
3
 72
8
 73
4
 74
0
 40
0.0
 40
0.0
 40
0.0
 40
0.0
 40
1.0
 40
1.0
 40
1.0
 40
1.0
 10
21.105805
 20
65.077442000000005
 30
0.0
 10
21.674765000000001
 20
64.866904000000005
 30
0.0
 10
21.966583
 20
64.234161999999998
 30
0.0
 10
21.756045
 20
63.664355
 30
0.0
  0
LWPOLYLINE
  5
55
  8
Layer_1
 62
1
420
16711680
370
-1
  6
ByLayer
100
AcDbEntity
100
AcDbPolyline
 90
2
 70
0
 10
24.202348000000001
 20
48.862363999999999
 10
24.202348000000001
 20
48.862363999999999
  0
SPLINE
  5
56
  8
Layer_1
 62
1
420
16711680
370
-1
  6
ByLayer
100
AcDbEntity
100
AcDbSpline
 70
8
 71
3
 72
8
 73
4
 74
0
 40
0.0
 40
0.0
 40
0.0
 40
0.0
 40
1.0
 40
1.0
 40
1.0
 40
1.0
 10
20.991505
 20
44.594316999999997
 30
0.0
 10
20.769397000000001
 20
43.994312999999998
 30
0.0
 10
20.102505000000001
 20
43.687255
 30
0.0
 10
19.501653999999998
 20
43.909081999999998
 30
0.0
  0
SPLINE
  5
57
  8
Layer_1
 62
1
420
16711680
370
-1
  6
ByLayer
100
AcDbEntity
100
AcDbSpline
 70
8
 71
3
 72
8
 73
4
 74
0
 40
0.0
 40
0.0
 40
0.0
 40
0.0
 40
1.0
 40
1.0
 40
1.0
 40
1.0
 10
19.501653999999998
 20
43.909081999999998
 30
0.0
 10
18.900803
 20
44.131189999999997
 30
0.0
 10
18.593744999999998
 20
44.798645999999998
 30
0.0
 10
18.815854000000002
 20
45.399496999999997
 30
0.0
  0
SPLINE
  5
58
  8
Layer_1
 62
1
420
16711680
370
-1
  6
ByLayer
100
AcDbEntity
100
AcDbSpline
 70
8
 71
3
 72
8
 73
4
 74
0
 40
0.0
 40
0.0
 40
0.0
 40
0.0
 40
1.0
 40
1.0
 40
1.0
 40
1.0
 10
18.815854000000002
 20
45.399496999999997
 30
0.0
 10
19.038527999999999
 20
46.000065999999997
 30
0.0
 10
19.705418999999999
 20
46.306559
 30
0.0
 10
20.305705
 20
46.084733
 30
0.0
  0
SPLINE
  5
59
  8
Layer_1
 62
1
420
16711680
370
-1
  6
ByLayer
100
AcDbEntity
100
AcDbSpline
 70
8
 71
3
 72
8
 73
4
 74
0
 40
0.0
 40
0.0
 40
0.0
 40
0.0
 40
1.0
 40
1.0
 40
1.0
 40
1.0
 10
20.305705
 20
46.084733
 30
0.0
 10
20.905992000000001
 20
45.862906000000002
 30
0.0
 10
21.213332000000001
 20
45.195450000000001
 30
0.0
 10
20.991505
 20
44.594316999999997
 30
0.0
  0
LWPOLYLINE
  5
5A
  8
Layer_1
 62
1
420
16711680
370
-1
  6
ByLayer
100
AcDbEntity
100
AcDbPolyline
 90
2
 70
0
 10
21.756045
 20
63.664355
 10
21.756045
 20
63.664355
  0
SPLINE
  5
5B
  8
Layer_1
 62
1
420
16711680
370
-1
  6
ByLayer
100
AcDbEntity
100
AcDbSpline
 70
8
 71
3
 72
8
 73
4
 74
0
 40
0.0
 40
0.0
 40
0.0
 40
0.0
 40
1.0
 40
1.0
 40
1.0
 40
1.0
 10
6.4872589999999999
 20
15.263235
 30
0.0
 10
6.4872589999999999
 20
15.903879999999999
 30
0.0
 10
7.0076770000000002
 20
16.422604
 30
0.0
 10
7.6480389999999998
 20
16.422039999999999
 30
0.0
  0
SPLINE
  5
5C
  8
Layer_1
 62
1
420
16711680
370
-1
  6
ByLayer
100
AcDbEntity
100
AcDbSpline
 70
8
 71
3
 72
8
 73
4
 74
0
 40
0.0
 40
0.0
 40
0.0
 40
0.0
 40
1.0
 40
1.0
 40
1.0
 40
1.0
 10
7.6480389999999998
 20
16.422039999999999
 30
0.0
 10
8.2884010000000004
 20
16.422039999999999
 30
0.0
 10
8.8071249999999992
 20
15.901622
 30
0.0
 10
8.8065610000000003
 20
15.26126
 30
0.0
  0
SPLINE
  5
5D
  8
Layer_1
 62
1
420
16711680
370
-1
  6
ByLayer
100
AcDbEntity
100
AcDbSpline
 70
8
 71
3
 72
8
 73
4
 74
0
 40
0.0
 40
0.0
 40
0.0
 40
0.0
 40
1.0
 40
1.0
 40
1.0
 40
1.0
 10
8.8065610000000003
 20
15.26126
 30
0.0
 10
8.8065610000000003
 20
14.620898
 30
0.0
 10
8.2861429999999991
 20
14.102173000000001
 30
0.0
 10
7.6457810000000004
 20
14.102738
 30
0.0
  0
SPLINE
  5
5E
  8
Layer_1
 62
1
420
16711680
370
-1
  6
ByLayer
100
AcDbEntity
100
AcDbSpline
 70
8
 71
3
 72
8
 73
4
 74
0
 40
0.0
 40
0.0
 40
0.0
 40
0.0
 40
1.0
 40
1.0
 40
1.0
 40
1.0
 10
7.6457810000000004
 20
14.102738
 30
0.0
 10
7.0054189999999998
 20
14.102738
 30
0.0
 10
6.4864119999999996
 20
14.622873
 30
0.0
 10
6.4872589999999999
 20
15.263235
 30
0.0
  0
LWPOLYLINE
  5
5F
  8
Layer_1
 62
1
420
16711680
370
-1
  6
ByLayer
100
AcDbEntity
100
AcDbPolyline
 90
2
 70
0
 10
20.991505
 20
44.594316999999997
 10
20.991505
 20
44.594316999999997
  0
SPLINE
  5
60
  8
Layer_1
 62
1
420
16711680
370
-1
  6
ByLayer
100
AcDbEntity
100
AcDbSpline
 70
8
 71
3
 72
8
 73
4
 74
0
 40
0.0
 40
0.0
 40
0.0
 40
0.0
 40
1.0
 40
1.0
 40
1.0
 40
1.0
 10
18.824884999999998
 20
17.651118
 30
0.0
 10
18.824884999999998
 20
18.291761999999999
 30
0.0
 10
19.345585
 20
18.810486000000001
 30
0.0
 10
19.985665000000001
 20
18.809922
 30
0.0
  0
SPLINE
  5
61
  8
Layer_1
 62
1
420
16711680
370
-1
  6
ByLayer
100
AcDbEntity
100
AcDbSpline
 70
8
 71
3
 72
8
 73
4
 74
0
 40
0.0
 40
0.0
 40
0.0
 40
0.0
 40
1.0
 40
1.0
 40
1.0
 40
1.0
 10
19.985665000000001
 20
18.809922
 30
0.0
 10
20.626591999999999
 20
18.809922
 30
0.0
 10
21.145033999999999
 20
18.289504000000001
 30
0.0
 10
21.144469999999998
 20
17.649142000000001
 30
0.0
  0
SPLINE
  5
62
  8
Layer_1
 62
1
420
16711680
370
-1
  6
ByLayer
100
AcDbEntity
100
AcDbSpline
 70
8
 71
3
 72
8
 73
4
 74
0
 40
0.0
 40
0.0
 40
0.0
 40
0.0
 40
1.0
 40
1.0
 40
1.0
 40
1.0
 10
21.144469999999998
 20
17.649142000000001
 30
0.0
 10
21.144469999999998
 20
17.008497999999999
 30
0.0
 10
20.62377
 20
16.489773
 30
0.0
 10
19.983125000000001
 20
16.490338000000001
 30
0.0
  0
SPLINE
  5
63
  8
Layer_1
 62
1
420
16711680
370
-1
  6
ByLayer
100
AcDbEntity
100
AcDbSpline
 70
8
 71
3
 72
8
 73
4
 74
0
 40
0.0
 40
0.0
 40
0.0
 40
0.0
 40
1.0
 40
1.0
 40
1.0
 40
1.0
 10
19.983125000000001
 20
16.490338000000001
 30
0.0
 10
19.343045
 20
16.490338000000001
 30
0.0
 10
18.824038999999999
 20
17.010755
 30
0.0
 10
18.824884999999998
 20
17.651118
 30
0.0
  0
LWPOLYLINE
  5
64
  8
Layer_1
 62
1
420
16711680
370
-1
  6
ByLayer
100
AcDbEntity
100
AcDbPolyline
 90
2
 70
0
 10
6.4872589999999999
 20
15.263235
 10
6.4872589999999999
 20
15.263235
  0
SPLINE
  5
65
  8
Layer_1
 62
1
420
16711680
370
-1
  6
ByLayer
100
AcDbEntity
100
AcDbSpline
 70
8
 71
3
 72
8
 73
4
 74
0
 40
0.0
 40
0.0
 40
0.0
 40
0.0
 40
1.0
 40
1.0
 40
1.0
 40
1.0
 10
18.844640999999999
 20
32.931483999999998
 30
0.0
 10
18.844640999999999
 20
33.571846000000001
 30
0.0
 10
19.365058999999999
 20
34.09057
 30
0.0
 10
20.005139
 20
34.090006000000002
 30
0.0
  0
SPLINE
  5
66
  8
Layer_1
 62
1
420
16711680
370
-1
  6
ByLayer
100
AcDbEntity
100
AcDbSpline
 70
8
 71
3
 72
8
 73
4
 74
0
 40
0.0
 40
0.0
 40
0.0
 40
0.0
 40
1.0
 40
1.0
 40
1.0
 40
1.0
 10
20.005139
 20
34.090006000000002
 30
0.0
 10
20.646065
 20
34.089441999999998
 30
0.0
 10
21.164508000000001
 20
33.569588000000003
 30
0.0
 10
21.163943
 20
32.929226
 30
0.0
  0
SPLINE
  5
67
  8
Layer_1
 62
1
420
16711680
370
-1
  6
ByLayer
100
AcDbEntity
100
AcDbSpline
 70
8
 71
3
 72
8
 73
4
 74
0
 40
0.0
 40
0.0
 40
0.0
 40
0.0
 40
1.0
 40
1.0
 40
1.0
 40
1.0
 10
21.163943
 20
32.929226
 30
0.0
 10
21.163943
 20
32.288299000000002
 30
0.0
 10
20.643525
 20
31.769856999999998
 30
0.0
 10
20.003444999999999
 20
31.770422
 30
0.0
  0
SPLINE
  5
68
  8
Layer_1
 62
1
420
16711680
370
-1
  6
ByLayer
100
AcDbEntity
100
AcDbSpline
 70
8
 71
3
 72
8
 73
4
 74
0
 40
0.0
 40
0.0
 40
0.0
 40
0.0
 40
1.0
 40
1.0
 40
1.0
 40
1.0
 10
20.003444999999999
 20
31.770422
 30
0.0
 10
19.362801000000001
 20
31.771267999999999
 30
0.0
 10
18.843793999999999
 20
32.290838999999998
 30
0.0
 10
18.844640999999999
 20
32.931483999999998
 30
0.0
  0
LWPOLYLINE
  5
69
  8
Layer_1
 62
1
420
16711680
370
-1
  6
ByLayer
100
AcDbEntity
100
AcDbPolyline
 90
2
 70
0
 10
18.824884999999998
 20
17.651118
 10
18.824884999999998
 20
17.651118
  0
SPLINE
  5
6A
  8
Layer_1
 62
1
420
16711680
370
-1
  6
ByLayer
100
AcDbEntity
100
AcDbSpline
 70
8
 71
3
 72
8
 73
4
 74
0
 40
0.0
 40
0.0
 40
0.0
 40
0.0
 40
1.0
 40
1.0
 40
1.0
 40
1.0
 10
7.3062680000000002
 20
34.542408000000002
 30
0.0
 10
7.3062680000000002
 20
35.183053000000001
 30
0.0
 10
7.8266850000000003
 20
35.701777
 30
0.0
 10
8.4670480000000001
 20
35.70093
 30
0.0
  0
SPLINE
  5
6B
  8
Layer_1
 62
1
420
16711680
370
-1
  6
ByLayer
100
AcDbEntity
100
AcDbSpline
 70
8
 71
3
 72
8
 73
4
 74
0
 40
0.0
 40
0.0
 40
0.0
 40
0.0
 40
1.0
 40
1.0
 40
1.0
 40
1.0
 10
8.4670480000000001
 20
35.70093
 30
0.0
 10
9.1076920000000001
 20
35.700366000000002
 30
0.0
 10
9.6261340000000004
 20
35.180512999999998
 30
0.0
 10
9.6255699999999997
 20
34.540149999999997
 30
0.0
  0
SPLINE
  5
6C
  8
Layer_1
 62
1
420
16711680
370
-1
  6
ByLayer
100
AcDbEntity
100
AcDbSpline
 70
8
 71
3
 72
8
 73
4
 74
0
 40
0.0
 40
0.0
 40
0.0
 40
0.0
 40
1.0
 40
1.0
 40
1.0
 40
1.0
 10
9.6255699999999997
 20
34.540149999999997
 30
0.0
 10
9.6255699999999997
 20
33.899506000000002
 30
0.0
 10
9.1051520000000004
 20
33.381064000000002
 30
0.0
 10
8.4647900000000007
 20
33.381627999999999
 30
0.0
  0
SPLINE
  5
6D
  8
Layer_1
 62
1
420
16711680
370
-1
  6
ByLayer
100
AcDbEntity
100
AcDbSpline
 70
8
 71
3
 72
8
 73
4
 74
0
 40
0.0
 40
0.0
 40
0.0
 40
0.0
 40
1.0
 40
1.0
 40
1.0
 40
1.0
 10
8.4647900000000007
 20
33.381627999999999
 30
0.0
 10
7.8244280000000002
 20
33.382193000000001
 30
0.0
 10
7.3051389999999996
 20
33.902045999999999
 30
0.0
 10
7.3062680000000002
 20
34.542408000000002
 30
0.0
  0
LWPOLYLINE
  5
6E
  8
Layer_1
 62
1
420
16711680
370
-1
  6
ByLayer
100
AcDbEntity
100
AcDbPolyline
 90
2
 70
0
 10
18.844640999999999
 20
32.931483999999998
 10
18.844640999999999
 20
32.931483999999998
  0
SPLINE
  5
6F
  8
Layer_1
 62
1
420
16711680
370
-1
  6
ByLayer
100
AcDbEntity
100
AcDbSpline
 70
8
 71
3
 72
8
 73
4
 74
0
 40
0.0
 40
0.0
 40
0.0
 40
0.0
 40
1.0
 40
1.0
 40
1.0
 40
1.0
 10
17.548393999999998
 20
6.081982
 30
0.0
 10
17.548393999999998
 20
6.7223439999999997
 30
0.0
 10
18.068812000000001
 20
7.2407859999999999
 30
0.0
 10
18.709174000000001
 20
7.2402220000000002
 30
0.0
  0
SPLINE
  5
70
  8
Layer_1
 62
1
420
16711680
370
-1
  6
ByLayer
100
AcDbEntity
100
AcDbSpline
 70
8
 71
3
 72
8
 73
4
 74
0
 40
0.0
 40
0.0
 40
0.0
 40
0.0
 40
1.0
 40
1.0
 40
1.0
 40
1.0
 10
18.709174000000001
 20
7.2402220000000002
 30
0.0
 10
19.349819
 20
7.2402220000000002
 30
0.0
 10
19.868261
 20
6.7198039999999999
 30
0.0
 10
19.867697
 20
6.0791599999999999
 30
0.0
  0
SPLINE
  5
71
  8
Layer_1
 62
1
420
16711680
370
-1
  6
ByLayer
100
AcDbEntity
100
AcDbSpline
 70
8
 71
3
 72
8
 73
4
 74
0
 40
0.0
 40
0.0
 40
0.0
 40
0.0
 40
1.0
 40
1.0
 40
1.0
 40
1.0
 10
19.867697
 20
6.0791599999999999
 30
0.0
 10
19.867697
 20
5.4387980000000002
 30
0.0
 10
19.347279
 20
4.9200730000000004
 30
0.0
 10
18.706917000000001
 20
4.9206380000000003
 30
0.0
  0
SPLINE
  5
72
  8
Layer_1
 62
1
420
16711680
370
-1
  6
ByLayer
100
AcDbEntity
100
AcDbSpline
 70
8
 71
3
 72
8
 73
4
 74
0
 40
0.0
 40
0.0
 40
0.0
 40
0.0
 40
1.0
 40
1.0
 40
1.0
 40
1.0
 10
18.706917000000001
 20
4.9206380000000003
 30
0.0
 10
18.066554
 20
4.9206380000000003
 30
0.0
 10
17.547264999999999
 20
5.4410550000000004
 30
0.0
 10
17.548393999999998
 20
6.081982
 30
0.0
  0
LWPOLYLINE
  5
73
  8
Layer_1
 62
1
420
16711680
370
-1
  6
ByLayer
100
AcDbEntity
100
AcDbPolyline
 90
2
 70
0
 10
7.3062680000000002
 20
34.542408000000002
 10
7.3062680000000002
 20
34.542408000000002
  0
LWPOLYLINE
  5
74
  8
Layer_1
 62
1
420
16711680
370
-1
  6
ByLayer
100
AcDbEntity
100
AcDbPolyline
 90
2
 70
0
 10
17.548393999999998
 20
6.081982
 10
17.548393999999998
 20
6.081982
  0
SPLINE
  5
75
  8
Layer_1
 62
1
420
16711680
370
-1
  6
ByLayer
100
AcDbEntity
100
AcDbSpline
 70
8
 71
3
 72
8
 73
4
 74
0
 40
0.0
 40
0.0
 40
0.0
 40
0.0
 40
1.0
 40
1.0
 40
1.0
 40
1.0
 10
18.711714000000001
 20
1.281946
 30
0.0
 10
21.362062999999999
 20
1.2791239999999999
 30
0.0
 10
23.513442999999999
 20
3.4262709999999998
 30
0.0
 10
23.515982999999999
 20
6.0771839999999999
 30
0.0
  0
LWPOLYLINE
  5
76
  8
Layer_1
 62
1
420
16711680
370
-1
  6
ByLayer
100
AcDbEntity
100
AcDbPolyline
 90
3
 70
0
 10
11.242139
 20
24.138278
 10
11.242139
 20
24.141100000000002
 10
11.244961
 20
26.539424
  0
SPLINE
  5
77
  8
Layer_1
 62
1
420
16711680
370
-1
  6
ByLayer
100
AcDbEntity
100
AcDbSpline
 70
8
 71
3
 72
8
 73
4
 74
0
 40
0.0
 40
0.0
 40
0.0
 40
0.0
 40
1.0
 40
1.0
 40
1.0
 40
1.0
 10
1.4284250000000001
 20
6.0986330000000004
 30
0.0
 10
1.425603
 20
3.447438
 30
0.0
 10
2.772932
 20
1.297186
 30
0.0
 10
2.772932
 20
1.297186
 30
0.0
  0
LWPOLYLINE
  5
78
  8
Layer_1
 62
1
420
16711680
370
-1
  6
ByLayer
100
AcDbEntity
100
AcDbPolyline
 90
13
 70
0
 10
23.515982999999999
 20
6.0771839999999999
 10
23.533480999999998
 20
24.128964
 10
16.760148000000001
 20
24.135455
 10
16.760148000000001
 20
23.214563999999999
 10
13.720332000000001
 20
23.217669000000001
 10
13.720332000000001
 20
24.138559999999998
 10
11.242703000000001
 20
24.141382
 10
11.242703000000001
 20
24.138559999999998
 10
11.239317
 20
20.539662
 10
7.5280940000000003
 20
20.543330999999998
 10
5.4825480000000004
 20
20.546153
 10
1.4428190000000001
 20
20.550386
 10
1.4284250000000001
 20
6.0986330000000004
  0
SPLINE
  5
79
  8
Layer_1
 62
1
420
16711680
370
-1
  6
ByLayer
100
AcDbEntity
100
AcDbSpline
 70
8
 71
3
 72
8
 73
4
 74
0
 40
0.0
 40
0.0
 40
0.0
 40
0.0
 40
1.0
 40
1.0
 40
1.0
 40
1.0
 10
5.7447319999999999
 20
30.145104
 30
0.0
 10
5.7447319999999999
 20
29.622427999999999
 30
0.0
 10
5.3197049999999999
 20
29.199095
 30
0.0
 10
4.7975940000000001
 20
29.199659
 30
0.0
  0
SPLINE
  5
7A
  8
Layer_1
 62
1
420
16711680
370
-1
  6
ByLayer
100
AcDbEntity
100
AcDbSpline
 70
8
 71
3
 72
8
 73
4
 74
0
 40
0.0
 40
0.0
 40
0.0
 40
0.0
 40
1.0
 40
1.0
 40
1.0
 40
1.0
 10
4.7975940000000001
 20
29.199659
 30
0.0
 10
4.2746370000000002
 20
29.200506000000001
 30
0.0
 10
3.8513030000000001
 20
29.624403999999998
 30
0.0
 10
3.8518680000000001
 20
30.147079000000002
 30
0.0
  0
SPLINE
  5
7B
  8
Layer_1
 62
1
420
16711680
370
-1
  6
ByLayer
100
AcDbEntity
100
AcDbSpline
 70
8
 71
3
 72
8
 73
4
 74
0
 40
0.0
 40
0.0
 40
0.0
 40
0.0
 40
1.0
 40
1.0
 40
1.0
 40
1.0
 10
3.8518680000000001
 20
30.147079000000002
 30
0.0
 10
3.8518680000000001
 20
30.670037000000001
 30
0.0
 10
4.2763299999999997
 20
31.093088000000002
 30
0.0
 10
4.7992879999999998
 20
31.092524000000001
 30
0.0
  0
SPLINE
  5
7C
  8
Layer_1
 62
1
420
16711680
370
-1
  6
ByLayer
100
AcDbEntity
100
AcDbSpline
 70
8
 71
3
 72
8
 73
4
 74
0
 40
0.0
 40
0.0
 40
0.0
 40
0.0
 40
1.0
 40
1.0
 40
1.0
 40
1.0
 10
4.7992879999999998
 20
31.092524000000001
 30
0.0
 10
5.3219630000000002
 20
31.092241999999999
 30
0.0
 10
5.7452969999999999
 20
30.668344000000001
 30
0.0
 10
5.7447319999999999
 20
30.145104
 30
0.0
  0
LWPOLYLINE
  5
7D
  8
Layer_1
 62
1
420
16711680
370
-1
  6
ByLayer
100
AcDbEntity
100
AcDbPolyline
 90
4
 70
0
 10
2.772932
 20
1.297186
 10
13.911396999999999
 20
1.2861800000000001
 10
18.711714000000001
 20
1.2822290000000001
 10
18.711714000000001
 20
1.281946
  0
SPLINE
  5
7E
  8
Layer_1
 62
1
420
16711680
370
-1
  6
ByLayer
100
AcDbEntity
100
AcDbSpline
 70
8
 71
3
 72
8
 73
4
 74
0
 40
0.0
 40
0.0
 40
0.0
 40
0.0
 40
1.0
 40
1.0
 40
1.0
 40
1.0
 10
6.9867920000000003
 20
41.574821999999998
 30
0.0
 10
6.9867920000000003
 20
41.052146
 30
0.0
 10
6.5620479999999999
 20
40.628813000000001
 30
0.0
 10
6.0393720000000002
 20
40.629095
 30
0.0
  0
SPLINE
  5
7F
  8
Layer_1
 62
1
420
16711680
370
-1
  6
ByLayer
100
AcDbEntity
100
AcDbSpline
 70
8
 71
3
 72
8
 73
4
 74
0
 40
0.0
 40
0.0
 40
0.0
 40
0.0
 40
1.0
 40
1.0
 40
1.0
 40
1.0
 10
6.0393720000000002
 20
40.629095
 30
0.0
 10
5.5166969999999997
 20
40.629658999999997
 30
0.0
 10
5.093928
 20
41.054122
 30
0.0
 10
5.093928
 20
41.576796999999999
 30
0.0
  0
SPLINE
  5
80
  8
Layer_1
 62
1
420
16711680
370
-1
  6
ByLayer
100
AcDbEntity
100
AcDbSpline
 70
8
 71
3
 72
8
 73
4
 74
0
 40
0.0
 40
0.0
 40
0.0
 40
0.0
 40
1.0
 40
1.0
 40
1.0
 40
1.0
 10
5.093928
 20
41.576796999999999
 30
0.0
 10
5.093928
 20
42.099755000000002
 30
0.0
 10
5.5183900000000001
 20
42.522523999999997
 30
0.0
 10
6.0413480000000002
 20
42.522241999999999
 30
0.0
  0
SPLINE
  5
81
  8
Layer_1
 62
1
420
16711680
370
-1
  6
ByLayer
100
AcDbEntity
100
AcDbSpline
 70
8
 71
3
 72
8
 73
4
 74
0
 40
0.0
 40
0.0
 40
0.0
 40
0.0
 40
1.0
 40
1.0
 40
1.0
 40
1.0
 10
6.0413480000000002
 20
42.522241999999999
 30
0.0
 10
6.5640229999999997
 20
42.521676999999997
 30
0.0
 10
6.9873570000000003
 20
42.097779000000003
 30
0.0
 10
6.9867920000000003
 20
41.574821999999998
 30
0.0
  0
LWPOLYLINE
  5
82
  8
Layer_1
 62
1
420
16711680
370
-1
  6
ByLayer
100
AcDbEntity
100
AcDbPolyline
 90
2
 70
0
 10
5.7447319999999999
 20
30.145104
 10
5.7447319999999999
 20
30.145104
  0
LWPOLYLINE
  5
83
  8
Layer_1
 62
1
420
16711680
370
-1
  6
ByLayer
100
AcDbEntity
100
AcDbPolyline
 90
2
 70
0
 10
6.9867920000000003
 20
41.574821999999998
 10
6.9867920000000003
 20
41.574821999999998
  0
SPLINE
  5
84
  8
Layer_1
 62
1
420
16711680
370
-1
  6
ByLayer
100
AcDbEntity
100
AcDbSpline
 70
8
 71
3
 72
8
 73
4
 74
0
 40
0.0
 40
0.0
 40
0.0
 40
0.0
 40
1.0
 40
1.0
 40
1.0
 40
1.0
 10
17.737765
 20
38.985714999999999
 30
0.0
 10
15.713103
 20
39.740941999999997
 30
0.0
 10
14.270101
 20
41.686864
 30
0.0
 10
14.272359
 20
43.974274999999999
 30
0.0
  0
SPLINE
  5
85
  8
Layer_1
 62
1
420
16711680
370
-1
  6
ByLayer
100
AcDbEntity
100
AcDbSpline
 70
8
 71
3
 72
8
 73
4
 74
0
 40
0.0
 40
0.0
 40
0.0
 40
0.0
 40
1.0
 40
1.0
 40
1.0
 40
1.0
 10
14.272359
 20
43.974274999999999
 30
0.0
 10
14.272359
 20
44.997047999999999
 30
0.0
 10
14.56841
 20
45.947854999999997
 30
0.0
 10
15.071047999999999
 20
46.756985999999998
 30
0.0
  0
LWPOLYLINE
  5
86
  8
Layer_1
 62
1
420
16711680
370
-1
  6
ByLayer
100
AcDbEntity
100
AcDbPolyline
 90
11
 70
0
 10
5.0933630000000001
 20
41.575949999999999
 10
4.7719120000000004
 20
30.145385999999998
 10
11.248065
 20
30.139177
 10
11.244114
 20
26.538578000000001
 10
13.721743
 20
26.535755000000002
 10
13.721743
 20
27.456645999999999
 10
16.761558999999998
 20
27.453541999999999
 10
16.761558999999998
 20
26.532651000000001
 10
23.534891999999999
 20
26.526160000000001
 10
23.547592000000002
 20
38.979787999999999
 10
17.737765
 20
38.985714999999999
  0
SPLINE
  5
87
  8
Layer_1
 62
1
420
16711680
370
-1
  6
ByLayer
100
AcDbEntity
100
AcDbSpline
 70
8
 71
3
 72
8
 73
4
 74
0
 40
0.0
 40
0.0
 40
0.0
 40
0.0
 40
1.0
 40
1.0
 40
1.0
 40
1.0
 10
4.011323
 20
45.580965999999997
 30
0.0
 10
2.6857250000000001
 20
45.580965999999997
 30
0.0
 10
1.611305
 20
44.506264000000002
 30
0.0
 10
1.611305
 20
43.181229999999999
 30
0.0
  0
LWPOLYLINE
  5
88
  8
Layer_1
 62
1
420
16711680
370
-1
  6
ByLayer
100
AcDbEntity
100
AcDbPolyline
 90
4
 70
0
 10
15.071047999999999
 20
46.756985999999998
 10
15.071047999999999
 20
47.560189999999999
 10
5.2753969999999999
 20
45.889434999999999
 10
4.011323
 20
45.580965999999997
  0
SPLINE
  5
89
  8
Layer_1
 62
1
420
16711680
370
-1
  6
ByLayer
100
AcDbEntity
100
AcDbSpline
 70
8
 71
3
 72
8
 73
4
 74
0
 40
0.0
 40
0.0
 40
0.0
 40
0.0
 40
1.0
 40
1.0
 40
1.0
 40
1.0
 10
1.283928
 20
23.852951000000001
 30
0.0
 10
1.283928
 20
22.972981999999998
 30
0.0
 10
1.732097
 20
21.869492999999999
 30
0.0
 10
2.2815829999999999
 20
21.400158000000001
 30
0.0
  0
SPLINE
  5
8A
  8
Layer_1
 62
1
420
16711680
370
-1
  6
ByLayer
100
AcDbEntity
100
AcDbSpline
 70
8
 71
3
 72
8
 73
4
 74
0
 40
0.0
 40
0.0
 40
0.0
 40
0.0
 40
1.0
 40
1.0
 40
1.0
 40
1.0
 10
2.2815829999999999
 20
21.400158000000001
 30
0.0
 10
2.83107
 20
20.931104000000001
 30
0.0
 10
3.3111299999999999
 20
20.547000000000001
 30
0.0
 10
3.3111299999999999
 20
20.547000000000001
 30
0.0
  0
SPLINE
  5
8B
  8
Layer_1
 62
1
420
16711680
370
-1
  6
ByLayer
100
AcDbEntity
100
AcDbSpline
 70
8
 71
3
 72
8
 73
4
 74
0
 40
0.0
 40
0.0
 40
0.0
 40
0.0
 40
1.0
 40
1.0
 40
1.0
 40
1.0
 10
5.5786160000000002
 20
46.989446999999998
 30
0.0
 10
6.9039320000000002
 20
46.989446999999998
 30
0.0
 10
7.9786339999999996
 20
48.063867000000002
 30
0.0
 10
7.9786339999999996
 20
49.389465000000001
 30
0.0
  0
SPLINE
  5
8C
  8
Layer_1
 62
1
420
16711680
370
-1
  6
ByLayer
100
AcDbEntity
100
AcDbSpline
 70
8
 71
3
 72
8
 73
4
 74
0
 40
0.0
 40
0.0
 40
0.0
 40
0.0
 40
1.0
 40
1.0
 40
1.0
 40
1.0
 10
7.9786339999999996
 20
49.389465000000001
 30
0.0
 10
7.9786339999999996
 20
49.688056000000003
 30
0.0
 10
7.9216249999999997
 20
49.972535999999998
 30
0.0
 10
7.8217179999999997
 20
50.236696000000002
 30
0.0
  0
LWPOLYLINE
  5
8D
  8
Layer_1
 62
1
420
16711680
370
-1
  6
ByLayer
100
AcDbEntity
100
AcDbPolyline
 90
3
 70
0
 10
1.611305
 20
43.181229999999999
 10
1.2898540000000001
 20
30.148489999999999
 10
1.283928
 20
23.852951000000001
  0
SPLINE
  5
8E
  8
Layer_1
 62
1
420
16711680
370
-1
  6
ByLayer
100
AcDbEntity
100
AcDbSpline
 70
8
 71
3
 72
8
 73
4
 74
0
 40
0.0
 40
0.0
 40
0.0
 40
0.0
 40
1.0
 40
1.0
 40
1.0
 40
1.0
 10
14.732775999999999
 20
55.010767000000001
 30
0.0
 10
15.613027000000001
 20
55.010767000000001
 30
0.0
 10
16.332694
 20
55.563076000000002
 30
0.0
 10
16.332694
 20
56.443326999999996
 30
0.0
  0
SPLINE
  5
8F
  8
Layer_1
 62
1
420
16711680
370
-1
  6
ByLayer
100
AcDbEntity
100
AcDbSpline
 70
8
 71
3
 72
8
 73
4
 74
0
 40
0.0
 40
0.0
 40
0.0
 40
0.0
 40
1.0
 40
1.0
 40
1.0
 40
1.0
 10
16.332694
 20
56.443326999999996
 30
0.0
 10
16.332694
 20
56.443326999999996
 30
0.0
 10
15.659029
 20
57.392440000000001
 30
0.0
 10
14.827321
 20
57.392440000000001
 30
0.0
  0
SPLINE
  5
90
  8
Layer_1
 62
1
420
16711680
370
-1
  6
ByLayer
100
AcDbEntity
100
AcDbSpline
 70
8
 71
3
 72
8
 73
4
 74
0
 40
0.0
 40
0.0
 40
0.0
 40
0.0
 40
1.0
 40
1.0
 40
1.0
 40
1.0
 10
14.827321
 20
57.392440000000001
 30
0.0
 10
14.509256000000001
 20
57.392440000000001
 30
0.0
 10
14.245943
 20
57.203350999999998
 30
0.0
 10
14.190063
 20
56.901373999999997
 30
0.0
  0
LWPOLYLINE
  5
91
  8
Layer_1
 62
1
420
16711680
370
-1
  6
ByLayer
100
AcDbEntity
100
AcDbPolyline
 90
3
 70
0
 10
7.8217179999999997
 20
50.236696000000002
 10
7.8217179999999997
 20
55.010767000000001
 10
14.732775999999999
 20
55.010767000000001
  0
SPLINE
  5
92
  8
Layer_1
 62
1
420
16711680
370
-1
  6
ByLayer
100
AcDbEntity
100
AcDbSpline
 70
8
 71
3
 72
8
 73
4
 74
0
 40
0.0
 40
0.0
 40
0.0
 40
0.0
 40
1.0
 40
1.0
 40
1.0
 40
1.0
 10
9.5793979999999994
 20
56.901373999999997
 30
0.0
 10
9.358136
 20
56.901373999999997
 30
0.0
 10
9.1792069999999999
 20
57.080584999999999
 30
0.0
 10
9.1792069999999999
 20
57.301564999999997
 30
0.0
  0
LWPOLYLINE
  5
93
  8
Layer_1
 62
1
420
16711680
370
-1
  6
ByLayer
100
AcDbEntity
100
AcDbPolyline
 90
2
 70
0
 10
14.190063
 20
56.901373999999997
 10
9.5793979999999994
 20
56.901373999999997
  0
SPLINE
  5
94
  8
Layer_1
 62
1
420
16711680
370
-1
  6
ByLayer
100
AcDbEntity
100
AcDbSpline
 70
8
 71
3
 72
8
 73
4
 74
0
 40
0.0
 40
0.0
 40
0.0
 40
0.0
 40
1.0
 40
1.0
 40
1.0
 40
1.0
 10
9.1792069999999999
 20
57.901851000000001
 30
0.0
 10
9.1792069999999999
 20
58.122830999999998
 30
0.0
 10
9.358136
 20
58.302042
 30
0.0
 10
9.5793979999999994
 20
58.302042
 30
0.0
  0
LWPOLYLINE
  5
95
  8
Layer_1
 62
1
420
16711680
370
-1
  6
ByLayer
100
AcDbEntity
100
AcDbPolyline
 90
2
 70
0
 10
9.1792069999999999
 20
57.301564999999997
 10
9.1792069999999999
 20
57.901851000000001
  0
SPLINE
  5
96
  8
Layer_1
 62
1
420
16711680
370
-1
  6
ByLayer
100
AcDbEntity
100
AcDbSpline
 70
8
 71
3
 72
8
 73
4
 74
0
 40
0.0
 40
0.0
 40
0.0
 40
0.0
 40
1.0
 40
1.0
 40
1.0
 40
1.0
 10
14.190345000000001
 20
58.302042
 30
0.0
 10
14.246506999999999
 20
58.001193999999998
 30
0.0
 10
14.509821000000001
 20
57.852179999999997
 30
0.0
 10
14.827321
 20
57.852179999999997
 30
0.0
  0
LWPOLYLINE
  5
97
  8
Layer_1
 62
1
420
16711680
370
-1
  6
ByLayer
100
AcDbEntity
100
AcDbPolyline
 90
2
 70
0
 10
9.5793979999999994
 20
58.302042
 10
14.190345000000001
 20
58.302042
  0
SPLINE
  5
98
  8
Layer_1
 62
1
420
16711680
370
-1
  6
ByLayer
100
AcDbEntity
100
AcDbSpline
 70
8
 71
3
 72
8
 73
4
 74
0
 40
0.0
 40
0.0
 40
0.0
 40
0.0
 40
1.0
 40
1.0
 40
1.0
 40
1.0
 10
14.827321
 20
57.857259999999997
 30
0.0
 10
15.653103
 20
57.857259999999997
 30
0.0
 10
16.322534000000001
 20
58.832338
 30
0.0
 10
16.331847
 20
58.846167000000001
 30
0.0
  0
SPLINE
  5
99
  8
Layer_1
 62
1
420
16711680
370
-1
  6
ByLayer
100
AcDbEntity
100
AcDbSpline
 70
8
 71
3
 72
8
 73
4
 74
0
 40
0.0
 40
0.0
 40
0.0
 40
0.0
 40
1.0
 40
1.0
 40
1.0
 40
1.0
 10
16.331847
 20
58.846167000000001
 30
0.0
 10
16.322534000000001
 20
58.859431000000001
 30
0.0
 10
15.653103
 20
59.833945
 30
0.0
 10
14.827321
 20
59.833945
 30
0.0
  0
SPLINE
  5
9A
  8
Layer_1
 62
1
420
16711680
370
-1
  6
ByLayer
100
AcDbEntity
100
AcDbSpline
 70
8
 71
3
 72
8
 73
4
 74
0
 40
0.0
 40
0.0
 40
0.0
 40
0.0
 40
1.0
 40
1.0
 40
1.0
 40
1.0
 10
14.827321
 20
59.833945
 30
0.0
 10
14.509256000000001
 20
59.833945
 30
0.0
 10
14.245943
 20
59.684930999999999
 30
0.0
 10
14.190063
 20
59.382953999999998
 30
0.0
  0
LWPOLYLINE
  5
9B
  8
Layer_1
 62
1
420
16711680
370
-1
  6
ByLayer
100
AcDbEntity
100
AcDbPolyline
 90
2
 70
0
 10
14.827321
 20
57.852179999999997
 10
14.827321
 20
57.857259999999997
  0
SPLINE
  5
9C
  8
Layer_1
 62
1
420
16711680
370
-1
  6
ByLayer
100
AcDbEntity
100
AcDbSpline
 70
8
 71
3
 72
8
 73
4
 74
0
 40
0.0
 40
0.0
 40
0.0
 40
0.0
 40
1.0
 40
1.0
 40
1.0
 40
1.0
 10
9.5793979999999994
 20
59.382953999999998
 30
0.0
 10
9.358136
 20
59.382953999999998
 30
0.0
 10
9.1792069999999999
 20
59.562165
 30
0.0
 10
9.1792069999999999
 20
59.783144999999998
 30
0.0
  0
LWPOLYLINE
  5
9D
  8
Layer_1
 62
1
420
16711680
370
-1
  6
ByLayer
100
AcDbEntity
100
AcDbPolyline
 90
2
 70
0
 10
14.190063
 20
59.382953999999998
 10
9.5793979999999994
 20
59.382953999999998
  0
SPLINE
  5
9E
  8
Layer_1
 62
1
420
16711680
370
-1
  6
ByLayer
100
AcDbEntity
100
AcDbSpline
 70
8
 71
3
 72
8
 73
4
 74
0
 40
0.0
 40
0.0
 40
0.0
 40
0.0
 40
1.0
 40
1.0
 40
1.0
 40
1.0
 10
9.1792069999999999
 20
60.423225000000002
 30
0.0
 10
9.1792069999999999
 20
60.644204999999999
 30
0.0
 10
9.358136
 20
60.823416000000002
 30
0.0
 10
9.5793979999999994
 20
60.823416000000002
 30
0.0
  0
LWPOLYLINE
  5
9F
  8
Layer_1
 62
1
420
16711680
370
-1
  6
ByLayer
100
AcDbEntity
100
AcDbPolyline
 90
2
 70
0
 10
9.1792069999999999
 20
59.783144999999998
 10
9.1792069999999999
 20
60.423225000000002
  0
SPLINE
  5
A0
  8
Layer_1
 62
1
420
16711680
370
-1
  6
ByLayer
100
AcDbEntity
100
AcDbSpline
 70
8
 71
3
 72
8
 73
4
 74
0
 40
0.0
 40
0.0
 40
0.0
 40
0.0
 40
1.0
 40
1.0
 40
1.0
 40
1.0
 10
14.190345000000001
 20
60.823416000000002
 30
0.0
 10
14.246506999999999
 20
60.522567000000002
 30
0.0
 10
14.509821000000001
 20
60.334041999999997
 30
0.0
 10
14.827321
 20
60.334041999999997
 30
0.0
  0
LWPOLYLINE
  5
A1
  8
Layer_1
 62
1
420
16711680
370
-1
  6
ByLayer
100
AcDbEntity
100
AcDbPolyline
 90
2
 70
0
 10
9.5793979999999994
 20
60.823416000000002
 10
14.190345000000001
 20
60.823416000000002
  0
SPLINE
  5
A2
  8
Layer_1
 62
1
420
16711680
370
-1
  6
ByLayer
100
AcDbEntity
100
AcDbSpline
 70
8
 71
3
 72
8
 73
4
 74
0
 40
0.0
 40
0.0
 40
0.0
 40
0.0
 40
1.0
 40
1.0
 40
1.0
 40
1.0
 10
14.827321
 20
60.339122000000003
 30
0.0
 10
15.659029
 20
60.339122000000003
 30
0.0
 10
16.332694
 20
61.288800000000002
 30
0.0
 10
16.332694
 20
61.288800000000002
 30
0.0
  0
LWPOLYLINE
  5
A3
  8
Layer_1
 62
1
420
16711680
370
-1
  6
ByLayer
100
AcDbEntity
100
AcDbPolyline
 90
2
 70
0
 10
14.827321
 20
60.334041999999997
 10
14.827321
 20
60.339122000000003
  0
SPLINE
  5
A4
  8
Layer_1
 62
1
420
16711680
370
-1
  6
ByLayer
100
AcDbEntity
100
AcDbSpline
 70
8
 71
3
 72
8
 73
4
 74
0
 40
0.0
 40
0.0
 40
0.0
 40
0.0
 40
1.0
 40
1.0
 40
1.0
 40
1.0
 10
16.332694
 20
62.427567000000003
 30
0.0
 10
15.774457999999999
 20
62.853721999999998
 30
0.0
 10
15.384145
 20
63.484489000000004
 30
0.0
 10
15.267587000000001
 20
64.207542000000004
 30
0.0
  0
SPLINE
  5
A5
  8
Layer_1
 62
1
420
16711680
370
-1
  6
ByLayer
100
AcDbEntity
100
AcDbSpline
 70
8
 71
3
 72
8
 73
4
 74
0
 40
0.0
 40
0.0
 40
0.0
 40
0.0
 40
1.0
 40
1.0
 40
1.0
 40
1.0
 10
15.267587000000001
 20
64.207542000000004
 30
0.0
 10
15.267587000000001
 20
64.267656000000002
 30
0.0
 10
15.263354
 20
64.326076
 30
0.0
 10
15.259121
 20
64.383931000000004
 30
0.0
  0
SPLINE
  5
A6
  8
Layer_1
 62
1
420
16711680
370
-1
  6
ByLayer
100
AcDbEntity
100
AcDbSpline
 70
8
 71
3
 72
8
 73
4
 74
0
 40
0.0
 40
0.0
 40
0.0
 40
0.0
 40
1.0
 40
1.0
 40
1.0
 40
1.0
 10
15.259121
 20
64.383931000000004
 30
0.0
 10
15.252629000000001
 20
64.479887000000005
 30
0.0
 10
15.243034
 20
64.575841999999994
 30
0.0
 10
15.228923
 20
64.668976000000001
 30
0.0
  0
SPLINE
  5
A7
  8
Layer_1
 62
1
420
16711680
370
-1
  6
ByLayer
100
AcDbEntity
100
AcDbSpline
 70
8
 71
3
 72
8
 73
4
 74
0
 40
0.0
 40
0.0
 40
0.0
 40
0.0
 40
1.0
 40
1.0
 40
1.0
 40
1.0
 10
15.228923
 20
64.668976000000001
 30
0.0
 10
15.015845000000001
 20
66.088271000000006
 30
0.0
 10
13.877361000000001
 20
67.201638000000003
 30
0.0
 10
12.445646999999999
 20
67.373794000000004
 30
0.0
  0
LWPOLYLINE
  5
A8
  8
Layer_1
 62
1
420
16711680
370
-1
  6
ByLayer
100
AcDbEntity
100
AcDbPolyline
 90
2
 70
0
 10
16.332694
 20
61.288800000000002
 10
16.332694
 20
62.427567000000003
  0
SPLINE
  5
A9
  8
Layer_1
 62
1
420
16711680
370
-1
  6
ByLayer
100
AcDbEntity
100
AcDbSpline
 70
8
 71
3
 72
8
 73
4
 74
0
 40
0.0
 40
0.0
 40
0.0
 40
0.0
 40
1.0
 40
1.0
 40
1.0
 40
1.0
 10
6.2960250000000002
 20
67.373794000000004
 30
0.0
 10
4.8245180000000003
 20
67.196839999999995
 30
0.0
 10
3.6606339999999999
 20
66.025617999999994
 30
0.0
 10
3.4952519999999998
 20
64.551006999999998
 30
0.0
  0
LWPOLYLINE
  5
AA
  8
Layer_1
 62
1
420
16711680
370
-1
  6
ByLayer
100
AcDbEntity
100
AcDbPolyline
 90
2
 70
0
 10
12.445646999999999
 20
67.373794000000004
 10
6.2960250000000002
 20
67.373794000000004
  0
SPLINE
  5
AB
  8
Layer_1
 62
1
420
16711680
370
-1
  6
ByLayer
100
AcDbEntity
100
AcDbSpline
 70
8
 71
3
 72
8
 73
4
 74
0
 40
0.0
 40
0.0
 40
0.0
 40
0.0
 40
1.0
 40
1.0
 40
1.0
 40
1.0
 10
3.484245
 20
64.428522000000001
 30
0.0
 10
3.480858
 20
64.385059999999996
 30
0.0
 10
3.4797289999999998
 20
64.341316000000006
 30
0.0
 10
3.4783179999999998
 20
64.297571000000005
 30
0.0
  0
SPLINE
  5
AC
  8
Layer_1
 62
1
420
16711680
370
-1
  6
ByLayer
100
AcDbEntity
100
AcDbSpline
 70
8
 71
3
 72
8
 73
4
 74
0
 40
0.0
 40
0.0
 40
0.0
 40
0.0
 40
1.0
 40
1.0
 40
1.0
 40
1.0
 10
3.4783179999999998
 20
64.297571000000005
 30
0.0
 10
3.3801049999999999
 20
63.527386999999997
 30
0.0
 10
2.9689070000000002
 20
62.856544999999997
 30
0.0
 10
2.3762409999999998
 20
62.412326999999998
 30
0.0
  0
LWPOLYLINE
  5
AD
  8
Layer_1
 62
1
420
16711680
370
-1
  6
ByLayer
100
AcDbEntity
100
AcDbPolyline
 90
2
 70
0
 10
3.4952519999999998
 20
64.551006999999998
 10
3.484245
 20
64.428522000000001
  0
SPLINE
  5
AE
  8
Layer_1
 62
1
420
16711680
370
-1
  6
ByLayer
100
AcDbEntity
100
AcDbSpline
 70
8
 71
3
 72
8
 73
4
 74
0
 40
0.0
 40
0.0
 40
0.0
 40
0.0
 40
1.0
 40
1.0
 40
1.0
 40
1.0
 10
2.3762409999999998
 20
50.182226999999997
 30
0.0
 10
2.7230919999999998
 20
49.917501999999999
 30
0.0
 10
2.9982579999999999
 20
49.569240000000001
 30
0.0
 10
3.1898870000000001
 20
49.172435999999998
 30
0.0
  0
SPLINE
  5
AF
  8
Layer_1
 62
1
420
16711680
370
-1
  6
ByLayer
100
AcDbEntity
100
AcDbSpline
 70
8
 71
3
 72
8
 73
4
 74
0
 40
0.0
 40
0.0
 40
0.0
 40
0.0
 40
1.0
 40
1.0
 40
1.0
 40
1.0
 10
3.1898870000000001
 20
49.172435999999998
 30
0.0
 10
3.2991069999999998
 20
47.948720000000002
 30
0.0
 10
4.3261139999999996
 20
46.989446999999998
 30
0.0
 10
5.5786160000000002
 20
46.989446999999998
 30
0.0
  0
LWPOLYLINE
  5
B0
  8
Layer_1
 62
1
420
16711680
370
-1
  6
ByLayer
100
AcDbEntity
100
AcDbPolyline
 90
2
 70
0
 10
2.3762409999999998
 20
62.412326999999998
 10
2.3762409999999998
 20
50.182226999999997
  0
LWPOLYLINE
  5
B1
  8
Layer_1
 62
1
420
16711680
370
-1
  6
ByLayer
100
AcDbEntity
100
AcDbPolyline
 90
2
 70
0
 10
5.5786160000000002
 20
46.989446999999998
 10
5.5786160000000002
 20
46.989446999999998
  0
SPLINE
  5
B2
  8
Layer_1
 62
1
420
16711680
370
-1
  6
ByLayer
100
AcDbEntity
100
AcDbSpline
 70
8
 71
3
 72
8
 73
4
 74
0
 40
0.0
 40
0.0
 40
0.0
 40
0.0
 40
1.0
 40
1.0
 40
1.0
 40
1.0
 10
6.0894380000000004
 20
62.989471000000002
 30
0.0
 10
5.4267810000000001
 20
62.989471000000002
 30
0.0
 10
4.8897120000000003
 20
63.526257999999999
 30
0.0
 10
4.8897120000000003
 20
64.188916000000006
 30
0.0
  0
SPLINE
  5
B3
  8
Layer_1
 62
1
420
16711680
370
-1
  6
ByLayer
100
AcDbEntity
100
AcDbSpline
 70
8
 71
3
 72
8
 73
4
 74
0
 40
0.0
 40
0.0
 40
0.0
 40
0.0
 40
1.0
 40
1.0
 40
1.0
 40
1.0
 10
4.8897120000000003
 20
64.188916000000006
 30
0.0
 10
4.8897120000000003
 20
64.852137999999997
 30
0.0
 10
5.4267810000000001
 20
65.389206999999999
 30
0.0
 10
6.0894380000000004
 20
65.389206999999999
 30
0.0
  0
LWPOLYLINE
  5
B4
  8
Layer_1
 62
1
420
16711680
370
-1
  6
ByLayer
100
AcDbEntity
100
AcDbPolyline
 90
5
 70
0
 10
16.332694
 20
58.846449
 10
16.332694
 20
58.846449
 10
16.332694
 20
58.843626999999998
 10
16.332694
 20
58.846449
 10
16.332694
 20
58.846449
  0
SPLINE
  5
B5
  8
Layer_1
 62
1
420
16711680
370
-1
  6
ByLayer
100
AcDbEntity
100
AcDbSpline
 70
8
 71
3
 72
8
 73
4
 74
0
 40
0.0
 40
0.0
 40
0.0
 40
0.0
 40
1.0
 40
1.0
 40
1.0
 40
1.0
 10
8.9545580000000005
 20
65.389206999999999
 30
0.0
 10
9.6174979999999994
 20
65.389206999999999
 30
0.0
 10
10.154567
 20
64.852137999999997
 30
0.0
 10
10.154567
 20
64.188916000000006
 30
0.0
  0
SPLINE
  5
B6
  8
Layer_1
 62
1
420
16711680
370
-1
  6
ByLayer
100
AcDbEntity
100
AcDbSpline
 70
8
 71
3
 72
8
 73
4
 74
0
 40
0.0
 40
0.0
 40
0.0
 40
0.0
 40
1.0
 40
1.0
 40
1.0
 40
1.0
 10
10.154567
 20
64.188916000000006
 30
0.0
 10
10.154567
 20
63.526257999999999
 30
0.0
 10
9.6174979999999994
 20
62.989471000000002
 30
0.0
 10
8.9545580000000005
 20
62.989471000000002
 30
0.0
  0
LWPOLYLINE
  5
B7
  8
Layer_1
 62
1
420
16711680
370
-1
  6
ByLayer
100
AcDbEntity
100
AcDbPolyline
 90
2
 70
0
 10
6.0894380000000004
 20
65.389206999999999
 10
8.9545580000000005
 20
65.389206999999999
  0
SPLINE
  5
B8
  8
Layer_1
 62
1
420
16711680
370
-1
  6
ByLayer
100
AcDbEntity
100
AcDbSpline
 70
8
 71
3
 72
8
 73
4
 74
0
 40
0.0
 40
0.0
 40
0.0
 40
0.0
 40
1.0
 40
1.0
 40
1.0
 40
1.0
 10
5.5786160000000002
 20
48.189456
 30
0.0
 10
6.2415560000000001
 20
48.189456
 30
0.0
 10
6.7786249999999999
 20
48.726525000000002
 30
0.0
 10
6.7786249999999999
 20
49.389465000000001
 30
0.0
  0
SPLINE
  5
B9
  8
Layer_1
 62
1
420
16711680
370
-1
  6
ByLayer
100
AcDbEntity
100
AcDbSpline
 70
8
 71
3
 72
8
 73
4
 74
0
 40
0.0
 40
0.0
 40
0.0
 40
0.0
 40
1.0
 40
1.0
 40
1.0
 40
1.0
 10
6.7786249999999999
 20
49.389465000000001
 30
0.0
 10
6.7786249999999999
 20
50.051839999999999
 30
0.0
 10
6.2415560000000001
 20
50.589474000000003
 30
0.0
 10
5.5786160000000002
 20
50.589474000000003
 30
0.0
  0
SPLINE
  5
BA
  8
Layer_1
 62
1
420
16711680
370
-1
  6
ByLayer
100
AcDbEntity
100
AcDbSpline
 70
8
 71
3
 72
8
 73
4
 74
0
 40
0.0
 40
0.0
 40
0.0
 40
0.0
 40
1.0
 40
1.0
 40
1.0
 40
1.0
 10
5.5786160000000002
 20
50.589474000000003
 30
0.0
 10
4.9159579999999998
 20
50.589474000000003
 30
0.0
 10
4.3783250000000002
 20
50.051839999999999
 30
0.0
 10
4.3783250000000002
 20
49.389465000000001
 30
0.0
  0
SPLINE
  5
BB
  8
Layer_1
 62
1
420
16711680
370
-1
  6
ByLayer
100
AcDbEntity
100
AcDbSpline
 70
8
 71
3
 72
8
 73
4
 74
0
 40
0.0
 40
0.0
 40
0.0
 40
0.0
 40
1.0
 40
1.0
 40
1.0
 40
1.0
 10
4.3783250000000002
 20
49.389465000000001
 30
0.0
 10
4.3783250000000002
 20
48.726525000000002
 30
0.0
 10
4.9162410000000003
 20
48.189456
 30
0.0
 10
5.5786160000000002
 20
48.189456
 30
0.0
  0
LWPOLYLINE
  5
BC
  8
Layer_1
 62
1
420
16711680
370
-1
  6
ByLayer
100
AcDbEntity
100
AcDbPolyline
 90
3
 70
0
 10
8.9545580000000005
 20
62.989471000000002
 10
6.0894380000000004
 20
62.989471000000002
 10
6.0894380000000004
 20
62.989471000000002
  0
SPLINE
  5
BD
  8
Layer_1
 62
1
420
16711680
370
-1
  6
ByLayer
100
AcDbEntity
100
AcDbSpline
 70
8
 71
3
 72
8
 73
4
 74
0
 40
0.0
 40
0.0
 40
0.0
 40
0.0
 40
1.0
 40
1.0
 40
1.0
 40
1.0
 10
13.178578
 20
62.989471000000002
 30
0.0
 10
13.841236
 20
62.989471000000002
 30
0.0
 10
14.378587
 20
63.526257999999999
 30
0.0
 10
14.378587
 20
64.188916000000006
 30
0.0
  0
SPLINE
  5
BE
  8
Layer_1
 62
1
420
16711680
370
-1
  6
ByLayer
100
AcDbEntity
100
AcDbSpline
 70
8
 71
3
 72
8
 73
4
 74
0
 40
0.0
 40
0.0
 40
0.0
 40
0.0
 40
1.0
 40
1.0
 40
1.0
 40
1.0
 10
14.378587
 20
64.188916000000006
 30
0.0
 10
14.378587
 20
64.852137999999997
 30
0.0
 10
13.841236
 20
65.389206999999999
 30
0.0
 10
13.178578
 20
65.389206999999999
 30
0.0
  0
SPLINE
  5
BF
  8
Layer_1
 62
1
420
16711680
370
-1
  6
ByLayer
100
AcDbEntity
100
AcDbSpline
 70
8
 71
3
 72
8
 73
4
 74
0
 40
0.0
 40
0.0
 40
0.0
 40
0.0
 40
1.0
 40
1.0
 40
1.0
 40
1.0
 10
13.178578
 20
65.389206999999999
 30
0.0
 10
12.515921000000001
 20
65.389206999999999
 30
0.0
 10
11.978569
 20
64.852137999999997
 30
0.0
 10
11.978569
 20
64.188916000000006
 30
0.0
  0
SPLINE
  5
C0
  8
Layer_1
 62
1
420
16711680
370
-1
  6
ByLayer
100
AcDbEntity
100
AcDbSpline
 70
8
 71
3
 72
8
 73
4
 74
0
 40
0.0
 40
0.0
 40
0.0
 40
0.0
 40
1.0
 40
1.0
 40
1.0
 40
1.0
 10
11.978569
 20
64.188916000000006
 30
0.0
 10
11.978569
 20
63.526257999999999
 30
0.0
 10
12.515921000000001
 20
62.989471000000002
 30
0.0
 10
13.178578
 20
62.989471000000002
 30
0.0
  0
LWPOLYLINE
  5
C1
  8
Layer_1
 62
1
420
16711680
370
-1
  6
ByLayer
100
AcDbEntity
100
AcDbPolyline
 90
2
 70
0
 10
5.5786160000000002
 20
48.189456
 10
5.5786160000000002
 20
48.189456
  0
LWPOLYLINE
  5
C2
  8
Layer_1
 62
1
420
16711680
370
-1
  6
ByLayer
100
AcDbEntity
100
AcDbPolyline
 90
2
 70
0
 10
13.178578
 20
62.989471000000002
 10
13.178578
 20
62.989471000000002
  0
SPLINE
  5
C3
  8
Layer_1
 62
1
420
16711680
370
-1
  6
ByLayer
100
AcDbEntity
100
AcDbSpline
 70
8
 71
3
 72
8
 73
4
 74
0
 40
0.0
 40
0.0
 40
0.0
 40
0.0
 40
1.0
 40
1.0
 40
1.0
 40
1.0
 10
49.40316932443821
 20
48.716140879915741
 30
0.0
 10
49.379462324438208
 20
48.737024879915744
 30
0.0
 10
49.353780324438205
 20
48.755933879915744
 30
0.0
 10
49.328662324438206
 20
48.776253879915743
 30
0.0
  0
SPLINE
  5
C4
  8
Layer_1
 62
1
420
16711680
370
-1
  6
ByLayer
100
AcDbEntity
100
AcDbSpline
 70
8
 71
3
 72
8
 73
4
 74
0
 40
0.0
 40
0.0
 40
0.0
 40
0.0
 40
1.0
 40
1.0
 40
1.0
 40
1.0
 10
49.328662324438206
 20
64.074109879915738
 30
0.0
 10
49.328662324438206
 20
65.841666879915735
 30
0.0
 10
47.8966663244382
 20
67.274226879915744
 30
0.0
 10
46.129391324438203
 20
67.274226879915744
 30
0.0
  0
LWPOLYLINE
  5
C5
  8
Layer_1
 62
1
420
16711680
370
-1
  6
ByLayer
100
AcDbEntity
100
AcDbPolyline
 90
2
 70
0
 10
49.328662324438206
 20
48.776253879915743
 10
49.328662324438206
 20
64.074109879915738
  0
SPLINE
  5
C6
  8
Layer_1
 62
1
420
16711680
370
-1
  6
ByLayer
100
AcDbEntity
100
AcDbSpline
 70
8
 71
3
 72
8
 73
4
 74
0
 40
0.0
 40
0.0
 40
0.0
 40
0.0
 40
1.0
 40
1.0
 40
1.0
 40
1.0
 10
45.782540324438202
 20
67.274226879915744
 30
0.0
 10
44.015264324438206
 20
67.274226879915744
 30
0.0
 10
42.582704324438204
 20
65.841666879915735
 30
0.0
 10
42.582704324438204
 20
64.074109879915738
 30
0.0
  0
LWPOLYLINE
  5
C7
  8
Layer_1
 62
1
420
16711680
370
-1
  6
ByLayer
100
AcDbEntity
100
AcDbPolyline
 90
2
 70
0
 10
46.129391324438203
 20
67.274226879915744
 10
45.782540324438202
 20
67.274226879915744
  0
SPLINE
  5
C8
  8
Layer_1
 62
1
420
16711680
370
-1
  6
ByLayer
100
AcDbEntity
100
AcDbSpline
 70
8
 71
3
 72
8
 73
4
 74
0
 40
0.0
 40
0.0
 40
0.0
 40
0.0
 40
1.0
 40
1.0
 40
1.0
 40
1.0
 10
42.582704324438204
 20
48.823666879915741
 30
0.0
 10
42.339146324438204
 20
48.62695887991574
 30
0.0
 10
42.10744232443821
 20
48.409364879915742
 30
0.0
 10
41.895775324438205
 20
48.164113879915739
 30
0.0
  0
SPLINE
  5
C9
  8
Layer_1
 62
1
420
16711680
370
-1
  6
ByLayer
100
AcDbEntity
100
AcDbSpline
 70
8
 71
3
 72
8
 73
4
 74
0
 40
0.0
 40
0.0
 40
0.0
 40
0.0
 40
1.0
 40
1.0
 40
1.0
 40
1.0
 10
41.895775324438205
 20
48.164113879915739
 30
0.0
 10
41.707815324438201
 20
47.947084879915742
 30
0.0
 10
41.548078324438208
 20
47.717073879915745
 30
0.0
 10
41.401886324438209
 20
47.48113587991574
 30
0.0
  0
LWPOLYLINE
  5
CA
  8
Layer_1
 62
1
420
16711680
370
-1
  6
ByLayer
100
AcDbEntity
100
AcDbPolyline
 90
2
 70
0
 10
42.582704324438204
 20
64.074109879915738
 10
42.582704324438204
 20
48.823666879915741
  0
SPLINE
  5
CB
  8
Layer_1
 62
1
420
16711680
370
-1
  6
ByLayer
100
AcDbEntity
100
AcDbSpline
 70
8
 71
3
 72
8
 73
4
 74
0
 40
0.0
 40
0.0
 40
0.0
 40
0.0
 40
1.0
 40
1.0
 40
1.0
 40
1.0
 10
41.401886324438209
 20
41.877331879915744
 30
0.0
 10
41.679029324438204
 20
41.430291879915742
 30
0.0
 10
42.028138324438203
 20
41.017400879915741
 30
0.0
 10
42.446955324438207
 20
40.655309879915741
 30
0.0
  0
SPLINE
  5
CC
  8
Layer_1
 62
1
420
16711680
370
-1
  6
ByLayer
100
AcDbEntity
100
AcDbSpline
 70
8
 71
3
 72
8
 73
4
 74
0
 40
0.0
 40
0.0
 40
0.0
 40
0.0
 40
1.0
 40
1.0
 40
1.0
 40
1.0
 10
42.446955324438207
 20
40.655309879915741
 30
0.0
 10
44.673124324438206
 20
38.734786879915745
 30
0.0
 10
48.034109324438205
 20
38.982295879915739
 30
0.0
 10
49.955478324438204
 20
41.208182879915739
 30
0.0
  0
SPLINE
  5
CD
  8
Layer_1
 62
1
420
16711680
370
-1
  6
ByLayer
100
AcDbEntity
100
AcDbSpline
 70
8
 71
3
 72
8
 73
4
 74
0
 40
0.0
 40
0.0
 40
0.0
 40
0.0
 40
1.0
 40
1.0
 40
1.0
 40
1.0
 10
49.955478324438204
 20
41.208182879915739
 30
0.0
 10
51.876282324438208
 20
43.433504879915745
 30
0.0
 10
51.629338324438208
 20
46.794771879915743
 30
0.0
 10
49.40316932443821
 20
48.716140879915741
 30
0.0
  0
LWPOLYLINE
  5
CE
  8
Layer_1
 62
1
420
16711680
370
-1
  6
ByLayer
100
AcDbEntity
100
AcDbPolyline
 90
2
 70
0
 10
41.401886324438209
 20
47.48113587991574
 10
41.401886324438209
 20
41.877331879915744
  0
SPLINE
  5
CF
  8
Layer_1
 62
1
420
16711680
370
-1
  6
ByLayer
100
AcDbEntity
100
AcDbSpline
 70
8
 71
3
 72
8
 73
4
 74
0
 40
0.0
 40
0.0
 40
0.0
 40
0.0
 40
1.0
 40
1.0
 40
1.0
 40
1.0
 10
46.956866324438209
 20
63.518131879915742
 30
0.0
 10
46.746329324438207
 20
62.94888987991574
 30
0.0
 10
46.113586324438202
 20
62.657918879915741
 30
0.0
 10
45.544062324438201
 20
62.868455879915743
 30
0.0
  0
SPLINE
  5
D0
  8
Layer_1
 62
1
420
16711680
370
-1
  6
ByLayer
100
AcDbEntity
100
AcDbSpline
 70
8
 71
3
 72
8
 73
4
 74
0
 40
0.0
 40
0.0
 40
0.0
 40
0.0
 40
1.0
 40
1.0
 40
1.0
 40
1.0
 10
45.544062324438201
 20
62.868455879915743
 30
0.0
 10
44.974255324438204
 20
63.078993879915743
 30
0.0
 10
44.683284324438205
 20
63.711453879915744
 30
0.0
 10
44.893540324438206
 20
64.281260879915749
 30
0.0
  0
SPLINE
  5
D1
  8
Layer_1
 62
1
420
16711680
370
-1
  6
ByLayer
100
AcDbEntity
100
AcDbSpline
 70
8
 71
3
 72
8
 73
4
 74
0
 40
0.0
 40
0.0
 40
0.0
 40
0.0
 40
1.0
 40
1.0
 40
1.0
 40
1.0
 10
44.893540324438206
 20
64.281260879915749
 30
0.0
 10
45.104642324438203
 20
64.850784879915736
 30
0.0
 10
45.736820324438206
 20
65.141473879915736
 30
0.0
 10
46.306626324438206
 20
64.931218879915747
 30
0.0
  0
SPLINE
  5
D2
  8
Layer_1
 62
1
420
16711680
370
-1
  6
ByLayer
100
AcDbEntity
100
AcDbSpline
 70
8
 71
3
 72
8
 73
4
 74
0
 40
0.0
 40
0.0
 40
0.0
 40
0.0
 40
1.0
 40
1.0
 40
1.0
 40
1.0
 10
46.306626324438206
 20
64.931218879915747
 30
0.0
 10
46.875586324438203
 20
64.720680879915747
 30
0.0
 10
47.167404324438209
 20
64.08793887991574
 30
0.0
 10
46.956866324438209
 20
63.518131879915742
 30
0.0
  0
LWPOLYLINE
  5
D3
  8
Layer_1
 62
1
420
16711680
370
-1
  6
ByLayer
100
AcDbEntity
100
AcDbPolyline
 90
2
 70
0
 10
49.40316932443821
 20
48.716140879915741
 10
49.40316932443821
 20
48.716140879915741
  0
SPLINE
  5
D4
  8
Layer_1
 62
1
420
16711680
370
-1
  6
ByLayer
100
AcDbEntity
100
AcDbSpline
 70
8
 71
3
 72
8
 73
4
 74
0
 40
0.0
 40
0.0
 40
0.0
 40
0.0
 40
1.0
 40
1.0
 40
1.0
 40
1.0
 10
46.192326324438206
 20
44.448093879915739
 30
0.0
 10
45.970218324438207
 20
43.84808987991574
 30
0.0
 10
45.303326324438203
 20
43.541031879915742
 30
0.0
 10
44.702475324438204
 20
43.76285887991574
 30
0.0
  0
SPLINE
  5
D5
  8
Layer_1
 62
1
420
16711680
370
-1
  6
ByLayer
100
AcDbEntity
100
AcDbSpline
 70
8
 71
3
 72
8
 73
4
 74
0
 40
0.0
 40
0.0
 40
0.0
 40
0.0
 40
1.0
 40
1.0
 40
1.0
 40
1.0
 10
44.702475324438204
 20
43.76285887991574
 30
0.0
 10
44.101624324438205
 20
43.984966879915739
 30
0.0
 10
43.794566324438208
 20
44.65242287991574
 30
0.0
 10
44.016675324438211
 20
45.253273879915739
 30
0.0
  0
SPLINE
  5
D6
  8
Layer_1
 62
1
420
16711680
370
-1
  6
ByLayer
100
AcDbEntity
100
AcDbSpline
 70
8
 71
3
 72
8
 73
4
 74
0
 40
0.0
 40
0.0
 40
0.0
 40
0.0
 40
1.0
 40
1.0
 40
1.0
 40
1.0
 10
44.016675324438211
 20
45.253273879915739
 30
0.0
 10
44.239349324438209
 20
45.853842879915739
 30
0.0
 10
44.906240324438201
 20
46.160335879915742
 30
0.0
 10
45.506526324438205
 20
45.938509879915742
 30
0.0
  0
SPLINE
  5
D7
  8
Layer_1
 62
1
420
16711680
370
-1
  6
ByLayer
100
AcDbEntity
100
AcDbSpline
 70
8
 71
3
 72
8
 73
4
 74
0
 40
0.0
 40
0.0
 40
0.0
 40
0.0
 40
1.0
 40
1.0
 40
1.0
 40
1.0
 10
45.506526324438205
 20
45.938509879915742
 30
0.0
 10
46.106813324438207
 20
45.716682879915744
 30
0.0
 10
46.414153324438203
 20
45.049226879915743
 30
0.0
 10
46.192326324438206
 20
44.448093879915739
 30
0.0
  0
LWPOLYLINE
  5
D8
  8
Layer_1
 62
1
420
16711680
370
-1
  6
ByLayer
100
AcDbEntity
100
AcDbPolyline
 90
2
 70
0
 10
46.956866324438209
 20
63.518131879915742
 10
46.956866324438209
 20
63.518131879915742
  0
SPLINE
  5
D9
  8
Layer_1
 62
1
420
16711680
370
-1
  6
ByLayer
100
AcDbEntity
100
AcDbSpline
 70
8
 71
3
 72
8
 73
4
 74
0
 40
0.0
 40
0.0
 40
0.0
 40
0.0
 40
1.0
 40
1.0
 40
1.0
 40
1.0
 10
31.688080324438204
 20
15.117011879915742
 30
0.0
 10
31.688080324438204
 20
15.757656879915741
 30
0.0
 10
32.208498324438203
 20
16.276380879915742
 30
0.0
 10
32.848860324438206
 20
16.275816879915741
 30
0.0
  0
SPLINE
  5
DA
  8
Layer_1
 62
1
420
16711680
370
-1
  6
ByLayer
100
AcDbEntity
100
AcDbSpline
 70
8
 71
3
 72
8
 73
4
 74
0
 40
0.0
 40
0.0
 40
0.0
 40
0.0
 40
1.0
 40
1.0
 40
1.0
 40
1.0
 10
32.848860324438206
 20
16.275816879915741
 30
0.0
 10
33.489222324438202
 20
16.275816879915741
 30
0.0
 10
34.007946324438208
 20
15.755398879915742
 30
0.0
 10
34.007382324438204
 20
15.115036879915742
 30
0.0
  0
SPLINE
  5
DB
  8
Layer_1
 62
1
420
16711680
370
-1
  6
ByLayer
100
AcDbEntity
100
AcDbSpline
 70
8
 71
3
 72
8
 73
4
 74
0
 40
0.0
 40
0.0
 40
0.0
 40
0.0
 40
1.0
 40
1.0
 40
1.0
 40
1.0
 10
34.007382324438204
 20
15.115036879915742
 30
0.0
 10
34.007382324438204
 20
14.474674879915742
 30
0.0
 10
33.486964324438205
 20
13.955949879915742
 30
0.0
 10
32.846602324438209
 20
13.956514879915742
 30
0.0
  0
SPLINE
  5
DC
  8
Layer_1
 62
1
420
16711680
370
-1
  6
ByLayer
100
AcDbEntity
100
AcDbSpline
 70
8
 71
3
 72
8
 73
4
 74
0
 40
0.0
 40
0.0
 40
0.0
 40
0.0
 40
1.0
 40
1.0
 40
1.0
 40
1.0
 10
32.846602324438209
 20
13.956514879915742
 30
0.0
 10
32.206240324438205
 20
13.956514879915742
 30
0.0
 10
31.687233324438203
 20
14.476649879915742
 30
0.0
 10
31.688080324438204
 20
15.117011879915742
 30
0.0
  0
LWPOLYLINE
  5
DD
  8
Layer_1
 62
1
420
16711680
370
-1
  6
ByLayer
100
AcDbEntity
100
AcDbPolyline
 90
2
 70
0
 10
46.192326324438206
 20
44.448093879915739
 10
46.192326324438206
 20
44.448093879915739
  0
SPLINE
  5
DE
  8
Layer_1
 62
1
420
16711680
370
-1
  6
ByLayer
100
AcDbEntity
100
AcDbSpline
 70
8
 71
3
 72
8
 73
4
 74
0
 40
0.0
 40
0.0
 40
0.0
 40
0.0
 40
1.0
 40
1.0
 40
1.0
 40
1.0
 10
44.025706324438204
 20
17.504894879915742
 30
0.0
 10
44.025706324438204
 20
18.14553887991574
 30
0.0
 10
44.546406324438209
 20
18.664262879915743
 30
0.0
 10
45.186486324438206
 20
18.663698879915742
 30
0.0
  0
SPLINE
  5
DF
  8
Layer_1
 62
1
420
16711680
370
-1
  6
ByLayer
100
AcDbEntity
100
AcDbSpline
 70
8
 71
3
 72
8
 73
4
 74
0
 40
0.0
 40
0.0
 40
0.0
 40
0.0
 40
1.0
 40
1.0
 40
1.0
 40
1.0
 10
45.186486324438206
 20
18.663698879915742
 30
0.0
 10
45.827413324438204
 20
18.663698879915742
 30
0.0
 10
46.345855324438205
 20
18.143280879915743
 30
0.0
 10
46.345291324438207
 20
17.502918879915743
 30
0.0
  0
SPLINE
  5
E0
  8
Layer_1
 62
1
420
16711680
370
-1
  6
ByLayer
100
AcDbEntity
100
AcDbSpline
 70
8
 71
3
 72
8
 73
4
 74
0
 40
0.0
 40
0.0
 40
0.0
 40
0.0
 40
1.0
 40
1.0
 40
1.0
 40
1.0
 10
46.345291324438207
 20
17.502918879915743
 30
0.0
 10
46.345291324438207
 20
16.862274879915741
 30
0.0
 10
45.824591324438202
 20
16.343549879915741
 30
0.0
 10
45.18394632443821
 20
16.344114879915743
 30
0.0
  0
SPLINE
  5
E1
  8
Layer_1
 62
1
420
16711680
370
-1
  6
ByLayer
100
AcDbEntity
100
AcDbSpline
 70
8
 71
3
 72
8
 73
4
 74
0
 40
0.0
 40
0.0
 40
0.0
 40
0.0
 40
1.0
 40
1.0
 40
1.0
 40
1.0
 10
45.18394632443821
 20
16.344114879915743
 30
0.0
 10
44.543866324438206
 20
16.344114879915743
 30
0.0
 10
44.024860324438208
 20
16.864531879915742
 30
0.0
 10
44.025706324438204
 20
17.504894879915742
 30
0.0
  0
LWPOLYLINE
  5
E2
  8
Layer_1
 62
1
420
16711680
370
-1
  6
ByLayer
100
AcDbEntity
100
AcDbPolyline
 90
2
 70
0
 10
31.688080324438204
 20
15.117011879915742
 10
31.688080324438204
 20
15.117011879915742
  0
SPLINE
  5
E3
  8
Layer_1
 62
1
420
16711680
370
-1
  6
ByLayer
100
AcDbEntity
100
AcDbSpline
 70
8
 71
3
 72
8
 73
4
 74
0
 40
0.0
 40
0.0
 40
0.0
 40
0.0
 40
1.0
 40
1.0
 40
1.0
 40
1.0
 10
44.045462324438205
 20
32.785260879915739
 30
0.0
 10
44.045462324438205
 20
33.425622879915743
 30
0.0
 10
44.565880324438204
 20
33.944346879915742
 30
0.0
 10
45.205960324438209
 20
33.943782879915744
 30
0.0
  0
SPLINE
  5
E4
  8
Layer_1
 62
1
420
16711680
370
-1
  6
ByLayer
100
AcDbEntity
100
AcDbSpline
 70
8
 71
3
 72
8
 73
4
 74
0
 40
0.0
 40
0.0
 40
0.0
 40
0.0
 40
1.0
 40
1.0
 40
1.0
 40
1.0
 10
45.205960324438209
 20
33.943782879915744
 30
0.0
 10
45.846886324438202
 20
33.94321887991574
 30
0.0
 10
46.365329324438207
 20
33.423364879915745
 30
0.0
 10
46.364764324438205
 20
32.783002879915742
 30
0.0
  0
SPLINE
  5
E5
  8
Layer_1
 62
1
420
16711680
370
-1
  6
ByLayer
100
AcDbEntity
100
AcDbSpline
 70
8
 71
3
 72
8
 73
4
 74
0
 40
0.0
 40
0.0
 40
0.0
 40
0.0
 40
1.0
 40
1.0
 40
1.0
 40
1.0
 10
46.364764324438205
 20
32.783002879915742
 30
0.0
 10
46.364764324438205
 20
32.142075879915744
 30
0.0
 10
45.844346324438206
 20
31.62363387991574
 30
0.0
 10
45.204266324438208
 20
31.624198879915742
 30
0.0
  0
SPLINE
  5
E6
  8
Layer_1
 62
1
420
16711680
370
-1
  6
ByLayer
100
AcDbEntity
100
AcDbSpline
 70
8
 71
3
 72
8
 73
4
 74
0
 40
0.0
 40
0.0
 40
0.0
 40
0.0
 40
1.0
 40
1.0
 40
1.0
 40
1.0
 10
45.204266324438208
 20
31.624198879915742
 30
0.0
 10
44.563622324438207
 20
31.625044879915741
 30
0.0
 10
44.044615324438205
 20
32.14461587991574
 30
0.0
 10
44.045462324438205
 20
32.785260879915739
 30
0.0
  0
LWPOLYLINE
  5
E7
  8
Layer_1
 62
1
420
16711680
370
-1
  6
ByLayer
100
AcDbEntity
100
AcDbPolyline
 90
2
 70
0
 10
44.025706324438204
 20
17.504894879915742
 10
44.025706324438204
 20
17.504894879915742
  0
SPLINE
  5
E8
  8
Layer_1
 62
1
420
16711680
370
-1
  6
ByLayer
100
AcDbEntity
100
AcDbSpline
 70
8
 71
3
 72
8
 73
4
 74
0
 40
0.0
 40
0.0
 40
0.0
 40
0.0
 40
1.0
 40
1.0
 40
1.0
 40
1.0
 10
32.507089324438205
 20
34.396184879915744
 30
0.0
 10
32.507089324438205
 20
35.036829879915743
 30
0.0
 10
33.027506324438207
 20
35.555553879915742
 30
0.0
 10
33.667869324438207
 20
35.554706879915742
 30
0.0
  0
SPLINE
  5
E9
  8
Layer_1
 62
1
420
16711680
370
-1
  6
ByLayer
100
AcDbEntity
100
AcDbSpline
 70
8
 71
3
 72
8
 73
4
 74
0
 40
0.0
 40
0.0
 40
0.0
 40
0.0
 40
1.0
 40
1.0
 40
1.0
 40
1.0
 10
33.667869324438207
 20
35.554706879915742
 30
0.0
 10
34.308513324438209
 20
35.554142879915744
 30
0.0
 10
34.826955324438202
 20
35.03428987991574
 30
0.0
 10
34.826391324438205
 20
34.393926879915739
 30
0.0
  0
SPLINE
  5
EA
  8
Layer_1
 62
1
420
16711680
370
-1
  6
ByLayer
100
AcDbEntity
100
AcDbSpline
 70
8
 71
3
 72
8
 73
4
 74
0
 40
0.0
 40
0.0
 40
0.0
 40
0.0
 40
1.0
 40
1.0
 40
1.0
 40
1.0
 10
34.826391324438205
 20
34.393926879915739
 30
0.0
 10
34.826391324438205
 20
33.753282879915744
 30
0.0
 10
34.305973324438206
 20
33.234840879915744
 30
0.0
 10
33.665611324438203
 20
33.235404879915741
 30
0.0
  0
SPLINE
  5
EB
  8
Layer_1
 62
1
420
16711680
370
-1
  6
ByLayer
100
AcDbEntity
100
AcDbSpline
 70
8
 71
3
 72
8
 73
4
 74
0
 40
0.0
 40
0.0
 40
0.0
 40
0.0
 40
1.0
 40
1.0
 40
1.0
 40
1.0
 10
33.665611324438203
 20
33.235404879915741
 30
0.0
 10
33.025249324438207
 20
33.235969879915743
 30
0.0
 10
32.505960324438206
 20
33.75582287991574
 30
0.0
 10
32.507089324438205
 20
34.396184879915744
 30
0.0
  0
LWPOLYLINE
  5
EC
  8
Layer_1
 62
1
420
16711680
370
-1
  6
ByLayer
100
AcDbEntity
100
AcDbPolyline
 90
2
 70
0
 10
44.045462324438205
 20
32.785260879915739
 10
44.045462324438205
 20
32.785260879915739
  0
SPLINE
  5
ED
  8
Layer_1
 62
1
420
16711680
370
-1
  6
ByLayer
100
AcDbEntity
100
AcDbSpline
 70
8
 71
3
 72
8
 73
4
 74
0
 40
0.0
 40
0.0
 40
0.0
 40
0.0
 40
1.0
 40
1.0
 40
1.0
 40
1.0
 10
42.749215324438204
 20
5.9357588799157419
 30
0.0
 10
42.749215324438204
 20
6.5761208799157416
 30
0.0
 10
43.269633324438203
 20
7.0945628799157419
 30
0.0
 10
43.909995324438206
 20
7.0939988799157421
 30
0.0
  0
SPLINE
  5
EE
  8
Layer_1
 62
1
420
16711680
370
-1
  6
ByLayer
100
AcDbEntity
100
AcDbSpline
 70
8
 71
3
 72
8
 73
4
 74
0
 40
0.0
 40
0.0
 40
0.0
 40
0.0
 40
1.0
 40
1.0
 40
1.0
 40
1.0
 10
43.909995324438206
 20
7.0939988799157421
 30
0.0
 10
44.550640324438206
 20
7.0939988799157421
 30
0.0
 10
45.069082324438206
 20
6.5735808799157418
 30
0.0
 10
45.068518324438202
 20
5.9329368799157418
 30
0.0
  0
SPLINE
  5
EF
  8
Layer_1
 62
1
420
16711680
370
-1
  6
ByLayer
100
AcDbEntity
100
AcDbSpline
 70
8
 71
3
 72
8
 73
4
 74
0
 40
0.0
 40
0.0
 40
0.0
 40
0.0
 40
1.0
 40
1.0
 40
1.0
 40
1.0
 10
45.068518324438202
 20
5.9329368799157418
 30
0.0
 10
45.068518324438202
 20
5.2925748799157422
 30
0.0
 10
44.548100324438209
 20
4.7738498799157423
 30
0.0
 10
43.907738324438206
 20
4.7744148799157422
 30
0.0
  0
SPLINE
  5
F0
  8
Layer_1
 62
1
420
16711680
370
-1
  6
ByLayer
100
AcDbEntity
100
AcDbSpline
 70
8
 71
3
 72
8
 73
4
 74
0
 40
0.0
 40
0.0
 40
0.0
 40
0.0
 40
1.0
 40
1.0
 40
1.0
 40
1.0
 10
43.907738324438206
 20
4.7744148799157422
 30
0.0
 10
43.267375324438206
 20
4.7744148799157422
 30
0.0
 10
42.748086324438205
 20
5.2948318799157423
 30
0.0
 10
42.749215324438204
 20
5.9357588799157419
 30
0.0
  0
LWPOLYLINE
  5
F1
  8
Layer_1
 62
1
420
16711680
370
-1
  6
ByLayer
100
AcDbEntity
100
AcDbPolyline
 90
2
 70
0
 10
32.507089324438205
 20
34.396184879915744
 10
32.507089324438205
 20
34.396184879915744
  0
LWPOLYLINE
  5
F2
  8
Layer_1
 62
1
420
16711680
370
-1
  6
ByLayer
100
AcDbEntity
100
AcDbPolyline
 90
2
 70
0
 10
42.749215324438204
 20
5.9357588799157419
 10
42.749215324438204
 20
5.9357588799157419
  0
SPLINE
  5
F3
  8
Layer_1
 62
1
420
16711680
370
-1
  6
ByLayer
100
AcDbEntity
100
AcDbSpline
 70
8
 71
3
 72
8
 73
4
 74
0
 40
0.0
 40
0.0
 40
0.0
 40
0.0
 40
1.0
 40
1.0
 40
1.0
 40
1.0
 10
43.91253532443821
 20
1.1357228799157419
 30
0.0
 10
46.562884324438201
 20
1.1329008799157418
 30
0.0
 10
48.714264324438204
 20
3.2800478799157418
 30
0.0
 10
48.716804324438201
 20
5.9309608799157418
 30
0.0
  0
LWPOLYLINE
  5
F4
  8
Layer_1
 62
1
420
16711680
370
-1
  6
ByLayer
100
AcDbEntity
100
AcDbPolyline
 90
3
 70
0
 10
36.442960324438204
 20
23.992054879915742
 10
36.442960324438204
 20
23.994876879915743
 10
36.445782324438206
 20
26.393200879915742
  0
SPLINE
  5
F5
  8
Layer_1
 62
1
420
16711680
370
-1
  6
ByLayer
100
AcDbEntity
100
AcDbSpline
 70
8
 71
3
 72
8
 73
4
 74
0
 40
0.0
 40
0.0
 40
0.0
 40
0.0
 40
1.0
 40
1.0
 40
1.0
 40
1.0
 10
26.629246324438206
 20
5.9524098799157423
 30
0.0
 10
26.626424324438204
 20
3.3012148799157419
 30
0.0
 10
27.973753324438206
 20
1.1509628799157419
 30
0.0
 10
27.973753324438206
 20
1.1509628799157419
 30
0.0
  0
LWPOLYLINE
  5
F6
  8
Layer_1
 62
1
420
16711680
370
-1
  6
ByLayer
100
AcDbEntity
100
AcDbPolyline
 90
13
 70
0
 10
48.716804324438201
 20
5.9309608799157418
 10
48.734302324438204
 20
23.982740879915742
 10
41.96096932443821
 20
23.989231879915742
 10
41.96096932443821
 20
23.068340879915741
 10
38.921153324438208
 20
23.071445879915743
 10
38.921153324438208
 20
23.99233687991574
 10
36.443524324438208
 20
23.995158879915742
 10
36.443524324438208
 20
23.99233687991574
 10
36.440138324438209
 20
20.393438879915742
 10
32.728915324438205
 20
20.39710787991574
 10
30.683369324438207
 20
20.399929879915742
 10
26.643640324438206
 20
20.404162879915742
 10
26.629246324438206
 20
5.9524098799157423
  0
SPLINE
  5
F7
  8
Layer_1
 62
1
420
16711680
370
-1
  6
ByLayer
100
AcDbEntity
100
AcDbSpline
 70
8
 71
3
 72
8
 73
4
 74
0
 40
0.0
 40
0.0
 40
0.0
 40
0.0
 40
1.0
 40
1.0
 40
1.0
 40
1.0
 10
30.945553324438205
 20
29.998880879915742
 30
0.0
 10
30.945553324438205
 20
29.476204879915741
 30
0.0
 10
30.520526324438205
 20
29.052871879915742
 30
0.0
 10
29.998415324438206
 20
29.053435879915742
 30
0.0
  0
SPLINE
  5
F8
  8
Layer_1
 62
1
420
16711680
370
-1
  6
ByLayer
100
AcDbEntity
100
AcDbSpline
 70
8
 71
3
 72
8
 73
4
 74
0
 40
0.0
 40
0.0
 40
0.0
 40
0.0
 40
1.0
 40
1.0
 40
1.0
 40
1.0
 10
29.998415324438206
 20
29.053435879915742
 30
0.0
 10
29.475458324438208
 20
29.054282879915743
 30
0.0
 10
29.052124324438207
 20
29.47818087991574
 30
0.0
 10
29.052689324438205
 20
30.000855879915743
 30
0.0
  0
SPLINE
  5
F9
  8
Layer_1
 62
1
420
16711680
370
-1
  6
ByLayer
100
AcDbEntity
100
AcDbSpline
 70
8
 71
3
 72
8
 73
4
 74
0
 40
0.0
 40
0.0
 40
0.0
 40
0.0
 40
1.0
 40
1.0
 40
1.0
 40
1.0
 10
29.052689324438205
 20
30.000855879915743
 30
0.0
 10
29.052689324438205
 20
30.523813879915743
 30
0.0
 10
29.477151324438204
 20
30.946864879915744
 30
0.0
 10
30.000109324438206
 20
30.946300879915743
 30
0.0
  0
SPLINE
  5
FA
  8
Layer_1
 62
1
420
16711680
370
-1
  6
ByLayer
100
AcDbEntity
100
AcDbSpline
 70
8
 71
3
 72
8
 73
4
 74
0
 40
0.0
 40
0.0
 40
0.0
 40
0.0
 40
1.0
 40
1.0
 40
1.0
 40
1.0
 10
30.000109324438206
 20
30.946300879915743
 30
0.0
 10
30.522784324438206
 20
30.946018879915741
 30
0.0
 10
30.946118324438206
 20
30.522120879915743
 30
0.0
 10
30.945553324438205
 20
29.998880879915742
 30
0.0
  0
LWPOLYLINE
  5
FB
  8
Layer_1
 62
1
420
16711680
370
-1
  6
ByLayer
100
AcDbEntity
100
AcDbPolyline
 90
4
 70
0
 10
27.973753324438206
 20
1.1509628799157419
 10
39.112218324438203
 20
1.139956879915742
 10
43.91253532443821
 20
1.136005879915742
 10
43.91253532443821
 20
1.1357228799157419
  0
SPLINE
  5
FC
  8
Layer_1
 62
1
420
16711680
370
-1
  6
ByLayer
100
AcDbEntity
100
AcDbSpline
 70
8
 71
3
 72
8
 73
4
 74
0
 40
0.0
 40
0.0
 40
0.0
 40
0.0
 40
1.0
 40
1.0
 40
1.0
 40
1.0
 10
32.187613324438203
 20
41.428598879915739
 30
0.0
 10
32.187613324438203
 20
40.905922879915742
 30
0.0
 10
31.762869324438206
 20
40.482589879915743
 30
0.0
 10
31.240193324438206
 20
40.482871879915741
 30
0.0
  0
SPLINE
  5
FD
  8
Layer_1
 62
1
420
16711680
370
-1
  6
ByLayer
100
AcDbEntity
100
AcDbSpline
 70
8
 71
3
 72
8
 73
4
 74
0
 40
0.0
 40
0.0
 40
0.0
 40
0.0
 40
1.0
 40
1.0
 40
1.0
 40
1.0
 10
31.240193324438206
 20
40.482871879915741
 30
0.0
 10
30.717518324438206
 20
40.483435879915739
 30
0.0
 10
30.294749324438207
 20
40.907898879915741
 30
0.0
 10
30.294749324438207
 20
41.430573879915741
 30
0.0
  0
SPLINE
  5
FE
  8
Layer_1
 62
1
420
16711680
370
-1
  6
ByLayer
100
AcDbEntity
100
AcDbSpline
 70
8
 71
3
 72
8
 73
4
 74
0
 40
0.0
 40
0.0
 40
0.0
 40
0.0
 40
1.0
 40
1.0
 40
1.0
 40
1.0
 10
30.294749324438207
 20
41.430573879915741
 30
0.0
 10
30.294749324438207
 20
41.953531879915744
 30
0.0
 10
30.719211324438206
 20
42.376300879915739
 30
0.0
 10
31.242169324438205
 20
42.37601887991574
 30
0.0
  0
SPLINE
  5
FF
  8
Layer_1
 62
1
420
16711680
370
-1
  6
ByLayer
100
AcDbEntity
100
AcDbSpline
 70
8
 71
3
 72
8
 73
4
 74
0
 40
0.0
 40
0.0
 40
0.0
 40
0.0
 40
1.0
 40
1.0
 40
1.0
 40
1.0
 10
31.242169324438205
 20
42.37601887991574
 30
0.0
 10
31.764844324438204
 20
42.375453879915739
 30
0.0
 10
32.188178324438205
 20
41.951555879915745
 30
0.0
 10
32.187613324438203
 20
41.428598879915739
 30
0.0
  0
LWPOLYLINE
  5
100
  8
Layer_1
 62
1
420
16711680
370
-1
  6
ByLayer
100
AcDbEntity
100
AcDbPolyline
 90
2
 70
0
 10
30.945553324438205
 20
29.998880879915742
 10
30.945553324438205
 20
29.998880879915742
  0
LWPOLYLINE
  5
101
  8
Layer_1
 62
1
420
16711680
370
-1
  6
ByLayer
100
AcDbEntity
100
AcDbPolyline
 90
2
 70
0
 10
32.187613324438203
 20
41.428598879915739
 10
32.187613324438203
 20
41.428598879915739
  0
SPLINE
  5
102
  8
Layer_1
 62
1
420
16711680
370
-1
  6
ByLayer
100
AcDbEntity
100
AcDbSpline
 70
8
 71
3
 72
8
 73
4
 74
0
 40
0.0
 40
0.0
 40
0.0
 40
0.0
 40
1.0
 40
1.0
 40
1.0
 40
1.0
 10
42.938586324438205
 20
38.839491879915741
 30
0.0
 10
40.913924324438206
 20
39.594718879915739
 30
0.0
 10
39.470922324438206
 20
41.540640879915742
 30
0.0
 10
39.473180324438204
 20
43.828051879915741
 30
0.0
  0
SPLINE
  5
103
  8
Layer_1
 62
1
420
16711680
370
-1
  6
ByLayer
100
AcDbEntity
100
AcDbSpline
 70
8
 71
3
 72
8
 73
4
 74
0
 40
0.0
 40
0.0
 40
0.0
 40
0.0
 40
1.0
 40
1.0
 40
1.0
 40
1.0
 10
39.473180324438204
 20
43.828051879915741
 30
0.0
 10
39.473180324438204
 20
44.850824879915741
 30
0.0
 10
39.769231324438209
 20
45.801631879915739
 30
0.0
 10
40.271869324438207
 20
46.61076287991574
 30
0.0
  0
LWPOLYLINE
  5
104
  8
Layer_1
 62
1
420
16711680
370
-1
  6
ByLayer
100
AcDbEntity
100
AcDbPolyline
 90
11
 70
0
 10
30.294184324438206
 20
41.429726879915741
 10
29.972733324438206
 20
29.99916287991574
 10
36.448886324438206
 20
29.992953879915742
 10
36.444935324438205
 20
26.392354879915743
 10
38.922564324438206
 20
26.389531879915744
 10
38.922564324438206
 20
27.310422879915741
 10
41.9623803244382
 20
27.307318879915741
 10
41.9623803244382
 20
26.386427879915743
 10
48.735713324438208
 20
26.379936879915743
 10
48.748413324438204
 20
38.833564879915741
 10
42.938586324438205
 20
38.839491879915741
  0
SPLINE
  5
105
  8
Layer_1
 62
1
420
16711680
370
-1
  6
ByLayer
100
AcDbEntity
100
AcDbSpline
 70
8
 71
3
 72
8
 73
4
 74
0
 40
0.0
 40
0.0
 40
0.0
 40
0.0
 40
1.0
 40
1.0
 40
1.0
 40
1.0
 10
29.212144324438206
 20
45.434742879915738
 30
0.0
 10
27.886546324438207
 20
45.434742879915738
 30
0.0
 10
26.812126324438207
 20
44.360040879915744
 30
0.0
 10
26.812126324438207
 20
43.035006879915741
 30
0.0
  0
LWPOLYLINE
  5
106
  8
Layer_1
 62
1
420
16711680
370
-1
  6
ByLayer
100
AcDbEntity
100
AcDbPolyline
 90
4
 70
0
 10
40.271869324438207
 20
46.61076287991574
 10
40.271869324438207
 20
47.413966879915741
 10
30.476218324438207
 20
45.743211879915741
 10
29.212144324438206
 20
45.434742879915738
  0
SPLINE
  5
107
  8
Layer_1
 62
1
420
16711680
370
-1
  6
ByLayer
100
AcDbEntity
100
AcDbSpline
 70
8
 71
3
 72
8
 73
4
 74
0
 40
0.0
 40
0.0
 40
0.0
 40
0.0
 40
1.0
 40
1.0
 40
1.0
 40
1.0
 10
26.484749324438205
 20
23.706727879915743
 30
0.0
 10
26.484749324438205
 20
22.82675887991574
 30
0.0
 10
26.932918324438205
 20
21.72326987991574
 30
0.0
 10
27.482404324438207
 20
21.253934879915743
 30
0.0
  0
SPLINE
  5
108
  8
Layer_1
 62
1
420
16711680
370
-1
  6
ByLayer
100
AcDbEntity
100
AcDbSpline
 70
8
 71
3
 72
8
 73
4
 74
0
 40
0.0
 40
0.0
 40
0.0
 40
0.0
 40
1.0
 40
1.0
 40
1.0
 40
1.0
 10
27.482404324438207
 20
21.253934879915743
 30
0.0
 10
28.031891324438206
 20
20.784880879915743
 30
0.0
 10
28.511951324438204
 20
20.400776879915743
 30
0.0
 10
28.511951324438204
 20
20.400776879915743
 30
0.0
  0
SPLINE
  5
109
  8
Layer_1
 62
1
420
16711680
370
-1
  6
ByLayer
100
AcDbEntity
100
AcDbSpline
 70
8
 71
3
 72
8
 73
4
 74
0
 40
0.0
 40
0.0
 40
0.0
 40
0.0
 40
1.0
 40
1.0
 40
1.0
 40
1.0
 10
30.779437324438206
 20
46.84322387991574
 30
0.0
 10
32.104753324438207
 20
46.84322387991574
 30
0.0
 10
33.179455324438209
 20
47.917643879915744
 30
0.0
 10
33.179455324438209
 20
49.243241879915743
 30
0.0
  0
SPLINE
  5
10A
  8
Layer_1
 62
1
420
16711680
370
-1
  6
ByLayer
100
AcDbEntity
100
AcDbSpline
 70
8
 71
3
 72
8
 73
4
 74
0
 40
0.0
 40
0.0
 40
0.0
 40
0.0
 40
1.0
 40
1.0
 40
1.0
 40
1.0
 10
33.179455324438209
 20
49.243241879915743
 30
0.0
 10
33.179455324438209
 20
49.541832879915745
 30
0.0
 10
33.122446324438208
 20
49.82631287991574
 30
0.0
 10
33.022539324438206
 20
50.090472879915744
 30
0.0
  0
LWPOLYLINE
  5
10B
  8
Layer_1
 62
1
420
16711680
370
-1
  6
ByLayer
100
AcDbEntity
100
AcDbPolyline
 90
3
 70
0
 10
26.812126324438207
 20
43.035006879915741
 10
26.490675324438207
 20
30.002266879915741
 10
26.484749324438205
 20
23.706727879915743
  0
SPLINE
  5
10C
  8
Layer_1
 62
1
420
16711680
370
-1
  6
ByLayer
100
AcDbEntity
100
AcDbSpline
 70
8
 71
3
 72
8
 73
4
 74
0
 40
0.0
 40
0.0
 40
0.0
 40
0.0
 40
1.0
 40
1.0
 40
1.0
 40
1.0
 10
39.933597324438203
 20
54.864543879915743
 30
0.0
 10
40.813848324438204
 20
54.864543879915743
 30
0.0
 10
41.533515324438206
 20
55.416852879915744
 30
0.0
 10
41.533515324438206
 20
56.297103879915738
 30
0.0
  0
SPLINE
  5
10D
  8
Layer_1
 62
1
420
16711680
370
-1
  6
ByLayer
100
AcDbEntity
100
AcDbSpline
 70
8
 71
3
 72
8
 73
4
 74
0
 40
0.0
 40
0.0
 40
0.0
 40
0.0
 40
1.0
 40
1.0
 40
1.0
 40
1.0
 10
41.533515324438206
 20
56.297103879915738
 30
0.0
 10
41.533515324438206
 20
56.297103879915738
 30
0.0
 10
40.859850324438206
 20
57.246216879915742
 30
0.0
 10
40.028142324438207
 20
57.246216879915742
 30
0.0
  0
SPLINE
  5
10E
  8
Layer_1
 62
1
420
16711680
370
-1
  6
ByLayer
100
AcDbEntity
100
AcDbSpline
 70
8
 71
3
 72
8
 73
4
 74
0
 40
0.0
 40
0.0
 40
0.0
 40
0.0
 40
1.0
 40
1.0
 40
1.0
 40
1.0
 10
40.028142324438207
 20
57.246216879915742
 30
0.0
 10
39.710077324438203
 20
57.246216879915742
 30
0.0
 10
39.446764324438206
 20
57.05712787991574
 30
0.0
 10
39.390884324438204
 20
56.755150879915739
 30
0.0
  0
LWPOLYLINE
  5
10F
  8
Layer_1
 62
1
420
16711680
370
-1
  6
ByLayer
100
AcDbEntity
100
AcDbPolyline
 90
3
 70
0
 10
33.022539324438206
 20
50.090472879915744
 10
33.022539324438206
 20
54.864543879915743
 10
39.933597324438203
 20
54.864543879915743
  0
SPLINE
  5
110
  8
Layer_1
 62
1
420
16711680
370
-1
  6
ByLayer
100
AcDbEntity
100
AcDbSpline
 70
8
 71
3
 72
8
 73
4
 74
0
 40
0.0
 40
0.0
 40
0.0
 40
0.0
 40
1.0
 40
1.0
 40
1.0
 40
1.0
 10
34.780219324438207
 20
56.755150879915739
 30
0.0
 10
34.558957324438204
 20
56.755150879915739
 30
0.0
 10
34.380028324438207
 20
56.934361879915741
 30
0.0
 10
34.380028324438207
 20
57.155341879915738
 30
0.0
  0
LWPOLYLINE
  5
111
  8
Layer_1
 62
1
420
16711680
370
-1
  6
ByLayer
100
AcDbEntity
100
AcDbPolyline
 90
2
 70
0
 10
39.390884324438204
 20
56.755150879915739
 10
34.780219324438207
 20
56.755150879915739
  0
SPLINE
  5
112
  8
Layer_1
 62
1
420
16711680
370
-1
  6
ByLayer
100
AcDbEntity
100
AcDbSpline
 70
8
 71
3
 72
8
 73
4
 74
0
 40
0.0
 40
0.0
 40
0.0
 40
0.0
 40
1.0
 40
1.0
 40
1.0
 40
1.0
 10
34.380028324438207
 20
57.755627879915743
 30
0.0
 10
34.380028324438207
 20
57.97660787991574
 30
0.0
 10
34.558957324438204
 20
58.155818879915742
 30
0.0
 10
34.780219324438207
 20
58.155818879915742
 30
0.0
  0
LWPOLYLINE
  5
113
  8
Layer_1
 62
1
420
16711680
370
-1
  6
ByLayer
100
AcDbEntity
100
AcDbPolyline
 90
2
 70
0
 10
34.380028324438207
 20
57.155341879915738
 10
34.380028324438207
 20
57.755627879915743
  0
SPLINE
  5
114
  8
Layer_1
 62
1
420
16711680
370
-1
  6
ByLayer
100
AcDbEntity
100
AcDbSpline
 70
8
 71
3
 72
8
 73
4
 74
0
 40
0.0
 40
0.0
 40
0.0
 40
0.0
 40
1.0
 40
1.0
 40
1.0
 40
1.0
 10
39.391166324438203
 20
58.155818879915742
 30
0.0
 10
39.447328324438203
 20
57.85497087991574
 30
0.0
 10
39.710642324438204
 20
57.705956879915739
 30
0.0
 10
40.028142324438207
 20
57.705956879915739
 30
0.0
  0
LWPOLYLINE
  5
115
  8
Layer_1
 62
1
420
16711680
370
-1
  6
ByLayer
100
AcDbEntity
100
AcDbPolyline
 90
2
 70
0
 10
34.780219324438207
 20
58.155818879915742
 10
39.391166324438203
 20
58.155818879915742
  0
SPLINE
  5
116
  8
Layer_1
 62
1
420
16711680
370
-1
  6
ByLayer
100
AcDbEntity
100
AcDbSpline
 70
8
 71
3
 72
8
 73
4
 74
0
 40
0.0
 40
0.0
 40
0.0
 40
0.0
 40
1.0
 40
1.0
 40
1.0
 40
1.0
 10
40.028142324438207
 20
57.711036879915738
 30
0.0
 10
40.853924324438204
 20
57.711036879915738
 30
0.0
 10
41.523355324438207
 20
58.686114879915742
 30
0.0
 10
41.532668324438205
 20
58.699943879915743
 30
0.0
  0
SPLINE
  5
117
  8
Layer_1
 62
1
420
16711680
370
-1
  6
ByLayer
100
AcDbEntity
100
AcDbSpline
 70
8
 71
3
 72
8
 73
4
 74
0
 40
0.0
 40
0.0
 40
0.0
 40
0.0
 40
1.0
 40
1.0
 40
1.0
 40
1.0
 10
41.532668324438205
 20
58.699943879915743
 30
0.0
 10
41.523355324438207
 20
58.713207879915743
 30
0.0
 10
40.853924324438204
 20
59.687721879915742
 30
0.0
 10
40.028142324438207
 20
59.687721879915742
 30
0.0
  0
SPLINE
  5
118
  8
Layer_1
 62
1
420
16711680
370
-1
  6
ByLayer
100
AcDbEntity
100
AcDbSpline
 70
8
 71
3
 72
8
 73
4
 74
0
 40
0.0
 40
0.0
 40
0.0
 40
0.0
 40
1.0
 40
1.0
 40
1.0
 40
1.0
 10
40.028142324438207
 20
59.687721879915742
 30
0.0
 10
39.710077324438203
 20
59.687721879915742
 30
0.0
 10
39.446764324438206
 20
59.538707879915741
 30
0.0
 10
39.390884324438204
 20
59.23673087991574
 30
0.0
  0
LWPOLYLINE
  5
119
  8
Layer_1
 62
1
420
16711680
370
-1
  6
ByLayer
100
AcDbEntity
100
AcDbPolyline
 90
2
 70
0
 10
40.028142324438207
 20
57.705956879915739
 10
40.028142324438207
 20
57.711036879915738
  0
SPLINE
  5
11A
  8
Layer_1
 62
1
420
16711680
370
-1
  6
ByLayer
100
AcDbEntity
100
AcDbSpline
 70
8
 71
3
 72
8
 73
4
 74
0
 40
0.0
 40
0.0
 40
0.0
 40
0.0
 40
1.0
 40
1.0
 40
1.0
 40
1.0
 10
34.780219324438207
 20
59.23673087991574
 30
0.0
 10
34.558957324438204
 20
59.23673087991574
 30
0.0
 10
34.380028324438207
 20
59.415941879915742
 30
0.0
 10
34.380028324438207
 20
59.636921879915739
 30
0.0
  0
LWPOLYLINE
  5
11B
  8
Layer_1
 62
1
420
16711680
370
-1
  6
ByLayer
100
AcDbEntity
100
AcDbPolyline
 90
2
 70
0
 10
39.390884324438204
 20
59.23673087991574
 10
34.780219324438207
 20
59.23673087991574
  0
SPLINE
  5
11C
  8
Layer_1
 62
1
420
16711680
370
-1
  6
ByLayer
100
AcDbEntity
100
AcDbSpline
 70
8
 71
3
 72
8
 73
4
 74
0
 40
0.0
 40
0.0
 40
0.0
 40
0.0
 40
1.0
 40
1.0
 40
1.0
 40
1.0
 10
34.380028324438207
 20
60.277001879915744
 30
0.0
 10
34.380028324438207
 20
60.497981879915741
 30
0.0
 10
34.558957324438204
 20
60.677192879915744
 30
0.0
 10
34.780219324438207
 20
60.677192879915744
 30
0.0
  0
LWPOLYLINE
  5
11D
  8
Layer_1
 62
1
420
16711680
370
-1
  6
ByLayer
100
AcDbEntity
100
AcDbPolyline
 90
2
 70
0
 10
34.380028324438207
 20
59.636921879915739
 10
34.380028324438207
 20
60.277001879915744
  0
SPLINE
  5
11E
  8
Layer_1
 62
1
420
16711680
370
-1
  6
ByLayer
100
AcDbEntity
100
AcDbSpline
 70
8
 71
3
 72
8
 73
4
 74
0
 40
0.0
 40
0.0
 40
0.0
 40
0.0
 40
1.0
 40
1.0
 40
1.0
 40
1.0
 10
39.391166324438203
 20
60.677192879915744
 30
0.0
 10
39.447328324438203
 20
60.376343879915744
 30
0.0
 10
39.710642324438204
 20
60.187818879915739
 30
0.0
 10
40.028142324438207
 20
60.187818879915739
 30
0.0
  0
LWPOLYLINE
  5
11F
  8
Layer_1
 62
1
420
16711680
370
-1
  6
ByLayer
100
AcDbEntity
100
AcDbPolyline
 90
2
 70
0
 10
34.780219324438207
 20
60.677192879915744
 10
39.391166324438203
 20
60.677192879915744
  0
SPLINE
  5
120
  8
Layer_1
 62
1
420
16711680
370
-1
  6
ByLayer
100
AcDbEntity
100
AcDbSpline
 70
8
 71
3
 72
8
 73
4
 74
0
 40
0.0
 40
0.0
 40
0.0
 40
0.0
 40
1.0
 40
1.0
 40
1.0
 40
1.0
 10
40.028142324438207
 20
60.192898879915745
 30
0.0
 10
40.859850324438206
 20
60.192898879915745
 30
0.0
 10
41.533515324438206
 20
61.142576879915744
 30
0.0
 10
41.533515324438206
 20
61.142576879915744
 30
0.0
  0
LWPOLYLINE
  5
121
  8
Layer_1
 62
1
420
16711680
370
-1
  6
ByLayer
100
AcDbEntity
100
AcDbPolyline
 90
2
 70
0
 10
40.028142324438207
 20
60.187818879915739
 10
40.028142324438207
 20
60.192898879915745
  0
SPLINE
  5
122
  8
Layer_1
 62
1
420
16711680
370
-1
  6
ByLayer
100
AcDbEntity
100
AcDbSpline
 70
8
 71
3
 72
8
 73
4
 74
0
 40
0.0
 40
0.0
 40
0.0
 40
0.0
 40
1.0
 40
1.0
 40
1.0
 40
1.0
 10
41.533515324438206
 20
62.281343879915745
 30
0.0
 10
40.975279324438205
 20
62.70749887991574
 30
0.0
 10
40.584966324438206
 20
63.338265879915745
 30
0.0
 10
40.468408324438208
 20
64.061318879915746
 30
0.0
  0
SPLINE
  5
123
  8
Layer_1
 62
1
420
16711680
370
-1
  6
ByLayer
100
AcDbEntity
100
AcDbSpline
 70
8
 71
3
 72
8
 73
4
 74
0
 40
0.0
 40
0.0
 40
0.0
 40
0.0
 40
1.0
 40
1.0
 40
1.0
 40
1.0
 10
40.468408324438208
 20
64.061318879915746
 30
0.0
 10
40.468408324438208
 20
64.121432879915744
 30
0.0
 10
40.464175324438202
 20
64.179852879915742
 30
0.0
 10
40.459942324438202
 20
64.237707879915746
 30
0.0
  0
SPLINE
  5
124
  8
Layer_1
 62
1
420
16711680
370
-1
  6
ByLayer
100
AcDbEntity
100
AcDbSpline
 70
8
 71
3
 72
8
 73
4
 74
0
 40
0.0
 40
0.0
 40
0.0
 40
0.0
 40
1.0
 40
1.0
 40
1.0
 40
1.0
 10
40.459942324438202
 20
64.237707879915746
 30
0.0
 10
40.453450324438208
 20
64.333663879915747
 30
0.0
 10
40.443855324438204
 20
64.429618879915736
 30
0.0
 10
40.429744324438204
 20
64.522752879915743
 30
0.0
  0
SPLINE
  5
125
  8
Layer_1
 62
1
420
16711680
370
-1
  6
ByLayer
100
AcDbEntity
100
AcDbSpline
 70
8
 71
3
 72
8
 73
4
 74
0
 40
0.0
 40
0.0
 40
0.0
 40
0.0
 40
1.0
 40
1.0
 40
1.0
 40
1.0
 10
40.429744324438204
 20
64.522752879915743
 30
0.0
 10
40.216666324438208
 20
65.942047879915748
 30
0.0
 10
39.078182324438202
 20
67.055414879915745
 30
0.0
 10
37.646468324438203
 20
67.227570879915746
 30
0.0
  0
LWPOLYLINE
  5
126
  8
Layer_1
 62
1
420
16711680
370
-1
  6
ByLayer
100
AcDbEntity
100
AcDbPolyline
 90
2
 70
0
 10
41.533515324438206
 20
61.142576879915744
 10
41.533515324438206
 20
62.281343879915745
  0
SPLINE
  5
127
  8
Layer_1
 62
1
420
16711680
370
-1
  6
ByLayer
100
AcDbEntity
100
AcDbSpline
 70
8
 71
3
 72
8
 73
4
 74
0
 40
0.0
 40
0.0
 40
0.0
 40
0.0
 40
1.0
 40
1.0
 40
1.0
 40
1.0
 10
31.496846324438206
 20
67.227570879915746
 30
0.0
 10
30.025339324438207
 20
67.050616879915736
 30
0.0
 10
28.861455324438204
 20
65.879394879915736
 30
0.0
 10
28.696073324438206
 20
64.40478387991574
 30
0.0
  0
LWPOLYLINE
  5
128
  8
Layer_1
 62
1
420
16711680
370
-1
  6
ByLayer
100
AcDbEntity
100
AcDbPolyline
 90
2
 70
0
 10
37.646468324438203
 20
67.227570879915746
 10
31.496846324438206
 20
67.227570879915746
  0
SPLINE
  5
129
  8
Layer_1
 62
1
420
16711680
370
-1
  6
ByLayer
100
AcDbEntity
100
AcDbSpline
 70
8
 71
3
 72
8
 73
4
 74
0
 40
0.0
 40
0.0
 40
0.0
 40
0.0
 40
1.0
 40
1.0
 40
1.0
 40
1.0
 10
28.685066324438207
 20
64.282298879915743
 30
0.0
 10
28.681679324438207
 20
64.238836879915738
 30
0.0
 10
28.680550324438205
 20
64.195092879915748
 30
0.0
 10
28.679139324438204
 20
64.151347879915747
 30
0.0
  0
SPLINE
  5
12A
  8
Layer_1
 62
1
420
16711680
370
-1
  6
ByLayer
100
AcDbEntity
100
AcDbSpline
 70
8
 71
3
 72
8
 73
4
 74
0
 40
0.0
 40
0.0
 40
0.0
 40
0.0
 40
1.0
 40
1.0
 40
1.0
 40
1.0
 10
28.679139324438204
 20
64.151347879915747
 30
0.0
 10
28.580926324438206
 20
63.381163879915739
 30
0.0
 10
28.169728324438207
 20
62.710321879915739
 30
0.0
 10
27.577062324438206
 20
62.26610387991574
 30
0.0
  0
LWPOLYLINE
  5
12B
  8
Layer_1
 62
1
420
16711680
370
-1
  6
ByLayer
100
AcDbEntity
100
AcDbPolyline
 90
2
 70
0
 10
28.696073324438206
 20
64.40478387991574
 10
28.685066324438207
 20
64.282298879915743
  0
SPLINE
  5
12C
  8
Layer_1
 62
1
420
16711680
370
-1
  6
ByLayer
100
AcDbEntity
100
AcDbSpline
 70
8
 71
3
 72
8
 73
4
 74
0
 40
0.0
 40
0.0
 40
0.0
 40
0.0
 40
1.0
 40
1.0
 40
1.0
 40
1.0
 10
27.577062324438206
 20
50.036003879915739
 30
0.0
 10
27.923913324438207
 20
49.771278879915741
 30
0.0
 10
28.199079324438205
 20
49.423016879915743
 30
0.0
 10
28.390708324438204
 20
49.02621287991574
 30
0.0
  0
SPLINE
  5
12D
  8
Layer_1
 62
1
420
16711680
370
-1
  6
ByLayer
100
AcDbEntity
100
AcDbSpline
 70
8
 71
3
 72
8
 73
4
 74
0
 40
0.0
 40
0.0
 40
0.0
 40
0.0
 40
1.0
 40
1.0
 40
1.0
 40
1.0
 10
28.390708324438204
 20
49.02621287991574
 30
0.0
 10
28.499928324438205
 20
47.802496879915743
 30
0.0
 10
29.526935324438206
 20
46.84322387991574
 30
0.0
 10
30.779437324438206
 20
46.84322387991574
 30
0.0
  0
LWPOLYLINE
  5
12E
  8
Layer_1
 62
1
420
16711680
370
-1
  6
ByLayer
100
AcDbEntity
100
AcDbPolyline
 90
2
 70
0
 10
27.577062324438206
 20
62.26610387991574
 10
27.577062324438206
 20
50.036003879915739
  0
LWPOLYLINE
  5
12F
  8
Layer_1
 62
1
420
16711680
370
-1
  6
ByLayer
100
AcDbEntity
100
AcDbPolyline
 90
2
 70
0
 10
30.779437324438206
 20
46.84322387991574
 10
30.779437324438206
 20
46.84322387991574
  0
SPLINE
  5
130
  8
Layer_1
 62
1
420
16711680
370
-1
  6
ByLayer
100
AcDbEntity
100
AcDbSpline
 70
8
 71
3
 72
8
 73
4
 74
0
 40
0.0
 40
0.0
 40
0.0
 40
0.0
 40
1.0
 40
1.0
 40
1.0
 40
1.0
 10
31.290259324438207
 20
62.843247879915744
 30
0.0
 10
30.627602324438207
 20
62.843247879915744
 30
0.0
 10
30.090533324438205
 20
63.38003487991574
 30
0.0
 10
30.090533324438205
 20
64.042692879915748
 30
0.0
  0
SPLINE
  5
131
  8
Layer_1
 62
1
420
16711680
370
-1
  6
ByLayer
100
AcDbEntity
100
AcDbSpline
 70
8
 71
3
 72
8
 73
4
 74
0
 40
0.0
 40
0.0
 40
0.0
 40
0.0
 40
1.0
 40
1.0
 40
1.0
 40
1.0
 10
30.090533324438205
 20
64.042692879915748
 30
0.0
 10
30.090533324438205
 20
64.705914879915738
 30
0.0
 10
30.627602324438207
 20
65.242983879915741
 30
0.0
 10
31.290259324438207
 20
65.242983879915741
 30
0.0
  0
LWPOLYLINE
  5
132
  8
Layer_1
 62
1
420
16711680
370
-1
  6
ByLayer
100
AcDbEntity
100
AcDbPolyline
 90
5
 70
0
 10
41.533515324438206
 20
58.700225879915742
 10
41.533515324438206
 20
58.700225879915742
 10
41.533515324438206
 20
58.69740387991574
 10
41.533515324438206
 20
58.700225879915742
 10
41.533515324438206
 20
58.700225879915742
  0
SPLINE
  5
133
  8
Layer_1
 62
1
420
16711680
370
-1
  6
ByLayer
100
AcDbEntity
100
AcDbSpline
 70
8
 71
3
 72
8
 73
4
 74
0
 40
0.0
 40
0.0
 40
0.0
 40
0.0
 40
1.0
 40
1.0
 40
1.0
 40
1.0
 10
34.155379324438208
 20
65.242983879915741
 30
0.0
 10
34.818319324438207
 20
65.242983879915741
 30
0.0
 10
35.355388324438209
 20
64.705914879915738
 30
0.0
 10
35.355388324438209
 20
64.042692879915748
 30
0.0
  0
SPLINE
  5
134
  8
Layer_1
 62
1
420
16711680
370
-1
  6
ByLayer
100
AcDbEntity
100
AcDbSpline
 70
8
 71
3
 72
8
 73
4
 74
0
 40
0.0
 40
0.0
 40
0.0
 40
0.0
 40
1.0
 40
1.0
 40
1.0
 40
1.0
 10
35.355388324438209
 20
64.042692879915748
 30
0.0
 10
35.355388324438209
 20
63.38003487991574
 30
0.0
 10
34.818319324438207
 20
62.843247879915744
 30
0.0
 10
34.155379324438208
 20
62.843247879915744
 30
0.0
  0
LWPOLYLINE
  5
135
  8
Layer_1
 62
1
420
16711680
370
-1
  6
ByLayer
100
AcDbEntity
100
AcDbPolyline
 90
2
 70
0
 10
31.290259324438207
 20
65.242983879915741
 10
34.155379324438208
 20
65.242983879915741
  0
SPLINE
  5
136
  8
Layer_1
 62
1
420
16711680
370
-1
  6
ByLayer
100
AcDbEntity
100
AcDbSpline
 70
8
 71
3
 72
8
 73
4
 74
0
 40
0.0
 40
0.0
 40
0.0
 40
0.0
 40
1.0
 40
1.0
 40
1.0
 40
1.0
 10
30.779437324438206
 20
48.043232879915742
 30
0.0
 10
31.442377324438205
 20
48.043232879915742
 30
0.0
 10
31.979446324438207
 20
48.580301879915744
 30
0.0
 10
31.979446324438207
 20
49.243241879915743
 30
0.0
  0
SPLINE
  5
137
  8
Layer_1
 62
1
420
16711680
370
-1
  6
ByLayer
100
AcDbEntity
100
AcDbSpline
 70
8
 71
3
 72
8
 73
4
 74
0
 40
0.0
 40
0.0
 40
0.0
 40
0.0
 40
1.0
 40
1.0
 40
1.0
 40
1.0
 10
31.979446324438207
 20
49.243241879915743
 30
0.0
 10
31.979446324438207
 20
49.90561687991574
 30
0.0
 10
31.442377324438205
 20
50.443250879915745
 30
0.0
 10
30.779437324438206
 20
50.443250879915745
 30
0.0
  0
SPLINE
  5
138
  8
Layer_1
 62
1
420
16711680
370
-1
  6
ByLayer
100
AcDbEntity
100
AcDbSpline
 70
8
 71
3
 72
8
 73
4
 74
0
 40
0.0
 40
0.0
 40
0.0
 40
0.0
 40
1.0
 40
1.0
 40
1.0
 40
1.0
 10
30.779437324438206
 20
50.443250879915745
 30
0.0
 10
30.116779324438205
 20
50.443250879915745
 30
0.0
 10
29.579146324438206
 20
49.90561687991574
 30
0.0
 10
29.579146324438206
 20
49.243241879915743
 30
0.0
  0
SPLINE
  5
139
  8
Layer_1
 62
1
420
16711680
370
-1
  6
ByLayer
100
AcDbEntity
100
AcDbSpline
 70
8
 71
3
 72
8
 73
4
 74
0
 40
0.0
 40
0.0
 40
0.0
 40
0.0
 40
1.0
 40
1.0
 40
1.0
 40
1.0
 10
29.579146324438206
 20
49.243241879915743
 30
0.0
 10
29.579146324438206
 20
48.580301879915744
 30
0.0
 10
30.117062324438205
 20
48.043232879915742
 30
0.0
 10
30.779437324438206
 20
48.043232879915742
 30
0.0
  0
LWPOLYLINE
  5
13A
  8
Layer_1
 62
1
420
16711680
370
-1
  6
ByLayer
100
AcDbEntity
100
AcDbPolyline
 90
3
 70
0
 10
34.155379324438208
 20
62.843247879915744
 10
31.290259324438207
 20
62.843247879915744
 10
31.290259324438207
 20
62.843247879915744
  0
SPLINE
  5
13B
  8
Layer_1
 62
1
420
16711680
370
-1
  6
ByLayer
100
AcDbEntity
100
AcDbSpline
 70
8
 71
3
 72
8
 73
4
 74
0
 40
0.0
 40
0.0
 40
0.0
 40
0.0
 40
1.0
 40
1.0
 40
1.0
 40
1.0
 10
38.379399324438204
 20
62.843247879915744
 30
0.0
 10
39.042057324438204
 20
62.843247879915744
 30
0.0
 10
39.579408324438205
 20
63.38003487991574
 30
0.0
 10
39.579408324438205
 20
64.042692879915748
 30
0.0
  0
SPLINE
  5
13C
  8
Layer_1
 62
1
420
16711680
370
-1
  6
ByLayer
100
AcDbEntity
100
AcDbSpline
 70
8
 71
3
 72
8
 73
4
 74
0
 40
0.0
 40
0.0
 40
0.0
 40
0.0
 40
1.0
 40
1.0
 40
1.0
 40
1.0
 10
39.579408324438205
 20
64.042692879915748
 30
0.0
 10
39.579408324438205
 20
64.705914879915738
 30
0.0
 10
39.042057324438204
 20
65.242983879915741
 30
0.0
 10
38.379399324438204
 20
65.242983879915741
 30
0.0
  0
SPLINE
  5
13D
  8
Layer_1
 62
1
420
16711680
370
-1
  6
ByLayer
100
AcDbEntity
100
AcDbSpline
 70
8
 71
3
 72
8
 73
4
 74
0
 40
0.0
 40
0.0
 40
0.0
 40
0.0
 40
1.0
 40
1.0
 40
1.0
 40
1.0
 10
38.379399324438204
 20
65.242983879915741
 30
0.0
 10
37.716742324438208
 20
65.242983879915741
 30
0.0
 10
37.179390324438202
 20
64.705914879915738
 30
0.0
 10
37.179390324438202
 20
64.042692879915748
 30
0.0
  0
SPLINE
  5
13E
  8
Layer_1
 62
1
420
16711680
370
-1
  6
ByLayer
100
AcDbEntity
100
AcDbSpline
 70
8
 71
3
 72
8
 73
4
 74
0
 40
0.0
 40
0.0
 40
0.0
 40
0.0
 40
1.0
 40
1.0
 40
1.0
 40
1.0
 10
37.179390324438202
 20
64.042692879915748
 30
0.0
 10
37.179390324438202
 20
63.38003487991574
 30
0.0
 10
37.716742324438208
 20
62.843247879915744
 30
0.0
 10
38.379399324438204
 20
62.843247879915744
 30
0.0
  0
LWPOLYLINE
  5
13F
  8
Layer_1
 62
1
420
16711680
370
-1
  6
ByLayer
100
AcDbEntity
100
AcDbPolyline
 90
2
 70
0
 10
30.779437324438206
 20
48.043232879915742
 10
30.779437324438206
 20
48.043232879915742
  0
LWPOLYLINE
  5
140
  8
Layer_1
 62
1
420
16711680
370
-1
  6
ByLayer
100
AcDbEntity
100
AcDbPolyline
 90
2
 70
0
 10
38.379399324438204
 20
62.843247879915744
 10
38.379399324438204
 20
62.843247879915744
  0
SPLINE
  5
141
  8
Layer_1
 62
1
420
16711680
370
-1
  6
ByLayer
100
AcDbEntity
100
AcDbSpline
 70
8
 71
3
 72
8
 73
4
 74
0
 40
0.0
 40
0.0
 40
0.0
 40
0.0
 40
1.0
 40
1.0
 40
1.0
 40
1.0
 10
75.38366488272473
 20
48.716140879915741
 30
0.0
 10
75.359957882724729
 20
48.737024879915744
 30
0.0
 10
75.334275882724725
 20
48.755933879915744
 30
0.0
 10
75.309157882724733
 20
48.776253879915743
 30
0.0
  0
SPLINE
  5
142
  8
Layer_1
 62
1
420
16711680
370
-1
  6
ByLayer
100
AcDbEntity
100
AcDbSpline
 70
8
 71
3
 72
8
 73
4
 74
0
 40
0.0
 40
0.0
 40
0.0
 40
0.0
 40
1.0
 40
1.0
 40
1.0
 40
1.0
 10
75.309157882724733
 20
64.074109879915738
 30
0.0
 10
75.309157882724733
 20
65.841666879915735
 30
0.0
 10
73.877161882724721
 20
67.274226879915744
 30
0.0
 10
72.109886882724723
 20
67.274226879915744
 30
0.0
  0
LWPOLYLINE
  5
143
  8
Layer_1
 62
1
420
16711680
370
-1
  6
ByLayer
100
AcDbEntity
100
AcDbPolyline
 90
2
 70
0
 10
75.309157882724733
 20
48.776253879915743
 10
75.309157882724733
 20
64.074109879915738
  0
SPLINE
  5
144
  8
Layer_1
 62
1
420
16711680
370
-1
  6
ByLayer
100
AcDbEntity
100
AcDbSpline
 70
8
 71
3
 72
8
 73
4
 74
0
 40
0.0
 40
0.0
 40
0.0
 40
0.0
 40
1.0
 40
1.0
 40
1.0
 40
1.0
 10
71.763035882724722
 20
67.274226879915744
 30
0.0
 10
69.995759882724727
 20
67.274226879915744
 30
0.0
 10
68.563199882724732
 20
65.841666879915735
 30
0.0
 10
68.563199882724732
 20
64.074109879915738
 30
0.0
  0
LWPOLYLINE
  5
145
  8
Layer_1
 62
1
420
16711680
370
-1
  6
ByLayer
100
AcDbEntity
100
AcDbPolyline
 90
2
 70
0
 10
72.109886882724723
 20
67.274226879915744
 10
71.763035882724722
 20
67.274226879915744
  0
SPLINE
  5
146
  8
Layer_1
 62
1
420
16711680
370
-1
  6
ByLayer
100
AcDbEntity
100
AcDbSpline
 70
8
 71
3
 72
8
 73
4
 74
0
 40
0.0
 40
0.0
 40
0.0
 40
0.0
 40
1.0
 40
1.0
 40
1.0
 40
1.0
 10
68.563199882724732
 20
48.823666879915741
 30
0.0
 10
68.319641882724724
 20
48.62695887991574
 30
0.0
 10
68.087937882724731
 20
48.409364879915742
 30
0.0
 10
67.876270882724725
 20
48.164113879915739
 30
0.0
  0
SPLINE
  5
147
  8
Layer_1
 62
1
420
16711680
370
-1
  6
ByLayer
100
AcDbEntity
100
AcDbSpline
 70
8
 71
3
 72
8
 73
4
 74
0
 40
0.0
 40
0.0
 40
0.0
 40
0.0
 40
1.0
 40
1.0
 40
1.0
 40
1.0
 10
67.876270882724725
 20
48.164113879915739
 30
0.0
 10
67.688310882724721
 20
47.947084879915742
 30
0.0
 10
67.528573882724729
 20
47.717073879915745
 30
0.0
 10
67.382381882724729
 20
47.48113587991574
 30
0.0
  0
LWPOLYLINE
  5
148
  8
Layer_1
 62
1
420
16711680
370
-1
  6
ByLayer
100
AcDbEntity
100
AcDbPolyline
 90
2
 70
0
 10
68.563199882724732
 20
64.074109879915738
 10
68.563199882724732
 20
48.823666879915741
  0
SPLINE
  5
149
  8
Layer_1
 62
1
420
16711680
370
-1
  6
ByLayer
100
AcDbEntity
100
AcDbSpline
 70
8
 71
3
 72
8
 73
4
 74
0
 40
0.0
 40
0.0
 40
0.0
 40
0.0
 40
1.0
 40
1.0
 40
1.0
 40
1.0
 10
67.382381882724729
 20
41.877331879915744
 30
0.0
 10
67.659524882724725
 20
41.430291879915742
 30
0.0
 10
68.008633882724723
 20
41.017400879915741
 30
0.0
 10
68.427450882724727
 20
40.655309879915741
 30
0.0
  0
SPLINE
  5
14A
  8
Layer_1
 62
1
420
16711680
370
-1
  6
ByLayer
100
AcDbEntity
100
AcDbSpline
 70
8
 71
3
 72
8
 73
4
 74
0
 40
0.0
 40
0.0
 40
0.0
 40
0.0
 40
1.0
 40
1.0
 40
1.0
 40
1.0
 10
68.427450882724727
 20
40.655309879915741
 30
0.0
 10
70.653619882724726
 20
38.734786879915745
 30
0.0
 10
74.014604882724726
 20
38.982295879915739
 30
0.0
 10
75.935973882724724
 20
41.208182879915739
 30
0.0
  0
SPLINE
  5
14B
  8
Layer_1
 62
1
420
16711680
370
-1
  6
ByLayer
100
AcDbEntity
100
AcDbSpline
 70
8
 71
3
 72
8
 73
4
 74
0
 40
0.0
 40
0.0
 40
0.0
 40
0.0
 40
1.0
 40
1.0
 40
1.0
 40
1.0
 10
75.935973882724724
 20
41.208182879915739
 30
0.0
 10
77.856777882724728
 20
43.433504879915745
 30
0.0
 10
77.609833882724729
 20
46.794771879915743
 30
0.0
 10
75.38366488272473
 20
48.716140879915741
 30
0.0
  0
LWPOLYLINE
  5
14C
  8
Layer_1
 62
1
420
16711680
370
-1
  6
ByLayer
100
AcDbEntity
100
AcDbPolyline
 90
2
 70
0
 10
67.382381882724729
 20
47.48113587991574
 10
67.382381882724729
 20
41.877331879915744
  0
SPLINE
  5
14D
  8
Layer_1
 62
1
420
16711680
370
-1
  6
ByLayer
100
AcDbEntity
100
AcDbSpline
 70
8
 71
3
 72
8
 73
4
 74
0
 40
0.0
 40
0.0
 40
0.0
 40
0.0
 40
1.0
 40
1.0
 40
1.0
 40
1.0
 10
72.93736188272473
 20
63.518131879915742
 30
0.0
 10
72.726824882724728
 20
62.94888987991574
 30
0.0
 10
72.094081882724723
 20
62.657918879915741
 30
0.0
 10
71.524557882724721
 20
62.868455879915743
 30
0.0
  0
SPLINE
  5
14E
  8
Layer_1
 62
1
420
16711680
370
-1
  6
ByLayer
100
AcDbEntity
100
AcDbSpline
 70
8
 71
3
 72
8
 73
4
 74
0
 40
0.0
 40
0.0
 40
0.0
 40
0.0
 40
1.0
 40
1.0
 40
1.0
 40
1.0
 10
71.524557882724721
 20
62.868455879915743
 30
0.0
 10
70.954750882724724
 20
63.078993879915743
 30
0.0
 10
70.663779882724725
 20
63.711453879915744
 30
0.0
 10
70.874035882724726
 20
64.281260879915749
 30
0.0
  0
SPLINE
  5
14F
  8
Layer_1
 62
1
420
16711680
370
-1
  6
ByLayer
100
AcDbEntity
100
AcDbSpline
 70
8
 71
3
 72
8
 73
4
 74
0
 40
0.0
 40
0.0
 40
0.0
 40
0.0
 40
1.0
 40
1.0
 40
1.0
 40
1.0
 10
70.874035882724726
 20
64.281260879915749
 30
0.0
 10
71.085137882724723
 20
64.850784879915736
 30
0.0
 10
71.717315882724733
 20
65.141473879915736
 30
0.0
 10
72.287121882724733
 20
64.931218879915747
 30
0.0
  0
SPLINE
  5
150
  8
Layer_1
 62
1
420
16711680
370
-1
  6
ByLayer
100
AcDbEntity
100
AcDbSpline
 70
8
 71
3
 72
8
 73
4
 74
0
 40
0.0
 40
0.0
 40
0.0
 40
0.0
 40
1.0
 40
1.0
 40
1.0
 40
1.0
 10
72.287121882724733
 20
64.931218879915747
 30
0.0
 10
72.856081882724723
 20
64.720680879915747
 30
0.0
 10
73.14789988272473
 20
64.08793887991574
 30
0.0
 10
72.93736188272473
 20
63.518131879915742
 30
0.0
  0
LWPOLYLINE
  5
151
  8
Layer_1
 62
1
420
16711680
370
-1
  6
ByLayer
100
AcDbEntity
100
AcDbPolyline
 90
2
 70
0
 10
75.38366488272473
 20
48.716140879915741
 10
75.38366488272473
 20
48.716140879915741
  0
SPLINE
  5
152
  8
Layer_1
 62
1
420
16711680
370
-1
  6
ByLayer
100
AcDbEntity
100
AcDbSpline
 70
8
 71
3
 72
8
 73
4
 74
0
 40
0.0
 40
0.0
 40
0.0
 40
0.0
 40
1.0
 40
1.0
 40
1.0
 40
1.0
 10
72.172821882724733
 20
44.448093879915739
 30
0.0
 10
71.950713882724727
 20
43.84808987991574
 30
0.0
 10
71.283821882724723
 20
43.541031879915742
 30
0.0
 10
70.682970882724732
 20
43.76285887991574
 30
0.0
  0
SPLINE
  5
153
  8
Layer_1
 62
1
420
16711680
370
-1
  6
ByLayer
100
AcDbEntity
100
AcDbSpline
 70
8
 71
3
 72
8
 73
4
 74
0
 40
0.0
 40
0.0
 40
0.0
 40
0.0
 40
1.0
 40
1.0
 40
1.0
 40
1.0
 10
70.682970882724732
 20
43.76285887991574
 30
0.0
 10
70.082119882724726
 20
43.984966879915739
 30
0.0
 10
69.775061882724728
 20
44.65242287991574
 30
0.0
 10
69.997170882724731
 20
45.253273879915739
 30
0.0
  0
SPLINE
  5
154
  8
Layer_1
 62
1
420
16711680
370
-1
  6
ByLayer
100
AcDbEntity
100
AcDbSpline
 70
8
 71
3
 72
8
 73
4
 74
0
 40
0.0
 40
0.0
 40
0.0
 40
0.0
 40
1.0
 40
1.0
 40
1.0
 40
1.0
 10
69.997170882724731
 20
45.253273879915739
 30
0.0
 10
70.219844882724729
 20
45.853842879915739
 30
0.0
 10
70.886735882724722
 20
46.160335879915742
 30
0.0
 10
71.487021882724733
 20
45.938509879915742
 30
0.0
  0
SPLINE
  5
155
  8
Layer_1
 62
1
420
16711680
370
-1
  6
ByLayer
100
AcDbEntity
100
AcDbSpline
 70
8
 71
3
 72
8
 73
4
 74
0
 40
0.0
 40
0.0
 40
0.0
 40
0.0
 40
1.0
 40
1.0
 40
1.0
 40
1.0
 10
71.487021882724733
 20
45.938509879915742
 30
0.0
 10
72.087308882724727
 20
45.716682879915744
 30
0.0
 10
72.394648882724724
 20
45.049226879915743
 30
0.0
 10
72.172821882724733
 20
44.448093879915739
 30
0.0
  0
LWPOLYLINE
  5
156
  8
Layer_1
 62
1
420
16711680
370
-1
  6
ByLayer
100
AcDbEntity
100
AcDbPolyline
 90
2
 70
0
 10
72.93736188272473
 20
63.518131879915742
 10
72.93736188272473
 20
63.518131879915742
  0
SPLINE
  5
157
  8
Layer_1
 62
1
420
16711680
370
-1
  6
ByLayer
100
AcDbEntity
100
AcDbSpline
 70
8
 71
3
 72
8
 73
4
 74
0
 40
0.0
 40
0.0
 40
0.0
 40
0.0
 40
1.0
 40
1.0
 40
1.0
 40
1.0
 10
57.668575882724724
 20
15.117011879915742
 30
0.0
 10
57.668575882724724
 20
15.757656879915741
 30
0.0
 10
58.188993882724731
 20
16.276380879915742
 30
0.0
 10
58.829355882724727
 20
16.275816879915741
 30
0.0
  0
SPLINE
  5
158
  8
Layer_1
 62
1
420
16711680
370
-1
  6
ByLayer
100
AcDbEntity
100
AcDbSpline
 70
8
 71
3
 72
8
 73
4
 74
0
 40
0.0
 40
0.0
 40
0.0
 40
0.0
 40
1.0
 40
1.0
 40
1.0
 40
1.0
 10
58.829355882724727
 20
16.275816879915741
 30
0.0
 10
59.469717882724723
 20
16.275816879915741
 30
0.0
 10
59.988441882724729
 20
15.755398879915742
 30
0.0
 10
59.987877882724732
 20
15.115036879915742
 30
0.0
  0
SPLINE
  5
159
  8
Layer_1
 62
1
420
16711680
370
-1
  6
ByLayer
100
AcDbEntity
100
AcDbSpline
 70
8
 71
3
 72
8
 73
4
 74
0
 40
0.0
 40
0.0
 40
0.0
 40
0.0
 40
1.0
 40
1.0
 40
1.0
 40
1.0
 10
59.987877882724732
 20
15.115036879915742
 30
0.0
 10
59.987877882724732
 20
14.474674879915742
 30
0.0
 10
59.467459882724725
 20
13.955949879915742
 30
0.0
 10
58.827097882724729
 20
13.956514879915742
 30
0.0
  0
SPLINE
  5
15A
  8
Layer_1
 62
1
420
16711680
370
-1
  6
ByLayer
100
AcDbEntity
100
AcDbSpline
 70
8
 71
3
 72
8
 73
4
 74
0
 40
0.0
 40
0.0
 40
0.0
 40
0.0
 40
1.0
 40
1.0
 40
1.0
 40
1.0
 10
58.827097882724729
 20
13.956514879915742
 30
0.0
 10
58.186735882724733
 20
13.956514879915742
 30
0.0
 10
57.667728882724731
 20
14.476649879915742
 30
0.0
 10
57.668575882724724
 20
15.117011879915742
 30
0.0
  0
LWPOLYLINE
  5
15B
  8
Layer_1
 62
1
420
16711680
370
-1
  6
ByLayer
100
AcDbEntity
100
AcDbPolyline
 90
2
 70
0
 10
72.172821882724733
 20
44.448093879915739
 10
72.172821882724733
 20
44.448093879915739
  0
SPLINE
  5
15C
  8
Layer_1
 62
1
420
16711680
370
-1
  6
ByLayer
100
AcDbEntity
100
AcDbSpline
 70
8
 71
3
 72
8
 73
4
 74
0
 40
0.0
 40
0.0
 40
0.0
 40
0.0
 40
1.0
 40
1.0
 40
1.0
 40
1.0
 10
70.006201882724724
 20
17.504894879915742
 30
0.0
 10
70.006201882724724
 20
18.14553887991574
 30
0.0
 10
70.526901882724729
 20
18.664262879915743
 30
0.0
 10
71.166981882724727
 20
18.663698879915742
 30
0.0
  0
SPLINE
  5
15D
  8
Layer_1
 62
1
420
16711680
370
-1
  6
ByLayer
100
AcDbEntity
100
AcDbSpline
 70
8
 71
3
 72
8
 73
4
 74
0
 40
0.0
 40
0.0
 40
0.0
 40
0.0
 40
1.0
 40
1.0
 40
1.0
 40
1.0
 10
71.166981882724727
 20
18.663698879915742
 30
0.0
 10
71.807908882724732
 20
18.663698879915742
 30
0.0
 10
72.326350882724725
 20
18.143280879915743
 30
0.0
 10
72.325786882724728
 20
17.502918879915743
 30
0.0
  0
SPLINE
  5
15E
  8
Layer_1
 62
1
420
16711680
370
-1
  6
ByLayer
100
AcDbEntity
100
AcDbSpline
 70
8
 71
3
 72
8
 73
4
 74
0
 40
0.0
 40
0.0
 40
0.0
 40
0.0
 40
1.0
 40
1.0
 40
1.0
 40
1.0
 10
72.325786882724728
 20
17.502918879915743
 30
0.0
 10
72.325786882724728
 20
16.862274879915741
 30
0.0
 10
71.805086882724723
 20
16.343549879915741
 30
0.0
 10
71.164441882724731
 20
16.344114879915743
 30
0.0
  0
SPLINE
  5
15F
  8
Layer_1
 62
1
420
16711680
370
-1
  6
ByLayer
100
AcDbEntity
100
AcDbSpline
 70
8
 71
3
 72
8
 73
4
 74
0
 40
0.0
 40
0.0
 40
0.0
 40
0.0
 40
1.0
 40
1.0
 40
1.0
 40
1.0
 10
71.164441882724731
 20
16.344114879915743
 30
0.0
 10
70.524361882724733
 20
16.344114879915743
 30
0.0
 10
70.005355882724729
 20
16.864531879915742
 30
0.0
 10
70.006201882724724
 20
17.504894879915742
 30
0.0
  0
LWPOLYLINE
  5
160
  8
Layer_1
 62
1
420
16711680
370
-1
  6
ByLayer
100
AcDbEntity
100
AcDbPolyline
 90
2
 70
0
 10
57.668575882724724
 20
15.117011879915742
 10
57.668575882724724
 20
15.117011879915742
  0
SPLINE
  5
161
  8
Layer_1
 62
1
420
16711680
370
-1
  6
ByLayer
100
AcDbEntity
100
AcDbSpline
 70
8
 71
3
 72
8
 73
4
 74
0
 40
0.0
 40
0.0
 40
0.0
 40
0.0
 40
1.0
 40
1.0
 40
1.0
 40
1.0
 10
70.025957882724725
 20
32.785260879915739
 30
0.0
 10
70.025957882724725
 20
33.425622879915743
 30
0.0
 10
70.546375882724732
 20
33.944346879915742
 30
0.0
 10
71.186455882724729
 20
33.943782879915744
 30
0.0
  0
SPLINE
  5
162
  8
Layer_1
 62
1
420
16711680
370
-1
  6
ByLayer
100
AcDbEntity
100
AcDbSpline
 70
8
 71
3
 72
8
 73
4
 74
0
 40
0.0
 40
0.0
 40
0.0
 40
0.0
 40
1.0
 40
1.0
 40
1.0
 40
1.0
 10
71.186455882724729
 20
33.943782879915744
 30
0.0
 10
71.827381882724723
 20
33.94321887991574
 30
0.0
 10
72.345824882724727
 20
33.423364879915745
 30
0.0
 10
72.345259882724733
 20
32.783002879915742
 30
0.0
  0
SPLINE
  5
163
  8
Layer_1
 62
1
420
16711680
370
-1
  6
ByLayer
100
AcDbEntity
100
AcDbSpline
 70
8
 71
3
 72
8
 73
4
 74
0
 40
0.0
 40
0.0
 40
0.0
 40
0.0
 40
1.0
 40
1.0
 40
1.0
 40
1.0
 10
72.345259882724733
 20
32.783002879915742
 30
0.0
 10
72.345259882724733
 20
32.142075879915744
 30
0.0
 10
71.824841882724726
 20
31.62363387991574
 30
0.0
 10
71.184761882724729
 20
31.624198879915742
 30
0.0
  0
SPLINE
  5
164
  8
Layer_1
 62
1
420
16711680
370
-1
  6
ByLayer
100
AcDbEntity
100
AcDbSpline
 70
8
 71
3
 72
8
 73
4
 74
0
 40
0.0
 40
0.0
 40
0.0
 40
0.0
 40
1.0
 40
1.0
 40
1.0
 40
1.0
 10
71.184761882724729
 20
31.624198879915742
 30
0.0
 10
70.544117882724734
 20
31.625044879915741
 30
0.0
 10
70.025110882724732
 20
32.14461587991574
 30
0.0
 10
70.025957882724725
 20
32.785260879915739
 30
0.0
  0
LWPOLYLINE
  5
165
  8
Layer_1
 62
1
420
16711680
370
-1
  6
ByLayer
100
AcDbEntity
100
AcDbPolyline
 90
2
 70
0
 10
70.006201882724724
 20
17.504894879915742
 10
70.006201882724724
 20
17.504894879915742
  0
SPLINE
  5
166
  8
Layer_1
 62
1
420
16711680
370
-1
  6
ByLayer
100
AcDbEntity
100
AcDbSpline
 70
8
 71
3
 72
8
 73
4
 74
0
 40
0.0
 40
0.0
 40
0.0
 40
0.0
 40
1.0
 40
1.0
 40
1.0
 40
1.0
 10
58.487584882724732
 20
34.396184879915744
 30
0.0
 10
58.487584882724732
 20
35.036829879915743
 30
0.0
 10
59.008001882724727
 20
35.555553879915742
 30
0.0
 10
59.648364882724735
 20
35.554706879915742
 30
0.0
  0
SPLINE
  5
167
  8
Layer_1
 62
1
420
16711680
370
-1
  6
ByLayer
100
AcDbEntity
100
AcDbSpline
 70
8
 71
3
 72
8
 73
4
 74
0
 40
0.0
 40
0.0
 40
0.0
 40
0.0
 40
1.0
 40
1.0
 40
1.0
 40
1.0
 10
59.648364882724735
 20
35.554706879915742
 30
0.0
 10
60.28900888272473
 20
35.554142879915744
 30
0.0
 10
60.807450882724723
 20
35.03428987991574
 30
0.0
 10
60.806886882724726
 20
34.393926879915739
 30
0.0
  0
SPLINE
  5
168
  8
Layer_1
 62
1
420
16711680
370
-1
  6
ByLayer
100
AcDbEntity
100
AcDbSpline
 70
8
 71
3
 72
8
 73
4
 74
0
 40
0.0
 40
0.0
 40
0.0
 40
0.0
 40
1.0
 40
1.0
 40
1.0
 40
1.0
 10
60.806886882724726
 20
34.393926879915739
 30
0.0
 10
60.806886882724726
 20
33.753282879915744
 30
0.0
 10
60.286468882724733
 20
33.234840879915744
 30
0.0
 10
59.646106882724723
 20
33.235404879915741
 30
0.0
  0
SPLINE
  5
169
  8
Layer_1
 62
1
420
16711680
370
-1
  6
ByLayer
100
AcDbEntity
100
AcDbSpline
 70
8
 71
3
 72
8
 73
4
 74
0
 40
0.0
 40
0.0
 40
0.0
 40
0.0
 40
1.0
 40
1.0
 40
1.0
 40
1.0
 10
59.646106882724723
 20
33.235404879915741
 30
0.0
 10
59.005744882724727
 20
33.235969879915743
 30
0.0
 10
58.486455882724727
 20
33.75582287991574
 30
0.0
 10
58.487584882724732
 20
34.396184879915744
 30
0.0
  0
LWPOLYLINE
  5
16A
  8
Layer_1
 62
1
420
16711680
370
-1
  6
ByLayer
100
AcDbEntity
100
AcDbPolyline
 90
2
 70
0
 10
70.025957882724725
 20
32.785260879915739
 10
70.025957882724725
 20
32.785260879915739
  0
SPLINE
  5
16B
  8
Layer_1
 62
1
420
16711680
370
-1
  6
ByLayer
100
AcDbEntity
100
AcDbSpline
 70
8
 71
3
 72
8
 73
4
 74
0
 40
0.0
 40
0.0
 40
0.0
 40
0.0
 40
1.0
 40
1.0
 40
1.0
 40
1.0
 10
68.729710882724731
 20
5.9357588799157419
 30
0.0
 10
68.729710882724731
 20
6.5761208799157416
 30
0.0
 10
69.250128882724724
 20
7.0945628799157419
 30
0.0
 10
69.890490882724734
 20
7.0939988799157421
 30
0.0
  0
SPLINE
  5
16C
  8
Layer_1
 62
1
420
16711680
370
-1
  6
ByLayer
100
AcDbEntity
100
AcDbSpline
 70
8
 71
3
 72
8
 73
4
 74
0
 40
0.0
 40
0.0
 40
0.0
 40
0.0
 40
1.0
 40
1.0
 40
1.0
 40
1.0
 10
69.890490882724734
 20
7.0939988799157421
 30
0.0
 10
70.531135882724726
 20
7.0939988799157421
 30
0.0
 10
71.049577882724734
 20
6.5735808799157418
 30
0.0
 10
71.049013882724722
 20
5.9329368799157418
 30
0.0
  0
SPLINE
  5
16D
  8
Layer_1
 62
1
420
16711680
370
-1
  6
ByLayer
100
AcDbEntity
100
AcDbSpline
 70
8
 71
3
 72
8
 73
4
 74
0
 40
0.0
 40
0.0
 40
0.0
 40
0.0
 40
1.0
 40
1.0
 40
1.0
 40
1.0
 10
71.049013882724722
 20
5.9329368799157418
 30
0.0
 10
71.049013882724722
 20
5.2925748799157422
 30
0.0
 10
70.52859588272473
 20
4.7738498799157423
 30
0.0
 10
69.888233882724734
 20
4.7744148799157422
 30
0.0
  0
SPLINE
  5
16E
  8
Layer_1
 62
1
420
16711680
370
-1
  6
ByLayer
100
AcDbEntity
100
AcDbSpline
 70
8
 71
3
 72
8
 73
4
 74
0
 40
0.0
 40
0.0
 40
0.0
 40
0.0
 40
1.0
 40
1.0
 40
1.0
 40
1.0
 10
69.888233882724734
 20
4.7744148799157422
 30
0.0
 10
69.247870882724726
 20
4.7744148799157422
 30
0.0
 10
68.728581882724725
 20
5.2948318799157423
 30
0.0
 10
68.729710882724731
 20
5.9357588799157419
 30
0.0
  0
LWPOLYLINE
  5
16F
  8
Layer_1
 62
1
420
16711680
370
-1
  6
ByLayer
100
AcDbEntity
100
AcDbPolyline
 90
2
 70
0
 10
58.487584882724732
 20
34.396184879915744
 10
58.487584882724732
 20
34.396184879915744
  0
LWPOLYLINE
  5
170
  8
Layer_1
 62
1
420
16711680
370
-1
  6
ByLayer
100
AcDbEntity
100
AcDbPolyline
 90
2
 70
0
 10
68.729710882724731
 20
5.9357588799157419
 10
68.729710882724731
 20
5.9357588799157419
  0
SPLINE
  5
171
  8
Layer_1
 62
1
420
16711680
370
-1
  6
ByLayer
100
AcDbEntity
100
AcDbSpline
 70
8
 71
3
 72
8
 73
4
 74
0
 40
0.0
 40
0.0
 40
0.0
 40
0.0
 40
1.0
 40
1.0
 40
1.0
 40
1.0
 10
69.89303088272473
 20
1.1357228799157419
 30
0.0
 10
72.543379882724722
 20
1.1329008799157418
 30
0.0
 10
74.694759882724725
 20
3.2800478799157418
 30
0.0
 10
74.697299882724721
 20
5.9309608799157418
 30
0.0
  0
LWPOLYLINE
  5
172
  8
Layer_1
 62
1
420
16711680
370
-1
  6
ByLayer
100
AcDbEntity
100
AcDbPolyline
 90
3
 70
0
 10
62.423455882724724
 20
23.992054879915742
 10
62.423455882724724
 20
23.994876879915743
 10
62.426277882724733
 20
26.393200879915742
  0
SPLINE
  5
173
  8
Layer_1
 62
1
420
16711680
370
-1
  6
ByLayer
100
AcDbEntity
100
AcDbSpline
 70
8
 71
3
 72
8
 73
4
 74
0
 40
0.0
 40
0.0
 40
0.0
 40
0.0
 40
1.0
 40
1.0
 40
1.0
 40
1.0
 10
52.609741882724734
 20
5.9524098799157423
 30
0.0
 10
52.606919882724725
 20
3.3012148799157419
 30
0.0
 10
53.954248882724727
 20
1.1509628799157419
 30
0.0
 10
53.954248882724727
 20
1.1509628799157419
 30
0.0
  0
LWPOLYLINE
  5
174
  8
Layer_1
 62
1
420
16711680
370
-1
  6
ByLayer
100
AcDbEntity
100
AcDbPolyline
 90
13
 70
0
 10
74.697299882724721
 20
5.9309608799157418
 10
74.714797882724724
 20
23.982740879915742
 10
67.941464882724731
 20
23.989231879915742
 10
67.941464882724731
 20
23.068340879915741
 10
64.901648882724729
 20
23.071445879915743
 10
64.901648882724729
 20
23.99233687991574
 10
62.424019882724735
 20
23.995158879915742
 10
62.424019882724735
 20
23.99233687991574
 10
62.420633882724729
 20
20.393438879915742
 10
58.709410882724725
 20
20.39710787991574
 10
56.663864882724731
 20
20.399929879915742
 10
52.62413588272473
 20
20.404162879915742
 10
52.609741882724734
 20
5.9524098799157423
  0
SPLINE
  5
175
  8
Layer_1
 62
1
420
16711680
370
-1
  6
ByLayer
100
AcDbEntity
100
AcDbSpline
 70
8
 71
3
 72
8
 73
4
 74
0
 40
0.0
 40
0.0
 40
0.0
 40
0.0
 40
1.0
 40
1.0
 40
1.0
 40
1.0
 10
56.926048882724729
 20
29.998880879915742
 30
0.0
 10
56.926048882724729
 20
29.476204879915741
 30
0.0
 10
56.501021882724729
 20
29.052871879915742
 30
0.0
 10
55.978910882724733
 20
29.053435879915742
 30
0.0
  0
SPLINE
  5
176
  8
Layer_1
 62
1
420
16711680
370
-1
  6
ByLayer
100
AcDbEntity
100
AcDbSpline
 70
8
 71
3
 72
8
 73
4
 74
0
 40
0.0
 40
0.0
 40
0.0
 40
0.0
 40
1.0
 40
1.0
 40
1.0
 40
1.0
 10
55.978910882724733
 20
29.053435879915742
 30
0.0
 10
55.455953882724728
 20
29.054282879915743
 30
0.0
 10
55.032619882724731
 20
29.47818087991574
 30
0.0
 10
55.033184882724726
 20
30.000855879915743
 30
0.0
  0
SPLINE
  5
177
  8
Layer_1
 62
1
420
16711680
370
-1
  6
ByLayer
100
AcDbEntity
100
AcDbSpline
 70
8
 71
3
 72
8
 73
4
 74
0
 40
0.0
 40
0.0
 40
0.0
 40
0.0
 40
1.0
 40
1.0
 40
1.0
 40
1.0
 10
55.033184882724726
 20
30.000855879915743
 30
0.0
 10
55.033184882724726
 20
30.523813879915743
 30
0.0
 10
55.457646882724731
 20
30.946864879915744
 30
0.0
 10
55.980604882724734
 20
30.946300879915743
 30
0.0
  0
SPLINE
  5
178
  8
Layer_1
 62
1
420
16711680
370
-1
  6
ByLayer
100
AcDbEntity
100
AcDbSpline
 70
8
 71
3
 72
8
 73
4
 74
0
 40
0.0
 40
0.0
 40
0.0
 40
0.0
 40
1.0
 40
1.0
 40
1.0
 40
1.0
 10
55.980604882724734
 20
30.946300879915743
 30
0.0
 10
56.503279882724726
 20
30.946018879915741
 30
0.0
 10
56.92661388272473
 20
30.522120879915743
 30
0.0
 10
56.926048882724729
 20
29.998880879915742
 30
0.0
  0
LWPOLYLINE
  5
179
  8
Layer_1
 62
1
420
16711680
370
-1
  6
ByLayer
100
AcDbEntity
100
AcDbPolyline
 90
4
 70
0
 10
53.954248882724727
 20
1.1509628799157419
 10
65.092713882724723
 20
1.139956879915742
 10
69.89303088272473
 20
1.136005879915742
 10
69.89303088272473
 20
1.1357228799157419
  0
SPLINE
  5
17A
  8
Layer_1
 62
1
420
16711680
370
-1
  6
ByLayer
100
AcDbEntity
100
AcDbSpline
 70
8
 71
3
 72
8
 73
4
 74
0
 40
0.0
 40
0.0
 40
0.0
 40
0.0
 40
1.0
 40
1.0
 40
1.0
 40
1.0
 10
58.168108882724724
 20
41.428598879915739
 30
0.0
 10
58.168108882724724
 20
40.905922879915742
 30
0.0
 10
57.743364882724734
 20
40.482589879915743
 30
0.0
 10
57.22068888272473
 20
40.482871879915741
 30
0.0
  0
SPLINE
  5
17B
  8
Layer_1
 62
1
420
16711680
370
-1
  6
ByLayer
100
AcDbEntity
100
AcDbSpline
 70
8
 71
3
 72
8
 73
4
 74
0
 40
0.0
 40
0.0
 40
0.0
 40
0.0
 40
1.0
 40
1.0
 40
1.0
 40
1.0
 10
57.22068888272473
 20
40.482871879915741
 30
0.0
 10
56.69801388272473
 20
40.483435879915739
 30
0.0
 10
56.275244882724735
 20
40.907898879915741
 30
0.0
 10
56.275244882724735
 20
41.430573879915741
 30
0.0
  0
SPLINE
  5
17C
  8
Layer_1
 62
1
420
16711680
370
-1
  6
ByLayer
100
AcDbEntity
100
AcDbSpline
 70
8
 71
3
 72
8
 73
4
 74
0
 40
0.0
 40
0.0
 40
0.0
 40
0.0
 40
1.0
 40
1.0
 40
1.0
 40
1.0
 10
56.275244882724735
 20
41.430573879915741
 30
0.0
 10
56.275244882724735
 20
41.953531879915744
 30
0.0
 10
56.699706882724726
 20
42.376300879915739
 30
0.0
 10
57.222664882724729
 20
42.37601887991574
 30
0.0
  0
SPLINE
  5
17D
  8
Layer_1
 62
1
420
16711680
370
-1
  6
ByLayer
100
AcDbEntity
100
AcDbSpline
 70
8
 71
3
 72
8
 73
4
 74
0
 40
0.0
 40
0.0
 40
0.0
 40
0.0
 40
1.0
 40
1.0
 40
1.0
 40
1.0
 10
57.222664882724729
 20
42.37601887991574
 30
0.0
 10
57.745339882724728
 20
42.375453879915739
 30
0.0
 10
58.168673882724732
 20
41.951555879915745
 30
0.0
 10
58.168108882724724
 20
41.428598879915739
 30
0.0
  0
LWPOLYLINE
  5
17E
  8
Layer_1
 62
1
420
16711680
370
-1
  6
ByLayer
100
AcDbEntity
100
AcDbPolyline
 90
2
 70
0
 10
56.926048882724729
 20
29.998880879915742
 10
56.926048882724729
 20
29.998880879915742
  0
LWPOLYLINE
  5
17F
  8
Layer_1
 62
1
420
16711680
370
-1
  6
ByLayer
100
AcDbEntity
100
AcDbPolyline
 90
2
 70
0
 10
58.168108882724724
 20
41.428598879915739
 10
58.168108882724724
 20
41.428598879915739
  0
SPLINE
  5
180
  8
Layer_1
 62
1
420
16711680
370
-1
  6
ByLayer
100
AcDbEntity
100
AcDbSpline
 70
8
 71
3
 72
8
 73
4
 74
0
 40
0.0
 40
0.0
 40
0.0
 40
0.0
 40
1.0
 40
1.0
 40
1.0
 40
1.0
 10
68.919081882724726
 20
38.839491879915741
 30
0.0
 10
66.894419882724733
 20
39.594718879915739
 30
0.0
 10
65.451417882724726
 20
41.540640879915742
 30
0.0
 10
65.453675882724724
 20
43.828051879915741
 30
0.0
  0
SPLINE
  5
181
  8
Layer_1
 62
1
420
16711680
370
-1
  6
ByLayer
100
AcDbEntity
100
AcDbSpline
 70
8
 71
3
 72
8
 73
4
 74
0
 40
0.0
 40
0.0
 40
0.0
 40
0.0
 40
1.0
 40
1.0
 40
1.0
 40
1.0
 10
65.453675882724724
 20
43.828051879915741
 30
0.0
 10
65.453675882724724
 20
44.850824879915741
 30
0.0
 10
65.74972688272473
 20
45.801631879915739
 30
0.0
 10
66.252364882724734
 20
46.61076287991574
 30
0.0
  0
LWPOLYLINE
  5
182
  8
Layer_1
 62
1
420
16711680
370
-1
  6
ByLayer
100
AcDbEntity
100
AcDbPolyline
 90
11
 70
0
 10
56.274679882724726
 20
41.429726879915741
 10
55.95322888272473
 20
29.99916287991574
 10
62.429381882724726
 20
29.992953879915742
 10
62.425430882724726
 20
26.392354879915743
 10
64.903059882724733
 20
26.389531879915744
 10
64.903059882724733
 20
27.310422879915741
 10
67.942875882724721
 20
27.307318879915741
 10
67.942875882724721
 20
26.386427879915743
 10
74.716208882724729
 20
26.379936879915743
 10
74.728908882724724
 20
38.833564879915741
 10
68.919081882724726
 20
38.839491879915741
  0
SPLINE
  5
183
  8
Layer_1
 62
1
420
16711680
370
-1
  6
ByLayer
100
AcDbEntity
100
AcDbSpline
 70
8
 71
3
 72
8
 73
4
 74
0
 40
0.0
 40
0.0
 40
0.0
 40
0.0
 40
1.0
 40
1.0
 40
1.0
 40
1.0
 10
55.192639882724734
 20
45.434742879915738
 30
0.0
 10
53.867041882724735
 20
45.434742879915738
 30
0.0
 10
52.792621882724731
 20
44.360040879915744
 30
0.0
 10
52.792621882724731
 20
43.035006879915741
 30
0.0
  0
LWPOLYLINE
  5
184
  8
Layer_1
 62
1
420
16711680
370
-1
  6
ByLayer
100
AcDbEntity
100
AcDbPolyline
 90
4
 70
0
 10
66.252364882724734
 20
46.61076287991574
 10
66.252364882724734
 20
47.413966879915741
 10
56.456713882724728
 20
45.743211879915741
 10
55.192639882724734
 20
45.434742879915738
  0
SPLINE
  5
185
  8
Layer_1
 62
1
420
16711680
370
-1
  6
ByLayer
100
AcDbEntity
100
AcDbSpline
 70
8
 71
3
 72
8
 73
4
 74
0
 40
0.0
 40
0.0
 40
0.0
 40
0.0
 40
1.0
 40
1.0
 40
1.0
 40
1.0
 10
52.465244882724733
 20
23.706727879915743
 30
0.0
 10
52.465244882724733
 20
22.82675887991574
 30
0.0
 10
52.913413882724726
 20
21.72326987991574
 30
0.0
 10
53.462899882724727
 20
21.253934879915743
 30
0.0
  0
SPLINE
  5
186
  8
Layer_1
 62
1
420
16711680
370
-1
  6
ByLayer
100
AcDbEntity
100
AcDbSpline
 70
8
 71
3
 72
8
 73
4
 74
0
 40
0.0
 40
0.0
 40
0.0
 40
0.0
 40
1.0
 40
1.0
 40
1.0
 40
1.0
 10
53.462899882724727
 20
21.253934879915743
 30
0.0
 10
54.012386882724726
 20
20.784880879915743
 30
0.0
 10
54.492446882724728
 20
20.400776879915743
 30
0.0
 10
54.492446882724728
 20
20.400776879915743
 30
0.0
  0
SPLINE
  5
187
  8
Layer_1
 62
1
420
16711680
370
-1
  6
ByLayer
100
AcDbEntity
100
AcDbSpline
 70
8
 71
3
 72
8
 73
4
 74
0
 40
0.0
 40
0.0
 40
0.0
 40
0.0
 40
1.0
 40
1.0
 40
1.0
 40
1.0
 10
56.759932882724726
 20
46.84322387991574
 30
0.0
 10
58.085248882724727
 20
46.84322387991574
 30
0.0
 10
59.159950882724729
 20
47.917643879915744
 30
0.0
 10
59.159950882724729
 20
49.243241879915743
 30
0.0
  0
SPLINE
  5
188
  8
Layer_1
 62
1
420
16711680
370
-1
  6
ByLayer
100
AcDbEntity
100
AcDbSpline
 70
8
 71
3
 72
8
 73
4
 74
0
 40
0.0
 40
0.0
 40
0.0
 40
0.0
 40
1.0
 40
1.0
 40
1.0
 40
1.0
 10
59.159950882724729
 20
49.243241879915743
 30
0.0
 10
59.159950882724729
 20
49.541832879915745
 30
0.0
 10
59.102941882724735
 20
49.82631287991574
 30
0.0
 10
59.003034882724734
 20
50.090472879915744
 30
0.0
  0
LWPOLYLINE
  5
189
  8
Layer_1
 62
1
420
16711680
370
-1
  6
ByLayer
100
AcDbEntity
100
AcDbPolyline
 90
3
 70
0
 10
52.792621882724731
 20
43.035006879915741
 10
52.471170882724735
 20
30.002266879915741
 10
52.465244882724733
 20
23.706727879915743
  0
SPLINE
  5
18A
  8
Layer_1
 62
1
420
16711680
370
-1
  6
ByLayer
100
AcDbEntity
100
AcDbSpline
 70
8
 71
3
 72
8
 73
4
 74
0
 40
0.0
 40
0.0
 40
0.0
 40
0.0
 40
1.0
 40
1.0
 40
1.0
 40
1.0
 10
65.914092882724731
 20
54.864543879915743
 30
0.0
 10
66.794343882724732
 20
54.864543879915743
 30
0.0
 10
67.514010882724733
 20
55.416852879915744
 30
0.0
 10
67.514010882724733
 20
56.297103879915738
 30
0.0
  0
SPLINE
  5
18B
  8
Layer_1
 62
1
420
16711680
370
-1
  6
ByLayer
100
AcDbEntity
100
AcDbSpline
 70
8
 71
3
 72
8
 73
4
 74
0
 40
0.0
 40
0.0
 40
0.0
 40
0.0
 40
1.0
 40
1.0
 40
1.0
 40
1.0
 10
67.514010882724733
 20
56.297103879915738
 30
0.0
 10
67.514010882724733
 20
56.297103879915738
 30
0.0
 10
66.840345882724733
 20
57.246216879915742
 30
0.0
 10
66.008637882724727
 20
57.246216879915742
 30
0.0
  0
SPLINE
  5
18C
  8
Layer_1
 62
1
420
16711680
370
-1
  6
ByLayer
100
AcDbEntity
100
AcDbSpline
 70
8
 71
3
 72
8
 73
4
 74
0
 40
0.0
 40
0.0
 40
0.0
 40
0.0
 40
1.0
 40
1.0
 40
1.0
 40
1.0
 10
66.008637882724727
 20
57.246216879915742
 30
0.0
 10
65.690572882724723
 20
57.246216879915742
 30
0.0
 10
65.427259882724726
 20
57.05712787991574
 30
0.0
 10
65.371379882724725
 20
56.755150879915739
 30
0.0
  0
LWPOLYLINE
  5
18D
  8
Layer_1
 62
1
420
16711680
370
-1
  6
ByLayer
100
AcDbEntity
100
AcDbPolyline
 90
3
 70
0
 10
59.003034882724734
 20
50.090472879915744
 10
59.003034882724734
 20
54.864543879915743
 10
65.914092882724731
 20
54.864543879915743
  0
SPLINE
  5
18E
  8
Layer_1
 62
1
420
16711680
370
-1
  6
ByLayer
100
AcDbEntity
100
AcDbSpline
 70
8
 71
3
 72
8
 73
4
 74
0
 40
0.0
 40
0.0
 40
0.0
 40
0.0
 40
1.0
 40
1.0
 40
1.0
 40
1.0
 10
60.760714882724727
 20
56.755150879915739
 30
0.0
 10
60.539452882724731
 20
56.755150879915739
 30
0.0
 10
60.360523882724735
 20
56.934361879915741
 30
0.0
 10
60.360523882724735
 20
57.155341879915738
 30
0.0
  0
LWPOLYLINE
  5
18F
  8
Layer_1
 62
1
420
16711680
370
-1
  6
ByLayer
100
AcDbEntity
100
AcDbPolyline
 90
2
 70
0
 10
65.371379882724725
 20
56.755150879915739
 10
60.760714882724727
 20
56.755150879915739
  0
SPLINE
  5
190
  8
Layer_1
 62
1
420
16711680
370
-1
  6
ByLayer
100
AcDbEntity
100
AcDbSpline
 70
8
 71
3
 72
8
 73
4
 74
0
 40
0.0
 40
0.0
 40
0.0
 40
0.0
 40
1.0
 40
1.0
 40
1.0
 40
1.0
 10
60.360523882724735
 20
57.755627879915743
 30
0.0
 10
60.360523882724735
 20
57.97660787991574
 30
0.0
 10
60.539452882724731
 20
58.155818879915742
 30
0.0
 10
60.760714882724727
 20
58.155818879915742
 30
0.0
  0
LWPOLYLINE
  5
191
  8
Layer_1
 62
1
420
16711680
370
-1
  6
ByLayer
100
AcDbEntity
100
AcDbPolyline
 90
2
 70
0
 10
60.360523882724735
 20
57.155341879915738
 10
60.360523882724735
 20
57.755627879915743
  0
SPLINE
  5
192
  8
Layer_1
 62
1
420
16711680
370
-1
  6
ByLayer
100
AcDbEntity
100
AcDbSpline
 70
8
 71
3
 72
8
 73
4
 74
0
 40
0.0
 40
0.0
 40
0.0
 40
0.0
 40
1.0
 40
1.0
 40
1.0
 40
1.0
 10
65.371661882724723
 20
58.155818879915742
 30
0.0
 10
65.427823882724724
 20
57.85497087991574
 30
0.0
 10
65.691137882724732
 20
57.705956879915739
 30
0.0
 10
66.008637882724727
 20
57.705956879915739
 30
0.0
  0
LWPOLYLINE
  5
193
  8
Layer_1
 62
1
420
16711680
370
-1
  6
ByLayer
100
AcDbEntity
100
AcDbPolyline
 90
2
 70
0
 10
60.760714882724727
 20
58.155818879915742
 10
65.371661882724723
 20
58.155818879915742
  0
SPLINE
  5
194
  8
Layer_1
 62
1
420
16711680
370
-1
  6
ByLayer
100
AcDbEntity
100
AcDbSpline
 70
8
 71
3
 72
8
 73
4
 74
0
 40
0.0
 40
0.0
 40
0.0
 40
0.0
 40
1.0
 40
1.0
 40
1.0
 40
1.0
 10
66.008637882724727
 20
57.711036879915738
 30
0.0
 10
66.834419882724731
 20
57.711036879915738
 30
0.0
 10
67.503850882724734
 20
58.686114879915742
 30
0.0
 10
67.513163882724726
 20
58.699943879915743
 30
0.0
  0
SPLINE
  5
195
  8
Layer_1
 62
1
420
16711680
370
-1
  6
ByLayer
100
AcDbEntity
100
AcDbSpline
 70
8
 71
3
 72
8
 73
4
 74
0
 40
0.0
 40
0.0
 40
0.0
 40
0.0
 40
1.0
 40
1.0
 40
1.0
 40
1.0
 10
67.513163882724726
 20
58.699943879915743
 30
0.0
 10
67.503850882724734
 20
58.713207879915743
 30
0.0
 10
66.834419882724731
 20
59.687721879915742
 30
0.0
 10
66.008637882724727
 20
59.687721879915742
 30
0.0
  0
SPLINE
  5
196
  8
Layer_1
 62
1
420
16711680
370
-1
  6
ByLayer
100
AcDbEntity
100
AcDbSpline
 70
8
 71
3
 72
8
 73
4
 74
0
 40
0.0
 40
0.0
 40
0.0
 40
0.0
 40
1.0
 40
1.0
 40
1.0
 40
1.0
 10
66.008637882724727
 20
59.687721879915742
 30
0.0
 10
65.690572882724723
 20
59.687721879915742
 30
0.0
 10
65.427259882724726
 20
59.538707879915741
 30
0.0
 10
65.371379882724725
 20
59.23673087991574
 30
0.0
  0
LWPOLYLINE
  5
197
  8
Layer_1
 62
1
420
16711680
370
-1
  6
ByLayer
100
AcDbEntity
100
AcDbPolyline
 90
2
 70
0
 10
66.008637882724727
 20
57.705956879915739
 10
66.008637882724727
 20
57.711036879915738
  0
SPLINE
  5
198
  8
Layer_1
 62
1
420
16711680
370
-1
  6
ByLayer
100
AcDbEntity
100
AcDbSpline
 70
8
 71
3
 72
8
 73
4
 74
0
 40
0.0
 40
0.0
 40
0.0
 40
0.0
 40
1.0
 40
1.0
 40
1.0
 40
1.0
 10
60.760714882724727
 20
59.23673087991574
 30
0.0
 10
60.539452882724731
 20
59.23673087991574
 30
0.0
 10
60.360523882724735
 20
59.415941879915742
 30
0.0
 10
60.360523882724735
 20
59.636921879915739
 30
0.0
  0
LWPOLYLINE
  5
199
  8
Layer_1
 62
1
420
16711680
370
-1
  6
ByLayer
100
AcDbEntity
100
AcDbPolyline
 90
2
 70
0
 10
65.371379882724725
 20
59.23673087991574
 10
60.760714882724727
 20
59.23673087991574
  0
SPLINE
  5
19A
  8
Layer_1
 62
1
420
16711680
370
-1
  6
ByLayer
100
AcDbEntity
100
AcDbSpline
 70
8
 71
3
 72
8
 73
4
 74
0
 40
0.0
 40
0.0
 40
0.0
 40
0.0
 40
1.0
 40
1.0
 40
1.0
 40
1.0
 10
60.360523882724735
 20
60.277001879915744
 30
0.0
 10
60.360523882724735
 20
60.497981879915741
 30
0.0
 10
60.539452882724731
 20
60.677192879915744
 30
0.0
 10
60.760714882724727
 20
60.677192879915744
 30
0.0
  0
LWPOLYLINE
  5
19B
  8
Layer_1
 62
1
420
16711680
370
-1
  6
ByLayer
100
AcDbEntity
100
AcDbPolyline
 90
2
 70
0
 10
60.360523882724735
 20
59.636921879915739
 10
60.360523882724735
 20
60.277001879915744
  0
SPLINE
  5
19C
  8
Layer_1
 62
1
420
16711680
370
-1
  6
ByLayer
100
AcDbEntity
100
AcDbSpline
 70
8
 71
3
 72
8
 73
4
 74
0
 40
0.0
 40
0.0
 40
0.0
 40
0.0
 40
1.0
 40
1.0
 40
1.0
 40
1.0
 10
65.371661882724723
 20
60.677192879915744
 30
0.0
 10
65.427823882724724
 20
60.376343879915744
 30
0.0
 10
65.691137882724732
 20
60.187818879915739
 30
0.0
 10
66.008637882724727
 20
60.187818879915739
 30
0.0
  0
LWPOLYLINE
  5
19D
  8
Layer_1
 62
1
420
16711680
370
-1
  6
ByLayer
100
AcDbEntity
100
AcDbPolyline
 90
2
 70
0
 10
60.760714882724727
 20
60.677192879915744
 10
65.371661882724723
 20
60.677192879915744
  0
SPLINE
  5
19E
  8
Layer_1
 62
1
420
16711680
370
-1
  6
ByLayer
100
AcDbEntity
100
AcDbSpline
 70
8
 71
3
 72
8
 73
4
 74
0
 40
0.0
 40
0.0
 40
0.0
 40
0.0
 40
1.0
 40
1.0
 40
1.0
 40
1.0
 10
66.008637882724727
 20
60.192898879915745
 30
0.0
 10
66.840345882724733
 20
60.192898879915745
 30
0.0
 10
67.514010882724733
 20
61.142576879915744
 30
0.0
 10
67.514010882724733
 20
61.142576879915744
 30
0.0
  0
LWPOLYLINE
  5
19F
  8
Layer_1
 62
1
420
16711680
370
-1
  6
ByLayer
100
AcDbEntity
100
AcDbPolyline
 90
2
 70
0
 10
66.008637882724727
 20
60.187818879915739
 10
66.008637882724727
 20
60.192898879915745
  0
SPLINE
  5
1A0
  8
Layer_1
 62
1
420
16711680
370
-1
  6
ByLayer
100
AcDbEntity
100
AcDbSpline
 70
8
 71
3
 72
8
 73
4
 74
0
 40
0.0
 40
0.0
 40
0.0
 40
0.0
 40
1.0
 40
1.0
 40
1.0
 40
1.0
 10
67.514010882724733
 20
62.281343879915745
 30
0.0
 10
66.955774882724725
 20
62.70749887991574
 30
0.0
 10
66.565461882724733
 20
63.338265879915745
 30
0.0
 10
66.448903882724736
 20
64.061318879915746
 30
0.0
  0
SPLINE
  5
1A1
  8
Layer_1
 62
1
420
16711680
370
-1
  6
ByLayer
100
AcDbEntity
100
AcDbSpline
 70
8
 71
3
 72
8
 73
4
 74
0
 40
0.0
 40
0.0
 40
0.0
 40
0.0
 40
1.0
 40
1.0
 40
1.0
 40
1.0
 10
66.448903882724736
 20
64.061318879915746
 30
0.0
 10
66.448903882724736
 20
64.121432879915744
 30
0.0
 10
66.444670882724722
 20
64.179852879915742
 30
0.0
 10
66.440437882724723
 20
64.237707879915746
 30
0.0
  0
SPLINE
  5
1A2
  8
Layer_1
 62
1
420
16711680
370
-1
  6
ByLayer
100
AcDbEntity
100
AcDbSpline
 70
8
 71
3
 72
8
 73
4
 74
0
 40
0.0
 40
0.0
 40
0.0
 40
0.0
 40
1.0
 40
1.0
 40
1.0
 40
1.0
 10
66.440437882724723
 20
64.237707879915746
 30
0.0
 10
66.433945882724728
 20
64.333663879915747
 30
0.0
 10
66.424350882724724
 20
64.429618879915736
 30
0.0
 10
66.410239882724724
 20
64.522752879915743
 30
0.0
  0
SPLINE
  5
1A3
  8
Layer_1
 62
1
420
16711680
370
-1
  6
ByLayer
100
AcDbEntity
100
AcDbSpline
 70
8
 71
3
 72
8
 73
4
 74
0
 40
0.0
 40
0.0
 40
0.0
 40
0.0
 40
1.0
 40
1.0
 40
1.0
 40
1.0
 10
66.410239882724724
 20
64.522752879915743
 30
0.0
 10
66.197161882724728
 20
65.942047879915748
 30
0.0
 10
65.058677882724723
 20
67.055414879915745
 30
0.0
 10
63.626963882724723
 20
67.227570879915746
 30
0.0
  0
LWPOLYLINE
  5
1A4
  8
Layer_1
 62
1
420
16711680
370
-1
  6
ByLayer
100
AcDbEntity
100
AcDbPolyline
 90
2
 70
0
 10
67.514010882724733
 20
61.142576879915744
 10
67.514010882724733
 20
62.281343879915745
  0
SPLINE
  5
1A5
  8
Layer_1
 62
1
420
16711680
370
-1
  6
ByLayer
100
AcDbEntity
100
AcDbSpline
 70
8
 71
3
 72
8
 73
4
 74
0
 40
0.0
 40
0.0
 40
0.0
 40
0.0
 40
1.0
 40
1.0
 40
1.0
 40
1.0
 10
57.47734188272473
 20
67.227570879915746
 30
0.0
 10
56.005834882724727
 20
67.050616879915736
 30
0.0
 10
54.841950882724731
 20
65.879394879915736
 30
0.0
 10
54.67656888272473
 20
64.40478387991574
 30
0.0
  0
LWPOLYLINE
  5
1A6
  8
Layer_1
 62
1
420
16711680
370
-1
  6
ByLayer
100
AcDbEntity
100
AcDbPolyline
 90
2
 70
0
 10
63.626963882724723
 20
67.227570879915746
 10
57.47734188272473
 20
67.227570879915746
  0
SPLINE
  5
1A7
  8
Layer_1
 62
1
420
16711680
370
-1
  6
ByLayer
100
AcDbEntity
100
AcDbSpline
 70
8
 71
3
 72
8
 73
4
 74
0
 40
0.0
 40
0.0
 40
0.0
 40
0.0
 40
1.0
 40
1.0
 40
1.0
 40
1.0
 10
54.665561882724731
 20
64.282298879915743
 30
0.0
 10
54.662174882724727
 20
64.238836879915738
 30
0.0
 10
54.661045882724729
 20
64.195092879915748
 30
0.0
 10
54.659634882724731
 20
64.151347879915747
 30
0.0
  0
SPLINE
  5
1A8
  8
Layer_1
 62
1
420
16711680
370
-1
  6
ByLayer
100
AcDbEntity
100
AcDbSpline
 70
8
 71
3
 72
8
 73
4
 74
0
 40
0.0
 40
0.0
 40
0.0
 40
0.0
 40
1.0
 40
1.0
 40
1.0
 40
1.0
 10
54.659634882724731
 20
64.151347879915747
 30
0.0
 10
54.56142188272473
 20
63.381163879915739
 30
0.0
 10
54.150223882724731
 20
62.710321879915739
 30
0.0
 10
53.55755788272473
 20
62.26610387991574
 30
0.0
  0
LWPOLYLINE
  5
1A9
  8
Layer_1
 62
1
420
16711680
370
-1
  6
ByLayer
100
AcDbEntity
100
AcDbPolyline
 90
2
 70
0
 10
54.67656888272473
 20
64.40478387991574
 10
54.665561882724731
 20
64.282298879915743
  0
SPLINE
  5
1AA
  8
Layer_1
 62
1
420
16711680
370
-1
  6
ByLayer
100
AcDbEntity
100
AcDbSpline
 70
8
 71
3
 72
8
 73
4
 74
0
 40
0.0
 40
0.0
 40
0.0
 40
0.0
 40
1.0
 40
1.0
 40
1.0
 40
1.0
 10
53.55755788272473
 20
50.036003879915739
 30
0.0
 10
53.904408882724731
 20
49.771278879915741
 30
0.0
 10
54.179574882724729
 20
49.423016879915743
 30
0.0
 10
54.371203882724728
 20
49.02621287991574
 30
0.0
  0
SPLINE
  5
1AB
  8
Layer_1
 62
1
420
16711680
370
-1
  6
ByLayer
100
AcDbEntity
100
AcDbSpline
 70
8
 71
3
 72
8
 73
4
 74
0
 40
0.0
 40
0.0
 40
0.0
 40
0.0
 40
1.0
 40
1.0
 40
1.0
 40
1.0
 10
54.371203882724728
 20
49.02621287991574
 30
0.0
 10
54.480423882724729
 20
47.802496879915743
 30
0.0
 10
55.507430882724734
 20
46.84322387991574
 30
0.0
 10
56.759932882724726
 20
46.84322387991574
 30
0.0
  0
LWPOLYLINE
  5
1AC
  8
Layer_1
 62
1
420
16711680
370
-1
  6
ByLayer
100
AcDbEntity
100
AcDbPolyline
 90
2
 70
0
 10
53.55755788272473
 20
62.26610387991574
 10
53.55755788272473
 20
50.036003879915739
  0
LWPOLYLINE
  5
1AD
  8
Layer_1
 62
1
420
16711680
370
-1
  6
ByLayer
100
AcDbEntity
100
AcDbPolyline
 90
2
 70
0
 10
56.759932882724726
 20
46.84322387991574
 10
56.759932882724726
 20
46.84322387991574
  0
SPLINE
  5
1AE
  8
Layer_1
 62
1
420
16711680
370
-1
  6
ByLayer
100
AcDbEntity
100
AcDbSpline
 70
8
 71
3
 72
8
 73
4
 74
0
 40
0.0
 40
0.0
 40
0.0
 40
0.0
 40
1.0
 40
1.0
 40
1.0
 40
1.0
 10
57.270754882724731
 20
62.843247879915744
 30
0.0
 10
56.608097882724735
 20
62.843247879915744
 30
0.0
 10
56.071028882724733
 20
63.38003487991574
 30
0.0
 10
56.071028882724733
 20
64.042692879915748
 30
0.0
  0
SPLINE
  5
1AF
  8
Layer_1
 62
1
420
16711680
370
-1
  6
ByLayer
100
AcDbEntity
100
AcDbSpline
 70
8
 71
3
 72
8
 73
4
 74
0
 40
0.0
 40
0.0
 40
0.0
 40
0.0
 40
1.0
 40
1.0
 40
1.0
 40
1.0
 10
56.071028882724733
 20
64.042692879915748
 30
0.0
 10
56.071028882724733
 20
64.705914879915738
 30
0.0
 10
56.608097882724735
 20
65.242983879915741
 30
0.0
 10
57.270754882724731
 20
65.242983879915741
 30
0.0
  0
LWPOLYLINE
  5
1B0
  8
Layer_1
 62
1
420
16711680
370
-1
  6
ByLayer
100
AcDbEntity
100
AcDbPolyline
 90
5
 70
0
 10
67.514010882724733
 20
58.700225879915742
 10
67.514010882724733
 20
58.700225879915742
 10
67.514010882724733
 20
58.69740387991574
 10
67.514010882724733
 20
58.700225879915742
 10
67.514010882724733
 20
58.700225879915742
  0
SPLINE
  5
1B1
  8
Layer_1
 62
1
420
16711680
370
-1
  6
ByLayer
100
AcDbEntity
100
AcDbSpline
 70
8
 71
3
 72
8
 73
4
 74
0
 40
0.0
 40
0.0
 40
0.0
 40
0.0
 40
1.0
 40
1.0
 40
1.0
 40
1.0
 10
60.135874882724735
 20
65.242983879915741
 30
0.0
 10
60.798814882724727
 20
65.242983879915741
 30
0.0
 10
61.33588388272473
 20
64.705914879915738
 30
0.0
 10
61.33588388272473
 20
64.042692879915748
 30
0.0
  0
SPLINE
  5
1B2
  8
Layer_1
 62
1
420
16711680
370
-1
  6
ByLayer
100
AcDbEntity
100
AcDbSpline
 70
8
 71
3
 72
8
 73
4
 74
0
 40
0.0
 40
0.0
 40
0.0
 40
0.0
 40
1.0
 40
1.0
 40
1.0
 40
1.0
 10
61.33588388272473
 20
64.042692879915748
 30
0.0
 10
61.33588388272473
 20
63.38003487991574
 30
0.0
 10
60.798814882724727
 20
62.843247879915744
 30
0.0
 10
60.135874882724735
 20
62.843247879915744
 30
0.0
  0
LWPOLYLINE
  5
1B3
  8
Layer_1
 62
1
420
16711680
370
-1
  6
ByLayer
100
AcDbEntity
100
AcDbPolyline
 90
2
 70
0
 10
57.270754882724731
 20
65.242983879915741
 10
60.135874882724735
 20
65.242983879915741
  0
SPLINE
  5
1B4
  8
Layer_1
 62
1
420
16711680
370
-1
  6
ByLayer
100
AcDbEntity
100
AcDbSpline
 70
8
 71
3
 72
8
 73
4
 74
0
 40
0.0
 40
0.0
 40
0.0
 40
0.0
 40
1.0
 40
1.0
 40
1.0
 40
1.0
 10
56.759932882724726
 20
48.043232879915742
 30
0.0
 10
57.422872882724732
 20
48.043232879915742
 30
0.0
 10
57.959941882724735
 20
48.580301879915744
 30
0.0
 10
57.959941882724735
 20
49.243241879915743
 30
0.0
  0
SPLINE
  5
1B5
  8
Layer_1
 62
1
420
16711680
370
-1
  6
ByLayer
100
AcDbEntity
100
AcDbSpline
 70
8
 71
3
 72
8
 73
4
 74
0
 40
0.0
 40
0.0
 40
0.0
 40
0.0
 40
1.0
 40
1.0
 40
1.0
 40
1.0
 10
57.959941882724735
 20
49.243241879915743
 30
0.0
 10
57.959941882724735
 20
49.90561687991574
 30
0.0
 10
57.422872882724732
 20
50.443250879915745
 30
0.0
 10
56.759932882724726
 20
50.443250879915745
 30
0.0
  0
SPLINE
  5
1B6
  8
Layer_1
 62
1
420
16711680
370
-1
  6
ByLayer
100
AcDbEntity
100
AcDbSpline
 70
8
 71
3
 72
8
 73
4
 74
0
 40
0.0
 40
0.0
 40
0.0
 40
0.0
 40
1.0
 40
1.0
 40
1.0
 40
1.0
 10
56.759932882724726
 20
50.443250879915745
 30
0.0
 10
56.097274882724733
 20
50.443250879915745
 30
0.0
 10
55.559641882724733
 20
49.90561687991574
 30
0.0
 10
55.559641882724733
 20
49.243241879915743
 30
0.0
  0
SPLINE
  5
1B7
  8
Layer_1
 62
1
420
16711680
370
-1
  6
ByLayer
100
AcDbEntity
100
AcDbSpline
 70
8
 71
3
 72
8
 73
4
 74
0
 40
0.0
 40
0.0
 40
0.0
 40
0.0
 40
1.0
 40
1.0
 40
1.0
 40
1.0
 10
55.559641882724733
 20
49.243241879915743
 30
0.0
 10
55.559641882724733
 20
48.580301879915744
 30
0.0
 10
56.097557882724729
 20
48.043232879915742
 30
0.0
 10
56.759932882724726
 20
48.043232879915742
 30
0.0
  0
LWPOLYLINE
  5
1B8
  8
Layer_1
 62
1
420
16711680
370
-1
  6
ByLayer
100
AcDbEntity
100
AcDbPolyline
 90
3
 70
0
 10
60.135874882724735
 20
62.843247879915744
 10
57.270754882724731
 20
62.843247879915744
 10
57.270754882724731
 20
62.843247879915744
  0
SPLINE
  5
1B9
  8
Layer_1
 62
1
420
16711680
370
-1
  6
ByLayer
100
AcDbEntity
100
AcDbSpline
 70
8
 71
3
 72
8
 73
4
 74
0
 40
0.0
 40
0.0
 40
0.0
 40
0.0
 40
1.0
 40
1.0
 40
1.0
 40
1.0
 10
64.359894882724731
 20
62.843247879915744
 30
0.0
 10
65.022552882724725
 20
62.843247879915744
 30
0.0
 10
65.559903882724726
 20
63.38003487991574
 30
0.0
 10
65.559903882724726
 20
64.042692879915748
 30
0.0
  0
SPLINE
  5
1BA
  8
Layer_1
 62
1
420
16711680
370
-1
  6
ByLayer
100
AcDbEntity
100
AcDbSpline
 70
8
 71
3
 72
8
 73
4
 74
0
 40
0.0
 40
0.0
 40
0.0
 40
0.0
 40
1.0
 40
1.0
 40
1.0
 40
1.0
 10
65.559903882724726
 20
64.042692879915748
 30
0.0
 10
65.559903882724726
 20
64.705914879915738
 30
0.0
 10
65.022552882724725
 20
65.242983879915741
 30
0.0
 10
64.359894882724731
 20
65.242983879915741
 30
0.0
  0
SPLINE
  5
1BB
  8
Layer_1
 62
1
420
16711680
370
-1
  6
ByLayer
100
AcDbEntity
100
AcDbSpline
 70
8
 71
3
 72
8
 73
4
 74
0
 40
0.0
 40
0.0
 40
0.0
 40
0.0
 40
1.0
 40
1.0
 40
1.0
 40
1.0
 10
64.359894882724731
 20
65.242983879915741
 30
0.0
 10
63.697237882724735
 20
65.242983879915741
 30
0.0
 10
63.159885882724723
 20
64.705914879915738
 30
0.0
 10
63.159885882724723
 20
64.042692879915748
 30
0.0
  0
SPLINE
  5
1BC
  8
Layer_1
 62
1
420
16711680
370
-1
  6
ByLayer
100
AcDbEntity
100
AcDbSpline
 70
8
 71
3
 72
8
 73
4
 74
0
 40
0.0
 40
0.0
 40
0.0
 40
0.0
 40
1.0
 40
1.0
 40
1.0
 40
1.0
 10
63.159885882724723
 20
64.042692879915748
 30
0.0
 10
63.159885882724723
 20
63.38003487991574
 30
0.0
 10
63.697237882724735
 20
62.843247879915744
 30
0.0
 10
64.359894882724731
 20
62.843247879915744
 30
0.0
  0
LWPOLYLINE
  5
1BD
  8
Layer_1
 62
1
420
16711680
370
-1
  6
ByLayer
100
AcDbEntity
100
AcDbPolyline
 90
2
 70
0
 10
56.759932882724726
 20
48.043232879915742
 10
56.759932882724726
 20
48.043232879915742
  0
LWPOLYLINE
  5
1BE
  8
Layer_1
 62
1
420
16711680
370
-1
  6
ByLayer
100
AcDbEntity
100
AcDbPolyline
 90
2
 70
0
 10
64.359894882724731
 20
62.843247879915744
 10
64.359894882724731
 20
62.843247879915744
  0
SPLINE
  5
1BF
  8
Layer_1
 62
1
420
16711680
370
-1
  6
ByLayer
100
AcDbEntity
100
AcDbSpline
 70
8
 71
3
 72
8
 73
4
 74
0
 40
0.0
 40
0.0
 40
0.0
 40
0.0
 40
1.0
 40
1.0
 40
1.0
 40
1.0
 10
101.0738755744382
 20
49.296710613061812
 30
0.0
 10
101.0501685744382
 20
49.317594613061814
 30
0.0
 10
101.02448657443821
 20
49.336503613061815
 30
0.0
 10
100.99936857443822
 20
49.356823613061813
 30
0.0
  0
SPLINE
  5
1C0
  8
Layer_1
 62
1
420
16711680
370
-1
  6
ByLayer
100
AcDbEntity
100
AcDbSpline
 70
8
 71
3
 72
8
 73
4
 74
0
 40
0.0
 40
0.0
 40
0.0
 40
0.0
 40
1.0
 40
1.0
 40
1.0
 40
1.0
 10
100.99936857443822
 20
64.654679613061802
 30
0.0
 10
100.99936857443822
 20
66.422236613061813
 30
0.0
 10
99.567372574438195
 20
67.854796613061808
 30
0.0
 10
97.800097574438212
 20
67.854796613061808
 30
0.0
  0
LWPOLYLINE
  5
1C1
  8
Layer_1
 62
1
420
16711680
370
-1
  6
ByLayer
100
AcDbEntity
100
AcDbPolyline
 90
2
 70
0
 10
100.99936857443822
 20
49.356823613061813
 10
100.99936857443822
 20
64.654679613061802
  0
SPLINE
  5
1C2
  8
Layer_1
 62
1
420
16711680
370
-1
  6
ByLayer
100
AcDbEntity
100
AcDbSpline
 70
8
 71
3
 72
8
 73
4
 74
0
 40
0.0
 40
0.0
 40
0.0
 40
0.0
 40
1.0
 40
1.0
 40
1.0
 40
1.0
 10
97.453246574438197
 20
67.854796613061808
 30
0.0
 10
95.685970574438215
 20
67.854796613061808
 30
0.0
 10
94.25341057443822
 20
66.422236613061813
 30
0.0
 10
94.25341057443822
 20
64.654679613061802
 30
0.0
  0
LWPOLYLINE
  5
1C3
  8
Layer_1
 62
1
420
16711680
370
-1
  6
ByLayer
100
AcDbEntity
100
AcDbPolyline
 90
2
 70
0
 10
97.800097574438212
 20
67.854796613061808
 10
97.453246574438197
 20
67.854796613061808
  0
SPLINE
  5
1C4
  8
Layer_1
 62
1
420
16711680
370
-1
  6
ByLayer
100
AcDbEntity
100
AcDbSpline
 70
8
 71
3
 72
8
 73
4
 74
0
 40
0.0
 40
0.0
 40
0.0
 40
0.0
 40
1.0
 40
1.0
 40
1.0
 40
1.0
 10
94.25341057443822
 20
49.404236613061812
 30
0.0
 10
94.009852574438213
 20
49.207528613061811
 30
0.0
 10
93.778148574438205
 20
48.989934613061813
 30
0.0
 10
93.5664815744382
 20
48.74468361306181
 30
0.0
  0
SPLINE
  5
1C5
  8
Layer_1
 62
1
420
16711680
370
-1
  6
ByLayer
100
AcDbEntity
100
AcDbSpline
 70
8
 71
3
 72
8
 73
4
 74
0
 40
0.0
 40
0.0
 40
0.0
 40
0.0
 40
1.0
 40
1.0
 40
1.0
 40
1.0
 10
93.5664815744382
 20
48.74468361306181
 30
0.0
 10
93.378521574438196
 20
48.527654613061813
 30
0.0
 10
93.218784574438217
 20
48.297643613061815
 30
0.0
 10
93.072592574438204
 20
48.061705613061811
 30
0.0
  0
LWPOLYLINE
  5
1C6
  8
Layer_1
 62
1
420
16711680
370
-1
  6
ByLayer
100
AcDbEntity
100
AcDbPolyline
 90
2
 70
0
 10
94.25341057443822
 20
64.654679613061802
 10
94.25341057443822
 20
49.404236613061812
  0
SPLINE
  5
1C7
  8
Layer_1
 62
1
420
16711680
370
-1
  6
ByLayer
100
AcDbEntity
100
AcDbSpline
 70
8
 71
3
 72
8
 73
4
 74
0
 40
0.0
 40
0.0
 40
0.0
 40
0.0
 40
1.0
 40
1.0
 40
1.0
 40
1.0
 10
93.072592574438204
 20
42.457901613061814
 30
0.0
 10
93.349735574438199
 20
42.010861613061813
 30
0.0
 10
93.698844574438198
 20
41.597970613061811
 30
0.0
 10
94.117661574438216
 20
41.235879613061812
 30
0.0
  0
SPLINE
  5
1C8
  8
Layer_1
 62
1
420
16711680
370
-1
  6
ByLayer
100
AcDbEntity
100
AcDbSpline
 70
8
 71
3
 72
8
 73
4
 74
0
 40
0.0
 40
0.0
 40
0.0
 40
0.0
 40
1.0
 40
1.0
 40
1.0
 40
1.0
 10
94.117661574438216
 20
41.235879613061812
 30
0.0
 10
96.343830574438215
 20
39.315356613061816
 30
0.0
 10
99.704815574438214
 20
39.56286561306181
 30
0.0
 10
101.62618457443821
 20
41.78875261306181
 30
0.0
  0
SPLINE
  5
1C9
  8
Layer_1
 62
1
420
16711680
370
-1
  6
ByLayer
100
AcDbEntity
100
AcDbSpline
 70
8
 71
3
 72
8
 73
4
 74
0
 40
0.0
 40
0.0
 40
0.0
 40
0.0
 40
1.0
 40
1.0
 40
1.0
 40
1.0
 10
101.62618457443821
 20
41.78875261306181
 30
0.0
 10
103.54698857443822
 20
44.014074613061815
 30
0.0
 10
103.3000445744382
 20
47.375341613061813
 30
0.0
 10
101.0738755744382
 20
49.296710613061812
 30
0.0
  0
LWPOLYLINE
  5
1CA
  8
Layer_1
 62
1
420
16711680
370
-1
  6
ByLayer
100
AcDbEntity
100
AcDbPolyline
 90
2
 70
0
 10
93.072592574438204
 20
48.061705613061811
 10
93.072592574438204
 20
42.457901613061814
  0
SPLINE
  5
1CB
  8
Layer_1
 62
1
420
16711680
370
-1
  6
ByLayer
100
AcDbEntity
100
AcDbSpline
 70
8
 71
3
 72
8
 73
4
 74
0
 40
0.0
 40
0.0
 40
0.0
 40
0.0
 40
1.0
 40
1.0
 40
1.0
 40
1.0
 10
98.627572574438204
 20
64.09870161306182
 30
0.0
 10
98.417035574438216
 20
63.52945961306181
 30
0.0
 10
97.784292574438211
 20
63.238488613061811
 30
0.0
 10
97.21476857443821
 20
63.449025613061814
 30
0.0
  0
SPLINE
  5
1CC
  8
Layer_1
 62
1
420
16711680
370
-1
  6
ByLayer
100
AcDbEntity
100
AcDbSpline
 70
8
 71
3
 72
8
 73
4
 74
0
 40
0.0
 40
0.0
 40
0.0
 40
0.0
 40
1.0
 40
1.0
 40
1.0
 40
1.0
 10
97.21476857443821
 20
63.449025613061814
 30
0.0
 10
96.644961574438213
 20
63.659563613061813
 30
0.0
 10
96.3539905744382
 20
64.292023613061815
 30
0.0
 10
96.564246574438215
 20
64.861830613061812
 30
0.0
  0
SPLINE
  5
1CD
  8
Layer_1
 62
1
420
16711680
370
-1
  6
ByLayer
100
AcDbEntity
100
AcDbSpline
 70
8
 71
3
 72
8
 73
4
 74
0
 40
0.0
 40
0.0
 40
0.0
 40
0.0
 40
1.0
 40
1.0
 40
1.0
 40
1.0
 10
96.564246574438215
 20
64.861830613061812
 30
0.0
 10
96.775348574438198
 20
65.431354613061814
 30
0.0
 10
97.407526574438208
 20
65.7220436130618
 30
0.0
 10
97.977332574438208
 20
65.51178861306181
 30
0.0
  0
SPLINE
  5
1CE
  8
Layer_1
 62
1
420
16711680
370
-1
  6
ByLayer
100
AcDbEntity
100
AcDbSpline
 70
8
 71
3
 72
8
 73
4
 74
0
 40
0.0
 40
0.0
 40
0.0
 40
0.0
 40
1.0
 40
1.0
 40
1.0
 40
1.0
 10
97.977332574438208
 20
65.51178861306181
 30
0.0
 10
98.546292574438212
 20
65.301250613061825
 30
0.0
 10
98.838110574438218
 20
64.668508613061817
 30
0.0
 10
98.627572574438204
 20
64.09870161306182
 30
0.0
  0
LWPOLYLINE
  5
1CF
  8
Layer_1
 62
1
420
16711680
370
-1
  6
ByLayer
100
AcDbEntity
100
AcDbPolyline
 90
2
 70
0
 10
101.0738755744382
 20
49.296710613061812
 10
101.0738755744382
 20
49.296710613061812
  0
SPLINE
  5
1D0
  8
Layer_1
 62
1
420
16711680
370
-1
  6
ByLayer
100
AcDbEntity
100
AcDbSpline
 70
8
 71
3
 72
8
 73
4
 74
0
 40
0.0
 40
0.0
 40
0.0
 40
0.0
 40
1.0
 40
1.0
 40
1.0
 40
1.0
 10
97.863032574438222
 20
45.028663613061809
 30
0.0
 10
97.640924574438202
 20
44.428659613061811
 30
0.0
 10
96.974032574438212
 20
44.121601613061813
 30
0.0
 10
96.373181574438206
 20
44.34342861306181
 30
0.0
  0
SPLINE
  5
1D1
  8
Layer_1
 62
1
420
16711680
370
-1
  6
ByLayer
100
AcDbEntity
100
AcDbSpline
 70
8
 71
3
 72
8
 73
4
 74
0
 40
0.0
 40
0.0
 40
0.0
 40
0.0
 40
1.0
 40
1.0
 40
1.0
 40
1.0
 10
96.373181574438206
 20
44.34342861306181
 30
0.0
 10
95.7723305744382
 20
44.565536613061809
 30
0.0
 10
95.465272574438217
 20
45.232992613061811
 30
0.0
 10
95.687381574438206
 20
45.833843613061809
 30
0.0
  0
SPLINE
  5
1D2
  8
Layer_1
 62
1
420
16711680
370
-1
  6
ByLayer
100
AcDbEntity
100
AcDbSpline
 70
8
 71
3
 72
8
 73
4
 74
0
 40
0.0
 40
0.0
 40
0.0
 40
0.0
 40
1.0
 40
1.0
 40
1.0
 40
1.0
 10
95.687381574438206
 20
45.833843613061809
 30
0.0
 10
95.910055574438218
 20
46.434412613061809
 30
0.0
 10
96.57694657443821
 20
46.740905613061813
 30
0.0
 10
97.177232574438221
 20
46.519079613061812
 30
0.0
  0
SPLINE
  5
1D3
  8
Layer_1
 62
1
420
16711680
370
-1
  6
ByLayer
100
AcDbEntity
100
AcDbSpline
 70
8
 71
3
 72
8
 73
4
 74
0
 40
0.0
 40
0.0
 40
0.0
 40
0.0
 40
1.0
 40
1.0
 40
1.0
 40
1.0
 10
97.177232574438221
 20
46.519079613061812
 30
0.0
 10
97.777519574438202
 20
46.297252613061815
 30
0.0
 10
98.084859574438212
 20
45.629796613061814
 30
0.0
 10
97.863032574438222
 20
45.028663613061809
 30
0.0
  0
LWPOLYLINE
  5
1D4
  8
Layer_1
 62
1
420
16711680
370
-1
  6
ByLayer
100
AcDbEntity
100
AcDbPolyline
 90
2
 70
0
 10
98.627572574438204
 20
64.09870161306182
 10
98.627572574438204
 20
64.09870161306182
  0
SPLINE
  5
1D5
  8
Layer_1
 62
1
420
16711680
370
-1
  6
ByLayer
100
AcDbEntity
100
AcDbSpline
 70
8
 71
3
 72
8
 73
4
 74
0
 40
0.0
 40
0.0
 40
0.0
 40
0.0
 40
1.0
 40
1.0
 40
1.0
 40
1.0
 10
83.358786574438199
 20
15.697581613061812
 30
0.0
 10
83.358786574438199
 20
16.338226613061813
 30
0.0
 10
83.879204574438205
 20
16.856950613061812
 30
0.0
 10
84.519566574438215
 20
16.856386613061812
 30
0.0
  0
SPLINE
  5
1D6
  8
Layer_1
 62
1
420
16711680
370
-1
  6
ByLayer
100
AcDbEntity
100
AcDbSpline
 70
8
 71
3
 72
8
 73
4
 74
0
 40
0.0
 40
0.0
 40
0.0
 40
0.0
 40
1.0
 40
1.0
 40
1.0
 40
1.0
 10
84.519566574438215
 20
16.856386613061812
 30
0.0
 10
85.159928574438197
 20
16.856386613061812
 30
0.0
 10
85.678652574438217
 20
16.335968613061812
 30
0.0
 10
85.67808857443822
 20
15.695606613061813
 30
0.0
  0
SPLINE
  5
1D7
  8
Layer_1
 62
1
420
16711680
370
-1
  6
ByLayer
100
AcDbEntity
100
AcDbSpline
 70
8
 71
3
 72
8
 73
4
 74
0
 40
0.0
 40
0.0
 40
0.0
 40
0.0
 40
1.0
 40
1.0
 40
1.0
 40
1.0
 10
85.67808857443822
 20
15.695606613061813
 30
0.0
 10
85.67808857443822
 20
15.055244613061813
 30
0.0
 10
85.157670574438214
 20
14.536519613061813
 30
0.0
 10
84.517308574438204
 20
14.537084613061813
 30
0.0
  0
SPLINE
  5
1D8
  8
Layer_1
 62
1
420
16711680
370
-1
  6
ByLayer
100
AcDbEntity
100
AcDbSpline
 70
8
 71
3
 72
8
 73
4
 74
0
 40
0.0
 40
0.0
 40
0.0
 40
0.0
 40
1.0
 40
1.0
 40
1.0
 40
1.0
 10
84.517308574438204
 20
14.537084613061813
 30
0.0
 10
83.876946574438222
 20
14.537084613061813
 30
0.0
 10
83.357939574438205
 20
15.057219613061813
 30
0.0
 10
83.358786574438199
 20
15.697581613061812
 30
0.0
  0
LWPOLYLINE
  5
1D9
  8
Layer_1
 62
1
420
16711680
370
-1
  6
ByLayer
100
AcDbEntity
100
AcDbPolyline
 90
2
 70
0
 10
97.863032574438222
 20
45.028663613061809
 10
97.863032574438222
 20
45.028663613061809
  0
SPLINE
  5
1DA
  8
Layer_1
 62
1
420
16711680
370
-1
  6
ByLayer
100
AcDbEntity
100
AcDbSpline
 70
8
 71
3
 72
8
 73
4
 74
0
 40
0.0
 40
0.0
 40
0.0
 40
0.0
 40
1.0
 40
1.0
 40
1.0
 40
1.0
 10
95.696412574438199
 20
18.085464613061813
 30
0.0
 10
95.696412574438199
 20
18.726108613061811
 30
0.0
 10
96.217112574438204
 20
19.244832613061813
 30
0.0
 10
96.857192574438216
 20
19.244268613061813
 30
0.0
  0
SPLINE
  5
1DB
  8
Layer_1
 62
1
420
16711680
370
-1
  6
ByLayer
100
AcDbEntity
100
AcDbSpline
 70
8
 71
3
 72
8
 73
4
 74
0
 40
0.0
 40
0.0
 40
0.0
 40
0.0
 40
1.0
 40
1.0
 40
1.0
 40
1.0
 10
96.857192574438216
 20
19.244268613061813
 30
0.0
 10
97.498119574438221
 20
19.244268613061813
 30
0.0
 10
98.016561574438214
 20
18.723850613061813
 30
0.0
 10
98.015997574438217
 20
18.083488613061814
 30
0.0
  0
SPLINE
  5
1DC
  8
Layer_1
 62
1
420
16711680
370
-1
  6
ByLayer
100
AcDbEntity
100
AcDbSpline
 70
8
 71
3
 72
8
 73
4
 74
0
 40
0.0
 40
0.0
 40
0.0
 40
0.0
 40
1.0
 40
1.0
 40
1.0
 40
1.0
 10
98.015997574438217
 20
18.083488613061814
 30
0.0
 10
98.015997574438217
 20
17.442844613061812
 30
0.0
 10
97.495297574438212
 20
16.924119613061812
 30
0.0
 10
96.854652574438205
 20
16.924684613061814
 30
0.0
  0
SPLINE
  5
1DD
  8
Layer_1
 62
1
420
16711680
370
-1
  6
ByLayer
100
AcDbEntity
100
AcDbSpline
 70
8
 71
3
 72
8
 73
4
 74
0
 40
0.0
 40
0.0
 40
0.0
 40
0.0
 40
1.0
 40
1.0
 40
1.0
 40
1.0
 10
96.854652574438205
 20
16.924684613061814
 30
0.0
 10
96.214572574438222
 20
16.924684613061814
 30
0.0
 10
95.695566574438203
 20
17.445101613061812
 30
0.0
 10
95.696412574438199
 20
18.085464613061813
 30
0.0
  0
LWPOLYLINE
  5
1DE
  8
Layer_1
 62
1
420
16711680
370
-1
  6
ByLayer
100
AcDbEntity
100
AcDbPolyline
 90
2
 70
0
 10
83.358786574438199
 20
15.697581613061812
 10
83.358786574438199
 20
15.697581613061812
  0
SPLINE
  5
1DF
  8
Layer_1
 62
1
420
16711680
370
-1
  6
ByLayer
100
AcDbEntity
100
AcDbSpline
 70
8
 71
3
 72
8
 73
4
 74
0
 40
0.0
 40
0.0
 40
0.0
 40
0.0
 40
1.0
 40
1.0
 40
1.0
 40
1.0
 10
95.7161685744382
 20
33.36583061306181
 30
0.0
 10
95.7161685744382
 20
34.006192613061813
 30
0.0
 10
96.236586574438206
 20
34.524916613061812
 30
0.0
 10
96.876666574438218
 20
34.524352613061815
 30
0.0
  0
SPLINE
  5
1E0
  8
Layer_1
 62
1
420
16711680
370
-1
  6
ByLayer
100
AcDbEntity
100
AcDbSpline
 70
8
 71
3
 72
8
 73
4
 74
0
 40
0.0
 40
0.0
 40
0.0
 40
0.0
 40
1.0
 40
1.0
 40
1.0
 40
1.0
 10
96.876666574438218
 20
34.524352613061815
 30
0.0
 10
97.517592574438197
 20
34.523788613061811
 30
0.0
 10
98.036035574438216
 20
34.003934613061816
 30
0.0
 10
98.035470574438222
 20
33.363572613061812
 30
0.0
  0
SPLINE
  5
1E1
  8
Layer_1
 62
1
420
16711680
370
-1
  6
ByLayer
100
AcDbEntity
100
AcDbSpline
 70
8
 71
3
 72
8
 73
4
 74
0
 40
0.0
 40
0.0
 40
0.0
 40
0.0
 40
1.0
 40
1.0
 40
1.0
 40
1.0
 10
98.035470574438222
 20
33.363572613061812
 30
0.0
 10
98.035470574438222
 20
32.722645613061815
 30
0.0
 10
97.515052574438215
 20
32.204203613061807
 30
0.0
 10
96.874972574438203
 20
32.204768613061816
 30
0.0
  0
SPLINE
  5
1E2
  8
Layer_1
 62
1
420
16711680
370
-1
  6
ByLayer
100
AcDbEntity
100
AcDbSpline
 70
8
 71
3
 72
8
 73
4
 74
0
 40
0.0
 40
0.0
 40
0.0
 40
0.0
 40
1.0
 40
1.0
 40
1.0
 40
1.0
 10
96.874972574438203
 20
32.204768613061816
 30
0.0
 10
96.234328574438223
 20
32.205614613061812
 30
0.0
 10
95.715321574438207
 20
32.725185613061811
 30
0.0
 10
95.7161685744382
 20
33.36583061306181
 30
0.0
  0
LWPOLYLINE
  5
1E3
  8
Layer_1
 62
1
420
16711680
370
-1
  6
ByLayer
100
AcDbEntity
100
AcDbPolyline
 90
2
 70
0
 10
95.696412574438199
 20
18.085464613061813
 10
95.696412574438199
 20
18.085464613061813
  0
SPLINE
  5
1E4
  8
Layer_1
 62
1
420
16711680
370
-1
  6
ByLayer
100
AcDbEntity
100
AcDbSpline
 70
8
 71
3
 72
8
 73
4
 74
0
 40
0.0
 40
0.0
 40
0.0
 40
0.0
 40
1.0
 40
1.0
 40
1.0
 40
1.0
 10
84.177795574438221
 20
34.976754613061814
 30
0.0
 10
84.177795574438221
 20
35.617399613061814
 30
0.0
 10
84.698212574438202
 20
36.136123613061812
 30
0.0
 10
85.33857557443821
 20
36.135276613061812
 30
0.0
  0
SPLINE
  5
1E5
  8
Layer_1
 62
1
420
16711680
370
-1
  6
ByLayer
100
AcDbEntity
100
AcDbSpline
 70
8
 71
3
 72
8
 73
4
 74
0
 40
0.0
 40
0.0
 40
0.0
 40
0.0
 40
1.0
 40
1.0
 40
1.0
 40
1.0
 10
85.33857557443821
 20
36.135276613061812
 30
0.0
 10
85.979219574438218
 20
36.134712613061815
 30
0.0
 10
86.497661574438212
 20
35.61485961306181
 30
0.0
 10
86.497097574438214
 20
34.97449661306181
 30
0.0
  0
SPLINE
  5
1E6
  8
Layer_1
 62
1
420
16711680
370
-1
  6
ByLayer
100
AcDbEntity
100
AcDbSpline
 70
8
 71
3
 72
8
 73
4
 74
0
 40
0.0
 40
0.0
 40
0.0
 40
0.0
 40
1.0
 40
1.0
 40
1.0
 40
1.0
 10
86.497097574438214
 20
34.97449661306181
 30
0.0
 10
86.497097574438214
 20
34.333852613061815
 30
0.0
 10
85.976679574438208
 20
33.815410613061815
 30
0.0
 10
85.336317574438198
 20
33.815974613061812
 30
0.0
  0
SPLINE
  5
1E7
  8
Layer_1
 62
1
420
16711680
370
-1
  6
ByLayer
100
AcDbEntity
100
AcDbSpline
 70
8
 71
3
 72
8
 73
4
 74
0
 40
0.0
 40
0.0
 40
0.0
 40
0.0
 40
1.0
 40
1.0
 40
1.0
 40
1.0
 10
85.336317574438198
 20
33.815974613061812
 30
0.0
 10
84.695955574438216
 20
33.816539613061813
 30
0.0
 10
84.176666574438201
 20
34.336392613061811
 30
0.0
 10
84.177795574438221
 20
34.976754613061814
 30
0.0
  0
LWPOLYLINE
  5
1E8
  8
Layer_1
 62
1
420
16711680
370
-1
  6
ByLayer
100
AcDbEntity
100
AcDbPolyline
 90
2
 70
0
 10
95.7161685744382
 20
33.36583061306181
 10
95.7161685744382
 20
33.36583061306181
  0
SPLINE
  5
1E9
  8
Layer_1
 62
1
420
16711680
370
-1
  6
ByLayer
100
AcDbEntity
100
AcDbSpline
 70
8
 71
3
 72
8
 73
4
 74
0
 40
0.0
 40
0.0
 40
0.0
 40
0.0
 40
1.0
 40
1.0
 40
1.0
 40
1.0
 10
94.419921574438206
 20
6.5163286130618125
 30
0.0
 10
94.419921574438206
 20
7.1566906130618122
 30
0.0
 10
94.940339574438212
 20
7.6751326130618125
 30
0.0
 10
95.580701574438223
 20
7.6745686130618127
 30
0.0
  0
SPLINE
  5
1EA
  8
Layer_1
 62
1
420
16711680
370
-1
  6
ByLayer
100
AcDbEntity
100
AcDbSpline
 70
8
 71
3
 72
8
 73
4
 74
0
 40
0.0
 40
0.0
 40
0.0
 40
0.0
 40
1.0
 40
1.0
 40
1.0
 40
1.0
 10
95.580701574438223
 20
7.6745686130618127
 30
0.0
 10
96.221346574438201
 20
7.6745686130618127
 30
0.0
 10
96.739788574438222
 20
7.1541506130618124
 30
0.0
 10
96.739224574438197
 20
6.5135066130618124
 30
0.0
  0
SPLINE
  5
1EB
  8
Layer_1
 62
1
420
16711680
370
-1
  6
ByLayer
100
AcDbEntity
100
AcDbSpline
 70
8
 71
3
 72
8
 73
4
 74
0
 40
0.0
 40
0.0
 40
0.0
 40
0.0
 40
1.0
 40
1.0
 40
1.0
 40
1.0
 10
96.739224574438197
 20
6.5135066130618124
 30
0.0
 10
96.739224574438197
 20
5.8731446130618128
 30
0.0
 10
96.218806574438219
 20
5.3544196130618129
 30
0.0
 10
95.578444574438208
 20
5.3549846130618128
 30
0.0
  0
SPLINE
  5
1EC
  8
Layer_1
 62
1
420
16711680
370
-1
  6
ByLayer
100
AcDbEntity
100
AcDbSpline
 70
8
 71
3
 72
8
 73
4
 74
0
 40
0.0
 40
0.0
 40
0.0
 40
0.0
 40
1.0
 40
1.0
 40
1.0
 40
1.0
 10
95.578444574438208
 20
5.3549846130618128
 30
0.0
 10
94.938081574438201
 20
5.3549846130618128
 30
0.0
 10
94.418792574438214
 20
5.875401613061813
 30
0.0
 10
94.419921574438206
 20
6.5163286130618125
 30
0.0
  0
LWPOLYLINE
  5
1ED
  8
Layer_1
 62
1
420
16711680
370
-1
  6
ByLayer
100
AcDbEntity
100
AcDbPolyline
 90
2
 70
0
 10
84.177795574438221
 20
34.976754613061814
 10
84.177795574438221
 20
34.976754613061814
  0
LWPOLYLINE
  5
1EE
  8
Layer_1
 62
1
420
16711680
370
-1
  6
ByLayer
100
AcDbEntity
100
AcDbPolyline
 90
2
 70
0
 10
94.419921574438206
 20
6.5163286130618125
 10
94.419921574438206
 20
6.5163286130618125
  0
SPLINE
  5
1EF
  8
Layer_1
 62
1
420
16711680
370
-1
  6
ByLayer
100
AcDbEntity
100
AcDbSpline
 70
8
 71
3
 72
8
 73
4
 74
0
 40
0.0
 40
0.0
 40
0.0
 40
0.0
 40
1.0
 40
1.0
 40
1.0
 40
1.0
 10
95.583241574438205
 20
1.7162926130618126
 30
0.0
 10
98.23359057443821
 20
1.7134706130618125
 30
0.0
 10
100.3849705744382
 20
3.8606176130618124
 30
0.0
 10
100.38751057443821
 20
6.5115306130618125
 30
0.0
  0
LWPOLYLINE
  5
1F0
  8
Layer_1
 62
1
420
16711680
370
-1
  6
ByLayer
100
AcDbEntity
100
AcDbPolyline
 90
3
 70
0
 10
88.113666574438213
 20
24.572624613061812
 10
88.113666574438213
 20
24.575446613061814
 10
88.116488574438222
 20
26.973770613061813
  0
SPLINE
  5
1F1
  8
Layer_1
 62
1
420
16711680
370
-1
  6
ByLayer
100
AcDbEntity
100
AcDbSpline
 70
8
 71
3
 72
8
 73
4
 74
0
 40
0.0
 40
0.0
 40
0.0
 40
0.0
 40
1.0
 40
1.0
 40
1.0
 40
1.0
 10
78.299952574438208
 20
6.532979613061813
 30
0.0
 10
78.297130574438199
 20
3.8817846130618125
 30
0.0
 10
79.644459574438201
 20
1.7315326130618125
 30
0.0
 10
79.644459574438201
 20
1.7315326130618125
 30
0.0
  0
LWPOLYLINE
  5
1F2
  8
Layer_1
 62
1
420
16711680
370
-1
  6
ByLayer
100
AcDbEntity
100
AcDbPolyline
 90
13
 70
0
 10
100.38751057443821
 20
6.5115306130618125
 10
100.4050085744382
 20
24.563310613061812
 10
93.631675574438219
 20
24.569801613061813
 10
93.631675574438219
 20
23.648910613061812
 10
90.591859574438217
 20
23.652015613061813
 10
90.591859574438217
 20
24.572906613061811
 10
88.11423057443821
 20
24.575728613061813
 10
88.11423057443821
 20
24.572906613061811
 10
88.110844574438204
 20
20.974008613061812
 10
84.399621574438214
 20
20.977677613061811
 10
82.354075574438212
 20
20.980499613061813
 10
78.314346574438218
 20
20.984732613061812
 10
78.299952574438208
 20
6.532979613061813
  0
SPLINE
  5
1F3
  8
Layer_1
 62
1
420
16711680
370
-1
  6
ByLayer
100
AcDbEntity
100
AcDbSpline
 70
8
 71
3
 72
8
 73
4
 74
0
 40
0.0
 40
0.0
 40
0.0
 40
0.0
 40
1.0
 40
1.0
 40
1.0
 40
1.0
 10
82.616259574438203
 20
30.579450613061812
 30
0.0
 10
82.616259574438203
 20
30.056774613061812
 30
0.0
 10
82.191232574438203
 20
29.633441613061812
 30
0.0
 10
81.669121574438208
 20
29.634005613061813
 30
0.0
  0
SPLINE
  5
1F4
  8
Layer_1
 62
1
420
16711680
370
-1
  6
ByLayer
100
AcDbEntity
100
AcDbSpline
 70
8
 71
3
 72
8
 73
4
 74
0
 40
0.0
 40
0.0
 40
0.0
 40
0.0
 40
1.0
 40
1.0
 40
1.0
 40
1.0
 10
81.669121574438208
 20
29.634005613061813
 30
0.0
 10
81.146164574438217
 20
29.634852613061813
 30
0.0
 10
80.722830574438206
 20
30.058750613061811
 30
0.0
 10
80.7233955744382
 20
30.581425613061814
 30
0.0
  0
SPLINE
  5
1F5
  8
Layer_1
 62
1
420
16711680
370
-1
  6
ByLayer
100
AcDbEntity
100
AcDbSpline
 70
8
 71
3
 72
8
 73
4
 74
0
 40
0.0
 40
0.0
 40
0.0
 40
0.0
 40
1.0
 40
1.0
 40
1.0
 40
1.0
 10
80.7233955744382
 20
30.581425613061814
 30
0.0
 10
80.7233955744382
 20
31.104383613061813
 30
0.0
 10
81.147857574438206
 20
31.527434613061814
 30
0.0
 10
81.670815574438222
 20
31.526870613061813
 30
0.0
  0
SPLINE
  5
1F6
  8
Layer_1
 62
1
420
16711680
370
-1
  6
ByLayer
100
AcDbEntity
100
AcDbSpline
 70
8
 71
3
 72
8
 73
4
 74
0
 40
0.0
 40
0.0
 40
0.0
 40
0.0
 40
1.0
 40
1.0
 40
1.0
 40
1.0
 10
81.670815574438222
 20
31.526870613061813
 30
0.0
 10
82.193490574438215
 20
31.526588613061811
 30
0.0
 10
82.616824574438212
 20
31.102690613061814
 30
0.0
 10
82.616259574438203
 20
30.579450613061812
 30
0.0
  0
LWPOLYLINE
  5
1F7
  8
Layer_1
 62
1
420
16711680
370
-1
  6
ByLayer
100
AcDbEntity
100
AcDbPolyline
 90
4
 70
0
 10
79.644459574438201
 20
1.7315326130618125
 10
90.782924574438198
 20
1.7205266130618126
 10
95.583241574438205
 20
1.7165756130618126
 10
95.583241574438205
 20
1.7162926130618126
  0
SPLINE
  5
1F8
  8
Layer_1
 62
1
420
16711680
370
-1
  6
ByLayer
100
AcDbEntity
100
AcDbSpline
 70
8
 71
3
 72
8
 73
4
 74
0
 40
0.0
 40
0.0
 40
0.0
 40
0.0
 40
1.0
 40
1.0
 40
1.0
 40
1.0
 10
83.858319574438212
 20
42.00916861306181
 30
0.0
 10
83.858319574438212
 20
41.486492613061813
 30
0.0
 10
83.433575574438208
 20
41.063159613061814
 30
0.0
 10
82.910899574438218
 20
41.063441613061812
 30
0.0
  0
SPLINE
  5
1F9
  8
Layer_1
 62
1
420
16711680
370
-1
  6
ByLayer
100
AcDbEntity
100
AcDbSpline
 70
8
 71
3
 72
8
 73
4
 74
0
 40
0.0
 40
0.0
 40
0.0
 40
0.0
 40
1.0
 40
1.0
 40
1.0
 40
1.0
 10
82.910899574438218
 20
41.063441613061812
 30
0.0
 10
82.388224574438212
 20
41.064005613061809
 30
0.0
 10
81.965455574438209
 20
41.488468613061812
 30
0.0
 10
81.965455574438209
 20
42.011143613061812
 30
0.0
  0
SPLINE
  5
1FA
  8
Layer_1
 62
1
420
16711680
370
-1
  6
ByLayer
100
AcDbEntity
100
AcDbSpline
 70
8
 71
3
 72
8
 73
4
 74
0
 40
0.0
 40
0.0
 40
0.0
 40
0.0
 40
1.0
 40
1.0
 40
1.0
 40
1.0
 10
81.965455574438209
 20
42.011143613061812
 30
0.0
 10
81.965455574438209
 20
42.534101613061814
 30
0.0
 10
82.389917574438215
 20
42.95687061306181
 30
0.0
 10
82.912875574438203
 20
42.956588613061811
 30
0.0
  0
SPLINE
  5
1FB
  8
Layer_1
 62
1
420
16711680
370
-1
  6
ByLayer
100
AcDbEntity
100
AcDbSpline
 70
8
 71
3
 72
8
 73
4
 74
0
 40
0.0
 40
0.0
 40
0.0
 40
0.0
 40
1.0
 40
1.0
 40
1.0
 40
1.0
 10
82.912875574438203
 20
42.956588613061811
 30
0.0
 10
83.43555057443821
 20
42.956023613061809
 30
0.0
 10
83.858884574438207
 20
42.532125613061815
 30
0.0
 10
83.858319574438212
 20
42.00916861306181
 30
0.0
  0
LWPOLYLINE
  5
1FC
  8
Layer_1
 62
1
420
16711680
370
-1
  6
ByLayer
100
AcDbEntity
100
AcDbPolyline
 90
2
 70
0
 10
82.616259574438203
 20
30.579450613061812
 10
82.616259574438203
 20
30.579450613061812
  0
LWPOLYLINE
  5
1FD
  8
Layer_1
 62
1
420
16711680
370
-1
  6
ByLayer
100
AcDbEntity
100
AcDbPolyline
 90
2
 70
0
 10
83.858319574438212
 20
42.00916861306181
 10
83.858319574438212
 20
42.00916861306181
  0
SPLINE
  5
1FE
  8
Layer_1
 62
1
420
16711680
370
-1
  6
ByLayer
100
AcDbEntity
100
AcDbSpline
 70
8
 71
3
 72
8
 73
4
 74
0
 40
0.0
 40
0.0
 40
0.0
 40
0.0
 40
1.0
 40
1.0
 40
1.0
 40
1.0
 10
94.6092925744382
 20
39.420061613061812
 30
0.0
 10
92.584630574438222
 20
40.175288613061809
 30
0.0
 10
91.141628574438215
 20
42.121210613061812
 30
0.0
 10
91.143886574438199
 20
44.408621613061811
 30
0.0
  0
SPLINE
  5
1FF
  8
Layer_1
 62
1
420
16711680
370
-1
  6
ByLayer
100
AcDbEntity
100
AcDbSpline
 70
8
 71
3
 72
8
 73
4
 74
0
 40
0.0
 40
0.0
 40
0.0
 40
0.0
 40
1.0
 40
1.0
 40
1.0
 40
1.0
 10
91.143886574438199
 20
44.408621613061811
 30
0.0
 10
91.143886574438199
 20
45.431394613061812
 30
0.0
 10
91.439937574438204
 20
46.38220161306181
 30
0.0
 10
91.942575574438223
 20
47.19133261306181
 30
0.0
  0
LWPOLYLINE
  5
200
  8
Layer_1
 62
1
420
16711680
370
-1
  6
ByLayer
100
AcDbEntity
100
AcDbPolyline
 90
11
 70
0
 10
81.964890574438215
 20
42.010296613061811
 10
81.643439574438219
 20
30.579732613061811
 10
88.119592574438201
 20
30.573523613061813
 10
88.1156415744382
 20
26.972924613061814
 10
90.593270574438208
 20
26.970101613061814
 10
90.593270574438208
 20
27.890992613061812
 10
93.633086574438209
 20
27.887888613061811
 10
93.633086574438209
 20
26.966997613061814
 10
100.40641957443822
 20
26.960506613061813
 10
100.41911957443821
 20
39.414134613061812
 10
94.6092925744382
 20
39.420061613061812
  0
SPLINE
  5
201
  8
Layer_1
 62
1
420
16711680
370
-1
  6
ByLayer
100
AcDbEntity
100
AcDbSpline
 70
8
 71
3
 72
8
 73
4
 74
0
 40
0.0
 40
0.0
 40
0.0
 40
0.0
 40
1.0
 40
1.0
 40
1.0
 40
1.0
 10
80.882850574438208
 20
46.015312613061809
 30
0.0
 10
79.557252574438223
 20
46.015312613061809
 30
0.0
 10
78.48283257443822
 20
44.940610613061814
 30
0.0
 10
78.48283257443822
 20
43.615576613061812
 30
0.0
  0
LWPOLYLINE
  5
202
  8
Layer_1
 62
1
420
16711680
370
-1
  6
ByLayer
100
AcDbEntity
100
AcDbPolyline
 90
4
 70
0
 10
91.942575574438223
 20
47.19133261306181
 10
91.942575574438223
 20
47.994536613061811
 10
82.146924574438202
 20
46.323781613061811
 10
80.882850574438208
 20
46.015312613061809
  0
SPLINE
  5
203
  8
Layer_1
 62
1
420
16711680
370
-1
  6
ByLayer
100
AcDbEntity
100
AcDbSpline
 70
8
 71
3
 72
8
 73
4
 74
0
 40
0.0
 40
0.0
 40
0.0
 40
0.0
 40
1.0
 40
1.0
 40
1.0
 40
1.0
 10
78.155455574438207
 20
24.287297613061813
 30
0.0
 10
78.155455574438207
 20
23.407328613061811
 30
0.0
 10
78.603624574438214
 20
22.303839613061811
 30
0.0
 10
79.153110574438216
 20
21.834504613061814
 30
0.0
  0
SPLINE
  5
204
  8
Layer_1
 62
1
420
16711680
370
-1
  6
ByLayer
100
AcDbEntity
100
AcDbSpline
 70
8
 71
3
 72
8
 73
4
 74
0
 40
0.0
 40
0.0
 40
0.0
 40
0.0
 40
1.0
 40
1.0
 40
1.0
 40
1.0
 10
79.153110574438216
 20
21.834504613061814
 30
0.0
 10
79.702597574438215
 20
21.365450613061814
 30
0.0
 10
80.18265757443821
 20
20.981346613061813
 30
0.0
 10
80.18265757443821
 20
20.981346613061813
 30
0.0
  0
SPLINE
  5
205
  8
Layer_1
 62
1
420
16711680
370
-1
  6
ByLayer
100
AcDbEntity
100
AcDbSpline
 70
8
 71
3
 72
8
 73
4
 74
0
 40
0.0
 40
0.0
 40
0.0
 40
0.0
 40
1.0
 40
1.0
 40
1.0
 40
1.0
 10
82.450143574438215
 20
47.423793613061811
 30
0.0
 10
83.775459574438202
 20
47.423793613061811
 30
0.0
 10
84.850161574438204
 20
48.498213613061814
 30
0.0
 10
84.850161574438204
 20
49.823811613061814
 30
0.0
  0
SPLINE
  5
206
  8
Layer_1
 62
1
420
16711680
370
-1
  6
ByLayer
100
AcDbEntity
100
AcDbSpline
 70
8
 71
3
 72
8
 73
4
 74
0
 40
0.0
 40
0.0
 40
0.0
 40
0.0
 40
1.0
 40
1.0
 40
1.0
 40
1.0
 10
84.850161574438204
 20
49.823811613061814
 30
0.0
 10
84.850161574438204
 20
50.122402613061816
 30
0.0
 10
84.79315257443821
 20
50.406882613061811
 30
0.0
 10
84.693245574438208
 20
50.671042613061815
 30
0.0
  0
LWPOLYLINE
  5
207
  8
Layer_1
 62
1
420
16711680
370
-1
  6
ByLayer
100
AcDbEntity
100
AcDbPolyline
 90
3
 70
0
 10
78.48283257443822
 20
43.615576613061812
 10
78.161381574438224
 20
30.582836613061811
 10
78.155455574438207
 20
24.287297613061813
  0
SPLINE
  5
208
  8
Layer_1
 62
1
420
16711680
370
-1
  6
ByLayer
100
AcDbEntity
100
AcDbSpline
 70
8
 71
3
 72
8
 73
4
 74
0
 40
0.0
 40
0.0
 40
0.0
 40
0.0
 40
1.0
 40
1.0
 40
1.0
 40
1.0
 10
91.604303574438205
 20
55.445113613061814
 30
0.0
 10
92.484554574438221
 20
55.445113613061814
 30
0.0
 10
93.204221574438208
 20
55.997422613061815
 30
0.0
 10
93.204221574438208
 20
56.877673613061809
 30
0.0
  0
SPLINE
  5
209
  8
Layer_1
 62
1
420
16711680
370
-1
  6
ByLayer
100
AcDbEntity
100
AcDbSpline
 70
8
 71
3
 72
8
 73
4
 74
0
 40
0.0
 40
0.0
 40
0.0
 40
0.0
 40
1.0
 40
1.0
 40
1.0
 40
1.0
 10
93.204221574438208
 20
56.877673613061809
 30
0.0
 10
93.204221574438208
 20
56.877673613061809
 30
0.0
 10
92.530556574438208
 20
57.826786613061813
 30
0.0
 10
91.698848574438216
 20
57.826786613061813
 30
0.0
  0
SPLINE
  5
20A
  8
Layer_1
 62
1
420
16711680
370
-1
  6
ByLayer
100
AcDbEntity
100
AcDbSpline
 70
8
 71
3
 72
8
 73
4
 74
0
 40
0.0
 40
0.0
 40
0.0
 40
0.0
 40
1.0
 40
1.0
 40
1.0
 40
1.0
 10
91.698848574438216
 20
57.826786613061813
 30
0.0
 10
91.380783574438198
 20
57.826786613061813
 30
0.0
 10
91.117470574438215
 20
57.63769761306181
 30
0.0
 10
91.061590574438213
 20
57.33572061306181
 30
0.0
  0
LWPOLYLINE
  5
20B
  8
Layer_1
 62
1
420
16711680
370
-1
  6
ByLayer
100
AcDbEntity
100
AcDbPolyline
 90
3
 70
0
 10
84.693245574438208
 20
50.671042613061815
 10
84.693245574438208
 20
55.445113613061814
 10
91.604303574438205
 20
55.445113613061814
  0
SPLINE
  5
20C
  8
Layer_1
 62
1
420
16711680
370
-1
  6
ByLayer
100
AcDbEntity
100
AcDbSpline
 70
8
 71
3
 72
8
 73
4
 74
0
 40
0.0
 40
0.0
 40
0.0
 40
0.0
 40
1.0
 40
1.0
 40
1.0
 40
1.0
 10
86.450925574438202
 20
57.33572061306181
 30
0.0
 10
86.229663574438206
 20
57.33572061306181
 30
0.0
 10
86.050734574438223
 20
57.514931613061812
 30
0.0
 10
86.050734574438223
 20
57.735911613061809
 30
0.0
  0
LWPOLYLINE
  5
20D
  8
Layer_1
 62
1
420
16711680
370
-1
  6
ByLayer
100
AcDbEntity
100
AcDbPolyline
 90
2
 70
0
 10
91.061590574438213
 20
57.33572061306181
 10
86.450925574438202
 20
57.33572061306181
  0
SPLINE
  5
20E
  8
Layer_1
 62
1
420
16711680
370
-1
  6
ByLayer
100
AcDbEntity
100
AcDbSpline
 70
8
 71
3
 72
8
 73
4
 74
0
 40
0.0
 40
0.0
 40
0.0
 40
0.0
 40
1.0
 40
1.0
 40
1.0
 40
1.0
 10
86.050734574438223
 20
58.336197613061813
 30
0.0
 10
86.050734574438223
 20
58.55717761306181
 30
0.0
 10
86.229663574438206
 20
58.736388613061813
 30
0.0
 10
86.450925574438202
 20
58.736388613061813
 30
0.0
  0
LWPOLYLINE
  5
20F
  8
Layer_1
 62
1
420
16711680
370
-1
  6
ByLayer
100
AcDbEntity
100
AcDbPolyline
 90
2
 70
0
 10
86.050734574438223
 20
57.735911613061809
 10
86.050734574438223
 20
58.336197613061813
  0
SPLINE
  5
210
  8
Layer_1
 62
1
420
16711680
370
-1
  6
ByLayer
100
AcDbEntity
100
AcDbSpline
 70
8
 71
3
 72
8
 73
4
 74
0
 40
0.0
 40
0.0
 40
0.0
 40
0.0
 40
1.0
 40
1.0
 40
1.0
 40
1.0
 10
91.061872574438212
 20
58.736388613061813
 30
0.0
 10
91.118034574438212
 20
58.435540613061811
 30
0.0
 10
91.381348574438221
 20
58.28652661306181
 30
0.0
 10
91.698848574438216
 20
58.28652661306181
 30
0.0
  0
LWPOLYLINE
  5
211
  8
Layer_1
 62
1
420
16711680
370
-1
  6
ByLayer
100
AcDbEntity
100
AcDbPolyline
 90
2
 70
0
 10
86.450925574438202
 20
58.736388613061813
 10
91.061872574438212
 20
58.736388613061813
  0
SPLINE
  5
212
  8
Layer_1
 62
1
420
16711680
370
-1
  6
ByLayer
100
AcDbEntity
100
AcDbSpline
 70
8
 71
3
 72
8
 73
4
 74
0
 40
0.0
 40
0.0
 40
0.0
 40
0.0
 40
1.0
 40
1.0
 40
1.0
 40
1.0
 10
91.698848574438216
 20
58.291606613061809
 30
0.0
 10
92.52463057443822
 20
58.291606613061809
 30
0.0
 10
93.194061574438223
 20
59.266684613061813
 30
0.0
 10
93.203374574438214
 20
59.280513613061814
 30
0.0
  0
SPLINE
  5
213
  8
Layer_1
 62
1
420
16711680
370
-1
  6
ByLayer
100
AcDbEntity
100
AcDbSpline
 70
8
 71
3
 72
8
 73
4
 74
0
 40
0.0
 40
0.0
 40
0.0
 40
0.0
 40
1.0
 40
1.0
 40
1.0
 40
1.0
 10
93.203374574438214
 20
59.280513613061814
 30
0.0
 10
93.194061574438223
 20
59.293777613061813
 30
0.0
 10
92.52463057443822
 20
60.268291613061812
 30
0.0
 10
91.698848574438216
 20
60.268291613061812
 30
0.0
  0
SPLINE
  5
214
  8
Layer_1
 62
1
420
16711680
370
-1
  6
ByLayer
100
AcDbEntity
100
AcDbSpline
 70
8
 71
3
 72
8
 73
4
 74
0
 40
0.0
 40
0.0
 40
0.0
 40
0.0
 40
1.0
 40
1.0
 40
1.0
 40
1.0
 10
91.698848574438216
 20
60.268291613061812
 30
0.0
 10
91.380783574438198
 20
60.268291613061812
 30
0.0
 10
91.117470574438215
 20
60.119277613061811
 30
0.0
 10
91.061590574438213
 20
59.817300613061811
 30
0.0
  0
LWPOLYLINE
  5
215
  8
Layer_1
 62
1
420
16711680
370
-1
  6
ByLayer
100
AcDbEntity
100
AcDbPolyline
 90
2
 70
0
 10
91.698848574438216
 20
58.28652661306181
 10
91.698848574438216
 20
58.291606613061809
  0
SPLINE
  5
216
  8
Layer_1
 62
1
420
16711680
370
-1
  6
ByLayer
100
AcDbEntity
100
AcDbSpline
 70
8
 71
3
 72
8
 73
4
 74
0
 40
0.0
 40
0.0
 40
0.0
 40
0.0
 40
1.0
 40
1.0
 40
1.0
 40
1.0
 10
86.450925574438202
 20
59.817300613061811
 30
0.0
 10
86.229663574438206
 20
59.817300613061811
 30
0.0
 10
86.050734574438223
 20
59.996511613061813
 30
0.0
 10
86.050734574438223
 20
60.21749161306181
 30
0.0
  0
LWPOLYLINE
  5
217
  8
Layer_1
 62
1
420
16711680
370
-1
  6
ByLayer
100
AcDbEntity
100
AcDbPolyline
 90
2
 70
0
 10
91.061590574438213
 20
59.817300613061811
 10
86.450925574438202
 20
59.817300613061811
  0
SPLINE
  5
218
  8
Layer_1
 62
1
420
16711680
370
-1
  6
ByLayer
100
AcDbEntity
100
AcDbSpline
 70
8
 71
3
 72
8
 73
4
 74
0
 40
0.0
 40
0.0
 40
0.0
 40
0.0
 40
1.0
 40
1.0
 40
1.0
 40
1.0
 10
86.050734574438223
 20
60.857571613061815
 30
0.0
 10
86.050734574438223
 20
61.078551613061812
 30
0.0
 10
86.229663574438206
 20
61.257762613061814
 30
0.0
 10
86.450925574438202
 20
61.257762613061814
 30
0.0
  0
LWPOLYLINE
  5
219
  8
Layer_1
 62
1
420
16711680
370
-1
  6
ByLayer
100
AcDbEntity
100
AcDbPolyline
 90
2
 70
0
 10
86.050734574438223
 20
60.21749161306181
 10
86.050734574438223
 20
60.857571613061815
  0
SPLINE
  5
21A
  8
Layer_1
 62
1
420
16711680
370
-1
  6
ByLayer
100
AcDbEntity
100
AcDbSpline
 70
8
 71
3
 72
8
 73
4
 74
0
 40
0.0
 40
0.0
 40
0.0
 40
0.0
 40
1.0
 40
1.0
 40
1.0
 40
1.0
 10
91.061872574438212
 20
61.257762613061814
 30
0.0
 10
91.118034574438212
 20
60.956913613061815
 30
0.0
 10
91.381348574438221
 20
60.768388613061809
 30
0.0
 10
91.698848574438216
 20
60.768388613061809
 30
0.0
  0
LWPOLYLINE
  5
21B
  8
Layer_1
 62
1
420
16711680
370
-1
  6
ByLayer
100
AcDbEntity
100
AcDbPolyline
 90
2
 70
0
 10
86.450925574438202
 20
61.257762613061814
 10
91.061872574438212
 20
61.257762613061814
  0
SPLINE
  5
21C
  8
Layer_1
 62
1
420
16711680
370
-1
  6
ByLayer
100
AcDbEntity
100
AcDbSpline
 70
8
 71
3
 72
8
 73
4
 74
0
 40
0.0
 40
0.0
 40
0.0
 40
0.0
 40
1.0
 40
1.0
 40
1.0
 40
1.0
 10
91.698848574438216
 20
60.773468613061816
 30
0.0
 10
92.530556574438208
 20
60.773468613061816
 30
0.0
 10
93.204221574438208
 20
61.723146613061814
 30
0.0
 10
93.204221574438208
 20
61.723146613061814
 30
0.0
  0
LWPOLYLINE
  5
21D
  8
Layer_1
 62
1
420
16711680
370
-1
  6
ByLayer
100
AcDbEntity
100
AcDbPolyline
 90
2
 70
0
 10
91.698848574438216
 20
60.768388613061809
 10
91.698848574438216
 20
60.773468613061816
  0
SPLINE
  5
21E
  8
Layer_1
 62
1
420
16711680
370
-1
  6
ByLayer
100
AcDbEntity
100
AcDbSpline
 70
8
 71
3
 72
8
 73
4
 74
0
 40
0.0
 40
0.0
 40
0.0
 40
0.0
 40
1.0
 40
1.0
 40
1.0
 40
1.0
 10
93.204221574438208
 20
62.861913613061816
 30
0.0
 10
92.645985574438214
 20
63.28806861306181
 30
0.0
 10
92.255672574438222
 20
63.918835613061816
 30
0.0
 10
92.139114574438224
 20
64.641888613061809
 30
0.0
  0
SPLINE
  5
21F
  8
Layer_1
 62
1
420
16711680
370
-1
  6
ByLayer
100
AcDbEntity
100
AcDbSpline
 70
8
 71
3
 72
8
 73
4
 74
0
 40
0.0
 40
0.0
 40
0.0
 40
0.0
 40
1.0
 40
1.0
 40
1.0
 40
1.0
 10
92.139114574438224
 20
64.641888613061809
 30
0.0
 10
92.139114574438224
 20
64.702002613061808
 30
0.0
 10
92.134881574438197
 20
64.76042261306182
 30
0.0
 10
92.130648574438197
 20
64.818277613061809
 30
0.0
  0
SPLINE
  5
220
  8
Layer_1
 62
1
420
16711680
370
-1
  6
ByLayer
100
AcDbEntity
100
AcDbSpline
 70
8
 71
3
 72
8
 73
4
 74
0
 40
0.0
 40
0.0
 40
0.0
 40
0.0
 40
1.0
 40
1.0
 40
1.0
 40
1.0
 10
92.130648574438197
 20
64.818277613061809
 30
0.0
 10
92.124156574438217
 20
64.914233613061811
 30
0.0
 10
92.114561574438198
 20
65.010188613061814
 30
0.0
 10
92.100450574438213
 20
65.103322613061806
 30
0.0
  0
SPLINE
  5
221
  8
Layer_1
 62
1
420
16711680
370
-1
  6
ByLayer
100
AcDbEntity
100
AcDbSpline
 70
8
 71
3
 72
8
 73
4
 74
0
 40
0.0
 40
0.0
 40
0.0
 40
0.0
 40
1.0
 40
1.0
 40
1.0
 40
1.0
 10
92.100450574438213
 20
65.103322613061806
 30
0.0
 10
91.887372574438217
 20
66.522617613061811
 30
0.0
 10
90.748888574438212
 20
67.635984613061822
 30
0.0
 10
89.317174574438212
 20
67.808140613061823
 30
0.0
  0
LWPOLYLINE
  5
222
  8
Layer_1
 62
1
420
16711680
370
-1
  6
ByLayer
100
AcDbEntity
100
AcDbPolyline
 90
2
 70
0
 10
93.204221574438208
 20
61.723146613061814
 10
93.204221574438208
 20
62.861913613061816
  0
SPLINE
  5
223
  8
Layer_1
 62
1
420
16711680
370
-1
  6
ByLayer
100
AcDbEntity
100
AcDbSpline
 70
8
 71
3
 72
8
 73
4
 74
0
 40
0.0
 40
0.0
 40
0.0
 40
0.0
 40
1.0
 40
1.0
 40
1.0
 40
1.0
 10
83.167552574438218
 20
67.808140613061823
 30
0.0
 10
81.696045574438216
 20
67.6311866130618
 30
0.0
 10
80.53216157443822
 20
66.4599646130618
 30
0.0
 10
80.366779574438212
 20
64.985353613061818
 30
0.0
  0
LWPOLYLINE
  5
224
  8
Layer_1
 62
1
420
16711680
370
-1
  6
ByLayer
100
AcDbEntity
100
AcDbPolyline
 90
2
 70
0
 10
89.317174574438212
 20
67.808140613061823
 10
83.167552574438218
 20
67.808140613061823
  0
SPLINE
  5
225
  8
Layer_1
 62
1
420
16711680
370
-1
  6
ByLayer
100
AcDbEntity
100
AcDbSpline
 70
8
 71
3
 72
8
 73
4
 74
0
 40
0.0
 40
0.0
 40
0.0
 40
0.0
 40
1.0
 40
1.0
 40
1.0
 40
1.0
 10
80.35577257443822
 20
64.862868613061806
 30
0.0
 10
80.352385574438216
 20
64.819406613061801
 30
0.0
 10
80.35125657443821
 20
64.775662613061826
 30
0.0
 10
80.349845574438206
 20
64.731917613061825
 30
0.0
  0
SPLINE
  5
226
  8
Layer_1
 62
1
420
16711680
370
-1
  6
ByLayer
100
AcDbEntity
100
AcDbSpline
 70
8
 71
3
 72
8
 73
4
 74
0
 40
0.0
 40
0.0
 40
0.0
 40
0.0
 40
1.0
 40
1.0
 40
1.0
 40
1.0
 10
80.349845574438206
 20
64.731917613061825
 30
0.0
 10
80.251632574438219
 20
63.96173361306181
 30
0.0
 10
79.840434574438206
 20
63.29089161306181
 30
0.0
 10
79.247768574438211
 20
62.84667361306181
 30
0.0
  0
LWPOLYLINE
  5
227
  8
Layer_1
 62
1
420
16711680
370
-1
  6
ByLayer
100
AcDbEntity
100
AcDbPolyline
 90
2
 70
0
 10
80.366779574438212
 20
64.985353613061818
 10
80.35577257443822
 20
64.862868613061806
  0
SPLINE
  5
228
  8
Layer_1
 62
1
420
16711680
370
-1
  6
ByLayer
100
AcDbEntity
100
AcDbSpline
 70
8
 71
3
 72
8
 73
4
 74
0
 40
0.0
 40
0.0
 40
0.0
 40
0.0
 40
1.0
 40
1.0
 40
1.0
 40
1.0
 10
79.247768574438211
 20
50.61657361306181
 30
0.0
 10
79.594619574438212
 20
50.351848613061811
 30
0.0
 10
79.869785574438211
 20
50.003586613061813
 30
0.0
 10
80.061414574438203
 20
49.60678261306181
 30
0.0
  0
SPLINE
  5
229
  8
Layer_1
 62
1
420
16711680
370
-1
  6
ByLayer
100
AcDbEntity
100
AcDbSpline
 70
8
 71
3
 72
8
 73
4
 74
0
 40
0.0
 40
0.0
 40
0.0
 40
0.0
 40
1.0
 40
1.0
 40
1.0
 40
1.0
 10
80.061414574438203
 20
49.60678261306181
 30
0.0
 10
80.170634574438211
 20
48.383066613061814
 30
0.0
 10
81.197641574438222
 20
47.423793613061811
 30
0.0
 10
82.450143574438215
 20
47.423793613061811
 30
0.0
  0
LWPOLYLINE
  5
22A
  8
Layer_1
 62
1
420
16711680
370
-1
  6
ByLayer
100
AcDbEntity
100
AcDbPolyline
 90
2
 70
0
 10
79.247768574438211
 20
62.84667361306181
 10
79.247768574438211
 20
50.61657361306181
  0
LWPOLYLINE
  5
22B
  8
Layer_1
 62
1
420
16711680
370
-1
  6
ByLayer
100
AcDbEntity
100
AcDbPolyline
 90
2
 70
0
 10
82.450143574438215
 20
47.423793613061811
 10
82.450143574438215
 20
47.423793613061811
  0
SPLINE
  5
22C
  8
Layer_1
 62
1
420
16711680
370
-1
  6
ByLayer
100
AcDbEntity
100
AcDbSpline
 70
8
 71
3
 72
8
 73
4
 74
0
 40
0.0
 40
0.0
 40
0.0
 40
0.0
 40
1.0
 40
1.0
 40
1.0
 40
1.0
 10
82.960965574438205
 20
63.423817613061814
 30
0.0
 10
82.298308574438209
 20
63.423817613061814
 30
0.0
 10
81.761239574438207
 20
63.960604613061811
 30
0.0
 10
81.761239574438207
 20
64.623262613061826
 30
0.0
  0
SPLINE
  5
22D
  8
Layer_1
 62
1
420
16711680
370
-1
  6
ByLayer
100
AcDbEntity
100
AcDbSpline
 70
8
 71
3
 72
8
 73
4
 74
0
 40
0.0
 40
0.0
 40
0.0
 40
0.0
 40
1.0
 40
1.0
 40
1.0
 40
1.0
 10
81.761239574438207
 20
64.623262613061826
 30
0.0
 10
81.761239574438207
 20
65.286484613061816
 30
0.0
 10
82.298308574438209
 20
65.823553613061819
 30
0.0
 10
82.960965574438205
 20
65.823553613061819
 30
0.0
  0
LWPOLYLINE
  5
22E
  8
Layer_1
 62
1
420
16711680
370
-1
  6
ByLayer
100
AcDbEntity
100
AcDbPolyline
 90
5
 70
0
 10
93.204221574438208
 20
59.280795613061812
 10
93.204221574438208
 20
59.280795613061812
 10
93.204221574438208
 20
59.27797361306181
 10
93.204221574438208
 20
59.280795613061812
 10
93.204221574438208
 20
59.280795613061812
  0
SPLINE
  5
22F
  8
Layer_1
 62
1
420
16711680
370
-1
  6
ByLayer
100
AcDbEntity
100
AcDbSpline
 70
8
 71
3
 72
8
 73
4
 74
0
 40
0.0
 40
0.0
 40
0.0
 40
0.0
 40
1.0
 40
1.0
 40
1.0
 40
1.0
 10
85.826085574438224
 20
65.823553613061819
 30
0.0
 10
86.489025574438216
 20
65.823553613061819
 30
0.0
 10
87.026094574438218
 20
65.286484613061816
 30
0.0
 10
87.026094574438218
 20
64.623262613061826
 30
0.0
  0
SPLINE
  5
230
  8
Layer_1
 62
1
420
16711680
370
-1
  6
ByLayer
100
AcDbEntity
100
AcDbSpline
 70
8
 71
3
 72
8
 73
4
 74
0
 40
0.0
 40
0.0
 40
0.0
 40
0.0
 40
1.0
 40
1.0
 40
1.0
 40
1.0
 10
87.026094574438218
 20
64.623262613061826
 30
0.0
 10
87.026094574438218
 20
63.960604613061811
 30
0.0
 10
86.489025574438216
 20
63.423817613061814
 30
0.0
 10
85.826085574438224
 20
63.423817613061814
 30
0.0
  0
LWPOLYLINE
  5
231
  8
Layer_1
 62
1
420
16711680
370
-1
  6
ByLayer
100
AcDbEntity
100
AcDbPolyline
 90
2
 70
0
 10
82.960965574438205
 20
65.823553613061819
 10
85.826085574438224
 20
65.823553613061819
  0
SPLINE
  5
232
  8
Layer_1
 62
1
420
16711680
370
-1
  6
ByLayer
100
AcDbEntity
100
AcDbSpline
 70
8
 71
3
 72
8
 73
4
 74
0
 40
0.0
 40
0.0
 40
0.0
 40
0.0
 40
1.0
 40
1.0
 40
1.0
 40
1.0
 10
82.450143574438215
 20
48.623802613061812
 30
0.0
 10
83.113083574438207
 20
48.623802613061812
 30
0.0
 10
83.650152574438209
 20
49.160871613061815
 30
0.0
 10
83.650152574438209
 20
49.823811613061814
 30
0.0
  0
SPLINE
  5
233
  8
Layer_1
 62
1
420
16711680
370
-1
  6
ByLayer
100
AcDbEntity
100
AcDbSpline
 70
8
 71
3
 72
8
 73
4
 74
0
 40
0.0
 40
0.0
 40
0.0
 40
0.0
 40
1.0
 40
1.0
 40
1.0
 40
1.0
 10
83.650152574438209
 20
49.823811613061814
 30
0.0
 10
83.650152574438209
 20
50.486186613061811
 30
0.0
 10
83.113083574438207
 20
51.023820613061815
 30
0.0
 10
82.450143574438215
 20
51.023820613061815
 30
0.0
  0
SPLINE
  5
234
  8
Layer_1
 62
1
420
16711680
370
-1
  6
ByLayer
100
AcDbEntity
100
AcDbSpline
 70
8
 71
3
 72
8
 73
4
 74
0
 40
0.0
 40
0.0
 40
0.0
 40
0.0
 40
1.0
 40
1.0
 40
1.0
 40
1.0
 10
82.450143574438215
 20
51.023820613061815
 30
0.0
 10
81.787485574438222
 20
51.023820613061815
 30
0.0
 10
81.249852574438222
 20
50.486186613061811
 30
0.0
 10
81.249852574438222
 20
49.823811613061814
 30
0.0
  0
SPLINE
  5
235
  8
Layer_1
 62
1
420
16711680
370
-1
  6
ByLayer
100
AcDbEntity
100
AcDbSpline
 70
8
 71
3
 72
8
 73
4
 74
0
 40
0.0
 40
0.0
 40
0.0
 40
0.0
 40
1.0
 40
1.0
 40
1.0
 40
1.0
 10
81.249852574438222
 20
49.823811613061814
 30
0.0
 10
81.249852574438222
 20
49.160871613061815
 30
0.0
 10
81.787768574438218
 20
48.623802613061812
 30
0.0
 10
82.450143574438215
 20
48.623802613061812
 30
0.0
  0
LWPOLYLINE
  5
236
  8
Layer_1
 62
1
420
16711680
370
-1
  6
ByLayer
100
AcDbEntity
100
AcDbPolyline
 90
3
 70
0
 10
85.826085574438224
 20
63.423817613061814
 10
82.960965574438205
 20
63.423817613061814
 10
82.960965574438205
 20
63.423817613061814
  0
SPLINE
  5
237
  8
Layer_1
 62
1
420
16711680
370
-1
  6
ByLayer
100
AcDbEntity
100
AcDbSpline
 70
8
 71
3
 72
8
 73
4
 74
0
 40
0.0
 40
0.0
 40
0.0
 40
0.0
 40
1.0
 40
1.0
 40
1.0
 40
1.0
 10
90.05010557443822
 20
63.423817613061814
 30
0.0
 10
90.712763574438213
 20
63.423817613061814
 30
0.0
 10
91.250114574438214
 20
63.960604613061811
 30
0.0
 10
91.250114574438214
 20
64.623262613061826
 30
0.0
  0
SPLINE
  5
238
  8
Layer_1
 62
1
420
16711680
370
-1
  6
ByLayer
100
AcDbEntity
100
AcDbSpline
 70
8
 71
3
 72
8
 73
4
 74
0
 40
0.0
 40
0.0
 40
0.0
 40
0.0
 40
1.0
 40
1.0
 40
1.0
 40
1.0
 10
91.250114574438214
 20
64.623262613061826
 30
0.0
 10
91.250114574438214
 20
65.286484613061816
 30
0.0
 10
90.712763574438213
 20
65.823553613061819
 30
0.0
 10
90.05010557443822
 20
65.823553613061819
 30
0.0
  0
SPLINE
  5
239
  8
Layer_1
 62
1
420
16711680
370
-1
  6
ByLayer
100
AcDbEntity
100
AcDbSpline
 70
8
 71
3
 72
8
 73
4
 74
0
 40
0.0
 40
0.0
 40
0.0
 40
0.0
 40
1.0
 40
1.0
 40
1.0
 40
1.0
 10
90.05010557443822
 20
65.823553613061819
 30
0.0
 10
89.387448574438224
 20
65.823553613061819
 30
0.0
 10
88.850096574438197
 20
65.286484613061816
 30
0.0
 10
88.850096574438197
 20
64.623262613061826
 30
0.0
  0
SPLINE
  5
23A
  8
Layer_1
 62
1
420
16711680
370
-1
  6
ByLayer
100
AcDbEntity
100
AcDbSpline
 70
8
 71
3
 72
8
 73
4
 74
0
 40
0.0
 40
0.0
 40
0.0
 40
0.0
 40
1.0
 40
1.0
 40
1.0
 40
1.0
 10
88.850096574438197
 20
64.623262613061826
 30
0.0
 10
88.850096574438197
 20
63.960604613061811
 30
0.0
 10
89.387448574438224
 20
63.423817613061814
 30
0.0
 10
90.05010557443822
 20
63.423817613061814
 30
0.0
  0
LWPOLYLINE
  5
23B
  8
Layer_1
 62
1
420
16711680
370
-1
  6
ByLayer
100
AcDbEntity
100
AcDbPolyline
 90
2
 70
0
 10
82.450143574438215
 20
48.623802613061812
 10
82.450143574438215
 20
48.623802613061812
  0
LWPOLYLINE
  5
23C
  8
Layer_1
 62
1
420
16711680
370
-1
  6
ByLayer
100
AcDbEntity
100
AcDbPolyline
 90
2
 70
0
 10
90.05010557443822
 20
63.423817613061814
 10
90.05010557443822
 20
63.423817613061814
  0
LINE
  5
23D
100
AcDbEntity
100
AcDbLine
  8
Laser cut size
 62
256
370
-1
  6
ByLayer
 10
0.0
 20
0.0
 30
0.0
 11
104.09433887267382
 21
0.0
 31
0.0
  0
LINE
  5
23E
100
AcDbEntity
100
AcDbLine
  8
Laser cut size
 62
256
370
-1
  6
ByLayer
 10
104.09433887267382
 20
0.0
 30
0.0
 11
104.09433887267382
 21
69.396225915115878
 31
0.0
  0
LINE
  5
23F
100
AcDbEntity
100
AcDbLine
  8
Laser cut size
 62
256
370
-1
  6
ByLayer
 10
104.09433887267382
 20
69.396225915115878
 30
0.0
 11
0.0
 21
69.396225915115878
 31
0.0
  0
LINE
  5
240
100
AcDbEntity
100
AcDbLine
  8
Laser cut size
 62
256
370
-1
  6
ByLayer
 10
0.0
 20
69.396225915115878
 30
0.0
 11
0.0
 21
0.0
 31
0.0
  0
ENDSEC
  0
SECTION
  2
OBJECTS
  0
DICTIONARY
  5
C
100
AcDbDictionary
280
0
281
1
  3
ACAD_GROUP
350
D
  3
ACAD_LAYOUT
350
1A
  3
ACAD_MLINESTYLE
350
17
  3
ACAD_PLOTSETTINGS
350
19
  3
ACAD_PLOTSTYLENAME
350
E
  3
AcDbVariableDictionary
350
241
  0
DICTIONARY
  5
D
100
AcDbDictionary
280
0
281
1
  0
ACDBDICTIONARYWDFLT
  5
E
100
AcDbDictionary
281
1
  3
Normal
350
F
100
AcDbDictionaryWithDefault
340
F
  0
ACDBPLACEHOLDER
  5
F
  0
DICTIONARY
  5
17
100
AcDbDictionary
280
0
281
1
  3
Standard
350
18
  0
MLINESTYLE
  5
18
100
AcDbMlineStyle
  2
STANDARD
 70
0
  3

 62
256
 51
90.0
 52
90.0
 71
2
 49
0.5
 62
256
  6
BYLAYER
 49
-0.5
 62
256
  6
BYLAYER
  0
DICTIONARY
  5
19
100
AcDbDictionary
280
0
281
1
  0
DICTIONARY
  5
1A
100
AcDbDictionary
281
1
  3
Layout1
350
1E
  3
Layout2
350
26
  3
Model
350
22
  0
LAYOUT
  5
1E
100
AcDbPlotSettings
  1

  2
C:\Program Files\AutoCAD 2002\plotters\DWF ePlot (optimized for plotting).pc3
  4

  6

 40
0.0
 41
0.0
 42
0.0
 43
0.0
 44
0.0
 45
0.0
 46
0.0
 47
0.0
 48
0.0
 49
0.0
140
0.0
141
0.0
142
1.0
143
1.0
 70
688
 72
0
 73
0
 74
5
  7

 75
16
147
1.0
148
0.0
149
0.0
100
AcDbLayout
  1
Layout1
 70
1
 71
1
 10
0.0
 20
0.0
 11
420.0
 21
297.0
 12
0.0
 22
0.0
 32
0.0
 14
100000000000000000000.0
 24
100000000000000000000.0
 34
100000000000000000000.0
 15
-100000000000000000000.0
 25
-100000000000000000000.0
 35
-100000000000000000000.0
146
0.0
 13
0.0
 23
0.0
 33
0.0
 16
1.0
 26
0.0
 36
0.0
 17
0.0
 27
1.0
 37
0.0
 76
0
330
1B
  0
LAYOUT
  5
22
100
AcDbPlotSettings
  1

  2
C:\Program Files\AutoCAD 2002\plotters\DWF ePlot (optimized for plotting).pc3
  4

  6

 40
0.0
 41
0.0
 42
0.0
 43
0.0
 44
0.0
 45
0.0
 46
0.0
 47
0.0
 48
0.0
 49
0.0
140
0.0
141
0.0
142
1.0
143
1.0
 70
1712
 72
0
 73
0
 74
0
  7

 75
0
147
1.0
148
0.0
149
0.0
100
AcDbLayout
  1
Model
 70
1
 71
0
 10
0.0
 20
0.0
 11
12.0
 21
9.0
 12
0.0
 22
0.0
 32
0.0
 14
0.0
 24
0.0
 34
0.0
 15
0.0
 25
0.0
 35
0.0
146
0.0
 13
0.0
 23
0.0
 33
0.0
 16
1.0
 26
0.0
 36
0.0
 17
0.0
 27
1.0
 37
0.0
 76
0
330
1F
  0
LAYOUT
  5
26
100
AcDbPlotSettings
  1

  2
C:\Program Files\AutoCAD 2002\plotters\DWF ePlot (optimized for plotting).pc3
  4

  6

 40
0.0
 41
0.0
 42
0.0
 43
0.0
 44
0.0
 45
0.0
 46
0.0
 47
0.0
 48
0.0
 49
0.0
140
0.0
141
0.0
142
1.0
143
1.0
 70
688
 72
0
 73
0
 74
5
  7

 75
16
147
1.0
148
0.0
149
0.0
100
AcDbLayout
  1
Layout2
 70
1
 71
2
 10
0.0
 20
0.0
 11
12.0
 21
9.0
 12
0.0
 22
0.0
 32
0.0
 14
0.0
 24
0.0
 34
0.0
 15
0.0
 25
0.0
 35
0.0
146
0.0
 13
0.0
 23
0.0
 33
0.0
 16
1.0
 26
0.0
 36
0.0
 17
0.0
 27
1.0
 37
0.0
 76
0
330
23
  0
DICTIONARY
  5
241
100
AcDbDictionary
281
1
  3
DIMASSOC
350
243
  3
HIDETEXT
350
242
  0
DICTIONARYVAR
  5
242
100
DictionaryVariables
280
0
  1
2
  0
DICTIONARYVAR
  5
243
100
DictionaryVariables
280
0
  1
1
  0
ENDSEC
  0
EOF
