999
dxflib 2.2.0.0
  0
SECTION
  2
HEADER
  9
$ACADVER
  1
AC1015
  9
$HANDSEED
  5
FFFF
  9
$DIMASZ
 40
2.5
  9
$PLIMMIN
 10
0.0
 20
0.0
  9
$DIMEXE
 40
1.25
  9
$DIMGAP
 40
0.625
  9
$PLIMMAX
 10
210.0
 20
297.0
  9
$INSUNITS
 70
4
  9
$DIMSTYLE
  2
Standard
  9
$MEASUREMENT
 70
1
  9
$DIMEXO
 40
0.625
  9
$DIMTXT
 40
2.5
  9
$CLAYER
  8
0
  0
ENDSEC
  0
SECTION
  2
TABLES
  0
TABLE
  2
VPORT
  5
8
100
AcDbSymbolTable
 70
1
  0
VPORT
  5
30
100
AcDbSymbolTableRecord
100
AcDbViewportTableRecord
  2
*Active
 70
0
 10
0.0
 20
0.0
 11
1.0
 21
1.0
 12
286.30555555555549
 22
148.5
 13
0.0
 23
0.0
 14
10.0
 24
10.0
 15
10.0
 25
10.0
 16
0.0
 26
0.0
 36
1.0
 17
0.0
 27
0.0
 37
0.0
 40
297.0
 41
1.92798353909465
 42
50.0
 43
0.0
 44
0.0
 50
0.0
 51
0.0
 71
0
 72
100
 73
1
 74
3
 75
1
 76
1
 77
0
 78
0
281
0
 65
1
110
0.0
120
0.0
130
0.0
111
1.0
121
0.0
131
0.0
112
0.0
122
1.0
132
0.0
 79
0
146
0.0
  0
ENDTAB
  0
TABLE
  2
LTYPE
  5
5
100
AcDbSymbolTable
 70
21
  0
LTYPE
  5
14
100
AcDbSymbolTableRecord
100
AcDbLinetypeTableRecord
  2
ByBlock
 70
0
  3

 72
65
 73
0
 40
0.0
  0
LTYPE
  5
15
100
AcDbSymbolTableRecord
100
AcDbLinetypeTableRecord
  2
ByLayer
 70
0
  3

 72
65
 73
0
 40
0.0
  0
LTYPE
  5
16
100
AcDbSymbolTableRecord
100
AcDbLinetypeTableRecord
  2
CONTINUOUS
 70
0
  3
Solid line
 72
65
 73
0
 40
0.0
  0
LTYPE
  5
31
100
AcDbSymbolTableRecord
100
AcDbLinetypeTableRecord
  2
DOT
 70
0
  3
Dot . . . . . . . . . . . . . . . . . . . . . .
 72
65
 73
2
 40
6.3499999999999996
 49
0.0
 74
0
 49
-6.3499999999999996
 74
0
  0
LTYPE
  5
32
100
AcDbSymbolTableRecord
100
AcDbLinetypeTableRecord
  2
DOT2
 70
0
  3
Dot (.5x) .....................................
 72
65
 73
2
 40
3.1749999999999998
 49
0.0
 74
0
 49
-3.1749999999999998
 74
0
  0
LTYPE
  5
33
100
AcDbSymbolTableRecord
100
AcDbLinetypeTableRecord
  2
DOTX2
 70
0
  3
Dot (2x) .  .  .  .  .  .  .  .  .  .  .  .  .
 72
65
 73
2
 40
12.699999999999999
 49
0.0
 74
0
 49
-12.699999999999999
 74
0
  0
LTYPE
  5
34
100
AcDbSymbolTableRecord
100
AcDbLinetypeTableRecord
  2
DASHED
 70
0
  3
Dashed __ __ __ __ __ __ __ __ __ __ __ __ __ _
 72
65
 73
2
 40
19.050000000000001
 49
12.699999999999999
 74
0
 49
-6.3499999999999996
 74
0
  0
LTYPE
  5
35
100
AcDbSymbolTableRecord
100
AcDbLinetypeTableRecord
  2
DASHED2
 70
0
  3
Dashed (.5x) _ _ _ _ _ _ _ _ _ _ _ _ _ _ _ _ _
 72
65
 73
2
 40
9.5250000000000004
 49
6.3499999999999996
 74
0
 49
-3.1749999999999998
 74
0
  0
LTYPE
  5
36
100
AcDbSymbolTableRecord
100
AcDbLinetypeTableRecord
  2
DASHEDX2
 70
0
  3
Dashed (2x) ____  ____  ____  ____  ____  ___
 72
65
 73
2
 40
38.100000000000001
 49
25.399999999999999
 74
0
 49
-12.699999999999999
 74
0
  0
LTYPE
  5
37
100
AcDbSymbolTableRecord
100
AcDbLinetypeTableRecord
  2
DASHDOT
 70
0
  3
Dash dot __ . __ . __ . __ . __ . __ . __ . __
 72
65
 73
4
 40
25.399999999999999
 49
12.699999999999999
 74
0
 49
-6.3499999999999996
 74
0
 49
0.0
 74
0
 49
-6.3499999999999996
 74
0
  0
LTYPE
  5
38
100
AcDbSymbolTableRecord
100
AcDbLinetypeTableRecord
  2
DASHDOT2
 70
0
  3
Dash dot (.5x) _._._._._._._._._._._._._._._.
 72
65
 73
4
 40
12.699999999999999
 49
6.3499999999999996
 74
0
 49
-3.1749999999999998
 74
0
 49
0.0
 74
0
 49
-3.1749999999999998
 74
0
  0
LTYPE
  5
39
100
AcDbSymbolTableRecord
100
AcDbLinetypeTableRecord
  2
DASHDOTX2
 70
0
  3
Dash dot (2x) ____  .  ____  .  ____  .  ___
 72
65
 73
4
 40
50.799999999999997
 49
25.399999999999999
 74
0
 49
-12.699999999999999
 74
0
 49
0.0
 74
0
 49
-12.699999999999999
 74
0
  0
LTYPE
  5
3A
100
AcDbSymbolTableRecord
100
AcDbLinetypeTableRecord
  2
DIVIDE
 70
0
  3
Divide ____ . . ____ . . ____ . . ____ . . ____
 72
65
 73
6
 40
31.75
 49
12.699999999999999
 74
0
 49
-6.3499999999999996
 74
0
 49
0.0
 74
0
 49
-6.3499999999999996
 74
0
 49
0.0
 74
0
 49
-6.3499999999999996
 74
0
  0
LTYPE
  5
3B
100
AcDbSymbolTableRecord
100
AcDbLinetypeTableRecord
  2
DIVIDE2
 70
0
  3
Divide (.5x) __..__..__..__..__..__..__..__.._
 72
65
 73
6
 40
15.875
 49
6.3499999999999996
 74
0
 49
-3.1749999999999998
 74
0
 49
0.0
 74
0
 49
-3.1749999999999998
 74
0
 49
0.0
 74
0
 49
-3.1749999999999998
 74
0
  0
LTYPE
  5
3C
100
AcDbSymbolTableRecord
100
AcDbLinetypeTableRecord
  2
DIVIDEX2
 70
0
  3
Divide (2x) ________  .  .  ________  .  .  _
 72
65
 73
6
 40
63.5
 49
25.399999999999999
 74
0
 49
-12.699999999999999
 74
0
 49
0.0
 74
0
 49
-12.699999999999999
 74
0
 49
0.0
 74
0
 49
-12.699999999999999
 74
0
  0
LTYPE
  5
3D
100
AcDbSymbolTableRecord
100
AcDbLinetypeTableRecord
  2
CENTER
 70
0
  3
Center ____ _ ____ _ ____ _ ____ _ ____ _ ____
 72
65
 73
4
 40
50.799999999999997
 49
31.75
 74
0
 49
-6.3499999999999996
 74
0
 49
6.3499999999999996
 74
0
 49
-6.3499999999999996
 74
0
  0
LTYPE
  5
3E
100
AcDbSymbolTableRecord
100
AcDbLinetypeTableRecord
  2
CENTER2
 70
0
  3
Center (.5x) ___ _ ___ _ ___ _ ___ _ ___ _ ___
 72
65
 73
4
 40
28.574999999999999
 49
19.050000000000001
 74
0
 49
-3.1749999999999998
 74
0
 49
3.1749999999999998
 74
0
 49
-3.1749999999999998
 74
0
  0
LTYPE
  5
3F
100
AcDbSymbolTableRecord
100
AcDbLinetypeTableRecord
  2
CENTERX2
 70
0
  3
Center (2x) ________  __  ________  __  _____
 72
65
 73
4
 40
101.59999999999999
 49
63.5
 74
0
 49
-12.699999999999999
 74
0
 49
12.699999999999999
 74
0
 49
-12.699999999999999
 74
0
  0
LTYPE
  5
40
100
AcDbSymbolTableRecord
100
AcDbLinetypeTableRecord
  2
BORDER
 70
0
  3
Border __ __ . __ __ . __ __ . __ __ . __ __ .
 72
65
 73
6
 40
44.450000000000003
 49
12.699999999999999
 74
0
 49
-6.3499999999999996
 74
0
 49
12.699999999999999
 74
0
 49
-6.3499999999999996
 74
0
 49
0.0
 74
0
 49
-6.3499999999999996
 74
0
  0
LTYPE
  5
41
100
AcDbSymbolTableRecord
100
AcDbLinetypeTableRecord
  2
BORDER2
 70
0
  3
Border (.5x) __.__.__.__.__.__.__.__.__.__.__.
 72
65
 73
6
 40
22.225000000000001
 49
6.3499999999999996
 74
0
 49
-3.1749999999999998
 74
0
 49
6.3499999999999996
 74
0
 49
-3.1749999999999998
 74
0
 49
0.0
 74
0
 49
-3.1749999999999998
 74
0
  0
LTYPE
  5
42
100
AcDbSymbolTableRecord
100
AcDbLinetypeTableRecord
  2
BORDERX2
 70
0
  3
Border (2x) ____  ____  .  ____  ____  .  ___
 72
65
 73
6
 40
88.900000000000006
 49
25.399999999999999
 74
0
 49
-12.699999999999999
 74
0
 49
25.399999999999999
 74
0
 49
-12.699999999999999
 74
0
 49
0.0
 74
0
 49
-12.699999999999999
 74
0
  0
ENDTAB
  0
TABLE
  2
LAYER
  5
2
100
AcDbSymbolTable
 70
2
  0
LAYER
  5
10
100
AcDbSymbolTableRecord
100
AcDbLayerTableRecord
  2
0
 70
0
 62
7
  6
CONTINUOUS
390
F
  0
LAYER
  5
43
100
AcDbSymbolTableRecord
100
AcDbLayerTableRecord
  2
Layer_1
 70
0
 62
7
  6
CONTINUOUS
390
F
  0
ENDTAB
  0
TABLE
  2
STYLE
  5
3
100
AcDbSymbolTable
 70
1
  0
STYLE
  5
11
100
AcDbSymbolTableRecord
100
AcDbTextStyleTableRecord
  2
Standard
 70
0
 40
0.0
 41
0.75
 50
0.0
 71
0
 42
2.5
  3
txt
  4

  0
ENDTAB
  0
TABLE
  2
VIEW
  5
6
100
AcDbSymbolTable
 70
0
  0
ENDTAB
  0
TABLE
  2
UCS
  5
7
100
AcDbSymbolTable
 70
0
  0
ENDTAB
  0
TABLE
  2
APPID
  5
9
100
AcDbSymbolTable
 70
1
  0
APPID
  5
12
100
AcDbSymbolTableRecord
100
AcDbRegAppTableRecord
  2
ACAD
 70
0
  0
ENDTAB
  0
TABLE
  2
DIMSTYLE
  5
A
100
AcDbSymbolTable
 70
1
100
AcDbDimStyleTable
 71
0
  0
DIMSTYLE
105
27
100
AcDbSymbolTableRecord
100
AcDbDimStyleTableRecord
  2
Standard
 41
2.5
 42
0.625
 43
3.75
 44
1.25
 70
0
 73
0
 74
0
 77
1
 78
8
140
2.5
141
2.5
143
0.03937007874016
147
0.625
171
3
172
1
271
2
272
2
274
3
278
44
283
0
284
8
340
11
  0
ENDTAB
  0
TABLE
  2
BLOCK_RECORD
  5
1
100
AcDbSymbolTable
 70
1
  0
BLOCK_RECORD
  5
1F
100
AcDbSymbolTableRecord
100
AcDbBlockTableRecord
  2
*Model_Space
340
22
  0
BLOCK_RECORD
  5
1B
100
AcDbSymbolTableRecord
100
AcDbBlockTableRecord
  2
*Paper_Space
340
1E
  0
BLOCK_RECORD
  5
23
100
AcDbSymbolTableRecord
100
AcDbBlockTableRecord
  2
*Paper_Space0
340
26
  0
ENDTAB
  0
ENDSEC
  0
SECTION
  2
BLOCKS
  0
BLOCK
  5
20
100
AcDbEntity
  8
0
100
AcDbBlockBegin
  2
*Model_Space
 70
0
 10
0.0
 20
0.0
 30
0.0
  3
*Model_Space
  1

  0
ENDBLK
  5
21
100
AcDbEntity
  8
0
100
AcDbBlockEnd
  0
BLOCK
  5
1C
100
AcDbEntity
 67
1
  8
0
100
AcDbBlockBegin
  2
*Paper_Space
 70
0
 10
0.0
 20
0.0
 30
0.0
  3
*Paper_Space
  1

  0
ENDBLK
  5
1D
100
AcDbEntity
 67
1
  8
0
100
AcDbBlockEnd
  0
BLOCK
  5
24
100
AcDbEntity
  8
0
100
AcDbBlockBegin
  2
*Paper_Space0
 70
0
 10
0.0
 20
0.0
 30
0.0
  3
*Paper_Space0
  1

  0
ENDBLK
  5
25
100
AcDbEntity
  8
0
100
AcDbBlockEnd
  0
ENDSEC
  0
SECTION
  2
ENTITIES
  0
SPLINE
  5
44
  8
Layer_1
 62
1
420
16711680
370
-1
  6
ByLayer
100
AcDbEntity
100
AcDbSpline
 70
8
 71
3
 72
8
 73
4
 74
0
 40
0.0
 40
0.0
 40
0.0
 40
0.0
 40
1.0
 40
1.0
 40
1.0
 40
1.0
 10
24.202348000000001
 20
48.862363999999999
 30
0.0
 10
24.178640999999999
 20
48.883248000000002
 30
0.0
 10
24.152958999999999
 20
48.902157000000003
 30
0.0
 10
24.127841
 20
48.922477000000001
 30
0.0
  0
SPLINE
  5
45
  8
Layer_1
 62
1
420
16711680
370
-1
  6
ByLayer
100
AcDbEntity
100
AcDbSpline
 70
8
 71
3
 72
8
 73
4
 74
0
 40
0.0
 40
0.0
 40
0.0
 40
0.0
 40
1.0
 40
1.0
 40
1.0
 40
1.0
 10
24.127841
 20
64.220332999999997
 30
0.0
 10
24.127841
 20
65.987889999999993
 30
0.0
 10
22.695844999999998
 20
67.420450000000002
 30
0.0
 10
20.928570000000001
 20
67.420450000000002
 30
0.0
  0
LWPOLYLINE
  5
46
  8
Layer_1
 62
1
420
16711680
370
-1
  6
ByLayer
100
AcDbEntity
100
AcDbPolyline
 90
2
 70
0
 10
24.127841
 20
48.922477000000001
 10
24.127841
 20
64.220332999999997
  0
SPLINE
  5
47
  8
Layer_1
 62
1
420
16711680
370
-1
  6
ByLayer
100
AcDbEntity
100
AcDbSpline
 70
8
 71
3
 72
8
 73
4
 74
0
 40
0.0
 40
0.0
 40
0.0
 40
0.0
 40
1.0
 40
1.0
 40
1.0
 40
1.0
 10
20.581719
 20
67.420450000000002
 30
0.0
 10
18.814443000000001
 20
67.420450000000002
 30
0.0
 10
17.381882999999998
 20
65.987889999999993
 30
0.0
 10
17.381882999999998
 20
64.220332999999997
 30
0.0
  0
LWPOLYLINE
  5
48
  8
Layer_1
 62
1
420
16711680
370
-1
  6
ByLayer
100
AcDbEntity
100
AcDbPolyline
 90
2
 70
0
 10
20.928570000000001
 20
67.420450000000002
 10
20.581719
 20
67.420450000000002
  0
SPLINE
  5
49
  8
Layer_1
 62
1
420
16711680
370
-1
  6
ByLayer
100
AcDbEntity
100
AcDbSpline
 70
8
 71
3
 72
8
 73
4
 74
0
 40
0.0
 40
0.0
 40
0.0
 40
0.0
 40
1.0
 40
1.0
 40
1.0
 40
1.0
 10
17.381882999999998
 20
48.969889999999999
 30
0.0
 10
17.138324999999998
 20
48.773181999999998
 30
0.0
 10
16.906621000000001
 20
48.555588
 30
0.0
 10
16.694953999999999
 20
48.310336999999997
 30
0.0
  0
SPLINE
  5
4A
  8
Layer_1
 62
1
420
16711680
370
-1
  6
ByLayer
100
AcDbEntity
100
AcDbSpline
 70
8
 71
3
 72
8
 73
4
 74
0
 40
0.0
 40
0.0
 40
0.0
 40
0.0
 40
1.0
 40
1.0
 40
1.0
 40
1.0
 10
16.694953999999999
 20
48.310336999999997
 30
0.0
 10
16.506993999999999
 20
48.093308
 30
0.0
 10
16.347256999999999
 20
47.863297000000003
 30
0.0
 10
16.201065
 20
47.627358999999998
 30
0.0
  0
LWPOLYLINE
  5
4B
  8
Layer_1
 62
1
420
16711680
370
-1
  6
ByLayer
100
AcDbEntity
100
AcDbPolyline
 90
2
 70
0
 10
17.381882999999998
 20
64.220332999999997
 10
17.381882999999998
 20
48.969889999999999
  0
SPLINE
  5
4C
  8
Layer_1
 62
1
420
16711680
370
-1
  6
ByLayer
100
AcDbEntity
100
AcDbSpline
 70
8
 71
3
 72
8
 73
4
 74
0
 40
0.0
 40
0.0
 40
0.0
 40
0.0
 40
1.0
 40
1.0
 40
1.0
 40
1.0
 10
16.201065
 20
42.023555000000002
 30
0.0
 10
16.478207999999999
 20
41.576515000000001
 30
0.0
 10
16.827317000000001
 20
41.163623999999999
 30
0.0
 10
17.246134000000001
 20
40.801532999999999
 30
0.0
  0
SPLINE
  5
4D
  8
Layer_1
 62
1
420
16711680
370
-1
  6
ByLayer
100
AcDbEntity
100
AcDbSpline
 70
8
 71
3
 72
8
 73
4
 74
0
 40
0.0
 40
0.0
 40
0.0
 40
0.0
 40
1.0
 40
1.0
 40
1.0
 40
1.0
 10
17.246134000000001
 20
40.801532999999999
 30
0.0
 10
19.472303
 20
38.881010000000003
 30
0.0
 10
22.833288
 20
39.128518999999997
 30
0.0
 10
24.754657000000002
 20
41.354405999999997
 30
0.0
  0
SPLINE
  5
4E
  8
Layer_1
 62
1
420
16711680
370
-1
  6
ByLayer
100
AcDbEntity
100
AcDbSpline
 70
8
 71
3
 72
8
 73
4
 74
0
 40
0.0
 40
0.0
 40
0.0
 40
0.0
 40
1.0
 40
1.0
 40
1.0
 40
1.0
 10
24.754657000000002
 20
41.354405999999997
 30
0.0
 10
26.675460999999999
 20
43.579728000000003
 30
0.0
 10
26.428516999999999
 20
46.940995000000001
 30
0.0
 10
24.202348000000001
 20
48.862363999999999
 30
0.0
  0
LWPOLYLINE
  5
4F
  8
Layer_1
 62
1
420
16711680
370
-1
  6
ByLayer
100
AcDbEntity
100
AcDbPolyline
 90
2
 70
0
 10
16.201065
 20
47.627358999999998
 10
16.201065
 20
42.023555000000002
  0
SPLINE
  5
50
  8
Layer_1
 62
1
420
16711680
370
-1
  6
ByLayer
100
AcDbEntity
100
AcDbSpline
 70
8
 71
3
 72
8
 73
4
 74
0
 40
0.0
 40
0.0
 40
0.0
 40
0.0
 40
1.0
 40
1.0
 40
1.0
 40
1.0
 10
21.756045
 20
63.664355
 30
0.0
 10
21.545508000000002
 20
63.095112999999998
 30
0.0
 10
20.912765
 20
62.804141999999999
 30
0.0
 10
20.343240999999999
 20
63.014679000000001
 30
0.0
  0
SPLINE
  5
51
  8
Layer_1
 62
1
420
16711680
370
-1
  6
ByLayer
100
AcDbEntity
100
AcDbSpline
 70
8
 71
3
 72
8
 73
4
 74
0
 40
0.0
 40
0.0
 40
0.0
 40
0.0
 40
1.0
 40
1.0
 40
1.0
 40
1.0
 10
20.343240999999999
 20
63.014679000000001
 30
0.0
 10
19.773434000000002
 20
63.225217000000001
 30
0.0
 10
19.482462999999999
 20
63.857677000000002
 30
0.0
 10
19.692719
 20
64.427484000000007
 30
0.0
  0
SPLINE
  5
52
  8
Layer_1
 62
1
420
16711680
370
-1
  6
ByLayer
100
AcDbEntity
100
AcDbSpline
 70
8
 71
3
 72
8
 73
4
 74
0
 40
0.0
 40
0.0
 40
0.0
 40
0.0
 40
1.0
 40
1.0
 40
1.0
 40
1.0
 10
19.692719
 20
64.427484000000007
 30
0.0
 10
19.903821000000001
 20
64.997007999999994
 30
0.0
 10
20.535999
 20
65.287696999999994
 30
0.0
 10
21.105805
 20
65.077442000000005
 30
0.0
  0
SPLINE
  5
53
  8
Layer_1
 62
1
420
16711680
370
-1
  6
ByLayer
100
AcDbEntity
100
AcDbSpline
 70
8
 71
3
 72
8
 73
4
 74
0
 40
0.0
 40
0.0
 40
0.0
 40
0.0
 40
1.0
 40
1.0
 40
1.0
 40
1.0
 10
21.105805
 20
65.077442000000005
 30
0.0
 10
21.674765000000001
 20
64.866904000000005
 30
0.0
 10
21.966583
 20
64.234161999999998
 30
0.0
 10
21.756045
 20
63.664355
 30
0.0
  0
LWPOLYLINE
  5
54
  8
Layer_1
 62
1
420
16711680
370
-1
  6
ByLayer
100
AcDbEntity
100
AcDbPolyline
 90
2
 70
0
 10
24.202348000000001
 20
48.862363999999999
 10
24.202348000000001
 20
48.862363999999999
  0
SPLINE
  5
55
  8
Layer_1
 62
1
420
16711680
370
-1
  6
ByLayer
100
AcDbEntity
100
AcDbSpline
 70
8
 71
3
 72
8
 73
4
 74
0
 40
0.0
 40
0.0
 40
0.0
 40
0.0
 40
1.0
 40
1.0
 40
1.0
 40
1.0
 10
20.991505
 20
44.594316999999997
 30
0.0
 10
20.769397000000001
 20
43.994312999999998
 30
0.0
 10
20.102505000000001
 20
43.687255
 30
0.0
 10
19.501653999999998
 20
43.909081999999998
 30
0.0
  0
SPLINE
  5
56
  8
Layer_1
 62
1
420
16711680
370
-1
  6
ByLayer
100
AcDbEntity
100
AcDbSpline
 70
8
 71
3
 72
8
 73
4
 74
0
 40
0.0
 40
0.0
 40
0.0
 40
0.0
 40
1.0
 40
1.0
 40
1.0
 40
1.0
 10
19.501653999999998
 20
43.909081999999998
 30
0.0
 10
18.900803
 20
44.131189999999997
 30
0.0
 10
18.593744999999998
 20
44.798645999999998
 30
0.0
 10
18.815854000000002
 20
45.399496999999997
 30
0.0
  0
SPLINE
  5
57
  8
Layer_1
 62
1
420
16711680
370
-1
  6
ByLayer
100
AcDbEntity
100
AcDbSpline
 70
8
 71
3
 72
8
 73
4
 74
0
 40
0.0
 40
0.0
 40
0.0
 40
0.0
 40
1.0
 40
1.0
 40
1.0
 40
1.0
 10
18.815854000000002
 20
45.399496999999997
 30
0.0
 10
19.038527999999999
 20
46.000065999999997
 30
0.0
 10
19.705418999999999
 20
46.306559
 30
0.0
 10
20.305705
 20
46.084733
 30
0.0
  0
SPLINE
  5
58
  8
Layer_1
 62
1
420
16711680
370
-1
  6
ByLayer
100
AcDbEntity
100
AcDbSpline
 70
8
 71
3
 72
8
 73
4
 74
0
 40
0.0
 40
0.0
 40
0.0
 40
0.0
 40
1.0
 40
1.0
 40
1.0
 40
1.0
 10
20.305705
 20
46.084733
 30
0.0
 10
20.905992000000001
 20
45.862906000000002
 30
0.0
 10
21.213332000000001
 20
45.195450000000001
 30
0.0
 10
20.991505
 20
44.594316999999997
 30
0.0
  0
LWPOLYLINE
  5
59
  8
Layer_1
 62
1
420
16711680
370
-1
  6
ByLayer
100
AcDbEntity
100
AcDbPolyline
 90
2
 70
0
 10
21.756045
 20
63.664355
 10
21.756045
 20
63.664355
  0
SPLINE
  5
5A
  8
Layer_1
 62
1
420
16711680
370
-1
  6
ByLayer
100
AcDbEntity
100
AcDbSpline
 70
8
 71
3
 72
8
 73
4
 74
0
 40
0.0
 40
0.0
 40
0.0
 40
0.0
 40
1.0
 40
1.0
 40
1.0
 40
1.0
 10
6.4872589999999999
 20
15.263235
 30
0.0
 10
6.4872589999999999
 20
15.903879999999999
 30
0.0
 10
7.0076770000000002
 20
16.422604
 30
0.0
 10
7.6480389999999998
 20
16.422039999999999
 30
0.0
  0
SPLINE
  5
5B
  8
Layer_1
 62
1
420
16711680
370
-1
  6
ByLayer
100
AcDbEntity
100
AcDbSpline
 70
8
 71
3
 72
8
 73
4
 74
0
 40
0.0
 40
0.0
 40
0.0
 40
0.0
 40
1.0
 40
1.0
 40
1.0
 40
1.0
 10
7.6480389999999998
 20
16.422039999999999
 30
0.0
 10
8.2884010000000004
 20
16.422039999999999
 30
0.0
 10
8.8071249999999992
 20
15.901622
 30
0.0
 10
8.8065610000000003
 20
15.26126
 30
0.0
  0
SPLINE
  5
5C
  8
Layer_1
 62
1
420
16711680
370
-1
  6
ByLayer
100
AcDbEntity
100
AcDbSpline
 70
8
 71
3
 72
8
 73
4
 74
0
 40
0.0
 40
0.0
 40
0.0
 40
0.0
 40
1.0
 40
1.0
 40
1.0
 40
1.0
 10
8.8065610000000003
 20
15.26126
 30
0.0
 10
8.8065610000000003
 20
14.620898
 30
0.0
 10
8.2861429999999991
 20
14.102173000000001
 30
0.0
 10
7.6457810000000004
 20
14.102738
 30
0.0
  0
SPLINE
  5
5D
  8
Layer_1
 62
1
420
16711680
370
-1
  6
ByLayer
100
AcDbEntity
100
AcDbSpline
 70
8
 71
3
 72
8
 73
4
 74
0
 40
0.0
 40
0.0
 40
0.0
 40
0.0
 40
1.0
 40
1.0
 40
1.0
 40
1.0
 10
7.6457810000000004
 20
14.102738
 30
0.0
 10
7.0054189999999998
 20
14.102738
 30
0.0
 10
6.4864119999999996
 20
14.622873
 30
0.0
 10
6.4872589999999999
 20
15.263235
 30
0.0
  0
LWPOLYLINE
  5
5E
  8
Layer_1
 62
1
420
16711680
370
-1
  6
ByLayer
100
AcDbEntity
100
AcDbPolyline
 90
2
 70
0
 10
20.991505
 20
44.594316999999997
 10
20.991505
 20
44.594316999999997
  0
SPLINE
  5
5F
  8
Layer_1
 62
1
420
16711680
370
-1
  6
ByLayer
100
AcDbEntity
100
AcDbSpline
 70
8
 71
3
 72
8
 73
4
 74
0
 40
0.0
 40
0.0
 40
0.0
 40
0.0
 40
1.0
 40
1.0
 40
1.0
 40
1.0
 10
18.824884999999998
 20
17.651118
 30
0.0
 10
18.824884999999998
 20
18.291761999999999
 30
0.0
 10
19.345585
 20
18.810486000000001
 30
0.0
 10
19.985665000000001
 20
18.809922
 30
0.0
  0
SPLINE
  5
60
  8
Layer_1
 62
1
420
16711680
370
-1
  6
ByLayer
100
AcDbEntity
100
AcDbSpline
 70
8
 71
3
 72
8
 73
4
 74
0
 40
0.0
 40
0.0
 40
0.0
 40
0.0
 40
1.0
 40
1.0
 40
1.0
 40
1.0
 10
19.985665000000001
 20
18.809922
 30
0.0
 10
20.626591999999999
 20
18.809922
 30
0.0
 10
21.145033999999999
 20
18.289504000000001
 30
0.0
 10
21.144469999999998
 20
17.649142000000001
 30
0.0
  0
SPLINE
  5
61
  8
Layer_1
 62
1
420
16711680
370
-1
  6
ByLayer
100
AcDbEntity
100
AcDbSpline
 70
8
 71
3
 72
8
 73
4
 74
0
 40
0.0
 40
0.0
 40
0.0
 40
0.0
 40
1.0
 40
1.0
 40
1.0
 40
1.0
 10
21.144469999999998
 20
17.649142000000001
 30
0.0
 10
21.144469999999998
 20
17.008497999999999
 30
0.0
 10
20.62377
 20
16.489773
 30
0.0
 10
19.983125000000001
 20
16.490338000000001
 30
0.0
  0
SPLINE
  5
62
  8
Layer_1
 62
1
420
16711680
370
-1
  6
ByLayer
100
AcDbEntity
100
AcDbSpline
 70
8
 71
3
 72
8
 73
4
 74
0
 40
0.0
 40
0.0
 40
0.0
 40
0.0
 40
1.0
 40
1.0
 40
1.0
 40
1.0
 10
19.983125000000001
 20
16.490338000000001
 30
0.0
 10
19.343045
 20
16.490338000000001
 30
0.0
 10
18.824038999999999
 20
17.010755
 30
0.0
 10
18.824884999999998
 20
17.651118
 30
0.0
  0
LWPOLYLINE
  5
63
  8
Layer_1
 62
1
420
16711680
370
-1
  6
ByLayer
100
AcDbEntity
100
AcDbPolyline
 90
2
 70
0
 10
6.4872589999999999
 20
15.263235
 10
6.4872589999999999
 20
15.263235
  0
SPLINE
  5
64
  8
Layer_1
 62
1
420
16711680
370
-1
  6
ByLayer
100
AcDbEntity
100
AcDbSpline
 70
8
 71
3
 72
8
 73
4
 74
0
 40
0.0
 40
0.0
 40
0.0
 40
0.0
 40
1.0
 40
1.0
 40
1.0
 40
1.0
 10
18.844640999999999
 20
32.931483999999998
 30
0.0
 10
18.844640999999999
 20
33.571846000000001
 30
0.0
 10
19.365058999999999
 20
34.09057
 30
0.0
 10
20.005139
 20
34.090006000000002
 30
0.0
  0
SPLINE
  5
65
  8
Layer_1
 62
1
420
16711680
370
-1
  6
ByLayer
100
AcDbEntity
100
AcDbSpline
 70
8
 71
3
 72
8
 73
4
 74
0
 40
0.0
 40
0.0
 40
0.0
 40
0.0
 40
1.0
 40
1.0
 40
1.0
 40
1.0
 10
20.005139
 20
34.090006000000002
 30
0.0
 10
20.646065
 20
34.089441999999998
 30
0.0
 10
21.164508000000001
 20
33.569588000000003
 30
0.0
 10
21.163943
 20
32.929226
 30
0.0
  0
SPLINE
  5
66
  8
Layer_1
 62
1
420
16711680
370
-1
  6
ByLayer
100
AcDbEntity
100
AcDbSpline
 70
8
 71
3
 72
8
 73
4
 74
0
 40
0.0
 40
0.0
 40
0.0
 40
0.0
 40
1.0
 40
1.0
 40
1.0
 40
1.0
 10
21.163943
 20
32.929226
 30
0.0
 10
21.163943
 20
32.288299000000002
 30
0.0
 10
20.643525
 20
31.769856999999998
 30
0.0
 10
20.003444999999999
 20
31.770422
 30
0.0
  0
SPLINE
  5
67
  8
Layer_1
 62
1
420
16711680
370
-1
  6
ByLayer
100
AcDbEntity
100
AcDbSpline
 70
8
 71
3
 72
8
 73
4
 74
0
 40
0.0
 40
0.0
 40
0.0
 40
0.0
 40
1.0
 40
1.0
 40
1.0
 40
1.0
 10
20.003444999999999
 20
31.770422
 30
0.0
 10
19.362801000000001
 20
31.771267999999999
 30
0.0
 10
18.843793999999999
 20
32.290838999999998
 30
0.0
 10
18.844640999999999
 20
32.931483999999998
 30
0.0
  0
LWPOLYLINE
  5
68
  8
Layer_1
 62
1
420
16711680
370
-1
  6
ByLayer
100
AcDbEntity
100
AcDbPolyline
 90
2
 70
0
 10
18.824884999999998
 20
17.651118
 10
18.824884999999998
 20
17.651118
  0
SPLINE
  5
69
  8
Layer_1
 62
1
420
16711680
370
-1
  6
ByLayer
100
AcDbEntity
100
AcDbSpline
 70
8
 71
3
 72
8
 73
4
 74
0
 40
0.0
 40
0.0
 40
0.0
 40
0.0
 40
1.0
 40
1.0
 40
1.0
 40
1.0
 10
7.3062680000000002
 20
34.542408000000002
 30
0.0
 10
7.3062680000000002
 20
35.183053000000001
 30
0.0
 10
7.8266850000000003
 20
35.701777
 30
0.0
 10
8.4670480000000001
 20
35.70093
 30
0.0
  0
SPLINE
  5
6A
  8
Layer_1
 62
1
420
16711680
370
-1
  6
ByLayer
100
AcDbEntity
100
AcDbSpline
 70
8
 71
3
 72
8
 73
4
 74
0
 40
0.0
 40
0.0
 40
0.0
 40
0.0
 40
1.0
 40
1.0
 40
1.0
 40
1.0
 10
8.4670480000000001
 20
35.70093
 30
0.0
 10
9.1076920000000001
 20
35.700366000000002
 30
0.0
 10
9.6261340000000004
 20
35.180512999999998
 30
0.0
 10
9.6255699999999997
 20
34.540149999999997
 30
0.0
  0
SPLINE
  5
6B
  8
Layer_1
 62
1
420
16711680
370
-1
  6
ByLayer
100
AcDbEntity
100
AcDbSpline
 70
8
 71
3
 72
8
 73
4
 74
0
 40
0.0
 40
0.0
 40
0.0
 40
0.0
 40
1.0
 40
1.0
 40
1.0
 40
1.0
 10
9.6255699999999997
 20
34.540149999999997
 30
0.0
 10
9.6255699999999997
 20
33.899506000000002
 30
0.0
 10
9.1051520000000004
 20
33.381064000000002
 30
0.0
 10
8.4647900000000007
 20
33.381627999999999
 30
0.0
  0
SPLINE
  5
6C
  8
Layer_1
 62
1
420
16711680
370
-1
  6
ByLayer
100
AcDbEntity
100
AcDbSpline
 70
8
 71
3
 72
8
 73
4
 74
0
 40
0.0
 40
0.0
 40
0.0
 40
0.0
 40
1.0
 40
1.0
 40
1.0
 40
1.0
 10
8.4647900000000007
 20
33.381627999999999
 30
0.0
 10
7.8244280000000002
 20
33.382193000000001
 30
0.0
 10
7.3051389999999996
 20
33.902045999999999
 30
0.0
 10
7.3062680000000002
 20
34.542408000000002
 30
0.0
  0
LWPOLYLINE
  5
6D
  8
Layer_1
 62
1
420
16711680
370
-1
  6
ByLayer
100
AcDbEntity
100
AcDbPolyline
 90
2
 70
0
 10
18.844640999999999
 20
32.931483999999998
 10
18.844640999999999
 20
32.931483999999998
  0
SPLINE
  5
6E
  8
Layer_1
 62
1
420
16711680
370
-1
  6
ByLayer
100
AcDbEntity
100
AcDbSpline
 70
8
 71
3
 72
8
 73
4
 74
0
 40
0.0
 40
0.0
 40
0.0
 40
0.0
 40
1.0
 40
1.0
 40
1.0
 40
1.0
 10
17.548393999999998
 20
6.081982
 30
0.0
 10
17.548393999999998
 20
6.7223439999999997
 30
0.0
 10
18.068812000000001
 20
7.2407859999999999
 30
0.0
 10
18.709174000000001
 20
7.2402220000000002
 30
0.0
  0
SPLINE
  5
6F
  8
Layer_1
 62
1
420
16711680
370
-1
  6
ByLayer
100
AcDbEntity
100
AcDbSpline
 70
8
 71
3
 72
8
 73
4
 74
0
 40
0.0
 40
0.0
 40
0.0
 40
0.0
 40
1.0
 40
1.0
 40
1.0
 40
1.0
 10
18.709174000000001
 20
7.2402220000000002
 30
0.0
 10
19.349819
 20
7.2402220000000002
 30
0.0
 10
19.868261
 20
6.7198039999999999
 30
0.0
 10
19.867697
 20
6.0791599999999999
 30
0.0
  0
SPLINE
  5
70
  8
Layer_1
 62
1
420
16711680
370
-1
  6
ByLayer
100
AcDbEntity
100
AcDbSpline
 70
8
 71
3
 72
8
 73
4
 74
0
 40
0.0
 40
0.0
 40
0.0
 40
0.0
 40
1.0
 40
1.0
 40
1.0
 40
1.0
 10
19.867697
 20
6.0791599999999999
 30
0.0
 10
19.867697
 20
5.4387980000000002
 30
0.0
 10
19.347279
 20
4.9200730000000004
 30
0.0
 10
18.706917000000001
 20
4.9206380000000003
 30
0.0
  0
SPLINE
  5
71
  8
Layer_1
 62
1
420
16711680
370
-1
  6
ByLayer
100
AcDbEntity
100
AcDbSpline
 70
8
 71
3
 72
8
 73
4
 74
0
 40
0.0
 40
0.0
 40
0.0
 40
0.0
 40
1.0
 40
1.0
 40
1.0
 40
1.0
 10
18.706917000000001
 20
4.9206380000000003
 30
0.0
 10
18.066554
 20
4.9206380000000003
 30
0.0
 10
17.547264999999999
 20
5.4410550000000004
 30
0.0
 10
17.548393999999998
 20
6.081982
 30
0.0
  0
LWPOLYLINE
  5
72
  8
Layer_1
 62
1
420
16711680
370
-1
  6
ByLayer
100
AcDbEntity
100
AcDbPolyline
 90
2
 70
0
 10
7.3062680000000002
 20
34.542408000000002
 10
7.3062680000000002
 20
34.542408000000002
  0
LWPOLYLINE
  5
73
  8
Layer_1
 62
1
420
16711680
370
-1
  6
ByLayer
100
AcDbEntity
100
AcDbPolyline
 90
2
 70
0
 10
17.548393999999998
 20
6.081982
 10
17.548393999999998
 20
6.081982
  0
SPLINE
  5
74
  8
Layer_1
 62
1
420
16711680
370
-1
  6
ByLayer
100
AcDbEntity
100
AcDbSpline
 70
8
 71
3
 72
8
 73
4
 74
0
 40
0.0
 40
0.0
 40
0.0
 40
0.0
 40
1.0
 40
1.0
 40
1.0
 40
1.0
 10
18.711714000000001
 20
1.281946
 30
0.0
 10
21.362062999999999
 20
1.2791239999999999
 30
0.0
 10
23.513442999999999
 20
3.4262709999999998
 30
0.0
 10
23.515982999999999
 20
6.0771839999999999
 30
0.0
  0
LWPOLYLINE
  5
75
  8
Layer_1
 62
1
420
16711680
370
-1
  6
ByLayer
100
AcDbEntity
100
AcDbPolyline
 90
3
 70
0
 10
11.242139
 20
24.138278
 10
11.242139
 20
24.141100000000002
 10
11.244961
 20
26.539424
  0
SPLINE
  5
76
  8
Layer_1
 62
1
420
16711680
370
-1
  6
ByLayer
100
AcDbEntity
100
AcDbSpline
 70
8
 71
3
 72
8
 73
4
 74
0
 40
0.0
 40
0.0
 40
0.0
 40
0.0
 40
1.0
 40
1.0
 40
1.0
 40
1.0
 10
1.4284250000000001
 20
6.0986330000000004
 30
0.0
 10
1.425603
 20
3.447438
 30
0.0
 10
2.772932
 20
1.297186
 30
0.0
 10
2.772932
 20
1.297186
 30
0.0
  0
LWPOLYLINE
  5
77
  8
Layer_1
 62
1
420
16711680
370
-1
  6
ByLayer
100
AcDbEntity
100
AcDbPolyline
 90
13
 70
0
 10
23.515982999999999
 20
6.0771839999999999
 10
23.533480999999998
 20
24.128964
 10
16.760148000000001
 20
24.135455
 10
16.760148000000001
 20
23.214563999999999
 10
13.720332000000001
 20
23.217669000000001
 10
13.720332000000001
 20
24.138559999999998
 10
11.242703000000001
 20
24.141382
 10
11.242703000000001
 20
24.138559999999998
 10
11.239317
 20
20.539662
 10
7.5280940000000003
 20
20.543330999999998
 10
5.4825480000000004
 20
20.546153
 10
1.4428190000000001
 20
20.550386
 10
1.4284250000000001
 20
6.0986330000000004
  0
SPLINE
  5
78
  8
Layer_1
 62
1
420
16711680
370
-1
  6
ByLayer
100
AcDbEntity
100
AcDbSpline
 70
8
 71
3
 72
8
 73
4
 74
0
 40
0.0
 40
0.0
 40
0.0
 40
0.0
 40
1.0
 40
1.0
 40
1.0
 40
1.0
 10
5.7447319999999999
 20
30.145104
 30
0.0
 10
5.7447319999999999
 20
29.622427999999999
 30
0.0
 10
5.3197049999999999
 20
29.199095
 30
0.0
 10
4.7975940000000001
 20
29.199659
 30
0.0
  0
SPLINE
  5
79
  8
Layer_1
 62
1
420
16711680
370
-1
  6
ByLayer
100
AcDbEntity
100
AcDbSpline
 70
8
 71
3
 72
8
 73
4
 74
0
 40
0.0
 40
0.0
 40
0.0
 40
0.0
 40
1.0
 40
1.0
 40
1.0
 40
1.0
 10
4.7975940000000001
 20
29.199659
 30
0.0
 10
4.2746370000000002
 20
29.200506000000001
 30
0.0
 10
3.8513030000000001
 20
29.624403999999998
 30
0.0
 10
3.8518680000000001
 20
30.147079000000002
 30
0.0
  0
SPLINE
  5
7A
  8
Layer_1
 62
1
420
16711680
370
-1
  6
ByLayer
100
AcDbEntity
100
AcDbSpline
 70
8
 71
3
 72
8
 73
4
 74
0
 40
0.0
 40
0.0
 40
0.0
 40
0.0
 40
1.0
 40
1.0
 40
1.0
 40
1.0
 10
3.8518680000000001
 20
30.147079000000002
 30
0.0
 10
3.8518680000000001
 20
30.670037000000001
 30
0.0
 10
4.2763299999999997
 20
31.093088000000002
 30
0.0
 10
4.7992879999999998
 20
31.092524000000001
 30
0.0
  0
SPLINE
  5
7B
  8
Layer_1
 62
1
420
16711680
370
-1
  6
ByLayer
100
AcDbEntity
100
AcDbSpline
 70
8
 71
3
 72
8
 73
4
 74
0
 40
0.0
 40
0.0
 40
0.0
 40
0.0
 40
1.0
 40
1.0
 40
1.0
 40
1.0
 10
4.7992879999999998
 20
31.092524000000001
 30
0.0
 10
5.3219630000000002
 20
31.092241999999999
 30
0.0
 10
5.7452969999999999
 20
30.668344000000001
 30
0.0
 10
5.7447319999999999
 20
30.145104
 30
0.0
  0
LWPOLYLINE
  5
7C
  8
Layer_1
 62
1
420
16711680
370
-1
  6
ByLayer
100
AcDbEntity
100
AcDbPolyline
 90
4
 70
0
 10
2.772932
 20
1.297186
 10
13.911396999999999
 20
1.2861800000000001
 10
18.711714000000001
 20
1.2822290000000001
 10
18.711714000000001
 20
1.281946
  0
SPLINE
  5
7D
  8
Layer_1
 62
1
420
16711680
370
-1
  6
ByLayer
100
AcDbEntity
100
AcDbSpline
 70
8
 71
3
 72
8
 73
4
 74
0
 40
0.0
 40
0.0
 40
0.0
 40
0.0
 40
1.0
 40
1.0
 40
1.0
 40
1.0
 10
6.9867920000000003
 20
41.574821999999998
 30
0.0
 10
6.9867920000000003
 20
41.052146
 30
0.0
 10
6.5620479999999999
 20
40.628813000000001
 30
0.0
 10
6.0393720000000002
 20
40.629095
 30
0.0
  0
SPLINE
  5
7E
  8
Layer_1
 62
1
420
16711680
370
-1
  6
ByLayer
100
AcDbEntity
100
AcDbSpline
 70
8
 71
3
 72
8
 73
4
 74
0
 40
0.0
 40
0.0
 40
0.0
 40
0.0
 40
1.0
 40
1.0
 40
1.0
 40
1.0
 10
6.0393720000000002
 20
40.629095
 30
0.0
 10
5.5166969999999997
 20
40.629658999999997
 30
0.0
 10
5.093928
 20
41.054122
 30
0.0
 10
5.093928
 20
41.576796999999999
 30
0.0
  0
SPLINE
  5
7F
  8
Layer_1
 62
1
420
16711680
370
-1
  6
ByLayer
100
AcDbEntity
100
AcDbSpline
 70
8
 71
3
 72
8
 73
4
 74
0
 40
0.0
 40
0.0
 40
0.0
 40
0.0
 40
1.0
 40
1.0
 40
1.0
 40
1.0
 10
5.093928
 20
41.576796999999999
 30
0.0
 10
5.093928
 20
42.099755000000002
 30
0.0
 10
5.5183900000000001
 20
42.522523999999997
 30
0.0
 10
6.0413480000000002
 20
42.522241999999999
 30
0.0
  0
SPLINE
  5
80
  8
Layer_1
 62
1
420
16711680
370
-1
  6
ByLayer
100
AcDbEntity
100
AcDbSpline
 70
8
 71
3
 72
8
 73
4
 74
0
 40
0.0
 40
0.0
 40
0.0
 40
0.0
 40
1.0
 40
1.0
 40
1.0
 40
1.0
 10
6.0413480000000002
 20
42.522241999999999
 30
0.0
 10
6.5640229999999997
 20
42.521676999999997
 30
0.0
 10
6.9873570000000003
 20
42.097779000000003
 30
0.0
 10
6.9867920000000003
 20
41.574821999999998
 30
0.0
  0
LWPOLYLINE
  5
81
  8
Layer_1
 62
1
420
16711680
370
-1
  6
ByLayer
100
AcDbEntity
100
AcDbPolyline
 90
2
 70
0
 10
5.7447319999999999
 20
30.145104
 10
5.7447319999999999
 20
30.145104
  0
LWPOLYLINE
  5
82
  8
Layer_1
 62
1
420
16711680
370
-1
  6
ByLayer
100
AcDbEntity
100
AcDbPolyline
 90
2
 70
0
 10
6.9867920000000003
 20
41.574821999999998
 10
6.9867920000000003
 20
41.574821999999998
  0
SPLINE
  5
83
  8
Layer_1
 62
1
420
16711680
370
-1
  6
ByLayer
100
AcDbEntity
100
AcDbSpline
 70
8
 71
3
 72
8
 73
4
 74
0
 40
0.0
 40
0.0
 40
0.0
 40
0.0
 40
1.0
 40
1.0
 40
1.0
 40
1.0
 10
17.737765
 20
38.985714999999999
 30
0.0
 10
15.713103
 20
39.740941999999997
 30
0.0
 10
14.270101
 20
41.686864
 30
0.0
 10
14.272359
 20
43.974274999999999
 30
0.0
  0
SPLINE
  5
84
  8
Layer_1
 62
1
420
16711680
370
-1
  6
ByLayer
100
AcDbEntity
100
AcDbSpline
 70
8
 71
3
 72
8
 73
4
 74
0
 40
0.0
 40
0.0
 40
0.0
 40
0.0
 40
1.0
 40
1.0
 40
1.0
 40
1.0
 10
14.272359
 20
43.974274999999999
 30
0.0
 10
14.272359
 20
44.997047999999999
 30
0.0
 10
14.56841
 20
45.947854999999997
 30
0.0
 10
15.071047999999999
 20
46.756985999999998
 30
0.0
  0
LWPOLYLINE
  5
85
  8
Layer_1
 62
1
420
16711680
370
-1
  6
ByLayer
100
AcDbEntity
100
AcDbPolyline
 90
11
 70
0
 10
5.0933630000000001
 20
41.575949999999999
 10
4.7719120000000004
 20
30.145385999999998
 10
11.248065
 20
30.139177
 10
11.244114
 20
26.538578000000001
 10
13.721743
 20
26.535755000000002
 10
13.721743
 20
27.456645999999999
 10
16.761558999999998
 20
27.453541999999999
 10
16.761558999999998
 20
26.532651000000001
 10
23.534891999999999
 20
26.526160000000001
 10
23.547592000000002
 20
38.979787999999999
 10
17.737765
 20
38.985714999999999
  0
SPLINE
  5
86
  8
Layer_1
 62
1
420
16711680
370
-1
  6
ByLayer
100
AcDbEntity
100
AcDbSpline
 70
8
 71
3
 72
8
 73
4
 74
0
 40
0.0
 40
0.0
 40
0.0
 40
0.0
 40
1.0
 40
1.0
 40
1.0
 40
1.0
 10
4.011323
 20
45.580965999999997
 30
0.0
 10
2.6857250000000001
 20
45.580965999999997
 30
0.0
 10
1.611305
 20
44.506264000000002
 30
0.0
 10
1.611305
 20
43.181229999999999
 30
0.0
  0
LWPOLYLINE
  5
87
  8
Layer_1
 62
1
420
16711680
370
-1
  6
ByLayer
100
AcDbEntity
100
AcDbPolyline
 90
4
 70
0
 10
15.071047999999999
 20
46.756985999999998
 10
15.071047999999999
 20
47.560189999999999
 10
5.2753969999999999
 20
45.889434999999999
 10
4.011323
 20
45.580965999999997
  0
SPLINE
  5
88
  8
Layer_1
 62
1
420
16711680
370
-1
  6
ByLayer
100
AcDbEntity
100
AcDbSpline
 70
8
 71
3
 72
8
 73
4
 74
0
 40
0.0
 40
0.0
 40
0.0
 40
0.0
 40
1.0
 40
1.0
 40
1.0
 40
1.0
 10
1.283928
 20
23.852951000000001
 30
0.0
 10
1.283928
 20
22.972981999999998
 30
0.0
 10
1.732097
 20
21.869492999999999
 30
0.0
 10
2.2815829999999999
 20
21.400158000000001
 30
0.0
  0
SPLINE
  5
89
  8
Layer_1
 62
1
420
16711680
370
-1
  6
ByLayer
100
AcDbEntity
100
AcDbSpline
 70
8
 71
3
 72
8
 73
4
 74
0
 40
0.0
 40
0.0
 40
0.0
 40
0.0
 40
1.0
 40
1.0
 40
1.0
 40
1.0
 10
2.2815829999999999
 20
21.400158000000001
 30
0.0
 10
2.83107
 20
20.931104000000001
 30
0.0
 10
3.3111299999999999
 20
20.547000000000001
 30
0.0
 10
3.3111299999999999
 20
20.547000000000001
 30
0.0
  0
SPLINE
  5
8A
  8
Layer_1
 62
1
420
16711680
370
-1
  6
ByLayer
100
AcDbEntity
100
AcDbSpline
 70
8
 71
3
 72
8
 73
4
 74
0
 40
0.0
 40
0.0
 40
0.0
 40
0.0
 40
1.0
 40
1.0
 40
1.0
 40
1.0
 10
5.5786160000000002
 20
46.989446999999998
 30
0.0
 10
6.9039320000000002
 20
46.989446999999998
 30
0.0
 10
7.9786339999999996
 20
48.063867000000002
 30
0.0
 10
7.9786339999999996
 20
49.389465000000001
 30
0.0
  0
SPLINE
  5
8B
  8
Layer_1
 62
1
420
16711680
370
-1
  6
ByLayer
100
AcDbEntity
100
AcDbSpline
 70
8
 71
3
 72
8
 73
4
 74
0
 40
0.0
 40
0.0
 40
0.0
 40
0.0
 40
1.0
 40
1.0
 40
1.0
 40
1.0
 10
7.9786339999999996
 20
49.389465000000001
 30
0.0
 10
7.9786339999999996
 20
49.688056000000003
 30
0.0
 10
7.9216249999999997
 20
49.972535999999998
 30
0.0
 10
7.8217179999999997
 20
50.236696000000002
 30
0.0
  0
LWPOLYLINE
  5
8C
  8
Layer_1
 62
1
420
16711680
370
-1
  6
ByLayer
100
AcDbEntity
100
AcDbPolyline
 90
3
 70
0
 10
1.611305
 20
43.181229999999999
 10
1.2898540000000001
 20
30.148489999999999
 10
1.283928
 20
23.852951000000001
  0
SPLINE
  5
8D
  8
Layer_1
 62
1
420
16711680
370
-1
  6
ByLayer
100
AcDbEntity
100
AcDbSpline
 70
8
 71
3
 72
8
 73
4
 74
0
 40
0.0
 40
0.0
 40
0.0
 40
0.0
 40
1.0
 40
1.0
 40
1.0
 40
1.0
 10
14.732775999999999
 20
55.010767000000001
 30
0.0
 10
15.613027000000001
 20
55.010767000000001
 30
0.0
 10
16.332694
 20
55.563076000000002
 30
0.0
 10
16.332694
 20
56.443326999999996
 30
0.0
  0
SPLINE
  5
8E
  8
Layer_1
 62
1
420
16711680
370
-1
  6
ByLayer
100
AcDbEntity
100
AcDbSpline
 70
8
 71
3
 72
8
 73
4
 74
0
 40
0.0
 40
0.0
 40
0.0
 40
0.0
 40
1.0
 40
1.0
 40
1.0
 40
1.0
 10
16.332694
 20
56.443326999999996
 30
0.0
 10
16.332694
 20
56.443326999999996
 30
0.0
 10
15.659029
 20
57.392440000000001
 30
0.0
 10
14.827321
 20
57.392440000000001
 30
0.0
  0
SPLINE
  5
8F
  8
Layer_1
 62
1
420
16711680
370
-1
  6
ByLayer
100
AcDbEntity
100
AcDbSpline
 70
8
 71
3
 72
8
 73
4
 74
0
 40
0.0
 40
0.0
 40
0.0
 40
0.0
 40
1.0
 40
1.0
 40
1.0
 40
1.0
 10
14.827321
 20
57.392440000000001
 30
0.0
 10
14.509256000000001
 20
57.392440000000001
 30
0.0
 10
14.245943
 20
57.203350999999998
 30
0.0
 10
14.190063
 20
56.901373999999997
 30
0.0
  0
LWPOLYLINE
  5
90
  8
Layer_1
 62
1
420
16711680
370
-1
  6
ByLayer
100
AcDbEntity
100
AcDbPolyline
 90
3
 70
0
 10
7.8217179999999997
 20
50.236696000000002
 10
7.8217179999999997
 20
55.010767000000001
 10
14.732775999999999
 20
55.010767000000001
  0
SPLINE
  5
91
  8
Layer_1
 62
1
420
16711680
370
-1
  6
ByLayer
100
AcDbEntity
100
AcDbSpline
 70
8
 71
3
 72
8
 73
4
 74
0
 40
0.0
 40
0.0
 40
0.0
 40
0.0
 40
1.0
 40
1.0
 40
1.0
 40
1.0
 10
9.5793979999999994
 20
56.901373999999997
 30
0.0
 10
9.358136
 20
56.901373999999997
 30
0.0
 10
9.1792069999999999
 20
57.080584999999999
 30
0.0
 10
9.1792069999999999
 20
57.301564999999997
 30
0.0
  0
LWPOLYLINE
  5
92
  8
Layer_1
 62
1
420
16711680
370
-1
  6
ByLayer
100
AcDbEntity
100
AcDbPolyline
 90
2
 70
0
 10
14.190063
 20
56.901373999999997
 10
9.5793979999999994
 20
56.901373999999997
  0
SPLINE
  5
93
  8
Layer_1
 62
1
420
16711680
370
-1
  6
ByLayer
100
AcDbEntity
100
AcDbSpline
 70
8
 71
3
 72
8
 73
4
 74
0
 40
0.0
 40
0.0
 40
0.0
 40
0.0
 40
1.0
 40
1.0
 40
1.0
 40
1.0
 10
9.1792069999999999
 20
57.901851000000001
 30
0.0
 10
9.1792069999999999
 20
58.122830999999998
 30
0.0
 10
9.358136
 20
58.302042
 30
0.0
 10
9.5793979999999994
 20
58.302042
 30
0.0
  0
LWPOLYLINE
  5
94
  8
Layer_1
 62
1
420
16711680
370
-1
  6
ByLayer
100
AcDbEntity
100
AcDbPolyline
 90
2
 70
0
 10
9.1792069999999999
 20
57.301564999999997
 10
9.1792069999999999
 20
57.901851000000001
  0
SPLINE
  5
95
  8
Layer_1
 62
1
420
16711680
370
-1
  6
ByLayer
100
AcDbEntity
100
AcDbSpline
 70
8
 71
3
 72
8
 73
4
 74
0
 40
0.0
 40
0.0
 40
0.0
 40
0.0
 40
1.0
 40
1.0
 40
1.0
 40
1.0
 10
14.190345000000001
 20
58.302042
 30
0.0
 10
14.246506999999999
 20
58.001193999999998
 30
0.0
 10
14.509821000000001
 20
57.852179999999997
 30
0.0
 10
14.827321
 20
57.852179999999997
 30
0.0
  0
LWPOLYLINE
  5
96
  8
Layer_1
 62
1
420
16711680
370
-1
  6
ByLayer
100
AcDbEntity
100
AcDbPolyline
 90
2
 70
0
 10
9.5793979999999994
 20
58.302042
 10
14.190345000000001
 20
58.302042
  0
SPLINE
  5
97
  8
Layer_1
 62
1
420
16711680
370
-1
  6
ByLayer
100
AcDbEntity
100
AcDbSpline
 70
8
 71
3
 72
8
 73
4
 74
0
 40
0.0
 40
0.0
 40
0.0
 40
0.0
 40
1.0
 40
1.0
 40
1.0
 40
1.0
 10
14.827321
 20
57.857259999999997
 30
0.0
 10
15.653103
 20
57.857259999999997
 30
0.0
 10
16.322534000000001
 20
58.832338
 30
0.0
 10
16.331847
 20
58.846167000000001
 30
0.0
  0
SPLINE
  5
98
  8
Layer_1
 62
1
420
16711680
370
-1
  6
ByLayer
100
AcDbEntity
100
AcDbSpline
 70
8
 71
3
 72
8
 73
4
 74
0
 40
0.0
 40
0.0
 40
0.0
 40
0.0
 40
1.0
 40
1.0
 40
1.0
 40
1.0
 10
16.331847
 20
58.846167000000001
 30
0.0
 10
16.322534000000001
 20
58.859431000000001
 30
0.0
 10
15.653103
 20
59.833945
 30
0.0
 10
14.827321
 20
59.833945
 30
0.0
  0
SPLINE
  5
99
  8
Layer_1
 62
1
420
16711680
370
-1
  6
ByLayer
100
AcDbEntity
100
AcDbSpline
 70
8
 71
3
 72
8
 73
4
 74
0
 40
0.0
 40
0.0
 40
0.0
 40
0.0
 40
1.0
 40
1.0
 40
1.0
 40
1.0
 10
14.827321
 20
59.833945
 30
0.0
 10
14.509256000000001
 20
59.833945
 30
0.0
 10
14.245943
 20
59.684930999999999
 30
0.0
 10
14.190063
 20
59.382953999999998
 30
0.0
  0
LWPOLYLINE
  5
9A
  8
Layer_1
 62
1
420
16711680
370
-1
  6
ByLayer
100
AcDbEntity
100
AcDbPolyline
 90
2
 70
0
 10
14.827321
 20
57.852179999999997
 10
14.827321
 20
57.857259999999997
  0
SPLINE
  5
9B
  8
Layer_1
 62
1
420
16711680
370
-1
  6
ByLayer
100
AcDbEntity
100
AcDbSpline
 70
8
 71
3
 72
8
 73
4
 74
0
 40
0.0
 40
0.0
 40
0.0
 40
0.0
 40
1.0
 40
1.0
 40
1.0
 40
1.0
 10
9.5793979999999994
 20
59.382953999999998
 30
0.0
 10
9.358136
 20
59.382953999999998
 30
0.0
 10
9.1792069999999999
 20
59.562165
 30
0.0
 10
9.1792069999999999
 20
59.783144999999998
 30
0.0
  0
LWPOLYLINE
  5
9C
  8
Layer_1
 62
1
420
16711680
370
-1
  6
ByLayer
100
AcDbEntity
100
AcDbPolyline
 90
2
 70
0
 10
14.190063
 20
59.382953999999998
 10
9.5793979999999994
 20
59.382953999999998
  0
SPLINE
  5
9D
  8
Layer_1
 62
1
420
16711680
370
-1
  6
ByLayer
100
AcDbEntity
100
AcDbSpline
 70
8
 71
3
 72
8
 73
4
 74
0
 40
0.0
 40
0.0
 40
0.0
 40
0.0
 40
1.0
 40
1.0
 40
1.0
 40
1.0
 10
9.1792069999999999
 20
60.423225000000002
 30
0.0
 10
9.1792069999999999
 20
60.644204999999999
 30
0.0
 10
9.358136
 20
60.823416000000002
 30
0.0
 10
9.5793979999999994
 20
60.823416000000002
 30
0.0
  0
LWPOLYLINE
  5
9E
  8
Layer_1
 62
1
420
16711680
370
-1
  6
ByLayer
100
AcDbEntity
100
AcDbPolyline
 90
2
 70
0
 10
9.1792069999999999
 20
59.783144999999998
 10
9.1792069999999999
 20
60.423225000000002
  0
SPLINE
  5
9F
  8
Layer_1
 62
1
420
16711680
370
-1
  6
ByLayer
100
AcDbEntity
100
AcDbSpline
 70
8
 71
3
 72
8
 73
4
 74
0
 40
0.0
 40
0.0
 40
0.0
 40
0.0
 40
1.0
 40
1.0
 40
1.0
 40
1.0
 10
14.190345000000001
 20
60.823416000000002
 30
0.0
 10
14.246506999999999
 20
60.522567000000002
 30
0.0
 10
14.509821000000001
 20
60.334041999999997
 30
0.0
 10
14.827321
 20
60.334041999999997
 30
0.0
  0
LWPOLYLINE
  5
A0
  8
Layer_1
 62
1
420
16711680
370
-1
  6
ByLayer
100
AcDbEntity
100
AcDbPolyline
 90
2
 70
0
 10
9.5793979999999994
 20
60.823416000000002
 10
14.190345000000001
 20
60.823416000000002
  0
SPLINE
  5
A1
  8
Layer_1
 62
1
420
16711680
370
-1
  6
ByLayer
100
AcDbEntity
100
AcDbSpline
 70
8
 71
3
 72
8
 73
4
 74
0
 40
0.0
 40
0.0
 40
0.0
 40
0.0
 40
1.0
 40
1.0
 40
1.0
 40
1.0
 10
14.827321
 20
60.339122000000003
 30
0.0
 10
15.659029
 20
60.339122000000003
 30
0.0
 10
16.332694
 20
61.288800000000002
 30
0.0
 10
16.332694
 20
61.288800000000002
 30
0.0
  0
LWPOLYLINE
  5
A2
  8
Layer_1
 62
1
420
16711680
370
-1
  6
ByLayer
100
AcDbEntity
100
AcDbPolyline
 90
2
 70
0
 10
14.827321
 20
60.334041999999997
 10
14.827321
 20
60.339122000000003
  0
SPLINE
  5
A3
  8
Layer_1
 62
1
420
16711680
370
-1
  6
ByLayer
100
AcDbEntity
100
AcDbSpline
 70
8
 71
3
 72
8
 73
4
 74
0
 40
0.0
 40
0.0
 40
0.0
 40
0.0
 40
1.0
 40
1.0
 40
1.0
 40
1.0
 10
16.332694
 20
62.427567000000003
 30
0.0
 10
15.774457999999999
 20
62.853721999999998
 30
0.0
 10
15.384145
 20
63.484489000000004
 30
0.0
 10
15.267587000000001
 20
64.207542000000004
 30
0.0
  0
SPLINE
  5
A4
  8
Layer_1
 62
1
420
16711680
370
-1
  6
ByLayer
100
AcDbEntity
100
AcDbSpline
 70
8
 71
3
 72
8
 73
4
 74
0
 40
0.0
 40
0.0
 40
0.0
 40
0.0
 40
1.0
 40
1.0
 40
1.0
 40
1.0
 10
15.267587000000001
 20
64.207542000000004
 30
0.0
 10
15.267587000000001
 20
64.267656000000002
 30
0.0
 10
15.263354
 20
64.326076
 30
0.0
 10
15.259121
 20
64.383931000000004
 30
0.0
  0
SPLINE
  5
A5
  8
Layer_1
 62
1
420
16711680
370
-1
  6
ByLayer
100
AcDbEntity
100
AcDbSpline
 70
8
 71
3
 72
8
 73
4
 74
0
 40
0.0
 40
0.0
 40
0.0
 40
0.0
 40
1.0
 40
1.0
 40
1.0
 40
1.0
 10
15.259121
 20
64.383931000000004
 30
0.0
 10
15.252629000000001
 20
64.479887000000005
 30
0.0
 10
15.243034
 20
64.575841999999994
 30
0.0
 10
15.228923
 20
64.668976000000001
 30
0.0
  0
SPLINE
  5
A6
  8
Layer_1
 62
1
420
16711680
370
-1
  6
ByLayer
100
AcDbEntity
100
AcDbSpline
 70
8
 71
3
 72
8
 73
4
 74
0
 40
0.0
 40
0.0
 40
0.0
 40
0.0
 40
1.0
 40
1.0
 40
1.0
 40
1.0
 10
15.228923
 20
64.668976000000001
 30
0.0
 10
15.015845000000001
 20
66.088271000000006
 30
0.0
 10
13.877361000000001
 20
67.201638000000003
 30
0.0
 10
12.445646999999999
 20
67.373794000000004
 30
0.0
  0
LWPOLYLINE
  5
A7
  8
Layer_1
 62
1
420
16711680
370
-1
  6
ByLayer
100
AcDbEntity
100
AcDbPolyline
 90
2
 70
0
 10
16.332694
 20
61.288800000000002
 10
16.332694
 20
62.427567000000003
  0
SPLINE
  5
A8
  8
Layer_1
 62
1
420
16711680
370
-1
  6
ByLayer
100
AcDbEntity
100
AcDbSpline
 70
8
 71
3
 72
8
 73
4
 74
0
 40
0.0
 40
0.0
 40
0.0
 40
0.0
 40
1.0
 40
1.0
 40
1.0
 40
1.0
 10
6.2960250000000002
 20
67.373794000000004
 30
0.0
 10
4.8245180000000003
 20
67.196839999999995
 30
0.0
 10
3.6606339999999999
 20
66.025617999999994
 30
0.0
 10
3.4952519999999998
 20
64.551006999999998
 30
0.0
  0
LWPOLYLINE
  5
A9
  8
Layer_1
 62
1
420
16711680
370
-1
  6
ByLayer
100
AcDbEntity
100
AcDbPolyline
 90
2
 70
0
 10
12.445646999999999
 20
67.373794000000004
 10
6.2960250000000002
 20
67.373794000000004
  0
SPLINE
  5
AA
  8
Layer_1
 62
1
420
16711680
370
-1
  6
ByLayer
100
AcDbEntity
100
AcDbSpline
 70
8
 71
3
 72
8
 73
4
 74
0
 40
0.0
 40
0.0
 40
0.0
 40
0.0
 40
1.0
 40
1.0
 40
1.0
 40
1.0
 10
3.484245
 20
64.428522000000001
 30
0.0
 10
3.480858
 20
64.385059999999996
 30
0.0
 10
3.4797289999999998
 20
64.341316000000006
 30
0.0
 10
3.4783179999999998
 20
64.297571000000005
 30
0.0
  0
SPLINE
  5
AB
  8
Layer_1
 62
1
420
16711680
370
-1
  6
ByLayer
100
AcDbEntity
100
AcDbSpline
 70
8
 71
3
 72
8
 73
4
 74
0
 40
0.0
 40
0.0
 40
0.0
 40
0.0
 40
1.0
 40
1.0
 40
1.0
 40
1.0
 10
3.4783179999999998
 20
64.297571000000005
 30
0.0
 10
3.3801049999999999
 20
63.527386999999997
 30
0.0
 10
2.9689070000000002
 20
62.856544999999997
 30
0.0
 10
2.3762409999999998
 20
62.412326999999998
 30
0.0
  0
LWPOLYLINE
  5
AC
  8
Layer_1
 62
1
420
16711680
370
-1
  6
ByLayer
100
AcDbEntity
100
AcDbPolyline
 90
2
 70
0
 10
3.4952519999999998
 20
64.551006999999998
 10
3.484245
 20
64.428522000000001
  0
SPLINE
  5
AD
  8
Layer_1
 62
1
420
16711680
370
-1
  6
ByLayer
100
AcDbEntity
100
AcDbSpline
 70
8
 71
3
 72
8
 73
4
 74
0
 40
0.0
 40
0.0
 40
0.0
 40
0.0
 40
1.0
 40
1.0
 40
1.0
 40
1.0
 10
2.3762409999999998
 20
50.182226999999997
 30
0.0
 10
2.7230919999999998
 20
49.917501999999999
 30
0.0
 10
2.9982579999999999
 20
49.569240000000001
 30
0.0
 10
3.1898870000000001
 20
49.172435999999998
 30
0.0
  0
SPLINE
  5
AE
  8
Layer_1
 62
1
420
16711680
370
-1
  6
ByLayer
100
AcDbEntity
100
AcDbSpline
 70
8
 71
3
 72
8
 73
4
 74
0
 40
0.0
 40
0.0
 40
0.0
 40
0.0
 40
1.0
 40
1.0
 40
1.0
 40
1.0
 10
3.1898870000000001
 20
49.172435999999998
 30
0.0
 10
3.2991069999999998
 20
47.948720000000002
 30
0.0
 10
4.3261139999999996
 20
46.989446999999998
 30
0.0
 10
5.5786160000000002
 20
46.989446999999998
 30
0.0
  0
LWPOLYLINE
  5
AF
  8
Layer_1
 62
1
420
16711680
370
-1
  6
ByLayer
100
AcDbEntity
100
AcDbPolyline
 90
2
 70
0
 10
2.3762409999999998
 20
62.412326999999998
 10
2.3762409999999998
 20
50.182226999999997
  0
LWPOLYLINE
  5
B0
  8
Layer_1
 62
1
420
16711680
370
-1
  6
ByLayer
100
AcDbEntity
100
AcDbPolyline
 90
2
 70
0
 10
5.5786160000000002
 20
46.989446999999998
 10
5.5786160000000002
 20
46.989446999999998
  0
SPLINE
  5
B1
  8
Layer_1
 62
1
420
16711680
370
-1
  6
ByLayer
100
AcDbEntity
100
AcDbSpline
 70
8
 71
3
 72
8
 73
4
 74
0
 40
0.0
 40
0.0
 40
0.0
 40
0.0
 40
1.0
 40
1.0
 40
1.0
 40
1.0
 10
6.0894380000000004
 20
62.989471000000002
 30
0.0
 10
5.4267810000000001
 20
62.989471000000002
 30
0.0
 10
4.8897120000000003
 20
63.526257999999999
 30
0.0
 10
4.8897120000000003
 20
64.188916000000006
 30
0.0
  0
SPLINE
  5
B2
  8
Layer_1
 62
1
420
16711680
370
-1
  6
ByLayer
100
AcDbEntity
100
AcDbSpline
 70
8
 71
3
 72
8
 73
4
 74
0
 40
0.0
 40
0.0
 40
0.0
 40
0.0
 40
1.0
 40
1.0
 40
1.0
 40
1.0
 10
4.8897120000000003
 20
64.188916000000006
 30
0.0
 10
4.8897120000000003
 20
64.852137999999997
 30
0.0
 10
5.4267810000000001
 20
65.389206999999999
 30
0.0
 10
6.0894380000000004
 20
65.389206999999999
 30
0.0
  0
LWPOLYLINE
  5
B3
  8
Layer_1
 62
1
420
16711680
370
-1
  6
ByLayer
100
AcDbEntity
100
AcDbPolyline
 90
5
 70
0
 10
16.332694
 20
58.846449
 10
16.332694
 20
58.846449
 10
16.332694
 20
58.843626999999998
 10
16.332694
 20
58.846449
 10
16.332694
 20
58.846449
  0
SPLINE
  5
B4
  8
Layer_1
 62
1
420
16711680
370
-1
  6
ByLayer
100
AcDbEntity
100
AcDbSpline
 70
8
 71
3
 72
8
 73
4
 74
0
 40
0.0
 40
0.0
 40
0.0
 40
0.0
 40
1.0
 40
1.0
 40
1.0
 40
1.0
 10
8.9545580000000005
 20
65.389206999999999
 30
0.0
 10
9.6174979999999994
 20
65.389206999999999
 30
0.0
 10
10.154567
 20
64.852137999999997
 30
0.0
 10
10.154567
 20
64.188916000000006
 30
0.0
  0
SPLINE
  5
B5
  8
Layer_1
 62
1
420
16711680
370
-1
  6
ByLayer
100
AcDbEntity
100
AcDbSpline
 70
8
 71
3
 72
8
 73
4
 74
0
 40
0.0
 40
0.0
 40
0.0
 40
0.0
 40
1.0
 40
1.0
 40
1.0
 40
1.0
 10
10.154567
 20
64.188916000000006
 30
0.0
 10
10.154567
 20
63.526257999999999
 30
0.0
 10
9.6174979999999994
 20
62.989471000000002
 30
0.0
 10
8.9545580000000005
 20
62.989471000000002
 30
0.0
  0
LWPOLYLINE
  5
B6
  8
Layer_1
 62
1
420
16711680
370
-1
  6
ByLayer
100
AcDbEntity
100
AcDbPolyline
 90
2
 70
0
 10
6.0894380000000004
 20
65.389206999999999
 10
8.9545580000000005
 20
65.389206999999999
  0
SPLINE
  5
B7
  8
Layer_1
 62
1
420
16711680
370
-1
  6
ByLayer
100
AcDbEntity
100
AcDbSpline
 70
8
 71
3
 72
8
 73
4
 74
0
 40
0.0
 40
0.0
 40
0.0
 40
0.0
 40
1.0
 40
1.0
 40
1.0
 40
1.0
 10
5.5786160000000002
 20
48.189456
 30
0.0
 10
6.2415560000000001
 20
48.189456
 30
0.0
 10
6.7786249999999999
 20
48.726525000000002
 30
0.0
 10
6.7786249999999999
 20
49.389465000000001
 30
0.0
  0
SPLINE
  5
B8
  8
Layer_1
 62
1
420
16711680
370
-1
  6
ByLayer
100
AcDbEntity
100
AcDbSpline
 70
8
 71
3
 72
8
 73
4
 74
0
 40
0.0
 40
0.0
 40
0.0
 40
0.0
 40
1.0
 40
1.0
 40
1.0
 40
1.0
 10
6.7786249999999999
 20
49.389465000000001
 30
0.0
 10
6.7786249999999999
 20
50.051839999999999
 30
0.0
 10
6.2415560000000001
 20
50.589474000000003
 30
0.0
 10
5.5786160000000002
 20
50.589474000000003
 30
0.0
  0
SPLINE
  5
B9
  8
Layer_1
 62
1
420
16711680
370
-1
  6
ByLayer
100
AcDbEntity
100
AcDbSpline
 70
8
 71
3
 72
8
 73
4
 74
0
 40
0.0
 40
0.0
 40
0.0
 40
0.0
 40
1.0
 40
1.0
 40
1.0
 40
1.0
 10
5.5786160000000002
 20
50.589474000000003
 30
0.0
 10
4.9159579999999998
 20
50.589474000000003
 30
0.0
 10
4.3783250000000002
 20
50.051839999999999
 30
0.0
 10
4.3783250000000002
 20
49.389465000000001
 30
0.0
  0
SPLINE
  5
BA
  8
Layer_1
 62
1
420
16711680
370
-1
  6
ByLayer
100
AcDbEntity
100
AcDbSpline
 70
8
 71
3
 72
8
 73
4
 74
0
 40
0.0
 40
0.0
 40
0.0
 40
0.0
 40
1.0
 40
1.0
 40
1.0
 40
1.0
 10
4.3783250000000002
 20
49.389465000000001
 30
0.0
 10
4.3783250000000002
 20
48.726525000000002
 30
0.0
 10
4.9162410000000003
 20
48.189456
 30
0.0
 10
5.5786160000000002
 20
48.189456
 30
0.0
  0
LWPOLYLINE
  5
BB
  8
Layer_1
 62
1
420
16711680
370
-1
  6
ByLayer
100
AcDbEntity
100
AcDbPolyline
 90
3
 70
0
 10
8.9545580000000005
 20
62.989471000000002
 10
6.0894380000000004
 20
62.989471000000002
 10
6.0894380000000004
 20
62.989471000000002
  0
SPLINE
  5
BC
  8
Layer_1
 62
1
420
16711680
370
-1
  6
ByLayer
100
AcDbEntity
100
AcDbSpline
 70
8
 71
3
 72
8
 73
4
 74
0
 40
0.0
 40
0.0
 40
0.0
 40
0.0
 40
1.0
 40
1.0
 40
1.0
 40
1.0
 10
13.178578
 20
62.989471000000002
 30
0.0
 10
13.841236
 20
62.989471000000002
 30
0.0
 10
14.378587
 20
63.526257999999999
 30
0.0
 10
14.378587
 20
64.188916000000006
 30
0.0
  0
SPLINE
  5
BD
  8
Layer_1
 62
1
420
16711680
370
-1
  6
ByLayer
100
AcDbEntity
100
AcDbSpline
 70
8
 71
3
 72
8
 73
4
 74
0
 40
0.0
 40
0.0
 40
0.0
 40
0.0
 40
1.0
 40
1.0
 40
1.0
 40
1.0
 10
14.378587
 20
64.188916000000006
 30
0.0
 10
14.378587
 20
64.852137999999997
 30
0.0
 10
13.841236
 20
65.389206999999999
 30
0.0
 10
13.178578
 20
65.389206999999999
 30
0.0
  0
SPLINE
  5
BE
  8
Layer_1
 62
1
420
16711680
370
-1
  6
ByLayer
100
AcDbEntity
100
AcDbSpline
 70
8
 71
3
 72
8
 73
4
 74
0
 40
0.0
 40
0.0
 40
0.0
 40
0.0
 40
1.0
 40
1.0
 40
1.0
 40
1.0
 10
13.178578
 20
65.389206999999999
 30
0.0
 10
12.515921000000001
 20
65.389206999999999
 30
0.0
 10
11.978569
 20
64.852137999999997
 30
0.0
 10
11.978569
 20
64.188916000000006
 30
0.0
  0
SPLINE
  5
BF
  8
Layer_1
 62
1
420
16711680
370
-1
  6
ByLayer
100
AcDbEntity
100
AcDbSpline
 70
8
 71
3
 72
8
 73
4
 74
0
 40
0.0
 40
0.0
 40
0.0
 40
0.0
 40
1.0
 40
1.0
 40
1.0
 40
1.0
 10
11.978569
 20
64.188916000000006
 30
0.0
 10
11.978569
 20
63.526257999999999
 30
0.0
 10
12.515921000000001
 20
62.989471000000002
 30
0.0
 10
13.178578
 20
62.989471000000002
 30
0.0
  0
LWPOLYLINE
  5
C0
  8
Layer_1
 62
1
420
16711680
370
-1
  6
ByLayer
100
AcDbEntity
100
AcDbPolyline
 90
2
 70
0
 10
5.5786160000000002
 20
48.189456
 10
5.5786160000000002
 20
48.189456
  0
LWPOLYLINE
  5
C1
  8
Layer_1
 62
1
420
16711680
370
-1
  6
ByLayer
100
AcDbEntity
100
AcDbPolyline
 90
2
 70
0
 10
13.178578
 20
62.989471000000002
 10
13.178578
 20
62.989471000000002
  0
ENDSEC
  0
SECTION
  2
OBJECTS
  0
DICTIONARY
  5
C
100
AcDbDictionary
280
0
281
1
  3
ACAD_GROUP
350
D
  3
ACAD_LAYOUT
350
1A
  3
ACAD_MLINESTYLE
350
17
  3
ACAD_PLOTSETTINGS
350
19
  3
ACAD_PLOTSTYLENAME
350
E
  3
AcDbVariableDictionary
350
C2
  0
DICTIONARY
  5
D
100
AcDbDictionary
280
0
281
1
  0
ACDBDICTIONARYWDFLT
  5
E
100
AcDbDictionary
281
1
  3
Normal
350
F
100
AcDbDictionaryWithDefault
340
F
  0
ACDBPLACEHOLDER
  5
F
  0
DICTIONARY
  5
17
100
AcDbDictionary
280
0
281
1
  3
Standard
350
18
  0
MLINESTYLE
  5
18
100
AcDbMlineStyle
  2
STANDARD
 70
0
  3

 62
256
 51
90.0
 52
90.0
 71
2
 49
0.5
 62
256
  6
BYLAYER
 49
-0.5
 62
256
  6
BYLAYER
  0
DICTIONARY
  5
19
100
AcDbDictionary
280
0
281
1
  0
DICTIONARY
  5
1A
100
AcDbDictionary
281
1
  3
Layout1
350
1E
  3
Layout2
350
26
  3
Model
350
22
  0
LAYOUT
  5
1E
100
AcDbPlotSettings
  1

  2
C:\Program Files\AutoCAD 2002\plotters\DWF ePlot (optimized for plotting).pc3
  4

  6

 40
0.0
 41
0.0
 42
0.0
 43
0.0
 44
0.0
 45
0.0
 46
0.0
 47
0.0
 48
0.0
 49
0.0
140
0.0
141
0.0
142
1.0
143
1.0
 70
688
 72
0
 73
0
 74
5
  7

 75
16
147
1.0
148
0.0
149
0.0
100
AcDbLayout
  1
Layout1
 70
1
 71
1
 10
0.0
 20
0.0
 11
420.0
 21
297.0
 12
0.0
 22
0.0
 32
0.0
 14
100000000000000000000.0
 24
100000000000000000000.0
 34
100000000000000000000.0
 15
-100000000000000000000.0
 25
-100000000000000000000.0
 35
-100000000000000000000.0
146
0.0
 13
0.0
 23
0.0
 33
0.0
 16
1.0
 26
0.0
 36
0.0
 17
0.0
 27
1.0
 37
0.0
 76
0
330
1B
  0
LAYOUT
  5
22
100
AcDbPlotSettings
  1

  2
C:\Program Files\AutoCAD 2002\plotters\DWF ePlot (optimized for plotting).pc3
  4

  6

 40
0.0
 41
0.0
 42
0.0
 43
0.0
 44
0.0
 45
0.0
 46
0.0
 47
0.0
 48
0.0
 49
0.0
140
0.0
141
0.0
142
1.0
143
1.0
 70
1712
 72
0
 73
0
 74
0
  7

 75
0
147
1.0
148
0.0
149
0.0
100
AcDbLayout
  1
Model
 70
1
 71
0
 10
0.0
 20
0.0
 11
12.0
 21
9.0
 12
0.0
 22
0.0
 32
0.0
 14
0.0
 24
0.0
 34
0.0
 15
0.0
 25
0.0
 35
0.0
146
0.0
 13
0.0
 23
0.0
 33
0.0
 16
1.0
 26
0.0
 36
0.0
 17
0.0
 27
1.0
 37
0.0
 76
0
330
1F
  0
LAYOUT
  5
26
100
AcDbPlotSettings
  1

  2
C:\Program Files\AutoCAD 2002\plotters\DWF ePlot (optimized for plotting).pc3
  4

  6

 40
0.0
 41
0.0
 42
0.0
 43
0.0
 44
0.0
 45
0.0
 46
0.0
 47
0.0
 48
0.0
 49
0.0
140
0.0
141
0.0
142
1.0
143
1.0
 70
688
 72
0
 73
0
 74
5
  7

 75
16
147
1.0
148
0.0
149
0.0
100
AcDbLayout
  1
Layout2
 70
1
 71
2
 10
0.0
 20
0.0
 11
12.0
 21
9.0
 12
0.0
 22
0.0
 32
0.0
 14
0.0
 24
0.0
 34
0.0
 15
0.0
 25
0.0
 35
0.0
146
0.0
 13
0.0
 23
0.0
 33
0.0
 16
1.0
 26
0.0
 36
0.0
 17
0.0
 27
1.0
 37
0.0
 76
0
330
23
  0
DICTIONARY
  5
C2
100
AcDbDictionary
281
1
  3
DIMASSOC
350
C4
  3
HIDETEXT
350
C3
  0
DICTIONARYVAR
  5
C3
100
DictionaryVariables
280
0
  1
2
  0
DICTIONARYVAR
  5
C4
100
DictionaryVariables
280
0
  1
1
  0
ENDSEC
  0
EOF
