999
dxflib 2.2.0.0
  0
SECTION
  2
HEADER
  9
$ACADVER
  1
AC1015
  9
$HANDSEED
  5
FFFF
  9
$DIMASZ
 40
2.5
  9
$PLIMMIN
 10
0.0
 20
0.0
  9
$DIMEXE
 40
1.25
  9
$DIMGAP
 40
0.625
  9
$PLIMMAX
 10
210.0
 20
297.0
  9
$INSUNITS
 70
4
  9
$DIMSTYLE
  2
Standard
  9
$MEASUREMENT
 70
1
  9
$CLAYER
  8
0
  9
$DIMEXO
 40
0.625
  9
$DIMTXT
 40
2.5
  9
$CLAYER
  8
Layer_1
  0
ENDSEC
  0
SECTION
  2
TABLES
  0
TABLE
  2
VPORT
  5
8
100
AcDbSymbolTable
 70
1
  0
VPORT
  5
30
100
AcDbSymbolTableRecord
100
AcDbViewportTableRecord
  2
*Active
 70
0
 10
0.0
 20
0.0
 11
1.0
 21
1.0
 12
286.30555555555549
 22
148.5
 13
0.0
 23
0.0
 14
10.0
 24
10.0
 15
10.0
 25
10.0
 16
0.0
 26
0.0
 36
1.0
 17
0.0
 27
0.0
 37
0.0
 40
297.0
 41
1.92798353909465
 42
50.0
 43
0.0
 44
0.0
 50
0.0
 51
0.0
 71
0
 72
100
 73
1
 74
3
 75
1
 76
1
 77
0
 78
0
281
0
 65
1
110
0.0
120
0.0
130
0.0
111
1.0
121
0.0
131
0.0
112
0.0
122
1.0
132
0.0
 79
0
146
0.0
  0
ENDTAB
  0
TABLE
  2
LTYPE
  5
5
100
AcDbSymbolTable
 70
21
  0
LTYPE
  5
14
100
AcDbSymbolTableRecord
100
AcDbLinetypeTableRecord
  2
ByBlock
 70
0
  3

 72
65
 73
0
 40
0.0
  0
LTYPE
  5
15
100
AcDbSymbolTableRecord
100
AcDbLinetypeTableRecord
  2
ByLayer
 70
0
  3

 72
65
 73
0
 40
0.0
  0
LTYPE
  5
16
100
AcDbSymbolTableRecord
100
AcDbLinetypeTableRecord
  2
CONTINUOUS
 70
0
  3
Solid line
 72
65
 73
0
 40
0.0
  0
LTYPE
  5
31
100
AcDbSymbolTableRecord
100
AcDbLinetypeTableRecord
  2
DOT
 70
0
  3
Dot . . . . . . . . . . . . . . . . . . . . . .
 72
65
 73
2
 40
6.3499999999999996
 49
0.0
 74
0
 49
-6.3499999999999996
 74
0
  0
LTYPE
  5
32
100
AcDbSymbolTableRecord
100
AcDbLinetypeTableRecord
  2
DOT2
 70
0
  3
Dot (.5x) .....................................
 72
65
 73
2
 40
3.1749999999999998
 49
0.0
 74
0
 49
-3.1749999999999998
 74
0
  0
LTYPE
  5
33
100
AcDbSymbolTableRecord
100
AcDbLinetypeTableRecord
  2
DOTX2
 70
0
  3
Dot (2x) .  .  .  .  .  .  .  .  .  .  .  .  .
 72
65
 73
2
 40
12.699999999999999
 49
0.0
 74
0
 49
-12.699999999999999
 74
0
  0
LTYPE
  5
34
100
AcDbSymbolTableRecord
100
AcDbLinetypeTableRecord
  2
DASHED
 70
0
  3
Dashed __ __ __ __ __ __ __ __ __ __ __ __ __ _
 72
65
 73
2
 40
19.050000000000001
 49
12.699999999999999
 74
0
 49
-6.3499999999999996
 74
0
  0
LTYPE
  5
35
100
AcDbSymbolTableRecord
100
AcDbLinetypeTableRecord
  2
DASHED2
 70
0
  3
Dashed (.5x) _ _ _ _ _ _ _ _ _ _ _ _ _ _ _ _ _
 72
65
 73
2
 40
9.5250000000000004
 49
6.3499999999999996
 74
0
 49
-3.1749999999999998
 74
0
  0
LTYPE
  5
36
100
AcDbSymbolTableRecord
100
AcDbLinetypeTableRecord
  2
DASHEDX2
 70
0
  3
Dashed (2x) ____  ____  ____  ____  ____  ___
 72
65
 73
2
 40
38.100000000000001
 49
25.399999999999999
 74
0
 49
-12.699999999999999
 74
0
  0
LTYPE
  5
37
100
AcDbSymbolTableRecord
100
AcDbLinetypeTableRecord
  2
DASHDOT
 70
0
  3
Dash dot __ . __ . __ . __ . __ . __ . __ . __
 72
65
 73
4
 40
25.399999999999999
 49
12.699999999999999
 74
0
 49
-6.3499999999999996
 74
0
 49
0.0
 74
0
 49
-6.3499999999999996
 74
0
  0
LTYPE
  5
38
100
AcDbSymbolTableRecord
100
AcDbLinetypeTableRecord
  2
DASHDOT2
 70
0
  3
Dash dot (.5x) _._._._._._._._._._._._._._._.
 72
65
 73
4
 40
12.699999999999999
 49
6.3499999999999996
 74
0
 49
-3.1749999999999998
 74
0
 49
0.0
 74
0
 49
-3.1749999999999998
 74
0
  0
LTYPE
  5
39
100
AcDbSymbolTableRecord
100
AcDbLinetypeTableRecord
  2
DASHDOTX2
 70
0
  3
Dash dot (2x) ____  .  ____  .  ____  .  ___
 72
65
 73
4
 40
50.799999999999997
 49
25.399999999999999
 74
0
 49
-12.699999999999999
 74
0
 49
0.0
 74
0
 49
-12.699999999999999
 74
0
  0
LTYPE
  5
3A
100
AcDbSymbolTableRecord
100
AcDbLinetypeTableRecord
  2
DIVIDE
 70
0
  3
Divide ____ . . ____ . . ____ . . ____ . . ____
 72
65
 73
6
 40
31.75
 49
12.699999999999999
 74
0
 49
-6.3499999999999996
 74
0
 49
0.0
 74
0
 49
-6.3499999999999996
 74
0
 49
0.0
 74
0
 49
-6.3499999999999996
 74
0
  0
LTYPE
  5
3B
100
AcDbSymbolTableRecord
100
AcDbLinetypeTableRecord
  2
DIVIDE2
 70
0
  3
Divide (.5x) __..__..__..__..__..__..__..__.._
 72
65
 73
6
 40
15.875
 49
6.3499999999999996
 74
0
 49
-3.1749999999999998
 74
0
 49
0.0
 74
0
 49
-3.1749999999999998
 74
0
 49
0.0
 74
0
 49
-3.1749999999999998
 74
0
  0
LTYPE
  5
3C
100
AcDbSymbolTableRecord
100
AcDbLinetypeTableRecord
  2
DIVIDEX2
 70
0
  3
Divide (2x) ________  .  .  ________  .  .  _
 72
65
 73
6
 40
63.5
 49
25.399999999999999
 74
0
 49
-12.699999999999999
 74
0
 49
0.0
 74
0
 49
-12.699999999999999
 74
0
 49
0.0
 74
0
 49
-12.699999999999999
 74
0
  0
LTYPE
  5
3D
100
AcDbSymbolTableRecord
100
AcDbLinetypeTableRecord
  2
CENTER
 70
0
  3
Center ____ _ ____ _ ____ _ ____ _ ____ _ ____
 72
65
 73
4
 40
50.799999999999997
 49
31.75
 74
0
 49
-6.3499999999999996
 74
0
 49
6.3499999999999996
 74
0
 49
-6.3499999999999996
 74
0
  0
LTYPE
  5
3E
100
AcDbSymbolTableRecord
100
AcDbLinetypeTableRecord
  2
CENTER2
 70
0
  3
Center (.5x) ___ _ ___ _ ___ _ ___ _ ___ _ ___
 72
65
 73
4
 40
28.574999999999999
 49
19.050000000000001
 74
0
 49
-3.1749999999999998
 74
0
 49
3.1749999999999998
 74
0
 49
-3.1749999999999998
 74
0
  0
LTYPE
  5
3F
100
AcDbSymbolTableRecord
100
AcDbLinetypeTableRecord
  2
CENTERX2
 70
0
  3
Center (2x) ________  __  ________  __  _____
 72
65
 73
4
 40
101.59999999999999
 49
63.5
 74
0
 49
-12.699999999999999
 74
0
 49
12.699999999999999
 74
0
 49
-12.699999999999999
 74
0
  0
LTYPE
  5
40
100
AcDbSymbolTableRecord
100
AcDbLinetypeTableRecord
  2
BORDER
 70
0
  3
Border __ __ . __ __ . __ __ . __ __ . __ __ .
 72
65
 73
6
 40
44.450000000000003
 49
12.699999999999999
 74
0
 49
-6.3499999999999996
 74
0
 49
12.699999999999999
 74
0
 49
-6.3499999999999996
 74
0
 49
0.0
 74
0
 49
-6.3499999999999996
 74
0
  0
LTYPE
  5
41
100
AcDbSymbolTableRecord
100
AcDbLinetypeTableRecord
  2
BORDER2
 70
0
  3
Border (.5x) __.__.__.__.__.__.__.__.__.__.__.
 72
65
 73
6
 40
22.225000000000001
 49
6.3499999999999996
 74
0
 49
-3.1749999999999998
 74
0
 49
6.3499999999999996
 74
0
 49
-3.1749999999999998
 74
0
 49
0.0
 74
0
 49
-3.1749999999999998
 74
0
  0
LTYPE
  5
42
100
AcDbSymbolTableRecord
100
AcDbLinetypeTableRecord
  2
BORDERX2
 70
0
  3
Border (2x) ____  ____  .  ____  ____  .  ___
 72
65
 73
6
 40
88.900000000000006
 49
25.399999999999999
 74
0
 49
-12.699999999999999
 74
0
 49
25.399999999999999
 74
0
 49
-12.699999999999999
 74
0
 49
0.0
 74
0
 49
-12.699999999999999
 74
0
  0
ENDTAB
  0
TABLE
  2
LAYER
  5
2
100
AcDbSymbolTable
 70
3
  0
LAYER
  5
10
100
AcDbSymbolTableRecord
100
AcDbLayerTableRecord
  2
0
 70
0
 62
7
420
16777215
  6
CONTINUOUS
390
F
  0
LAYER
  5
43
100
AcDbSymbolTableRecord
100
AcDbLayerTableRecord
  2
Layer_1
 70
0
 62
7
420
16777215
  6
CONTINUOUS
390
F
  0
LAYER
  5
44
100
AcDbSymbolTableRecord
100
AcDbLayerTableRecord
  2
Laser cut size
 70
0
 62
3
420
65280
  6
CONTINUOUS
370
0
390
F
  0
ENDTAB
  0
TABLE
  2
STYLE
  5
3
100
AcDbSymbolTable
 70
1
  0
STYLE
  5
11
100
AcDbSymbolTableRecord
100
AcDbTextStyleTableRecord
  2
Standard
 70
0
 40
0.0
 41
0.75
 50
0.0
 71
0
 42
2.5
  3
txt
  4

  0
ENDTAB
  0
TABLE
  2
VIEW
  5
6
100
AcDbSymbolTable
 70
0
  0
ENDTAB
  0
TABLE
  2
UCS
  5
7
100
AcDbSymbolTable
 70
0
  0
ENDTAB
  0
TABLE
  2
APPID
  5
9
100
AcDbSymbolTable
 70
1
  0
APPID
  5
12
100
AcDbSymbolTableRecord
100
AcDbRegAppTableRecord
  2
ACAD
 70
0
  0
ENDTAB
  0
TABLE
  2
DIMSTYLE
  5
A
100
AcDbSymbolTable
 70
1
100
AcDbDimStyleTable
 71
0
  0
DIMSTYLE
105
27
100
AcDbSymbolTableRecord
100
AcDbDimStyleTableRecord
  2
Standard
 41
2.5
 42
0.625
 43
3.75
 44
1.25
 70
0
 73
0
 74
0
 77
1
 78
8
140
2.5
141
2.5
143
0.03937007874016
147
0.625
171
3
172
1
271
2
272
2
274
3
278
44
283
0
284
8
340
11
  0
ENDTAB
  0
TABLE
  2
BLOCK_RECORD
  5
1
100
AcDbSymbolTable
 70
1
  0
BLOCK_RECORD
  5
1F
100
AcDbSymbolTableRecord
100
AcDbBlockTableRecord
  2
*Model_Space
340
22
  0
BLOCK_RECORD
  5
1B
100
AcDbSymbolTableRecord
100
AcDbBlockTableRecord
  2
*Paper_Space
340
1E
  0
BLOCK_RECORD
  5
23
100
AcDbSymbolTableRecord
100
AcDbBlockTableRecord
  2
*Paper_Space0
340
26
  0
ENDTAB
  0
ENDSEC
  0
SECTION
  2
BLOCKS
  0
BLOCK
  5
20
100
AcDbEntity
  8
0
100
AcDbBlockBegin
  2
*Model_Space
 70
0
 10
0.0
 20
0.0
 30
0.0
  3
*Model_Space
  1

  0
ENDBLK
  5
21
100
AcDbEntity
  8
0
100
AcDbBlockEnd
  0
BLOCK
  5
1C
100
AcDbEntity
 67
1
  8
0
100
AcDbBlockBegin
  2
*Paper_Space
 70
0
 10
0.0
 20
0.0
 30
0.0
  3
*Paper_Space
  1

  0
ENDBLK
  5
1D
100
AcDbEntity
 67
1
  8
0
100
AcDbBlockEnd
  0
BLOCK
  5
24
100
AcDbEntity
  8
0
100
AcDbBlockBegin
  2
*Paper_Space0
 70
0
 10
0.0
 20
0.0
 30
0.0
  3
*Paper_Space0
  1

  0
ENDBLK
  5
25
100
AcDbEntity
  8
0
100
AcDbBlockEnd
  0
ENDSEC
  0
SECTION
  2
ENTITIES
  0
SPLINE
  5
45
  8
Layer_1
 62
1
420
16711680
370
-1
  6
ByLayer
100
AcDbEntity
100
AcDbSpline
 70
8
 71
3
 72
8
 73
4
 74
0
 40
0.0
 40
0.0
 40
0.0
 40
0.0
 40
1.0
 40
1.0
 40
1.0
 40
1.0
 10
33.694105
 20
9.5648990000000005
 30
0.0
 10
33.694105
 20
10.344396
 30
0.0
 10
34.328539999999997
 20
10.978267000000001
 30
0.0
 10
35.107474000000003
 20
10.978267000000001
 30
0.0
  0
SPLINE
  5
46
  8
Layer_1
 62
1
420
16711680
370
-1
  6
ByLayer
100
AcDbEntity
100
AcDbSpline
 70
8
 71
3
 72
8
 73
4
 74
0
 40
0.0
 40
0.0
 40
0.0
 40
0.0
 40
1.0
 40
1.0
 40
1.0
 40
1.0
 10
35.814157999999999
 20
10.938473999999999
 30
0.0
 10
35.814157999999999
 20
10.320971999999999
 30
0.0
 10
36.316231000000002
 20
9.8186160000000005
 30
0.0
 10
36.934579999999997
 20
9.8186160000000005
 30
0.0
  0
SPLINE
  5
47
  8
Layer_1
 62
1
420
16711680
370
-1
  6
ByLayer
100
AcDbEntity
100
AcDbSpline
 70
8
 71
3
 72
8
 73
4
 74
0
 40
0.0
 40
0.0
 40
0.0
 40
0.0
 40
1.0
 40
1.0
 40
1.0
 40
1.0
 10
36.934579999999997
 20
9.8186160000000005
 30
0.0
 10
37.5518
 20
9.8186160000000005
 30
0.0
 10
38.054437999999998
 20
10.320971999999999
 30
0.0
 10
38.054437999999998
 20
10.938473999999999
 30
0.0
  0
LWPOLYLINE
  5
48
  8
Layer_1
 62
1
420
16711680
370
-1
  6
ByLayer
100
AcDbEntity
100
AcDbPolyline
 90
3
 70
0
 10
35.107474000000003
 20
10.978267000000001
 10
35.814157999999999
 20
10.978267000000001
 10
35.814157999999999
 20
10.938473999999999
  0
SPLINE
  5
49
  8
Layer_1
 62
1
420
16711680
370
-1
  6
ByLayer
100
AcDbEntity
100
AcDbSpline
 70
8
 71
3
 72
8
 73
4
 74
0
 40
0.0
 40
0.0
 40
0.0
 40
0.0
 40
1.0
 40
1.0
 40
1.0
 40
1.0
 10
38.761122
 20
10.978267000000001
 30
0.0
 10
39.540056
 20
10.978267000000001
 30
0.0
 10
40.173926999999999
 20
10.344396
 30
0.0
 10
40.173926999999999
 20
9.5648990000000005
 30
0.0
  0
LWPOLYLINE
  5
4A
  8
Layer_1
 62
1
420
16711680
370
-1
  6
ByLayer
100
AcDbEntity
100
AcDbPolyline
 90
3
 70
0
 10
38.054437999999998
 20
10.938473999999999
 10
38.054437999999998
 20
10.978267000000001
 10
38.761122
 20
10.978267000000001
  0
SPLINE
  5
4B
  8
Layer_1
 62
1
420
16711680
370
-1
  6
ByLayer
100
AcDbEntity
100
AcDbSpline
 70
8
 71
3
 72
8
 73
4
 74
0
 40
0.0
 40
0.0
 40
0.0
 40
0.0
 40
1.0
 40
1.0
 40
1.0
 40
1.0
 10
40.173926999999999
 20
4.3124609999999999
 30
0.0
 10
40.173926999999999
 20
3.533245
 30
0.0
 10
39.540056
 20
2.8988100000000001
 30
0.0
 10
38.761122
 20
2.8988100000000001
 30
0.0
  0
LWPOLYLINE
  5
4C
  8
Layer_1
 62
1
420
16711680
370
-1
  6
ByLayer
100
AcDbEntity
100
AcDbPolyline
 90
2
 70
0
 10
40.173926999999999
 20
9.5648990000000005
 10
40.173926999999999
 20
4.3124609999999999
  0
SPLINE
  5
4D
  8
Layer_1
 62
1
420
16711680
370
-1
  6
ByLayer
100
AcDbEntity
100
AcDbSpline
 70
8
 71
3
 72
8
 73
4
 74
0
 40
0.0
 40
0.0
 40
0.0
 40
0.0
 40
1.0
 40
1.0
 40
1.0
 40
1.0
 10
38.054437999999998
 20
2.9386030000000001
 30
0.0
 10
38.054437999999998
 20
3.556387
 30
0.0
 10
37.5518
 20
4.0587429999999998
 30
0.0
 10
36.934579999999997
 20
4.0587429999999998
 30
0.0
  0
SPLINE
  5
4E
  8
Layer_1
 62
1
420
16711680
370
-1
  6
ByLayer
100
AcDbEntity
100
AcDbSpline
 70
8
 71
3
 72
8
 73
4
 74
0
 40
0.0
 40
0.0
 40
0.0
 40
0.0
 40
1.0
 40
1.0
 40
1.0
 40
1.0
 10
36.934579999999997
 20
4.0587429999999998
 30
0.0
 10
36.316513999999998
 20
4.0587429999999998
 30
0.0
 10
35.814157999999999
 20
3.55667
 30
0.0
 10
35.814157999999999
 20
2.9386030000000001
 30
0.0
  0
LWPOLYLINE
  5
4F
  8
Layer_1
 62
1
420
16711680
370
-1
  6
ByLayer
100
AcDbEntity
100
AcDbPolyline
 90
3
 70
0
 10
38.761122
 20
2.8988100000000001
 10
38.054437999999998
 20
2.8988100000000001
 10
38.054437999999998
 20
2.9386030000000001
  0
SPLINE
  5
50
  8
Layer_1
 62
1
420
16711680
370
-1
  6
ByLayer
100
AcDbEntity
100
AcDbSpline
 70
8
 71
3
 72
8
 73
4
 74
0
 40
0.0
 40
0.0
 40
0.0
 40
0.0
 40
1.0
 40
1.0
 40
1.0
 40
1.0
 10
35.107474000000003
 20
2.8988100000000001
 30
0.0
 10
34.328539999999997
 20
2.8988100000000001
 30
0.0
 10
33.694105
 20
3.533245
 30
0.0
 10
33.694105
 20
4.3124609999999999
 30
0.0
  0
SPLINE
  5
51
  8
Layer_1
 62
1
420
16711680
370
-1
  6
ByLayer
100
AcDbEntity
100
AcDbSpline
 70
8
 71
3
 72
8
 73
4
 74
0
 40
0.0
 40
0.0
 40
0.0
 40
0.0
 40
1.0
 40
1.0
 40
1.0
 40
1.0
 10
35.934384999999999
 20
6.9385389999999996
 30
0.0
 10
35.934384999999999
 20
7.4905650000000001
 30
0.0
 10
36.381706999999999
 20
7.9384519999999998
 30
0.0
 10
36.934297999999998
 20
7.9384519999999998
 30
0.0
  0
SPLINE
  5
52
  8
Layer_1
 62
1
420
16711680
370
-1
  6
ByLayer
100
AcDbEntity
100
AcDbSpline
 70
8
 71
3
 72
8
 73
4
 74
0
 40
0.0
 40
0.0
 40
0.0
 40
0.0
 40
1.0
 40
1.0
 40
1.0
 40
1.0
 10
36.934297999999998
 20
7.9384519999999998
 30
0.0
 10
37.486041999999998
 20
7.9384519999999998
 30
0.0
 10
37.933928999999999
 20
7.4905650000000001
 30
0.0
 10
37.933928999999999
 20
6.9385389999999996
 30
0.0
  0
SPLINE
  5
53
  8
Layer_1
 62
1
420
16711680
370
-1
  6
ByLayer
100
AcDbEntity
100
AcDbSpline
 70
8
 71
3
 72
8
 73
4
 74
0
 40
0.0
 40
0.0
 40
0.0
 40
0.0
 40
1.0
 40
1.0
 40
1.0
 40
1.0
 10
37.933928999999999
 20
6.9385389999999996
 30
0.0
 10
37.933928999999999
 20
6.3862300000000003
 30
0.0
 10
37.486041999999998
 20
5.9383429999999997
 30
0.0
 10
36.934297999999998
 20
5.9383429999999997
 30
0.0
  0
SPLINE
  5
54
  8
Layer_1
 62
1
420
16711680
370
-1
  6
ByLayer
100
AcDbEntity
100
AcDbSpline
 70
8
 71
3
 72
8
 73
4
 74
0
 40
0.0
 40
0.0
 40
0.0
 40
0.0
 40
1.0
 40
1.0
 40
1.0
 40
1.0
 10
36.934297999999998
 20
5.9383429999999997
 30
0.0
 10
36.381706999999999
 20
5.9383429999999997
 30
0.0
 10
35.934384999999999
 20
6.3862300000000003
 30
0.0
 10
35.934384999999999
 20
6.9385389999999996
 30
0.0
  0
LWPOLYLINE
  5
55
  8
Layer_1
 62
1
420
16711680
370
-1
  6
ByLayer
100
AcDbEntity
100
AcDbPolyline
 90
3
 70
0
 10
35.814157999999999
 20
2.9386030000000001
 10
35.814157999999999
 20
2.8988100000000001
 10
35.107474000000003
 20
2.8988100000000001
  0
SPLINE
  5
56
  8
Layer_1
 62
1
420
16711680
370
-1
  6
ByLayer
100
AcDbEntity
100
AcDbSpline
 70
8
 71
3
 72
8
 73
4
 74
0
 40
0.0
 40
0.0
 40
0.0
 40
0.0
 40
1.0
 40
1.0
 40
1.0
 40
1.0
 10
27.213999999999999
 20
9.5648990000000005
 30
0.0
 10
27.213999999999999
 20
10.344396
 30
0.0
 10
27.848436
 20
10.978267000000001
 30
0.0
 10
28.627369000000002
 20
10.978267000000001
 30
0.0
  0
LWPOLYLINE
  5
57
  8
Layer_1
 62
1
420
16711680
370
-1
  6
ByLayer
100
AcDbEntity
100
AcDbPolyline
 90
2
 70
0
 10
35.934384999999999
 20
6.9385389999999996
 10
35.934384999999999
 20
6.9385389999999996
  0
SPLINE
  5
58
  8
Layer_1
 62
1
420
16711680
370
-1
  6
ByLayer
100
AcDbEntity
100
AcDbSpline
 70
8
 71
3
 72
8
 73
4
 74
0
 40
0.0
 40
0.0
 40
0.0
 40
0.0
 40
1.0
 40
1.0
 40
1.0
 40
1.0
 10
29.334053999999998
 20
10.938473999999999
 30
0.0
 10
29.334053999999998
 20
10.320971999999999
 30
0.0
 10
29.836690999999998
 20
9.8186160000000005
 30
0.0
 10
30.454476
 20
9.8186160000000005
 30
0.0
  0
SPLINE
  5
59
  8
Layer_1
 62
1
420
16711680
370
-1
  6
ByLayer
100
AcDbEntity
100
AcDbSpline
 70
8
 71
3
 72
8
 73
4
 74
0
 40
0.0
 40
0.0
 40
0.0
 40
0.0
 40
1.0
 40
1.0
 40
1.0
 40
1.0
 10
30.454476
 20
9.8186160000000005
 30
0.0
 10
31.071695999999999
 20
9.8186160000000005
 30
0.0
 10
31.574334
 20
10.320971999999999
 30
0.0
 10
31.574334
 20
10.938473999999999
 30
0.0
  0
LWPOLYLINE
  5
5A
  8
Layer_1
 62
1
420
16711680
370
-1
  6
ByLayer
100
AcDbEntity
100
AcDbPolyline
 90
3
 70
0
 10
28.627369000000002
 20
10.978267000000001
 10
29.334053999999998
 20
10.978267000000001
 10
29.334053999999998
 20
10.938473999999999
  0
SPLINE
  5
5B
  8
Layer_1
 62
1
420
16711680
370
-1
  6
ByLayer
100
AcDbEntity
100
AcDbSpline
 70
8
 71
3
 72
8
 73
4
 74
0
 40
0.0
 40
0.0
 40
0.0
 40
0.0
 40
1.0
 40
1.0
 40
1.0
 40
1.0
 10
32.281018000000003
 20
10.978267000000001
 30
0.0
 10
33.059950999999998
 20
10.978267000000001
 30
0.0
 10
33.694386999999999
 20
10.344396
 30
0.0
 10
33.694386999999999
 20
9.5648990000000005
 30
0.0
  0
LWPOLYLINE
  5
5C
  8
Layer_1
 62
1
420
16711680
370
-1
  6
ByLayer
100
AcDbEntity
100
AcDbPolyline
 90
3
 70
0
 10
31.574334
 20
10.938473999999999
 10
31.574334
 20
10.978267000000001
 10
32.281018000000003
 20
10.978267000000001
  0
SPLINE
  5
5D
  8
Layer_1
 62
1
420
16711680
370
-1
  6
ByLayer
100
AcDbEntity
100
AcDbSpline
 70
8
 71
3
 72
8
 73
4
 74
0
 40
0.0
 40
0.0
 40
0.0
 40
0.0
 40
1.0
 40
1.0
 40
1.0
 40
1.0
 10
33.694386999999999
 20
4.3124609999999999
 30
0.0
 10
33.694386999999999
 20
3.533245
 30
0.0
 10
33.059950999999998
 20
2.8988100000000001
 30
0.0
 10
32.281018000000003
 20
2.8988100000000001
 30
0.0
  0
LWPOLYLINE
  5
5E
  8
Layer_1
 62
1
420
16711680
370
-1
  6
ByLayer
100
AcDbEntity
100
AcDbPolyline
 90
2
 70
0
 10
33.694386999999999
 20
9.5648990000000005
 10
33.694386999999999
 20
4.3124609999999999
  0
SPLINE
  5
5F
  8
Layer_1
 62
1
420
16711680
370
-1
  6
ByLayer
100
AcDbEntity
100
AcDbSpline
 70
8
 71
3
 72
8
 73
4
 74
0
 40
0.0
 40
0.0
 40
0.0
 40
0.0
 40
1.0
 40
1.0
 40
1.0
 40
1.0
 10
31.574334
 20
2.9386030000000001
 30
0.0
 10
31.574334
 20
3.556387
 30
0.0
 10
31.071695999999999
 20
4.0587429999999998
 30
0.0
 10
30.454476
 20
4.0587429999999998
 30
0.0
  0
SPLINE
  5
60
  8
Layer_1
 62
1
420
16711680
370
-1
  6
ByLayer
100
AcDbEntity
100
AcDbSpline
 70
8
 71
3
 72
8
 73
4
 74
0
 40
0.0
 40
0.0
 40
0.0
 40
0.0
 40
1.0
 40
1.0
 40
1.0
 40
1.0
 10
30.454476
 20
4.0587429999999998
 30
0.0
 10
29.836974000000001
 20
4.0587429999999998
 30
0.0
 10
29.334053999999998
 20
3.55667
 30
0.0
 10
29.334053999999998
 20
2.9386030000000001
 30
0.0
  0
LWPOLYLINE
  5
61
  8
Layer_1
 62
1
420
16711680
370
-1
  6
ByLayer
100
AcDbEntity
100
AcDbPolyline
 90
3
 70
0
 10
32.281018000000003
 20
2.8988100000000001
 10
31.574334
 20
2.8988100000000001
 10
31.574334
 20
2.9386030000000001
  0
SPLINE
  5
62
  8
Layer_1
 62
1
420
16711680
370
-1
  6
ByLayer
100
AcDbEntity
100
AcDbSpline
 70
8
 71
3
 72
8
 73
4
 74
0
 40
0.0
 40
0.0
 40
0.0
 40
0.0
 40
1.0
 40
1.0
 40
1.0
 40
1.0
 10
28.627369000000002
 20
2.8988100000000001
 30
0.0
 10
27.848436
 20
2.8988100000000001
 30
0.0
 10
27.213999999999999
 20
3.533245
 30
0.0
 10
27.213999999999999
 20
4.3124609999999999
 30
0.0
  0
SPLINE
  5
63
  8
Layer_1
 62
1
420
16711680
370
-1
  6
ByLayer
100
AcDbEntity
100
AcDbSpline
 70
8
 71
3
 72
8
 73
4
 74
0
 40
0.0
 40
0.0
 40
0.0
 40
0.0
 40
1.0
 40
1.0
 40
1.0
 40
1.0
 10
29.454280000000001
 20
6.9385389999999996
 30
0.0
 10
29.454280000000001
 20
7.4905650000000001
 30
0.0
 10
29.901319999999998
 20
7.9384519999999998
 30
0.0
 10
30.454194000000001
 20
7.9384519999999998
 30
0.0
  0
SPLINE
  5
64
  8
Layer_1
 62
1
420
16711680
370
-1
  6
ByLayer
100
AcDbEntity
100
AcDbSpline
 70
8
 71
3
 72
8
 73
4
 74
0
 40
0.0
 40
0.0
 40
0.0
 40
0.0
 40
1.0
 40
1.0
 40
1.0
 40
1.0
 10
30.454194000000001
 20
7.9384519999999998
 30
0.0
 10
31.005938
 20
7.9384519999999998
 30
0.0
 10
31.453541999999999
 20
7.4905650000000001
 30
0.0
 10
31.453541999999999
 20
6.9385389999999996
 30
0.0
  0
SPLINE
  5
65
  8
Layer_1
 62
1
420
16711680
370
-1
  6
ByLayer
100
AcDbEntity
100
AcDbSpline
 70
8
 71
3
 72
8
 73
4
 74
0
 40
0.0
 40
0.0
 40
0.0
 40
0.0
 40
1.0
 40
1.0
 40
1.0
 40
1.0
 10
31.453541999999999
 20
6.9385389999999996
 30
0.0
 10
31.453541999999999
 20
6.3862300000000003
 30
0.0
 10
31.005938
 20
5.9383429999999997
 30
0.0
 10
30.454194000000001
 20
5.9383429999999997
 30
0.0
  0
SPLINE
  5
66
  8
Layer_1
 62
1
420
16711680
370
-1
  6
ByLayer
100
AcDbEntity
100
AcDbSpline
 70
8
 71
3
 72
8
 73
4
 74
0
 40
0.0
 40
0.0
 40
0.0
 40
0.0
 40
1.0
 40
1.0
 40
1.0
 40
1.0
 10
30.454194000000001
 20
5.9383429999999997
 30
0.0
 10
29.901319999999998
 20
5.9383429999999997
 30
0.0
 10
29.454280000000001
 20
6.3862300000000003
 30
0.0
 10
29.454280000000001
 20
6.9385389999999996
 30
0.0
  0
LWPOLYLINE
  5
67
  8
Layer_1
 62
1
420
16711680
370
-1
  6
ByLayer
100
AcDbEntity
100
AcDbPolyline
 90
3
 70
0
 10
29.334053999999998
 20
2.9386030000000001
 10
29.334053999999998
 20
2.8988100000000001
 10
28.627369000000002
 20
2.8988100000000001
  0
SPLINE
  5
68
  8
Layer_1
 62
1
420
16711680
370
-1
  6
ByLayer
100
AcDbEntity
100
AcDbSpline
 70
8
 71
3
 72
8
 73
4
 74
0
 40
0.0
 40
0.0
 40
0.0
 40
0.0
 40
1.0
 40
1.0
 40
1.0
 40
1.0
 10
20.734459999999999
 20
9.5648990000000005
 30
0.0
 10
20.734459999999999
 20
10.344396
 30
0.0
 10
21.368331000000001
 20
10.978267000000001
 30
0.0
 10
22.147265000000001
 20
10.978267000000001
 30
0.0
  0
LWPOLYLINE
  5
69
  8
Layer_1
 62
1
420
16711680
370
-1
  6
ByLayer
100
AcDbEntity
100
AcDbPolyline
 90
2
 70
0
 10
29.454280000000001
 20
6.9385389999999996
 10
29.454280000000001
 20
6.9385389999999996
  0
SPLINE
  5
6A
  8
Layer_1
 62
1
420
16711680
370
-1
  6
ByLayer
100
AcDbEntity
100
AcDbSpline
 70
8
 71
3
 72
8
 73
4
 74
0
 40
0.0
 40
0.0
 40
0.0
 40
0.0
 40
1.0
 40
1.0
 40
1.0
 40
1.0
 10
22.853949
 20
10.938473999999999
 30
0.0
 10
22.853949
 20
10.320971999999999
 30
0.0
 10
23.356587000000001
 20
9.8186160000000005
 30
0.0
 10
23.974371000000001
 20
9.8186160000000005
 30
0.0
  0
SPLINE
  5
6B
  8
Layer_1
 62
1
420
16711680
370
-1
  6
ByLayer
100
AcDbEntity
100
AcDbSpline
 70
8
 71
3
 72
8
 73
4
 74
0
 40
0.0
 40
0.0
 40
0.0
 40
0.0
 40
1.0
 40
1.0
 40
1.0
 40
1.0
 10
23.974371000000001
 20
9.8186160000000005
 30
0.0
 10
24.592155999999999
 20
9.8186160000000005
 30
0.0
 10
25.093947
 20
10.320971999999999
 30
0.0
 10
25.093947
 20
10.938473999999999
 30
0.0
  0
LWPOLYLINE
  5
6C
  8
Layer_1
 62
1
420
16711680
370
-1
  6
ByLayer
100
AcDbEntity
100
AcDbPolyline
 90
3
 70
0
 10
22.147265000000001
 20
10.978267000000001
 10
22.853949
 20
10.978267000000001
 10
22.853949
 20
10.938473999999999
  0
SPLINE
  5
6D
  8
Layer_1
 62
1
420
16711680
370
-1
  6
ByLayer
100
AcDbEntity
100
AcDbSpline
 70
8
 71
3
 72
8
 73
4
 74
0
 40
0.0
 40
0.0
 40
0.0
 40
0.0
 40
1.0
 40
1.0
 40
1.0
 40
1.0
 10
25.800913999999999
 20
10.978267000000001
 30
0.0
 10
26.579847000000001
 20
10.978267000000001
 30
0.0
 10
27.214282000000001
 20
10.344396
 30
0.0
 10
27.214282000000001
 20
9.5648990000000005
 30
0.0
  0
LWPOLYLINE
  5
6E
  8
Layer_1
 62
1
420
16711680
370
-1
  6
ByLayer
100
AcDbEntity
100
AcDbPolyline
 90
3
 70
0
 10
25.093947
 20
10.938473999999999
 10
25.093947
 20
10.978267000000001
 10
25.800913999999999
 20
10.978267000000001
  0
SPLINE
  5
6F
  8
Layer_1
 62
1
420
16711680
370
-1
  6
ByLayer
100
AcDbEntity
100
AcDbSpline
 70
8
 71
3
 72
8
 73
4
 74
0
 40
0.0
 40
0.0
 40
0.0
 40
0.0
 40
1.0
 40
1.0
 40
1.0
 40
1.0
 10
27.214282000000001
 20
4.3124609999999999
 30
0.0
 10
27.214282000000001
 20
3.533245
 30
0.0
 10
26.579847000000001
 20
2.8988100000000001
 30
0.0
 10
25.800913999999999
 20
2.8988100000000001
 30
0.0
  0
LWPOLYLINE
  5
70
  8
Layer_1
 62
1
420
16711680
370
-1
  6
ByLayer
100
AcDbEntity
100
AcDbPolyline
 90
2
 70
0
 10
27.214282000000001
 20
9.5648990000000005
 10
27.214282000000001
 20
4.3124609999999999
  0
SPLINE
  5
71
  8
Layer_1
 62
1
420
16711680
370
-1
  6
ByLayer
100
AcDbEntity
100
AcDbSpline
 70
8
 71
3
 72
8
 73
4
 74
0
 40
0.0
 40
0.0
 40
0.0
 40
0.0
 40
1.0
 40
1.0
 40
1.0
 40
1.0
 10
25.093947
 20
2.9386030000000001
 30
0.0
 10
25.093947
 20
3.556387
 30
0.0
 10
24.592155999999999
 20
4.0587429999999998
 30
0.0
 10
23.974371000000001
 20
4.0587429999999998
 30
0.0
  0
SPLINE
  5
72
  8
Layer_1
 62
1
420
16711680
370
-1
  6
ByLayer
100
AcDbEntity
100
AcDbSpline
 70
8
 71
3
 72
8
 73
4
 74
0
 40
0.0
 40
0.0
 40
0.0
 40
0.0
 40
1.0
 40
1.0
 40
1.0
 40
1.0
 10
23.974371000000001
 20
4.0587429999999998
 30
0.0
 10
23.356587000000001
 20
4.0587429999999998
 30
0.0
 10
22.853949
 20
3.55667
 30
0.0
 10
22.853949
 20
2.9386030000000001
 30
0.0
  0
LWPOLYLINE
  5
73
  8
Layer_1
 62
1
420
16711680
370
-1
  6
ByLayer
100
AcDbEntity
100
AcDbPolyline
 90
3
 70
0
 10
25.800913999999999
 20
2.8988100000000001
 10
25.093947
 20
2.8988100000000001
 10
25.093947
 20
2.9386030000000001
  0
SPLINE
  5
74
  8
Layer_1
 62
1
420
16711680
370
-1
  6
ByLayer
100
AcDbEntity
100
AcDbSpline
 70
8
 71
3
 72
8
 73
4
 74
0
 40
0.0
 40
0.0
 40
0.0
 40
0.0
 40
1.0
 40
1.0
 40
1.0
 40
1.0
 10
22.147265000000001
 20
2.8988100000000001
 30
0.0
 10
21.368331000000001
 20
2.8988100000000001
 30
0.0
 10
20.734459999999999
 20
3.533245
 30
0.0
 10
20.734459999999999
 20
4.3124609999999999
 30
0.0
  0
SPLINE
  5
75
  8
Layer_1
 62
1
420
16711680
370
-1
  6
ByLayer
100
AcDbEntity
100
AcDbSpline
 70
8
 71
3
 72
8
 73
4
 74
0
 40
0.0
 40
0.0
 40
0.0
 40
0.0
 40
1.0
 40
1.0
 40
1.0
 40
1.0
 10
22.974176
 20
6.9385389999999996
 30
0.0
 10
22.974176
 20
7.4905650000000001
 30
0.0
 10
23.421498
 20
7.9384519999999998
 30
0.0
 10
23.974088999999999
 20
7.9384519999999998
 30
0.0
  0
SPLINE
  5
76
  8
Layer_1
 62
1
420
16711680
370
-1
  6
ByLayer
100
AcDbEntity
100
AcDbSpline
 70
8
 71
3
 72
8
 73
4
 74
0
 40
0.0
 40
0.0
 40
0.0
 40
0.0
 40
1.0
 40
1.0
 40
1.0
 40
1.0
 10
23.974088999999999
 20
7.9384519999999998
 30
0.0
 10
24.525834
 20
7.9384519999999998
 30
0.0
 10
24.97372
 20
7.4905650000000001
 30
0.0
 10
24.97372
 20
6.9385389999999996
 30
0.0
  0
SPLINE
  5
77
  8
Layer_1
 62
1
420
16711680
370
-1
  6
ByLayer
100
AcDbEntity
100
AcDbSpline
 70
8
 71
3
 72
8
 73
4
 74
0
 40
0.0
 40
0.0
 40
0.0
 40
0.0
 40
1.0
 40
1.0
 40
1.0
 40
1.0
 10
24.97372
 20
6.9385389999999996
 30
0.0
 10
24.97372
 20
6.3862300000000003
 30
0.0
 10
24.525834
 20
5.9383429999999997
 30
0.0
 10
23.974088999999999
 20
5.9383429999999997
 30
0.0
  0
SPLINE
  5
78
  8
Layer_1
 62
1
420
16711680
370
-1
  6
ByLayer
100
AcDbEntity
100
AcDbSpline
 70
8
 71
3
 72
8
 73
4
 74
0
 40
0.0
 40
0.0
 40
0.0
 40
0.0
 40
1.0
 40
1.0
 40
1.0
 40
1.0
 10
23.974088999999999
 20
5.9383429999999997
 30
0.0
 10
23.421498
 20
5.9383429999999997
 30
0.0
 10
22.974176
 20
6.3862300000000003
 30
0.0
 10
22.974176
 20
6.9385389999999996
 30
0.0
  0
LWPOLYLINE
  5
79
  8
Layer_1
 62
1
420
16711680
370
-1
  6
ByLayer
100
AcDbEntity
100
AcDbPolyline
 90
3
 70
0
 10
22.853949
 20
2.9386030000000001
 10
22.853949
 20
2.8988100000000001
 10
22.147265000000001
 20
2.8988100000000001
  0
LWPOLYLINE
  5
7A
  8
Layer_1
 62
1
420
16711680
370
-1
  6
ByLayer
100
AcDbEntity
100
AcDbPolyline
 90
2
 70
0
 10
22.974176
 20
6.9385389999999996
 10
22.974176
 20
6.9385389999999996
  0
SPLINE
  5
7B
  8
Layer_1
 62
1
420
16711680
370
-1
  6
ByLayer
100
AcDbEntity
100
AcDbSpline
 70
8
 71
3
 72
8
 73
4
 74
0
 40
0.0
 40
0.0
 40
0.0
 40
0.0
 40
1.0
 40
1.0
 40
1.0
 40
1.0
 10
18.613842000000002
 20
2.9383210000000002
 30
0.0
 10
18.613842000000002
 20
3.5561050000000001
 30
0.0
 10
18.111768999999999
 20
4.0584610000000003
 30
0.0
 10
17.493984999999999
 20
4.0584610000000003
 30
0.0
  0
SPLINE
  5
7C
  8
Layer_1
 62
1
420
16711680
370
-1
  6
ByLayer
100
AcDbEntity
100
AcDbSpline
 70
8
 71
3
 72
8
 73
4
 74
0
 40
0.0
 40
0.0
 40
0.0
 40
0.0
 40
1.0
 40
1.0
 40
1.0
 40
1.0
 10
17.493984999999999
 20
4.0584610000000003
 30
0.0
 10
16.876764999999999
 20
4.0584610000000003
 30
0.0
 10
16.372997999999999
 20
3.556387
 30
0.0
 10
16.372997999999999
 20
2.9383210000000002
 30
0.0
  0
LWPOLYLINE
  5
7D
  8
Layer_1
 62
1
420
16711680
370
-1
  6
ByLayer
100
AcDbEntity
100
AcDbPolyline
 90
3
 70
0
 10
19.320245
 20
2.8985270000000001
 10
18.613842000000002
 20
2.8985270000000001
 10
18.613842000000002
 20
2.9383210000000002
  0
SPLINE
  5
7E
  8
Layer_1
 62
1
420
16711680
370
-1
  6
ByLayer
100
AcDbEntity
100
AcDbSpline
 70
8
 71
3
 72
8
 73
4
 74
0
 40
0.0
 40
0.0
 40
0.0
 40
0.0
 40
1.0
 40
1.0
 40
1.0
 40
1.0
 10
15.666878000000001
 20
2.8985270000000001
 30
0.0
 10
14.887945
 20
2.8985270000000001
 30
0.0
 10
14.254073999999999
 20
3.5329630000000001
 30
0.0
 10
14.254073999999999
 20
4.3121790000000004
 30
0.0
  0
LWPOLYLINE
  5
7F
  8
Layer_1
 62
1
420
16711680
370
-1
  6
ByLayer
100
AcDbEntity
100
AcDbPolyline
 90
3
 70
0
 10
16.372997999999999
 20
2.9383210000000002
 10
16.372997999999999
 20
2.8985270000000001
 10
15.666878000000001
 20
2.8985270000000001
  0
SPLINE
  5
80
  8
Layer_1
 62
1
420
16711680
370
-1
  6
ByLayer
100
AcDbEntity
100
AcDbSpline
 70
8
 71
3
 72
8
 73
4
 74
0
 40
0.0
 40
0.0
 40
0.0
 40
0.0
 40
1.0
 40
1.0
 40
1.0
 40
1.0
 10
14.254073999999999
 20
9.5646159999999991
 30
0.0
 10
14.254073999999999
 20
10.344113999999999
 30
0.0
 10
14.887945
 20
10.977985
 30
0.0
 10
15.666878000000001
 20
10.977985
 30
0.0
  0
LWPOLYLINE
  5
81
  8
Layer_1
 62
1
420
16711680
370
-1
  6
ByLayer
100
AcDbEntity
100
AcDbPolyline
 90
2
 70
0
 10
14.254073999999999
 20
4.3121790000000004
 10
14.254073999999999
 20
9.5646159999999991
  0
SPLINE
  5
82
  8
Layer_1
 62
1
420
16711680
370
-1
  6
ByLayer
100
AcDbEntity
100
AcDbSpline
 70
8
 71
3
 72
8
 73
4
 74
0
 40
0.0
 40
0.0
 40
0.0
 40
0.0
 40
1.0
 40
1.0
 40
1.0
 40
1.0
 10
16.372997999999999
 20
10.938192000000001
 30
0.0
 10
16.372997999999999
 20
10.320690000000001
 30
0.0
 10
16.876764999999999
 20
9.8183340000000001
 30
0.0
 10
17.493984999999999
 20
9.8183340000000001
 30
0.0
  0
SPLINE
  5
83
  8
Layer_1
 62
1
420
16711680
370
-1
  6
ByLayer
100
AcDbEntity
100
AcDbSpline
 70
8
 71
3
 72
8
 73
4
 74
0
 40
0.0
 40
0.0
 40
0.0
 40
0.0
 40
1.0
 40
1.0
 40
1.0
 40
1.0
 10
17.493984999999999
 20
9.8183340000000001
 30
0.0
 10
18.111487
 20
9.8183340000000001
 30
0.0
 10
18.613842000000002
 20
10.320690000000001
 30
0.0
 10
18.613842000000002
 20
10.938192000000001
 30
0.0
  0
LWPOLYLINE
  5
84
  8
Layer_1
 62
1
420
16711680
370
-1
  6
ByLayer
100
AcDbEntity
100
AcDbPolyline
 90
3
 70
0
 10
15.666878000000001
 20
10.977985
 10
16.372997999999999
 20
10.977985
 10
16.372997999999999
 20
10.938192000000001
  0
SPLINE
  5
85
  8
Layer_1
 62
1
420
16711680
370
-1
  6
ByLayer
100
AcDbEntity
100
AcDbSpline
 70
8
 71
3
 72
8
 73
4
 74
0
 40
0.0
 40
0.0
 40
0.0
 40
0.0
 40
1.0
 40
1.0
 40
1.0
 40
1.0
 10
19.320245
 20
10.977985
 30
0.0
 10
20.100024999999999
 20
10.977985
 30
0.0
 10
20.734459999999999
 20
10.344113999999999
 30
0.0
 10
20.734459999999999
 20
9.5646159999999991
 30
0.0
  0
LWPOLYLINE
  5
86
  8
Layer_1
 62
1
420
16711680
370
-1
  6
ByLayer
100
AcDbEntity
100
AcDbPolyline
 90
3
 70
0
 10
18.613842000000002
 20
10.938192000000001
 10
18.613842000000002
 20
10.977985
 10
19.320245
 20
10.977985
  0
SPLINE
  5
87
  8
Layer_1
 62
1
420
16711680
370
-1
  6
ByLayer
100
AcDbEntity
100
AcDbSpline
 70
8
 71
3
 72
8
 73
4
 74
0
 40
0.0
 40
0.0
 40
0.0
 40
0.0
 40
1.0
 40
1.0
 40
1.0
 40
1.0
 10
20.734459999999999
 20
4.3121790000000004
 30
0.0
 10
20.734459999999999
 20
3.5329630000000001
 30
0.0
 10
20.100024999999999
 20
2.8985270000000001
 30
0.0
 10
19.320245
 20
2.8985270000000001
 30
0.0
  0
LWPOLYLINE
  5
88
  8
Layer_1
 62
1
420
16711680
370
-1
  6
ByLayer
100
AcDbEntity
100
AcDbPolyline
 90
2
 70
0
 10
20.734459999999999
 20
9.5646159999999991
 10
20.734459999999999
 20
4.3121790000000004
  0
SPLINE
  5
89
  8
Layer_1
 62
1
420
16711680
370
-1
  6
ByLayer
100
AcDbEntity
100
AcDbSpline
 70
8
 71
3
 72
8
 73
4
 74
0
 40
0.0
 40
0.0
 40
0.0
 40
0.0
 40
1.0
 40
1.0
 40
1.0
 40
1.0
 10
16.494071000000002
 20
6.9385389999999996
 30
0.0
 10
16.494071000000002
 20
7.4905650000000001
 30
0.0
 10
16.941393999999999
 20
7.9384519999999998
 30
0.0
 10
17.493984999999999
 20
7.9384519999999998
 30
0.0
  0
SPLINE
  5
8A
  8
Layer_1
 62
1
420
16711680
370
-1
  6
ByLayer
100
AcDbEntity
100
AcDbSpline
 70
8
 71
3
 72
8
 73
4
 74
0
 40
0.0
 40
0.0
 40
0.0
 40
0.0
 40
1.0
 40
1.0
 40
1.0
 40
1.0
 10
17.493984999999999
 20
7.9384519999999998
 30
0.0
 10
18.045729000000001
 20
7.9384519999999998
 30
0.0
 10
18.493615999999999
 20
7.4905650000000001
 30
0.0
 10
18.493615999999999
 20
6.9385389999999996
 30
0.0
  0
SPLINE
  5
8B
  8
Layer_1
 62
1
420
16711680
370
-1
  6
ByLayer
100
AcDbEntity
100
AcDbSpline
 70
8
 71
3
 72
8
 73
4
 74
0
 40
0.0
 40
0.0
 40
0.0
 40
0.0
 40
1.0
 40
1.0
 40
1.0
 40
1.0
 10
18.493615999999999
 20
6.9385389999999996
 30
0.0
 10
18.493615999999999
 20
6.3862300000000003
 30
0.0
 10
18.045729000000001
 20
5.9383429999999997
 30
0.0
 10
17.493984999999999
 20
5.9383429999999997
 30
0.0
  0
SPLINE
  5
8C
  8
Layer_1
 62
1
420
16711680
370
-1
  6
ByLayer
100
AcDbEntity
100
AcDbSpline
 70
8
 71
3
 72
8
 73
4
 74
0
 40
0.0
 40
0.0
 40
0.0
 40
0.0
 40
1.0
 40
1.0
 40
1.0
 40
1.0
 10
17.493984999999999
 20
5.9383429999999997
 30
0.0
 10
16.941393999999999
 20
5.9383429999999997
 30
0.0
 10
16.494071000000002
 20
6.3862300000000003
 30
0.0
 10
16.494071000000002
 20
6.9385389999999996
 30
0.0
  0
LWPOLYLINE
  5
8D
  8
Layer_1
 62
1
420
16711680
370
-1
  6
ByLayer
100
AcDbEntity
100
AcDbPolyline
 90
2
 70
0
 10
19.320245
 20
2.8985270000000001
 10
19.320245
 20
2.8985270000000001
  0
SPLINE
  5
8E
  8
Layer_1
 62
1
420
16711680
370
-1
  6
ByLayer
100
AcDbEntity
100
AcDbSpline
 70
8
 71
3
 72
8
 73
4
 74
0
 40
0.0
 40
0.0
 40
0.0
 40
0.0
 40
1.0
 40
1.0
 40
1.0
 40
1.0
 10
6.793247
 20
4.8825500000000002
 30
0.0
 10
6.2014269999999998
 20
4.8825500000000002
 30
0.0
 10
5.6522220000000001
 20
5.1509429999999998
 30
0.0
 10
5.2853339999999998
 20
5.6185850000000004
 30
0.0
  0
LWPOLYLINE
  5
8F
  8
Layer_1
 62
1
420
16711680
370
-1
  6
ByLayer
100
AcDbEntity
100
AcDbPolyline
 90
2
 70
0
 10
16.494071000000002
 20
6.9385389999999996
 10
16.494071000000002
 20
6.9385389999999996
  0
SPLINE
  5
90
  8
Layer_1
 62
1
420
16711680
370
-1
  6
ByLayer
100
AcDbEntity
100
AcDbSpline
 70
8
 71
3
 72
8
 73
4
 74
0
 40
0.0
 40
0.0
 40
0.0
 40
0.0
 40
1.0
 40
1.0
 40
1.0
 40
1.0
 10
5.2785599999999997
 20
7.9545389999999996
 30
0.0
 10
5.6522220000000001
 20
8.4439119999999992
 30
0.0
 10
6.2017090000000001
 20
8.7123050000000006
 30
0.0
 10
6.793247
 20
8.7123050000000006
 30
0.0
  0
SPLINE
  5
91
  8
Layer_1
 62
1
420
16711680
370
-1
  6
ByLayer
100
AcDbEntity
100
AcDbSpline
 70
8
 71
3
 72
8
 73
4
 74
0
 40
0.0
 40
0.0
 40
0.0
 40
0.0
 40
1.0
 40
1.0
 40
1.0
 40
1.0
 10
6.793247
 20
8.7123050000000006
 30
0.0
 10
7.8484759999999998
 20
8.7123050000000006
 30
0.0
 10
8.7081250000000008
 20
7.8532209999999996
 30
0.0
 10
8.7081250000000008
 20
6.7974269999999999
 30
0.0
  0
SPLINE
  5
92
  8
Layer_1
 62
1
420
16711680
370
-1
  6
ByLayer
100
AcDbEntity
100
AcDbSpline
 70
8
 71
3
 72
8
 73
4
 74
0
 40
0.0
 40
0.0
 40
0.0
 40
0.0
 40
1.0
 40
1.0
 40
1.0
 40
1.0
 10
8.7081250000000008
 20
6.7974269999999999
 30
0.0
 10
8.7081250000000008
 20
5.7416340000000003
 30
0.0
 10
7.8487580000000001
 20
4.8825500000000002
 30
0.0
 10
6.793247
 20
4.8825500000000002
 30
0.0
  0
LWPOLYLINE
  5
93
  8
Layer_1
 62
1
420
16711680
370
-1
  6
ByLayer
100
AcDbEntity
100
AcDbPolyline
 90
2
 70
0
 10
5.2853339999999998
 20
5.6185850000000004
 10
5.2785599999999997
 20
7.9545389999999996
  0
LWPOLYLINE
  5
94
  8
Layer_1
 62
1
420
16711680
370
-1
  6
ByLayer
100
AcDbEntity
100
AcDbPolyline
 90
2
 70
0
 10
6.793247
 20
4.8825500000000002
 10
6.793247
 20
4.8825500000000002
  0
LWPOLYLINE
  5
95
  8
Layer_1
 62
1
420
16711680
370
-1
  6
ByLayer
100
AcDbEntity
100
AcDbPolyline
 90
66
 70
0
 10
5.5198600000000004
 20
1.3225990000000001
 10
4.7832600000000003
 20
1.548376
 10
4.57498
 20
2.948763
 10
4.6542849999999998
 20
3.239452
 10
5.0149650000000001
 20
3.8942070000000002
 10
4.2817509999999999
 20
4.4990100000000002
 10
3.735087
 20
4.0398339999999999
 10
3.43452
 20
3.893643
 10
2.0214340000000002
 20
3.827321
 10
1.6601889999999999
 20
4.5080410000000004
 10
2.5294340000000002
 20
5.6600720000000004
 10
2.765936
 20
5.7952560000000002
 10
3.4830619999999999
 20
6.0029719999999998
 10
3.3921869999999998
 20
6.9495449999999996
 10
2.6812689999999999
 20
7.0110700000000001
 10
2.365745
 20
7.1208539999999996
 10
1.319547
 20
8.0719429999999992
 10
1.545042
 20
8.8091069999999991
 10
2.9457110000000002
 20
9.0171050000000008
 10
3.2366820000000001
 20
8.9380830000000007
 10
3.8911560000000001
 20
8.5774030000000003
 10
4.4956759999999996
 20
9.3111809999999995
 10
4.0370650000000001
 20
9.8569990000000001
 10
3.8911560000000001
 20
10.158412
 10
3.8242690000000001
 20
11.57037
 10
4.5055540000000001
 20
11.931896
 10
5.6575850000000001
 20
11.063216000000001
 10
5.792205
 20
10.827843
 10
6.0004850000000003
 20
10.110151999999999
 10
6.9467759999999998
 20
10.200181000000001
 10
7.0080179999999999
 20
10.910816000000001
 10
7.1180849999999998
 20
11.227187000000001
 10
8.0694560000000006
 20
12.273384999999999
 10
8.8060559999999999
 20
12.047325000000001
 10
9.0140539999999998
 20
10.646939
 10
8.9350310000000004
 20
10.355967
 10
8.574916
 20
9.7014940000000003
 10
9.3084109999999995
 20
9.0966919999999991
 10
9.8542290000000001
 20
9.5558669999999992
 10
10.155078
 20
9.7014940000000003
 10
11.567882000000001
 20
9.7680989999999994
 10
11.929126999999999
 20
9.0870960000000007
 10
11.059882
 20
7.9353470000000002
 10
10.824509000000001
 20
7.8001630000000004
 10
10.106818000000001
 20
7.5924469999999999
 10
10.197129
 20
6.6458740000000001
 10
10.908047
 20
6.5843499999999997
 10
11.224136
 20
6.4745650000000001
 10
12.269769
 20
5.5229119999999998
 10
12.044274
 20
4.7860300000000002
 10
10.643605000000001
 20
4.5783139999999998
 10
10.353198000000001
 20
4.6573359999999999
 10
9.6987249999999996
 20
5.0177339999999999
 10
9.0936400000000006
 20
4.2848030000000001
 10
9.552251
 20
3.738985
 10
9.6981599999999997
 20
3.43729
 10
9.7650469999999991
 20
2.0250499999999998
 10
9.084327
 20
1.663805
 10
7.9317310000000001
 20
2.532203
 10
7.7968289999999998
 20
2.768141
 10
7.5893959999999998
 20
3.4861140000000002
 10
6.6428219999999998
 20
3.3958029999999999
 10
6.5815799999999998
 20
2.684885
 10
6.4712310000000004
 20
2.3685139999999998
 10
5.5198600000000004
 20
1.3225990000000001
 10
5.5198600000000004
 20
1.3225990000000001
  0
ENDSEC
  0
SECTION
  2
OBJECTS
  0
DICTIONARY
  5
C
100
AcDbDictionary
280
0
281
1
  3
ACAD_GROUP
350
D
  3
ACAD_LAYOUT
350
1A
  3
ACAD_MLINESTYLE
350
17
  3
ACAD_PLOTSETTINGS
350
19
  3
ACAD_PLOTSTYLENAME
350
E
  3
AcDbVariableDictionary
350
96
  0
DICTIONARY
  5
D
100
AcDbDictionary
280
0
281
1
  0
ACDBDICTIONARYWDFLT
  5
E
100
AcDbDictionary
281
1
  3
Normal
350
F
100
AcDbDictionaryWithDefault
340
F
  0
ACDBPLACEHOLDER
  5
F
  0
DICTIONARY
  5
17
100
AcDbDictionary
280
0
281
1
  3
Standard
350
18
  0
MLINESTYLE
  5
18
100
AcDbMlineStyle
  2
STANDARD
 70
0
  3

 62
256
 51
90.0
 52
90.0
 71
2
 49
0.5
 62
256
  6
BYLAYER
 49
-0.5
 62
256
  6
BYLAYER
  0
DICTIONARY
  5
19
100
AcDbDictionary
280
0
281
1
  0
DICTIONARY
  5
1A
100
AcDbDictionary
281
1
  3
Layout1
350
1E
  3
Layout2
350
26
  3
Model
350
22
  0
LAYOUT
  5
1E
100
AcDbPlotSettings
  1

  2
C:\Program Files\AutoCAD 2002\plotters\DWF ePlot (optimized for plotting).pc3
  4

  6

 40
0.0
 41
0.0
 42
0.0
 43
0.0
 44
0.0
 45
0.0
 46
0.0
 47
0.0
 48
0.0
 49
0.0
140
0.0
141
0.0
142
1.0
143
1.0
 70
688
 72
0
 73
0
 74
5
  7

 75
16
147
1.0
148
0.0
149
0.0
100
AcDbLayout
  1
Layout1
 70
1
 71
1
 10
0.0
 20
0.0
 11
420.0
 21
297.0
 12
0.0
 22
0.0
 32
0.0
 14
100000000000000000000.0
 24
100000000000000000000.0
 34
100000000000000000000.0
 15
-100000000000000000000.0
 25
-100000000000000000000.0
 35
-100000000000000000000.0
146
0.0
 13
0.0
 23
0.0
 33
0.0
 16
1.0
 26
0.0
 36
0.0
 17
0.0
 27
1.0
 37
0.0
 76
0
330
1B
  0
LAYOUT
  5
22
100
AcDbPlotSettings
  1

  2
C:\Program Files\AutoCAD 2002\plotters\DWF ePlot (optimized for plotting).pc3
  4

  6

 40
0.0
 41
0.0
 42
0.0
 43
0.0
 44
0.0
 45
0.0
 46
0.0
 47
0.0
 48
0.0
 49
0.0
140
0.0
141
0.0
142
1.0
143
1.0
 70
1712
 72
0
 73
0
 74
0
  7

 75
0
147
1.0
148
0.0
149
0.0
100
AcDbLayout
  1
Model
 70
1
 71
0
 10
0.0
 20
0.0
 11
12.0
 21
9.0
 12
0.0
 22
0.0
 32
0.0
 14
0.0
 24
0.0
 34
0.0
 15
0.0
 25
0.0
 35
0.0
146
0.0
 13
0.0
 23
0.0
 33
0.0
 16
1.0
 26
0.0
 36
0.0
 17
0.0
 27
1.0
 37
0.0
 76
0
330
1F
  0
LAYOUT
  5
26
100
AcDbPlotSettings
  1

  2
C:\Program Files\AutoCAD 2002\plotters\DWF ePlot (optimized for plotting).pc3
  4

  6

 40
0.0
 41
0.0
 42
0.0
 43
0.0
 44
0.0
 45
0.0
 46
0.0
 47
0.0
 48
0.0
 49
0.0
140
0.0
141
0.0
142
1.0
143
1.0
 70
688
 72
0
 73
0
 74
5
  7

 75
16
147
1.0
148
0.0
149
0.0
100
AcDbLayout
  1
Layout2
 70
1
 71
2
 10
0.0
 20
0.0
 11
12.0
 21
9.0
 12
0.0
 22
0.0
 32
0.0
 14
0.0
 24
0.0
 34
0.0
 15
0.0
 25
0.0
 35
0.0
146
0.0
 13
0.0
 23
0.0
 33
0.0
 16
1.0
 26
0.0
 36
0.0
 17
0.0
 27
1.0
 37
0.0
 76
0
330
23
  0
DICTIONARY
  5
96
100
AcDbDictionary
281
1
  3
DIMASSOC
350
98
  3
HIDETEXT
350
97
  0
DICTIONARYVAR
  5
97
100
DictionaryVariables
280
0
  1
2
  0
DICTIONARYVAR
  5
98
100
DictionaryVariables
280
0
  1
1
  0
ENDSEC
  0
EOF
