  0
SECTION
  2
HEADER
  9
$ACADVER
  1
AC1024
  9
$ACADMAINTVER
 70
     6
  9
$DWGCODEPAGE
  3
ASCII
  9
$INSBASE
 10
0.0
 20
0.0
 30
0.0
  9
$EXTMIN
 10
1.000000000000000E+20
 20
1.000000000000000E+20
 30
1.000000000000000E+20
  9
$EXTMAX
 10
-1.000000000000000E+20
 20
-1.000000000000000E+20
 30
-1.000000000000000E+20
  9
$LIMMIN
 10
0.0
 20
0.0
  9
$LIMMAX
 10
12.0
 20
9.0
  9
$ORTHOMODE
 70
     0
  9
$REGENMODE
 70
     1
  9
$FILLMODE
 70
     1
  9
$QTEXTMODE
 70
     0
  9
$MIRRTEXT
 70
     1
  9
$LTSCALE
 40
1.0
  9
$ATTMODE
 70
     1
  9
$TEXTSIZE
 40
0.2
  9
$TRACEWID
 40
0.05
  9
$TEXTSTYLE
  7
Standard
  9
$CLAYER
  8
0
  9
$CELTYPE
  6
ByLayer
  9
$CECOLOR
 62
    18
  9
$CELTSCALE
 40
1.0
  9
$DISPSILH
 70
     0
  9
$DIMSCALE
 40
1.0
  9
$DIMASZ
 40
2.5
  9
$DIMEXO
 40
0.625
  9
$DIMDLI
 40
0.38
  9
$DIMRND
 40
0.0
  9
$DIMDLE
 40
0.0
  9
$DIMEXE
 40
1.25
  9
$DIMTP
 40
0.0
  9
$DIMTM
 40
0.0
  9
$DIMTXT
 40
2.5
  9
$DIMCEN
 40
0.09
  9
$DIMTSZ
 40
0.0
  9
$DIMTOL
 70
     0
  9
$DIMLIM
 70
     0
  9
$DIMTIH
 70
     1
  9
$DIMTOH
 70
     1
  9
$DIMSE1
 70
     0
  9
$DIMSE2
 70
     0
  9
$DIMTAD
 70
     0
  9
$DIMZIN
 70
     8
  9
$DIMBLK
  1

  9
$DIMASO
 70
     1
  9
$DIMSHO
 70
     1
  9
$DIMPOST
  1

  9
$DIMAPOST
  1

  9
$DIMALT
 70
     0
  9
$DIMALTD
 70
     2
  9
$DIMALTF
 40
25.4
  9
$DIMLFAC
 40
1.0
  9
$DIMTOFL
 70
     0
  9
$DIMTVP
 40
0.0
  9
$DIMTIX
 70
     0
  9
$DIMSOXD
 70
     0
  9
$DIMSAH
 70
     0
  9
$DIMBLK1
  1

  9
$DIMBLK2
  1

  9
$DIMSTYLE
  2
Standard
  9
$DIMCLRD
 70
    18
  9
$DIMCLRE
 70
    18
  9
$DIMCLRT
 70
    18
  9
$DIMTFAC
 40
1.0
  9
$DIMGAP
 40
0.625
  9
$DIMJUST
 70
     0
  9
$DIMSD1
 70
     0
  9
$DIMSD2
 70
     0
  9
$DIMTOLJ
 70
     1
  9
$DIMTZIN
 70
     0
  9
$DIMALTZ
 70
     0
  9
$DIMALTTZ
 70
     0
  9
$DIMUPT
 70
     0
  9
$DIMDEC
 70
     4
  9
$DIMTDEC
 70
     4
  9
$DIMALTU
 70
     2
  9
$DIMALTTD
 70
     2
  9
$DIMTXSTY
  7
Standard
  9
$DIMAUNIT
 70
     0
  9
$DIMADEC
 70
     0
  9
$DIMALTRND
 40
0.0
  9
$DIMAZIN
 70
     2
  9
$DIMDSEP
 70
    46
  9
$DIMATFIT
 70
     3
  9
$DIMFRAC
 70
     0
  9
$DIMLDRBLK
  1

  9
$DIMLUNIT
 70
     2
  9
$DIMLWD
 70
    -2
  9
$DIMLWE
 70
    -2
  9
$DIMTMOVE
 70
     0
  9
$DIMFXL
 40
1.0
  9
$DIMFXLON
 70
     0
  9
$DIMJOGANG
 40
0.7853981633974483
  9
$DIMTFILL
 70
     0
  9
$DIMTFILLCLR
 70
     0
  9
$DIMARCSYM
 70
     0
  9
$DIMLTYPE
  6

  9
$DIMLTEX1
  6

  9
$DIMLTEX2
  6

  9
$DIMTXTDIRECTION
 70
     0
  9
$LUNITS
 70
     2
  9
$LUPREC
 70
     4
  9
$SKETCHINC
 40
0.1
  9
$FILLETRAD
 40
0.5
  9
$AUNITS
 70
     0
  9
$AUPREC
 70
     0
  9
$MENU
  1
.
  9
$ELEVATION
 40
0.0
  9
$PELEVATION
 40
0.0
  9
$THICKNESS
 40
0.0
  9
$LIMCHECK
 70
     0
  9
$CHAMFERA
 40
0.5
  9
$CHAMFERB
 40
0.5
  9
$CHAMFERC
 40
1.0
  9
$CHAMFERD
 40
0.0
  9
$SKPOLY
 70
     0
  9
$TDCREATE
 40
2455924.528047326
  9
$TDUCREATE
 40
2455924.73638066
  9
$TDUPDATE
 40
2455924.528047511
  9
$TDUUPDATE
 40
2455924.736380845
  9
$TDINDWG
 40
0.0000000116
  9
$TDUSRTIMER
 40
0.0000000116
  9
$USRTIMER
 70
     1
  9
$ANGBASE
 50
0.0
  9
$ANGDIR
 70
     0
  9
$PDMODE
 70
     0
  9
$PDSIZE
 40
0.0
  9
$PLINEWID
 40
0.0
  9
$SPLFRAME
 70
     0
  9
$SPLINETYPE
 70
     6
  9
$SPLINESEGS
 70
     8
  9
$HANDSEED
  5
37C8
  9
$SURFTAB1
 70
     6
  9
$SURFTAB2
 70
     6
  9
$SURFTYPE
 70
     6
  9
$SURFU
 70
     6
  9
$SURFV
 70
     6
  9
$UCSBASE
  2

  9
$UCSNAME
  2

  9
$UCSORG
 10
0.0
 20
0.0
 30
0.0
  9
$UCSXDIR
 10
1.0
 20
0.0
 30
0.0
  9
$UCSYDIR
 10
0.0
 20
1.0
 30
0.0
  9
$UCSORTHOREF
  2

  9
$UCSORTHOVIEW
 70
     0
  9
$UCSORGTOP
 10
0.0
 20
0.0
 30
0.0
  9
$UCSORGBOTTOM
 10
0.0
 20
0.0
 30
0.0
  9
$UCSORGLEFT
 10
0.0
 20
0.0
 30
0.0
  9
$UCSORGRIGHT
 10
0.0
 20
0.0
 30
0.0
  9
$UCSORGFRONT
 10
0.0
 20
0.0
 30
0.0
  9
$UCSORGBACK
 10
0.0
 20
0.0
 30
0.0
  9
$PUCSBASE
  2

  9
$PUCSNAME
  2

  9
$PUCSORG
 10
0.0
 20
0.0
 30
0.0
  9
$PUCSXDIR
 10
1.0
 20
0.0
 30
0.0
  9
$PUCSYDIR
 10
0.0
 20
1.0
 30
0.0
  9
$PUCSORTHOREF
  2

  9
$PUCSORTHOVIEW
 70
     0
  9
$PUCSORGTOP
 10
0.0
 20
0.0
 30
0.0
  9
$PUCSORGBOTTOM
 10
0.0
 20
0.0
 30
0.0
  9
$PUCSORGLEFT
 10
0.0
 20
0.0
 30
0.0
  9
$PUCSORGRIGHT
 10
0.0
 20
0.0
 30
0.0
  9
$PUCSORGFRONT
 10
0.0
 20
0.0
 30
0.0
  9
$PUCSORGBACK
 10
0.0
 20
0.0
 30
0.0
  9
$USERI1
 70
     0
  9
$USERI2
 70
     0
  9
$USERI3
 70
     0
  9
$USERI4
 70
     0
  9
$USERI5
 70
     0
  9
$USERR1
 40
0.0
  9
$USERR2
 40
0.0
  9
$USERR3
 40
0.0
  9
$USERR4
 40
0.0
  9
$USERR5
 40
0.0
  9
$WORLDVIEW
 70
     1
  9
$SHADEDGE
 70
     3
  9
$SHADEDIF
 70
    70
  9
$TILEMODE
 70
     1
  9
$MAXACTVP
 70
    64
  9
$PINSBASE
 10
0.0
 20
0.0
 30
0.0
  9
$PLIMCHECK
 70
     0
  9
$PEXTMIN
 10
1.000000000000000E+20
 20
1.000000000000000E+20
 30
1.000000000000000E+20
  9
$PEXTMAX
 10
-1.000000000000000E+20
 20
-1.000000000000000E+20
 30
-1.000000000000000E+20
  9
$PLIMMIN
 10
0.0
 20
0.0
  9
$PLIMMAX
 10
12.0
 20
9.0
  9
$UNITMODE
 70
     0
  9
$VISRETAIN
 70
     1
  9
$PLINEGEN
 70
     0
  9
$PSLTSCALE
 70
     1
  9
$TREEDEPTH
 70
  3020
  9
$CMLSTYLE
  2
Standard
  9
$CMLJUST
 70
     0
  9
$CMLSCALE
 40
1.0
  9
$PROXYGRAPHICS
 70
     1
  9
$MEASUREMENT
 70
     1
  9
$CELWEIGHT
370
    -1
  9
$ENDCAPS
280
     0
  9
$JOINSTYLE
280
     0
  9
$LWDISPLAY
290
     0
  9
$INSUNITS
 70
     0
  9
$HYPERLINKBASE
  1

  9
$STYLESHEET
  1

  9
$XEDIT
290
     1
  9
$CEPSNTYPE
380
     0
  9
$PSTYLEMODE
290
     1
  9
$FINGERPRINTGUID
  2
{FC1750FD-9C55-4DBD-8C2C-C70BED180555}
  9
$VERSIONGUID
  2
{FAEB1C32-E019-11D5-929B-00C0DF256EC4}
  9
$EXTNAMES
290
     1
  9
$PSVPSCALE
 40
0.0
  9
$OLESTARTUP
290
     0
  9
$SORTENTS
280
   127
  9
$INDEXCTL
280
     0
  9
$HIDETEXT
280
     1
  9
$XCLIPFRAME
280
     2
  9
$HALOGAP
280
     0
  9
$OBSCOLOR
 70
   257
  9
$OBSLTYPE
280
     0
  9
$INTERSECTIONDISPLAY
280
     0
  9
$INTERSECTIONCOLOR
 70
   257
  9
$DIMASSOC
280
     2
  9
$PROJECTNAME
  1

  9
$CAMERADISPLAY
290
     0
  9
$LENSLENGTH
 40
50.0
  9
$CAMERAHEIGHT
 40
0.0
  9
$STEPSPERSEC
 40
2.0
  9
$STEPSIZE
 40
6.0
  9
$3DDWFPREC
 40
2.0
  9
$PSOLWIDTH
 40
0.25
  9
$PSOLHEIGHT
 40
4.0
  9
$LOFTANG1
 40
1.570796326794897
  9
$LOFTANG2
 40
1.570796326794897
  9
$LOFTMAG1
 40
0.0
  9
$LOFTMAG2
 40
0.0
  9
$LOFTPARAM
 70
     7
  9
$LOFTNORMALS
280
     1
  9
$LATITUDE
 40
37.795
  9
$LONGITUDE
 40
-122.394
  9
$NORTHDIRECTION
 40
0.0
  9
$TIMEZONE
 70
 -8000
  9
$LIGHTGLYPHDISPLAY
280
     1
  9
$TILEMODELIGHTSYNCH
280
     1
  9
$SOLIDHIST
280
     1
  9
$SHOWHIST
280
     1
  9
$DWFFRAME
280
     2
  9
$DGNFRAME
280
     2
  9
$REALWORLDSCALE
290
     1
  9
$INTERFERECOLOR
 62
   256
  9
$CSHADOW
280
     0
  9
$SHADOWPLANELOCATION
 40
0.0
  0
ENDSEC
  0
SECTION
  2
CLASSES
  0
CLASS
  1
ACDBDICTIONARYWDFLT
  2
AcDbDictionaryWithDefault
  3
ObjectDBX Classes
 90
        0
 91
        4
280
     0
281
     0
  0
CLASS
  1
VISUALSTYLE
  2
AcDbVisualStyle
  3
ObjectDBX Classes
 90
     4095
 91
        4
280
     0
281
     0
  0
CLASS
  1
MATERIAL
  2
AcDbMaterial
  3
ObjectDBX Classes
 90
     1153
 91
        4
280
     0
281
     0
  0
ENDSEC
  0
SECTION
  2
TABLES
  0
TABLE
  2
VPORT
  5
3766
330
0
100
AcDbSymbolTable
 70
     1
  0
VPORT
  5
3786
330
3766
100
AcDbSymbolTableRecord
100
AcDbViewportTableRecord
  2
*Active
 70
     0
 10
0.0
 20
0.0
 11
1.0
 21
1.0
 12
10.42990654205607
 22
4.5
 13
0.0
 23
0.0
 14
0.5
 24
0.5
 15
0.5
 25
0.5
 16
0.0
 26
0.0
 36
1.0
 17
0.0
 27
0.0
 37
0.0
 40
9.0
 41
1.972972972850329
 42
50.0
 43
0.0
 44
0.0
 50
0.0
 51
0.0
 71
     0
 72
   100
 73
     1
 74
     3
 75
     0
 76
     0
 77
     0
 78
     0
281
     0
 65
     1
110
0.0
120
0.0
130
0.0
111
1.0
121
0.0
131
0.0
112
0.0
122
1.0
132
0.0
 79
     0
146
0.0
 60
     3
 61
     5
292
     1
282
     1
141
0.0
142
0.0
 63
   250
  0
ENDTAB
  0
TABLE
  2
LTYPE
  5
3763
330
0
100
AcDbSymbolTable
 70
    19
  0
LTYPE
  5
3771
330
3763
100
AcDbSymbolTableRecord
100
AcDbLinetypeTableRecord
  2
ByBlock
 70
     0
  3

 72
    65
 73
     0
 40
0.0
  0
LTYPE
  5
3772
330
3763
100
AcDbSymbolTableRecord
100
AcDbLinetypeTableRecord
  2
ByLayer
 70
     0
  3

 72
    65
 73
     0
 40
0.0
  0
LTYPE
  5
3773
330
3763
100
AcDbSymbolTableRecord
100
AcDbLinetypeTableRecord
  2
Continuous
 70
     0
  3
Solid line
 72
    65
 73
     0
 40
0.0
  0
LTYPE
  5
37B2
330
3763
100
AcDbSymbolTableRecord
100
AcDbLinetypeTableRecord
  2
BORDER
 70
     0
  3

 72
    65
 73
     6
 40
42.00000000000001
 49
12.0
 74
     0
 49
-6.0
 74
     0
 49
12.0
 74
     0
 49
-5.95
 74
     0
 49
0.1
 74
     0
 49
-5.95
 74
     0
  0
LTYPE
  5
37B3
330
3763
100
AcDbSymbolTableRecord
100
AcDbLinetypeTableRecord
  2
BORDER2
 70
     0
  3

 72
    65
 73
     6
 40
21.0
 49
6.0
 74
     0
 49
-3.0
 74
     0
 49
6.0
 74
     0
 49
-2.95
 74
     0
 49
0.1
 74
     0
 49
-2.95
 74
     0
  0
LTYPE
  5
37B4
330
3763
100
AcDbSymbolTableRecord
100
AcDbLinetypeTableRecord
  2
BORDERX2
 70
     0
  3

 72
    65
 73
     6
 40
84.0
 49
24.0
 74
     0
 49
-12.0
 74
     0
 49
24.0
 74
     0
 49
-11.95
 74
     0
 49
0.1
 74
     0
 49
-11.95
 74
     0
  0
LTYPE
  5
37B5
330
3763
100
AcDbSymbolTableRecord
100
AcDbLinetypeTableRecord
  2
CENTER
 70
     0
  3

 72
    65
 73
     4
 40
50.0
 49
32.0
 74
     0
 49
-6.0
 74
     0
 49
6.0
 74
     0
 49
-6.0
 74
     0
  0
LTYPE
  5
37B6
330
3763
100
AcDbSymbolTableRecord
100
AcDbLinetypeTableRecord
  2
CENTER2
 70
     0
  3

 72
    65
 73
     4
 40
25.0
 49
16.0
 74
     0
 49
-3.0
 74
     0
 49
3.0
 74
     0
 49
-3.0
 74
     0
  0
LTYPE
  5
37B7
330
3763
100
AcDbSymbolTableRecord
100
AcDbLinetypeTableRecord
  2
CENTERX2
 70
     0
  3

 72
    65
 73
     4
 40
100.0
 49
64.0
 74
     0
 49
-12.0
 74
     0
 49
12.0
 74
     0
 49
-12.0
 74
     0
  0
LTYPE
  5
37B8
330
3763
100
AcDbSymbolTableRecord
100
AcDbLinetypeTableRecord
  2
DASHDOT
 70
     0
  3

 72
    65
 73
     4
 40
24.0
 49
12.0
 74
     0
 49
-5.95
 74
     0
 49
0.1
 74
     0
 49
-5.95
 74
     0
  0
LTYPE
  5
37B9
330
3763
100
AcDbSymbolTableRecord
100
AcDbLinetypeTableRecord
  2
DASHDOT2
 70
     0
  3

 72
    65
 73
     4
 40
12.0
 49
6.0
 74
     0
 49
-2.95
 74
     0
 49
0.1
 74
     0
 49
-2.95
 74
     0
  0
LTYPE
  5
37BA
330
3763
100
AcDbSymbolTableRecord
100
AcDbLinetypeTableRecord
  2
DASHDOTX2
 70
     0
  3

 72
    65
 73
     4
 40
48.0
 49
24.0
 74
     0
 49
-11.95
 74
     0
 49
0.1
 74
     0
 49
-11.95
 74
     0
  0
LTYPE
  5
37BB
330
3763
100
AcDbSymbolTableRecord
100
AcDbLinetypeTableRecord
  2
DASHED
 70
     0
  3

 72
    65
 73
     2
 40
18.0
 49
12.0
 74
     0
 49
-6.0
 74
     0
  0
LTYPE
  5
37BC
330
3763
100
AcDbSymbolTableRecord
100
AcDbLinetypeTableRecord
  2
DASHED2
 70
     0
  3

 72
    65
 73
     2
 40
9.0
 49
6.0
 74
     0
 49
-3.0
 74
     0
  0
LTYPE
  5
37BD
330
3763
100
AcDbSymbolTableRecord
100
AcDbLinetypeTableRecord
  2
DASHEDX2
 70
     0
  3

 72
    65
 73
     2
 40
36.0
 49
24.0
 74
     0
 49
-12.0
 74
     0
  0
LTYPE
  5
37BE
330
3763
100
AcDbSymbolTableRecord
100
AcDbLinetypeTableRecord
  2
DIVIDE
 70
     0
  3

 72
    65
 73
     6
 40
29.99999999999999
 49
12.0
 74
     0
 49
-5.9
 74
     0
 49
0.15
 74
     0
 49
-5.9
 74
     0
 49
0.15
 74
     0
 49
-5.9
 74
     0
  0
LTYPE
  5
37BF
330
3763
100
AcDbSymbolTableRecord
100
AcDbLinetypeTableRecord
  2
DIVIDE2
 70
     0
  3

 72
    65
 73
     6
 40
15.0
 49
6.0
 74
     0
 49
-2.9
 74
     0
 49
0.15
 74
     0
 49
-2.9
 74
     0
 49
0.15
 74
     0
 49
-2.9
 74
     0
  0
LTYPE
  5
37C0
330
3763
100
AcDbSymbolTableRecord
100
AcDbLinetypeTableRecord
  2
DIVIDEX2
 70
     0
  3

 72
    65
 73
     6
 40
59.99999999999999
 49
24.0
 74
     0
 49
-11.9
 74
     0
 49
0.15
 74
     0
 49
-11.9
 74
     0
 49
0.15
 74
     0
 49
-11.9
 74
     0
  0
LTYPE
  5
37C1
330
3763
100
AcDbSymbolTableRecord
100
AcDbLinetypeTableRecord
  2
DOT
 70
     0
  3

 72
    65
 73
     2
 40
6.3
 49
0.1
 74
     0
 49
-6.2
 74
     0
  0
LTYPE
  5
37C2
330
3763
100
AcDbSymbolTableRecord
100
AcDbLinetypeTableRecord
  2
DOT2
 70
     0
  3

 72
    65
 73
     2
 40
3.2
 49
0.1
 74
     0
 49
-3.1
 74
     0
  0
LTYPE
  5
37C3
330
3763
100
AcDbSymbolTableRecord
100
AcDbLinetypeTableRecord
  2
DOTX2
 70
     0
  3

 72
    65
 73
     2
 40
12.5
 49
0.1
 74
     0
 49
-12.4
 74
     0
  0
ENDTAB
  0
TABLE
  2
LAYER
  5
3760
330
0
100
AcDbSymbolTable
 70
     3
  0
LAYER
  5
376E
330
3760
100
AcDbSymbolTableRecord
100
AcDbLayerTableRecord
  2
0
 70
     0
 62
     7
420
 16777215
  6
Continuous
370
    25
390
376D
347
379B
  0
LAYER
  5
37C4
330
3760
100
AcDbSymbolTableRecord
100
AcDbLayerTableRecord
  2
CUTS
 70
     0
 62
     1
420
 16711680
  6
Continuous
370
    -3
390
376D
347
379B
  0
LAYER
  5
37C5
330
3760
100
AcDbSymbolTableRecord
100
AcDbLayerTableRecord
  2
laser bed referance
 70
     0
 62
     3
420
    65280
  6
Continuous
370
    25
390
376D
347
379B
  0
ENDTAB
  0
TABLE
  2
STYLE
  5
3761
330
0
100
AcDbSymbolTable
 70
     1
  0
STYLE
  5
376F
330
3761
100
AcDbSymbolTableRecord
100
AcDbTextStyleTableRecord
  2
Standard
 70
     0
 40
0.0
 41
1.0
 50
0.0
 71
     0
 42
0.2
  3
txt
  4

  0
ENDTAB
  0
TABLE
  2
VIEW
  5
3764
330
0
100
AcDbSymbolTable
 70
     0
  0
ENDTAB
  0
TABLE
  2
UCS
  5
3765
330
0
100
AcDbSymbolTable
 70
     0
  0
ENDTAB
  0
TABLE
  2
APPID
  5
3767
330
0
100
AcDbSymbolTable
 70
     2
  0
APPID
  5
3770
330
3767
100
AcDbSymbolTableRecord
100
AcDbRegAppTableRecord
  2
ACAD
 70
     0
  0
APPID
  5
379C
330
3767
100
AcDbSymbolTableRecord
100
AcDbRegAppTableRecord
  2
QCAD
 70
     0
  0
ENDTAB
  0
TABLE
  2
DIMSTYLE
  5
3768
330
0
100
AcDbSymbolTable
 70
     2
100
AcDbDimStyleTable
  0
DIMSTYLE
105
3784
330
3768
100
AcDbSymbolTableRecord
100
AcDbDimStyleTableRecord
  2
Standard
 70
     0
178
     0
340
376F
  0
DIMSTYLE
105
37B1
330
3768
100
AcDbSymbolTableRecord
100
AcDbDimStyleTableRecord
  2
QCADDimStyle
 70
     0
 41
2.5
 42
0.625
 44
1.25
 73
     0
 77
     1
140
2.5
147
0.625
178
     0
340
376F
  0
ENDTAB
  0
TABLE
  2
BLOCK_RECORD
  5
375F
330
0
100
AcDbSymbolTable
 70
     1
  0
BLOCK_RECORD
  5
377C
330
375F
100
AcDbSymbolTableRecord
100
AcDbBlockTableRecord
  2
*Model_Space
340
377F
 70
     0
280
     1
281
     0
  0
BLOCK_RECORD
  5
3778
330
375F
100
AcDbSymbolTableRecord
100
AcDbBlockTableRecord
  2
*Paper_Space
340
377B
 70
     0
280
     1
281
     0
  0
BLOCK_RECORD
  5
3780
330
375F
100
AcDbSymbolTableRecord
100
AcDbBlockTableRecord
  2
*Paper_Space0
340
3783
 70
     0
280
     1
281
     0
  0
ENDTAB
  0
ENDSEC
  0
SECTION
  2
BLOCKS
  0
BLOCK
  5
377D
330
377C
100
AcDbEntity
  8
0
100
AcDbBlockBegin
  2
*Model_Space
 70
     0
 10
0.0
 20
0.0
 30
0.0
  3
*Model_Space
  1

  0
ENDBLK
  5
377E
330
377C
100
AcDbEntity
  8
0
100
AcDbBlockEnd
  0
BLOCK
  5
3779
330
3778
100
AcDbEntity
 67
     1
  8
0
100
AcDbBlockBegin
  2
*Paper_Space
 70
     0
 10
0.0
 20
0.0
 30
0.0
  3
*Paper_Space
  1

  0
ENDBLK
  5
377A
330
3778
100
AcDbEntity
 67
     1
  8
0
100
AcDbBlockEnd
  0
BLOCK
  5
3781
330
3780
100
AcDbEntity
  8
0
100
AcDbBlockBegin
  2
*Paper_Space0
 70
     0
 10
0.0
 20
0.0
 30
0.0
  3
*Paper_Space0
  1

  0
ENDBLK
  5
3782
330
3780
100
AcDbEntity
  8
0
100
AcDbBlockEnd
  0
ENDSEC
  0
SECTION
  2
ENTITIES
  0
LWPOLYLINE
  5
2C0
330
377C
100
AcDbEntity
  8
CUTS
 62
     1
420
 16711680
370
    25
100
AcDbPolyline
 90
        7
 70
     0
 43
0.0
 10
181.7453393802883
 20
230.6363301468628
 10
181.7453393802883
 20
206.9360138968628
 10
199.1450443802883
 20
206.9360138968628
 10
199.1450443802883
 20
230.6363301468628
 10
181.7453393802883
 20
230.6363301468628
 10
181.7453393802883
 20
230.6363301468628
 10
181.7453393802883
 20
230.6363301468628
  0
LWPOLYLINE
  5
2C2
330
377C
100
AcDbEntity
  8
CUTS
 62
     1
420
 16711680
370
    25
100
AcDbPolyline
 90
       16
 70
     0
 43
0.0
 10
173.9126143802883
 20
203.4463351468628
 10
179.9126581302883
 20
203.4463351468628
 10
179.9126581302883
 20
198.845055146863
 10
204.1128618802885
 20
198.845055146863
 10
204.1128618802885
 20
202.4458576468628
 10
210.1129056302885
 20
202.4458576468628
 10
210.1129056302885
 20
207.4358988968631
 10
204.1128618802885
 20
207.4358988968631
 10
204.1128618802885
 20
230.1367963968628
 10
210.1129056302885
 20
230.1367963968628
 10
210.1129056302885
 20
235.1268388968629
 10
204.1128618802885
 20
235.1268388968629
 10
204.1128618802885
 20
238.727641396863
 10
179.9126581302883
 20
238.727641396863
 10
179.9126581302883
 20
234.1270663968631
 10
173.9126143802883
 20
234.1270663968631
  0
LWPOLYLINE
  5
2C4
330
377C
100
AcDbEntity
  8
CUTS
 62
     1
420
 16711680
370
    25
100
AcDbPolyline
 90
        7
 70
     0
 43
0.0
 10
42.08485063028851
 20
239.5654888968629
 10
24.68514438028851
 20
239.5654888968629
 10
24.68514438028851
 20
215.8648188968628
 10
42.08485063028851
 20
215.8648188968628
 10
42.08485063028851
 20
239.5654888968629
 10
42.08485063028851
 20
239.5654888968629
 10
42.08485063028851
 20
239.5654888968629
  0
LWPOLYLINE
  5
2C6
330
377C
100
AcDbEntity
  8
CUTS
 62
     1
420
 16711680
370
    25
100
AcDbPolyline
 90
       16
 70
     0
 43
0.0
 10
49.9175756302885
 20
212.375141396863
 10
43.91788313028846
 20
212.375141396863
 10
43.91788313028846
 20
207.7742138968629
 10
19.71697563028837
 20
207.7742138968629
 10
19.71697563028837
 20
211.375016396863
 10
13.7169306302886
 20
211.375016396863
 10
13.7169306302886
 20
216.364352646863
 10
19.71697563028837
 20
216.364352646863
 10
19.71697563028837
 20
239.065955146863
 10
13.7169306302886
 20
239.065955146863
 10
13.7169306302886
 20
244.0552913968631
 10
19.71697563028837
 20
244.0552913968631
 10
19.71697563028837
 20
247.6560938968628
 10
43.91788313028846
 20
247.6560938968628
 10
43.91788313028846
 20
243.0555188968629
 10
49.9175756302885
 20
243.0555188968629
  0
LWPOLYLINE
  5
2C8
330
377C
100
AcDbEntity
  8
CUTS
 62
     1
420
 16711680
370
    25
100
AcDbPolyline
 90
        6
 70
     0
 43
0.0
 10
147.0838643802884
 20
208.331955146863
 10
147.0838643802884
 20
202.131532646863
 10
116.6035118802884
 20
202.131532646863
 10
116.6035118802884
 20
208.331955146863
 10
147.0838643802884
 20
208.331955146863
 10
147.0838643802884
 20
208.331955146863
  0
LWPOLYLINE
  5
2CA
330
377C
100
AcDbEntity
  8
CUTS
 62
     1
420
 16711680
370
    25
100
AcDbPolyline
 90
        6
 70
     0
 43
0.0
 10
147.0838643802884
 20
232.8408388968629
 10
147.0838643802884
 20
226.6411213968629
 10
116.6035118802884
 20
226.6411213968629
 10
116.6035118802884
 20
232.8408388968629
 10
147.0838643802884
 20
232.8408388968629
 10
147.0838643802884
 20
232.8408388968629
  0
SPLINE
  5
334
330
377C
100
AcDbEntity
  8
CUTS
 62
     1
420
 16711680
370
    25
100
AcDbSpline
210
0.0
220
0.0
230
1.0
 70
     8
 71
     3
 72
     8
 73
     4
 74
     0
 42
0.000000001
 43
0.001
 12
1.0
 22
0.0
 32
0.0
 13
1.0
 23
0.0
 33
0.0
 40
0.0
 40
0.0
 40
0.0
 40
0.0
 40
1.0
 40
1.0
 40
1.0
 40
1.0
 10
119.1646781302885
 20
158.8270026468629
 30
0.0
 10
123.6661218802884
 20
158.8270026468629
 30
0.0
 10
127.1402781302885
 20
155.177868896863
 30
0.0
 10
127.1402781302885
 20
150.6764238968629
 30
0.0
  0
LWPOLYLINE
  5
336
330
377C
100
AcDbEntity
  8
CUTS
 62
     1
420
 16711680
370
    25
100
AcDbPolyline
 90
       58
 70
     0
 43
0.0
 10
181.8906831302885
 20
284.3947238968628
 10
179.4163006302884
 20
284.3947238968628
 10
179.4163006302884
 20
288.4671913968627
 10
179.1661806302885
 20
290.2949326468629
 10
174.9384918802883
 20
290.2949326468629
 10
174.9384918802883
 20
284.1654188968628
 10
176.3393718802884
 20
284.1654188968628
 10
176.3393718802884
 20
282.0660388968629
 10
174.9384918802883
 20
282.0660388968629
 10
174.9384918802883
 20
280.5328663968631
 10
172.3388718802883
 20
280.5328663968631
 10
172.3388718802883
 20
282.0660388968629
 10
170.9386968802883
 20
282.0660388968629
 10
170.9386968802883
 20
284.1654188968628
 10
172.3388718802883
 20
284.1654188968628
 10
172.3388718802883
 20
290.2949326468629
 10
166.6157581302883
 20
290.2949326468629
 10
166.3656393802883
 20
288.4671913968627
 10
166.3656393802883
 20
284.3947238968628
 10
155.1917556302884
 20
284.3947238968628
 10
155.1917556302884
 20
288.4671913968627
 10
154.9423418802884
 20
290.2949326468629
 10
148.2155756302885
 20
290.2949326468629
 10
148.2155756302885
 20
284.1654188968628
 10
149.6171618802883
 20
284.1654188968628
 10
149.6171618802883
 20
282.0660388968629
 10
148.2155756302885
 20
282.0660388968629
 10
148.2155756302885
 20
280.5328663968631
 10
145.6159556302883
 20
280.5328663968631
 10
145.6159556302883
 20
282.0660388968629
 10
144.2164868802884
 20
282.0660388968629
 10
144.2164868802884
 20
284.1654188968628
 10
145.6159556302883
 20
284.1654188968628
 10
145.6159556302883
 20
290.2949326468629
 10
138.8906006302885
 20
290.2949326468629
 10
138.6404806302884
 20
288.4671913968627
 10
138.6404806302884
 20
284.3947238968628
 10
127.4680081302884
 20
284.3947238968628
 10
127.4680081302884
 20
288.4671913968627
 10
127.2171831302884
 20
290.2949326468629
 10
121.4894831302884
 20
290.2949326468629
 10
121.4894831302884
 20
284.1654188968628
 10
122.8903643802883
 20
284.1654188968628
 10
122.8903643802883
 20
282.0660388968629
 10
121.4894831302884
 20
282.0660388968629
 10
121.4894831302884
 20
280.5328663968631
 10
118.8898643802885
 20
280.5328663968631
 10
118.8898643802885
 20
282.0660388968629
 10
117.4896893802885
 20
282.0660388968629
 10
117.4896893802885
 20
284.1654188968628
 10
118.8898643802885
 20
284.1654188968628
 10
118.8898643802885
 20
290.2949326468629
 10
114.6660556302885
 20
290.2949326468629
 10
114.4166418802884
 20
288.4671913968627
 10
114.4166418802884
 20
284.3947238968628
 10
111.8893418802885
 20
284.3947238968628
 10
111.8896943802884
 20
158.8270026468629
 10
119.1646781302885
 20
158.8270026468629
  0
SPLINE
  5
338
330
377C
100
AcDbEntity
  8
CUTS
 62
     1
420
 16711680
370
    25
100
AcDbSpline
210
0.0
220
0.0
230
1.0
 70
     8
 71
     3
 72
     8
 73
     4
 74
     0
 42
0.000000001
 43
0.001
 12
1.0
 22
0.0
 32
0.0
 13
1.0
 23
0.0
 33
0.0
 40
0.0
 40
0.0
 40
0.0
 40
0.0
 40
1.0
 40
1.0
 40
1.0
 40
1.0
 10
138.8147531302885
 20
150.6764238968629
 30
0.0
 10
138.8147531302885
 20
155.177868896863
 30
0.0
 10
142.3887443802883
 20
158.8270026468629
 30
0.0
 10
146.8905418802884
 20
158.8270026468629
 30
0.0
  0
SPLINE
  5
33A
330
377C
100
AcDbEntity
  8
CUTS
 62
     1
420
 16711680
370
    25
100
AcDbSpline
210
0.0
220
0.0
230
1.0
 70
     8
 71
     3
 72
     8
 73
     4
 74
     0
 42
0.000000001
 43
0.001
 12
1.0
 22
0.0
 32
0.0
 13
1.0
 23
0.0
 33
0.0
 40
0.0
 40
0.0
 40
0.0
 40
0.0
 40
1.0
 40
1.0
 40
1.0
 40
1.0
 10
146.8905418802884
 20
158.8270026468629
 30
0.0
 10
151.3919868802885
 20
158.8270026468629
 30
0.0
 10
154.8661418802884
 20
155.177868896863
 30
0.0
 10
154.8661418802884
 20
150.6764238968629
 30
0.0
  0
LWPOLYLINE
  5
33C
330
377C
100
AcDbEntity
  8
CUTS
 62
     1
420
 16711680
370
    25
100
AcDbPolyline
 90
        8
 70
     0
 43
0.0
 10
127.1402781302885
 20
150.6764238968629
 10
127.1402781302885
 20
150.5896413968628
 10
127.1402781302885
 20
148.305405146863
 10
127.5646693802883
 20
147.2774101468629
 10
138.4905506302883
 20
147.2774101468629
 10
138.8147531302885
 20
148.305405146863
 10
138.8147531302885
 20
150.5896413968628
 10
138.8147531302885
 20
150.6764238968629
  0
SPLINE
  5
33E
330
377C
100
AcDbEntity
  8
CUTS
 62
     1
420
 16711680
370
    25
100
AcDbSpline
210
0.0
220
0.0
230
1.0
 70
     8
 71
     3
 72
     8
 73
     4
 74
     0
 42
0.000000001
 43
0.001
 12
1.0
 22
0.0
 32
0.0
 13
1.0
 23
0.0
 33
0.0
 40
0.0
 40
0.0
 40
0.0
 40
0.0
 40
1.0
 40
1.0
 40
1.0
 40
1.0
 10
166.5406168802884
 20
150.6764238968629
 30
0.0
 10
166.5406168802884
 20
155.177868896863
 30
0.0
 10
170.1146081302885
 20
158.8270026468629
 30
0.0
 10
174.6164056302883
 20
158.8270026468629
 30
0.0
  0
LWPOLYLINE
  5
340
330
377C
100
AcDbEntity
  8
CUTS
 62
     1
420
 16711680
370
    25
100
AcDbPolyline
 90
        8
 70
     0
 43
0.0
 10
154.8661418802884
 20
150.6764238968629
 10
154.8661418802884
 20
150.5896413968628
 10
154.8661418802884
 20
148.305405146863
 10
155.2905331302885
 20
147.2774101468629
 10
166.2164143802885
 20
147.2774101468629
 10
166.5406168802884
 20
148.305405146863
 10
166.5406168802884
 20
150.5896413968628
 10
166.5406168802884
 20
150.6764238968629
  0
SPLINE
  5
342
330
377C
100
AcDbEntity
  8
CUTS
 62
     1
420
 16711680
370
    25
100
AcDbSpline
210
0.0
220
0.0
230
1.0
 70
     8
 71
     3
 72
     8
 73
     4
 74
     0
 42
0.000000001
 43
0.001
 12
1.0
 22
0.0
 32
0.0
 13
1.0
 23
0.0
 33
0.0
 40
0.0
 40
0.0
 40
0.0
 40
0.0
 40
1.0
 40
1.0
 40
1.0
 40
1.0
 10
181.8910368802884
 20
173.0517076468628
 30
0.0
 10
181.8910368802884
 20
174.998335146863
 30
0.0
 10
180.6750118802885
 20
177.613830146863
 30
0.0
 10
179.1880531302885
 20
178.865132646863
 30
0.0
  0
LWPOLYLINE
  5
344
330
377C
100
AcDbEntity
  8
CUTS
 62
     1
420
 16711680
370
    25
100
AcDbPolyline
 90
        3
 70
     0
 43
0.0
 10
174.6164056302883
 20
158.8270026468629
 10
181.8910368802884
 20
158.8270026468629
 10
181.8910368802884
 20
173.0517076468628
  0
SPLINE
  5
346
330
377C
100
AcDbEntity
  8
CUTS
 62
     1
420
 16711680
370
    25
100
AcDbSpline
210
0.0
220
0.0
230
1.0
 70
     8
 71
     3
 72
     8
 73
     4
 74
     0
 42
0.000000001
 43
0.001
 12
1.0
 22
0.0
 32
0.0
 13
1.0
 23
0.0
 33
0.0
 40
0.0
 40
0.0
 40
0.0
 40
0.0
 40
1.0
 40
1.0
 40
1.0
 40
1.0
 10
176.5937256302885
 20
181.728630146863
 30
0.0
 10
175.1074718802884
 20
182.9788738968628
 30
0.0
 10
173.8907418802883
 20
185.5950738968629
 30
0.0
 10
173.8907418802883
 20
187.5406438968628
 30
0.0
  0
LWPOLYLINE
  5
348
330
377C
100
AcDbEntity
  8
CUTS
 62
     1
420
 16711680
370
    25
100
AcDbPolyline
 90
        2
 70
     0
 43
0.0
 10
179.1880531302885
 20
178.865132646863
 10
176.5937256302885
 20
181.728630146863
  0
SPLINE
  5
34A
330
377C
100
AcDbEntity
  8
CUTS
 62
     1
420
 16711680
370
    25
100
AcDbSpline
210
0.0
220
0.0
230
1.0
 70
     8
 71
     3
 72
     8
 73
     4
 74
     0
 42
0.000000001
 43
0.001
 12
1.0
 22
0.0
 32
0.0
 13
1.0
 23
0.0
 33
0.0
 40
0.0
 40
0.0
 40
0.0
 40
0.0
 40
1.0
 40
1.0
 40
1.0
 40
1.0
 10
173.8907418802883
 20
247.1385688968631
 30
0.0
 10
173.8907418802883
 20
249.0844913968629
 30
0.0
 10
175.1074718802884
 20
251.699632646863
 30
0.0
 10
176.5937256302885
 20
252.950582646863
 30
0.0
  0
LWPOLYLINE
  5
34C
330
377C
100
AcDbEntity
  8
CUTS
 62
     1
420
 16711680
370
    25
100
AcDbPolyline
 90
        2
 70
     0
 43
0.0
 10
173.8907418802883
 20
187.5406438968628
 10
173.8907418802883
 20
247.1385688968631
  0
SPLINE
  5
34E
330
377C
100
AcDbEntity
  8
CUTS
 62
     1
420
 16711680
370
    25
100
AcDbSpline
210
0.0
220
0.0
230
1.0
 70
     8
 71
     3
 72
     8
 73
     4
 74
     0
 42
0.000000001
 43
0.001
 12
1.0
 22
0.0
 32
0.0
 13
1.0
 23
0.0
 33
0.0
 40
0.0
 40
0.0
 40
0.0
 40
0.0
 40
1.0
 40
1.0
 40
1.0
 40
1.0
 10
179.1880531302885
 20
255.8140801468629
 30
0.0
 10
180.6750118802885
 20
257.0653826468629
 30
0.0
 10
181.8910368802884
 20
259.6808776468629
 30
0.0
 10
181.8910368802884
 20
261.6275051468629
 30
0.0
  0
LWPOLYLINE
  5
350
330
377C
100
AcDbEntity
  8
CUTS
 62
     1
420
 16711680
370
    25
100
AcDbPolyline
 90
        2
 70
     0
 43
0.0
 10
176.5937256302885
 20
252.950582646863
 10
179.1880531302885
 20
255.8140801468629
  0
LWPOLYLINE
  5
352
330
377C
100
AcDbEntity
  8
CUTS
 62
     1
420
 16711680
370
    25
100
AcDbPolyline
 90
        3
 70
     0
 43
0.0
 10
181.8910368802884
 20
261.6275051468629
 10
181.8910368802884
 20
284.3947238968628
 10
181.8906831302885
 20
284.3947238968628
  0
LWPOLYLINE
  5
354
330
377C
100
AcDbEntity
  8
CUTS
 62
     1
420
 16711680
370
    25
100
AcDbPolyline
 90
        6
 70
     0
 43
0.0
 10
108.1749443802883
 20
216.6850276468629
 10
108.1749443802883
 20
210.2849326468629
 10
103.3852806302883
 20
210.2849326468629
 10
103.3852806302883
 20
216.6850276468629
 10
108.1749443802883
 20
216.6850276468629
 10
108.1749443802883
 20
216.6850276468629
  0
LWPOLYLINE
  5
356
330
377C
100
AcDbEntity
  8
CUTS
 62
     1
420
 16711680
370
    25
100
AcDbPolyline
 90
        6
 70
     0
 43
0.0
 10
75.6943418802883
 20
234.7945213968628
 10
75.6943418802883
 20
241.1946163968628
 10
80.48400563028835
 20
241.1946163968628
 10
80.48400563028835
 20
234.7945213968628
 10
75.6943418802883
 20
234.7945213968628
 10
75.6943418802883
 20
234.7945213968628
  0
LWPOLYLINE
  5
358
330
377C
100
AcDbEntity
  8
CUTS
 62
     1
420
 16711680
370
    25
100
AcDbPolyline
 90
        6
 70
     0
 43
0.0
 10
103.3852806302883
 20
234.7945213968628
 10
103.3852806302883
 20
241.1946163968628
 10
108.1749443802883
 20
241.1946163968628
 10
108.1749443802883
 20
234.7945213968628
 10
103.3852806302883
 20
234.7945213968628
 10
103.3852806302883
 20
234.7945213968628
  0
LWPOLYLINE
  5
35A
330
377C
100
AcDbEntity
  8
CUTS
 62
     1
420
 16711680
370
    25
100
AcDbPolyline
 90
        6
 70
     0
 43
0.0
 10
75.6943418802883
 20
210.2852851468629
 10
75.6943418802883
 20
216.6853801468629
 10
80.48400563028835
 20
216.6853801468629
 10
80.48400563028835
 20
210.2852851468629
 10
75.6943418802883
 20
210.2852851468629
 10
75.6943418802883
 20
210.2852851468629
  0
SPLINE
  5
368
330
377C
100
AcDbEntity
  8
CUTS
 62
     1
420
 16711680
370
    25
100
AcDbSpline
210
0.0
220
0.0
230
1.0
 70
     8
 71
     3
 72
     8
 73
     4
 74
     0
 42
0.000000001
 43
0.001
 12
1.0
 22
0.0
 32
0.0
 13
1.0
 23
0.0
 33
0.0
 40
0.0
 40
0.0
 40
0.0
 40
0.0
 40
1.0
 40
1.0
 40
1.0
 40
1.0
 10
41.88800063028847
 20
181.5518888968629
 30
0.0
 10
41.88800063028847
 20
183.4985163968629
 30
0.0
 10
43.10402563028842
 20
186.1140101468627
 30
0.0
 10
44.59098313028844
 20
187.365313896863
 30
0.0
  0
LWPOLYLINE
  5
36A
330
377C
100
AcDbEntity
  8
CUTS
 62
     1
420
 16711680
370
    25
100
AcDbPolyline
 90
       57
 70
     0
 43
0.0
 10
111.8889893802885
 20
158.7843163968628
 10
109.3616893802883
 20
158.7843163968628
 10
109.3616893802883
 20
154.7114963968629
 10
109.1122756302885
 20
152.884107646863
 10
104.8884668802885
 20
152.884107646863
 10
104.8884668802885
 20
159.0136213968629
 10
106.2886418802885
 20
159.0136213968629
 10
106.2886418802885
 20
161.1130026468627
 10
104.8884668802885
 20
161.1130026468627
 10
104.8884668802885
 20
162.6461738968628
 10
102.2888468802883
 20
162.6461738968628
 10
102.2888468802883
 20
161.1130026468627
 10
100.8879668802884
 20
161.1130026468627
 10
100.8879668802884
 20
159.0136213968629
 10
102.2888468802883
 20
159.0136213968629
 10
102.2888468802883
 20
152.884107646863
 10
96.56114688028842
 20
152.884107646863
 10
96.31032188028834
 20
154.7114963968629
 10
96.31032188028834
 20
158.7843163968628
 10
85.1378506302884
 20
158.7843163968628
 10
85.1378506302884
 20
154.7114963968629
 10
84.88773063028847
 20
152.884107646863
 10
78.16237563028844
 20
152.884107646863
 10
78.16237563028844
 20
159.0136213968629
 10
79.5618443802883
 20
159.0136213968629
 10
79.5618443802883
 20
161.1130026468627
 10
78.16237563028844
 20
161.1130026468627
 10
78.16237563028844
 20
162.6461738968628
 10
75.56275563028848
 20
162.6461738968628
 10
75.56275563028848
 20
161.1130026468627
 10
74.16116938028844
 20
161.1130026468627
 10
74.16116938028844
 20
159.0136213968629
 10
75.56275563028848
 20
159.0136213968629
 10
75.56275563028848
 20
152.884107646863
 10
68.8359893802884
 20
152.884107646863
 10
68.58657563028837
 20
154.7114963968629
 10
68.58657563028837
 20
158.7843163968628
 10
57.41269188028841
 20
158.7843163968628
 10
57.41269188028841
 20
154.7114963968629
 10
57.16257188028848
 20
152.884107646863
 10
51.43945813028844
 20
152.884107646863
 10
51.43945813028844
 20
159.0136213968629
 10
52.83963313028843
 20
159.0136213968629
 10
52.83963313028843
 20
161.1130026468627
 10
51.43945813028844
 20
161.1130026468627
 10
51.43945813028844
 20
162.6461738968628
 10
48.83983938028845
 20
162.6461738968628
 10
48.83983938028845
 20
161.1130026468627
 10
47.43895813028834
 20
161.1130026468627
 10
47.43895813028834
 20
159.0136213968629
 10
48.83983938028845
 20
159.0136213968629
 10
48.83983938028845
 20
152.884107646863
 10
44.61215063028848
 20
152.884107646863
 10
44.36203063028742
 20
154.7114963968629
 10
44.36203063028742
 20
158.7843163968628
 10
41.88764688028832
 20
158.7843163968628
 10
41.88800063028847
 20
181.5518888968629
  0
SPLINE
  5
36C
330
377C
100
AcDbEntity
  8
CUTS
 62
     1
420
 16711680
370
    25
100
AcDbSpline
210
0.0
220
0.0
230
1.0
 70
     8
 71
     3
 72
     8
 73
     4
 74
     0
 42
0.000000001
 43
0.001
 12
1.0
 22
0.0
 32
0.0
 13
1.0
 23
0.0
 33
0.0
 40
0.0
 40
0.0
 40
0.0
 40
0.0
 40
1.0
 40
1.0
 40
1.0
 40
1.0
 10
47.18531188028837
 20
190.2288101468628
 30
0.0
 10
48.67156438028846
 20
191.4801138968628
 30
0.0
 10
49.88829438028833
 20
194.0949026468629
 30
0.0
 10
49.88829438028833
 20
196.040823896863
 30
0.0
  0
LWPOLYLINE
  5
36E
330
377C
100
AcDbEntity
  8
CUTS
 62
     1
420
 16711680
370
    25
100
AcDbPolyline
 90
        2
 70
     0
 43
0.0
 10
44.59098313028844
 20
187.365313896863
 10
47.18531188028837
 20
190.2288101468628
  0
SPLINE
  5
370
330
377C
100
AcDbEntity
  8
CUTS
 62
     1
420
 16711680
370
    25
100
AcDbSpline
210
0.0
220
0.0
230
1.0
 70
     8
 71
     3
 72
     8
 73
     4
 74
     0
 42
0.000000001
 43
0.001
 12
1.0
 22
0.0
 32
0.0
 13
1.0
 23
0.0
 33
0.0
 40
0.0
 40
0.0
 40
0.0
 40
0.0
 40
1.0
 40
1.0
 40
1.0
 40
1.0
 10
49.88829438028833
 20
255.6387488968629
 30
0.0
 10
49.88829438028833
 20
257.5846713968629
 30
0.0
 10
48.67156438028846
 20
260.200871396863
 30
0.0
 10
47.18531188028837
 20
261.4507638968631
 30
0.0
  0
LWPOLYLINE
  5
372
330
377C
100
AcDbEntity
  8
CUTS
 62
     1
420
 16711680
370
    25
100
AcDbPolyline
 90
        2
 70
     0
 43
0.0
 10
49.88829438028833
 20
196.040823896863
 10
49.88829438028833
 20
255.6387488968629
  0
SPLINE
  5
374
330
377C
100
AcDbEntity
  8
CUTS
 62
     1
420
 16711680
370
    25
100
AcDbSpline
210
0.0
220
0.0
230
1.0
 70
     8
 71
     3
 72
     8
 73
     4
 74
     0
 42
0.000000001
 43
0.001
 12
1.0
 22
0.0
 32
0.0
 13
1.0
 23
0.0
 33
0.0
 40
0.0
 40
0.0
 40
0.0
 40
0.0
 40
1.0
 40
1.0
 40
1.0
 40
1.0
 10
44.59098313028844
 20
264.3142601468629
 30
0.0
 10
43.10402563028842
 20
265.5655638968628
 30
0.0
 10
41.88800063028847
 20
268.1810576468629
 30
0.0
 10
41.88800063028847
 20
270.1276851468629
 30
0.0
  0
LWPOLYLINE
  5
376
330
377C
100
AcDbEntity
  8
CUTS
 62
     1
420
 16711680
370
    25
100
AcDbPolyline
 90
        2
 70
     0
 43
0.0
 10
47.18531188028837
 20
261.4507638968631
 10
44.59098313028844
 20
264.3142601468629
  0
SPLINE
  5
378
330
377C
100
AcDbEntity
  8
CUTS
 62
     1
420
 16711680
370
    25
100
AcDbSpline
210
0.0
220
0.0
230
1.0
 70
     8
 71
     3
 72
     8
 73
     4
 74
     0
 42
0.000000001
 43
0.001
 12
1.0
 22
0.0
 32
0.0
 13
1.0
 23
0.0
 33
0.0
 40
0.0
 40
0.0
 40
0.0
 40
0.0
 40
1.0
 40
1.0
 40
1.0
 40
1.0
 10
49.16263063028836
 20
284.3947238968628
 30
0.0
 10
53.6122168802884
 20
284.3947238968628
 30
0.0
 10
57.15128313028831
 20
287.9602488968629
 30
0.0
 10
57.23453938028851
 20
292.389373896863
 30
0.0
  0
LWPOLYLINE
  5
37A
330
377C
100
AcDbEntity
  8
CUTS
 62
     1
420
 16711680
370
    25
100
AcDbPolyline
 90
        3
 70
     0
 43
0.0
 10
41.88800063028847
 20
270.1276851468629
 10
41.88800063028847
 20
284.3947238968628
 10
49.16263063028836
 20
284.3947238968628
  0
SPLINE
  5
37C
330
377C
100
AcDbEntity
  8
CUTS
 62
     1
420
 16711680
370
    25
100
AcDbSpline
210
0.0
220
0.0
230
1.0
 70
     8
 71
     3
 72
     8
 73
     4
 74
     0
 42
0.000000001
 43
0.001
 12
1.0
 22
0.0
 32
0.0
 13
1.0
 23
0.0
 33
0.0
 40
0.0
 40
0.0
 40
0.0
 40
0.0
 40
1.0
 40
1.0
 40
1.0
 40
1.0
 10
68.91677563028847
 20
292.5893988968628
 30
0.0
 10
69.00003063028848
 20
288.1599213968631
 30
0.0
 10
72.1944331302885
 20
284.3065301468628
 30
0.0
 10
76.64472563028843
 20
284.3065301468628
 30
0.0
  0
SPLINE
  5
37E
330
377C
100
AcDbEntity
  8
CUTS
 62
     1
420
 16711680
370
    25
100
AcDbSpline
210
0.0
220
0.0
230
1.0
 70
     8
 71
     3
 72
     8
 73
     4
 74
     0
 42
0.000000001
 43
0.001
 12
1.0
 22
0.0
 32
0.0
 13
1.0
 23
0.0
 33
0.0
 40
0.0
 40
0.0
 40
0.0
 40
0.0
 40
1.0
 40
1.0
 40
1.0
 40
1.0
 10
76.64472563028843
 20
284.3065301468628
 30
0.0
 10
81.10418938028837
 20
284.3065301468628
 30
0.0
 10
84.86691688028836
 20
287.626168896863
 30
0.0
 10
84.96040313028843
 20
292.5893988968628
 30
0.0
  0
LWPOLYLINE
  5
380
330
377C
100
AcDbEntity
  8
CUTS
 62
     1
420
 16711680
370
    25
100
AcDbPolyline
 90
       10
 70
     0
 43
0.0
 10
57.23453938028851
 20
292.389373896863
 10
57.23841938028849
 20
292.5893988968628
 10
57.23841938028849
 20
292.7449738968627
 10
57.23841938028849
 20
294.6743163968629
 10
57.56262188028845
 20
295.9016301468627
 10
68.48850313028842
 20
295.9016301468627
 10
68.9128943802883
 20
294.6743163968629
 10
68.9128943802883
 20
292.7449738968627
 10
68.91677563028847
 20
292.5893988968628
 10
68.91677563028847
 20
292.5893988968628
  0
SPLINE
  5
382
330
377C
100
AcDbEntity
  8
CUTS
 62
     1
420
 16711680
370
    25
100
AcDbSpline
210
0.0
220
0.0
230
1.0
 70
     8
 71
     3
 72
     8
 73
     4
 74
     0
 42
0.000000001
 43
0.001
 12
1.0
 22
0.0
 32
0.0
 13
1.0
 23
0.0
 33
0.0
 40
0.0
 40
0.0
 40
0.0
 40
0.0
 40
1.0
 40
1.0
 40
1.0
 40
1.0
 10
96.64334438028831
 20
292.389373896863
 30
0.0
 10
96.72624688028836
 20
287.9602488968629
 30
0.0
 10
100.1658306302885
 20
284.3947238968628
 30
0.0
 10
104.6147118802884
 20
284.3947238968628
 30
0.0
  0
LWPOLYLINE
  5
384
330
377C
100
AcDbEntity
  8
CUTS
 62
     1
420
 16711680
370
    25
100
AcDbPolyline
 90
       10
 70
     0
 43
0.0
 10
84.96040313028843
 20
292.5893988968628
 10
84.96040313028843
 20
292.5893988968628
 10
84.96463688028834
 20
292.7449738968627
 10
84.96463688028834
 20
294.6743163968629
 10
85.2888393802883
 20
295.9016301468627
 10
96.2147193802883
 20
295.9016301468627
 10
96.63911188028837
 20
294.6743163968629
 10
96.63911188028837
 20
292.7449738968627
 10
96.63911188028837
 20
292.5893988968628
 10
96.64334438028831
 20
292.389373896863
  0
LWPOLYLINE
  5
386
330
377C
100
AcDbEntity
  8
CUTS
 62
     1
420
 16711680
370
    25
100
AcDbPolyline
 90
        2
 70
     0
 43
0.0
 10
104.6147118802884
 20
284.3947238968628
 10
111.8896943802884
 20
284.3947238968628
  0
LINE
  5
39F
330
377C
100
AcDbEntity
  8
CUTS
 62
     1
420
 16711680
370
    25
100
AcDbLine
 10
476.0727466850337
 20
274.9645834547783
 30
0.0
 11
480.0727466850337
 21
274.9645834547783
 31
0.0
  0
LINE
  5
3A0
330
377C
100
AcDbEntity
  8
CUTS
 62
     1
420
 16711680
370
    25
100
AcDbLine
 10
442.2374779350337
 20
274.9645834547783
 30
0.0
 11
446.2374779350337
 21
274.9645834547783
 31
0.0
  0
LINE
  5
3A1
330
377C
100
AcDbEntity
  8
CUTS
 62
     1
420
 16711680
370
    25
100
AcDbLine
 10
433.2007804350339
 20
259.8759247047782
 30
0.0
 11
433.2007804350339
 21
268.6206863823013
 31
0.0
  0
LINE
  5
3A2
330
377C
100
AcDbEntity
  8
CUTS
 62
     1
420
 16711680
370
    25
100
AcDbLine
 10
433.2007804350339
 20
232.3885384547781
 30
0.0
 11
432.9005664350336
 21
244.8761659547783
 31
0.0
  0
LINE
  5
3A3
330
377C
100
AcDbEntity
  8
CUTS
 62
     1
420
 16711680
370
    25
100
AcDbLine
 10
559.7992604350338
 20
248.5697497047782
 30
0.0
 11
559.7992604350338
 21
239.8253128433898
 31
0.0
  0
LINE
  5
3A4
330
377C
100
AcDbEntity
  8
CUTS
 62
     1
420
 16711680
370
    25
100
AcDbLine
 10
559.7992604350338
 20
276.0571359547781
 30
0.0
 11
560.0994744350337
 21
263.5695084547783
 31
0.0
  0
LINE
  5
3A5
330
377C
100
AcDbEntity
  8
CUTS
 62
     1
420
 16711680
370
    25
100
AcDbLine
 10
429.2007804350339
 20
259.8759247047782
 30
0.0
 11
429.2007804350339
 21
264.8761972047785
 31
0.0
  0
LINE
  5
3A6
330
377C
100
AcDbEntity
  8
CUTS
 62
     1
420
 16711680
370
    25
100
AcDbLine
 10
429.2007804350339
 20
264.8761972047785
 30
0.0
 11
423.2007354350337
 21
264.8761972047784
 31
0.0
  0
LINE
  5
3A7
330
377C
100
AcDbEntity
  8
CUTS
 62
     1
420
 16711680
370
    25
100
AcDbLine
 10
423.2007354350337
 20
264.8761972047784
 30
0.0
 11
423.2007354350337
 21
244.8761659547782
 31
0.0
  0
LINE
  5
3A8
330
377C
100
AcDbEntity
  8
CUTS
 62
     1
420
 16711680
370
    25
100
AcDbLine
 10
423.2007354350337
 20
244.8761659547782
 30
0.0
 11
432.9005664350336
 21
244.8761659547782
 31
0.0
  0
LINE
  5
3A9
330
377C
100
AcDbEntity
  8
CUTS
 62
     1
420
 16711680
370
    25
100
AcDbLine
 10
429.2007804350339
 20
232.3885384547781
 30
0.0
 11
429.2007804350339
 21
237.3884584547783
 31
0.0
  0
LINE
  5
3AA
330
377C
100
AcDbEntity
  8
CUTS
 62
     1
420
 16711680
370
    25
100
AcDbLine
 10
429.2007804350339
 20
237.3884584547783
 30
0.0
 11
423.2007354350337
 21
237.3884584547783
 31
0.0
  0
LINE
  5
3AB
330
377C
100
AcDbEntity
  8
CUTS
 62
     1
420
 16711680
370
    25
100
AcDbLine
 10
423.2007354350337
 20
237.3884584547783
 30
0.0
 11
423.2007354350337
 21
217.3923084547783
 31
0.0
  0
LINE
  5
3AC
330
377C
100
AcDbEntity
  8
CUTS
 62
     1
420
 16711680
370
    25
100
AcDbLine
 10
423.2007354350337
 20
217.3923084547783
 30
0.0
 11
439.1018416850368
 21
217.3923084547783
 31
0.0
  0
LINE
  5
3AD
330
377C
100
AcDbEntity
  8
CUTS
 62
     1
420
 16711680
370
    25
100
AcDbLine
 10
563.7992604350338
 20
248.5697497047782
 30
0.0
 11
563.7992604350338
 21
243.5694772047783
 31
0.0
  0
LINE
  5
3AE
330
377C
100
AcDbEntity
  8
CUTS
 62
     1
420
 16711680
370
    25
100
AcDbLine
 10
563.7992604350338
 20
243.5694772047783
 30
0.0
 11
569.7993054350338
 21
243.5694772047783
 31
0.0
  0
LINE
  5
3AF
330
377C
100
AcDbEntity
  8
CUTS
 62
     1
420
 16711680
370
    25
100
AcDbLine
 10
569.7993054350338
 20
243.5694772047783
 30
0.0
 11
569.7993054350338
 21
263.5695084547784
 31
0.0
  0
LINE
  5
3B0
330
377C
100
AcDbEntity
  8
CUTS
 62
     1
420
 16711680
370
    25
100
AcDbLine
 10
569.7993054350338
 20
263.5695084547784
 30
0.0
 11
560.0994744350337
 21
263.5695084547784
 31
0.0
  0
LINE
  5
3B1
330
377C
100
AcDbEntity
  8
CUTS
 62
     1
420
 16711680
370
    25
100
AcDbLine
 10
563.7992604350338
 20
276.0571359547781
 30
0.0
 11
563.7992604350338
 21
271.057215954778
 31
0.0
  0
LINE
  5
3B2
330
377C
100
AcDbEntity
  8
CUTS
 62
     1
420
 16711680
370
    25
100
AcDbLine
 10
563.7992604350338
 20
271.057215954778
 30
0.0
 11
569.7993054350338
 21
271.057215954778
 31
0.0
  0
LINE
  5
3B3
330
377C
100
AcDbEntity
  8
CUTS
 62
     1
420
 16711680
370
    25
100
AcDbLine
 10
569.7993054350338
 20
271.057215954778
 30
0.0
 11
569.7993054350338
 21
291.0572472047783
 31
0.0
  0
LINE
  5
3B4
330
377C
100
AcDbEntity
  8
CUTS
 62
     1
420
 16711680
370
    25
100
AcDbLine
 10
569.7993054350338
 20
291.0572472047783
 30
0.0
 11
553.8981991850187
 21
291.0572472047783
 31
0.0
  0
LINE
  5
3B5
330
377C
100
AcDbEntity
  8
CUTS
 62
     1
420
 16711680
370
    25
100
AcDbLine
 10
440.136891685034
 20
284.3544684547784
 30
0.0
 11
442.1372886850338
 21
284.3544684547784
 31
0.0
  0
LINE
  5
3B6
330
377C
100
AcDbEntity
  8
CUTS
 62
     1
420
 16711680
370
    25
100
AcDbLine
 10
442.2374779350337
 20
274.9645834547783
 30
0.0
 11
442.1372886850338
 21
284.3544684547784
 31
0.0
  0
LINE
  5
3B7
330
377C
100
AcDbEntity
  8
CUTS
 62
     1
420
 16711680
370
    25
100
AcDbLine
 10
440.136891685034
 20
284.3544684547784
 30
0.0
 11
439.1977966850338
 21
284.3544684547784
 31
0.0
  0
LINE
  5
3B8
330
377C
100
AcDbEntity
  8
CUTS
 62
     1
420
 16711680
370
    25
100
AcDbLine
 10
439.1977966850338
 20
284.3544684547784
 30
0.0
 11
439.1977966850338
 21
289.5572359547753
 31
0.0
  0
LINE
  5
3B9
330
377C
100
AcDbEntity
  8
CUTS
 62
     1
420
 16711680
370
    25
100
AcDbLine
 10
550.8634584350339
 20
224.0950859547779
 30
0.0
 11
552.8638554350339
 21
224.0950859547779
 31
0.0
  0
LINE
  5
3BA
330
377C
100
AcDbEntity
  8
CUTS
 62
     1
420
 16711680
370
    25
100
AcDbLine
 10
476.0727466850337
 20
274.9645834547783
 30
0.0
 11
475.9729099350338
 21
284.3548222047781
 31
0.0
  0
LINE
  5
3BC
330
377C
100
AcDbEntity
  8
CUTS
 62
     1
420
 16711680
370
    25
100
AcDbLine
 10
475.9729099350338
 20
284.354822204778
 30
0.0
 11
446.3376666850338
 21
284.354822204778
 31
0.0
  0
LINE
  5
3BD
330
377C
100
AcDbEntity
  8
CUTS
 62
     1
420
 16711680
370
    25
100
AcDbLine
 10
446.3376666850338
 20
284.354822204778
 30
0.0
 11
446.2621716850338
 21
280.0650434547782
 31
0.0
  0
LINE
  5
3BE
330
377C
100
AcDbEntity
  8
CUTS
 62
     1
420
 16711680
370
    25
100
AcDbLine
 10
509.8342854350337
 20
274.9645834547783
 30
0.0
 11
509.7344499350338
 21
284.3548222047781
 31
0.0
  0
LINE
  5
3C0
330
377C
100
AcDbEntity
  8
CUTS
 62
     1
420
 16711680
370
    25
100
AcDbLine
 10
509.7344499350338
 20
284.354822204778
 30
0.0
 11
480.1725829350337
 21
284.3548222047782
 31
0.0
  0
LINE
  5
3C4
330
377C
100
AcDbEntity
  8
CUTS
 62
     1
420
 16711680
370
    25
100
AcDbLine
 10
480.1725829350337
 20
284.3548222047782
 30
0.0
 11
480.1034379350338
 21
280.0650434547782
 31
0.0
  0
LINE
  5
3C5
330
377C
100
AcDbEntity
  8
CUTS
 62
     1
420
 16711680
370
    25
100
AcDbLine
 10
543.4776441850338
 20
274.9645834547783
 30
0.0
 11
543.3778074350339
 21
284.3548222047782
 31
0.0
  0
LINE
  5
3C9
330
377C
100
AcDbEntity
  8
CUTS
 62
     1
420
 16711680
370
    25
100
AcDbLine
 10
543.3778074350339
 20
284.3548222047781
 30
0.0
 11
513.9341216850337
 21
284.3548222047781
 31
0.0
  0
LINE
  5
3CA
330
377C
100
AcDbEntity
  8
CUTS
 62
     1
420
 16711680
370
    25
100
AcDbLine
 10
513.9341216850337
 20
284.3548222047781
 30
0.0
 11
513.8653304350337
 21
280.0650434547782
 31
0.0
  0
LINE
  5
3CB
330
377C
100
AcDbEntity
  8
CUTS
 62
     1
420
 16711680
370
    25
100
AcDbLine
 10
550.8634584350339
 20
224.0950859547779
 30
0.0
 11
550.7629166850338
 21
233.4810909547783
 31
0.0
  0
LINE
  5
3CC
330
377C
100
AcDbEntity
  8
CUTS
 62
     1
420
 16711680
370
    25
100
AcDbLine
 10
516.9276466850338
 20
233.4810909547783
 30
0.0
 11
517.0274834350339
 21
224.095085954778
 31
0.0
  0
LINE
  5
3CD
330
377C
100
AcDbEntity
  8
CUTS
 62
     1
420
 16711680
370
    25
100
AcDbLine
 10
517.0274834350339
 20
224.095085954778
 30
0.0
 11
546.6627279350339
 21
224.095085954778
 31
0.0
  0
LINE
  5
3CE
330
377C
100
AcDbEntity
  8
CUTS
 62
     1
420
 16711680
370
    25
100
AcDbLine
 10
546.6627279350339
 20
224.095085954778
 30
0.0
 11
546.7382216850337
 21
228.3848634547782
 31
0.0
  0
LINE
  5
3CF
330
377C
100
AcDbEntity
  8
CUTS
 62
     1
420
 16711680
370
    25
100
AcDbLine
 10
483.1661079350338
 20
233.4810909547783
 30
0.0
 11
483.2659446850339
 21
224.0950859547781
 31
0.0
  0
LINE
  5
3D0
330
377C
100
AcDbEntity
  8
CUTS
 62
     1
420
 16711680
370
    25
100
AcDbLine
 10
512.8278104350338
 20
224.0950859547781
 30
0.0
 11
512.8966029350338
 21
228.3848634547779
 31
0.0
  0
LINE
  5
3D1
330
377C
100
AcDbEntity
  8
CUTS
 62
     1
420
 16711680
370
    25
100
AcDbLine
 10
483.2659446850339
 20
224.0950859547781
 30
0.0
 11
512.8278104350338
 21
224.095085954778
 31
0.0
  0
LINE
  5
3D2
330
377C
100
AcDbEntity
  8
CUTS
 62
     1
420
 16711680
370
    25
100
AcDbLine
 10
449.5227491850339
 20
233.4810909547783
 30
0.0
 11
449.6225859350336
 21
224.095085954778
 31
0.0
  0
LINE
  5
3D3
330
377C
100
AcDbEntity
  8
CUTS
 62
     1
420
 16711680
370
    25
100
AcDbLine
 10
449.6225859350336
 20
224.095085954778
 30
0.0
 11
479.0662716850338
 21
224.095085954778
 31
0.0
  0
LINE
  5
3D4
330
377C
100
AcDbEntity
  8
CUTS
 62
     1
420
 16711680
370
    25
100
AcDbLine
 10
479.0662716850338
 20
224.095085954778
 30
0.0
 11
479.1350629350338
 21
228.384863454778
 31
0.0
  0
LWPOLYLINE
  5
3D5
330
377C
100
AcDbEntity
  8
CUTS
 62
     1
420
 16711680
370
    25
100
AcDbPolyline
 90
        8
 70
     0
 43
0.0
 10
446.2635829350336
 20
271.0254659547783
 10
446.2635829350336
 20
277.865122204778
 10
445.0620216850336
 20
277.865122204778
 10
445.3456554350339
 20
278.7484772047782
 10
446.2621716850338
 20
280.0650434547782
 10
448.3195716850339
 20
280.0650434547782
 10
447.820037935034
 20
271.0254659547783
 10
449.8326354350336
 20
280.0650434547782
  0
LWPOLYLINE
  5
3D6
330
377C
100
AcDbEntity
  8
CUTS
 62
     1
420
 16711680
370
    25
100
AcDbPolyline
 90
        2
 70
     0
 43
0.0
 10
448.3195754350338
 20
280.0650434547782
 10
449.8326316850337
 20
280.0650434547782
  0
LWPOLYLINE
  5
3D7
330
377C
100
AcDbEntity
  8
CUTS
 62
     1
420
 16711680
370
    25
100
AcDbPolyline
 90
        8
 70
     0
 43
0.0
 10
547.5474941850339
 20
271.0254659547783
 10
547.5474941850339
 20
277.865122204778
 10
546.3466379350339
 20
277.865122204778
 10
546.6306241850339
 20
278.7484772047782
 10
547.5460829350338
 20
280.0650434547782
 10
549.6034829350338
 20
280.0650434547782
 10
549.1039491850338
 20
271.0254659547783
 10
551.1165466850339
 20
280.0650434547782
  0
LWPOLYLINE
  5
3D8
330
377C
100
AcDbEntity
  8
CUTS
 62
     1
420
 16711680
370
    25
100
AcDbPolyline
 90
        2
 70
     0
 43
0.0
 10
549.6034791850338
 20
280.0650434547782
 10
551.1165466850339
 20
280.0650434547782
  0
LWPOLYLINE
  5
3D9
330
377C
100
AcDbEntity
  8
CUTS
 62
     1
420
 16711680
370
    25
100
AcDbPolyline
 90
        8
 70
     0
 43
0.0
 10
513.8667416850337
 20
271.0254659547783
 10
513.8667416850337
 20
277.865122204778
 10
512.6658854350337
 20
277.865122204778
 10
512.9488129350339
 20
278.7484772047782
 10
513.8653304350337
 20
280.0650434547782
 10
515.9227304350338
 20
280.0650434547782
 10
515.4231966850339
 20
271.0254659547783
 10
517.4357941850337
 20
280.0650434547782
  0
LWPOLYLINE
  5
3DA
330
377C
100
AcDbEntity
  8
CUTS
 62
     1
420
 16711680
370
    25
100
AcDbPolyline
 90
        2
 70
     0
 43
0.0
 10
515.9227304350338
 20
280.0650434547782
 10
517.4357941850337
 20
280.0650434547782
  0
LWPOLYLINE
  5
3DB
330
377C
100
AcDbEntity
  8
CUTS
 62
     1
420
 16711680
370
    25
100
AcDbPolyline
 90
        8
 70
     0
 43
0.0
 10
480.1048491850338
 20
271.0254659547783
 10
480.1048491850338
 20
277.865122204778
 10
478.9039941850338
 20
277.865122204778
 10
479.1872741850339
 20
278.7484772047782
 10
480.1034379350338
 20
280.0650434547782
 10
482.1608379350339
 20
280.0650434547782
 10
481.6613054350337
 20
271.0254659547783
 10
483.6742554350337
 20
280.0650434547782
  0
LWPOLYLINE
  5
3DC
330
377C
100
AcDbEntity
  8
CUTS
 62
     1
420
 16711680
370
    25
100
AcDbPolyline
 90
        2
 70
     0
 43
0.0
 10
482.1608379350339
 20
280.0650434547782
 10
483.6742591850339
 20
280.0650434547782
  0
SPLINE
  5
3DF
330
377C
100
AcDbEntity
  8
CUTS
 62
     1
420
 16711680
370
    25
100
AcDbSpline
210
0.0
220
0.0
230
1.0
 70
     8
 71
     3
 72
     8
 73
     4
 74
     0
 42
0.000000001
 43
0.001
 12
1.0
 22
0.0
 32
0.0
 13
1.0
 23
0.0
 33
0.0
 40
0.0
 40
0.0
 40
0.0
 40
0.0
 40
1.0
 40
1.0
 40
1.0
 40
1.0
 10
439.1977966850338
 20
289.5572359547783
 30
0.0
 10
439.1977966850338
 20
291.2075297047783
 30
0.0
 10
437.8477166850337
 20
292.5572584547782
 30
0.0
 10
436.1977741850339
 20
292.5572584547782
 30
0.0
  0
SPLINE
  5
3E1
330
377C
100
AcDbEntity
  8
CUTS
 62
     1
420
 16711680
370
    25
100
AcDbSpline
210
0.0
220
0.0
230
1.0
 70
     8
 71
     3
 72
     8
 73
     4
 74
     0
 42
0.000000001
 43
0.001
 12
1.0
 22
0.0
 32
0.0
 13
1.0
 23
0.0
 33
0.0
 40
0.0
 40
0.0
 40
0.0
 40
0.0
 40
1.0
 40
1.0
 40
1.0
 40
1.0
 10
435.1976491850339
 20
292.5572584547782
 30
0.0
 10
433.547355435034
 20
292.5572584547782
 30
0.0
 10
432.197627935034
 20
291.2075297047783
 30
0.0
 10
432.197627935034
 20
289.5572359547783
 30
0.0
  0
LWPOLYLINE
  5
3E2
330
377C
100
AcDbEntity
  8
CUTS
 62
     1
420
 16711680
370
    25
100
AcDbPolyline
 90
        2
 70
     0
 43
0.0
 10
436.1977741850339
 20
292.5572584547782
 10
435.1976491850339
 20
292.5572584547782
  0
SPLINE
  5
3E3
330
377C
100
AcDbEntity
  8
CUTS
 62
     1
420
 16711680
370
    25
100
AcDbSpline
210
0.0
220
0.0
230
1.0
 70
    24
 71
     3
 72
     8
 73
     4
 74
     0
 42
0.000000001
 43
0.001
 12
1.0
 22
0.0
 32
0.0
 13
1.0
 23
0.0
 33
0.0
 40
0.0
 40
0.0
 40
0.0
 40
0.0
 40
1.0
 40
1.0
 40
1.0
 40
1.0
 10
432.197627935034
 20
288.8545022047782
 30
0.0
 10
432.197627935034
 20
287.2049134547784
 30
0.0
 10
432.197627935034
 20
283.004035954778
 30
0.0
 10
432.197627935034
 20
281.3544472047782
 30
0.0
  0
LWPOLYLINE
  5
3E4
330
377C
100
AcDbEntity
  8
CUTS
 62
     1
420
 16711680
370
    25
100
AcDbPolyline
 90
        2
 70
     0
 43
0.0
 10
432.197627935034
 20
289.5572359547783
 10
432.197627935034
 20
288.8545022047782
  0
SPLINE
  5
3E5
330
377C
100
AcDbEntity
  8
CUTS
 62
     1
420
 16711680
370
    25
100
AcDbSpline
210
0.0
220
0.0
230
1.0
 70
    24
 71
     3
 72
     8
 73
     4
 74
     0
 42
0.000000001
 43
0.001
 12
1.0
 22
0.0
 32
0.0
 13
1.0
 23
0.0
 33
0.0
 40
0.0
 40
0.0
 40
0.0
 40
0.0
 40
1.0
 40
1.0
 40
1.0
 40
1.0
 10
432.197627935034
 20
280.6517134547781
 30
0.0
 10
432.197627935034
 20
279.0014184547782
 30
0.0
 10
432.197627935034
 20
276.3012584547783
 30
0.0
 10
432.197627935034
 20
274.6516684547784
 30
0.0
  0
LWPOLYLINE
  5
3E6
330
377C
100
AcDbEntity
  8
CUTS
 62
     1
420
 16711680
370
    25
100
AcDbPolyline
 90
        2
 70
     0
 43
0.0
 10
432.197627935034
 20
281.3544472047782
 10
432.197627935034
 20
280.6517134547781
  0
SPLINE
  5
3E7
330
377C
100
AcDbEntity
  8
CUTS
 62
     1
420
 16711680
370
    25
100
AcDbSpline
210
0.0
220
0.0
230
1.0
 70
     8
 71
     3
 72
     8
 73
     4
 74
     0
 42
0.000000001
 43
0.001
 12
1.0
 22
0.0
 32
0.0
 13
1.0
 23
0.0
 33
0.0
 40
0.0
 40
0.0
 40
0.0
 40
0.0
 40
1.0
 40
1.0
 40
1.0
 40
1.0
 10
432.197627935034
 20
271.1623434547784
 30
0.0
 10
432.197627935034
 20
269.5127547047783
 30
0.0
 10
433.4993779350336
 20
267.8053109547783
 30
0.0
 10
435.0907579350339
 20
267.3696297047783
 30
0.0
  0
LWPOLYLINE
  5
3E8
330
377C
100
AcDbEntity
  8
CUTS
 62
     1
420
 16711680
370
    25
100
AcDbPolyline
 90
        2
 70
     0
 43
0.0
 10
432.197627935034
 20
274.6516684547784
 10
432.197627935034
 20
271.1623434547784
  0
SPLINE
  5
3E9
330
377C
100
AcDbEntity
  8
CUTS
 62
     1
420
 16711680
370
    25
100
AcDbSpline
210
0.0
220
0.0
230
1.0
 70
     8
 71
     3
 72
     8
 73
     4
 74
     0
 42
0.000000001
 43
0.001
 12
1.0
 22
0.0
 32
0.0
 13
1.0
 23
0.0
 33
0.0
 40
0.0
 40
0.0
 40
0.0
 40
0.0
 40
1.0
 40
1.0
 40
1.0
 40
1.0
 10
553.8981991850337
 20
291.0572472047783
 30
0.0
 10
552.2482579350337
 20
291.0572472047783
 30
0.0
 10
550.8981779350338
 20
289.7075184547781
 30
0.0
 10
550.8981779350338
 20
288.0575772047781
 30
0.0
  0
LWPOLYLINE
  5
3EC
330
377C
100
AcDbEntity
  8
CUTS
 62
     1
420
 16711680
370
    25
100
AcDbPolyline
 90
        4
 70
     0
 43
0.0
 10
550.8981779350338
 20
288.0575772047781
 10
550.8981779350338
 20
284.3544684547784
 10
547.5771279350338
 20
284.3544684547784
 10
547.5457304350339
 20
280.0646909547783
  0
LWPOLYLINE
  5
3F9
330
377C
100
AcDbEntity
  8
CUTS
 62
     1
420
 16711680
370
    25
100
AcDbPolyline
 90
        8
 70
     0
 43
0.0
 10
546.7368104350337
 20
237.4202084547784
 10
546.7368104350337
 20
230.5819634547782
 10
547.9383716850339
 20
230.5819634547782
 10
547.6547379350338
 20
229.7007247047783
 10
546.7382216850337
 20
228.3848634547782
 10
544.6808216850338
 20
228.3848634547782
 10
545.1803554350338
 20
237.4202084547784
 10
543.1681104350339
 20
228.3848634547782
  0
LWPOLYLINE
  5
3FA
330
377C
100
AcDbEntity
  8
CUTS
 62
     1
420
 16711680
370
    25
100
AcDbPolyline
 90
        2
 70
     0
 43
0.0
 10
544.6808254350337
 20
228.3848984547782
 10
543.1681066850338
 20
228.3848984547782
  0
LWPOLYLINE
  5
3FB
330
377C
100
AcDbEntity
  8
CUTS
 62
     1
420
 16711680
370
    25
100
AcDbPolyline
 90
        8
 70
     0
 43
0.0
 10
445.4528991850336
 20
237.4202084547784
 10
445.4528991850336
 20
230.5819634547782
 10
446.6537554350336
 20
230.5819634547782
 10
446.3697691850336
 20
229.7007247047783
 10
445.4543104350339
 20
228.3848634547782
 10
443.3969104350338
 20
228.3848634547782
 10
443.8964441850337
 20
237.4202084547784
 10
441.8838466850336
 20
228.3848634547782
  0
LWPOLYLINE
  5
3FC
330
377C
100
AcDbEntity
  8
CUTS
 62
     1
420
 16711680
370
    25
100
AcDbPolyline
 90
        2
 70
     0
 43
0.0
 10
443.3969104350338
 20
228.3848984547782
 10
441.8838429350337
 20
228.3848984547782
  0
LWPOLYLINE
  5
3FD
330
377C
100
AcDbEntity
  8
CUTS
 62
     1
420
 16711680
370
    25
100
AcDbPolyline
 90
        8
 70
     0
 43
0.0
 10
479.1336529350338
 20
237.4202084547784
 10
479.1336529350338
 20
230.5819634547782
 10
480.3348604350338
 20
230.5819634547782
 10
480.0515804350339
 20
229.7007247047783
 10
479.1350629350338
 20
228.3848634547782
 10
477.0776629350337
 20
228.3848634547782
 10
477.5771966850339
 20
237.4202084547784
 10
475.5645991850338
 20
228.3848634547782
  0
LWPOLYLINE
  5
3FF
330
377C
100
AcDbEntity
  8
CUTS
 62
     1
420
 16711680
370
    25
100
AcDbPolyline
 90
        2
 70
     0
 43
0.0
 10
477.0776629350337
 20
228.3848984547782
 10
475.5645991850338
 20
228.3848984547782
  0
LWPOLYLINE
  5
401
330
377C
100
AcDbEntity
  8
CUTS
 62
     1
420
 16711680
370
    25
100
AcDbPolyline
 90
        8
 70
     0
 43
0.0
 10
512.8955441850337
 20
237.4202084547784
 10
512.8955441850337
 20
230.5819634547782
 10
514.0963991850338
 20
230.5819634547782
 10
513.8131191850339
 20
229.7007247047783
 10
512.8966029350338
 20
228.3848634547782
 10
510.8392029350339
 20
228.3848634547782
 10
511.3387354350339
 20
237.4202084547784
 10
509.3261379350338
 20
228.3848634547782
  0
LWPOLYLINE
  5
403
330
377C
100
AcDbEntity
  8
CUTS
 62
     1
420
 16711680
370
    25
100
AcDbPolyline
 90
        2
 70
     0
 43
0.0
 10
510.8392029350339
 20
228.3848984547782
 10
509.3261379350338
 20
228.3848984547782
  0
SPLINE
  5
409
330
377C
100
AcDbEntity
  8
CUTS
 62
     1
420
 16711680
370
    25
100
AcDbSpline
210
0.0
220
0.0
230
1.0
 70
     8
 71
     3
 72
     8
 73
     4
 74
     0
 42
0.000000001
 43
0.001
 12
1.0
 22
0.0
 32
0.0
 13
1.0
 23
0.0
 33
0.0
 40
0.0
 40
0.0
 40
0.0
 40
0.0
 40
1.0
 40
1.0
 40
1.0
 40
1.0
 10
439.1018416850336
 20
217.3923084547783
 30
0.0
 10
440.7517829350338
 20
217.3923084547783
 30
0.0
 10
442.1015104350338
 20
218.7420359547783
 30
0.0
 10
442.1015104350338
 20
220.3923297047783
 30
0.0
  0
LWPOLYLINE
  5
40D
330
377C
100
AcDbEntity
  8
CUTS
 62
     1
420
 16711680
370
    25
100
AcDbPolyline
 90
        4
 70
     0
 43
0.0
 10
442.1015104350338
 20
220.3923297047783
 10
442.1015104350338
 20
224.095085954778
 10
445.4225604350338
 20
224.095085954778
 10
445.4539579350337
 20
228.3848634547782
  0
SPLINE
  5
40F
330
377C
100
AcDbEntity
  8
CUTS
 62
     1
420
 16711680
370
    25
100
AcDbSpline
210
0.0
220
0.0
230
1.0
 70
     8
 71
     3
 72
     8
 73
     4
 74
     0
 42
0.000000001
 43
0.001
 12
1.0
 22
0.0
 32
0.0
 13
1.0
 23
0.0
 33
0.0
 40
0.0
 40
0.0
 40
0.0
 40
0.0
 40
1.0
 40
1.0
 40
1.0
 40
1.0
 10
553.8025966850339
 20
218.8923184547781
 30
0.0
 10
553.8025966850339
 20
217.2420247047781
 30
0.0
 10
555.1526779350338
 20
215.8922972047782
 30
0.0
 10
556.8026191850338
 20
215.8922972047782
 30
0.0
  0
SPLINE
  5
413
330
377C
100
AcDbEntity
  8
CUTS
 62
     1
420
 16711680
370
    25
100
AcDbSpline
210
0.0
220
0.0
230
1.0
 70
     8
 71
     3
 72
     8
 73
     4
 74
     0
 42
0.000000001
 43
0.001
 12
1.0
 22
0.0
 32
0.0
 13
1.0
 23
0.0
 33
0.0
 40
0.0
 40
0.0
 40
0.0
 40
0.0
 40
1.0
 40
1.0
 40
1.0
 40
1.0
 10
557.8027441850338
 20
215.8922972047782
 30
0.0
 10
559.4530379350338
 20
215.8922972047782
 30
0.0
 10
560.8027666850337
 20
217.2420247047781
 30
0.0
 10
560.8027666850337
 20
218.8923184547781
 30
0.0
  0
LWPOLYLINE
  5
415
330
377C
100
AcDbEntity
  8
CUTS
 62
     1
420
 16711680
370
    25
100
AcDbPolyline
 90
        2
 70
     0
 43
0.0
 10
556.8026191850338
 20
215.8922972047782
 10
557.8027441850338
 20
215.8922972047782
  0
SPLINE
  5
417
330
377C
100
AcDbEntity
  8
CUTS
 62
     1
420
 16711680
370
    25
100
AcDbSpline
210
0.0
220
0.0
230
1.0
 70
    24
 71
     3
 72
     8
 73
     4
 74
     0
 42
0.000000001
 43
0.001
 12
1.0
 22
0.0
 32
0.0
 13
1.0
 23
0.0
 33
0.0
 40
0.0
 40
0.0
 40
0.0
 40
0.0
 40
1.0
 40
1.0
 40
1.0
 40
1.0
 10
560.8027666850337
 20
219.5950522047782
 30
0.0
 10
560.8027666850337
 20
221.2446409547782
 30
0.0
 10
560.8027666850337
 20
225.4455184547784
 30
0.0
 10
560.8027666850337
 20
227.0951084547784
 30
0.0
  0
LWPOLYLINE
  5
419
330
377C
100
AcDbEntity
  8
CUTS
 62
     1
420
 16711680
370
    25
100
AcDbPolyline
 90
        2
 70
     0
 43
0.0
 10
560.8027666850337
 20
218.8923184547781
 10
560.8027666850337
 20
219.5950522047782
  0
SPLINE
  5
41A
330
377C
100
AcDbEntity
  8
CUTS
 62
     1
420
 16711680
370
    25
100
AcDbSpline
210
0.0
220
0.0
230
1.0
 70
    24
 71
     3
 72
     8
 73
     4
 74
     0
 42
0.000000001
 43
0.001
 12
1.0
 22
0.0
 32
0.0
 13
1.0
 23
0.0
 33
0.0
 40
0.0
 40
0.0
 40
0.0
 40
0.0
 40
1.0
 40
1.0
 40
1.0
 40
1.0
 10
560.8027666850337
 20
227.7978409547783
 30
0.0
 10
560.8027666850337
 20
229.4474297047783
 30
0.0
 10
560.8027666850337
 20
232.1444159547783
 30
0.0
 10
560.8027666850337
 20
233.7940047047783
 30
0.0
  0
LWPOLYLINE
  5
41C
330
377C
100
AcDbEntity
  8
CUTS
 62
     1
420
 16711680
370
    25
100
AcDbPolyline
 90
        2
 70
     0
 43
0.0
 10
560.8027666850337
 20
227.0951084547784
 10
560.8027666850337
 20
227.7978409547783
  0
SPLINE
  5
41E
330
377C
100
AcDbEntity
  8
CUTS
 62
     1
420
 16711680
370
    25
100
AcDbSpline
210
0.0
220
0.0
230
1.0
 70
     8
 71
     3
 72
     8
 73
     4
 74
     0
 42
0.000000001
 43
0.001
 12
1.0
 22
0.0
 32
0.0
 13
1.0
 23
0.0
 33
0.0
 40
0.0
 40
0.0
 40
0.0
 40
0.0
 40
1.0
 40
1.0
 40
1.0
 40
1.0
 10
560.8027666850337
 20
237.2833297047783
 30
0.0
 10
560.8027666850337
 20
238.9329184547784
 30
0.0
 10
559.5010166850338
 20
240.6400109547782
 30
0.0
 10
557.9096354350338
 20
241.0763972047781
 30
0.0
  0
LWPOLYLINE
  5
422
330
377C
100
AcDbEntity
  8
CUTS
 62
     1
420
 16711680
370
    25
100
AcDbPolyline
 90
        2
 70
     0
 43
0.0
 10
560.8027666850337
 20
233.7940047047783
 10
560.8027666850337
 20
237.2833297047783
  0
LINE
  5
435
330
377C
100
AcDbEntity
  8
CUTS
 62
     1
420
 16711680
370
    25
100
AcDbLine
 10
429.2007804350339
 20
232.3885384547781
 30
0.0
 11
433.2007804350339
 21
232.3885384547781
 31
0.0
  0
LINE
  5
436
330
377C
100
AcDbEntity
  8
CUTS
 62
     1
420
 16711680
370
    25
100
AcDbLine
 10
429.2007804350339
 20
259.8759247047782
 30
0.0
 11
433.2007804350339
 21
259.8759247047782
 31
0.0
  0
LINE
  5
437
330
377C
100
AcDbEntity
  8
CUTS
 62
     1
420
 16711680
370
    25
100
AcDbLine
 10
559.7992604350338
 20
276.0571359547781
 30
0.0
 11
563.7992604350338
 21
276.0571359547781
 31
0.0
  0
LINE
  5
438
330
377C
100
AcDbEntity
  8
CUTS
 62
     1
420
 16711680
370
    25
100
AcDbLine
 10
559.7992604350338
 20
248.5697497047782
 30
0.0
 11
563.7992604350338
 21
248.5697497047782
 31
0.0
  0
LINE
  5
439
330
377C
100
AcDbEntity
  8
CUTS
 62
     1
420
 16711680
370
    25
100
AcDbLine
 10
445.5227491850339
 20
233.4810909547783
 30
0.0
 11
449.5227491850339
 21
233.4810909547783
 31
0.0
  0
LINE
  5
43A
330
377C
100
AcDbEntity
  8
CUTS
 62
     1
420
 16711680
370
    25
100
AcDbLine
 10
479.1661079350338
 20
233.4810909547783
 30
0.0
 11
483.1661079350338
 21
233.4810909547783
 31
0.0
  0
LINE
  5
43B
330
377C
100
AcDbEntity
  8
CUTS
 62
     1
420
 16711680
370
    25
100
AcDbLine
 10
512.9276466850338
 20
233.4810909547783
 30
0.0
 11
516.9276466850338
 21
233.4810909547783
 31
0.0
  0
LINE
  5
43C
330
377C
100
AcDbEntity
  8
CUTS
 62
     1
420
 16711680
370
    25
100
AcDbLine
 10
546.7629166850338
 20
233.4810909547783
 30
0.0
 11
550.7629166850338
 21
233.4810909547783
 31
0.0
  0
LINE
  5
43D
330
377C
100
AcDbEntity
  8
CUTS
 62
     1
420
 16711680
370
    25
100
AcDbLine
 10
543.4776441850338
 20
274.9645834547783
 30
0.0
 11
547.4776441850338
 21
274.9645834547783
 31
0.0
  0
LINE
  5
43E
330
377C
100
AcDbEntity
  8
CUTS
 62
     1
420
 16711680
370
    25
100
AcDbLine
 10
509.8342854350337
 20
274.9645834547783
 30
0.0
 11
513.8342854350337
 21
274.9645834547783
 31
0.0
  0
LINE
  5
ADF
330
377C
100
AcDbEntity
  8
CUTS
 62
     1
420
 16711680
370
    25
100
AcDbLine
 10
435.1016941850337
 20
267.3636334547783
 30
0.0
 11
557.9096354350338
 21
241.0763972047781
 31
0.0
  0
LWPOLYLINE
  5
C3E
330
377C
100
AcDbEntity
  8
CUTS
 62
     1
420
 16711680
370
    25
100
AcDbPolyline
 90
        7
 70
     0
 43
0.0
 10
381.0204498919757
 20
221.3018810170955
 10
381.0204498919757
 20
197.6015647670955
 10
398.4201548919757
 20
197.6015647670955
 10
398.4201548919757
 20
221.3018810170955
 10
381.0204498919757
 20
221.3018810170955
 10
381.0204498919757
 20
221.3018810170955
 10
381.0204498919757
 20
221.3018810170955
  0
LWPOLYLINE
  5
C40
330
377C
100
AcDbEntity
  8
CUTS
 62
     1
420
 16711680
370
    25
100
AcDbPolyline
 90
       16
 70
     0
 43
0.0
 10
373.1877248919757
 20
194.1118860170956
 10
379.1877686419757
 20
194.1118860170956
 10
379.1877686419757
 20
189.5106060170957
 10
403.3879723919756
 20
189.5106060170957
 10
403.3879723919756
 20
193.1114085170956
 10
409.3880161419756
 20
193.1114085170956
 10
409.3880161419756
 20
198.1014497670958
 10
403.3879723919756
 20
198.1014497670958
 10
403.3879723919756
 20
220.8023472670956
 10
409.3880161419756
 20
220.8023472670956
 10
409.3880161419756
 20
225.7923897670956
 10
403.3879723919756
 20
225.7923897670956
 10
403.3879723919756
 20
229.3931922670957
 10
379.1877686419757
 20
229.3931922670957
 10
379.1877686419757
 20
224.7926172670958
 10
373.1877248919757
 20
224.7926172670958
  0
LWPOLYLINE
  5
C42
330
377C
100
AcDbEntity
  8
CUTS
 62
     1
420
 16711680
370
    25
100
AcDbPolyline
 90
        7
 70
     0
 43
0.0
 10
241.3599611419758
 20
230.2310397670957
 10
223.9602548919747
 20
230.2310397670957
 10
223.9602548919747
 20
206.5303697670955
 10
241.3599611419758
 20
206.5303697670955
 10
241.3599611419758
 20
230.2310397670957
 10
241.3599611419758
 20
230.2310397670957
 10
241.3599611419758
 20
230.2310397670957
  0
LWPOLYLINE
  5
C44
330
377C
100
AcDbEntity
  8
CUTS
 62
     1
420
 16711680
370
    25
100
AcDbPolyline
 90
       16
 70
     0
 43
0.0
 10
249.1926861419747
 20
203.0406922670958
 10
243.1929936419747
 20
203.0406922670958
 10
243.1929936419747
 20
198.4397647670957
 10
218.9920861419755
 20
198.4397647670957
 10
218.9920861419755
 20
202.0405672670958
 10
212.9920411419757
 20
202.0405672670958
 10
212.9920411419757
 20
207.0299035170957
 10
218.9920861419755
 20
207.0299035170957
 10
218.9920861419755
 20
229.7315060170957
 10
212.9920411419757
 20
229.7315060170957
 10
212.9920411419757
 20
234.7208422670958
 10
218.9920861419755
 20
234.7208422670958
 10
218.9920861419755
 20
238.3216447670956
 10
243.1929936419747
 20
238.3216447670956
 10
243.1929936419747
 20
233.7210697670956
 10
249.1926861419747
 20
233.7210697670956
  0
LWPOLYLINE
  5
C46
330
377C
100
AcDbEntity
  8
CUTS
 62
     1
420
 16711680
370
    25
100
AcDbPolyline
 90
        6
 70
     0
 43
0.0
 10
346.3589748919758
 20
198.9975060170956
 10
346.3589748919758
 20
192.7970835170958
 10
315.8786223919747
 20
192.7970835170958
 10
315.8786223919747
 20
198.9975060170956
 10
346.3589748919758
 20
198.9975060170956
 10
346.3589748919758
 20
198.9975060170956
  0
LWPOLYLINE
  5
C48
330
377C
100
AcDbEntity
  8
CUTS
 62
     1
420
 16711680
370
    25
100
AcDbPolyline
 90
        6
 70
     0
 43
0.0
 10
346.3589748919758
 20
223.5063897670957
 10
346.3589748919758
 20
217.3066722670957
 10
315.8786223919747
 20
217.3066722670957
 10
315.8786223919747
 20
223.5063897670957
 10
346.3589748919758
 20
223.5063897670957
 10
346.3589748919758
 20
223.5063897670957
  0
SPLINE
  5
CB2
330
377C
100
AcDbEntity
  8
CUTS
 62
     1
420
 16711680
370
    25
100
AcDbSpline
210
0.0
220
0.0
230
1.0
 70
     8
 71
     3
 72
     8
 73
     4
 74
     0
 42
0.000000001
 43
0.001
 12
1.0
 22
0.0
 32
0.0
 13
1.0
 23
0.0
 33
0.0
 40
0.0
 40
0.0
 40
0.0
 40
0.0
 40
1.0
 40
1.0
 40
1.0
 40
1.0
 10
318.4397886419747
 20
149.4925535170957
 30
0.0
 10
322.9412323919746
 20
149.4925535170957
 30
0.0
 10
326.4153886419756
 20
145.8434197670957
 30
0.0
 10
326.4153886419756
 20
141.3419747670956
 30
0.0
  0
LWPOLYLINE
  5
CB4
330
377C
100
AcDbEntity
  8
CUTS
 62
     1
420
 16711680
370
    25
100
AcDbPolyline
 90
       58
 70
     0
 43
0.0
 10
381.1657936419756
 20
275.0602747670956
 10
378.6914111419758
 20
275.0602747670956
 10
378.6914111419758
 20
279.1327422670955
 10
378.4412911419756
 20
280.9604835170958
 10
374.2136023919757
 20
280.9604835170958
 10
374.2136023919757
 20
274.8309697670957
 10
375.6144823919756
 20
274.8309697670957
 10
375.6144823919756
 20
272.7315897670958
 10
374.2136023919757
 20
272.7315897670958
 10
374.2136023919757
 20
271.1984172670959
 10
371.6139823919757
 20
271.1984172670959
 10
371.6139823919757
 20
272.7315897670958
 10
370.2138073919757
 20
272.7315897670958
 10
370.2138073919757
 20
274.8309697670957
 10
371.6139823919757
 20
274.8309697670957
 10
371.6139823919757
 20
280.9604835170958
 10
365.8908686419757
 20
280.9604835170958
 10
365.6407498919757
 20
279.1327422670955
 10
365.6407498919757
 20
275.0602747670956
 10
354.4668661419746
 20
275.0602747670956
 10
354.4668661419746
 20
279.1327422670955
 10
354.2174523919757
 20
280.9604835170958
 10
347.4906861419756
 20
280.9604835170958
 10
347.4906861419756
 20
274.8309697670957
 10
348.8922723919757
 20
274.8309697670957
 10
348.8922723919757
 20
272.7315897670958
 10
347.4906861419756
 20
272.7315897670958
 10
347.4906861419756
 20
271.1984172670959
 10
344.8910661419757
 20
271.1984172670959
 10
344.8910661419757
 20
272.7315897670958
 10
343.4915973919747
 20
272.7315897670958
 10
343.4915973919747
 20
274.8309697670957
 10
344.8910661419757
 20
274.8309697670957
 10
344.8910661419757
 20
280.9604835170958
 10
338.1657111419747
 20
280.9604835170958
 10
337.9155911419757
 20
279.1327422670955
 10
337.9155911419757
 20
275.0602747670956
 10
326.7431186419747
 20
275.0602747670956
 10
326.7431186419747
 20
279.1327422670955
 10
326.4922936419757
 20
280.9604835170958
 10
320.7645936419756
 20
280.9604835170958
 10
320.7645936419756
 20
274.8309697670957
 10
322.1654748919757
 20
274.8309697670957
 10
322.1654748919757
 20
272.7315897670958
 10
320.7645936419756
 20
272.7315897670958
 10
320.7645936419756
 20
271.1984172670959
 10
318.1649748919756
 20
271.1984172670959
 10
318.1649748919756
 20
272.7315897670958
 10
316.7647998919756
 20
272.7315897670958
 10
316.7647998919756
 20
274.8309697670957
 10
318.1649748919756
 20
274.8309697670957
 10
318.1649748919756
 20
280.9604835170958
 10
313.9411661419756
 20
280.9604835170958
 10
313.6917523919758
 20
279.1327422670955
 10
313.6917523919758
 20
275.0602747670956
 10
311.1644523919756
 20
275.0602747670956
 10
311.1648048919758
 20
149.4925535170957
 10
318.4397886419747
 20
149.4925535170957
  0
SPLINE
  5
CB6
330
377C
100
AcDbEntity
  8
CUTS
 62
     1
420
 16711680
370
    25
100
AcDbSpline
210
0.0
220
0.0
230
1.0
 70
     8
 71
     3
 72
     8
 73
     4
 74
     0
 42
0.000000001
 43
0.001
 12
1.0
 22
0.0
 32
0.0
 13
1.0
 23
0.0
 33
0.0
 40
0.0
 40
0.0
 40
0.0
 40
0.0
 40
1.0
 40
1.0
 40
1.0
 40
1.0
 10
338.0898636419747
 20
141.3419747670956
 30
0.0
 10
338.0898636419747
 20
145.8434197670957
 30
0.0
 10
341.6638548919757
 20
149.4925535170957
 30
0.0
 10
346.1656523919758
 20
149.4925535170957
 30
0.0
  0
SPLINE
  5
CB8
330
377C
100
AcDbEntity
  8
CUTS
 62
     1
420
 16711680
370
    25
100
AcDbSpline
210
0.0
220
0.0
230
1.0
 70
     8
 71
     3
 72
     8
 73
     4
 74
     0
 42
0.000000001
 43
0.001
 12
1.0
 22
0.0
 32
0.0
 13
1.0
 23
0.0
 33
0.0
 40
0.0
 40
0.0
 40
0.0
 40
0.0
 40
1.0
 40
1.0
 40
1.0
 40
1.0
 10
346.1656523919758
 20
149.4925535170957
 30
0.0
 10
350.6670973919756
 20
149.4925535170957
 30
0.0
 10
354.1412523919757
 20
145.8434197670957
 30
0.0
 10
354.1412523919757
 20
141.3419747670956
 30
0.0
  0
LWPOLYLINE
  5
CBA
330
377C
100
AcDbEntity
  8
CUTS
 62
     1
420
 16711680
370
    25
100
AcDbPolyline
 90
        8
 70
     0
 43
0.0
 10
326.4153886419756
 20
141.3419747670956
 10
326.4153886419756
 20
141.2551922670956
 10
326.4153886419756
 20
138.9709560170958
 10
326.8397798919757
 20
137.9429610170956
 10
337.7656611419757
 20
137.9429610170956
 10
338.0898636419747
 20
138.9709560170958
 10
338.0898636419747
 20
141.2551922670956
 10
338.0898636419747
 20
141.3419747670956
  0
SPLINE
  5
CBC
330
377C
100
AcDbEntity
  8
CUTS
 62
     1
420
 16711680
370
    25
100
AcDbSpline
210
0.0
220
0.0
230
1.0
 70
     8
 71
     3
 72
     8
 73
     4
 74
     0
 42
0.000000001
 43
0.001
 12
1.0
 22
0.0
 32
0.0
 13
1.0
 23
0.0
 33
0.0
 40
0.0
 40
0.0
 40
0.0
 40
0.0
 40
1.0
 40
1.0
 40
1.0
 40
1.0
 10
365.8157273919758
 20
141.3419747670956
 30
0.0
 10
365.8157273919758
 20
145.8434197670957
 30
0.0
 10
369.3897186419756
 20
149.4925535170957
 30
0.0
 10
373.8915161419757
 20
149.4925535170957
 30
0.0
  0
LWPOLYLINE
  5
CBE
330
377C
100
AcDbEntity
  8
CUTS
 62
     1
420
 16711680
370
    25
100
AcDbPolyline
 90
        8
 70
     0
 43
0.0
 10
354.1412523919757
 20
141.3419747670956
 10
354.1412523919757
 20
141.2551922670956
 10
354.1412523919757
 20
138.9709560170958
 10
354.5656436419756
 20
137.9429610170956
 10
365.4915248919756
 20
137.9429610170956
 10
365.8157273919758
 20
138.9709560170958
 10
365.8157273919758
 20
141.2551922670956
 10
365.8157273919758
 20
141.3419747670956
  0
SPLINE
  5
CC0
330
377C
100
AcDbEntity
  8
CUTS
 62
     1
420
 16711680
370
    25
100
AcDbSpline
210
0.0
220
0.0
230
1.0
 70
     8
 71
     3
 72
     8
 73
     4
 74
     0
 42
0.000000001
 43
0.001
 12
1.0
 22
0.0
 32
0.0
 13
1.0
 23
0.0
 33
0.0
 40
0.0
 40
0.0
 40
0.0
 40
0.0
 40
1.0
 40
1.0
 40
1.0
 40
1.0
 10
381.1661473919758
 20
163.7172585170955
 30
0.0
 10
381.1661473919758
 20
165.6638860170957
 30
0.0
 10
379.9501223919756
 20
168.2793810170957
 30
0.0
 10
378.4631636419756
 20
169.5306835170958
 30
0.0
  0
LWPOLYLINE
  5
CC2
330
377C
100
AcDbEntity
  8
CUTS
 62
     1
420
 16711680
370
    25
100
AcDbPolyline
 90
        3
 70
     0
 43
0.0
 10
373.8915161419757
 20
149.4925535170957
 10
381.1661473919758
 20
149.4925535170957
 10
381.1661473919758
 20
163.7172585170955
  0
SPLINE
  5
CC4
330
377C
100
AcDbEntity
  8
CUTS
 62
     1
420
 16711680
370
    25
100
AcDbSpline
210
0.0
220
0.0
230
1.0
 70
     8
 71
     3
 72
     8
 73
     4
 74
     0
 42
0.000000001
 43
0.001
 12
1.0
 22
0.0
 32
0.0
 13
1.0
 23
0.0
 33
0.0
 40
0.0
 40
0.0
 40
0.0
 40
0.0
 40
1.0
 40
1.0
 40
1.0
 40
1.0
 10
375.8688361419747
 20
172.3941810170958
 30
0.0
 10
374.3825823919756
 20
173.6444247670955
 30
0.0
 10
373.1658523919757
 20
176.2606247670958
 30
0.0
 10
373.1658523919757
 20
178.2061947670955
 30
0.0
  0
LWPOLYLINE
  5
CC6
330
377C
100
AcDbEntity
  8
CUTS
 62
     1
420
 16711680
370
    25
100
AcDbPolyline
 90
        2
 70
     0
 43
0.0
 10
378.4631636419756
 20
169.5306835170958
 10
375.8688361419747
 20
172.3941810170958
  0
SPLINE
  5
CC8
330
377C
100
AcDbEntity
  8
CUTS
 62
     1
420
 16711680
370
    25
100
AcDbSpline
210
0.0
220
0.0
230
1.0
 70
     8
 71
     3
 72
     8
 73
     4
 74
     0
 42
0.000000001
 43
0.001
 12
1.0
 22
0.0
 32
0.0
 13
1.0
 23
0.0
 33
0.0
 40
0.0
 40
0.0
 40
0.0
 40
0.0
 40
1.0
 40
1.0
 40
1.0
 40
1.0
 10
373.1658523919757
 20
237.8041197670958
 30
0.0
 10
373.1658523919757
 20
239.7500422670956
 30
0.0
 10
374.3825823919756
 20
242.3651835170957
 30
0.0
 10
375.8688361419747
 20
243.6161335170957
 30
0.0
  0
LWPOLYLINE
  5
CCA
330
377C
100
AcDbEntity
  8
CUTS
 62
     1
420
 16711680
370
    25
100
AcDbPolyline
 90
        2
 70
     0
 43
0.0
 10
373.1658523919757
 20
178.2061947670955
 10
373.1658523919757
 20
237.8041197670958
  0
SPLINE
  5
CCC
330
377C
100
AcDbEntity
  8
CUTS
 62
     1
420
 16711680
370
    25
100
AcDbSpline
210
0.0
220
0.0
230
1.0
 70
     8
 71
     3
 72
     8
 73
     4
 74
     0
 42
0.000000001
 43
0.001
 12
1.0
 22
0.0
 32
0.0
 13
1.0
 23
0.0
 33
0.0
 40
0.0
 40
0.0
 40
0.0
 40
0.0
 40
1.0
 40
1.0
 40
1.0
 40
1.0
 10
378.4631636419756
 20
246.4796310170957
 30
0.0
 10
379.9501223919756
 20
247.7309335170957
 30
0.0
 10
381.1661473919758
 20
250.3464285170957
 30
0.0
 10
381.1661473919758
 20
252.2930560170956
 30
0.0
  0
LWPOLYLINE
  5
CCE
330
377C
100
AcDbEntity
  8
CUTS
 62
     1
420
 16711680
370
    25
100
AcDbPolyline
 90
        2
 70
     0
 43
0.0
 10
375.8688361419747
 20
243.6161335170957
 10
378.4631636419756
 20
246.4796310170957
  0
LWPOLYLINE
  5
CD0
330
377C
100
AcDbEntity
  8
CUTS
 62
     1
420
 16711680
370
    25
100
AcDbPolyline
 90
        3
 70
     0
 43
0.0
 10
381.1661473919758
 20
252.2930560170956
 10
381.1661473919758
 20
275.0602747670956
 10
381.1657936419756
 20
275.0602747670956
  0
LWPOLYLINE
  5
CD2
330
377C
100
AcDbEntity
  8
CUTS
 62
     1
420
 16711680
370
    25
100
AcDbPolyline
 90
        6
 70
     0
 43
0.0
 10
307.4500548919757
 20
207.3505785170956
 10
307.4500548919757
 20
200.9504835170957
 10
302.6603911419757
 20
200.9504835170957
 10
302.6603911419757
 20
207.3505785170956
 10
307.4500548919757
 20
207.3505785170956
 10
307.4500548919757
 20
207.3505785170956
  0
LWPOLYLINE
  5
CD4
330
377C
100
AcDbEntity
  8
CUTS
 62
     1
420
 16711680
370
    25
100
AcDbPolyline
 90
        6
 70
     0
 43
0.0
 10
274.9694523919757
 20
225.4600722670956
 10
274.9694523919757
 20
231.8601672670956
 10
279.7591161419755
 20
231.8601672670956
 10
279.7591161419755
 20
225.4600722670956
 10
274.9694523919757
 20
225.4600722670956
 10
274.9694523919757
 20
225.4600722670956
  0
LWPOLYLINE
  5
CD6
330
377C
100
AcDbEntity
  8
CUTS
 62
     1
420
 16711680
370
    25
100
AcDbPolyline
 90
        6
 70
     0
 43
0.0
 10
302.6603911419757
 20
225.4600722670956
 10
302.6603911419757
 20
231.8601672670956
 10
307.4500548919757
 20
231.8601672670956
 10
307.4500548919757
 20
225.4600722670956
 10
302.6603911419757
 20
225.4600722670956
 10
302.6603911419757
 20
225.4600722670956
  0
LWPOLYLINE
  5
CD8
330
377C
100
AcDbEntity
  8
CUTS
 62
     1
420
 16711680
370
    25
100
AcDbPolyline
 90
        6
 70
     0
 43
0.0
 10
274.9694523919757
 20
200.9508360170956
 10
274.9694523919757
 20
207.3509310170956
 10
279.7591161419755
 20
207.3509310170956
 10
279.7591161419755
 20
200.9508360170956
 10
274.9694523919757
 20
200.9508360170956
 10
274.9694523919757
 20
200.9508360170956
  0
SPLINE
  5
CE6
330
377C
100
AcDbEntity
  8
CUTS
 62
     1
420
 16711680
370
    25
100
AcDbSpline
210
0.0
220
0.0
230
1.0
 70
     8
 71
     3
 72
     8
 73
     4
 74
     0
 42
0.000000001
 43
0.001
 12
1.0
 22
0.0
 32
0.0
 13
1.0
 23
0.0
 33
0.0
 40
0.0
 40
0.0
 40
0.0
 40
0.0
 40
1.0
 40
1.0
 40
1.0
 40
1.0
 10
241.1631111419747
 20
172.2174397670957
 30
0.0
 10
241.1631111419747
 20
174.1640672670957
 30
0.0
 10
242.3791361419757
 20
176.7795610170956
 30
0.0
 10
243.8660936419755
 20
178.0308647670957
 30
0.0
  0
LWPOLYLINE
  5
CE8
330
377C
100
AcDbEntity
  8
CUTS
 62
     1
420
 16711680
370
    25
100
AcDbPolyline
 90
       57
 70
     0
 43
0.0
 10
311.1640998919756
 20
149.4498672670955
 10
308.6367998919757
 20
149.4498672670955
 10
308.6367998919757
 20
145.3770472670958
 10
308.3873861419756
 20
143.5496585170957
 10
304.1635773919757
 20
143.5496585170957
 10
304.1635773919757
 20
149.6791722670956
 10
305.5637523919756
 20
149.6791722670956
 10
305.5637523919756
 20
151.7785535170955
 10
304.1635773919757
 20
151.7785535170955
 10
304.1635773919757
 20
153.3117247670956
 10
301.5639573919757
 20
153.3117247670956
 10
301.5639573919757
 20
151.7785535170955
 10
300.1630773919758
 20
151.7785535170955
 10
300.1630773919758
 20
149.6791722670956
 10
301.5639573919757
 20
149.6791722670956
 10
301.5639573919757
 20
143.5496585170957
 10
295.8362573919758
 20
143.5496585170957
 10
295.5854323919757
 20
145.3770472670958
 10
295.5854323919757
 20
149.4498672670955
 10
284.4129611419758
 20
149.4498672670955
 10
284.4129611419758
 20
145.3770472670958
 10
284.1628411419747
 20
143.5496585170957
 10
277.4374861419756
 20
143.5496585170957
 10
277.4374861419756
 20
149.6791722670956
 10
278.8369548919759
 20
149.6791722670956
 10
278.8369548919759
 20
151.7785535170955
 10
277.4374861419756
 20
151.7785535170955
 10
277.4374861419756
 20
153.3117247670956
 10
274.8378661419747
 20
153.3117247670956
 10
274.8378661419747
 20
151.7785535170955
 10
273.4362798919756
 20
151.7785535170955
 10
273.4362798919756
 20
149.6791722670956
 10
274.8378661419747
 20
149.6791722670956
 10
274.8378661419747
 20
143.5496585170957
 10
268.1110998919758
 20
143.5496585170957
 10
267.8616861419755
 20
145.3770472670958
 10
267.8616861419755
 20
149.4498672670955
 10
256.6878023919758
 20
149.4498672670955
 10
256.6878023919758
 20
145.3770472670958
 10
256.4376823919747
 20
143.5496585170957
 10
250.7145686419758
 20
143.5496585170957
 10
250.7145686419758
 20
149.6791722670956
 10
252.1147436419746
 20
149.6791722670956
 10
252.1147436419746
 20
151.7785535170955
 10
250.7145686419758
 20
151.7785535170955
 10
250.7145686419758
 20
153.3117247670956
 10
248.1149498919758
 20
153.3117247670956
 10
248.1149498919758
 20
151.7785535170955
 10
246.7140686419757
 20
151.7785535170955
 10
246.7140686419757
 20
149.6791722670956
 10
248.1149498919758
 20
149.6791722670956
 10
248.1149498919758
 20
143.5496585170957
 10
243.8872611419747
 20
143.5496585170957
 10
243.6371411419745
 20
145.3770472670958
 10
243.6371411419745
 20
149.4498672670955
 10
241.1627573919745
 20
149.4498672670955
 10
241.1631111419747
 20
172.2174397670957
  0
SPLINE
  5
CEA
330
377C
100
AcDbEntity
  8
CUTS
 62
     1
420
 16711680
370
    25
100
AcDbSpline
210
0.0
220
0.0
230
1.0
 70
     8
 71
     3
 72
     8
 73
     4
 74
     0
 42
0.000000001
 43
0.001
 12
1.0
 22
0.0
 32
0.0
 13
1.0
 23
0.0
 33
0.0
 40
0.0
 40
0.0
 40
0.0
 40
0.0
 40
1.0
 40
1.0
 40
1.0
 40
1.0
 10
246.4604223919755
 20
180.8943610170956
 30
0.0
 10
247.9466748919758
 20
182.1456647670956
 30
0.0
 10
249.1634048919754
 20
184.7604535170957
 30
0.0
 10
249.1634048919754
 20
186.7063747670958
 30
0.0
  0
LWPOLYLINE
  5
CEC
330
377C
100
AcDbEntity
  8
CUTS
 62
     1
420
 16711680
370
    25
100
AcDbPolyline
 90
        2
 70
     0
 43
0.0
 10
243.8660936419755
 20
178.0308647670957
 10
246.4604223919755
 20
180.8943610170956
  0
SPLINE
  5
CEE
330
377C
100
AcDbEntity
  8
CUTS
 62
     1
420
 16711680
370
    25
100
AcDbSpline
210
0.0
220
0.0
230
1.0
 70
     8
 71
     3
 72
     8
 73
     4
 74
     0
 42
0.000000001
 43
0.001
 12
1.0
 22
0.0
 32
0.0
 13
1.0
 23
0.0
 33
0.0
 40
0.0
 40
0.0
 40
0.0
 40
0.0
 40
1.0
 40
1.0
 40
1.0
 40
1.0
 10
249.1634048919754
 20
246.3042997670957
 30
0.0
 10
249.1634048919754
 20
248.2502222670956
 30
0.0
 10
247.9466748919758
 20
250.8664222670958
 30
0.0
 10
246.4604223919755
 20
252.1163147670959
 30
0.0
  0
LWPOLYLINE
  5
CF0
330
377C
100
AcDbEntity
  8
CUTS
 62
     1
420
 16711680
370
    25
100
AcDbPolyline
 90
        2
 70
     0
 43
0.0
 10
249.1634048919754
 20
186.7063747670958
 10
249.1634048919754
 20
246.3042997670957
  0
SPLINE
  5
CF2
330
377C
100
AcDbEntity
  8
CUTS
 62
     1
420
 16711680
370
    25
100
AcDbSpline
210
0.0
220
0.0
230
1.0
 70
     8
 71
     3
 72
     8
 73
     4
 74
     0
 42
0.000000001
 43
0.001
 12
1.0
 22
0.0
 32
0.0
 13
1.0
 23
0.0
 33
0.0
 40
0.0
 40
0.0
 40
0.0
 40
0.0
 40
1.0
 40
1.0
 40
1.0
 40
1.0
 10
243.8660936419755
 20
254.9798110170957
 30
0.0
 10
242.3791361419757
 20
256.2311147670956
 30
0.0
 10
241.1631111419747
 20
258.8466085170958
 30
0.0
 10
241.1631111419747
 20
260.7932360170956
 30
0.0
  0
LWPOLYLINE
  5
CF4
330
377C
100
AcDbEntity
  8
CUTS
 62
     1
420
 16711680
370
    25
100
AcDbPolyline
 90
        2
 70
     0
 43
0.0
 10
246.4604223919755
 20
252.1163147670959
 10
243.8660936419755
 20
254.9798110170957
  0
SPLINE
  5
CF6
330
377C
100
AcDbEntity
  8
CUTS
 62
     1
420
 16711680
370
    25
100
AcDbSpline
210
0.0
220
0.0
230
1.0
 70
     8
 71
     3
 72
     8
 73
     4
 74
     0
 42
0.000000001
 43
0.001
 12
1.0
 22
0.0
 32
0.0
 13
1.0
 23
0.0
 33
0.0
 40
0.0
 40
0.0
 40
0.0
 40
0.0
 40
1.0
 40
1.0
 40
1.0
 40
1.0
 10
248.4377411419755
 20
275.0602747670956
 30
0.0
 10
252.8873273919757
 20
275.0602747670956
 30
0.0
 10
256.4263936419757
 20
278.6257997670957
 30
0.0
 10
256.5096498919756
 20
283.0549247670958
 30
0.0
  0
LWPOLYLINE
  5
CF8
330
377C
100
AcDbEntity
  8
CUTS
 62
     1
420
 16711680
370
    25
100
AcDbPolyline
 90
        3
 70
     0
 43
0.0
 10
241.1631111419747
 20
260.7932360170956
 10
241.1631111419747
 20
275.0602747670956
 10
248.4377411419755
 20
275.0602747670956
  0
SPLINE
  5
CFA
330
377C
100
AcDbEntity
  8
CUTS
 62
     1
420
 16711680
370
    25
100
AcDbSpline
210
0.0
220
0.0
230
1.0
 70
     8
 71
     3
 72
     8
 73
     4
 74
     0
 42
0.000000001
 43
0.001
 12
1.0
 22
0.0
 32
0.0
 13
1.0
 23
0.0
 33
0.0
 40
0.0
 40
0.0
 40
0.0
 40
0.0
 40
1.0
 40
1.0
 40
1.0
 40
1.0
 10
268.1918861419758
 20
283.2549497670956
 30
0.0
 10
268.2751411419758
 20
278.8254722670957
 30
0.0
 10
271.4695436419747
 20
274.9720810170957
 30
0.0
 10
275.9198361419758
 20
274.9720810170957
 30
0.0
  0
SPLINE
  5
CFC
330
377C
100
AcDbEntity
  8
CUTS
 62
     1
420
 16711680
370
    25
100
AcDbSpline
210
0.0
220
0.0
230
1.0
 70
     8
 71
     3
 72
     8
 73
     4
 74
     0
 42
0.000000001
 43
0.001
 12
1.0
 22
0.0
 32
0.0
 13
1.0
 23
0.0
 33
0.0
 40
0.0
 40
0.0
 40
0.0
 40
0.0
 40
1.0
 40
1.0
 40
1.0
 40
1.0
 10
275.9198361419758
 20
274.9720810170957
 30
0.0
 10
280.3792998919757
 20
274.9720810170957
 30
0.0
 10
284.1420273919757
 20
278.2917197670957
 30
0.0
 10
284.2355136419746
 20
283.2549497670956
 30
0.0
  0
LWPOLYLINE
  5
CFE
330
377C
100
AcDbEntity
  8
CUTS
 62
     1
420
 16711680
370
    25
100
AcDbPolyline
 90
       10
 70
     0
 43
0.0
 10
256.5096498919756
 20
283.0549247670958
 10
256.5135298919758
 20
283.2549497670956
 10
256.5135298919758
 20
283.4105247670956
 10
256.5135298919758
 20
285.3398672670958
 10
256.8377323919758
 20
286.5671810170957
 10
267.7636136419746
 20
286.5671810170957
 10
268.1880048919757
 20
285.3398672670958
 10
268.1880048919757
 20
283.4105247670956
 10
268.1918861419758
 20
283.2549497670956
 10
268.1918861419758
 20
283.2549497670956
  0
SPLINE
  5
D00
330
377C
100
AcDbEntity
  8
CUTS
 62
     1
420
 16711680
370
    25
100
AcDbSpline
210
0.0
220
0.0
230
1.0
 70
     8
 71
     3
 72
     8
 73
     4
 74
     0
 42
0.000000001
 43
0.001
 12
1.0
 22
0.0
 32
0.0
 13
1.0
 23
0.0
 33
0.0
 40
0.0
 40
0.0
 40
0.0
 40
0.0
 40
1.0
 40
1.0
 40
1.0
 40
1.0
 10
295.9184548919757
 20
283.0549247670958
 30
0.0
 10
296.0013573919755
 20
278.6257997670957
 30
0.0
 10
299.4409411419756
 20
275.0602747670956
 30
0.0
 10
303.8898223919757
 20
275.0602747670956
 30
0.0
  0
LWPOLYLINE
  5
D02
330
377C
100
AcDbEntity
  8
CUTS
 62
     1
420
 16711680
370
    25
100
AcDbPolyline
 90
       10
 70
     0
 43
0.0
 10
284.2355136419746
 20
283.2549497670956
 10
284.2355136419746
 20
283.2549497670956
 10
284.2397473919755
 20
283.4105247670956
 10
284.2397473919755
 20
285.3398672670958
 10
284.5639498919759
 20
286.5671810170957
 10
295.4898298919757
 20
286.5671810170957
 10
295.9142223919757
 20
285.3398672670958
 10
295.9142223919757
 20
283.4105247670956
 10
295.9142223919757
 20
283.2549497670956
 10
295.9184548919757
 20
283.0549247670958
  0
LWPOLYLINE
  5
D04
330
377C
100
AcDbEntity
  8
CUTS
 62
     1
420
 16711680
370
    25
100
AcDbPolyline
 90
        2
 70
     0
 43
0.0
 10
303.8898223919757
 20
275.0602747670956
 10
311.1648048919758
 20
275.0602747670956
  0
LWPOLYLINE
  5
1138
330
377C
100
AcDbEntity
  8
CUTS
 62
     1
420
 16711680
370
    25
100
AcDbPolyline
 90
      295
 70
     0
 43
0.0
 10
582.5138620104331
 20
86.71000639527429
 10
582.5138620104331
 20
85.65343639527433
 10
581.1366170104334
 20
85.11051139527453
 10
579.7593732604332
 20
84.76655389527443
 10
579.6764707604334
 20
83.49090889527443
 10
581.000092010433
 20
82.97303139527432
 10
582.2961982604334
 20
82.25830389527434
 10
582.1610845104333
 20
81.21161139527422
 10
580.7259845104331
 20
80.84895639527443
 10
579.3148732604332
 20
80.68420889527434
 10
579.0711032604331
 20
79.4300838952743
 10
580.3160570104333
 20
78.74675389527434
 10
581.5109145104334
 20
77.87186389527434
 10
581.242803260433
 20
76.8505726452743
 10
579.7731320104331
 20
76.67488889527434
 10
578.3528482604333
 20
76.6911176452742
 10
577.9496232604333
 20
75.47826764527443
 10
579.0986207604333
 20
74.64253639527422
 10
580.170007010433
 20
73.6212451452744
 10
579.7745420104334
 20
72.6429926452744
 10
578.294287010433
 20
72.65639764527432
 10
576.8881145104333
 20
72.8546588952743
 10
576.3328420104331
 20
71.70248639527429
 10
577.364364510433
 20
70.72670389527431
 10
578.2985207604333
 20
69.5777063952743
 10
577.7795845104333
 20
68.6576613952744
 10
576.3141457604333
 20
68.85980389527433
 10
574.9443095104334
 20
69.23621764527442
 10
574.2461620104332
 20
68.1655363952743
 10
575.1457457604333
 20
67.0648701452744
 10
575.924325760433
 20
65.80686389527423
 10
575.293207010433
 20
64.96125639527432
 10
573.8641032604332
 20
65.34931139527433
 10
572.554239510433
 20
65.89717514527453
 10
571.725917010433
 20
64.9235088952743
 10
572.476275760433
 20
63.71771389527433
 10
573.0869345104334
 20
62.36939764527435
 10
572.3524507604334
 20
61.6112788952743
 10
570.986142010433
 20
62.17854514527434
 10
569.7560070104332
 20
62.89045014527434
 10
568.8102095104332
 20
62.03108389527429
 10
569.399700760433
 20
60.73921139527422
 10
569.8339707604332
 20
59.32386764527431
 10
569.0084707604333
 20
58.66487889527443
 10
567.724712010433
 20
59.40394764527443
 10
566.5968820104331
 20
60.26578389527432
 10
565.5487782604332
 20
59.53412264527432
 10
565.9685845104332
 20
58.17733889527435
 10
566.217998260433
 20
56.7196613952743
 10
565.315239510433
 20
56.17179764527432
 10
564.1366095104331
 20
57.06750014527429
 10
563.128370760433
 20
58.06727264527453
 10
561.994189510433
 20
57.47637014527433
 10
562.2383120104332
 20
56.07690014527432
 10
562.2989895104333
 20
54.59770389527441
 10
561.3327320104331
 20
54.1708426452744
 10
560.2793370104332
 20
55.20977264527434
 10
559.4069170104331
 20
56.33054764527432
 10
558.2074732604333
 20
55.8888701452743
 10
558.2695620104332
 20
54.47035014527424
 10
558.1404457604331
 20
52.9950338952743
 10
557.1276207604333
 20
52.69517264527431
 10
556.2160420104333
 20
53.86004514527443
 10
555.4935532604331
 20
55.08383139527453
 10
554.2468370104334
 20
54.7991388952743
 10
554.1275982604334
 20
53.3845001452743
 10
553.8108032604332
 20
51.9377588952743
 10
552.768345760433
 20
51.76948389527442
 10
552.0130482604332
 20
53.04230639527432
 10
551.4528370104331
 20
54.34758389527431
 10
550.1803670104332
 20
54.22481764527433
 10
549.8805070104331
 20
52.83698889527423
 10
549.382384510433
 20
51.44351764527434
 10
548.3275782604333
 20
51.40823889527442
 10
547.7405570104333
 20
52.76784514527432
 10
547.3517957604331
 20
54.13450639527443
 10
546.0743870104334
 20
54.17507514527429
 10
545.5991957604333
 20
52.83698889527423
 10
544.9257420104332
 20
51.51795389527453
 10
543.8751707604333
 20
51.6202588952743
 10
543.4673595104332
 20
53.04230639527432
 10
543.2563982604333
 20
54.44671389527443
 10
541.9948645104332
 20
54.65097264527432
 10
541.3528095104334
 20
53.3845001452743
 10
540.516725760433
 20
52.1624788952744
 10
539.4873207604332
 20
52.39742889527443
 10
539.2643645104331
 20
53.86004514527443
 10
539.236142010433
 20
55.28032889527444
 10
538.0095345104332
 20
55.64404264527442
 10
537.2101395104332
 20
54.47035014527424
 10
536.2255370104331
 20
53.36545014527431
 10
535.234937010433
 20
53.7298701452743
 10
535.2010707604331
 20
55.20977264527434
 10
535.3534707604331
 20
56.62194264527423
 10
534.1847170104334
 20
57.13946764527432
 10
533.2420957604331
 20
56.07690014527432
 10
532.1237895104332
 20
55.10782014527453
 10
531.1875170104331
 20
55.59535889527453
 10
531.3430920104333
 20
57.06750014527429
 10
531.6754095104334
 20
58.44827264527433
 10
530.582503260433
 20
59.11114264527433
 10
529.5111170104333
 20
58.17733889527435
 10
528.2785120104331
 20
57.35889514527443
 10
527.4124420104331
 20
57.96390889527433
 10
527.754989510433
 20
59.40394764527443
 10
528.2605207604333
 20
60.73039264527429
 10
527.261453260433
 20
61.52802264527432
 10
526.080000760433
 20
60.73921139527422
 10
524.752145760433
 20
60.08410389527424
 10
523.9707420104332
 20
60.79459764527419
 10
524.4942645104334
 20
62.17854514527434
 10
525.1663070104332
 20
63.43055389527453
 10
524.2766007604332
 20
64.34918639527453
 10
523.0048370104332
 20
63.71771389527433
 10
521.6032507604332
 20
63.23864264527433
 10
520.9199207604333
 20
64.04262264527429
 10
521.6155982604332
 20
65.34931139527433
 10
522.4418032604331
 20
66.5036001452743
 10
521.6776870104331
 20
67.52912514527432
 10
520.334662010433
 20
67.0648701452744
 10
518.8843920104332
 20
66.7695951452744
 10
518.308307010433
 20
67.65436139527444
 10
519.166262010433
 20
68.85980389527433
 10
520.1328732604334
 20
69.90049764527433
 10
519.5059870104333
 20
71.01421764527433
 10
518.115337010433
 20
70.72670389527431
 10
516.6389620104333
 20
70.6187538952743
 10
516.1807032604333
 20
71.5698426452744
 10
517.1861207604334
 20
72.65639764527432
 10
518.2779670104333
 20
73.56444764527433
 10
517.7985420104333
 20
74.74942889527429
 10
516.3817870104331
 20
74.64253639527422
 10
514.9040007604331
 20
74.72367514527443
 10
514.5713320104333
 20
75.72591764527434
 10
515.7072757604333
 20
76.67488889527434
 10
516.9063670104333
 20
77.43583139527433
 10
516.5825170104331
 20
78.67196389527433
 10
515.1636457604332
 20
78.74675389527434
 10
513.708437010433
 20
79.01627514527442
 10
513.5066482604334
 20
80.05273639527431
 10
514.7544232604332
 20
80.84895639527443
 10
516.0413570104333
 20
81.45008889527432
 10
515.877667010433
 20
82.71797264527433
 10
514.4803145104333
 20
82.97303139527432
 10
513.0713207604331
 20
83.4267038952743
 10
513.0039395104332
 20
84.48080389527442
 10
514.3430845104331
 20
85.11051139527453
 10
515.6963395104331
 20
85.54231139527431
 10
515.6963395104331
 20
86.8207788952744
 10
514.3430845104331
 20
87.25293139527443
 10
513.0039395104332
 20
87.88299264527453
 10
513.0713207604331
 20
88.93673889527443
 10
514.4803145104333
 20
89.39076389527432
 10
515.877667010433
 20
89.64582264527431
 10
516.0413570104333
 20
90.9137063952742
 10
514.7544232604332
 20
91.5144863952743
 10
513.5066482604334
 20
92.3114113952744
 10
513.708437010433
 20
93.34716764527431
 10
515.1636457604332
 20
93.61704264527432
 10
516.5825170104331
 20
93.69147889527423
 10
516.9063670104333
 20
94.9283176452744
 10
515.7072757604333
 20
95.68925889527432
 10
514.5713320104333
 20
96.63858389527442
 10
514.9040007604331
 20
97.64047264527434
 10
516.3817870104331
 20
97.7219638952744
 10
517.7985420104333
 20
97.61401389527433
 10
518.2779670104333
 20
98.79934764527431
 10
517.1861207604334
 20
99.70775014527433
 10
516.1807032604333
 20
100.7943063952743
 10
516.6389620104333
 20
101.7453951452743
 10
518.115337010433
 20
101.6374451452744
 10
519.5059870104333
 20
101.3492251452744
 10
520.1328732604334
 20
102.4632976452743
 10
519.166262010433
 20
103.5036388952742
 10
518.308307010433
 20
104.7097863952743
 10
518.8843920104332
 20
105.5949063952743
 10
520.334662010433
 20
105.2982201452742
 10
521.6776870104331
 20
104.8353751452743
 10
522.4418032604331
 20
105.8601951452744
 10
521.6155982604332
 20
107.0151888952743
 10
520.9199207604333
 20
108.3215251452744
 10
521.6032507604332
 20
109.1251538952743
 10
523.0048370104332
 20
108.6467863952743
 10
524.2766007604332
 20
108.0153138952742
 10
525.1663070104332
 20
108.9328888952744
 10
524.4942645104334
 20
110.1848976452742
 10
523.9707420104332
 20
111.5691976452743
 10
524.752145760433
 20
112.2793388952743
 10
526.080000760433
 20
111.6245838952743
 10
527.261453260433
 20
110.8357726452744
 10
528.2605207604333
 20
111.6334038952744
 10
527.754989510433
 20
112.9602001452743
 10
527.4124420104331
 20
114.4005926452744
 10
528.2785120104331
 20
115.0041951452744
 10
529.5111170104333
 20
114.1857501452743
 10
530.582503260433
 20
113.2526538952742
 10
531.6754095104334
 20
113.9151701452744
 10
531.3430920104333
 20
115.2966476452744
 10
531.1875170104331
 20
116.7680838952744
 10
532.1237895104332
 20
117.2563288952743
 10
533.2420957604331
 20
116.2865426452742
 10
534.1847170104334
 20
115.2243288952744
 10
535.3534707604331
 20
115.7418538952742
 10
535.2010707604331
 20
117.1536701452743
 10
535.234937010433
 20
118.6339251452743
 10
536.2255370104331
 20
118.9979926452743
 10
537.2101395104332
 20
117.8937976452743
 10
538.0095345104332
 20
116.7194001452744
 10
539.236142010433
 20
117.0834676452743
 10
539.2643645104331
 20
118.5033976452743
 10
539.4873207604332
 20
119.9663676452744
 10
540.516725760433
 20
120.2016701452743
 10
541.3528095104334
 20
118.9800001452742
 10
541.9948645104332
 20
117.7131751452744
 10
543.2563982604333
 20
117.9170813952743
 10
543.4673595104332
 20
119.3211363952743
 10
543.8751707604333
 20
120.7445951452743
 10
544.9257420104332
 20
120.8454888952744
 10
545.5991957604333
 20
119.5271588952743
 10
546.0743870104334
 20
118.1883676452743
 10
547.3517957604331
 20
118.2296426452743
 10
547.7405570104333
 20
119.5955976452742
 10
548.3275782604333
 20
120.9552038952743
 10
549.382384510433
 20
120.9213363952743
 10
549.8805070104331
 20
119.5271588952743
 10
550.1803670104332
 20
118.1393313952744
 10
551.4528370104331
 20
118.0165638952744
 10
552.0130482604332
 20
119.3211363952743
 10
552.768345760433
 20
120.5946638952743
 10
553.8108032604332
 20
120.4260363952742
 10
554.1275982604334
 20
118.9800001452742
 10
554.2468370104334
 20
117.5650088952743
 10
555.4935532604331
 20
117.2799638952743
 10
556.2160420104333
 20
118.5033976452743
 10
557.1276207604333
 20
119.6689751452742
 10
558.1404457604331
 20
119.3687613952742
 10
558.2695620104332
 20
117.8937976452743
 10
558.2074732604333
 20
116.4745726452743
 10
559.4069170104331
 20
116.0328951452742
 10
560.2793370104332
 20
117.1536701452743
 10
561.3327320104331
 20
118.1933063952744
 10
562.2989895104333
 20
117.7660926452744
 10
562.2383120104332
 20
116.2865426452742
 10
561.994189510433
 20
114.8877788952742
 10
563.128370760433
 20
114.2965226452743
 10
564.1366095104331
 20
115.2966476452744
 10
565.315239510433
 20
116.1919976452744
 10
566.217998260433
 20
115.6451926452743
 10
565.9685845104332
 20
114.1857501452743
 10
565.5487782604332
 20
112.8293201452742
 10
566.5968820104331
 20
112.0976588952744
 10
567.724712010433
 20
112.9602001452743
 10
569.0084707604333
 20
113.6982113952743
 10
569.8339707604332
 20
113.0399288952745
 10
569.399700760433
 20
111.6245838952743
 10
568.8102095104332
 20
110.3327113952743
 10
569.7560070104332
 20
109.4729926452743
 10
570.986142010433
 20
110.1848976452742
 10
572.3524507604334
 20
110.7525176452744
 10
573.0869345104334
 20
109.9940451452743
 10
572.476275760433
 20
108.6467863952743
 10
571.725917010433
 20
107.4402863952743
 10
572.554239510433
 20
106.4669726452743
 10
573.8641032604332
 20
107.0151888952743
 10
575.293207010433
 20
107.4039501452743
 10
575.924325760433
 20
106.5572838952743
 10
575.1457457604333
 20
105.2982201452742
 10
574.2461620104332
 20
104.1989638952744
 10
574.9443095104334
 20
103.1272251452744
 10
576.3141457604333
 20
103.5036388952742
 10
577.7795845104333
 20
103.7057813952744
 10
578.2985207604333
 20
102.7860888952743
 10
577.364364510433
 20
101.6374451452744
 10
576.3328420104331
 20
100.6609563952743
 10
576.8881145104333
 20
99.50948889527453
 10
578.294287010433
 20
99.70775014527433
 10
579.7745420104334
 20
99.72045014527433
 10
580.170007010433
 20
98.74219764527444
 10
579.0986207604333
 20
97.7219638952744
 10
577.9496232604333
 20
96.88588139527442
 10
578.3528482604333
 20
95.67303139527431
 10
579.7731320104331
 20
95.68925889527432
 10
581.242803260433
 20
95.51322264527434
 10
581.5109145104334
 20
94.49193139527429
 10
580.3160570104333
 20
93.61704264527432
 10
579.0711032604331
 20
92.93477014527443
 10
579.3148732604332
 20
91.67993889527432
 10
580.7259845104331
 20
91.5144863952743
 10
582.1610845104333
 20
91.1521838952743
 10
582.2961982604334
 20
90.10478639527443
 10
581.000092010433
 20
89.39076389527432
 10
579.6764707604334
 20
88.8725338952743
 10
579.7593732604332
 20
87.59688889527453
 10
581.1366170104334
 20
87.25293139527443
 10
582.5138620104331
 20
86.71000639527429
  0
SPLINE
  5
1139
330
377C
100
AcDbEntity
  8
CUTS
 62
     1
420
 16711680
370
    25
100
AcDbSpline
210
0.0
220
0.0
230
1.0
 70
     8
 71
     3
 72
     8
 73
     4
 74
     0
 42
0.000000001
 43
0.001
 12
1.0
 22
0.0
 32
0.0
 13
1.0
 23
0.0
 33
0.0
 40
0.0
 40
0.0
 40
0.0
 40
0.0
 40
1.0
 40
1.0
 40
1.0
 40
1.0
 10
537.5872595104333
 20
62.11892514527435
 30
0.0
 10
537.5872595104333
 20
60.84751389527443
 30
0.0
 10
536.5571482604332
 20
59.81740389527423
 30
0.0
 10
535.285737010433
 20
59.81740389527423
 30
0.0
  0
SPLINE
  5
113A
330
377C
100
AcDbEntity
  8
CUTS
 62
     1
420
 16711680
370
    25
100
AcDbSpline
210
0.0
220
0.0
230
1.0
 70
     8
 71
     3
 72
     8
 73
     4
 74
     0
 42
0.000000001
 43
0.001
 12
1.0
 22
0.0
 32
0.0
 13
1.0
 23
0.0
 33
0.0
 40
0.0
 40
0.0
 40
0.0
 40
0.0
 40
1.0
 40
1.0
 40
1.0
 40
1.0
 10
535.285737010433
 20
59.81740389527423
 30
0.0
 10
534.0146782604334
 20
59.81740389527423
 30
0.0
 10
532.9838620104333
 20
60.84751389527443
 30
0.0
 10
532.9838620104333
 20
62.11892514527435
 30
0.0
  0
SPLINE
  5
113B
330
377C
100
AcDbEntity
  8
CUTS
 62
     1
420
 16711680
370
    25
100
AcDbSpline
210
0.0
220
0.0
230
1.0
 70
     8
 71
     3
 72
     8
 73
     4
 74
     0
 42
0.000000001
 43
0.001
 12
1.0
 22
0.0
 32
0.0
 13
1.0
 23
0.0
 33
0.0
 40
0.0
 40
0.0
 40
0.0
 40
0.0
 40
1.0
 40
1.0
 40
1.0
 40
1.0
 10
532.9838620104333
 20
62.11892514527435
 30
0.0
 10
532.9838620104333
 20
63.3903363952742
 30
0.0
 10
534.0146782604334
 20
64.42080014527434
 30
0.0
 10
535.285737010433
 20
64.42080014527434
 30
0.0
  0
SPLINE
  5
113C
330
377C
100
AcDbEntity
  8
CUTS
 62
     1
420
 16711680
370
    25
100
AcDbSpline
210
0.0
220
0.0
230
1.0
 70
     8
 71
     3
 72
     8
 73
     4
 74
     0
 42
0.000000001
 43
0.001
 12
1.0
 22
0.0
 32
0.0
 13
1.0
 23
0.0
 33
0.0
 40
0.0
 40
0.0
 40
0.0
 40
0.0
 40
1.0
 40
1.0
 40
1.0
 40
1.0
 10
535.285737010433
 20
64.42080014527434
 30
0.0
 10
536.5571482604332
 20
64.42080014527434
 30
0.0
 10
537.5872595104333
 20
63.3903363952742
 30
0.0
 10
537.5872595104333
 20
62.11892514527435
 30
0.0
  0
LWPOLYLINE
  5
113D
330
377C
100
AcDbEntity
  8
CUTS
 62
     1
420
 16711680
370
    25
100
AcDbPolyline
 90
        8
 70
     0
 43
0.0
 10
544.092834510433
 20
79.83119264527423
 10
540.4267670104332
 20
86.18119264527442
 10
544.092834510433
 20
92.53119264527433
 10
551.4239095104331
 20
92.53119264527433
 10
555.0903282604331
 20
86.18119264527442
 10
551.4239095104331
 20
79.83119264527423
 10
544.092834510433
 20
79.83119264527423
 10
544.092834510433
 20
79.83119264527423
  0
LWPOLYLINE
  5
1923
330
377C
100
AcDbEntity
  8
CUTS
 62
     1
420
 16711680
370
    25
100
AcDbPolyline
 90
        4
 70
     0
 43
0.0
 10
442.3022049999998
 20
139.3350824999997
 10
442.3022049999998
 20
143.0378387499997
 10
445.6232549999999
 20
143.0378387499997
 10
445.6546525
 20
147.3276162499996
  0
SPLINE
  5
1925
330
377C
100
AcDbEntity
  8
CUTS
 62
     1
420
 16711680
370
    25
100
AcDbSpline
210
0.0
220
0.0
230
1.0
 70
     8
 71
     3
 72
     8
 73
     4
 74
     0
 42
0.000000001
 43
0.001
 12
1.0
 22
0.0
 32
0.0
 13
1.0
 23
0.0
 33
0.0
 40
0.0
 40
0.0
 40
0.0
 40
0.0
 40
1.0
 40
1.0
 40
1.0
 40
1.0
 10
554.00329125
 20
137.8350712499997
 30
0.0
 10
554.00329125
 20
136.1847774999995
 30
0.0
 10
555.3533725000001
 20
134.8350499999996
 30
0.0
 10
557.00331375
 20
134.8350499999996
 30
0.0
  0
SPLINE
  5
1929
330
377C
100
AcDbEntity
  8
CUTS
 62
     1
420
 16711680
370
    25
100
AcDbSpline
210
0.0
220
0.0
230
1.0
 70
     8
 71
     3
 72
     8
 73
     4
 74
     0
 42
0.000000001
 43
0.001
 12
1.0
 22
0.0
 32
0.0
 13
1.0
 23
0.0
 33
0.0
 40
0.0
 40
0.0
 40
0.0
 40
0.0
 40
1.0
 40
1.0
 40
1.0
 40
1.0
 10
558.0034387499999
 20
134.8350499999996
 30
0.0
 10
559.6537324999999
 20
134.8350499999996
 30
0.0
 10
561.00346125
 20
136.1847774999995
 30
0.0
 10
561.00346125
 20
137.8350712499997
 30
0.0
  0
LWPOLYLINE
  5
192B
330
377C
100
AcDbEntity
  8
CUTS
 62
     1
420
 16711680
370
    25
100
AcDbPolyline
 90
        2
 70
     0
 43
0.0
 10
557.00331375
 20
134.8350499999996
 10
558.0034387499999
 20
134.8350499999996
  0
SPLINE
  5
192D
330
377C
100
AcDbEntity
  8
CUTS
 62
     1
420
 16711680
370
    25
100
AcDbSpline
210
0.0
220
0.0
230
1.0
 70
    24
 71
     3
 72
     8
 73
     4
 74
     0
 42
0.000000001
 43
0.001
 12
1.0
 22
0.0
 32
0.0
 13
1.0
 23
0.0
 33
0.0
 40
0.0
 40
0.0
 40
0.0
 40
0.0
 40
1.0
 40
1.0
 40
1.0
 40
1.0
 10
561.00346125
 20
138.5378049999996
 30
0.0
 10
561.00346125
 20
140.1873937499996
 30
0.0
 10
561.00346125
 20
144.3882712499995
 30
0.0
 10
561.00346125
 20
146.0378612499995
 30
0.0
  0
LWPOLYLINE
  5
192F
330
377C
100
AcDbEntity
  8
CUTS
 62
     1
420
 16711680
370
    25
100
AcDbPolyline
 90
        2
 70
     0
 43
0.0
 10
561.00346125
 20
137.8350712499997
 10
561.00346125
 20
138.5378049999996
  0
SPLINE
  5
1930
330
377C
100
AcDbEntity
  8
CUTS
 62
     1
420
 16711680
370
    25
100
AcDbSpline
210
0.0
220
0.0
230
1.0
 70
    24
 71
     3
 72
     8
 73
     4
 74
     0
 42
0.000000001
 43
0.001
 12
1.0
 22
0.0
 32
0.0
 13
1.0
 23
0.0
 33
0.0
 40
0.0
 40
0.0
 40
0.0
 40
0.0
 40
1.0
 40
1.0
 40
1.0
 40
1.0
 10
561.00346125
 20
146.7405937499997
 30
0.0
 10
561.00346125
 20
148.3901825000006
 30
0.0
 10
561.00346125
 20
151.0871687499997
 30
0.0
 10
561.00346125
 20
152.7367574999997
 30
0.0
  0
LWPOLYLINE
  5
1932
330
377C
100
AcDbEntity
  8
CUTS
 62
     1
420
 16711680
370
    25
100
AcDbPolyline
 90
        2
 70
     0
 43
0.0
 10
561.00346125
 20
146.0378612499995
 10
561.00346125
 20
146.7405937499997
  0
SPLINE
  5
1934
330
377C
100
AcDbEntity
  8
CUTS
 62
     1
420
 16711680
370
    25
100
AcDbSpline
210
0.0
220
0.0
230
1.0
 70
     8
 71
     3
 72
     8
 73
     4
 74
     0
 42
0.000000001
 43
0.001
 12
1.0
 22
0.0
 32
0.0
 13
1.0
 23
0.0
 33
0.0
 40
0.0
 40
0.0
 40
0.0
 40
0.0
 40
1.0
 40
1.0
 40
1.0
 40
1.0
 10
561.00346125
 20
156.2260824999996
 30
0.0
 10
561.00346125
 20
157.8756712499996
 30
0.0
 10
559.70171125
 20
159.5827637499997
 30
0.0
 10
558.11033
 20
160.0191499999996
 30
0.0
  0
LWPOLYLINE
  5
1938
330
377C
100
AcDbEntity
  8
CUTS
 62
     1
420
 16711680
370
    25
100
AcDbPolyline
 90
        2
 70
     0
 43
0.0
 10
561.00346125
 20
152.7367574999997
 10
561.00346125
 20
156.2260824999996
  0
LINE
  5
194A
330
377C
100
AcDbEntity
  8
CUTS
 62
     1
420
 16711680
370
    25
100
AcDbLine
 10
429.401475
 20
151.3312912499997
 30
0.0
 11
433.401475
 21
151.3312912499997
 31
0.0
  0
LINE
  5
194B
330
377C
100
AcDbEntity
  8
CUTS
 62
     1
420
 16711680
370
    25
100
AcDbLine
 10
429.401475
 20
178.8186775
 30
0.0
 11
433.401475
 21
178.8186775
 31
0.0
  0
LINE
  5
194C
330
377C
100
AcDbEntity
  8
CUTS
 62
     1
420
 16711680
370
    25
100
AcDbLine
 10
559.9999549999999
 20
194.9998887499999
 30
0.0
 11
563.9999549999999
 21
194.9998887499999
 31
0.0
  0
LINE
  5
194D
330
377C
100
AcDbEntity
  8
CUTS
 62
     1
420
 16711680
370
    25
100
AcDbLine
 10
559.9999549999999
 20
167.5125024999996
 30
0.0
 11
563.9999549999999
 21
167.5125024999996
 31
0.0
  0
LINE
  5
194E
330
377C
100
AcDbEntity
  8
CUTS
 62
     1
420
 16711680
370
    25
100
AcDbLine
 10
445.72344375
 20
152.4238437499997
 30
0.0
 11
449.72344375
 21
152.4238437499997
 31
0.0
  0
LINE
  5
194F
330
377C
100
AcDbEntity
  8
CUTS
 62
     1
420
 16711680
370
    25
100
AcDbLine
 10
479.3668024999998
 20
152.4238437499997
 30
0.0
 11
483.3668024999999
 21
152.4238437499997
 31
0.0
  0
LINE
  5
1950
330
377C
100
AcDbEntity
  8
CUTS
 62
     1
420
 16711680
370
    25
100
AcDbLine
 10
513.1283412500001
 20
152.4238437499997
 30
0.0
 11
517.1283412500001
 21
152.4238437499997
 31
0.0
  0
LINE
  5
1951
330
377C
100
AcDbEntity
  8
CUTS
 62
     1
420
 16711680
370
    25
100
AcDbLine
 10
546.9636112499999
 20
152.4238437499997
 30
0.0
 11
550.9636112499999
 21
152.4238437499997
 31
0.0
  0
LINE
  5
1952
330
377C
100
AcDbEntity
  8
CUTS
 62
     1
420
 16711680
370
    25
100
AcDbLine
 10
543.67833875
 20
193.9073362500001
 30
0.0
 11
547.67833875
 21
193.9073362500001
 31
0.0
  0
LINE
  5
1953
330
377C
100
AcDbEntity
  8
CUTS
 62
     1
420
 16711680
370
    25
100
AcDbLine
 10
510.0349799999999
 20
193.9073362500001
 30
0.0
 11
514.0349799999999
 21
193.9073362500001
 31
0.0
  0
LINE
  5
1954
330
377C
100
AcDbEntity
  8
CUTS
 62
     1
420
 16711680
370
    25
100
AcDbLine
 10
476.27344125
 20
193.9073362500001
 30
0.0
 11
480.27344125
 21
193.9073362500001
 31
0.0
  0
LINE
  5
1955
330
377C
100
AcDbEntity
  8
CUTS
 62
     1
420
 16711680
370
    25
100
AcDbLine
 10
442.4381725
 20
193.9073362500001
 30
0.0
 11
446.4381725
 21
193.9073362500001
 31
0.0
  0
LINE
  5
1956
330
377C
100
AcDbEntity
  8
CUTS
 62
     1
420
 16711680
370
    25
100
AcDbLine
 10
433.401475
 20
178.8186775
 30
0.0
 11
433.401475
 21
187.563439177523
 31
0.0
  0
LINE
  5
1957
330
377C
100
AcDbEntity
  8
CUTS
 62
     1
420
 16711680
370
    25
100
AcDbLine
 10
433.401475
 20
151.3312912499997
 30
0.0
 11
433.1012609999999
 21
163.8189187499996
 31
0.0
  0
LINE
  5
1958
330
377C
100
AcDbEntity
  8
CUTS
 62
     1
420
 16711680
370
    25
100
AcDbLine
 10
559.9999549999999
 20
167.5125024999996
 30
0.0
 11
559.9999549999999
 21
158.7680656386117
 31
0.0
  0
LINE
  5
1959
330
377C
100
AcDbEntity
  8
CUTS
 62
     1
420
 16711680
370
    25
100
AcDbLine
 10
559.9999549999999
 20
194.9998887499999
 30
0.0
 11
560.3001689999999
 21
182.5122612500001
 31
0.0
  0
LINE
  5
195A
330
377C
100
AcDbEntity
  8
CUTS
 62
     1
420
 16711680
370
    25
100
AcDbLine
 10
429.401475
 20
178.8186775
 30
0.0
 11
429.401475
 21
183.8189500000002
 31
0.0
  0
LINE
  5
195B
330
377C
100
AcDbEntity
  8
CUTS
 62
     1
420
 16711680
370
    25
100
AcDbLine
 10
429.401475
 20
183.8189500000002
 30
0.0
 11
423.40143
 21
183.8189500000001
 31
0.0
  0
LINE
  5
195C
330
377C
100
AcDbEntity
  8
CUTS
 62
     1
420
 16711680
370
    25
100
AcDbLine
 10
423.40143
 20
183.8189500000001
 30
0.0
 11
423.40143
 21
163.8189187499996
 31
0.0
  0
LINE
  5
195D
330
377C
100
AcDbEntity
  8
CUTS
 62
     1
420
 16711680
370
    25
100
AcDbLine
 10
423.40143
 20
163.8189187499996
 30
0.0
 11
433.1012609999999
 21
163.8189187499996
 31
0.0
  0
LINE
  5
195E
330
377C
100
AcDbEntity
  8
CUTS
 62
     1
420
 16711680
370
    25
100
AcDbLine
 10
429.401475
 20
151.3312912499997
 30
0.0
 11
429.401475
 21
156.3312112499997
 31
0.0
  0
LINE
  5
195F
330
377C
100
AcDbEntity
  8
CUTS
 62
     1
420
 16711680
370
    25
100
AcDbLine
 10
429.401475
 20
156.3312112499997
 30
0.0
 11
423.40143
 21
156.3312112499997
 31
0.0
  0
LINE
  5
1960
330
377C
100
AcDbEntity
  8
CUTS
 62
     1
420
 16711680
370
    25
100
AcDbLine
 10
423.40143
 20
156.3312112499997
 30
0.0
 11
423.40143
 21
136.3350612499997
 31
0.0
  0
LINE
  5
1961
330
377C
100
AcDbEntity
  8
CUTS
 62
     1
420
 16711680
370
    25
100
AcDbLine
 10
423.40143
 20
136.3350612499997
 30
0.0
 11
439.3025362500028
 21
136.3350612499997
 31
0.0
  0
LINE
  5
1962
330
377C
100
AcDbEntity
  8
CUTS
 62
     1
420
 16711680
370
    25
100
AcDbLine
 10
563.9999549999999
 20
167.5125024999996
 30
0.0
 11
563.9999549999999
 21
162.5122299999996
 31
0.0
  0
LINE
  5
1963
330
377C
100
AcDbEntity
  8
CUTS
 62
     1
420
 16711680
370
    25
100
AcDbLine
 10
563.9999549999999
 20
162.5122299999996
 30
0.0
 11
569.9999999999999
 21
162.5122299999996
 31
0.0
  0
LINE
  5
1964
330
377C
100
AcDbEntity
  8
CUTS
 62
     1
420
 16711680
370
    25
100
AcDbLine
 10
569.9999999999999
 20
162.5122299999996
 30
0.0
 11
569.9999999999999
 21
182.5122612500002
 31
0.0
  0
LINE
  5
1965
330
377C
100
AcDbEntity
  8
CUTS
 62
     1
420
 16711680
370
    25
100
AcDbLine
 10
435.30238875
 20
186.3063862500001
 30
0.0
 11
558.11033
 21
160.0191499999996
 31
0.0
  0
LINE
  5
1966
330
377C
100
AcDbEntity
  8
CUTS
 62
     1
420
 16711680
370
    25
100
AcDbLine
 10
569.9999999999999
 20
182.5122612500002
 30
0.0
 11
560.3001689999999
 21
182.5122612500002
 31
0.0
  0
LINE
  5
1967
330
377C
100
AcDbEntity
  8
CUTS
 62
     1
420
 16711680
370
    25
100
AcDbLine
 10
563.9999549999999
 20
194.9998887499999
 30
0.0
 11
563.9999549999999
 21
189.9999687499998
 31
0.0
  0
LINE
  5
1968
330
377C
100
AcDbEntity
  8
CUTS
 62
     1
420
 16711680
370
    25
100
AcDbLine
 10
563.9999549999999
 20
189.9999687499998
 30
0.0
 11
569.9999999999999
 21
189.9999687499998
 31
0.0
  0
LINE
  5
1969
330
377C
100
AcDbEntity
  8
CUTS
 62
     1
420
 16711680
370
    25
100
AcDbLine
 10
569.9999999999999
 20
189.9999687499998
 30
0.0
 11
569.9999999999999
 21
210.0
 31
0.0
  0
LINE
  5
196A
330
377C
100
AcDbEntity
  8
CUTS
 62
     1
420
 16711680
370
    25
100
AcDbLine
 10
569.9999999999999
 20
210.0
 30
0.0
 11
554.0988937499853
 21
210.0
 31
0.0
  0
LINE
  5
196B
330
377C
100
AcDbEntity
  8
CUTS
 62
     1
420
 16711680
370
    25
100
AcDbLine
 10
440.3375862499998
 20
203.2972212500002
 30
0.0
 11
442.3379832499999
 21
203.2972212500002
 31
0.0
  0
LINE
  5
196C
330
377C
100
AcDbEntity
  8
CUTS
 62
     1
420
 16711680
370
    25
100
AcDbLine
 10
442.4381725
 20
193.9073362500001
 30
0.0
 11
442.3379832499999
 21
203.2972212500002
 31
0.0
  0
LINE
  5
196D
330
377C
100
AcDbEntity
  8
CUTS
 62
     1
420
 16711680
370
    25
100
AcDbLine
 10
440.3375862499998
 20
203.2972212500002
 30
0.0
 11
439.3984912499999
 21
203.2972212500002
 31
0.0
  0
LINE
  5
196E
330
377C
100
AcDbEntity
  8
CUTS
 62
     1
420
 16711680
370
    25
100
AcDbLine
 10
439.3984912499999
 20
203.2972212500002
 30
0.0
 11
439.3984912499999
 21
208.499988749997
 31
0.0
  0
LINE
  5
196F
330
377C
100
AcDbEntity
  8
CUTS
 62
     1
420
 16711680
370
    25
100
AcDbLine
 10
551.0641529999999
 20
143.0378387499997
 30
0.0
 11
553.0645499999998
 21
143.0378387499997
 31
0.0
  0
LINE
  5
1970
330
377C
100
AcDbEntity
  8
CUTS
 62
     1
420
 16711680
370
    25
100
AcDbLine
 10
476.27344125
 20
193.9073362500001
 30
0.0
 11
476.1736044999999
 21
203.2975749999999
 31
0.0
  0
LINE
  5
1972
330
377C
100
AcDbEntity
  8
CUTS
 62
     1
420
 16711680
370
    25
100
AcDbLine
 10
476.1736044999999
 20
203.2975749999997
 30
0.0
 11
446.5383612499999
 21
203.2975749999997
 31
0.0
  0
LINE
  5
1973
330
377C
100
AcDbEntity
  8
CUTS
 62
     1
420
 16711680
370
    25
100
AcDbLine
 10
446.5383612499999
 20
203.2975749999997
 30
0.0
 11
446.4628662499998
 21
199.00779625
 31
0.0
  0
LINE
  5
1974
330
377C
100
AcDbEntity
  8
CUTS
 62
     1
420
 16711680
370
    25
100
AcDbLine
 10
510.0349799999999
 20
193.9073362500001
 30
0.0
 11
509.9351445
 21
203.2975749999999
 31
0.0
  0
LINE
  5
1976
330
377C
100
AcDbEntity
  8
CUTS
 62
     1
420
 16711680
370
    25
100
AcDbLine
 10
509.9351445
 20
203.2975749999997
 30
0.0
 11
480.3732775
 21
203.2975749999999
 31
0.0
  0
LINE
  5
1978
330
377C
100
AcDbEntity
  8
CUTS
 62
     1
420
 16711680
370
    25
100
AcDbLine
 10
480.3732775
 20
203.2975749999999
 30
0.0
 11
480.3041324999998
 21
199.00779625
 31
0.0
  0
LINE
  5
1979
330
377C
100
AcDbEntity
  8
CUTS
 62
     1
420
 16711680
370
    25
100
AcDbLine
 10
543.67833875
 20
193.9073362500001
 30
0.0
 11
543.5785019999998
 21
203.2975749999999
 31
0.0
  0
LINE
  5
197B
330
377C
100
AcDbEntity
  8
CUTS
 62
     1
420
 16711680
370
    25
100
AcDbLine
 10
543.5785019999998
 20
203.2975749999999
 30
0.0
 11
514.13481625
 21
203.2975749999999
 31
0.0
  0
LINE
  5
197C
330
377C
100
AcDbEntity
  8
CUTS
 62
     1
420
 16711680
370
    25
100
AcDbLine
 10
514.13481625
 20
203.2975749999999
 30
0.0
 11
514.066025
 21
199.00779625
 31
0.0
  0
LINE
  5
197D
330
377C
100
AcDbEntity
  8
CUTS
 62
     1
420
 16711680
370
    25
100
AcDbLine
 10
551.0641529999999
 20
143.0378387499997
 30
0.0
 11
550.9636112499999
 21
152.4238437499997
 31
0.0
  0
LINE
  5
197E
330
377C
100
AcDbEntity
  8
CUTS
 62
     1
420
 16711680
370
    25
100
AcDbLine
 10
517.1283412500001
 20
152.4238437499997
 30
0.0
 11
517.228178
 21
143.0378387499997
 31
0.0
  0
LINE
  5
197F
330
377C
100
AcDbEntity
  8
CUTS
 62
     1
420
 16711680
370
    25
100
AcDbLine
 10
517.228178
 20
143.0378387499997
 30
0.0
 11
546.8634225
 21
143.0378387499997
 31
0.0
  0
LINE
  5
1980
330
377C
100
AcDbEntity
  8
CUTS
 62
     1
420
 16711680
370
    25
100
AcDbLine
 10
546.8634225
 20
143.0378387499997
 30
0.0
 11
546.9389162500001
 21
147.3276162499996
 31
0.0
  0
LINE
  5
1981
330
377C
100
AcDbEntity
  8
CUTS
 62
     1
420
 16711680
370
    25
100
AcDbLine
 10
483.3668024999999
 20
152.4238437499997
 30
0.0
 11
483.46663925
 21
143.0378387499997
 31
0.0
  0
LINE
  5
1982
330
377C
100
AcDbEntity
  8
CUTS
 62
     1
420
 16711680
370
    25
100
AcDbLine
 10
513.028505
 20
143.0378387499997
 30
0.0
 11
513.0972975
 21
147.3276162499996
 31
0.0
  0
LINE
  5
1983
330
377C
100
AcDbEntity
  8
CUTS
 62
     1
420
 16711680
370
    25
100
AcDbLine
 10
483.46663925
 20
143.0378387499997
 30
0.0
 11
513.028505
 21
143.0378387499997
 31
0.0
  0
LINE
  5
1984
330
377C
100
AcDbEntity
  8
CUTS
 62
     1
420
 16711680
370
    25
100
AcDbLine
 10
449.72344375
 20
152.4238437499997
 30
0.0
 11
449.8232804999999
 21
143.0378387499997
 31
0.0
  0
LINE
  5
1985
330
377C
100
AcDbEntity
  8
CUTS
 62
     1
420
 16711680
370
    25
100
AcDbLine
 10
449.8232804999999
 20
143.0378387499997
 30
0.0
 11
479.2669662499999
 21
143.0378387499997
 31
0.0
  0
LINE
  5
1986
330
377C
100
AcDbEntity
  8
CUTS
 62
     1
420
 16711680
370
    25
100
AcDbLine
 10
479.2669662499999
 20
143.0378387499997
 30
0.0
 11
479.3357574999999
 21
147.3276162499996
 31
0.0
  0
LWPOLYLINE
  5
1987
330
377C
100
AcDbEntity
  8
CUTS
 62
     1
420
 16711680
370
    25
100
AcDbPolyline
 90
        8
 70
     0
 43
0.0
 10
446.4642774999999
 20
189.96821875
 10
446.4642774999999
 20
196.8078749999997
 10
445.2627162499999
 20
196.8078749999997
 10
445.54635
 20
197.6912299999999
 10
446.4628662499998
 20
199.00779625
 10
448.52026625
 20
199.00779625
 10
448.0207325
 20
189.96821875
 10
450.0333299999999
 20
199.00779625
  0
LWPOLYLINE
  5
1988
330
377C
100
AcDbEntity
  8
CUTS
 62
     1
420
 16711680
370
    25
100
AcDbPolyline
 90
        2
 70
     0
 43
0.0
 10
448.5202699999999
 20
199.00779625
 10
450.03332625
 20
199.00779625
  0
LWPOLYLINE
  5
1989
330
377C
100
AcDbEntity
  8
CUTS
 62
     1
420
 16711680
370
    25
100
AcDbPolyline
 90
        8
 70
     0
 43
0.0
 10
547.74818875
 20
189.96821875
 10
547.74818875
 20
196.8078749999997
 10
546.5473324999999
 20
196.8078749999997
 10
546.8313187499999
 20
197.6912299999999
 10
547.7467775
 20
199.00779625
 10
549.8041774999999
 20
199.00779625
 10
549.3046437499999
 20
189.96821875
 10
551.31724125
 20
199.00779625
  0
LWPOLYLINE
  5
198A
330
377C
100
AcDbEntity
  8
CUTS
 62
     1
420
 16711680
370
    25
100
AcDbPolyline
 90
        2
 70
     0
 43
0.0
 10
549.8041737499999
 20
199.00779625
 10
551.31724125
 20
199.00779625
  0
LWPOLYLINE
  5
198B
330
377C
100
AcDbEntity
  8
CUTS
 62
     1
420
 16711680
370
    25
100
AcDbPolyline
 90
        8
 70
     0
 43
0.0
 10
514.06743625
 20
189.96821875
 10
514.06743625
 20
196.8078749999997
 10
512.86658
 20
196.8078749999997
 10
513.1495075
 20
197.6912299999999
 10
514.066025
 20
199.00779625
 10
516.1234249999999
 20
199.00779625
 10
515.62389125
 20
189.96821875
 10
517.6364887499999
 20
199.00779625
  0
LWPOLYLINE
  5
198C
330
377C
100
AcDbEntity
  8
CUTS
 62
     1
420
 16711680
370
    25
100
AcDbPolyline
 90
        2
 70
     0
 43
0.0
 10
516.1234249999999
 20
199.00779625
 10
517.6364887499999
 20
199.00779625
  0
LWPOLYLINE
  5
198D
330
377C
100
AcDbEntity
  8
CUTS
 62
     1
420
 16711680
370
    25
100
AcDbPolyline
 90
        8
 70
     0
 43
0.0
 10
480.3055437499999
 20
189.96821875
 10
480.3055437499999
 20
196.8078749999997
 10
479.1046887499998
 20
196.8078749999997
 10
479.3879687499999
 20
197.6912299999999
 10
480.3041324999998
 20
199.00779625
 10
482.3615325
 20
199.00779625
 10
481.862
 20
189.96821875
 10
483.8749499999999
 20
199.00779625
  0
LWPOLYLINE
  5
198E
330
377C
100
AcDbEntity
  8
CUTS
 62
     1
420
 16711680
370
    25
100
AcDbPolyline
 90
        2
 70
     0
 43
0.0
 10
482.3615325
 20
199.00779625
 10
483.8749537499999
 20
199.00779625
  0
SPLINE
  5
198F
330
377C
100
AcDbEntity
  8
CUTS
 62
     1
420
 16711680
370
    25
100
AcDbSpline
210
0.0
220
0.0
230
1.0
 70
     8
 71
     3
 72
     8
 73
     4
 74
     0
 42
0.000000001
 43
0.001
 12
1.0
 22
0.0
 32
0.0
 13
1.0
 23
0.0
 33
0.0
 40
0.0
 40
0.0
 40
0.0
 40
0.0
 40
1.0
 40
1.0
 40
1.0
 40
1.0
 10
439.3984912499999
 20
208.4999887500001
 30
0.0
 10
439.3984912499999
 20
210.1502825
 30
0.0
 10
438.04841125
 20
211.5000112499999
 30
0.0
 10
436.39846875
 20
211.5000112499999
 30
0.0
  0
SPLINE
  5
1990
330
377C
100
AcDbEntity
  8
CUTS
 62
     1
420
 16711680
370
    25
100
AcDbSpline
210
0.0
220
0.0
230
1.0
 70
     8
 71
     3
 72
     8
 73
     4
 74
     0
 42
0.000000001
 43
0.001
 12
1.0
 22
0.0
 32
0.0
 13
1.0
 23
0.0
 33
0.0
 40
0.0
 40
0.0
 40
0.0
 40
0.0
 40
1.0
 40
1.0
 40
1.0
 40
1.0
 10
435.39834375
 20
211.5000112499999
 30
0.0
 10
433.7480499999998
 20
211.5000112499999
 30
0.0
 10
432.3983224999998
 20
210.1502825
 30
0.0
 10
432.3983224999998
 20
208.4999887500001
 30
0.0
  0
LWPOLYLINE
  5
1991
330
377C
100
AcDbEntity
  8
CUTS
 62
     1
420
 16711680
370
    25
100
AcDbPolyline
 90
        2
 70
     0
 43
0.0
 10
436.39846875
 20
211.5000112499999
 10
435.39834375
 20
211.5000112499999
  0
SPLINE
  5
1992
330
377C
100
AcDbEntity
  8
CUTS
 62
     1
420
 16711680
370
    25
100
AcDbSpline
210
0.0
220
0.0
230
1.0
 70
    24
 71
     3
 72
     8
 73
     4
 74
     0
 42
0.000000001
 43
0.001
 12
1.0
 22
0.0
 32
0.0
 13
1.0
 23
0.0
 33
0.0
 40
0.0
 40
0.0
 40
0.0
 40
0.0
 40
1.0
 40
1.0
 40
1.0
 40
1.0
 10
432.3983224999998
 20
207.797255
 30
0.0
 10
432.3983224999998
 20
206.1476662500002
 30
0.0
 10
432.3983224999998
 20
201.9467887499998
 30
0.0
 10
432.3983224999998
 20
200.2972
 30
0.0
  0
LWPOLYLINE
  5
1993
330
377C
100
AcDbEntity
  8
CUTS
 62
     1
420
 16711680
370
    25
100
AcDbPolyline
 90
        2
 70
     0
 43
0.0
 10
432.3983224999998
 20
208.4999887500001
 10
432.3983224999998
 20
207.797255
  0
SPLINE
  5
1994
330
377C
100
AcDbEntity
  8
CUTS
 62
     1
420
 16711680
370
    25
100
AcDbSpline
210
0.0
220
0.0
230
1.0
 70
    24
 71
     3
 72
     8
 73
     4
 74
     0
 42
0.000000001
 43
0.001
 12
1.0
 22
0.0
 32
0.0
 13
1.0
 23
0.0
 33
0.0
 40
0.0
 40
0.0
 40
0.0
 40
0.0
 40
1.0
 40
1.0
 40
1.0
 40
1.0
 10
432.3983224999998
 20
199.5944662499999
 30
0.0
 10
432.3983224999998
 20
197.94417125
 30
0.0
 10
432.3983224999998
 20
195.2440112500001
 30
0.0
 10
432.3983224999998
 20
193.5944212500001
 30
0.0
  0
LWPOLYLINE
  5
1995
330
377C
100
AcDbEntity
  8
CUTS
 62
     1
420
 16711680
370
    25
100
AcDbPolyline
 90
        2
 70
     0
 43
0.0
 10
432.3983224999998
 20
200.2972
 10
432.3983224999998
 20
199.5944662499999
  0
SPLINE
  5
1996
330
377C
100
AcDbEntity
  8
CUTS
 62
     1
420
 16711680
370
    25
100
AcDbSpline
210
0.0
220
0.0
230
1.0
 70
     8
 71
     3
 72
     8
 73
     4
 74
     0
 42
0.000000001
 43
0.001
 12
1.0
 22
0.0
 32
0.0
 13
1.0
 23
0.0
 33
0.0
 40
0.0
 40
0.0
 40
0.0
 40
0.0
 40
1.0
 40
1.0
 40
1.0
 40
1.0
 10
432.3983224999998
 20
190.1050962500001
 30
0.0
 10
432.3983224999998
 20
188.4555075000001
 30
0.0
 10
433.7000724999999
 20
186.74806375
 30
0.0
 10
435.2914525
 20
186.3123824999999
 30
0.0
  0
LWPOLYLINE
  5
1997
330
377C
100
AcDbEntity
  8
CUTS
 62
     1
420
 16711680
370
    25
100
AcDbPolyline
 90
        2
 70
     0
 43
0.0
 10
432.3983224999998
 20
193.5944212500001
 10
432.3983224999998
 20
190.1050962500001
  0
SPLINE
  5
1998
330
377C
100
AcDbEntity
  8
CUTS
 62
     1
420
 16711680
370
    25
100
AcDbSpline
210
0.0
220
0.0
230
1.0
 70
     8
 71
     3
 72
     8
 73
     4
 74
     0
 42
0.000000001
 43
0.001
 12
1.0
 22
0.0
 32
0.0
 13
1.0
 23
0.0
 33
0.0
 40
0.0
 40
0.0
 40
0.0
 40
0.0
 40
1.0
 40
1.0
 40
1.0
 40
1.0
 10
554.09889375
 20
210.0
 30
0.0
 10
552.4489524999999
 20
210.0
 30
0.0
 10
551.0988724999997
 20
208.6502712499998
 30
0.0
 10
551.0988724999997
 20
207.0003299999998
 30
0.0
  0
LWPOLYLINE
  5
199A
330
377C
100
AcDbEntity
  8
CUTS
 62
     1
420
 16711680
370
    25
100
AcDbPolyline
 90
        4
 70
     0
 43
0.0
 10
551.0988724999997
 20
207.0003299999998
 10
551.0988724999997
 20
203.2972212500002
 10
547.7778224999998
 20
203.2972212500002
 10
547.746425
 20
199.00744375
  0
LWPOLYLINE
  5
19A6
330
377C
100
AcDbEntity
  8
CUTS
 62
     1
420
 16711680
370
    25
100
AcDbPolyline
 90
        8
 70
     0
 43
0.0
 10
546.937505
 20
156.3629612500007
 10
546.937505
 20
149.5247162499996
 10
548.1390662499998
 20
149.5247162499996
 10
547.8554324999999
 20
148.6434774999997
 10
546.9389162500001
 20
147.3276162499996
 10
544.8815162499999
 20
147.3276162499996
 10
545.38105
 20
156.3629612500007
 10
543.368805
 20
147.3276162499996
  0
LWPOLYLINE
  5
19A7
330
377C
100
AcDbEntity
  8
CUTS
 62
     1
420
 16711680
370
    25
100
AcDbPolyline
 90
        2
 70
     0
 43
0.0
 10
544.8815199999999
 20
147.3276512499996
 10
543.3688012499999
 20
147.3276512499996
  0
LWPOLYLINE
  5
19A8
330
377C
100
AcDbEntity
  8
CUTS
 62
     1
420
 16711680
370
    25
100
AcDbPolyline
 90
        8
 70
     0
 43
0.0
 10
445.6535937499999
 20
156.3629612500007
 10
445.6535937499999
 20
149.5247162499996
 10
446.8544499999999
 20
149.5247162499996
 10
446.5704637499999
 20
148.6434774999997
 10
445.655005
 20
147.3276162499996
 10
443.5976049999998
 20
147.3276162499996
 10
444.09713875
 20
156.3629612500007
 10
442.0845412499999
 20
147.3276162499996
  0
LWPOLYLINE
  5
19A9
330
377C
100
AcDbEntity
  8
CUTS
 62
     1
420
 16711680
370
    25
100
AcDbPolyline
 90
        2
 70
     0
 43
0.0
 10
443.5976049999998
 20
147.3276512499996
 10
442.0845375
 20
147.3276512499996
  0
LWPOLYLINE
  5
19AA
330
377C
100
AcDbEntity
  8
CUTS
 62
     1
420
 16711680
370
    25
100
AcDbPolyline
 90
        8
 70
     0
 43
0.0
 10
479.3343474999998
 20
156.3629612500007
 10
479.3343474999998
 20
149.5247162499996
 10
480.5355549999998
 20
149.5247162499996
 10
480.2522749999999
 20
148.6434774999997
 10
479.3357574999999
 20
147.3276162499996
 10
477.2783575
 20
147.3276162499996
 10
477.7778912499999
 20
156.3629612500007
 10
475.7652937499998
 20
147.3276162499996
  0
LWPOLYLINE
  5
19AC
330
377C
100
AcDbEntity
  8
CUTS
 62
     1
420
 16711680
370
    25
100
AcDbPolyline
 90
        2
 70
     0
 43
0.0
 10
477.2783575
 20
147.3276512499996
 10
475.7652937499998
 20
147.3276512499996
  0
LWPOLYLINE
  5
19AE
330
377C
100
AcDbEntity
  8
CUTS
 62
     1
420
 16711680
370
    25
100
AcDbPolyline
 90
        8
 70
     0
 43
0.0
 10
513.0962387499999
 20
156.3629612500007
 10
513.0962387499999
 20
149.5247162499996
 10
514.2970937499999
 20
149.5247162499996
 10
514.01381375
 20
148.6434774999997
 10
513.0972975
 20
147.3276162499996
 10
511.0398975000001
 20
147.3276162499996
 10
511.5394299999999
 20
156.3629612500007
 10
509.5268325
 20
147.3276162499996
  0
LWPOLYLINE
  5
19B0
330
377C
100
AcDbEntity
  8
CUTS
 62
     1
420
 16711680
370
    25
100
AcDbPolyline
 90
        2
 70
     0
 43
0.0
 10
511.0398975000001
 20
147.3276512499996
 10
509.5268325
 20
147.3276512499996
  0
SPLINE
  5
19B4
330
377C
100
AcDbEntity
  8
CUTS
 62
     1
420
 16711680
370
    25
100
AcDbSpline
210
0.0
220
0.0
230
1.0
 70
     8
 71
     3
 72
     8
 73
     4
 74
     0
 42
0.000000001
 43
0.001
 12
1.0
 22
0.0
 32
0.0
 13
1.0
 23
0.0
 33
0.0
 40
0.0
 40
0.0
 40
0.0
 40
0.0
 40
1.0
 40
1.0
 40
1.0
 40
1.0
 10
439.3025362499999
 20
136.3350612499997
 30
0.0
 10
440.9524774999999
 20
136.3350612499997
 30
0.0
 10
442.3022049999998
 20
137.6847887499997
 30
0.0
 10
442.3022049999998
 20
139.3350824999997
 30
0.0
  0
LINE
  5
2FA1
330
377C
100
AcDbEntity
  8
laser bed referance
100
AcDbLine
 10
0.0
 20
304.8000000000001
 30
0.0
 11
609.5999999999999
 21
304.8000000000001
 31
0.0
  0
LINE
  5
2FA2
330
377C
100
AcDbEntity
  8
laser bed referance
100
AcDbLine
 10
0.0
 20
0.0000000000000142
 30
0.0
 11
0.0
 21
304.8000000000001
 31
0.0
  0
LINE
  5
2FA3
330
377C
100
AcDbEntity
  8
laser bed referance
100
AcDbLine
 10
609.5999999999999
 20
0.0000000000000142
 30
0.0
 11
609.5999999999999
 21
304.8000000000001
 31
0.0
  0
LINE
  5
2FA4
330
377C
100
AcDbEntity
  8
laser bed referance
100
AcDbLine
 10
0.0
 20
0.0000000000000142
 30
0.0
 11
609.5999999999999
 21
0.0000000000000142
 31
0.0
  0
LINE
  5
3758
330
377C
100
AcDbEntity
  8
CUTS
 62
     1
420
 16711680
370
    25
100
AcDbLine
 10
552.863855435034
 20
224.0950859547779
 30
0.0
 11
553.8025966850339
 21
224.095085954778
 31
0.0
  0
LINE
  5
3759
330
377C
100
AcDbEntity
  8
CUTS
 62
     1
420
 16711680
370
    25
100
AcDbLine
 10
553.8025966850339
 20
224.095085954778
 30
0.0
 11
553.8025966850339
 21
218.8923184547778
 31
0.0
  0
LINE
  5
375C
330
377C
100
AcDbEntity
  8
CUTS
 62
     1
420
 16711680
370
    25
100
AcDbLine
 10
553.0645499999998
 20
143.0378387499997
 30
0.0
 11
554.00329125
 21
143.0378387499997
 31
0.0
  0
LINE
  5
375D
330
377C
100
AcDbEntity
  8
CUTS
 62
     1
420
 16711680
370
    25
100
AcDbLine
 10
554.00329125
 20
143.0378387499997
 30
0.0
 11
554.0032912499998
 21
137.835071250008
 31
0.0
  0
ENDSEC
  0
SECTION
  2
OBJECTS
  0
DICTIONARY
  5
376A
330
0
100
AcDbDictionary
281
     1
  3
ACAD_GROUP
350
376B
  3
ACAD_LAYOUT
350
3777
  3
ACAD_MATERIAL
350
3798
  3
ACAD_MLEADERSTYLE
350
37C7
  3
ACAD_MLINESTYLE
350
3774
  3
ACAD_PLOTSETTINGS
350
3776
  3
ACAD_PLOTSTYLENAME
350
376C
  3
ACAD_TABLESTYLE
350
37C6
  3
ACAD_VISUALSTYLE
350
3787
  3
QCAD_OBJECTS
350
379D
  0
DICTIONARY
  5
376B
102
{ACAD_REACTORS
330
376A
102
}
330
376A
100
AcDbDictionary
281
     1
  0
DICTIONARY
  5
3777
102
{ACAD_REACTORS
330
376A
102
}
330
376A
100
AcDbDictionary
281
     1
  3
Layout1
350
377B
  3
Layout2
350
3783
  3
Model
350
377F
  0
DICTIONARY
  5
3798
102
{ACAD_REACTORS
330
376A
102
}
330
376A
100
AcDbDictionary
281
     1
  3
ByBlock
350
379A
  3
ByLayer
350
3799
  3
Global
350
379B
  0
DICTIONARY
  5
37C7
102
{ACAD_REACTORS
330
376A
102
}
330
376A
100
AcDbDictionary
281
     1
  0
DICTIONARY
  5
3774
102
{ACAD_REACTORS
330
376A
102
}
330
376A
100
AcDbDictionary
281
     1
  3
Standard
350
3775
  0
DICTIONARY
  5
3776
102
{ACAD_REACTORS
330
376A
102
}
330
376A
100
AcDbDictionary
281
     1
  0
ACDBDICTIONARYWDFLT
  5
376C
102
{ACAD_REACTORS
330
376A
102
}
330
376A
100
AcDbDictionary
281
     1
  3
Normal
350
376D
100
AcDbDictionaryWithDefault
340
376D
  0
DICTIONARY
  5
37C6
102
{ACAD_REACTORS
330
376A
102
}
330
376A
100
AcDbDictionary
281
     1
  0
DICTIONARY
  5
3787
102
{ACAD_REACTORS
330
376A
102
}
330
376A
100
AcDbDictionary
281
     1
  3
2dWireframe
350
378C
  3
3D Hidden
350
378E
  3
3dWireframe
350
378D
  3
Basic
350
378F
  3
Brighten
350
3793
  3
ColorChange
350
3797
  3
Conceptual
350
3791
  3
Dim
350
3792
  3
Facepattern
350
3796
  3
Flat
350
3788
  3
FlatWithEdges
350
3789
  3
Gouraud
350
378A
  3
GouraudWithEdges
350
378B
  3
Linepattern
350
3795
  3
Realistic
350
3790
  3
Thicken
350
3794
  0
DICTIONARY
  5
379D
102
{ACAD_REACTORS
330
376A
102
}
330
376A
100
AcDbDictionary
281
     1
  3
Grid/DisplayGrid
350
37AC
  3
Grid/GridSpacingX
350
37A5
  3
Grid/GridSpacingY
350
37A7
  3
MultiPageSettings/Columns
350
37A4
  3
MultiPageSettings/GlueMarginBottom
350
37A1
  3
MultiPageSettings/GlueMarginsLeft
350
37A8
  3
MultiPageSettings/GlueMarginsRight
350
379E
  3
MultiPageSettings/GlueMarginsTop
350
37B0
  3
MultiPageSettings/PrintCropMarks
350
37A0
  3
MultiPageSettings/Rows
350
37A9
  3
PageSettings/OffsetX
350
37AE
  3
PageSettings/OffsetY
350
37AF
  3
PageSettings/PageOrientation
350
379F
  3
PageSettings/PaperHeight
350
37A3
  3
PageSettings/PaperWidth
350
37AA
  3
PageSettings/Scale
350
37A2
  3
PageSettings/ShowBoundingBox
350
37A6
  3
PageSettings/ShowPageBorders
350
37AD
  3
UnitSettings/PaperUnit
350
37AB
  0
LAYOUT
  5
377B
102
{ACAD_REACTORS
330
3777
102
}
330
3777
100
AcDbPlotSettings
  1

  2
none_device
  4

  6

 40
0.0
 41
0.0
 42
0.0
 43
0.0
 44
0.0
 45
0.0
 46
0.0
 47
0.0
 48
0.0
 49
0.0
140
0.0
141
0.0
142
1.0
143
1.0
 70
   688
 72
     0
 73
     0
 74
     5
  7

 75
    16
 76
     0
 77
     2
 78
   300
147
1.0
148
0.0
149
0.0
100
AcDbLayout
  1
Layout1
 70
     1
 71
     1
 10
0.0
 20
0.0
 11
12.0
 21
9.0
 12
0.0
 22
0.0
 32
0.0
 14
1.000000000000000E+20
 24
1.000000000000000E+20
 34
1.000000000000000E+20
 15
-1.000000000000000E+20
 25
-1.000000000000000E+20
 35
-1.000000000000000E+20
146
0.0
 13
0.0
 23
0.0
 33
0.0
 16
1.0
 26
0.0
 36
0.0
 17
0.0
 27
1.0
 37
0.0
 76
     0
330
3778
  0
LAYOUT
  5
3783
102
{ACAD_REACTORS
330
3777
102
}
330
3777
100
AcDbPlotSettings
  1

  2
none_device
  4

  6

 40
0.0
 41
0.0
 42
0.0
 43
0.0
 44
0.0
 45
0.0
 46
0.0
 47
0.0
 48
0.0
 49
0.0
140
0.0
141
0.0
142
1.0
143
1.0
 70
   688
 72
     0
 73
     0
 74
     5
  7

 75
    16
 76
     0
 77
     2
 78
   300
147
1.0
148
0.0
149
0.0
100
AcDbLayout
  1
Layout2
 70
     1
 71
     2
 10
0.0
 20
0.0
 11
0.0
 21
0.0
 12
0.0
 22
0.0
 32
0.0
 14
0.0
 24
0.0
 34
0.0
 15
0.0
 25
0.0
 35
0.0
146
0.0
 13
0.0
 23
0.0
 33
0.0
 16
1.0
 26
0.0
 36
0.0
 17
0.0
 27
1.0
 37
0.0
 76
     0
330
3780
  0
LAYOUT
  5
377F
102
{ACAD_REACTORS
330
3777
102
}
330
3777
100
AcDbPlotSettings
  1

  2
none_device
  4

  6

 40
0.0
 41
0.0
 42
0.0
 43
0.0
 44
0.0
 45
0.0
 46
0.0
 47
0.0
 48
0.0
 49
0.0
140
0.0
141
0.0
142
1.0
143
1.0
 70
  1712
 72
     0
 73
     0
 74
     0
  7

 75
     0
 76
     0
 77
     2
 78
   300
147
1.0
148
0.0
149
0.0
100
AcDbLayout
  1
Model
 70
     1
 71
     0
 10
0.0
 20
0.0
 11
12.0
 21
9.0
 12
0.0
 22
0.0
 32
0.0
 14
1.000000000000000E+20
 24
1.000000000000000E+20
 34
1.000000000000000E+20
 15
-1.000000000000000E+20
 25
-1.000000000000000E+20
 35
-1.000000000000000E+20
146
0.0
 13
0.0
 23
0.0
 33
0.0
 16
1.0
 26
0.0
 36
0.0
 17
0.0
 27
1.0
 37
0.0
 76
     0
330
377C
331
3786
  0
MATERIAL
  5
379A
102
{ACAD_REACTORS
330
3798
102
}
330
3798
100
AcDbMaterial
  1
ByBlock
 72
     1
 94
      127
  0
MATERIAL
  5
3799
102
{ACAD_REACTORS
330
3798
102
}
330
3798
100
AcDbMaterial
  1
ByLayer
 72
     1
 94
      127
  0
MATERIAL
  5
379B
102
{ACAD_REACTORS
330
3798
102
}
330
3798
100
AcDbMaterial
  1
Global
 72
     1
 94
      127
  0
MLINESTYLE
  5
3775
102
{ACAD_REACTORS
330
3774
102
}
330
3774
100
AcDbMlineStyle
  2
Standard
 70
     0
  3

 62
   256
 51
90.0
 52
90.0
 71
     2
 49
0.5
 62
   256
  6
BYLAYER
 49
-0.5
 62
   256
  6
BYLAYER
  0
ACDBPLACEHOLDER
  5
376D
102
{ACAD_REACTORS
330
376C
102
}
330
376C
  0
VISUALSTYLE
  5
378C
102
{ACAD_REACTORS
330
3787
102
}
330
3787
100
AcDbVisualStyle
  2
2dWireframe
 70
     4
177
     2
291
     0
 71
     0
176
     1
 72
     2
176
     1
 73
     0
176
     1
 90
        0
176
     1
 40
-0.6
176
     1
 41
-30.0
176
     1
 62
     5
 63
     7
421
 16777215
176
     1
 74
     1
176
     1
 91
        4
176
     1
 64
     7
176
     1
 65
   257
176
     1
 75
     1
176
     1
175
     1
176
     1
 42
1.0
176
     1
 92
        0
176
     1
 66
   257
176
     1
 43
1.0
176
     1
 76
     1
176
     1
 77
     6
176
     1
 78
     2
176
     1
 67
     7
176
     1
 79
     5
176
     1
170
     0
176
     1
171
     0
176
     1
290
     0
176
     1
 93
        1
176
     1
 44
0.0
176
     1
173
     0
176
     1
  0
VISUALSTYLE
  5
378E
102
{ACAD_REACTORS
330
3787
102
}
330
3787
100
AcDbVisualStyle
  2
3D Hidden
 70
     6
177
     2
291
     0
 71
     1
176
     1
 72
     2
176
     1
 73
     2
176
     1
 90
        0
176
     1
 40
-0.6
176
     1
 41
-30.0
176
     1
 62
     5
 63
     7
421
 16777215
176
     1
 74
     2
176
     1
 91
        2
176
     1
 64
     7
176
     1
 65
   257
176
     1
 75
     2
176
     1
175
     1
176
     1
 42
40.0
176
     1
 92
        0
176
     1
 66
   257
176
     1
 43
1.0
176
     1
 76
     1
176
     1
 77
     6
176
     1
 78
     2
176
     1
 67
     7
176
     1
 79
     3
176
     1
170
     0
176
     1
171
     0
176
     1
290
     0
176
     1
 93
        1
176
     1
 44
0.0
176
     1
173
     0
176
     1
  0
VISUALSTYLE
  5
378D
102
{ACAD_REACTORS
330
3787
102
}
330
3787
100
AcDbVisualStyle
  2
3dWireframe
 70
     5
177
     2
291
     0
 71
     0
176
     1
 72
     2
176
     1
 73
     0
176
     1
 90
        0
176
     1
 40
-0.6
176
     1
 41
-30.0
176
     1
 62
     5
 63
     7
421
 16777215
176
     1
 74
     1
176
     1
 91
        4
176
     1
 64
     7
176
     1
 65
   257
176
     1
 75
     1
176
     1
175
     1
176
     1
 42
1.0
176
     1
 92
        0
176
     1
 66
   257
176
     1
 43
1.0
176
     1
 76
     1
176
     1
 77
     6
176
     1
 78
     2
176
     1
 67
     7
176
     1
 79
     5
176
     1
170
     0
176
     1
171
     0
176
     1
290
     0
176
     1
 93
        1
176
     1
 44
0.0
176
     1
173
     0
176
     1
  0
VISUALSTYLE
  5
378F
102
{ACAD_REACTORS
330
3787
102
}
330
3787
100
AcDbVisualStyle
  2
Basic
 70
     7
177
     2
291
     1
 71
     1
176
     1
 72
     0
176
     1
 73
     1
176
     1
 90
        0
176
     1
 40
-0.6
176
     1
 41
-30.0
176
     1
 62
     5
 63
     7
421
 16777215
176
     1
 74
     0
176
     1
 91
        4
176
     1
 64
     7
176
     1
 65
   257
176
     1
 75
     1
176
     1
175
     1
176
     1
 42
1.0
176
     1
 92
        8
176
     1
 66
     7
176
     1
 43
1.0
176
     1
 76
     1
176
     1
 77
     6
176
     1
 78
     2
176
     1
 67
     7
176
     1
 79
     5
176
     1
170
     0
176
     1
171
     0
176
     1
290
     0
176
     1
 93
        1
176
     1
 44
0.0
176
     1
173
     0
176
     1
  0
VISUALSTYLE
  5
3793
102
{ACAD_REACTORS
330
3787
102
}
330
3787
100
AcDbVisualStyle
  2
Brighten
 70
    12
177
     2
291
     1
 71
     2
176
     1
 72
     2
176
     1
 73
     0
176
     1
 90
        0
176
     1
 40
-0.6
176
     1
 41
-30.0
176
     1
 62
     5
 63
     7
421
 16777215
176
     1
 74
     1
176
     1
 91
        4
176
     1
 64
     7
176
     1
 65
   257
176
     1
 75
     1
176
     1
175
     1
176
     1
 42
1.0
176
     1
 92
        8
176
     1
 66
     7
176
     1
 43
1.0
176
     1
 76
     1
176
     1
 77
     6
176
     1
 78
     2
176
     1
 67
     7
176
     1
 79
     5
176
     1
170
     0
176
     1
171
     0
176
     1
290
     0
176
     1
 93
        1
176
     1
 44
50.0
176
     1
173
     0
176
     1
  0
VISUALSTYLE
  5
3797
102
{ACAD_REACTORS
330
3787
102
}
330
3787
100
AcDbVisualStyle
  2
ColorChange
 70
    16
177
     2
291
     1
 71
     2
176
     1
 72
     2
176
     1
 73
     3
176
     1
 90
        0
176
     1
 40
-0.6
176
     1
 41
-30.0
176
     1
 62
     5
 63
     8
421
  8421504
176
     1
 74
     1
176
     1
 91
        4
176
     1
 64
     7
176
     1
 65
   257
176
     1
 75
     1
176
     1
175
     1
176
     1
 42
1.0
176
     1
 92
        8
176
     1
 66
     8
424
  8421504
176
     1
 43
1.0
176
     1
 76
     1
176
     1
 77
     6
176
     1
 78
     2
176
     1
 67
     7
176
     1
 79
     5
176
     1
170
     0
176
     1
171
     0
176
     1
290
     0
176
     1
 93
        1
176
     1
 44
0.0
176
     1
173
     0
176
     1
  0
VISUALSTYLE
  5
3791
102
{ACAD_REACTORS
330
3787
102
}
330
3787
100
AcDbVisualStyle
  2
Conceptual
 70
     9
177
     2
291
     0
 71
     3
176
     1
 72
     2
176
     1
 73
     0
176
     1
 90
        0
176
     1
 40
-0.6
176
     1
 41
-30.0
176
     1
 62
     5
 63
     7
421
 16777215
176
     1
 74
     2
176
     1
 91
        2
176
     1
 64
     7
176
     1
 65
   257
176
     1
 75
     1
176
     1
175
     1
176
     1
 42
40.0
176
     1
 92
        8
176
     1
 66
     7
176
     1
 43
1.0
176
     1
 76
     1
176
     1
 77
     6
176
     1
 78
     2
176
     1
 67
     7
176
     1
 79
     3
176
     1
170
     0
176
     1
171
     0
176
     1
290
     0
176
     1
 93
        1
176
     1
 44
0.0
176
     1
173
     0
176
     1
  0
VISUALSTYLE
  5
3792
102
{ACAD_REACTORS
330
3787
102
}
330
3787
100
AcDbVisualStyle
  2
Dim
 70
    11
177
     2
291
     1
 71
     2
176
     1
 72
     2
176
     1
 73
     0
176
     1
 90
        0
176
     1
 40
-0.6
176
     1
 41
-30.0
176
     1
 62
     5
 63
     7
421
 16777215
176
     1
 74
     1
176
     1
 91
        4
176
     1
 64
     7
176
     1
 65
   257
176
     1
 75
     1
176
     1
175
     1
176
     1
 42
1.0
176
     1
 92
        8
176
     1
 66
     7
176
     1
 43
1.0
176
     1
 76
     1
176
     1
 77
     6
176
     1
 78
     2
176
     1
 67
     7
176
     1
 79
     5
176
     1
170
     0
176
     1
171
     0
176
     1
290
     0
176
     1
 93
        1
176
     1
 44
-50.0
176
     1
173
     0
176
     1
  0
VISUALSTYLE
  5
3796
102
{ACAD_REACTORS
330
3787
102
}
330
3787
100
AcDbVisualStyle
  2
Facepattern
 70
    15
177
     2
291
     1
 71
     2
176
     1
 72
     2
176
     1
 73
     0
176
     1
 90
        0
176
     1
 40
-0.6
176
     1
 41
-30.0
176
     1
 62
     5
 63
     7
421
 16777215
176
     1
 74
     1
176
     1
 91
        4
176
     1
 64
     7
176
     1
 65
   257
176
     1
 75
     1
176
     1
175
     1
176
     1
 42
1.0
176
     1
 92
        8
176
     1
 66
     7
176
     1
 43
1.0
176
     1
 76
     1
176
     1
 77
     6
176
     1
 78
     2
176
     1
 67
     7
176
     1
 79
     5
176
     1
170
     0
176
     1
171
     0
176
     1
290
     0
176
     1
 93
        1
176
     1
 44
0.0
176
     1
173
     0
176
     1
  0
VISUALSTYLE
  5
3788
102
{ACAD_REACTORS
330
3787
102
}
330
3787
100
AcDbVisualStyle
  2
Flat
 70
     0
177
     2
291
     1
 71
     2
176
     1
 72
     1
176
     1
 73
     1
176
     1
 90
        2
176
     1
 40
-0.6
176
     1
 41
30.0
176
     1
 62
     5
 63
     7
421
 16777215
176
     1
 74
     0
176
     1
 91
        4
176
     1
 64
     7
176
     1
 65
   257
176
     1
 75
     1
176
     1
175
     1
176
     1
 42
1.0
176
     1
 92
        8
176
     1
 66
     7
176
     1
 43
1.0
176
     1
 76
     1
176
     1
 77
     6
176
     1
 78
     2
176
     1
 67
     7
176
     1
 79
     5
176
     1
170
     0
176
     1
171
     0
176
     1
290
     0
176
     1
 93
       13
176
     1
 44
0.0
176
     1
173
     0
176
     1
  0
VISUALSTYLE
  5
3789
102
{ACAD_REACTORS
330
3787
102
}
330
3787
100
AcDbVisualStyle
  2
FlatWithEdges
 70
     1
177
     2
291
     1
 71
     2
176
     1
 72
     1
176
     1
 73
     1
176
     1
 90
        2
176
     1
 40
-0.6
176
     1
 41
30.0
176
     1
 62
     5
 63
     7
421
 16777215
176
     1
 74
     1
176
     1
 91
        4
176
     1
 64
     7
176
     1
 65
   257
176
     1
 75
     1
176
     1
175
     1
176
     1
 42
1.0
176
     1
 92
        0
176
     1
 66
   257
176
     1
 43
1.0
176
     1
 76
     1
176
     1
 77
     6
176
     1
 78
     2
176
     1
 67
     7
176
     1
 79
     5
176
     1
170
     0
176
     1
171
     0
176
     1
290
     0
176
     1
 93
       13
176
     1
 44
0.0
176
     1
173
     0
176
     1
  0
VISUALSTYLE
  5
378A
102
{ACAD_REACTORS
330
3787
102
}
330
3787
100
AcDbVisualStyle
  2
Gouraud
 70
     2
177
     2
291
     1
 71
     2
176
     1
 72
     2
176
     1
 73
     1
176
     1
 90
        2
176
     1
 40
-0.6
176
     1
 41
30.0
176
     1
 62
     5
 63
     7
421
 16777215
176
     1
 74
     0
176
     1
 91
        4
176
     1
 64
     7
176
     1
 65
   257
176
     1
 75
     1
176
     1
175
     1
176
     1
 42
1.0
176
     1
 92
        0
176
     1
 66
     7
176
     1
 43
1.0
176
     1
 76
     1
176
     1
 77
     6
176
     1
 78
     2
176
     1
 67
     7
176
     1
 79
     5
176
     1
170
     0
176
     1
171
     0
176
     1
290
     0
176
     1
 93
       13
176
     1
 44
0.0
176
     1
173
     0
176
     1
  0
VISUALSTYLE
  5
378B
102
{ACAD_REACTORS
330
3787
102
}
330
3787
100
AcDbVisualStyle
  2
GouraudWithEdges
 70
     3
177
     2
291
     1
 71
     2
176
     1
 72
     2
176
     1
 73
     1
176
     1
 90
        2
176
     1
 40
-0.6
176
     1
 41
30.0
176
     1
 62
     5
 63
     7
421
 16777215
176
     1
 74
     1
176
     1
 91
        4
176
     1
 64
     7
176
     1
 65
   257
176
     1
 75
     1
176
     1
175
     1
176
     1
 42
1.0
176
     1
 92
        0
176
     1
 66
   257
176
     1
 43
1.0
176
     1
 76
     1
176
     1
 77
     6
176
     1
 78
     2
176
     1
 67
     7
176
     1
 79
     5
176
     1
170
     0
176
     1
171
     0
176
     1
290
     0
176
     1
 93
       13
176
     1
 44
0.0
176
     1
173
     0
176
     1
  0
VISUALSTYLE
  5
3795
102
{ACAD_REACTORS
330
3787
102
}
330
3787
100
AcDbVisualStyle
  2
Linepattern
 70
    14
177
     2
291
     1
 71
     2
176
     1
 72
     2
176
     1
 73
     0
176
     1
 90
        0
176
     1
 40
-0.6
176
     1
 41
-30.0
176
     1
 62
     5
 63
     7
421
 16777215
176
     1
 74
     1
176
     1
 91
        4
176
     1
 64
     7
176
     1
 65
   257
176
     1
 75
     7
176
     1
175
     7
176
     1
 42
1.0
176
     1
 92
        8
176
     1
 66
     7
176
     1
 43
1.0
176
     1
 76
     1
176
     1
 77
     6
176
     1
 78
     2
176
     1
 67
     7
176
     1
 79
     5
176
     1
170
     0
176
     1
171
     0
176
     1
290
     0
176
     1
 93
        1
176
     1
 44
0.0
176
     1
173
     0
176
     1
  0
VISUALSTYLE
  5
3790
102
{ACAD_REACTORS
330
3787
102
}
330
3787
100
AcDbVisualStyle
  2
Realistic
 70
     8
177
     2
291
     0
 71
     2
176
     1
 72
     2
176
     1
 73
     0
176
     1
 90
        0
176
     1
 40
-0.6
176
     1
 41
-30.0
176
     1
 62
     5
 63
     7
421
 16777215
176
     1
 74
     1
176
     1
 91
        0
176
     1
 64
     7
176
     1
 65
   257
176
     1
 75
     1
176
     1
175
     1
176
     1
 42
1.0
176
     1
 92
        8
176
     1
 66
     8
424
  7895160
176
     1
 43
1.0
176
     1
 76
     1
176
     1
 77
     6
176
     1
 78
     2
176
     1
 67
     7
176
     1
 79
     5
176
     1
170
     0
176
     1
171
     0
176
     1
290
     0
176
     1
 93
       13
176
     1
 44
0.0
176
     1
173
     0
176
     1
  0
VISUALSTYLE
  5
3794
102
{ACAD_REACTORS
330
3787
102
}
330
3787
100
AcDbVisualStyle
  2
Thicken
 70
    13
177
     2
291
     1
 71
     2
176
     1
 72
     2
176
     1
 73
     0
176
     1
 90
        0
176
     1
 40
-0.6
176
     1
 41
-30.0
176
     1
 62
     5
 63
     7
421
 16777215
176
     1
 74
     1
176
     1
 91
        4
176
     1
 64
     7
176
     1
 65
   257
176
     1
 75
     1
176
     1
175
     1
176
     1
 42
1.0
176
     1
 92
       12
176
     1
 66
     7
176
     1
 43
1.0
176
     1
 76
     1
176
     1
 77
     6
176
     1
 78
     2
176
     1
 67
     7
176
     1
 79
     5
176
     1
170
     0
176
     1
171
     0
176
     1
290
     0
176
     1
 93
        1
176
     1
 44
0.0
176
     1
173
     0
176
     1
  0
XRECORD
  5
37AC
102
{ACAD_REACTORS
330
379D
102
}
330
379D
100
AcDbXrecord
280
     1
290
     1
  0
XRECORD
  5
37A5
102
{ACAD_REACTORS
330
379D
102
}
330
379D
100
AcDbXrecord
280
     1
1000
auto
  0
XRECORD
  5
37A7
102
{ACAD_REACTORS
330
379D
102
}
330
379D
100
AcDbXrecord
280
     1
1000
auto
  0
XRECORD
  5
37A4
102
{ACAD_REACTORS
330
379D
102
}
330
379D
100
AcDbXrecord
280
     1
 90
        1
  0
XRECORD
  5
37A1
102
{ACAD_REACTORS
330
379D
102
}
330
379D
100
AcDbXrecord
280
     1
 40
10.0
  0
XRECORD
  5
37A8
102
{ACAD_REACTORS
330
379D
102
}
330
379D
100
AcDbXrecord
280
     1
 40
10.0
  0
XRECORD
  5
379E
102
{ACAD_REACTORS
330
379D
102
}
330
379D
100
AcDbXrecord
280
     1
 40
10.0
  0
XRECORD
  5
37B0
102
{ACAD_REACTORS
330
379D
102
}
330
379D
100
AcDbXrecord
280
     1
 40
10.0
  0
XRECORD
  5
37A0
102
{ACAD_REACTORS
330
379D
102
}
330
379D
100
AcDbXrecord
280
     1
290
     0
  0
XRECORD
  5
37A9
102
{ACAD_REACTORS
330
379D
102
}
330
379D
100
AcDbXrecord
280
     1
 90
        1
  0
XRECORD
  5
37AE
102
{ACAD_REACTORS
330
379D
102
}
330
379D
100
AcDbXrecord
280
     1
 40
0.0
  0
XRECORD
  5
37AF
102
{ACAD_REACTORS
330
379D
102
}
330
379D
100
AcDbXrecord
280
     1
 40
0.0
  0
XRECORD
  5
379F
102
{ACAD_REACTORS
330
379D
102
}
330
379D
100
AcDbXrecord
280
     1
1000
Portrait
  0
XRECORD
  5
37A3
102
{ACAD_REACTORS
330
379D
102
}
330
379D
100
AcDbXrecord
280
     1
 40
297.0
  0
XRECORD
  5
37AA
102
{ACAD_REACTORS
330
379D
102
}
330
379D
100
AcDbXrecord
280
     1
 40
210.0
  0
XRECORD
  5
37A2
102
{ACAD_REACTORS
330
379D
102
}
330
379D
100
AcDbXrecord
280
     1
1000
1:1
  0
XRECORD
  5
37A6
102
{ACAD_REACTORS
330
379D
102
}
330
379D
100
AcDbXrecord
280
     1
290
     0
  0
XRECORD
  5
37AD
102
{ACAD_REACTORS
330
379D
102
}
330
379D
100
AcDbXrecord
280
     1
290
     1
  0
XRECORD
  5
37AB
102
{ACAD_REACTORS
330
379D
102
}
330
379D
100
AcDbXrecord
280
     1
 90
        4
  0
ENDSEC
  0
EOF
