  0
SECTION
  2
HEADER
  9
$ACADVER
  1
AC1024
  9
$ACADMAINTVER
 70
     6
  9
$DWGCODEPAGE
  3
ASCII
  9
$INSBASE
 10
0.0
 20
0.0
 30
0.0
  9
$EXTMIN
 10
1.000000000000000E+20
 20
1.000000000000000E+20
 30
1.000000000000000E+20
  9
$EXTMAX
 10
-1.000000000000000E+20
 20
-1.000000000000000E+20
 30
-1.000000000000000E+20
  9
$LIMMIN
 10
0.0
 20
0.0
  9
$LIMMAX
 10
12.0
 20
9.0
  9
$ORTHOMODE
 70
     0
  9
$REGENMODE
 70
     1
  9
$FILLMODE
 70
     1
  9
$QTEXTMODE
 70
     0
  9
$MIRRTEXT
 70
     1
  9
$LTSCALE
 40
1.0
  9
$ATTMODE
 70
     1
  9
$TEXTSIZE
 40
0.2
  9
$TRACEWID
 40
0.05
  9
$TEXTSTYLE
  7
Standard
  9
$CLAYER
  8
0
  9
$CELTYPE
  6
ByLayer
  9
$CECOLOR
 62
    18
  9
$CELTSCALE
 40
1.0
  9
$DISPSILH
 70
     0
  9
$DIMSCALE
 40
1.0
  9
$DIMASZ
 40
2.5
  9
$DIMEXO
 40
0.625
  9
$DIMDLI
 40
0.38
  9
$DIMRND
 40
0.0
  9
$DIMDLE
 40
0.0
  9
$DIMEXE
 40
1.25
  9
$DIMTP
 40
0.0
  9
$DIMTM
 40
0.0
  9
$DIMTXT
 40
2.5
  9
$DIMCEN
 40
0.09
  9
$DIMTSZ
 40
0.0
  9
$DIMTOL
 70
     0
  9
$DIMLIM
 70
     0
  9
$DIMTIH
 70
     1
  9
$DIMTOH
 70
     1
  9
$DIMSE1
 70
     0
  9
$DIMSE2
 70
     0
  9
$DIMTAD
 70
     0
  9
$DIMZIN
 70
     8
  9
$DIMBLK
  1

  9
$DIMASO
 70
     1
  9
$DIMSHO
 70
     1
  9
$DIMPOST
  1

  9
$DIMAPOST
  1

  9
$DIMALT
 70
     0
  9
$DIMALTD
 70
     2
  9
$DIMALTF
 40
25.4
  9
$DIMLFAC
 40
1.0
  9
$DIMTOFL
 70
     0
  9
$DIMTVP
 40
0.0
  9
$DIMTIX
 70
     0
  9
$DIMSOXD
 70
     0
  9
$DIMSAH
 70
     0
  9
$DIMBLK1
  1

  9
$DIMBLK2
  1

  9
$DIMSTYLE
  2
Standard
  9
$DIMCLRD
 70
    18
  9
$DIMCLRE
 70
    18
  9
$DIMCLRT
 70
    18
  9
$DIMTFAC
 40
1.0
  9
$DIMGAP
 40
0.625
  9
$DIMJUST
 70
     0
  9
$DIMSD1
 70
     0
  9
$DIMSD2
 70
     0
  9
$DIMTOLJ
 70
     1
  9
$DIMTZIN
 70
     0
  9
$DIMALTZ
 70
     0
  9
$DIMALTTZ
 70
     0
  9
$DIMUPT
 70
     0
  9
$DIMDEC
 70
     4
  9
$DIMTDEC
 70
     4
  9
$DIMALTU
 70
     2
  9
$DIMALTTD
 70
     2
  9
$DIMTXSTY
  7
Standard
  9
$DIMAUNIT
 70
     0
  9
$DIMADEC
 70
     0
  9
$DIMALTRND
 40
0.0
  9
$DIMAZIN
 70
     2
  9
$DIMDSEP
 70
    46
  9
$DIMATFIT
 70
     3
  9
$DIMFRAC
 70
     0
  9
$DIMLDRBLK
  1

  9
$DIMLUNIT
 70
     2
  9
$DIMLWD
 70
    -2
  9
$DIMLWE
 70
    -2
  9
$DIMTMOVE
 70
     0
  9
$DIMFXL
 40
1.0
  9
$DIMFXLON
 70
     0
  9
$DIMJOGANG
 40
0.7853981633974483
  9
$DIMTFILL
 70
     0
  9
$DIMTFILLCLR
 70
     0
  9
$DIMARCSYM
 70
     0
  9
$DIMLTYPE
  6

  9
$DIMLTEX1
  6

  9
$DIMLTEX2
  6

  9
$DIMTXTDIRECTION
 70
     0
  9
$LUNITS
 70
     2
  9
$LUPREC
 70
     4
  9
$SKETCHINC
 40
0.1
  9
$FILLETRAD
 40
0.5
  9
$AUNITS
 70
     0
  9
$AUPREC
 70
     0
  9
$MENU
  1
.
  9
$ELEVATION
 40
0.0
  9
$PELEVATION
 40
0.0
  9
$THICKNESS
 40
0.0
  9
$LIMCHECK
 70
     0
  9
$CHAMFERA
 40
0.5
  9
$CHAMFERB
 40
0.5
  9
$CHAMFERC
 40
1.0
  9
$CHAMFERD
 40
0.0
  9
$SKPOLY
 70
     0
  9
$TDCREATE
 40
2455924.534634005
  9
$TDUCREATE
 40
2455924.742967338
  9
$TDUPDATE
 40
2455924.53463419
  9
$TDUUPDATE
 40
2455924.742967523
  9
$TDINDWG
 40
0.0000000116
  9
$TDUSRTIMER
 40
0.0000000116
  9
$USRTIMER
 70
     1
  9
$ANGBASE
 50
0.0
  9
$ANGDIR
 70
     0
  9
$PDMODE
 70
     0
  9
$PDSIZE
 40
0.0
  9
$PLINEWID
 40
0.0
  9
$SPLFRAME
 70
     0
  9
$SPLINETYPE
 70
     6
  9
$SPLINESEGS
 70
     8
  9
$HANDSEED
  5
3921
  9
$SURFTAB1
 70
     6
  9
$SURFTAB2
 70
     6
  9
$SURFTYPE
 70
     6
  9
$SURFU
 70
     6
  9
$SURFV
 70
     6
  9
$UCSBASE
  2

  9
$UCSNAME
  2

  9
$UCSORG
 10
0.0
 20
0.0
 30
0.0
  9
$UCSXDIR
 10
1.0
 20
0.0
 30
0.0
  9
$UCSYDIR
 10
0.0
 20
1.0
 30
0.0
  9
$UCSORTHOREF
  2

  9
$UCSORTHOVIEW
 70
     0
  9
$UCSORGTOP
 10
0.0
 20
0.0
 30
0.0
  9
$UCSORGBOTTOM
 10
0.0
 20
0.0
 30
0.0
  9
$UCSORGLEFT
 10
0.0
 20
0.0
 30
0.0
  9
$UCSORGRIGHT
 10
0.0
 20
0.0
 30
0.0
  9
$UCSORGFRONT
 10
0.0
 20
0.0
 30
0.0
  9
$UCSORGBACK
 10
0.0
 20
0.0
 30
0.0
  9
$PUCSBASE
  2

  9
$PUCSNAME
  2

  9
$PUCSORG
 10
0.0
 20
0.0
 30
0.0
  9
$PUCSXDIR
 10
1.0
 20
0.0
 30
0.0
  9
$PUCSYDIR
 10
0.0
 20
1.0
 30
0.0
  9
$PUCSORTHOREF
  2

  9
$PUCSORTHOVIEW
 70
     0
  9
$PUCSORGTOP
 10
0.0
 20
0.0
 30
0.0
  9
$PUCSORGBOTTOM
 10
0.0
 20
0.0
 30
0.0
  9
$PUCSORGLEFT
 10
0.0
 20
0.0
 30
0.0
  9
$PUCSORGRIGHT
 10
0.0
 20
0.0
 30
0.0
  9
$PUCSORGFRONT
 10
0.0
 20
0.0
 30
0.0
  9
$PUCSORGBACK
 10
0.0
 20
0.0
 30
0.0
  9
$USERI1
 70
     0
  9
$USERI2
 70
     0
  9
$USERI3
 70
     0
  9
$USERI4
 70
     0
  9
$USERI5
 70
     0
  9
$USERR1
 40
0.0
  9
$USERR2
 40
0.0
  9
$USERR3
 40
0.0
  9
$USERR4
 40
0.0
  9
$USERR5
 40
0.0
  9
$WORLDVIEW
 70
     1
  9
$SHADEDGE
 70
     3
  9
$SHADEDIF
 70
    70
  9
$TILEMODE
 70
     1
  9
$MAXACTVP
 70
    64
  9
$PINSBASE
 10
0.0
 20
0.0
 30
0.0
  9
$PLIMCHECK
 70
     0
  9
$PEXTMIN
 10
1.000000000000000E+20
 20
1.000000000000000E+20
 30
1.000000000000000E+20
  9
$PEXTMAX
 10
-1.000000000000000E+20
 20
-1.000000000000000E+20
 30
-1.000000000000000E+20
  9
$PLIMMIN
 10
0.0
 20
0.0
  9
$PLIMMAX
 10
12.0
 20
9.0
  9
$UNITMODE
 70
     0
  9
$VISRETAIN
 70
     1
  9
$PLINEGEN
 70
     0
  9
$PSLTSCALE
 70
     1
  9
$TREEDEPTH
 70
  3020
  9
$CMLSTYLE
  2
Standard
  9
$CMLJUST
 70
     0
  9
$CMLSCALE
 40
1.0
  9
$PROXYGRAPHICS
 70
     1
  9
$MEASUREMENT
 70
     1
  9
$CELWEIGHT
370
    -1
  9
$ENDCAPS
280
     0
  9
$JOINSTYLE
280
     0
  9
$LWDISPLAY
290
     0
  9
$INSUNITS
 70
     0
  9
$HYPERLINKBASE
  1

  9
$STYLESHEET
  1

  9
$XEDIT
290
     1
  9
$CEPSNTYPE
380
     0
  9
$PSTYLEMODE
290
     1
  9
$FINGERPRINTGUID
  2
{8B38443A-3BD9-43F9-8E25-06769B6698E3}
  9
$VERSIONGUID
  2
{FAEB1C32-E019-11D5-929B-00C0DF256EC4}
  9
$EXTNAMES
290
     1
  9
$PSVPSCALE
 40
0.0
  9
$OLESTARTUP
290
     0
  9
$SORTENTS
280
   127
  9
$INDEXCTL
280
     0
  9
$HIDETEXT
280
     1
  9
$XCLIPFRAME
280
     2
  9
$HALOGAP
280
     0
  9
$OBSCOLOR
 70
   257
  9
$OBSLTYPE
280
     0
  9
$INTERSECTIONDISPLAY
280
     0
  9
$INTERSECTIONCOLOR
 70
   257
  9
$DIMASSOC
280
     2
  9
$PROJECTNAME
  1

  9
$CAMERADISPLAY
290
     0
  9
$LENSLENGTH
 40
50.0
  9
$CAMERAHEIGHT
 40
0.0
  9
$STEPSPERSEC
 40
2.0
  9
$STEPSIZE
 40
6.0
  9
$3DDWFPREC
 40
2.0
  9
$PSOLWIDTH
 40
0.25
  9
$PSOLHEIGHT
 40
4.0
  9
$LOFTANG1
 40
1.570796326794897
  9
$LOFTANG2
 40
1.570796326794897
  9
$LOFTMAG1
 40
0.0
  9
$LOFTMAG2
 40
0.0
  9
$LOFTPARAM
 70
     7
  9
$LOFTNORMALS
280
     1
  9
$LATITUDE
 40
37.795
  9
$LONGITUDE
 40
-122.394
  9
$NORTHDIRECTION
 40
0.0
  9
$TIMEZONE
 70
 -8000
  9
$LIGHTGLYPHDISPLAY
280
     1
  9
$TILEMODELIGHTSYNCH
280
     1
  9
$SOLIDHIST
280
     1
  9
$SHOWHIST
280
     1
  9
$DWFFRAME
280
     2
  9
$DGNFRAME
280
     2
  9
$REALWORLDSCALE
290
     1
  9
$INTERFERECOLOR
 62
   256
  9
$CSHADOW
280
     0
  9
$SHADOWPLANELOCATION
 40
0.0
  0
ENDSEC
  0
SECTION
  2
CLASSES
  0
CLASS
  1
ACDBDICTIONARYWDFLT
  2
AcDbDictionaryWithDefault
  3
ObjectDBX Classes
 90
        0
 91
        4
280
     0
281
     0
  0
CLASS
  1
VISUALSTYLE
  2
AcDbVisualStyle
  3
ObjectDBX Classes
 90
     4095
 91
        4
280
     0
281
     0
  0
CLASS
  1
MATERIAL
  2
AcDbMaterial
  3
ObjectDBX Classes
 90
     1153
 91
        4
280
     0
281
     0
  0
ENDSEC
  0
SECTION
  2
TABLES
  0
TABLE
  2
VPORT
  5
38BF
330
0
100
AcDbSymbolTable
 70
     1
  0
VPORT
  5
38DF
330
38BF
100
AcDbSymbolTableRecord
100
AcDbViewportTableRecord
  2
*Active
 70
     0
 10
0.0
 20
0.0
 11
1.0
 21
1.0
 12
10.42990654205607
 22
4.5
 13
0.0
 23
0.0
 14
0.5
 24
0.5
 15
0.5
 25
0.5
 16
0.0
 26
0.0
 36
1.0
 17
0.0
 27
0.0
 37
0.0
 40
9.0
 41
1.972972972850329
 42
50.0
 43
0.0
 44
0.0
 50
0.0
 51
0.0
 71
     0
 72
   100
 73
     1
 74
     3
 75
     0
 76
     0
 77
     0
 78
     0
281
     0
 65
     1
110
0.0
120
0.0
130
0.0
111
1.0
121
0.0
131
0.0
112
0.0
122
1.0
132
0.0
 79
     0
146
0.0
 60
     3
 61
     5
292
     1
282
     1
141
0.0
142
0.0
 63
   250
  0
ENDTAB
  0
TABLE
  2
LTYPE
  5
38BC
330
0
100
AcDbSymbolTable
 70
    19
  0
LTYPE
  5
38CA
330
38BC
100
AcDbSymbolTableRecord
100
AcDbLinetypeTableRecord
  2
ByBlock
 70
     0
  3

 72
    65
 73
     0
 40
0.0
  0
LTYPE
  5
38CB
330
38BC
100
AcDbSymbolTableRecord
100
AcDbLinetypeTableRecord
  2
ByLayer
 70
     0
  3

 72
    65
 73
     0
 40
0.0
  0
LTYPE
  5
38CC
330
38BC
100
AcDbSymbolTableRecord
100
AcDbLinetypeTableRecord
  2
Continuous
 70
     0
  3
Solid line
 72
    65
 73
     0
 40
0.0
  0
LTYPE
  5
390B
330
38BC
100
AcDbSymbolTableRecord
100
AcDbLinetypeTableRecord
  2
BORDER
 70
     0
  3

 72
    65
 73
     6
 40
42.00000000000001
 49
12.0
 74
     0
 49
-6.0
 74
     0
 49
12.0
 74
     0
 49
-5.95
 74
     0
 49
0.1
 74
     0
 49
-5.95
 74
     0
  0
LTYPE
  5
390C
330
38BC
100
AcDbSymbolTableRecord
100
AcDbLinetypeTableRecord
  2
BORDER2
 70
     0
  3

 72
    65
 73
     6
 40
21.0
 49
6.0
 74
     0
 49
-3.0
 74
     0
 49
6.0
 74
     0
 49
-2.95
 74
     0
 49
0.1
 74
     0
 49
-2.95
 74
     0
  0
LTYPE
  5
390D
330
38BC
100
AcDbSymbolTableRecord
100
AcDbLinetypeTableRecord
  2
BORDERX2
 70
     0
  3

 72
    65
 73
     6
 40
84.0
 49
24.0
 74
     0
 49
-12.0
 74
     0
 49
24.0
 74
     0
 49
-11.95
 74
     0
 49
0.1
 74
     0
 49
-11.95
 74
     0
  0
LTYPE
  5
390E
330
38BC
100
AcDbSymbolTableRecord
100
AcDbLinetypeTableRecord
  2
CENTER
 70
     0
  3

 72
    65
 73
     4
 40
50.0
 49
32.0
 74
     0
 49
-6.0
 74
     0
 49
6.0
 74
     0
 49
-6.0
 74
     0
  0
LTYPE
  5
390F
330
38BC
100
AcDbSymbolTableRecord
100
AcDbLinetypeTableRecord
  2
CENTER2
 70
     0
  3

 72
    65
 73
     4
 40
25.0
 49
16.0
 74
     0
 49
-3.0
 74
     0
 49
3.0
 74
     0
 49
-3.0
 74
     0
  0
LTYPE
  5
3910
330
38BC
100
AcDbSymbolTableRecord
100
AcDbLinetypeTableRecord
  2
CENTERX2
 70
     0
  3

 72
    65
 73
     4
 40
100.0
 49
64.0
 74
     0
 49
-12.0
 74
     0
 49
12.0
 74
     0
 49
-12.0
 74
     0
  0
LTYPE
  5
3911
330
38BC
100
AcDbSymbolTableRecord
100
AcDbLinetypeTableRecord
  2
DASHDOT
 70
     0
  3

 72
    65
 73
     4
 40
24.0
 49
12.0
 74
     0
 49
-5.95
 74
     0
 49
0.1
 74
     0
 49
-5.95
 74
     0
  0
LTYPE
  5
3912
330
38BC
100
AcDbSymbolTableRecord
100
AcDbLinetypeTableRecord
  2
DASHDOT2
 70
     0
  3

 72
    65
 73
     4
 40
12.0
 49
6.0
 74
     0
 49
-2.95
 74
     0
 49
0.1
 74
     0
 49
-2.95
 74
     0
  0
LTYPE
  5
3913
330
38BC
100
AcDbSymbolTableRecord
100
AcDbLinetypeTableRecord
  2
DASHDOTX2
 70
     0
  3

 72
    65
 73
     4
 40
48.0
 49
24.0
 74
     0
 49
-11.95
 74
     0
 49
0.1
 74
     0
 49
-11.95
 74
     0
  0
LTYPE
  5
3914
330
38BC
100
AcDbSymbolTableRecord
100
AcDbLinetypeTableRecord
  2
DASHED
 70
     0
  3

 72
    65
 73
     2
 40
18.0
 49
12.0
 74
     0
 49
-6.0
 74
     0
  0
LTYPE
  5
3915
330
38BC
100
AcDbSymbolTableRecord
100
AcDbLinetypeTableRecord
  2
DASHED2
 70
     0
  3

 72
    65
 73
     2
 40
9.0
 49
6.0
 74
     0
 49
-3.0
 74
     0
  0
LTYPE
  5
3916
330
38BC
100
AcDbSymbolTableRecord
100
AcDbLinetypeTableRecord
  2
DASHEDX2
 70
     0
  3

 72
    65
 73
     2
 40
36.0
 49
24.0
 74
     0
 49
-12.0
 74
     0
  0
LTYPE
  5
3917
330
38BC
100
AcDbSymbolTableRecord
100
AcDbLinetypeTableRecord
  2
DIVIDE
 70
     0
  3

 72
    65
 73
     6
 40
29.99999999999999
 49
12.0
 74
     0
 49
-5.9
 74
     0
 49
0.15
 74
     0
 49
-5.9
 74
     0
 49
0.15
 74
     0
 49
-5.9
 74
     0
  0
LTYPE
  5
3918
330
38BC
100
AcDbSymbolTableRecord
100
AcDbLinetypeTableRecord
  2
DIVIDE2
 70
     0
  3

 72
    65
 73
     6
 40
15.0
 49
6.0
 74
     0
 49
-2.9
 74
     0
 49
0.15
 74
     0
 49
-2.9
 74
     0
 49
0.15
 74
     0
 49
-2.9
 74
     0
  0
LTYPE
  5
3919
330
38BC
100
AcDbSymbolTableRecord
100
AcDbLinetypeTableRecord
  2
DIVIDEX2
 70
     0
  3

 72
    65
 73
     6
 40
59.99999999999999
 49
24.0
 74
     0
 49
-11.9
 74
     0
 49
0.15
 74
     0
 49
-11.9
 74
     0
 49
0.15
 74
     0
 49
-11.9
 74
     0
  0
LTYPE
  5
391A
330
38BC
100
AcDbSymbolTableRecord
100
AcDbLinetypeTableRecord
  2
DOT
 70
     0
  3

 72
    65
 73
     2
 40
6.3
 49
0.1
 74
     0
 49
-6.2
 74
     0
  0
LTYPE
  5
391B
330
38BC
100
AcDbSymbolTableRecord
100
AcDbLinetypeTableRecord
  2
DOT2
 70
     0
  3

 72
    65
 73
     2
 40
3.2
 49
0.1
 74
     0
 49
-3.1
 74
     0
  0
LTYPE
  5
391C
330
38BC
100
AcDbSymbolTableRecord
100
AcDbLinetypeTableRecord
  2
DOTX2
 70
     0
  3

 72
    65
 73
     2
 40
12.5
 49
0.1
 74
     0
 49
-12.4
 74
     0
  0
ENDTAB
  0
TABLE
  2
LAYER
  5
38B9
330
0
100
AcDbSymbolTable
 70
     3
  0
LAYER
  5
38C7
330
38B9
100
AcDbSymbolTableRecord
100
AcDbLayerTableRecord
  2
0
 70
     0
 62
     7
420
 16777215
  6
Continuous
370
    25
390
38C6
347
38F4
  0
LAYER
  5
391D
330
38B9
100
AcDbSymbolTableRecord
100
AcDbLayerTableRecord
  2
TEXT
 70
     0
 62
     5
420
      255
  6
Continuous
370
    -3
390
38C6
347
38F4
  0
LAYER
  5
391E
330
38B9
100
AcDbSymbolTableRecord
100
AcDbLayerTableRecord
  2
laser bed referance
 70
     0
 62
     3
420
    65280
  6
Continuous
370
    25
390
38C6
347
38F4
  0
ENDTAB
  0
TABLE
  2
STYLE
  5
38BA
330
0
100
AcDbSymbolTable
 70
     1
  0
STYLE
  5
38C8
330
38BA
100
AcDbSymbolTableRecord
100
AcDbTextStyleTableRecord
  2
Standard
 70
     0
 40
0.0
 41
1.0
 50
0.0
 71
     0
 42
0.2
  3
txt
  4

  0
ENDTAB
  0
TABLE
  2
VIEW
  5
38BD
330
0
100
AcDbSymbolTable
 70
     0
  0
ENDTAB
  0
TABLE
  2
UCS
  5
38BE
330
0
100
AcDbSymbolTable
 70
     0
  0
ENDTAB
  0
TABLE
  2
APPID
  5
38C0
330
0
100
AcDbSymbolTable
 70
     2
  0
APPID
  5
38C9
330
38C0
100
AcDbSymbolTableRecord
100
AcDbRegAppTableRecord
  2
ACAD
 70
     0
  0
APPID
  5
38F5
330
38C0
100
AcDbSymbolTableRecord
100
AcDbRegAppTableRecord
  2
QCAD
 70
     0
  0
ENDTAB
  0
TABLE
  2
DIMSTYLE
  5
38C1
330
0
100
AcDbSymbolTable
 70
     2
100
AcDbDimStyleTable
  0
DIMSTYLE
105
38DD
330
38C1
100
AcDbSymbolTableRecord
100
AcDbDimStyleTableRecord
  2
Standard
 70
     0
178
     0
340
38C8
  0
DIMSTYLE
105
390A
330
38C1
100
AcDbSymbolTableRecord
100
AcDbDimStyleTableRecord
  2
QCADDimStyle
 70
     0
 41
2.5
 42
0.625
 44
1.25
 73
     0
 77
     1
140
2.5
147
0.625
178
     0
340
38C8
  0
ENDTAB
  0
TABLE
  2
BLOCK_RECORD
  5
38B8
330
0
100
AcDbSymbolTable
 70
     1
  0
BLOCK_RECORD
  5
38D5
330
38B8
100
AcDbSymbolTableRecord
100
AcDbBlockTableRecord
  2
*Model_Space
340
38D8
 70
     0
280
     1
281
     0
  0
BLOCK_RECORD
  5
38D1
330
38B8
100
AcDbSymbolTableRecord
100
AcDbBlockTableRecord
  2
*Paper_Space
340
38D4
 70
     0
280
     1
281
     0
  0
BLOCK_RECORD
  5
38D9
330
38B8
100
AcDbSymbolTableRecord
100
AcDbBlockTableRecord
  2
*Paper_Space0
340
38DC
 70
     0
280
     1
281
     0
  0
ENDTAB
  0
ENDSEC
  0
SECTION
  2
BLOCKS
  0
BLOCK
  5
38D6
330
38D5
100
AcDbEntity
  8
0
100
AcDbBlockBegin
  2
*Model_Space
 70
     0
 10
0.0
 20
0.0
 30
0.0
  3
*Model_Space
  1

  0
ENDBLK
  5
38D7
330
38D5
100
AcDbEntity
  8
0
100
AcDbBlockEnd
  0
BLOCK
  5
38D2
330
38D1
100
AcDbEntity
 67
     1
  8
0
100
AcDbBlockBegin
  2
*Paper_Space
 70
     0
 10
0.0
 20
0.0
 30
0.0
  3
*Paper_Space
  1

  0
ENDBLK
  5
38D3
330
38D1
100
AcDbEntity
 67
     1
  8
0
100
AcDbBlockEnd
  0
BLOCK
  5
38DA
330
38D9
100
AcDbEntity
  8
0
100
AcDbBlockBegin
  2
*Paper_Space0
 70
     0
 10
0.0
 20
0.0
 30
0.0
  3
*Paper_Space0
  1

  0
ENDBLK
  5
38DB
330
38D9
100
AcDbEntity
  8
0
100
AcDbBlockEnd
  0
ENDSEC
  0
SECTION
  2
ENTITIES
  0
LWPOLYLINE
  5
79C
330
38D5
100
AcDbEntity
  8
TEXT
 62
     5
420
      255
370
    25
100
AcDbPolyline
 90
        2
 70
     0
 43
0.0
 10
497.6783700000001
 20
118.2566025
 10
497.6783700000001
 20
115.2967975
  0
LWPOLYLINE
  5
79D
330
38D5
100
AcDbEntity
  8
TEXT
 62
     5
420
      255
370
    25
100
AcDbPolyline
 90
        2
 70
     0
 43
0.0
 10
498.9247337500001
 20
115.26963375
 10
496.3483974999999
 20
115.2696337500001
  0
SPLINE
  5
79E
330
38D5
100
AcDbEntity
  8
TEXT
 62
     5
420
      255
370
    25
100
AcDbSpline
210
0.0
220
0.0
230
1.0
 70
     8
 71
     3
 72
     8
 73
     4
 74
     0
 42
0.000000001
 43
0.001
 12
1.0
 22
0.0
 32
0.0
 13
1.0
 23
0.0
 33
0.0
 40
0.0
 40
0.0
 40
0.0
 40
0.0
 40
1.0
 40
1.0
 40
1.0
 40
1.0
 10
506.89398375
 20
115.2696337500001
 30
0.0
 10
506.29637875
 20
115.26963375
 30
0.0
 10
506.0698950000001
 20
115.5543249999999
 30
0.0
 10
506.0698950000001
 20
116.085255
 30
0.0
  0
SPLINE
  5
79F
330
38D5
100
AcDbEntity
  8
TEXT
 62
     5
420
      255
370
    25
100
AcDbSpline
210
0.0
220
0.0
230
1.0
 70
     8
 71
     3
 72
     8
 73
     4
 74
     0
 42
0.000000001
 43
0.001
 12
1.0
 22
0.0
 32
0.0
 13
1.0
 23
0.0
 33
0.0
 40
0.0
 40
0.0
 40
0.0
 40
0.0
 40
1.0
 40
1.0
 40
1.0
 40
1.0
 10
506.0698950000001
 20
116.085255
 30
0.0
 10
506.0698950000001
 20
116.3699474999999
 30
0.0
 10
506.26215875
 20
116.76788
 30
0.0
 10
506.7810950000001
 20
116.796455
 30
0.0
  0
LWPOLYLINE
  5
7A0
330
38D5
100
AcDbEntity
  8
TEXT
 62
     5
420
      255
370
    25
100
AcDbPolyline
 90
        3
 70
     0
 43
0.0
 10
508.5375750000001
 20
118.2566025
 10
508.5375750000001
 20
115.26963375
 10
506.89398375
 20
115.2696337500001
  0
SPLINE
  5
7A1
330
38D5
100
AcDbEntity
  8
TEXT
 62
     5
420
      255
370
    25
100
AcDbSpline
210
0.0
220
0.0
230
1.0
 70
     8
 71
     3
 72
     8
 73
     4
 74
     0
 42
0.000000001
 43
0.001
 12
1.0
 22
0.0
 32
0.0
 13
1.0
 23
0.0
 33
0.0
 40
0.0
 40
0.0
 40
0.0
 40
0.0
 40
1.0
 40
1.0
 40
1.0
 40
1.0
 10
506.784975
 20
116.8045700000001
 30
0.0
 10
506.32530625
 20
116.8091550000001
 30
0.0
 10
506.124575
 20
117.02223375
 30
0.0
 10
506.124575
 20
117.43216125
 30
0.0
  0
SPLINE
  5
7A2
330
38D5
100
AcDbEntity
  8
TEXT
 62
     5
420
      255
370
    25
100
AcDbSpline
210
0.0
220
0.0
230
1.0
 70
     8
 71
     3
 72
     8
 73
     4
 74
     0
 42
0.000000001
 43
0.001
 12
1.0
 22
0.0
 32
0.0
 13
1.0
 23
0.0
 33
0.0
 40
0.0
 40
0.0
 40
0.0
 40
0.0
 40
1.0
 40
1.0
 40
1.0
 40
1.0
 10
506.124575
 20
117.43216125
 30
0.0
 10
506.124575
 20
117.5411699999999
 30
0.0
 10
506.11610875
 20
118.1352475
 30
0.0
 10
506.0575475000001
 20
118.25625
 30
0.0
  0
LWPOLYLINE
  5
7A3
330
38D5
100
AcDbEntity
  8
TEXT
 62
     5
420
      255
370
    25
100
AcDbPolyline
 90
        3
 70
     0
 43
0.0
 10
506.7810950000001
 20
116.796455
 10
506.784975
 20
116.8045700000001
 10
508.5375750000001
 20
116.80986125
  0
LWPOLYLINE
  5
7A4
330
38D5
100
AcDbEntity
  8
TEXT
 62
     5
420
      255
370
    25
100
AcDbPolyline
 90
        2
 70
     0
 43
0.0
 10
505.5710675
 20
115.26963375
 10
505.5710675
 20
118.2566025
  0
LWPOLYLINE
  5
7A5
330
38D5
100
AcDbEntity
  8
TEXT
 62
     5
420
      255
370
    25
100
AcDbPolyline
 90
        2
 70
     0
 43
0.0
 10
501.6880424999999
 20
118.2566025
 10
501.6880424999999
 20
115.26963375
  0
LWPOLYLINE
  5
7A6
330
38D5
100
AcDbEntity
  8
TEXT
 62
     5
420
      255
370
    25
100
AcDbPolyline
 90
        2
 70
     0
 43
0.0
 10
501.6880424999999
 20
116.6585199999999
 10
499.12828625
 20
116.65852
  0
SPLINE
  5
7A7
330
38D5
100
AcDbEntity
  8
TEXT
 62
     5
420
      255
370
    25
100
AcDbSpline
210
0.0
220
0.0
230
1.0
 70
     8
 71
     3
 72
     8
 73
     4
 74
     0
 42
0.000000001
 43
0.001
 12
1.0
 22
0.0
 32
0.0
 13
1.0
 23
0.0
 33
0.0
 40
0.0
 40
0.0
 40
0.0
 40
0.0
 40
1.0
 40
1.0
 40
1.0
 40
1.0
 10
502.1452425
 20
116.9216912500001
 30
0.0
 10
502.18898625
 20
117.268825
 30
0.0
 10
502.2489587499999
 20
117.4219300000001
 30
0.0
 10
502.2489587499999
 20
117.4219300000001
 30
0.0
  0
SPLINE
  5
7A8
330
38D5
100
AcDbEntity
  8
TEXT
 62
     5
420
      255
370
    25
100
AcDbSpline
210
0.0
220
0.0
230
1.0
 70
     8
 71
     3
 72
     8
 73
     4
 74
     0
 42
0.000000001
 43
0.001
 12
1.0
 22
0.0
 32
0.0
 13
1.0
 23
0.0
 33
0.0
 40
0.0
 40
0.0
 40
0.0
 40
0.0
 40
1.0
 40
1.0
 40
1.0
 40
1.0
 10
502.2489587499999
 20
117.4219300000001
 30
0.0
 10
502.45604
 20
118.10843625
 30
0.0
 10
503.0356537499999
 20
118.3896000000001
 30
0.0
 10
503.659365
 20
118.3896000000001
 30
0.0
  0
SPLINE
  5
7A9
330
38D5
100
AcDbEntity
  8
TEXT
 62
     5
420
      255
370
    25
100
AcDbSpline
210
0.0
220
0.0
230
1.0
 70
     8
 71
     3
 72
     8
 73
     4
 74
     0
 42
0.000000001
 43
0.001
 12
1.0
 22
0.0
 32
0.0
 13
1.0
 23
0.0
 33
0.0
 40
0.0
 40
0.0
 40
0.0
 40
0.0
 40
1.0
 40
1.0
 40
1.0
 40
1.0
 10
503.659365
 20
118.3896000000001
 30
0.0
 10
504.5127337500001
 20
118.3896000000001
 30
0.0
 10
505.20735375
 20
117.81668875
 30
0.0
 10
505.20735375
 20
116.8303224999999
 30
0.0
  0
SPLINE
  5
7AA
330
38D5
100
AcDbEntity
  8
TEXT
 62
     5
420
      255
370
    25
100
AcDbSpline
210
0.0
220
0.0
230
1.0
 70
     8
 71
     3
 72
     8
 73
     4
 74
     0
 42
0.000000001
 43
0.001
 12
1.0
 22
0.0
 32
0.0
 13
1.0
 23
0.0
 33
0.0
 40
0.0
 40
0.0
 40
0.0
 40
0.0
 40
1.0
 40
1.0
 40
1.0
 40
1.0
 10
505.20735375
 20
116.8303224999999
 30
0.0
 10
505.20735375
 20
115.8428975
 30
0.0
 10
504.5127337500001
 20
115.2692799999998
 30
0.0
 10
503.659365
 20
115.26928
 30
0.0
  0
SPLINE
  5
7AB
330
38D5
100
AcDbEntity
  8
TEXT
 62
     5
420
      255
370
    25
100
AcDbSpline
210
0.0
220
0.0
230
1.0
 70
     8
 71
     3
 72
     8
 73
     4
 74
     0
 42
0.000000001
 43
0.001
 12
1.0
 22
0.0
 32
0.0
 13
1.0
 23
0.0
 33
0.0
 40
0.0
 40
0.0
 40
0.0
 40
0.0
 40
1.0
 40
1.0
 40
1.0
 40
1.0
 10
503.659365
 20
115.26928
 30
0.0
 10
502.7266199999999
 20
115.26928
 30
0.0
 10
502.2976424999999
 20
115.6837950000001
 30
0.0
 10
502.18898625
 20
116.2605862499999
 30
0.0
  0
LWPOLYLINE
  5
7AC
330
38D5
100
AcDbEntity
  8
TEXT
 62
     5
420
      255
370
    25
100
AcDbPolyline
 90
        2
 70
     0
 43
0.0
 10
499.12828625
 20
115.26963375
 10
499.12828625
 20
118.2566025
  0
SPLINE
  5
7AD
330
38D5
100
AcDbEntity
  8
TEXT
 62
     5
420
      255
370
    25
100
AcDbSpline
210
0.0
220
0.0
230
1.0
 70
     8
 71
     3
 72
     8
 73
     4
 74
     0
 42
0.000000001
 43
0.001
 12
1.0
 22
0.0
 32
0.0
 13
1.0
 23
0.0
 33
0.0
 40
0.0
 40
0.0
 40
0.0
 40
0.0
 40
1.0
 40
1.0
 40
1.0
 40
1.0
 10
502.1364225
 20
123.68373625
 30
0.0
 10
502.22497
 20
124.4919500000001
 30
0.0
 10
502.9527499999999
 20
124.8979974999999
 30
0.0
 10
503.650545
 20
124.8979975000001
 30
0.0
  0
SPLINE
  5
7AE
330
38D5
100
AcDbEntity
  8
TEXT
 62
     5
420
      255
370
    25
100
AcDbSpline
210
0.0
220
0.0
230
1.0
 70
     8
 71
     3
 72
     8
 73
     4
 74
     0
 42
0.000000001
 43
0.001
 12
1.0
 22
0.0
 32
0.0
 13
1.0
 23
0.0
 33
0.0
 40
0.0
 40
0.0
 40
0.0
 40
0.0
 40
1.0
 40
1.0
 40
1.0
 40
1.0
 10
503.650545
 20
124.8979975000001
 30
0.0
 10
504.5141449999999
 20
124.8979975000001
 30
0.0
 10
505.2161725000001
 20
124.3183837499999
 30
0.0
 10
505.2161725000001
 20
123.3196700000001
 30
0.0
  0
SPLINE
  5
7AF
330
38D5
100
AcDbEntity
  8
TEXT
 62
     5
420
      255
370
    25
100
AcDbSpline
210
0.0
220
0.0
230
1.0
 70
     8
 71
     3
 72
     8
 73
     4
 74
     0
 42
0.000000001
 43
0.001
 12
1.0
 22
0.0
 32
0.0
 13
1.0
 23
0.0
 33
0.0
 40
0.0
 40
0.0
 40
0.0
 40
0.0
 40
1.0
 40
1.0
 40
1.0
 40
1.0
 10
505.2161725000001
 20
123.3196700000001
 30
0.0
 10
505.2161725000001
 20
122.3216612500001
 30
0.0
 10
504.5141449999999
 20
121.7420475
 30
0.0
 10
503.650545
 20
121.7420475
 30
0.0
  0
SPLINE
  5
7B0
330
38D5
100
AcDbEntity
  8
TEXT
 62
     5
420
      255
370
    25
100
AcDbSpline
210
0.0
220
0.0
230
1.0
 70
     8
 71
     3
 72
     8
 73
     4
 74
     0
 42
0.000000001
 43
0.001
 12
1.0
 22
0.0
 32
0.0
 13
1.0
 23
0.0
 33
0.0
 40
0.0
 40
0.0
 40
0.0
 40
0.0
 40
1.0
 40
1.0
 40
1.0
 40
1.0
 10
503.650545
 20
121.7420475
 30
0.0
 10
502.935465
 20
121.7420475
 30
0.0
 10
502.3685499999999
 20
122.0337949999999
 30
0.0
 10
502.2080362500001
 20
122.6892550000001
 30
0.0
  0
SPLINE
  5
7B1
330
38D5
100
AcDbEntity
  8
TEXT
 62
     5
420
      255
370
    25
100
AcDbSpline
210
0.0
220
0.0
230
1.0
 70
     8
 71
     3
 72
     8
 73
     4
 74
     0
 42
0.000000001
 43
0.001
 12
1.0
 22
0.0
 32
0.0
 13
1.0
 23
0.0
 33
0.0
 40
0.0
 40
0.0
 40
0.0
 40
0.0
 40
1.0
 40
1.0
 40
1.0
 40
1.0
 10
523.60436125
 20
123.68373625
 30
0.0
 10
523.69326125
 20
124.4919499999999
 30
0.0
 10
524.4206899999999
 20
124.8979974999999
 30
0.0
 10
525.11883625
 20
124.8979975000001
 30
0.0
  0
SPLINE
  5
7B2
330
38D5
100
AcDbEntity
  8
TEXT
 62
     5
420
      255
370
    25
100
AcDbSpline
210
0.0
220
0.0
230
1.0
 70
     8
 71
     3
 72
     8
 73
     4
 74
     0
 42
0.000000001
 43
0.001
 12
1.0
 22
0.0
 32
0.0
 13
1.0
 23
0.0
 33
0.0
 40
0.0
 40
0.0
 40
0.0
 40
0.0
 40
1.0
 40
1.0
 40
1.0
 40
1.0
 10
525.11883625
 20
124.8979975000001
 30
0.0
 10
525.9820837499999
 20
124.8979975000001
 30
0.0
 10
526.6841112499999
 20
124.3183837499999
 30
0.0
 10
526.6841112499999
 20
123.3196699999999
 30
0.0
  0
SPLINE
  5
7B3
330
38D5
100
AcDbEntity
  8
TEXT
 62
     5
420
      255
370
    25
100
AcDbSpline
210
0.0
220
0.0
230
1.0
 70
     8
 71
     3
 72
     8
 73
     4
 74
     0
 42
0.000000001
 43
0.001
 12
1.0
 22
0.0
 32
0.0
 13
1.0
 23
0.0
 33
0.0
 40
0.0
 40
0.0
 40
0.0
 40
0.0
 40
1.0
 40
1.0
 40
1.0
 40
1.0
 10
526.6841112499999
 20
123.3196699999999
 30
0.0
 10
526.6841112499999
 20
122.3216612500001
 30
0.0
 10
525.9820837499999
 20
121.7420475
 30
0.0
 10
525.11883625
 20
121.7420475
 30
0.0
  0
SPLINE
  5
7B4
330
38D5
100
AcDbEntity
  8
TEXT
 62
     5
420
      255
370
    25
100
AcDbSpline
210
0.0
220
0.0
230
1.0
 70
     8
 71
     3
 72
     8
 73
     4
 74
     0
 42
0.000000001
 43
0.001
 12
1.0
 22
0.0
 32
0.0
 13
1.0
 23
0.0
 33
0.0
 40
0.0
 40
0.0
 40
0.0
 40
0.0
 40
1.0
 40
1.0
 40
1.0
 40
1.0
 10
525.11883625
 20
121.7420475
 30
0.0
 10
524.40375625
 20
121.7420475
 30
0.0
 10
523.8364899999999
 20
122.0337949999998
 30
0.0
 10
523.6759749999999
 20
122.6892550000001
 30
0.0
  0
LWPOLYLINE
  5
7B5
330
38D5
100
AcDbEntity
  8
TEXT
 62
     5
420
      255
370
    25
100
AcDbPolyline
 90
        3
 70
     0
 43
0.0
 10
503.55070875
 20
116.9216912500001
 10
502.1452425
 20
116.9216912500001
 10
502.1452425
 20
118.3232775
  0
LWPOLYLINE
  5
7EB
330
38D5
100
AcDbEntity
  8
TEXT
 62
     5
420
      255
370
    25
100
AcDbPolyline
 90
        2
 70
     0
 43
0.0
 10
498.421806454852
 20
224.1212984440168
 10
498.421806454852
 20
227.1682409440168
  0
LWPOLYLINE
  5
7EC
330
38D5
100
AcDbEntity
  8
TEXT
 62
     5
420
      255
370
    25
100
AcDbPolyline
 90
        2
 70
     0
 43
0.0
 10
497.1003014548519
 20
227.1682409440168
 10
499.7288477048519
 20
227.1682409440168
  0
LWPOLYLINE
  5
7ED
330
38D5
100
AcDbEntity
  8
TEXT
 62
     5
420
      255
370
    25
100
AcDbPolyline
 90
        3
 70
     0
 43
0.0
 10
492.336390204852
 20
224.1212984440168
 10
490.198203954852
 20
224.1212984440168
 10
490.198203954852
 20
227.1682409440168
  0
LWPOLYLINE
  5
7EE
330
38D5
100
AcDbEntity
  8
TEXT
 62
     5
420
      255
370
    25
100
AcDbPolyline
 90
        3
 70
     0
 43
0.0
 10
495.2954902048521
 20
224.1212984440168
 10
495.2954902048521
 20
227.1682409440168
 10
497.433676454852
 20
227.1682409440168
  0
LWPOLYLINE
  5
7EF
330
38D5
100
AcDbEntity
  8
TEXT
 62
     5
420
      255
370
    25
100
AcDbPolyline
 90
        2
 70
     0
 43
0.0
 10
495.2954902048521
 20
225.7511321940169
 10
497.309497704852
 20
225.7511321940169
  0
LWPOLYLINE
  5
7F0
330
38D5
100
AcDbEntity
  8
TEXT
 62
     5
420
      255
370
    25
100
AcDbPolyline
 90
        2
 70
     0
 43
0.0
 10
492.629901454852
 20
225.7511321940169
 10
494.9042589548519
 20
225.7511321940169
  0
SPLINE
  5
7F1
330
38D5
100
AcDbEntity
  8
TEXT
 62
     5
420
      255
370
    25
100
AcDbSpline
210
0.0
220
0.0
230
1.0
 70
     8
 71
     3
 72
     8
 73
     4
 74
     0
 42
0.000000001
 43
0.001
 12
1.0
 22
0.0
 32
0.0
 13
1.0
 23
0.0
 33
0.0
 40
0.0
 40
0.0
 40
0.0
 40
0.0
 40
1.0
 40
1.0
 40
1.0
 40
1.0
 10
517.8323452048519
 20
218.4362846940167
 30
0.0
 10
517.7434452048519
 20
217.6280709440167
 30
0.0
 10
517.015665204852
 20
217.2227296940168
 30
0.0
 10
516.317517704852
 20
217.2227296940168
 30
0.0
  0
SPLINE
  5
7F2
330
38D5
100
AcDbEntity
  8
TEXT
 62
     5
420
      255
370
    25
100
AcDbSpline
210
0.0
220
0.0
230
1.0
 70
     8
 71
     3
 72
     8
 73
     4
 74
     0
 42
0.000000001
 43
0.001
 12
1.0
 22
0.0
 32
0.0
 13
1.0
 23
0.0
 33
0.0
 40
0.0
 40
0.0
 40
0.0
 40
0.0
 40
1.0
 40
1.0
 40
1.0
 40
1.0
 10
516.317517704852
 20
217.2227296940168
 30
0.0
 10
515.4539177048521
 20
217.2227296940168
 30
0.0
 10
514.7515364548519
 20
217.8019909440168
 30
0.0
 10
514.7515364548519
 20
218.8007046940168
 30
0.0
  0
SPLINE
  5
7F3
330
38D5
100
AcDbEntity
  8
TEXT
 62
     5
420
      255
370
    25
100
AcDbSpline
210
0.0
220
0.0
230
1.0
 70
     8
 71
     3
 72
     8
 73
     4
 74
     0
 42
0.000000001
 43
0.001
 12
1.0
 22
0.0
 32
0.0
 13
1.0
 23
0.0
 33
0.0
 40
0.0
 40
0.0
 40
0.0
 40
0.0
 40
1.0
 40
1.0
 40
1.0
 40
1.0
 10
514.7515364548519
 20
218.8007046940168
 30
0.0
 10
514.7515364548519
 20
219.7990659440167
 30
0.0
 10
515.4539177048521
 20
220.3783271940167
 30
0.0
 10
516.317517704852
 20
220.3783271940167
 30
0.0
  0
SPLINE
  5
7F4
330
38D5
100
AcDbEntity
  8
TEXT
 62
     5
420
      255
370
    25
100
AcDbSpline
210
0.0
220
0.0
230
1.0
 70
     8
 71
     3
 72
     8
 73
     4
 74
     0
 42
0.000000001
 43
0.001
 12
1.0
 22
0.0
 32
0.0
 13
1.0
 23
0.0
 33
0.0
 40
0.0
 40
0.0
 40
0.0
 40
0.0
 40
1.0
 40
1.0
 40
1.0
 40
1.0
 10
516.317517704852
 20
220.3783271940167
 30
0.0
 10
517.0325977048519
 20
220.3783271940167
 30
0.0
 10
517.600217704852
 20
220.0869321940167
 30
0.0
 10
517.760731454852
 20
219.4311184440167
 30
0.0
  0
SPLINE
  5
7F5
330
38D5
100
AcDbEntity
  8
TEXT
 62
     5
420
      255
370
    25
100
AcDbSpline
210
0.0
220
0.0
230
1.0
 70
     8
 71
     3
 72
     8
 73
     4
 74
     0
 42
0.000000001
 43
0.001
 12
1.0
 22
0.0
 32
0.0
 13
1.0
 23
0.0
 33
0.0
 40
0.0
 40
0.0
 40
0.0
 40
0.0
 40
1.0
 40
1.0
 40
1.0
 40
1.0
 10
498.043628954852
 20
218.4362846940167
 30
0.0
 10
497.954728954852
 20
217.6280709440167
 30
0.0
 10
497.2273014548521
 20
217.2227296940168
 30
0.0
 10
496.5291539548521
 20
217.2227296940168
 30
0.0
  0
SPLINE
  5
7F6
330
38D5
100
AcDbEntity
  8
TEXT
 62
     5
420
      255
370
    25
100
AcDbSpline
210
0.0
220
0.0
230
1.0
 70
     8
 71
     3
 72
     8
 73
     4
 74
     0
 42
0.000000001
 43
0.001
 12
1.0
 22
0.0
 32
0.0
 13
1.0
 23
0.0
 33
0.0
 40
0.0
 40
0.0
 40
0.0
 40
0.0
 40
1.0
 40
1.0
 40
1.0
 40
1.0
 10
496.5291539548521
 20
217.2227296940168
 30
0.0
 10
495.6659064548519
 20
217.2227296940168
 30
0.0
 10
494.9638789548519
 20
217.8019909440168
 30
0.0
 10
494.9638789548519
 20
218.8007046940168
 30
0.0
  0
SPLINE
  5
7F7
330
38D5
100
AcDbEntity
  8
TEXT
 62
     5
420
      255
370
    25
100
AcDbSpline
210
0.0
220
0.0
230
1.0
 70
     8
 71
     3
 72
     8
 73
     4
 74
     0
 42
0.000000001
 43
0.001
 12
1.0
 22
0.0
 32
0.0
 13
1.0
 23
0.0
 33
0.0
 40
0.0
 40
0.0
 40
0.0
 40
0.0
 40
1.0
 40
1.0
 40
1.0
 40
1.0
 10
494.9638789548519
 20
218.8007046940168
 30
0.0
 10
494.9638789548519
 20
219.7990659440167
 30
0.0
 10
495.6659064548519
 20
220.3783271940167
 30
0.0
 10
496.5291539548521
 20
220.3783271940167
 30
0.0
  0
SPLINE
  5
7F8
330
38D5
100
AcDbEntity
  8
TEXT
 62
     5
420
      255
370
    25
100
AcDbSpline
210
0.0
220
0.0
230
1.0
 70
     8
 71
     3
 72
     8
 73
     4
 74
     0
 42
0.000000001
 43
0.001
 12
1.0
 22
0.0
 32
0.0
 13
1.0
 23
0.0
 33
0.0
 40
0.0
 40
0.0
 40
0.0
 40
0.0
 40
1.0
 40
1.0
 40
1.0
 40
1.0
 10
496.5291539548521
 20
220.3783271940167
 30
0.0
 10
497.244586454852
 20
220.3783271940167
 30
0.0
 10
497.8115014548521
 20
220.0869321940167
 30
0.0
 10
497.9720152048519
 20
219.4311184440167
 30
0.0
  0
LWPOLYLINE
  5
7F9
330
38D5
100
AcDbEntity
  8
TEXT
 62
     5
420
      255
370
    25
100
AcDbPolyline
 90
        4
 70
     0
 43
0.0
 10
495.028083954852
 20
224.1212984440168
 10
492.629901454852
 20
224.1212984440168
 10
492.629901454852
 20
227.1682409440168
 10
495.0019789548519
 20
227.1682409440168
  0
SPLINE
  5
80F
330
38D5
100
AcDbEntity
  8
TEXT
 62
     5
420
      255
370
    25
100
AcDbSpline
210
0.0
220
0.0
230
1.0
 70
     8
 71
     3
 72
     8
 73
     4
 74
     0
 42
0.000000001
 43
0.001
 12
1.0
 22
0.0
 32
0.0
 13
1.0
 23
0.0
 33
0.0
 40
0.0
 40
0.0
 40
0.0
 40
0.0
 40
1.0
 40
1.0
 40
1.0
 40
1.0
 10
467.0049960351034
 20
87.21224957666277
 30
0.0
 10
466.3869297851036
 20
87.24188207666276
 30
0.0
 10
466.0024022851035
 20
87.50399582666284
 30
0.0
 10
466.0024022851035
 20
88.34184332666274
 30
0.0
  0
SPLINE
  5
810
330
38D5
100
AcDbEntity
  8
TEXT
 62
     5
420
      255
370
    25
100
AcDbSpline
210
0.0
220
0.0
230
1.0
 70
     8
 71
     3
 72
     8
 73
     4
 74
     0
 42
0.000000001
 43
0.001
 12
1.0
 22
0.0
 32
0.0
 13
1.0
 23
0.0
 33
0.0
 40
0.0
 40
0.0
 40
0.0
 40
0.0
 40
1.0
 40
1.0
 40
1.0
 40
1.0
 10
466.0024022851035
 20
88.34184332666274
 30
0.0
 10
466.0024022851035
 20
89.05269082666274
 30
0.0
 10
466.3237822851036
 20
89.36137082666284
 30
0.0
 10
466.7852160351035
 20
89.36137082666284
 30
0.0
  0
SPLINE
  5
811
330
38D5
100
AcDbEntity
  8
TEXT
 62
     5
420
      255
370
    25
100
AcDbSpline
210
0.0
220
0.0
230
1.0
 70
     8
 71
     3
 72
     8
 73
     4
 74
     0
 42
0.000000001
 43
0.001
 12
1.0
 22
0.0
 32
0.0
 13
1.0
 23
0.0
 33
0.0
 40
0.0
 40
0.0
 40
0.0
 40
0.0
 40
1.0
 40
1.0
 40
1.0
 40
1.0
 10
466.7852160351035
 20
89.36137082666284
 30
0.0
 10
467.0769635351035
 20
89.36137082666284
 30
0.0
 10
467.3986960351035
 20
89.19239082666274
 30
0.0
 10
467.4537297851034
 20
88.65934332666296
 30
0.0
  0
SPLINE
  5
812
330
38D5
100
AcDbEntity
  8
TEXT
 62
     5
420
      255
370
    25
100
AcDbSpline
210
0.0
220
0.0
230
1.0
 70
     8
 71
     3
 72
     8
 73
     4
 74
     0
 42
0.000000001
 43
0.001
 12
1.0
 22
0.0
 32
0.0
 13
1.0
 23
0.0
 33
0.0
 40
0.0
 40
0.0
 40
0.0
 40
0.0
 40
1.0
 40
1.0
 40
1.0
 40
1.0
 10
467.4618435351035
 20
88.65934332666296
 30
0.0
 10
467.5256960351035
 20
89.23437082666277
 30
0.0
 10
467.8597772851035
 20
89.42945707666286
 30
0.0
 10
468.2570047851034
 20
89.42945707666286
 30
0.0
  0
SPLINE
  5
813
330
38D5
100
AcDbEntity
  8
TEXT
 62
     5
420
      255
370
    25
100
AcDbSpline
210
0.0
220
0.0
230
1.0
 70
     8
 71
     3
 72
     8
 73
     4
 74
     0
 42
0.000000001
 43
0.001
 12
1.0
 22
0.0
 32
0.0
 13
1.0
 23
0.0
 33
0.0
 40
0.0
 40
0.0
 40
0.0
 40
0.0
 40
1.0
 40
1.0
 40
1.0
 40
1.0
 10
468.2570047851034
 20
89.42945707666286
 30
0.0
 10
468.5872047851035
 20
89.42945707666286
 30
0.0
 10
469.1163710351034
 20
89.21391082666287
 30
0.0
 10
469.1163710351034
 20
88.27446332666284
 30
0.0
  0
SPLINE
  5
814
330
38D5
100
AcDbEntity
  8
TEXT
 62
     5
420
      255
370
    25
100
AcDbSpline
210
0.0
220
0.0
230
1.0
 70
     8
 71
     3
 72
     8
 73
     4
 74
     0
 42
0.000000001
 43
0.001
 12
1.0
 22
0.0
 32
0.0
 13
1.0
 23
0.0
 33
0.0
 40
0.0
 40
0.0
 40
0.0
 40
0.0
 40
1.0
 40
1.0
 40
1.0
 40
1.0
 10
469.1163710351034
 20
88.27446332666284
 30
0.0
 10
469.1163710351034
 20
87.49588207666307
 30
0.0
 10
468.7269047851034
 20
87.12793582666274
 30
0.0
 10
468.1342385351036
 20
87.12793582666274
 30
0.0
  0
SPLINE
  5
815
330
38D5
100
AcDbEntity
  8
TEXT
 62
     5
420
      255
370
    25
100
AcDbSpline
210
0.0
220
0.0
230
1.0
 70
     8
 71
     3
 72
     8
 73
     4
 74
     0
 42
0.000000001
 43
0.001
 12
1.0
 22
0.0
 32
0.0
 13
1.0
 23
0.0
 33
0.0
 40
0.0
 40
0.0
 40
0.0
 40
0.0
 40
1.0
 40
1.0
 40
1.0
 40
1.0
 10
468.1342385351036
 20
87.12793582666274
 30
0.0
 10
468.1095435351035
 20
87.12793582666274
 30
0.0
 10
468.0753247851035
 20
87.13181582666277
 30
0.0
 10
468.0414572851034
 20
87.13181582666277
 30
0.0
  0
LWPOLYLINE
  5
816
330
38D5
100
AcDbEntity
  8
TEXT
 62
     5
420
      255
370
    25
100
AcDbPolyline
 90
        2
 70
     0
 43
0.0
 10
467.4537297851034
 20
88.65934332666296
 10
467.4618435351035
 20
88.65934332666296
  0
LWPOLYLINE
  5
817
330
38D5
100
AcDbEntity
  8
TEXT
 62
     5
420
      255
370
    25
100
AcDbPolyline
 90
        4
 70
     0
 43
0.0
 10
469.0701572851035
 20
90.50507707666276
 10
466.0489685351035
 20
91.89290457666283
 10
466.0489685351035
 20
92.00297082666276
 10
469.0701572851035
 20
93.39115207666276
  0
LWPOLYLINE
  5
81C
330
38D5
100
AcDbEntity
  8
TEXT
 62
     5
420
      255
370
    25
100
AcDbPolyline
 90
        2
 70
     0
 43
0.0
 10
468.0717960351035
 20
92.93148207666297
 10
468.0717960351035
 20
90.95592707666287
  0
SPLINE
  5
821
330
38D5
100
AcDbEntity
  8
TEXT
 62
     5
420
      255
370
    25
100
AcDbSpline
210
0.0
220
0.0
230
1.0
 70
     8
 71
     3
 72
     8
 73
     4
 74
     0
 42
0.000000001
 43
0.001
 12
1.0
 22
0.0
 32
0.0
 13
1.0
 23
0.0
 33
0.0
 40
0.0
 40
0.0
 40
0.0
 40
0.0
 40
1.0
 40
1.0
 40
1.0
 40
1.0
 10
451.0051135351034
 20
87.21224957666277
 30
0.0
 10
450.3870460351034
 20
87.24188207666276
 30
0.0
 10
450.0025185351035
 20
87.50399582666284
 30
0.0
 10
450.0025185351035
 20
88.34184332666274
 30
0.0
  0
SPLINE
  5
822
330
38D5
100
AcDbEntity
  8
TEXT
 62
     5
420
      255
370
    25
100
AcDbSpline
210
0.0
220
0.0
230
1.0
 70
     8
 71
     3
 72
     8
 73
     4
 74
     0
 42
0.000000001
 43
0.001
 12
1.0
 22
0.0
 32
0.0
 13
1.0
 23
0.0
 33
0.0
 40
0.0
 40
0.0
 40
0.0
 40
0.0
 40
1.0
 40
1.0
 40
1.0
 40
1.0
 10
450.0025185351035
 20
88.34184332666274
 30
0.0
 10
450.0025185351035
 20
89.05269082666274
 30
0.0
 10
450.3235460351034
 20
89.36137082666284
 30
0.0
 10
450.7853322851036
 20
89.36137082666284
 30
0.0
  0
SPLINE
  5
823
330
38D5
100
AcDbEntity
  8
TEXT
 62
     5
420
      255
370
    25
100
AcDbSpline
210
0.0
220
0.0
230
1.0
 70
     8
 71
     3
 72
     8
 73
     4
 74
     0
 42
0.000000001
 43
0.001
 12
1.0
 22
0.0
 32
0.0
 13
1.0
 23
0.0
 33
0.0
 40
0.0
 40
0.0
 40
0.0
 40
0.0
 40
1.0
 40
1.0
 40
1.0
 40
1.0
 10
450.7853322851036
 20
89.36137082666284
 30
0.0
 10
451.0767272851035
 20
89.36137082666284
 30
0.0
 10
451.3984610351035
 20
89.19239082666274
 30
0.0
 10
451.4538460351034
 20
88.65934332666296
 30
0.0
  0
SPLINE
  5
824
330
38D5
100
AcDbEntity
  8
TEXT
 62
     5
420
      255
370
    25
100
AcDbSpline
210
0.0
220
0.0
230
1.0
 70
     8
 71
     3
 72
     8
 73
     4
 74
     0
 42
0.000000001
 43
0.001
 12
1.0
 22
0.0
 32
0.0
 13
1.0
 23
0.0
 33
0.0
 40
0.0
 40
0.0
 40
0.0
 40
0.0
 40
1.0
 40
1.0
 40
1.0
 40
1.0
 10
451.4619610351035
 20
88.65934332666296
 30
0.0
 10
451.5254610351035
 20
89.23437082666277
 30
0.0
 10
451.8595410351036
 20
89.42945707666286
 30
0.0
 10
452.2571210351034
 20
89.42945707666286
 30
0.0
  0
SPLINE
  5
825
330
38D5
100
AcDbEntity
  8
TEXT
 62
     5
420
      255
370
    25
100
AcDbSpline
210
0.0
220
0.0
230
1.0
 70
     8
 71
     3
 72
     8
 73
     4
 74
     0
 42
0.000000001
 43
0.001
 12
1.0
 22
0.0
 32
0.0
 13
1.0
 23
0.0
 33
0.0
 40
0.0
 40
0.0
 40
0.0
 40
0.0
 40
1.0
 40
1.0
 40
1.0
 40
1.0
 10
452.2571210351034
 20
89.42945707666286
 30
0.0
 10
452.5869685351036
 20
89.42945707666286
 30
0.0
 10
453.1161360351034
 20
89.21391082666287
 30
0.0
 10
453.1161360351034
 20
88.27446332666284
 30
0.0
  0
SPLINE
  5
826
330
38D5
100
AcDbEntity
  8
TEXT
 62
     5
420
      255
370
    25
100
AcDbSpline
210
0.0
220
0.0
230
1.0
 70
     8
 71
     3
 72
     8
 73
     4
 74
     0
 42
0.000000001
 43
0.001
 12
1.0
 22
0.0
 32
0.0
 13
1.0
 23
0.0
 33
0.0
 40
0.0
 40
0.0
 40
0.0
 40
0.0
 40
1.0
 40
1.0
 40
1.0
 40
1.0
 10
453.1161360351034
 20
88.27446332666284
 30
0.0
 10
453.1161360351034
 20
87.49588207666307
 30
0.0
 10
452.7270210351035
 20
87.12793582666274
 30
0.0
 10
452.1343547851034
 20
87.12793582666274
 30
0.0
  0
SPLINE
  5
827
330
38D5
100
AcDbEntity
  8
TEXT
 62
     5
420
      255
370
    25
100
AcDbSpline
210
0.0
220
0.0
230
1.0
 70
     8
 71
     3
 72
     8
 73
     4
 74
     0
 42
0.000000001
 43
0.001
 12
1.0
 22
0.0
 32
0.0
 13
1.0
 23
0.0
 33
0.0
 40
0.0
 40
0.0
 40
0.0
 40
0.0
 40
1.0
 40
1.0
 40
1.0
 40
1.0
 10
452.1343547851034
 20
87.12793582666274
 30
0.0
 10
452.1096610351035
 20
87.12793582666274
 30
0.0
 10
452.0750885351035
 20
87.13181582666277
 30
0.0
 10
452.0412210351035
 20
87.13181582666277
 30
0.0
  0
LWPOLYLINE
  5
828
330
38D5
100
AcDbEntity
  8
TEXT
 62
     5
420
      255
370
    25
100
AcDbPolyline
 90
        2
 70
     0
 43
0.0
 10
451.4538460351034
 20
88.65934332666296
 10
451.4619610351035
 20
88.65934332666296
  0
LWPOLYLINE
  5
829
330
38D5
100
AcDbEntity
  8
TEXT
 62
     5
420
      255
370
    25
100
AcDbPolyline
 90
        4
 70
     0
 43
0.0
 10
453.0699210351036
 20
90.50507707666276
 10
450.0487322851034
 20
91.89290457666283
 10
450.0487322851034
 20
92.00297082666276
 10
453.0699210351036
 20
93.39115207666276
  0
LWPOLYLINE
  5
82E
330
38D5
100
AcDbEntity
  8
TEXT
 62
     5
420
      255
370
    25
100
AcDbPolyline
 90
        2
 70
     0
 43
0.0
 10
452.0715610351035
 20
92.93148207666297
 10
452.0715610351035
 20
90.95592707666287
  0
LWPOLYLINE
  5
857
330
38D5
100
AcDbEntity
  8
TEXT
 62
     5
420
      255
370
    25
100
AcDbPolyline
 90
        2
 70
     0
 43
0.0
 10
562.2101935351034
 20
95.64046332666277
 10
562.2101935351034
 20
98.68740457666297
  0
LWPOLYLINE
  5
858
330
38D5
100
AcDbEntity
  8
TEXT
 62
     5
420
      255
370
    25
100
AcDbPolyline
 90
        2
 70
     0
 43
0.0
 10
560.8883360351035
 20
98.68740457666297
 10
563.5168822851035
 20
98.68740457666297
  0
LWPOLYLINE
  5
859
330
38D5
100
AcDbEntity
  8
TEXT
 62
     5
420
      255
370
    25
100
AcDbPolyline
 90
        3
 70
     0
 43
0.0
 10
556.1247772851034
 20
95.64046332666277
 10
553.9865910351034
 20
95.64046332666277
 10
553.9865910351034
 20
98.68740457666297
  0
LWPOLYLINE
  5
85A
330
38D5
100
AcDbEntity
  8
TEXT
 62
     5
420
      255
370
    25
100
AcDbPolyline
 90
        3
 70
     0
 43
0.0
 10
559.0838772851034
 20
95.64046332666277
 10
559.0838772851034
 20
98.68740457666297
 10
561.2217110351035
 20
98.68740457666297
  0
LWPOLYLINE
  5
85B
330
38D5
100
AcDbEntity
  8
TEXT
 62
     5
420
      255
370
    25
100
AcDbPolyline
 90
        2
 70
     0
 43
0.0
 10
559.0838772851034
 20
97.27029582666285
 10
561.0978860351036
 20
97.27029582666285
  0
LWPOLYLINE
  5
85C
330
38D5
100
AcDbEntity
  8
TEXT
 62
     5
420
      255
370
    25
100
AcDbPolyline
 90
        2
 70
     0
 43
0.0
 10
556.4182885351036
 20
97.27029582666285
 10
558.6922935351035
 20
97.27029582666285
  0
LWPOLYLINE
  5
85D
330
38D5
100
AcDbEntity
  8
TEXT
 62
     5
420
      255
370
    25
100
AcDbPolyline
 90
        4
 70
     0
 43
0.0
 10
558.8164710351034
 20
95.64046332666277
 10
556.4182885351036
 20
95.64046332666277
 10
556.4182885351036
 20
98.68740457666297
 10
558.7903660351035
 20
98.68740457666297
  0
LWPOLYLINE
  5
85E
330
38D5
100
AcDbEntity
  8
TEXT
 62
     5
420
      255
370
    25
100
AcDbPolyline
 90
        4
 70
     0
 43
0.0
 10
419.5126410351033
 20
86.48235207666283
 10
420.9008210351033
 20
89.50318832666278
 10
421.0105360351033
 20
89.50318832666278
 10
422.3983635351035
 20
86.48235207666283
  0
LWPOLYLINE
  5
85F
330
38D5
100
AcDbEntity
  8
TEXT
 62
     5
420
      255
370
    25
100
AcDbPolyline
 90
        2
 70
     0
 43
0.0
 10
421.9390460351035
 20
87.48000707666284
 10
419.9641960351034
 20
87.48000707666284
  0
LWPOLYLINE
  5
860
330
38D5
100
AcDbEntity
  8
TEXT
 62
     5
420
      255
370
    25
100
AcDbPolyline
 90
        2
 70
     0
 43
0.0
 10
417.5275610351034
 20
88.14499332666287
 10
418.2133610351036
 20
88.14499332666287
  0
SPLINE
  5
861
330
38D5
100
AcDbEntity
  8
TEXT
 62
     5
420
      255
370
    25
100
AcDbSpline
210
0.0
220
0.0
230
1.0
 70
     8
 71
     3
 72
     8
 73
     4
 74
     0
 42
0.000000001
 43
0.001
 12
1.0
 22
0.0
 32
0.0
 13
1.0
 23
0.0
 33
0.0
 40
0.0
 40
0.0
 40
0.0
 40
0.0
 40
1.0
 40
1.0
 40
1.0
 40
1.0
 10
417.5275610351034
 20
88.15346082666287
 30
0.0
 10
416.9902797851034
 20
88.19085457666284
 30
0.0
 10
416.8339997851033
 20
88.55562707666274
 30
0.0
 10
416.8339997851033
 20
88.80504082666283
 30
0.0
  0
SPLINE
  5
862
330
38D5
100
AcDbEntity
  8
TEXT
 62
     5
420
      255
370
    25
100
AcDbSpline
210
0.0
220
0.0
230
1.0
 70
     8
 71
     3
 72
     8
 73
     4
 74
     0
 42
0.000000001
 43
0.001
 12
1.0
 22
0.0
 32
0.0
 13
1.0
 23
0.0
 33
0.0
 40
0.0
 40
0.0
 40
0.0
 40
0.0
 40
1.0
 40
1.0
 40
1.0
 40
1.0
 10
416.8339997851033
 20
88.80504082666283
 30
0.0
 10
416.8339997851033
 20
89.29575457666294
 30
0.0
 10
417.2019460351037
 20
89.54975457666285
 30
0.0
 10
417.8701072851034
 20
89.54975457666285
 30
0.0
  0
SPLINE
  5
863
330
38D5
100
AcDbEntity
  8
TEXT
 62
     5
420
      255
370
    25
100
AcDbSpline
210
0.0
220
0.0
230
1.0
 70
     8
 71
     3
 72
     8
 73
     4
 74
     0
 42
0.000000001
 43
0.001
 12
1.0
 22
0.0
 32
0.0
 13
1.0
 23
0.0
 33
0.0
 40
0.0
 40
0.0
 40
0.0
 40
0.0
 40
1.0
 40
1.0
 40
1.0
 40
1.0
 10
417.8701072851034
 20
89.54975457666285
 30
0.0
 10
418.5386210351037
 20
89.54975457666285
 30
0.0
 10
418.9072747851035
 20
89.29540207666298
 30
0.0
 10
418.9072747851035
 20
88.80504082666283
 30
0.0
  0
SPLINE
  5
864
330
38D5
100
AcDbEntity
  8
TEXT
 62
     5
420
      255
370
    25
100
AcDbSpline
210
0.0
220
0.0
230
1.0
 70
     8
 71
     3
 72
     8
 73
     4
 74
     0
 42
0.000000001
 43
0.001
 12
1.0
 22
0.0
 32
0.0
 13
1.0
 23
0.0
 33
0.0
 40
0.0
 40
0.0
 40
0.0
 40
0.0
 40
1.0
 40
1.0
 40
1.0
 40
1.0
 10
418.9072747851035
 20
88.80504082666283
 30
0.0
 10
418.9072747851035
 20
88.55562707666274
 30
0.0
 10
418.7499360351032
 20
88.19120707666286
 30
0.0
 10
418.2133610351036
 20
88.15346082666287
 30
0.0
  0
LWPOLYLINE
  5
865
330
38D5
100
AcDbEntity
  8
TEXT
 62
     5
420
      255
370
    25
100
AcDbPolyline
 90
        2
 70
     0
 43
0.0
 10
417.5275610351034
 20
88.14499332666287
 10
417.5275610351034
 20
88.15346082666287
  0
SPLINE
  5
866
330
38D5
100
AcDbEntity
  8
TEXT
 62
     5
420
      255
370
    25
100
AcDbSpline
210
0.0
220
0.0
230
1.0
 70
     8
 71
     3
 72
     8
 73
     4
 74
     0
 42
0.000000001
 43
0.001
 12
1.0
 22
0.0
 32
0.0
 13
1.0
 23
0.0
 33
0.0
 40
0.0
 40
0.0
 40
0.0
 40
0.0
 40
1.0
 40
1.0
 40
1.0
 40
1.0
 10
418.2133610351036
 20
88.14499332666287
 30
0.0
 10
418.8141410351034
 20
88.08572707666286
 30
0.0
 10
419.0635547851036
 20
87.76857957666277
 30
0.0
 10
419.0635547851036
 20
87.29056582666277
 30
0.0
  0
SPLINE
  5
867
330
38D5
100
AcDbEntity
  8
TEXT
 62
     5
420
      255
370
    25
100
AcDbSpline
210
0.0
220
0.0
230
1.0
 70
     8
 71
     3
 72
     8
 73
     4
 74
     0
 42
0.000000001
 43
0.001
 12
1.0
 22
0.0
 32
0.0
 13
1.0
 23
0.0
 33
0.0
 40
0.0
 40
0.0
 40
0.0
 40
0.0
 40
1.0
 40
1.0
 40
1.0
 40
1.0
 10
419.0635547851036
 20
87.29056582666277
 30
0.0
 10
419.0635547851036
 20
86.82948582666273
 30
0.0
 10
418.7672210351036
 20
86.43613832666284
 30
0.0
 10
417.8701072851034
 20
86.43613832666284
 30
0.0
  0
SPLINE
  5
868
330
38D5
100
AcDbEntity
  8
TEXT
 62
     5
420
      255
370
    25
100
AcDbSpline
210
0.0
220
0.0
230
1.0
 70
     8
 71
     3
 72
     8
 73
     4
 74
     0
 42
0.000000001
 43
0.001
 12
1.0
 22
0.0
 32
0.0
 13
1.0
 23
0.0
 33
0.0
 40
0.0
 40
0.0
 40
0.0
 40
0.0
 40
1.0
 40
1.0
 40
1.0
 40
1.0
 10
417.8701072851034
 20
86.43613832666284
 30
0.0
 10
416.9729935351036
 20
86.43613832666284
 30
0.0
 10
416.6773660351034
 20
86.82948582666273
 30
0.0
 10
416.6773660351034
 20
87.29056582666277
 30
0.0
  0
SPLINE
  5
869
330
38D5
100
AcDbEntity
  8
TEXT
 62
     5
420
      255
370
    25
100
AcDbSpline
210
0.0
220
0.0
230
1.0
 70
     8
 71
     3
 72
     8
 73
     4
 74
     0
 42
0.000000001
 43
0.001
 12
1.0
 22
0.0
 32
0.0
 13
1.0
 23
0.0
 33
0.0
 40
0.0
 40
0.0
 40
0.0
 40
0.0
 40
1.0
 40
1.0
 40
1.0
 40
1.0
 10
416.6773660351034
 20
87.29056582666277
 30
0.0
 10
416.6773660351034
 20
87.76857957666277
 30
0.0
 10
416.9267797851037
 20
88.08572707666286
 30
0.0
 10
417.5275610351034
 20
88.14499332666287
 30
0.0
  0
LWPOLYLINE
  5
86A
330
38D5
100
AcDbEntity
  8
TEXT
 62
     5
420
      255
370
    25
100
AcDbPolyline
 90
        2
 70
     0
 43
0.0
 10
418.2133610351036
 20
88.15346082666287
 10
418.2133610351036
 20
88.14499332666287
  0
LWPOLYLINE
  5
894
330
38D5
100
AcDbEntity
  8
TEXT
 62
     5
420
      255
370
    25
100
AcDbPolyline
 90
        3
 70
     0
 43
0.0
 10
558.2340360351034
 20
89.00047957666288
 10
558.2340360351034
 20
92.02202082666287
 10
560.3542297851034
 20
92.02202082666287
  0
LWPOLYLINE
  5
899
330
38D5
100
AcDbEntity
  8
TEXT
 62
     5
420
      255
370
    25
100
AcDbPolyline
 90
        2
 70
     0
 43
0.0
 10
558.2340360351034
 20
90.61690707666287
 10
560.2311110351034
 20
90.61690707666287
  0
LWPOLYLINE
  5
8BA
330
38D5
100
AcDbEntity
  8
TEXT
 62
     5
420
      255
370
    25
100
AcDbPolyline
 90
        2
 70
     0
 43
0.0
 10
371.9282110351035
 20
87.83172707666273
 10
370.2309960351033
 20
87.83525457666275
  0
SPLINE
  5
8BB
330
38D5
100
AcDbEntity
  8
TEXT
 62
     5
420
      255
370
    25
100
AcDbSpline
210
0.0
220
0.0
230
1.0
 70
     8
 71
     3
 72
     8
 73
     4
 74
     0
 42
0.000000001
 43
0.001
 12
1.0
 22
0.0
 32
0.0
 13
1.0
 23
0.0
 33
0.0
 40
0.0
 40
0.0
 40
0.0
 40
0.0
 40
1.0
 40
1.0
 40
1.0
 40
1.0
 10
371.7913322851034
 20
89.19979957666277
 30
0.0
 10
372.2460635351033
 20
89.19979957666277
 30
0.0
 10
372.5632110351037
 20
88.95426582666283
 30
0.0
 10
372.5632110351037
 20
88.48754082666284
 30
0.0
  0
SPLINE
  5
8BC
330
38D5
100
AcDbEntity
  8
TEXT
 62
     5
420
      255
370
    25
100
AcDbSpline
210
0.0
220
0.0
230
1.0
 70
     8
 71
     3
 72
     8
 73
     4
 74
     0
 42
0.000000001
 43
0.001
 12
1.0
 22
0.0
 32
0.0
 13
1.0
 23
0.0
 33
0.0
 40
0.0
 40
0.0
 40
0.0
 40
0.0
 40
1.0
 40
1.0
 40
1.0
 40
1.0
 10
372.5632110351037
 20
88.48754082666284
 30
0.0
 10
372.5632110351037
 20
88.14957957666286
 30
0.0
 10
372.2665247851035
 20
87.82784582666284
 30
0.0
 10
371.9282110351035
 20
87.83560707666277
 30
0.0
  0
LWPOLYLINE
  5
8BD
330
38D5
100
AcDbEntity
  8
TEXT
 62
     5
420
      255
370
    25
100
AcDbPolyline
 90
        2
 70
     0
 43
0.0
 10
370.2309960351033
 20
89.19979957666277
 10
371.7913322851034
 20
89.19979957666277
  0
SPLINE
  5
8BE
330
38D5
100
AcDbEntity
  8
TEXT
 62
     5
420
      255
370
    25
100
AcDbSpline
210
0.0
220
0.0
230
1.0
 70
     8
 71
     3
 72
     8
 73
     4
 74
     0
 42
0.000000001
 43
0.001
 12
1.0
 22
0.0
 32
0.0
 13
1.0
 23
0.0
 33
0.0
 40
0.0
 40
0.0
 40
0.0
 40
0.0
 40
1.0
 40
1.0
 40
1.0
 40
1.0
 10
371.9282110351035
 20
87.82784582666284
 30
0.0
 10
372.3018022851036
 20
87.81197082666273
 30
0.0
 10
372.6521110351034
 20
87.61124082666288
 30
0.0
 10
372.6521110351034
 20
87.10853207666287
 30
0.0
  0
SPLINE
  5
8BF
330
38D5
100
AcDbEntity
  8
TEXT
 62
     5
420
      255
370
    25
100
AcDbSpline
210
0.0
220
0.0
230
1.0
 70
     8
 71
     3
 72
     8
 73
     4
 74
     0
 42
0.000000001
 43
0.001
 12
1.0
 22
0.0
 32
0.0
 13
1.0
 23
0.0
 33
0.0
 40
0.0
 40
0.0
 40
0.0
 40
0.0
 40
1.0
 40
1.0
 40
1.0
 40
1.0
 10
372.6521110351034
 20
87.10853207666287
 30
0.0
 10
372.6521110351034
 20
86.77445207666278
 30
0.0
 10
372.4390322851034
 20
86.32783582666286
 30
0.0
 10
371.6869110351033
 20
86.32783582666286
 30
0.0
  0
LWPOLYLINE
  5
8C0
330
38D5
100
AcDbEntity
  8
TEXT
 62
     5
420
      255
370
    25
100
AcDbPolyline
 90
        2
 70
     0
 43
0.0
 10
371.9282110351035
 20
87.83560707666277
 10
371.9282110351035
 20
87.82784582666284
  0
LWPOLYLINE
  5
8C1
330
38D5
100
AcDbEntity
  8
TEXT
 62
     5
420
      255
370
    25
100
AcDbPolyline
 90
        4
 70
     0
 43
0.0
 10
371.6869110351033
 20
86.32783582666286
 10
370.2309960351033
 20
86.32783582666286
 10
370.2309960351033
 20
89.19979957666277
 10
370.2309960351033
 20
89.19979957666277
  0
LWPOLYLINE
  5
8C2
330
38D5
100
AcDbEntity
  8
TEXT
 62
     5
420
      255
370
    25
100
AcDbPolyline
 90
        2
 70
     0
 43
0.0
 10
368.1323210351036
 20
87.86771082666286
 10
368.8177685351036
 20
87.86771082666286
  0
SPLINE
  5
8C3
330
38D5
100
AcDbEntity
  8
TEXT
 62
     5
420
      255
370
    25
100
AcDbSpline
210
0.0
220
0.0
230
1.0
 70
     8
 71
     3
 72
     8
 73
     4
 74
     0
 42
0.000000001
 43
0.001
 12
1.0
 22
0.0
 32
0.0
 13
1.0
 23
0.0
 33
0.0
 40
0.0
 40
0.0
 40
0.0
 40
0.0
 40
1.0
 40
1.0
 40
1.0
 40
1.0
 10
368.1323210351036
 20
87.87688207666287
 30
0.0
 10
367.5946885351034
 20
87.91392457666296
 30
0.0
 10
367.4384072851033
 20
88.27799082666286
 30
0.0
 10
367.4384072851033
 20
88.52775707666297
 30
0.0
  0
SPLINE
  5
8C4
330
38D5
100
AcDbEntity
  8
TEXT
 62
     5
420
      255
370
    25
100
AcDbSpline
210
0.0
220
0.0
230
1.0
 70
     8
 71
     3
 72
     8
 73
     4
 74
     0
 42
0.000000001
 43
0.001
 12
1.0
 22
0.0
 32
0.0
 13
1.0
 23
0.0
 33
0.0
 40
0.0
 40
0.0
 40
0.0
 40
0.0
 40
1.0
 40
1.0
 40
1.0
 40
1.0
 10
367.4384072851033
 20
88.52775707666297
 30
0.0
 10
367.4384072851033
 20
89.01952957666288
 30
0.0
 10
367.8063547851036
 20
89.27282457666286
 30
0.0
 10
368.4741635351036
 20
89.27282457666286
 30
0.0
  0
SPLINE
  5
8C5
330
38D5
100
AcDbEntity
  8
TEXT
 62
     5
420
      255
370
    25
100
AcDbSpline
210
0.0
220
0.0
230
1.0
 70
     8
 71
     3
 72
     8
 73
     4
 74
     0
 42
0.000000001
 43
0.001
 12
1.0
 22
0.0
 32
0.0
 13
1.0
 23
0.0
 33
0.0
 40
0.0
 40
0.0
 40
0.0
 40
0.0
 40
1.0
 40
1.0
 40
1.0
 40
1.0
 10
368.4741635351036
 20
89.27282457666286
 30
0.0
 10
369.1430297851036
 20
89.27282457666286
 30
0.0
 10
369.5116822851035
 20
89.01917707666286
 30
0.0
 10
369.5116822851035
 20
88.52775707666297
 30
0.0
  0
SPLINE
  5
8C6
330
38D5
100
AcDbEntity
  8
TEXT
 62
     5
420
      255
370
    25
100
AcDbSpline
210
0.0
220
0.0
230
1.0
 70
     8
 71
     3
 72
     8
 73
     4
 74
     0
 42
0.000000001
 43
0.001
 12
1.0
 22
0.0
 32
0.0
 13
1.0
 23
0.0
 33
0.0
 40
0.0
 40
0.0
 40
0.0
 40
0.0
 40
1.0
 40
1.0
 40
1.0
 40
1.0
 10
369.5116822851035
 20
88.52775707666297
 30
0.0
 10
369.5116822851035
 20
88.27799082666286
 30
0.0
 10
369.3546960351034
 20
87.91427707666287
 30
0.0
 10
368.8177685351036
 20
87.87688207666287
 30
0.0
  0
LWPOLYLINE
  5
8C7
330
38D5
100
AcDbEntity
  8
TEXT
 62
     5
420
      255
370
    25
100
AcDbPolyline
 90
        2
 70
     0
 43
0.0
 10
368.1323210351036
 20
87.86771082666286
 10
368.1323210351036
 20
87.87688207666287
  0
SPLINE
  5
8C8
330
38D5
100
AcDbEntity
  8
TEXT
 62
     5
420
      255
370
    25
100
AcDbSpline
210
0.0
220
0.0
230
1.0
 70
     8
 71
     3
 72
     8
 73
     4
 74
     0
 42
0.000000001
 43
0.001
 12
1.0
 22
0.0
 32
0.0
 13
1.0
 23
0.0
 33
0.0
 40
0.0
 40
0.0
 40
0.0
 40
0.0
 40
1.0
 40
1.0
 40
1.0
 40
1.0
 10
368.8177685351036
 20
87.86771082666286
 30
0.0
 10
369.4185497851033
 20
87.80844332666288
 30
0.0
 10
369.6676110351034
 20
87.49164957666278
 30
0.0
 10
369.6676110351034
 20
87.01328207666273
 30
0.0
  0
SPLINE
  5
8C9
330
38D5
100
AcDbEntity
  8
TEXT
 62
     5
420
      255
370
    25
100
AcDbSpline
210
0.0
220
0.0
230
1.0
 70
     8
 71
     3
 72
     8
 73
     4
 74
     0
 42
0.000000001
 43
0.001
 12
1.0
 22
0.0
 32
0.0
 13
1.0
 23
0.0
 33
0.0
 40
0.0
 40
0.0
 40
0.0
 40
0.0
 40
1.0
 40
1.0
 40
1.0
 40
1.0
 10
369.6676110351034
 20
87.01328207666273
 30
0.0
 10
369.6676110351034
 20
86.55255457666277
 30
0.0
 10
369.3719822851033
 20
86.15920707666294
 30
0.0
 10
368.4741635351036
 20
86.15920707666294
 30
0.0
  0
SPLINE
  5
8CA
330
38D5
100
AcDbEntity
  8
TEXT
 62
     5
420
      255
370
    25
100
AcDbSpline
210
0.0
220
0.0
230
1.0
 70
     8
 71
     3
 72
     8
 73
     4
 74
     0
 42
0.000000001
 43
0.001
 12
1.0
 22
0.0
 32
0.0
 13
1.0
 23
0.0
 33
0.0
 40
0.0
 40
0.0
 40
0.0
 40
0.0
 40
1.0
 40
1.0
 40
1.0
 40
1.0
 10
368.4741635351036
 20
86.15920707666294
 30
0.0
 10
367.5777547851033
 20
86.15920707666294
 30
0.0
 10
367.2817747851034
 20
86.55255457666277
 30
0.0
 10
367.2817747851034
 20
87.01328207666273
 30
0.0
  0
SPLINE
  5
8CB
330
38D5
100
AcDbEntity
  8
TEXT
 62
     5
420
      255
370
    25
100
AcDbSpline
210
0.0
220
0.0
230
1.0
 70
     8
 71
     3
 72
     8
 73
     4
 74
     0
 42
0.000000001
 43
0.001
 12
1.0
 22
0.0
 32
0.0
 13
1.0
 23
0.0
 33
0.0
 40
0.0
 40
0.0
 40
0.0
 40
0.0
 40
1.0
 40
1.0
 40
1.0
 40
1.0
 10
367.2817747851034
 20
87.01328207666273
 30
0.0
 10
367.2817747851034
 20
87.49164957666278
 30
0.0
 10
367.5315410351034
 20
87.80844332666288
 30
0.0
 10
368.1323210351036
 20
87.86771082666286
 30
0.0
  0
LWPOLYLINE
  5
8CC
330
38D5
100
AcDbEntity
  8
TEXT
 62
     5
420
      255
370
    25
100
AcDbPolyline
 90
        2
 70
     0
 43
0.0
 10
368.8177685351036
 20
87.87688207666287
 10
368.8177685351036
 20
87.86771082666286
  0
LWPOLYLINE
  5
96D
330
38D5
100
AcDbEntity
  8
TEXT
 62
     5
420
      255
370
    25
100
AcDbPolyline
 90
        2
 70
     0
 43
0.0
 10
553.3935710351034
 20
42.38830457666273
 10
553.3935710351034
 20
39.54209332666278
  0
LWPOLYLINE
  5
96E
330
38D5
100
AcDbEntity
  8
TEXT
 62
     5
420
      255
370
    25
100
AcDbPolyline
 90
        2
 70
     0
 43
0.0
 10
554.5923110351034
 20
39.51634082666294
 10
552.1151047851035
 20
39.51634082666294
  0
SPLINE
  5
96F
330
38D5
100
AcDbEntity
  8
TEXT
 62
     5
420
      255
370
    25
100
AcDbSpline
210
0.0
220
0.0
230
1.0
 70
     8
 71
     3
 72
     8
 73
     4
 74
     0
 42
0.000000001
 43
0.001
 12
1.0
 22
0.0
 32
0.0
 13
1.0
 23
0.0
 33
0.0
 40
0.0
 40
0.0
 40
0.0
 40
0.0
 40
1.0
 40
1.0
 40
1.0
 40
1.0
 10
562.2553497851034
 20
39.51634082666294
 30
0.0
 10
561.6803210351034
 20
39.51634082666294
 30
0.0
 10
561.4626572851034
 20
39.78974332666274
 30
0.0
 10
561.4626572851034
 20
40.30127082666286
 30
0.0
  0
SPLINE
  5
970
330
38D5
100
AcDbEntity
  8
TEXT
 62
     5
420
      255
370
    25
100
AcDbSpline
210
0.0
220
0.0
230
1.0
 70
     8
 71
     3
 72
     8
 73
     4
 74
     0
 42
0.000000001
 43
0.001
 12
1.0
 22
0.0
 32
0.0
 13
1.0
 23
0.0
 33
0.0
 40
0.0
 40
0.0
 40
0.0
 40
0.0
 40
1.0
 40
1.0
 40
1.0
 40
1.0
 10
561.4626572851034
 20
40.30127082666286
 30
0.0
 10
561.4626572851034
 20
40.57396832666274
 30
0.0
 10
561.6478660351036
 20
40.95637957666275
 30
0.0
 10
562.1466935351034
 20
40.98495457666286
 30
0.0
  0
LWPOLYLINE
  5
971
330
38D5
100
AcDbEntity
  8
TEXT
 62
     5
420
      255
370
    25
100
AcDbPolyline
 90
        3
 70
     0
 43
0.0
 10
563.8354410351035
 20
42.38830457666273
 10
563.8354410351035
 20
39.51634082666294
 10
562.2553497851034
 20
39.51634082666294
  0
SPLINE
  5
972
330
38D5
100
AcDbEntity
  8
TEXT
 62
     5
420
      255
370
    25
100
AcDbSpline
210
0.0
220
0.0
230
1.0
 70
     8
 71
     3
 72
     8
 73
     4
 74
     0
 42
0.000000001
 43
0.001
 12
1.0
 22
0.0
 32
0.0
 13
1.0
 23
0.0
 33
0.0
 40
0.0
 40
0.0
 40
0.0
 40
0.0
 40
1.0
 40
1.0
 40
1.0
 40
1.0
 10
562.1502210351034
 20
40.99236332666277
 30
0.0
 10
561.7078385351035
 20
40.99659582666288
 30
0.0
 10
561.5152210351034
 20
41.20191332666275
 30
0.0
 10
561.5152210351034
 20
41.59596582666273
 30
0.0
  0
SPLINE
  5
973
330
38D5
100
AcDbEntity
  8
TEXT
 62
     5
420
      255
370
    25
100
AcDbSpline
210
0.0
220
0.0
230
1.0
 70
     8
 71
     3
 72
     8
 73
     4
 74
     0
 42
0.000000001
 43
0.001
 12
1.0
 22
0.0
 32
0.0
 13
1.0
 23
0.0
 33
0.0
 40
0.0
 40
0.0
 40
0.0
 40
0.0
 40
1.0
 40
1.0
 40
1.0
 40
1.0
 10
561.5152210351034
 20
41.59596582666273
 30
0.0
 10
561.5152210351034
 20
41.70074082666287
 30
0.0
 10
561.5071072851035
 20
42.27188832666286
 30
0.0
 10
561.4506635351036
 20
42.38830457666273
 30
0.0
  0
LWPOLYLINE
  5
974
330
38D5
100
AcDbEntity
  8
TEXT
 62
     5
420
      255
370
    25
100
AcDbPolyline
 90
        3
 70
     0
 43
0.0
 10
562.1466935351034
 20
40.98495457666286
 10
562.1502210351034
 20
40.99236332666277
 10
563.8354410351035
 20
40.99800707666287
  0
LWPOLYLINE
  5
975
330
38D5
100
AcDbEntity
  8
TEXT
 62
     5
420
      255
370
    25
100
AcDbPolyline
 90
        2
 70
     0
 43
0.0
 10
560.9828797851035
 20
39.51634082666294
 10
560.9828797851035
 20
42.38830457666273
  0
LWPOLYLINE
  5
976
330
38D5
100
AcDbEntity
  8
TEXT
 62
     5
420
      255
370
    25
100
AcDbPolyline
 90
        2
 70
     0
 43
0.0
 10
557.2490797851035
 20
42.38830457666273
 10
557.2490797851035
 20
39.51634082666294
  0
LWPOLYLINE
  5
977
330
38D5
100
AcDbEntity
  8
TEXT
 62
     5
420
      255
370
    25
100
AcDbPolyline
 90
        2
 70
     0
 43
0.0
 10
557.2490797851035
 20
40.85195707666287
 10
554.7877497851034
 20
40.85195707666287
  0
SPLINE
  5
978
330
38D5
100
AcDbEntity
  8
TEXT
 62
     5
420
      255
370
    25
100
AcDbSpline
210
0.0
220
0.0
230
1.0
 70
     8
 71
     3
 72
     8
 73
     4
 74
     0
 42
0.000000001
 43
0.001
 12
1.0
 22
0.0
 32
0.0
 13
1.0
 23
0.0
 33
0.0
 40
0.0
 40
0.0
 40
0.0
 40
0.0
 40
1.0
 40
1.0
 40
1.0
 40
1.0
 10
557.6886410351035
 20
41.10525207666296
 30
0.0
 10
557.7309747851034
 20
41.43933207666277
 30
0.0
 10
557.7888297851034
 20
41.58573582666287
 30
0.0
 10
557.7888297851034
 20
41.58573582666287
 30
0.0
  0
SPLINE
  5
979
330
38D5
100
AcDbEntity
  8
TEXT
 62
     5
420
      255
370
    25
100
AcDbSpline
210
0.0
220
0.0
230
1.0
 70
     8
 71
     3
 72
     8
 73
     4
 74
     0
 42
0.000000001
 43
0.001
 12
1.0
 22
0.0
 32
0.0
 13
1.0
 23
0.0
 33
0.0
 40
0.0
 40
0.0
 40
0.0
 40
0.0
 40
1.0
 40
1.0
 40
1.0
 40
1.0
 10
557.7888297851034
 20
41.58573582666287
 30
0.0
 10
557.9874435351035
 20
42.24613582666274
 30
0.0
 10
558.5451860351034
 20
42.51636332666277
 30
0.0
 10
559.1449072851035
 20
42.51636332666277
 30
0.0
  0
SPLINE
  5
97A
330
38D5
100
AcDbEntity
  8
TEXT
 62
     5
420
      255
370
    25
100
AcDbSpline
210
0.0
220
0.0
230
1.0
 70
     8
 71
     3
 72
     8
 73
     4
 74
     0
 42
0.000000001
 43
0.001
 12
1.0
 22
0.0
 32
0.0
 13
1.0
 23
0.0
 33
0.0
 40
0.0
 40
0.0
 40
0.0
 40
0.0
 40
1.0
 40
1.0
 40
1.0
 40
1.0
 10
559.1449072851035
 20
42.51636332666277
 30
0.0
 10
559.9654685351034
 20
42.51636332666277
 30
0.0
 10
560.6325710351034
 20
41.96567707666287
 30
0.0
 10
560.6325710351034
 20
41.01705707666287
 30
0.0
  0
SPLINE
  5
97B
330
38D5
100
AcDbEntity
  8
TEXT
 62
     5
420
      255
370
    25
100
AcDbSpline
210
0.0
220
0.0
230
1.0
 70
     8
 71
     3
 72
     8
 73
     4
 74
     0
 42
0.000000001
 43
0.001
 12
1.0
 22
0.0
 32
0.0
 13
1.0
 23
0.0
 33
0.0
 40
0.0
 40
0.0
 40
0.0
 40
0.0
 40
1.0
 40
1.0
 40
1.0
 40
1.0
 10
560.6325710351034
 20
41.01705707666287
 30
0.0
 10
560.6325710351034
 20
40.06773207666288
 30
0.0
 10
559.9654685351034
 20
39.51634082666294
 30
0.0
 10
559.1449072851035
 20
39.51634082666294
 30
0.0
  0
SPLINE
  5
97C
330
38D5
100
AcDbEntity
  8
TEXT
 62
     5
420
      255
370
    25
100
AcDbSpline
210
0.0
220
0.0
230
1.0
 70
     8
 71
     3
 72
     8
 73
     4
 74
     0
 42
0.000000001
 43
0.001
 12
1.0
 22
0.0
 32
0.0
 13
1.0
 23
0.0
 33
0.0
 40
0.0
 40
0.0
 40
0.0
 40
0.0
 40
1.0
 40
1.0
 40
1.0
 40
1.0
 10
559.1449072851035
 20
39.51634082666294
 30
0.0
 10
558.2477935351035
 20
39.51634082666294
 30
0.0
 10
557.8353960351035
 20
39.91462707666284
 30
0.0
 10
557.7309747851034
 20
40.46919332666283
 30
0.0
  0
LWPOLYLINE
  5
97D
330
38D5
100
AcDbEntity
  8
TEXT
 62
     5
420
      255
370
    25
100
AcDbPolyline
 90
        2
 70
     0
 43
0.0
 10
554.7877497851034
 20
39.51634082666294
 10
554.7877497851034
 20
42.38830457666273
  0
LWPOLYLINE
  5
97E
330
38D5
100
AcDbEntity
  8
TEXT
 62
     5
420
      255
370
    25
100
AcDbPolyline
 90
        3
 70
     0
 43
0.0
 10
559.0404860351034
 20
41.10525207666296
 10
557.6886410351035
 20
41.10525207666296
 10
557.6886410351035
 20
42.45215707666296
  0
LWPOLYLINE
  5
97F
330
38D5
100
AcDbEntity
  8
TEXT
 62
     5
420
      255
370
    25
100
AcDbPolyline
 90
        2
 70
     0
 43
0.0
 10
420.7300772851033
 20
42.36643207666287
 10
420.7300772851033
 20
39.36641082666284
  0
LWPOLYLINE
  5
980
330
38D5
100
AcDbEntity
  8
TEXT
 62
     5
420
      255
370
    25
100
AcDbPolyline
 90
        2
 70
     0
 43
0.0
 10
422.0318272851034
 20
39.36641082666284
 10
419.4431435351037
 20
39.36641082666284
  0
LWPOLYLINE
  5
981
330
38D5
100
AcDbEntity
  8
TEXT
 62
     5
420
      255
370
    25
100
AcDbPolyline
 90
        3
 70
     0
 43
0.0
 10
426.7223610351036
 20
42.36643207666287
 10
428.8273860351035
 20
42.36643207666287
 10
428.8273860351035
 20
39.36641082666284
  0
LWPOLYLINE
  5
982
330
38D5
100
AcDbEntity
  8
TEXT
 62
     5
420
      255
370
    25
100
AcDbPolyline
 90
        3
 70
     0
 43
0.0
 10
423.8087685351036
 20
42.36643207666287
 10
423.8087685351036
 20
39.36641082666284
 10
421.7037435351033
 20
39.36641082666284
  0
LWPOLYLINE
  5
983
330
38D5
100
AcDbEntity
  8
TEXT
 62
     5
420
      255
370
    25
100
AcDbPolyline
 90
        2
 70
     0
 43
0.0
 10
423.8087685351036
 20
40.76164582666286
 10
421.8254522851037
 20
40.76164582666286
  0
LWPOLYLINE
  5
984
330
38D5
100
AcDbEntity
  8
TEXT
 62
     5
420
      255
370
    25
100
AcDbPolyline
 90
        2
 70
     0
 43
0.0
 10
426.4337885351035
 20
40.76164582666286
 10
424.1936497851036
 20
40.76164582666286
  0
LWPOLYLINE
  5
985
330
38D5
100
AcDbEntity
  8
TEXT
 62
     5
420
      255
370
    25
100
AcDbPolyline
 90
        4
 70
     0
 43
0.0
 10
424.0726460351036
 20
42.36643207666287
 10
426.4337885351035
 20
42.36643207666287
 10
426.4337885351035
 20
39.36641082666284
 10
424.0973410351037
 20
39.36641082666284
  0
LWPOLYLINE
  5
986
330
38D5
100
AcDbEntity
  8
TEXT
 62
     5
420
      255
370
    25
100
AcDbPolyline
 90
        2
 70
     0
 43
0.0
 10
447.4882710351035
 20
42.51706832666287
 10
447.4882710351035
 20
39.51704582666287
  0
LWPOLYLINE
  5
987
330
38D5
100
AcDbEntity
  8
TEXT
 62
     5
420
      255
370
    25
100
AcDbPolyline
 90
        2
 70
     0
 43
0.0
 10
448.7896685351034
 20
39.51704582666287
 10
446.2013385351036
 20
39.51704582666287
  0
LWPOLYLINE
  5
988
330
38D5
100
AcDbEntity
  8
TEXT
 62
     5
420
      255
370
    25
100
AcDbPolyline
 90
        3
 70
     0
 43
0.0
 10
453.4802022851034
 20
42.51706832666287
 10
455.5855797851034
 20
42.51706832666287
 10
455.5855797851034
 20
39.51704582666287
  0
LWPOLYLINE
  5
989
330
38D5
100
AcDbEntity
  8
TEXT
 62
     5
420
      255
370
    25
100
AcDbPolyline
 90
        3
 70
     0
 43
0.0
 10
450.5666110351035
 20
42.51706832666287
 10
450.5666110351035
 20
39.51704582666287
 10
448.4615860351034
 20
39.51704582666287
  0
LWPOLYLINE
  5
98A
330
38D5
100
AcDbEntity
  8
TEXT
 62
     5
420
      255
370
    25
100
AcDbPolyline
 90
        2
 70
     0
 43
0.0
 10
450.5666110351035
 20
40.91228207666285
 10
448.5836460351034
 20
40.91228207666285
  0
LWPOLYLINE
  5
98B
330
38D5
100
AcDbEntity
  8
TEXT
 62
     5
420
      255
370
    25
100
AcDbPolyline
 90
        2
 70
     0
 43
0.0
 10
453.1916297851035
 20
40.91228207666285
 10
450.9518435351035
 20
40.91228207666285
  0
LWPOLYLINE
  5
98C
330
38D5
100
AcDbEntity
  8
TEXT
 62
     5
420
      255
370
    25
100
AcDbPolyline
 90
        4
 70
     0
 43
0.0
 10
450.8301360351034
 20
42.51706832666287
 10
453.1916297851035
 20
42.51706832666287
 10
453.1916297851035
 20
39.51704582666287
 10
450.8551822851034
 20
39.51704582666287
  0
LWPOLYLINE
  5
98D
330
38D5
100
AcDbEntity
  8
TEXT
 62
     5
420
      255
370
    25
100
AcDbPolyline
 90
        2
 70
     0
 43
0.0
 10
374.0963822851033
 20
39.42673582666276
 10
374.0963822851033
 20
42.29869957666278
  0
LWPOLYLINE
  5
98E
330
38D5
100
AcDbEntity
  8
TEXT
 62
     5
420
      255
370
    25
100
AcDbPolyline
 90
        2
 70
     0
 43
0.0
 10
372.8507247851032
 20
42.29869957666278
 10
375.3279297851034
 20
42.29869957666278
  0
SPLINE
  5
98F
330
38D5
100
AcDbEntity
  8
TEXT
 62
     5
420
      255
370
    25
100
AcDbSpline
210
0.0
220
0.0
230
1.0
 70
     8
 71
     3
 72
     8
 73
     4
 74
     0
 42
0.000000001
 43
0.001
 12
1.0
 22
0.0
 32
0.0
 13
1.0
 23
0.0
 33
0.0
 40
0.0
 40
0.0
 40
0.0
 40
0.0
 40
1.0
 40
1.0
 40
1.0
 40
1.0
 10
365.8315047851036
 20
42.29905207666286
 30
0.0
 10
366.4058272851037
 20
42.29905207666286
 30
0.0
 10
366.6234910351034
 20
42.02529582666284
 30
0.0
 10
366.6234910351034
 20
41.51412082666286
 30
0.0
  0
SPLINE
  5
990
330
38D5
100
AcDbEntity
  8
TEXT
 62
     5
420
      255
370
    25
100
AcDbSpline
210
0.0
220
0.0
230
1.0
 70
     8
 71
     3
 72
     8
 73
     4
 74
     0
 42
0.000000001
 43
0.001
 12
1.0
 22
0.0
 32
0.0
 13
1.0
 23
0.0
 33
0.0
 40
0.0
 40
0.0
 40
0.0
 40
0.0
 40
1.0
 40
1.0
 40
1.0
 40
1.0
 10
366.6234910351034
 20
41.51412082666286
 30
0.0
 10
366.6234910351034
 20
41.24071832666283
 30
0.0
 10
366.4382822851032
 20
40.85830707666287
 30
0.0
 10
365.9394547851036
 20
40.83008582666287
 30
0.0
  0
LWPOLYLINE
  5
991
330
38D5
100
AcDbEntity
  8
TEXT
 62
     5
420
      255
370
    25
100
AcDbPolyline
 90
        3
 70
     0
 43
0.0
 10
364.2507072851033
 20
39.42708832666278
 10
364.2507072851033
 20
42.29905207666286
 10
365.8315047851036
 20
42.29905207666286
  0
SPLINE
  5
992
330
38D5
100
AcDbEntity
  8
TEXT
 62
     5
420
      255
370
    25
100
AcDbSpline
210
0.0
220
0.0
230
1.0
 70
     8
 71
     3
 72
     8
 73
     4
 74
     0
 42
0.000000001
 43
0.001
 12
1.0
 22
0.0
 32
0.0
 13
1.0
 23
0.0
 33
0.0
 40
0.0
 40
0.0
 40
0.0
 40
0.0
 40
1.0
 40
1.0
 40
1.0
 40
1.0
 10
365.9359272851036
 20
40.82267707666284
 30
0.0
 10
366.3783110351035
 20
40.81844332666293
 30
0.0
 10
366.5712797851036
 20
40.61418582666295
 30
0.0
 10
366.5712797851036
 20
40.21907457666276
 30
0.0
  0
SPLINE
  5
993
330
38D5
100
AcDbEntity
  8
TEXT
 62
     5
420
      255
370
    25
100
AcDbSpline
210
0.0
220
0.0
230
1.0
 70
     8
 71
     3
 72
     8
 73
     4
 74
     0
 42
0.000000001
 43
0.001
 12
1.0
 22
0.0
 32
0.0
 13
1.0
 23
0.0
 33
0.0
 40
0.0
 40
0.0
 40
0.0
 40
0.0
 40
1.0
 40
1.0
 40
1.0
 40
1.0
 10
366.5712797851036
 20
40.21907457666276
 30
0.0
 10
366.5712797851036
 20
40.11465207666288
 30
0.0
 10
366.5793935351037
 20
39.54385707666285
 30
0.0
 10
366.6354860351037
 20
39.42744082666275
 30
0.0
  0
LWPOLYLINE
  5
994
330
38D5
100
AcDbEntity
  8
TEXT
 62
     5
420
      255
370
    25
100
AcDbPolyline
 90
        2
 70
     0
 43
0.0
 10
365.9394547851036
 20
40.83008582666287
 10
365.9359272851036
 20
40.82267707666284
  0
SPLINE
  5
995
330
38D5
100
AcDbEntity
  8
TEXT
 62
     5
420
      255
370
    25
100
AcDbSpline
210
0.0
220
0.0
230
1.0
 70
     8
 71
     3
 72
     8
 73
     4
 74
     0
 42
0.000000001
 43
0.001
 12
1.0
 22
0.0
 32
0.0
 13
1.0
 23
0.0
 33
0.0
 40
0.0
 40
0.0
 40
0.0
 40
0.0
 40
1.0
 40
1.0
 40
1.0
 40
1.0
 10
368.3990210351033
 20
42.36219957666287
 30
0.0
 10
369.2195822851033
 20
42.36219957666287
 30
0.0
 10
369.8873910351033
 20
41.81151332666286
 30
0.0
 10
369.8873910351033
 20
40.86218832666287
 30
0.0
  0
SPLINE
  5
996
330
38D5
100
AcDbEntity
  8
TEXT
 62
     5
420
      255
370
    25
100
AcDbSpline
210
0.0
220
0.0
230
1.0
 70
     8
 71
     3
 72
     8
 73
     4
 74
     0
 42
0.000000001
 43
0.001
 12
1.0
 22
0.0
 32
0.0
 13
1.0
 23
0.0
 33
0.0
 40
0.0
 40
0.0
 40
0.0
 40
0.0
 40
1.0
 40
1.0
 40
1.0
 40
1.0
 10
369.8873910351033
 20
40.86218832666287
 30
0.0
 10
369.8873910351033
 20
39.91356832666276
 30
0.0
 10
369.2195822851033
 20
39.36217707666287
 30
0.0
 10
368.3990210351033
 20
39.36217707666287
 30
0.0
  0
SPLINE
  5
997
330
38D5
100
AcDbEntity
  8
TEXT
 62
     5
420
      255
370
    25
100
AcDbSpline
210
0.0
220
0.0
230
1.0
 70
     8
 71
     3
 72
     8
 73
     4
 74
     0
 42
0.000000001
 43
0.001
 12
1.0
 22
0.0
 32
0.0
 13
1.0
 23
0.0
 33
0.0
 40
0.0
 40
0.0
 40
0.0
 40
0.0
 40
1.0
 40
1.0
 40
1.0
 40
1.0
 10
368.3990210351033
 20
39.36217707666287
 30
0.0
 10
367.5784610351036
 20
39.36217707666287
 30
0.0
 10
366.9110047851034
 20
39.91321582666296
 30
0.0
 10
366.9110047851034
 20
40.86218832666287
 30
0.0
  0
SPLINE
  5
998
330
38D5
100
AcDbEntity
  8
TEXT
 62
     5
420
      255
370
    25
100
AcDbSpline
210
0.0
220
0.0
230
1.0
 70
     8
 71
     3
 72
     8
 73
     4
 74
     0
 42
0.000000001
 43
0.001
 12
1.0
 22
0.0
 32
0.0
 13
1.0
 23
0.0
 33
0.0
 40
0.0
 40
0.0
 40
0.0
 40
0.0
 40
1.0
 40
1.0
 40
1.0
 40
1.0
 10
366.9110047851034
 20
40.86218832666287
 30
0.0
 10
366.9110047851034
 20
41.81151332666286
 30
0.0
 10
367.5784610351036
 20
42.36219957666287
 30
0.0
 10
368.3990210351033
 20
42.36219957666287
 30
0.0
  0
LWPOLYLINE
  5
999
330
38D5
100
AcDbEntity
  8
TEXT
 62
     5
420
      255
370
    25
100
AcDbPolyline
 90
        2
 70
     0
 43
0.0
 10
365.9359272851036
 20
40.82232457666277
 10
364.2507072851033
 20
40.81667957666286
  0
LWPOLYLINE
  5
99A
330
38D5
100
AcDbEntity
  8
TEXT
 62
     5
420
      255
370
    25
100
AcDbPolyline
 90
        6
 70
     0
 43
0.0
 10
370.2249997851034
 20
39.42708832666278
 10
370.2249997851034
 20
42.29905207666286
 10
370.3297747851036
 20
42.29905207666286
 10
372.5917860351035
 20
39.42708832666278
 10
372.6859772851033
 20
39.42708832666278
 10
372.6859772851033
 20
42.29905207666286
  0
LWPOLYLINE
  5
99B
330
38D5
100
AcDbEntity
  8
TEXT
 62
     5
420
      255
370
    25
100
AcDbPolyline
 90
        3
 70
     0
 43
0.0
 10
362.0232685351036
 20
39.42708832666278
 10
362.0232685351036
 20
42.29905207666286
 10
364.0383360351036
 20
42.29905207666286
  0
LWPOLYLINE
  5
99C
330
38D5
100
AcDbEntity
  8
TEXT
 62
     5
420
      255
370
    25
100
AcDbPolyline
 90
        2
 70
     0
 43
0.0
 10
362.0232685351036
 20
40.96272957666287
 10
363.9215660351035
 20
40.96272957666287
  0
LWPOLYLINE
  5
99D
330
38D5
100
AcDbEntity
  8
TEXT
 62
     5
420
      255
370
    25
100
AcDbPolyline
 90
        2
 70
     0
 43
0.0
 10
401.0613047851036
 20
39.42708832666278
 10
401.0613047851036
 20
42.29905207666286
  0
LWPOLYLINE
  5
99E
330
38D5
100
AcDbEntity
  8
TEXT
 62
     5
420
      255
370
    25
100
AcDbPolyline
 90
        2
 70
     0
 43
0.0
 10
399.8156460351036
 20
42.29905207666286
 10
402.2928522851037
 20
42.29905207666286
  0
SPLINE
  5
99F
330
38D5
100
AcDbEntity
  8
TEXT
 62
     5
420
      255
370
    25
100
AcDbSpline
210
0.0
220
0.0
230
1.0
 70
     8
 71
     3
 72
     8
 73
     4
 74
     0
 42
0.000000001
 43
0.001
 12
1.0
 22
0.0
 32
0.0
 13
1.0
 23
0.0
 33
0.0
 40
0.0
 40
0.0
 40
0.0
 40
0.0
 40
1.0
 40
1.0
 40
1.0
 40
1.0
 10
392.7957210351035
 20
42.29940457666277
 30
0.0
 10
393.3703960351033
 20
42.29940457666277
 30
0.0
 10
393.5880610351035
 20
42.02564957666283
 30
0.0
 10
393.5880610351035
 20
41.51447457666274
 30
0.0
  0
SPLINE
  5
9A0
330
38D5
100
AcDbEntity
  8
TEXT
 62
     5
420
      255
370
    25
100
AcDbSpline
210
0.0
220
0.0
230
1.0
 70
     8
 71
     3
 72
     8
 73
     4
 74
     0
 42
0.000000001
 43
0.001
 12
1.0
 22
0.0
 32
0.0
 13
1.0
 23
0.0
 33
0.0
 40
0.0
 40
0.0
 40
0.0
 40
0.0
 40
1.0
 40
1.0
 40
1.0
 40
1.0
 10
393.5880610351035
 20
41.51447457666274
 30
0.0
 10
393.5880610351035
 20
41.24107082666285
 30
0.0
 10
393.4028522851033
 20
40.85866082666286
 30
0.0
 10
392.9040247851033
 20
40.83043832666294
 30
0.0
  0
LWPOLYLINE
  5
9A1
330
38D5
100
AcDbEntity
  8
TEXT
 62
     5
420
      255
370
    25
100
AcDbPolyline
 90
        3
 70
     0
 43
0.0
 10
391.2152772851034
 20
39.42744082666275
 10
391.2152772851034
 20
42.29940457666277
 10
392.7957210351035
 20
42.29940457666277
  0
SPLINE
  5
9A2
330
38D5
100
AcDbEntity
  8
TEXT
 62
     5
420
      255
370
    25
100
AcDbSpline
210
0.0
220
0.0
230
1.0
 70
     8
 71
     3
 72
     8
 73
     4
 74
     0
 42
0.000000001
 43
0.001
 12
1.0
 22
0.0
 32
0.0
 13
1.0
 23
0.0
 33
0.0
 40
0.0
 40
0.0
 40
0.0
 40
0.0
 40
1.0
 40
1.0
 40
1.0
 40
1.0
 10
392.9004960351033
 20
40.82302957666286
 30
0.0
 10
393.3428797851036
 20
40.81879582666306
 30
0.0
 10
393.5358497851037
 20
40.61453832666297
 30
0.0
 10
393.5358497851037
 20
40.21942707666278
 30
0.0
  0
SPLINE
  5
9A3
330
38D5
100
AcDbEntity
  8
TEXT
 62
     5
420
      255
370
    25
100
AcDbSpline
210
0.0
220
0.0
230
1.0
 70
     8
 71
     3
 72
     8
 73
     4
 74
     0
 42
0.000000001
 43
0.001
 12
1.0
 22
0.0
 32
0.0
 13
1.0
 23
0.0
 33
0.0
 40
0.0
 40
0.0
 40
0.0
 40
0.0
 40
1.0
 40
1.0
 40
1.0
 40
1.0
 10
393.5358497851037
 20
40.21942707666278
 30
0.0
 10
393.5358497851037
 20
40.11500457666284
 30
0.0
 10
393.5439635351033
 20
39.54421082666283
 30
0.0
 10
393.6000547851033
 20
39.42779332666294
 30
0.0
  0
LWPOLYLINE
  5
9A4
330
38D5
100
AcDbEntity
  8
TEXT
 62
     5
420
      255
370
    25
100
AcDbPolyline
 90
        2
 70
     0
 43
0.0
 10
392.9040247851033
 20
40.83043832666294
 10
392.9004960351033
 20
40.82302957666286
  0
SPLINE
  5
9A5
330
38D5
100
AcDbEntity
  8
TEXT
 62
     5
420
      255
370
    25
100
AcDbSpline
210
0.0
220
0.0
230
1.0
 70
     8
 71
     3
 72
     8
 73
     4
 74
     0
 42
0.000000001
 43
0.001
 12
1.0
 22
0.0
 32
0.0
 13
1.0
 23
0.0
 33
0.0
 40
0.0
 40
0.0
 40
0.0
 40
0.0
 40
1.0
 40
1.0
 40
1.0
 40
1.0
 10
395.3639435351035
 20
42.36255207666284
 30
0.0
 10
396.1845047851036
 20
42.36255207666284
 30
0.0
 10
396.8512547851035
 20
41.81186582666277
 30
0.0
 10
396.8512547851035
 20
40.86254082666284
 30
0.0
  0
SPLINE
  5
9A6
330
38D5
100
AcDbEntity
  8
TEXT
 62
     5
420
      255
370
    25
100
AcDbSpline
210
0.0
220
0.0
230
1.0
 70
     8
 71
     3
 72
     8
 73
     4
 74
     0
 42
0.000000001
 43
0.001
 12
1.0
 22
0.0
 32
0.0
 13
1.0
 23
0.0
 33
0.0
 40
0.0
 40
0.0
 40
0.0
 40
0.0
 40
1.0
 40
1.0
 40
1.0
 40
1.0
 10
396.8512547851035
 20
40.86254082666284
 30
0.0
 10
396.8512547851035
 20
39.91392082666277
 30
0.0
 10
396.1845047851036
 20
39.36252957666284
 30
0.0
 10
395.3639435351035
 20
39.36252957666284
 30
0.0
  0
SPLINE
  5
9A7
330
38D5
100
AcDbEntity
  8
TEXT
 62
     5
420
      255
370
    25
100
AcDbSpline
210
0.0
220
0.0
230
1.0
 70
     8
 71
     3
 72
     8
 73
     4
 74
     0
 42
0.000000001
 43
0.001
 12
1.0
 22
0.0
 32
0.0
 13
1.0
 23
0.0
 33
0.0
 40
0.0
 40
0.0
 40
0.0
 40
0.0
 40
1.0
 40
1.0
 40
1.0
 40
1.0
 10
395.3639435351035
 20
39.36252957666284
 30
0.0
 10
394.5430297851033
 20
39.36252957666284
 30
0.0
 10
393.8755747851035
 20
39.91356832666276
 30
0.0
 10
393.8755747851035
 20
40.86254082666284
 30
0.0
  0
SPLINE
  5
9A8
330
38D5
100
AcDbEntity
  8
TEXT
 62
     5
420
      255
370
    25
100
AcDbSpline
210
0.0
220
0.0
230
1.0
 70
     8
 71
     3
 72
     8
 73
     4
 74
     0
 42
0.000000001
 43
0.001
 12
1.0
 22
0.0
 32
0.0
 13
1.0
 23
0.0
 33
0.0
 40
0.0
 40
0.0
 40
0.0
 40
0.0
 40
1.0
 40
1.0
 40
1.0
 40
1.0
 10
393.8755747851035
 20
40.86254082666284
 30
0.0
 10
393.8755747851035
 20
41.81186582666277
 30
0.0
 10
394.5430297851033
 20
42.36255207666284
 30
0.0
 10
395.3639435351035
 20
42.36255207666284
 30
0.0
  0
LWPOLYLINE
  5
9A9
330
38D5
100
AcDbEntity
  8
TEXT
 62
     5
420
      255
370
    25
100
AcDbPolyline
 90
        2
 70
     0
 43
0.0
 10
392.9004960351033
 20
40.82267707666284
 10
391.2152772851034
 20
40.81703207666277
  0
LWPOLYLINE
  5
9AA
330
38D5
100
AcDbEntity
  8
TEXT
 62
     5
420
      255
370
    25
100
AcDbPolyline
 90
        6
 70
     0
 43
0.0
 10
397.1899210351037
 20
39.42744082666275
 10
397.1899210351037
 20
42.29940457666277
 10
397.2936385351034
 20
42.29940457666277
 10
399.5570610351035
 20
39.42744082666275
 10
399.6508997851035
 20
39.42744082666275
 10
399.6508997851035
 20
42.29940457666277
  0
LWPOLYLINE
  5
9AB
330
38D5
100
AcDbEntity
  8
TEXT
 62
     5
420
      255
370
    25
100
AcDbPolyline
 90
        3
 70
     0
 43
0.0
 10
388.9874860351035
 20
39.42744082666275
 10
388.9874860351035
 20
42.29940457666277
 10
391.0029047851033
 20
42.29940457666277
  0
LWPOLYLINE
  5
9AC
330
38D5
100
AcDbEntity
  8
TEXT
 62
     5
420
      255
370
    25
100
AcDbPolyline
 90
        2
 70
     0
 43
0.0
 10
388.9874860351035
 20
40.96308207666277
 10
390.8857822851035
 20
40.96308207666277
  0
LWPOLYLINE
  5
9AD
330
38D5
100
AcDbEntity
  8
TEXT
 62
     5
420
      255
370
    25
100
AcDbPolyline
 90
        2
 70
     0
 43
0.0
 10
387.5523860351034
 20
31.16044582666296
 10
385.7666247851037
 20
31.16432707666297
  0
SPLINE
  5
9AE
330
38D5
100
AcDbEntity
  8
TEXT
 62
     5
420
      255
370
    25
100
AcDbSpline
210
0.0
220
0.0
230
1.0
 70
     8
 71
     3
 72
     8
 73
     4
 74
     0
 42
0.000000001
 43
0.001
 12
1.0
 22
0.0
 32
0.0
 13
1.0
 23
0.0
 33
0.0
 40
0.0
 40
0.0
 40
0.0
 40
0.0
 40
1.0
 40
1.0
 40
1.0
 40
1.0
 10
387.4084522851033
 20
32.59907457666287
 30
0.0
 10
387.8864660351035
 20
32.59907457666287
 30
0.0
 10
388.2208997851033
 20
32.34084082666288
 30
0.0
 10
388.2208997851033
 20
31.85012707666283
 30
0.0
  0
SPLINE
  5
9AF
330
38D5
100
AcDbEntity
  8
TEXT
 62
     5
420
      255
370
    25
100
AcDbSpline
210
0.0
220
0.0
230
1.0
 70
     8
 71
     3
 72
     8
 73
     4
 74
     0
 42
0.000000001
 43
0.001
 12
1.0
 22
0.0
 32
0.0
 13
1.0
 23
0.0
 33
0.0
 40
0.0
 40
0.0
 40
0.0
 40
0.0
 40
1.0
 40
1.0
 40
1.0
 40
1.0
 10
388.2208997851033
 20
31.85012707666283
 30
0.0
 10
388.2208997851033
 20
31.49452707666285
 30
0.0
 10
387.9079860351032
 20
31.15621332666274
 30
0.0
 10
387.5523860351034
 20
31.16467957666288
 30
0.0
  0
LWPOLYLINE
  5
9B0
330
38D5
100
AcDbEntity
  8
TEXT
 62
     5
420
      255
370
    25
100
AcDbPolyline
 90
        2
 70
     0
 43
0.0
 10
385.7666247851037
 20
32.59907457666287
 10
387.4084522851033
 20
32.59907457666287
  0
SPLINE
  5
9B1
330
38D5
100
AcDbEntity
  8
TEXT
 62
     5
420
      255
370
    25
100
AcDbSpline
210
0.0
220
0.0
230
1.0
 70
     8
 71
     3
 72
     8
 73
     4
 74
     0
 42
0.000000001
 43
0.001
 12
1.0
 22
0.0
 32
0.0
 13
1.0
 23
0.0
 33
0.0
 40
0.0
 40
0.0
 40
0.0
 40
0.0
 40
1.0
 40
1.0
 40
1.0
 40
1.0
 10
387.5523860351034
 20
31.15656582666298
 30
0.0
 10
387.9457322851033
 20
31.13927957666294
 30
0.0
 10
388.3136797851037
 20
30.92761332666288
 30
0.0
 10
388.3136797851037
 20
30.39950457666288
 30
0.0
  0
SPLINE
  5
9B2
330
38D5
100
AcDbEntity
  8
TEXT
 62
     5
420
      255
370
    25
100
AcDbSpline
210
0.0
220
0.0
230
1.0
 70
     8
 71
     3
 72
     8
 73
     4
 74
     0
 42
0.000000001
 43
0.001
 12
1.0
 22
0.0
 32
0.0
 13
1.0
 23
0.0
 33
0.0
 40
0.0
 40
0.0
 40
0.0
 40
0.0
 40
1.0
 40
1.0
 40
1.0
 40
1.0
 10
388.3136797851037
 20
30.39950457666288
 30
0.0
 10
388.3136797851037
 20
30.04778582666285
 30
0.0
 10
388.0900185351036
 20
29.57788582666296
 30
0.0
 10
387.2980322851033
 20
29.57788582666296
 30
0.0
  0
LWPOLYLINE
  5
9B3
330
38D5
100
AcDbEntity
  8
TEXT
 62
     5
420
      255
370
    25
100
AcDbPolyline
 90
        2
 70
     0
 43
0.0
 10
387.5523860351034
 20
31.16467957666288
 10
387.5523860351034
 20
31.15656582666298
  0
LWPOLYLINE
  5
9B4
330
38D5
100
AcDbEntity
  8
TEXT
 62
     5
420
      255
370
    25
100
AcDbPolyline
 90
        4
 70
     0
 43
0.0
 10
387.2980322851033
 20
29.57788582666296
 10
385.7666247851037
 20
29.57788582666296
 10
385.7666247851037
 20
32.59907457666287
 10
385.7666247851037
 20
32.59907457666287
  0
LWPOLYLINE
  5
9B5
330
38D5
100
AcDbEntity
  8
TEXT
 62
     5
420
      255
370
    25
100
AcDbPolyline
 90
        2
 70
     0
 43
0.0
 10
443.0143435351035
 20
36.45916832666285
 10
444.8004572851034
 20
36.45564082666283
  0
SPLINE
  5
9B6
330
38D5
100
AcDbEntity
  8
TEXT
 62
     5
420
      255
370
    25
100
AcDbSpline
210
0.0
220
0.0
230
1.0
 70
     8
 71
     3
 72
     8
 73
     4
 74
     0
 42
0.000000001
 43
0.001
 12
1.0
 22
0.0
 32
0.0
 13
1.0
 23
0.0
 33
0.0
 40
0.0
 40
0.0
 40
0.0
 40
0.0
 40
1.0
 40
1.0
 40
1.0
 40
1.0
 10
443.1582772851034
 20
35.02054082666297
 30
0.0
 10
442.6802635351034
 20
35.02054082666297
 30
0.0
 10
442.3458297851034
 20
35.27912707666297
 30
0.0
 10
442.3458297851034
 20
35.76948832666284
 30
0.0
  0
SPLINE
  5
9B7
330
38D5
100
AcDbEntity
  8
TEXT
 62
     5
420
      255
370
    25
100
AcDbSpline
210
0.0
220
0.0
230
1.0
 70
     8
 71
     3
 72
     8
 73
     4
 74
     0
 42
0.000000001
 43
0.001
 12
1.0
 22
0.0
 32
0.0
 13
1.0
 23
0.0
 33
0.0
 40
0.0
 40
0.0
 40
0.0
 40
0.0
 40
1.0
 40
1.0
 40
1.0
 40
1.0
 10
442.3458297851034
 20
35.76948832666284
 30
0.0
 10
442.3458297851034
 20
36.12508832666276
 30
0.0
 10
442.6587435351034
 20
36.46340207666287
 30
0.0
 10
443.0143435351035
 20
36.45528832666287
 30
0.0
  0
LWPOLYLINE
  5
9B8
330
38D5
100
AcDbEntity
  8
TEXT
 62
     5
420
      255
370
    25
100
AcDbPolyline
 90
        2
 70
     0
 43
0.0
 10
444.8004572851034
 20
35.02054082666297
 10
443.1582772851034
 20
35.02054082666297
  0
SPLINE
  5
9B9
330
38D5
100
AcDbEntity
  8
TEXT
 62
     5
420
      255
370
    25
100
AcDbSpline
210
0.0
220
0.0
230
1.0
 70
     8
 71
     3
 72
     8
 73
     4
 74
     0
 42
0.000000001
 43
0.001
 12
1.0
 22
0.0
 32
0.0
 13
1.0
 23
0.0
 33
0.0
 40
0.0
 40
0.0
 40
0.0
 40
0.0
 40
1.0
 40
1.0
 40
1.0
 40
1.0
 10
443.0143435351035
 20
36.46304957666297
 30
0.0
 10
442.6209960351034
 20
36.48033582666284
 30
0.0
 10
442.2530497851035
 20
36.69164957666288
 30
0.0
 10
442.2530497851035
 20
37.22011082666285
 30
0.0
  0
SPLINE
  5
9BA
330
38D5
100
AcDbEntity
  8
TEXT
 62
     5
420
      255
370
    25
100
AcDbSpline
210
0.0
220
0.0
230
1.0
 70
     8
 71
     3
 72
     8
 73
     4
 74
     0
 42
0.000000001
 43
0.001
 12
1.0
 22
0.0
 32
0.0
 13
1.0
 23
0.0
 33
0.0
 40
0.0
 40
0.0
 40
0.0
 40
0.0
 40
1.0
 40
1.0
 40
1.0
 40
1.0
 10
442.2530497851035
 20
37.22011082666285
 30
0.0
 10
442.2530497851035
 20
37.57147707666297
 30
0.0
 10
442.4770635351035
 20
38.04137707666274
 30
0.0
 10
443.2686960351034
 20
38.04137707666274
 30
0.0
  0
LWPOLYLINE
  5
9BB
330
38D5
100
AcDbEntity
  8
TEXT
 62
     5
420
      255
370
    25
100
AcDbPolyline
 90
        2
 70
     0
 43
0.0
 10
443.0143435351035
 20
36.45528832666287
 10
443.0143435351035
 20
36.46304957666297
  0
LWPOLYLINE
  5
9BC
330
38D5
100
AcDbEntity
  8
TEXT
 62
     5
420
      255
370
    25
100
AcDbPolyline
 90
        4
 70
     0
 43
0.0
 10
443.2686960351034
 20
38.04137707666274
 10
444.8004572851034
 20
38.04137707666274
 10
444.8004572851034
 20
35.02054082666297
 10
444.8004572851034
 20
35.02054082666297
  0
LWPOLYLINE
  5
9BD
330
38D5
100
AcDbEntity
  8
TEXT
 62
     5
420
      255
370
    25
100
AcDbPolyline
 90
        2
 70
     0
 43
0.0
 10
467.9373885351035
 20
32.70490707666283
 10
470.1926960351034
 20
32.70490707666283
  0
LWPOLYLINE
  5
9BE
330
38D5
100
AcDbEntity
  8
TEXT
 62
     5
420
      255
370
    25
100
AcDbPolyline
 90
        4
 70
     0
 43
0.0
 10
470.3154635351034
 20
31.08847957666285
 10
467.9373885351035
 20
31.08847957666285
 10
467.9373885351035
 20
34.10966832666298
 10
470.2900635351034
 20
34.10966832666298
  0
LWPOLYLINE
  5
9BF
330
38D5
100
AcDbEntity
  8
TEXT
 62
     5
420
      255
370
    25
100
AcDbPolyline
 90
        2
 70
     0
 43
0.0
 10
526.6000997851036
 20
36.42565457666274
 10
524.3447910351035
 20
36.42565457666274
  0
LWPOLYLINE
  5
9C0
330
38D5
100
AcDbEntity
  8
TEXT
 62
     5
420
      255
370
    25
100
AcDbPolyline
 90
        4
 70
     0
 43
0.0
 10
524.2220247851035
 20
38.04137707666274
 10
526.6000997851036
 20
38.04137707666274
 10
526.6000997851036
 20
35.02089332666287
 10
524.2474247851035
 20
35.02089332666287
  0
LWPOLYLINE
  5
9C1
330
38D5
100
AcDbEntity
  8
TEXT
 62
     5
420
      255
370
    25
100
AcDbPolyline
 90
        2
 70
     0
 43
0.0
 10
359.0849822851035
 20
31.19431332666284
 10
361.3399385351033
 20
31.19431332666284
  0
LWPOLYLINE
  5
9C2
330
38D5
100
AcDbEntity
  8
TEXT
 62
     5
420
      255
370
    25
100
AcDbPolyline
 90
        4
 70
     0
 43
0.0
 10
361.4627047851034
 20
29.57788582666296
 10
359.0849822851035
 20
29.57788582666296
 10
359.0849822851035
 20
32.59907457666287
 10
361.4380110351033
 20
32.59907457666287
  0
LWPOLYLINE
  5
9C3
330
38D5
100
AcDbEntity
  8
TEXT
 62
     5
420
      255
370
    25
100
AcDbPolyline
 90
        2
 70
     0
 43
0.0
 10
420.6323572851036
 20
36.27466582666284
 10
418.3770497851035
 20
36.27466582666284
  0
LWPOLYLINE
  5
9C4
330
38D5
100
AcDbEntity
  8
TEXT
 62
     5
420
      255
370
    25
100
AcDbPolyline
 90
        4
 70
     0
 43
0.0
 10
418.2542822851035
 20
37.89109332666277
 10
420.6323572851036
 20
37.89109332666277
 10
420.6323572851036
 20
34.86990457666275
 10
418.2793297851033
 20
34.86990457666275
  0
LWPOLYLINE
  5
9C5
330
38D5
100
AcDbEntity
  8
TEXT
 62
     5
420
      255
370
    25
100
AcDbPolyline
 90
        2
 70
     0
 43
0.0
 10
480.7111185351034
 20
40.56091582666284
 10
483.0726135351035
 20
42.36184582666277
  0
LWPOLYLINE
  5
9C6
330
38D5
100
AcDbEntity
  8
TEXT
 62
     5
420
      255
370
    25
100
AcDbPolyline
 90
        2
 70
     0
 43
0.0
 10
481.5828322851034
 20
41.22590207666286
 10
483.3379022851034
 20
39.49023582666274
  0
SPLINE
  5
9C7
330
38D5
100
AcDbEntity
  8
TEXT
 62
     5
420
      255
370
    25
100
AcDbSpline
210
0.0
220
0.0
230
1.0
 70
     8
 71
     3
 72
     8
 73
     4
 74
     0
 42
0.000000001
 43
0.001
 12
1.0
 22
0.0
 32
0.0
 13
1.0
 23
0.0
 33
0.0
 40
0.0
 40
0.0
 40
0.0
 40
0.0
 40
1.0
 40
1.0
 40
1.0
 40
1.0
 10
480.2129960351035
 20
40.51540707666288
 30
0.0
 10
480.1290360351034
 20
39.74705707666277
 30
0.0
 10
479.4372385351035
 20
39.36182457666297
 30
0.0
 10
478.7736635351034
 20
39.36182457666297
 30
0.0
  0
SPLINE
  5
9C8
330
38D5
100
AcDbEntity
  8
TEXT
 62
     5
420
      255
370
    25
100
AcDbSpline
210
0.0
220
0.0
230
1.0
 70
     8
 71
     3
 72
     8
 73
     4
 74
     0
 42
0.000000001
 43
0.001
 12
1.0
 22
0.0
 32
0.0
 13
1.0
 23
0.0
 33
0.0
 40
0.0
 40
0.0
 40
0.0
 40
0.0
 40
1.0
 40
1.0
 40
1.0
 40
1.0
 10
478.7736635351034
 20
39.36182457666297
 30
0.0
 10
477.9531022851036
 20
39.36182457666297
 30
0.0
 10
477.2852935351034
 20
39.91251082666287
 30
0.0
 10
477.2852935351034
 20
40.86112957666285
 30
0.0
  0
SPLINE
  5
9C9
330
38D5
100
AcDbEntity
  8
TEXT
 62
     5
420
      255
370
    25
100
AcDbSpline
210
0.0
220
0.0
230
1.0
 70
     8
 71
     3
 72
     8
 73
     4
 74
     0
 42
0.000000001
 43
0.001
 12
1.0
 22
0.0
 32
0.0
 13
1.0
 23
0.0
 33
0.0
 40
0.0
 40
0.0
 40
0.0
 40
0.0
 40
1.0
 40
1.0
 40
1.0
 40
1.0
 10
477.2852935351034
 20
40.86112957666285
 30
0.0
 10
477.2852935351034
 20
41.81045457666283
 30
0.0
 10
477.9531022851036
 20
42.36184582666277
 30
0.0
 10
478.7736635351034
 20
42.36184582666277
 30
0.0
  0
SPLINE
  5
9CA
330
38D5
100
AcDbEntity
  8
TEXT
 62
     5
420
      255
370
    25
100
AcDbSpline
210
0.0
220
0.0
230
1.0
 70
     8
 71
     3
 72
     8
 73
     4
 74
     0
 42
0.000000001
 43
0.001
 12
1.0
 22
0.0
 32
0.0
 13
1.0
 23
0.0
 33
0.0
 40
0.0
 40
0.0
 40
0.0
 40
0.0
 40
1.0
 40
1.0
 40
1.0
 40
1.0
 10
478.7736635351034
 20
42.36184582666277
 30
0.0
 10
479.4531135351035
 20
42.36184582666277
 30
0.0
 10
479.9918047851036
 20
42.08421082666297
 30
0.0
 10
480.1449110351034
 20
41.46049957666298
 30
0.0
  0
LWPOLYLINE
  5
9CB
330
38D5
100
AcDbEntity
  8
TEXT
 62
     5
420
      255
370
    25
100
AcDbPolyline
 90
        2
 70
     0
 43
0.0
 10
480.7111185351034
 20
39.49023582666274
 10
480.7111185351034
 20
42.36219957666287
  0
LWPOLYLINE
  5
9CC
330
38D5
100
AcDbEntity
  8
TEXT
 62
     5
420
      255
370
    25
100
AcDbPolyline
 90
        2
 70
     0
 43
0.0
 10
473.8044360351034
 20
40.99447957666297
 10
472.1068685351036
 20
40.99800707666287
  0
SPLINE
  5
9CD
330
38D5
100
AcDbEntity
  8
TEXT
 62
     5
420
      255
370
    25
100
AcDbSpline
210
0.0
220
0.0
230
1.0
 70
     8
 71
     3
 72
     8
 73
     4
 74
     0
 42
0.000000001
 43
0.001
 12
1.0
 22
0.0
 32
0.0
 13
1.0
 23
0.0
 33
0.0
 40
0.0
 40
0.0
 40
0.0
 40
0.0
 40
1.0
 40
1.0
 40
1.0
 40
1.0
 10
473.6675572851034
 20
42.36219957666287
 30
0.0
 10
474.1222885351035
 20
42.36219957666287
 30
0.0
 10
474.4397885351034
 20
42.11701832666284
 30
0.0
 10
474.4397885351034
 20
41.64958832666287
 30
0.0
  0
SPLINE
  5
9CE
330
38D5
100
AcDbEntity
  8
TEXT
 62
     5
420
      255
370
    25
100
AcDbSpline
210
0.0
220
0.0
230
1.0
 70
     8
 71
     3
 72
     8
 73
     4
 74
     0
 42
0.000000001
 43
0.001
 12
1.0
 22
0.0
 32
0.0
 13
1.0
 23
0.0
 33
0.0
 40
0.0
 40
0.0
 40
0.0
 40
0.0
 40
1.0
 40
1.0
 40
1.0
 40
1.0
 10
474.4397885351034
 20
41.64958832666287
 30
0.0
 10
474.4397885351034
 20
41.31197957666296
 30
0.0
 10
474.1420435351035
 20
40.99024582666283
 30
0.0
 10
473.8044360351034
 20
40.99765457666274
 30
0.0
  0
LWPOLYLINE
  5
9CF
330
38D5
100
AcDbEntity
  8
TEXT
 62
     5
420
      255
370
    25
100
AcDbPolyline
 90
        2
 70
     0
 43
0.0
 10
472.1068685351036
 20
42.36219957666287
 10
473.6675572851034
 20
42.36219957666287
  0
SPLINE
  5
9D0
330
38D5
100
AcDbEntity
  8
TEXT
 62
     5
420
      255
370
    25
100
AcDbSpline
210
0.0
220
0.0
230
1.0
 70
     8
 71
     3
 72
     8
 73
     4
 74
     0
 42
0.000000001
 43
0.001
 12
1.0
 22
0.0
 32
0.0
 13
1.0
 23
0.0
 33
0.0
 40
0.0
 40
0.0
 40
0.0
 40
0.0
 40
1.0
 40
1.0
 40
1.0
 40
1.0
 10
473.8044360351034
 20
40.99024582666283
 30
0.0
 10
474.1790860351034
 20
40.97437082666295
 30
0.0
 10
474.5279822851035
 20
40.77328832666296
 30
0.0
 10
474.5279822851035
 20
40.27093207666275
 30
0.0
  0
SPLINE
  5
9D1
330
38D5
100
AcDbEntity
  8
TEXT
 62
     5
420
      255
370
    25
100
AcDbSpline
210
0.0
220
0.0
230
1.0
 70
     8
 71
     3
 72
     8
 73
     4
 74
     0
 42
0.000000001
 43
0.001
 12
1.0
 22
0.0
 32
0.0
 13
1.0
 23
0.0
 33
0.0
 40
0.0
 40
0.0
 40
0.0
 40
0.0
 40
1.0
 40
1.0
 40
1.0
 40
1.0
 10
474.5279822851035
 20
40.27093207666275
 30
0.0
 10
474.5279822851035
 20
39.93685207666277
 30
0.0
 10
474.3149047851034
 20
39.49023582666274
 30
0.0
 10
473.5634885351035
 20
39.49023582666274
 30
0.0
  0
LWPOLYLINE
  5
9D2
330
38D5
100
AcDbEntity
  8
TEXT
 62
     5
420
      255
370
    25
100
AcDbPolyline
 90
        2
 70
     0
 43
0.0
 10
473.8044360351034
 20
40.99765457666274
 10
473.8044360351034
 20
40.99024582666283
  0
LWPOLYLINE
  5
9D3
330
38D5
100
AcDbEntity
  8
TEXT
 62
     5
420
      255
370
    25
100
AcDbPolyline
 90
        4
 70
     0
 43
0.0
 10
473.5634885351035
 20
39.49023582666274
 10
472.1068685351036
 20
39.49023582666274
 10
472.1068685351036
 20
42.36219957666287
 10
472.1068685351036
 20
42.36219957666287
  0
LWPOLYLINE
  5
9D4
330
38D5
100
AcDbEntity
  8
TEXT
 62
     5
420
      255
370
    25
100
AcDbPolyline
 90
        4
 70
     0
 43
0.0
 10
474.5279822851035
 20
39.49023582666274
 10
475.8473710351034
 20
42.36219957666287
 10
475.9521460351034
 20
42.36219957666287
 10
477.2708297851034
 20
39.49023582666274
  0
LWPOLYLINE
  5
9D5
330
38D5
100
AcDbEntity
  8
TEXT
 62
     5
420
      255
370
    25
100
AcDbPolyline
 90
        2
 70
     0
 43
0.0
 10
476.8347960351034
 20
40.43920707666297
 10
474.9573135351034
 20
40.43920707666297
  0
LWPOLYLINE
  5
9D6
330
38D5
100
AcDbEntity
  8
TEXT
 62
     5
420
      255
370
    25
100
AcDbPolyline
 90
        2
 70
     0
 43
0.0
 10
505.7107160351034
 20
39.81267457666297
 10
508.0715047851036
 20
41.61360457666296
  0
LWPOLYLINE
  5
9D7
330
38D5
100
AcDbEntity
  8
TEXT
 62
     5
420
      255
370
    25
100
AcDbPolyline
 90
        2
 70
     0
 43
0.0
 10
506.5817247851035
 20
40.47766082666277
 10
508.3367935351034
 20
38.74199332666274
  0
SPLINE
  5
9D8
330
38D5
100
AcDbEntity
  8
TEXT
 62
     5
420
      255
370
    25
100
AcDbSpline
210
0.0
220
0.0
230
1.0
 70
     8
 71
     3
 72
     8
 73
     4
 74
     0
 42
0.000000001
 43
0.001
 12
1.0
 22
0.0
 32
0.0
 13
1.0
 23
0.0
 33
0.0
 40
0.0
 40
0.0
 40
0.0
 40
0.0
 40
1.0
 40
1.0
 40
1.0
 40
1.0
 10
505.2122410351035
 20
39.76716582666273
 30
0.0
 10
505.1279272851034
 20
38.99881582666285
 30
0.0
 10
504.4361297851035
 20
38.61358207666296
 30
0.0
 10
503.7725547851035
 20
38.61358207666296
 30
0.0
  0
SPLINE
  5
9D9
330
38D5
100
AcDbEntity
  8
TEXT
 62
     5
420
      255
370
    25
100
AcDbSpline
210
0.0
220
0.0
230
1.0
 70
     8
 71
     3
 72
     8
 73
     4
 74
     0
 42
0.000000001
 43
0.001
 12
1.0
 22
0.0
 32
0.0
 13
1.0
 23
0.0
 33
0.0
 40
0.0
 40
0.0
 40
0.0
 40
0.0
 40
1.0
 40
1.0
 40
1.0
 40
1.0
 10
503.7725547851035
 20
38.61358207666296
 30
0.0
 10
502.9519935351034
 20
38.61358207666296
 30
0.0
 10
502.2845385351034
 20
39.16426832666286
 30
0.0
 10
502.2845385351034
 20
40.11288832666276
 30
0.0
  0
SPLINE
  5
9DA
330
38D5
100
AcDbEntity
  8
TEXT
 62
     5
420
      255
370
    25
100
AcDbSpline
210
0.0
220
0.0
230
1.0
 70
     8
 71
     3
 72
     8
 73
     4
 74
     0
 42
0.000000001
 43
0.001
 12
1.0
 22
0.0
 32
0.0
 13
1.0
 23
0.0
 33
0.0
 40
0.0
 40
0.0
 40
0.0
 40
0.0
 40
1.0
 40
1.0
 40
1.0
 40
1.0
 10
502.2845385351034
 20
40.11288832666276
 30
0.0
 10
502.2845385351034
 20
41.06221332666274
 30
0.0
 10
502.9519935351034
 20
41.61360457666296
 30
0.0
 10
503.7725547851035
 20
41.61360457666296
 30
0.0
  0
SPLINE
  5
9DB
330
38D5
100
AcDbEntity
  8
TEXT
 62
     5
420
      255
370
    25
100
AcDbSpline
210
0.0
220
0.0
230
1.0
 70
     8
 71
     3
 72
     8
 73
     4
 74
     0
 42
0.000000001
 43
0.001
 12
1.0
 22
0.0
 32
0.0
 13
1.0
 23
0.0
 33
0.0
 40
0.0
 40
0.0
 40
0.0
 40
0.0
 40
1.0
 40
1.0
 40
1.0
 40
1.0
 10
503.7725547851035
 20
41.61360457666296
 30
0.0
 10
504.4523572851035
 20
41.61360457666296
 30
0.0
 10
504.9914022851035
 20
41.33596832666296
 30
0.0
 10
505.1441547851034
 20
40.71225707666287
 30
0.0
  0
LWPOLYLINE
  5
9DC
330
38D5
100
AcDbEntity
  8
TEXT
 62
     5
420
      255
370
    25
100
AcDbPolyline
 90
        2
 70
     0
 43
0.0
 10
505.7107160351034
 20
38.74199332666274
 10
505.7107160351034
 20
41.61395707666276
  0
LWPOLYLINE
  5
9DD
330
38D5
100
AcDbEntity
  8
TEXT
 62
     5
420
      255
370
    25
100
AcDbPolyline
 90
        2
 70
     0
 43
0.0
 10
498.8033272851035
 20
40.24623832666276
 10
497.1061135351035
 20
40.24976582666284
  0
SPLINE
  5
9DE
330
38D5
100
AcDbEntity
  8
TEXT
 62
     5
420
      255
370
    25
100
AcDbSpline
210
0.0
220
0.0
230
1.0
 70
     8
 71
     3
 72
     8
 73
     4
 74
     0
 42
0.000000001
 43
0.001
 12
1.0
 22
0.0
 32
0.0
 13
1.0
 23
0.0
 33
0.0
 40
0.0
 40
0.0
 40
0.0
 40
0.0
 40
1.0
 40
1.0
 40
1.0
 40
1.0
 10
498.6664497851034
 20
41.61395707666276
 30
0.0
 10
499.1211797851035
 20
41.61395707666276
 30
0.0
 10
499.4386797851034
 20
41.36877707666287
 30
0.0
 10
499.4386797851034
 20
40.90134582666275
 30
0.0
  0
SPLINE
  5
9DF
330
38D5
100
AcDbEntity
  8
TEXT
 62
     5
420
      255
370
    25
100
AcDbSpline
210
0.0
220
0.0
230
1.0
 70
     8
 71
     3
 72
     8
 73
     4
 74
     0
 42
0.000000001
 43
0.001
 12
1.0
 22
0.0
 32
0.0
 13
1.0
 23
0.0
 33
0.0
 40
0.0
 40
0.0
 40
0.0
 40
0.0
 40
1.0
 40
1.0
 40
1.0
 40
1.0
 10
499.4386797851034
 20
40.90134582666275
 30
0.0
 10
499.4386797851034
 20
40.56373832666276
 30
0.0
 10
499.1412885351035
 20
40.24200457666274
 30
0.0
 10
498.8033272851035
 20
40.24941332666288
 30
0.0
  0
LWPOLYLINE
  5
9E0
330
38D5
100
AcDbEntity
  8
TEXT
 62
     5
420
      255
370
    25
100
AcDbPolyline
 90
        2
 70
     0
 43
0.0
 10
497.1061135351035
 20
41.61395707666276
 10
498.6664497851034
 20
41.61395707666276
  0
SPLINE
  5
9E1
330
38D5
100
AcDbEntity
  8
TEXT
 62
     5
420
      255
370
    25
100
AcDbSpline
210
0.0
220
0.0
230
1.0
 70
     8
 71
     3
 72
     8
 73
     4
 74
     0
 42
0.000000001
 43
0.001
 12
1.0
 22
0.0
 32
0.0
 13
1.0
 23
0.0
 33
0.0
 40
0.0
 40
0.0
 40
0.0
 40
0.0
 40
1.0
 40
1.0
 40
1.0
 40
1.0
 10
498.8033272851035
 20
40.24200457666274
 30
0.0
 10
499.1776247851035
 20
40.22612957666286
 30
0.0
 10
499.5272272851034
 20
40.02504582666285
 30
0.0
 10
499.5272272851034
 20
39.52269082666294
 30
0.0
  0
SPLINE
  5
9E2
330
38D5
100
AcDbEntity
  8
TEXT
 62
     5
420
      255
370
    25
100
AcDbSpline
210
0.0
220
0.0
230
1.0
 70
     8
 71
     3
 72
     8
 73
     4
 74
     0
 42
0.000000001
 43
0.001
 12
1.0
 22
0.0
 32
0.0
 13
1.0
 23
0.0
 33
0.0
 40
0.0
 40
0.0
 40
0.0
 40
0.0
 40
1.0
 40
1.0
 40
1.0
 40
1.0
 10
499.5272272851034
 20
39.52269082666294
 30
0.0
 10
499.5272272851034
 20
39.18861082666297
 30
0.0
 10
499.3141497851034
 20
38.74199332666274
 30
0.0
 10
498.5623797851035
 20
38.74199332666274
 30
0.0
  0
LWPOLYLINE
  5
9E3
330
38D5
100
AcDbEntity
  8
TEXT
 62
     5
420
      255
370
    25
100
AcDbPolyline
 90
        2
 70
     0
 43
0.0
 10
498.8033272851035
 20
40.24941332666288
 10
498.8033272851035
 20
40.24200457666274
  0
LWPOLYLINE
  5
9E4
330
38D5
100
AcDbEntity
  8
TEXT
 62
     5
420
      255
370
    25
100
AcDbPolyline
 90
        4
 70
     0
 43
0.0
 10
498.5623797851035
 20
38.74199332666274
 10
497.1061135351035
 20
38.74199332666274
 10
497.1061135351035
 20
41.61395707666276
 10
497.1061135351035
 20
41.61395707666276
  0
LWPOLYLINE
  5
9E5
330
38D5
100
AcDbEntity
  8
TEXT
 62
     5
420
      255
370
    25
100
AcDbPolyline
 90
        4
 70
     0
 43
0.0
 10
499.5272272851034
 20
38.74199332666274
 10
500.8466160351034
 20
41.61395707666276
 10
500.9510385351034
 20
41.61395707666276
 10
502.2704272851036
 20
38.74199332666274
  0
LWPOLYLINE
  5
9E6
330
38D5
100
AcDbEntity
  8
TEXT
 62
     5
420
      255
370
    25
100
AcDbPolyline
 90
        2
 70
     0
 43
0.0
 10
501.8336885351034
 20
39.69096582666276
 10
499.9562047851034
 20
39.69096582666276
  0
LWPOLYLINE
  5
9E7
330
38D5
100
AcDbEntity
  8
TEXT
 62
     5
420
      255
370
    25
100
AcDbPolyline
 90
        2
 70
     0
 43
0.0
 10
526.6985247851035
 20
42.38830457666273
 10
526.6985247851035
 20
39.54209332666278
  0
LWPOLYLINE
  5
9E8
330
38D5
100
AcDbEntity
  8
TEXT
 62
     5
420
      255
370
    25
100
AcDbPolyline
 90
        2
 70
     0
 43
0.0
 10
527.8972635351035
 20
39.51634082666294
 10
525.4200572851034
 20
39.51634082666294
  0
SPLINE
  5
9E9
330
38D5
100
AcDbEntity
  8
TEXT
 62
     5
420
      255
370
    25
100
AcDbSpline
210
0.0
220
0.0
230
1.0
 70
     8
 71
     3
 72
     8
 73
     4
 74
     0
 42
0.000000001
 43
0.001
 12
1.0
 22
0.0
 32
0.0
 13
1.0
 23
0.0
 33
0.0
 40
0.0
 40
0.0
 40
0.0
 40
0.0
 40
1.0
 40
1.0
 40
1.0
 40
1.0
 10
535.5599497851035
 20
39.51634082666294
 30
0.0
 10
534.9852747851035
 20
39.51634082666294
 30
0.0
 10
534.7676110351035
 20
39.78974332666274
 30
0.0
 10
534.7676110351035
 20
40.30127082666286
 30
0.0
  0
SPLINE
  5
9EA
330
38D5
100
AcDbEntity
  8
TEXT
 62
     5
420
      255
370
    25
100
AcDbSpline
210
0.0
220
0.0
230
1.0
 70
     8
 71
     3
 72
     8
 73
     4
 74
     0
 42
0.000000001
 43
0.001
 12
1.0
 22
0.0
 32
0.0
 13
1.0
 23
0.0
 33
0.0
 40
0.0
 40
0.0
 40
0.0
 40
0.0
 40
1.0
 40
1.0
 40
1.0
 40
1.0
 10
534.7676110351035
 20
40.30127082666286
 30
0.0
 10
534.7676110351035
 20
40.57396832666274
 30
0.0
 10
534.9524660351035
 20
40.95637957666275
 30
0.0
 10
535.4512935351036
 20
40.98495457666286
 30
0.0
  0
LWPOLYLINE
  5
9EB
330
38D5
100
AcDbEntity
  8
TEXT
 62
     5
420
      255
370
    25
100
AcDbPolyline
 90
        3
 70
     0
 43
0.0
 10
537.1403935351034
 20
42.38830457666273
 10
537.1403935351034
 20
39.51634082666294
 10
535.5599497851035
 20
39.51634082666294
  0
SPLINE
  5
9EC
330
38D5
100
AcDbEntity
  8
TEXT
 62
     5
420
      255
370
    25
100
AcDbSpline
210
0.0
220
0.0
230
1.0
 70
     8
 71
     3
 72
     8
 73
     4
 74
     0
 42
0.000000001
 43
0.001
 12
1.0
 22
0.0
 32
0.0
 13
1.0
 23
0.0
 33
0.0
 40
0.0
 40
0.0
 40
0.0
 40
0.0
 40
1.0
 40
1.0
 40
1.0
 40
1.0
 10
535.4548210351034
 20
40.99236332666277
 30
0.0
 10
535.0124385351035
 20
40.99659582666288
 30
0.0
 10
534.8194685351034
 20
41.20191332666275
 30
0.0
 10
534.8194685351034
 20
41.59596582666273
 30
0.0
  0
SPLINE
  5
9ED
330
38D5
100
AcDbEntity
  8
TEXT
 62
     5
420
      255
370
    25
100
AcDbSpline
210
0.0
220
0.0
230
1.0
 70
     8
 71
     3
 72
     8
 73
     4
 74
     0
 42
0.000000001
 43
0.001
 12
1.0
 22
0.0
 32
0.0
 13
1.0
 23
0.0
 33
0.0
 40
0.0
 40
0.0
 40
0.0
 40
0.0
 40
1.0
 40
1.0
 40
1.0
 40
1.0
 10
534.8194685351034
 20
41.59596582666273
 30
0.0
 10
534.8194685351034
 20
41.70074082666287
 30
0.0
 10
534.8117072851035
 20
42.27188832666286
 30
0.0
 10
534.7549110351035
 20
42.38830457666273
 30
0.0
  0
LWPOLYLINE
  5
9EE
330
38D5
100
AcDbEntity
  8
TEXT
 62
     5
420
      255
370
    25
100
AcDbPolyline
 90
        2
 70
     0
 43
0.0
 10
535.4512935351036
 20
40.98495457666286
 10
535.4548210351034
 20
40.99236332666277
  0
LWPOLYLINE
  5
9EF
330
38D5
100
AcDbEntity
  8
TEXT
 62
     5
420
      255
370
    25
100
AcDbPolyline
 90
        2
 70
     0
 43
0.0
 10
535.4551747851035
 20
40.99236332666277
 10
537.1403935351034
 20
40.99800707666287
  0
LWPOLYLINE
  5
9F0
330
38D5
100
AcDbEntity
  8
TEXT
 62
     5
420
      255
370
    25
100
AcDbPolyline
 90
        2
 70
     0
 43
0.0
 10
534.2878322851034
 20
39.51634082666294
 10
534.2878322851034
 20
42.38830457666273
  0
LWPOLYLINE
  5
9F1
330
38D5
100
AcDbEntity
  8
TEXT
 62
     5
420
      255
370
    25
100
AcDbPolyline
 90
        2
 70
     0
 43
0.0
 10
530.5543860351036
 20
42.38830457666273
 10
530.5543860351036
 20
39.51634082666294
  0
LWPOLYLINE
  5
9F2
330
38D5
100
AcDbEntity
  8
TEXT
 62
     5
420
      255
370
    25
100
AcDbPolyline
 90
        2
 70
     0
 43
0.0
 10
530.5543860351036
 20
40.85195707666287
 10
528.0923497851034
 20
40.85195707666287
  0
SPLINE
  5
9F3
330
38D5
100
AcDbEntity
  8
TEXT
 62
     5
420
      255
370
    25
100
AcDbSpline
210
0.0
220
0.0
230
1.0
 70
     8
 71
     3
 72
     8
 73
     4
 74
     0
 42
0.000000001
 43
0.001
 12
1.0
 22
0.0
 32
0.0
 13
1.0
 23
0.0
 33
0.0
 40
0.0
 40
0.0
 40
0.0
 40
0.0
 40
1.0
 40
1.0
 40
1.0
 40
1.0
 10
530.9939460351034
 20
41.10525207666296
 30
0.0
 10
531.0359272851035
 20
41.43933207666277
 30
0.0
 10
531.0937822851035
 20
41.58573582666287
 30
0.0
 10
531.0937822851035
 20
41.58573582666287
 30
0.0
  0
SPLINE
  5
9F4
330
38D5
100
AcDbEntity
  8
TEXT
 62
     5
420
      255
370
    25
100
AcDbSpline
210
0.0
220
0.0
230
1.0
 70
     8
 71
     3
 72
     8
 73
     4
 74
     0
 42
0.000000001
 43
0.001
 12
1.0
 22
0.0
 32
0.0
 13
1.0
 23
0.0
 33
0.0
 40
0.0
 40
0.0
 40
0.0
 40
0.0
 40
1.0
 40
1.0
 40
1.0
 40
1.0
 10
531.0937822851035
 20
41.58573582666287
 30
0.0
 10
531.2920435351034
 20
42.24613582666274
 30
0.0
 10
531.8501385351035
 20
42.51636332666277
 30
0.0
 10
532.4498610351034
 20
42.51636332666277
 30
0.0
  0
SPLINE
  5
9F5
330
38D5
100
AcDbEntity
  8
TEXT
 62
     5
420
      255
370
    25
100
AcDbSpline
210
0.0
220
0.0
230
1.0
 70
     8
 71
     3
 72
     8
 73
     4
 74
     0
 42
0.000000001
 43
0.001
 12
1.0
 22
0.0
 32
0.0
 13
1.0
 23
0.0
 33
0.0
 40
0.0
 40
0.0
 40
0.0
 40
0.0
 40
1.0
 40
1.0
 40
1.0
 40
1.0
 10
532.4498610351034
 20
42.51636332666277
 30
0.0
 10
533.2704210351035
 20
42.51636332666277
 30
0.0
 10
533.9371710351036
 20
41.96567707666287
 30
0.0
 10
533.9371710351036
 20
41.01705707666287
 30
0.0
  0
SPLINE
  5
9F6
330
38D5
100
AcDbEntity
  8
TEXT
 62
     5
420
      255
370
    25
100
AcDbSpline
210
0.0
220
0.0
230
1.0
 70
     8
 71
     3
 72
     8
 73
     4
 74
     0
 42
0.000000001
 43
0.001
 12
1.0
 22
0.0
 32
0.0
 13
1.0
 23
0.0
 33
0.0
 40
0.0
 40
0.0
 40
0.0
 40
0.0
 40
1.0
 40
1.0
 40
1.0
 40
1.0
 10
533.9371710351036
 20
41.01705707666287
 30
0.0
 10
533.9371710351036
 20
40.06773207666288
 30
0.0
 10
533.2704210351035
 20
39.51634082666294
 30
0.0
 10
532.4498610351034
 20
39.51634082666294
 30
0.0
  0
SPLINE
  5
9F7
330
38D5
100
AcDbEntity
  8
TEXT
 62
     5
420
      255
370
    25
100
AcDbSpline
210
0.0
220
0.0
230
1.0
 70
     8
 71
     3
 72
     8
 73
     4
 74
     0
 42
0.000000001
 43
0.001
 12
1.0
 22
0.0
 32
0.0
 13
1.0
 23
0.0
 33
0.0
 40
0.0
 40
0.0
 40
0.0
 40
0.0
 40
1.0
 40
1.0
 40
1.0
 40
1.0
 10
532.4498610351034
 20
39.51634082666294
 30
0.0
 10
531.5527460351034
 20
39.51634082666294
 30
0.0
 10
531.1407022851035
 20
39.91462707666284
 30
0.0
 10
531.0359272851035
 20
40.46919332666283
 30
0.0
  0
LWPOLYLINE
  5
9F8
330
38D5
100
AcDbEntity
  8
TEXT
 62
     5
420
      255
370
    25
100
AcDbPolyline
 90
        2
 70
     0
 43
0.0
 10
528.0923497851034
 20
39.51634082666294
 10
528.0923497851034
 20
42.38830457666273
  0
LWPOLYLINE
  5
9F9
330
38D5
100
AcDbEntity
  8
TEXT
 62
     5
420
      255
370
    25
100
AcDbPolyline
 90
        3
 70
     0
 43
0.0
 10
532.3450860351036
 20
41.10525207666296
 10
530.9939460351034
 20
41.10525207666296
 10
530.9939460351034
 20
42.45215707666296
  0
LWPOLYLINE
  5
9FA
330
38D5
100
AcDbEntity
  8
TEXT
 62
     5
420
      255
370
    25
100
AcDbPolyline
 90
        2
 70
     0
 43
0.0
 10
496.6344497851035
 20
32.39693207666284
 10
494.8493935351034
 20
32.40046082666288
  0
SPLINE
  5
9FB
330
38D5
100
AcDbEntity
  8
TEXT
 62
     5
420
      255
370
    25
100
AcDbSpline
210
0.0
220
0.0
230
1.0
 70
     8
 71
     3
 72
     8
 73
     4
 74
     0
 42
0.000000001
 43
0.001
 12
1.0
 22
0.0
 32
0.0
 13
1.0
 23
0.0
 33
0.0
 40
0.0
 40
0.0
 40
0.0
 40
0.0
 40
1.0
 40
1.0
 40
1.0
 40
1.0
 10
496.4905160351034
 20
33.83556082666297
 30
0.0
 10
496.9685297851036
 20
33.83556082666297
 30
0.0
 10
497.3029635351036
 20
33.57732707666287
 30
0.0
 10
497.3029635351036
 20
33.08661332666293
 30
0.0
  0
SPLINE
  5
9FC
330
38D5
100
AcDbEntity
  8
TEXT
 62
     5
420
      255
370
    25
100
AcDbSpline
210
0.0
220
0.0
230
1.0
 70
     8
 71
     3
 72
     8
 73
     4
 74
     0
 42
0.000000001
 43
0.001
 12
1.0
 22
0.0
 32
0.0
 13
1.0
 23
0.0
 33
0.0
 40
0.0
 40
0.0
 40
0.0
 40
0.0
 40
1.0
 40
1.0
 40
1.0
 40
1.0
 10
497.3029635351036
 20
33.08661332666293
 30
0.0
 10
497.3029635351036
 20
32.73101332666278
 30
0.0
 10
496.9900497851036
 20
32.39269957666284
 30
0.0
 10
496.6344497851035
 20
32.40116582666298
 30
0.0
  0
LWPOLYLINE
  5
9FD
330
38D5
100
AcDbEntity
  8
TEXT
 62
     5
420
      255
370
    25
100
AcDbPolyline
 90
        2
 70
     0
 43
0.0
 10
494.8493935351034
 20
33.83556082666297
 10
496.4905160351034
 20
33.83556082666297
  0
SPLINE
  5
9FE
330
38D5
100
AcDbEntity
  8
TEXT
 62
     5
420
      255
370
    25
100
AcDbSpline
210
0.0
220
0.0
230
1.0
 70
     8
 71
     3
 72
     8
 73
     4
 74
     0
 42
0.000000001
 43
0.001
 12
1.0
 22
0.0
 32
0.0
 13
1.0
 23
0.0
 33
0.0
 40
0.0
 40
0.0
 40
0.0
 40
0.0
 40
1.0
 40
1.0
 40
1.0
 40
1.0
 10
496.6344497851035
 20
32.39305207666297
 30
0.0
 10
497.0277960351034
 20
32.37576582666293
 30
0.0
 10
497.3957435351035
 20
32.16445207666288
 30
0.0
 10
497.3957435351035
 20
31.63599082666275
 30
0.0
  0
SPLINE
  5
9FF
330
38D5
100
AcDbEntity
  8
TEXT
 62
     5
420
      255
370
    25
100
AcDbSpline
210
0.0
220
0.0
230
1.0
 70
     8
 71
     3
 72
     8
 73
     4
 74
     0
 42
0.000000001
 43
0.001
 12
1.0
 22
0.0
 32
0.0
 13
1.0
 23
0.0
 33
0.0
 40
0.0
 40
0.0
 40
0.0
 40
0.0
 40
1.0
 40
1.0
 40
1.0
 40
1.0
 10
497.3957435351035
 20
31.63599082666275
 30
0.0
 10
497.3957435351035
 20
31.28462457666296
 30
0.0
 10
497.1717297851035
 20
30.81472457666274
 30
0.0
 10
496.3808022851035
 20
30.81472457666274
 30
0.0
  0
LWPOLYLINE
  5
A00
330
38D5
100
AcDbEntity
  8
TEXT
 62
     5
420
      255
370
    25
100
AcDbPolyline
 90
        2
 70
     0
 43
0.0
 10
496.6344497851035
 20
32.40116582666298
 10
496.6344497851035
 20
32.39305207666297
  0
LWPOLYLINE
  5
A01
330
38D5
100
AcDbEntity
  8
TEXT
 62
     5
420
      255
370
    25
100
AcDbPolyline
 90
        4
 70
     0
 43
0.0
 10
496.3808022851035
 20
30.81472457666274
 10
494.8493935351034
 20
30.81472457666274
 10
494.8493935351034
 20
33.83556082666297
 10
494.8493935351034
 20
33.83556082666297
  0
LWPOLYLINE
  5
A02
330
38D5
100
AcDbEntity
  8
TEXT
 62
     5
420
      255
370
    25
100
AcDbPolyline
 90
        2
 70
     0
 43
0.0
 10
549.2142135351035
 20
36.51455457666287
 10
550.9999747851034
 20
36.51102707666274
  0
SPLINE
  5
A03
330
38D5
100
AcDbEntity
  8
TEXT
 62
     5
420
      255
370
    25
100
AcDbSpline
210
0.0
220
0.0
230
1.0
 70
     8
 71
     3
 72
     8
 73
     4
 74
     0
 42
0.000000001
 43
0.001
 12
1.0
 22
0.0
 32
0.0
 13
1.0
 23
0.0
 33
0.0
 40
0.0
 40
0.0
 40
0.0
 40
0.0
 40
1.0
 40
1.0
 40
1.0
 40
1.0
 10
549.3581460351036
 20
35.07592707666288
 30
0.0
 10
548.8804860351036
 20
35.07592707666288
 30
0.0
 10
548.5460522851035
 20
35.33345457666286
 30
0.0
 10
548.5460522851035
 20
35.82487457666286
 30
0.0
  0
SPLINE
  5
A04
330
38D5
100
AcDbEntity
  8
TEXT
 62
     5
420
      255
370
    25
100
AcDbSpline
210
0.0
220
0.0
230
1.0
 70
     8
 71
     3
 72
     8
 73
     4
 74
     0
 42
0.000000001
 43
0.001
 12
1.0
 22
0.0
 32
0.0
 13
1.0
 23
0.0
 33
0.0
 40
0.0
 40
0.0
 40
0.0
 40
0.0
 40
1.0
 40
1.0
 40
1.0
 40
1.0
 10
548.5460522851035
 20
35.82487457666286
 30
0.0
 10
548.5460522851035
 20
36.18047457666296
 30
0.0
 10
548.8586135351034
 20
36.51878832666284
 30
0.0
 10
549.2142135351035
 20
36.51032082666285
 30
0.0
  0
LWPOLYLINE
  5
A05
330
38D5
100
AcDbEntity
  8
TEXT
 62
     5
420
      255
370
    25
100
AcDbPolyline
 90
        2
 70
     0
 43
0.0
 10
550.9999747851034
 20
35.07592707666288
 10
549.3581460351036
 20
35.07592707666288
  0
SPLINE
  5
A06
330
38D5
100
AcDbEntity
  8
TEXT
 62
     5
420
      255
370
    25
100
AcDbSpline
210
0.0
220
0.0
230
1.0
 70
     8
 71
     3
 72
     8
 73
     4
 74
     0
 42
0.000000001
 43
0.001
 12
1.0
 22
0.0
 32
0.0
 13
1.0
 23
0.0
 33
0.0
 40
0.0
 40
0.0
 40
0.0
 40
0.0
 40
1.0
 40
1.0
 40
1.0
 40
1.0
 10
549.2142135351035
 20
36.51843582666288
 30
0.0
 10
548.8208660351036
 20
36.53501582666274
 30
0.0
 10
548.4529185351034
 20
36.74632957666284
 30
0.0
 10
548.4529185351034
 20
37.27549582666285
 30
0.0
  0
SPLINE
  5
A07
330
38D5
100
AcDbEntity
  8
TEXT
 62
     5
420
      255
370
    25
100
AcDbSpline
210
0.0
220
0.0
230
1.0
 70
     8
 71
     3
 72
     8
 73
     4
 74
     0
 42
0.000000001
 43
0.001
 12
1.0
 22
0.0
 32
0.0
 13
1.0
 23
0.0
 33
0.0
 40
0.0
 40
0.0
 40
0.0
 40
0.0
 40
1.0
 40
1.0
 40
1.0
 40
1.0
 10
548.4529185351034
 20
37.27549582666285
 30
0.0
 10
548.4529185351034
 20
37.62686332666294
 30
0.0
 10
548.6769322851035
 20
38.09605707666293
 30
0.0
 10
549.4682135351034
 20
38.09605707666293
 30
0.0
  0
LWPOLYLINE
  5
A08
330
38D5
100
AcDbEntity
  8
TEXT
 62
     5
420
      255
370
    25
100
AcDbPolyline
 90
        2
 70
     0
 43
0.0
 10
549.2142135351035
 20
36.51032082666285
 10
549.2142135351035
 20
36.51843582666288
  0
LWPOLYLINE
  5
A0B
330
38D5
100
AcDbEntity
  8
TEXT
 62
     5
420
      255
370
    25
100
AcDbPolyline
 90
        4
 70
     0
 43
0.0
 10
549.4682135351034
 20
38.09605707666293
 10
550.9999747851034
 20
38.09605707666293
 10
550.9999747851034
 20
35.07592707666288
 10
550.9999747851034
 20
35.07592707666288
  0
LWPOLYLINE
  5
1152
330
38D5
100
AcDbEntity
  8
TEXT
 62
     5
420
      255
370
    25
100
AcDbPolyline
 90
        2
 70
     0
 43
0.0
 10
265.3363194452863
 20
81.5006837523024
 10
266.8021106952863
 20
82.2986675023023
  0
LWPOLYLINE
  5
1153
330
38D5
100
AcDbEntity
  8
TEXT
 62
     5
420
      255
370
    25
100
AcDbPolyline
 90
        4
 70
     0
 43
0.0
 10
268.4375894452864
 20
79.29088375230225
 10
266.9728556952864
 20
78.49290125230249
 10
265.3363194452863
 20
81.5006837523024
 10
265.3363194452863
 20
81.5006837523024
  0
SPLINE
  5
1154
330
38D5
100
AcDbEntity
  8
TEXT
 62
     5
420
      255
370
    25
100
AcDbSpline
210
0.0
220
0.0
230
1.0
 70
     8
 71
     3
 72
     8
 73
     4
 74
     0
 42
0.000000001
 43
0.001
 12
1.0
 22
0.0
 32
0.0
 13
1.0
 23
0.0
 33
0.0
 40
0.0
 40
0.0
 40
0.0
 40
0.0
 40
1.0
 40
1.0
 40
1.0
 40
1.0
 10
259.4974944452865
 20
60.48677000230236
 30
0.0
 10
259.4974944452865
 20
70.92758125230239
 30
0.0
 10
268.0160194452862
 20
79.43305375230238
 30
0.0
 10
278.4561256952863
 20
79.43305375230238
 30
0.0
  0
LWPOLYLINE
  5
1155
330
38D5
100
AcDbEntity
  8
TEXT
 62
     5
420
      255
370
    25
100
AcDbPolyline
 90
        2
 70
     0
 43
0.0
 10
262.4872856952866
 20
63.47656250230239
 10
259.4974944452865
 20
60.48677000230236
  0
SPLINE
  5
1156
330
38D5
100
AcDbEntity
  8
TEXT
 62
     5
420
      255
370
    25
100
AcDbSpline
210
0.0
220
0.0
230
1.0
 70
     8
 71
     3
 72
     8
 73
     4
 74
     0
 42
0.000000001
 43
0.001
 12
1.0
 22
0.0
 32
0.0
 13
1.0
 23
0.0
 33
0.0
 40
0.0
 40
0.0
 40
0.0
 40
0.0
 40
1.0
 40
1.0
 40
1.0
 40
1.0
 10
258.9976081952864
 20
60.48641750230229
 30
0.0
 10
258.9976081952864
 20
71.2295587523023
 30
0.0
 10
267.7122781952864
 20
79.98268125230248
 30
0.0
 10
278.4561256952863
 20
79.98268125230248
 30
0.0
  0
LWPOLYLINE
  5
1157
330
38D5
100
AcDbEntity
  8
TEXT
 62
     5
420
      255
370
    25
100
AcDbPolyline
 90
        2
 70
     0
 43
0.0
 10
255.9968806952866
 20
63.48608750230238
 10
258.9976081952864
 20
60.48641750230229
  0
LWPOLYLINE
  5
1158
330
38D5
100
AcDbEntity
  8
TEXT
 62
     5
420
      255
370
    25
100
AcDbPolyline
 90
        3
 70
     0
 43
0.0
 10
262.7243531952863
 20
63.10367625230236
 10
259.2470219452862
 20
59.6263450023024
 10
255.7693394452863
 20
63.10367625230236
  0
LWPOLYLINE
  5
115F
330
38D5
100
AcDbEntity
  8
TEXT
 62
     5
420
      255
370
    25
100
AcDbPolyline
 90
        2
 70
     0
 43
0.0
 10
257.1190669452862
 20
73.39843750230239
 10
257.9865469452861
 20
71.24120125230229
  0
LWPOLYLINE
  5
1160
330
38D5
100
AcDbEntity
  8
TEXT
 62
     5
420
      255
370
    25
100
AcDbPolyline
 90
        2
 70
     0
 43
0.0
 10
260.1356694452866
 20
71.77707000230248
 10
257.9865469452861
 20
71.24120125230229
  0
LWPOLYLINE
  5
1161
330
38D5
100
AcDbEntity
  8
TEXT
 62
     5
420
      255
370
    25
100
AcDbPolyline
 90
        3
 70
     0
 43
0.0
 10
258.7795919452865
 20
69.12171250230239
 10
257.9865469452861
 20
71.24120125230229
 10
255.7541694452862
 20
70.72508750230236
  0
SPLINE
  5
1162
330
38D5
100
AcDbEntity
  8
TEXT
 62
     5
420
      255
370
    25
100
AcDbSpline
210
0.0
220
0.0
230
1.0
 70
     8
 71
     3
 72
     8
 73
     4
 74
     0
 42
0.000000001
 43
0.001
 12
1.0
 22
0.0
 32
0.0
 13
1.0
 23
0.0
 33
0.0
 40
0.0
 40
0.0
 40
0.0
 40
0.0
 40
1.0
 40
1.0
 40
1.0
 40
1.0
 10
265.7547144452863
 20
79.35720625230238
 30
0.0
 10
266.2948169452864
 20
78.65376750230229
 30
0.0
 10
266.1681694452864
 20
78.00042375230237
 30
0.0
 10
265.3804169452862
 20
77.39540875230239
 30
0.0
  0
SPLINE
  5
1163
330
38D5
100
AcDbEntity
  8
TEXT
 62
     5
420
      255
370
    25
100
AcDbSpline
210
0.0
220
0.0
230
1.0
 70
     8
 71
     3
 72
     8
 73
     4
 74
     0
 42
0.000000001
 43
0.001
 12
1.0
 22
0.0
 32
0.0
 13
1.0
 23
0.0
 33
0.0
 40
0.0
 40
0.0
 40
0.0
 40
0.0
 40
1.0
 40
1.0
 40
1.0
 40
1.0
 10
265.3804169452862
 20
77.39540875230239
 30
0.0
 10
264.5930169452863
 20
76.79145375230229
 30
0.0
 10
263.9294419452863
 20
76.83731500230249
 30
0.0
 10
263.3893394452862
 20
77.5407537523023
 30
0.0
  0
LWPOLYLINE
  5
1164
330
38D5
100
AcDbEntity
  8
TEXT
 62
     5
420
      255
370
    25
100
AcDbPolyline
 90
        2
 70
     0
 43
0.0
 10
264.4317969452864
 20
81.08052625230226
 10
265.7547144452863
 20
79.35720625230238
  0
LWPOLYLINE
  5
1165
330
38D5
100
AcDbEntity
  8
TEXT
 62
     5
420
      255
370
    25
100
AcDbPolyline
 90
        2
 70
     0
 43
0.0
 10
263.3893394452862
 20
77.5407537523023
 10
262.0664219452865
 20
79.26407375230247
  0
LWPOLYLINE
  5
1166
330
38D5
100
AcDbEntity
  8
TEXT
 62
     5
420
      255
370
    25
100
AcDbPolyline
 90
        2
 70
     0
 43
0.0
 10
260.9830419452865
 20
72.80400625230249
 10
258.2200856952863
 20
74.82542375230236
  0
LWPOLYLINE
  5
1167
330
38D5
100
AcDbEntity
  8
TEXT
 62
     5
420
      255
370
    25
100
AcDbPolyline
 90
        2
 70
     0
 43
0.0
 10
257.3430806952865
 20
73.62668375230237
 10
259.0868606952863
 20
76.01005125230239
  0
SPLINE
  5
1168
330
38D5
100
AcDbEntity
  8
TEXT
 62
     5
420
      255
370
    25
100
AcDbSpline
210
0.0
220
0.0
230
1.0
 70
     8
 71
     3
 72
     8
 73
     4
 74
     0
 42
0.000000001
 43
0.001
 12
1.0
 22
0.0
 32
0.0
 13
1.0
 23
0.0
 33
0.0
 40
0.0
 40
0.0
 40
0.0
 40
0.0
 40
1.0
 40
1.0
 40
1.0
 40
1.0
 10
260.6785944452863
 20
77.87871500230239
 30
0.0
 10
261.1424969452864
 20
78.38354000230237
 30
0.0
 10
261.5577169452863
 20
78.3539062523023
 30
0.0
 10
262.0064506952863
 20
77.94186250230246
 30
0.0
  0
SPLINE
  5
1169
330
38D5
100
AcDbEntity
  8
TEXT
 62
     5
420
      255
370
    25
100
AcDbSpline
210
0.0
220
0.0
230
1.0
 70
     8
 71
     3
 72
     8
 73
     4
 74
     0
 42
0.000000001
 43
0.001
 12
1.0
 22
0.0
 32
0.0
 13
1.0
 23
0.0
 33
0.0
 40
0.0
 40
0.0
 40
0.0
 40
0.0
 40
1.0
 40
1.0
 40
1.0
 40
1.0
 10
262.0064506952863
 20
77.94186250230246
 30
0.0
 10
262.2463394452861
 20
77.72067000230226
 30
0.0
 10
262.4329581952866
 20
77.25006500230228
 30
0.0
 10
262.0547806952864
 20
76.7896900023024
 30
0.0
  0
LWPOLYLINE
  5
116A
330
38D5
100
AcDbEntity
  8
TEXT
 62
     5
420
      255
370
    25
100
AcDbPolyline
 90
        3
 70
     0
 43
0.0
 10
261.9242531952864
 20
74.17490125230228
 10
259.4033031952863
 20
76.49159250230235
 10
260.6785944452863
 20
77.87871500230239
  0
SPLINE
  5
116B
330
38D5
100
AcDbEntity
  8
TEXT
 62
     5
420
      255
370
    25
100
AcDbSpline
210
0.0
220
0.0
230
1.0
 70
     8
 71
     3
 72
     8
 73
     4
 74
     0
 42
0.000000001
 43
0.001
 12
1.0
 22
0.0
 32
0.0
 13
1.0
 23
0.0
 33
0.0
 40
0.0
 40
0.0
 40
0.0
 40
0.0
 40
1.0
 40
1.0
 40
1.0
 40
1.0
 10
262.0586606952866
 20
76.77945875230239
 30
0.0
 10
262.4192006952862
 20
77.16469250230239
 30
0.0
 10
262.7546919452861
 20
77.16857375230228
 30
0.0
 10
263.1004144452863
 20
76.85036750230228
 30
0.0
  0
SPLINE
  5
116C
330
38D5
100
AcDbEntity
  8
TEXT
 62
     5
420
      255
370
    25
100
AcDbSpline
210
0.0
220
0.0
230
1.0
 70
     8
 71
     3
 72
     8
 73
     4
 74
     0
 42
0.000000001
 43
0.001
 12
1.0
 22
0.0
 32
0.0
 13
1.0
 23
0.0
 33
0.0
 40
0.0
 40
0.0
 40
0.0
 40
0.0
 40
1.0
 40
1.0
 40
1.0
 40
1.0
 10
263.1004144452863
 20
76.85036750230228
 30
0.0
 10
263.1921356952862
 20
76.76640625230226
 30
0.0
 10
263.7008419452864
 20
76.31308750230227
 30
0.0
 10
263.8483031952862
 20
76.2682837523023
 30
0.0
  0
LWPOLYLINE
  5
116D
330
38D5
100
AcDbEntity
  8
TEXT
 62
     5
420
      255
370
    25
100
AcDbPolyline
 90
        3
 70
     0
 43
0.0
 10
262.0547806952864
 20
76.7896900023024
 10
262.0586606952866
 20
76.77945875230239
 10
260.7036419452866
 20
75.29673375230226
  0
LWPOLYLINE
  5
116E
330
38D5
100
AcDbEntity
  8
TEXT
 62
     5
420
      255
370
    25
100
AcDbPolyline
 90
        2
 70
     0
 43
0.0
 10
256.1461056952862
 20
67.20224875230218
 10
257.0082944452865
 20
69.60784000230228
  0
LWPOLYLINE
  5
116F
330
38D5
100
AcDbEntity
  8
TEXT
 62
     5
420
      255
370
    25
100
AcDbPolyline
 90
        4
 70
     0
 43
0.0
 10
258.7795919452865
 20
69.12100625230227
 10
257.8708356952861
 20
66.58453375230238
 10
254.6475056952863
 20
67.73882375230227
 10
255.5467356952863
 20
70.24848375230238
  0
LWPOLYLINE
  5
1170
330
38D5
100
AcDbEntity
  8
TEXT
 62
     5
420
      255
370
    25
100
AcDbPolyline
 90
        2
 70
     0
 43
0.0
 10
269.5269669452864
 20
81.81536250230238
 10
271.9269144452865
 20
82.69272000230228
  0
LWPOLYLINE
  5
1171
330
38D5
100
AcDbEntity
  8
TEXT
 62
     5
420
      255
370
    25
100
AcDbPolyline
 90
        4
 70
     0
 43
0.0
 10
272.6860919452863
 20
81.02055375230236
 10
270.1552644452863
 20
80.09486500230236
 10
268.9798081952863
 20
83.31078750230239
 10
271.4838256952864
 20
84.2255400023023
  0
SPLINE
  5
1172
330
38D5
100
AcDbEntity
  8
TEXT
 62
     5
420
      255
370
    25
100
AcDbSpline
210
0.0
220
0.0
230
1.0
 70
     8
 71
     3
 72
     8
 73
     4
 74
     0
 42
0.000000001
 43
0.001
 12
1.0
 22
0.0
 32
0.0
 13
1.0
 23
0.0
 33
0.0
 40
0.0
 40
0.0
 40
0.0
 40
0.0
 40
1.0
 40
1.0
 40
1.0
 40
1.0
 10
266.8021106952863
 20
82.2986675023023
 30
0.0
 10
267.6314919452864
 20
82.74987000230249
 30
0.0
 10
268.3867894452862
 20
82.37451500230236
 30
0.0
 10
268.8753856952862
 20
81.47740125230246
 30
0.0
  0
SPLINE
  5
1173
330
38D5
100
AcDbEntity
  8
TEXT
 62
     5
420
      255
370
    25
100
AcDbSpline
210
0.0
220
0.0
230
1.0
 70
     8
 71
     3
 72
     8
 73
     4
 74
     0
 42
0.000000001
 43
0.001
 12
1.0
 22
0.0
 32
0.0
 13
1.0
 23
0.0
 33
0.0
 40
0.0
 40
0.0
 40
0.0
 40
0.0
 40
1.0
 40
1.0
 40
1.0
 40
1.0
 10
268.8753856952862
 20
81.47740125230246
 30
0.0
 10
269.3629256952863
 20
80.58028750230227
 30
0.0
 10
269.2680281952864
 20
79.7420875023023
 30
0.0
 10
268.4375894452864
 20
79.29088375230225
 30
0.0
  0
LWPOLYLINE
  5
17FA
330
38D5
100
AcDbEntity
  8
TEXT
 62
     5
420
      255
370
    25
100
AcDbPolyline
 90
        2
 70
     0
 43
0.0
 10
104.34725875
 20
55.6693624999985
 10
104.3437300000001
 20
53.88430624999859
  0
SPLINE
  5
17FC
330
38D5
100
AcDbEntity
  8
TEXT
 62
     5
420
      255
370
    25
100
AcDbSpline
210
0.0
220
0.0
230
1.0
 70
     8
 71
     3
 72
     8
 73
     4
 74
     0
 42
0.000000001
 43
0.001
 12
1.0
 22
0.0
 32
0.0
 13
1.0
 23
0.0
 33
0.0
 40
0.0
 40
0.0
 40
0.0
 40
0.0
 40
1.0
 40
1.0
 40
1.0
 40
1.0
 10
102.908630000001
 20
55.52613374999839
 30
0.0
 10
102.908630000001
 20
56.00414874999859
 30
0.0
 10
103.1665112500009
 20
56.33822874999839
 30
0.0
 10
103.6575774999999
 20
56.33822874999839
 30
0.0
  0
SPLINE
  5
17FF
330
38D5
100
AcDbEntity
  8
TEXT
 62
     5
420
      255
370
    25
100
AcDbSpline
210
0.0
220
0.0
230
1.0
 70
     8
 71
     3
 72
     8
 73
     4
 74
     0
 42
0.000000001
 43
0.001
 12
1.0
 22
0.0
 32
0.0
 13
1.0
 23
0.0
 33
0.0
 40
0.0
 40
0.0
 40
0.0
 40
0.0
 40
1.0
 40
1.0
 40
1.0
 40
1.0
 10
103.6575774999999
 20
56.33822874999839
 30
0.0
 10
104.0131775
 20
56.33822874999839
 30
0.0
 10
104.35149125
 20
56.02496249999859
 30
0.0
 10
104.3430249999999
 20
55.6693624999985
 30
0.0
  0
LWPOLYLINE
  5
1801
330
38D5
100
AcDbEntity
  8
TEXT
 62
     5
420
      255
370
    25
100
AcDbPolyline
 90
        2
 70
     0
 43
0.0
 10
102.908630000001
 20
53.88465874999849
 10
102.908630000001
 20
55.52613374999839
  0
SPLINE
  5
1803
330
38D5
100
AcDbEntity
  8
TEXT
 62
     5
420
      255
370
    25
100
AcDbSpline
210
0.0
220
0.0
230
1.0
 70
     8
 71
     3
 72
     8
 73
     4
 74
     0
 42
0.000000001
 43
0.001
 12
1.0
 22
0.0
 32
0.0
 13
1.0
 23
0.0
 33
0.0
 40
0.0
 40
0.0
 40
0.0
 40
0.0
 40
1.0
 40
1.0
 40
1.0
 40
1.0
 10
104.35149125
 20
55.6693624999985
 30
0.0
 10
104.3684249999999
 20
56.06306249999847
 30
0.0
 10
104.580091250001
 20
56.4313624999985
 30
0.0
 10
105.108552500001
 20
56.4313624999985
 30
0.0
  0
SPLINE
  5
1805
330
38D5
100
AcDbEntity
  8
TEXT
 62
     5
420
      255
370
    25
100
AcDbSpline
210
0.0
220
0.0
230
1.0
 70
     8
 71
     3
 72
     8
 73
     4
 74
     0
 42
0.000000001
 43
0.001
 12
1.0
 22
0.0
 32
0.0
 13
1.0
 23
0.0
 33
0.0
 40
0.0
 40
0.0
 40
0.0
 40
0.0
 40
1.0
 40
1.0
 40
1.0
 40
1.0
 10
105.108552500001
 20
56.4313624999985
 30
0.0
 10
105.459918750001
 20
56.4313624999985
 30
0.0
 10
105.929818750001
 20
56.2066424999984
 30
0.0
 10
105.929818750001
 20
55.41571499999839
 30
0.0
  0
LWPOLYLINE
  5
1807
330
38D5
100
AcDbEntity
  8
TEXT
 62
     5
420
      255
370
    25
100
AcDbPolyline
 90
        2
 70
     0
 43
0.0
 10
104.3430249999999
 20
55.6693624999985
 10
104.35149125
 20
55.6693624999985
  0
SPLINE
  5
1809
330
38D5
100
AcDbEntity
  8
TEXT
 62
     5
420
      255
370
    25
100
AcDbSpline
210
0.0
220
0.0
230
1.0
 70
     8
 71
     3
 72
     8
 73
     4
 74
     0
 42
0.000000001
 43
0.001
 12
1.0
 22
0.0
 32
0.0
 13
1.0
 23
0.0
 33
0.0
 40
0.0
 40
0.0
 40
0.0
 40
0.0
 40
1.0
 40
1.0
 40
1.0
 40
1.0
 10
103.4928299999999
 20
51.4501399999985
 30
0.0
 10
103.37853
 20
51.9076924999984
 30
0.0
 10
103.137230000001
 20
52.2121399999985
 30
0.0
 10
102.9297974999999
 20
52.38993999999849
 30
0.0
  0
LWPOLYLINE
  5
180B
330
38D5
100
AcDbEntity
  8
TEXT
 62
     5
420
      255
370
    25
100
AcDbPolyline
 90
        4
 70
     0
 43
0.0
 10
105.929818750001
 20
55.41571499999839
 10
105.929818750001
 20
53.88430624999859
 10
102.908630000001
 20
53.88430624999859
 10
102.908630000001
 20
53.88465874999849
  0
SPLINE
  5
180D
330
38D5
100
AcDbEntity
  8
TEXT
 62
     5
420
      255
370
    25
100
AcDbSpline
210
0.0
220
0.0
230
1.0
 70
     8
 71
     3
 72
     8
 73
     4
 74
     0
 42
0.000000001
 43
0.001
 12
1.0
 22
0.0
 32
0.0
 13
1.0
 23
0.0
 33
0.0
 40
0.0
 40
0.0
 40
0.0
 40
0.0
 40
1.0
 40
1.0
 40
1.0
 40
1.0
 10
103.4928299999999
 20
48.95000374999847
 30
0.0
 10
103.37853
 20
49.40720374999859
 30
0.0
 10
103.137230000001
 20
49.71200374999847
 30
0.0
 10
102.9297974999999
 20
49.8894512499985
 30
0.0
  0
LWPOLYLINE
  5
180F
330
38D5
100
AcDbEntity
  8
TEXT
 62
     5
420
      255
370
    25
100
AcDbPolyline
 90
        3
 70
     0
 43
0.0
 10
102.9297974999999
 20
52.38993999999849
 10
102.9297974999999
 20
52.4993012499985
 10
105.9083000000001
 20
52.4993012499985
  0
LWPOLYLINE
  5
1811
330
38D5
100
AcDbEntity
  8
TEXT
 62
     5
420
      255
370
    25
100
AcDbPolyline
 90
        3
 70
     0
 43
0.0
 10
102.9297974999999
 20
49.8894512499985
 10
102.9297974999999
 20
49.99951749999849
 10
105.9083000000001
 20
49.99951749999849
  0
SPLINE
  5
1867
330
38D5
100
AcDbEntity
  8
TEXT
 62
     5
420
      255
370
    25
100
AcDbSpline
210
0.0
220
0.0
230
1.0
 70
     8
 71
     3
 72
     8
 73
     4
 74
     0
 42
0.000000001
 43
0.001
 12
1.0
 22
0.0
 32
0.0
 13
1.0
 23
0.0
 33
0.0
 40
0.0
 40
0.0
 40
0.0
 40
0.0
 40
1.0
 40
1.0
 40
1.0
 40
1.0
 10
228.9653024999999
 20
62.23102874999779
 30
0.0
 10
229.0792499999999
 20
61.77312249999807
 30
0.0
 10
229.3205499999999
 20
61.46867499999797
 30
0.0
 10
229.5283362499999
 20
61.2908749999981
 30
0.0
  0
SPLINE
  5
1869
330
38D5
100
AcDbEntity
  8
TEXT
 62
     5
420
      255
370
    25
100
AcDbSpline
210
0.0
220
0.0
230
1.0
 70
     8
 71
     3
 72
     8
 73
     4
 74
     0
 42
0.000000001
 43
0.001
 12
1.0
 22
0.0
 32
0.0
 13
1.0
 23
0.0
 33
0.0
 40
0.0
 40
0.0
 40
0.0
 40
0.0
 40
1.0
 40
1.0
 40
1.0
 40
1.0
 10
228.9653024999999
 20
59.73053999999786
 30
0.0
 10
229.0792499999999
 20
59.27298624999787
 30
0.0
 10
229.3205499999999
 20
58.9681862499981
 30
0.0
 10
229.5283362499999
 20
58.7907399999981
 30
0.0
  0
LWPOLYLINE
  5
186A
330
38D5
100
AcDbEntity
  8
TEXT
 62
     5
420
      255
370
    25
100
AcDbPolyline
 90
        3
 70
     0
 43
0.0
 10
229.5283362499999
 20
61.2908749999981
 10
229.5283362499999
 20
61.18151499999811
 10
226.5498325
 20
61.18151499999811
  0
LWPOLYLINE
  5
186B
330
38D5
100
AcDbEntity
  8
TEXT
 62
     5
420
      255
370
    25
100
AcDbPolyline
 90
        3
 70
     0
 43
0.0
 10
229.5283362499999
 20
58.7907399999981
 10
229.5283362499999
 20
58.68067249999797
 10
226.5498325
 20
58.68067249999797
  0
SPLINE
  5
186C
330
38D5
100
AcDbEntity
  8
TEXT
 62
     5
420
      255
370
    25
100
AcDbSpline
210
0.0
220
0.0
230
1.0
 70
     8
 71
     3
 72
     8
 73
     4
 74
     0
 42
0.000000001
 43
0.001
 12
1.0
 22
0.0
 32
0.0
 13
1.0
 23
0.0
 33
0.0
 40
0.0
 40
0.0
 40
0.0
 40
0.0
 40
1.0
 40
1.0
 40
1.0
 40
1.0
 10
229.5491499999999
 20
55.6548974999979
 30
0.0
 10
229.5491499999999
 20
55.17653124999799
 30
0.0
 10
229.29126875
 20
54.842449999998
 30
0.0
 10
228.8002025
 20
54.842449999998
 30
0.0
  0
SPLINE
  5
186D
330
38D5
100
AcDbEntity
  8
TEXT
 62
     5
420
      255
370
    25
100
AcDbSpline
210
0.0
220
0.0
230
1.0
 70
     8
 71
     3
 72
     8
 73
     4
 74
     0
 42
0.000000001
 43
0.001
 12
1.0
 22
0.0
 32
0.0
 13
1.0
 23
0.0
 33
0.0
 40
0.0
 40
0.0
 40
0.0
 40
0.0
 40
1.0
 40
1.0
 40
1.0
 40
1.0
 10
228.8002025
 20
54.842449999998
 30
0.0
 10
228.4446025
 20
54.842449999998
 30
0.0
 10
228.10628875
 20
55.1560699999979
 30
0.0
 10
228.1147549999999
 20
55.51131749999797
 30
0.0
  0
LWPOLYLINE
  5
186E
330
38D5
100
AcDbEntity
  8
TEXT
 62
     5
420
      255
370
    25
100
AcDbPolyline
 90
        2
 70
     0
 43
0.0
 10
229.5491499999999
 20
57.29672499999799
 10
229.5491499999999
 20
55.6548974999979
  0
SPLINE
  5
186F
330
38D5
100
AcDbEntity
  8
TEXT
 62
     5
420
      255
370
    25
100
AcDbSpline
210
0.0
220
0.0
230
1.0
 70
     8
 71
     3
 72
     8
 73
     4
 74
     0
 42
0.000000001
 43
0.001
 12
1.0
 22
0.0
 32
0.0
 13
1.0
 23
0.0
 33
0.0
 40
0.0
 40
0.0
 40
0.0
 40
0.0
 40
1.0
 40
1.0
 40
1.0
 40
1.0
 10
228.1066412499999
 20
55.51131749999797
 30
0.0
 10
228.0897074999999
 20
55.1172649999981
 30
0.0
 10
227.87839375
 20
54.7493174999978
 30
0.0
 10
227.3495799999999
 20
54.7493174999978
 30
0.0
  0
SPLINE
  5
1870
330
38D5
100
AcDbEntity
  8
TEXT
 62
     5
420
      255
370
    25
100
AcDbSpline
210
0.0
220
0.0
230
1.0
 70
     8
 71
     3
 72
     8
 73
     4
 74
     0
 42
0.000000001
 43
0.001
 12
1.0
 22
0.0
 32
0.0
 13
1.0
 23
0.0
 33
0.0
 40
0.0
 40
0.0
 40
0.0
 40
0.0
 40
1.0
 40
1.0
 40
1.0
 40
1.0
 10
227.3495799999999
 20
54.7493174999978
 30
0.0
 10
226.99821375
 20
54.7493174999978
 30
0.0
 10
226.5286662499999
 20
54.97403624999799
 30
0.0
 10
226.5286662499999
 20
55.76496499999797
 30
0.0
  0
LWPOLYLINE
  5
1871
330
38D5
100
AcDbEntity
  8
TEXT
 62
     5
420
      255
370
    25
100
AcDbPolyline
 90
        2
 70
     0
 43
0.0
 10
228.1147549999999
 20
55.51131749999797
 10
228.1066412499999
 20
55.51131749999797
  0
LWPOLYLINE
  5
1872
330
38D5
100
AcDbEntity
  8
TEXT
 62
     5
420
      255
370
    25
100
AcDbPolyline
 90
        4
 70
     0
 43
0.0
 10
226.5286662499999
 20
55.76496499999797
 10
226.5286662499999
 20
57.29672499999799
 10
229.5491499999999
 20
57.29672499999799
 10
229.5491499999999
 20
57.29672499999799
  0
LWPOLYLINE
  5
1873
330
38D5
100
AcDbEntity
  8
TEXT
 62
     5
420
      255
370
    25
100
AcDbPolyline
 90
        2
 70
     0
 43
0.0
 10
228.1105212499999
 20
55.51131749999797
 10
228.1140499999999
 20
57.29672499999799
  0
LINE
  5
2FA1
330
38D5
100
AcDbEntity
  8
laser bed referance
100
AcDbLine
 10
0.0
 20
304.8000000000001
 30
0.0
 11
609.5999999999999
 21
304.8000000000001
 31
0.0
  0
LINE
  5
2FA2
330
38D5
100
AcDbEntity
  8
laser bed referance
100
AcDbLine
 10
0.0
 20
0.0000000000000142
 30
0.0
 11
0.0
 21
304.8000000000001
 31
0.0
  0
LINE
  5
2FA3
330
38D5
100
AcDbEntity
  8
laser bed referance
100
AcDbLine
 10
609.5999999999999
 20
0.0000000000000142
 30
0.0
 11
609.5999999999999
 21
304.8000000000001
 31
0.0
  0
LINE
  5
2FA4
330
38D5
100
AcDbEntity
  8
laser bed referance
100
AcDbLine
 10
0.0
 20
0.0000000000000142
 30
0.0
 11
609.5999999999999
 21
0.0000000000000142
 31
0.0
  0
SPLINE
  5
3835
330
38D5
100
AcDbEntity
  8
TEXT
 62
     5
420
      255
370
    25
100
AcDbSpline
210
0.0
220
0.0
230
1.0
 70
     8
 71
     3
 72
     8
 73
     4
 74
     0
 42
0.000000001
 43
0.001
 12
1.0
 22
0.0
 32
0.0
 13
1.0
 23
0.0
 33
0.0
 40
0.0
 40
0.0
 40
0.0
 40
0.0
 40
1.0
 40
1.0
 40
1.0
 40
1.0
 10
529.659926454852
 20
221.436307194004
 30
0.0
 10
529.571026454852
 20
220.628093444004
 30
0.0
 10
528.8432464548521
 20
220.2227521940041
 30
0.0
 10
528.1450989548521
 20
220.2227521940041
 30
0.0
  0
SPLINE
  5
3836
330
38D5
100
AcDbEntity
  8
TEXT
 62
     5
420
      255
370
    25
100
AcDbSpline
210
0.0
220
0.0
230
1.0
 70
     8
 71
     3
 72
     8
 73
     4
 74
     0
 42
0.000000001
 43
0.001
 12
1.0
 22
0.0
 32
0.0
 13
1.0
 23
0.0
 33
0.0
 40
0.0
 40
0.0
 40
0.0
 40
0.0
 40
1.0
 40
1.0
 40
1.0
 40
1.0
 10
528.1450989548521
 20
220.2227521940041
 30
0.0
 10
527.2814989548522
 20
220.2227521940041
 30
0.0
 10
526.579117704852
 20
220.8020134440041
 30
0.0
 10
526.579117704852
 20
221.8007271940041
 30
0.0
  0
SPLINE
  5
3837
330
38D5
100
AcDbEntity
  8
TEXT
 62
     5
420
      255
370
    25
100
AcDbSpline
210
0.0
220
0.0
230
1.0
 70
     8
 71
     3
 72
     8
 73
     4
 74
     0
 42
0.000000001
 43
0.001
 12
1.0
 22
0.0
 32
0.0
 13
1.0
 23
0.0
 33
0.0
 40
0.0
 40
0.0
 40
0.0
 40
0.0
 40
1.0
 40
1.0
 40
1.0
 40
1.0
 10
526.579117704852
 20
221.8007271940041
 30
0.0
 10
526.579117704852
 20
222.799088444004
 30
0.0
 10
527.2814989548522
 20
223.378349694004
 30
0.0
 10
528.1450989548521
 20
223.378349694004
 30
0.0
  0
SPLINE
  5
3838
330
38D5
100
AcDbEntity
  8
TEXT
 62
     5
420
      255
370
    25
100
AcDbSpline
210
0.0
220
0.0
230
1.0
 70
     8
 71
     3
 72
     8
 73
     4
 74
     0
 42
0.000000001
 43
0.001
 12
1.0
 22
0.0
 32
0.0
 13
1.0
 23
0.0
 33
0.0
 40
0.0
 40
0.0
 40
0.0
 40
0.0
 40
1.0
 40
1.0
 40
1.0
 40
1.0
 10
528.1450989548521
 20
223.378349694004
 30
0.0
 10
528.860178954852
 20
223.378349694004
 30
0.0
 10
529.427798954852
 20
223.086954694004
 30
0.0
 10
529.5883127048521
 20
222.431140944004
 30
0.0
  0
SPLINE
  5
3849
330
38D5
100
AcDbEntity
  8
TEXT
 62
     5
420
      255
370
    25
100
AcDbSpline
210
0.0
220
0.0
230
1.0
 70
     8
 71
     3
 72
     8
 73
     4
 74
     0
 42
0.000000001
 43
0.001
 12
1.0
 22
0.0
 32
0.0
 13
1.0
 23
0.0
 33
0.0
 40
0.0
 40
0.0
 40
0.0
 40
0.0
 40
1.0
 40
1.0
 40
1.0
 40
1.0
 10
541.4875077048521
 20
221.436307194004
 30
0.0
 10
541.3986077048521
 20
220.628093444004
 30
0.0
 10
540.6708277048522
 20
220.2227521940041
 30
0.0
 10
539.9726802048522
 20
220.2227521940041
 30
0.0
  0
SPLINE
  5
384A
330
38D5
100
AcDbEntity
  8
TEXT
 62
     5
420
      255
370
    25
100
AcDbSpline
210
0.0
220
0.0
230
1.0
 70
     8
 71
     3
 72
     8
 73
     4
 74
     0
 42
0.000000001
 43
0.001
 12
1.0
 22
0.0
 32
0.0
 13
1.0
 23
0.0
 33
0.0
 40
0.0
 40
0.0
 40
0.0
 40
0.0
 40
1.0
 40
1.0
 40
1.0
 40
1.0
 10
539.9726802048522
 20
220.2227521940041
 30
0.0
 10
539.1090802048523
 20
220.2227521940041
 30
0.0
 10
538.4066989548521
 20
220.8020134440041
 30
0.0
 10
538.4066989548521
 20
221.8007271940041
 30
0.0
  0
SPLINE
  5
384B
330
38D5
100
AcDbEntity
  8
TEXT
 62
     5
420
      255
370
    25
100
AcDbSpline
210
0.0
220
0.0
230
1.0
 70
     8
 71
     3
 72
     8
 73
     4
 74
     0
 42
0.000000001
 43
0.001
 12
1.0
 22
0.0
 32
0.0
 13
1.0
 23
0.0
 33
0.0
 40
0.0
 40
0.0
 40
0.0
 40
0.0
 40
1.0
 40
1.0
 40
1.0
 40
1.0
 10
538.4066989548521
 20
221.8007271940041
 30
0.0
 10
538.4066989548521
 20
222.799088444004
 30
0.0
 10
539.1090802048523
 20
223.378349694004
 30
0.0
 10
539.9726802048522
 20
223.378349694004
 30
0.0
  0
SPLINE
  5
384C
330
38D5
100
AcDbEntity
  8
TEXT
 62
     5
420
      255
370
    25
100
AcDbSpline
210
0.0
220
0.0
230
1.0
 70
     8
 71
     3
 72
     8
 73
     4
 74
     0
 42
0.000000001
 43
0.001
 12
1.0
 22
0.0
 32
0.0
 13
1.0
 23
0.0
 33
0.0
 40
0.0
 40
0.0
 40
0.0
 40
0.0
 40
1.0
 40
1.0
 40
1.0
 40
1.0
 10
539.9726802048522
 20
223.378349694004
 30
0.0
 10
540.6877602048521
 20
223.378349694004
 30
0.0
 10
541.2553802048521
 20
223.086954694004
 30
0.0
 10
541.4158939548522
 20
222.431140944004
 30
0.0
  0
SPLINE
  5
3853
330
38D5
100
AcDbEntity
  8
TEXT
 62
     5
420
      255
370
    25
100
AcDbSpline
210
0.0
220
0.0
230
1.0
 70
     8
 71
     3
 72
     8
 73
     4
 74
     0
 42
0.000000001
 43
0.001
 12
1.0
 22
0.0
 32
0.0
 13
1.0
 23
0.0
 33
0.0
 40
0.0
 40
0.0
 40
0.0
 40
0.0
 40
1.0
 40
1.0
 40
1.0
 40
1.0
 10
537.7168837499999
 20
149.3169212499999
 30
0.0
 10
537.6279837499999
 20
148.5087074999999
 30
0.0
 10
536.90020375
 20
148.10336625
 30
0.0
 10
536.2020562499999
 20
148.10336625
 30
0.0
  0
SPLINE
  5
3854
330
38D5
100
AcDbEntity
  8
TEXT
 62
     5
420
      255
370
    25
100
AcDbSpline
210
0.0
220
0.0
230
1.0
 70
     8
 71
     3
 72
     8
 73
     4
 74
     0
 42
0.000000001
 43
0.001
 12
1.0
 22
0.0
 32
0.0
 13
1.0
 23
0.0
 33
0.0
 40
0.0
 40
0.0
 40
0.0
 40
0.0
 40
1.0
 40
1.0
 40
1.0
 40
1.0
 10
536.2020562499999
 20
148.10336625
 30
0.0
 10
535.33845625
 20
148.10336625
 30
0.0
 10
534.6360749999999
 20
148.6826275
 30
0.0
 10
534.6360749999999
 20
149.6813412499999
 30
0.0
  0
SPLINE
  5
3855
330
38D5
100
AcDbEntity
  8
TEXT
 62
     5
420
      255
370
    25
100
AcDbSpline
210
0.0
220
0.0
230
1.0
 70
     8
 71
     3
 72
     8
 73
     4
 74
     0
 42
0.000000001
 43
0.001
 12
1.0
 22
0.0
 32
0.0
 13
1.0
 23
0.0
 33
0.0
 40
0.0
 40
0.0
 40
0.0
 40
0.0
 40
1.0
 40
1.0
 40
1.0
 40
1.0
 10
534.6360749999999
 20
149.6813412499999
 30
0.0
 10
534.6360749999999
 20
150.6797024999998
 30
0.0
 10
535.33845625
 20
151.2589637499999
 30
0.0
 10
536.2020562499999
 20
151.2589637499999
 30
0.0
  0
SPLINE
  5
3856
330
38D5
100
AcDbEntity
  8
TEXT
 62
     5
420
      255
370
    25
100
AcDbSpline
210
0.0
220
0.0
230
1.0
 70
     8
 71
     3
 72
     8
 73
     4
 74
     0
 42
0.000000001
 43
0.001
 12
1.0
 22
0.0
 32
0.0
 13
1.0
 23
0.0
 33
0.0
 40
0.0
 40
0.0
 40
0.0
 40
0.0
 40
1.0
 40
1.0
 40
1.0
 40
1.0
 10
536.2020562499999
 20
151.2589637499999
 30
0.0
 10
536.9171362499999
 20
151.2589637499999
 30
0.0
 10
537.4847562499999
 20
150.9675687499999
 30
0.0
 10
537.64527
 20
150.3117549999999
 30
0.0
  0
SPLINE
  5
3867
330
38D5
100
AcDbEntity
  8
TEXT
 62
     5
420
      255
370
    25
100
AcDbSpline
210
0.0
220
0.0
230
1.0
 70
     8
 71
     3
 72
     8
 73
     4
 74
     0
 42
0.000000001
 43
0.001
 12
1.0
 22
0.0
 32
0.0
 13
1.0
 23
0.0
 33
0.0
 40
0.0
 40
0.0
 40
0.0
 40
0.0
 40
1.0
 40
1.0
 40
1.0
 40
1.0
 10
553.3150889548522
 20
224.4363296939845
 30
0.0
 10
553.2261889548522
 20
223.6281159439845
 30
0.0
 10
552.4984089548523
 20
223.2227746939846
 30
0.0
 10
551.8002614548523
 20
223.2227746939846
 30
0.0
  0
SPLINE
  5
3868
330
38D5
100
AcDbEntity
  8
TEXT
 62
     5
420
      255
370
    25
100
AcDbSpline
210
0.0
220
0.0
230
1.0
 70
     8
 71
     3
 72
     8
 73
     4
 74
     0
 42
0.000000001
 43
0.001
 12
1.0
 22
0.0
 32
0.0
 13
1.0
 23
0.0
 33
0.0
 40
0.0
 40
0.0
 40
0.0
 40
0.0
 40
1.0
 40
1.0
 40
1.0
 40
1.0
 10
551.8002614548523
 20
223.2227746939846
 30
0.0
 10
550.9366614548524
 20
223.2227746939846
 30
0.0
 10
550.2342802048522
 20
223.8020359439846
 30
0.0
 10
550.2342802048522
 20
224.8007496939846
 30
0.0
  0
SPLINE
  5
3869
330
38D5
100
AcDbEntity
  8
TEXT
 62
     5
420
      255
370
    25
100
AcDbSpline
210
0.0
220
0.0
230
1.0
 70
     8
 71
     3
 72
     8
 73
     4
 74
     0
 42
0.000000001
 43
0.001
 12
1.0
 22
0.0
 32
0.0
 13
1.0
 23
0.0
 33
0.0
 40
0.0
 40
0.0
 40
0.0
 40
0.0
 40
1.0
 40
1.0
 40
1.0
 40
1.0
 10
550.2342802048522
 20
224.8007496939846
 30
0.0
 10
550.2342802048522
 20
225.7991109439845
 30
0.0
 10
550.9366614548524
 20
226.3783721939845
 30
0.0
 10
551.8002614548523
 20
226.3783721939845
 30
0.0
  0
SPLINE
  5
386A
330
38D5
100
AcDbEntity
  8
TEXT
 62
     5
420
      255
370
    25
100
AcDbSpline
210
0.0
220
0.0
230
1.0
 70
     8
 71
     3
 72
     8
 73
     4
 74
     0
 42
0.000000001
 43
0.001
 12
1.0
 22
0.0
 32
0.0
 13
1.0
 23
0.0
 33
0.0
 40
0.0
 40
0.0
 40
0.0
 40
0.0
 40
1.0
 40
1.0
 40
1.0
 40
1.0
 10
551.8002614548523
 20
226.3783721939845
 30
0.0
 10
552.5153414548522
 20
226.3783721939845
 30
0.0
 10
553.0829614548522
 20
226.0869771939845
 30
0.0
 10
553.2434752048523
 20
225.4311634439845
 30
0.0
  0
SPLINE
  5
3889
330
38D5
100
AcDbEntity
  8
TEXT
 62
     5
420
      255
370
    25
100
AcDbSpline
210
0.0
220
0.0
230
1.0
 70
     8
 71
     3
 72
     8
 73
     4
 74
     0
 42
0.000000001
 43
0.001
 12
1.0
 22
0.0
 32
0.0
 13
1.0
 23
0.0
 33
0.0
 40
0.0
 40
0.0
 40
0.0
 40
0.0
 40
1.0
 40
1.0
 40
1.0
 40
1.0
 10
566.5620068722606
 20
164.756726481281
 30
0.0
 10
566.4731068722606
 20
163.948512731281
 30
0.0
 10
565.7453268722606
 20
163.5431714812811
 30
0.0
 10
565.0471793722606
 20
163.5431714812811
 30
0.0
  0
SPLINE
  5
388A
330
38D5
100
AcDbEntity
  8
TEXT
 62
     5
420
      255
370
    25
100
AcDbSpline
210
0.0
220
0.0
230
1.0
 70
     8
 71
     3
 72
     8
 73
     4
 74
     0
 42
0.000000001
 43
0.001
 12
1.0
 22
0.0
 32
0.0
 13
1.0
 23
0.0
 33
0.0
 40
0.0
 40
0.0
 40
0.0
 40
0.0
 40
1.0
 40
1.0
 40
1.0
 40
1.0
 10
565.0471793722606
 20
163.5431714812811
 30
0.0
 10
564.1835793722607
 20
163.5431714812811
 30
0.0
 10
563.4811981222606
 20
164.1224327312811
 30
0.0
 10
563.4811981222606
 20
165.121146481281
 30
0.0
  0
SPLINE
  5
388B
330
38D5
100
AcDbEntity
  8
TEXT
 62
     5
420
      255
370
    25
100
AcDbSpline
210
0.0
220
0.0
230
1.0
 70
     8
 71
     3
 72
     8
 73
     4
 74
     0
 42
0.000000001
 43
0.001
 12
1.0
 22
0.0
 32
0.0
 13
1.0
 23
0.0
 33
0.0
 40
0.0
 40
0.0
 40
0.0
 40
0.0
 40
1.0
 40
1.0
 40
1.0
 40
1.0
 10
563.4811981222606
 20
165.121146481281
 30
0.0
 10
563.4811981222606
 20
166.1195077312809
 30
0.0
 10
564.1835793722607
 20
166.6987689812809
 30
0.0
 10
565.0471793722606
 20
166.6987689812809
 30
0.0
  0
SPLINE
  5
388C
330
38D5
100
AcDbEntity
  8
TEXT
 62
     5
420
      255
370
    25
100
AcDbSpline
210
0.0
220
0.0
230
1.0
 70
     8
 71
     3
 72
     8
 73
     4
 74
     0
 42
0.000000001
 43
0.001
 12
1.0
 22
0.0
 32
0.0
 13
1.0
 23
0.0
 33
0.0
 40
0.0
 40
0.0
 40
0.0
 40
0.0
 40
1.0
 40
1.0
 40
1.0
 40
1.0
 10
565.0471793722606
 20
166.6987689812809
 30
0.0
 10
565.7622593722606
 20
166.6987689812809
 30
0.0
 10
566.3298793722606
 20
166.407373981281
 30
0.0
 10
566.4903931222607
 20
165.751560231281
 30
0.0
  0
SPLINE
  5
3895
330
38D5
100
AcDbEntity
  8
TEXT
 62
     5
420
      255
370
    25
100
AcDbSpline
210
0.0
220
0.0
230
1.0
 70
     8
 71
     3
 72
     8
 73
     4
 74
     0
 42
0.000000001
 43
0.001
 12
1.0
 22
0.0
 32
0.0
 13
1.0
 23
0.0
 33
0.0
 40
0.0
 40
0.0
 40
0.0
 40
0.0
 40
1.0
 40
1.0
 40
1.0
 40
1.0
 10
585.6860712499998
 20
160.3830562499999
 30
0.0
 10
585.7749712499998
 20
161.1912699999997
 30
0.0
 10
586.5023999999997
 20
161.5973174999997
 30
0.0
 10
587.2005462499998
 20
161.5973175
 30
0.0
  0
SPLINE
  5
3896
330
38D5
100
AcDbEntity
  8
TEXT
 62
     5
420
      255
370
    25
100
AcDbSpline
210
0.0
220
0.0
230
1.0
 70
     8
 71
     3
 72
     8
 73
     4
 74
     0
 42
0.000000001
 43
0.001
 12
1.0
 22
0.0
 32
0.0
 13
1.0
 23
0.0
 33
0.0
 40
0.0
 40
0.0
 40
0.0
 40
0.0
 40
1.0
 40
1.0
 40
1.0
 40
1.0
 10
587.2005462499998
 20
161.5973175
 30
0.0
 10
588.0637937499997
 20
161.5973175
 30
0.0
 10
588.7658212499997
 20
161.0177037499998
 30
0.0
 10
588.7658212499997
 20
160.0189899999997
 30
0.0
  0
SPLINE
  5
3898
330
38D5
100
AcDbEntity
  8
TEXT
 62
     5
420
      255
370
    25
100
AcDbSpline
210
0.0
220
0.0
230
1.0
 70
     8
 71
     3
 72
     8
 73
     4
 74
     0
 42
0.000000001
 43
0.001
 12
1.0
 22
0.0
 32
0.0
 13
1.0
 23
0.0
 33
0.0
 40
0.0
 40
0.0
 40
0.0
 40
0.0
 40
1.0
 40
1.0
 40
1.0
 40
1.0
 10
588.7658212499997
 20
160.0189899999997
 30
0.0
 10
588.7658212499997
 20
159.02098125
 30
0.0
 10
588.0637937499997
 20
158.4413674999998
 30
0.0
 10
587.2005462499998
 20
158.4413674999998
 30
0.0
  0
SPLINE
  5
389A
330
38D5
100
AcDbEntity
  8
TEXT
 62
     5
420
      255
370
    25
100
AcDbSpline
210
0.0
220
0.0
230
1.0
 70
     8
 71
     3
 72
     8
 73
     4
 74
     0
 42
0.000000001
 43
0.001
 12
1.0
 22
0.0
 32
0.0
 13
1.0
 23
0.0
 33
0.0
 40
0.0
 40
0.0
 40
0.0
 40
0.0
 40
1.0
 40
1.0
 40
1.0
 40
1.0
 10
587.2005462499998
 20
158.4413674999998
 30
0.0
 10
586.4854662499998
 20
158.4413674999998
 30
0.0
 10
585.9181999999997
 20
158.7331149999997
 30
0.0
 10
585.7576849999997
 20
159.3885749999999
 30
0.0
  0
SPLINE
  5
38A6
330
38D5
100
AcDbEntity
  8
TEXT
 62
     5
420
      255
370
    25
100
AcDbSpline
210
0.0
220
0.0
230
1.0
 70
     8
 71
     3
 72
     8
 73
     4
 74
     0
 42
0.000000001
 43
0.001
 12
1.0
 22
0.0
 32
0.0
 13
1.0
 23
0.0
 33
0.0
 40
0.0
 40
0.0
 40
0.0
 40
0.0
 40
1.0
 40
1.0
 40
1.0
 40
1.0
 10
565.6860712499999
 20
213.682325
 30
0.0
 10
565.7749712499999
 20
214.4905387499999
 30
0.0
 10
566.5023999999999
 20
214.8965862499999
 30
0.0
 10
567.2005462499999
 20
214.8965862500001
 30
0.0
  0
SPLINE
  5
38A7
330
38D5
100
AcDbEntity
  8
TEXT
 62
     5
420
      255
370
    25
100
AcDbSpline
210
0.0
220
0.0
230
1.0
 70
     8
 71
     3
 72
     8
 73
     4
 74
     0
 42
0.000000001
 43
0.001
 12
1.0
 22
0.0
 32
0.0
 13
1.0
 23
0.0
 33
0.0
 40
0.0
 40
0.0
 40
0.0
 40
0.0
 40
1.0
 40
1.0
 40
1.0
 40
1.0
 10
567.2005462499999
 20
214.8965862500001
 30
0.0
 10
568.0637937499998
 20
214.8965862500001
 30
0.0
 10
568.7658212499998
 20
214.3169724999999
 30
0.0
 10
568.7658212499998
 20
213.3182587499999
 30
0.0
  0
SPLINE
  5
38A9
330
38D5
100
AcDbEntity
  8
TEXT
 62
     5
420
      255
370
    25
100
AcDbSpline
210
0.0
220
0.0
230
1.0
 70
     8
 71
     3
 72
     8
 73
     4
 74
     0
 42
0.000000001
 43
0.001
 12
1.0
 22
0.0
 32
0.0
 13
1.0
 23
0.0
 33
0.0
 40
0.0
 40
0.0
 40
0.0
 40
0.0
 40
1.0
 40
1.0
 40
1.0
 40
1.0
 10
568.7658212499998
 20
213.3182587499999
 30
0.0
 10
568.7658212499998
 20
212.3202500000001
 30
0.0
 10
568.0637937499998
 20
211.74063625
 30
0.0
 10
567.2005462499999
 20
211.74063625
 30
0.0
  0
SPLINE
  5
38AB
330
38D5
100
AcDbEntity
  8
TEXT
 62
     5
420
      255
370
    25
100
AcDbSpline
210
0.0
220
0.0
230
1.0
 70
     8
 71
     3
 72
     8
 73
     4
 74
     0
 42
0.000000001
 43
0.001
 12
1.0
 22
0.0
 32
0.0
 13
1.0
 23
0.0
 33
0.0
 40
0.0
 40
0.0
 40
0.0
 40
0.0
 40
1.0
 40
1.0
 40
1.0
 40
1.0
 10
567.2005462499999
 20
211.74063625
 30
0.0
 10
566.48546625
 20
211.74063625
 30
0.0
 10
565.9181999999998
 20
212.0323837499998
 30
0.0
 10
565.7576849999998
 20
212.6878437500001
 30
0.0
  0
ENDSEC
  0
SECTION
  2
OBJECTS
  0
DICTIONARY
  5
38C3
330
0
100
AcDbDictionary
281
     1
  3
ACAD_GROUP
350
38C4
  3
ACAD_LAYOUT
350
38D0
  3
ACAD_MATERIAL
350
38F1
  3
ACAD_MLEADERSTYLE
350
3920
  3
ACAD_MLINESTYLE
350
38CD
  3
ACAD_PLOTSETTINGS
350
38CF
  3
ACAD_PLOTSTYLENAME
350
38C5
  3
ACAD_TABLESTYLE
350
391F
  3
ACAD_VISUALSTYLE
350
38E0
  3
QCAD_OBJECTS
350
38F6
  0
DICTIONARY
  5
38C4
102
{ACAD_REACTORS
330
38C3
102
}
330
38C3
100
AcDbDictionary
281
     1
  0
DICTIONARY
  5
38D0
102
{ACAD_REACTORS
330
38C3
102
}
330
38C3
100
AcDbDictionary
281
     1
  3
Layout1
350
38D4
  3
Layout2
350
38DC
  3
Model
350
38D8
  0
DICTIONARY
  5
38F1
102
{ACAD_REACTORS
330
38C3
102
}
330
38C3
100
AcDbDictionary
281
     1
  3
ByBlock
350
38F3
  3
ByLayer
350
38F2
  3
Global
350
38F4
  0
DICTIONARY
  5
3920
102
{ACAD_REACTORS
330
38C3
102
}
330
38C3
100
AcDbDictionary
281
     1
  0
DICTIONARY
  5
38CD
102
{ACAD_REACTORS
330
38C3
102
}
330
38C3
100
AcDbDictionary
281
     1
  3
Standard
350
38CE
  0
DICTIONARY
  5
38CF
102
{ACAD_REACTORS
330
38C3
102
}
330
38C3
100
AcDbDictionary
281
     1
  0
ACDBDICTIONARYWDFLT
  5
38C5
102
{ACAD_REACTORS
330
38C3
102
}
330
38C3
100
AcDbDictionary
281
     1
  3
Normal
350
38C6
100
AcDbDictionaryWithDefault
340
38C6
  0
DICTIONARY
  5
391F
102
{ACAD_REACTORS
330
38C3
102
}
330
38C3
100
AcDbDictionary
281
     1
  0
DICTIONARY
  5
38E0
102
{ACAD_REACTORS
330
38C3
102
}
330
38C3
100
AcDbDictionary
281
     1
  3
2dWireframe
350
38E5
  3
3D Hidden
350
38E7
  3
3dWireframe
350
38E6
  3
Basic
350
38E8
  3
Brighten
350
38EC
  3
ColorChange
350
38F0
  3
Conceptual
350
38EA
  3
Dim
350
38EB
  3
Facepattern
350
38EF
  3
Flat
350
38E1
  3
FlatWithEdges
350
38E2
  3
Gouraud
350
38E3
  3
GouraudWithEdges
350
38E4
  3
Linepattern
350
38EE
  3
Realistic
350
38E9
  3
Thicken
350
38ED
  0
DICTIONARY
  5
38F6
102
{ACAD_REACTORS
330
38C3
102
}
330
38C3
100
AcDbDictionary
281
     1
  3
Grid/DisplayGrid
350
3905
  3
Grid/GridSpacingX
350
38FE
  3
Grid/GridSpacingY
350
3900
  3
MultiPageSettings/Columns
350
38FD
  3
MultiPageSettings/GlueMarginBottom
350
38FA
  3
MultiPageSettings/GlueMarginsLeft
350
3901
  3
MultiPageSettings/GlueMarginsRight
350
38F7
  3
MultiPageSettings/GlueMarginsTop
350
3909
  3
MultiPageSettings/PrintCropMarks
350
38F9
  3
MultiPageSettings/Rows
350
3902
  3
PageSettings/OffsetX
350
3907
  3
PageSettings/OffsetY
350
3908
  3
PageSettings/PageOrientation
350
38F8
  3
PageSettings/PaperHeight
350
38FC
  3
PageSettings/PaperWidth
350
3903
  3
PageSettings/Scale
350
38FB
  3
PageSettings/ShowBoundingBox
350
38FF
  3
PageSettings/ShowPageBorders
350
3906
  3
UnitSettings/PaperUnit
350
3904
  0
LAYOUT
  5
38D4
102
{ACAD_REACTORS
330
38D0
102
}
330
38D0
100
AcDbPlotSettings
  1

  2
none_device
  4

  6

 40
0.0
 41
0.0
 42
0.0
 43
0.0
 44
0.0
 45
0.0
 46
0.0
 47
0.0
 48
0.0
 49
0.0
140
0.0
141
0.0
142
1.0
143
1.0
 70
   688
 72
     0
 73
     0
 74
     5
  7

 75
    16
 76
     0
 77
     2
 78
   300
147
1.0
148
0.0
149
0.0
100
AcDbLayout
  1
Layout1
 70
     1
 71
     1
 10
0.0
 20
0.0
 11
12.0
 21
9.0
 12
0.0
 22
0.0
 32
0.0
 14
1.000000000000000E+20
 24
1.000000000000000E+20
 34
1.000000000000000E+20
 15
-1.000000000000000E+20
 25
-1.000000000000000E+20
 35
-1.000000000000000E+20
146
0.0
 13
0.0
 23
0.0
 33
0.0
 16
1.0
 26
0.0
 36
0.0
 17
0.0
 27
1.0
 37
0.0
 76
     0
330
38D1
  0
LAYOUT
  5
38DC
102
{ACAD_REACTORS
330
38D0
102
}
330
38D0
100
AcDbPlotSettings
  1

  2
none_device
  4

  6

 40
0.0
 41
0.0
 42
0.0
 43
0.0
 44
0.0
 45
0.0
 46
0.0
 47
0.0
 48
0.0
 49
0.0
140
0.0
141
0.0
142
1.0
143
1.0
 70
   688
 72
     0
 73
     0
 74
     5
  7

 75
    16
 76
     0
 77
     2
 78
   300
147
1.0
148
0.0
149
0.0
100
AcDbLayout
  1
Layout2
 70
     1
 71
     2
 10
0.0
 20
0.0
 11
0.0
 21
0.0
 12
0.0
 22
0.0
 32
0.0
 14
0.0
 24
0.0
 34
0.0
 15
0.0
 25
0.0
 35
0.0
146
0.0
 13
0.0
 23
0.0
 33
0.0
 16
1.0
 26
0.0
 36
0.0
 17
0.0
 27
1.0
 37
0.0
 76
     0
330
38D9
  0
LAYOUT
  5
38D8
102
{ACAD_REACTORS
330
38D0
102
}
330
38D0
100
AcDbPlotSettings
  1

  2
none_device
  4

  6

 40
0.0
 41
0.0
 42
0.0
 43
0.0
 44
0.0
 45
0.0
 46
0.0
 47
0.0
 48
0.0
 49
0.0
140
0.0
141
0.0
142
1.0
143
1.0
 70
  1712
 72
     0
 73
     0
 74
     0
  7

 75
     0
 76
     0
 77
     2
 78
   300
147
1.0
148
0.0
149
0.0
100
AcDbLayout
  1
Model
 70
     1
 71
     0
 10
0.0
 20
0.0
 11
12.0
 21
9.0
 12
0.0
 22
0.0
 32
0.0
 14
1.000000000000000E+20
 24
1.000000000000000E+20
 34
1.000000000000000E+20
 15
-1.000000000000000E+20
 25
-1.000000000000000E+20
 35
-1.000000000000000E+20
146
0.0
 13
0.0
 23
0.0
 33
0.0
 16
1.0
 26
0.0
 36
0.0
 17
0.0
 27
1.0
 37
0.0
 76
     0
330
38D5
331
38DF
  0
MATERIAL
  5
38F3
102
{ACAD_REACTORS
330
38F1
102
}
330
38F1
100
AcDbMaterial
  1
ByBlock
 72
     1
 94
      127
  0
MATERIAL
  5
38F2
102
{ACAD_REACTORS
330
38F1
102
}
330
38F1
100
AcDbMaterial
  1
ByLayer
 72
     1
 94
      127
  0
MATERIAL
  5
38F4
102
{ACAD_REACTORS
330
38F1
102
}
330
38F1
100
AcDbMaterial
  1
Global
 72
     1
 94
      127
  0
MLINESTYLE
  5
38CE
102
{ACAD_REACTORS
330
38CD
102
}
330
38CD
100
AcDbMlineStyle
  2
Standard
 70
     0
  3

 62
   256
 51
90.0
 52
90.0
 71
     2
 49
0.5
 62
   256
  6
BYLAYER
 49
-0.5
 62
   256
  6
BYLAYER
  0
ACDBPLACEHOLDER
  5
38C6
102
{ACAD_REACTORS
330
38C5
102
}
330
38C5
  0
VISUALSTYLE
  5
38E5
102
{ACAD_REACTORS
330
38E0
102
}
330
38E0
100
AcDbVisualStyle
  2
2dWireframe
 70
     4
177
     2
291
     0
 71
     0
176
     1
 72
     2
176
     1
 73
     0
176
     1
 90
        0
176
     1
 40
-0.6
176
     1
 41
-30.0
176
     1
 62
     5
 63
     7
421
 16777215
176
     1
 74
     1
176
     1
 91
        4
176
     1
 64
     7
176
     1
 65
   257
176
     1
 75
     1
176
     1
175
     1
176
     1
 42
1.0
176
     1
 92
        0
176
     1
 66
   257
176
     1
 43
1.0
176
     1
 76
     1
176
     1
 77
     6
176
     1
 78
     2
176
     1
 67
     7
176
     1
 79
     5
176
     1
170
     0
176
     1
171
     0
176
     1
290
     0
176
     1
 93
        1
176
     1
 44
0.0
176
     1
173
     0
176
     1
  0
VISUALSTYLE
  5
38E7
102
{ACAD_REACTORS
330
38E0
102
}
330
38E0
100
AcDbVisualStyle
  2
3D Hidden
 70
     6
177
     2
291
     0
 71
     1
176
     1
 72
     2
176
     1
 73
     2
176
     1
 90
        0
176
     1
 40
-0.6
176
     1
 41
-30.0
176
     1
 62
     5
 63
     7
421
 16777215
176
     1
 74
     2
176
     1
 91
        2
176
     1
 64
     7
176
     1
 65
   257
176
     1
 75
     2
176
     1
175
     1
176
     1
 42
40.0
176
     1
 92
        0
176
     1
 66
   257
176
     1
 43
1.0
176
     1
 76
     1
176
     1
 77
     6
176
     1
 78
     2
176
     1
 67
     7
176
     1
 79
     3
176
     1
170
     0
176
     1
171
     0
176
     1
290
     0
176
     1
 93
        1
176
     1
 44
0.0
176
     1
173
     0
176
     1
  0
VISUALSTYLE
  5
38E6
102
{ACAD_REACTORS
330
38E0
102
}
330
38E0
100
AcDbVisualStyle
  2
3dWireframe
 70
     5
177
     2
291
     0
 71
     0
176
     1
 72
     2
176
     1
 73
     0
176
     1
 90
        0
176
     1
 40
-0.6
176
     1
 41
-30.0
176
     1
 62
     5
 63
     7
421
 16777215
176
     1
 74
     1
176
     1
 91
        4
176
     1
 64
     7
176
     1
 65
   257
176
     1
 75
     1
176
     1
175
     1
176
     1
 42
1.0
176
     1
 92
        0
176
     1
 66
   257
176
     1
 43
1.0
176
     1
 76
     1
176
     1
 77
     6
176
     1
 78
     2
176
     1
 67
     7
176
     1
 79
     5
176
     1
170
     0
176
     1
171
     0
176
     1
290
     0
176
     1
 93
        1
176
     1
 44
0.0
176
     1
173
     0
176
     1
  0
VISUALSTYLE
  5
38E8
102
{ACAD_REACTORS
330
38E0
102
}
330
38E0
100
AcDbVisualStyle
  2
Basic
 70
     7
177
     2
291
     1
 71
     1
176
     1
 72
     0
176
     1
 73
     1
176
     1
 90
        0
176
     1
 40
-0.6
176
     1
 41
-30.0
176
     1
 62
     5
 63
     7
421
 16777215
176
     1
 74
     0
176
     1
 91
        4
176
     1
 64
     7
176
     1
 65
   257
176
     1
 75
     1
176
     1
175
     1
176
     1
 42
1.0
176
     1
 92
        8
176
     1
 66
     7
176
     1
 43
1.0
176
     1
 76
     1
176
     1
 77
     6
176
     1
 78
     2
176
     1
 67
     7
176
     1
 79
     5
176
     1
170
     0
176
     1
171
     0
176
     1
290
     0
176
     1
 93
        1
176
     1
 44
0.0
176
     1
173
     0
176
     1
  0
VISUALSTYLE
  5
38EC
102
{ACAD_REACTORS
330
38E0
102
}
330
38E0
100
AcDbVisualStyle
  2
Brighten
 70
    12
177
     2
291
     1
 71
     2
176
     1
 72
     2
176
     1
 73
     0
176
     1
 90
        0
176
     1
 40
-0.6
176
     1
 41
-30.0
176
     1
 62
     5
 63
     7
421
 16777215
176
     1
 74
     1
176
     1
 91
        4
176
     1
 64
     7
176
     1
 65
   257
176
     1
 75
     1
176
     1
175
     1
176
     1
 42
1.0
176
     1
 92
        8
176
     1
 66
     7
176
     1
 43
1.0
176
     1
 76
     1
176
     1
 77
     6
176
     1
 78
     2
176
     1
 67
     7
176
     1
 79
     5
176
     1
170
     0
176
     1
171
     0
176
     1
290
     0
176
     1
 93
        1
176
     1
 44
50.0
176
     1
173
     0
176
     1
  0
VISUALSTYLE
  5
38F0
102
{ACAD_REACTORS
330
38E0
102
}
330
38E0
100
AcDbVisualStyle
  2
ColorChange
 70
    16
177
     2
291
     1
 71
     2
176
     1
 72
     2
176
     1
 73
     3
176
     1
 90
        0
176
     1
 40
-0.6
176
     1
 41
-30.0
176
     1
 62
     5
 63
     8
421
  8421504
176
     1
 74
     1
176
     1
 91
        4
176
     1
 64
     7
176
     1
 65
   257
176
     1
 75
     1
176
     1
175
     1
176
     1
 42
1.0
176
     1
 92
        8
176
     1
 66
     8
424
  8421504
176
     1
 43
1.0
176
     1
 76
     1
176
     1
 77
     6
176
     1
 78
     2
176
     1
 67
     7
176
     1
 79
     5
176
     1
170
     0
176
     1
171
     0
176
     1
290
     0
176
     1
 93
        1
176
     1
 44
0.0
176
     1
173
     0
176
     1
  0
VISUALSTYLE
  5
38EA
102
{ACAD_REACTORS
330
38E0
102
}
330
38E0
100
AcDbVisualStyle
  2
Conceptual
 70
     9
177
     2
291
     0
 71
     3
176
     1
 72
     2
176
     1
 73
     0
176
     1
 90
        0
176
     1
 40
-0.6
176
     1
 41
-30.0
176
     1
 62
     5
 63
     7
421
 16777215
176
     1
 74
     2
176
     1
 91
        2
176
     1
 64
     7
176
     1
 65
   257
176
     1
 75
     1
176
     1
175
     1
176
     1
 42
40.0
176
     1
 92
        8
176
     1
 66
     7
176
     1
 43
1.0
176
     1
 76
     1
176
     1
 77
     6
176
     1
 78
     2
176
     1
 67
     7
176
     1
 79
     3
176
     1
170
     0
176
     1
171
     0
176
     1
290
     0
176
     1
 93
        1
176
     1
 44
0.0
176
     1
173
     0
176
     1
  0
VISUALSTYLE
  5
38EB
102
{ACAD_REACTORS
330
38E0
102
}
330
38E0
100
AcDbVisualStyle
  2
Dim
 70
    11
177
     2
291
     1
 71
     2
176
     1
 72
     2
176
     1
 73
     0
176
     1
 90
        0
176
     1
 40
-0.6
176
     1
 41
-30.0
176
     1
 62
     5
 63
     7
421
 16777215
176
     1
 74
     1
176
     1
 91
        4
176
     1
 64
     7
176
     1
 65
   257
176
     1
 75
     1
176
     1
175
     1
176
     1
 42
1.0
176
     1
 92
        8
176
     1
 66
     7
176
     1
 43
1.0
176
     1
 76
     1
176
     1
 77
     6
176
     1
 78
     2
176
     1
 67
     7
176
     1
 79
     5
176
     1
170
     0
176
     1
171
     0
176
     1
290
     0
176
     1
 93
        1
176
     1
 44
-50.0
176
     1
173
     0
176
     1
  0
VISUALSTYLE
  5
38EF
102
{ACAD_REACTORS
330
38E0
102
}
330
38E0
100
AcDbVisualStyle
  2
Facepattern
 70
    15
177
     2
291
     1
 71
     2
176
     1
 72
     2
176
     1
 73
     0
176
     1
 90
        0
176
     1
 40
-0.6
176
     1
 41
-30.0
176
     1
 62
     5
 63
     7
421
 16777215
176
     1
 74
     1
176
     1
 91
        4
176
     1
 64
     7
176
     1
 65
   257
176
     1
 75
     1
176
     1
175
     1
176
     1
 42
1.0
176
     1
 92
        8
176
     1
 66
     7
176
     1
 43
1.0
176
     1
 76
     1
176
     1
 77
     6
176
     1
 78
     2
176
     1
 67
     7
176
     1
 79
     5
176
     1
170
     0
176
     1
171
     0
176
     1
290
     0
176
     1
 93
        1
176
     1
 44
0.0
176
     1
173
     0
176
     1
  0
VISUALSTYLE
  5
38E1
102
{ACAD_REACTORS
330
38E0
102
}
330
38E0
100
AcDbVisualStyle
  2
Flat
 70
     0
177
     2
291
     1
 71
     2
176
     1
 72
     1
176
     1
 73
     1
176
     1
 90
        2
176
     1
 40
-0.6
176
     1
 41
30.0
176
     1
 62
     5
 63
     7
421
 16777215
176
     1
 74
     0
176
     1
 91
        4
176
     1
 64
     7
176
     1
 65
   257
176
     1
 75
     1
176
     1
175
     1
176
     1
 42
1.0
176
     1
 92
        8
176
     1
 66
     7
176
     1
 43
1.0
176
     1
 76
     1
176
     1
 77
     6
176
     1
 78
     2
176
     1
 67
     7
176
     1
 79
     5
176
     1
170
     0
176
     1
171
     0
176
     1
290
     0
176
     1
 93
       13
176
     1
 44
0.0
176
     1
173
     0
176
     1
  0
VISUALSTYLE
  5
38E2
102
{ACAD_REACTORS
330
38E0
102
}
330
38E0
100
AcDbVisualStyle
  2
FlatWithEdges
 70
     1
177
     2
291
     1
 71
     2
176
     1
 72
     1
176
     1
 73
     1
176
     1
 90
        2
176
     1
 40
-0.6
176
     1
 41
30.0
176
     1
 62
     5
 63
     7
421
 16777215
176
     1
 74
     1
176
     1
 91
        4
176
     1
 64
     7
176
     1
 65
   257
176
     1
 75
     1
176
     1
175
     1
176
     1
 42
1.0
176
     1
 92
        0
176
     1
 66
   257
176
     1
 43
1.0
176
     1
 76
     1
176
     1
 77
     6
176
     1
 78
     2
176
     1
 67
     7
176
     1
 79
     5
176
     1
170
     0
176
     1
171
     0
176
     1
290
     0
176
     1
 93
       13
176
     1
 44
0.0
176
     1
173
     0
176
     1
  0
VISUALSTYLE
  5
38E3
102
{ACAD_REACTORS
330
38E0
102
}
330
38E0
100
AcDbVisualStyle
  2
Gouraud
 70
     2
177
     2
291
     1
 71
     2
176
     1
 72
     2
176
     1
 73
     1
176
     1
 90
        2
176
     1
 40
-0.6
176
     1
 41
30.0
176
     1
 62
     5
 63
     7
421
 16777215
176
     1
 74
     0
176
     1
 91
        4
176
     1
 64
     7
176
     1
 65
   257
176
     1
 75
     1
176
     1
175
     1
176
     1
 42
1.0
176
     1
 92
        0
176
     1
 66
     7
176
     1
 43
1.0
176
     1
 76
     1
176
     1
 77
     6
176
     1
 78
     2
176
     1
 67
     7
176
     1
 79
     5
176
     1
170
     0
176
     1
171
     0
176
     1
290
     0
176
     1
 93
       13
176
     1
 44
0.0
176
     1
173
     0
176
     1
  0
VISUALSTYLE
  5
38E4
102
{ACAD_REACTORS
330
38E0
102
}
330
38E0
100
AcDbVisualStyle
  2
GouraudWithEdges
 70
     3
177
     2
291
     1
 71
     2
176
     1
 72
     2
176
     1
 73
     1
176
     1
 90
        2
176
     1
 40
-0.6
176
     1
 41
30.0
176
     1
 62
     5
 63
     7
421
 16777215
176
     1
 74
     1
176
     1
 91
        4
176
     1
 64
     7
176
     1
 65
   257
176
     1
 75
     1
176
     1
175
     1
176
     1
 42
1.0
176
     1
 92
        0
176
     1
 66
   257
176
     1
 43
1.0
176
     1
 76
     1
176
     1
 77
     6
176
     1
 78
     2
176
     1
 67
     7
176
     1
 79
     5
176
     1
170
     0
176
     1
171
     0
176
     1
290
     0
176
     1
 93
       13
176
     1
 44
0.0
176
     1
173
     0
176
     1
  0
VISUALSTYLE
  5
38EE
102
{ACAD_REACTORS
330
38E0
102
}
330
38E0
100
AcDbVisualStyle
  2
Linepattern
 70
    14
177
     2
291
     1
 71
     2
176
     1
 72
     2
176
     1
 73
     0
176
     1
 90
        0
176
     1
 40
-0.6
176
     1
 41
-30.0
176
     1
 62
     5
 63
     7
421
 16777215
176
     1
 74
     1
176
     1
 91
        4
176
     1
 64
     7
176
     1
 65
   257
176
     1
 75
     7
176
     1
175
     7
176
     1
 42
1.0
176
     1
 92
        8
176
     1
 66
     7
176
     1
 43
1.0
176
     1
 76
     1
176
     1
 77
     6
176
     1
 78
     2
176
     1
 67
     7
176
     1
 79
     5
176
     1
170
     0
176
     1
171
     0
176
     1
290
     0
176
     1
 93
        1
176
     1
 44
0.0
176
     1
173
     0
176
     1
  0
VISUALSTYLE
  5
38E9
102
{ACAD_REACTORS
330
38E0
102
}
330
38E0
100
AcDbVisualStyle
  2
Realistic
 70
     8
177
     2
291
     0
 71
     2
176
     1
 72
     2
176
     1
 73
     0
176
     1
 90
        0
176
     1
 40
-0.6
176
     1
 41
-30.0
176
     1
 62
     5
 63
     7
421
 16777215
176
     1
 74
     1
176
     1
 91
        0
176
     1
 64
     7
176
     1
 65
   257
176
     1
 75
     1
176
     1
175
     1
176
     1
 42
1.0
176
     1
 92
        8
176
     1
 66
     8
424
  7895160
176
     1
 43
1.0
176
     1
 76
     1
176
     1
 77
     6
176
     1
 78
     2
176
     1
 67
     7
176
     1
 79
     5
176
     1
170
     0
176
     1
171
     0
176
     1
290
     0
176
     1
 93
       13
176
     1
 44
0.0
176
     1
173
     0
176
     1
  0
VISUALSTYLE
  5
38ED
102
{ACAD_REACTORS
330
38E0
102
}
330
38E0
100
AcDbVisualStyle
  2
Thicken
 70
    13
177
     2
291
     1
 71
     2
176
     1
 72
     2
176
     1
 73
     0
176
     1
 90
        0
176
     1
 40
-0.6
176
     1
 41
-30.0
176
     1
 62
     5
 63
     7
421
 16777215
176
     1
 74
     1
176
     1
 91
        4
176
     1
 64
     7
176
     1
 65
   257
176
     1
 75
     1
176
     1
175
     1
176
     1
 42
1.0
176
     1
 92
       12
176
     1
 66
     7
176
     1
 43
1.0
176
     1
 76
     1
176
     1
 77
     6
176
     1
 78
     2
176
     1
 67
     7
176
     1
 79
     5
176
     1
170
     0
176
     1
171
     0
176
     1
290
     0
176
     1
 93
        1
176
     1
 44
0.0
176
     1
173
     0
176
     1
  0
XRECORD
  5
3905
102
{ACAD_REACTORS
330
38F6
102
}
330
38F6
100
AcDbXrecord
280
     1
290
     1
  0
XRECORD
  5
38FE
102
{ACAD_REACTORS
330
38F6
102
}
330
38F6
100
AcDbXrecord
280
     1
1000
auto
  0
XRECORD
  5
3900
102
{ACAD_REACTORS
330
38F6
102
}
330
38F6
100
AcDbXrecord
280
     1
1000
auto
  0
XRECORD
  5
38FD
102
{ACAD_REACTORS
330
38F6
102
}
330
38F6
100
AcDbXrecord
280
     1
 90
        1
  0
XRECORD
  5
38FA
102
{ACAD_REACTORS
330
38F6
102
}
330
38F6
100
AcDbXrecord
280
     1
 40
10.0
  0
XRECORD
  5
3901
102
{ACAD_REACTORS
330
38F6
102
}
330
38F6
100
AcDbXrecord
280
     1
 40
10.0
  0
XRECORD
  5
38F7
102
{ACAD_REACTORS
330
38F6
102
}
330
38F6
100
AcDbXrecord
280
     1
 40
10.0
  0
XRECORD
  5
3909
102
{ACAD_REACTORS
330
38F6
102
}
330
38F6
100
AcDbXrecord
280
     1
 40
10.0
  0
XRECORD
  5
38F9
102
{ACAD_REACTORS
330
38F6
102
}
330
38F6
100
AcDbXrecord
280
     1
290
     0
  0
XRECORD
  5
3902
102
{ACAD_REACTORS
330
38F6
102
}
330
38F6
100
AcDbXrecord
280
     1
 90
        1
  0
XRECORD
  5
3907
102
{ACAD_REACTORS
330
38F6
102
}
330
38F6
100
AcDbXrecord
280
     1
 40
0.0
  0
XRECORD
  5
3908
102
{ACAD_REACTORS
330
38F6
102
}
330
38F6
100
AcDbXrecord
280
     1
 40
0.0
  0
XRECORD
  5
38F8
102
{ACAD_REACTORS
330
38F6
102
}
330
38F6
100
AcDbXrecord
280
     1
1000
Portrait
  0
XRECORD
  5
38FC
102
{ACAD_REACTORS
330
38F6
102
}
330
38F6
100
AcDbXrecord
280
     1
 40
297.0
  0
XRECORD
  5
3903
102
{ACAD_REACTORS
330
38F6
102
}
330
38F6
100
AcDbXrecord
280
     1
 40
210.0
  0
XRECORD
  5
38FB
102
{ACAD_REACTORS
330
38F6
102
}
330
38F6
100
AcDbXrecord
280
     1
1000
1:1
  0
XRECORD
  5
38FF
102
{ACAD_REACTORS
330
38F6
102
}
330
38F6
100
AcDbXrecord
280
     1
290
     0
  0
XRECORD
  5
3906
102
{ACAD_REACTORS
330
38F6
102
}
330
38F6
100
AcDbXrecord
280
     1
290
     1
  0
XRECORD
  5
3904
102
{ACAD_REACTORS
330
38F6
102
}
330
38F6
100
AcDbXrecord
280
     1
 90
        4
  0
ENDSEC
  0
EOF
