  0
SECTION
  2
HEADER
  9
$ACADVER
  1
AC1024
  9
$ACADMAINTVER
 70
     6
  9
$DWGCODEPAGE
  3
ASCII
  9
$INSBASE
 10
0.0
 20
0.0
 30
0.0
  9
$EXTMIN
 10
1.000000000000000E+20
 20
1.000000000000000E+20
 30
1.000000000000000E+20
  9
$EXTMAX
 10
-1.000000000000000E+20
 20
-1.000000000000000E+20
 30
-1.000000000000000E+20
  9
$LIMMIN
 10
0.0
 20
0.0
  9
$LIMMAX
 10
12.0
 20
9.0
  9
$ORTHOMODE
 70
     0
  9
$REGENMODE
 70
     1
  9
$FILLMODE
 70
     1
  9
$QTEXTMODE
 70
     0
  9
$MIRRTEXT
 70
     1
  9
$LTSCALE
 40
1.0
  9
$ATTMODE
 70
     1
  9
$TEXTSIZE
 40
0.2
  9
$TRACEWID
 40
0.05
  9
$TEXTSTYLE
  7
Standard
  9
$CLAYER
  8
0
  9
$CELTYPE
  6
ByLayer
  9
$CECOLOR
 62
    18
  9
$CELTSCALE
 40
1.0
  9
$DISPSILH
 70
     0
  9
$DIMSCALE
 40
1.0
  9
$DIMASZ
 40
2.5
  9
$DIMEXO
 40
0.625
  9
$DIMDLI
 40
0.38
  9
$DIMRND
 40
0.0
  9
$DIMDLE
 40
0.0
  9
$DIMEXE
 40
1.25
  9
$DIMTP
 40
0.0
  9
$DIMTM
 40
0.0
  9
$DIMTXT
 40
2.5
  9
$DIMCEN
 40
0.09
  9
$DIMTSZ
 40
0.0
  9
$DIMTOL
 70
     0
  9
$DIMLIM
 70
     0
  9
$DIMTIH
 70
     1
  9
$DIMTOH
 70
     1
  9
$DIMSE1
 70
     0
  9
$DIMSE2
 70
     0
  9
$DIMTAD
 70
     0
  9
$DIMZIN
 70
     8
  9
$DIMBLK
  1

  9
$DIMASO
 70
     1
  9
$DIMSHO
 70
     1
  9
$DIMPOST
  1

  9
$DIMAPOST
  1

  9
$DIMALT
 70
     0
  9
$DIMALTD
 70
     2
  9
$DIMALTF
 40
25.4
  9
$DIMLFAC
 40
1.0
  9
$DIMTOFL
 70
     0
  9
$DIMTVP
 40
0.0
  9
$DIMTIX
 70
     0
  9
$DIMSOXD
 70
     0
  9
$DIMSAH
 70
     0
  9
$DIMBLK1
  1

  9
$DIMBLK2
  1

  9
$DIMSTYLE
  2
Standard
  9
$DIMCLRD
 70
    18
  9
$DIMCLRE
 70
    18
  9
$DIMCLRT
 70
    18
  9
$DIMTFAC
 40
1.0
  9
$DIMGAP
 40
0.625
  9
$DIMJUST
 70
     0
  9
$DIMSD1
 70
     0
  9
$DIMSD2
 70
     0
  9
$DIMTOLJ
 70
     1
  9
$DIMTZIN
 70
     0
  9
$DIMALTZ
 70
     0
  9
$DIMALTTZ
 70
     0
  9
$DIMUPT
 70
     0
  9
$DIMDEC
 70
     4
  9
$DIMTDEC
 70
     4
  9
$DIMALTU
 70
     2
  9
$DIMALTTD
 70
     2
  9
$DIMTXSTY
  7
Standard
  9
$DIMAUNIT
 70
     0
  9
$DIMADEC
 70
     0
  9
$DIMALTRND
 40
0.0
  9
$DIMAZIN
 70
     2
  9
$DIMDSEP
 70
    46
  9
$DIMATFIT
 70
     3
  9
$DIMFRAC
 70
     0
  9
$DIMLDRBLK
  1

  9
$DIMLUNIT
 70
     2
  9
$DIMLWD
 70
    -2
  9
$DIMLWE
 70
    -2
  9
$DIMTMOVE
 70
     0
  9
$DIMFXL
 40
1.0
  9
$DIMFXLON
 70
     0
  9
$DIMJOGANG
 40
0.7853981633974483
  9
$DIMTFILL
 70
     0
  9
$DIMTFILLCLR
 70
     0
  9
$DIMARCSYM
 70
     0
  9
$DIMLTYPE
  6

  9
$DIMLTEX1
  6

  9
$DIMLTEX2
  6

  9
$DIMTXTDIRECTION
 70
     0
  9
$LUNITS
 70
     2
  9
$LUPREC
 70
     4
  9
$SKETCHINC
 40
0.1
  9
$FILLETRAD
 40
0.5
  9
$AUNITS
 70
     0
  9
$AUPREC
 70
     0
  9
$MENU
  1
.
  9
$ELEVATION
 40
0.0
  9
$PELEVATION
 40
0.0
  9
$THICKNESS
 40
0.0
  9
$LIMCHECK
 70
     0
  9
$CHAMFERA
 40
0.5
  9
$CHAMFERB
 40
0.5
  9
$CHAMFERC
 40
1.0
  9
$CHAMFERD
 40
0.0
  9
$SKPOLY
 70
     0
  9
$TDCREATE
 40
2455924.558447222
  9
$TDUCREATE
 40
2455924.766780556
  9
$TDUPDATE
 40
2455924.558447222
  9
$TDUUPDATE
 40
2455924.766780556
  9
$TDINDWG
 40
0.0000000116
  9
$TDUSRTIMER
 40
0.0000000116
  9
$USRTIMER
 70
     1
  9
$ANGBASE
 50
0.0
  9
$ANGDIR
 70
     0
  9
$PDMODE
 70
     0
  9
$PDSIZE
 40
0.0
  9
$PLINEWID
 40
0.0
  9
$SPLFRAME
 70
     0
  9
$SPLINETYPE
 70
     6
  9
$SPLINESEGS
 70
     8
  9
$HANDSEED
  5
33C5
  9
$SURFTAB1
 70
     6
  9
$SURFTAB2
 70
     6
  9
$SURFTYPE
 70
     6
  9
$SURFU
 70
     6
  9
$SURFV
 70
     6
  9
$UCSBASE
  2

  9
$UCSNAME
  2

  9
$UCSORG
 10
0.0
 20
0.0
 30
0.0
  9
$UCSXDIR
 10
1.0
 20
0.0
 30
0.0
  9
$UCSYDIR
 10
0.0
 20
1.0
 30
0.0
  9
$UCSORTHOREF
  2

  9
$UCSORTHOVIEW
 70
     0
  9
$UCSORGTOP
 10
0.0
 20
0.0
 30
0.0
  9
$UCSORGBOTTOM
 10
0.0
 20
0.0
 30
0.0
  9
$UCSORGLEFT
 10
0.0
 20
0.0
 30
0.0
  9
$UCSORGRIGHT
 10
0.0
 20
0.0
 30
0.0
  9
$UCSORGFRONT
 10
0.0
 20
0.0
 30
0.0
  9
$UCSORGBACK
 10
0.0
 20
0.0
 30
0.0
  9
$PUCSBASE
  2

  9
$PUCSNAME
  2

  9
$PUCSORG
 10
0.0
 20
0.0
 30
0.0
  9
$PUCSXDIR
 10
1.0
 20
0.0
 30
0.0
  9
$PUCSYDIR
 10
0.0
 20
1.0
 30
0.0
  9
$PUCSORTHOREF
  2

  9
$PUCSORTHOVIEW
 70
     0
  9
$PUCSORGTOP
 10
0.0
 20
0.0
 30
0.0
  9
$PUCSORGBOTTOM
 10
0.0
 20
0.0
 30
0.0
  9
$PUCSORGLEFT
 10
0.0
 20
0.0
 30
0.0
  9
$PUCSORGRIGHT
 10
0.0
 20
0.0
 30
0.0
  9
$PUCSORGFRONT
 10
0.0
 20
0.0
 30
0.0
  9
$PUCSORGBACK
 10
0.0
 20
0.0
 30
0.0
  9
$USERI1
 70
     0
  9
$USERI2
 70
     0
  9
$USERI3
 70
     0
  9
$USERI4
 70
     0
  9
$USERI5
 70
     0
  9
$USERR1
 40
0.0
  9
$USERR2
 40
0.0
  9
$USERR3
 40
0.0
  9
$USERR4
 40
0.0
  9
$USERR5
 40
0.0
  9
$WORLDVIEW
 70
     1
  9
$SHADEDGE
 70
     3
  9
$SHADEDIF
 70
    70
  9
$TILEMODE
 70
     1
  9
$MAXACTVP
 70
    64
  9
$PINSBASE
 10
0.0
 20
0.0
 30
0.0
  9
$PLIMCHECK
 70
     0
  9
$PEXTMIN
 10
1.000000000000000E+20
 20
1.000000000000000E+20
 30
1.000000000000000E+20
  9
$PEXTMAX
 10
-1.000000000000000E+20
 20
-1.000000000000000E+20
 30
-1.000000000000000E+20
  9
$PLIMMIN
 10
0.0
 20
0.0
  9
$PLIMMAX
 10
12.0
 20
9.0
  9
$UNITMODE
 70
     0
  9
$VISRETAIN
 70
     1
  9
$PLINEGEN
 70
     0
  9
$PSLTSCALE
 70
     1
  9
$TREEDEPTH
 70
  3020
  9
$CMLSTYLE
  2
Standard
  9
$CMLJUST
 70
     0
  9
$CMLSCALE
 40
1.0
  9
$PROXYGRAPHICS
 70
     1
  9
$MEASUREMENT
 70
     1
  9
$CELWEIGHT
370
    -1
  9
$ENDCAPS
280
     0
  9
$JOINSTYLE
280
     0
  9
$LWDISPLAY
290
     0
  9
$INSUNITS
 70
     4
  9
$HYPERLINKBASE
  1

  9
$STYLESHEET
  1

  9
$XEDIT
290
     1
  9
$CEPSNTYPE
380
     0
  9
$PSTYLEMODE
290
     1
  9
$FINGERPRINTGUID
  2
{5EE9B6F2-9AE3-4F58-BBC1-CFCDAE275E0D}
  9
$VERSIONGUID
  2
{FAEB1C32-E019-11D5-929B-00C0DF256EC4}
  9
$EXTNAMES
290
     1
  9
$PSVPSCALE
 40
0.0
  9
$OLESTARTUP
290
     0
  9
$SORTENTS
280
   127
  9
$INDEXCTL
280
     0
  9
$HIDETEXT
280
     1
  9
$XCLIPFRAME
280
     2
  9
$HALOGAP
280
     0
  9
$OBSCOLOR
 70
   257
  9
$OBSLTYPE
280
     0
  9
$INTERSECTIONDISPLAY
280
     0
  9
$INTERSECTIONCOLOR
 70
   257
  9
$DIMASSOC
280
     2
  9
$PROJECTNAME
  1

  9
$CAMERADISPLAY
290
     0
  9
$LENSLENGTH
 40
50.0
  9
$CAMERAHEIGHT
 40
0.0
  9
$STEPSPERSEC
 40
2.0
  9
$STEPSIZE
 40
6.0
  9
$3DDWFPREC
 40
2.0
  9
$PSOLWIDTH
 40
0.25
  9
$PSOLHEIGHT
 40
4.0
  9
$LOFTANG1
 40
1.570796326794897
  9
$LOFTANG2
 40
1.570796326794897
  9
$LOFTMAG1
 40
0.0
  9
$LOFTMAG2
 40
0.0
  9
$LOFTPARAM
 70
     7
  9
$LOFTNORMALS
280
     1
  9
$LATITUDE
 40
37.795
  9
$LONGITUDE
 40
-122.394
  9
$NORTHDIRECTION
 40
0.0
  9
$TIMEZONE
 70
 -8000
  9
$LIGHTGLYPHDISPLAY
280
     1
  9
$TILEMODELIGHTSYNCH
280
     1
  9
$SOLIDHIST
280
     1
  9
$SHOWHIST
280
     1
  9
$DWFFRAME
280
     2
  9
$DGNFRAME
280
     2
  9
$REALWORLDSCALE
290
     1
  9
$INTERFERECOLOR
 62
   256
  9
$CSHADOW
280
     0
  9
$SHADOWPLANELOCATION
 40
0.0
  0
ENDSEC
  0
SECTION
  2
CLASSES
  0
CLASS
  1
ACDBDICTIONARYWDFLT
  2
AcDbDictionaryWithDefault
  3
ObjectDBX Classes
 90
        0
 91
        4
280
     0
281
     0
  0
CLASS
  1
VISUALSTYLE
  2
AcDbVisualStyle
  3
ObjectDBX Classes
 90
     4095
 91
        4
280
     0
281
     0
  0
CLASS
  1
MATERIAL
  2
AcDbMaterial
  3
ObjectDBX Classes
 90
     1153
 91
        4
280
     0
281
     0
  0
ENDSEC
  0
SECTION
  2
TABLES
  0
TABLE
  2
VPORT
  5
3363
330
0
100
AcDbSymbolTable
 70
     1
  0
VPORT
  5
3383
330
3363
100
AcDbSymbolTableRecord
100
AcDbViewportTableRecord
  2
*Active
 70
     0
 10
0.0
 20
0.0
 11
1.0
 21
1.0
 12
10.42990654205607
 22
4.5
 13
0.0
 23
0.0
 14
0.5
 24
0.5
 15
0.5
 25
0.5
 16
0.0
 26
0.0
 36
1.0
 17
0.0
 27
0.0
 37
0.0
 40
9.0
 41
1.972972972850329
 42
50.0
 43
0.0
 44
0.0
 50
0.0
 51
0.0
 71
     0
 72
   100
 73
     1
 74
     3
 75
     0
 76
     0
 77
     0
 78
     0
281
     0
 65
     1
110
0.0
120
0.0
130
0.0
111
1.0
121
0.0
131
0.0
112
0.0
122
1.0
132
0.0
 79
     0
146
0.0
 60
     3
 61
     5
292
     1
282
     1
141
0.0
142
0.0
 63
   250
  0
ENDTAB
  0
TABLE
  2
LTYPE
  5
3360
330
0
100
AcDbSymbolTable
 70
    19
  0
LTYPE
  5
336E
330
3360
100
AcDbSymbolTableRecord
100
AcDbLinetypeTableRecord
  2
ByBlock
 70
     0
  3

 72
    65
 73
     0
 40
0.0
  0
LTYPE
  5
336F
330
3360
100
AcDbSymbolTableRecord
100
AcDbLinetypeTableRecord
  2
ByLayer
 70
     0
  3

 72
    65
 73
     0
 40
0.0
  0
LTYPE
  5
3370
330
3360
100
AcDbSymbolTableRecord
100
AcDbLinetypeTableRecord
  2
Continuous
 70
     0
  3
Solid line
 72
    65
 73
     0
 40
0.0
  0
LTYPE
  5
33AF
330
3360
100
AcDbSymbolTableRecord
100
AcDbLinetypeTableRecord
  2
BORDER
 70
     0
  3

 72
    65
 73
     6
 40
42.00000000000001
 49
12.0
 74
     0
 49
-6.0
 74
     0
 49
12.0
 74
     0
 49
-5.95
 74
     0
 49
0.1
 74
     0
 49
-5.95
 74
     0
  0
LTYPE
  5
33B0
330
3360
100
AcDbSymbolTableRecord
100
AcDbLinetypeTableRecord
  2
BORDER2
 70
     0
  3

 72
    65
 73
     6
 40
21.0
 49
6.0
 74
     0
 49
-3.0
 74
     0
 49
6.0
 74
     0
 49
-2.95
 74
     0
 49
0.1
 74
     0
 49
-2.95
 74
     0
  0
LTYPE
  5
33B1
330
3360
100
AcDbSymbolTableRecord
100
AcDbLinetypeTableRecord
  2
BORDERX2
 70
     0
  3

 72
    65
 73
     6
 40
84.0
 49
24.0
 74
     0
 49
-12.0
 74
     0
 49
24.0
 74
     0
 49
-11.95
 74
     0
 49
0.1
 74
     0
 49
-11.95
 74
     0
  0
LTYPE
  5
33B2
330
3360
100
AcDbSymbolTableRecord
100
AcDbLinetypeTableRecord
  2
CENTER
 70
     0
  3

 72
    65
 73
     4
 40
50.0
 49
32.0
 74
     0
 49
-6.0
 74
     0
 49
6.0
 74
     0
 49
-6.0
 74
     0
  0
LTYPE
  5
33B3
330
3360
100
AcDbSymbolTableRecord
100
AcDbLinetypeTableRecord
  2
CENTER2
 70
     0
  3

 72
    65
 73
     4
 40
25.0
 49
16.0
 74
     0
 49
-3.0
 74
     0
 49
3.0
 74
     0
 49
-3.0
 74
     0
  0
LTYPE
  5
33B4
330
3360
100
AcDbSymbolTableRecord
100
AcDbLinetypeTableRecord
  2
CENTERX2
 70
     0
  3

 72
    65
 73
     4
 40
100.0
 49
64.0
 74
     0
 49
-12.0
 74
     0
 49
12.0
 74
     0
 49
-12.0
 74
     0
  0
LTYPE
  5
33B5
330
3360
100
AcDbSymbolTableRecord
100
AcDbLinetypeTableRecord
  2
DASHDOT
 70
     0
  3

 72
    65
 73
     4
 40
24.0
 49
12.0
 74
     0
 49
-5.95
 74
     0
 49
0.1
 74
     0
 49
-5.95
 74
     0
  0
LTYPE
  5
33B6
330
3360
100
AcDbSymbolTableRecord
100
AcDbLinetypeTableRecord
  2
DASHDOT2
 70
     0
  3

 72
    65
 73
     4
 40
12.0
 49
6.0
 74
     0
 49
-2.95
 74
     0
 49
0.1
 74
     0
 49
-2.95
 74
     0
  0
LTYPE
  5
33B7
330
3360
100
AcDbSymbolTableRecord
100
AcDbLinetypeTableRecord
  2
DASHDOTX2
 70
     0
  3

 72
    65
 73
     4
 40
48.0
 49
24.0
 74
     0
 49
-11.95
 74
     0
 49
0.1
 74
     0
 49
-11.95
 74
     0
  0
LTYPE
  5
33B8
330
3360
100
AcDbSymbolTableRecord
100
AcDbLinetypeTableRecord
  2
DASHED
 70
     0
  3

 72
    65
 73
     2
 40
18.0
 49
12.0
 74
     0
 49
-6.0
 74
     0
  0
LTYPE
  5
33B9
330
3360
100
AcDbSymbolTableRecord
100
AcDbLinetypeTableRecord
  2
DASHED2
 70
     0
  3

 72
    65
 73
     2
 40
9.0
 49
6.0
 74
     0
 49
-3.0
 74
     0
  0
LTYPE
  5
33BA
330
3360
100
AcDbSymbolTableRecord
100
AcDbLinetypeTableRecord
  2
DASHEDX2
 70
     0
  3

 72
    65
 73
     2
 40
36.0
 49
24.0
 74
     0
 49
-12.0
 74
     0
  0
LTYPE
  5
33BB
330
3360
100
AcDbSymbolTableRecord
100
AcDbLinetypeTableRecord
  2
DIVIDE
 70
     0
  3

 72
    65
 73
     6
 40
29.99999999999999
 49
12.0
 74
     0
 49
-5.9
 74
     0
 49
0.15
 74
     0
 49
-5.9
 74
     0
 49
0.15
 74
     0
 49
-5.9
 74
     0
  0
LTYPE
  5
33BC
330
3360
100
AcDbSymbolTableRecord
100
AcDbLinetypeTableRecord
  2
DIVIDE2
 70
     0
  3

 72
    65
 73
     6
 40
15.0
 49
6.0
 74
     0
 49
-2.9
 74
     0
 49
0.15
 74
     0
 49
-2.9
 74
     0
 49
0.15
 74
     0
 49
-2.9
 74
     0
  0
LTYPE
  5
33BD
330
3360
100
AcDbSymbolTableRecord
100
AcDbLinetypeTableRecord
  2
DIVIDEX2
 70
     0
  3

 72
    65
 73
     6
 40
59.99999999999999
 49
24.0
 74
     0
 49
-11.9
 74
     0
 49
0.15
 74
     0
 49
-11.9
 74
     0
 49
0.15
 74
     0
 49
-11.9
 74
     0
  0
LTYPE
  5
33BE
330
3360
100
AcDbSymbolTableRecord
100
AcDbLinetypeTableRecord
  2
DOT
 70
     0
  3

 72
    65
 73
     2
 40
6.3
 49
0.1
 74
     0
 49
-6.2
 74
     0
  0
LTYPE
  5
33BF
330
3360
100
AcDbSymbolTableRecord
100
AcDbLinetypeTableRecord
  2
DOT2
 70
     0
  3

 72
    65
 73
     2
 40
3.2
 49
0.1
 74
     0
 49
-3.1
 74
     0
  0
LTYPE
  5
33C0
330
3360
100
AcDbSymbolTableRecord
100
AcDbLinetypeTableRecord
  2
DOTX2
 70
     0
  3

 72
    65
 73
     2
 40
12.5
 49
0.1
 74
     0
 49
-12.4
 74
     0
  0
ENDTAB
  0
TABLE
  2
LAYER
  5
335D
330
0
100
AcDbSymbolTable
 70
     3
  0
LAYER
  5
336B
330
335D
100
AcDbSymbolTableRecord
100
AcDbLayerTableRecord
  2
0
 70
     0
 62
     7
420
 16777215
  6
Continuous
370
    25
390
336A
347
3398
  0
LAYER
  5
33C1
330
335D
100
AcDbSymbolTableRecord
100
AcDbLayerTableRecord
  2
CUTS
 70
     0
 62
     1
420
 16711680
  6
Continuous
370
    -3
390
336A
347
3398
  0
LAYER
  5
33C2
330
335D
100
AcDbSymbolTableRecord
100
AcDbLayerTableRecord
  2
laser bed referance
 70
     0
 62
     3
420
    65280
  6
Continuous
370
    25
390
336A
347
3398
  0
ENDTAB
  0
TABLE
  2
STYLE
  5
335E
330
0
100
AcDbSymbolTable
 70
     1
  0
STYLE
  5
336C
330
335E
100
AcDbSymbolTableRecord
100
AcDbTextStyleTableRecord
  2
Standard
 70
     0
 40
0.0
 41
1.0
 50
0.0
 71
     0
 42
0.2
  3
txt
  4

  0
ENDTAB
  0
TABLE
  2
VIEW
  5
3361
330
0
100
AcDbSymbolTable
 70
     0
  0
ENDTAB
  0
TABLE
  2
UCS
  5
3362
330
0
100
AcDbSymbolTable
 70
     0
  0
ENDTAB
  0
TABLE
  2
APPID
  5
3364
330
0
100
AcDbSymbolTable
 70
     2
  0
APPID
  5
336D
330
3364
100
AcDbSymbolTableRecord
100
AcDbRegAppTableRecord
  2
ACAD
 70
     0
  0
APPID
  5
3399
330
3364
100
AcDbSymbolTableRecord
100
AcDbRegAppTableRecord
  2
QCAD
 70
     0
  0
ENDTAB
  0
TABLE
  2
DIMSTYLE
  5
3365
330
0
100
AcDbSymbolTable
 70
     2
100
AcDbDimStyleTable
  0
DIMSTYLE
105
3381
330
3365
100
AcDbSymbolTableRecord
100
AcDbDimStyleTableRecord
  2
Standard
 70
     0
178
     0
340
336C
  0
DIMSTYLE
105
33AE
330
3365
100
AcDbSymbolTableRecord
100
AcDbDimStyleTableRecord
  2
QCADDimStyle
 70
     0
 41
2.5
 42
0.625
 44
1.25
 73
     0
 77
     1
140
2.5
147
0.625
178
     0
340
336C
  0
ENDTAB
  0
TABLE
  2
BLOCK_RECORD
  5
335C
330
0
100
AcDbSymbolTable
 70
     1
  0
BLOCK_RECORD
  5
3379
330
335C
100
AcDbSymbolTableRecord
100
AcDbBlockTableRecord
  2
*Model_Space
340
337C
 70
     0
280
     1
281
     0
  0
BLOCK_RECORD
  5
3375
330
335C
100
AcDbSymbolTableRecord
100
AcDbBlockTableRecord
  2
*Paper_Space
340
3378
 70
     0
280
     1
281
     0
  0
BLOCK_RECORD
  5
337D
330
335C
100
AcDbSymbolTableRecord
100
AcDbBlockTableRecord
  2
*Paper_Space0
340
3380
 70
     0
280
     1
281
     0
  0
ENDTAB
  0
ENDSEC
  0
SECTION
  2
BLOCKS
  0
BLOCK
  5
337A
330
3379
100
AcDbEntity
  8
0
100
AcDbBlockBegin
  2
*Model_Space
 70
     0
 10
0.0
 20
0.0
 30
0.0
  3
*Model_Space
  1

  0
ENDBLK
  5
337B
330
3379
100
AcDbEntity
  8
0
100
AcDbBlockEnd
  0
BLOCK
  5
3376
330
3375
100
AcDbEntity
 67
     1
  8
0
100
AcDbBlockBegin
  2
*Paper_Space
 70
     0
 10
0.0
 20
0.0
 30
0.0
  3
*Paper_Space
  1

  0
ENDBLK
  5
3377
330
3375
100
AcDbEntity
 67
     1
  8
0
100
AcDbBlockEnd
  0
BLOCK
  5
337E
330
337D
100
AcDbEntity
  8
0
100
AcDbBlockBegin
  2
*Paper_Space0
 70
     0
 10
0.0
 20
0.0
 30
0.0
  3
*Paper_Space0
  1

  0
ENDBLK
  5
337F
330
337D
100
AcDbEntity
  8
0
100
AcDbBlockEnd
  0
ENDSEC
  0
SECTION
  2
ENTITIES
  0
LINE
  5
22
330
3379
100
AcDbEntity
  8
laser bed referance
100
AcDbLine
 10
-0.0000000000000187
 20
-304.8
 30
0.0
 11
0.0
 21
0.0
 31
0.0
  0
LINE
  5
2B
330
3379
100
AcDbEntity
  8
laser bed referance
100
AcDbLine
 10
-0.0000000000000187
 20
-304.8
 30
0.0
 11
304.8
 21
-304.8
 31
0.0
  0
SPLINE
  5
2FDB
330
3379
100
AcDbEntity
  8
CUTS
 62
     1
420
 16711680
370
    25
100
AcDbSpline
210
0.0
220
0.0
230
1.0
 70
     8
 71
     3
 72
     8
 73
     4
 74
     0
 42
0.000000001
 43
0.001
 12
1.0
 22
0.0
 32
0.0
 13
1.0
 23
0.0
 33
0.0
 40
0.0
 40
0.0
 40
0.0
 40
0.0
 40
1.0
 40
1.0
 40
1.0
 40
1.0
 10
179.3983999695163
 20
-166.4255920645618
 30
0.0
 10
179.3983999695163
 20
-167.254019564562
 30
0.0
 10
178.7268174695164
 20
-167.925602064562
 30
0.0
 10
177.8983887195163
 20
-167.925602064562
 30
0.0
  0
SPLINE
  5
2FDE
330
3379
100
AcDbEntity
  8
CUTS
 62
     1
420
 16711680
370
    25
100
AcDbSpline
210
0.0
220
0.0
230
1.0
 70
     8
 71
     3
 72
     8
 73
     4
 74
     0
 42
0.000000001
 43
0.001
 12
1.0
 22
0.0
 32
0.0
 13
1.0
 23
0.0
 33
0.0
 40
0.0
 40
0.0
 40
0.0
 40
0.0
 40
1.0
 40
1.0
 40
1.0
 40
1.0
 10
177.8983887195163
 20
-167.925602064562
 30
0.0
 10
177.0699262195164
 20
-167.925602064562
 30
0.0
 10
176.3983787195164
 20
-167.254019564562
 30
0.0
 10
176.3983787195164
 20
-166.4255920645618
 30
0.0
  0
SPLINE
  5
2FE0
330
3379
100
AcDbEntity
  8
CUTS
 62
     1
420
 16711680
370
    25
100
AcDbSpline
210
0.0
220
0.0
230
1.0
 70
     8
 71
     3
 72
     8
 73
     4
 74
     0
 42
0.000000001
 43
0.001
 12
1.0
 22
0.0
 32
0.0
 13
1.0
 23
0.0
 33
0.0
 40
0.0
 40
0.0
 40
0.0
 40
0.0
 40
1.0
 40
1.0
 40
1.0
 40
1.0
 10
176.3983787195164
 20
-166.4255920645618
 30
0.0
 10
176.3983787195164
 20
-165.5971283145618
 30
0.0
 10
177.0699262195164
 20
-164.9255808145622
 30
0.0
 10
177.8983887195163
 20
-164.9255808145622
 30
0.0
  0
SPLINE
  5
2FE2
330
3379
100
AcDbEntity
  8
CUTS
 62
     1
420
 16711680
370
    25
100
AcDbSpline
210
0.0
220
0.0
230
1.0
 70
     8
 71
     3
 72
     8
 73
     4
 74
     0
 42
0.000000001
 43
0.001
 12
1.0
 22
0.0
 32
0.0
 13
1.0
 23
0.0
 33
0.0
 40
0.0
 40
0.0
 40
0.0
 40
0.0
 40
1.0
 40
1.0
 40
1.0
 40
1.0
 10
177.8983887195163
 20
-164.9255808145622
 30
0.0
 10
178.7268174695164
 20
-164.9255808145622
 30
0.0
 10
179.3983999695163
 20
-165.5971283145618
 30
0.0
 10
179.3983999695163
 20
-166.4255920645618
 30
0.0
  0
SPLINE
  5
2FE5
330
3379
100
AcDbEntity
  8
CUTS
 62
     1
420
 16711680
370
    25
100
AcDbSpline
210
0.0
220
0.0
230
1.0
 70
     8
 71
     3
 72
     8
 73
     4
 74
     0
 42
0.000000001
 43
0.001
 12
1.0
 22
0.0
 32
0.0
 13
1.0
 23
0.0
 33
0.0
 40
0.0
 40
0.0
 40
0.0
 40
0.0
 40
1.0
 40
1.0
 40
1.0
 40
1.0
 10
268.6691699695164
 20
-199.629035814562
 30
0.0
 10
268.6691699695164
 20
-200.4574645645619
 30
0.0
 10
267.9975862195163
 20
-201.1290470645619
 30
0.0
 10
267.1691587195164
 20
-201.1290470645619
 30
0.0
  0
SPLINE
  5
2FE8
330
3379
100
AcDbEntity
  8
CUTS
 62
     1
420
 16711680
370
    25
100
AcDbSpline
210
0.0
220
0.0
230
1.0
 70
     8
 71
     3
 72
     8
 73
     4
 74
     0
 42
0.000000001
 43
0.001
 12
1.0
 22
0.0
 32
0.0
 13
1.0
 23
0.0
 33
0.0
 40
0.0
 40
0.0
 40
0.0
 40
0.0
 40
1.0
 40
1.0
 40
1.0
 40
1.0
 10
267.1691587195164
 20
-201.1290470645619
 30
0.0
 10
266.3407312195163
 20
-201.1290470645619
 30
0.0
 10
265.6691474695165
 20
-200.4574645645619
 30
0.0
 10
265.6691474695165
 20
-199.629035814562
 30
0.0
  0
SPLINE
  5
2FEA
330
3379
100
AcDbEntity
  8
CUTS
 62
     1
420
 16711680
370
    25
100
AcDbSpline
210
0.0
220
0.0
230
1.0
 70
     8
 71
     3
 72
     8
 73
     4
 74
     0
 42
0.000000001
 43
0.001
 12
1.0
 22
0.0
 32
0.0
 13
1.0
 23
0.0
 33
0.0
 40
0.0
 40
0.0
 40
0.0
 40
0.0
 40
1.0
 40
1.0
 40
1.0
 40
1.0
 10
265.6691474695165
 20
-199.629035814562
 30
0.0
 10
265.6691474695165
 20
-198.8005720645618
 30
0.0
 10
266.3407312195163
 20
-198.1290245645619
 30
0.0
 10
267.1691587195164
 20
-198.1290245645619
 30
0.0
  0
SPLINE
  5
2FEC
330
3379
100
AcDbEntity
  8
CUTS
 62
     1
420
 16711680
370
    25
100
AcDbSpline
210
0.0
220
0.0
230
1.0
 70
     8
 71
     3
 72
     8
 73
     4
 74
     0
 42
0.000000001
 43
0.001
 12
1.0
 22
0.0
 32
0.0
 13
1.0
 23
0.0
 33
0.0
 40
0.0
 40
0.0
 40
0.0
 40
0.0
 40
1.0
 40
1.0
 40
1.0
 40
1.0
 10
267.1691587195164
 20
-198.1290245645619
 30
0.0
 10
267.9975862195163
 20
-198.1290245645619
 30
0.0
 10
268.6691699695164
 20
-198.8005720645618
 30
0.0
 10
268.6691699695164
 20
-199.629035814562
 30
0.0
  0
SPLINE
  5
2FF1
330
3379
100
AcDbEntity
  8
CUTS
 62
     1
420
 16711680
370
    25
100
AcDbSpline
210
0.0
220
0.0
230
1.0
 70
     8
 71
     3
 72
     8
 73
     4
 74
     0
 42
0.000000001
 43
0.001
 12
1.0
 22
0.0
 32
0.0
 13
1.0
 23
0.0
 33
0.0
 40
0.0
 40
0.0
 40
0.0
 40
0.0
 40
1.0
 40
1.0
 40
1.0
 40
1.0
 10
213.2872924695164
 20
-197.2153308145619
 30
0.0
 10
213.2872924695164
 20
-198.0437583145621
 30
0.0
 10
212.6157087195163
 20
-198.7153420645618
 30
0.0
 10
211.7872812195162
 20
-198.7153420645618
 30
0.0
  0
SPLINE
  5
2FF3
330
3379
100
AcDbEntity
  8
CUTS
 62
     1
420
 16711680
370
    25
100
AcDbSpline
210
0.0
220
0.0
230
1.0
 70
     8
 71
     3
 72
     8
 73
     4
 74
     0
 42
0.000000001
 43
0.001
 12
1.0
 22
0.0
 32
0.0
 13
1.0
 23
0.0
 33
0.0
 40
0.0
 40
0.0
 40
0.0
 40
0.0
 40
1.0
 40
1.0
 40
1.0
 40
1.0
 10
211.7872812195162
 20
-198.7153420645618
 30
0.0
 10
210.9588174695164
 20
-198.7153420645618
 30
0.0
 10
210.2872699695163
 20
-198.0437583145621
 30
0.0
 10
210.2872699695163
 20
-197.2153308145619
 30
0.0
  0
SPLINE
  5
2FF6
330
3379
100
AcDbEntity
  8
CUTS
 62
     1
420
 16711680
370
    25
100
AcDbSpline
210
0.0
220
0.0
230
1.0
 70
     8
 71
     3
 72
     8
 73
     4
 74
     0
 42
0.000000001
 43
0.001
 12
1.0
 22
0.0
 32
0.0
 13
1.0
 23
0.0
 33
0.0
 40
0.0
 40
0.0
 40
0.0
 40
0.0
 40
1.0
 40
1.0
 40
1.0
 40
1.0
 10
210.2872699695163
 20
-197.2153308145619
 30
0.0
 10
210.2872699695163
 20
-196.386902064562
 30
0.0
 10
210.9588174695164
 20
-195.7153195645619
 30
0.0
 10
211.7872812195162
 20
-195.7153195645619
 30
0.0
  0
SPLINE
  5
2FF8
330
3379
100
AcDbEntity
  8
CUTS
 62
     1
420
 16711680
370
    25
100
AcDbSpline
210
0.0
220
0.0
230
1.0
 70
     8
 71
     3
 72
     8
 73
     4
 74
     0
 42
0.000000001
 43
0.001
 12
1.0
 22
0.0
 32
0.0
 13
1.0
 23
0.0
 33
0.0
 40
0.0
 40
0.0
 40
0.0
 40
0.0
 40
1.0
 40
1.0
 40
1.0
 40
1.0
 10
211.7872812195162
 20
-195.7153195645619
 30
0.0
 10
212.6157087195163
 20
-195.7153195645619
 30
0.0
 10
213.2872924695164
 20
-196.386902064562
 30
0.0
 10
213.2872924695164
 20
-197.2153308145619
 30
0.0
  0
SPLINE
  5
2FFD
330
3379
100
AcDbEntity
  8
CUTS
 62
     1
420
 16711680
370
    25
100
AcDbSpline
210
0.0
220
0.0
230
1.0
 70
     8
 71
     3
 72
     8
 73
     4
 74
     0
 42
0.000000001
 43
0.001
 12
1.0
 22
0.0
 32
0.0
 13
1.0
 23
0.0
 33
0.0
 40
0.0
 40
0.0
 40
0.0
 40
0.0
 40
1.0
 40
1.0
 40
1.0
 40
1.0
 10
79.64762621951627
 20
-217.090477064562
 30
0.0
 10
79.64762621951627
 20
-217.9189058145618
 30
0.0
 10
78.97604371951616
 20
-218.5904883145619
 30
0.0
 10
78.14761496951633
 20
-218.5904883145619
 30
0.0
  0
SPLINE
  5
2FFF
330
3379
100
AcDbEntity
  8
CUTS
 62
     1
420
 16711680
370
    25
100
AcDbSpline
210
0.0
220
0.0
230
1.0
 70
     8
 71
     3
 72
     8
 73
     4
 74
     0
 42
0.000000001
 43
0.001
 12
1.0
 22
0.0
 32
0.0
 13
1.0
 23
0.0
 33
0.0
 40
0.0
 40
0.0
 40
0.0
 40
0.0
 40
1.0
 40
1.0
 40
1.0
 40
1.0
 10
78.14761496951633
 20
-218.5904883145619
 30
0.0
 10
77.31918746951646
 20
-218.5904883145619
 30
0.0
 10
76.64760371951633
 20
-217.9189058145618
 30
0.0
 10
76.64760371951633
 20
-217.090477064562
 30
0.0
  0
SPLINE
  5
3001
330
3379
100
AcDbEntity
  8
CUTS
 62
     1
420
 16711680
370
    25
100
AcDbSpline
210
0.0
220
0.0
230
1.0
 70
     8
 71
     3
 72
     8
 73
     4
 74
     0
 42
0.000000001
 43
0.001
 12
1.0
 22
0.0
 32
0.0
 13
1.0
 23
0.0
 33
0.0
 40
0.0
 40
0.0
 40
0.0
 40
0.0
 40
1.0
 40
1.0
 40
1.0
 40
1.0
 10
76.64760371951633
 20
-217.090477064562
 30
0.0
 10
76.64760371951633
 20
-216.2620495645619
 30
0.0
 10
77.31918746951646
 20
-215.5904670645618
 30
0.0
 10
78.14761496951633
 20
-215.5904670645618
 30
0.0
  0
SPLINE
  5
3004
330
3379
100
AcDbEntity
  8
CUTS
 62
     1
420
 16711680
370
    25
100
AcDbSpline
210
0.0
220
0.0
230
1.0
 70
     8
 71
     3
 72
     8
 73
     4
 74
     0
 42
0.000000001
 43
0.001
 12
1.0
 22
0.0
 32
0.0
 13
1.0
 23
0.0
 33
0.0
 40
0.0
 40
0.0
 40
0.0
 40
0.0
 40
1.0
 40
1.0
 40
1.0
 40
1.0
 10
78.14761496951633
 20
-215.5904670645618
 30
0.0
 10
78.97604371951616
 20
-215.5904670645618
 30
0.0
 10
79.64762621951627
 20
-216.2620495645619
 30
0.0
 10
79.64762621951627
 20
-217.090477064562
 30
0.0
  0
SPLINE
  5
3008
330
3379
100
AcDbEntity
  8
CUTS
 62
     1
420
 16711680
370
    25
100
AcDbSpline
210
0.0
220
0.0
230
1.0
 70
     8
 71
     3
 72
     8
 73
     4
 74
     0
 42
0.000000001
 43
0.001
 12
1.0
 22
0.0
 32
0.0
 13
1.0
 23
0.0
 33
0.0
 40
0.0
 40
0.0
 40
0.0
 40
0.0
 40
1.0
 40
1.0
 40
1.0
 40
1.0
 10
134.6844874695164
 20
-195.7153195645619
 30
0.0
 10
134.6844874695164
 20
-196.543747064562
 30
0.0
 10
134.0129037195163
 20
-197.2153308145619
 30
0.0
 10
133.1844762195162
 20
-197.2153308145619
 30
0.0
  0
SPLINE
  5
300B
330
3379
100
AcDbEntity
  8
CUTS
 62
     1
420
 16711680
370
    25
100
AcDbSpline
210
0.0
220
0.0
230
1.0
 70
     8
 71
     3
 72
     8
 73
     4
 74
     0
 42
0.000000001
 43
0.001
 12
1.0
 22
0.0
 32
0.0
 13
1.0
 23
0.0
 33
0.0
 40
0.0
 40
0.0
 40
0.0
 40
0.0
 40
1.0
 40
1.0
 40
1.0
 40
1.0
 10
133.1844762195162
 20
-197.2153308145619
 30
0.0
 10
132.3560487195164
 20
-197.2153308145619
 30
0.0
 10
131.6844649695163
 20
-196.543747064562
 30
0.0
 10
131.6844649695163
 20
-195.7153195645619
 30
0.0
  0
SPLINE
  5
300E
330
3379
100
AcDbEntity
  8
CUTS
 62
     1
420
 16711680
370
    25
100
AcDbSpline
210
0.0
220
0.0
230
1.0
 70
     8
 71
     3
 72
     8
 73
     4
 74
     0
 42
0.000000001
 43
0.001
 12
1.0
 22
0.0
 32
0.0
 13
1.0
 23
0.0
 33
0.0
 40
0.0
 40
0.0
 40
0.0
 40
0.0
 40
1.0
 40
1.0
 40
1.0
 40
1.0
 10
131.6844649695163
 20
-195.7153195645619
 30
0.0
 10
131.6844649695163
 20
-194.8868558145617
 30
0.0
 10
132.3560487195164
 20
-194.2153083145619
 30
0.0
 10
133.1844762195162
 20
-194.2153083145619
 30
0.0
  0
SPLINE
  5
3010
330
3379
100
AcDbEntity
  8
CUTS
 62
     1
420
 16711680
370
    25
100
AcDbSpline
210
0.0
220
0.0
230
1.0
 70
     8
 71
     3
 72
     8
 73
     4
 74
     0
 42
0.000000001
 43
0.001
 12
1.0
 22
0.0
 32
0.0
 13
1.0
 23
0.0
 33
0.0
 40
0.0
 40
0.0
 40
0.0
 40
0.0
 40
1.0
 40
1.0
 40
1.0
 40
1.0
 10
133.1844762195162
 20
-194.2153083145619
 30
0.0
 10
134.0129037195163
 20
-194.2153083145619
 30
0.0
 10
134.6844874695164
 20
-194.8868558145617
 30
0.0
 10
134.6844874695164
 20
-195.7153195645619
 30
0.0
  0
LWPOLYLINE
  5
3044
330
3379
100
AcDbEntity
  8
CUTS
 62
     1
420
 16711680
370
    25
100
AcDbPolyline
 90
       13
 70
     0
 43
0.0
 10
89.66722121951625
 20
-227.058919564562
 10
64.54732621951626
 20
-216.0222670645621
 10
64.54732621951626
 20
-206.9886858145618
 10
76.93229621951622
 20
-170.8483670645618
 10
80.06743121951627
 20
-163.6979133145618
 10
100.8668562195164
 20
-169.3056695645618
 10
115.2658349695164
 20
-167.273317064562
 10
123.9053624695164
 20
-160.697892064562
 10
192.0973062195164
 20
-160.7670358145618
 10
274.4656262195165
 20
-176.3044270645618
 10
274.4656262195165
 20
-220.6849308145619
 10
201.9839037195163
 20
-220.8877770645619
 10
167.1026487195163
 20
-227.058919564562
  0
LINE
  5
309A
330
3379
100
AcDbEntity
  8
CUTS
 62
     1
420
 16711680
370
    25
100
AcDbLine
 10
89.66722121951625
 20
-227.058919564562
 30
0.0
 11
167.1026487195163
 21
-227.058919564562
 31
0.0
  0
LINE
  5
309B
330
3379
100
AcDbEntity
  8
laser bed referance
100
AcDbLine
 10
0.0
 20
0.0
 30
0.0
 11
304.8
 21
0.0
 31
0.0
  0
LWPOLYLINE
  5
30C7
330
3379
100
AcDbEntity
  8
CUTS
 62
     1
420
 16711680
370
    25
100
AcDbPolyline
 90
       13
 70
     0
 43
0.0
 10
96.09541473807855
 20
-297.7690482687472
 10
70.97551973807856
 20
-286.7323957687472
 10
70.97551973807856
 20
-277.698814518747
 10
83.36048973807851
 20
-241.558495768747
 10
86.49562473807856
 20
-234.408042018747
 10
107.2950497380787
 20
-240.015798268747
 10
121.6940284880787
 20
-237.9834457687471
 10
130.3335559880787
 20
-231.4080207687471
 10
198.5254997380787
 20
-231.477164518747
 10
280.8938197380788
 20
-247.014555768747
 10
280.8938197380788
 20
-291.3950595187471
 10
208.4120972380786
 20
-291.5979057687471
 10
173.5308422380786
 20
-297.7690482687472
  0
LINE
  5
311D
330
3379
100
AcDbEntity
  8
CUTS
 62
     1
420
 16711680
370
    25
100
AcDbLine
 10
96.09541473807855
 20
-297.7690482687472
 30
0.0
 11
173.5308422380786
 21
-297.7690482687472
 31
0.0
  0
SPLINE
  5
3148
330
3379
100
AcDbEntity
  8
CUTS
 62
     1
420
 16711680
370
    25
100
AcDbSpline
210
0.0
220
0.0
230
1.0
 70
     8
 71
     3
 72
     8
 73
     4
 74
     0
 42
0.000000001
 43
0.001
 12
1.0
 22
0.0
 32
0.0
 13
1.0
 23
0.0
 33
0.0
 40
0.0
 40
0.0
 40
0.0
 40
0.0
 40
1.0
 40
1.0
 40
1.0
 40
1.0
 10
185.8265934880786
 20
-237.135720768747
 30
0.0
 10
185.8265934880786
 20
-237.9641482687471
 30
0.0
 10
185.1550109880787
 20
-238.6357307687472
 30
0.0
 10
184.3265822380786
 20
-238.6357307687472
 30
0.0
  0
SPLINE
  5
314B
330
3379
100
AcDbEntity
  8
CUTS
 62
     1
420
 16711680
370
    25
100
AcDbSpline
210
0.0
220
0.0
230
1.0
 70
     8
 71
     3
 72
     8
 73
     4
 74
     0
 42
0.000000001
 43
0.001
 12
1.0
 22
0.0
 32
0.0
 13
1.0
 23
0.0
 33
0.0
 40
0.0
 40
0.0
 40
0.0
 40
0.0
 40
1.0
 40
1.0
 40
1.0
 40
1.0
 10
184.3265822380786
 20
-238.6357307687472
 30
0.0
 10
183.4981197380787
 20
-238.6357307687472
 30
0.0
 10
182.8265722380787
 20
-237.9641482687471
 30
0.0
 10
182.8265722380787
 20
-237.135720768747
 30
0.0
  0
SPLINE
  5
314D
330
3379
100
AcDbEntity
  8
CUTS
 62
     1
420
 16711680
370
    25
100
AcDbSpline
210
0.0
220
0.0
230
1.0
 70
     8
 71
     3
 72
     8
 73
     4
 74
     0
 42
0.000000001
 43
0.001
 12
1.0
 22
0.0
 32
0.0
 13
1.0
 23
0.0
 33
0.0
 40
0.0
 40
0.0
 40
0.0
 40
0.0
 40
1.0
 40
1.0
 40
1.0
 40
1.0
 10
182.8265722380787
 20
-237.135720768747
 30
0.0
 10
182.8265722380787
 20
-236.3072570187469
 30
0.0
 10
183.4981197380787
 20
-235.6357095187473
 30
0.0
 10
184.3265822380786
 20
-235.6357095187473
 30
0.0
  0
SPLINE
  5
314F
330
3379
100
AcDbEntity
  8
CUTS
 62
     1
420
 16711680
370
    25
100
AcDbSpline
210
0.0
220
0.0
230
1.0
 70
     8
 71
     3
 72
     8
 73
     4
 74
     0
 42
0.000000001
 43
0.001
 12
1.0
 22
0.0
 32
0.0
 13
1.0
 23
0.0
 33
0.0
 40
0.0
 40
0.0
 40
0.0
 40
0.0
 40
1.0
 40
1.0
 40
1.0
 40
1.0
 10
184.3265822380786
 20
-235.6357095187473
 30
0.0
 10
185.1550109880787
 20
-235.6357095187473
 30
0.0
 10
185.8265934880786
 20
-236.3072570187469
 30
0.0
 10
185.8265934880786
 20
-237.135720768747
 30
0.0
  0
SPLINE
  5
3152
330
3379
100
AcDbEntity
  8
CUTS
 62
     1
420
 16711680
370
    25
100
AcDbSpline
210
0.0
220
0.0
230
1.0
 70
     8
 71
     3
 72
     8
 73
     4
 74
     0
 42
0.000000001
 43
0.001
 12
1.0
 22
0.0
 32
0.0
 13
1.0
 23
0.0
 33
0.0
 40
0.0
 40
0.0
 40
0.0
 40
0.0
 40
1.0
 40
1.0
 40
1.0
 40
1.0
 10
275.0973634880787
 20
-270.3391645187471
 30
0.0
 10
275.0973634880787
 20
-271.1675932687471
 30
0.0
 10
274.4257797380786
 20
-271.8391757687471
 30
0.0
 10
273.5973522380787
 20
-271.8391757687471
 30
0.0
  0
SPLINE
  5
3155
330
3379
100
AcDbEntity
  8
CUTS
 62
     1
420
 16711680
370
    25
100
AcDbSpline
210
0.0
220
0.0
230
1.0
 70
     8
 71
     3
 72
     8
 73
     4
 74
     0
 42
0.000000001
 43
0.001
 12
1.0
 22
0.0
 32
0.0
 13
1.0
 23
0.0
 33
0.0
 40
0.0
 40
0.0
 40
0.0
 40
0.0
 40
1.0
 40
1.0
 40
1.0
 40
1.0
 10
273.5973522380787
 20
-271.8391757687471
 30
0.0
 10
272.7689247380786
 20
-271.8391757687471
 30
0.0
 10
272.0973409880788
 20
-271.1675932687471
 30
0.0
 10
272.0973409880788
 20
-270.3391645187471
 30
0.0
  0
SPLINE
  5
3157
330
3379
100
AcDbEntity
  8
CUTS
 62
     1
420
 16711680
370
    25
100
AcDbSpline
210
0.0
220
0.0
230
1.0
 70
     8
 71
     3
 72
     8
 73
     4
 74
     0
 42
0.000000001
 43
0.001
 12
1.0
 22
0.0
 32
0.0
 13
1.0
 23
0.0
 33
0.0
 40
0.0
 40
0.0
 40
0.0
 40
0.0
 40
1.0
 40
1.0
 40
1.0
 40
1.0
 10
272.0973409880788
 20
-270.3391645187471
 30
0.0
 10
272.0973409880788
 20
-269.510700768747
 30
0.0
 10
272.7689247380786
 20
-268.8391532687471
 30
0.0
 10
273.5973522380787
 20
-268.8391532687471
 30
0.0
  0
SPLINE
  5
3159
330
3379
100
AcDbEntity
  8
CUTS
 62
     1
420
 16711680
370
    25
100
AcDbSpline
210
0.0
220
0.0
230
1.0
 70
     8
 71
     3
 72
     8
 73
     4
 74
     0
 42
0.000000001
 43
0.001
 12
1.0
 22
0.0
 32
0.0
 13
1.0
 23
0.0
 33
0.0
 40
0.0
 40
0.0
 40
0.0
 40
0.0
 40
1.0
 40
1.0
 40
1.0
 40
1.0
 10
273.5973522380787
 20
-268.8391532687471
 30
0.0
 10
274.4257797380786
 20
-268.8391532687471
 30
0.0
 10
275.0973634880787
 20
-269.510700768747
 30
0.0
 10
275.0973634880787
 20
-270.3391645187471
 30
0.0
  0
SPLINE
  5
315E
330
3379
100
AcDbEntity
  8
CUTS
 62
     1
420
 16711680
370
    25
100
AcDbSpline
210
0.0
220
0.0
230
1.0
 70
     8
 71
     3
 72
     8
 73
     4
 74
     0
 42
0.000000001
 43
0.001
 12
1.0
 22
0.0
 32
0.0
 13
1.0
 23
0.0
 33
0.0
 40
0.0
 40
0.0
 40
0.0
 40
0.0
 40
1.0
 40
1.0
 40
1.0
 40
1.0
 10
219.7154859880787
 20
-267.9254595187471
 30
0.0
 10
219.7154859880787
 20
-268.7538870187473
 30
0.0
 10
219.0439022380786
 20
-269.4254707687469
 30
0.0
 10
218.2154747380785
 20
-269.4254707687469
 30
0.0
  0
SPLINE
  5
3160
330
3379
100
AcDbEntity
  8
CUTS
 62
     1
420
 16711680
370
    25
100
AcDbSpline
210
0.0
220
0.0
230
1.0
 70
     8
 71
     3
 72
     8
 73
     4
 74
     0
 42
0.000000001
 43
0.001
 12
1.0
 22
0.0
 32
0.0
 13
1.0
 23
0.0
 33
0.0
 40
0.0
 40
0.0
 40
0.0
 40
0.0
 40
1.0
 40
1.0
 40
1.0
 40
1.0
 10
218.2154747380785
 20
-269.4254707687469
 30
0.0
 10
217.3870109880787
 20
-269.4254707687469
 30
0.0
 10
216.7154634880786
 20
-268.7538870187473
 30
0.0
 10
216.7154634880786
 20
-267.9254595187471
 30
0.0
  0
SPLINE
  5
3163
330
3379
100
AcDbEntity
  8
CUTS
 62
     1
420
 16711680
370
    25
100
AcDbSpline
210
0.0
220
0.0
230
1.0
 70
     8
 71
     3
 72
     8
 73
     4
 74
     0
 42
0.000000001
 43
0.001
 12
1.0
 22
0.0
 32
0.0
 13
1.0
 23
0.0
 33
0.0
 40
0.0
 40
0.0
 40
0.0
 40
0.0
 40
1.0
 40
1.0
 40
1.0
 40
1.0
 10
216.7154634880786
 20
-267.9254595187471
 30
0.0
 10
216.7154634880786
 20
-267.0970307687471
 30
0.0
 10
217.3870109880787
 20
-266.425448268747
 30
0.0
 10
218.2154747380785
 20
-266.425448268747
 30
0.0
  0
SPLINE
  5
3165
330
3379
100
AcDbEntity
  8
CUTS
 62
     1
420
 16711680
370
    25
100
AcDbSpline
210
0.0
220
0.0
230
1.0
 70
     8
 71
     3
 72
     8
 73
     4
 74
     0
 42
0.000000001
 43
0.001
 12
1.0
 22
0.0
 32
0.0
 13
1.0
 23
0.0
 33
0.0
 40
0.0
 40
0.0
 40
0.0
 40
0.0
 40
1.0
 40
1.0
 40
1.0
 40
1.0
 10
218.2154747380785
 20
-266.425448268747
 30
0.0
 10
219.0439022380786
 20
-266.425448268747
 30
0.0
 10
219.7154859880787
 20
-267.0970307687471
 30
0.0
 10
219.7154859880787
 20
-267.9254595187471
 30
0.0
  0
SPLINE
  5
316A
330
3379
100
AcDbEntity
  8
CUTS
 62
     1
420
 16711680
370
    25
100
AcDbSpline
210
0.0
220
0.0
230
1.0
 70
     8
 71
     3
 72
     8
 73
     4
 74
     0
 42
0.000000001
 43
0.001
 12
1.0
 22
0.0
 32
0.0
 13
1.0
 23
0.0
 33
0.0
 40
0.0
 40
0.0
 40
0.0
 40
0.0
 40
1.0
 40
1.0
 40
1.0
 40
1.0
 10
86.07581973807856
 20
-287.8006057687471
 30
0.0
 10
86.07581973807856
 20
-288.6290345187469
 30
0.0
 10
85.40423723807845
 20
-289.3006170187471
 30
0.0
 10
84.57580848807862
 20
-289.3006170187471
 30
0.0
  0
SPLINE
  5
316C
330
3379
100
AcDbEntity
  8
CUTS
 62
     1
420
 16711680
370
    25
100
AcDbSpline
210
0.0
220
0.0
230
1.0
 70
     8
 71
     3
 72
     8
 73
     4
 74
     0
 42
0.000000001
 43
0.001
 12
1.0
 22
0.0
 32
0.0
 13
1.0
 23
0.0
 33
0.0
 40
0.0
 40
0.0
 40
0.0
 40
0.0
 40
1.0
 40
1.0
 40
1.0
 40
1.0
 10
84.57580848807862
 20
-289.3006170187471
 30
0.0
 10
83.74738098807876
 20
-289.3006170187471
 30
0.0
 10
83.07579723807862
 20
-288.6290345187469
 30
0.0
 10
83.07579723807862
 20
-287.8006057687471
 30
0.0
  0
SPLINE
  5
316E
330
3379
100
AcDbEntity
  8
CUTS
 62
     1
420
 16711680
370
    25
100
AcDbSpline
210
0.0
220
0.0
230
1.0
 70
     8
 71
     3
 72
     8
 73
     4
 74
     0
 42
0.000000001
 43
0.001
 12
1.0
 22
0.0
 32
0.0
 13
1.0
 23
0.0
 33
0.0
 40
0.0
 40
0.0
 40
0.0
 40
0.0
 40
1.0
 40
1.0
 40
1.0
 40
1.0
 10
83.07579723807862
 20
-287.8006057687471
 30
0.0
 10
83.07579723807862
 20
-286.972178268747
 30
0.0
 10
83.74738098807876
 20
-286.3005957687469
 30
0.0
 10
84.57580848807862
 20
-286.3005957687469
 30
0.0
  0
SPLINE
  5
3171
330
3379
100
AcDbEntity
  8
CUTS
 62
     1
420
 16711680
370
    25
100
AcDbSpline
210
0.0
220
0.0
230
1.0
 70
     8
 71
     3
 72
     8
 73
     4
 74
     0
 42
0.000000001
 43
0.001
 12
1.0
 22
0.0
 32
0.0
 13
1.0
 23
0.0
 33
0.0
 40
0.0
 40
0.0
 40
0.0
 40
0.0
 40
1.0
 40
1.0
 40
1.0
 40
1.0
 10
84.57580848807862
 20
-286.3005957687469
 30
0.0
 10
85.40423723807845
 20
-286.3005957687469
 30
0.0
 10
86.07581973807856
 20
-286.972178268747
 30
0.0
 10
86.07581973807856
 20
-287.8006057687471
 30
0.0
  0
SPLINE
  5
3175
330
3379
100
AcDbEntity
  8
CUTS
 62
     1
420
 16711680
370
    25
100
AcDbSpline
210
0.0
220
0.0
230
1.0
 70
     8
 71
     3
 72
     8
 73
     4
 74
     0
 42
0.000000001
 43
0.001
 12
1.0
 22
0.0
 32
0.0
 13
1.0
 23
0.0
 33
0.0
 40
0.0
 40
0.0
 40
0.0
 40
0.0
 40
1.0
 40
1.0
 40
1.0
 40
1.0
 10
141.1126809880787
 20
-266.425448268747
 30
0.0
 10
141.1126809880787
 20
-267.2538757687471
 30
0.0
 10
140.4410972380786
 20
-267.9254595187471
 30
0.0
 10
139.6126697380785
 20
-267.9254595187471
 30
0.0
  0
SPLINE
  5
3178
330
3379
100
AcDbEntity
  8
CUTS
 62
     1
420
 16711680
370
    25
100
AcDbSpline
210
0.0
220
0.0
230
1.0
 70
     8
 71
     3
 72
     8
 73
     4
 74
     0
 42
0.000000001
 43
0.001
 12
1.0
 22
0.0
 32
0.0
 13
1.0
 23
0.0
 33
0.0
 40
0.0
 40
0.0
 40
0.0
 40
0.0
 40
1.0
 40
1.0
 40
1.0
 40
1.0
 10
139.6126697380785
 20
-267.9254595187471
 30
0.0
 10
138.7842422380787
 20
-267.9254595187471
 30
0.0
 10
138.1126584880786
 20
-267.2538757687471
 30
0.0
 10
138.1126584880786
 20
-266.425448268747
 30
0.0
  0
SPLINE
  5
317A
330
3379
100
AcDbEntity
  8
CUTS
 62
     1
420
 16711680
370
    25
100
AcDbSpline
210
0.0
220
0.0
230
1.0
 70
     8
 71
     3
 72
     8
 73
     4
 74
     0
 42
0.000000001
 43
0.001
 12
1.0
 22
0.0
 32
0.0
 13
1.0
 23
0.0
 33
0.0
 40
0.0
 40
0.0
 40
0.0
 40
0.0
 40
1.0
 40
1.0
 40
1.0
 40
1.0
 10
138.1126584880786
 20
-266.425448268747
 30
0.0
 10
138.1126584880786
 20
-265.5969845187469
 30
0.0
 10
138.7842422380787
 20
-264.9254370187471
 30
0.0
 10
139.6126697380785
 20
-264.9254370187471
 30
0.0
  0
SPLINE
  5
317C
330
3379
100
AcDbEntity
  8
CUTS
 62
     1
420
 16711680
370
    25
100
AcDbSpline
210
0.0
220
0.0
230
1.0
 70
     8
 71
     3
 72
     8
 73
     4
 74
     0
 42
0.000000001
 43
0.001
 12
1.0
 22
0.0
 32
0.0
 13
1.0
 23
0.0
 33
0.0
 40
0.0
 40
0.0
 40
0.0
 40
0.0
 40
1.0
 40
1.0
 40
1.0
 40
1.0
 10
139.6126697380785
 20
-264.9254370187471
 30
0.0
 10
140.4410972380786
 20
-264.9254370187471
 30
0.0
 10
141.1126809880787
 20
-265.5969845187469
 30
0.0
 10
141.1126809880787
 20
-266.425448268747
 30
0.0
  0
LINE
  5
3188
330
3379
100
AcDbEntity
  8
CUTS
 62
     1
420
 16711680
370
    25
100
AcDbLine
 10
84.52466640466645
 20
-155.0631521566643
 30
0.0
 11
161.9600939046665
 21
-155.0631521566643
 31
0.0
  0
SPLINE
  5
31B3
330
3379
100
AcDbEntity
  8
CUTS
 62
     1
420
 16711680
370
    25
100
AcDbSpline
210
0.0
220
0.0
230
1.0
 70
     8
 71
     3
 72
     8
 73
     4
 74
     0
 42
0.000000001
 43
0.001
 12
1.0
 22
0.0
 32
0.0
 13
1.0
 23
0.0
 33
0.0
 40
0.0
 40
0.0
 40
0.0
 40
0.0
 40
1.0
 40
1.0
 40
1.0
 40
1.0
 10
174.2558451546665
 20
-94.42982465666418
 30
0.0
 10
174.2558451546665
 20
-95.2582521566643
 30
0.0
 10
173.5842626546666
 20
-95.92983465666438
 30
0.0
 10
172.7558339046665
 20
-95.92983465666438
 30
0.0
  0
SPLINE
  5
31B6
330
3379
100
AcDbEntity
  8
CUTS
 62
     1
420
 16711680
370
    25
100
AcDbSpline
210
0.0
220
0.0
230
1.0
 70
     8
 71
     3
 72
     8
 73
     4
 74
     0
 42
0.000000001
 43
0.001
 12
1.0
 22
0.0
 32
0.0
 13
1.0
 23
0.0
 33
0.0
 40
0.0
 40
0.0
 40
0.0
 40
0.0
 40
1.0
 40
1.0
 40
1.0
 40
1.0
 10
172.7558339046665
 20
-95.92983465666438
 30
0.0
 10
171.9273714046666
 20
-95.92983465666438
 30
0.0
 10
171.2558239046666
 20
-95.2582521566643
 30
0.0
 10
171.2558239046666
 20
-94.42982465666418
 30
0.0
  0
SPLINE
  5
31B8
330
3379
100
AcDbEntity
  8
CUTS
 62
     1
420
 16711680
370
    25
100
AcDbSpline
210
0.0
220
0.0
230
1.0
 70
     8
 71
     3
 72
     8
 73
     4
 74
     0
 42
0.000000001
 43
0.001
 12
1.0
 22
0.0
 32
0.0
 13
1.0
 23
0.0
 33
0.0
 40
0.0
 40
0.0
 40
0.0
 40
0.0
 40
1.0
 40
1.0
 40
1.0
 40
1.0
 10
171.2558239046666
 20
-94.42982465666418
 30
0.0
 10
171.2558239046666
 20
-93.6013609066641
 30
0.0
 10
171.9273714046666
 20
-92.9298134066645
 30
0.0
 10
172.7558339046665
 20
-92.9298134066645
 30
0.0
  0
SPLINE
  5
31BA
330
3379
100
AcDbEntity
  8
CUTS
 62
     1
420
 16711680
370
    25
100
AcDbSpline
210
0.0
220
0.0
230
1.0
 70
     8
 71
     3
 72
     8
 73
     4
 74
     0
 42
0.000000001
 43
0.001
 12
1.0
 22
0.0
 32
0.0
 13
1.0
 23
0.0
 33
0.0
 40
0.0
 40
0.0
 40
0.0
 40
0.0
 40
1.0
 40
1.0
 40
1.0
 40
1.0
 10
172.7558339046665
 20
-92.9298134066645
 30
0.0
 10
173.5842626546666
 20
-92.9298134066645
 30
0.0
 10
174.2558451546665
 20
-93.6013609066641
 30
0.0
 10
174.2558451546665
 20
-94.42982465666418
 30
0.0
  0
SPLINE
  5
31BD
330
3379
100
AcDbEntity
  8
CUTS
 62
     1
420
 16711680
370
    25
100
AcDbSpline
210
0.0
220
0.0
230
1.0
 70
     8
 71
     3
 72
     8
 73
     4
 74
     0
 42
0.000000001
 43
0.001
 12
1.0
 22
0.0
 32
0.0
 13
1.0
 23
0.0
 33
0.0
 40
0.0
 40
0.0
 40
0.0
 40
0.0
 40
1.0
 40
1.0
 40
1.0
 40
1.0
 10
263.5266151546666
 20
-127.6332684066643
 30
0.0
 10
263.5266151546666
 20
-128.4616971566642
 30
0.0
 10
262.8550314046665
 20
-129.1332796566642
 30
0.0
 10
262.0266039046666
 20
-129.1332796566642
 30
0.0
  0
SPLINE
  5
31C0
330
3379
100
AcDbEntity
  8
CUTS
 62
     1
420
 16711680
370
    25
100
AcDbSpline
210
0.0
220
0.0
230
1.0
 70
     8
 71
     3
 72
     8
 73
     4
 74
     0
 42
0.000000001
 43
0.001
 12
1.0
 22
0.0
 32
0.0
 13
1.0
 23
0.0
 33
0.0
 40
0.0
 40
0.0
 40
0.0
 40
0.0
 40
1.0
 40
1.0
 40
1.0
 40
1.0
 10
262.0266039046666
 20
-129.1332796566642
 30
0.0
 10
261.1981764046665
 20
-129.1332796566642
 30
0.0
 10
260.5265926546667
 20
-128.4616971566642
 30
0.0
 10
260.5265926546667
 20
-127.6332684066643
 30
0.0
  0
SPLINE
  5
31C2
330
3379
100
AcDbEntity
  8
CUTS
 62
     1
420
 16711680
370
    25
100
AcDbSpline
210
0.0
220
0.0
230
1.0
 70
     8
 71
     3
 72
     8
 73
     4
 74
     0
 42
0.000000001
 43
0.001
 12
1.0
 22
0.0
 32
0.0
 13
1.0
 23
0.0
 33
0.0
 40
0.0
 40
0.0
 40
0.0
 40
0.0
 40
1.0
 40
1.0
 40
1.0
 40
1.0
 10
260.5265926546667
 20
-127.6332684066643
 30
0.0
 10
260.5265926546667
 20
-126.8048046566642
 30
0.0
 10
261.1981764046665
 20
-126.1332571566642
 30
0.0
 10
262.0266039046666
 20
-126.1332571566642
 30
0.0
  0
SPLINE
  5
31C4
330
3379
100
AcDbEntity
  8
CUTS
 62
     1
420
 16711680
370
    25
100
AcDbSpline
210
0.0
220
0.0
230
1.0
 70
     8
 71
     3
 72
     8
 73
     4
 74
     0
 42
0.000000001
 43
0.001
 12
1.0
 22
0.0
 32
0.0
 13
1.0
 23
0.0
 33
0.0
 40
0.0
 40
0.0
 40
0.0
 40
0.0
 40
1.0
 40
1.0
 40
1.0
 40
1.0
 10
262.0266039046666
 20
-126.1332571566642
 30
0.0
 10
262.8550314046665
 20
-126.1332571566642
 30
0.0
 10
263.5266151546666
 20
-126.8048046566642
 30
0.0
 10
263.5266151546666
 20
-127.6332684066643
 30
0.0
  0
SPLINE
  5
31C9
330
3379
100
AcDbEntity
  8
CUTS
 62
     1
420
 16711680
370
    25
100
AcDbSpline
210
0.0
220
0.0
230
1.0
 70
     8
 71
     3
 72
     8
 73
     4
 74
     0
 42
0.000000001
 43
0.001
 12
1.0
 22
0.0
 32
0.0
 13
1.0
 23
0.0
 33
0.0
 40
0.0
 40
0.0
 40
0.0
 40
0.0
 40
1.0
 40
1.0
 40
1.0
 40
1.0
 10
208.1447376546666
 20
-125.2195634066642
 30
0.0
 10
208.1447376546666
 20
-126.0479909066644
 30
0.0
 10
207.4731539046665
 20
-126.7195746566641
 30
0.0
 10
206.6447264046664
 20
-126.7195746566641
 30
0.0
  0
SPLINE
  5
31CB
330
3379
100
AcDbEntity
  8
CUTS
 62
     1
420
 16711680
370
    25
100
AcDbSpline
210
0.0
220
0.0
230
1.0
 70
     8
 71
     3
 72
     8
 73
     4
 74
     0
 42
0.000000001
 43
0.001
 12
1.0
 22
0.0
 32
0.0
 13
1.0
 23
0.0
 33
0.0
 40
0.0
 40
0.0
 40
0.0
 40
0.0
 40
1.0
 40
1.0
 40
1.0
 40
1.0
 10
206.6447264046664
 20
-126.7195746566641
 30
0.0
 10
205.8162626546666
 20
-126.7195746566641
 30
0.0
 10
205.1447151546665
 20
-126.0479909066644
 30
0.0
 10
205.1447151546665
 20
-125.2195634066642
 30
0.0
  0
SPLINE
  5
31CE
330
3379
100
AcDbEntity
  8
CUTS
 62
     1
420
 16711680
370
    25
100
AcDbSpline
210
0.0
220
0.0
230
1.0
 70
     8
 71
     3
 72
     8
 73
     4
 74
     0
 42
0.000000001
 43
0.001
 12
1.0
 22
0.0
 32
0.0
 13
1.0
 23
0.0
 33
0.0
 40
0.0
 40
0.0
 40
0.0
 40
0.0
 40
1.0
 40
1.0
 40
1.0
 40
1.0
 10
205.1447151546665
 20
-125.2195634066642
 30
0.0
 10
205.1447151546665
 20
-124.3911346566643
 30
0.0
 10
205.8162626546666
 20
-123.7195521566642
 30
0.0
 10
206.6447264046664
 20
-123.7195521566642
 30
0.0
  0
SPLINE
  5
31D0
330
3379
100
AcDbEntity
  8
CUTS
 62
     1
420
 16711680
370
    25
100
AcDbSpline
210
0.0
220
0.0
230
1.0
 70
     8
 71
     3
 72
     8
 73
     4
 74
     0
 42
0.000000001
 43
0.001
 12
1.0
 22
0.0
 32
0.0
 13
1.0
 23
0.0
 33
0.0
 40
0.0
 40
0.0
 40
0.0
 40
0.0
 40
1.0
 40
1.0
 40
1.0
 40
1.0
 10
206.6447264046664
 20
-123.7195521566642
 30
0.0
 10
207.4731539046665
 20
-123.7195521566642
 30
0.0
 10
208.1447376546666
 20
-124.3911346566643
 30
0.0
 10
208.1447376546666
 20
-125.2195634066642
 30
0.0
  0
SPLINE
  5
31D5
330
3379
100
AcDbEntity
  8
CUTS
 62
     1
420
 16711680
370
    25
100
AcDbSpline
210
0.0
220
0.0
230
1.0
 70
     8
 71
     3
 72
     8
 73
     4
 74
     0
 42
0.000000001
 43
0.001
 12
1.0
 22
0.0
 32
0.0
 13
1.0
 23
0.0
 33
0.0
 40
0.0
 40
0.0
 40
0.0
 40
0.0
 40
1.0
 40
1.0
 40
1.0
 40
1.0
 10
74.50507140466647
 20
-145.0947096566643
 30
0.0
 10
74.50507140466647
 20
-145.9231384066641
 30
0.0
 10
73.83348890466635
 20
-146.5947209066642
 30
0.0
 10
73.00506015466652
 20
-146.5947209066642
 30
0.0
  0
SPLINE
  5
31D7
330
3379
100
AcDbEntity
  8
CUTS
 62
     1
420
 16711680
370
    25
100
AcDbSpline
210
0.0
220
0.0
230
1.0
 70
     8
 71
     3
 72
     8
 73
     4
 74
     0
 42
0.000000001
 43
0.001
 12
1.0
 22
0.0
 32
0.0
 13
1.0
 23
0.0
 33
0.0
 40
0.0
 40
0.0
 40
0.0
 40
0.0
 40
1.0
 40
1.0
 40
1.0
 40
1.0
 10
73.00506015466652
 20
-146.5947209066642
 30
0.0
 10
72.17663265466666
 20
-146.5947209066642
 30
0.0
 10
71.50504890466652
 20
-145.9231384066641
 30
0.0
 10
71.50504890466652
 20
-145.0947096566643
 30
0.0
  0
SPLINE
  5
31D9
330
3379
100
AcDbEntity
  8
CUTS
 62
     1
420
 16711680
370
    25
100
AcDbSpline
210
0.0
220
0.0
230
1.0
 70
     8
 71
     3
 72
     8
 73
     4
 74
     0
 42
0.000000001
 43
0.001
 12
1.0
 22
0.0
 32
0.0
 13
1.0
 23
0.0
 33
0.0
 40
0.0
 40
0.0
 40
0.0
 40
0.0
 40
1.0
 40
1.0
 40
1.0
 40
1.0
 10
71.50504890466652
 20
-145.0947096566643
 30
0.0
 10
71.50504890466652
 20
-144.2662821566642
 30
0.0
 10
72.17663265466666
 20
-143.5946996566641
 30
0.0
 10
73.00506015466652
 20
-143.5946996566641
 30
0.0
  0
SPLINE
  5
31DC
330
3379
100
AcDbEntity
  8
CUTS
 62
     1
420
 16711680
370
    25
100
AcDbSpline
210
0.0
220
0.0
230
1.0
 70
     8
 71
     3
 72
     8
 73
     4
 74
     0
 42
0.000000001
 43
0.001
 12
1.0
 22
0.0
 32
0.0
 13
1.0
 23
0.0
 33
0.0
 40
0.0
 40
0.0
 40
0.0
 40
0.0
 40
1.0
 40
1.0
 40
1.0
 40
1.0
 10
73.00506015466652
 20
-143.5946996566641
 30
0.0
 10
73.83348890466635
 20
-143.5946996566641
 30
0.0
 10
74.50507140466647
 20
-144.2662821566642
 30
0.0
 10
74.50507140466647
 20
-145.0947096566643
 30
0.0
  0
SPLINE
  5
31E0
330
3379
100
AcDbEntity
  8
CUTS
 62
     1
420
 16711680
370
    25
100
AcDbSpline
210
0.0
220
0.0
230
1.0
 70
     8
 71
     3
 72
     8
 73
     4
 74
     0
 42
0.000000001
 43
0.001
 12
1.0
 22
0.0
 32
0.0
 13
1.0
 23
0.0
 33
0.0
 40
0.0
 40
0.0
 40
0.0
 40
0.0
 40
1.0
 40
1.0
 40
1.0
 40
1.0
 10
129.5419326546666
 20
-123.7195521566642
 30
0.0
 10
129.5419326546666
 20
-124.5479796566643
 30
0.0
 10
128.8703489046665
 20
-125.2195634066642
 30
0.0
 10
128.0419214046664
 20
-125.2195634066642
 30
0.0
  0
SPLINE
  5
31E3
330
3379
100
AcDbEntity
  8
CUTS
 62
     1
420
 16711680
370
    25
100
AcDbSpline
210
0.0
220
0.0
230
1.0
 70
     8
 71
     3
 72
     8
 73
     4
 74
     0
 42
0.000000001
 43
0.001
 12
1.0
 22
0.0
 32
0.0
 13
1.0
 23
0.0
 33
0.0
 40
0.0
 40
0.0
 40
0.0
 40
0.0
 40
1.0
 40
1.0
 40
1.0
 40
1.0
 10
128.0419214046664
 20
-125.2195634066642
 30
0.0
 10
127.2134939046666
 20
-125.2195634066642
 30
0.0
 10
126.5419101546665
 20
-124.5479796566643
 30
0.0
 10
126.5419101546665
 20
-123.7195521566642
 30
0.0
  0
SPLINE
  5
31E5
330
3379
100
AcDbEntity
  8
CUTS
 62
     1
420
 16711680
370
    25
100
AcDbSpline
210
0.0
220
0.0
230
1.0
 70
     8
 71
     3
 72
     8
 73
     4
 74
     0
 42
0.000000001
 43
0.001
 12
1.0
 22
0.0
 32
0.0
 13
1.0
 23
0.0
 33
0.0
 40
0.0
 40
0.0
 40
0.0
 40
0.0
 40
1.0
 40
1.0
 40
1.0
 40
1.0
 10
126.5419101546665
 20
-123.7195521566642
 30
0.0
 10
126.5419101546665
 20
-122.8910884066641
 30
0.0
 10
127.2134939046666
 20
-122.2195409066642
 30
0.0
 10
128.0419214046664
 20
-122.2195409066642
 30
0.0
  0
SPLINE
  5
31E7
330
3379
100
AcDbEntity
  8
CUTS
 62
     1
420
 16711680
370
    25
100
AcDbSpline
210
0.0
220
0.0
230
1.0
 70
     8
 71
     3
 72
     8
 73
     4
 74
     0
 42
0.000000001
 43
0.001
 12
1.0
 22
0.0
 32
0.0
 13
1.0
 23
0.0
 33
0.0
 40
0.0
 40
0.0
 40
0.0
 40
0.0
 40
1.0
 40
1.0
 40
1.0
 40
1.0
 10
128.0419214046664
 20
-122.2195409066642
 30
0.0
 10
128.8703489046665
 20
-122.2195409066642
 30
0.0
 10
129.5419326546666
 20
-122.8910884066641
 30
0.0
 10
129.5419326546666
 20
-123.7195521566642
 30
0.0
  0
LWPOLYLINE
  5
321B
330
3379
100
AcDbEntity
  8
CUTS
 62
     1
420
 16711680
370
    25
100
AcDbPolyline
 90
       13
 70
     0
 43
0.0
 10
84.52466640466645
 20
-155.0631521566643
 10
59.40477140466646
 20
-144.0264996566644
 10
59.40477140466646
 20
-134.9929184066642
 10
71.78974140466642
 20
-98.85259965666418
 10
74.92487640466646
 20
-91.70214590666419
 10
95.72430140466662
 20
-97.30990215666418
 10
110.1232801546666
 20
-95.27754965666429
 10
118.7628076546666
 20
-88.7021246566643
 10
186.9547514046666
 20
-88.77126840666418
 10
269.3230714046667
 20
-104.3086596566642
 10
269.3230714046667
 20
-148.6891634066642
 10
196.8413489046665
 20
-148.8920096566642
 10
161.9600939046665
 20
-155.0631521566643
  0
LWPOLYLINE
  5
326E
330
3379
100
AcDbEntity
  8
CUTS
 62
     1
420
 16711680
370
    25
100
AcDbPolyline
 90
       13
 70
     0
 43
0.0
 10
84.52466640466639
 20
-74.06791382277937
 10
59.40477140466641
 20
-63.03126132277943
 10
59.40477140466641
 20
-53.9976800727792
 10
71.78974140466636
 20
-17.85736132277923
 10
74.9248764046664
 20
-10.70690757277923
 10
95.72430140466656
 20
-16.31466382277922
 10
110.1232801546665
 20
-14.28231132277934
 10
118.7628076546665
 20
-7.70688632277934
 10
186.9547514046666
 20
-7.776030072779221
 10
269.3230714046666
 20
-23.31342132277923
 10
269.3230714046666
 20
-67.6939250727793
 10
196.8413489046665
 20
-67.89677132277929
 10
161.9600939046665
 20
-74.06791382277937
  0
LINE
  5
32C4
330
3379
100
AcDbEntity
  8
CUTS
 62
     1
420
 16711680
370
    25
100
AcDbLine
 10
84.52466640466639
 20
-74.06791382277937
 30
0.0
 11
161.9600939046665
 21
-74.06791382277937
 31
0.0
  0
SPLINE
  5
32EF
330
3379
100
AcDbEntity
  8
CUTS
 62
     1
420
 16711680
370
    25
100
AcDbSpline
210
0.0
220
0.0
230
1.0
 70
     8
 71
     3
 72
     8
 73
     4
 74
     0
 42
0.000000001
 43
0.001
 12
1.0
 22
0.0
 32
0.0
 13
1.0
 23
0.0
 33
0.0
 40
0.0
 40
0.0
 40
0.0
 40
0.0
 40
1.0
 40
1.0
 40
1.0
 40
1.0
 10
174.2558451546664
 20
-13.43458632277923
 30
0.0
 10
174.2558451546664
 20
-14.26301382277934
 30
0.0
 10
173.5842626546665
 20
-14.93459632277943
 30
0.0
 10
172.7558339046665
 20
-14.93459632277943
 30
0.0
  0
SPLINE
  5
32F2
330
3379
100
AcDbEntity
  8
CUTS
 62
     1
420
 16711680
370
    25
100
AcDbSpline
210
0.0
220
0.0
230
1.0
 70
     8
 71
     3
 72
     8
 73
     4
 74
     0
 42
0.000000001
 43
0.001
 12
1.0
 22
0.0
 32
0.0
 13
1.0
 23
0.0
 33
0.0
 40
0.0
 40
0.0
 40
0.0
 40
0.0
 40
1.0
 40
1.0
 40
1.0
 40
1.0
 10
172.7558339046665
 20
-14.93459632277943
 30
0.0
 10
171.9273714046666
 20
-14.93459632277943
 30
0.0
 10
171.2558239046665
 20
-14.26301382277934
 30
0.0
 10
171.2558239046665
 20
-13.43458632277923
 30
0.0
  0
SPLINE
  5
32F4
330
3379
100
AcDbEntity
  8
CUTS
 62
     1
420
 16711680
370
    25
100
AcDbSpline
210
0.0
220
0.0
230
1.0
 70
     8
 71
     3
 72
     8
 73
     4
 74
     0
 42
0.000000001
 43
0.001
 12
1.0
 22
0.0
 32
0.0
 13
1.0
 23
0.0
 33
0.0
 40
0.0
 40
0.0
 40
0.0
 40
0.0
 40
1.0
 40
1.0
 40
1.0
 40
1.0
 10
171.2558239046665
 20
-13.43458632277923
 30
0.0
 10
171.2558239046665
 20
-12.60612257277914
 30
0.0
 10
171.9273714046666
 20
-11.93457507277954
 30
0.0
 10
172.7558339046665
 20
-11.93457507277954
 30
0.0
  0
SPLINE
  5
32F6
330
3379
100
AcDbEntity
  8
CUTS
 62
     1
420
 16711680
370
    25
100
AcDbSpline
210
0.0
220
0.0
230
1.0
 70
     8
 71
     3
 72
     8
 73
     4
 74
     0
 42
0.000000001
 43
0.001
 12
1.0
 22
0.0
 32
0.0
 13
1.0
 23
0.0
 33
0.0
 40
0.0
 40
0.0
 40
0.0
 40
0.0
 40
1.0
 40
1.0
 40
1.0
 40
1.0
 10
172.7558339046665
 20
-11.93457507277954
 30
0.0
 10
173.5842626546665
 20
-11.93457507277954
 30
0.0
 10
174.2558451546664
 20
-12.60612257277914
 30
0.0
 10
174.2558451546664
 20
-13.43458632277923
 30
0.0
  0
SPLINE
  5
32F9
330
3379
100
AcDbEntity
  8
CUTS
 62
     1
420
 16711680
370
    25
100
AcDbSpline
210
0.0
220
0.0
230
1.0
 70
     8
 71
     3
 72
     8
 73
     4
 74
     0
 42
0.000000001
 43
0.001
 12
1.0
 22
0.0
 32
0.0
 13
1.0
 23
0.0
 33
0.0
 40
0.0
 40
0.0
 40
0.0
 40
0.0
 40
1.0
 40
1.0
 40
1.0
 40
1.0
 10
263.5266151546665
 20
-46.63803007277933
 30
0.0
 10
263.5266151546665
 20
-47.46645882277927
 30
0.0
 10
262.8550314046664
 20
-48.13804132277927
 30
0.0
 10
262.0266039046666
 20
-48.13804132277927
 30
0.0
  0
SPLINE
  5
32FC
330
3379
100
AcDbEntity
  8
CUTS
 62
     1
420
 16711680
370
    25
100
AcDbSpline
210
0.0
220
0.0
230
1.0
 70
     8
 71
     3
 72
     8
 73
     4
 74
     0
 42
0.000000001
 43
0.001
 12
1.0
 22
0.0
 32
0.0
 13
1.0
 23
0.0
 33
0.0
 40
0.0
 40
0.0
 40
0.0
 40
0.0
 40
1.0
 40
1.0
 40
1.0
 40
1.0
 10
262.0266039046666
 20
-48.13804132277927
 30
0.0
 10
261.1981764046665
 20
-48.13804132277927
 30
0.0
 10
260.5265926546666
 20
-47.46645882277927
 30
0.0
 10
260.5265926546666
 20
-46.63803007277933
 30
0.0
  0
SPLINE
  5
32FE
330
3379
100
AcDbEntity
  8
CUTS
 62
     1
420
 16711680
370
    25
100
AcDbSpline
210
0.0
220
0.0
230
1.0
 70
     8
 71
     3
 72
     8
 73
     4
 74
     0
 42
0.000000001
 43
0.001
 12
1.0
 22
0.0
 32
0.0
 13
1.0
 23
0.0
 33
0.0
 40
0.0
 40
0.0
 40
0.0
 40
0.0
 40
1.0
 40
1.0
 40
1.0
 40
1.0
 10
260.5265926546666
 20
-46.63803007277933
 30
0.0
 10
260.5265926546666
 20
-45.80956632277925
 30
0.0
 10
261.1981764046665
 20
-45.13801882277927
 30
0.0
 10
262.0266039046666
 20
-45.13801882277927
 30
0.0
  0
SPLINE
  5
3300
330
3379
100
AcDbEntity
  8
CUTS
 62
     1
420
 16711680
370
    25
100
AcDbSpline
210
0.0
220
0.0
230
1.0
 70
     8
 71
     3
 72
     8
 73
     4
 74
     0
 42
0.000000001
 43
0.001
 12
1.0
 22
0.0
 32
0.0
 13
1.0
 23
0.0
 33
0.0
 40
0.0
 40
0.0
 40
0.0
 40
0.0
 40
1.0
 40
1.0
 40
1.0
 40
1.0
 10
262.0266039046666
 20
-45.13801882277927
 30
0.0
 10
262.8550314046664
 20
-45.13801882277927
 30
0.0
 10
263.5266151546665
 20
-45.80956632277925
 30
0.0
 10
263.5266151546665
 20
-46.63803007277933
 30
0.0
  0
SPLINE
  5
3305
330
3379
100
AcDbEntity
  8
CUTS
 62
     1
420
 16711680
370
    25
100
AcDbSpline
210
0.0
220
0.0
230
1.0
 70
     8
 71
     3
 72
     8
 73
     4
 74
     0
 42
0.000000001
 43
0.001
 12
1.0
 22
0.0
 32
0.0
 13
1.0
 23
0.0
 33
0.0
 40
0.0
 40
0.0
 40
0.0
 40
0.0
 40
1.0
 40
1.0
 40
1.0
 40
1.0
 10
208.1447376546665
 20
-44.22432507277928
 30
0.0
 10
208.1447376546665
 20
-45.05275257277948
 30
0.0
 10
207.4731539046664
 20
-45.72433632277911
 30
0.0
 10
206.6447264046664
 20
-45.72433632277911
 30
0.0
  0
SPLINE
  5
3307
330
3379
100
AcDbEntity
  8
CUTS
 62
     1
420
 16711680
370
    25
100
AcDbSpline
210
0.0
220
0.0
230
1.0
 70
     8
 71
     3
 72
     8
 73
     4
 74
     0
 42
0.000000001
 43
0.001
 12
1.0
 22
0.0
 32
0.0
 13
1.0
 23
0.0
 33
0.0
 40
0.0
 40
0.0
 40
0.0
 40
0.0
 40
1.0
 40
1.0
 40
1.0
 40
1.0
 10
206.6447264046664
 20
-45.72433632277911
 30
0.0
 10
205.8162626546665
 20
-45.72433632277911
 30
0.0
 10
205.1447151546664
 20
-45.05275257277948
 30
0.0
 10
205.1447151546664
 20
-44.22432507277928
 30
0.0
  0
SPLINE
  5
330A
330
3379
100
AcDbEntity
  8
CUTS
 62
     1
420
 16711680
370
    25
100
AcDbSpline
210
0.0
220
0.0
230
1.0
 70
     8
 71
     3
 72
     8
 73
     4
 74
     0
 42
0.000000001
 43
0.001
 12
1.0
 22
0.0
 32
0.0
 13
1.0
 23
0.0
 33
0.0
 40
0.0
 40
0.0
 40
0.0
 40
0.0
 40
1.0
 40
1.0
 40
1.0
 40
1.0
 10
205.1447151546664
 20
-44.22432507277928
 30
0.0
 10
205.1447151546664
 20
-43.39589632277934
 30
0.0
 10
205.8162626546665
 20
-42.72431382277922
 30
0.0
 10
206.6447264046664
 20
-42.72431382277922
 30
0.0
  0
SPLINE
  5
330C
330
3379
100
AcDbEntity
  8
CUTS
 62
     1
420
 16711680
370
    25
100
AcDbSpline
210
0.0
220
0.0
230
1.0
 70
     8
 71
     3
 72
     8
 73
     4
 74
     0
 42
0.000000001
 43
0.001
 12
1.0
 22
0.0
 32
0.0
 13
1.0
 23
0.0
 33
0.0
 40
0.0
 40
0.0
 40
0.0
 40
0.0
 40
1.0
 40
1.0
 40
1.0
 40
1.0
 10
206.6447264046664
 20
-42.72431382277922
 30
0.0
 10
207.4731539046664
 20
-42.72431382277922
 30
0.0
 10
208.1447376546665
 20
-43.39589632277934
 30
0.0
 10
208.1447376546665
 20
-44.22432507277928
 30
0.0
  0
SPLINE
  5
3311
330
3379
100
AcDbEntity
  8
CUTS
 62
     1
420
 16711680
370
    25
100
AcDbSpline
210
0.0
220
0.0
230
1.0
 70
     8
 71
     3
 72
     8
 73
     4
 74
     0
 42
0.000000001
 43
0.001
 12
1.0
 22
0.0
 32
0.0
 13
1.0
 23
0.0
 33
0.0
 40
0.0
 40
0.0
 40
0.0
 40
0.0
 40
1.0
 40
1.0
 40
1.0
 40
1.0
 10
74.50507140466641
 20
-64.09947132277934
 30
0.0
 10
74.50507140466641
 20
-64.92790007277917
 30
0.0
 10
73.8334889046663
 20
-65.59948257277928
 30
0.0
 10
73.00506015466647
 20
-65.59948257277928
 30
0.0
  0
SPLINE
  5
3313
330
3379
100
AcDbEntity
  8
CUTS
 62
     1
420
 16711680
370
    25
100
AcDbSpline
210
0.0
220
0.0
230
1.0
 70
     8
 71
     3
 72
     8
 73
     4
 74
     0
 42
0.000000001
 43
0.001
 12
1.0
 22
0.0
 32
0.0
 13
1.0
 23
0.0
 33
0.0
 40
0.0
 40
0.0
 40
0.0
 40
0.0
 40
1.0
 40
1.0
 40
1.0
 40
1.0
 10
73.00506015466647
 20
-65.59948257277928
 30
0.0
 10
72.1766326546666
 20
-65.59948257277928
 30
0.0
 10
71.50504890466647
 20
-64.92790007277917
 30
0.0
 10
71.50504890466647
 20
-64.09947132277934
 30
0.0
  0
SPLINE
  5
3315
330
3379
100
AcDbEntity
  8
CUTS
 62
     1
420
 16711680
370
    25
100
AcDbSpline
210
0.0
220
0.0
230
1.0
 70
     8
 71
     3
 72
     8
 73
     4
 74
     0
 42
0.000000001
 43
0.001
 12
1.0
 22
0.0
 32
0.0
 13
1.0
 23
0.0
 33
0.0
 40
0.0
 40
0.0
 40
0.0
 40
0.0
 40
1.0
 40
1.0
 40
1.0
 40
1.0
 10
71.50504890466647
 20
-64.09947132277934
 30
0.0
 10
71.50504890466647
 20
-63.27104382277925
 30
0.0
 10
72.1766326546666
 20
-62.59946132277913
 30
0.0
 10
73.00506015466647
 20
-62.59946132277913
 30
0.0
  0
SPLINE
  5
3318
330
3379
100
AcDbEntity
  8
CUTS
 62
     1
420
 16711680
370
    25
100
AcDbSpline
210
0.0
220
0.0
230
1.0
 70
     8
 71
     3
 72
     8
 73
     4
 74
     0
 42
0.000000001
 43
0.001
 12
1.0
 22
0.0
 32
0.0
 13
1.0
 23
0.0
 33
0.0
 40
0.0
 40
0.0
 40
0.0
 40
0.0
 40
1.0
 40
1.0
 40
1.0
 40
1.0
 10
73.00506015466647
 20
-62.59946132277913
 30
0.0
 10
73.8334889046663
 20
-62.59946132277913
 30
0.0
 10
74.50507140466641
 20
-63.27104382277925
 30
0.0
 10
74.50507140466641
 20
-64.09947132277934
 30
0.0
  0
SPLINE
  5
331C
330
3379
100
AcDbEntity
  8
CUTS
 62
     1
420
 16711680
370
    25
100
AcDbSpline
210
0.0
220
0.0
230
1.0
 70
     8
 71
     3
 72
     8
 73
     4
 74
     0
 42
0.000000001
 43
0.001
 12
1.0
 22
0.0
 32
0.0
 13
1.0
 23
0.0
 33
0.0
 40
0.0
 40
0.0
 40
0.0
 40
0.0
 40
1.0
 40
1.0
 40
1.0
 40
1.0
 10
129.5419326546665
 20
-42.72431382277922
 30
0.0
 10
129.5419326546665
 20
-43.55274132277931
 30
0.0
 10
128.8703489046665
 20
-44.22432507277928
 30
0.0
 10
128.0419214046664
 20
-44.22432507277928
 30
0.0
  0
SPLINE
  5
331F
330
3379
100
AcDbEntity
  8
CUTS
 62
     1
420
 16711680
370
    25
100
AcDbSpline
210
0.0
220
0.0
230
1.0
 70
     8
 71
     3
 72
     8
 73
     4
 74
     0
 42
0.000000001
 43
0.001
 12
1.0
 22
0.0
 32
0.0
 13
1.0
 23
0.0
 33
0.0
 40
0.0
 40
0.0
 40
0.0
 40
0.0
 40
1.0
 40
1.0
 40
1.0
 40
1.0
 10
128.0419214046664
 20
-44.22432507277928
 30
0.0
 10
127.2134939046665
 20
-44.22432507277928
 30
0.0
 10
126.5419101546664
 20
-43.55274132277931
 30
0.0
 10
126.5419101546664
 20
-42.72431382277922
 30
0.0
  0
SPLINE
  5
3321
330
3379
100
AcDbEntity
  8
CUTS
 62
     1
420
 16711680
370
    25
100
AcDbSpline
210
0.0
220
0.0
230
1.0
 70
     8
 71
     3
 72
     8
 73
     4
 74
     0
 42
0.000000001
 43
0.001
 12
1.0
 22
0.0
 32
0.0
 13
1.0
 23
0.0
 33
0.0
 40
0.0
 40
0.0
 40
0.0
 40
0.0
 40
1.0
 40
1.0
 40
1.0
 40
1.0
 10
126.5419101546664
 20
-42.72431382277922
 30
0.0
 10
126.5419101546664
 20
-41.89585007277914
 30
0.0
 10
127.2134939046665
 20
-41.22430257277928
 30
0.0
 10
128.0419214046664
 20
-41.22430257277928
 30
0.0
  0
SPLINE
  5
3323
330
3379
100
AcDbEntity
  8
CUTS
 62
     1
420
 16711680
370
    25
100
AcDbSpline
210
0.0
220
0.0
230
1.0
 70
     8
 71
     3
 72
     8
 73
     4
 74
     0
 42
0.000000001
 43
0.001
 12
1.0
 22
0.0
 32
0.0
 13
1.0
 23
0.0
 33
0.0
 40
0.0
 40
0.0
 40
0.0
 40
0.0
 40
1.0
 40
1.0
 40
1.0
 40
1.0
 10
128.0419214046664
 20
-41.22430257277928
 30
0.0
 10
128.8703489046665
 20
-41.22430257277928
 30
0.0
 10
129.5419326546665
 20
-41.89585007277914
 30
0.0
 10
129.5419326546665
 20
-42.72431382277922
 30
0.0
  0
LINE
  5
3357
330
3379
100
AcDbEntity
  8
laser bed referance
100
AcDbLine
 10
0.0
 20
0.0
 30
0.0
 11
609.6
 21
0.0
 31
0.0
  0
LINE
  5
3358
330
3379
100
AcDbEntity
  8
laser bed referance
100
AcDbLine
 10
0.0
 20
-304.8
 30
0.0
 11
0.0
 21
0.0
 31
0.0
  0
LINE
  5
3359
330
3379
100
AcDbEntity
  8
laser bed referance
100
AcDbLine
 10
609.6
 20
-304.8
 30
0.0
 11
609.6
 21
0.0
 31
0.0
  0
LINE
  5
335A
330
3379
100
AcDbEntity
  8
laser bed referance
100
AcDbLine
 10
0.0
 20
-304.8
 30
0.0
 11
609.6
 21
-304.8
 31
0.0
  0
ENDSEC
  0
SECTION
  2
OBJECTS
  0
DICTIONARY
  5
3367
330
0
100
AcDbDictionary
281
     1
  3
ACAD_GROUP
350
3368
  3
ACAD_LAYOUT
350
3374
  3
ACAD_MATERIAL
350
3395
  3
ACAD_MLEADERSTYLE
350
33C4
  3
ACAD_MLINESTYLE
350
3371
  3
ACAD_PLOTSETTINGS
350
3373
  3
ACAD_PLOTSTYLENAME
350
3369
  3
ACAD_TABLESTYLE
350
33C3
  3
ACAD_VISUALSTYLE
350
3384
  3
QCAD_OBJECTS
350
339A
  0
DICTIONARY
  5
3368
102
{ACAD_REACTORS
330
3367
102
}
330
3367
100
AcDbDictionary
281
     1
  0
DICTIONARY
  5
3374
102
{ACAD_REACTORS
330
3367
102
}
330
3367
100
AcDbDictionary
281
     1
  3
Layout1
350
3378
  3
Layout2
350
3380
  3
Model
350
337C
  0
DICTIONARY
  5
3395
102
{ACAD_REACTORS
330
3367
102
}
330
3367
100
AcDbDictionary
281
     1
  3
ByBlock
350
3397
  3
ByLayer
350
3396
  3
Global
350
3398
  0
DICTIONARY
  5
33C4
102
{ACAD_REACTORS
330
3367
102
}
330
3367
100
AcDbDictionary
281
     1
  0
DICTIONARY
  5
3371
102
{ACAD_REACTORS
330
3367
102
}
330
3367
100
AcDbDictionary
281
     1
  3
Standard
350
3372
  0
DICTIONARY
  5
3373
102
{ACAD_REACTORS
330
3367
102
}
330
3367
100
AcDbDictionary
281
     1
  0
ACDBDICTIONARYWDFLT
  5
3369
102
{ACAD_REACTORS
330
3367
102
}
330
3367
100
AcDbDictionary
281
     1
  3
Normal
350
336A
100
AcDbDictionaryWithDefault
340
336A
  0
DICTIONARY
  5
33C3
102
{ACAD_REACTORS
330
3367
102
}
330
3367
100
AcDbDictionary
281
     1
  0
DICTIONARY
  5
3384
102
{ACAD_REACTORS
330
3367
102
}
330
3367
100
AcDbDictionary
281
     1
  3
2dWireframe
350
3389
  3
3D Hidden
350
338B
  3
3dWireframe
350
338A
  3
Basic
350
338C
  3
Brighten
350
3390
  3
ColorChange
350
3394
  3
Conceptual
350
338E
  3
Dim
350
338F
  3
Facepattern
350
3393
  3
Flat
350
3385
  3
FlatWithEdges
350
3386
  3
Gouraud
350
3387
  3
GouraudWithEdges
350
3388
  3
Linepattern
350
3392
  3
Realistic
350
338D
  3
Thicken
350
3391
  0
DICTIONARY
  5
339A
102
{ACAD_REACTORS
330
3367
102
}
330
3367
100
AcDbDictionary
281
     1
  3
Grid/DisplayGrid
350
33A9
  3
Grid/GridSpacingX
350
33A2
  3
Grid/GridSpacingY
350
33A4
  3
MultiPageSettings/Columns
350
33A1
  3
MultiPageSettings/GlueMarginBottom
350
339E
  3
MultiPageSettings/GlueMarginsLeft
350
33A5
  3
MultiPageSettings/GlueMarginsRight
350
339B
  3
MultiPageSettings/GlueMarginsTop
350
33AD
  3
MultiPageSettings/PrintCropMarks
350
339D
  3
MultiPageSettings/Rows
350
33A6
  3
PageSettings/OffsetX
350
33AB
  3
PageSettings/OffsetY
350
33AC
  3
PageSettings/PageOrientation
350
339C
  3
PageSettings/PaperHeight
350
33A0
  3
PageSettings/PaperWidth
350
33A7
  3
PageSettings/Scale
350
339F
  3
PageSettings/ShowBoundingBox
350
33A3
  3
PageSettings/ShowPageBorders
350
33AA
  3
UnitSettings/PaperUnit
350
33A8
  0
LAYOUT
  5
3378
102
{ACAD_REACTORS
330
3374
102
}
330
3374
100
AcDbPlotSettings
  1

  2
none_device
  4

  6

 40
0.0
 41
0.0
 42
0.0
 43
0.0
 44
0.0
 45
0.0
 46
0.0
 47
0.0
 48
0.0
 49
0.0
140
0.0
141
0.0
142
1.0
143
1.0
 70
   688
 72
     0
 73
     0
 74
     5
  7

 75
    16
 76
     0
 77
     2
 78
   300
147
1.0
148
0.0
149
0.0
100
AcDbLayout
  1
Layout1
 70
     1
 71
     1
 10
0.0
 20
0.0
 11
12.0
 21
9.0
 12
0.0
 22
0.0
 32
0.0
 14
1.000000000000000E+20
 24
1.000000000000000E+20
 34
1.000000000000000E+20
 15
-1.000000000000000E+20
 25
-1.000000000000000E+20
 35
-1.000000000000000E+20
146
0.0
 13
0.0
 23
0.0
 33
0.0
 16
1.0
 26
0.0
 36
0.0
 17
0.0
 27
1.0
 37
0.0
 76
     0
330
3375
  0
LAYOUT
  5
3380
102
{ACAD_REACTORS
330
3374
102
}
330
3374
100
AcDbPlotSettings
  1

  2
none_device
  4

  6

 40
0.0
 41
0.0
 42
0.0
 43
0.0
 44
0.0
 45
0.0
 46
0.0
 47
0.0
 48
0.0
 49
0.0
140
0.0
141
0.0
142
1.0
143
1.0
 70
   688
 72
     0
 73
     0
 74
     5
  7

 75
    16
 76
     0
 77
     2
 78
   300
147
1.0
148
0.0
149
0.0
100
AcDbLayout
  1
Layout2
 70
     1
 71
     2
 10
0.0
 20
0.0
 11
0.0
 21
0.0
 12
0.0
 22
0.0
 32
0.0
 14
0.0
 24
0.0
 34
0.0
 15
0.0
 25
0.0
 35
0.0
146
0.0
 13
0.0
 23
0.0
 33
0.0
 16
1.0
 26
0.0
 36
0.0
 17
0.0
 27
1.0
 37
0.0
 76
     0
330
337D
  0
LAYOUT
  5
337C
102
{ACAD_REACTORS
330
3374
102
}
330
3374
100
AcDbPlotSettings
  1

  2
none_device
  4

  6

 40
0.0
 41
0.0
 42
0.0
 43
0.0
 44
0.0
 45
0.0
 46
0.0
 47
0.0
 48
0.0
 49
0.0
140
0.0
141
0.0
142
1.0
143
1.0
 70
  1712
 72
     0
 73
     0
 74
     0
  7

 75
     0
 76
     0
 77
     2
 78
   300
147
1.0
148
0.0
149
0.0
100
AcDbLayout
  1
Model
 70
     1
 71
     0
 10
0.0
 20
0.0
 11
12.0
 21
9.0
 12
0.0
 22
0.0
 32
0.0
 14
1.000000000000000E+20
 24
1.000000000000000E+20
 34
1.000000000000000E+20
 15
-1.000000000000000E+20
 25
-1.000000000000000E+20
 35
-1.000000000000000E+20
146
0.0
 13
0.0
 23
0.0
 33
0.0
 16
1.0
 26
0.0
 36
0.0
 17
0.0
 27
1.0
 37
0.0
 76
     0
330
3379
331
3383
  0
MATERIAL
  5
3397
102
{ACAD_REACTORS
330
3395
102
}
330
3395
100
AcDbMaterial
  1
ByBlock
 72
     1
 94
      127
  0
MATERIAL
  5
3396
102
{ACAD_REACTORS
330
3395
102
}
330
3395
100
AcDbMaterial
  1
ByLayer
 72
     1
 94
      127
  0
MATERIAL
  5
3398
102
{ACAD_REACTORS
330
3395
102
}
330
3395
100
AcDbMaterial
  1
Global
 72
     1
 94
      127
  0
MLINESTYLE
  5
3372
102
{ACAD_REACTORS
330
3371
102
}
330
3371
100
AcDbMlineStyle
  2
Standard
 70
     0
  3

 62
   256
 51
90.0
 52
90.0
 71
     2
 49
0.5
 62
   256
  6
BYLAYER
 49
-0.5
 62
   256
  6
BYLAYER
  0
ACDBPLACEHOLDER
  5
336A
102
{ACAD_REACTORS
330
3369
102
}
330
3369
  0
VISUALSTYLE
  5
3389
102
{ACAD_REACTORS
330
3384
102
}
330
3384
100
AcDbVisualStyle
  2
2dWireframe
 70
     4
177
     2
291
     0
 71
     0
176
     1
 72
     2
176
     1
 73
     0
176
     1
 90
        0
176
     1
 40
-0.6
176
     1
 41
-30.0
176
     1
 62
     5
 63
     7
421
 16777215
176
     1
 74
     1
176
     1
 91
        4
176
     1
 64
     7
176
     1
 65
   257
176
     1
 75
     1
176
     1
175
     1
176
     1
 42
1.0
176
     1
 92
        0
176
     1
 66
   257
176
     1
 43
1.0
176
     1
 76
     1
176
     1
 77
     6
176
     1
 78
     2
176
     1
 67
     7
176
     1
 79
     5
176
     1
170
     0
176
     1
171
     0
176
     1
290
     0
176
     1
 93
        1
176
     1
 44
0.0
176
     1
173
     0
176
     1
  0
VISUALSTYLE
  5
338B
102
{ACAD_REACTORS
330
3384
102
}
330
3384
100
AcDbVisualStyle
  2
3D Hidden
 70
     6
177
     2
291
     0
 71
     1
176
     1
 72
     2
176
     1
 73
     2
176
     1
 90
        0
176
     1
 40
-0.6
176
     1
 41
-30.0
176
     1
 62
     5
 63
     7
421
 16777215
176
     1
 74
     2
176
     1
 91
        2
176
     1
 64
     7
176
     1
 65
   257
176
     1
 75
     2
176
     1
175
     1
176
     1
 42
40.0
176
     1
 92
        0
176
     1
 66
   257
176
     1
 43
1.0
176
     1
 76
     1
176
     1
 77
     6
176
     1
 78
     2
176
     1
 67
     7
176
     1
 79
     3
176
     1
170
     0
176
     1
171
     0
176
     1
290
     0
176
     1
 93
        1
176
     1
 44
0.0
176
     1
173
     0
176
     1
  0
VISUALSTYLE
  5
338A
102
{ACAD_REACTORS
330
3384
102
}
330
3384
100
AcDbVisualStyle
  2
3dWireframe
 70
     5
177
     2
291
     0
 71
     0
176
     1
 72
     2
176
     1
 73
     0
176
     1
 90
        0
176
     1
 40
-0.6
176
     1
 41
-30.0
176
     1
 62
     5
 63
     7
421
 16777215
176
     1
 74
     1
176
     1
 91
        4
176
     1
 64
     7
176
     1
 65
   257
176
     1
 75
     1
176
     1
175
     1
176
     1
 42
1.0
176
     1
 92
        0
176
     1
 66
   257
176
     1
 43
1.0
176
     1
 76
     1
176
     1
 77
     6
176
     1
 78
     2
176
     1
 67
     7
176
     1
 79
     5
176
     1
170
     0
176
     1
171
     0
176
     1
290
     0
176
     1
 93
        1
176
     1
 44
0.0
176
     1
173
     0
176
     1
  0
VISUALSTYLE
  5
338C
102
{ACAD_REACTORS
330
3384
102
}
330
3384
100
AcDbVisualStyle
  2
Basic
 70
     7
177
     2
291
     1
 71
     1
176
     1
 72
     0
176
     1
 73
     1
176
     1
 90
        0
176
     1
 40
-0.6
176
     1
 41
-30.0
176
     1
 62
     5
 63
     7
421
 16777215
176
     1
 74
     0
176
     1
 91
        4
176
     1
 64
     7
176
     1
 65
   257
176
     1
 75
     1
176
     1
175
     1
176
     1
 42
1.0
176
     1
 92
        8
176
     1
 66
     7
176
     1
 43
1.0
176
     1
 76
     1
176
     1
 77
     6
176
     1
 78
     2
176
     1
 67
     7
176
     1
 79
     5
176
     1
170
     0
176
     1
171
     0
176
     1
290
     0
176
     1
 93
        1
176
     1
 44
0.0
176
     1
173
     0
176
     1
  0
VISUALSTYLE
  5
3390
102
{ACAD_REACTORS
330
3384
102
}
330
3384
100
AcDbVisualStyle
  2
Brighten
 70
    12
177
     2
291
     1
 71
     2
176
     1
 72
     2
176
     1
 73
     0
176
     1
 90
        0
176
     1
 40
-0.6
176
     1
 41
-30.0
176
     1
 62
     5
 63
     7
421
 16777215
176
     1
 74
     1
176
     1
 91
        4
176
     1
 64
     7
176
     1
 65
   257
176
     1
 75
     1
176
     1
175
     1
176
     1
 42
1.0
176
     1
 92
        8
176
     1
 66
     7
176
     1
 43
1.0
176
     1
 76
     1
176
     1
 77
     6
176
     1
 78
     2
176
     1
 67
     7
176
     1
 79
     5
176
     1
170
     0
176
     1
171
     0
176
     1
290
     0
176
     1
 93
        1
176
     1
 44
50.0
176
     1
173
     0
176
     1
  0
VISUALSTYLE
  5
3394
102
{ACAD_REACTORS
330
3384
102
}
330
3384
100
AcDbVisualStyle
  2
ColorChange
 70
    16
177
     2
291
     1
 71
     2
176
     1
 72
     2
176
     1
 73
     3
176
     1
 90
        0
176
     1
 40
-0.6
176
     1
 41
-30.0
176
     1
 62
     5
 63
     8
421
  8421504
176
     1
 74
     1
176
     1
 91
        4
176
     1
 64
     7
176
     1
 65
   257
176
     1
 75
     1
176
     1
175
     1
176
     1
 42
1.0
176
     1
 92
        8
176
     1
 66
     8
424
  8421504
176
     1
 43
1.0
176
     1
 76
     1
176
     1
 77
     6
176
     1
 78
     2
176
     1
 67
     7
176
     1
 79
     5
176
     1
170
     0
176
     1
171
     0
176
     1
290
     0
176
     1
 93
        1
176
     1
 44
0.0
176
     1
173
     0
176
     1
  0
VISUALSTYLE
  5
338E
102
{ACAD_REACTORS
330
3384
102
}
330
3384
100
AcDbVisualStyle
  2
Conceptual
 70
     9
177
     2
291
     0
 71
     3
176
     1
 72
     2
176
     1
 73
     0
176
     1
 90
        0
176
     1
 40
-0.6
176
     1
 41
-30.0
176
     1
 62
     5
 63
     7
421
 16777215
176
     1
 74
     2
176
     1
 91
        2
176
     1
 64
     7
176
     1
 65
   257
176
     1
 75
     1
176
     1
175
     1
176
     1
 42
40.0
176
     1
 92
        8
176
     1
 66
     7
176
     1
 43
1.0
176
     1
 76
     1
176
     1
 77
     6
176
     1
 78
     2
176
     1
 67
     7
176
     1
 79
     3
176
     1
170
     0
176
     1
171
     0
176
     1
290
     0
176
     1
 93
        1
176
     1
 44
0.0
176
     1
173
     0
176
     1
  0
VISUALSTYLE
  5
338F
102
{ACAD_REACTORS
330
3384
102
}
330
3384
100
AcDbVisualStyle
  2
Dim
 70
    11
177
     2
291
     1
 71
     2
176
     1
 72
     2
176
     1
 73
     0
176
     1
 90
        0
176
     1
 40
-0.6
176
     1
 41
-30.0
176
     1
 62
     5
 63
     7
421
 16777215
176
     1
 74
     1
176
     1
 91
        4
176
     1
 64
     7
176
     1
 65
   257
176
     1
 75
     1
176
     1
175
     1
176
     1
 42
1.0
176
     1
 92
        8
176
     1
 66
     7
176
     1
 43
1.0
176
     1
 76
     1
176
     1
 77
     6
176
     1
 78
     2
176
     1
 67
     7
176
     1
 79
     5
176
     1
170
     0
176
     1
171
     0
176
     1
290
     0
176
     1
 93
        1
176
     1
 44
-50.0
176
     1
173
     0
176
     1
  0
VISUALSTYLE
  5
3393
102
{ACAD_REACTORS
330
3384
102
}
330
3384
100
AcDbVisualStyle
  2
Facepattern
 70
    15
177
     2
291
     1
 71
     2
176
     1
 72
     2
176
     1
 73
     0
176
     1
 90
        0
176
     1
 40
-0.6
176
     1
 41
-30.0
176
     1
 62
     5
 63
     7
421
 16777215
176
     1
 74
     1
176
     1
 91
        4
176
     1
 64
     7
176
     1
 65
   257
176
     1
 75
     1
176
     1
175
     1
176
     1
 42
1.0
176
     1
 92
        8
176
     1
 66
     7
176
     1
 43
1.0
176
     1
 76
     1
176
     1
 77
     6
176
     1
 78
     2
176
     1
 67
     7
176
     1
 79
     5
176
     1
170
     0
176
     1
171
     0
176
     1
290
     0
176
     1
 93
        1
176
     1
 44
0.0
176
     1
173
     0
176
     1
  0
VISUALSTYLE
  5
3385
102
{ACAD_REACTORS
330
3384
102
}
330
3384
100
AcDbVisualStyle
  2
Flat
 70
     0
177
     2
291
     1
 71
     2
176
     1
 72
     1
176
     1
 73
     1
176
     1
 90
        2
176
     1
 40
-0.6
176
     1
 41
30.0
176
     1
 62
     5
 63
     7
421
 16777215
176
     1
 74
     0
176
     1
 91
        4
176
     1
 64
     7
176
     1
 65
   257
176
     1
 75
     1
176
     1
175
     1
176
     1
 42
1.0
176
     1
 92
        8
176
     1
 66
     7
176
     1
 43
1.0
176
     1
 76
     1
176
     1
 77
     6
176
     1
 78
     2
176
     1
 67
     7
176
     1
 79
     5
176
     1
170
     0
176
     1
171
     0
176
     1
290
     0
176
     1
 93
       13
176
     1
 44
0.0
176
     1
173
     0
176
     1
  0
VISUALSTYLE
  5
3386
102
{ACAD_REACTORS
330
3384
102
}
330
3384
100
AcDbVisualStyle
  2
FlatWithEdges
 70
     1
177
     2
291
     1
 71
     2
176
     1
 72
     1
176
     1
 73
     1
176
     1
 90
        2
176
     1
 40
-0.6
176
     1
 41
30.0
176
     1
 62
     5
 63
     7
421
 16777215
176
     1
 74
     1
176
     1
 91
        4
176
     1
 64
     7
176
     1
 65
   257
176
     1
 75
     1
176
     1
175
     1
176
     1
 42
1.0
176
     1
 92
        0
176
     1
 66
   257
176
     1
 43
1.0
176
     1
 76
     1
176
     1
 77
     6
176
     1
 78
     2
176
     1
 67
     7
176
     1
 79
     5
176
     1
170
     0
176
     1
171
     0
176
     1
290
     0
176
     1
 93
       13
176
     1
 44
0.0
176
     1
173
     0
176
     1
  0
VISUALSTYLE
  5
3387
102
{ACAD_REACTORS
330
3384
102
}
330
3384
100
AcDbVisualStyle
  2
Gouraud
 70
     2
177
     2
291
     1
 71
     2
176
     1
 72
     2
176
     1
 73
     1
176
     1
 90
        2
176
     1
 40
-0.6
176
     1
 41
30.0
176
     1
 62
     5
 63
     7
421
 16777215
176
     1
 74
     0
176
     1
 91
        4
176
     1
 64
     7
176
     1
 65
   257
176
     1
 75
     1
176
     1
175
     1
176
     1
 42
1.0
176
     1
 92
        0
176
     1
 66
     7
176
     1
 43
1.0
176
     1
 76
     1
176
     1
 77
     6
176
     1
 78
     2
176
     1
 67
     7
176
     1
 79
     5
176
     1
170
     0
176
     1
171
     0
176
     1
290
     0
176
     1
 93
       13
176
     1
 44
0.0
176
     1
173
     0
176
     1
  0
VISUALSTYLE
  5
3388
102
{ACAD_REACTORS
330
3384
102
}
330
3384
100
AcDbVisualStyle
  2
GouraudWithEdges
 70
     3
177
     2
291
     1
 71
     2
176
     1
 72
     2
176
     1
 73
     1
176
     1
 90
        2
176
     1
 40
-0.6
176
     1
 41
30.0
176
     1
 62
     5
 63
     7
421
 16777215
176
     1
 74
     1
176
     1
 91
        4
176
     1
 64
     7
176
     1
 65
   257
176
     1
 75
     1
176
     1
175
     1
176
     1
 42
1.0
176
     1
 92
        0
176
     1
 66
   257
176
     1
 43
1.0
176
     1
 76
     1
176
     1
 77
     6
176
     1
 78
     2
176
     1
 67
     7
176
     1
 79
     5
176
     1
170
     0
176
     1
171
     0
176
     1
290
     0
176
     1
 93
       13
176
     1
 44
0.0
176
     1
173
     0
176
     1
  0
VISUALSTYLE
  5
3392
102
{ACAD_REACTORS
330
3384
102
}
330
3384
100
AcDbVisualStyle
  2
Linepattern
 70
    14
177
     2
291
     1
 71
     2
176
     1
 72
     2
176
     1
 73
     0
176
     1
 90
        0
176
     1
 40
-0.6
176
     1
 41
-30.0
176
     1
 62
     5
 63
     7
421
 16777215
176
     1
 74
     1
176
     1
 91
        4
176
     1
 64
     7
176
     1
 65
   257
176
     1
 75
     7
176
     1
175
     7
176
     1
 42
1.0
176
     1
 92
        8
176
     1
 66
     7
176
     1
 43
1.0
176
     1
 76
     1
176
     1
 77
     6
176
     1
 78
     2
176
     1
 67
     7
176
     1
 79
     5
176
     1
170
     0
176
     1
171
     0
176
     1
290
     0
176
     1
 93
        1
176
     1
 44
0.0
176
     1
173
     0
176
     1
  0
VISUALSTYLE
  5
338D
102
{ACAD_REACTORS
330
3384
102
}
330
3384
100
AcDbVisualStyle
  2
Realistic
 70
     8
177
     2
291
     0
 71
     2
176
     1
 72
     2
176
     1
 73
     0
176
     1
 90
        0
176
     1
 40
-0.6
176
     1
 41
-30.0
176
     1
 62
     5
 63
     7
421
 16777215
176
     1
 74
     1
176
     1
 91
        0
176
     1
 64
     7
176
     1
 65
   257
176
     1
 75
     1
176
     1
175
     1
176
     1
 42
1.0
176
     1
 92
        8
176
     1
 66
     8
424
  7895160
176
     1
 43
1.0
176
     1
 76
     1
176
     1
 77
     6
176
     1
 78
     2
176
     1
 67
     7
176
     1
 79
     5
176
     1
170
     0
176
     1
171
     0
176
     1
290
     0
176
     1
 93
       13
176
     1
 44
0.0
176
     1
173
     0
176
     1
  0
VISUALSTYLE
  5
3391
102
{ACAD_REACTORS
330
3384
102
}
330
3384
100
AcDbVisualStyle
  2
Thicken
 70
    13
177
     2
291
     1
 71
     2
176
     1
 72
     2
176
     1
 73
     0
176
     1
 90
        0
176
     1
 40
-0.6
176
     1
 41
-30.0
176
     1
 62
     5
 63
     7
421
 16777215
176
     1
 74
     1
176
     1
 91
        4
176
     1
 64
     7
176
     1
 65
   257
176
     1
 75
     1
176
     1
175
     1
176
     1
 42
1.0
176
     1
 92
       12
176
     1
 66
     7
176
     1
 43
1.0
176
     1
 76
     1
176
     1
 77
     6
176
     1
 78
     2
176
     1
 67
     7
176
     1
 79
     5
176
     1
170
     0
176
     1
171
     0
176
     1
290
     0
176
     1
 93
        1
176
     1
 44
0.0
176
     1
173
     0
176
     1
  0
XRECORD
  5
33A9
102
{ACAD_REACTORS
330
339A
102
}
330
339A
100
AcDbXrecord
280
     1
290
     1
  0
XRECORD
  5
33A2
102
{ACAD_REACTORS
330
339A
102
}
330
339A
100
AcDbXrecord
280
     1
1000
auto
  0
XRECORD
  5
33A4
102
{ACAD_REACTORS
330
339A
102
}
330
339A
100
AcDbXrecord
280
     1
1000
auto
  0
XRECORD
  5
33A1
102
{ACAD_REACTORS
330
339A
102
}
330
339A
100
AcDbXrecord
280
     1
 90
        1
  0
XRECORD
  5
339E
102
{ACAD_REACTORS
330
339A
102
}
330
339A
100
AcDbXrecord
280
     1
 40
10.0
  0
XRECORD
  5
33A5
102
{ACAD_REACTORS
330
339A
102
}
330
339A
100
AcDbXrecord
280
     1
 40
10.0
  0
XRECORD
  5
339B
102
{ACAD_REACTORS
330
339A
102
}
330
339A
100
AcDbXrecord
280
     1
 40
10.0
  0
XRECORD
  5
33AD
102
{ACAD_REACTORS
330
339A
102
}
330
339A
100
AcDbXrecord
280
     1
 40
10.0
  0
XRECORD
  5
339D
102
{ACAD_REACTORS
330
339A
102
}
330
339A
100
AcDbXrecord
280
     1
290
     0
  0
XRECORD
  5
33A6
102
{ACAD_REACTORS
330
339A
102
}
330
339A
100
AcDbXrecord
280
     1
 90
        1
  0
XRECORD
  5
33AB
102
{ACAD_REACTORS
330
339A
102
}
330
339A
100
AcDbXrecord
280
     1
 40
0.0
  0
XRECORD
  5
33AC
102
{ACAD_REACTORS
330
339A
102
}
330
339A
100
AcDbXrecord
280
     1
 40
0.0
  0
XRECORD
  5
339C
102
{ACAD_REACTORS
330
339A
102
}
330
339A
100
AcDbXrecord
280
     1
1000
Portrait
  0
XRECORD
  5
33A0
102
{ACAD_REACTORS
330
339A
102
}
330
339A
100
AcDbXrecord
280
     1
 40
297.0
  0
XRECORD
  5
33A7
102
{ACAD_REACTORS
330
339A
102
}
330
339A
100
AcDbXrecord
280
     1
 40
210.0
  0
XRECORD
  5
339F
102
{ACAD_REACTORS
330
339A
102
}
330
339A
100
AcDbXrecord
280
     1
1000
1:1
  0
XRECORD
  5
33A3
102
{ACAD_REACTORS
330
339A
102
}
330
339A
100
AcDbXrecord
280
     1
290
     0
  0
XRECORD
  5
33AA
102
{ACAD_REACTORS
330
339A
102
}
330
339A
100
AcDbXrecord
280
     1
290
     1
  0
XRECORD
  5
33A8
102
{ACAD_REACTORS
330
339A
102
}
330
339A
100
AcDbXrecord
280
     1
 90
        4
  0
ENDSEC
  0
EOF
