  0
SECTION
  2
HEADER
  9
$ACADVER
  1
AC1024
  9
$ACADMAINTVER
 70
     6
  9
$DWGCODEPAGE
  3
ASCII
  9
$INSBASE
 10
0.0
 20
0.0
 30
0.0
  9
$EXTMIN
 10
1.000000000000000E+20
 20
1.000000000000000E+20
 30
1.000000000000000E+20
  9
$EXTMAX
 10
-1.000000000000000E+20
 20
-1.000000000000000E+20
 30
-1.000000000000000E+20
  9
$LIMMIN
 10
0.0
 20
0.0
  9
$LIMMAX
 10
12.0
 20
9.0
  9
$ORTHOMODE
 70
     0
  9
$REGENMODE
 70
     1
  9
$FILLMODE
 70
     1
  9
$QTEXTMODE
 70
     0
  9
$MIRRTEXT
 70
     1
  9
$LTSCALE
 40
1.0
  9
$ATTMODE
 70
     1
  9
$TEXTSIZE
 40
0.2
  9
$TRACEWID
 40
0.05
  9
$TEXTSTYLE
  7
Standard
  9
$CLAYER
  8
0
  9
$CELTYPE
  6
ByLayer
  9
$CECOLOR
 62
    18
  9
$CELTSCALE
 40
1.0
  9
$DISPSILH
 70
     0
  9
$DIMSCALE
 40
1.0
  9
$DIMASZ
 40
2.5
  9
$DIMEXO
 40
0.625
  9
$DIMDLI
 40
0.38
  9
$DIMRND
 40
0.0
  9
$DIMDLE
 40
0.0
  9
$DIMEXE
 40
1.25
  9
$DIMTP
 40
0.0
  9
$DIMTM
 40
0.0
  9
$DIMTXT
 40
2.5
  9
$DIMCEN
 40
0.09
  9
$DIMTSZ
 40
0.0
  9
$DIMTOL
 70
     0
  9
$DIMLIM
 70
     0
  9
$DIMTIH
 70
     1
  9
$DIMTOH
 70
     1
  9
$DIMSE1
 70
     0
  9
$DIMSE2
 70
     0
  9
$DIMTAD
 70
     0
  9
$DIMZIN
 70
     8
  9
$DIMBLK
  1

  9
$DIMASO
 70
     1
  9
$DIMSHO
 70
     1
  9
$DIMPOST
  1

  9
$DIMAPOST
  1

  9
$DIMALT
 70
     0
  9
$DIMALTD
 70
     2
  9
$DIMALTF
 40
25.4
  9
$DIMLFAC
 40
1.0
  9
$DIMTOFL
 70
     0
  9
$DIMTVP
 40
0.0
  9
$DIMTIX
 70
     0
  9
$DIMSOXD
 70
     0
  9
$DIMSAH
 70
     0
  9
$DIMBLK1
  1

  9
$DIMBLK2
  1

  9
$DIMSTYLE
  2
Standard
  9
$DIMCLRD
 70
    18
  9
$DIMCLRE
 70
    18
  9
$DIMCLRT
 70
    18
  9
$DIMTFAC
 40
1.0
  9
$DIMGAP
 40
0.625
  9
$DIMJUST
 70
     0
  9
$DIMSD1
 70
     0
  9
$DIMSD2
 70
     0
  9
$DIMTOLJ
 70
     1
  9
$DIMTZIN
 70
     0
  9
$DIMALTZ
 70
     0
  9
$DIMALTTZ
 70
     0
  9
$DIMUPT
 70
     0
  9
$DIMDEC
 70
     4
  9
$DIMTDEC
 70
     4
  9
$DIMALTU
 70
     2
  9
$DIMALTTD
 70
     2
  9
$DIMTXSTY
  7
Standard
  9
$DIMAUNIT
 70
     0
  9
$DIMADEC
 70
     0
  9
$DIMALTRND
 40
0.0
  9
$DIMAZIN
 70
     2
  9
$DIMDSEP
 70
    46
  9
$DIMATFIT
 70
     3
  9
$DIMFRAC
 70
     0
  9
$DIMLDRBLK
  1

  9
$DIMLUNIT
 70
     2
  9
$DIMLWD
 70
    -2
  9
$DIMLWE
 70
    -2
  9
$DIMTMOVE
 70
     0
  9
$DIMFXL
 40
1.0
  9
$DIMFXLON
 70
     0
  9
$DIMJOGANG
 40
0.7853981633974483
  9
$DIMTFILL
 70
     0
  9
$DIMTFILLCLR
 70
     0
  9
$DIMARCSYM
 70
     0
  9
$DIMLTYPE
  6

  9
$DIMLTEX1
  6

  9
$DIMLTEX2
  6

  9
$DIMTXTDIRECTION
 70
     0
  9
$LUNITS
 70
     2
  9
$LUPREC
 70
     4
  9
$SKETCHINC
 40
0.1
  9
$FILLETRAD
 40
0.5
  9
$AUNITS
 70
     0
  9
$AUPREC
 70
     0
  9
$MENU
  1
.
  9
$ELEVATION
 40
0.0
  9
$PELEVATION
 40
0.0
  9
$THICKNESS
 40
0.0
  9
$LIMCHECK
 70
     0
  9
$CHAMFERA
 40
0.5
  9
$CHAMFERB
 40
0.5
  9
$CHAMFERC
 40
1.0
  9
$CHAMFERD
 40
0.0
  9
$SKPOLY
 70
     0
  9
$TDCREATE
 40
2455924.555703762
  9
$TDUCREATE
 40
2455924.764037095
  9
$TDUPDATE
 40
2455924.555703935
  9
$TDUUPDATE
 40
2455924.764037269
  9
$TDINDWG
 40
0.0000000116
  9
$TDUSRTIMER
 40
0.0000000116
  9
$USRTIMER
 70
     1
  9
$ANGBASE
 50
0.0
  9
$ANGDIR
 70
     0
  9
$PDMODE
 70
     0
  9
$PDSIZE
 40
0.0
  9
$PLINEWID
 40
0.0
  9
$SPLFRAME
 70
     0
  9
$SPLINETYPE
 70
     6
  9
$SPLINESEGS
 70
     8
  9
$HANDSEED
  5
30C1
  9
$SURFTAB1
 70
     6
  9
$SURFTAB2
 70
     6
  9
$SURFTYPE
 70
     6
  9
$SURFU
 70
     6
  9
$SURFV
 70
     6
  9
$UCSBASE
  2

  9
$UCSNAME
  2

  9
$UCSORG
 10
0.0
 20
0.0
 30
0.0
  9
$UCSXDIR
 10
1.0
 20
0.0
 30
0.0
  9
$UCSYDIR
 10
0.0
 20
1.0
 30
0.0
  9
$UCSORTHOREF
  2

  9
$UCSORTHOVIEW
 70
     0
  9
$UCSORGTOP
 10
0.0
 20
0.0
 30
0.0
  9
$UCSORGBOTTOM
 10
0.0
 20
0.0
 30
0.0
  9
$UCSORGLEFT
 10
0.0
 20
0.0
 30
0.0
  9
$UCSORGRIGHT
 10
0.0
 20
0.0
 30
0.0
  9
$UCSORGFRONT
 10
0.0
 20
0.0
 30
0.0
  9
$UCSORGBACK
 10
0.0
 20
0.0
 30
0.0
  9
$PUCSBASE
  2

  9
$PUCSNAME
  2

  9
$PUCSORG
 10
0.0
 20
0.0
 30
0.0
  9
$PUCSXDIR
 10
1.0
 20
0.0
 30
0.0
  9
$PUCSYDIR
 10
0.0
 20
1.0
 30
0.0
  9
$PUCSORTHOREF
  2

  9
$PUCSORTHOVIEW
 70
     0
  9
$PUCSORGTOP
 10
0.0
 20
0.0
 30
0.0
  9
$PUCSORGBOTTOM
 10
0.0
 20
0.0
 30
0.0
  9
$PUCSORGLEFT
 10
0.0
 20
0.0
 30
0.0
  9
$PUCSORGRIGHT
 10
0.0
 20
0.0
 30
0.0
  9
$PUCSORGFRONT
 10
0.0
 20
0.0
 30
0.0
  9
$PUCSORGBACK
 10
0.0
 20
0.0
 30
0.0
  9
$USERI1
 70
     0
  9
$USERI2
 70
     0
  9
$USERI3
 70
     0
  9
$USERI4
 70
     0
  9
$USERI5
 70
     0
  9
$USERR1
 40
0.0
  9
$USERR2
 40
0.0
  9
$USERR3
 40
0.0
  9
$USERR4
 40
0.0
  9
$USERR5
 40
0.0
  9
$WORLDVIEW
 70
     1
  9
$SHADEDGE
 70
     3
  9
$SHADEDIF
 70
    70
  9
$TILEMODE
 70
     1
  9
$MAXACTVP
 70
    64
  9
$PINSBASE
 10
0.0
 20
0.0
 30
0.0
  9
$PLIMCHECK
 70
     0
  9
$PEXTMIN
 10
1.000000000000000E+20
 20
1.000000000000000E+20
 30
1.000000000000000E+20
  9
$PEXTMAX
 10
-1.000000000000000E+20
 20
-1.000000000000000E+20
 30
-1.000000000000000E+20
  9
$PLIMMIN
 10
0.0
 20
0.0
  9
$PLIMMAX
 10
12.0
 20
9.0
  9
$UNITMODE
 70
     0
  9
$VISRETAIN
 70
     1
  9
$PLINEGEN
 70
     0
  9
$PSLTSCALE
 70
     1
  9
$TREEDEPTH
 70
  3020
  9
$CMLSTYLE
  2
Standard
  9
$CMLJUST
 70
     0
  9
$CMLSCALE
 40
1.0
  9
$PROXYGRAPHICS
 70
     1
  9
$MEASUREMENT
 70
     1
  9
$CELWEIGHT
370
    -1
  9
$ENDCAPS
280
     0
  9
$JOINSTYLE
280
     0
  9
$LWDISPLAY
290
     0
  9
$INSUNITS
 70
     4
  9
$HYPERLINKBASE
  1

  9
$STYLESHEET
  1

  9
$XEDIT
290
     1
  9
$CEPSNTYPE
380
     0
  9
$PSTYLEMODE
290
     1
  9
$FINGERPRINTGUID
  2
{BD591B86-F076-4BA1-9165-2AB6D0AB84FB}
  9
$VERSIONGUID
  2
{FAEB1C32-E019-11D5-929B-00C0DF256EC4}
  9
$EXTNAMES
290
     1
  9
$PSVPSCALE
 40
0.0
  9
$OLESTARTUP
290
     0
  9
$SORTENTS
280
   127
  9
$INDEXCTL
280
     0
  9
$HIDETEXT
280
     1
  9
$XCLIPFRAME
280
     2
  9
$HALOGAP
280
     0
  9
$OBSCOLOR
 70
   257
  9
$OBSLTYPE
280
     0
  9
$INTERSECTIONDISPLAY
280
     0
  9
$INTERSECTIONCOLOR
 70
   257
  9
$DIMASSOC
280
     2
  9
$PROJECTNAME
  1

  9
$CAMERADISPLAY
290
     0
  9
$LENSLENGTH
 40
50.0
  9
$CAMERAHEIGHT
 40
0.0
  9
$STEPSPERSEC
 40
2.0
  9
$STEPSIZE
 40
6.0
  9
$3DDWFPREC
 40
2.0
  9
$PSOLWIDTH
 40
0.25
  9
$PSOLHEIGHT
 40
4.0
  9
$LOFTANG1
 40
1.570796326794897
  9
$LOFTANG2
 40
1.570796326794897
  9
$LOFTMAG1
 40
0.0
  9
$LOFTMAG2
 40
0.0
  9
$LOFTPARAM
 70
     7
  9
$LOFTNORMALS
280
     1
  9
$LATITUDE
 40
37.795
  9
$LONGITUDE
 40
-122.394
  9
$NORTHDIRECTION
 40
0.0
  9
$TIMEZONE
 70
 -8000
  9
$LIGHTGLYPHDISPLAY
280
     1
  9
$TILEMODELIGHTSYNCH
280
     1
  9
$SOLIDHIST
280
     1
  9
$SHOWHIST
280
     1
  9
$DWFFRAME
280
     2
  9
$DGNFRAME
280
     2
  9
$REALWORLDSCALE
290
     1
  9
$INTERFERECOLOR
 62
   256
  9
$CSHADOW
280
     0
  9
$SHADOWPLANELOCATION
 40
0.0
  0
ENDSEC
  0
SECTION
  2
CLASSES
  0
CLASS
  1
ACDBDICTIONARYWDFLT
  2
AcDbDictionaryWithDefault
  3
ObjectDBX Classes
 90
        0
 91
        4
280
     0
281
     0
  0
CLASS
  1
VISUALSTYLE
  2
AcDbVisualStyle
  3
ObjectDBX Classes
 90
     4095
 91
        4
280
     0
281
     0
  0
CLASS
  1
MATERIAL
  2
AcDbMaterial
  3
ObjectDBX Classes
 90
     1153
 91
        4
280
     0
281
     0
  0
ENDSEC
  0
SECTION
  2
TABLES
  0
TABLE
  2
VPORT
  5
305F
330
0
100
AcDbSymbolTable
 70
     1
  0
VPORT
  5
307F
330
305F
100
AcDbSymbolTableRecord
100
AcDbViewportTableRecord
  2
*Active
 70
     0
 10
0.0
 20
0.0
 11
1.0
 21
1.0
 12
10.42990654205607
 22
4.5
 13
0.0
 23
0.0
 14
0.5
 24
0.5
 15
0.5
 25
0.5
 16
0.0
 26
0.0
 36
1.0
 17
0.0
 27
0.0
 37
0.0
 40
9.0
 41
1.972972972850329
 42
50.0
 43
0.0
 44
0.0
 50
0.0
 51
0.0
 71
     0
 72
   100
 73
     1
 74
     3
 75
     0
 76
     0
 77
     0
 78
     0
281
     0
 65
     1
110
0.0
120
0.0
130
0.0
111
1.0
121
0.0
131
0.0
112
0.0
122
1.0
132
0.0
 79
     0
146
0.0
 60
     3
 61
     5
292
     1
282
     1
141
0.0
142
0.0
 63
   250
  0
ENDTAB
  0
TABLE
  2
LTYPE
  5
305C
330
0
100
AcDbSymbolTable
 70
    19
  0
LTYPE
  5
306A
330
305C
100
AcDbSymbolTableRecord
100
AcDbLinetypeTableRecord
  2
ByBlock
 70
     0
  3

 72
    65
 73
     0
 40
0.0
  0
LTYPE
  5
306B
330
305C
100
AcDbSymbolTableRecord
100
AcDbLinetypeTableRecord
  2
ByLayer
 70
     0
  3

 72
    65
 73
     0
 40
0.0
  0
LTYPE
  5
306C
330
305C
100
AcDbSymbolTableRecord
100
AcDbLinetypeTableRecord
  2
Continuous
 70
     0
  3
Solid line
 72
    65
 73
     0
 40
0.0
  0
LTYPE
  5
30AB
330
305C
100
AcDbSymbolTableRecord
100
AcDbLinetypeTableRecord
  2
BORDER
 70
     0
  3

 72
    65
 73
     6
 40
42.00000000000001
 49
12.0
 74
     0
 49
-6.0
 74
     0
 49
12.0
 74
     0
 49
-5.95
 74
     0
 49
0.1
 74
     0
 49
-5.95
 74
     0
  0
LTYPE
  5
30AC
330
305C
100
AcDbSymbolTableRecord
100
AcDbLinetypeTableRecord
  2
BORDER2
 70
     0
  3

 72
    65
 73
     6
 40
21.0
 49
6.0
 74
     0
 49
-3.0
 74
     0
 49
6.0
 74
     0
 49
-2.95
 74
     0
 49
0.1
 74
     0
 49
-2.95
 74
     0
  0
LTYPE
  5
30AD
330
305C
100
AcDbSymbolTableRecord
100
AcDbLinetypeTableRecord
  2
BORDERX2
 70
     0
  3

 72
    65
 73
     6
 40
84.0
 49
24.0
 74
     0
 49
-12.0
 74
     0
 49
24.0
 74
     0
 49
-11.95
 74
     0
 49
0.1
 74
     0
 49
-11.95
 74
     0
  0
LTYPE
  5
30AE
330
305C
100
AcDbSymbolTableRecord
100
AcDbLinetypeTableRecord
  2
CENTER
 70
     0
  3

 72
    65
 73
     4
 40
50.0
 49
32.0
 74
     0
 49
-6.0
 74
     0
 49
6.0
 74
     0
 49
-6.0
 74
     0
  0
LTYPE
  5
30AF
330
305C
100
AcDbSymbolTableRecord
100
AcDbLinetypeTableRecord
  2
CENTER2
 70
     0
  3

 72
    65
 73
     4
 40
25.0
 49
16.0
 74
     0
 49
-3.0
 74
     0
 49
3.0
 74
     0
 49
-3.0
 74
     0
  0
LTYPE
  5
30B0
330
305C
100
AcDbSymbolTableRecord
100
AcDbLinetypeTableRecord
  2
CENTERX2
 70
     0
  3

 72
    65
 73
     4
 40
100.0
 49
64.0
 74
     0
 49
-12.0
 74
     0
 49
12.0
 74
     0
 49
-12.0
 74
     0
  0
LTYPE
  5
30B1
330
305C
100
AcDbSymbolTableRecord
100
AcDbLinetypeTableRecord
  2
DASHDOT
 70
     0
  3

 72
    65
 73
     4
 40
24.0
 49
12.0
 74
     0
 49
-5.95
 74
     0
 49
0.1
 74
     0
 49
-5.95
 74
     0
  0
LTYPE
  5
30B2
330
305C
100
AcDbSymbolTableRecord
100
AcDbLinetypeTableRecord
  2
DASHDOT2
 70
     0
  3

 72
    65
 73
     4
 40
12.0
 49
6.0
 74
     0
 49
-2.95
 74
     0
 49
0.1
 74
     0
 49
-2.95
 74
     0
  0
LTYPE
  5
30B3
330
305C
100
AcDbSymbolTableRecord
100
AcDbLinetypeTableRecord
  2
DASHDOTX2
 70
     0
  3

 72
    65
 73
     4
 40
48.0
 49
24.0
 74
     0
 49
-11.95
 74
     0
 49
0.1
 74
     0
 49
-11.95
 74
     0
  0
LTYPE
  5
30B4
330
305C
100
AcDbSymbolTableRecord
100
AcDbLinetypeTableRecord
  2
DASHED
 70
     0
  3

 72
    65
 73
     2
 40
18.0
 49
12.0
 74
     0
 49
-6.0
 74
     0
  0
LTYPE
  5
30B5
330
305C
100
AcDbSymbolTableRecord
100
AcDbLinetypeTableRecord
  2
DASHED2
 70
     0
  3

 72
    65
 73
     2
 40
9.0
 49
6.0
 74
     0
 49
-3.0
 74
     0
  0
LTYPE
  5
30B6
330
305C
100
AcDbSymbolTableRecord
100
AcDbLinetypeTableRecord
  2
DASHEDX2
 70
     0
  3

 72
    65
 73
     2
 40
36.0
 49
24.0
 74
     0
 49
-12.0
 74
     0
  0
LTYPE
  5
30B7
330
305C
100
AcDbSymbolTableRecord
100
AcDbLinetypeTableRecord
  2
DIVIDE
 70
     0
  3

 72
    65
 73
     6
 40
29.99999999999999
 49
12.0
 74
     0
 49
-5.9
 74
     0
 49
0.15
 74
     0
 49
-5.9
 74
     0
 49
0.15
 74
     0
 49
-5.9
 74
     0
  0
LTYPE
  5
30B8
330
305C
100
AcDbSymbolTableRecord
100
AcDbLinetypeTableRecord
  2
DIVIDE2
 70
     0
  3

 72
    65
 73
     6
 40
15.0
 49
6.0
 74
     0
 49
-2.9
 74
     0
 49
0.15
 74
     0
 49
-2.9
 74
     0
 49
0.15
 74
     0
 49
-2.9
 74
     0
  0
LTYPE
  5
30B9
330
305C
100
AcDbSymbolTableRecord
100
AcDbLinetypeTableRecord
  2
DIVIDEX2
 70
     0
  3

 72
    65
 73
     6
 40
59.99999999999999
 49
24.0
 74
     0
 49
-11.9
 74
     0
 49
0.15
 74
     0
 49
-11.9
 74
     0
 49
0.15
 74
     0
 49
-11.9
 74
     0
  0
LTYPE
  5
30BA
330
305C
100
AcDbSymbolTableRecord
100
AcDbLinetypeTableRecord
  2
DOT
 70
     0
  3

 72
    65
 73
     2
 40
6.3
 49
0.1
 74
     0
 49
-6.2
 74
     0
  0
LTYPE
  5
30BB
330
305C
100
AcDbSymbolTableRecord
100
AcDbLinetypeTableRecord
  2
DOT2
 70
     0
  3

 72
    65
 73
     2
 40
3.2
 49
0.1
 74
     0
 49
-3.1
 74
     0
  0
LTYPE
  5
30BC
330
305C
100
AcDbSymbolTableRecord
100
AcDbLinetypeTableRecord
  2
DOTX2
 70
     0
  3

 72
    65
 73
     2
 40
12.5
 49
0.1
 74
     0
 49
-12.4
 74
     0
  0
ENDTAB
  0
TABLE
  2
LAYER
  5
3059
330
0
100
AcDbSymbolTable
 70
     3
  0
LAYER
  5
3067
330
3059
100
AcDbSymbolTableRecord
100
AcDbLayerTableRecord
  2
0
 70
     0
 62
     7
420
 16777215
  6
Continuous
370
    25
390
3066
347
3094
  0
LAYER
  5
30BD
330
3059
100
AcDbSymbolTableRecord
100
AcDbLayerTableRecord
  2
laser bed referance
 70
     0
 62
     3
420
    65280
  6
Continuous
370
    25
390
3066
347
3094
  0
LAYER
  5
30BE
330
3059
100
AcDbSymbolTableRecord
100
AcDbLayerTableRecord
  2
TEXT
 70
     0
 62
     5
420
      255
  6
Continuous
370
    -3
390
3066
347
3094
  0
ENDTAB
  0
TABLE
  2
STYLE
  5
305A
330
0
100
AcDbSymbolTable
 70
     1
  0
STYLE
  5
3068
330
305A
100
AcDbSymbolTableRecord
100
AcDbTextStyleTableRecord
  2
Standard
 70
     0
 40
0.0
 41
1.0
 50
0.0
 71
     0
 42
0.2
  3
txt
  4

  0
ENDTAB
  0
TABLE
  2
VIEW
  5
305D
330
0
100
AcDbSymbolTable
 70
     0
  0
ENDTAB
  0
TABLE
  2
UCS
  5
305E
330
0
100
AcDbSymbolTable
 70
     0
  0
ENDTAB
  0
TABLE
  2
APPID
  5
3060
330
0
100
AcDbSymbolTable
 70
     2
  0
APPID
  5
3069
330
3060
100
AcDbSymbolTableRecord
100
AcDbRegAppTableRecord
  2
ACAD
 70
     0
  0
APPID
  5
3095
330
3060
100
AcDbSymbolTableRecord
100
AcDbRegAppTableRecord
  2
QCAD
 70
     0
  0
ENDTAB
  0
TABLE
  2
DIMSTYLE
  5
3061
330
0
100
AcDbSymbolTable
 70
     2
100
AcDbDimStyleTable
  0
DIMSTYLE
105
307D
330
3061
100
AcDbSymbolTableRecord
100
AcDbDimStyleTableRecord
  2
Standard
 70
     0
178
     0
340
3068
  0
DIMSTYLE
105
30AA
330
3061
100
AcDbSymbolTableRecord
100
AcDbDimStyleTableRecord
  2
QCADDimStyle
 70
     0
 41
2.5
 42
0.625
 44
1.25
 73
     0
 77
     1
140
2.5
147
0.625
178
     0
340
3068
  0
ENDTAB
  0
TABLE
  2
BLOCK_RECORD
  5
3058
330
0
100
AcDbSymbolTable
 70
     1
  0
BLOCK_RECORD
  5
3075
330
3058
100
AcDbSymbolTableRecord
100
AcDbBlockTableRecord
  2
*Model_Space
340
3078
 70
     0
280
     1
281
     0
  0
BLOCK_RECORD
  5
3071
330
3058
100
AcDbSymbolTableRecord
100
AcDbBlockTableRecord
  2
*Paper_Space
340
3074
 70
     0
280
     1
281
     0
  0
BLOCK_RECORD
  5
3079
330
3058
100
AcDbSymbolTableRecord
100
AcDbBlockTableRecord
  2
*Paper_Space0
340
307C
 70
     0
280
     1
281
     0
  0
ENDTAB
  0
ENDSEC
  0
SECTION
  2
BLOCKS
  0
BLOCK
  5
3076
330
3075
100
AcDbEntity
  8
0
100
AcDbBlockBegin
  2
*Model_Space
 70
     0
 10
0.0
 20
0.0
 30
0.0
  3
*Model_Space
  1

  0
ENDBLK
  5
3077
330
3075
100
AcDbEntity
  8
0
100
AcDbBlockEnd
  0
BLOCK
  5
3072
330
3071
100
AcDbEntity
 67
     1
  8
0
100
AcDbBlockBegin
  2
*Paper_Space
 70
     0
 10
0.0
 20
0.0
 30
0.0
  3
*Paper_Space
  1

  0
ENDBLK
  5
3073
330
3071
100
AcDbEntity
 67
     1
  8
0
100
AcDbBlockEnd
  0
BLOCK
  5
307A
330
3079
100
AcDbEntity
  8
0
100
AcDbBlockBegin
  2
*Paper_Space0
 70
     0
 10
0.0
 20
0.0
 30
0.0
  3
*Paper_Space0
  1

  0
ENDBLK
  5
307B
330
3079
100
AcDbEntity
  8
0
100
AcDbBlockEnd
  0
ENDSEC
  0
SECTION
  2
ENTITIES
  0
LINE
  5
22
330
3075
100
AcDbEntity
  8
laser bed referance
100
AcDbLine
 10
-0.0000000000000187
 20
-304.8
 30
0.0
 11
0.0
 21
0.0
 31
0.0
  0
LINE
  5
2A
330
3075
100
AcDbEntity
  8
laser bed referance
100
AcDbLine
 10
0.0
 20
0.0
 30
0.0
 11
304.8
 21
0.0
 31
0.0
  0
LINE
  5
2B
330
3075
100
AcDbEntity
  8
laser bed referance
100
AcDbLine
 10
-0.0000000000000187
 20
-304.8
 30
0.0
 11
304.8
 21
-304.8
 31
0.0
  0
LWPOLYLINE
  5
25C
330
3075
100
AcDbEntity
  8
TEXT
 62
     5
420
      255
370
    25
100
AcDbPolyline
 90
        2
 70
     0
 43
0.0
 10
298.9965341577131
 20
-54.71255683889655
 10
296.7408729077131
 20
-54.71255683889655
  0
LWPOLYLINE
  5
25D
330
3075
100
AcDbEntity
  8
TEXT
 62
     5
420
      255
370
    25
100
AcDbPolyline
 90
        4
 70
     0
 43
0.0
 10
296.6184591577132
 20
-53.09648183889652
 10
298.9965341577131
 20
-53.09648183889652
 10
298.9965341577131
 20
-56.11731808889664
 10
296.6435066577132
 20
-56.11731808889664
  0
LWPOLYLINE
  5
293
330
3075
100
AcDbEntity
  8
TEXT
 62
     5
420
      255
370
    25
100
AcDbPolyline
 90
        2
 70
     0
 43
0.0
 10
270.5400679077132
 20
-57.1975230888965
 10
270.5400679077132
 20
-60.15732808889658
  0
LWPOLYLINE
  5
294
330
3075
100
AcDbEntity
  8
TEXT
 62
     5
420
      255
370
    25
100
AcDbPolyline
 90
        2
 70
     0
 43
0.0
 10
271.7864316577132
 20
-60.1841393388965
 10
269.2100954077131
 20
-60.1841393388965
  0
SPLINE
  5
295
330
3075
100
AcDbEntity
  8
TEXT
 62
     5
420
      255
370
    25
100
AcDbSpline
210
0.0
220
0.0
230
1.0
 70
     8
 71
     3
 72
     8
 73
     4
 74
     0
 42
0.000000001
 43
0.001
 12
1.0
 22
0.0
 32
0.0
 13
1.0
 23
0.0
 33
0.0
 40
0.0
 40
0.0
 40
0.0
 40
0.0
 40
1.0
 40
1.0
 40
1.0
 40
1.0
 10
279.7556816577132
 20
-60.1841393388965
 30
0.0
 10
279.1580754077132
 20
-60.1841393388965
 30
0.0
 10
278.9315929077132
 20
-59.89944808889646
 30
0.0
 10
278.9315929077132
 20
-59.36816433889652
 30
0.0
  0
SPLINE
  5
296
330
3075
100
AcDbEntity
  8
TEXT
 62
     5
420
      255
370
    25
100
AcDbSpline
210
0.0
220
0.0
230
1.0
 70
     8
 71
     3
 72
     8
 73
     4
 74
     0
 42
0.000000001
 43
0.001
 12
1.0
 22
0.0
 32
0.0
 13
1.0
 23
0.0
 33
0.0
 40
0.0
 40
0.0
 40
0.0
 40
0.0
 40
1.0
 40
1.0
 40
1.0
 40
1.0
 10
278.9315929077132
 20
-59.36816433889652
 30
0.0
 10
278.9315929077132
 20
-59.08382558889656
 30
0.0
 10
279.1238566577131
 20
-58.6862455888965
 30
0.0
 10
279.6427929077133
 20
-58.65731808889649
 30
0.0
  0
LWPOLYLINE
  5
297
330
3075
100
AcDbEntity
  8
TEXT
 62
     5
420
      255
370
    25
100
AcDbPolyline
 90
        3
 70
     0
 43
0.0
 10
281.3992729077132
 20
-57.19717058889654
 10
281.3992729077132
 20
-60.1841393388965
 10
279.7556816577132
 20
-60.1841393388965
  0
SPLINE
  5
298
330
3075
100
AcDbEntity
  8
TEXT
 62
     5
420
      255
370
    25
100
AcDbSpline
210
0.0
220
0.0
230
1.0
 70
     8
 71
     3
 72
     8
 73
     4
 74
     0
 42
0.000000001
 43
0.001
 12
1.0
 22
0.0
 32
0.0
 13
1.0
 23
0.0
 33
0.0
 40
0.0
 40
0.0
 40
0.0
 40
0.0
 40
1.0
 40
1.0
 40
1.0
 40
1.0
 10
279.6470254077132
 20
-58.64885058889655
 30
0.0
 10
279.1870041577131
 20
-58.64426433889656
 30
0.0
 10
278.9866254077132
 20
-58.43118683889662
 30
0.0
 10
278.9866254077132
 20
-58.0216118388966
 30
0.0
  0
SPLINE
  5
299
330
3075
100
AcDbEntity
  8
TEXT
 62
     5
420
      255
370
    25
100
AcDbSpline
210
0.0
220
0.0
230
1.0
 70
     8
 71
     3
 72
     8
 73
     4
 74
     0
 42
0.000000001
 43
0.001
 12
1.0
 22
0.0
 32
0.0
 13
1.0
 23
0.0
 33
0.0
 40
0.0
 40
0.0
 40
0.0
 40
0.0
 40
1.0
 40
1.0
 40
1.0
 40
1.0
 10
278.9866254077132
 20
-58.0216118388966
 30
0.0
 10
278.9866254077132
 20
-57.91225058889648
 30
0.0
 10
278.9781591577133
 20
-57.3188780888965
 30
0.0
 10
278.9195979077131
 20
-57.1975230888965
 30
0.0
  0
LWPOLYLINE
  5
29A
330
3075
100
AcDbEntity
  8
TEXT
 62
     5
420
      255
370
    25
100
AcDbPolyline
 90
        2
 70
     0
 43
0.0
 10
279.6427929077133
 20
-58.65731808889649
 10
279.6470254077132
 20
-58.64885058889655
  0
LWPOLYLINE
  5
29B
330
3075
100
AcDbEntity
  8
TEXT
 62
     5
420
      255
370
    25
100
AcDbPolyline
 90
        2
 70
     0
 43
0.0
 10
279.6466729077133
 20
-58.64849808889647
 10
281.3992729077132
 20
-58.64320683889645
  0
LWPOLYLINE
  5
29C
330
3075
100
AcDbEntity
  8
TEXT
 62
     5
420
      255
370
    25
100
AcDbPolyline
 90
        2
 70
     0
 43
0.0
 10
278.4327641577132
 20
-60.1841393388965
 10
278.4327641577132
 20
-57.19717058889654
  0
LWPOLYLINE
  5
29D
330
3075
100
AcDbEntity
  8
TEXT
 62
     5
420
      255
370
    25
100
AcDbPolyline
 90
        2
 70
     0
 43
0.0
 10
274.5497391577131
 20
-57.19717058889654
 10
274.5497391577131
 20
-60.1841393388965
  0
LWPOLYLINE
  5
29E
330
3075
100
AcDbEntity
  8
TEXT
 62
     5
420
      255
370
    25
100
AcDbPolyline
 90
        2
 70
     0
 43
0.0
 10
274.5497391577131
 20
-58.79454808889653
 10
271.9899841577132
 20
-58.79454808889653
  0
SPLINE
  5
29F
330
3075
100
AcDbEntity
  8
TEXT
 62
     5
420
      255
370
    25
100
AcDbSpline
210
0.0
220
0.0
230
1.0
 70
     8
 71
     3
 72
     8
 73
     4
 74
     0
 42
0.000000001
 43
0.001
 12
1.0
 22
0.0
 32
0.0
 13
1.0
 23
0.0
 33
0.0
 40
0.0
 40
0.0
 40
0.0
 40
0.0
 40
1.0
 40
1.0
 40
1.0
 40
1.0
 10
275.0069391577131
 20
-58.53172808889661
 30
0.0
 10
275.0506841577131
 20
-58.18459558889657
 30
0.0
 10
275.1106566577133
 20
-58.03148933889651
 30
0.0
 10
275.1106566577133
 20
-58.03148933889651
 30
0.0
  0
SPLINE
  5
2A0
330
3075
100
AcDbEntity
  8
TEXT
 62
     5
420
      255
370
    25
100
AcDbSpline
210
0.0
220
0.0
230
1.0
 70
     8
 71
     3
 72
     8
 73
     4
 74
     0
 42
0.000000001
 43
0.001
 12
1.0
 22
0.0
 32
0.0
 13
1.0
 23
0.0
 33
0.0
 40
0.0
 40
0.0
 40
0.0
 40
0.0
 40
1.0
 40
1.0
 40
1.0
 40
1.0
 10
275.1106566577133
 20
-58.03148933889651
 30
0.0
 10
275.3177366577132
 20
-57.34568933889653
 30
0.0
 10
275.8973504077133
 20
-57.06382058889648
 30
0.0
 10
276.5210616577132
 20
-57.06382058889648
 30
0.0
  0
SPLINE
  5
2A1
330
3075
100
AcDbEntity
  8
TEXT
 62
     5
420
      255
370
    25
100
AcDbSpline
210
0.0
220
0.0
230
1.0
 70
     8
 71
     3
 72
     8
 73
     4
 74
     0
 42
0.000000001
 43
0.001
 12
1.0
 22
0.0
 32
0.0
 13
1.0
 23
0.0
 33
0.0
 40
0.0
 40
0.0
 40
0.0
 40
0.0
 40
1.0
 40
1.0
 40
1.0
 40
1.0
 10
276.5210616577132
 20
-57.06382058889648
 30
0.0
 10
277.3744316577132
 20
-57.06382058889648
 30
0.0
 10
278.0690504077132
 20
-57.63673183889654
 30
0.0
 10
278.0690504077132
 20
-58.62345058889645
 30
0.0
  0
SPLINE
  5
2A2
330
3075
100
AcDbEntity
  8
TEXT
 62
     5
420
      255
370
    25
100
AcDbSpline
210
0.0
220
0.0
230
1.0
 70
     8
 71
     3
 72
     8
 73
     4
 74
     0
 42
0.000000001
 43
0.001
 12
1.0
 22
0.0
 32
0.0
 13
1.0
 23
0.0
 33
0.0
 40
0.0
 40
0.0
 40
0.0
 40
0.0
 40
1.0
 40
1.0
 40
1.0
 40
1.0
 10
278.0690504077132
 20
-58.62345058889645
 30
0.0
 10
278.0690504077132
 20
-59.61087558889648
 30
0.0
 10
277.3744316577132
 20
-60.1841393388965
 30
0.0
 10
276.5210616577132
 20
-60.1841393388965
 30
0.0
  0
SPLINE
  5
2A3
330
3075
100
AcDbEntity
  8
TEXT
 62
     5
420
      255
370
    25
100
AcDbSpline
210
0.0
220
0.0
230
1.0
 70
     8
 71
     3
 72
     8
 73
     4
 74
     0
 42
0.000000001
 43
0.001
 12
1.0
 22
0.0
 32
0.0
 13
1.0
 23
0.0
 33
0.0
 40
0.0
 40
0.0
 40
0.0
 40
0.0
 40
1.0
 40
1.0
 40
1.0
 40
1.0
 10
276.5210616577132
 20
-60.1841393388965
 30
0.0
 10
275.5883179077131
 20
-60.1841393388965
 30
0.0
 10
275.1589866577132
 20
-59.76997808889649
 30
0.0
 10
275.0506841577131
 20
-59.1921280888966
 30
0.0
  0
LWPOLYLINE
  5
2A4
330
3075
100
AcDbEntity
  8
TEXT
 62
     5
420
      255
370
    25
100
AcDbPolyline
 90
        2
 70
     0
 43
0.0
 10
271.9899841577132
 20
-60.1841393388965
 10
271.9899841577132
 20
-57.19717058889654
  0
LWPOLYLINE
  5
2A5
330
3075
100
AcDbEntity
  8
TEXT
 62
     5
420
      255
370
    25
100
AcDbPolyline
 90
        3
 70
     0
 43
0.0
 10
276.4124066577131
 20
-58.53172808889661
 10
275.0069391577131
 20
-58.53172808889661
 10
275.0069391577131
 20
-57.13014308889655
  0
LWPOLYLINE
  5
2A6
330
3075
100
AcDbEntity
  8
TEXT
 62
     5
420
      255
370
    25
100
AcDbPolyline
 90
        2
 70
     0
 43
0.0
 10
275.3046841577132
 20
-53.20196183889647
 10
273.0500816577132
 20
-53.20196183889647
  0
LWPOLYLINE
  5
2A7
330
3075
100
AcDbEntity
  8
TEXT
 62
     5
420
      255
370
    25
100
AcDbPolyline
 90
        4
 70
     0
 43
0.0
 10
272.9276679077132
 20
-51.58588683889656
 10
275.3046841577132
 20
-51.58588683889656
 10
275.3046841577132
 20
-54.60637058889648
 10
272.9530679077132
 20
-54.60637058889648
  0
LWPOLYLINE
  5
A61
330
3075
100
AcDbEntity
  8
TEXT
 62
     5
420
      255
370
    25
100
AcDbPolyline
 90
        2
 70
     0
 43
0.0
 10
6.732511250001124
 20
-30.76036624999939
 10
8.988172500001127
 20
-30.76036624999942
  0
LWPOLYLINE
  5
A62
330
3075
100
AcDbEntity
  8
TEXT
 62
     5
420
      255
370
    25
100
AcDbPolyline
 90
        4
 70
     0
 43
0.0
 10
9.110586250001091
 20
-32.37644124999937
 10
6.732511250001124
 20
-32.37644124999935
 10
6.732511250001124
 20
-29.35560499999924
 10
9.085538750001064
 20
-29.35560499999935
  0
LWPOLYLINE
  5
A98
330
3075
100
AcDbEntity
  8
TEXT
 62
     5
420
      255
370
    25
100
AcDbPolyline
 90
        2
 70
     0
 43
0.0
 10
35.18897750000107
 20
-28.27539999999944
 10
35.18897750000107
 20
-25.31559499999943
  0
LWPOLYLINE
  5
A99
330
3075
100
AcDbEntity
  8
TEXT
 62
     5
420
      255
370
    25
100
AcDbPolyline
 90
        2
 70
     0
 43
0.0
 10
33.94261375000107
 20
-25.2887837499996
 10
36.51895000000124
 20
-25.28878374999943
  0
SPLINE
  5
A9A
330
3075
100
AcDbEntity
  8
TEXT
 62
     5
420
      255
370
    25
100
AcDbSpline
210
0.0
220
0.0
230
1.0
 70
     8
 71
     3
 72
     8
 73
     4
 74
     0
 42
0.000000001
 43
0.001
 12
1.0
 22
0.0
 32
0.0
 13
1.0
 23
0.0
 33
0.0
 40
0.0
 40
0.0
 40
0.0
 40
0.0
 40
1.0
 40
1.0
 40
1.0
 40
1.0
 10
25.97336375000108
 20
-25.2887837499995
 30
0.0
 10
26.5709700000011
 20
-25.28878374999942
 30
0.0
 10
26.79745250000107
 20
-25.57347499999955
 30
0.0
 10
26.79745250000107
 20
-26.10475874999945
 30
0.0
  0
SPLINE
  5
A9B
330
3075
100
AcDbEntity
  8
TEXT
 62
     5
420
      255
370
    25
100
AcDbSpline
210
0.0
220
0.0
230
1.0
 70
     8
 71
     3
 72
     8
 73
     4
 74
     0
 42
0.000000001
 43
0.001
 12
1.0
 22
0.0
 32
0.0
 13
1.0
 23
0.0
 33
0.0
 40
0.0
 40
0.0
 40
0.0
 40
0.0
 40
1.0
 40
1.0
 40
1.0
 40
1.0
 10
26.79745250000107
 20
-26.10475874999945
 30
0.0
 10
26.79745250000107
 20
-26.38909749999958
 30
0.0
 10
26.60518875000113
 20
-26.78667749999963
 30
0.0
 10
26.086252500001
 20
-26.81560499999949
 30
0.0
  0
LWPOLYLINE
  5
A9C
330
3075
100
AcDbEntity
  8
TEXT
 62
     5
420
      255
370
    25
100
AcDbPolyline
 90
        3
 70
     0
 43
0.0
 10
24.3297725000011
 20
-28.27575249999939
 10
24.3297725000011
 20
-25.28878374999955
 10
25.97336375000108
 20
-25.2887837499995
  0
SPLINE
  5
A9D
330
3075
100
AcDbEntity
  8
TEXT
 62
     5
420
      255
370
    25
100
AcDbSpline
210
0.0
220
0.0
230
1.0
 70
     8
 71
     3
 72
     8
 73
     4
 74
     0
 42
0.000000001
 43
0.001
 12
1.0
 22
0.0
 32
0.0
 13
1.0
 23
0.0
 33
0.0
 40
0.0
 40
0.0
 40
0.0
 40
0.0
 40
1.0
 40
1.0
 40
1.0
 40
1.0
 10
26.08202000000105
 20
-26.82407249999938
 30
0.0
 10
26.54204125000112
 20
-26.82865874999946
 30
0.0
 10
26.74242000000103
 20
-27.04173624999931
 30
0.0
 10
26.74242000000103
 20
-27.45131124999934
 30
0.0
  0
SPLINE
  5
A9E
330
3075
100
AcDbEntity
  8
TEXT
 62
     5
420
      255
370
    25
100
AcDbSpline
210
0.0
220
0.0
230
1.0
 70
     8
 71
     3
 72
     8
 73
     4
 74
     0
 42
0.000000001
 43
0.001
 12
1.0
 22
0.0
 32
0.0
 13
1.0
 23
0.0
 33
0.0
 40
0.0
 40
0.0
 40
0.0
 40
0.0
 40
1.0
 40
1.0
 40
1.0
 40
1.0
 10
26.74242000000103
 20
-27.45131124999934
 30
0.0
 10
26.74242000000103
 20
-27.56067249999953
 30
0.0
 10
26.750886250001
 20
-28.15404499999951
 30
0.0
 10
26.80944750000114
 20
-28.27539999999943
 30
0.0
  0
LWPOLYLINE
  5
A9F
330
3075
100
AcDbEntity
  8
TEXT
 62
     5
420
      255
370
    25
100
AcDbPolyline
 90
        2
 70
     0
 43
0.0
 10
26.086252500001
 20
-26.81560499999949
 10
26.08202000000105
 20
-26.82407249999938
  0
LWPOLYLINE
  5
AA0
330
3075
100
AcDbEntity
  8
TEXT
 62
     5
420
      255
370
    25
100
AcDbPolyline
 90
        2
 70
     0
 43
0.0
 10
26.08237250000101
 20
-26.82442499999955
 10
24.3297725000011
 20
-26.82971624999944
  0
LWPOLYLINE
  5
AA1
330
3075
100
AcDbEntity
  8
TEXT
 62
     5
420
      255
370
    25
100
AcDbPolyline
 90
        2
 70
     0
 43
0.0
 10
27.2962812500011
 20
-25.28878374999955
 10
27.2962812500011
 20
-28.27575249999944
  0
LWPOLYLINE
  5
AA2
330
3075
100
AcDbEntity
  8
TEXT
 62
     5
420
      255
370
    25
100
AcDbPolyline
 90
        2
 70
     0
 43
0.0
 10
31.17930625000119
 20
-28.27575249999943
 10
31.17930625000119
 20
-25.28878374999963
  0
LWPOLYLINE
  5
AA3
330
3075
100
AcDbEntity
  8
TEXT
 62
     5
420
      255
370
    25
100
AcDbPolyline
 90
        2
 70
     0
 43
0.0
 10
31.17930625000119
 20
-26.67837499999946
 10
33.73906125000107
 20
-26.67837499999944
  0
SPLINE
  5
AA4
330
3075
100
AcDbEntity
  8
TEXT
 62
     5
420
      255
370
    25
100
AcDbSpline
210
0.0
220
0.0
230
1.0
 70
     8
 71
     3
 72
     8
 73
     4
 74
     0
 42
0.000000001
 43
0.001
 12
1.0
 22
0.0
 32
0.0
 13
1.0
 23
0.0
 33
0.0
 40
0.0
 40
0.0
 40
0.0
 40
0.0
 40
1.0
 40
1.0
 40
1.0
 40
1.0
 10
30.72210625000113
 20
-26.94119499999933
 30
0.0
 10
30.67836125000119
 20
-27.28832749999943
 30
0.0
 10
30.618388750001
 20
-27.44143374999949
 30
0.0
 10
30.618388750001
 20
-27.44143374999949
 30
0.0
  0
SPLINE
  5
AA5
330
3075
100
AcDbEntity
  8
TEXT
 62
     5
420
      255
370
    25
100
AcDbSpline
210
0.0
220
0.0
230
1.0
 70
     8
 71
     3
 72
     8
 73
     4
 74
     0
 42
0.000000001
 43
0.001
 12
1.0
 22
0.0
 32
0.0
 13
1.0
 23
0.0
 33
0.0
 40
0.0
 40
0.0
 40
0.0
 40
0.0
 40
1.0
 40
1.0
 40
1.0
 40
1.0
 10
30.618388750001
 20
-27.44143374999949
 30
0.0
 10
30.4113087500011
 20
-28.12723374999956
 30
0.0
 10
29.83169500000096
 20
-28.40910249999959
 30
0.0
 10
29.20798375000103
 20
-28.40910249999955
 30
0.0
  0
SPLINE
  5
AA6
330
3075
100
AcDbEntity
  8
TEXT
 62
     5
420
      255
370
    25
100
AcDbSpline
210
0.0
220
0.0
230
1.0
 70
     8
 71
     3
 72
     8
 73
     4
 74
     0
 42
0.000000001
 43
0.001
 12
1.0
 22
0.0
 32
0.0
 13
1.0
 23
0.0
 33
0.0
 40
0.0
 40
0.0
 40
0.0
 40
0.0
 40
1.0
 40
1.0
 40
1.0
 40
1.0
 10
29.20798375000103
 20
-28.40910249999955
 30
0.0
 10
28.35461375000111
 20
-28.40910249999958
 30
0.0
 10
27.65999500000109
 20
-27.83619124999948
 30
0.0
 10
27.65999500000109
 20
-26.84947249999959
 30
0.0
  0
SPLINE
  5
AA7
330
3075
100
AcDbEntity
  8
TEXT
 62
     5
420
      255
370
    25
100
AcDbSpline
210
0.0
220
0.0
230
1.0
 70
     8
 71
     3
 72
     8
 73
     4
 74
     0
 42
0.000000001
 43
0.001
 12
1.0
 22
0.0
 32
0.0
 13
1.0
 23
0.0
 33
0.0
 40
0.0
 40
0.0
 40
0.0
 40
0.0
 40
1.0
 40
1.0
 40
1.0
 40
1.0
 10
27.65999500000109
 20
-26.84947249999959
 30
0.0
 10
27.65999500000109
 20
-25.86204749999955
 30
0.0
 10
28.35461375000111
 20
-25.28878374999946
 30
0.0
 10
29.20798375000103
 20
-25.28878374999961
 30
0.0
  0
SPLINE
  5
AA8
330
3075
100
AcDbEntity
  8
TEXT
 62
     5
420
      255
370
    25
100
AcDbSpline
210
0.0
220
0.0
230
1.0
 70
     8
 71
     3
 72
     8
 73
     4
 74
     0
 42
0.000000001
 43
0.001
 12
1.0
 22
0.0
 32
0.0
 13
1.0
 23
0.0
 33
0.0
 40
0.0
 40
0.0
 40
0.0
 40
0.0
 40
1.0
 40
1.0
 40
1.0
 40
1.0
 10
29.20798375000103
 20
-25.28878374999961
 30
0.0
 10
30.14072750000113
 20
-25.28878374999959
 30
0.0
 10
30.57005875000104
 20
-25.70294499999958
 30
0.0
 10
30.67836125000119
 20
-26.28079499999954
 30
0.0
  0
LWPOLYLINE
  5
AA9
330
3075
100
AcDbEntity
  8
TEXT
 62
     5
420
      255
370
    25
100
AcDbPolyline
 90
        2
 70
     0
 43
0.0
 10
33.73906125000107
 20
-25.28878374999955
 10
33.73906125000107
 20
-28.27575249999945
  0
LWPOLYLINE
  5
AAA
330
3075
100
AcDbEntity
  8
TEXT
 62
     5
420
      255
370
    25
100
AcDbPolyline
 90
        3
 70
     0
 43
0.0
 10
29.31663875000115
 20
-26.94119499999951
 10
30.72210625000113
 20
-26.94119499999933
 10
30.72210625000113
 20
-28.34277999999948
  0
LWPOLYLINE
  5
AAB
330
3075
100
AcDbEntity
  8
TEXT
 62
     5
420
      255
370
    25
100
AcDbPolyline
 90
        2
 70
     0
 43
0.0
 10
30.42436125000106
 20
-32.27096124999959
 10
32.67896375000109
 20
-32.27096124999957
  0
LWPOLYLINE
  5
AAC
330
3075
100
AcDbEntity
  8
TEXT
 62
     5
420
      255
370
    25
100
AcDbPolyline
 90
        4
 70
     0
 43
0.0
 10
32.80137750000105
 20
-33.88703624999951
 10
30.42436125000106
 20
-33.8870362499995
 10
30.42436125000106
 20
-30.86655249999943
 10
32.77597750000106
 20
-30.8665524999995
  0
LWPOLYLINE
  5
2E70
330
3075
100
AcDbEntity
  8
TEXT
 62
     5
420
      255
370
    25
100
AcDbPolyline
 90
        2
 70
     0
 43
0.0
 10
9.375379470417208
 20
-103.8506976802802
 10
11.63104072041721
 20
-103.8506976802802
  0
LWPOLYLINE
  5
2E72
330
3075
100
AcDbEntity
  8
TEXT
 62
     5
420
      255
370
    25
100
AcDbPolyline
 90
        4
 70
     0
 43
0.0
 10
11.75345447041718
 20
-105.4667726802802
 10
9.375379470417208
 20
-105.4667726802801
 10
9.375379470417208
 20
-102.44593643028
 10
11.72840697041715
 20
-102.4459364302801
  0
LWPOLYLINE
  5
2E77
330
3075
100
AcDbEntity
  8
TEXT
 62
     5
420
      255
370
    25
100
AcDbPolyline
 90
        2
 70
     0
 43
0.0
 10
301.6394023781292
 20
-127.8028882691773
 10
299.3837411281292
 20
-127.8028882691773
  0
LWPOLYLINE
  5
2E79
330
3075
100
AcDbEntity
  8
TEXT
 62
     5
420
      255
370
    25
100
AcDbPolyline
 90
        4
 70
     0
 43
0.0
 10
299.2613273781292
 20
-126.1868132691773
 10
301.6394023781292
 20
-126.1868132691773
 10
301.6394023781292
 20
-129.2076495191774
 10
299.2863748781293
 20
-129.2076495191774
  0
LWPOLYLINE
  5
2EC7
330
3075
100
AcDbEntity
  8
TEXT
 62
     5
420
      255
370
    25
100
AcDbPolyline
 90
        2
 70
     0
 43
0.0
 10
37.83184572041716
 20
-101.3657314302802
 10
37.83184572041716
 20
-98.4059264302802
  0
LWPOLYLINE
  5
2EC8
330
3075
100
AcDbEntity
  8
TEXT
 62
     5
420
      255
370
    25
100
AcDbPolyline
 90
        2
 70
     0
 43
0.0
 10
36.58548197041716
 20
-98.3791151802804
 10
39.16181822041732
 20
-98.37911518028022
  0
SPLINE
  5
2EC9
330
3075
100
AcDbEntity
  8
TEXT
 62
     5
420
      255
370
    25
100
AcDbSpline
210
0.0
220
0.0
230
1.0
 70
     8
 71
     3
 72
     8
 73
     4
 74
     0
 42
0.000000001
 43
0.001
 12
1.0
 22
0.0
 32
0.0
 13
1.0
 23
0.0
 33
0.0
 40
0.0
 40
0.0
 40
0.0
 40
0.0
 40
1.0
 40
1.0
 40
1.0
 40
1.0
 10
28.61623197041717
 20
-98.37911518028028
 30
0.0
 10
29.21383822041718
 20
-98.3791151802802
 30
0.0
 10
29.44032072041716
 20
-98.66380643028035
 30
0.0
 10
29.44032072041716
 20
-99.19509018028023
 30
0.0
  0
LWPOLYLINE
  5
2ECA
330
3075
100
AcDbEntity
  8
TEXT
 62
     5
420
      255
370
    25
100
AcDbPolyline
 90
        2
 70
     0
 43
0.0
 10
273.1829361281293
 20
-130.2878545191773
 10
273.1829361281293
 20
-133.2476595191774
  0
SPLINE
  5
2ECB
330
3075
100
AcDbEntity
  8
TEXT
 62
     5
420
      255
370
    25
100
AcDbSpline
210
0.0
220
0.0
230
1.0
 70
     8
 71
     3
 72
     8
 73
     4
 74
     0
 42
0.000000001
 43
0.001
 12
1.0
 22
0.0
 32
0.0
 13
1.0
 23
0.0
 33
0.0
 40
0.0
 40
0.0
 40
0.0
 40
0.0
 40
1.0
 40
1.0
 40
1.0
 40
1.0
 10
29.44032072041716
 20
-99.19509018028023
 30
0.0
 10
29.44032072041716
 20
-99.47942893028036
 30
0.0
 10
29.24805697041722
 20
-99.87700893028043
 30
0.0
 10
28.72912072041708
 20
-99.90593643028026
 30
0.0
  0
LWPOLYLINE
  5
2ECC
330
3075
100
AcDbEntity
  8
TEXT
 62
     5
420
      255
370
    25
100
AcDbPolyline
 90
        2
 70
     0
 43
0.0
 10
274.4292998781293
 20
-133.2744707691773
 10
271.8529636281292
 20
-133.2744707691773
  0
LWPOLYLINE
  5
2ECD
330
3075
100
AcDbEntity
  8
TEXT
 62
     5
420
      255
370
    25
100
AcDbPolyline
 90
        3
 70
     0
 43
0.0
 10
26.97264072041718
 20
-101.3660839302802
 10
26.97264072041718
 20
-98.37911518028034
 10
28.61623197041717
 20
-98.37911518028028
  0
SPLINE
  5
2ECE
330
3075
100
AcDbEntity
  8
TEXT
 62
     5
420
      255
370
    25
100
AcDbSpline
210
0.0
220
0.0
230
1.0
 70
     8
 71
     3
 72
     8
 73
     4
 74
     0
 42
0.000000001
 43
0.001
 12
1.0
 22
0.0
 32
0.0
 13
1.0
 23
0.0
 33
0.0
 40
0.0
 40
0.0
 40
0.0
 40
0.0
 40
1.0
 40
1.0
 40
1.0
 40
1.0
 10
282.3985498781292
 20
-133.2744707691773
 30
0.0
 10
281.8009436281292
 20
-133.2744707691773
 30
0.0
 10
281.5744611281293
 20
-132.9897795191773
 30
0.0
 10
281.5744611281293
 20
-132.4584957691773
 30
0.0
  0
SPLINE
  5
2ECF
330
3075
100
AcDbEntity
  8
TEXT
 62
     5
420
      255
370
    25
100
AcDbSpline
210
0.0
220
0.0
230
1.0
 70
     8
 71
     3
 72
     8
 73
     4
 74
     0
 42
0.000000001
 43
0.001
 12
1.0
 22
0.0
 32
0.0
 13
1.0
 23
0.0
 33
0.0
 40
0.0
 40
0.0
 40
0.0
 40
0.0
 40
1.0
 40
1.0
 40
1.0
 40
1.0
 10
28.72488822041714
 20
-99.91440393028017
 30
0.0
 10
29.1849094704172
 20
-99.91899018028025
 30
0.0
 10
29.38528822041712
 20
-100.1320676802801
 30
0.0
 10
29.38528822041712
 20
-100.5416426802801
 30
0.0
  0
SPLINE
  5
2ED0
330
3075
100
AcDbEntity
  8
TEXT
 62
     5
420
      255
370
    25
100
AcDbSpline
210
0.0
220
0.0
230
1.0
 70
     8
 71
     3
 72
     8
 73
     4
 74
     0
 42
0.000000001
 43
0.001
 12
1.0
 22
0.0
 32
0.0
 13
1.0
 23
0.0
 33
0.0
 40
0.0
 40
0.0
 40
0.0
 40
0.0
 40
1.0
 40
1.0
 40
1.0
 40
1.0
 10
281.5744611281293
 20
-132.4584957691773
 30
0.0
 10
281.5744611281293
 20
-132.1741570191774
 30
0.0
 10
281.7667248781292
 20
-131.7765770191773
 30
0.0
 10
282.2856611281293
 20
-131.7476495191773
 30
0.0
  0
SPLINE
  5
2ED1
330
3075
100
AcDbEntity
  8
TEXT
 62
     5
420
      255
370
    25
100
AcDbSpline
210
0.0
220
0.0
230
1.0
 70
     8
 71
     3
 72
     8
 73
     4
 74
     0
 42
0.000000001
 43
0.001
 12
1.0
 22
0.0
 32
0.0
 13
1.0
 23
0.0
 33
0.0
 40
0.0
 40
0.0
 40
0.0
 40
0.0
 40
1.0
 40
1.0
 40
1.0
 40
1.0
 10
29.38528822041712
 20
-100.5416426802801
 30
0.0
 10
29.38528822041712
 20
-100.6510039302803
 30
0.0
 10
29.39375447041709
 20
-101.2443764302803
 30
0.0
 10
29.45231572041723
 20
-101.3657314302802
 30
0.0
  0
LWPOLYLINE
  5
2ED2
330
3075
100
AcDbEntity
  8
TEXT
 62
     5
420
      255
370
    25
100
AcDbPolyline
 90
        3
 70
     0
 43
0.0
 10
284.0421411281292
 20
-130.2875020191773
 10
284.0421411281292
 20
-133.2744707691773
 10
282.3985498781292
 20
-133.2744707691773
  0
LWPOLYLINE
  5
2ED3
330
3075
100
AcDbEntity
  8
TEXT
 62
     5
420
      255
370
    25
100
AcDbPolyline
 90
        2
 70
     0
 43
0.0
 10
28.72912072041708
 20
-99.90593643028026
 10
28.72488822041714
 20
-99.91440393028017
  0
SPLINE
  5
2ED4
330
3075
100
AcDbEntity
  8
TEXT
 62
     5
420
      255
370
    25
100
AcDbSpline
210
0.0
220
0.0
230
1.0
 70
     8
 71
     3
 72
     8
 73
     4
 74
     0
 42
0.000000001
 43
0.001
 12
1.0
 22
0.0
 32
0.0
 13
1.0
 23
0.0
 33
0.0
 40
0.0
 40
0.0
 40
0.0
 40
0.0
 40
1.0
 40
1.0
 40
1.0
 40
1.0
 10
282.2898936281293
 20
-131.7391820191773
 30
0.0
 10
281.8298723781292
 20
-131.7345957691774
 30
0.0
 10
281.6294936281293
 20
-131.5215182691774
 30
0.0
 10
281.6294936281293
 20
-131.1119432691774
 30
0.0
  0
LWPOLYLINE
  5
2ED5
330
3075
100
AcDbEntity
  8
TEXT
 62
     5
420
      255
370
    25
100
AcDbPolyline
 90
        2
 70
     0
 43
0.0
 10
28.7252407204171
 20
-99.91475643028033
 10
26.97264072041718
 20
-99.92004768028022
  0
SPLINE
  5
2ED6
330
3075
100
AcDbEntity
  8
TEXT
 62
     5
420
      255
370
    25
100
AcDbSpline
210
0.0
220
0.0
230
1.0
 70
     8
 71
     3
 72
     8
 73
     4
 74
     0
 42
0.000000001
 43
0.001
 12
1.0
 22
0.0
 32
0.0
 13
1.0
 23
0.0
 33
0.0
 40
0.0
 40
0.0
 40
0.0
 40
0.0
 40
1.0
 40
1.0
 40
1.0
 40
1.0
 10
281.6294936281293
 20
-131.1119432691774
 30
0.0
 10
281.6294936281293
 20
-131.0025820191773
 30
0.0
 10
281.6210273781293
 20
-130.4092095191773
 30
0.0
 10
281.5624661281292
 20
-130.2878545191773
 30
0.0
  0
LWPOLYLINE
  5
2ED7
330
3075
100
AcDbEntity
  8
TEXT
 62
     5
420
      255
370
    25
100
AcDbPolyline
 90
        2
 70
     0
 43
0.0
 10
29.93914947041718
 20
-98.37911518028034
 10
29.93914947041718
 20
-101.3660839302802
  0
LWPOLYLINE
  5
2ED8
330
3075
100
AcDbEntity
  8
TEXT
 62
     5
420
      255
370
    25
100
AcDbPolyline
 90
        2
 70
     0
 43
0.0
 10
282.2856611281293
 20
-131.7476495191773
 10
282.2898936281293
 20
-131.7391820191773
  0
LWPOLYLINE
  5
2ED9
330
3075
100
AcDbEntity
  8
TEXT
 62
     5
420
      255
370
    25
100
AcDbPolyline
 90
        2
 70
     0
 43
0.0
 10
33.82217447041727
 20
-101.3660839302802
 10
33.82217447041727
 20
-98.37911518028042
  0
LWPOLYLINE
  5
2EDA
330
3075
100
AcDbEntity
  8
TEXT
 62
     5
420
      255
370
    25
100
AcDbPolyline
 90
        2
 70
     0
 43
0.0
 10
282.2895411281293
 20
-131.7388295191773
 10
284.0421411281292
 20
-131.7335382691772
  0
LWPOLYLINE
  5
2EDB
330
3075
100
AcDbEntity
  8
TEXT
 62
     5
420
      255
370
    25
100
AcDbPolyline
 90
        2
 70
     0
 43
0.0
 10
33.82217447041727
 20
-99.76870643028025
 10
36.38192947041716
 20
-99.76870643028022
  0
LWPOLYLINE
  5
2EDC
330
3075
100
AcDbEntity
  8
TEXT
 62
     5
420
      255
370
    25
100
AcDbPolyline
 90
        2
 70
     0
 43
0.0
 10
281.0756323781292
 20
-133.2744707691773
 10
281.0756323781292
 20
-130.2875020191773
  0
SPLINE
  5
2EDD
330
3075
100
AcDbEntity
  8
TEXT
 62
     5
420
      255
370
    25
100
AcDbSpline
210
0.0
220
0.0
230
1.0
 70
     8
 71
     3
 72
     8
 73
     4
 74
     0
 42
0.000000001
 43
0.001
 12
1.0
 22
0.0
 32
0.0
 13
1.0
 23
0.0
 33
0.0
 40
0.0
 40
0.0
 40
0.0
 40
0.0
 40
1.0
 40
1.0
 40
1.0
 40
1.0
 10
33.36497447041722
 20
-100.0315264302801
 30
0.0
 10
33.32122947041727
 20
-100.3786589302802
 30
0.0
 10
33.26125697041709
 20
-100.5317651802803
 30
0.0
 10
33.26125697041709
 20
-100.5317651802803
 30
0.0
  0
LWPOLYLINE
  5
2EDE
330
3075
100
AcDbEntity
  8
TEXT
 62
     5
420
      255
370
    25
100
AcDbPolyline
 90
        2
 70
     0
 43
0.0
 10
277.1926073781291
 20
-130.2875020191773
 10
277.1926073781291
 20
-133.2744707691773
  0
SPLINE
  5
2EDF
330
3075
100
AcDbEntity
  8
TEXT
 62
     5
420
      255
370
    25
100
AcDbSpline
210
0.0
220
0.0
230
1.0
 70
     8
 71
     3
 72
     8
 73
     4
 74
     0
 42
0.000000001
 43
0.001
 12
1.0
 22
0.0
 32
0.0
 13
1.0
 23
0.0
 33
0.0
 40
0.0
 40
0.0
 40
0.0
 40
0.0
 40
1.0
 40
1.0
 40
1.0
 40
1.0
 10
33.26125697041709
 20
-100.5317651802803
 30
0.0
 10
33.05417697041718
 20
-101.2175651802803
 30
0.0
 10
32.47456322041705
 20
-101.4994339302804
 30
0.0
 10
31.85085197041712
 20
-101.4994339302803
 30
0.0
  0
LWPOLYLINE
  5
2EE0
330
3075
100
AcDbEntity
  8
TEXT
 62
     5
420
      255
370
    25
100
AcDbPolyline
 90
        2
 70
     0
 43
0.0
 10
277.1926073781291
 20
-131.8848795191773
 10
274.6328523781293
 20
-131.8848795191773
  0
SPLINE
  5
2EE1
330
3075
100
AcDbEntity
  8
TEXT
 62
     5
420
      255
370
    25
100
AcDbSpline
210
0.0
220
0.0
230
1.0
 70
     8
 71
     3
 72
     8
 73
     4
 74
     0
 42
0.000000001
 43
0.001
 12
1.0
 22
0.0
 32
0.0
 13
1.0
 23
0.0
 33
0.0
 40
0.0
 40
0.0
 40
0.0
 40
0.0
 40
1.0
 40
1.0
 40
1.0
 40
1.0
 10
31.85085197041712
 20
-101.4994339302803
 30
0.0
 10
30.99748197041719
 20
-101.4994339302804
 30
0.0
 10
30.30286322041717
 20
-100.9265226802803
 30
0.0
 10
30.30286322041717
 20
-99.93980393028038
 30
0.0
  0
SPLINE
  5
2EE2
330
3075
100
AcDbEntity
  8
TEXT
 62
     5
420
      255
370
    25
100
AcDbSpline
210
0.0
220
0.0
230
1.0
 70
     8
 71
     3
 72
     8
 73
     4
 74
     0
 42
0.000000001
 43
0.001
 12
1.0
 22
0.0
 32
0.0
 13
1.0
 23
0.0
 33
0.0
 40
0.0
 40
0.0
 40
0.0
 40
0.0
 40
1.0
 40
1.0
 40
1.0
 40
1.0
 10
277.6498073781292
 20
-131.6220595191774
 30
0.0
 10
277.6935523781291
 20
-131.2749270191774
 30
0.0
 10
277.7535248781293
 20
-131.1218207691773
 30
0.0
 10
277.7535248781293
 20
-131.1218207691773
 30
0.0
  0
SPLINE
  5
2EE3
330
3075
100
AcDbEntity
  8
TEXT
 62
     5
420
      255
370
    25
100
AcDbSpline
210
0.0
220
0.0
230
1.0
 70
     8
 71
     3
 72
     8
 73
     4
 74
     0
 42
0.000000001
 43
0.001
 12
1.0
 22
0.0
 32
0.0
 13
1.0
 23
0.0
 33
0.0
 40
0.0
 40
0.0
 40
0.0
 40
0.0
 40
1.0
 40
1.0
 40
1.0
 40
1.0
 10
30.30286322041717
 20
-99.93980393028038
 30
0.0
 10
30.30286322041717
 20
-98.95237893028033
 30
0.0
 10
30.99748197041719
 20
-98.37911518028025
 30
0.0
 10
31.85085197041712
 20
-98.3791151802804
 30
0.0
  0
SPLINE
  5
2EE4
330
3075
100
AcDbEntity
  8
TEXT
 62
     5
420
      255
370
    25
100
AcDbSpline
210
0.0
220
0.0
230
1.0
 70
     8
 71
     3
 72
     8
 73
     4
 74
     0
 42
0.000000001
 43
0.001
 12
1.0
 22
0.0
 32
0.0
 13
1.0
 23
0.0
 33
0.0
 40
0.0
 40
0.0
 40
0.0
 40
0.0
 40
1.0
 40
1.0
 40
1.0
 40
1.0
 10
277.7535248781293
 20
-131.1218207691773
 30
0.0
 10
277.9606048781292
 20
-130.4360207691773
 30
0.0
 10
278.5402186281294
 20
-130.1541520191773
 30
0.0
 10
279.1639298781293
 20
-130.1541520191773
 30
0.0
  0
SPLINE
  5
2EE5
330
3075
100
AcDbEntity
  8
TEXT
 62
     5
420
      255
370
    25
100
AcDbSpline
210
0.0
220
0.0
230
1.0
 70
     8
 71
     3
 72
     8
 73
     4
 74
     0
 42
0.000000001
 43
0.001
 12
1.0
 22
0.0
 32
0.0
 13
1.0
 23
0.0
 33
0.0
 40
0.0
 40
0.0
 40
0.0
 40
0.0
 40
1.0
 40
1.0
 40
1.0
 40
1.0
 10
31.85085197041712
 20
-98.3791151802804
 30
0.0
 10
32.78359572041722
 20
-98.37911518028037
 30
0.0
 10
33.21292697041712
 20
-98.79327643028037
 30
0.0
 10
33.32122947041727
 20
-99.37112643028033
 30
0.0
  0
SPLINE
  5
2EE6
330
3075
100
AcDbEntity
  8
TEXT
 62
     5
420
      255
370
    25
100
AcDbSpline
210
0.0
220
0.0
230
1.0
 70
     8
 71
     3
 72
     8
 73
     4
 74
     0
 42
0.000000001
 43
0.001
 12
1.0
 22
0.0
 32
0.0
 13
1.0
 23
0.0
 33
0.0
 40
0.0
 40
0.0
 40
0.0
 40
0.0
 40
1.0
 40
1.0
 40
1.0
 40
1.0
 10
279.1639298781293
 20
-130.1541520191773
 30
0.0
 10
280.0172998781292
 20
-130.1541520191773
 30
0.0
 10
280.7119186281292
 20
-130.7270632691773
 30
0.0
 10
280.7119186281292
 20
-131.7137820191772
 30
0.0
  0
LWPOLYLINE
  5
2EE7
330
3075
100
AcDbEntity
  8
TEXT
 62
     5
420
      255
370
    25
100
AcDbPolyline
 90
        2
 70
     0
 43
0.0
 10
36.38192947041716
 20
-98.37911518028034
 10
36.38192947041716
 20
-101.3660839302802
  0
SPLINE
  5
2EE8
330
3075
100
AcDbEntity
  8
TEXT
 62
     5
420
      255
370
    25
100
AcDbSpline
210
0.0
220
0.0
230
1.0
 70
     8
 71
     3
 72
     8
 73
     4
 74
     0
 42
0.000000001
 43
0.001
 12
1.0
 22
0.0
 32
0.0
 13
1.0
 23
0.0
 33
0.0
 40
0.0
 40
0.0
 40
0.0
 40
0.0
 40
1.0
 40
1.0
 40
1.0
 40
1.0
 10
280.7119186281292
 20
-131.7137820191772
 30
0.0
 10
280.7119186281292
 20
-132.7012070191773
 30
0.0
 10
280.0172998781292
 20
-133.2744707691773
 30
0.0
 10
279.1639298781293
 20
-133.2744707691773
 30
0.0
  0
LWPOLYLINE
  5
2EE9
330
3075
100
AcDbEntity
  8
TEXT
 62
     5
420
      255
370
    25
100
AcDbPolyline
 90
        3
 70
     0
 43
0.0
 10
31.95950697041723
 20
-100.0315264302803
 10
33.36497447041722
 20
-100.0315264302801
 10
33.36497447041722
 20
-101.4331114302803
  0
SPLINE
  5
2EEA
330
3075
100
AcDbEntity
  8
TEXT
 62
     5
420
      255
370
    25
100
AcDbSpline
210
0.0
220
0.0
230
1.0
 70
     8
 71
     3
 72
     8
 73
     4
 74
     0
 42
0.000000001
 43
0.001
 12
1.0
 22
0.0
 32
0.0
 13
1.0
 23
0.0
 33
0.0
 40
0.0
 40
0.0
 40
0.0
 40
0.0
 40
1.0
 40
1.0
 40
1.0
 40
1.0
 10
279.1639298781293
 20
-133.2744707691773
 30
0.0
 10
278.2311861281292
 20
-133.2744707691773
 30
0.0
 10
277.8018548781293
 20
-132.8603095191773
 30
0.0
 10
277.6935523781291
 20
-132.2824595191774
 30
0.0
  0
LWPOLYLINE
  5
2EEB
330
3075
100
AcDbEntity
  8
TEXT
 62
     5
420
      255
370
    25
100
AcDbPolyline
 90
        2
 70
     0
 43
0.0
 10
33.06722947041714
 20
-105.3612926802804
 10
35.32183197041717
 20
-105.3612926802803
  0
LWPOLYLINE
  5
2EEC
330
3075
100
AcDbEntity
  8
TEXT
 62
     5
420
      255
370
    25
100
AcDbPolyline
 90
        2
 70
     0
 43
0.0
 10
274.6328523781293
 20
-133.2744707691773
 10
274.6328523781293
 20
-130.2875020191773
  0
LWPOLYLINE
  5
2EED
330
3075
100
AcDbEntity
  8
TEXT
 62
     5
420
      255
370
    25
100
AcDbPolyline
 90
        4
 70
     0
 43
0.0
 10
35.44424572041714
 20
-106.9773676802803
 10
33.06722947041714
 20
-106.9773676802803
 10
33.06722947041714
 20
-103.9568839302802
 10
35.41884572041715
 20
-103.9568839302803
  0
LWPOLYLINE
  5
2EEE
330
3075
100
AcDbEntity
  8
TEXT
 62
     5
420
      255
370
    25
100
AcDbPolyline
 90
        3
 70
     0
 43
0.0
 10
279.0552748781292
 20
-131.6220595191774
 10
277.6498073781292
 20
-131.6220595191774
 10
277.6498073781292
 20
-130.2204745191773
  0
LWPOLYLINE
  5
2EEF
330
3075
100
AcDbEntity
  8
TEXT
 62
     5
420
      255
370
    25
100
AcDbPolyline
 90
        2
 70
     0
 43
0.0
 10
277.9475523781293
 20
-126.2922932691773
 10
275.6929498781292
 20
-126.2922932691773
  0
LWPOLYLINE
  5
2EF0
330
3075
100
AcDbEntity
  8
TEXT
 62
     5
420
      255
370
    25
100
AcDbPolyline
 90
        4
 70
     0
 43
0.0
 10
275.5705361281293
 20
-124.6762182691773
 10
277.9475523781293
 20
-124.6762182691773
 10
277.9475523781293
 20
-127.6967020191773
 10
275.5959361281293
 20
-127.6967020191773
  0
SPLINE
  5
2EF2
330
3075
100
AcDbEntity
  8
TEXT
 62
     5
420
      255
370
    25
100
AcDbSpline
210
0.0
220
0.0
230
1.0
 70
     8
 71
     3
 72
     8
 73
     4
 74
     0
 42
0.000000001
 43
0.001
 12
1.0
 22
0.0
 32
0.0
 13
1.0
 23
0.0
 33
0.0
 40
0.0
 40
0.0
 40
0.0
 40
0.0
 40
1.0
 40
1.0
 40
1.0
 40
1.0
 10
271.3332774999803
 20
-213.6910137500111
 30
0.0
 10
271.3332774999803
 20
-212.8531662500111
 30
0.0
 10
271.6673574999803
 20
-212.1345575000111
 30
0.0
 10
272.5983387499805
 20
-212.1345575000111
 30
0.0
  0
SPLINE
  5
2EF5
330
3075
100
AcDbEntity
  8
TEXT
 62
     5
420
      255
370
    25
100
AcDbSpline
210
0.0
220
0.0
230
1.0
 70
     8
 71
     3
 72
     8
 73
     4
 74
     0
 42
0.000000001
 43
0.001
 12
1.0
 22
0.0
 32
0.0
 13
1.0
 23
0.0
 33
0.0
 40
0.0
 40
0.0
 40
0.0
 40
0.0
 40
1.0
 40
1.0
 40
1.0
 40
1.0
 10
272.5983387499805
 20
-212.1345575000111
 30
0.0
 10
273.5293187499805
 20
-212.1345575000111
 30
0.0
 10
273.8633999999804
 20
-212.8531662500111
 30
0.0
 10
273.8633999999804
 20
-213.6910137500111
 30
0.0
  0
SPLINE
  5
2EF8
330
3075
100
AcDbEntity
  8
TEXT
 62
     5
420
      255
370
    25
100
AcDbSpline
210
0.0
220
0.0
230
1.0
 70
     8
 71
     3
 72
     8
 73
     4
 74
     0
 42
0.000000001
 43
0.001
 12
1.0
 22
0.0
 32
0.0
 13
1.0
 23
0.0
 33
0.0
 40
0.0
 40
0.0
 40
0.0
 40
0.0
 40
1.0
 40
1.0
 40
1.0
 40
1.0
 10
273.8633999999804
 20
-213.6910137500111
 30
0.0
 10
273.8633999999804
 20
-214.5288600000112
 30
0.0
 10
273.5293187499805
 20
-215.247821250011
 30
0.0
 10
272.5983387499805
 20
-215.247821250011
 30
0.0
  0
LWPOLYLINE
  5
2EFB
330
3075
100
AcDbEntity
  8
TEXT
 62
     5
420
      255
370
    25
100
AcDbPolyline
 90
        3
 70
     0
 43
0.0
 10
274.6476249999804
 20
-215.1800887500111
 10
274.5372049999803
 20
-215.1800887500111
 10
274.5372049999803
 20
-212.2012325000111
  0
LWPOLYLINE
  5
2F1C
330
3075
100
AcDbEntity
  8
TEXT
 62
     5
420
      255
370
    25
100
AcDbPolyline
 90
        2
 70
     0
 43
0.0
 10
268.9894212499804
 20
-213.7626275000111
 10
270.7744774999803
 20
-213.7665075000111
  0
SPLINE
  5
2F1E
330
3075
100
AcDbEntity
  8
TEXT
 62
     5
420
      255
370
    25
100
AcDbSpline
210
0.0
220
0.0
230
1.0
 70
     8
 71
     3
 72
     8
 73
     4
 74
     0
 42
0.000000001
 43
0.001
 12
1.0
 22
0.0
 32
0.0
 13
1.0
 23
0.0
 33
0.0
 40
0.0
 40
0.0
 40
0.0
 40
0.0
 40
1.0
 40
1.0
 40
1.0
 40
1.0
 10
269.1333549999804
 20
-215.2016075000111
 30
0.0
 10
268.6549887499804
 20
-215.2016075000111
 30
0.0
 10
268.3209074999804
 20
-214.9433750000111
 30
0.0
 10
268.3209074999804
 20
-214.4523075000111
 30
0.0
  0
SPLINE
  5
2F20
330
3075
100
AcDbEntity
  8
TEXT
 62
     5
420
      255
370
    25
100
AcDbSpline
210
0.0
220
0.0
230
1.0
 70
     8
 71
     3
 72
     8
 73
     4
 74
     0
 42
0.000000001
 43
0.001
 12
1.0
 22
0.0
 32
0.0
 13
1.0
 23
0.0
 33
0.0
 40
0.0
 40
0.0
 40
0.0
 40
0.0
 40
1.0
 40
1.0
 40
1.0
 40
1.0
 10
268.3209074999804
 20
-214.4523075000111
 30
0.0
 10
268.3209074999804
 20
-214.0970600000111
 30
0.0
 10
268.6338212499803
 20
-213.7583937500111
 30
0.0
 10
268.9894212499804
 20
-213.7672137500111
 30
0.0
  0
LWPOLYLINE
  5
2F22
330
3075
100
AcDbEntity
  8
TEXT
 62
     5
420
      255
370
    25
100
AcDbPolyline
 90
        2
 70
     0
 43
0.0
 10
270.7744774999803
 20
-215.2016075000111
 10
269.1333549999804
 20
-215.2016075000111
  0
SPLINE
  5
2F24
330
3075
100
AcDbEntity
  8
TEXT
 62
     5
420
      255
370
    25
100
AcDbSpline
210
0.0
220
0.0
230
1.0
 70
     8
 71
     3
 72
     8
 73
     4
 74
     0
 42
0.000000001
 43
0.001
 12
1.0
 22
0.0
 32
0.0
 13
1.0
 23
0.0
 33
0.0
 40
0.0
 40
0.0
 40
0.0
 40
0.0
 40
1.0
 40
1.0
 40
1.0
 40
1.0
 10
268.9894212499804
 20
-213.7587462500111
 30
0.0
 10
268.5957212499803
 20
-213.7414600000111
 30
0.0
 10
268.2277749999803
 20
-213.5308525000111
 30
0.0
 10
268.2277749999803
 20
-213.0020387500111
 30
0.0
  0
SPLINE
  5
2F26
330
3075
100
AcDbEntity
  8
TEXT
 62
     5
420
      255
370
    25
100
AcDbSpline
210
0.0
220
0.0
230
1.0
 70
     8
 71
     3
 72
     8
 73
     4
 74
     0
 42
0.000000001
 43
0.001
 12
1.0
 22
0.0
 32
0.0
 13
1.0
 23
0.0
 33
0.0
 40
0.0
 40
0.0
 40
0.0
 40
0.0
 40
1.0
 40
1.0
 40
1.0
 40
1.0
 10
268.2277749999803
 20
-213.0020387500111
 30
0.0
 10
268.2277749999803
 20
-212.6503187500111
 30
0.0
 10
268.4517887499803
 20
-212.1804187500111
 30
0.0
 10
269.2427162499804
 20
-212.1804187500111
 30
0.0
  0
LWPOLYLINE
  5
2F28
330
3075
100
AcDbEntity
  8
TEXT
 62
     5
420
      255
370
    25
100
AcDbPolyline
 90
        2
 70
     0
 43
0.0
 10
268.9894212499804
 20
-213.7672137500111
 10
268.9894212499804
 20
-213.7587462500111
  0
SPLINE
  5
2F2A
330
3075
100
AcDbEntity
  8
TEXT
 62
     5
420
      255
370
    25
100
AcDbSpline
210
0.0
220
0.0
230
1.0
 70
     8
 71
     3
 72
     8
 73
     4
 74
     0
 42
0.000000001
 43
0.001
 12
1.0
 22
0.0
 32
0.0
 13
1.0
 23
0.0
 33
0.0
 40
0.0
 40
0.0
 40
0.0
 40
0.0
 40
1.0
 40
1.0
 40
1.0
 40
1.0
 10
275.5874249999804
 20
-214.6177600000111
 30
0.0
 10
275.1298712499804
 20
-214.7317075000111
 30
0.0
 10
274.8250712499805
 20
-214.9730075000111
 30
0.0
 10
274.6476249999804
 20
-215.1800887500111
 30
0.0
  0
LWPOLYLINE
  5
2F2D
330
3075
100
AcDbEntity
  8
TEXT
 62
     5
420
      255
370
    25
100
AcDbPolyline
 90
        4
 70
     0
 43
0.0
 10
269.2427162499804
 20
-212.1804187500111
 10
270.7744774999803
 20
-212.1804187500111
 10
270.7744774999803
 20
-215.2016075000111
 10
270.7744774999803
 20
-215.2016075000111
  0
SPLINE
  5
2F30
330
3075
100
AcDbEntity
  8
TEXT
 62
     5
420
      255
370
    25
100
AcDbSpline
210
0.0
220
0.0
230
1.0
 70
     8
 71
     3
 72
     8
 73
     4
 74
     0
 42
0.000000001
 43
0.001
 12
1.0
 22
0.0
 32
0.0
 13
1.0
 23
0.0
 33
0.0
 40
0.0
 40
0.0
 40
0.0
 40
0.0
 40
1.0
 40
1.0
 40
1.0
 40
1.0
 10
272.5983387499805
 20
-215.247821250011
 30
0.0
 10
271.6673574999803
 20
-215.247821250011
 30
0.0
 10
271.3332774999803
 20
-214.5288600000112
 30
0.0
 10
271.3332774999803
 20
-213.6910137500111
 30
0.0
  0
LWPOLYLINE
  5
2F3D
330
3075
100
AcDbEntity
  8
TEXT
 62
     5
420
      255
370
    25
100
AcDbPolyline
 90
        2
 70
     0
 43
0.0
 10
202.0909651543212
 20
-212.6469773399185
 10
203.8760214043211
 20
-212.6508573399185
  0
SPLINE
  5
2F3F
330
3075
100
AcDbEntity
  8
TEXT
 62
     5
420
      255
370
    25
100
AcDbSpline
210
0.0
220
0.0
230
1.0
 70
     8
 71
     3
 72
     8
 73
     4
 74
     0
 42
0.000000001
 43
0.001
 12
1.0
 22
0.0
 32
0.0
 13
1.0
 23
0.0
 33
0.0
 40
0.0
 40
0.0
 40
0.0
 40
0.0
 40
1.0
 40
1.0
 40
1.0
 40
1.0
 10
202.2348989043212
 20
-214.0859573399184
 30
0.0
 10
201.7565326543212
 20
-214.0859573399184
 30
0.0
 10
201.4224514043212
 20
-213.8277248399185
 30
0.0
 10
201.4224514043212
 20
-213.3366573399185
 30
0.0
  0
SPLINE
  5
2F41
330
3075
100
AcDbEntity
  8
TEXT
 62
     5
420
      255
370
    25
100
AcDbSpline
210
0.0
220
0.0
230
1.0
 70
     8
 71
     3
 72
     8
 73
     4
 74
     0
 42
0.000000001
 43
0.001
 12
1.0
 22
0.0
 32
0.0
 13
1.0
 23
0.0
 33
0.0
 40
0.0
 40
0.0
 40
0.0
 40
0.0
 40
1.0
 40
1.0
 40
1.0
 40
1.0
 10
201.4224514043212
 20
-213.3366573399185
 30
0.0
 10
201.4224514043212
 20
-212.9814098399185
 30
0.0
 10
201.7353651543211
 20
-212.6427435899185
 30
0.0
 10
202.0909651543212
 20
-212.6515635899185
 30
0.0
  0
LWPOLYLINE
  5
2F43
330
3075
100
AcDbEntity
  8
TEXT
 62
     5
420
      255
370
    25
100
AcDbPolyline
 90
        2
 70
     0
 43
0.0
 10
203.8760214043211
 20
-214.0859573399184
 10
202.2348989043212
 20
-214.0859573399184
  0
SPLINE
  5
2F45
330
3075
100
AcDbEntity
  8
TEXT
 62
     5
420
      255
370
    25
100
AcDbSpline
210
0.0
220
0.0
230
1.0
 70
     8
 71
     3
 72
     8
 73
     4
 74
     0
 42
0.000000001
 43
0.001
 12
1.0
 22
0.0
 32
0.0
 13
1.0
 23
0.0
 33
0.0
 40
0.0
 40
0.0
 40
0.0
 40
0.0
 40
1.0
 40
1.0
 40
1.0
 40
1.0
 10
202.0909651543212
 20
-212.6430960899185
 30
0.0
 10
201.6972651543211
 20
-212.6258098399185
 30
0.0
 10
201.3293189043211
 20
-212.4152023399184
 30
0.0
 10
201.3293189043211
 20
-211.8863885899185
 30
0.0
  0
SPLINE
  5
2F47
330
3075
100
AcDbEntity
  8
TEXT
 62
     5
420
      255
370
    25
100
AcDbSpline
210
0.0
220
0.0
230
1.0
 70
     8
 71
     3
 72
     8
 73
     4
 74
     0
 42
0.000000001
 43
0.001
 12
1.0
 22
0.0
 32
0.0
 13
1.0
 23
0.0
 33
0.0
 40
0.0
 40
0.0
 40
0.0
 40
0.0
 40
1.0
 40
1.0
 40
1.0
 40
1.0
 10
201.3293189043211
 20
-211.8863885899185
 30
0.0
 10
201.3293189043211
 20
-211.5346685899185
 30
0.0
 10
201.5533326543211
 20
-211.0647685899185
 30
0.0
 10
202.3442601543212
 20
-211.0647685899185
 30
0.0
  0
LWPOLYLINE
  5
2F49
330
3075
100
AcDbEntity
  8
TEXT
 62
     5
420
      255
370
    25
100
AcDbPolyline
 90
        2
 70
     0
 43
0.0
 10
202.0909651543212
 20
-212.6515635899185
 10
202.0909651543212
 20
-212.6430960899185
  0
SPLINE
  5
2F4B
330
3075
100
AcDbEntity
  8
TEXT
 62
     5
420
      255
370
    25
100
AcDbSpline
210
0.0
220
0.0
230
1.0
 70
     8
 71
     3
 72
     8
 73
     4
 74
     0
 42
0.000000001
 43
0.001
 12
1.0
 22
0.0
 32
0.0
 13
1.0
 23
0.0
 33
0.0
 40
0.0
 40
0.0
 40
0.0
 40
0.0
 40
1.0
 40
1.0
 40
1.0
 40
1.0
 10
208.6889689043212
 20
-213.5021098399185
 30
0.0
 10
208.2314151543212
 20
-213.6160573399185
 30
0.0
 10
207.9266151543213
 20
-213.8573573399185
 30
0.0
 10
207.7491689043212
 20
-214.0644385899185
 30
0.0
  0
LWPOLYLINE
  5
2F4E
330
3075
100
AcDbEntity
  8
TEXT
 62
     5
420
      255
370
    25
100
AcDbPolyline
 90
        4
 70
     0
 43
0.0
 10
202.3442601543212
 20
-211.0647685899185
 10
203.8760214043211
 20
-211.0647685899185
 10
203.8760214043211
 20
-214.0859573399184
 10
203.8760214043211
 20
-214.0859573399184
  0
SPLINE
  5
2F51
330
3075
100
AcDbEntity
  8
TEXT
 62
     5
420
      255
370
    25
100
AcDbSpline
210
0.0
220
0.0
230
1.0
 70
     8
 71
     3
 72
     8
 73
     4
 74
     0
 42
0.000000001
 43
0.001
 12
1.0
 22
0.0
 32
0.0
 13
1.0
 23
0.0
 33
0.0
 40
0.0
 40
0.0
 40
0.0
 40
0.0
 40
1.0
 40
1.0
 40
1.0
 40
1.0
 10
205.6998826543213
 20
-214.1321710899184
 30
0.0
 10
204.7689014043211
 20
-214.1321710899184
 30
0.0
 10
204.4348214043212
 20
-213.4132098399185
 30
0.0
 10
204.4348214043212
 20
-212.5753635899184
 30
0.0
  0
SPLINE
  5
2F53
330
3075
100
AcDbEntity
  8
TEXT
 62
     5
420
      255
370
    25
100
AcDbSpline
210
0.0
220
0.0
230
1.0
 70
     8
 71
     3
 72
     8
 73
     4
 74
     0
 42
0.000000001
 43
0.001
 12
1.0
 22
0.0
 32
0.0
 13
1.0
 23
0.0
 33
0.0
 40
0.0
 40
0.0
 40
0.0
 40
0.0
 40
1.0
 40
1.0
 40
1.0
 40
1.0
 10
204.4348214043212
 20
-212.5753635899184
 30
0.0
 10
204.4348214043212
 20
-211.7375160899185
 30
0.0
 10
204.7689014043211
 20
-211.0189073399184
 30
0.0
 10
205.6998826543213
 20
-211.0189073399184
 30
0.0
  0
SPLINE
  5
2F56
330
3075
100
AcDbEntity
  8
TEXT
 62
     5
420
      255
370
    25
100
AcDbSpline
210
0.0
220
0.0
230
1.0
 70
     8
 71
     3
 72
     8
 73
     4
 74
     0
 42
0.000000001
 43
0.001
 12
1.0
 22
0.0
 32
0.0
 13
1.0
 23
0.0
 33
0.0
 40
0.0
 40
0.0
 40
0.0
 40
0.0
 40
1.0
 40
1.0
 40
1.0
 40
1.0
 10
205.6998826543213
 20
-211.0189073399184
 30
0.0
 10
206.6308626543213
 20
-211.0189073399184
 30
0.0
 10
206.9649439043212
 20
-211.7375160899185
 30
0.0
 10
206.9649439043212
 20
-212.5753635899184
 30
0.0
  0
SPLINE
  5
2F59
330
3075
100
AcDbEntity
  8
TEXT
 62
     5
420
      255
370
    25
100
AcDbSpline
210
0.0
220
0.0
230
1.0
 70
     8
 71
     3
 72
     8
 73
     4
 74
     0
 42
0.000000001
 43
0.001
 12
1.0
 22
0.0
 32
0.0
 13
1.0
 23
0.0
 33
0.0
 40
0.0
 40
0.0
 40
0.0
 40
0.0
 40
1.0
 40
1.0
 40
1.0
 40
1.0
 10
206.9649439043212
 20
-212.5753635899184
 30
0.0
 10
206.9649439043212
 20
-213.4132098399185
 30
0.0
 10
206.6308626543213
 20
-214.1321710899184
 30
0.0
 10
205.6998826543213
 20
-214.1321710899184
 30
0.0
  0
LWPOLYLINE
  5
2F5C
330
3075
100
AcDbEntity
  8
TEXT
 62
     5
420
      255
370
    25
100
AcDbPolyline
 90
        3
 70
     0
 43
0.0
 10
207.7491689043212
 20
-214.0644385899185
 10
207.6387489043211
 20
-214.0644385899185
 10
207.6387489043211
 20
-211.0855823399185
  0
LWPOLYLINE
  5
2F81
330
3075
100
AcDbEntity
  8
TEXT
 62
     5
420
      255
370
    25
100
AcDbPolyline
 90
        2
 70
     0
 43
0.0
 10
132.5975237962963
 20
-213.4322139654467
 10
134.3825800462963
 20
-213.4360939654467
  0
SPLINE
  5
2F83
330
3075
100
AcDbEntity
  8
TEXT
 62
     5
420
      255
370
    25
100
AcDbSpline
210
0.0
220
0.0
230
1.0
 70
     8
 71
     3
 72
     8
 73
     4
 74
     0
 42
0.000000001
 43
0.001
 12
1.0
 22
0.0
 32
0.0
 13
1.0
 23
0.0
 33
0.0
 40
0.0
 40
0.0
 40
0.0
 40
0.0
 40
1.0
 40
1.0
 40
1.0
 40
1.0
 10
132.7414575462963
 20
-214.8711939654466
 30
0.0
 10
132.2630912962963
 20
-214.8711939654466
 30
0.0
 10
131.9290100462964
 20
-214.6129614654467
 30
0.0
 10
131.9290100462964
 20
-214.1218939654467
 30
0.0
  0
SPLINE
  5
2F85
330
3075
100
AcDbEntity
  8
TEXT
 62
     5
420
      255
370
    25
100
AcDbSpline
210
0.0
220
0.0
230
1.0
 70
     8
 71
     3
 72
     8
 73
     4
 74
     0
 42
0.000000001
 43
0.001
 12
1.0
 22
0.0
 32
0.0
 13
1.0
 23
0.0
 33
0.0
 40
0.0
 40
0.0
 40
0.0
 40
0.0
 40
1.0
 40
1.0
 40
1.0
 40
1.0
 10
131.9290100462964
 20
-214.1218939654467
 30
0.0
 10
131.9290100462964
 20
-213.7666464654467
 30
0.0
 10
132.2419237962962
 20
-213.4279802154467
 30
0.0
 10
132.5975237962963
 20
-213.4368002154467
 30
0.0
  0
LWPOLYLINE
  5
2F87
330
3075
100
AcDbEntity
  8
TEXT
 62
     5
420
      255
370
    25
100
AcDbPolyline
 90
        2
 70
     0
 43
0.0
 10
134.3825800462963
 20
-214.8711939654466
 10
132.7414575462963
 20
-214.8711939654466
  0
SPLINE
  5
2F89
330
3075
100
AcDbEntity
  8
TEXT
 62
     5
420
      255
370
    25
100
AcDbSpline
210
0.0
220
0.0
230
1.0
 70
     8
 71
     3
 72
     8
 73
     4
 74
     0
 42
0.000000001
 43
0.001
 12
1.0
 22
0.0
 32
0.0
 13
1.0
 23
0.0
 33
0.0
 40
0.0
 40
0.0
 40
0.0
 40
0.0
 40
1.0
 40
1.0
 40
1.0
 40
1.0
 10
132.5975237962963
 20
-213.4283327154467
 30
0.0
 10
132.2038237962963
 20
-213.4110464654467
 30
0.0
 10
131.8358775462962
 20
-213.2004389654466
 30
0.0
 10
131.8358775462962
 20
-212.6716252154467
 30
0.0
  0
SPLINE
  5
2F8B
330
3075
100
AcDbEntity
  8
TEXT
 62
     5
420
      255
370
    25
100
AcDbSpline
210
0.0
220
0.0
230
1.0
 70
     8
 71
     3
 72
     8
 73
     4
 74
     0
 42
0.000000001
 43
0.001
 12
1.0
 22
0.0
 32
0.0
 13
1.0
 23
0.0
 33
0.0
 40
0.0
 40
0.0
 40
0.0
 40
0.0
 40
1.0
 40
1.0
 40
1.0
 40
1.0
 10
131.8358775462962
 20
-212.6716252154467
 30
0.0
 10
131.8358775462962
 20
-212.3199052154467
 30
0.0
 10
132.0598912962963
 20
-211.8500052154467
 30
0.0
 10
132.8508187962963
 20
-211.8500052154467
 30
0.0
  0
LWPOLYLINE
  5
2F8D
330
3075
100
AcDbEntity
  8
TEXT
 62
     5
420
      255
370
    25
100
AcDbPolyline
 90
        2
 70
     0
 43
0.0
 10
132.5975237962963
 20
-213.4368002154467
 10
132.5975237962963
 20
-213.4283327154467
  0
SPLINE
  5
2F8F
330
3075
100
AcDbEntity
  8
TEXT
 62
     5
420
      255
370
    25
100
AcDbSpline
210
0.0
220
0.0
230
1.0
 70
     8
 71
     3
 72
     8
 73
     4
 74
     0
 42
0.000000001
 43
0.001
 12
1.0
 22
0.0
 32
0.0
 13
1.0
 23
0.0
 33
0.0
 40
0.0
 40
0.0
 40
0.0
 40
0.0
 40
1.0
 40
1.0
 40
1.0
 40
1.0
 10
139.1955275462963
 20
-214.2873464654467
 30
0.0
 10
138.7379737962963
 20
-214.4012939654467
 30
0.0
 10
138.4331737962964
 20
-214.6425939654467
 30
0.0
 10
138.2557275462963
 20
-214.8496752154467
 30
0.0
  0
LWPOLYLINE
  5
2F92
330
3075
100
AcDbEntity
  8
TEXT
 62
     5
420
      255
370
    25
100
AcDbPolyline
 90
        4
 70
     0
 43
0.0
 10
132.8508187962963
 20
-211.8500052154467
 10
134.3825800462963
 20
-211.8500052154467
 10
134.3825800462963
 20
-214.8711939654466
 10
134.3825800462963
 20
-214.8711939654466
  0
SPLINE
  5
2F95
330
3075
100
AcDbEntity
  8
TEXT
 62
     5
420
      255
370
    25
100
AcDbSpline
210
0.0
220
0.0
230
1.0
 70
     8
 71
     3
 72
     8
 73
     4
 74
     0
 42
0.000000001
 43
0.001
 12
1.0
 22
0.0
 32
0.0
 13
1.0
 23
0.0
 33
0.0
 40
0.0
 40
0.0
 40
0.0
 40
0.0
 40
1.0
 40
1.0
 40
1.0
 40
1.0
 10
136.2064412962964
 20
-214.9174077154466
 30
0.0
 10
135.2754600462962
 20
-214.9174077154466
 30
0.0
 10
134.9413800462963
 20
-214.1984464654467
 30
0.0
 10
134.9413800462963
 20
-213.3606002154466
 30
0.0
  0
SPLINE
  5
2F97
330
3075
100
AcDbEntity
  8
TEXT
 62
     5
420
      255
370
    25
100
AcDbSpline
210
0.0
220
0.0
230
1.0
 70
     8
 71
     3
 72
     8
 73
     4
 74
     0
 42
0.000000001
 43
0.001
 12
1.0
 22
0.0
 32
0.0
 13
1.0
 23
0.0
 33
0.0
 40
0.0
 40
0.0
 40
0.0
 40
0.0
 40
1.0
 40
1.0
 40
1.0
 40
1.0
 10
134.9413800462963
 20
-213.3606002154466
 30
0.0
 10
134.9413800462963
 20
-212.5227527154467
 30
0.0
 10
135.2754600462962
 20
-211.8041439654466
 30
0.0
 10
136.2064412962964
 20
-211.8041439654466
 30
0.0
  0
SPLINE
  5
2F9A
330
3075
100
AcDbEntity
  8
TEXT
 62
     5
420
      255
370
    25
100
AcDbSpline
210
0.0
220
0.0
230
1.0
 70
     8
 71
     3
 72
     8
 73
     4
 74
     0
 42
0.000000001
 43
0.001
 12
1.0
 22
0.0
 32
0.0
 13
1.0
 23
0.0
 33
0.0
 40
0.0
 40
0.0
 40
0.0
 40
0.0
 40
1.0
 40
1.0
 40
1.0
 40
1.0
 10
136.2064412962964
 20
-211.8041439654466
 30
0.0
 10
137.1374212962964
 20
-211.8041439654466
 30
0.0
 10
137.4715025462963
 20
-212.5227527154467
 30
0.0
 10
137.4715025462963
 20
-213.3606002154466
 30
0.0
  0
SPLINE
  5
2F9D
330
3075
100
AcDbEntity
  8
TEXT
 62
     5
420
      255
370
    25
100
AcDbSpline
210
0.0
220
0.0
230
1.0
 70
     8
 71
     3
 72
     8
 73
     4
 74
     0
 42
0.000000001
 43
0.001
 12
1.0
 22
0.0
 32
0.0
 13
1.0
 23
0.0
 33
0.0
 40
0.0
 40
0.0
 40
0.0
 40
0.0
 40
1.0
 40
1.0
 40
1.0
 40
1.0
 10
137.4715025462963
 20
-213.3606002154466
 30
0.0
 10
137.4715025462963
 20
-214.1984464654467
 30
0.0
 10
137.1374212962964
 20
-214.9174077154466
 30
0.0
 10
136.2064412962964
 20
-214.9174077154466
 30
0.0
  0
LWPOLYLINE
  5
2FA0
330
3075
100
AcDbEntity
  8
TEXT
 62
     5
420
      255
370
    25
100
AcDbPolyline
 90
        3
 70
     0
 43
0.0
 10
138.2557275462963
 20
-214.8496752154467
 10
138.1453075462962
 20
-214.8496752154467
 10
138.1453075462962
 20
-211.8708189654467
  0
LWPOLYLINE
  5
2FE1
330
3075
100
AcDbEntity
  8
TEXT
 62
     5
420
      255
370
    25
100
AcDbPolyline
 90
        2
 70
     0
 43
0.0
 10
9.4824637192899
 20
-176.7314821104984
 10
11.7381249692899
 20
-176.7314821104984
  0
LWPOLYLINE
  5
2FE2
330
3075
100
AcDbEntity
  8
TEXT
 62
     5
420
      255
370
    25
100
AcDbPolyline
 90
        4
 70
     0
 43
0.0
 10
11.86053871928987
 20
-178.3475571104984
 10
9.4824637192899
 20
-178.3475571104983
 10
9.4824637192899
 20
-175.3267208604982
 10
11.83549121928984
 20
-175.3267208604983
  0
LWPOLYLINE
  5
2FF3
330
3075
100
AcDbEntity
  8
TEXT
 62
     5
420
      255
370
    25
100
AcDbPolyline
 90
        2
 70
     0
 43
0.0
 10
27.12823058478212
 20
-177.282912325045
 10
29.38389183478212
 20
-177.282912325045
  0
LWPOLYLINE
  5
2FF4
330
3075
100
AcDbEntity
  8
TEXT
 62
     5
420
      255
370
    25
100
AcDbPolyline
 90
        4
 70
     0
 43
0.0
 10
29.50630558478209
 20
-178.898987325045
 10
27.12823058478212
 20
-178.8989873250449
 10
27.12823058478212
 20
-175.8781510750448
 10
29.48125808478206
 20
-175.8781510750449
  0
LWPOLYLINE
  5
2FFA
330
3075
100
AcDbEntity
  8
TEXT
 62
     5
420
      255
370
    25
100
AcDbPolyline
 90
        2
 70
     0
 43
0.0
 10
38.9551055847822
 20
-180.982493575045
 10
41.21076683478221
 20
-180.982493575045
  0
LWPOLYLINE
  5
2FFB
330
3075
100
AcDbEntity
  8
TEXT
 62
     5
420
      255
370
    25
100
AcDbPolyline
 90
        4
 70
     0
 43
0.0
 10
41.33318058478217
 20
-182.598568575045
 10
38.9551055847822
 20
-182.5985685750449
 10
38.9551055847822
 20
-179.5777323250448
 10
41.30813308478214
 20
-179.5777323250449
  0
LWPOLYLINE
  5
300C
330
3075
100
AcDbEntity
  8
TEXT
 62
     5
420
      255
370
    25
100
AcDbPolyline
 90
        2
 70
     0
 43
0.0
 10
50.78198058478229
 20
-177.9824710750439
 10
53.03764183478229
 20
-177.9824710750439
  0
LWPOLYLINE
  5
300D
330
3075
100
AcDbEntity
  8
TEXT
 62
     5
420
      255
370
    25
100
AcDbPolyline
 90
        4
 70
     0
 43
0.0
 10
53.16005558478226
 20
-179.5985460750439
 10
50.78198058478229
 20
-179.5985460750439
 10
50.78198058478229
 20
-176.5777098250437
 10
53.13500808478223
 20
-176.5777098250439
  0
LWPOLYLINE
  5
3024
330
3075
100
AcDbEntity
  8
TEXT
 62
     5
420
      255
370
    25
100
AcDbPolyline
 90
        2
 70
     0
 43
0.0
 10
62.60885558478238
 20
-181.6820523250429
 10
64.86451683478238
 20
-181.6820523250429
  0
LWPOLYLINE
  5
3025
330
3075
100
AcDbEntity
  8
TEXT
 62
     5
420
      255
370
    25
100
AcDbPolyline
 90
        4
 70
     0
 43
0.0
 10
64.98693058478234
 20
-183.2981273250429
 10
62.60885558478238
 20
-183.2981273250429
 10
62.60885558478238
 20
-180.2772910750427
 10
64.96188308478231
 20
-180.2772910750429
  0
LWPOLYLINE
  5
3036
330
3075
100
AcDbEntity
  8
TEXT
 62
     5
420
      255
370
    25
100
AcDbPolyline
 90
        2
 70
     0
 43
0.0
 10
74.43573058478248
 20
-178.6820298250419
 10
76.69139183478248
 20
-178.6820298250419
  0
LWPOLYLINE
  5
3037
330
3075
100
AcDbEntity
  8
TEXT
 62
     5
420
      255
370
    25
100
AcDbPolyline
 90
        4
 70
     0
 43
0.0
 10
76.81380558478244
 20
-180.2981048250419
 10
74.43573058478248
 20
-180.2981048250418
 10
74.43573058478248
 20
-177.2772685750417
 10
76.78875808478242
 20
-177.2772685750418
  0
LWPOLYLINE
  5
304D
330
3075
100
AcDbEntity
  8
TEXT
 62
     5
420
      255
370
    25
100
AcDbPolyline
 90
        2
 70
     0
 43
0.0
 10
86.26260558478253
 20
-182.3816110750427
 10
88.51826683478254
 20
-182.3816110750427
  0
LWPOLYLINE
  5
304E
330
3075
100
AcDbEntity
  8
TEXT
 62
     5
420
      255
370
    25
100
AcDbPolyline
 90
        4
 70
     0
 43
0.0
 10
88.6406805847825
 20
-183.9976860750427
 10
86.26260558478253
 20
-183.9976860750426
 10
86.26260558478253
 20
-180.9768498250425
 10
88.61563308478247
 20
-180.9768498250426
  0
LINE
  5
3053
330
3075
100
AcDbEntity
  8
laser bed referance
100
AcDbLine
 10
0.0
 20
0.0
 30
0.0
 11
609.6
 21
0.0
 31
0.0
  0
LINE
  5
3054
330
3075
100
AcDbEntity
  8
laser bed referance
100
AcDbLine
 10
0.0
 20
-304.8
 30
0.0
 11
0.0
 21
0.0
 31
0.0
  0
LINE
  5
3055
330
3075
100
AcDbEntity
  8
laser bed referance
100
AcDbLine
 10
609.6
 20
-304.8
 30
0.0
 11
609.6
 21
0.0
 31
0.0
  0
LINE
  5
3056
330
3075
100
AcDbEntity
  8
laser bed referance
100
AcDbLine
 10
0.0
 20
-304.8
 30
0.0
 11
609.6
 21
-304.8
 31
0.0
  0
ENDSEC
  0
SECTION
  2
OBJECTS
  0
DICTIONARY
  5
3063
330
0
100
AcDbDictionary
281
     1
  3
ACAD_GROUP
350
3064
  3
ACAD_LAYOUT
350
3070
  3
ACAD_MATERIAL
350
3091
  3
ACAD_MLEADERSTYLE
350
30C0
  3
ACAD_MLINESTYLE
350
306D
  3
ACAD_PLOTSETTINGS
350
306F
  3
ACAD_PLOTSTYLENAME
350
3065
  3
ACAD_TABLESTYLE
350
30BF
  3
ACAD_VISUALSTYLE
350
3080
  3
QCAD_OBJECTS
350
3096
  0
DICTIONARY
  5
3064
102
{ACAD_REACTORS
330
3063
102
}
330
3063
100
AcDbDictionary
281
     1
  0
DICTIONARY
  5
3070
102
{ACAD_REACTORS
330
3063
102
}
330
3063
100
AcDbDictionary
281
     1
  3
Layout1
350
3074
  3
Layout2
350
307C
  3
Model
350
3078
  0
DICTIONARY
  5
3091
102
{ACAD_REACTORS
330
3063
102
}
330
3063
100
AcDbDictionary
281
     1
  3
ByBlock
350
3093
  3
ByLayer
350
3092
  3
Global
350
3094
  0
DICTIONARY
  5
30C0
102
{ACAD_REACTORS
330
3063
102
}
330
3063
100
AcDbDictionary
281
     1
  0
DICTIONARY
  5
306D
102
{ACAD_REACTORS
330
3063
102
}
330
3063
100
AcDbDictionary
281
     1
  3
Standard
350
306E
  0
DICTIONARY
  5
306F
102
{ACAD_REACTORS
330
3063
102
}
330
3063
100
AcDbDictionary
281
     1
  0
ACDBDICTIONARYWDFLT
  5
3065
102
{ACAD_REACTORS
330
3063
102
}
330
3063
100
AcDbDictionary
281
     1
  3
Normal
350
3066
100
AcDbDictionaryWithDefault
340
3066
  0
DICTIONARY
  5
30BF
102
{ACAD_REACTORS
330
3063
102
}
330
3063
100
AcDbDictionary
281
     1
  0
DICTIONARY
  5
3080
102
{ACAD_REACTORS
330
3063
102
}
330
3063
100
AcDbDictionary
281
     1
  3
2dWireframe
350
3085
  3
3D Hidden
350
3087
  3
3dWireframe
350
3086
  3
Basic
350
3088
  3
Brighten
350
308C
  3
ColorChange
350
3090
  3
Conceptual
350
308A
  3
Dim
350
308B
  3
Facepattern
350
308F
  3
Flat
350
3081
  3
FlatWithEdges
350
3082
  3
Gouraud
350
3083
  3
GouraudWithEdges
350
3084
  3
Linepattern
350
308E
  3
Realistic
350
3089
  3
Thicken
350
308D
  0
DICTIONARY
  5
3096
102
{ACAD_REACTORS
330
3063
102
}
330
3063
100
AcDbDictionary
281
     1
  3
Grid/DisplayGrid
350
30A5
  3
Grid/GridSpacingX
350
309E
  3
Grid/GridSpacingY
350
30A0
  3
MultiPageSettings/Columns
350
309D
  3
MultiPageSettings/GlueMarginBottom
350
309A
  3
MultiPageSettings/GlueMarginsLeft
350
30A1
  3
MultiPageSettings/GlueMarginsRight
350
3097
  3
MultiPageSettings/GlueMarginsTop
350
30A9
  3
MultiPageSettings/PrintCropMarks
350
3099
  3
MultiPageSettings/Rows
350
30A2
  3
PageSettings/OffsetX
350
30A7
  3
PageSettings/OffsetY
350
30A8
  3
PageSettings/PageOrientation
350
3098
  3
PageSettings/PaperHeight
350
309C
  3
PageSettings/PaperWidth
350
30A3
  3
PageSettings/Scale
350
309B
  3
PageSettings/ShowBoundingBox
350
309F
  3
PageSettings/ShowPageBorders
350
30A6
  3
UnitSettings/PaperUnit
350
30A4
  0
LAYOUT
  5
3074
102
{ACAD_REACTORS
330
3070
102
}
330
3070
100
AcDbPlotSettings
  1

  2
none_device
  4

  6

 40
0.0
 41
0.0
 42
0.0
 43
0.0
 44
0.0
 45
0.0
 46
0.0
 47
0.0
 48
0.0
 49
0.0
140
0.0
141
0.0
142
1.0
143
1.0
 70
   688
 72
     0
 73
     0
 74
     5
  7

 75
    16
 76
     0
 77
     2
 78
   300
147
1.0
148
0.0
149
0.0
100
AcDbLayout
  1
Layout1
 70
     1
 71
     1
 10
0.0
 20
0.0
 11
12.0
 21
9.0
 12
0.0
 22
0.0
 32
0.0
 14
1.000000000000000E+20
 24
1.000000000000000E+20
 34
1.000000000000000E+20
 15
-1.000000000000000E+20
 25
-1.000000000000000E+20
 35
-1.000000000000000E+20
146
0.0
 13
0.0
 23
0.0
 33
0.0
 16
1.0
 26
0.0
 36
0.0
 17
0.0
 27
1.0
 37
0.0
 76
     0
330
3071
  0
LAYOUT
  5
307C
102
{ACAD_REACTORS
330
3070
102
}
330
3070
100
AcDbPlotSettings
  1

  2
none_device
  4

  6

 40
0.0
 41
0.0
 42
0.0
 43
0.0
 44
0.0
 45
0.0
 46
0.0
 47
0.0
 48
0.0
 49
0.0
140
0.0
141
0.0
142
1.0
143
1.0
 70
   688
 72
     0
 73
     0
 74
     5
  7

 75
    16
 76
     0
 77
     2
 78
   300
147
1.0
148
0.0
149
0.0
100
AcDbLayout
  1
Layout2
 70
     1
 71
     2
 10
0.0
 20
0.0
 11
0.0
 21
0.0
 12
0.0
 22
0.0
 32
0.0
 14
0.0
 24
0.0
 34
0.0
 15
0.0
 25
0.0
 35
0.0
146
0.0
 13
0.0
 23
0.0
 33
0.0
 16
1.0
 26
0.0
 36
0.0
 17
0.0
 27
1.0
 37
0.0
 76
     0
330
3079
  0
LAYOUT
  5
3078
102
{ACAD_REACTORS
330
3070
102
}
330
3070
100
AcDbPlotSettings
  1

  2
none_device
  4

  6

 40
0.0
 41
0.0
 42
0.0
 43
0.0
 44
0.0
 45
0.0
 46
0.0
 47
0.0
 48
0.0
 49
0.0
140
0.0
141
0.0
142
1.0
143
1.0
 70
  1712
 72
     0
 73
     0
 74
     0
  7

 75
     0
 76
     0
 77
     2
 78
   300
147
1.0
148
0.0
149
0.0
100
AcDbLayout
  1
Model
 70
     1
 71
     0
 10
0.0
 20
0.0
 11
12.0
 21
9.0
 12
0.0
 22
0.0
 32
0.0
 14
1.000000000000000E+20
 24
1.000000000000000E+20
 34
1.000000000000000E+20
 15
-1.000000000000000E+20
 25
-1.000000000000000E+20
 35
-1.000000000000000E+20
146
0.0
 13
0.0
 23
0.0
 33
0.0
 16
1.0
 26
0.0
 36
0.0
 17
0.0
 27
1.0
 37
0.0
 76
     0
330
3075
331
307F
  0
MATERIAL
  5
3093
102
{ACAD_REACTORS
330
3091
102
}
330
3091
100
AcDbMaterial
  1
ByBlock
 72
     1
 94
      127
  0
MATERIAL
  5
3092
102
{ACAD_REACTORS
330
3091
102
}
330
3091
100
AcDbMaterial
  1
ByLayer
 72
     1
 94
      127
  0
MATERIAL
  5
3094
102
{ACAD_REACTORS
330
3091
102
}
330
3091
100
AcDbMaterial
  1
Global
 72
     1
 94
      127
  0
MLINESTYLE
  5
306E
102
{ACAD_REACTORS
330
306D
102
}
330
306D
100
AcDbMlineStyle
  2
Standard
 70
     0
  3

 62
   256
 51
90.0
 52
90.0
 71
     2
 49
0.5
 62
   256
  6
BYLAYER
 49
-0.5
 62
   256
  6
BYLAYER
  0
ACDBPLACEHOLDER
  5
3066
102
{ACAD_REACTORS
330
3065
102
}
330
3065
  0
VISUALSTYLE
  5
3085
102
{ACAD_REACTORS
330
3080
102
}
330
3080
100
AcDbVisualStyle
  2
2dWireframe
 70
     4
177
     2
291
     0
 71
     0
176
     1
 72
     2
176
     1
 73
     0
176
     1
 90
        0
176
     1
 40
-0.6
176
     1
 41
-30.0
176
     1
 62
     5
 63
     7
421
 16777215
176
     1
 74
     1
176
     1
 91
        4
176
     1
 64
     7
176
     1
 65
   257
176
     1
 75
     1
176
     1
175
     1
176
     1
 42
1.0
176
     1
 92
        0
176
     1
 66
   257
176
     1
 43
1.0
176
     1
 76
     1
176
     1
 77
     6
176
     1
 78
     2
176
     1
 67
     7
176
     1
 79
     5
176
     1
170
     0
176
     1
171
     0
176
     1
290
     0
176
     1
 93
        1
176
     1
 44
0.0
176
     1
173
     0
176
     1
  0
VISUALSTYLE
  5
3087
102
{ACAD_REACTORS
330
3080
102
}
330
3080
100
AcDbVisualStyle
  2
3D Hidden
 70
     6
177
     2
291
     0
 71
     1
176
     1
 72
     2
176
     1
 73
     2
176
     1
 90
        0
176
     1
 40
-0.6
176
     1
 41
-30.0
176
     1
 62
     5
 63
     7
421
 16777215
176
     1
 74
     2
176
     1
 91
        2
176
     1
 64
     7
176
     1
 65
   257
176
     1
 75
     2
176
     1
175
     1
176
     1
 42
40.0
176
     1
 92
        0
176
     1
 66
   257
176
     1
 43
1.0
176
     1
 76
     1
176
     1
 77
     6
176
     1
 78
     2
176
     1
 67
     7
176
     1
 79
     3
176
     1
170
     0
176
     1
171
     0
176
     1
290
     0
176
     1
 93
        1
176
     1
 44
0.0
176
     1
173
     0
176
     1
  0
VISUALSTYLE
  5
3086
102
{ACAD_REACTORS
330
3080
102
}
330
3080
100
AcDbVisualStyle
  2
3dWireframe
 70
     5
177
     2
291
     0
 71
     0
176
     1
 72
     2
176
     1
 73
     0
176
     1
 90
        0
176
     1
 40
-0.6
176
     1
 41
-30.0
176
     1
 62
     5
 63
     7
421
 16777215
176
     1
 74
     1
176
     1
 91
        4
176
     1
 64
     7
176
     1
 65
   257
176
     1
 75
     1
176
     1
175
     1
176
     1
 42
1.0
176
     1
 92
        0
176
     1
 66
   257
176
     1
 43
1.0
176
     1
 76
     1
176
     1
 77
     6
176
     1
 78
     2
176
     1
 67
     7
176
     1
 79
     5
176
     1
170
     0
176
     1
171
     0
176
     1
290
     0
176
     1
 93
        1
176
     1
 44
0.0
176
     1
173
     0
176
     1
  0
VISUALSTYLE
  5
3088
102
{ACAD_REACTORS
330
3080
102
}
330
3080
100
AcDbVisualStyle
  2
Basic
 70
     7
177
     2
291
     1
 71
     1
176
     1
 72
     0
176
     1
 73
     1
176
     1
 90
        0
176
     1
 40
-0.6
176
     1
 41
-30.0
176
     1
 62
     5
 63
     7
421
 16777215
176
     1
 74
     0
176
     1
 91
        4
176
     1
 64
     7
176
     1
 65
   257
176
     1
 75
     1
176
     1
175
     1
176
     1
 42
1.0
176
     1
 92
        8
176
     1
 66
     7
176
     1
 43
1.0
176
     1
 76
     1
176
     1
 77
     6
176
     1
 78
     2
176
     1
 67
     7
176
     1
 79
     5
176
     1
170
     0
176
     1
171
     0
176
     1
290
     0
176
     1
 93
        1
176
     1
 44
0.0
176
     1
173
     0
176
     1
  0
VISUALSTYLE
  5
308C
102
{ACAD_REACTORS
330
3080
102
}
330
3080
100
AcDbVisualStyle
  2
Brighten
 70
    12
177
     2
291
     1
 71
     2
176
     1
 72
     2
176
     1
 73
     0
176
     1
 90
        0
176
     1
 40
-0.6
176
     1
 41
-30.0
176
     1
 62
     5
 63
     7
421
 16777215
176
     1
 74
     1
176
     1
 91
        4
176
     1
 64
     7
176
     1
 65
   257
176
     1
 75
     1
176
     1
175
     1
176
     1
 42
1.0
176
     1
 92
        8
176
     1
 66
     7
176
     1
 43
1.0
176
     1
 76
     1
176
     1
 77
     6
176
     1
 78
     2
176
     1
 67
     7
176
     1
 79
     5
176
     1
170
     0
176
     1
171
     0
176
     1
290
     0
176
     1
 93
        1
176
     1
 44
50.0
176
     1
173
     0
176
     1
  0
VISUALSTYLE
  5
3090
102
{ACAD_REACTORS
330
3080
102
}
330
3080
100
AcDbVisualStyle
  2
ColorChange
 70
    16
177
     2
291
     1
 71
     2
176
     1
 72
     2
176
     1
 73
     3
176
     1
 90
        0
176
     1
 40
-0.6
176
     1
 41
-30.0
176
     1
 62
     5
 63
     8
421
  8421504
176
     1
 74
     1
176
     1
 91
        4
176
     1
 64
     7
176
     1
 65
   257
176
     1
 75
     1
176
     1
175
     1
176
     1
 42
1.0
176
     1
 92
        8
176
     1
 66
     8
424
  8421504
176
     1
 43
1.0
176
     1
 76
     1
176
     1
 77
     6
176
     1
 78
     2
176
     1
 67
     7
176
     1
 79
     5
176
     1
170
     0
176
     1
171
     0
176
     1
290
     0
176
     1
 93
        1
176
     1
 44
0.0
176
     1
173
     0
176
     1
  0
VISUALSTYLE
  5
308A
102
{ACAD_REACTORS
330
3080
102
}
330
3080
100
AcDbVisualStyle
  2
Conceptual
 70
     9
177
     2
291
     0
 71
     3
176
     1
 72
     2
176
     1
 73
     0
176
     1
 90
        0
176
     1
 40
-0.6
176
     1
 41
-30.0
176
     1
 62
     5
 63
     7
421
 16777215
176
     1
 74
     2
176
     1
 91
        2
176
     1
 64
     7
176
     1
 65
   257
176
     1
 75
     1
176
     1
175
     1
176
     1
 42
40.0
176
     1
 92
        8
176
     1
 66
     7
176
     1
 43
1.0
176
     1
 76
     1
176
     1
 77
     6
176
     1
 78
     2
176
     1
 67
     7
176
     1
 79
     3
176
     1
170
     0
176
     1
171
     0
176
     1
290
     0
176
     1
 93
        1
176
     1
 44
0.0
176
     1
173
     0
176
     1
  0
VISUALSTYLE
  5
308B
102
{ACAD_REACTORS
330
3080
102
}
330
3080
100
AcDbVisualStyle
  2
Dim
 70
    11
177
     2
291
     1
 71
     2
176
     1
 72
     2
176
     1
 73
     0
176
     1
 90
        0
176
     1
 40
-0.6
176
     1
 41
-30.0
176
     1
 62
     5
 63
     7
421
 16777215
176
     1
 74
     1
176
     1
 91
        4
176
     1
 64
     7
176
     1
 65
   257
176
     1
 75
     1
176
     1
175
     1
176
     1
 42
1.0
176
     1
 92
        8
176
     1
 66
     7
176
     1
 43
1.0
176
     1
 76
     1
176
     1
 77
     6
176
     1
 78
     2
176
     1
 67
     7
176
     1
 79
     5
176
     1
170
     0
176
     1
171
     0
176
     1
290
     0
176
     1
 93
        1
176
     1
 44
-50.0
176
     1
173
     0
176
     1
  0
VISUALSTYLE
  5
308F
102
{ACAD_REACTORS
330
3080
102
}
330
3080
100
AcDbVisualStyle
  2
Facepattern
 70
    15
177
     2
291
     1
 71
     2
176
     1
 72
     2
176
     1
 73
     0
176
     1
 90
        0
176
     1
 40
-0.6
176
     1
 41
-30.0
176
     1
 62
     5
 63
     7
421
 16777215
176
     1
 74
     1
176
     1
 91
        4
176
     1
 64
     7
176
     1
 65
   257
176
     1
 75
     1
176
     1
175
     1
176
     1
 42
1.0
176
     1
 92
        8
176
     1
 66
     7
176
     1
 43
1.0
176
     1
 76
     1
176
     1
 77
     6
176
     1
 78
     2
176
     1
 67
     7
176
     1
 79
     5
176
     1
170
     0
176
     1
171
     0
176
     1
290
     0
176
     1
 93
        1
176
     1
 44
0.0
176
     1
173
     0
176
     1
  0
VISUALSTYLE
  5
3081
102
{ACAD_REACTORS
330
3080
102
}
330
3080
100
AcDbVisualStyle
  2
Flat
 70
     0
177
     2
291
     1
 71
     2
176
     1
 72
     1
176
     1
 73
     1
176
     1
 90
        2
176
     1
 40
-0.6
176
     1
 41
30.0
176
     1
 62
     5
 63
     7
421
 16777215
176
     1
 74
     0
176
     1
 91
        4
176
     1
 64
     7
176
     1
 65
   257
176
     1
 75
     1
176
     1
175
     1
176
     1
 42
1.0
176
     1
 92
        8
176
     1
 66
     7
176
     1
 43
1.0
176
     1
 76
     1
176
     1
 77
     6
176
     1
 78
     2
176
     1
 67
     7
176
     1
 79
     5
176
     1
170
     0
176
     1
171
     0
176
     1
290
     0
176
     1
 93
       13
176
     1
 44
0.0
176
     1
173
     0
176
     1
  0
VISUALSTYLE
  5
3082
102
{ACAD_REACTORS
330
3080
102
}
330
3080
100
AcDbVisualStyle
  2
FlatWithEdges
 70
     1
177
     2
291
     1
 71
     2
176
     1
 72
     1
176
     1
 73
     1
176
     1
 90
        2
176
     1
 40
-0.6
176
     1
 41
30.0
176
     1
 62
     5
 63
     7
421
 16777215
176
     1
 74
     1
176
     1
 91
        4
176
     1
 64
     7
176
     1
 65
   257
176
     1
 75
     1
176
     1
175
     1
176
     1
 42
1.0
176
     1
 92
        0
176
     1
 66
   257
176
     1
 43
1.0
176
     1
 76
     1
176
     1
 77
     6
176
     1
 78
     2
176
     1
 67
     7
176
     1
 79
     5
176
     1
170
     0
176
     1
171
     0
176
     1
290
     0
176
     1
 93
       13
176
     1
 44
0.0
176
     1
173
     0
176
     1
  0
VISUALSTYLE
  5
3083
102
{ACAD_REACTORS
330
3080
102
}
330
3080
100
AcDbVisualStyle
  2
Gouraud
 70
     2
177
     2
291
     1
 71
     2
176
     1
 72
     2
176
     1
 73
     1
176
     1
 90
        2
176
     1
 40
-0.6
176
     1
 41
30.0
176
     1
 62
     5
 63
     7
421
 16777215
176
     1
 74
     0
176
     1
 91
        4
176
     1
 64
     7
176
     1
 65
   257
176
     1
 75
     1
176
     1
175
     1
176
     1
 42
1.0
176
     1
 92
        0
176
     1
 66
     7
176
     1
 43
1.0
176
     1
 76
     1
176
     1
 77
     6
176
     1
 78
     2
176
     1
 67
     7
176
     1
 79
     5
176
     1
170
     0
176
     1
171
     0
176
     1
290
     0
176
     1
 93
       13
176
     1
 44
0.0
176
     1
173
     0
176
     1
  0
VISUALSTYLE
  5
3084
102
{ACAD_REACTORS
330
3080
102
}
330
3080
100
AcDbVisualStyle
  2
GouraudWithEdges
 70
     3
177
     2
291
     1
 71
     2
176
     1
 72
     2
176
     1
 73
     1
176
     1
 90
        2
176
     1
 40
-0.6
176
     1
 41
30.0
176
     1
 62
     5
 63
     7
421
 16777215
176
     1
 74
     1
176
     1
 91
        4
176
     1
 64
     7
176
     1
 65
   257
176
     1
 75
     1
176
     1
175
     1
176
     1
 42
1.0
176
     1
 92
        0
176
     1
 66
   257
176
     1
 43
1.0
176
     1
 76
     1
176
     1
 77
     6
176
     1
 78
     2
176
     1
 67
     7
176
     1
 79
     5
176
     1
170
     0
176
     1
171
     0
176
     1
290
     0
176
     1
 93
       13
176
     1
 44
0.0
176
     1
173
     0
176
     1
  0
VISUALSTYLE
  5
308E
102
{ACAD_REACTORS
330
3080
102
}
330
3080
100
AcDbVisualStyle
  2
Linepattern
 70
    14
177
     2
291
     1
 71
     2
176
     1
 72
     2
176
     1
 73
     0
176
     1
 90
        0
176
     1
 40
-0.6
176
     1
 41
-30.0
176
     1
 62
     5
 63
     7
421
 16777215
176
     1
 74
     1
176
     1
 91
        4
176
     1
 64
     7
176
     1
 65
   257
176
     1
 75
     7
176
     1
175
     7
176
     1
 42
1.0
176
     1
 92
        8
176
     1
 66
     7
176
     1
 43
1.0
176
     1
 76
     1
176
     1
 77
     6
176
     1
 78
     2
176
     1
 67
     7
176
     1
 79
     5
176
     1
170
     0
176
     1
171
     0
176
     1
290
     0
176
     1
 93
        1
176
     1
 44
0.0
176
     1
173
     0
176
     1
  0
VISUALSTYLE
  5
3089
102
{ACAD_REACTORS
330
3080
102
}
330
3080
100
AcDbVisualStyle
  2
Realistic
 70
     8
177
     2
291
     0
 71
     2
176
     1
 72
     2
176
     1
 73
     0
176
     1
 90
        0
176
     1
 40
-0.6
176
     1
 41
-30.0
176
     1
 62
     5
 63
     7
421
 16777215
176
     1
 74
     1
176
     1
 91
        0
176
     1
 64
     7
176
     1
 65
   257
176
     1
 75
     1
176
     1
175
     1
176
     1
 42
1.0
176
     1
 92
        8
176
     1
 66
     8
424
  7895160
176
     1
 43
1.0
176
     1
 76
     1
176
     1
 77
     6
176
     1
 78
     2
176
     1
 67
     7
176
     1
 79
     5
176
     1
170
     0
176
     1
171
     0
176
     1
290
     0
176
     1
 93
       13
176
     1
 44
0.0
176
     1
173
     0
176
     1
  0
VISUALSTYLE
  5
308D
102
{ACAD_REACTORS
330
3080
102
}
330
3080
100
AcDbVisualStyle
  2
Thicken
 70
    13
177
     2
291
     1
 71
     2
176
     1
 72
     2
176
     1
 73
     0
176
     1
 90
        0
176
     1
 40
-0.6
176
     1
 41
-30.0
176
     1
 62
     5
 63
     7
421
 16777215
176
     1
 74
     1
176
     1
 91
        4
176
     1
 64
     7
176
     1
 65
   257
176
     1
 75
     1
176
     1
175
     1
176
     1
 42
1.0
176
     1
 92
       12
176
     1
 66
     7
176
     1
 43
1.0
176
     1
 76
     1
176
     1
 77
     6
176
     1
 78
     2
176
     1
 67
     7
176
     1
 79
     5
176
     1
170
     0
176
     1
171
     0
176
     1
290
     0
176
     1
 93
        1
176
     1
 44
0.0
176
     1
173
     0
176
     1
  0
XRECORD
  5
30A5
102
{ACAD_REACTORS
330
3096
102
}
330
3096
100
AcDbXrecord
280
     1
290
     1
  0
XRECORD
  5
309E
102
{ACAD_REACTORS
330
3096
102
}
330
3096
100
AcDbXrecord
280
     1
1000
auto
  0
XRECORD
  5
30A0
102
{ACAD_REACTORS
330
3096
102
}
330
3096
100
AcDbXrecord
280
     1
1000
auto
  0
XRECORD
  5
309D
102
{ACAD_REACTORS
330
3096
102
}
330
3096
100
AcDbXrecord
280
     1
 90
        1
  0
XRECORD
  5
309A
102
{ACAD_REACTORS
330
3096
102
}
330
3096
100
AcDbXrecord
280
     1
 40
10.0
  0
XRECORD
  5
30A1
102
{ACAD_REACTORS
330
3096
102
}
330
3096
100
AcDbXrecord
280
     1
 40
10.0
  0
XRECORD
  5
3097
102
{ACAD_REACTORS
330
3096
102
}
330
3096
100
AcDbXrecord
280
     1
 40
10.0
  0
XRECORD
  5
30A9
102
{ACAD_REACTORS
330
3096
102
}
330
3096
100
AcDbXrecord
280
     1
 40
10.0
  0
XRECORD
  5
3099
102
{ACAD_REACTORS
330
3096
102
}
330
3096
100
AcDbXrecord
280
     1
290
     0
  0
XRECORD
  5
30A2
102
{ACAD_REACTORS
330
3096
102
}
330
3096
100
AcDbXrecord
280
     1
 90
        1
  0
XRECORD
  5
30A7
102
{ACAD_REACTORS
330
3096
102
}
330
3096
100
AcDbXrecord
280
     1
 40
0.0
  0
XRECORD
  5
30A8
102
{ACAD_REACTORS
330
3096
102
}
330
3096
100
AcDbXrecord
280
     1
 40
0.0
  0
XRECORD
  5
3098
102
{ACAD_REACTORS
330
3096
102
}
330
3096
100
AcDbXrecord
280
     1
1000
Portrait
  0
XRECORD
  5
309C
102
{ACAD_REACTORS
330
3096
102
}
330
3096
100
AcDbXrecord
280
     1
 40
297.0
  0
XRECORD
  5
30A3
102
{ACAD_REACTORS
330
3096
102
}
330
3096
100
AcDbXrecord
280
     1
 40
210.0
  0
XRECORD
  5
309B
102
{ACAD_REACTORS
330
3096
102
}
330
3096
100
AcDbXrecord
280
     1
1000
1:1
  0
XRECORD
  5
309F
102
{ACAD_REACTORS
330
3096
102
}
330
3096
100
AcDbXrecord
280
     1
290
     0
  0
XRECORD
  5
30A6
102
{ACAD_REACTORS
330
3096
102
}
330
3096
100
AcDbXrecord
280
     1
290
     1
  0
XRECORD
  5
30A4
102
{ACAD_REACTORS
330
3096
102
}
330
3096
100
AcDbXrecord
280
     1
 90
        4
  0
ENDSEC
  0
EOF
