  0
SECTION
  2
HEADER
  9
$ACADVER
  1
AC1024
  9
$ACADMAINTVER
 70
     6
  9
$DWGCODEPAGE
  3
ASCII
  9
$INSBASE
 10
0.0
 20
0.0
 30
0.0
  9
$EXTMIN
 10
1.000000000000000E+20
 20
1.000000000000000E+20
 30
1.000000000000000E+20
  9
$EXTMAX
 10
-1.000000000000000E+20
 20
-1.000000000000000E+20
 30
-1.000000000000000E+20
  9
$LIMMIN
 10
0.0
 20
0.0
  9
$LIMMAX
 10
12.0
 20
9.0
  9
$ORTHOMODE
 70
     0
  9
$REGENMODE
 70
     1
  9
$FILLMODE
 70
     1
  9
$QTEXTMODE
 70
     0
  9
$MIRRTEXT
 70
     1
  9
$LTSCALE
 40
1.0
  9
$ATTMODE
 70
     1
  9
$TEXTSIZE
 40
0.2
  9
$TRACEWID
 40
0.05
  9
$TEXTSTYLE
  7
Standard
  9
$CLAYER
  8
0
  9
$CELTYPE
  6
ByLayer
  9
$CECOLOR
 62
    18
  9
$CELTSCALE
 40
1.0
  9
$DISPSILH
 70
     0
  9
$DIMSCALE
 40
1.0
  9
$DIMASZ
 40
2.5
  9
$DIMEXO
 40
0.625
  9
$DIMDLI
 40
0.38
  9
$DIMRND
 40
0.0
  9
$DIMDLE
 40
0.0
  9
$DIMEXE
 40
1.25
  9
$DIMTP
 40
0.0
  9
$DIMTM
 40
0.0
  9
$DIMTXT
 40
2.5
  9
$DIMCEN
 40
0.09
  9
$DIMTSZ
 40
0.0
  9
$DIMTOL
 70
     0
  9
$DIMLIM
 70
     0
  9
$DIMTIH
 70
     1
  9
$DIMTOH
 70
     1
  9
$DIMSE1
 70
     0
  9
$DIMSE2
 70
     0
  9
$DIMTAD
 70
     0
  9
$DIMZIN
 70
     8
  9
$DIMBLK
  1

  9
$DIMASO
 70
     1
  9
$DIMSHO
 70
     1
  9
$DIMPOST
  1

  9
$DIMAPOST
  1

  9
$DIMALT
 70
     0
  9
$DIMALTD
 70
     2
  9
$DIMALTF
 40
25.4
  9
$DIMLFAC
 40
1.0
  9
$DIMTOFL
 70
     0
  9
$DIMTVP
 40
0.0
  9
$DIMTIX
 70
     0
  9
$DIMSOXD
 70
     0
  9
$DIMSAH
 70
     0
  9
$DIMBLK1
  1

  9
$DIMBLK2
  1

  9
$DIMSTYLE
  2
Standard
  9
$DIMCLRD
 70
    18
  9
$DIMCLRE
 70
    18
  9
$DIMCLRT
 70
    18
  9
$DIMTFAC
 40
1.0
  9
$DIMGAP
 40
0.625
  9
$DIMJUST
 70
     0
  9
$DIMSD1
 70
     0
  9
$DIMSD2
 70
     0
  9
$DIMTOLJ
 70
     1
  9
$DIMTZIN
 70
     0
  9
$DIMALTZ
 70
     0
  9
$DIMALTTZ
 70
     0
  9
$DIMUPT
 70
     0
  9
$DIMDEC
 70
     4
  9
$DIMTDEC
 70
     4
  9
$DIMALTU
 70
     2
  9
$DIMALTTD
 70
     2
  9
$DIMTXSTY
  7
Standard
  9
$DIMAUNIT
 70
     0
  9
$DIMADEC
 70
     0
  9
$DIMALTRND
 40
0.0
  9
$DIMAZIN
 70
     2
  9
$DIMDSEP
 70
    46
  9
$DIMATFIT
 70
     3
  9
$DIMFRAC
 70
     0
  9
$DIMLDRBLK
  1

  9
$DIMLUNIT
 70
     2
  9
$DIMLWD
 70
    -2
  9
$DIMLWE
 70
    -2
  9
$DIMTMOVE
 70
     0
  9
$DIMFXL
 40
1.0
  9
$DIMFXLON
 70
     0
  9
$DIMJOGANG
 40
0.7853981633974483
  9
$DIMTFILL
 70
     0
  9
$DIMTFILLCLR
 70
     0
  9
$DIMARCSYM
 70
     0
  9
$DIMLTYPE
  6

  9
$DIMLTEX1
  6

  9
$DIMLTEX2
  6

  9
$DIMTXTDIRECTION
 70
     0
  9
$LUNITS
 70
     2
  9
$LUPREC
 70
     4
  9
$SKETCHINC
 40
0.1
  9
$FILLETRAD
 40
0.5
  9
$AUNITS
 70
     0
  9
$AUPREC
 70
     0
  9
$MENU
  1
.
  9
$ELEVATION
 40
0.0
  9
$PELEVATION
 40
0.0
  9
$THICKNESS
 40
0.0
  9
$LIMCHECK
 70
     0
  9
$CHAMFERA
 40
0.5
  9
$CHAMFERB
 40
0.5
  9
$CHAMFERC
 40
1.0
  9
$CHAMFERD
 40
0.0
  9
$SKPOLY
 70
     0
  9
$TDCREATE
 40
2455924.554690278
  9
$TDUCREATE
 40
2455924.763023611
  9
$TDUPDATE
 40
2455924.554690278
  9
$TDUUPDATE
 40
2455924.763023611
  9
$TDINDWG
 40
0.0000000116
  9
$TDUSRTIMER
 40
0.0000000116
  9
$USRTIMER
 70
     1
  9
$ANGBASE
 50
0.0
  9
$ANGDIR
 70
     0
  9
$PDMODE
 70
     0
  9
$PDSIZE
 40
0.0
  9
$PLINEWID
 40
0.0
  9
$SPLFRAME
 70
     0
  9
$SPLINETYPE
 70
     6
  9
$SPLINESEGS
 70
     8
  9
$HANDSEED
  5
2EC8
  9
$SURFTAB1
 70
     6
  9
$SURFTAB2
 70
     6
  9
$SURFTYPE
 70
     6
  9
$SURFU
 70
     6
  9
$SURFV
 70
     6
  9
$UCSBASE
  2

  9
$UCSNAME
  2

  9
$UCSORG
 10
0.0
 20
0.0
 30
0.0
  9
$UCSXDIR
 10
1.0
 20
0.0
 30
0.0
  9
$UCSYDIR
 10
0.0
 20
1.0
 30
0.0
  9
$UCSORTHOREF
  2

  9
$UCSORTHOVIEW
 70
     0
  9
$UCSORGTOP
 10
0.0
 20
0.0
 30
0.0
  9
$UCSORGBOTTOM
 10
0.0
 20
0.0
 30
0.0
  9
$UCSORGLEFT
 10
0.0
 20
0.0
 30
0.0
  9
$UCSORGRIGHT
 10
0.0
 20
0.0
 30
0.0
  9
$UCSORGFRONT
 10
0.0
 20
0.0
 30
0.0
  9
$UCSORGBACK
 10
0.0
 20
0.0
 30
0.0
  9
$PUCSBASE
  2

  9
$PUCSNAME
  2

  9
$PUCSORG
 10
0.0
 20
0.0
 30
0.0
  9
$PUCSXDIR
 10
1.0
 20
0.0
 30
0.0
  9
$PUCSYDIR
 10
0.0
 20
1.0
 30
0.0
  9
$PUCSORTHOREF
  2

  9
$PUCSORTHOVIEW
 70
     0
  9
$PUCSORGTOP
 10
0.0
 20
0.0
 30
0.0
  9
$PUCSORGBOTTOM
 10
0.0
 20
0.0
 30
0.0
  9
$PUCSORGLEFT
 10
0.0
 20
0.0
 30
0.0
  9
$PUCSORGRIGHT
 10
0.0
 20
0.0
 30
0.0
  9
$PUCSORGFRONT
 10
0.0
 20
0.0
 30
0.0
  9
$PUCSORGBACK
 10
0.0
 20
0.0
 30
0.0
  9
$USERI1
 70
     0
  9
$USERI2
 70
     0
  9
$USERI3
 70
     0
  9
$USERI4
 70
     0
  9
$USERI5
 70
     0
  9
$USERR1
 40
0.0
  9
$USERR2
 40
0.0
  9
$USERR3
 40
0.0
  9
$USERR4
 40
0.0
  9
$USERR5
 40
0.0
  9
$WORLDVIEW
 70
     1
  9
$SHADEDGE
 70
     3
  9
$SHADEDIF
 70
    70
  9
$TILEMODE
 70
     1
  9
$MAXACTVP
 70
    64
  9
$PINSBASE
 10
0.0
 20
0.0
 30
0.0
  9
$PLIMCHECK
 70
     0
  9
$PEXTMIN
 10
1.000000000000000E+20
 20
1.000000000000000E+20
 30
1.000000000000000E+20
  9
$PEXTMAX
 10
-1.000000000000000E+20
 20
-1.000000000000000E+20
 30
-1.000000000000000E+20
  9
$PLIMMIN
 10
0.0
 20
0.0
  9
$PLIMMAX
 10
12.0
 20
9.0
  9
$UNITMODE
 70
     0
  9
$VISRETAIN
 70
     1
  9
$PLINEGEN
 70
     0
  9
$PSLTSCALE
 70
     1
  9
$TREEDEPTH
 70
  3020
  9
$CMLSTYLE
  2
Standard
  9
$CMLJUST
 70
     0
  9
$CMLSCALE
 40
1.0
  9
$PROXYGRAPHICS
 70
     1
  9
$MEASUREMENT
 70
     1
  9
$CELWEIGHT
370
    -1
  9
$ENDCAPS
280
     0
  9
$JOINSTYLE
280
     0
  9
$LWDISPLAY
290
     0
  9
$INSUNITS
 70
     4
  9
$HYPERLINKBASE
  1

  9
$STYLESHEET
  1

  9
$XEDIT
290
     1
  9
$CEPSNTYPE
380
     0
  9
$PSTYLEMODE
290
     1
  9
$FINGERPRINTGUID
  2
{F331ABB7-D022-4418-A5F7-68B9C71B388A}
  9
$VERSIONGUID
  2
{FAEB1C32-E019-11D5-929B-00C0DF256EC4}
  9
$EXTNAMES
290
     1
  9
$PSVPSCALE
 40
0.0
  9
$OLESTARTUP
290
     0
  9
$SORTENTS
280
   127
  9
$INDEXCTL
280
     0
  9
$HIDETEXT
280
     1
  9
$XCLIPFRAME
280
     2
  9
$HALOGAP
280
     0
  9
$OBSCOLOR
 70
   257
  9
$OBSLTYPE
280
     0
  9
$INTERSECTIONDISPLAY
280
     0
  9
$INTERSECTIONCOLOR
 70
   257
  9
$DIMASSOC
280
     2
  9
$PROJECTNAME
  1

  9
$CAMERADISPLAY
290
     0
  9
$LENSLENGTH
 40
50.0
  9
$CAMERAHEIGHT
 40
0.0
  9
$STEPSPERSEC
 40
2.0
  9
$STEPSIZE
 40
6.0
  9
$3DDWFPREC
 40
2.0
  9
$PSOLWIDTH
 40
0.25
  9
$PSOLHEIGHT
 40
4.0
  9
$LOFTANG1
 40
1.570796326794897
  9
$LOFTANG2
 40
1.570796326794897
  9
$LOFTMAG1
 40
0.0
  9
$LOFTMAG2
 40
0.0
  9
$LOFTPARAM
 70
     7
  9
$LOFTNORMALS
280
     1
  9
$LATITUDE
 40
37.795
  9
$LONGITUDE
 40
-122.394
  9
$NORTHDIRECTION
 40
0.0
  9
$TIMEZONE
 70
 -8000
  9
$LIGHTGLYPHDISPLAY
280
     1
  9
$TILEMODELIGHTSYNCH
280
     1
  9
$SOLIDHIST
280
     1
  9
$SHOWHIST
280
     1
  9
$DWFFRAME
280
     2
  9
$DGNFRAME
280
     2
  9
$REALWORLDSCALE
290
     1
  9
$INTERFERECOLOR
 62
   256
  9
$CSHADOW
280
     0
  9
$SHADOWPLANELOCATION
 40
0.0
  0
ENDSEC
  0
SECTION
  2
CLASSES
  0
CLASS
  1
ACDBDICTIONARYWDFLT
  2
AcDbDictionaryWithDefault
  3
ObjectDBX Classes
 90
        0
 91
        4
280
     0
281
     0
  0
CLASS
  1
VISUALSTYLE
  2
AcDbVisualStyle
  3
ObjectDBX Classes
 90
     4095
 91
        4
280
     0
281
     0
  0
CLASS
  1
MATERIAL
  2
AcDbMaterial
  3
ObjectDBX Classes
 90
     1153
 91
        4
280
     0
281
     0
  0
ENDSEC
  0
SECTION
  2
TABLES
  0
TABLE
  2
VPORT
  5
2E66
330
0
100
AcDbSymbolTable
 70
     1
  0
VPORT
  5
2E86
330
2E66
100
AcDbSymbolTableRecord
100
AcDbViewportTableRecord
  2
*Active
 70
     0
 10
0.0
 20
0.0
 11
1.0
 21
1.0
 12
10.42990654205607
 22
4.5
 13
0.0
 23
0.0
 14
0.5
 24
0.5
 15
0.5
 25
0.5
 16
0.0
 26
0.0
 36
1.0
 17
0.0
 27
0.0
 37
0.0
 40
9.0
 41
1.972972972850329
 42
50.0
 43
0.0
 44
0.0
 50
0.0
 51
0.0
 71
     0
 72
   100
 73
     1
 74
     3
 75
     0
 76
     0
 77
     0
 78
     0
281
     0
 65
     1
110
0.0
120
0.0
130
0.0
111
1.0
121
0.0
131
0.0
112
0.0
122
1.0
132
0.0
 79
     0
146
0.0
 60
     3
 61
     5
292
     1
282
     1
141
0.0
142
0.0
 63
   250
  0
ENDTAB
  0
TABLE
  2
LTYPE
  5
2E63
330
0
100
AcDbSymbolTable
 70
    19
  0
LTYPE
  5
2E71
330
2E63
100
AcDbSymbolTableRecord
100
AcDbLinetypeTableRecord
  2
ByBlock
 70
     0
  3

 72
    65
 73
     0
 40
0.0
  0
LTYPE
  5
2E72
330
2E63
100
AcDbSymbolTableRecord
100
AcDbLinetypeTableRecord
  2
ByLayer
 70
     0
  3

 72
    65
 73
     0
 40
0.0
  0
LTYPE
  5
2E73
330
2E63
100
AcDbSymbolTableRecord
100
AcDbLinetypeTableRecord
  2
Continuous
 70
     0
  3
Solid line
 72
    65
 73
     0
 40
0.0
  0
LTYPE
  5
2EB2
330
2E63
100
AcDbSymbolTableRecord
100
AcDbLinetypeTableRecord
  2
BORDER
 70
     0
  3

 72
    65
 73
     6
 40
42.00000000000001
 49
12.0
 74
     0
 49
-6.0
 74
     0
 49
12.0
 74
     0
 49
-5.95
 74
     0
 49
0.1
 74
     0
 49
-5.95
 74
     0
  0
LTYPE
  5
2EB3
330
2E63
100
AcDbSymbolTableRecord
100
AcDbLinetypeTableRecord
  2
BORDER2
 70
     0
  3

 72
    65
 73
     6
 40
21.0
 49
6.0
 74
     0
 49
-3.0
 74
     0
 49
6.0
 74
     0
 49
-2.95
 74
     0
 49
0.1
 74
     0
 49
-2.95
 74
     0
  0
LTYPE
  5
2EB4
330
2E63
100
AcDbSymbolTableRecord
100
AcDbLinetypeTableRecord
  2
BORDERX2
 70
     0
  3

 72
    65
 73
     6
 40
84.0
 49
24.0
 74
     0
 49
-12.0
 74
     0
 49
24.0
 74
     0
 49
-11.95
 74
     0
 49
0.1
 74
     0
 49
-11.95
 74
     0
  0
LTYPE
  5
2EB5
330
2E63
100
AcDbSymbolTableRecord
100
AcDbLinetypeTableRecord
  2
CENTER
 70
     0
  3

 72
    65
 73
     4
 40
50.0
 49
32.0
 74
     0
 49
-6.0
 74
     0
 49
6.0
 74
     0
 49
-6.0
 74
     0
  0
LTYPE
  5
2EB6
330
2E63
100
AcDbSymbolTableRecord
100
AcDbLinetypeTableRecord
  2
CENTER2
 70
     0
  3

 72
    65
 73
     4
 40
25.0
 49
16.0
 74
     0
 49
-3.0
 74
     0
 49
3.0
 74
     0
 49
-3.0
 74
     0
  0
LTYPE
  5
2EB7
330
2E63
100
AcDbSymbolTableRecord
100
AcDbLinetypeTableRecord
  2
CENTERX2
 70
     0
  3

 72
    65
 73
     4
 40
100.0
 49
64.0
 74
     0
 49
-12.0
 74
     0
 49
12.0
 74
     0
 49
-12.0
 74
     0
  0
LTYPE
  5
2EB8
330
2E63
100
AcDbSymbolTableRecord
100
AcDbLinetypeTableRecord
  2
DASHDOT
 70
     0
  3

 72
    65
 73
     4
 40
24.0
 49
12.0
 74
     0
 49
-5.95
 74
     0
 49
0.1
 74
     0
 49
-5.95
 74
     0
  0
LTYPE
  5
2EB9
330
2E63
100
AcDbSymbolTableRecord
100
AcDbLinetypeTableRecord
  2
DASHDOT2
 70
     0
  3

 72
    65
 73
     4
 40
12.0
 49
6.0
 74
     0
 49
-2.95
 74
     0
 49
0.1
 74
     0
 49
-2.95
 74
     0
  0
LTYPE
  5
2EBA
330
2E63
100
AcDbSymbolTableRecord
100
AcDbLinetypeTableRecord
  2
DASHDOTX2
 70
     0
  3

 72
    65
 73
     4
 40
48.0
 49
24.0
 74
     0
 49
-11.95
 74
     0
 49
0.1
 74
     0
 49
-11.95
 74
     0
  0
LTYPE
  5
2EBB
330
2E63
100
AcDbSymbolTableRecord
100
AcDbLinetypeTableRecord
  2
DASHED
 70
     0
  3

 72
    65
 73
     2
 40
18.0
 49
12.0
 74
     0
 49
-6.0
 74
     0
  0
LTYPE
  5
2EBC
330
2E63
100
AcDbSymbolTableRecord
100
AcDbLinetypeTableRecord
  2
DASHED2
 70
     0
  3

 72
    65
 73
     2
 40
9.0
 49
6.0
 74
     0
 49
-3.0
 74
     0
  0
LTYPE
  5
2EBD
330
2E63
100
AcDbSymbolTableRecord
100
AcDbLinetypeTableRecord
  2
DASHEDX2
 70
     0
  3

 72
    65
 73
     2
 40
36.0
 49
24.0
 74
     0
 49
-12.0
 74
     0
  0
LTYPE
  5
2EBE
330
2E63
100
AcDbSymbolTableRecord
100
AcDbLinetypeTableRecord
  2
DIVIDE
 70
     0
  3

 72
    65
 73
     6
 40
29.99999999999999
 49
12.0
 74
     0
 49
-5.9
 74
     0
 49
0.15
 74
     0
 49
-5.9
 74
     0
 49
0.15
 74
     0
 49
-5.9
 74
     0
  0
LTYPE
  5
2EBF
330
2E63
100
AcDbSymbolTableRecord
100
AcDbLinetypeTableRecord
  2
DIVIDE2
 70
     0
  3

 72
    65
 73
     6
 40
15.0
 49
6.0
 74
     0
 49
-2.9
 74
     0
 49
0.15
 74
     0
 49
-2.9
 74
     0
 49
0.15
 74
     0
 49
-2.9
 74
     0
  0
LTYPE
  5
2EC0
330
2E63
100
AcDbSymbolTableRecord
100
AcDbLinetypeTableRecord
  2
DIVIDEX2
 70
     0
  3

 72
    65
 73
     6
 40
59.99999999999999
 49
24.0
 74
     0
 49
-11.9
 74
     0
 49
0.15
 74
     0
 49
-11.9
 74
     0
 49
0.15
 74
     0
 49
-11.9
 74
     0
  0
LTYPE
  5
2EC1
330
2E63
100
AcDbSymbolTableRecord
100
AcDbLinetypeTableRecord
  2
DOT
 70
     0
  3

 72
    65
 73
     2
 40
6.3
 49
0.1
 74
     0
 49
-6.2
 74
     0
  0
LTYPE
  5
2EC2
330
2E63
100
AcDbSymbolTableRecord
100
AcDbLinetypeTableRecord
  2
DOT2
 70
     0
  3

 72
    65
 73
     2
 40
3.2
 49
0.1
 74
     0
 49
-3.1
 74
     0
  0
LTYPE
  5
2EC3
330
2E63
100
AcDbSymbolTableRecord
100
AcDbLinetypeTableRecord
  2
DOTX2
 70
     0
  3

 72
    65
 73
     2
 40
12.5
 49
0.1
 74
     0
 49
-12.4
 74
     0
  0
ENDTAB
  0
TABLE
  2
LAYER
  5
2E60
330
0
100
AcDbSymbolTable
 70
     3
  0
LAYER
  5
2E6E
330
2E60
100
AcDbSymbolTableRecord
100
AcDbLayerTableRecord
  2
0
 70
     0
 62
     7
420
 16777215
  6
Continuous
370
    25
390
2E6D
347
2E9B
  0
LAYER
  5
2EC4
330
2E60
100
AcDbSymbolTableRecord
100
AcDbLayerTableRecord
  2
laser bed referance
 70
     0
 62
     3
420
    65280
  6
Continuous
370
    25
390
2E6D
347
2E9B
  0
LAYER
  5
2EC5
330
2E60
100
AcDbSymbolTableRecord
100
AcDbLayerTableRecord
  2
TEXT
 70
     0
 62
     5
420
      255
  6
Continuous
370
    -3
390
2E6D
347
2E9B
  0
ENDTAB
  0
TABLE
  2
STYLE
  5
2E61
330
0
100
AcDbSymbolTable
 70
     1
  0
STYLE
  5
2E6F
330
2E61
100
AcDbSymbolTableRecord
100
AcDbTextStyleTableRecord
  2
Standard
 70
     0
 40
0.0
 41
1.0
 50
0.0
 71
     0
 42
0.2
  3
txt
  4

  0
ENDTAB
  0
TABLE
  2
VIEW
  5
2E64
330
0
100
AcDbSymbolTable
 70
     0
  0
ENDTAB
  0
TABLE
  2
UCS
  5
2E65
330
0
100
AcDbSymbolTable
 70
     0
  0
ENDTAB
  0
TABLE
  2
APPID
  5
2E67
330
0
100
AcDbSymbolTable
 70
     2
  0
APPID
  5
2E70
330
2E67
100
AcDbSymbolTableRecord
100
AcDbRegAppTableRecord
  2
ACAD
 70
     0
  0
APPID
  5
2E9C
330
2E67
100
AcDbSymbolTableRecord
100
AcDbRegAppTableRecord
  2
QCAD
 70
     0
  0
ENDTAB
  0
TABLE
  2
DIMSTYLE
  5
2E68
330
0
100
AcDbSymbolTable
 70
     2
100
AcDbDimStyleTable
  0
DIMSTYLE
105
2E84
330
2E68
100
AcDbSymbolTableRecord
100
AcDbDimStyleTableRecord
  2
Standard
 70
     0
178
     0
340
2E6F
  0
DIMSTYLE
105
2EB1
330
2E68
100
AcDbSymbolTableRecord
100
AcDbDimStyleTableRecord
  2
QCADDimStyle
 70
     0
 41
2.5
 42
0.625
 44
1.25
 73
     0
 77
     1
140
2.5
147
0.625
178
     0
340
2E6F
  0
ENDTAB
  0
TABLE
  2
BLOCK_RECORD
  5
2E5F
330
0
100
AcDbSymbolTable
 70
     1
  0
BLOCK_RECORD
  5
2E7C
330
2E5F
100
AcDbSymbolTableRecord
100
AcDbBlockTableRecord
  2
*Model_Space
340
2E7F
 70
     0
280
     1
281
     0
  0
BLOCK_RECORD
  5
2E78
330
2E5F
100
AcDbSymbolTableRecord
100
AcDbBlockTableRecord
  2
*Paper_Space
340
2E7B
 70
     0
280
     1
281
     0
  0
BLOCK_RECORD
  5
2E80
330
2E5F
100
AcDbSymbolTableRecord
100
AcDbBlockTableRecord
  2
*Paper_Space0
340
2E83
 70
     0
280
     1
281
     0
  0
ENDTAB
  0
ENDSEC
  0
SECTION
  2
BLOCKS
  0
BLOCK
  5
2E7D
330
2E7C
100
AcDbEntity
  8
0
100
AcDbBlockBegin
  2
*Model_Space
 70
     0
 10
0.0
 20
0.0
 30
0.0
  3
*Model_Space
  1

  0
ENDBLK
  5
2E7E
330
2E7C
100
AcDbEntity
  8
0
100
AcDbBlockEnd
  0
BLOCK
  5
2E79
330
2E78
100
AcDbEntity
 67
     1
  8
0
100
AcDbBlockBegin
  2
*Paper_Space
 70
     0
 10
0.0
 20
0.0
 30
0.0
  3
*Paper_Space
  1

  0
ENDBLK
  5
2E7A
330
2E78
100
AcDbEntity
 67
     1
  8
0
100
AcDbBlockEnd
  0
BLOCK
  5
2E81
330
2E80
100
AcDbEntity
  8
0
100
AcDbBlockBegin
  2
*Paper_Space0
 70
     0
 10
0.0
 20
0.0
 30
0.0
  3
*Paper_Space0
  1

  0
ENDBLK
  5
2E82
330
2E80
100
AcDbEntity
  8
0
100
AcDbBlockEnd
  0
ENDSEC
  0
SECTION
  2
ENTITIES
  0
LINE
  5
22
330
2E7C
100
AcDbEntity
  8
laser bed referance
100
AcDbLine
 10
-0.0000000000000187
 20
-304.8
 30
0.0
 11
0.0
 21
0.0
 31
0.0
  0
LINE
  5
2A
330
2E7C
100
AcDbEntity
  8
laser bed referance
100
AcDbLine
 10
0.0
 20
0.0
 30
0.0
 11
304.8
 21
0.0
 31
0.0
  0
LINE
  5
2B
330
2E7C
100
AcDbEntity
  8
laser bed referance
100
AcDbLine
 10
-0.0000000000000187
 20
-304.8
 30
0.0
 11
304.8
 21
-304.8
 31
0.0
  0
LWPOLYLINE
  5
12B2
330
2E7C
100
AcDbEntity
  8
TEXT
 62
     5
420
      255
370
    25
100
AcDbPolyline
 90
        2
 70
     0
 43
0.0
 10
173.7376298559611
 20
-265.3126231862388
 10
171.9522223559612
 20
-265.3090956862387
  0
SPLINE
  5
12B3
330
2E7C
100
AcDbEntity
  8
TEXT
 62
     5
420
      255
370
    25
100
AcDbSpline
210
0.0
220
0.0
230
1.0
 70
     8
 71
     3
 72
     8
 73
     4
 74
     0
 42
0.000000001
 43
0.001
 12
1.0
 22
0.0
 32
0.0
 13
1.0
 23
0.0
 33
0.0
 40
0.0
 40
0.0
 40
0.0
 40
0.0
 40
1.0
 40
1.0
 40
1.0
 40
1.0
 10
173.5936973559612
 20
-263.8739956862386
 30
0.0
 10
174.0717111059611
 20
-263.8739956862386
 30
0.0
 10
174.4057911059611
 20
-264.1318756862387
 30
0.0
 10
174.4057911059611
 20
-264.6229431862386
 30
0.0
  0
SPLINE
  5
12B4
330
2E7C
100
AcDbEntity
  8
TEXT
 62
     5
420
      255
370
    25
100
AcDbSpline
210
0.0
220
0.0
230
1.0
 70
     8
 71
     3
 72
     8
 73
     4
 74
     0
 42
0.000000001
 43
0.001
 12
1.0
 22
0.0
 32
0.0
 13
1.0
 23
0.0
 33
0.0
 40
0.0
 40
0.0
 40
0.0
 40
0.0
 40
1.0
 40
1.0
 40
1.0
 40
1.0
 10
174.4057911059611
 20
-264.6229431862386
 30
0.0
 10
174.4057911059611
 20
-264.9781906862387
 30
0.0
 10
174.0932298559612
 20
-265.3165044362387
 30
0.0
 10
173.7372773559611
 20
-265.3083906862386
 30
0.0
  0
LWPOLYLINE
  5
12B5
330
2E7C
100
AcDbEntity
  8
TEXT
 62
     5
420
      255
370
    25
100
AcDbPolyline
 90
        2
 70
     0
 43
0.0
 10
171.9522223559612
 20
-263.8739956862386
 10
173.5936973559612
 20
-263.8739956862386
  0
SPLINE
  5
12B6
330
2E7C
100
AcDbEntity
  8
TEXT
 62
     5
420
      255
370
    25
100
AcDbSpline
210
0.0
220
0.0
230
1.0
 70
     8
 71
     3
 72
     8
 73
     4
 74
     0
 42
0.000000001
 43
0.001
 12
1.0
 22
0.0
 32
0.0
 13
1.0
 23
0.0
 33
0.0
 40
0.0
 40
0.0
 40
0.0
 40
0.0
 40
1.0
 40
1.0
 40
1.0
 40
1.0
 10
173.7372773559611
 20
-265.3165044362387
 30
0.0
 10
174.1306248559612
 20
-265.3334369362387
 30
0.0
 10
174.4985723559612
 20
-265.5447506862387
 30
0.0
 10
174.4985723559612
 20
-266.0735656862387
 30
0.0
  0
SPLINE
  5
12B7
330
2E7C
100
AcDbEntity
  8
TEXT
 62
     5
420
      255
370
    25
100
AcDbSpline
210
0.0
220
0.0
230
1.0
 70
     8
 71
     3
 72
     8
 73
     4
 74
     0
 42
0.000000001
 43
0.001
 12
1.0
 22
0.0
 32
0.0
 13
1.0
 23
0.0
 33
0.0
 40
0.0
 40
0.0
 40
0.0
 40
0.0
 40
1.0
 40
1.0
 40
1.0
 40
1.0
 10
174.4985723559612
 20
-266.0735656862387
 30
0.0
 10
174.4985723559612
 20
-266.4252844362388
 30
0.0
 10
174.2745586059612
 20
-266.8948319362387
 30
0.0
 10
173.4836298559612
 20
-266.8948319362387
 30
0.0
  0
LWPOLYLINE
  5
12B8
330
2E7C
100
AcDbEntity
  8
TEXT
 62
     5
420
      255
370
    25
100
AcDbPolyline
 90
        2
 70
     0
 43
0.0
 10
173.7372773559611
 20
-265.3083906862386
 10
173.7372773559611
 20
-265.3165044362387
  0
LWPOLYLINE
  5
12B9
330
2E7C
100
AcDbEntity
  8
TEXT
 62
     5
420
      255
370
    25
100
AcDbPolyline
 90
        4
 70
     0
 43
0.0
 10
173.4836298559612
 20
-266.8948319362387
 10
171.9518698559612
 20
-266.8948319362387
 10
171.9518698559612
 20
-263.8739956862386
 10
171.9522223559612
 20
-263.8739956862386
  0
SPLINE
  5
12BA
330
2E7C
100
AcDbEntity
  8
TEXT
 62
     5
420
      255
370
    25
100
AcDbSpline
210
0.0
220
0.0
230
1.0
 70
     8
 71
     3
 72
     8
 73
     4
 74
     0
 42
0.000000001
 43
0.001
 12
1.0
 22
0.0
 32
0.0
 13
1.0
 23
0.0
 33
0.0
 40
0.0
 40
0.0
 40
0.0
 40
0.0
 40
1.0
 40
1.0
 40
1.0
 40
1.0
 10
171.3200448559612
 20
-264.0048756862388
 30
0.0
 10
170.3463773559611
 20
-264.8593044362387
 30
0.0
 10
169.8937636059612
 20
-265.8456706862386
 30
0.0
 10
169.8475498559612
 20
-266.8736656862388
 30
0.0
  0
LWPOLYLINE
  5
12BB
330
2E7C
100
AcDbEntity
  8
TEXT
 62
     5
420
      255
370
    25
100
AcDbPolyline
 90
        3
 70
     0
 43
0.0
 10
169.2132548559612
 20
-263.8948094362386
 10
171.3200448559612
 20
-263.8948094362386
 10
171.3200448559612
 20
-264.0048756862388
  0
LWPOLYLINE
  5
12BC
330
2E7C
100
AcDbEntity
  8
TEXT
 62
     5
420
      255
370
    25
100
AcDbPolyline
 90
        2
 70
     0
 43
0.0
 10
132.737091105961
 20
-265.3122706862386
 10
130.9520361059611
 20
-265.3087431862387
  0
SPLINE
  5
12BD
330
2E7C
100
AcDbEntity
  8
TEXT
 62
     5
420
      255
370
    25
100
AcDbSpline
210
0.0
220
0.0
230
1.0
 70
     8
 71
     3
 72
     8
 73
     4
 74
     0
 42
0.000000001
 43
0.001
 12
1.0
 22
0.0
 32
0.0
 13
1.0
 23
0.0
 33
0.0
 40
0.0
 40
0.0
 40
0.0
 40
0.0
 40
1.0
 40
1.0
 40
1.0
 40
1.0
 10
132.5931586059612
 20
-263.8736431862387
 30
0.0
 10
133.0711723559612
 20
-263.8736431862387
 30
0.0
 10
133.4056048559613
 20
-264.1315231862388
 30
0.0
 10
133.4056048559613
 20
-264.6225906862387
 30
0.0
  0
SPLINE
  5
12BE
330
2E7C
100
AcDbEntity
  8
TEXT
 62
     5
420
      255
370
    25
100
AcDbSpline
210
0.0
220
0.0
230
1.0
 70
     8
 71
     3
 72
     8
 73
     4
 74
     0
 42
0.000000001
 43
0.001
 12
1.0
 22
0.0
 32
0.0
 13
1.0
 23
0.0
 33
0.0
 40
0.0
 40
0.0
 40
0.0
 40
0.0
 40
1.0
 40
1.0
 40
1.0
 40
1.0
 10
133.4056048559613
 20
-264.6225906862387
 30
0.0
 10
133.4056048559613
 20
-264.9778369362387
 30
0.0
 10
133.0926911059611
 20
-265.3161506862386
 30
0.0
 10
132.737091105961
 20
-265.3080369362387
 30
0.0
  0
LWPOLYLINE
  5
12BF
330
2E7C
100
AcDbEntity
  8
TEXT
 62
     5
420
      255
370
    25
100
AcDbPolyline
 90
        2
 70
     0
 43
0.0
 10
130.9520361059611
 20
-263.8736431862387
 10
132.5931586059612
 20
-263.8736431862387
  0
SPLINE
  5
12C0
330
2E7C
100
AcDbEntity
  8
TEXT
 62
     5
420
      255
370
    25
100
AcDbSpline
210
0.0
220
0.0
230
1.0
 70
     8
 71
     3
 72
     8
 73
     4
 74
     0
 42
0.000000001
 43
0.001
 12
1.0
 22
0.0
 32
0.0
 13
1.0
 23
0.0
 33
0.0
 40
0.0
 40
0.0
 40
0.0
 40
0.0
 40
1.0
 40
1.0
 40
1.0
 40
1.0
 10
132.737091105961
 20
-265.3161506862386
 30
0.0
 10
133.1304386059612
 20
-265.3330844362387
 30
0.0
 10
133.4983861059612
 20
-265.5443981862387
 30
0.0
 10
133.4983861059612
 20
-266.0732119362387
 30
0.0
  0
SPLINE
  5
12C1
330
2E7C
100
AcDbEntity
  8
TEXT
 62
     5
420
      255
370
    25
100
AcDbSpline
210
0.0
220
0.0
230
1.0
 70
     8
 71
     3
 72
     8
 73
     4
 74
     0
 42
0.000000001
 43
0.001
 12
1.0
 22
0.0
 32
0.0
 13
1.0
 23
0.0
 33
0.0
 40
0.0
 40
0.0
 40
0.0
 40
0.0
 40
1.0
 40
1.0
 40
1.0
 40
1.0
 10
133.4983861059612
 20
-266.0732119362387
 30
0.0
 10
133.4983861059612
 20
-266.4249319362386
 30
0.0
 10
133.2747248559611
 20
-266.8944794362388
 30
0.0
 10
132.4834448559612
 20
-266.8944794362388
 30
0.0
  0
LWPOLYLINE
  5
12C2
330
2E7C
100
AcDbEntity
  8
TEXT
 62
     5
420
      255
370
    25
100
AcDbPolyline
 90
        2
 70
     0
 43
0.0
 10
132.737091105961
 20
-265.3080369362387
 10
132.737091105961
 20
-265.3161506862386
  0
LWPOLYLINE
  5
12C3
330
2E7C
100
AcDbEntity
  8
TEXT
 62
     5
420
      255
370
    25
100
AcDbPolyline
 90
        4
 70
     0
 43
0.0
 10
132.4834448559612
 20
-266.8944794362388
 10
130.9520361059611
 20
-266.8944794362388
 10
130.9520361059611
 20
-263.8736431862387
 10
130.9520361059611
 20
-263.8736431862387
  0
SPLINE
  5
12C4
330
2E7C
100
AcDbEntity
  8
TEXT
 62
     5
420
      255
370
    25
100
AcDbSpline
210
0.0
220
0.0
230
1.0
 70
     8
 71
     3
 72
     8
 73
     4
 74
     0
 42
0.000000001
 43
0.001
 12
1.0
 22
0.0
 32
0.0
 13
1.0
 23
0.0
 33
0.0
 40
0.0
 40
0.0
 40
0.0
 40
0.0
 40
1.0
 40
1.0
 40
1.0
 40
1.0
 10
130.3198586059612
 20
-264.0045231862386
 30
0.0
 10
129.3461911059612
 20
-264.8589506862388
 30
0.0
 10
128.8935773559612
 20
-265.8453181862387
 30
0.0
 10
128.8473636059611
 20
-266.8733119362386
 30
0.0
  0
LWPOLYLINE
  5
12C9
330
2E7C
100
AcDbEntity
  8
TEXT
 62
     5
420
      255
370
    25
100
AcDbPolyline
 90
        3
 70
     0
 43
0.0
 10
128.2127161059612
 20
-263.8944569362387
 10
130.3198586059612
 20
-263.8944569362387
 10
130.3198586059612
 20
-264.0045231862386
  0
SPLINE
  5
12D6
330
2E7C
100
AcDbEntity
  8
TEXT
 62
     5
420
      255
370
    25
100
AcDbSpline
210
0.0
220
0.0
230
1.0
 70
     8
 71
     3
 72
     8
 73
     4
 74
     0
 42
0.000000001
 43
0.001
 12
1.0
 22
0.0
 32
0.0
 13
1.0
 23
0.0
 33
0.0
 40
0.0
 40
0.0
 40
0.0
 40
0.0
 40
1.0
 40
1.0
 40
1.0
 40
1.0
 10
92.7133948559611
 20
-265.7486569362387
 30
0.0
 10
92.62449485596113
 20
-266.5561656862387
 30
0.0
 10
91.89706610596107
 20
-266.9625656862386
 30
0.0
 10
91.1985661059611
 20
-266.9625656862386
 30
0.0
  0
SPLINE
  5
12D7
330
2E7C
100
AcDbEntity
  8
TEXT
 62
     5
420
      255
370
    25
100
AcDbSpline
210
0.0
220
0.0
230
1.0
 70
     8
 71
     3
 72
     8
 73
     4
 74
     0
 42
0.000000001
 43
0.001
 12
1.0
 22
0.0
 32
0.0
 13
1.0
 23
0.0
 33
0.0
 40
0.0
 40
0.0
 40
0.0
 40
0.0
 40
1.0
 40
1.0
 40
1.0
 40
1.0
 10
91.1985661059611
 20
-266.9625656862386
 30
0.0
 10
90.33531985596125
 20
-266.9625656862386
 30
0.0
 10
89.63329110596118
 20
-266.3829506862386
 30
0.0
 10
89.63329110596118
 20
-265.3845906862386
 30
0.0
  0
SPLINE
  5
12D8
330
2E7C
100
AcDbEntity
  8
TEXT
 62
     5
420
      255
370
    25
100
AcDbSpline
210
0.0
220
0.0
230
1.0
 70
     8
 71
     3
 72
     8
 73
     4
 74
     0
 42
0.000000001
 43
0.001
 12
1.0
 22
0.0
 32
0.0
 13
1.0
 23
0.0
 33
0.0
 40
0.0
 40
0.0
 40
0.0
 40
0.0
 40
1.0
 40
1.0
 40
1.0
 40
1.0
 10
89.63329110596118
 20
-265.3845906862386
 30
0.0
 10
89.63329110596118
 20
-264.3862294362387
 30
0.0
 10
90.33531985596125
 20
-263.8066156862387
 30
0.0
 10
91.1985661059611
 20
-263.8066156862387
 30
0.0
  0
SPLINE
  5
12D9
330
2E7C
100
AcDbEntity
  8
TEXT
 62
     5
420
      255
370
    25
100
AcDbSpline
210
0.0
220
0.0
230
1.0
 70
     8
 71
     3
 72
     8
 73
     4
 74
     0
 42
0.000000001
 43
0.001
 12
1.0
 22
0.0
 32
0.0
 13
1.0
 23
0.0
 33
0.0
 40
0.0
 40
0.0
 40
0.0
 40
0.0
 40
1.0
 40
1.0
 40
1.0
 40
1.0
 10
91.1985661059611
 20
-263.8066156862387
 30
0.0
 10
91.91329485596128
 20
-263.8066156862387
 30
0.0
 10
92.48056110596116
 20
-264.0980094362387
 30
0.0
 10
92.64142735596118
 20
-264.7541756862387
 30
0.0
  0
SPLINE
  5
12DA
330
2E7C
100
AcDbEntity
  8
TEXT
 62
     5
420
      255
370
    25
100
AcDbSpline
210
0.0
220
0.0
230
1.0
 70
     8
 71
     3
 72
     8
 73
     4
 74
     0
 42
0.000000001
 43
0.001
 12
1.0
 22
0.0
 32
0.0
 13
1.0
 23
0.0
 33
0.0
 40
0.0
 40
0.0
 40
0.0
 40
0.0
 40
1.0
 40
1.0
 40
1.0
 40
1.0
 10
89.1013023559612
 20
-264.0052294362387
 30
0.0
 10
88.12763610596113
 20
-264.8596569362387
 30
0.0
 10
87.67502235596118
 20
-265.8460231862386
 30
0.0
 10
87.62880860596118
 20
-266.8740181862387
 30
0.0
  0
LWPOLYLINE
  5
12DB
330
2E7C
100
AcDbEntity
  8
TEXT
 62
     5
420
      255
370
    25
100
AcDbPolyline
 90
        3
 70
     0
 43
0.0
 10
86.99416110596115
 20
-263.8951619362386
 10
89.1013023559612
 20
-263.8951619362386
 10
89.1013023559612
 20
-264.0052294362387
  0
SPLINE
  5
130F
330
2E7C
100
AcDbEntity
  8
TEXT
 62
     5
420
      255
370
    25
100
AcDbSpline
210
0.0
220
0.0
230
1.0
 70
     8
 71
     3
 72
     8
 73
     4
 74
     0
 42
0.000000001
 43
0.001
 12
1.0
 22
0.0
 32
0.0
 13
1.0
 23
0.0
 33
0.0
 40
0.0
 40
0.0
 40
0.0
 40
0.0
 40
1.0
 40
1.0
 40
1.0
 40
1.0
 10
215.7146586059611
 20
-265.7486569362387
 30
0.0
 10
215.6257586059612
 20
-266.5561656862387
 30
0.0
 10
214.8983298559612
 20
-266.9625656862386
 30
0.0
 10
214.1998298559611
 20
-266.9625656862386
 30
0.0
  0
SPLINE
  5
1310
330
2E7C
100
AcDbEntity
  8
TEXT
 62
     5
420
      255
370
    25
100
AcDbSpline
210
0.0
220
0.0
230
1.0
 70
     8
 71
     3
 72
     8
 73
     4
 74
     0
 42
0.000000001
 43
0.001
 12
1.0
 22
0.0
 32
0.0
 13
1.0
 23
0.0
 33
0.0
 40
0.0
 40
0.0
 40
0.0
 40
0.0
 40
1.0
 40
1.0
 40
1.0
 40
1.0
 10
214.1998298559611
 20
-266.9625656862386
 30
0.0
 10
213.3365836059612
 20
-266.9625656862386
 30
0.0
 10
212.6345548559612
 20
-266.3829506862386
 30
0.0
 10
212.6345548559612
 20
-265.3845906862386
 30
0.0
  0
SPLINE
  5
1311
330
2E7C
100
AcDbEntity
  8
TEXT
 62
     5
420
      255
370
    25
100
AcDbSpline
210
0.0
220
0.0
230
1.0
 70
     8
 71
     3
 72
     8
 73
     4
 74
     0
 42
0.000000001
 43
0.001
 12
1.0
 22
0.0
 32
0.0
 13
1.0
 23
0.0
 33
0.0
 40
0.0
 40
0.0
 40
0.0
 40
0.0
 40
1.0
 40
1.0
 40
1.0
 40
1.0
 10
212.6345548559612
 20
-265.3845906862386
 30
0.0
 10
212.6345548559612
 20
-264.3862294362387
 30
0.0
 10
213.3365836059612
 20
-263.8066156862387
 30
0.0
 10
214.1998298559611
 20
-263.8066156862387
 30
0.0
  0
SPLINE
  5
1312
330
2E7C
100
AcDbEntity
  8
TEXT
 62
     5
420
      255
370
    25
100
AcDbSpline
210
0.0
220
0.0
230
1.0
 70
     8
 71
     3
 72
     8
 73
     4
 74
     0
 42
0.000000001
 43
0.001
 12
1.0
 22
0.0
 32
0.0
 13
1.0
 23
0.0
 33
0.0
 40
0.0
 40
0.0
 40
0.0
 40
0.0
 40
1.0
 40
1.0
 40
1.0
 40
1.0
 10
214.1998298559611
 20
-263.8066156862387
 30
0.0
 10
214.9145586059612
 20
-263.8066156862387
 30
0.0
 10
215.4818248559613
 20
-264.0980094362387
 30
0.0
 10
215.6426911059612
 20
-264.7541756862387
 30
0.0
  0
SPLINE
  5
1313
330
2E7C
100
AcDbEntity
  8
TEXT
 62
     5
420
      255
370
    25
100
AcDbSpline
210
0.0
220
0.0
230
1.0
 70
     8
 71
     3
 72
     8
 73
     4
 74
     0
 42
0.000000001
 43
0.001
 12
1.0
 22
0.0
 32
0.0
 13
1.0
 23
0.0
 33
0.0
 40
0.0
 40
0.0
 40
0.0
 40
0.0
 40
1.0
 40
1.0
 40
1.0
 40
1.0
 10
212.1025661059611
 20
-264.0052294362387
 30
0.0
 10
211.1288998559612
 20
-264.8596569362387
 30
0.0
 10
210.6762861059611
 20
-265.8460231862386
 30
0.0
 10
210.6300723559611
 20
-266.8740181862387
 30
0.0
  0
LWPOLYLINE
  5
1315
330
2E7C
100
AcDbEntity
  8
TEXT
 62
     5
420
      255
370
    25
100
AcDbPolyline
 90
        3
 70
     0
 43
0.0
 10
209.9954248559612
 20
-263.8951619362386
 10
212.1025661059611
 20
-263.8951619362386
 10
212.1025661059611
 20
-264.0052294362387
  0
LWPOLYLINE
  5
1779
330
2E7C
100
AcDbEntity
  8
TEXT
 62
     5
420
      255
370
    25
100
AcDbPolyline
 90
        2
 70
     0
 43
0.0
 10
9.791883605961232
 20
-276.4322144362388
 10
7.53657610596116
 20
-276.4322144362388
  0
LWPOLYLINE
  5
177B
330
2E7C
100
AcDbEntity
  8
TEXT
 62
     5
420
      255
370
    25
100
AcDbPolyline
 90
        4
 70
     0
 43
0.0
 10
7.413808605961151
 20
-274.8157856862389
 10
9.791883605961232
 20
-274.8157856862389
 10
9.791883605961232
 20
-277.8369756862389
 10
7.439562355961073
 20
-277.8369756862389
  0
LWPOLYLINE
  5
17CC
330
2E7C
100
AcDbEntity
  8
TEXT
 62
     5
420
      255
370
    25
100
AcDbPolyline
 90
        2
 70
     0
 43
0.0
 10
28.59952610596116
 20
-279.2897144362389
 10
28.59952610596116
 20
-282.336655686239
  0
LWPOLYLINE
  5
17CD
330
2E7C
100
AcDbEntity
  8
TEXT
 62
     5
420
      255
370
    25
100
AcDbPolyline
 90
        2
 70
     0
 43
0.0
 10
29.92103110596116
 20
-282.336655686239
 10
27.29213110596112
 20
-282.336655686239
  0
LWPOLYLINE
  5
17CE
330
2E7C
100
AcDbEntity
  8
TEXT
 62
     5
420
      255
370
    25
100
AcDbPolyline
 90
        3
 70
     0
 43
0.0
 10
34.68494235596125
 20
-279.2897144362389
 10
36.82277610596117
 20
-279.2897144362389
 10
36.82277610596117
 20
-282.336655686239
  0
LWPOLYLINE
  5
17CF
330
2E7C
100
AcDbEntity
  8
TEXT
 62
     5
420
      255
370
    25
100
AcDbPolyline
 90
        3
 70
     0
 43
0.0
 10
31.72548985596114
 20
-279.2897144362389
 10
31.72548985596114
 20
-282.336655686239
 10
29.58730360596115
 20
-282.336655686239
  0
LWPOLYLINE
  5
17D0
330
2E7C
100
AcDbEntity
  8
TEXT
 62
     5
420
      255
370
    25
100
AcDbPolyline
 90
        2
 70
     0
 43
0.0
 10
31.72548985596114
 20
-280.9188419362389
 10
29.71148110596113
 20
-280.9188419362389
  0
LWPOLYLINE
  5
17D1
330
2E7C
100
AcDbEntity
  8
TEXT
 62
     5
420
      255
370
    25
100
AcDbPolyline
 90
        2
 70
     0
 43
0.0
 10
34.3914311059612
 20
-280.9188419362389
 10
32.11671985596109
 20
-280.9188419362389
  0
LWPOLYLINE
  5
17D3
330
2E7C
100
AcDbEntity
  8
TEXT
 62
     5
420
      255
370
    25
100
AcDbPolyline
 90
        4
 70
     0
 43
0.0
 10
31.9928948559612
 20
-279.2897144362389
 10
34.3914311059612
 20
-279.2897144362389
 10
34.3914311059612
 20
-282.336655686239
 10
32.01900110596108
 20
-282.336655686239
  0
LWPOLYLINE
  5
17D5
330
2E7C
100
AcDbEntity
  8
TEXT
 62
     5
420
      255
370
    25
100
AcDbPolyline
 90
        2
 70
     0
 43
0.0
 10
34.1617723559612
 20
-276.357778186239
 10
31.9068173559611
 20
-276.357778186239
  0
LWPOLYLINE
  5
17D7
330
2E7C
100
AcDbEntity
  8
TEXT
 62
     5
420
      255
370
    25
100
AcDbPolyline
 90
        4
 70
     0
 43
0.0
 10
31.78475610596121
 20
-274.7417031862389
 10
34.1617723559612
 20
-274.7417031862389
 10
34.1617723559612
 20
-277.7628919362389
 10
31.8101561059612
 20
-277.7628919362389
  0
LWPOLYLINE
  5
2AA7
330
2E7C
100
AcDbEntity
  8
TEXT
 62
     5
420
      255
370
    25
100
AcDbPolyline
 90
        2
 70
     0
 43
0.0
 10
9.791883605961232
 20
-205.3058994362389
 10
7.53657610596116
 20
-205.3058994362389
  0
LWPOLYLINE
  5
2AA8
330
2E7C
100
AcDbEntity
  8
TEXT
 62
     5
420
      255
370
    25
100
AcDbPolyline
 90
        4
 70
     0
 43
0.0
 10
7.413808605961151
 20
-203.6894706862391
 10
9.791883605961232
 20
-203.6894706862391
 10
9.791883605961232
 20
-206.710660686239
 10
7.439562355961073
 20
-206.710660686239
  0
LWPOLYLINE
  5
2AC6
330
2E7C
100
AcDbEntity
  8
TEXT
 62
     5
420
      255
370
    25
100
AcDbPolyline
 90
        2
 70
     0
 43
0.0
 10
173.7376298559611
 20
-194.1863081862389
 10
171.9522223559612
 20
-194.1827806862388
  0
SPLINE
  5
2AC8
330
2E7C
100
AcDbEntity
  8
TEXT
 62
     5
420
      255
370
    25
100
AcDbSpline
210
0.0
220
0.0
230
1.0
 70
     8
 71
     3
 72
     8
 73
     4
 74
     0
 42
0.000000001
 43
0.001
 12
1.0
 22
0.0
 32
0.0
 13
1.0
 23
0.0
 33
0.0
 40
0.0
 40
0.0
 40
0.0
 40
0.0
 40
1.0
 40
1.0
 40
1.0
 40
1.0
 10
173.5936973559612
 20
-192.7476806862388
 30
0.0
 10
174.0717111059611
 20
-192.7476806862388
 30
0.0
 10
174.4057911059611
 20
-193.0055606862389
 30
0.0
 10
174.4057911059611
 20
-193.4966281862388
 30
0.0
  0
SPLINE
  5
2AC9
330
2E7C
100
AcDbEntity
  8
TEXT
 62
     5
420
      255
370
    25
100
AcDbSpline
210
0.0
220
0.0
230
1.0
 70
     8
 71
     3
 72
     8
 73
     4
 74
     0
 42
0.000000001
 43
0.001
 12
1.0
 22
0.0
 32
0.0
 13
1.0
 23
0.0
 33
0.0
 40
0.0
 40
0.0
 40
0.0
 40
0.0
 40
1.0
 40
1.0
 40
1.0
 40
1.0
 10
174.4057911059611
 20
-193.4966281862388
 30
0.0
 10
174.4057911059611
 20
-193.8518756862389
 30
0.0
 10
174.0932298559612
 20
-194.1901894362389
 30
0.0
 10
173.7372773559611
 20
-194.1820756862388
 30
0.0
  0
LWPOLYLINE
  5
2ACB
330
2E7C
100
AcDbEntity
  8
TEXT
 62
     5
420
      255
370
    25
100
AcDbPolyline
 90
        2
 70
     0
 43
0.0
 10
171.9522223559612
 20
-192.7476806862388
 10
173.5936973559612
 20
-192.7476806862388
  0
SPLINE
  5
2ACC
330
2E7C
100
AcDbEntity
  8
TEXT
 62
     5
420
      255
370
    25
100
AcDbSpline
210
0.0
220
0.0
230
1.0
 70
     8
 71
     3
 72
     8
 73
     4
 74
     0
 42
0.000000001
 43
0.001
 12
1.0
 22
0.0
 32
0.0
 13
1.0
 23
0.0
 33
0.0
 40
0.0
 40
0.0
 40
0.0
 40
0.0
 40
1.0
 40
1.0
 40
1.0
 40
1.0
 10
173.7372773559611
 20
-194.1901894362389
 30
0.0
 10
174.1306248559612
 20
-194.2071219362388
 30
0.0
 10
174.4985723559612
 20
-194.4184356862389
 30
0.0
 10
174.4985723559612
 20
-194.9472506862389
 30
0.0
  0
SPLINE
  5
2ACE
330
2E7C
100
AcDbEntity
  8
TEXT
 62
     5
420
      255
370
    25
100
AcDbSpline
210
0.0
220
0.0
230
1.0
 70
     8
 71
     3
 72
     8
 73
     4
 74
     0
 42
0.000000001
 43
0.001
 12
1.0
 22
0.0
 32
0.0
 13
1.0
 23
0.0
 33
0.0
 40
0.0
 40
0.0
 40
0.0
 40
0.0
 40
1.0
 40
1.0
 40
1.0
 40
1.0
 10
174.4985723559612
 20
-194.9472506862389
 30
0.0
 10
174.4985723559612
 20
-195.2989694362389
 30
0.0
 10
174.2745586059612
 20
-195.7685169362389
 30
0.0
 10
173.4836298559612
 20
-195.7685169362389
 30
0.0
  0
LWPOLYLINE
  5
2ACF
330
2E7C
100
AcDbEntity
  8
TEXT
 62
     5
420
      255
370
    25
100
AcDbPolyline
 90
        2
 70
     0
 43
0.0
 10
173.7372773559611
 20
-194.1820756862388
 10
173.7372773559611
 20
-194.1901894362389
  0
LWPOLYLINE
  5
2AD1
330
2E7C
100
AcDbEntity
  8
TEXT
 62
     5
420
      255
370
    25
100
AcDbPolyline
 90
        4
 70
     0
 43
0.0
 10
173.4836298559612
 20
-195.7685169362389
 10
171.9518698559612
 20
-195.7685169362389
 10
171.9518698559612
 20
-192.7476806862388
 10
171.9522223559612
 20
-192.7476806862388
  0
SPLINE
  5
2AD2
330
2E7C
100
AcDbEntity
  8
TEXT
 62
     5
420
      255
370
    25
100
AcDbSpline
210
0.0
220
0.0
230
1.0
 70
     8
 71
     3
 72
     8
 73
     4
 74
     0
 42
0.000000001
 43
0.001
 12
1.0
 22
0.0
 32
0.0
 13
1.0
 23
0.0
 33
0.0
 40
0.0
 40
0.0
 40
0.0
 40
0.0
 40
1.0
 40
1.0
 40
1.0
 40
1.0
 10
171.3200448559612
 20
-192.8785606862389
 30
0.0
 10
170.3463773559611
 20
-193.7329894362388
 30
0.0
 10
169.8937636059612
 20
-194.7193556862388
 30
0.0
 10
169.8475498559612
 20
-195.7473506862389
 30
0.0
  0
LWPOLYLINE
  5
2AD4
330
2E7C
100
AcDbEntity
  8
TEXT
 62
     5
420
      255
370
    25
100
AcDbPolyline
 90
        3
 70
     0
 43
0.0
 10
169.2132548559612
 20
-192.7684944362388
 10
171.3200448559612
 20
-192.7684944362388
 10
171.3200448559612
 20
-192.8785606862389
  0
LWPOLYLINE
  5
2AD5
330
2E7C
100
AcDbEntity
  8
TEXT
 62
     5
420
      255
370
    25
100
AcDbPolyline
 90
        2
 70
     0
 43
0.0
 10
132.737091105961
 20
-194.1859556862387
 10
130.9520361059611
 20
-194.1824281862388
  0
SPLINE
  5
2AD7
330
2E7C
100
AcDbEntity
  8
TEXT
 62
     5
420
      255
370
    25
100
AcDbSpline
210
0.0
220
0.0
230
1.0
 70
     8
 71
     3
 72
     8
 73
     4
 74
     0
 42
0.000000001
 43
0.001
 12
1.0
 22
0.0
 32
0.0
 13
1.0
 23
0.0
 33
0.0
 40
0.0
 40
0.0
 40
0.0
 40
0.0
 40
1.0
 40
1.0
 40
1.0
 40
1.0
 10
132.5931586059612
 20
-192.7473281862388
 30
0.0
 10
133.0711723559612
 20
-192.7473281862388
 30
0.0
 10
133.4056048559613
 20
-193.0052081862389
 30
0.0
 10
133.4056048559613
 20
-193.4962756862388
 30
0.0
  0
SPLINE
  5
2AD8
330
2E7C
100
AcDbEntity
  8
TEXT
 62
     5
420
      255
370
    25
100
AcDbSpline
210
0.0
220
0.0
230
1.0
 70
     8
 71
     3
 72
     8
 73
     4
 74
     0
 42
0.000000001
 43
0.001
 12
1.0
 22
0.0
 32
0.0
 13
1.0
 23
0.0
 33
0.0
 40
0.0
 40
0.0
 40
0.0
 40
0.0
 40
1.0
 40
1.0
 40
1.0
 40
1.0
 10
133.4056048559613
 20
-193.4962756862388
 30
0.0
 10
133.4056048559613
 20
-193.8515219362388
 30
0.0
 10
133.0926911059611
 20
-194.1898356862387
 30
0.0
 10
132.737091105961
 20
-194.1817219362388
 30
0.0
  0
LWPOLYLINE
  5
2ADA
330
2E7C
100
AcDbEntity
  8
TEXT
 62
     5
420
      255
370
    25
100
AcDbPolyline
 90
        2
 70
     0
 43
0.0
 10
130.9520361059611
 20
-192.7473281862388
 10
132.5931586059612
 20
-192.7473281862388
  0
SPLINE
  5
2ADB
330
2E7C
100
AcDbEntity
  8
TEXT
 62
     5
420
      255
370
    25
100
AcDbSpline
210
0.0
220
0.0
230
1.0
 70
     8
 71
     3
 72
     8
 73
     4
 74
     0
 42
0.000000001
 43
0.001
 12
1.0
 22
0.0
 32
0.0
 13
1.0
 23
0.0
 33
0.0
 40
0.0
 40
0.0
 40
0.0
 40
0.0
 40
1.0
 40
1.0
 40
1.0
 40
1.0
 10
132.737091105961
 20
-194.1898356862387
 30
0.0
 10
133.1304386059612
 20
-194.2067694362389
 30
0.0
 10
133.4983861059612
 20
-194.4180831862388
 30
0.0
 10
133.4983861059612
 20
-194.9468969362388
 30
0.0
  0
SPLINE
  5
2ADD
330
2E7C
100
AcDbEntity
  8
TEXT
 62
     5
420
      255
370
    25
100
AcDbSpline
210
0.0
220
0.0
230
1.0
 70
     8
 71
     3
 72
     8
 73
     4
 74
     0
 42
0.000000001
 43
0.001
 12
1.0
 22
0.0
 32
0.0
 13
1.0
 23
0.0
 33
0.0
 40
0.0
 40
0.0
 40
0.0
 40
0.0
 40
1.0
 40
1.0
 40
1.0
 40
1.0
 10
133.4983861059612
 20
-194.9468969362388
 30
0.0
 10
133.4983861059612
 20
-195.2986169362387
 30
0.0
 10
133.2747248559611
 20
-195.7681644362389
 30
0.0
 10
132.4834448559612
 20
-195.7681644362389
 30
0.0
  0
LWPOLYLINE
  5
2ADE
330
2E7C
100
AcDbEntity
  8
TEXT
 62
     5
420
      255
370
    25
100
AcDbPolyline
 90
        2
 70
     0
 43
0.0
 10
132.737091105961
 20
-194.1817219362388
 10
132.737091105961
 20
-194.1898356862387
  0
LWPOLYLINE
  5
2AE0
330
2E7C
100
AcDbEntity
  8
TEXT
 62
     5
420
      255
370
    25
100
AcDbPolyline
 90
        4
 70
     0
 43
0.0
 10
132.4834448559612
 20
-195.7681644362389
 10
130.9520361059611
 20
-195.7681644362389
 10
130.9520361059611
 20
-192.7473281862388
 10
130.9520361059611
 20
-192.7473281862388
  0
SPLINE
  5
2AE1
330
2E7C
100
AcDbEntity
  8
TEXT
 62
     5
420
      255
370
    25
100
AcDbSpline
210
0.0
220
0.0
230
1.0
 70
     8
 71
     3
 72
     8
 73
     4
 74
     0
 42
0.000000001
 43
0.001
 12
1.0
 22
0.0
 32
0.0
 13
1.0
 23
0.0
 33
0.0
 40
0.0
 40
0.0
 40
0.0
 40
0.0
 40
1.0
 40
1.0
 40
1.0
 40
1.0
 10
130.3198586059612
 20
-192.8782081862387
 30
0.0
 10
129.3461911059612
 20
-193.7326356862389
 30
0.0
 10
128.8935773559612
 20
-194.7190031862388
 30
0.0
 10
128.8473636059611
 20
-195.7469969362388
 30
0.0
  0
LWPOLYLINE
  5
2AE7
330
2E7C
100
AcDbEntity
  8
TEXT
 62
     5
420
      255
370
    25
100
AcDbPolyline
 90
        2
 70
     0
 43
0.0
 10
28.59952610596116
 20
-208.163399436239
 10
28.59952610596116
 20
-211.2103406862391
  0
LWPOLYLINE
  5
2AE9
330
2E7C
100
AcDbEntity
  8
TEXT
 62
     5
420
      255
370
    25
100
AcDbPolyline
 90
        2
 70
     0
 43
0.0
 10
29.92103110596116
 20
-211.2103406862391
 10
27.29213110596112
 20
-211.2103406862391
  0
LWPOLYLINE
  5
2AEA
330
2E7C
100
AcDbEntity
  8
TEXT
 62
     5
420
      255
370
    25
100
AcDbPolyline
 90
        3
 70
     0
 43
0.0
 10
128.2127161059612
 20
-192.7681419362388
 10
130.3198586059612
 20
-192.7681419362388
 10
130.3198586059612
 20
-192.8782081862387
  0
LWPOLYLINE
  5
2AEB
330
2E7C
100
AcDbEntity
  8
TEXT
 62
     5
420
      255
370
    25
100
AcDbPolyline
 90
        3
 70
     0
 43
0.0
 10
34.68494235596125
 20
-208.163399436239
 10
36.82277610596117
 20
-208.163399436239
 10
36.82277610596117
 20
-211.2103406862391
  0
LWPOLYLINE
  5
2AED
330
2E7C
100
AcDbEntity
  8
TEXT
 62
     5
420
      255
370
    25
100
AcDbPolyline
 90
        3
 70
     0
 43
0.0
 10
31.72548985596114
 20
-208.163399436239
 10
31.72548985596114
 20
-211.2103406862391
 10
29.58730360596115
 20
-211.2103406862391
  0
LWPOLYLINE
  5
2AEF
330
2E7C
100
AcDbEntity
  8
TEXT
 62
     5
420
      255
370
    25
100
AcDbPolyline
 90
        2
 70
     0
 43
0.0
 10
31.72548985596114
 20
-209.7925269362391
 10
29.71148110596113
 20
-209.7925269362391
  0
LWPOLYLINE
  5
2AF1
330
2E7C
100
AcDbEntity
  8
TEXT
 62
     5
420
      255
370
    25
100
AcDbPolyline
 90
        2
 70
     0
 43
0.0
 10
34.3914311059612
 20
-209.7925269362391
 10
32.11671985596109
 20
-209.7925269362391
  0
LWPOLYLINE
  5
2AF4
330
2E7C
100
AcDbEntity
  8
TEXT
 62
     5
420
      255
370
    25
100
AcDbPolyline
 90
        4
 70
     0
 43
0.0
 10
31.9928948559612
 20
-208.163399436239
 10
34.3914311059612
 20
-208.163399436239
 10
34.3914311059612
 20
-211.2103406862391
 10
32.01900110596108
 20
-211.2103406862391
  0
LWPOLYLINE
  5
2AF7
330
2E7C
100
AcDbEntity
  8
TEXT
 62
     5
420
      255
370
    25
100
AcDbPolyline
 90
        2
 70
     0
 43
0.0
 10
34.1617723559612
 20
-205.2314631862392
 10
31.9068173559611
 20
-205.2314631862392
  0
LWPOLYLINE
  5
2AFA
330
2E7C
100
AcDbEntity
  8
TEXT
 62
     5
420
      255
370
    25
100
AcDbPolyline
 90
        4
 70
     0
 43
0.0
 10
31.78475610596121
 20
-203.615388186239
 10
34.1617723559612
 20
-203.615388186239
 10
34.1617723559612
 20
-206.636576936239
 10
31.8101561059612
 20
-206.636576936239
  0
SPLINE
  5
2AFF
330
2E7C
100
AcDbEntity
  8
TEXT
 62
     5
420
      255
370
    25
100
AcDbSpline
210
0.0
220
0.0
230
1.0
 70
     8
 71
     3
 72
     8
 73
     4
 74
     0
 42
0.000000001
 43
0.001
 12
1.0
 22
0.0
 32
0.0
 13
1.0
 23
0.0
 33
0.0
 40
0.0
 40
0.0
 40
0.0
 40
0.0
 40
1.0
 40
1.0
 40
1.0
 40
1.0
 10
92.7133948559611
 20
-194.6223419362388
 30
0.0
 10
92.62449485596113
 20
-195.4298506862388
 30
0.0
 10
91.89706610596107
 20
-195.8362506862388
 30
0.0
 10
91.1985661059611
 20
-195.8362506862388
 30
0.0
  0
SPLINE
  5
2B00
330
2E7C
100
AcDbEntity
  8
TEXT
 62
     5
420
      255
370
    25
100
AcDbSpline
210
0.0
220
0.0
230
1.0
 70
     8
 71
     3
 72
     8
 73
     4
 74
     0
 42
0.000000001
 43
0.001
 12
1.0
 22
0.0
 32
0.0
 13
1.0
 23
0.0
 33
0.0
 40
0.0
 40
0.0
 40
0.0
 40
0.0
 40
1.0
 40
1.0
 40
1.0
 40
1.0
 10
91.1985661059611
 20
-195.8362506862388
 30
0.0
 10
90.33531985596125
 20
-195.8362506862388
 30
0.0
 10
89.63329110596118
 20
-195.2566356862388
 30
0.0
 10
89.63329110596118
 20
-194.2582756862387
 30
0.0
  0
SPLINE
  5
2B01
330
2E7C
100
AcDbEntity
  8
TEXT
 62
     5
420
      255
370
    25
100
AcDbSpline
210
0.0
220
0.0
230
1.0
 70
     8
 71
     3
 72
     8
 73
     4
 74
     0
 42
0.000000001
 43
0.001
 12
1.0
 22
0.0
 32
0.0
 13
1.0
 23
0.0
 33
0.0
 40
0.0
 40
0.0
 40
0.0
 40
0.0
 40
1.0
 40
1.0
 40
1.0
 40
1.0
 10
89.63329110596118
 20
-194.2582756862387
 30
0.0
 10
89.63329110596118
 20
-193.2599144362388
 30
0.0
 10
90.33531985596125
 20
-192.6803006862388
 30
0.0
 10
91.1985661059611
 20
-192.6803006862388
 30
0.0
  0
SPLINE
  5
2B02
330
2E7C
100
AcDbEntity
  8
TEXT
 62
     5
420
      255
370
    25
100
AcDbSpline
210
0.0
220
0.0
230
1.0
 70
     8
 71
     3
 72
     8
 73
     4
 74
     0
 42
0.000000001
 43
0.001
 12
1.0
 22
0.0
 32
0.0
 13
1.0
 23
0.0
 33
0.0
 40
0.0
 40
0.0
 40
0.0
 40
0.0
 40
1.0
 40
1.0
 40
1.0
 40
1.0
 10
91.1985661059611
 20
-192.6803006862388
 30
0.0
 10
91.91329485596128
 20
-192.6803006862388
 30
0.0
 10
92.48056110596116
 20
-192.9716944362388
 30
0.0
 10
92.64142735596118
 20
-193.6278606862389
 30
0.0
  0
SPLINE
  5
2B03
330
2E7C
100
AcDbEntity
  8
TEXT
 62
     5
420
      255
370
    25
100
AcDbSpline
210
0.0
220
0.0
230
1.0
 70
     8
 71
     3
 72
     8
 73
     4
 74
     0
 42
0.000000001
 43
0.001
 12
1.0
 22
0.0
 32
0.0
 13
1.0
 23
0.0
 33
0.0
 40
0.0
 40
0.0
 40
0.0
 40
0.0
 40
1.0
 40
1.0
 40
1.0
 40
1.0
 10
89.1013023559612
 20
-192.8789144362389
 30
0.0
 10
88.12763610596113
 20
-193.7333419362388
 30
0.0
 10
87.67502235596118
 20
-194.7197081862387
 30
0.0
 10
87.62880860596118
 20
-195.7477031862389
 30
0.0
  0
LWPOLYLINE
  5
2B04
330
2E7C
100
AcDbEntity
  8
TEXT
 62
     5
420
      255
370
    25
100
AcDbPolyline
 90
        3
 70
     0
 43
0.0
 10
86.99416110596115
 20
-192.7688469362387
 10
89.1013023559612
 20
-192.7688469362387
 10
89.1013023559612
 20
-192.8789144362389
  0
SPLINE
  5
2B38
330
2E7C
100
AcDbEntity
  8
TEXT
 62
     5
420
      255
370
    25
100
AcDbSpline
210
0.0
220
0.0
230
1.0
 70
     8
 71
     3
 72
     8
 73
     4
 74
     0
 42
0.000000001
 43
0.001
 12
1.0
 22
0.0
 32
0.0
 13
1.0
 23
0.0
 33
0.0
 40
0.0
 40
0.0
 40
0.0
 40
0.0
 40
1.0
 40
1.0
 40
1.0
 40
1.0
 10
215.7146586059611
 20
-194.6223419362388
 30
0.0
 10
215.6257586059612
 20
-195.4298506862388
 30
0.0
 10
214.8983298559612
 20
-195.8362506862388
 30
0.0
 10
214.1998298559611
 20
-195.8362506862388
 30
0.0
  0
SPLINE
  5
2B39
330
2E7C
100
AcDbEntity
  8
TEXT
 62
     5
420
      255
370
    25
100
AcDbSpline
210
0.0
220
0.0
230
1.0
 70
     8
 71
     3
 72
     8
 73
     4
 74
     0
 42
0.000000001
 43
0.001
 12
1.0
 22
0.0
 32
0.0
 13
1.0
 23
0.0
 33
0.0
 40
0.0
 40
0.0
 40
0.0
 40
0.0
 40
1.0
 40
1.0
 40
1.0
 40
1.0
 10
214.1998298559611
 20
-195.8362506862388
 30
0.0
 10
213.3365836059612
 20
-195.8362506862388
 30
0.0
 10
212.6345548559612
 20
-195.2566356862388
 30
0.0
 10
212.6345548559612
 20
-194.2582756862387
 30
0.0
  0
SPLINE
  5
2B3A
330
2E7C
100
AcDbEntity
  8
TEXT
 62
     5
420
      255
370
    25
100
AcDbSpline
210
0.0
220
0.0
230
1.0
 70
     8
 71
     3
 72
     8
 73
     4
 74
     0
 42
0.000000001
 43
0.001
 12
1.0
 22
0.0
 32
0.0
 13
1.0
 23
0.0
 33
0.0
 40
0.0
 40
0.0
 40
0.0
 40
0.0
 40
1.0
 40
1.0
 40
1.0
 40
1.0
 10
212.6345548559612
 20
-194.2582756862387
 30
0.0
 10
212.6345548559612
 20
-193.2599144362388
 30
0.0
 10
213.3365836059612
 20
-192.6803006862388
 30
0.0
 10
214.1998298559611
 20
-192.6803006862388
 30
0.0
  0
SPLINE
  5
2B3B
330
2E7C
100
AcDbEntity
  8
TEXT
 62
     5
420
      255
370
    25
100
AcDbSpline
210
0.0
220
0.0
230
1.0
 70
     8
 71
     3
 72
     8
 73
     4
 74
     0
 42
0.000000001
 43
0.001
 12
1.0
 22
0.0
 32
0.0
 13
1.0
 23
0.0
 33
0.0
 40
0.0
 40
0.0
 40
0.0
 40
0.0
 40
1.0
 40
1.0
 40
1.0
 40
1.0
 10
214.1998298559611
 20
-192.6803006862388
 30
0.0
 10
214.9145586059612
 20
-192.6803006862388
 30
0.0
 10
215.4818248559613
 20
-192.9716944362388
 30
0.0
 10
215.6426911059612
 20
-193.6278606862389
 30
0.0
  0
SPLINE
  5
2B3C
330
2E7C
100
AcDbEntity
  8
TEXT
 62
     5
420
      255
370
    25
100
AcDbSpline
210
0.0
220
0.0
230
1.0
 70
     8
 71
     3
 72
     8
 73
     4
 74
     0
 42
0.000000001
 43
0.001
 12
1.0
 22
0.0
 32
0.0
 13
1.0
 23
0.0
 33
0.0
 40
0.0
 40
0.0
 40
0.0
 40
0.0
 40
1.0
 40
1.0
 40
1.0
 40
1.0
 10
212.1025661059611
 20
-192.8789144362389
 30
0.0
 10
211.1288998559612
 20
-193.7333419362388
 30
0.0
 10
210.6762861059611
 20
-194.7197081862387
 30
0.0
 10
210.6300723559611
 20
-195.7477031862389
 30
0.0
  0
LWPOLYLINE
  5
2B3E
330
2E7C
100
AcDbEntity
  8
TEXT
 62
     5
420
      255
370
    25
100
AcDbPolyline
 90
        3
 70
     0
 43
0.0
 10
209.9954248559612
 20
-192.7688469362387
 10
212.1025661059611
 20
-192.7688469362387
 10
212.1025661059611
 20
-192.8789144362389
  0
SPLINE
  5
2B4A
330
2E7C
100
AcDbEntity
  8
TEXT
 62
     5
420
      255
370
    25
100
AcDbSpline
210
0.0
220
0.0
230
1.0
 70
     8
 71
     3
 72
     8
 73
     4
 74
     0
 42
0.000000001
 43
0.001
 12
1.0
 22
0.0
 32
0.0
 13
1.0
 23
0.0
 33
0.0
 40
0.0
 40
0.0
 40
0.0
 40
0.0
 40
1.0
 40
1.0
 40
1.0
 40
1.0
 10
214.1998298559611
 20
-124.7099356862389
 30
0.0
 10
213.3365836059612
 20
-124.7099356862389
 30
0.0
 10
212.6345548559612
 20
-124.1303206862389
 30
0.0
 10
212.6345548559612
 20
-123.1319606862389
 30
0.0
  0
SPLINE
  5
2B4B
330
2E7C
100
AcDbEntity
  8
TEXT
 62
     5
420
      255
370
    25
100
AcDbSpline
210
0.0
220
0.0
230
1.0
 70
     8
 71
     3
 72
     8
 73
     4
 74
     0
 42
0.000000001
 43
0.001
 12
1.0
 22
0.0
 32
0.0
 13
1.0
 23
0.0
 33
0.0
 40
0.0
 40
0.0
 40
0.0
 40
0.0
 40
1.0
 40
1.0
 40
1.0
 40
1.0
 10
212.6345548559612
 20
-123.1319606862389
 30
0.0
 10
212.6345548559612
 20
-122.133599436239
 30
0.0
 10
213.3365836059612
 20
-121.5539856862389
 30
0.0
 10
214.1998298559611
 20
-121.5539856862389
 30
0.0
  0
SPLINE
  5
2B4C
330
2E7C
100
AcDbEntity
  8
TEXT
 62
     5
420
      255
370
    25
100
AcDbSpline
210
0.0
220
0.0
230
1.0
 70
     8
 71
     3
 72
     8
 73
     4
 74
     0
 42
0.000000001
 43
0.001
 12
1.0
 22
0.0
 32
0.0
 13
1.0
 23
0.0
 33
0.0
 40
0.0
 40
0.0
 40
0.0
 40
0.0
 40
1.0
 40
1.0
 40
1.0
 40
1.0
 10
214.1998298559611
 20
-121.5539856862389
 30
0.0
 10
214.9145586059612
 20
-121.5539856862389
 30
0.0
 10
215.4818248559613
 20
-121.8453794362389
 30
0.0
 10
215.6426911059612
 20
-122.501545686239
 30
0.0
  0
SPLINE
  5
2B4D
330
2E7C
100
AcDbEntity
  8
TEXT
 62
     5
420
      255
370
    25
100
AcDbSpline
210
0.0
220
0.0
230
1.0
 70
     8
 71
     3
 72
     8
 73
     4
 74
     0
 42
0.000000001
 43
0.001
 12
1.0
 22
0.0
 32
0.0
 13
1.0
 23
0.0
 33
0.0
 40
0.0
 40
0.0
 40
0.0
 40
0.0
 40
1.0
 40
1.0
 40
1.0
 40
1.0
 10
212.1025661059611
 20
-121.752599436239
 30
0.0
 10
211.1288998559612
 20
-122.6070269362389
 30
0.0
 10
210.6762861059611
 20
-123.5933931862389
 30
0.0
 10
210.6300723559611
 20
-124.621388186239
 30
0.0
  0
LWPOLYLINE
  5
2B4F
330
2E7C
100
AcDbEntity
  8
TEXT
 62
     5
420
      255
370
    25
100
AcDbPolyline
 90
        3
 70
     0
 43
0.0
 10
209.9954248559612
 20
-121.6425319362389
 10
212.1025661059611
 20
-121.6425319362389
 10
212.1025661059611
 20
-121.752599436239
  0
LWPOLYLINE
  5
2B9C
330
2E7C
100
AcDbEntity
  8
TEXT
 62
     5
420
      255
370
    25
100
AcDbPolyline
 90
        2
 70
     0
 43
0.0
 10
9.791883605961232
 20
-134.1795844362391
 10
7.53657610596116
 20
-134.1795844362391
  0
LWPOLYLINE
  5
2B9D
330
2E7C
100
AcDbEntity
  8
TEXT
 62
     5
420
      255
370
    25
100
AcDbPolyline
 90
        4
 70
     0
 43
0.0
 10
7.413808605961151
 20
-132.5631556862392
 10
9.791883605961232
 20
-132.5631556862392
 10
9.791883605961232
 20
-135.5843456862391
 10
7.439562355961073
 20
-135.5843456862391
  0
LWPOLYLINE
  5
2BBB
330
2E7C
100
AcDbEntity
  8
TEXT
 62
     5
420
      255
370
    25
100
AcDbPolyline
 90
        2
 70
     0
 43
0.0
 10
173.7376298559611
 20
-123.0599931862391
 10
171.9522223559612
 20
-123.0564656862389
  0
SPLINE
  5
2BBD
330
2E7C
100
AcDbEntity
  8
TEXT
 62
     5
420
      255
370
    25
100
AcDbSpline
210
0.0
220
0.0
230
1.0
 70
     8
 71
     3
 72
     8
 73
     4
 74
     0
 42
0.000000001
 43
0.001
 12
1.0
 22
0.0
 32
0.0
 13
1.0
 23
0.0
 33
0.0
 40
0.0
 40
0.0
 40
0.0
 40
0.0
 40
1.0
 40
1.0
 40
1.0
 40
1.0
 10
173.5936973559612
 20
-121.6213656862389
 30
0.0
 10
174.0717111059611
 20
-121.6213656862389
 30
0.0
 10
174.4057911059611
 20
-121.879245686239
 30
0.0
 10
174.4057911059611
 20
-122.3703131862389
 30
0.0
  0
SPLINE
  5
2BBE
330
2E7C
100
AcDbEntity
  8
TEXT
 62
     5
420
      255
370
    25
100
AcDbSpline
210
0.0
220
0.0
230
1.0
 70
     8
 71
     3
 72
     8
 73
     4
 74
     0
 42
0.000000001
 43
0.001
 12
1.0
 22
0.0
 32
0.0
 13
1.0
 23
0.0
 33
0.0
 40
0.0
 40
0.0
 40
0.0
 40
0.0
 40
1.0
 40
1.0
 40
1.0
 40
1.0
 10
174.4057911059611
 20
-122.3703131862389
 30
0.0
 10
174.4057911059611
 20
-122.725560686239
 30
0.0
 10
174.0932298559612
 20
-123.063874436239
 30
0.0
 10
173.7372773559611
 20
-123.0557606862389
 30
0.0
  0
LWPOLYLINE
  5
2BC0
330
2E7C
100
AcDbEntity
  8
TEXT
 62
     5
420
      255
370
    25
100
AcDbPolyline
 90
        2
 70
     0
 43
0.0
 10
171.9522223559612
 20
-121.6213656862389
 10
173.5936973559612
 20
-121.6213656862389
  0
SPLINE
  5
2BC1
330
2E7C
100
AcDbEntity
  8
TEXT
 62
     5
420
      255
370
    25
100
AcDbSpline
210
0.0
220
0.0
230
1.0
 70
     8
 71
     3
 72
     8
 73
     4
 74
     0
 42
0.000000001
 43
0.001
 12
1.0
 22
0.0
 32
0.0
 13
1.0
 23
0.0
 33
0.0
 40
0.0
 40
0.0
 40
0.0
 40
0.0
 40
1.0
 40
1.0
 40
1.0
 40
1.0
 10
173.7372773559611
 20
-123.063874436239
 30
0.0
 10
174.1306248559612
 20
-123.080806936239
 30
0.0
 10
174.4985723559612
 20
-123.292120686239
 30
0.0
 10
174.4985723559612
 20
-123.820935686239
 30
0.0
  0
SPLINE
  5
2BC3
330
2E7C
100
AcDbEntity
  8
TEXT
 62
     5
420
      255
370
    25
100
AcDbSpline
210
0.0
220
0.0
230
1.0
 70
     8
 71
     3
 72
     8
 73
     4
 74
     0
 42
0.000000001
 43
0.001
 12
1.0
 22
0.0
 32
0.0
 13
1.0
 23
0.0
 33
0.0
 40
0.0
 40
0.0
 40
0.0
 40
0.0
 40
1.0
 40
1.0
 40
1.0
 40
1.0
 10
174.4985723559612
 20
-123.820935686239
 30
0.0
 10
174.4985723559612
 20
-124.172654436239
 30
0.0
 10
174.2745586059612
 20
-124.642201936239
 30
0.0
 10
173.4836298559612
 20
-124.642201936239
 30
0.0
  0
LWPOLYLINE
  5
2BC4
330
2E7C
100
AcDbEntity
  8
TEXT
 62
     5
420
      255
370
    25
100
AcDbPolyline
 90
        2
 70
     0
 43
0.0
 10
173.7372773559611
 20
-123.0557606862389
 10
173.7372773559611
 20
-123.063874436239
  0
LWPOLYLINE
  5
2BC6
330
2E7C
100
AcDbEntity
  8
TEXT
 62
     5
420
      255
370
    25
100
AcDbPolyline
 90
        4
 70
     0
 43
0.0
 10
173.4836298559612
 20
-124.642201936239
 10
171.9518698559612
 20
-124.642201936239
 10
171.9518698559612
 20
-121.6213656862389
 10
171.9522223559612
 20
-121.6213656862389
  0
SPLINE
  5
2BC7
330
2E7C
100
AcDbEntity
  8
TEXT
 62
     5
420
      255
370
    25
100
AcDbSpline
210
0.0
220
0.0
230
1.0
 70
     8
 71
     3
 72
     8
 73
     4
 74
     0
 42
0.000000001
 43
0.001
 12
1.0
 22
0.0
 32
0.0
 13
1.0
 23
0.0
 33
0.0
 40
0.0
 40
0.0
 40
0.0
 40
0.0
 40
1.0
 40
1.0
 40
1.0
 40
1.0
 10
171.3200448559612
 20
-121.7522456862391
 30
0.0
 10
170.3463773559611
 20
-122.606674436239
 30
0.0
 10
169.8937636059612
 20
-123.5930406862389
 30
0.0
 10
169.8475498559612
 20
-124.6210356862391
 30
0.0
  0
LWPOLYLINE
  5
2BC9
330
2E7C
100
AcDbEntity
  8
TEXT
 62
     5
420
      255
370
    25
100
AcDbPolyline
 90
        3
 70
     0
 43
0.0
 10
169.2132548559612
 20
-121.6421794362389
 10
171.3200448559612
 20
-121.6421794362389
 10
171.3200448559612
 20
-121.7522456862391
  0
LWPOLYLINE
  5
2BCA
330
2E7C
100
AcDbEntity
  8
TEXT
 62
     5
420
      255
370
    25
100
AcDbPolyline
 90
        2
 70
     0
 43
0.0
 10
132.737091105961
 20
-123.0596406862389
 10
130.9520361059611
 20
-123.056113186239
  0
SPLINE
  5
2BCC
330
2E7C
100
AcDbEntity
  8
TEXT
 62
     5
420
      255
370
    25
100
AcDbSpline
210
0.0
220
0.0
230
1.0
 70
     8
 71
     3
 72
     8
 73
     4
 74
     0
 42
0.000000001
 43
0.001
 12
1.0
 22
0.0
 32
0.0
 13
1.0
 23
0.0
 33
0.0
 40
0.0
 40
0.0
 40
0.0
 40
0.0
 40
1.0
 40
1.0
 40
1.0
 40
1.0
 10
132.5931586059612
 20
-121.6210131862389
 30
0.0
 10
133.0711723559612
 20
-121.6210131862389
 30
0.0
 10
133.4056048559613
 20
-121.8788931862391
 30
0.0
 10
133.4056048559613
 20
-122.3699606862389
 30
0.0
  0
SPLINE
  5
2BCD
330
2E7C
100
AcDbEntity
  8
TEXT
 62
     5
420
      255
370
    25
100
AcDbSpline
210
0.0
220
0.0
230
1.0
 70
     8
 71
     3
 72
     8
 73
     4
 74
     0
 42
0.000000001
 43
0.001
 12
1.0
 22
0.0
 32
0.0
 13
1.0
 23
0.0
 33
0.0
 40
0.0
 40
0.0
 40
0.0
 40
0.0
 40
1.0
 40
1.0
 40
1.0
 40
1.0
 10
133.4056048559613
 20
-122.3699606862389
 30
0.0
 10
133.4056048559613
 20
-122.725206936239
 30
0.0
 10
133.0926911059611
 20
-123.0635206862389
 30
0.0
 10
132.737091105961
 20
-123.055406936239
 30
0.0
  0
LWPOLYLINE
  5
2BCF
330
2E7C
100
AcDbEntity
  8
TEXT
 62
     5
420
      255
370
    25
100
AcDbPolyline
 90
        2
 70
     0
 43
0.0
 10
130.9520361059611
 20
-121.6210131862389
 10
132.5931586059612
 20
-121.6210131862389
  0
SPLINE
  5
2BD0
330
2E7C
100
AcDbEntity
  8
TEXT
 62
     5
420
      255
370
    25
100
AcDbSpline
210
0.0
220
0.0
230
1.0
 70
     8
 71
     3
 72
     8
 73
     4
 74
     0
 42
0.000000001
 43
0.001
 12
1.0
 22
0.0
 32
0.0
 13
1.0
 23
0.0
 33
0.0
 40
0.0
 40
0.0
 40
0.0
 40
0.0
 40
1.0
 40
1.0
 40
1.0
 40
1.0
 10
132.737091105961
 20
-123.0635206862389
 30
0.0
 10
133.1304386059612
 20
-123.080454436239
 30
0.0
 10
133.4983861059612
 20
-123.2917681862389
 30
0.0
 10
133.4983861059612
 20
-123.820581936239
 30
0.0
  0
SPLINE
  5
2BD2
330
2E7C
100
AcDbEntity
  8
TEXT
 62
     5
420
      255
370
    25
100
AcDbSpline
210
0.0
220
0.0
230
1.0
 70
     8
 71
     3
 72
     8
 73
     4
 74
     0
 42
0.000000001
 43
0.001
 12
1.0
 22
0.0
 32
0.0
 13
1.0
 23
0.0
 33
0.0
 40
0.0
 40
0.0
 40
0.0
 40
0.0
 40
1.0
 40
1.0
 40
1.0
 40
1.0
 10
133.4983861059612
 20
-123.820581936239
 30
0.0
 10
133.4983861059612
 20
-124.1723019362389
 30
0.0
 10
133.2747248559611
 20
-124.6418494362391
 30
0.0
 10
132.4834448559612
 20
-124.6418494362391
 30
0.0
  0
LWPOLYLINE
  5
2BD3
330
2E7C
100
AcDbEntity
  8
TEXT
 62
     5
420
      255
370
    25
100
AcDbPolyline
 90
        2
 70
     0
 43
0.0
 10
132.737091105961
 20
-123.055406936239
 10
132.737091105961
 20
-123.0635206862389
  0
LWPOLYLINE
  5
2BD5
330
2E7C
100
AcDbEntity
  8
TEXT
 62
     5
420
      255
370
    25
100
AcDbPolyline
 90
        4
 70
     0
 43
0.0
 10
132.4834448559612
 20
-124.6418494362391
 10
130.9520361059611
 20
-124.6418494362391
 10
130.9520361059611
 20
-121.6210131862389
 10
130.9520361059611
 20
-121.6210131862389
  0
SPLINE
  5
2BD6
330
2E7C
100
AcDbEntity
  8
TEXT
 62
     5
420
      255
370
    25
100
AcDbSpline
210
0.0
220
0.0
230
1.0
 70
     8
 71
     3
 72
     8
 73
     4
 74
     0
 42
0.000000001
 43
0.001
 12
1.0
 22
0.0
 32
0.0
 13
1.0
 23
0.0
 33
0.0
 40
0.0
 40
0.0
 40
0.0
 40
0.0
 40
1.0
 40
1.0
 40
1.0
 40
1.0
 10
130.3198586059612
 20
-121.7518931862389
 30
0.0
 10
129.3461911059612
 20
-122.606320686239
 30
0.0
 10
128.8935773559612
 20
-123.5926881862389
 30
0.0
 10
128.8473636059611
 20
-124.6206819362389
 30
0.0
  0
LWPOLYLINE
  5
2BDC
330
2E7C
100
AcDbEntity
  8
TEXT
 62
     5
420
      255
370
    25
100
AcDbPolyline
 90
        2
 70
     0
 43
0.0
 10
28.59952610596116
 20
-137.0370844362391
 10
28.59952610596116
 20
-140.0840256862393
  0
LWPOLYLINE
  5
2BDE
330
2E7C
100
AcDbEntity
  8
TEXT
 62
     5
420
      255
370
    25
100
AcDbPolyline
 90
        2
 70
     0
 43
0.0
 10
29.92103110596116
 20
-140.0840256862393
 10
27.29213110596112
 20
-140.0840256862393
  0
LWPOLYLINE
  5
2BDF
330
2E7C
100
AcDbEntity
  8
TEXT
 62
     5
420
      255
370
    25
100
AcDbPolyline
 90
        3
 70
     0
 43
0.0
 10
128.2127161059612
 20
-121.6418269362389
 10
130.3198586059612
 20
-121.6418269362389
 10
130.3198586059612
 20
-121.7518931862389
  0
LWPOLYLINE
  5
2BE0
330
2E7C
100
AcDbEntity
  8
TEXT
 62
     5
420
      255
370
    25
100
AcDbPolyline
 90
        3
 70
     0
 43
0.0
 10
34.68494235596125
 20
-137.0370844362391
 10
36.82277610596117
 20
-137.0370844362391
 10
36.82277610596117
 20
-140.0840256862393
  0
LWPOLYLINE
  5
2BE2
330
2E7C
100
AcDbEntity
  8
TEXT
 62
     5
420
      255
370
    25
100
AcDbPolyline
 90
        3
 70
     0
 43
0.0
 10
31.72548985596114
 20
-137.0370844362391
 10
31.72548985596114
 20
-140.0840256862393
 10
29.58730360596115
 20
-140.0840256862393
  0
LWPOLYLINE
  5
2BE4
330
2E7C
100
AcDbEntity
  8
TEXT
 62
     5
420
      255
370
    25
100
AcDbPolyline
 90
        2
 70
     0
 43
0.0
 10
31.72548985596114
 20
-138.6662119362392
 10
29.71148110596113
 20
-138.6662119362392
  0
LWPOLYLINE
  5
2BE6
330
2E7C
100
AcDbEntity
  8
TEXT
 62
     5
420
      255
370
    25
100
AcDbPolyline
 90
        2
 70
     0
 43
0.0
 10
34.3914311059612
 20
-138.6662119362392
 10
32.11671985596109
 20
-138.6662119362392
  0
LWPOLYLINE
  5
2BE9
330
2E7C
100
AcDbEntity
  8
TEXT
 62
     5
420
      255
370
    25
100
AcDbPolyline
 90
        4
 70
     0
 43
0.0
 10
31.9928948559612
 20
-137.0370844362391
 10
34.3914311059612
 20
-137.0370844362391
 10
34.3914311059612
 20
-140.0840256862393
 10
32.01900110596108
 20
-140.0840256862393
  0
LWPOLYLINE
  5
2BEC
330
2E7C
100
AcDbEntity
  8
TEXT
 62
     5
420
      255
370
    25
100
AcDbPolyline
 90
        2
 70
     0
 43
0.0
 10
34.1617723559612
 20
-134.1051481862393
 10
31.9068173559611
 20
-134.1051481862393
  0
LWPOLYLINE
  5
2BEF
330
2E7C
100
AcDbEntity
  8
TEXT
 62
     5
420
      255
370
    25
100
AcDbPolyline
 90
        4
 70
     0
 43
0.0
 10
31.78475610596121
 20
-132.4890731862392
 10
34.1617723559612
 20
-132.4890731862392
 10
34.1617723559612
 20
-135.5102619362391
 10
31.8101561059612
 20
-135.5102619362391
  0
SPLINE
  5
2BF4
330
2E7C
100
AcDbEntity
  8
TEXT
 62
     5
420
      255
370
    25
100
AcDbSpline
210
0.0
220
0.0
230
1.0
 70
     8
 71
     3
 72
     8
 73
     4
 74
     0
 42
0.000000001
 43
0.001
 12
1.0
 22
0.0
 32
0.0
 13
1.0
 23
0.0
 33
0.0
 40
0.0
 40
0.0
 40
0.0
 40
0.0
 40
1.0
 40
1.0
 40
1.0
 40
1.0
 10
92.7133948559611
 20
-123.4960269362389
 30
0.0
 10
92.62449485596113
 20
-124.3035356862389
 30
0.0
 10
91.89706610596107
 20
-124.7099356862389
 30
0.0
 10
91.1985661059611
 20
-124.7099356862389
 30
0.0
  0
SPLINE
  5
2BF5
330
2E7C
100
AcDbEntity
  8
TEXT
 62
     5
420
      255
370
    25
100
AcDbSpline
210
0.0
220
0.0
230
1.0
 70
     8
 71
     3
 72
     8
 73
     4
 74
     0
 42
0.000000001
 43
0.001
 12
1.0
 22
0.0
 32
0.0
 13
1.0
 23
0.0
 33
0.0
 40
0.0
 40
0.0
 40
0.0
 40
0.0
 40
1.0
 40
1.0
 40
1.0
 40
1.0
 10
91.1985661059611
 20
-124.7099356862389
 30
0.0
 10
90.33531985596125
 20
-124.7099356862389
 30
0.0
 10
89.63329110596118
 20
-124.1303206862389
 30
0.0
 10
89.63329110596118
 20
-123.1319606862389
 30
0.0
  0
SPLINE
  5
2BF6
330
2E7C
100
AcDbEntity
  8
TEXT
 62
     5
420
      255
370
    25
100
AcDbSpline
210
0.0
220
0.0
230
1.0
 70
     8
 71
     3
 72
     8
 73
     4
 74
     0
 42
0.000000001
 43
0.001
 12
1.0
 22
0.0
 32
0.0
 13
1.0
 23
0.0
 33
0.0
 40
0.0
 40
0.0
 40
0.0
 40
0.0
 40
1.0
 40
1.0
 40
1.0
 40
1.0
 10
89.63329110596118
 20
-123.1319606862389
 30
0.0
 10
89.63329110596118
 20
-122.133599436239
 30
0.0
 10
90.33531985596125
 20
-121.5539856862389
 30
0.0
 10
91.1985661059611
 20
-121.5539856862389
 30
0.0
  0
SPLINE
  5
2BF7
330
2E7C
100
AcDbEntity
  8
TEXT
 62
     5
420
      255
370
    25
100
AcDbSpline
210
0.0
220
0.0
230
1.0
 70
     8
 71
     3
 72
     8
 73
     4
 74
     0
 42
0.000000001
 43
0.001
 12
1.0
 22
0.0
 32
0.0
 13
1.0
 23
0.0
 33
0.0
 40
0.0
 40
0.0
 40
0.0
 40
0.0
 40
1.0
 40
1.0
 40
1.0
 40
1.0
 10
91.1985661059611
 20
-121.5539856862389
 30
0.0
 10
91.91329485596128
 20
-121.5539856862389
 30
0.0
 10
92.48056110596116
 20
-121.8453794362389
 30
0.0
 10
92.64142735596118
 20
-122.501545686239
 30
0.0
  0
SPLINE
  5
2BF8
330
2E7C
100
AcDbEntity
  8
TEXT
 62
     5
420
      255
370
    25
100
AcDbSpline
210
0.0
220
0.0
230
1.0
 70
     8
 71
     3
 72
     8
 73
     4
 74
     0
 42
0.000000001
 43
0.001
 12
1.0
 22
0.0
 32
0.0
 13
1.0
 23
0.0
 33
0.0
 40
0.0
 40
0.0
 40
0.0
 40
0.0
 40
1.0
 40
1.0
 40
1.0
 40
1.0
 10
89.1013023559612
 20
-121.752599436239
 30
0.0
 10
88.12763610596113
 20
-122.6070269362389
 30
0.0
 10
87.67502235596118
 20
-123.5933931862389
 30
0.0
 10
87.62880860596118
 20
-124.621388186239
 30
0.0
  0
LWPOLYLINE
  5
2BF9
330
2E7C
100
AcDbEntity
  8
TEXT
 62
     5
420
      255
370
    25
100
AcDbPolyline
 90
        3
 70
     0
 43
0.0
 10
86.99416110596115
 20
-121.6425319362389
 10
89.1013023559612
 20
-121.6425319362389
 10
89.1013023559612
 20
-121.752599436239
  0
SPLINE
  5
2C2D
330
2E7C
100
AcDbEntity
  8
TEXT
 62
     5
420
      255
370
    25
100
AcDbSpline
210
0.0
220
0.0
230
1.0
 70
     8
 71
     3
 72
     8
 73
     4
 74
     0
 42
0.000000001
 43
0.001
 12
1.0
 22
0.0
 32
0.0
 13
1.0
 23
0.0
 33
0.0
 40
0.0
 40
0.0
 40
0.0
 40
0.0
 40
1.0
 40
1.0
 40
1.0
 40
1.0
 10
215.7146586059611
 20
-123.4960269362389
 30
0.0
 10
215.6257586059612
 20
-124.3035356862389
 30
0.0
 10
214.8983298559612
 20
-124.7099356862389
 30
0.0
 10
214.1998298559611
 20
-124.7099356862389
 30
0.0
  0
SPLINE
  5
2C2E
330
2E7C
100
AcDbEntity
  8
TEXT
 62
     5
420
      255
370
    25
100
AcDbSpline
210
0.0
220
0.0
230
1.0
 70
     8
 71
     3
 72
     8
 73
     4
 74
     0
 42
0.000000001
 43
0.001
 12
1.0
 22
0.0
 32
0.0
 13
1.0
 23
0.0
 33
0.0
 40
0.0
 40
0.0
 40
0.0
 40
0.0
 40
1.0
 40
1.0
 40
1.0
 40
1.0
 10
214.1998298559611
 20
-53.58362068623904
 30
0.0
 10
213.3365836059612
 20
-53.58362068623904
 30
0.0
 10
212.6345548559612
 20
-53.00400568623905
 30
0.0
 10
212.6345548559612
 20
-52.00564568623901
 30
0.0
  0
SPLINE
  5
2C2F
330
2E7C
100
AcDbEntity
  8
TEXT
 62
     5
420
      255
370
    25
100
AcDbSpline
210
0.0
220
0.0
230
1.0
 70
     8
 71
     3
 72
     8
 73
     4
 74
     0
 42
0.000000001
 43
0.001
 12
1.0
 22
0.0
 32
0.0
 13
1.0
 23
0.0
 33
0.0
 40
0.0
 40
0.0
 40
0.0
 40
0.0
 40
1.0
 40
1.0
 40
1.0
 40
1.0
 10
212.6345548559612
 20
-52.00564568623901
 30
0.0
 10
212.6345548559612
 20
-51.0072844362391
 30
0.0
 10
213.3365836059612
 20
-50.42767068623908
 30
0.0
 10
214.1998298559611
 20
-50.42767068623908
 30
0.0
  0
SPLINE
  5
2C30
330
2E7C
100
AcDbEntity
  8
TEXT
 62
     5
420
      255
370
    25
100
AcDbSpline
210
0.0
220
0.0
230
1.0
 70
     8
 71
     3
 72
     8
 73
     4
 74
     0
 42
0.000000001
 43
0.001
 12
1.0
 22
0.0
 32
0.0
 13
1.0
 23
0.0
 33
0.0
 40
0.0
 40
0.0
 40
0.0
 40
0.0
 40
1.0
 40
1.0
 40
1.0
 40
1.0
 10
214.1998298559611
 20
-50.42767068623908
 30
0.0
 10
214.9145586059612
 20
-50.42767068623908
 30
0.0
 10
215.4818248559613
 20
-50.71906443623908
 30
0.0
 10
215.6426911059612
 20
-51.37523068623915
 30
0.0
  0
SPLINE
  5
2C31
330
2E7C
100
AcDbEntity
  8
TEXT
 62
     5
420
      255
370
    25
100
AcDbSpline
210
0.0
220
0.0
230
1.0
 70
     8
 71
     3
 72
     8
 73
     4
 74
     0
 42
0.000000001
 43
0.001
 12
1.0
 22
0.0
 32
0.0
 13
1.0
 23
0.0
 33
0.0
 40
0.0
 40
0.0
 40
0.0
 40
0.0
 40
1.0
 40
1.0
 40
1.0
 40
1.0
 10
212.1025661059611
 20
-50.62628443623913
 30
0.0
 10
211.1288998559612
 20
-51.48071193623906
 30
0.0
 10
210.6762861059611
 20
-52.46707818623901
 30
0.0
 10
210.6300723559611
 20
-53.49507318623915
 30
0.0
  0
LWPOLYLINE
  5
2C33
330
2E7C
100
AcDbEntity
  8
TEXT
 62
     5
420
      255
370
    25
100
AcDbPolyline
 90
        3
 70
     0
 43
0.0
 10
209.9954248559612
 20
-50.516216936239
 10
212.1025661059611
 20
-50.516216936239
 10
212.1025661059611
 20
-50.62628443623913
  0
LWPOLYLINE
  5
2C80
330
2E7C
100
AcDbEntity
  8
TEXT
 62
     5
420
      255
370
    25
100
AcDbPolyline
 90
        2
 70
     0
 43
0.0
 10
9.791883605961218
 20
-63.05326943623919
 10
7.536576105961146
 20
-63.05326943623919
  0
LWPOLYLINE
  5
2C81
330
2E7C
100
AcDbEntity
  8
TEXT
 62
     5
420
      255
370
    25
100
AcDbPolyline
 90
        4
 70
     0
 43
0.0
 10
7.413808605961137
 20
-61.43684068623935
 10
9.791883605961218
 20
-61.43684068623935
 10
9.791883605961218
 20
-64.45803068623928
 10
7.439562355961058
 20
-64.45803068623928
  0
LWPOLYLINE
  5
2C9F
330
2E7C
100
AcDbEntity
  8
TEXT
 62
     5
420
      255
370
    25
100
AcDbPolyline
 90
        2
 70
     0
 43
0.0
 10
173.7376298559611
 20
-51.93367818623921
 10
171.9522223559612
 20
-51.93015068623907
  0
SPLINE
  5
2CA1
330
2E7C
100
AcDbEntity
  8
TEXT
 62
     5
420
      255
370
    25
100
AcDbSpline
210
0.0
220
0.0
230
1.0
 70
     8
 71
     3
 72
     8
 73
     4
 74
     0
 42
0.000000001
 43
0.001
 12
1.0
 22
0.0
 32
0.0
 13
1.0
 23
0.0
 33
0.0
 40
0.0
 40
0.0
 40
0.0
 40
0.0
 40
1.0
 40
1.0
 40
1.0
 40
1.0
 10
173.5936973559612
 20
-50.49505068623904
 30
0.0
 10
174.0717111059611
 20
-50.49505068623904
 30
0.0
 10
174.4057911059611
 20
-50.75293068623915
 30
0.0
 10
174.4057911059611
 20
-51.24399818623903
 30
0.0
  0
SPLINE
  5
2CA2
330
2E7C
100
AcDbEntity
  8
TEXT
 62
     5
420
      255
370
    25
100
AcDbSpline
210
0.0
220
0.0
230
1.0
 70
     8
 71
     3
 72
     8
 73
     4
 74
     0
 42
0.000000001
 43
0.001
 12
1.0
 22
0.0
 32
0.0
 13
1.0
 23
0.0
 33
0.0
 40
0.0
 40
0.0
 40
0.0
 40
0.0
 40
1.0
 40
1.0
 40
1.0
 40
1.0
 10
174.4057911059611
 20
-51.24399818623903
 30
0.0
 10
174.4057911059611
 20
-51.59924568623916
 30
0.0
 10
174.0932298559612
 20
-51.93755943623916
 30
0.0
 10
173.7372773559611
 20
-51.92944568623903
 30
0.0
  0
LWPOLYLINE
  5
2CA4
330
2E7C
100
AcDbEntity
  8
TEXT
 62
     5
420
      255
370
    25
100
AcDbPolyline
 90
        2
 70
     0
 43
0.0
 10
171.9522223559612
 20
-50.49505068623904
 10
173.5936973559612
 20
-50.49505068623904
  0
SPLINE
  5
2CA5
330
2E7C
100
AcDbEntity
  8
TEXT
 62
     5
420
      255
370
    25
100
AcDbSpline
210
0.0
220
0.0
230
1.0
 70
     8
 71
     3
 72
     8
 73
     4
 74
     0
 42
0.000000001
 43
0.001
 12
1.0
 22
0.0
 32
0.0
 13
1.0
 23
0.0
 33
0.0
 40
0.0
 40
0.0
 40
0.0
 40
0.0
 40
1.0
 40
1.0
 40
1.0
 40
1.0
 10
173.7372773559611
 20
-51.93755943623916
 30
0.0
 10
174.1306248559612
 20
-51.95449193623909
 30
0.0
 10
174.4985723559612
 20
-52.16580568623914
 30
0.0
 10
174.4985723559612
 20
-52.69462068623915
 30
0.0
  0
SPLINE
  5
2CA7
330
2E7C
100
AcDbEntity
  8
TEXT
 62
     5
420
      255
370
    25
100
AcDbSpline
210
0.0
220
0.0
230
1.0
 70
     8
 71
     3
 72
     8
 73
     4
 74
     0
 42
0.000000001
 43
0.001
 12
1.0
 22
0.0
 32
0.0
 13
1.0
 23
0.0
 33
0.0
 40
0.0
 40
0.0
 40
0.0
 40
0.0
 40
1.0
 40
1.0
 40
1.0
 40
1.0
 10
174.4985723559612
 20
-52.69462068623915
 30
0.0
 10
174.4985723559612
 20
-53.04633943623918
 30
0.0
 10
174.2745586059612
 20
-53.51588693623916
 30
0.0
 10
173.4836298559612
 20
-53.51588693623916
 30
0.0
  0
LWPOLYLINE
  5
2CA8
330
2E7C
100
AcDbEntity
  8
TEXT
 62
     5
420
      255
370
    25
100
AcDbPolyline
 90
        2
 70
     0
 43
0.0
 10
173.7372773559611
 20
-51.92944568623903
 10
173.7372773559611
 20
-51.93755943623916
  0
LWPOLYLINE
  5
2CAA
330
2E7C
100
AcDbEntity
  8
TEXT
 62
     5
420
      255
370
    25
100
AcDbPolyline
 90
        4
 70
     0
 43
0.0
 10
173.4836298559612
 20
-53.51588693623916
 10
171.9518698559612
 20
-53.51588693623916
 10
171.9518698559612
 20
-50.49505068623904
 10
171.9522223559612
 20
-50.49505068623904
  0
SPLINE
  5
2CAB
330
2E7C
100
AcDbEntity
  8
TEXT
 62
     5
420
      255
370
    25
100
AcDbSpline
210
0.0
220
0.0
230
1.0
 70
     8
 71
     3
 72
     8
 73
     4
 74
     0
 42
0.000000001
 43
0.001
 12
1.0
 22
0.0
 32
0.0
 13
1.0
 23
0.0
 33
0.0
 40
0.0
 40
0.0
 40
0.0
 40
0.0
 40
1.0
 40
1.0
 40
1.0
 40
1.0
 10
171.3200448559612
 20
-50.6259306862392
 30
0.0
 10
170.3463773559611
 20
-51.4803594362391
 30
0.0
 10
169.8937636059612
 20
-52.46672568623904
 30
0.0
 10
169.8475498559612
 20
-53.49472068623919
 30
0.0
  0
LWPOLYLINE
  5
2CAD
330
2E7C
100
AcDbEntity
  8
TEXT
 62
     5
420
      255
370
    25
100
AcDbPolyline
 90
        3
 70
     0
 43
0.0
 10
169.2132548559612
 20
-50.51586443623904
 10
171.3200448559612
 20
-50.51586443623904
 10
171.3200448559612
 20
-50.6259306862392
  0
LWPOLYLINE
  5
2CAE
330
2E7C
100
AcDbEntity
  8
TEXT
 62
     5
420
      255
370
    25
100
AcDbPolyline
 90
        2
 70
     0
 43
0.0
 10
132.737091105961
 20
-51.93332568623902
 10
130.9520361059611
 20
-51.92979818623911
  0
SPLINE
  5
2CB0
330
2E7C
100
AcDbEntity
  8
TEXT
 62
     5
420
      255
370
    25
100
AcDbSpline
210
0.0
220
0.0
230
1.0
 70
     8
 71
     3
 72
     8
 73
     4
 74
     0
 42
0.000000001
 43
0.001
 12
1.0
 22
0.0
 32
0.0
 13
1.0
 23
0.0
 33
0.0
 40
0.0
 40
0.0
 40
0.0
 40
0.0
 40
1.0
 40
1.0
 40
1.0
 40
1.0
 10
132.5931586059612
 20
-50.49469818623908
 30
0.0
 10
133.0711723559612
 20
-50.49469818623908
 30
0.0
 10
133.4056048559613
 20
-50.75257818623919
 30
0.0
 10
133.4056048559613
 20
-51.24364568623906
 30
0.0
  0
SPLINE
  5
2CB1
330
2E7C
100
AcDbEntity
  8
TEXT
 62
     5
420
      255
370
    25
100
AcDbSpline
210
0.0
220
0.0
230
1.0
 70
     8
 71
     3
 72
     8
 73
     4
 74
     0
 42
0.000000001
 43
0.001
 12
1.0
 22
0.0
 32
0.0
 13
1.0
 23
0.0
 33
0.0
 40
0.0
 40
0.0
 40
0.0
 40
0.0
 40
1.0
 40
1.0
 40
1.0
 40
1.0
 10
133.4056048559613
 20
-51.24364568623906
 30
0.0
 10
133.4056048559613
 20
-51.59889193623911
 30
0.0
 10
133.0926911059611
 20
-51.937205686239
 30
0.0
 10
132.737091105961
 20
-51.9290919362391
 30
0.0
  0
LWPOLYLINE
  5
2CB3
330
2E7C
100
AcDbEntity
  8
TEXT
 62
     5
420
      255
370
    25
100
AcDbPolyline
 90
        2
 70
     0
 43
0.0
 10
130.9520361059611
 20
-50.49469818623908
 10
132.5931586059612
 20
-50.49469818623908
  0
SPLINE
  5
2CB4
330
2E7C
100
AcDbEntity
  8
TEXT
 62
     5
420
      255
370
    25
100
AcDbSpline
210
0.0
220
0.0
230
1.0
 70
     8
 71
     3
 72
     8
 73
     4
 74
     0
 42
0.000000001
 43
0.001
 12
1.0
 22
0.0
 32
0.0
 13
1.0
 23
0.0
 33
0.0
 40
0.0
 40
0.0
 40
0.0
 40
0.0
 40
1.0
 40
1.0
 40
1.0
 40
1.0
 10
132.737091105961
 20
-51.937205686239
 30
0.0
 10
133.1304386059612
 20
-51.95413943623913
 30
0.0
 10
133.4983861059612
 20
-52.16545318623906
 30
0.0
 10
133.4983861059612
 20
-52.6942669362391
 30
0.0
  0
SPLINE
  5
2CB6
330
2E7C
100
AcDbEntity
  8
TEXT
 62
     5
420
      255
370
    25
100
AcDbSpline
210
0.0
220
0.0
230
1.0
 70
     8
 71
     3
 72
     8
 73
     4
 74
     0
 42
0.000000001
 43
0.001
 12
1.0
 22
0.0
 32
0.0
 13
1.0
 23
0.0
 33
0.0
 40
0.0
 40
0.0
 40
0.0
 40
0.0
 40
1.0
 40
1.0
 40
1.0
 40
1.0
 10
133.4983861059612
 20
-52.6942669362391
 30
0.0
 10
133.4983861059612
 20
-53.04598693623899
 30
0.0
 10
133.2747248559611
 20
-53.51553443623919
 30
0.0
 10
132.4834448559612
 20
-53.51553443623919
 30
0.0
  0
LWPOLYLINE
  5
2CB7
330
2E7C
100
AcDbEntity
  8
TEXT
 62
     5
420
      255
370
    25
100
AcDbPolyline
 90
        2
 70
     0
 43
0.0
 10
132.737091105961
 20
-51.9290919362391
 10
132.737091105961
 20
-51.937205686239
  0
LWPOLYLINE
  5
2CB9
330
2E7C
100
AcDbEntity
  8
TEXT
 62
     5
420
      255
370
    25
100
AcDbPolyline
 90
        4
 70
     0
 43
0.0
 10
132.4834448559612
 20
-53.51553443623919
 10
130.9520361059611
 20
-53.51553443623919
 10
130.9520361059611
 20
-50.49469818623908
 10
130.9520361059611
 20
-50.49469818623908
  0
SPLINE
  5
2CBA
330
2E7C
100
AcDbEntity
  8
TEXT
 62
     5
420
      255
370
    25
100
AcDbSpline
210
0.0
220
0.0
230
1.0
 70
     8
 71
     3
 72
     8
 73
     4
 74
     0
 42
0.000000001
 43
0.001
 12
1.0
 22
0.0
 32
0.0
 13
1.0
 23
0.0
 33
0.0
 40
0.0
 40
0.0
 40
0.0
 40
0.0
 40
1.0
 40
1.0
 40
1.0
 40
1.0
 10
130.3198586059612
 20
-50.62557818623901
 30
0.0
 10
129.3461911059612
 20
-51.48000568623917
 30
0.0
 10
128.8935773559612
 20
-52.46637318623908
 30
0.0
 10
128.8473636059611
 20
-53.49436693623903
 30
0.0
  0
LWPOLYLINE
  5
2CC0
330
2E7C
100
AcDbEntity
  8
TEXT
 62
     5
420
      255
370
    25
100
AcDbPolyline
 90
        2
 70
     0
 43
0.0
 10
28.59952610596115
 20
-65.91076943623926
 10
28.59952610596115
 20
-68.95771068623941
  0
LWPOLYLINE
  5
2CC2
330
2E7C
100
AcDbEntity
  8
TEXT
 62
     5
420
      255
370
    25
100
AcDbPolyline
 90
        2
 70
     0
 43
0.0
 10
29.92103110596115
 20
-68.95771068623941
 10
27.2921311059611
 20
-68.95771068623941
  0
LWPOLYLINE
  5
2CC3
330
2E7C
100
AcDbEntity
  8
TEXT
 62
     5
420
      255
370
    25
100
AcDbPolyline
 90
        3
 70
     0
 43
0.0
 10
128.2127161059612
 20
-50.51551193623908
 10
130.3198586059612
 20
-50.51551193623908
 10
130.3198586059612
 20
-50.62557818623901
  0
LWPOLYLINE
  5
2CC4
330
2E7C
100
AcDbEntity
  8
TEXT
 62
     5
420
      255
370
    25
100
AcDbPolyline
 90
        3
 70
     0
 43
0.0
 10
34.68494235596124
 20
-65.91076943623926
 10
36.82277610596115
 20
-65.91076943623926
 10
36.82277610596115
 20
-68.95771068623941
  0
LWPOLYLINE
  5
2CC6
330
2E7C
100
AcDbEntity
  8
TEXT
 62
     5
420
      255
370
    25
100
AcDbPolyline
 90
        3
 70
     0
 43
0.0
 10
31.72548985596113
 20
-65.91076943623926
 10
31.72548985596113
 20
-68.95771068623941
 10
29.58730360596114
 20
-68.95771068623941
  0
LWPOLYLINE
  5
2CC8
330
2E7C
100
AcDbEntity
  8
TEXT
 62
     5
420
      255
370
    25
100
AcDbPolyline
 90
        2
 70
     0
 43
0.0
 10
31.72548985596113
 20
-67.53989693623936
 10
29.71148110596111
 20
-67.53989693623936
  0
LWPOLYLINE
  5
2CCA
330
2E7C
100
AcDbEntity
  8
TEXT
 62
     5
420
      255
370
    25
100
AcDbPolyline
 90
        2
 70
     0
 43
0.0
 10
34.39143110596119
 20
-67.53989693623936
 10
32.11671985596108
 20
-67.53989693623936
  0
LWPOLYLINE
  5
2CCD
330
2E7C
100
AcDbEntity
  8
TEXT
 62
     5
420
      255
370
    25
100
AcDbPolyline
 90
        4
 70
     0
 43
0.0
 10
31.99289485596118
 20
-65.91076943623926
 10
34.39143110596119
 20
-65.91076943623926
 10
34.39143110596119
 20
-68.95771068623941
 10
32.01900110596107
 20
-68.95771068623941
  0
LWPOLYLINE
  5
2CD0
330
2E7C
100
AcDbEntity
  8
TEXT
 62
     5
420
      255
370
    25
100
AcDbPolyline
 90
        2
 70
     0
 43
0.0
 10
34.16177235596119
 20
-62.97883318623946
 10
31.90681735596108
 20
-62.97883318623946
  0
LWPOLYLINE
  5
2CD3
330
2E7C
100
AcDbEntity
  8
TEXT
 62
     5
420
      255
370
    25
100
AcDbPolyline
 90
        4
 70
     0
 43
0.0
 10
31.78475610596119
 20
-61.36275818623932
 10
34.16177235596119
 20
-61.36275818623932
 10
34.16177235596119
 20
-64.38394693623928
 10
31.81015610596118
 20
-64.38394693623928
  0
SPLINE
  5
2CD8
330
2E7C
100
AcDbEntity
  8
TEXT
 62
     5
420
      255
370
    25
100
AcDbSpline
210
0.0
220
0.0
230
1.0
 70
     8
 71
     3
 72
     8
 73
     4
 74
     0
 42
0.000000001
 43
0.001
 12
1.0
 22
0.0
 32
0.0
 13
1.0
 23
0.0
 33
0.0
 40
0.0
 40
0.0
 40
0.0
 40
0.0
 40
1.0
 40
1.0
 40
1.0
 40
1.0
 10
92.71339485596108
 20
-52.36971193623907
 30
0.0
 10
92.62449485596112
 20
-53.17722068623908
 30
0.0
 10
91.89706610596106
 20
-53.58362068623904
 30
0.0
 10
91.19856610596109
 20
-53.58362068623904
 30
0.0
  0
SPLINE
  5
2CD9
330
2E7C
100
AcDbEntity
  8
TEXT
 62
     5
420
      255
370
    25
100
AcDbSpline
210
0.0
220
0.0
230
1.0
 70
     8
 71
     3
 72
     8
 73
     4
 74
     0
 42
0.000000001
 43
0.001
 12
1.0
 22
0.0
 32
0.0
 13
1.0
 23
0.0
 33
0.0
 40
0.0
 40
0.0
 40
0.0
 40
0.0
 40
1.0
 40
1.0
 40
1.0
 40
1.0
 10
91.19856610596109
 20
-53.58362068623904
 30
0.0
 10
90.33531985596123
 20
-53.58362068623904
 30
0.0
 10
89.63329110596116
 20
-53.00400568623905
 30
0.0
 10
89.63329110596116
 20
-52.00564568623901
 30
0.0
  0
SPLINE
  5
2CDA
330
2E7C
100
AcDbEntity
  8
TEXT
 62
     5
420
      255
370
    25
100
AcDbSpline
210
0.0
220
0.0
230
1.0
 70
     8
 71
     3
 72
     8
 73
     4
 74
     0
 42
0.000000001
 43
0.001
 12
1.0
 22
0.0
 32
0.0
 13
1.0
 23
0.0
 33
0.0
 40
0.0
 40
0.0
 40
0.0
 40
0.0
 40
1.0
 40
1.0
 40
1.0
 40
1.0
 10
89.63329110596116
 20
-52.00564568623901
 30
0.0
 10
89.63329110596116
 20
-51.0072844362391
 30
0.0
 10
90.33531985596123
 20
-50.42767068623908
 30
0.0
 10
91.19856610596109
 20
-50.42767068623908
 30
0.0
  0
SPLINE
  5
2CDB
330
2E7C
100
AcDbEntity
  8
TEXT
 62
     5
420
      255
370
    25
100
AcDbSpline
210
0.0
220
0.0
230
1.0
 70
     8
 71
     3
 72
     8
 73
     4
 74
     0
 42
0.000000001
 43
0.001
 12
1.0
 22
0.0
 32
0.0
 13
1.0
 23
0.0
 33
0.0
 40
0.0
 40
0.0
 40
0.0
 40
0.0
 40
1.0
 40
1.0
 40
1.0
 40
1.0
 10
91.19856610596109
 20
-50.42767068623908
 30
0.0
 10
91.91329485596127
 20
-50.42767068623908
 30
0.0
 10
92.48056110596114
 20
-50.71906443623908
 30
0.0
 10
92.64142735596117
 20
-51.37523068623915
 30
0.0
  0
SPLINE
  5
2CDC
330
2E7C
100
AcDbEntity
  8
TEXT
 62
     5
420
      255
370
    25
100
AcDbSpline
210
0.0
220
0.0
230
1.0
 70
     8
 71
     3
 72
     8
 73
     4
 74
     0
 42
0.000000001
 43
0.001
 12
1.0
 22
0.0
 32
0.0
 13
1.0
 23
0.0
 33
0.0
 40
0.0
 40
0.0
 40
0.0
 40
0.0
 40
1.0
 40
1.0
 40
1.0
 40
1.0
 10
89.10130235596118
 20
-50.62628443623913
 30
0.0
 10
88.12763610596112
 20
-51.48071193623906
 30
0.0
 10
87.67502235596116
 20
-52.46707818623901
 30
0.0
 10
87.62880860596117
 20
-53.49507318623915
 30
0.0
  0
LWPOLYLINE
  5
2CDD
330
2E7C
100
AcDbEntity
  8
TEXT
 62
     5
420
      255
370
    25
100
AcDbPolyline
 90
        3
 70
     0
 43
0.0
 10
86.99416110596114
 20
-50.516216936239
 10
89.10130235596118
 20
-50.516216936239
 10
89.10130235596118
 20
-50.62628443623913
  0
SPLINE
  5
2D11
330
2E7C
100
AcDbEntity
  8
TEXT
 62
     5
420
      255
370
    25
100
AcDbSpline
210
0.0
220
0.0
230
1.0
 70
     8
 71
     3
 72
     8
 73
     4
 74
     0
 42
0.000000001
 43
0.001
 12
1.0
 22
0.0
 32
0.0
 13
1.0
 23
0.0
 33
0.0
 40
0.0
 40
0.0
 40
0.0
 40
0.0
 40
1.0
 40
1.0
 40
1.0
 40
1.0
 10
215.7146586059611
 20
-52.36971193623907
 30
0.0
 10
215.6257586059612
 20
-53.17722068623908
 30
0.0
 10
214.8983298559612
 20
-53.58362068623904
 30
0.0
 10
214.1998298559611
 20
-53.58362068623904
 30
0.0
  0
LWPOLYLINE
  5
2D12
330
2E7C
100
AcDbEntity
  8
TEXT
 62
     5
420
      255
370
    25
100
AcDbPolyline
 90
        2
 70
     0
 43
0.0
 10
284.7672678412206
 20
-75.73441665809321
 10
284.7598590912204
 20
-75.73441665809321
  0
LWPOLYLINE
  5
2D15
330
2E7C
100
AcDbEntity
  8
TEXT
 62
     5
420
      255
370
    25
100
AcDbPolyline
 90
        4
 70
     0
 43
0.0
 10
283.1815315912205
 20
-75.4811229080932
 10
283.1815315912205
 20
-73.94936165809315
 10
286.2020140912206
 20
-73.94936165809315
 10
286.2020140912206
 20
-73.94936165809315
  0
SPLINE
  5
2D18
330
2E7C
100
AcDbEntity
  8
TEXT
 62
     5
420
      255
370
    25
100
AcDbSpline
210
0.0
220
0.0
230
1.0
 70
     8
 71
     3
 72
     8
 73
     4
 74
     0
 42
0.000000001
 43
0.001
 12
1.0
 22
0.0
 32
0.0
 13
1.0
 23
0.0
 33
0.0
 40
0.0
 40
0.0
 40
0.0
 40
0.0
 40
1.0
 40
1.0
 40
1.0
 40
1.0
 10
286.0704290912205
 20
-73.31718415809327
 30
0.0
 10
285.2163540912205
 20
-72.34351665809322
 30
0.0
 10
284.2296340912204
 20
-71.89090290809327
 30
0.0
 10
283.2019928412204
 20
-71.84468915809329
 30
0.0
  0
LWPOLYLINE
  5
2D1B
330
2E7C
100
AcDbEntity
  8
TEXT
 62
     5
420
      255
370
    25
100
AcDbPolyline
 90
        3
 70
     0
 43
0.0
 10
286.1808478412205
 20
-71.21004165809336
 10
286.1808478412205
 20
-73.31718415809327
 10
286.0704290912205
 20
-73.31718415809327
  0
LWPOLYLINE
  5
2D1E
330
2E7C
100
AcDbEntity
  8
TEXT
 62
     5
420
      255
370
    25
100
AcDbPolyline
 90
        2
 70
     0
 43
0.0
 10
235.4415253412209
 20
-38.20415290809331
 10
235.437997841221
 20
-39.98956165809329
  0
SPLINE
  5
2D20
330
2E7C
100
AcDbEntity
  8
TEXT
 62
     5
420
      255
370
    25
100
AcDbSpline
210
0.0
220
0.0
230
1.0
 70
     8
 71
     3
 72
     8
 73
     4
 74
     0
 42
0.000000001
 43
0.001
 12
1.0
 22
0.0
 32
0.0
 13
1.0
 23
0.0
 33
0.0
 40
0.0
 40
0.0
 40
0.0
 40
0.0
 40
1.0
 40
1.0
 40
1.0
 40
1.0
 10
234.0028978412209
 20
-38.34808665809328
 30
0.0
 10
234.0028978412209
 20
-37.87007290809333
 30
0.0
 10
234.2607778412209
 20
-37.53599165809328
 30
0.0
 10
234.751844091221
 20
-37.53599165809328
 30
0.0
  0
SPLINE
  5
2D21
330
2E7C
100
AcDbEntity
  8
TEXT
 62
     5
420
      255
370
    25
100
AcDbSpline
210
0.0
220
0.0
230
1.0
 70
     8
 71
     3
 72
     8
 73
     4
 74
     0
 42
0.000000001
 43
0.001
 12
1.0
 22
0.0
 32
0.0
 13
1.0
 23
0.0
 33
0.0
 40
0.0
 40
0.0
 40
0.0
 40
0.0
 40
1.0
 40
1.0
 40
1.0
 40
1.0
 10
234.751844091221
 20
-37.53599165809328
 30
0.0
 10
235.107091591221
 20
-37.53599165809328
 30
0.0
 10
235.445405341221
 20
-37.84855290809321
 30
0.0
 10
235.4376440912209
 20
-38.20415290809331
 30
0.0
  0
LWPOLYLINE
  5
2D23
330
2E7C
100
AcDbEntity
  8
TEXT
 62
     5
420
      255
370
    25
100
AcDbPolyline
 90
        2
 70
     0
 43
0.0
 10
234.0028978412209
 20
-39.98956165809329
 10
234.0028978412209
 20
-38.34808665809328
  0
SPLINE
  5
2D24
330
2E7C
100
AcDbEntity
  8
TEXT
 62
     5
420
      255
370
    25
100
AcDbSpline
210
0.0
220
0.0
230
1.0
 70
     8
 71
     3
 72
     8
 73
     4
 74
     0
 42
0.000000001
 43
0.001
 12
1.0
 22
0.0
 32
0.0
 13
1.0
 23
0.0
 33
0.0
 40
0.0
 40
0.0
 40
0.0
 40
0.0
 40
1.0
 40
1.0
 40
1.0
 40
1.0
 10
235.4450528412209
 20
-38.20415290809331
 30
0.0
 10
235.4623390912209
 20
-37.81080540809341
 30
0.0
 10
235.673300341221
 20
-37.4428579080934
 30
0.0
 10
236.202466591221
 20
-37.4428579080934
 30
0.0
  0
SPLINE
  5
2D26
330
2E7C
100
AcDbEntity
  8
TEXT
 62
     5
420
      255
370
    25
100
AcDbSpline
210
0.0
220
0.0
230
1.0
 70
     8
 71
     3
 72
     8
 73
     4
 74
     0
 42
0.000000001
 43
0.001
 12
1.0
 22
0.0
 32
0.0
 13
1.0
 23
0.0
 33
0.0
 40
0.0
 40
0.0
 40
0.0
 40
0.0
 40
1.0
 40
1.0
 40
1.0
 40
1.0
 10
236.202466591221
 20
-37.4428579080934
 30
0.0
 10
236.5541865912211
 20
-37.4428579080934
 30
0.0
 10
237.023380341221
 20
-37.6668729080934
 30
0.0
 10
237.023380341221
 20
-38.45780040809336
 30
0.0
  0
LWPOLYLINE
  5
2D27
330
2E7C
100
AcDbEntity
  8
TEXT
 62
     5
420
      255
370
    25
100
AcDbPolyline
 90
        2
 70
     0
 43
0.0
 10
235.4376440912209
 20
-38.20415290809331
 10
235.4450528412209
 20
-38.20415290809331
  0
LWPOLYLINE
  5
2D28
330
2E7C
100
AcDbEntity
  8
TEXT
 62
     5
420
      255
370
    25
100
AcDbPolyline
 90
        4
 70
     0
 43
0.0
 10
237.023380341221
 20
-38.45780040809336
 10
237.023380341221
 20
-39.98956165809329
 10
234.0028978412209
 20
-39.98956165809329
 10
234.0028978412209
 20
-39.98956165809329
  0
SPLINE
  5
2D29
330
2E7C
100
AcDbEntity
  8
TEXT
 62
     5
420
      255
370
    25
100
AcDbSpline
210
0.0
220
0.0
230
1.0
 70
     8
 71
     3
 72
     8
 73
     4
 74
     0
 42
0.000000001
 43
0.001
 12
1.0
 22
0.0
 32
0.0
 13
1.0
 23
0.0
 33
0.0
 40
0.0
 40
0.0
 40
0.0
 40
0.0
 40
1.0
 40
1.0
 40
1.0
 40
1.0
 10
234.1344828412209
 20
-40.62173915809331
 30
0.0
 10
234.9885578412209
 20
-41.59505290809329
 30
0.0
 10
235.9752778412211
 20
-42.04801915809333
 30
0.0
 10
237.0029190912211
 20
-42.09388040809336
 30
0.0
  0
LWPOLYLINE
  5
2D2A
330
2E7C
100
AcDbEntity
  8
TEXT
 62
     5
420
      255
370
    25
100
AcDbPolyline
 90
        3
 70
     0
 43
0.0
 10
234.0240640912209
 20
-42.72852790809327
 10
234.0240640912209
 20
-40.6217391580933
 10
234.1344828412209
 20
-40.62173915809331
  0
LWPOLYLINE
  5
2D54
330
2E7C
100
AcDbEntity
  8
TEXT
 62
     5
420
      255
370
    25
100
AcDbPolyline
 90
        2
 70
     0
 43
0.0
 10
284.7633865912204
 20
-75.73477040809325
 10
284.7669140912204
 20
-73.94936165809315
  0
SPLINE
  5
2D57
330
2E7C
100
AcDbEntity
  8
TEXT
 62
     5
420
      255
370
    25
100
AcDbSpline
210
0.0
220
0.0
230
1.0
 70
     8
 71
     3
 72
     8
 73
     4
 74
     0
 42
0.000000001
 43
0.001
 12
1.0
 22
0.0
 32
0.0
 13
1.0
 23
0.0
 33
0.0
 40
0.0
 40
0.0
 40
0.0
 40
0.0
 40
1.0
 40
1.0
 40
1.0
 40
1.0
 10
286.2020140912206
 20
-75.5904841580932
 30
0.0
 10
286.2020140912206
 20
-76.06885040809324
 30
0.0
 10
285.9441340912205
 20
-76.40293165809317
 30
0.0
 10
285.4530678412206
 20
-76.40293165809318
 30
0.0
  0
SPLINE
  5
2D5A
330
2E7C
100
AcDbEntity
  8
TEXT
 62
     5
420
      255
370
    25
100
AcDbSpline
210
0.0
220
0.0
230
1.0
 70
     8
 71
     3
 72
     8
 73
     4
 74
     0
 42
0.000000001
 43
0.001
 12
1.0
 22
0.0
 32
0.0
 13
1.0
 23
0.0
 33
0.0
 40
0.0
 40
0.0
 40
0.0
 40
0.0
 40
1.0
 40
1.0
 40
1.0
 40
1.0
 10
285.4530678412206
 20
-76.40293165809318
 30
0.0
 10
285.0978203412204
 20
-76.40293165809318
 30
0.0
 10
284.7595065912204
 20
-76.09001665809322
 30
0.0
 10
284.7672678412206
 20
-75.73441665809321
 30
0.0
  0
LWPOLYLINE
  5
2D5D
330
2E7C
100
AcDbEntity
  8
TEXT
 62
     5
420
      255
370
    25
100
AcDbPolyline
 90
        2
 70
     0
 43
0.0
 10
286.2020140912206
 20
-73.94936165809315
 10
286.2020140912206
 20
-75.5904841580932
  0
SPLINE
  5
2D5E
330
2E7C
100
AcDbEntity
  8
TEXT
 62
     5
420
      255
370
    25
100
AcDbSpline
210
0.0
220
0.0
230
1.0
 70
     8
 71
     3
 72
     8
 73
     4
 74
     0
 42
0.000000001
 43
0.001
 12
1.0
 22
0.0
 32
0.0
 13
1.0
 23
0.0
 33
0.0
 40
0.0
 40
0.0
 40
0.0
 40
0.0
 40
1.0
 40
1.0
 40
1.0
 40
1.0
 10
284.7598590912204
 20
-75.73441665809321
 30
0.0
 10
284.7425728412205
 20
-76.12811665809319
 30
0.0
 10
284.5316115912204
 20
-76.49571165809324
 30
0.0
 10
284.0024453412206
 20
-76.49571165809324
 30
0.0
  0
SPLINE
  5
2D61
330
2E7C
100
AcDbEntity
  8
TEXT
 62
     5
420
      255
370
    25
100
AcDbSpline
210
0.0
220
0.0
230
1.0
 70
     8
 71
     3
 72
     8
 73
     4
 74
     0
 42
0.000000001
 43
0.001
 12
1.0
 22
0.0
 32
0.0
 13
1.0
 23
0.0
 33
0.0
 40
0.0
 40
0.0
 40
0.0
 40
0.0
 40
1.0
 40
1.0
 40
1.0
 40
1.0
 10
284.0024453412206
 20
-76.49571165809324
 30
0.0
 10
283.6507253412204
 20
-76.49571165809323
 30
0.0
 10
283.1815315912205
 20
-76.27205040809328
 30
0.0
 10
283.1815315912205
 20
-75.4811229080932
 30
0.0
  0
SPLINE
  5
2D66
330
2E7C
100
AcDbEntity
  8
TEXT
 62
     5
420
      255
370
    25
100
AcDbSpline
210
0.0
220
0.0
230
1.0
 70
     8
 71
     3
 72
     8
 73
     4
 74
     0
 42
0.000000001
 43
0.001
 12
1.0
 22
0.0
 32
0.0
 13
1.0
 23
0.0
 33
0.0
 40
0.0
 40
0.0
 40
0.0
 40
0.0
 40
1.0
 40
1.0
 40
1.0
 40
1.0
 10
286.5981726423332
 20
-144.2188165312072
 30
0.0
 10
285.7440976423332
 20
-143.2451490312071
 30
0.0
 10
284.7573776423331
 20
-142.7925352812071
 30
0.0
 10
283.7297363923331
 20
-142.7463215312072
 30
0.0
  0
LWPOLYLINE
  5
2D69
330
2E7C
100
AcDbEntity
  8
TEXT
 62
     5
420
      255
370
    25
100
AcDbPolyline
 90
        3
 70
     0
 43
0.0
 10
286.7085913923332
 20
-142.1116740312072
 10
286.7085913923332
 20
-144.2188165312072
 10
286.5981726423332
 20
-144.2188165312072
  0
LWPOLYLINE
  5
2D6C
330
2E7C
100
AcDbEntity
  8
TEXT
 62
     5
420
      255
370
    25
100
AcDbPolyline
 90
        2
 70
     0
 43
0.0
 10
235.9692688923336
 20
-109.1057852812072
 10
235.9657413923337
 20
-110.8911940312072
  0
SPLINE
  5
2D6E
330
2E7C
100
AcDbEntity
  8
TEXT
 62
     5
420
      255
370
    25
100
AcDbSpline
210
0.0
220
0.0
230
1.0
 70
     8
 71
     3
 72
     8
 73
     4
 74
     0
 42
0.000000001
 43
0.001
 12
1.0
 22
0.0
 32
0.0
 13
1.0
 23
0.0
 33
0.0
 40
0.0
 40
0.0
 40
0.0
 40
0.0
 40
1.0
 40
1.0
 40
1.0
 40
1.0
 10
234.5306413923336
 20
-109.2497190312071
 30
0.0
 10
234.5306413923336
 20
-108.7717052812072
 30
0.0
 10
234.7885213923336
 20
-108.4376240312072
 30
0.0
 10
235.2795876423336
 20
-108.4376240312072
 30
0.0
  0
SPLINE
  5
2D6F
330
2E7C
100
AcDbEntity
  8
TEXT
 62
     5
420
      255
370
    25
100
AcDbSpline
210
0.0
220
0.0
230
1.0
 70
     8
 71
     3
 72
     8
 73
     4
 74
     0
 42
0.000000001
 43
0.001
 12
1.0
 22
0.0
 32
0.0
 13
1.0
 23
0.0
 33
0.0
 40
0.0
 40
0.0
 40
0.0
 40
0.0
 40
1.0
 40
1.0
 40
1.0
 40
1.0
 10
235.2795876423336
 20
-108.4376240312072
 30
0.0
 10
235.6348351423337
 20
-108.4376240312072
 30
0.0
 10
235.9731488923337
 20
-108.7501852812071
 30
0.0
 10
235.9653876423336
 20
-109.1057852812072
 30
0.0
  0
LWPOLYLINE
  5
2D71
330
2E7C
100
AcDbEntity
  8
TEXT
 62
     5
420
      255
370
    25
100
AcDbPolyline
 90
        2
 70
     0
 43
0.0
 10
234.5306413923336
 20
-110.8911940312072
 10
234.5306413923336
 20
-109.2497190312071
  0
SPLINE
  5
2D72
330
2E7C
100
AcDbEntity
  8
TEXT
 62
     5
420
      255
370
    25
100
AcDbSpline
210
0.0
220
0.0
230
1.0
 70
     8
 71
     3
 72
     8
 73
     4
 74
     0
 42
0.000000001
 43
0.001
 12
1.0
 22
0.0
 32
0.0
 13
1.0
 23
0.0
 33
0.0
 40
0.0
 40
0.0
 40
0.0
 40
0.0
 40
1.0
 40
1.0
 40
1.0
 40
1.0
 10
235.9727963923336
 20
-109.1057852812072
 30
0.0
 10
235.9900826423336
 20
-108.7124377812073
 30
0.0
 10
236.2010438923336
 20
-108.3444902812073
 30
0.0
 10
236.7302101423336
 20
-108.3444902812073
 30
0.0
  0
SPLINE
  5
2D74
330
2E7C
100
AcDbEntity
  8
TEXT
 62
     5
420
      255
370
    25
100
AcDbSpline
210
0.0
220
0.0
230
1.0
 70
     8
 71
     3
 72
     8
 73
     4
 74
     0
 42
0.000000001
 43
0.001
 12
1.0
 22
0.0
 32
0.0
 13
1.0
 23
0.0
 33
0.0
 40
0.0
 40
0.0
 40
0.0
 40
0.0
 40
1.0
 40
1.0
 40
1.0
 40
1.0
 10
236.7302101423336
 20
-108.3444902812073
 30
0.0
 10
237.0819301423338
 20
-108.3444902812073
 30
0.0
 10
237.5511238923337
 20
-108.5685052812073
 30
0.0
 10
237.5511238923337
 20
-109.3594327812072
 30
0.0
  0
LWPOLYLINE
  5
2D75
330
2E7C
100
AcDbEntity
  8
TEXT
 62
     5
420
      255
370
    25
100
AcDbPolyline
 90
        2
 70
     0
 43
0.0
 10
235.9653876423336
 20
-109.1057852812072
 10
235.9727963923336
 20
-109.1057852812072
  0
LWPOLYLINE
  5
2D76
330
2E7C
100
AcDbEntity
  8
TEXT
 62
     5
420
      255
370
    25
100
AcDbPolyline
 90
        4
 70
     0
 43
0.0
 10
237.5511238923337
 20
-109.3594327812072
 10
237.5511238923337
 20
-110.8911940312072
 10
234.5306413923336
 20
-110.8911940312072
 10
234.5306413923336
 20
-110.8911940312072
  0
SPLINE
  5
2D77
330
2E7C
100
AcDbEntity
  8
TEXT
 62
     5
420
      255
370
    25
100
AcDbSpline
210
0.0
220
0.0
230
1.0
 70
     8
 71
     3
 72
     8
 73
     4
 74
     0
 42
0.000000001
 43
0.001
 12
1.0
 22
0.0
 32
0.0
 13
1.0
 23
0.0
 33
0.0
 40
0.0
 40
0.0
 40
0.0
 40
0.0
 40
1.0
 40
1.0
 40
1.0
 40
1.0
 10
234.6622263923336
 20
-111.5233715312072
 30
0.0
 10
235.5163013923336
 20
-112.4966852812072
 30
0.0
 10
236.5030213923338
 20
-112.9496515312072
 30
0.0
 10
237.5306626423338
 20
-112.9955127812072
 30
0.0
  0
LWPOLYLINE
  5
2D78
330
2E7C
100
AcDbEntity
  8
TEXT
 62
     5
420
      255
370
    25
100
AcDbPolyline
 90
        3
 70
     0
 43
0.0
 10
234.5518076423336
 20
-113.6301602812071
 10
234.5518076423336
 20
-111.5233715312072
 10
234.6622263923336
 20
-111.5233715312072
  0
LWPOLYLINE
  5
2DA2
330
2E7C
100
AcDbEntity
  8
TEXT
 62
     5
420
      255
370
    25
100
AcDbPolyline
 90
        2
 70
     0
 43
0.0
 10
285.2911301423331
 20
-146.6364027812071
 10
285.2946576423331
 20
-144.850994031207
  0
SPLINE
  5
2DA5
330
2E7C
100
AcDbEntity
  8
TEXT
 62
     5
420
      255
370
    25
100
AcDbSpline
210
0.0
220
0.0
230
1.0
 70
     8
 71
     3
 72
     8
 73
     4
 74
     0
 42
0.000000001
 43
0.001
 12
1.0
 22
0.0
 32
0.0
 13
1.0
 23
0.0
 33
0.0
 40
0.0
 40
0.0
 40
0.0
 40
0.0
 40
1.0
 40
1.0
 40
1.0
 40
1.0
 10
286.7297576423333
 20
-146.4921165312071
 30
0.0
 10
286.7297576423333
 20
-146.9704827812071
 30
0.0
 10
286.4718776423331
 20
-147.304564031207
 30
0.0
 10
285.9808113923332
 20
-147.3045640312071
 30
0.0
  0
SPLINE
  5
2DA8
330
2E7C
100
AcDbEntity
  8
TEXT
 62
     5
420
      255
370
    25
100
AcDbSpline
210
0.0
220
0.0
230
1.0
 70
     8
 71
     3
 72
     8
 73
     4
 74
     0
 42
0.000000001
 43
0.001
 12
1.0
 22
0.0
 32
0.0
 13
1.0
 23
0.0
 33
0.0
 40
0.0
 40
0.0
 40
0.0
 40
0.0
 40
1.0
 40
1.0
 40
1.0
 40
1.0
 10
285.9808113923332
 20
-147.3045640312071
 30
0.0
 10
285.6255638923331
 20
-147.3045640312071
 30
0.0
 10
285.2872501423331
 20
-146.9916490312071
 30
0.0
 10
285.2950113923333
 20
-146.6360490312071
 30
0.0
  0
LWPOLYLINE
  5
2DAB
330
2E7C
100
AcDbEntity
  8
TEXT
 62
     5
420
      255
370
    25
100
AcDbPolyline
 90
        2
 70
     0
 43
0.0
 10
286.7297576423333
 20
-144.850994031207
 10
286.7297576423333
 20
-146.4921165312071
  0
SPLINE
  5
2DAC
330
2E7C
100
AcDbEntity
  8
TEXT
 62
     5
420
      255
370
    25
100
AcDbSpline
210
0.0
220
0.0
230
1.0
 70
     8
 71
     3
 72
     8
 73
     4
 74
     0
 42
0.000000001
 43
0.001
 12
1.0
 22
0.0
 32
0.0
 13
1.0
 23
0.0
 33
0.0
 40
0.0
 40
0.0
 40
0.0
 40
0.0
 40
1.0
 40
1.0
 40
1.0
 40
1.0
 10
285.2876026423331
 20
-146.6360490312071
 30
0.0
 10
285.2703163923332
 20
-147.0297490312071
 30
0.0
 10
285.0593551423331
 20
-147.3973440312071
 30
0.0
 10
284.5301888923332
 20
-147.3973440312071
 30
0.0
  0
SPLINE
  5
2DAF
330
2E7C
100
AcDbEntity
  8
TEXT
 62
     5
420
      255
370
    25
100
AcDbSpline
210
0.0
220
0.0
230
1.0
 70
     8
 71
     3
 72
     8
 73
     4
 74
     0
 42
0.000000001
 43
0.001
 12
1.0
 22
0.0
 32
0.0
 13
1.0
 23
0.0
 33
0.0
 40
0.0
 40
0.0
 40
0.0
 40
0.0
 40
1.0
 40
1.0
 40
1.0
 40
1.0
 10
284.5301888923332
 20
-147.3973440312071
 30
0.0
 10
284.1784688923331
 20
-147.3973440312071
 30
0.0
 10
283.7092751423332
 20
-147.1736827812072
 30
0.0
 10
283.7092751423332
 20
-146.3827552812071
 30
0.0
  0
LWPOLYLINE
  5
2DB2
330
2E7C
100
AcDbEntity
  8
TEXT
 62
     5
420
      255
370
    25
100
AcDbPolyline
 90
        2
 70
     0
 43
0.0
 10
285.2950113923333
 20
-146.6360490312071
 10
285.2876026423331
 20
-146.6360490312071
  0
LWPOLYLINE
  5
2DB5
330
2E7C
100
AcDbEntity
  8
TEXT
 62
     5
420
      255
370
    25
100
AcDbPolyline
 90
        4
 70
     0
 43
0.0
 10
283.7092751423332
 20
-146.3827552812071
 10
283.7092751423332
 20
-144.850994031207
 10
286.7297576423333
 20
-144.850994031207
 10
286.7297576423333
 20
-144.850994031207
  0
LWPOLYLINE
  5
2DBF
330
2E7C
100
AcDbEntity
  8
TEXT
 62
     5
420
      255
370
    25
100
AcDbPolyline
 90
        2
 70
     0
 43
0.0
 10
284.8701715079643
 20
-218.0486381941179
 10
284.8736990079643
 20
-216.2632294441178
  0
SPLINE
  5
2DC2
330
2E7C
100
AcDbEntity
  8
TEXT
 62
     5
420
      255
370
    25
100
AcDbSpline
210
0.0
220
0.0
230
1.0
 70
     8
 71
     3
 72
     8
 73
     4
 74
     0
 42
0.000000001
 43
0.001
 12
1.0
 22
0.0
 32
0.0
 13
1.0
 23
0.0
 33
0.0
 40
0.0
 40
0.0
 40
0.0
 40
0.0
 40
1.0
 40
1.0
 40
1.0
 40
1.0
 10
286.3087990079645
 20
-217.9043519441178
 30
0.0
 10
286.3087990079645
 20
-218.3827181941179
 30
0.0
 10
286.0509190079644
 20
-218.7167994441178
 30
0.0
 10
285.5598527579644
 20
-218.7167994441178
 30
0.0
  0
SPLINE
  5
2DC5
330
2E7C
100
AcDbEntity
  8
TEXT
 62
     5
420
      255
370
    25
100
AcDbSpline
210
0.0
220
0.0
230
1.0
 70
     8
 71
     3
 72
     8
 73
     4
 74
     0
 42
0.000000001
 43
0.001
 12
1.0
 22
0.0
 32
0.0
 13
1.0
 23
0.0
 33
0.0
 40
0.0
 40
0.0
 40
0.0
 40
0.0
 40
1.0
 40
1.0
 40
1.0
 40
1.0
 10
285.5598527579644
 20
-218.7167994441178
 30
0.0
 10
285.2046052579643
 20
-218.7167994441178
 30
0.0
 10
284.8662915079643
 20
-218.4038844441178
 30
0.0
 10
284.8740527579645
 20
-218.0482844441178
 30
0.0
  0
LWPOLYLINE
  5
2DC8
330
2E7C
100
AcDbEntity
  8
TEXT
 62
     5
420
      255
370
    25
100
AcDbPolyline
 90
        2
 70
     0
 43
0.0
 10
286.3087990079645
 20
-216.2632294441178
 10
286.3087990079645
 20
-217.9043519441178
  0
SPLINE
  5
2DC9
330
2E7C
100
AcDbEntity
  8
TEXT
 62
     5
420
      255
370
    25
100
AcDbSpline
210
0.0
220
0.0
230
1.0
 70
     8
 71
     3
 72
     8
 73
     4
 74
     0
 42
0.000000001
 43
0.001
 12
1.0
 22
0.0
 32
0.0
 13
1.0
 23
0.0
 33
0.0
 40
0.0
 40
0.0
 40
0.0
 40
0.0
 40
1.0
 40
1.0
 40
1.0
 40
1.0
 10
284.8666440079643
 20
-218.0482844441178
 30
0.0
 10
284.8493577579644
 20
-218.4419844441178
 30
0.0
 10
284.6383965079643
 20
-218.8095794441179
 30
0.0
 10
284.1092302579644
 20
-218.8095794441179
 30
0.0
  0
SPLINE
  5
2DCC
330
2E7C
100
AcDbEntity
  8
TEXT
 62
     5
420
      255
370
    25
100
AcDbSpline
210
0.0
220
0.0
230
1.0
 70
     8
 71
     3
 72
     8
 73
     4
 74
     0
 42
0.000000001
 43
0.001
 12
1.0
 22
0.0
 32
0.0
 13
1.0
 23
0.0
 33
0.0
 40
0.0
 40
0.0
 40
0.0
 40
0.0
 40
1.0
 40
1.0
 40
1.0
 40
1.0
 10
284.1092302579644
 20
-218.8095794441179
 30
0.0
 10
283.7575102579643
 20
-218.8095794441178
 30
0.0
 10
283.2883165079644
 20
-218.5859181941179
 30
0.0
 10
283.2883165079644
 20
-217.7949906941178
 30
0.0
  0
LWPOLYLINE
  5
2DCF
330
2E7C
100
AcDbEntity
  8
TEXT
 62
     5
420
      255
370
    25
100
AcDbPolyline
 90
        2
 70
     0
 43
0.0
 10
284.8740527579645
 20
-218.0482844441178
 10
284.8666440079643
 20
-218.0482844441178
  0
LWPOLYLINE
  5
2DD2
330
2E7C
100
AcDbEntity
  8
TEXT
 62
     5
420
      255
370
    25
100
AcDbPolyline
 90
        4
 70
     0
 43
0.0
 10
283.2883165079644
 20
-217.7949906941178
 10
283.2883165079644
 20
-216.2632294441178
 10
286.3087990079645
 20
-216.2632294441178
 10
286.3087990079645
 20
-216.2632294441178
  0
SPLINE
  5
2DD5
330
2E7C
100
AcDbEntity
  8
TEXT
 62
     5
420
      255
370
    25
100
AcDbSpline
210
0.0
220
0.0
230
1.0
 70
     8
 71
     3
 72
     8
 73
     4
 74
     0
 42
0.000000001
 43
0.001
 12
1.0
 22
0.0
 32
0.0
 13
1.0
 23
0.0
 33
0.0
 40
0.0
 40
0.0
 40
0.0
 40
0.0
 40
1.0
 40
1.0
 40
1.0
 40
1.0
 10
286.1772140079644
 20
-215.6310519441179
 30
0.0
 10
285.3231390079644
 20
-214.6573844441178
 30
0.0
 10
284.3364190079643
 20
-214.2047706941179
 30
0.0
 10
283.3087777579643
 20
-214.1585569441179
 30
0.0
  0
LWPOLYLINE
  5
2DD8
330
2E7C
100
AcDbEntity
  8
TEXT
 62
     5
420
      255
370
    25
100
AcDbPolyline
 90
        3
 70
     0
 43
0.0
 10
286.2876327579644
 20
-213.523909444118
 10
286.2876327579644
 20
-215.6310519441179
 10
286.1772140079644
 20
-215.6310519441179
  0
LWPOLYLINE
  5
2DDB
330
2E7C
100
AcDbEntity
  8
TEXT
 62
     5
420
      255
370
    25
100
AcDbPolyline
 90
        2
 70
     0
 43
0.0
 10
235.5483102579647
 20
-180.5180206941179
 10
235.5447827579648
 20
-182.3034294441179
  0
SPLINE
  5
2DDD
330
2E7C
100
AcDbEntity
  8
TEXT
 62
     5
420
      255
370
    25
100
AcDbSpline
210
0.0
220
0.0
230
1.0
 70
     8
 71
     3
 72
     8
 73
     4
 74
     0
 42
0.000000001
 43
0.001
 12
1.0
 22
0.0
 32
0.0
 13
1.0
 23
0.0
 33
0.0
 40
0.0
 40
0.0
 40
0.0
 40
0.0
 40
1.0
 40
1.0
 40
1.0
 40
1.0
 10
234.1096827579648
 20
-180.6619544441179
 30
0.0
 10
234.1096827579648
 20
-180.183940694118
 30
0.0
 10
234.3675627579648
 20
-179.8498594441179
 30
0.0
 10
234.8586290079648
 20
-179.8498594441179
 30
0.0
  0
SPLINE
  5
2DDE
330
2E7C
100
AcDbEntity
  8
TEXT
 62
     5
420
      255
370
    25
100
AcDbSpline
210
0.0
220
0.0
230
1.0
 70
     8
 71
     3
 72
     8
 73
     4
 74
     0
 42
0.000000001
 43
0.001
 12
1.0
 22
0.0
 32
0.0
 13
1.0
 23
0.0
 33
0.0
 40
0.0
 40
0.0
 40
0.0
 40
0.0
 40
1.0
 40
1.0
 40
1.0
 40
1.0
 10
234.8586290079648
 20
-179.8498594441179
 30
0.0
 10
235.2138765079648
 20
-179.8498594441179
 30
0.0
 10
235.5521902579648
 20
-180.1624206941178
 30
0.0
 10
235.5444290079648
 20
-180.5180206941179
 30
0.0
  0
LWPOLYLINE
  5
2DE0
330
2E7C
100
AcDbEntity
  8
TEXT
 62
     5
420
      255
370
    25
100
AcDbPolyline
 90
        2
 70
     0
 43
0.0
 10
234.1096827579648
 20
-182.3034294441179
 10
234.1096827579648
 20
-180.6619544441179
  0
SPLINE
  5
2DE1
330
2E7C
100
AcDbEntity
  8
TEXT
 62
     5
420
      255
370
    25
100
AcDbSpline
210
0.0
220
0.0
230
1.0
 70
     8
 71
     3
 72
     8
 73
     4
 74
     0
 42
0.000000001
 43
0.001
 12
1.0
 22
0.0
 32
0.0
 13
1.0
 23
0.0
 33
0.0
 40
0.0
 40
0.0
 40
0.0
 40
0.0
 40
1.0
 40
1.0
 40
1.0
 40
1.0
 10
235.5518377579648
 20
-180.5180206941179
 30
0.0
 10
235.5691240079647
 20
-180.124673194118
 30
0.0
 10
235.7800852579648
 20
-179.756725694118
 30
0.0
 10
236.3092515079648
 20
-179.756725694118
 30
0.0
  0
SPLINE
  5
2DE3
330
2E7C
100
AcDbEntity
  8
TEXT
 62
     5
420
      255
370
    25
100
AcDbSpline
210
0.0
220
0.0
230
1.0
 70
     8
 71
     3
 72
     8
 73
     4
 74
     0
 42
0.000000001
 43
0.001
 12
1.0
 22
0.0
 32
0.0
 13
1.0
 23
0.0
 33
0.0
 40
0.0
 40
0.0
 40
0.0
 40
0.0
 40
1.0
 40
1.0
 40
1.0
 40
1.0
 10
236.3092515079648
 20
-179.756725694118
 30
0.0
 10
236.6609715079649
 20
-179.756725694118
 30
0.0
 10
237.1301652579649
 20
-179.980740694118
 30
0.0
 10
237.1301652579649
 20
-180.771668194118
 30
0.0
  0
LWPOLYLINE
  5
2DE4
330
2E7C
100
AcDbEntity
  8
TEXT
 62
     5
420
      255
370
    25
100
AcDbPolyline
 90
        2
 70
     0
 43
0.0
 10
235.5444290079648
 20
-180.5180206941179
 10
235.5518377579648
 20
-180.5180206941179
  0
LWPOLYLINE
  5
2DE5
330
2E7C
100
AcDbEntity
  8
TEXT
 62
     5
420
      255
370
    25
100
AcDbPolyline
 90
        4
 70
     0
 43
0.0
 10
237.1301652579649
 20
-180.771668194118
 10
237.1301652579649
 20
-182.3034294441179
 10
234.1096827579648
 20
-182.3034294441179
 10
234.1096827579648
 20
-182.3034294441179
  0
SPLINE
  5
2DE6
330
2E7C
100
AcDbEntity
  8
TEXT
 62
     5
420
      255
370
    25
100
AcDbSpline
210
0.0
220
0.0
230
1.0
 70
     8
 71
     3
 72
     8
 73
     4
 74
     0
 42
0.000000001
 43
0.001
 12
1.0
 22
0.0
 32
0.0
 13
1.0
 23
0.0
 33
0.0
 40
0.0
 40
0.0
 40
0.0
 40
0.0
 40
1.0
 40
1.0
 40
1.0
 40
1.0
 10
234.2412677579648
 20
-182.9356069441179
 30
0.0
 10
235.0953427579647
 20
-183.9089206941179
 30
0.0
 10
236.082062757965
 20
-184.3618869441179
 30
0.0
 10
237.109704007965
 20
-184.407748194118
 30
0.0
  0
LWPOLYLINE
  5
2DE7
330
2E7C
100
AcDbEntity
  8
TEXT
 62
     5
420
      255
370
    25
100
AcDbPolyline
 90
        3
 70
     0
 43
0.0
 10
234.1308490079648
 20
-185.0423956941179
 10
234.1308490079648
 20
-182.9356069441179
 10
234.2412677579648
 20
-182.9356069441179
  0
LWPOLYLINE
  5
2E11
330
2E7C
100
AcDbEntity
  8
TEXT
 62
     5
420
      255
370
    25
100
AcDbPolyline
 90
        2
 70
     0
 43
0.0
 10
285.1715121143004
 20
-288.3756866303022
 10
285.1750396143004
 20
-286.5902778803021
  0
SPLINE
  5
2E14
330
2E7C
100
AcDbEntity
  8
TEXT
 62
     5
420
      255
370
    25
100
AcDbSpline
210
0.0
220
0.0
230
1.0
 70
     8
 71
     3
 72
     8
 73
     4
 74
     0
 42
0.000000001
 43
0.001
 12
1.0
 22
0.0
 32
0.0
 13
1.0
 23
0.0
 33
0.0
 40
0.0
 40
0.0
 40
0.0
 40
0.0
 40
1.0
 40
1.0
 40
1.0
 40
1.0
 10
286.6101396143005
 20
-288.2314003803021
 30
0.0
 10
286.6101396143005
 20
-288.7097666303022
 30
0.0
 10
286.3522596143004
 20
-289.0438478803021
 30
0.0
 10
285.8611933643005
 20
-289.0438478803022
 30
0.0
  0
SPLINE
  5
2E17
330
2E7C
100
AcDbEntity
  8
TEXT
 62
     5
420
      255
370
    25
100
AcDbSpline
210
0.0
220
0.0
230
1.0
 70
     8
 71
     3
 72
     8
 73
     4
 74
     0
 42
0.000000001
 43
0.001
 12
1.0
 22
0.0
 32
0.0
 13
1.0
 23
0.0
 33
0.0
 40
0.0
 40
0.0
 40
0.0
 40
0.0
 40
1.0
 40
1.0
 40
1.0
 40
1.0
 10
285.8611933643005
 20
-289.0438478803022
 30
0.0
 10
285.5059458643004
 20
-289.0438478803022
 30
0.0
 10
285.1676321143004
 20
-288.7309328803022
 30
0.0
 10
285.1753933643005
 20
-288.3753328803022
 30
0.0
  0
LWPOLYLINE
  5
2E1A
330
2E7C
100
AcDbEntity
  8
TEXT
 62
     5
420
      255
370
    25
100
AcDbPolyline
 90
        2
 70
     0
 43
0.0
 10
286.6101396143005
 20
-286.5902778803021
 10
286.6101396143005
 20
-288.2314003803021
  0
SPLINE
  5
2E1B
330
2E7C
100
AcDbEntity
  8
TEXT
 62
     5
420
      255
370
    25
100
AcDbSpline
210
0.0
220
0.0
230
1.0
 70
     8
 71
     3
 72
     8
 73
     4
 74
     0
 42
0.000000001
 43
0.001
 12
1.0
 22
0.0
 32
0.0
 13
1.0
 23
0.0
 33
0.0
 40
0.0
 40
0.0
 40
0.0
 40
0.0
 40
1.0
 40
1.0
 40
1.0
 40
1.0
 10
285.1679846143003
 20
-288.3753328803022
 30
0.0
 10
285.1506983643005
 20
-288.7690328803022
 30
0.0
 10
284.9397371143004
 20
-289.1366278803022
 30
0.0
 10
284.4105708643005
 20
-289.1366278803022
 30
0.0
  0
SPLINE
  5
2E1E
330
2E7C
100
AcDbEntity
  8
TEXT
 62
     5
420
      255
370
    25
100
AcDbSpline
210
0.0
220
0.0
230
1.0
 70
     8
 71
     3
 72
     8
 73
     4
 74
     0
 42
0.000000001
 43
0.001
 12
1.0
 22
0.0
 32
0.0
 13
1.0
 23
0.0
 33
0.0
 40
0.0
 40
0.0
 40
0.0
 40
0.0
 40
1.0
 40
1.0
 40
1.0
 40
1.0
 10
284.4105708643005
 20
-289.1366278803022
 30
0.0
 10
284.0588508643004
 20
-289.1366278803022
 30
0.0
 10
283.5896571143005
 20
-288.9129666303023
 30
0.0
 10
283.5896571143005
 20
-288.1220391303021
 30
0.0
  0
LWPOLYLINE
  5
2E21
330
2E7C
100
AcDbEntity
  8
TEXT
 62
     5
420
      255
370
    25
100
AcDbPolyline
 90
        2
 70
     0
 43
0.0
 10
285.1753933643005
 20
-288.3753328803022
 10
285.1679846143003
 20
-288.3753328803022
  0
LWPOLYLINE
  5
2E24
330
2E7C
100
AcDbEntity
  8
TEXT
 62
     5
420
      255
370
    25
100
AcDbPolyline
 90
        4
 70
     0
 43
0.0
 10
283.5896571143005
 20
-288.1220391303021
 10
283.5896571143005
 20
-286.5902778803021
 10
286.6101396143005
 20
-286.5902778803021
 10
286.6101396143005
 20
-286.5902778803021
  0
SPLINE
  5
2E27
330
2E7C
100
AcDbEntity
  8
TEXT
 62
     5
420
      255
370
    25
100
AcDbSpline
210
0.0
220
0.0
230
1.0
 70
     8
 71
     3
 72
     8
 73
     4
 74
     0
 42
0.000000001
 43
0.001
 12
1.0
 22
0.0
 32
0.0
 13
1.0
 23
0.0
 33
0.0
 40
0.0
 40
0.0
 40
0.0
 40
0.0
 40
1.0
 40
1.0
 40
1.0
 40
1.0
 10
286.4785546143004
 20
-285.9581003803023
 30
0.0
 10
285.6244796143005
 20
-284.9844328803022
 30
0.0
 10
284.6377596143004
 20
-284.5318191303022
 30
0.0
 10
283.6101183643004
 20
-284.4856053803023
 30
0.0
  0
LWPOLYLINE
  5
2E2A
330
2E7C
100
AcDbEntity
  8
TEXT
 62
     5
420
      255
370
    25
100
AcDbPolyline
 90
        3
 70
     0
 43
0.0
 10
286.5889733643004
 20
-283.8509578803023
 10
286.5889733643004
 20
-285.9581003803023
 10
286.4785546143004
 20
-285.9581003803023
  0
LWPOLYLINE
  5
2E2D
330
2E7C
100
AcDbEntity
  8
TEXT
 62
     5
420
      255
370
    25
100
AcDbPolyline
 90
        2
 70
     0
 43
0.0
 10
235.8496508643008
 20
-250.8450691303023
 10
235.8461233643009
 20
-252.6304778803023
  0
SPLINE
  5
2E2F
330
2E7C
100
AcDbEntity
  8
TEXT
 62
     5
420
      255
370
    25
100
AcDbSpline
210
0.0
220
0.0
230
1.0
 70
     8
 71
     3
 72
     8
 73
     4
 74
     0
 42
0.000000001
 43
0.001
 12
1.0
 22
0.0
 32
0.0
 13
1.0
 23
0.0
 33
0.0
 40
0.0
 40
0.0
 40
0.0
 40
0.0
 40
1.0
 40
1.0
 40
1.0
 40
1.0
 10
234.4110233643009
 20
-250.9890028803023
 30
0.0
 10
234.4110233643009
 20
-250.5109891303023
 30
0.0
 10
234.6689033643009
 20
-250.1769078803023
 30
0.0
 10
235.1599696143009
 20
-250.1769078803023
 30
0.0
  0
SPLINE
  5
2E30
330
2E7C
100
AcDbEntity
  8
TEXT
 62
     5
420
      255
370
    25
100
AcDbSpline
210
0.0
220
0.0
230
1.0
 70
     8
 71
     3
 72
     8
 73
     4
 74
     0
 42
0.000000001
 43
0.001
 12
1.0
 22
0.0
 32
0.0
 13
1.0
 23
0.0
 33
0.0
 40
0.0
 40
0.0
 40
0.0
 40
0.0
 40
1.0
 40
1.0
 40
1.0
 40
1.0
 10
235.1599696143009
 20
-250.1769078803023
 30
0.0
 10
235.5152171143009
 20
-250.1769078803023
 30
0.0
 10
235.8535308643009
 20
-250.4894691303022
 30
0.0
 10
235.8457696143008
 20
-250.8450691303023
 30
0.0
  0
LWPOLYLINE
  5
2E32
330
2E7C
100
AcDbEntity
  8
TEXT
 62
     5
420
      255
370
    25
100
AcDbPolyline
 90
        2
 70
     0
 43
0.0
 10
234.4110233643009
 20
-252.6304778803023
 10
234.4110233643009
 20
-250.9890028803023
  0
SPLINE
  5
2E33
330
2E7C
100
AcDbEntity
  8
TEXT
 62
     5
420
      255
370
    25
100
AcDbSpline
210
0.0
220
0.0
230
1.0
 70
     8
 71
     3
 72
     8
 73
     4
 74
     0
 42
0.000000001
 43
0.001
 12
1.0
 22
0.0
 32
0.0
 13
1.0
 23
0.0
 33
0.0
 40
0.0
 40
0.0
 40
0.0
 40
0.0
 40
1.0
 40
1.0
 40
1.0
 40
1.0
 10
235.8531783643008
 20
-250.8450691303023
 30
0.0
 10
235.8704646143008
 20
-250.4517216303024
 30
0.0
 10
236.0814258643009
 20
-250.0837741303024
 30
0.0
 10
236.6105921143009
 20
-250.0837741303024
 30
0.0
  0
SPLINE
  5
2E35
330
2E7C
100
AcDbEntity
  8
TEXT
 62
     5
420
      255
370
    25
100
AcDbSpline
210
0.0
220
0.0
230
1.0
 70
     8
 71
     3
 72
     8
 73
     4
 74
     0
 42
0.000000001
 43
0.001
 12
1.0
 22
0.0
 32
0.0
 13
1.0
 23
0.0
 33
0.0
 40
0.0
 40
0.0
 40
0.0
 40
0.0
 40
1.0
 40
1.0
 40
1.0
 40
1.0
 10
236.6105921143009
 20
-250.0837741303024
 30
0.0
 10
236.962312114301
 20
-250.0837741303024
 30
0.0
 10
237.4315058643009
 20
-250.3077891303024
 30
0.0
 10
237.4315058643009
 20
-251.0987166303023
 30
0.0
  0
LWPOLYLINE
  5
2E36
330
2E7C
100
AcDbEntity
  8
TEXT
 62
     5
420
      255
370
    25
100
AcDbPolyline
 90
        2
 70
     0
 43
0.0
 10
235.8457696143008
 20
-250.8450691303023
 10
235.8531783643008
 20
-250.8450691303023
  0
LWPOLYLINE
  5
2E37
330
2E7C
100
AcDbEntity
  8
TEXT
 62
     5
420
      255
370
    25
100
AcDbPolyline
 90
        4
 70
     0
 43
0.0
 10
237.4315058643009
 20
-251.0987166303023
 10
237.4315058643009
 20
-252.6304778803023
 10
234.4110233643009
 20
-252.6304778803023
 10
234.4110233643009
 20
-252.6304778803023
  0
SPLINE
  5
2E38
330
2E7C
100
AcDbEntity
  8
TEXT
 62
     5
420
      255
370
    25
100
AcDbSpline
210
0.0
220
0.0
230
1.0
 70
     8
 71
     3
 72
     8
 73
     4
 74
     0
 42
0.000000001
 43
0.001
 12
1.0
 22
0.0
 32
0.0
 13
1.0
 23
0.0
 33
0.0
 40
0.0
 40
0.0
 40
0.0
 40
0.0
 40
1.0
 40
1.0
 40
1.0
 40
1.0
 10
234.5426083643008
 20
-253.2626553803023
 30
0.0
 10
235.3966833643008
 20
-254.2359691303023
 30
0.0
 10
236.383403364301
 20
-254.6889353803023
 30
0.0
 10
237.411044614301
 20
-254.7347966303023
 30
0.0
  0
LWPOLYLINE
  5
2E39
330
2E7C
100
AcDbEntity
  8
TEXT
 62
     5
420
      255
370
    25
100
AcDbPolyline
 90
        3
 70
     0
 43
0.0
 10
234.4321896143008
 20
-255.3694441303022
 10
234.4321896143008
 20
-253.2626553803023
 10
234.5426083643008
 20
-253.2626553803023
  0
LINE
  5
2E5A
330
2E7C
100
AcDbEntity
  8
laser bed referance
100
AcDbLine
 10
0.0
 20
0.0
 30
0.0
 11
609.6
 21
0.0
 31
0.0
  0
LINE
  5
2E5B
330
2E7C
100
AcDbEntity
  8
laser bed referance
100
AcDbLine
 10
0.0
 20
-304.8
 30
0.0
 11
0.0
 21
0.0
 31
0.0
  0
LINE
  5
2E5C
330
2E7C
100
AcDbEntity
  8
laser bed referance
100
AcDbLine
 10
609.6
 20
-304.8
 30
0.0
 11
609.6
 21
0.0
 31
0.0
  0
LINE
  5
2E5D
330
2E7C
100
AcDbEntity
  8
laser bed referance
100
AcDbLine
 10
0.0
 20
-304.8
 30
0.0
 11
609.6
 21
-304.8
 31
0.0
  0
ENDSEC
  0
SECTION
  2
OBJECTS
  0
DICTIONARY
  5
2E6A
330
0
100
AcDbDictionary
281
     1
  3
ACAD_GROUP
350
2E6B
  3
ACAD_LAYOUT
350
2E77
  3
ACAD_MATERIAL
350
2E98
  3
ACAD_MLEADERSTYLE
350
2EC7
  3
ACAD_MLINESTYLE
350
2E74
  3
ACAD_PLOTSETTINGS
350
2E76
  3
ACAD_PLOTSTYLENAME
350
2E6C
  3
ACAD_TABLESTYLE
350
2EC6
  3
ACAD_VISUALSTYLE
350
2E87
  3
QCAD_OBJECTS
350
2E9D
  0
DICTIONARY
  5
2E6B
102
{ACAD_REACTORS
330
2E6A
102
}
330
2E6A
100
AcDbDictionary
281
     1
  0
DICTIONARY
  5
2E77
102
{ACAD_REACTORS
330
2E6A
102
}
330
2E6A
100
AcDbDictionary
281
     1
  3
Layout1
350
2E7B
  3
Layout2
350
2E83
  3
Model
350
2E7F
  0
DICTIONARY
  5
2E98
102
{ACAD_REACTORS
330
2E6A
102
}
330
2E6A
100
AcDbDictionary
281
     1
  3
ByBlock
350
2E9A
  3
ByLayer
350
2E99
  3
Global
350
2E9B
  0
DICTIONARY
  5
2EC7
102
{ACAD_REACTORS
330
2E6A
102
}
330
2E6A
100
AcDbDictionary
281
     1
  0
DICTIONARY
  5
2E74
102
{ACAD_REACTORS
330
2E6A
102
}
330
2E6A
100
AcDbDictionary
281
     1
  3
Standard
350
2E75
  0
DICTIONARY
  5
2E76
102
{ACAD_REACTORS
330
2E6A
102
}
330
2E6A
100
AcDbDictionary
281
     1
  0
ACDBDICTIONARYWDFLT
  5
2E6C
102
{ACAD_REACTORS
330
2E6A
102
}
330
2E6A
100
AcDbDictionary
281
     1
  3
Normal
350
2E6D
100
AcDbDictionaryWithDefault
340
2E6D
  0
DICTIONARY
  5
2EC6
102
{ACAD_REACTORS
330
2E6A
102
}
330
2E6A
100
AcDbDictionary
281
     1
  0
DICTIONARY
  5
2E87
102
{ACAD_REACTORS
330
2E6A
102
}
330
2E6A
100
AcDbDictionary
281
     1
  3
2dWireframe
350
2E8C
  3
3D Hidden
350
2E8E
  3
3dWireframe
350
2E8D
  3
Basic
350
2E8F
  3
Brighten
350
2E93
  3
ColorChange
350
2E97
  3
Conceptual
350
2E91
  3
Dim
350
2E92
  3
Facepattern
350
2E96
  3
Flat
350
2E88
  3
FlatWithEdges
350
2E89
  3
Gouraud
350
2E8A
  3
GouraudWithEdges
350
2E8B
  3
Linepattern
350
2E95
  3
Realistic
350
2E90
  3
Thicken
350
2E94
  0
DICTIONARY
  5
2E9D
102
{ACAD_REACTORS
330
2E6A
102
}
330
2E6A
100
AcDbDictionary
281
     1
  3
Grid/DisplayGrid
350
2EAC
  3
Grid/GridSpacingX
350
2EA5
  3
Grid/GridSpacingY
350
2EA7
  3
MultiPageSettings/Columns
350
2EA4
  3
MultiPageSettings/GlueMarginBottom
350
2EA1
  3
MultiPageSettings/GlueMarginsLeft
350
2EA8
  3
MultiPageSettings/GlueMarginsRight
350
2E9E
  3
MultiPageSettings/GlueMarginsTop
350
2EB0
  3
MultiPageSettings/PrintCropMarks
350
2EA0
  3
MultiPageSettings/Rows
350
2EA9
  3
PageSettings/OffsetX
350
2EAE
  3
PageSettings/OffsetY
350
2EAF
  3
PageSettings/PageOrientation
350
2E9F
  3
PageSettings/PaperHeight
350
2EA3
  3
PageSettings/PaperWidth
350
2EAA
  3
PageSettings/Scale
350
2EA2
  3
PageSettings/ShowBoundingBox
350
2EA6
  3
PageSettings/ShowPageBorders
350
2EAD
  3
UnitSettings/PaperUnit
350
2EAB
  0
LAYOUT
  5
2E7B
102
{ACAD_REACTORS
330
2E77
102
}
330
2E77
100
AcDbPlotSettings
  1

  2
none_device
  4

  6

 40
0.0
 41
0.0
 42
0.0
 43
0.0
 44
0.0
 45
0.0
 46
0.0
 47
0.0
 48
0.0
 49
0.0
140
0.0
141
0.0
142
1.0
143
1.0
 70
   688
 72
     0
 73
     0
 74
     5
  7

 75
    16
 76
     0
 77
     2
 78
   300
147
1.0
148
0.0
149
0.0
100
AcDbLayout
  1
Layout1
 70
     1
 71
     1
 10
0.0
 20
0.0
 11
12.0
 21
9.0
 12
0.0
 22
0.0
 32
0.0
 14
1.000000000000000E+20
 24
1.000000000000000E+20
 34
1.000000000000000E+20
 15
-1.000000000000000E+20
 25
-1.000000000000000E+20
 35
-1.000000000000000E+20
146
0.0
 13
0.0
 23
0.0
 33
0.0
 16
1.0
 26
0.0
 36
0.0
 17
0.0
 27
1.0
 37
0.0
 76
     0
330
2E78
  0
LAYOUT
  5
2E83
102
{ACAD_REACTORS
330
2E77
102
}
330
2E77
100
AcDbPlotSettings
  1

  2
none_device
  4

  6

 40
0.0
 41
0.0
 42
0.0
 43
0.0
 44
0.0
 45
0.0
 46
0.0
 47
0.0
 48
0.0
 49
0.0
140
0.0
141
0.0
142
1.0
143
1.0
 70
   688
 72
     0
 73
     0
 74
     5
  7

 75
    16
 76
     0
 77
     2
 78
   300
147
1.0
148
0.0
149
0.0
100
AcDbLayout
  1
Layout2
 70
     1
 71
     2
 10
0.0
 20
0.0
 11
0.0
 21
0.0
 12
0.0
 22
0.0
 32
0.0
 14
0.0
 24
0.0
 34
0.0
 15
0.0
 25
0.0
 35
0.0
146
0.0
 13
0.0
 23
0.0
 33
0.0
 16
1.0
 26
0.0
 36
0.0
 17
0.0
 27
1.0
 37
0.0
 76
     0
330
2E80
  0
LAYOUT
  5
2E7F
102
{ACAD_REACTORS
330
2E77
102
}
330
2E77
100
AcDbPlotSettings
  1

  2
none_device
  4

  6

 40
0.0
 41
0.0
 42
0.0
 43
0.0
 44
0.0
 45
0.0
 46
0.0
 47
0.0
 48
0.0
 49
0.0
140
0.0
141
0.0
142
1.0
143
1.0
 70
  1712
 72
     0
 73
     0
 74
     0
  7

 75
     0
 76
     0
 77
     2
 78
   300
147
1.0
148
0.0
149
0.0
100
AcDbLayout
  1
Model
 70
     1
 71
     0
 10
0.0
 20
0.0
 11
12.0
 21
9.0
 12
0.0
 22
0.0
 32
0.0
 14
1.000000000000000E+20
 24
1.000000000000000E+20
 34
1.000000000000000E+20
 15
-1.000000000000000E+20
 25
-1.000000000000000E+20
 35
-1.000000000000000E+20
146
0.0
 13
0.0
 23
0.0
 33
0.0
 16
1.0
 26
0.0
 36
0.0
 17
0.0
 27
1.0
 37
0.0
 76
     0
330
2E7C
331
2E86
  0
MATERIAL
  5
2E9A
102
{ACAD_REACTORS
330
2E98
102
}
330
2E98
100
AcDbMaterial
  1
ByBlock
 72
     1
 94
      127
  0
MATERIAL
  5
2E99
102
{ACAD_REACTORS
330
2E98
102
}
330
2E98
100
AcDbMaterial
  1
ByLayer
 72
     1
 94
      127
  0
MATERIAL
  5
2E9B
102
{ACAD_REACTORS
330
2E98
102
}
330
2E98
100
AcDbMaterial
  1
Global
 72
     1
 94
      127
  0
MLINESTYLE
  5
2E75
102
{ACAD_REACTORS
330
2E74
102
}
330
2E74
100
AcDbMlineStyle
  2
Standard
 70
     0
  3

 62
   256
 51
90.0
 52
90.0
 71
     2
 49
0.5
 62
   256
  6
BYLAYER
 49
-0.5
 62
   256
  6
BYLAYER
  0
ACDBPLACEHOLDER
  5
2E6D
102
{ACAD_REACTORS
330
2E6C
102
}
330
2E6C
  0
VISUALSTYLE
  5
2E8C
102
{ACAD_REACTORS
330
2E87
102
}
330
2E87
100
AcDbVisualStyle
  2
2dWireframe
 70
     4
177
     2
291
     0
 71
     0
176
     1
 72
     2
176
     1
 73
     0
176
     1
 90
        0
176
     1
 40
-0.6
176
     1
 41
-30.0
176
     1
 62
     5
 63
     7
421
 16777215
176
     1
 74
     1
176
     1
 91
        4
176
     1
 64
     7
176
     1
 65
   257
176
     1
 75
     1
176
     1
175
     1
176
     1
 42
1.0
176
     1
 92
        0
176
     1
 66
   257
176
     1
 43
1.0
176
     1
 76
     1
176
     1
 77
     6
176
     1
 78
     2
176
     1
 67
     7
176
     1
 79
     5
176
     1
170
     0
176
     1
171
     0
176
     1
290
     0
176
     1
 93
        1
176
     1
 44
0.0
176
     1
173
     0
176
     1
  0
VISUALSTYLE
  5
2E8E
102
{ACAD_REACTORS
330
2E87
102
}
330
2E87
100
AcDbVisualStyle
  2
3D Hidden
 70
     6
177
     2
291
     0
 71
     1
176
     1
 72
     2
176
     1
 73
     2
176
     1
 90
        0
176
     1
 40
-0.6
176
     1
 41
-30.0
176
     1
 62
     5
 63
     7
421
 16777215
176
     1
 74
     2
176
     1
 91
        2
176
     1
 64
     7
176
     1
 65
   257
176
     1
 75
     2
176
     1
175
     1
176
     1
 42
40.0
176
     1
 92
        0
176
     1
 66
   257
176
     1
 43
1.0
176
     1
 76
     1
176
     1
 77
     6
176
     1
 78
     2
176
     1
 67
     7
176
     1
 79
     3
176
     1
170
     0
176
     1
171
     0
176
     1
290
     0
176
     1
 93
        1
176
     1
 44
0.0
176
     1
173
     0
176
     1
  0
VISUALSTYLE
  5
2E8D
102
{ACAD_REACTORS
330
2E87
102
}
330
2E87
100
AcDbVisualStyle
  2
3dWireframe
 70
     5
177
     2
291
     0
 71
     0
176
     1
 72
     2
176
     1
 73
     0
176
     1
 90
        0
176
     1
 40
-0.6
176
     1
 41
-30.0
176
     1
 62
     5
 63
     7
421
 16777215
176
     1
 74
     1
176
     1
 91
        4
176
     1
 64
     7
176
     1
 65
   257
176
     1
 75
     1
176
     1
175
     1
176
     1
 42
1.0
176
     1
 92
        0
176
     1
 66
   257
176
     1
 43
1.0
176
     1
 76
     1
176
     1
 77
     6
176
     1
 78
     2
176
     1
 67
     7
176
     1
 79
     5
176
     1
170
     0
176
     1
171
     0
176
     1
290
     0
176
     1
 93
        1
176
     1
 44
0.0
176
     1
173
     0
176
     1
  0
VISUALSTYLE
  5
2E8F
102
{ACAD_REACTORS
330
2E87
102
}
330
2E87
100
AcDbVisualStyle
  2
Basic
 70
     7
177
     2
291
     1
 71
     1
176
     1
 72
     0
176
     1
 73
     1
176
     1
 90
        0
176
     1
 40
-0.6
176
     1
 41
-30.0
176
     1
 62
     5
 63
     7
421
 16777215
176
     1
 74
     0
176
     1
 91
        4
176
     1
 64
     7
176
     1
 65
   257
176
     1
 75
     1
176
     1
175
     1
176
     1
 42
1.0
176
     1
 92
        8
176
     1
 66
     7
176
     1
 43
1.0
176
     1
 76
     1
176
     1
 77
     6
176
     1
 78
     2
176
     1
 67
     7
176
     1
 79
     5
176
     1
170
     0
176
     1
171
     0
176
     1
290
     0
176
     1
 93
        1
176
     1
 44
0.0
176
     1
173
     0
176
     1
  0
VISUALSTYLE
  5
2E93
102
{ACAD_REACTORS
330
2E87
102
}
330
2E87
100
AcDbVisualStyle
  2
Brighten
 70
    12
177
     2
291
     1
 71
     2
176
     1
 72
     2
176
     1
 73
     0
176
     1
 90
        0
176
     1
 40
-0.6
176
     1
 41
-30.0
176
     1
 62
     5
 63
     7
421
 16777215
176
     1
 74
     1
176
     1
 91
        4
176
     1
 64
     7
176
     1
 65
   257
176
     1
 75
     1
176
     1
175
     1
176
     1
 42
1.0
176
     1
 92
        8
176
     1
 66
     7
176
     1
 43
1.0
176
     1
 76
     1
176
     1
 77
     6
176
     1
 78
     2
176
     1
 67
     7
176
     1
 79
     5
176
     1
170
     0
176
     1
171
     0
176
     1
290
     0
176
     1
 93
        1
176
     1
 44
50.0
176
     1
173
     0
176
     1
  0
VISUALSTYLE
  5
2E97
102
{ACAD_REACTORS
330
2E87
102
}
330
2E87
100
AcDbVisualStyle
  2
ColorChange
 70
    16
177
     2
291
     1
 71
     2
176
     1
 72
     2
176
     1
 73
     3
176
     1
 90
        0
176
     1
 40
-0.6
176
     1
 41
-30.0
176
     1
 62
     5
 63
     8
421
  8421504
176
     1
 74
     1
176
     1
 91
        4
176
     1
 64
     7
176
     1
 65
   257
176
     1
 75
     1
176
     1
175
     1
176
     1
 42
1.0
176
     1
 92
        8
176
     1
 66
     8
424
  8421504
176
     1
 43
1.0
176
     1
 76
     1
176
     1
 77
     6
176
     1
 78
     2
176
     1
 67
     7
176
     1
 79
     5
176
     1
170
     0
176
     1
171
     0
176
     1
290
     0
176
     1
 93
        1
176
     1
 44
0.0
176
     1
173
     0
176
     1
  0
VISUALSTYLE
  5
2E91
102
{ACAD_REACTORS
330
2E87
102
}
330
2E87
100
AcDbVisualStyle
  2
Conceptual
 70
     9
177
     2
291
     0
 71
     3
176
     1
 72
     2
176
     1
 73
     0
176
     1
 90
        0
176
     1
 40
-0.6
176
     1
 41
-30.0
176
     1
 62
     5
 63
     7
421
 16777215
176
     1
 74
     2
176
     1
 91
        2
176
     1
 64
     7
176
     1
 65
   257
176
     1
 75
     1
176
     1
175
     1
176
     1
 42
40.0
176
     1
 92
        8
176
     1
 66
     7
176
     1
 43
1.0
176
     1
 76
     1
176
     1
 77
     6
176
     1
 78
     2
176
     1
 67
     7
176
     1
 79
     3
176
     1
170
     0
176
     1
171
     0
176
     1
290
     0
176
     1
 93
        1
176
     1
 44
0.0
176
     1
173
     0
176
     1
  0
VISUALSTYLE
  5
2E92
102
{ACAD_REACTORS
330
2E87
102
}
330
2E87
100
AcDbVisualStyle
  2
Dim
 70
    11
177
     2
291
     1
 71
     2
176
     1
 72
     2
176
     1
 73
     0
176
     1
 90
        0
176
     1
 40
-0.6
176
     1
 41
-30.0
176
     1
 62
     5
 63
     7
421
 16777215
176
     1
 74
     1
176
     1
 91
        4
176
     1
 64
     7
176
     1
 65
   257
176
     1
 75
     1
176
     1
175
     1
176
     1
 42
1.0
176
     1
 92
        8
176
     1
 66
     7
176
     1
 43
1.0
176
     1
 76
     1
176
     1
 77
     6
176
     1
 78
     2
176
     1
 67
     7
176
     1
 79
     5
176
     1
170
     0
176
     1
171
     0
176
     1
290
     0
176
     1
 93
        1
176
     1
 44
-50.0
176
     1
173
     0
176
     1
  0
VISUALSTYLE
  5
2E96
102
{ACAD_REACTORS
330
2E87
102
}
330
2E87
100
AcDbVisualStyle
  2
Facepattern
 70
    15
177
     2
291
     1
 71
     2
176
     1
 72
     2
176
     1
 73
     0
176
     1
 90
        0
176
     1
 40
-0.6
176
     1
 41
-30.0
176
     1
 62
     5
 63
     7
421
 16777215
176
     1
 74
     1
176
     1
 91
        4
176
     1
 64
     7
176
     1
 65
   257
176
     1
 75
     1
176
     1
175
     1
176
     1
 42
1.0
176
     1
 92
        8
176
     1
 66
     7
176
     1
 43
1.0
176
     1
 76
     1
176
     1
 77
     6
176
     1
 78
     2
176
     1
 67
     7
176
     1
 79
     5
176
     1
170
     0
176
     1
171
     0
176
     1
290
     0
176
     1
 93
        1
176
     1
 44
0.0
176
     1
173
     0
176
     1
  0
VISUALSTYLE
  5
2E88
102
{ACAD_REACTORS
330
2E87
102
}
330
2E87
100
AcDbVisualStyle
  2
Flat
 70
     0
177
     2
291
     1
 71
     2
176
     1
 72
     1
176
     1
 73
     1
176
     1
 90
        2
176
     1
 40
-0.6
176
     1
 41
30.0
176
     1
 62
     5
 63
     7
421
 16777215
176
     1
 74
     0
176
     1
 91
        4
176
     1
 64
     7
176
     1
 65
   257
176
     1
 75
     1
176
     1
175
     1
176
     1
 42
1.0
176
     1
 92
        8
176
     1
 66
     7
176
     1
 43
1.0
176
     1
 76
     1
176
     1
 77
     6
176
     1
 78
     2
176
     1
 67
     7
176
     1
 79
     5
176
     1
170
     0
176
     1
171
     0
176
     1
290
     0
176
     1
 93
       13
176
     1
 44
0.0
176
     1
173
     0
176
     1
  0
VISUALSTYLE
  5
2E89
102
{ACAD_REACTORS
330
2E87
102
}
330
2E87
100
AcDbVisualStyle
  2
FlatWithEdges
 70
     1
177
     2
291
     1
 71
     2
176
     1
 72
     1
176
     1
 73
     1
176
     1
 90
        2
176
     1
 40
-0.6
176
     1
 41
30.0
176
     1
 62
     5
 63
     7
421
 16777215
176
     1
 74
     1
176
     1
 91
        4
176
     1
 64
     7
176
     1
 65
   257
176
     1
 75
     1
176
     1
175
     1
176
     1
 42
1.0
176
     1
 92
        0
176
     1
 66
   257
176
     1
 43
1.0
176
     1
 76
     1
176
     1
 77
     6
176
     1
 78
     2
176
     1
 67
     7
176
     1
 79
     5
176
     1
170
     0
176
     1
171
     0
176
     1
290
     0
176
     1
 93
       13
176
     1
 44
0.0
176
     1
173
     0
176
     1
  0
VISUALSTYLE
  5
2E8A
102
{ACAD_REACTORS
330
2E87
102
}
330
2E87
100
AcDbVisualStyle
  2
Gouraud
 70
     2
177
     2
291
     1
 71
     2
176
     1
 72
     2
176
     1
 73
     1
176
     1
 90
        2
176
     1
 40
-0.6
176
     1
 41
30.0
176
     1
 62
     5
 63
     7
421
 16777215
176
     1
 74
     0
176
     1
 91
        4
176
     1
 64
     7
176
     1
 65
   257
176
     1
 75
     1
176
     1
175
     1
176
     1
 42
1.0
176
     1
 92
        0
176
     1
 66
     7
176
     1
 43
1.0
176
     1
 76
     1
176
     1
 77
     6
176
     1
 78
     2
176
     1
 67
     7
176
     1
 79
     5
176
     1
170
     0
176
     1
171
     0
176
     1
290
     0
176
     1
 93
       13
176
     1
 44
0.0
176
     1
173
     0
176
     1
  0
VISUALSTYLE
  5
2E8B
102
{ACAD_REACTORS
330
2E87
102
}
330
2E87
100
AcDbVisualStyle
  2
GouraudWithEdges
 70
     3
177
     2
291
     1
 71
     2
176
     1
 72
     2
176
     1
 73
     1
176
     1
 90
        2
176
     1
 40
-0.6
176
     1
 41
30.0
176
     1
 62
     5
 63
     7
421
 16777215
176
     1
 74
     1
176
     1
 91
        4
176
     1
 64
     7
176
     1
 65
   257
176
     1
 75
     1
176
     1
175
     1
176
     1
 42
1.0
176
     1
 92
        0
176
     1
 66
   257
176
     1
 43
1.0
176
     1
 76
     1
176
     1
 77
     6
176
     1
 78
     2
176
     1
 67
     7
176
     1
 79
     5
176
     1
170
     0
176
     1
171
     0
176
     1
290
     0
176
     1
 93
       13
176
     1
 44
0.0
176
     1
173
     0
176
     1
  0
VISUALSTYLE
  5
2E95
102
{ACAD_REACTORS
330
2E87
102
}
330
2E87
100
AcDbVisualStyle
  2
Linepattern
 70
    14
177
     2
291
     1
 71
     2
176
     1
 72
     2
176
     1
 73
     0
176
     1
 90
        0
176
     1
 40
-0.6
176
     1
 41
-30.0
176
     1
 62
     5
 63
     7
421
 16777215
176
     1
 74
     1
176
     1
 91
        4
176
     1
 64
     7
176
     1
 65
   257
176
     1
 75
     7
176
     1
175
     7
176
     1
 42
1.0
176
     1
 92
        8
176
     1
 66
     7
176
     1
 43
1.0
176
     1
 76
     1
176
     1
 77
     6
176
     1
 78
     2
176
     1
 67
     7
176
     1
 79
     5
176
     1
170
     0
176
     1
171
     0
176
     1
290
     0
176
     1
 93
        1
176
     1
 44
0.0
176
     1
173
     0
176
     1
  0
VISUALSTYLE
  5
2E90
102
{ACAD_REACTORS
330
2E87
102
}
330
2E87
100
AcDbVisualStyle
  2
Realistic
 70
     8
177
     2
291
     0
 71
     2
176
     1
 72
     2
176
     1
 73
     0
176
     1
 90
        0
176
     1
 40
-0.6
176
     1
 41
-30.0
176
     1
 62
     5
 63
     7
421
 16777215
176
     1
 74
     1
176
     1
 91
        0
176
     1
 64
     7
176
     1
 65
   257
176
     1
 75
     1
176
     1
175
     1
176
     1
 42
1.0
176
     1
 92
        8
176
     1
 66
     8
424
  7895160
176
     1
 43
1.0
176
     1
 76
     1
176
     1
 77
     6
176
     1
 78
     2
176
     1
 67
     7
176
     1
 79
     5
176
     1
170
     0
176
     1
171
     0
176
     1
290
     0
176
     1
 93
       13
176
     1
 44
0.0
176
     1
173
     0
176
     1
  0
VISUALSTYLE
  5
2E94
102
{ACAD_REACTORS
330
2E87
102
}
330
2E87
100
AcDbVisualStyle
  2
Thicken
 70
    13
177
     2
291
     1
 71
     2
176
     1
 72
     2
176
     1
 73
     0
176
     1
 90
        0
176
     1
 40
-0.6
176
     1
 41
-30.0
176
     1
 62
     5
 63
     7
421
 16777215
176
     1
 74
     1
176
     1
 91
        4
176
     1
 64
     7
176
     1
 65
   257
176
     1
 75
     1
176
     1
175
     1
176
     1
 42
1.0
176
     1
 92
       12
176
     1
 66
     7
176
     1
 43
1.0
176
     1
 76
     1
176
     1
 77
     6
176
     1
 78
     2
176
     1
 67
     7
176
     1
 79
     5
176
     1
170
     0
176
     1
171
     0
176
     1
290
     0
176
     1
 93
        1
176
     1
 44
0.0
176
     1
173
     0
176
     1
  0
XRECORD
  5
2EAC
102
{ACAD_REACTORS
330
2E9D
102
}
330
2E9D
100
AcDbXrecord
280
     1
290
     1
  0
XRECORD
  5
2EA5
102
{ACAD_REACTORS
330
2E9D
102
}
330
2E9D
100
AcDbXrecord
280
     1
1000
auto
  0
XRECORD
  5
2EA7
102
{ACAD_REACTORS
330
2E9D
102
}
330
2E9D
100
AcDbXrecord
280
     1
1000
auto
  0
XRECORD
  5
2EA4
102
{ACAD_REACTORS
330
2E9D
102
}
330
2E9D
100
AcDbXrecord
280
     1
 90
        1
  0
XRECORD
  5
2EA1
102
{ACAD_REACTORS
330
2E9D
102
}
330
2E9D
100
AcDbXrecord
280
     1
 40
10.0
  0
XRECORD
  5
2EA8
102
{ACAD_REACTORS
330
2E9D
102
}
330
2E9D
100
AcDbXrecord
280
     1
 40
10.0
  0
XRECORD
  5
2E9E
102
{ACAD_REACTORS
330
2E9D
102
}
330
2E9D
100
AcDbXrecord
280
     1
 40
10.0
  0
XRECORD
  5
2EB0
102
{ACAD_REACTORS
330
2E9D
102
}
330
2E9D
100
AcDbXrecord
280
     1
 40
10.0
  0
XRECORD
  5
2EA0
102
{ACAD_REACTORS
330
2E9D
102
}
330
2E9D
100
AcDbXrecord
280
     1
290
     0
  0
XRECORD
  5
2EA9
102
{ACAD_REACTORS
330
2E9D
102
}
330
2E9D
100
AcDbXrecord
280
     1
 90
        1
  0
XRECORD
  5
2EAE
102
{ACAD_REACTORS
330
2E9D
102
}
330
2E9D
100
AcDbXrecord
280
     1
 40
0.0
  0
XRECORD
  5
2EAF
102
{ACAD_REACTORS
330
2E9D
102
}
330
2E9D
100
AcDbXrecord
280
     1
 40
0.0
  0
XRECORD
  5
2E9F
102
{ACAD_REACTORS
330
2E9D
102
}
330
2E9D
100
AcDbXrecord
280
     1
1000
Portrait
  0
XRECORD
  5
2EA3
102
{ACAD_REACTORS
330
2E9D
102
}
330
2E9D
100
AcDbXrecord
280
     1
 40
297.0
  0
XRECORD
  5
2EAA
102
{ACAD_REACTORS
330
2E9D
102
}
330
2E9D
100
AcDbXrecord
280
     1
 40
210.0
  0
XRECORD
  5
2EA2
102
{ACAD_REACTORS
330
2E9D
102
}
330
2E9D
100
AcDbXrecord
280
     1
1000
1:1
  0
XRECORD
  5
2EA6
102
{ACAD_REACTORS
330
2E9D
102
}
330
2E9D
100
AcDbXrecord
280
     1
290
     0
  0
XRECORD
  5
2EAD
102
{ACAD_REACTORS
330
2E9D
102
}
330
2E9D
100
AcDbXrecord
280
     1
290
     1
  0
XRECORD
  5
2EAB
102
{ACAD_REACTORS
330
2E9D
102
}
330
2E9D
100
AcDbXrecord
280
     1
 90
        4
  0
ENDSEC
  0
EOF
