999
dxflib 2.2.0.0
  0
SECTION
  2
HEADER
  9
$ACADVER
  1
AC1015
  9
$HANDSEED
  5
FFFF
  9
$DIMASZ
 40
2.5
  9
$PLIMMIN
 10
0.0
 20
0.0
  9
$DIMEXE
 40
1.25
  9
$DIMGAP
 40
0.625
  9
$PLIMMAX
 10
210.0
 20
297.0
  9
$INSUNITS
 70
4
  9
$DIMSTYLE
  2
Standard
  9
$CLAYER
  8
0
  9
$DIMEXO
 40
0.625
  9
$DIMTXT
 40
2.5
  9
$CLAYER
  8
0
  0
ENDSEC
  0
SECTION
  2
TABLES
  0
TABLE
  2
VPORT
  5
8
100
AcDbSymbolTable
 70
1
  0
VPORT
  5
30
100
AcDbSymbolTableRecord
100
AcDbViewportTableRecord
  2
*Active
 70
0
 10
0.0
 20
0.0
 11
1.0
 21
1.0
 12
286.30555555555549
 22
148.5
 13
0.0
 23
0.0
 14
10.0
 24
10.0
 15
10.0
 25
10.0
 16
0.0
 26
0.0
 36
1.0
 17
0.0
 27
0.0
 37
0.0
 40
297.0
 41
1.92798353909465
 42
50.0
 43
0.0
 44
0.0
 50
0.0
 51
0.0
 71
0
 72
100
 73
1
 74
3
 75
1
 76
1
 77
0
 78
0
281
0
 65
1
110
0.0
120
0.0
130
0.0
111
1.0
121
0.0
131
0.0
112
0.0
122
1.0
132
0.0
 79
0
146
0.0
  0
ENDTAB
  0
TABLE
  2
LTYPE
  5
5
100
AcDbSymbolTable
 70
21
  0
LTYPE
  5
14
100
AcDbSymbolTableRecord
100
AcDbLinetypeTableRecord
  2
ByBlock
 70
0
  3

 72
65
 73
0
 40
0.0
  0
LTYPE
  5
15
100
AcDbSymbolTableRecord
100
AcDbLinetypeTableRecord
  2
ByLayer
 70
0
  3

 72
65
 73
0
 40
0.0
  0
LTYPE
  5
16
100
AcDbSymbolTableRecord
100
AcDbLinetypeTableRecord
  2
CONTINUOUS
 70
0
  3
Solid line
 72
65
 73
0
 40
0.0
  0
LTYPE
  5
31
100
AcDbSymbolTableRecord
100
AcDbLinetypeTableRecord
  2
DOT
 70
0
  3
Dot . . . . . . . . . . . . . . . . . . . . . .
 72
65
 73
2
 40
6.3499999999999996
 49
0.0
 74
0
 49
-6.3499999999999996
 74
0
  0
LTYPE
  5
32
100
AcDbSymbolTableRecord
100
AcDbLinetypeTableRecord
  2
DOT2
 70
0
  3
Dot (.5x) .....................................
 72
65
 73
2
 40
3.1749999999999998
 49
0.0
 74
0
 49
-3.1749999999999998
 74
0
  0
LTYPE
  5
33
100
AcDbSymbolTableRecord
100
AcDbLinetypeTableRecord
  2
DOTX2
 70
0
  3
Dot (2x) .  .  .  .  .  .  .  .  .  .  .  .  .
 72
65
 73
2
 40
12.699999999999999
 49
0.0
 74
0
 49
-12.699999999999999
 74
0
  0
LTYPE
  5
34
100
AcDbSymbolTableRecord
100
AcDbLinetypeTableRecord
  2
DASHED
 70
0
  3
Dashed __ __ __ __ __ __ __ __ __ __ __ __ __ _
 72
65
 73
2
 40
19.050000000000001
 49
12.699999999999999
 74
0
 49
-6.3499999999999996
 74
0
  0
LTYPE
  5
35
100
AcDbSymbolTableRecord
100
AcDbLinetypeTableRecord
  2
DASHED2
 70
0
  3
Dashed (.5x) _ _ _ _ _ _ _ _ _ _ _ _ _ _ _ _ _
 72
65
 73
2
 40
9.5250000000000004
 49
6.3499999999999996
 74
0
 49
-3.1749999999999998
 74
0
  0
LTYPE
  5
36
100
AcDbSymbolTableRecord
100
AcDbLinetypeTableRecord
  2
DASHEDX2
 70
0
  3
Dashed (2x) ____  ____  ____  ____  ____  ___
 72
65
 73
2
 40
38.100000000000001
 49
25.399999999999999
 74
0
 49
-12.699999999999999
 74
0
  0
LTYPE
  5
37
100
AcDbSymbolTableRecord
100
AcDbLinetypeTableRecord
  2
DASHDOT
 70
0
  3
Dash dot __ . __ . __ . __ . __ . __ . __ . __
 72
65
 73
4
 40
25.399999999999999
 49
12.699999999999999
 74
0
 49
-6.3499999999999996
 74
0
 49
0.0
 74
0
 49
-6.3499999999999996
 74
0
  0
LTYPE
  5
38
100
AcDbSymbolTableRecord
100
AcDbLinetypeTableRecord
  2
DASHDOT2
 70
0
  3
Dash dot (.5x) _._._._._._._._._._._._._._._.
 72
65
 73
4
 40
12.699999999999999
 49
6.3499999999999996
 74
0
 49
-3.1749999999999998
 74
0
 49
0.0
 74
0
 49
-3.1749999999999998
 74
0
  0
LTYPE
  5
39
100
AcDbSymbolTableRecord
100
AcDbLinetypeTableRecord
  2
DASHDOTX2
 70
0
  3
Dash dot (2x) ____  .  ____  .  ____  .  ___
 72
65
 73
4
 40
50.799999999999997
 49
25.399999999999999
 74
0
 49
-12.699999999999999
 74
0
 49
0.0
 74
0
 49
-12.699999999999999
 74
0
  0
LTYPE
  5
3A
100
AcDbSymbolTableRecord
100
AcDbLinetypeTableRecord
  2
DIVIDE
 70
0
  3
Divide ____ . . ____ . . ____ . . ____ . . ____
 72
65
 73
6
 40
31.75
 49
12.699999999999999
 74
0
 49
-6.3499999999999996
 74
0
 49
0.0
 74
0
 49
-6.3499999999999996
 74
0
 49
0.0
 74
0
 49
-6.3499999999999996
 74
0
  0
LTYPE
  5
3B
100
AcDbSymbolTableRecord
100
AcDbLinetypeTableRecord
  2
DIVIDE2
 70
0
  3
Divide (.5x) __..__..__..__..__..__..__..__.._
 72
65
 73
6
 40
15.875
 49
6.3499999999999996
 74
0
 49
-3.1749999999999998
 74
0
 49
0.0
 74
0
 49
-3.1749999999999998
 74
0
 49
0.0
 74
0
 49
-3.1749999999999998
 74
0
  0
LTYPE
  5
3C
100
AcDbSymbolTableRecord
100
AcDbLinetypeTableRecord
  2
DIVIDEX2
 70
0
  3
Divide (2x) ________  .  .  ________  .  .  _
 72
65
 73
6
 40
63.5
 49
25.399999999999999
 74
0
 49
-12.699999999999999
 74
0
 49
0.0
 74
0
 49
-12.699999999999999
 74
0
 49
0.0
 74
0
 49
-12.699999999999999
 74
0
  0
LTYPE
  5
3D
100
AcDbSymbolTableRecord
100
AcDbLinetypeTableRecord
  2
CENTER
 70
0
  3
Center ____ _ ____ _ ____ _ ____ _ ____ _ ____
 72
65
 73
4
 40
50.799999999999997
 49
31.75
 74
0
 49
-6.3499999999999996
 74
0
 49
6.3499999999999996
 74
0
 49
-6.3499999999999996
 74
0
  0
LTYPE
  5
3E
100
AcDbSymbolTableRecord
100
AcDbLinetypeTableRecord
  2
CENTER2
 70
0
  3
Center (.5x) ___ _ ___ _ ___ _ ___ _ ___ _ ___
 72
65
 73
4
 40
28.574999999999999
 49
19.050000000000001
 74
0
 49
-3.1749999999999998
 74
0
 49
3.1749999999999998
 74
0
 49
-3.1749999999999998
 74
0
  0
LTYPE
  5
3F
100
AcDbSymbolTableRecord
100
AcDbLinetypeTableRecord
  2
CENTERX2
 70
0
  3
Center (2x) ________  __  ________  __  _____
 72
65
 73
4
 40
101.59999999999999
 49
63.5
 74
0
 49
-12.699999999999999
 74
0
 49
12.699999999999999
 74
0
 49
-12.699999999999999
 74
0
  0
LTYPE
  5
40
100
AcDbSymbolTableRecord
100
AcDbLinetypeTableRecord
  2
BORDER
 70
0
  3
Border __ __ . __ __ . __ __ . __ __ . __ __ .
 72
65
 73
6
 40
44.450000000000003
 49
12.699999999999999
 74
0
 49
-6.3499999999999996
 74
0
 49
12.699999999999999
 74
0
 49
-6.3499999999999996
 74
0
 49
0.0
 74
0
 49
-6.3499999999999996
 74
0
  0
LTYPE
  5
41
100
AcDbSymbolTableRecord
100
AcDbLinetypeTableRecord
  2
BORDER2
 70
0
  3
Border (.5x) __.__.__.__.__.__.__.__.__.__.__.
 72
65
 73
6
 40
22.225000000000001
 49
6.3499999999999996
 74
0
 49
-3.1749999999999998
 74
0
 49
6.3499999999999996
 74
0
 49
-3.1749999999999998
 74
0
 49
0.0
 74
0
 49
-3.1749999999999998
 74
0
  0
LTYPE
  5
42
100
AcDbSymbolTableRecord
100
AcDbLinetypeTableRecord
  2
BORDERX2
 70
0
  3
Border (2x) ____  ____  .  ____  ____  .  ___
 72
65
 73
6
 40
88.900000000000006
 49
25.399999999999999
 74
0
 49
-12.699999999999999
 74
0
 49
25.399999999999999
 74
0
 49
-12.699999999999999
 74
0
 49
0.0
 74
0
 49
-12.699999999999999
 74
0
  0
ENDTAB
  0
TABLE
  2
LAYER
  5
2
100
AcDbSymbolTable
 70
5
  0
LAYER
  5
10
100
AcDbSymbolTableRecord
100
AcDbLayerTableRecord
  2
0
 70
0
 62
7
420
0
  6
CONTINUOUS
370
25
390
F
  0
LAYER
  5
43
100
AcDbSymbolTableRecord
100
AcDbLayerTableRecord
  2
Laser Table
 70
0
 62
3
420
65280
  6
CONTINUOUS
370
0
390
F
  0
LAYER
  5
44
100
AcDbSymbolTableRecord
100
AcDbLayerTableRecord
  2
Referance lines
 70
0
 62
3
420
65280
  6
CONTINUOUS
370
0
390
F
  0
LAYER
  5
45
100
AcDbSymbolTableRecord
100
AcDbLayerTableRecord
  2
New Front
 70
0
 62
1
420
16711680
  6
CONTINUOUS
370
0
390
F
  0
LAYER
  5
46
100
AcDbSymbolTableRecord
100
AcDbLayerTableRecord
  2
Front
 70
0
 62
1
420
16711680
  6
CONTINUOUS
370
0
390
F
  0
ENDTAB
  0
TABLE
  2
STYLE
  5
3
100
AcDbSymbolTable
 70
1
  0
STYLE
  5
11
100
AcDbSymbolTableRecord
100
AcDbTextStyleTableRecord
  2
Standard
 70
0
 40
0.0
 41
0.75
 50
0.0
 71
0
 42
2.5
  3
txt
  4

  0
ENDTAB
  0
TABLE
  2
VIEW
  5
6
100
AcDbSymbolTable
 70
0
  0
ENDTAB
  0
TABLE
  2
UCS
  5
7
100
AcDbSymbolTable
 70
0
  0
ENDTAB
  0
TABLE
  2
APPID
  5
9
100
AcDbSymbolTable
 70
1
  0
APPID
  5
12
100
AcDbSymbolTableRecord
100
AcDbRegAppTableRecord
  2
ACAD
 70
0
  0
ENDTAB
  0
TABLE
  2
DIMSTYLE
  5
A
100
AcDbSymbolTable
 70
1
100
AcDbDimStyleTable
 71
0
  0
DIMSTYLE
105
27
100
AcDbSymbolTableRecord
100
AcDbDimStyleTableRecord
  2
Standard
 41
2.5
 42
0.625
 43
3.75
 44
1.25
 70
0
 73
0
 74
0
 77
1
 78
8
140
2.5
141
2.5
143
0.03937007874016
147
0.625
171
3
172
1
271
2
272
2
274
3
278
44
283
0
284
8
340
11
  0
ENDTAB
  0
TABLE
  2
BLOCK_RECORD
  5
1
100
AcDbSymbolTable
 70
1
  0
BLOCK_RECORD
  5
1F
100
AcDbSymbolTableRecord
100
AcDbBlockTableRecord
  2
*Model_Space
340
22
  0
BLOCK_RECORD
  5
1B
100
AcDbSymbolTableRecord
100
AcDbBlockTableRecord
  2
*Paper_Space
340
1E
  0
BLOCK_RECORD
  5
23
100
AcDbSymbolTableRecord
100
AcDbBlockTableRecord
  2
*Paper_Space0
340
26
  0
ENDTAB
  0
ENDSEC
  0
SECTION
  2
BLOCKS
  0
BLOCK
  5
20
100
AcDbEntity
  8
0
100
AcDbBlockBegin
  2
*Model_Space
 70
0
 10
0.0
 20
0.0
 30
0.0
  3
*Model_Space
  1

  0
ENDBLK
  5
21
100
AcDbEntity
  8
0
100
AcDbBlockEnd
  0
BLOCK
  5
1C
100
AcDbEntity
 67
1
  8
0
100
AcDbBlockBegin
  2
*Paper_Space
 70
0
 10
0.0
 20
0.0
 30
0.0
  3
*Paper_Space
  1

  0
ENDBLK
  5
1D
100
AcDbEntity
 67
1
  8
0
100
AcDbBlockEnd
  0
BLOCK
  5
24
100
AcDbEntity
  8
0
100
AcDbBlockBegin
  2
*Paper_Space0
 70
0
 10
0.0
 20
0.0
 30
0.0
  3
*Paper_Space0
  1

  0
ENDBLK
  5
25
100
AcDbEntity
  8
0
100
AcDbBlockEnd
  0
ENDSEC
  0
SECTION
  2
ENTITIES
  0
LINE
  5
47
100
AcDbEntity
100
AcDbLine
  8
Laser Table
 62
3
420
65280
370
-1
  6
ByLayer
 10
1200.0000000000005
 20
899.99999999999955
 30
0.0
 11
0.0000000000002274
 21
899.99999999999989
 31
0.0
  0
LINE
  5
48
100
AcDbEntity
100
AcDbLine
  8
Laser Table
 62
3
420
65280
370
-1
  6
ByLayer
 10
1200.0000000000005
 20
899.99999999999955
 30
0.0
 11
1200.0000000000002
 21
0.0000000000001137
 31
0.0
  0
LINE
  5
49
100
AcDbEntity
100
AcDbLine
  8
Laser Table
 62
3
420
65280
370
-1
  6
ByLayer
 10
1200.0000000000002
 20
0.0000000000001137
 30
0.0
 11
0.0
 21
0.0
 31
0.0
  0
LINE
  5
4A
100
AcDbEntity
100
AcDbLine
  8
Laser Table
 62
256
370
-1
  6
ByLayer
 10
0.0
 20
0.0
 30
0.0
 11
0.0000000000002274
 21
899.99999999999989
 31
0.0
  0
LINE
  5
4B
100
AcDbEntity
100
AcDbLine
  8
Referance lines
 62
3
420
65280
370
-1
  6
ByLayer
 10
0.0000000000001137
 20
450.0
 30
0.0
 11
1200.0
 21
449.99999999999983
 31
0.0
  0
LINE
  5
4C
100
AcDbEntity
100
AcDbLine
  8
Referance lines
 62
3
420
65280
370
-1
  6
ByLayer
 10
1152.7586380000007
 20
449.99999999999983
 30
0.0
 11
1045.4186380000008
 21
449.99999999999983
 31
0.0
  0
LINE
  5
4D
100
AcDbEntity
100
AcDbLine
  8
Referance lines
 62
3
420
65280
370
-1
  6
ByLayer
 10
1099.0889999999999
 20
47.509999999999707
 30
0.0
 11
1099.0890000000002
 21
849.46999999999946
 31
0.0
  0
LINE
  5
4E
100
AcDbEntity
100
AcDbLine
  8
Referance lines
 62
3
420
65280
370
-1
  6
ByLayer
 10
1099.0890000000002
 20
181.92000000000002
 30
0.0
 11
1099.0889999999999
 21
74.579999999999643
 31
0.0
  0
LINE
  5
4F
100
AcDbEntity
100
AcDbLine
  8
Referance lines
 62
3
420
65280
370
-1
  6
ByLayer
 10
1099.0886380000009
 20
503.66999999999996
 30
0.0
 11
1099.0886380000009
 21
611.00999999999999
 31
0.0
  0
LINE
  5
50
100
AcDbEntity
100
AcDbLine
  8
Referance lines
 62
3
420
65280
370
-1
  6
ByLayer
 10
1099.0886380000006
 20
35.043691499999625
 30
0.0
 11
1099.0886380000011
 21
861.94839553902511
 31
0.0
  0
LINE
  5
51
100
AcDbEntity
100
AcDbLine
  8
Referance lines
 62
3
420
65280
370
-1
  6
ByLayer
 10
1099.0886380000009
 20
611.00999999999999
 30
0.0
 11
1099.0886380000011
 21
718.34999999999991
 31
0.0
  0
LINE
  5
52
100
AcDbEntity
100
AcDbLine
  8
Referance lines
 62
3
420
65280
370
-1
  6
ByLayer
 10
1099.0886380000011
 20
718.34999999999991
 30
0.0
 11
1099.0886380000011
 21
825.69000000000005
 31
0.0
  0
LINE
  5
53
100
AcDbEntity
100
AcDbLine
  8
Referance lines
 62
3
420
65280
370
-1
  6
ByLayer
 10
1099.0886380000006
 20
396.3299999999993
 30
0.0
 11
1099.0886380000009
 21
503.66999999999996
 31
0.0
  0
LINE
  5
54
100
AcDbEntity
100
AcDbLine
  8
Referance lines
 62
3
420
65280
370
-1
  6
ByLayer
 10
1099.0886380000006
 20
396.3299999999993
 30
0.0
 11
1099.0886380000006
 21
288.98999999999921
 31
0.0
  0
LINE
  5
55
100
AcDbEntity
100
AcDbLine
  8
Referance lines
 62
3
420
65280
370
-1
  6
ByLayer
 10
1099.0886380000006
 20
289.25874499999986
 30
0.0
 11
1099.0886380000006
 21
181.91874499999938
 31
0.0
  0
LINE
  5
56
100
AcDbEntity
100
AcDbLine
  8
Referance lines
 62
256
370
-1
  6
ByLayer
 10
28.500000000000227
 20
867.50282200000004
 30
0.0
 11
1171.5000000000005
 21
867.49999999999932
 31
0.0
  0
LINE
  5
57
100
AcDbEntity
100
AcDbLine
  8
Referance lines
 62
256
370
-1
  6
ByLayer
 10
1171.5000000000005
 20
867.49999999999932
 30
0.0
 11
1171.4999999999995
 21
29.499999999999091
 31
0.0
  0
LINE
  5
58
100
AcDbEntity
100
AcDbLine
  8
Referance lines
 62
256
370
-1
  6
ByLayer
 10
1171.4999999999995
 20
29.499999999999091
 30
0.0
 11
28.499999999999773
 21
29.506689561377357
 31
0.0
  0
LINE
  5
59
100
AcDbEntity
100
AcDbLine
  8
Referance lines
 62
256
370
-1
  6
ByLayer
 10
600.00000000001251
 20
900.0
 30
0.0
 11
600.00000000001239
 21
-0.0000000000000568
 31
0.0
  0
LINE
  5
5A
100
AcDbEntity
100
AcDbLine
  8
Referance lines
 62
3
420
65280
370
-1
  6
ByLayer
 10
28.500000000000114
 20
43.320999999999913
 30
0.0
 11
28.500000000000227
 21
856.67900000000009
 31
0.0
  0
LINE
  5
5B
100
AcDbEntity
100
AcDbLine
  8
Referance lines
 62
3
420
65280
370
-1
  6
ByLayer
 10
28.500000000000227
 20
856.67900000000009
 30
0.0
 11
600.00000000001751
 21
856.67900000000009
 31
0.0
  0
LINE
  5
5C
100
AcDbEntity
100
AcDbLine
  8
Referance lines
 62
3
420
65280
370
-1
  6
ByLayer
 10
600.00000000001751
 20
856.67900000000009
 30
0.0
 11
1171.5000000000002
 21
856.67899999999975
 31
0.0
  0
LINE
  5
5D
100
AcDbEntity
100
AcDbLine
  8
Referance lines
 62
3
420
65280
370
-1
  6
ByLayer
 10
1171.4999999999995
 20
43.320999999999344
 30
0.0
 11
28.500000000000114
 21
43.320999999999913
 31
0.0
  0
SPLINE
  5
5E
  8
New Front
 62
1
420
16711680
370
-1
  6
ByLayer
100
AcDbEntity
100
AcDbSpline
 70
8
 71
3
 72
8
 73
4
 74
0
 40
0.0
 40
0.0
 40
0.0
 40
0.0
 40
1.0
 40
1.0
 40
1.0
 40
1.0
 10
61.319904000000065
 20
54.115999999999133
 30
0.0
 10
64.809864000000289
 20
54.115999999998849
 30
0.0
 10
67.640271000000212
 20
56.945276999999066
 30
0.0
 10
67.640271000000325
 20
60.43636599999985
 30
0.0
  0
SPLINE
  5
5F
  8
New Front
 62
1
420
16711680
370
-1
  6
ByLayer
100
AcDbEntity
100
AcDbSpline
 70
8
 71
3
 72
8
 73
4
 74
0
 40
0.0
 40
0.0
 40
0.0
 40
0.0
 40
1.0
 40
1.0
 40
1.0
 40
1.0
 10
67.640271000000325
 20
60.43636599999985
 30
0.0
 10
67.640271000000325
 20
63.926608999999189
 30
0.0
 10
64.81014700000037
 20
66.756168999999147
 30
0.0
 10
61.319904000000065
 20
66.756168999999488
 30
0.0
  0
SPLINE
  5
60
  8
New Front
 62
1
420
16711680
370
-1
  6
ByLayer
100
AcDbEntity
100
AcDbSpline
 70
8
 71
3
 72
8
 73
4
 74
0
 40
0.0
 40
0.0
 40
0.0
 40
0.0
 40
1.0
 40
1.0
 40
1.0
 40
1.0
 10
61.319904000000065
 20
66.756168999999488
 30
0.0
 10
57.829662000000212
 20
66.756168999999261
 30
0.0
 10
55.000102000000084
 20
63.926608999999189
 30
0.0
 10
55.000102000000197
 20
60.436365999999737
 30
0.0
  0
SPLINE
  5
61
  8
New Front
 62
1
420
16711680
370
-1
  6
ByLayer
100
AcDbEntity
100
AcDbSpline
 70
8
 71
3
 72
8
 73
4
 74
0
 40
0.0
 40
0.0
 40
0.0
 40
0.0
 40
1.0
 40
1.0
 40
1.0
 40
1.0
 10
55.000102000000197
 20
60.436365999999737
 30
0.0
 10
55.000102000000197
 20
56.945276999998669
 30
0.0
 10
57.829662000000326
 20
54.115999999999019
 30
0.0
 10
61.319904000000065
 20
54.115999999999133
 30
0.0
  0
LWPOLYLINE
  5
62
  8
New Front
 62
1
420
16711680
370
-1
  6
ByLayer
100
AcDbEntity
100
AcDbPolyline
 90
2
 70
0
 10
61.319904000000065
 20
54.115999999999133
 10
61.319904000000065
 20
54.115999999999133
  0
SPLINE
  5
63
  8
New Front
 62
1
420
16711680
370
-1
  6
ByLayer
100
AcDbEntity
100
AcDbSpline
 70
8
 71
3
 72
8
 73
4
 74
0
 40
0.0
 40
0.0
 40
0.0
 40
0.0
 40
1.0
 40
1.0
 40
1.0
 40
1.0
 10
71.320166999999969
 20
59.236074999998777
 30
0.0
 10
71.983670999999958
 20
59.236074999998891
 30
0.0
 10
72.519611000000168
 20
59.773708999999144
 30
0.0
 10
72.519611000000168
 20
60.436083999999084
 30
0.0
  0
SPLINE
  5
64
  8
New Front
 62
1
420
16711680
370
-1
  6
ByLayer
100
AcDbEntity
100
AcDbSpline
 70
8
 71
3
 72
8
 73
4
 74
0
 40
0.0
 40
0.0
 40
0.0
 40
0.0
 40
1.0
 40
1.0
 40
1.0
 40
1.0
 10
72.519611000000168
 20
60.436083999999084
 30
0.0
 10
72.519611000000168
 20
61.09874199999922
 30
0.0
 10
71.983670999999958
 20
61.636092999999164
 30
0.0
 10
71.320166999999856
 20
61.636092999999278
 30
0.0
  0
SPLINE
  5
65
  8
New Front
 62
1
420
16711680
370
-1
  6
ByLayer
100
AcDbEntity
100
AcDbSpline
 70
8
 71
3
 72
8
 73
4
 74
0
 40
0.0
 40
0.0
 40
0.0
 40
0.0
 40
1.0
 40
1.0
 40
1.0
 40
1.0
 10
71.320166999999856
 20
61.636092999999278
 30
0.0
 10
70.657227000000034
 20
61.636092999999278
 30
0.0
 10
70.120722000000228
 20
61.09874199999922
 30
0.0
 10
70.120722000000342
 20
60.436083999998971
 30
0.0
  0
SPLINE
  5
66
  8
New Front
 62
1
420
16711680
370
-1
  6
ByLayer
100
AcDbEntity
100
AcDbSpline
 70
8
 71
3
 72
8
 73
4
 74
0
 40
0.0
 40
0.0
 40
0.0
 40
0.0
 40
1.0
 40
1.0
 40
1.0
 40
1.0
 10
70.120722000000342
 20
60.436083999998971
 30
0.0
 10
70.120722000000228
 20
59.773708999999144
 30
0.0
 10
70.657227000000034
 20
59.236074999998891
 30
0.0
 10
71.320166999999969
 20
59.236074999998777
 30
0.0
  0
SPLINE
  5
67
  8
New Front
 62
1
420
16711680
370
-1
  6
ByLayer
100
AcDbEntity
100
AcDbSpline
 70
8
 71
3
 72
8
 73
4
 74
0
 40
0.0
 40
0.0
 40
0.0
 40
0.0
 40
1.0
 40
1.0
 40
1.0
 40
1.0
 10
51.319641999999931
 20
59.236074999998777
 30
0.0
 10
51.982300000000237
 20
59.236074999998777
 30
0.0
 10
52.519651000000295
 20
59.773708999999087
 30
0.0
 10
52.519651000000295
 20
60.436083999998857
 30
0.0
  0
SPLINE
  5
68
  8
New Front
 62
1
420
16711680
370
-1
  6
ByLayer
100
AcDbEntity
100
AcDbSpline
 70
8
 71
3
 72
8
 73
4
 74
0
 40
0.0
 40
0.0
 40
0.0
 40
0.0
 40
1.0
 40
1.0
 40
1.0
 40
1.0
 10
52.519651000000295
 20
60.436083999998857
 30
0.0
 10
52.519650999999953
 20
61.098741999999277
 30
0.0
 10
51.98230000000035
 20
61.636092999998993
 30
0.0
 10
51.319641999999817
 20
61.636092999999164
 30
0.0
  0
SPLINE
  5
69
  8
New Front
 62
1
420
16711680
370
-1
  6
ByLayer
100
AcDbEntity
100
AcDbSpline
 70
8
 71
3
 72
8
 73
4
 74
0
 40
0.0
 40
0.0
 40
0.0
 40
0.0
 40
1.0
 40
1.0
 40
1.0
 40
1.0
 10
51.319641999999817
 20
61.636092999999164
 30
0.0
 10
50.657267000000161
 20
61.636092999999107
 30
0.0
 10
50.119069000000081
 20
61.09874199999922
 30
0.0
 10
50.119069000000309
 20
60.436083999998971
 30
0.0
  0
SPLINE
  5
6A
  8
New Front
 62
1
420
16711680
370
-1
  6
ByLayer
100
AcDbEntity
100
AcDbSpline
 70
8
 71
3
 72
8
 73
4
 74
0
 40
0.0
 40
0.0
 40
0.0
 40
0.0
 40
1.0
 40
1.0
 40
1.0
 40
1.0
 10
50.119069000000309
 20
60.436083999998971
 30
0.0
 10
50.119069000000195
 20
59.773708999998973
 30
0.0
 10
50.657549000000245
 20
59.236074999998948
 30
0.0
 10
51.319641999999931
 20
59.236074999998777
 30
0.0
  0
LWPOLYLINE
  5
6B
  8
New Front
 62
1
420
16711680
370
-1
  6
ByLayer
100
AcDbEntity
100
AcDbPolyline
 90
2
 70
0
 10
71.320166999999969
 20
59.236074999998777
 10
71.320166999999969
 20
59.236074999998777
  0
LWPOLYLINE
  5
6C
  8
New Front
 62
1
420
16711680
370
-1
  6
ByLayer
100
AcDbEntity
100
AcDbPolyline
 90
2
 70
0
 10
51.319641999999931
 20
59.236074999998777
 10
51.319641999999931
 20
59.236074999998777
  0
LWPOLYLINE
  5
6D
  8
New Front
 62
1
420
16711680
370
-1
  6
ByLayer
100
AcDbEntity
100
AcDbPolyline
 90
2
 70
0
 10
28.5
 20
273.66908399999915
 10
28.5
 20
73.87099099999989
  0
SPLINE
  5
6E
  8
New Front
 62
1
420
16711680
370
-1
  6
ByLayer
100
AcDbEntity
100
AcDbSpline
 70
8
 71
3
 72
8
 73
4
 74
0
 40
0.0
 40
0.0
 40
0.0
 40
0.0
 40
1.0
 40
1.0
 40
1.0
 40
1.0
 10
34.337484000000131
 20
66.130763999999544
 30
0.0
 10
35.527333000000226
 20
65.129156999999338
 30
0.0
 10
36.500153000000068
 20
63.036761999999612
 30
0.0
 10
36.500152999999955
 20
61.480588999998872
 30
0.0
  0
SPLINE
  5
6F
  8
New Front
 62
1
420
16711680
370
-1
  6
ByLayer
100
AcDbEntity
100
AcDbSpline
 70
8
 71
3
 72
8
 73
4
 74
0
 40
0.0
 40
0.0
 40
0.0
 40
0.0
 40
1.0
 40
1.0
 40
1.0
 40
1.0
 10
28.5
 20
73.87099099999989
 30
0.0
 10
28.5
 20
72.313688999999613
 30
0.0
 10
29.473384000000237
 20
70.221856999999488
 30
0.0
 10
30.662387000000081
 20
69.221379999999044
 30
0.0
  0
LWPOLYLINE
  5
70
  8
New Front
 62
1
420
16711680
370
-1
  6
ByLayer
100
AcDbEntity
100
AcDbPolyline
 90
2
 70
0
 10
30.662387000000081
 20
69.221379999999044
 10
34.337484000000131
 20
66.130763999999544
  0
SPLINE
  5
71
  8
New Front
 62
1
420
16711680
370
-1
  6
ByLayer
100
AcDbEntity
100
AcDbSpline
 70
8
 71
3
 72
8
 73
4
 74
0
 40
0.0
 40
0.0
 40
0.0
 40
0.0
 40
1.0
 40
1.0
 40
1.0
 40
1.0
 10
61.319903999999951
 20
833.24467800000002
 30
0.0
 10
64.809864000000289
 20
833.24467800000002
 30
0.0
 10
67.640271000000439
 20
836.07395600000018
 30
0.0
 10
67.640271000000439
 20
839.56504500000028
 30
0.0
  0
SPLINE
  5
72
  8
New Front
 62
1
420
16711680
370
-1
  6
ByLayer
100
AcDbEntity
100
AcDbSpline
 70
8
 71
3
 72
8
 73
4
 74
0
 40
0.0
 40
0.0
 40
0.0
 40
0.0
 40
1.0
 40
1.0
 40
1.0
 40
1.0
 10
67.640271000000439
 20
839.56504500000028
 30
0.0
 10
67.640271000000439
 20
843.05528700000013
 30
0.0
 10
64.81014700000037
 20
845.88456500000041
 30
0.0
 10
61.319904000000065
 20
845.88456500000029
 30
0.0
  0
SPLINE
  5
73
  8
New Front
 62
1
420
16711680
370
-1
  6
ByLayer
100
AcDbEntity
100
AcDbSpline
 70
8
 71
3
 72
8
 73
4
 74
0
 40
0.0
 40
0.0
 40
0.0
 40
0.0
 40
1.0
 40
1.0
 40
1.0
 40
1.0
 10
61.319904000000065
 20
845.88456500000029
 30
0.0
 10
57.829662000000212
 20
845.88456500000018
 30
0.0
 10
55.000102000000084
 20
843.05528700000013
 30
0.0
 10
55.000102000000197
 20
839.56504500000005
 30
0.0
  0
SPLINE
  5
74
  8
New Front
 62
1
420
16711680
370
-1
  6
ByLayer
100
AcDbEntity
100
AcDbSpline
 70
8
 71
3
 72
8
 73
4
 74
0
 40
0.0
 40
0.0
 40
0.0
 40
0.0
 40
1.0
 40
1.0
 40
1.0
 40
1.0
 10
55.000102000000197
 20
839.56504500000005
 30
0.0
 10
55.000102000000311
 20
836.07395600000018
 30
0.0
 10
57.829662000000098
 20
833.24467800000002
 30
0.0
 10
61.319903999999951
 20
833.24467800000002
 30
0.0
  0
LWPOLYLINE
  5
75
  8
New Front
 62
1
420
16711680
370
-1
  6
ByLayer
100
AcDbEntity
100
AcDbPolyline
 90
2
 70
0
 10
61.319903999999951
 20
833.24467800000002
 10
61.319903999999951
 20
833.24467800000002
  0
SPLINE
  5
76
  8
New Front
 62
1
420
16711680
370
-1
  6
ByLayer
100
AcDbEntity
100
AcDbSpline
 70
8
 71
3
 72
8
 73
4
 74
0
 40
0.0
 40
0.0
 40
0.0
 40
0.0
 40
1.0
 40
1.0
 40
1.0
 40
1.0
 10
71.320167000000083
 20
838.36475299999984
 30
0.0
 10
71.983671000000186
 20
838.36475299999984
 30
0.0
 10
72.519611000000282
 20
838.9018219999997
 30
0.0
 10
72.519611000000509
 20
839.56504500000028
 30
0.0
  0
SPLINE
  5
77
  8
New Front
 62
1
420
16711680
370
-1
  6
ByLayer
100
AcDbEntity
100
AcDbSpline
 70
8
 71
3
 72
8
 73
4
 74
0
 40
0.0
 40
0.0
 40
0.0
 40
0.0
 40
1.0
 40
1.0
 40
1.0
 40
1.0
 10
72.519611000000509
 20
839.56504500000028
 30
0.0
 10
72.519611000000282
 20
840.22741999999994
 30
0.0
 10
71.983671000000072
 20
840.76477100000011
 30
0.0
 10
71.320167000000083
 20
840.76477100000011
 30
0.0
  0
SPLINE
  5
78
  8
New Front
 62
1
420
16711680
370
-1
  6
ByLayer
100
AcDbEntity
100
AcDbSpline
 70
8
 71
3
 72
8
 73
4
 74
0
 40
0.0
 40
0.0
 40
0.0
 40
0.0
 40
1.0
 40
1.0
 40
1.0
 40
1.0
 10
71.320167000000083
 20
840.76477100000011
 30
0.0
 10
70.657227000000375
 20
840.76477100000011
 30
0.0
 10
70.120722000000228
 20
840.22742000000028
 30
0.0
 10
70.120722000000228
 20
839.56504500000028
 30
0.0
  0
SPLINE
  5
79
  8
New Front
 62
1
420
16711680
370
-1
  6
ByLayer
100
AcDbEntity
100
AcDbSpline
 70
8
 71
3
 72
8
 73
4
 74
0
 40
0.0
 40
0.0
 40
0.0
 40
0.0
 40
1.0
 40
1.0
 40
1.0
 40
1.0
 10
70.120722000000228
 20
839.56504500000028
 30
0.0
 10
70.120722000000114
 20
838.90182199999981
 30
0.0
 10
70.657227000000262
 20
838.36475299999972
 30
0.0
 10
71.320167000000083
 20
838.36475299999984
 30
0.0
  0
SPLINE
  5
7A
  8
New Front
 62
1
420
16711680
370
-1
  6
ByLayer
100
AcDbEntity
100
AcDbSpline
 70
8
 71
3
 72
8
 73
4
 74
0
 40
0.0
 40
0.0
 40
0.0
 40
0.0
 40
1.0
 40
1.0
 40
1.0
 40
1.0
 10
51.319642000000044
 20
838.36475299999972
 30
0.0
 10
51.982300000000237
 20
838.36475299999972
 30
0.0
 10
52.519651000000181
 20
838.90182199999958
 30
0.0
 10
52.519651000000181
 20
839.56504500000028
 30
0.0
  0
SPLINE
  5
7B
  8
New Front
 62
1
420
16711680
370
-1
  6
ByLayer
100
AcDbEntity
100
AcDbSpline
 70
8
 71
3
 72
8
 73
4
 74
0
 40
0.0
 40
0.0
 40
0.0
 40
0.0
 40
1.0
 40
1.0
 40
1.0
 40
1.0
 10
52.519651000000181
 20
839.56504500000028
 30
0.0
 10
52.519651000000295
 20
840.22742000000005
 30
0.0
 10
51.982300000000237
 20
840.764771
 30
0.0
 10
51.319642000000158
 20
840.764771
 30
0.0
  0
SPLINE
  5
7C
  8
New Front
 62
1
420
16711680
370
-1
  6
ByLayer
100
AcDbEntity
100
AcDbSpline
 70
8
 71
3
 72
8
 73
4
 74
0
 40
0.0
 40
0.0
 40
0.0
 40
0.0
 40
1.0
 40
1.0
 40
1.0
 40
1.0
 10
51.319642000000158
 20
840.764771
 30
0.0
 10
50.657267000000161
 20
840.76477100000011
 30
0.0
 10
50.119069000000309
 20
840.22742000000028
 30
0.0
 10
50.119069000000195
 20
839.56504500000028
 30
0.0
  0
SPLINE
  5
7D
  8
New Front
 62
1
420
16711680
370
-1
  6
ByLayer
100
AcDbEntity
100
AcDbSpline
 70
8
 71
3
 72
8
 73
4
 74
0
 40
0.0
 40
0.0
 40
0.0
 40
0.0
 40
1.0
 40
1.0
 40
1.0
 40
1.0
 10
50.119069000000195
 20
839.56504500000028
 30
0.0
 10
50.119069000000195
 20
838.90182199999981
 30
0.0
 10
50.657549000000358
 20
838.36475299999984
 30
0.0
 10
51.319642000000044
 20
838.36475299999972
 30
0.0
  0
LWPOLYLINE
  5
7E
  8
New Front
 62
1
420
16711680
370
-1
  6
ByLayer
100
AcDbEntity
100
AcDbPolyline
 90
2
 70
0
 10
71.320167000000083
 20
838.36475299999984
 10
71.320167000000083
 20
838.36475299999984
  0
LWPOLYLINE
  5
7F
  8
New Front
 62
1
420
16711680
370
-1
  6
ByLayer
100
AcDbEntity
100
AcDbPolyline
 90
2
 70
0
 10
51.319642000000044
 20
838.36475299999972
 10
51.319642000000044
 20
838.36475299999972
  0
SPLINE
  5
80
  8
New Front
 62
1
420
16711680
370
-1
  6
ByLayer
100
AcDbEntity
100
AcDbSpline
 70
8
 71
3
 72
8
 73
4
 74
0
 40
0.0
 40
0.0
 40
0.0
 40
0.0
 40
1.0
 40
1.0
 40
1.0
 40
1.0
 10
36.500153000000068
 20
838.38930700000014
 30
0.0
 10
36.500153000000182
 20
836.83256899999992
 30
0.0
 10
35.527333000000226
 20
834.74017300000025
 30
0.0
 10
34.337484000000359
 20
833.7391310000005
 30
0.0
  0
SPLINE
  5
81
  8
New Front
 62
1
420
16711680
370
-1
  6
ByLayer
100
AcDbEntity
100
AcDbSpline
 70
8
 71
3
 72
8
 73
4
 74
0
 40
0.0
 40
0.0
 40
0.0
 40
0.0
 40
1.0
 40
1.0
 40
1.0
 40
1.0
 10
30.662387000000081
 20
830.6485160000002
 30
0.0
 10
29.473384000000237
 20
829.64803800000027
 30
0.0
 10
28.500000000000227
 20
827.55564200000026
 30
0.0
 10
28.500000000000227
 20
825.9983400000001
 30
0.0
  0
LWPOLYLINE
  5
82
  8
New Front
 62
1
420
16711680
370
-1
  6
ByLayer
100
AcDbEntity
100
AcDbPolyline
 90
2
 70
0
 10
34.337484000000359
 20
833.7391310000005
 10
30.662387000000081
 20
830.6485160000002
  0
LWPOLYLINE
  5
83
  8
New Front
 62
1
420
16711680
370
-1
  6
ByLayer
100
AcDbEntity
100
AcDbPolyline
 90
2
 70
0
 10
28.500000000000227
 20
825.9983400000001
 10
28.500000000000227
 20
626.20024700000067
  0
SPLINE
  5
84
  8
New Front
 62
1
420
16711680
370
-1
  6
ByLayer
100
AcDbEntity
100
AcDbSpline
 70
8
 71
3
 72
8
 73
4
 74
0
 40
0.0
 40
0.0
 40
0.0
 40
0.0
 40
1.0
 40
1.0
 40
1.0
 40
1.0
 10
1171.4999999999998
 20
61.451519999999221
 30
0.0
 10
1171.5000000000002
 20
63.00769299999962
 30
0.0
 10
1170.52718
 20
65.10065299999917
 30
0.0
 10
1169.3373310000002
 20
66.101130999999327
 30
0.0
  0
SPLINE
  5
85
  8
New Front
 62
1
420
16711680
370
-1
  6
ByLayer
100
AcDbEntity
100
AcDbSpline
 70
8
 71
3
 72
8
 73
4
 74
0
 40
0.0
 40
0.0
 40
0.0
 40
0.0
 40
1.0
 40
1.0
 40
1.0
 40
1.0
 10
1165.662233
 20
69.191745999999171
 30
0.0
 10
1164.4732309999999
 20
70.192223999999044
 30
0.0
 10
1163.4998469999996
 20
72.28518399999831
 30
0.0
 10
1163.499847
 20
73.842485999999269
 30
0.0
  0
LWPOLYLINE
  5
86
  8
New Front
 62
1
420
16711680
370
-1
  6
ByLayer
100
AcDbEntity
100
AcDbPolyline
 90
2
 70
0
 10
1169.3373310000002
 20
66.101130999999327
 10
1165.662233
 20
69.191745999999171
  0
LWPOLYLINE
  5
87
  8
New Front
 62
1
420
16711680
370
-1
  6
ByLayer
100
AcDbEntity
100
AcDbPolyline
 90
2
 70
0
 10
1163.499847
 20
73.842485999999269
 10
1163.499847
 20
273.86663999999894
  0
SPLINE
  5
88
  8
New Front
 62
1
420
16711680
370
-1
  6
ByLayer
100
AcDbEntity
100
AcDbSpline
 70
8
 71
3
 72
8
 73
4
 74
0
 40
0.0
 40
0.0
 40
0.0
 40
0.0
 40
1.0
 40
1.0
 40
1.0
 40
1.0
 10
1163.499847
 20
826.19589600000018
 30
0.0
 10
1163.499847
 20
827.75263300000006
 30
0.0
 10
1164.4732310000002
 20
829.84559299999967
 30
0.0
 10
1165.662233
 20
830.84607099999994
 30
0.0
  0
LWPOLYLINE
  5
89
  8
New Front
 62
1
420
16711680
370
-1
  6
ByLayer
100
AcDbEntity
100
AcDbPolyline
 90
2
 70
0
 10
1163.4998470000005
 20
626.17174199999999
 10
1163.499847
 20
826.19589600000018
  0
SPLINE
  5
8A
  8
New Front
 62
1
420
16711680
370
-1
  6
ByLayer
100
AcDbEntity
100
AcDbSpline
 70
8
 71
3
 72
8
 73
4
 74
0
 40
0.0
 40
0.0
 40
0.0
 40
0.0
 40
1.0
 40
1.0
 40
1.0
 40
1.0
 10
1169.3373310000006
 20
833.93668699999989
 30
0.0
 10
1170.5271800000005
 20
834.93772899999965
 30
0.0
 10
1171.5000000000005
 20
837.030125
 30
0.0
 10
1171.5000000000005
 20
838.58686199999954
 30
0.0
  0
LWPOLYLINE
  5
8B
  8
New Front
 62
1
420
16711680
370
-1
  6
ByLayer
100
AcDbEntity
100
AcDbPolyline
 90
2
 70
0
 10
1165.662233
 20
830.84607099999994
 10
1169.3373310000006
 20
833.93668699999989
  0
LWPOLYLINE
  5
8C
  8
New Front
 62
1
420
16711680
370
-1
  6
ByLayer
100
AcDbEntity
100
AcDbPolyline
 90
3
 70
0
 10
1171.5000000000005
 20
838.58686199999954
 10
1171.5000000000002
 20
856.67899999999975
 10
1171.5000000000002
 20
856.67899999999975
  0
LINE
  5
8D
100
AcDbEntity
100
AcDbLine
  8
New Front
 62
1
420
16711680
370
-1
  6
ByLayer
 10
1163.499847
 20
73.842485999999269
 30
0.0
 11
1163.499847
 21
826.19589600000018
 31
0.0
  0
LINE
  5
8E
100
AcDbEntity
100
AcDbLine
  8
New Front
 62
1
420
16711680
370
-1
  6
ByLayer
 10
28.5
 20
73.87099099999989
 30
0.0
 11
28.500000000000227
 21
825.9983400000001
 31
0.0
  0
SPLINE
  5
8F
  8
New Front
 62
1
420
16711680
370
-1
  6
ByLayer
100
AcDbEntity
100
AcDbSpline
 70
8
 71
3
 72
8
 73
4
 74
0
 40
0.0
 40
0.0
 40
0.0
 40
0.0
 40
1.0
 40
1.0
 40
1.0
 40
1.0
 10
1100.2282510000009
 20
825.5253710000004
 30
0.0
 10
1100.2282510000014
 20
824.89629799999989
 30
0.0
 10
1099.7177110000011
 20
824.38547499999959
 30
0.0
 10
1099.0886380000009
 20
824.38547500000004
 30
0.0
  0
SPLINE
  5
90
  8
New Front
 62
1
420
16711680
370
-1
  6
ByLayer
100
AcDbEntity
100
AcDbSpline
 70
8
 71
3
 72
8
 73
4
 74
0
 40
0.0
 40
0.0
 40
0.0
 40
0.0
 40
1.0
 40
1.0
 40
1.0
 40
1.0
 10
1099.0886380000009
 20
824.38547500000004
 30
0.0
 10
1098.4590000000007
 20
824.38547499999981
 30
0.0
 10
1097.949025000001
 20
824.89601500000003
 30
0.0
 10
1097.949025000001
 20
825.5253710000004
 30
0.0
  0
SPLINE
  5
91
  8
New Front
 62
1
420
16711680
370
-1
  6
ByLayer
100
AcDbEntity
100
AcDbSpline
 70
8
 71
3
 72
8
 73
4
 74
0
 40
0.0
 40
0.0
 40
0.0
 40
0.0
 40
1.0
 40
1.0
 40
1.0
 40
1.0
 10
1097.949025000001
 20
825.5253710000004
 30
0.0
 10
1097.9490250000013
 20
826.15557299999932
 30
0.0
 10
1098.4590000000014
 20
826.66526599999929
 30
0.0
 10
1099.0886380000011
 20
826.66526599999952
 30
0.0
  0
SPLINE
  5
92
  8
New Front
 62
1
420
16711680
370
-1
  6
ByLayer
100
AcDbEntity
100
AcDbSpline
 70
8
 71
3
 72
8
 73
4
 74
0
 40
0.0
 40
0.0
 40
0.0
 40
0.0
 40
1.0
 40
1.0
 40
1.0
 40
1.0
 10
1099.0886380000011
 20
826.66526599999952
 30
0.0
 10
1099.7177110000011
 20
826.66526599999929
 30
0.0
 10
1100.2282510000011
 20
826.15557299999966
 30
0.0
 10
1100.2282510000009
 20
825.5253710000004
 30
0.0
  0
LWPOLYLINE
  5
93
  8
New Front
 62
1
420
16711680
370
-1
  6
ByLayer
100
AcDbEntity
100
AcDbPolyline
 90
6
 70
0
 10
1096.6087510000011
 20
801.58587099999977
 10
1096.6087510000011
 20
809.46523299999956
 10
1101.5685250000008
 20
809.46523299999967
 10
1101.568525000001
 20
801.58587099999977
 10
1096.6087510000011
 20
801.58587099999977
 10
1096.6087510000011
 20
801.58587099999977
  0
LWPOLYLINE
  5
94
  8
New Front
 62
1
420
16711680
370
-1
  6
ByLayer
100
AcDbEntity
100
AcDbPolyline
 90
2
 70
0
 10
1100.2282510000009
 20
825.5253710000004
 10
1100.2282510000009
 20
825.5253710000004
  0
LWPOLYLINE
  5
95
  8
New Front
 62
1
420
16711680
370
-1
  6
ByLayer
100
AcDbEntity
100
AcDbPolyline
 90
6
 70
0
 10
1096.6087510000007
 20
90.639164999999366
 10
1096.6087510000002
 20
98.518526999999608
 10
1101.5685250000006
 20
98.518526999999779
 10
1101.5685250000006
 20
90.639164999999196
 10
1096.6087510000007
 20
90.639164999999366
 10
1096.6087510000007
 20
90.639164999999366
  0
SPLINE
  5
96
  8
New Front
 62
1
420
16711680
370
-1
  6
ByLayer
100
AcDbEntity
100
AcDbSpline
 70
8
 71
3
 72
8
 73
4
 74
0
 40
0.0
 40
0.0
 40
0.0
 40
0.0
 40
1.0
 40
1.0
 40
1.0
 40
1.0
 10
1100.2282510000007
 20
74.578744999999515
 30
0.0
 10
1100.2282510000007
 20
73.949671999999453
 30
0.0
 10
1099.7177110000011
 20
73.438849000000289
 30
0.0
 10
1099.0886380000009
 20
73.438849000000005
 30
0.0
  0
SPLINE
  5
97
  8
New Front
 62
1
420
16711680
370
-1
  6
ByLayer
100
AcDbEntity
100
AcDbSpline
 70
8
 71
3
 72
8
 73
4
 74
0
 40
0.0
 40
0.0
 40
0.0
 40
0.0
 40
1.0
 40
1.0
 40
1.0
 40
1.0
 10
1099.0886380000009
 20
73.438849000000005
 30
0.0
 10
1098.459000000001
 20
73.438849000000118
 30
0.0
 10
1097.9490250000008
 20
73.94938899999994
 30
0.0
 10
1097.9490250000006
 20
74.578744999999401
 30
0.0
  0
SPLINE
  5
98
  8
New Front
 62
1
420
16711680
370
-1
  6
ByLayer
100
AcDbEntity
100
AcDbSpline
 70
8
 71
3
 72
8
 73
4
 74
0
 40
0.0
 40
0.0
 40
0.0
 40
0.0
 40
1.0
 40
1.0
 40
1.0
 40
1.0
 10
1097.9490250000006
 20
74.578744999999401
 30
0.0
 10
1097.9490250000008
 20
75.208946999999796
 30
0.0
 10
1098.4590000000007
 20
75.718639999999994
 30
0.0
 10
1099.0886380000002
 20
75.718639999999311
 30
0.0
  0
SPLINE
  5
99
  8
New Front
 62
1
420
16711680
370
-1
  6
ByLayer
100
AcDbEntity
100
AcDbSpline
 70
8
 71
3
 72
8
 73
4
 74
0
 40
0.0
 40
0.0
 40
0.0
 40
0.0
 40
1.0
 40
1.0
 40
1.0
 40
1.0
 10
1099.0886380000002
 20
75.718639999999311
 30
0.0
 10
1099.7177110000007
 20
75.718639999999652
 30
0.0
 10
1100.2282510000007
 20
75.208946999999682
 30
0.0
 10
1100.2282510000007
 20
74.578744999999515
 30
0.0
  0
LWPOLYLINE
  5
9A
  8
New Front
 62
1
420
16711680
370
-1
  6
ByLayer
100
AcDbEntity
100
AcDbPolyline
 90
2
 70
0
 10
1100.2282510000007
 20
74.578744999999515
 10
1100.2282510000007
 20
74.578744999999515
  0
LWPOLYLINE
  5
9B
  8
New Front
 62
1
420
16711680
370
-1
  6
ByLayer
100
AcDbEntity
100
AcDbPolyline
 90
6
 70
0
 10
1096.6087510000007
 20
197.97916499999923
 10
1096.6087510000007
 20
205.85852699999901
 10
1101.5685250000006
 20
205.85852699999901
 10
1101.5685250000004
 20
197.97916499999911
 10
1096.6087510000007
 20
197.97916499999923
 10
1096.6087510000007
 20
197.97916499999923
  0
SPLINE
  5
9C
  8
New Front
 62
1
420
16711680
370
-1
  6
ByLayer
100
AcDbEntity
100
AcDbSpline
 70
8
 71
3
 72
8
 73
4
 74
0
 40
0.0
 40
0.0
 40
0.0
 40
0.0
 40
1.0
 40
1.0
 40
1.0
 40
1.0
 10
1100.2282510000007
 20
181.9187449999996
 30
0.0
 10
1100.2282510000005
 20
181.28967199999931
 30
0.0
 10
1099.7177110000009
 20
180.77884899999935
 30
0.0
 10
1099.0886380000006
 20
180.77884899999913
 30
0.0
  0
SPLINE
  5
9D
  8
New Front
 62
1
420
16711680
370
-1
  6
ByLayer
100
AcDbEntity
100
AcDbSpline
 70
8
 71
3
 72
8
 73
4
 74
0
 40
0.0
 40
0.0
 40
0.0
 40
0.0
 40
1.0
 40
1.0
 40
1.0
 40
1.0
 10
1099.0886380000006
 20
180.77884899999913
 30
0.0
 10
1098.459000000001
 20
180.77884899999924
 30
0.0
 10
1097.9490250000008
 20
181.2893890000006
 30
0.0
 10
1097.9490250000008
 20
181.91874499999994
 30
0.0
  0
SPLINE
  5
9E
  8
New Front
 62
1
420
16711680
370
-1
  6
ByLayer
100
AcDbEntity
100
AcDbSpline
 70
8
 71
3
 72
8
 73
4
 74
0
 40
0.0
 40
0.0
 40
0.0
 40
0.0
 40
1.0
 40
1.0
 40
1.0
 40
1.0
 10
1097.9490250000008
 20
181.91874499999994
 30
0.0
 10
1097.9490250000008
 20
182.5489470000004
 30
0.0
 10
1098.4590000000007
 20
183.05864000000014
 30
0.0
 10
1099.0886380000006
 20
183.05864000000003
 30
0.0
  0
SPLINE
  5
9F
  8
New Front
 62
1
420
16711680
370
-1
  6
ByLayer
100
AcDbEntity
100
AcDbSpline
 70
8
 71
3
 72
8
 73
4
 74
0
 40
0.0
 40
0.0
 40
0.0
 40
0.0
 40
1.0
 40
1.0
 40
1.0
 40
1.0
 10
1099.0886380000006
 20
183.05864000000003
 30
0.0
 10
1099.7177110000007
 20
183.05863999999963
 30
0.0
 10
1100.2282510000007
 20
182.54894699999994
 30
0.0
 10
1100.2282510000007
 20
181.9187449999996
 30
0.0
  0
LWPOLYLINE
  5
A0
  8
New Front
 62
1
420
16711680
370
-1
  6
ByLayer
100
AcDbEntity
100
AcDbPolyline
 90
6
 70
0
 10
1096.6087510000007
 20
157.97924499999914
 10
1096.6087510000004
 20
165.85860699999864
 10
1101.5685250000006
 20
165.85860699999921
 10
1101.5685250000006
 20
157.97924499999931
 10
1096.6087510000007
 20
157.97924499999914
 10
1096.6087510000007
 20
157.97924499999914
  0
LWPOLYLINE
  5
A1
  8
New Front
 62
1
420
16711680
370
-1
  6
ByLayer
100
AcDbEntity
100
AcDbPolyline
 90
2
 70
0
 10
1100.2282510000007
 20
181.9187449999996
 10
1100.2282510000007
 20
181.9187449999996
  0
LWPOLYLINE
  5
A2
  8
New Front
 62
1
420
16711680
370
-1
  6
ByLayer
100
AcDbEntity
100
AcDbPolyline
 90
6
 70
0
 10
1096.6087510000007
 20
305.31916499999943
 10
1096.6087510000007
 20
313.19852699999933
 10
1101.5685250000008
 20
313.19852699999944
 10
1101.5685250000008
 20
305.3191649999996
 10
1096.6087510000007
 20
305.31916499999943
 10
1096.6087510000007
 20
305.31916499999943
  0
SPLINE
  5
A3
  8
New Front
 62
1
420
16711680
370
-1
  6
ByLayer
100
AcDbEntity
100
AcDbSpline
 70
8
 71
3
 72
8
 73
4
 74
0
 40
0.0
 40
0.0
 40
0.0
 40
0.0
 40
1.0
 40
1.0
 40
1.0
 40
1.0
 10
1100.2282510000005
 20
289.25874499999946
 30
0.0
 10
1100.2282510000009
 20
288.62967199999974
 30
0.0
 10
1099.7177110000007
 20
288.11884899999922
 30
0.0
 10
1099.0886380000006
 20
288.11884899999905
 30
0.0
  0
SPLINE
  5
A4
  8
New Front
 62
1
420
16711680
370
-1
  6
ByLayer
100
AcDbEntity
100
AcDbSpline
 70
8
 71
3
 72
8
 73
4
 74
0
 40
0.0
 40
0.0
 40
0.0
 40
0.0
 40
1.0
 40
1.0
 40
1.0
 40
1.0
 10
1099.0886380000006
 20
288.11884899999905
 30
0.0
 10
1098.4590000000007
 20
288.1188489999991
 30
0.0
 10
1097.9490250000008
 20
288.62938899999949
 30
0.0
 10
1097.9490250000008
 20
289.25874500000003
 30
0.0
  0
SPLINE
  5
A5
  8
New Front
 62
1
420
16711680
370
-1
  6
ByLayer
100
AcDbEntity
100
AcDbSpline
 70
8
 71
3
 72
8
 73
4
 74
0
 40
0.0
 40
0.0
 40
0.0
 40
0.0
 40
1.0
 40
1.0
 40
1.0
 40
1.0
 10
1097.9490250000008
 20
289.25874500000003
 30
0.0
 10
1097.9490250000008
 20
289.88894699999918
 30
0.0
 10
1098.4590000000007
 20
290.39863999999898
 30
0.0
 10
1099.0886380000006
 20
290.39863999999898
 30
0.0
  0
SPLINE
  5
A6
  8
New Front
 62
1
420
16711680
370
-1
  6
ByLayer
100
AcDbEntity
100
AcDbSpline
 70
8
 71
3
 72
8
 73
4
 74
0
 40
0.0
 40
0.0
 40
0.0
 40
0.0
 40
1.0
 40
1.0
 40
1.0
 40
1.0
 10
1099.0886380000006
 20
290.39863999999898
 30
0.0
 10
1099.7177110000007
 20
290.39863999999898
 30
0.0
 10
1100.2282510000007
 20
289.88894699999906
 30
0.0
 10
1100.2282510000005
 20
289.25874499999946
 30
0.0
  0
LWPOLYLINE
  5
A7
  8
New Front
 62
1
420
16711680
370
-1
  6
ByLayer
100
AcDbEntity
100
AcDbPolyline
 90
6
 70
0
 10
1096.6087510000007
 20
265.31924499999957
 10
1096.6087510000007
 20
273.19860699999856
 10
1101.5685250000006
 20
273.19860699999901
 10
1101.5685250000006
 20
265.31924499999923
 10
1096.6087510000007
 20
265.31924499999957
 10
1096.6087510000007
 20
265.31924499999957
  0
LWPOLYLINE
  5
A8
  8
New Front
 62
1
420
16711680
370
-1
  6
ByLayer
100
AcDbEntity
100
AcDbPolyline
 90
2
 70
0
 10
1100.2282510000005
 20
289.25874499999946
 10
1100.2282510000005
 20
289.25874499999946
  0
LWPOLYLINE
  5
A9
  8
New Front
 62
1
420
16711680
370
-1
  6
ByLayer
100
AcDbEntity
100
AcDbPolyline
 90
6
 70
0
 10
1096.6087510000007
 20
412.39041999999921
 10
1096.6087510000009
 20
420.26978200000019
 10
1101.5685250000008
 20
420.26978200000008
 10
1101.5685250000006
 20
412.39041999999904
 10
1096.6087510000007
 20
412.39041999999921
 10
1096.6087510000007
 20
412.39041999999921
  0
SPLINE
  5
AA
  8
New Front
 62
1
420
16711680
370
-1
  6
ByLayer
100
AcDbEntity
100
AcDbSpline
 70
8
 71
3
 72
8
 73
4
 74
0
 40
0.0
 40
0.0
 40
0.0
 40
0.0
 40
1.0
 40
1.0
 40
1.0
 40
1.0
 10
1100.2282510000009
 20
396.32999999999998
 30
0.0
 10
1100.2282510000009
 20
395.70092699999941
 30
0.0
 10
1099.7177110000007
 20
395.19010399999985
 30
0.0
 10
1099.0886380000006
 20
395.19010400000002
 30
0.0
  0
SPLINE
  5
AB
  8
New Front
 62
1
420
16711680
370
-1
  6
ByLayer
100
AcDbEntity
100
AcDbSpline
 70
8
 71
3
 72
8
 73
4
 74
0
 40
0.0
 40
0.0
 40
0.0
 40
0.0
 40
1.0
 40
1.0
 40
1.0
 40
1.0
 10
1099.0886380000006
 20
395.19010400000002
 30
0.0
 10
1098.4590000000007
 20
395.19010400000002
 30
0.0
 10
1097.9490250000008
 20
395.70064399999922
 30
0.0
 10
1097.9490250000008
 20
396.32999999999936
 30
0.0
  0
SPLINE
  5
AC
  8
New Front
 62
1
420
16711680
370
-1
  6
ByLayer
100
AcDbEntity
100
AcDbSpline
 70
8
 71
3
 72
8
 73
4
 74
0
 40
0.0
 40
0.0
 40
0.0
 40
0.0
 40
1.0
 40
1.0
 40
1.0
 40
1.0
 10
1097.9490250000008
 20
396.32999999999936
 30
0.0
 10
1097.9490250000008
 20
396.96020199999919
 30
0.0
 10
1098.4590000000007
 20
397.46989499999893
 30
0.0
 10
1099.0886380000006
 20
397.46989499999864
 30
0.0
  0
SPLINE
  5
AD
  8
New Front
 62
1
420
16711680
370
-1
  6
ByLayer
100
AcDbEntity
100
AcDbSpline
 70
8
 71
3
 72
8
 73
4
 74
0
 40
0.0
 40
0.0
 40
0.0
 40
0.0
 40
1.0
 40
1.0
 40
1.0
 40
1.0
 10
1099.0886380000006
 20
397.46989499999864
 30
0.0
 10
1099.7177110000007
 20
397.46989499999904
 30
0.0
 10
1100.2282510000009
 20
396.96020199999896
 30
0.0
 10
1100.2282510000009
 20
396.32999999999998
 30
0.0
  0
LWPOLYLINE
  5
AE
  8
New Front
 62
1
420
16711680
370
-1
  6
ByLayer
100
AcDbEntity
100
AcDbPolyline
 90
6
 70
0
 10
1096.6087510000007
 20
372.39050000000032
 10
1096.6087510000007
 20
380.26986199999959
 10
1101.5685250000006
 20
380.26986199999976
 10
1101.5685250000006
 20
372.39050000000009
 10
1096.6087510000007
 20
372.39050000000032
 10
1096.6087510000007
 20
372.39050000000032
  0
LWPOLYLINE
  5
AF
  8
New Front
 62
1
420
16711680
370
-1
  6
ByLayer
100
AcDbEntity
100
AcDbPolyline
 90
2
 70
0
 10
1100.2282510000009
 20
396.32999999999998
 10
1100.2282510000009
 20
396.32999999999998
  0
LWPOLYLINE
  5
B0
  8
New Front
 62
1
420
16711680
370
-1
  6
ByLayer
100
AcDbEntity
100
AcDbPolyline
 90
6
 70
0
 10
1096.6087510000009
 20
519.73041999999919
 10
1096.6087510000007
 20
527.60978200000011
 10
1101.5685250000008
 20
527.60978200000034
 10
1101.5685250000006
 20
519.73041999999953
 10
1096.6087510000009
 20
519.73041999999919
 10
1096.6087510000009
 20
519.73041999999919
  0
SPLINE
  5
B1
  8
New Front
 62
1
420
16711680
370
-1
  6
ByLayer
100
AcDbEntity
100
AcDbSpline
 70
8
 71
3
 72
8
 73
4
 74
0
 40
0.0
 40
0.0
 40
0.0
 40
0.0
 40
1.0
 40
1.0
 40
1.0
 40
1.0
 10
1100.2282510000009
 20
503.66999999999973
 30
0.0
 10
1100.2282510000009
 20
503.04092699999967
 30
0.0
 10
1099.7177110000009
 20
502.53010399999977
 30
0.0
 10
1099.0886380000009
 20
502.53010399999977
 30
0.0
  0
SPLINE
  5
B2
  8
New Front
 62
1
420
16711680
370
-1
  6
ByLayer
100
AcDbEntity
100
AcDbSpline
 70
8
 71
3
 72
8
 73
4
 74
0
 40
0.0
 40
0.0
 40
0.0
 40
0.0
 40
1.0
 40
1.0
 40
1.0
 40
1.0
 10
1099.0886380000009
 20
502.53010399999977
 30
0.0
 10
1098.4590000000007
 20
502.53010400000011
 30
0.0
 10
1097.9490250000008
 20
503.04064399999947
 30
0.0
 10
1097.9490250000008
 20
503.66999999999985
 30
0.0
  0
SPLINE
  5
B3
  8
New Front
 62
1
420
16711680
370
-1
  6
ByLayer
100
AcDbEntity
100
AcDbSpline
 70
8
 71
3
 72
8
 73
4
 74
0
 40
0.0
 40
0.0
 40
0.0
 40
0.0
 40
1.0
 40
1.0
 40
1.0
 40
1.0
 10
1097.9490250000008
 20
503.66999999999985
 30
0.0
 10
1097.9490250000008
 20
504.3002019999991
 30
0.0
 10
1098.459000000001
 20
504.80989499999913
 30
0.0
 10
1099.0886380000009
 20
504.80989499999907
 30
0.0
  0
SPLINE
  5
B4
  8
New Front
 62
1
420
16711680
370
-1
  6
ByLayer
100
AcDbEntity
100
AcDbSpline
 70
8
 71
3
 72
8
 73
4
 74
0
 40
0.0
 40
0.0
 40
0.0
 40
0.0
 40
1.0
 40
1.0
 40
1.0
 40
1.0
 10
1099.0886380000009
 20
504.80989499999907
 30
0.0
 10
1099.7177110000007
 20
504.80989499999919
 30
0.0
 10
1100.2282510000009
 20
504.30020199999899
 30
0.0
 10
1100.2282510000009
 20
503.66999999999973
 30
0.0
  0
LWPOLYLINE
  5
B5
  8
New Front
 62
1
420
16711680
370
-1
  6
ByLayer
100
AcDbEntity
100
AcDbPolyline
 90
6
 70
0
 10
1096.6087510000007
 20
479.73050000000023
 10
1096.6087510000009
 20
487.60986199999968
 10
1101.5685250000006
 20
487.60986199999991
 10
1101.5685250000008
 20
479.73050000000006
 10
1096.6087510000007
 20
479.73050000000023
 10
1096.6087510000007
 20
479.73050000000023
  0
LWPOLYLINE
  5
B6
  8
New Front
 62
1
420
16711680
370
-1
  6
ByLayer
100
AcDbEntity
100
AcDbPolyline
 90
2
 70
0
 10
1100.2282510000009
 20
503.66999999999973
 10
1100.2282510000009
 20
503.66999999999973
  0
LWPOLYLINE
  5
B7
  8
New Front
 62
1
420
16711680
370
-1
  6
ByLayer
100
AcDbEntity
100
AcDbPolyline
 90
6
 70
0
 10
1096.6087510000011
 20
627.07041999999944
 10
1096.6087510000009
 20
634.94978200000014
 10
1101.5685250000008
 20
634.94978200000003
 10
1101.5685250000006
 20
627.07041999999979
 10
1096.6087510000011
 20
627.07041999999944
 10
1096.6087510000011
 20
627.07041999999944
  0
SPLINE
  5
B8
  8
New Front
 62
1
420
16711680
370
-1
  6
ByLayer
100
AcDbEntity
100
AcDbSpline
 70
8
 71
3
 72
8
 73
4
 74
0
 40
0.0
 40
0.0
 40
0.0
 40
0.0
 40
1.0
 40
1.0
 40
1.0
 40
1.0
 10
1100.2282510000009
 20
611.00999999999999
 30
0.0
 10
1100.2282510000009
 20
610.3809269999997
 30
0.0
 10
1099.7177110000009
 20
609.87010400000031
 30
0.0
 10
1099.0886380000009
 20
609.8701040000002
 30
0.0
  0
SPLINE
  5
B9
  8
New Front
 62
1
420
16711680
370
-1
  6
ByLayer
100
AcDbEntity
100
AcDbSpline
 70
8
 71
3
 72
8
 73
4
 74
0
 40
0.0
 40
0.0
 40
0.0
 40
0.0
 40
1.0
 40
1.0
 40
1.0
 40
1.0
 10
1099.0886380000009
 20
609.8701040000002
 30
0.0
 10
1098.459000000001
 20
609.8701040000002
 30
0.0
 10
1097.949025000001
 20
610.38064399999917
 30
0.0
 10
1097.9490250000008
 20
611.01000000000022
 30
0.0
  0
SPLINE
  5
BA
  8
New Front
 62
1
420
16711680
370
-1
  6
ByLayer
100
AcDbEntity
100
AcDbSpline
 70
8
 71
3
 72
8
 73
4
 74
0
 40
0.0
 40
0.0
 40
0.0
 40
0.0
 40
1.0
 40
1.0
 40
1.0
 40
1.0
 10
1097.9490250000008
 20
611.01000000000022
 30
0.0
 10
1097.949025000001
 20
611.64020199999891
 30
0.0
 10
1098.459000000001
 20
612.14989499999956
 30
0.0
 10
1099.0886380000011
 20
612.14989499999899
 30
0.0
  0
SPLINE
  5
BB
  8
New Front
 62
1
420
16711680
370
-1
  6
ByLayer
100
AcDbEntity
100
AcDbSpline
 70
8
 71
3
 72
8
 73
4
 74
0
 40
0.0
 40
0.0
 40
0.0
 40
0.0
 40
1.0
 40
1.0
 40
1.0
 40
1.0
 10
1099.0886380000011
 20
612.14989499999899
 30
0.0
 10
1099.7177110000011
 20
612.14989499999922
 30
0.0
 10
1100.2282510000009
 20
611.64020199999914
 30
0.0
 10
1100.2282510000009
 20
611.00999999999999
 30
0.0
  0
LWPOLYLINE
  5
BC
  8
New Front
 62
1
420
16711680
370
-1
  6
ByLayer
100
AcDbEntity
100
AcDbPolyline
 90
6
 70
0
 10
1096.6087510000009
 20
587.07050000000072
 10
1096.6087510000009
 20
594.94986199999994
 10
1101.568525000001
 20
594.94986199999994
 10
1101.5685250000006
 20
587.07050000000049
 10
1096.6087510000009
 20
587.07050000000072
 10
1096.6087510000009
 20
587.07050000000072
  0
LWPOLYLINE
  5
BD
  8
New Front
 62
1
420
16711680
370
-1
  6
ByLayer
100
AcDbEntity
100
AcDbPolyline
 90
2
 70
0
 10
1100.2282510000009
 20
611.00999999999999
 10
1100.2282510000009
 20
611.00999999999999
  0
LWPOLYLINE
  5
BE
  8
New Front
 62
1
420
16711680
370
-1
  6
ByLayer
100
AcDbEntity
100
AcDbPolyline
 90
6
 70
0
 10
1096.6087510000009
 20
734.41041999999993
 10
1096.6087510000009
 20
742.28978200000051
 10
1101.5685250000006
 20
742.28978200000074
 10
1101.5685250000006
 20
734.41042000000016
 10
1096.6087510000009
 20
734.41041999999993
 10
1096.6087510000009
 20
734.41041999999993
  0
SPLINE
  5
BF
  8
New Front
 62
1
420
16711680
370
-1
  6
ByLayer
100
AcDbEntity
100
AcDbSpline
 70
8
 71
3
 72
8
 73
4
 74
0
 40
0.0
 40
0.0
 40
0.0
 40
0.0
 40
1.0
 40
1.0
 40
1.0
 40
1.0
 10
1100.2282510000009
 20
718.35000000000036
 30
0.0
 10
1100.2282510000009
 20
717.72092700000007
 30
0.0
 10
1099.7177110000011
 20
717.21010400000046
 30
0.0
 10
1099.0886380000009
 20
717.21010400000068
 30
0.0
  0
SPLINE
  5
C0
  8
New Front
 62
1
420
16711680
370
-1
  6
ByLayer
100
AcDbEntity
100
AcDbSpline
 70
8
 71
3
 72
8
 73
4
 74
0
 40
0.0
 40
0.0
 40
0.0
 40
0.0
 40
1.0
 40
1.0
 40
1.0
 40
1.0
 10
1099.0886380000009
 20
717.21010400000068
 30
0.0
 10
1098.459000000001
 20
717.21010400000046
 30
0.0
 10
1097.9490250000008
 20
717.72064399999977
 30
0.0
 10
1097.9490250000008
 20
718.35000000000014
 30
0.0
  0
SPLINE
  5
C1
  8
New Front
 62
1
420
16711680
370
-1
  6
ByLayer
100
AcDbEntity
100
AcDbSpline
 70
8
 71
3
 72
8
 73
4
 74
0
 40
0.0
 40
0.0
 40
0.0
 40
0.0
 40
1.0
 40
1.0
 40
1.0
 40
1.0
 10
1097.9490250000008
 20
718.35000000000014
 30
0.0
 10
1097.949025000001
 20
718.98020199999951
 30
0.0
 10
1098.459000000001
 20
719.48989499999948
 30
0.0
 10
1099.0886380000011
 20
719.48989499999925
 30
0.0
  0
SPLINE
  5
C2
  8
New Front
 62
1
420
16711680
370
-1
  6
ByLayer
100
AcDbEntity
100
AcDbSpline
 70
8
 71
3
 72
8
 73
4
 74
0
 40
0.0
 40
0.0
 40
0.0
 40
0.0
 40
1.0
 40
1.0
 40
1.0
 40
1.0
 10
1099.0886380000011
 20
719.48989499999925
 30
0.0
 10
1099.7177110000009
 20
719.48989499999948
 30
0.0
 10
1100.2282510000009
 20
718.98020199999951
 30
0.0
 10
1100.2282510000009
 20
718.35000000000036
 30
0.0
  0
LWPOLYLINE
  5
C3
  8
New Front
 62
1
420
16711680
370
-1
  6
ByLayer
100
AcDbEntity
100
AcDbPolyline
 90
6
 70
0
 10
1096.6087510000009
 20
694.41050000000041
 10
1096.6087510000011
 20
702.28986200000008
 10
1101.568525000001
 20
702.28986199999997
 10
1101.568525000001
 20
694.41050000000064
 10
1096.6087510000009
 20
694.41050000000041
 10
1096.6087510000009
 20
694.41050000000041
  0
LWPOLYLINE
  5
C4
  8
New Front
 62
1
420
16711680
370
-1
  6
ByLayer
100
AcDbEntity
100
AcDbPolyline
 90
2
 70
0
 10
1100.2282510000009
 20
718.35000000000036
 10
1100.2282510000009
 20
718.35000000000036
  0
SPLINE
  5
C5
  8
New Front
 62
1
420
16711680
370
-1
  6
ByLayer
100
AcDbEntity
100
AcDbSpline
 70
8
 71
3
 72
8
 73
4
 74
0
 40
0.0
 40
0.0
 40
0.0
 40
0.0
 40
1.0
 40
1.0
 40
1.0
 40
1.0
 10
35.274743999752559
 20
825.5253710000004
 30
0.0
 10
35.274743999752559
 20
824.89629800000057
 30
0.0
 10
34.764203999752681
 20
824.38547500000004
 30
0.0
 10
34.135130999752619
 20
824.38547500000004
 30
0.0
  0
SPLINE
  5
C6
  8
New Front
 62
1
420
16711680
370
-1
  6
ByLayer
100
AcDbEntity
100
AcDbSpline
 70
8
 71
3
 72
8
 73
4
 74
0
 40
0.0
 40
0.0
 40
0.0
 40
0.0
 40
1.0
 40
1.0
 40
1.0
 40
1.0
 10
34.135130999752619
 20
824.38547500000004
 30
0.0
 10
33.505492999752619
 20
824.38547500000004
 30
0.0
 10
32.995517999752451
 20
824.89601500000003
 30
0.0
 10
32.995517999752451
 20
825.5253710000004
 30
0.0
  0
SPLINE
  5
C7
  8
New Front
 62
1
420
16711680
370
-1
  6
ByLayer
100
AcDbEntity
100
AcDbSpline
 70
8
 71
3
 72
8
 73
4
 74
0
 40
0.0
 40
0.0
 40
0.0
 40
0.0
 40
1.0
 40
1.0
 40
1.0
 40
1.0
 10
32.995517999752451
 20
825.5253710000004
 30
0.0
 10
32.995517999752565
 20
826.15557300000012
 30
0.0
 10
33.505492999752732
 20
826.66526599999997
 30
0.0
 10
34.135130999752505
 20
826.66526599999975
 30
0.0
  0
SPLINE
  5
C8
  8
New Front
 62
1
420
16711680
370
-1
  6
ByLayer
100
AcDbEntity
100
AcDbSpline
 70
8
 71
3
 72
8
 73
4
 74
0
 40
0.0
 40
0.0
 40
0.0
 40
0.0
 40
1.0
 40
1.0
 40
1.0
 40
1.0
 10
34.135130999752505
 20
826.66526599999975
 30
0.0
 10
34.764203999752567
 20
826.66526599999997
 30
0.0
 10
35.274743999752673
 20
826.155573
 30
0.0
 10
35.274743999752559
 20
825.5253710000004
 30
0.0
  0
LWPOLYLINE
  5
C9
  8
New Front
 62
1
420
16711680
370
-1
  6
ByLayer
100
AcDbEntity
100
AcDbPolyline
 90
6
 70
0
 10
31.655243999752656
 20
801.58587100000022
 10
31.655243999752429
 20
809.46523299999967
 10
36.615017999752467
 20
809.46523300000001
 10
36.615017999752354
 20
801.585871
 10
31.655243999752656
 20
801.58587100000022
 10
31.655243999752656
 20
801.58587100000022
  0
LWPOLYLINE
  5
CA
  8
New Front
 62
1
420
16711680
370
-1
  6
ByLayer
100
AcDbEntity
100
AcDbPolyline
 90
2
 70
0
 10
35.274743999752559
 20
825.5253710000004
 10
35.274743999752559
 20
825.5253710000004
  0
LWPOLYLINE
  5
CB
  8
New Front
 62
1
420
16711680
370
-1
  6
ByLayer
100
AcDbEntity
100
AcDbPolyline
 90
6
 70
0
 10
31.655243999752656
 20
90.639164999999366
 10
31.655243999752656
 20
98.518527000000063
 10
36.615017999752467
 20
98.51852700000012
 10
36.615017999752581
 20
90.639164999999537
 10
31.655243999752656
 20
90.639164999999366
 10
31.655243999752656
 20
90.639164999999366
  0
SPLINE
  5
CC
  8
New Front
 62
1
420
16711680
370
-1
  6
ByLayer
100
AcDbEntity
100
AcDbSpline
 70
8
 71
3
 72
8
 73
4
 74
0
 40
0.0
 40
0.0
 40
0.0
 40
0.0
 40
1.0
 40
1.0
 40
1.0
 40
1.0
 10
35.274743999752445
 20
74.578744999999742
 30
0.0
 10
35.274743999752673
 20
73.94967199999968
 30
0.0
 10
34.764203999752681
 20
73.438849000000118
 30
0.0
 10
34.135130999752619
 20
73.438849000000062
 30
0.0
  0
SPLINE
  5
CD
  8
New Front
 62
1
420
16711680
370
-1
  6
ByLayer
100
AcDbEntity
100
AcDbSpline
 70
8
 71
3
 72
8
 73
4
 74
0
 40
0.0
 40
0.0
 40
0.0
 40
0.0
 40
1.0
 40
1.0
 40
1.0
 40
1.0
 10
34.135130999752619
 20
73.438849000000062
 30
0.0
 10
33.505492999752619
 20
73.438849000000005
 30
0.0
 10
32.995517999752565
 20
73.949389000000281
 30
0.0
 10
32.995517999752337
 20
74.578744999999856
 30
0.0
  0
SPLINE
  5
CE
  8
New Front
 62
1
420
16711680
370
-1
  6
ByLayer
100
AcDbEntity
100
AcDbSpline
 70
8
 71
3
 72
8
 73
4
 74
0
 40
0.0
 40
0.0
 40
0.0
 40
0.0
 40
1.0
 40
1.0
 40
1.0
 40
1.0
 10
32.995517999752337
 20
74.578744999999856
 30
0.0
 10
32.995517999752337
 20
75.208947000000137
 30
0.0
 10
33.505492999752619
 20
75.718640000000164
 30
0.0
 10
34.135130999752505
 20
75.718639999999937
 30
0.0
  0
SPLINE
  5
CF
  8
New Front
 62
1
420
16711680
370
-1
  6
ByLayer
100
AcDbEntity
100
AcDbSpline
 70
8
 71
3
 72
8
 73
4
 74
0
 40
0.0
 40
0.0
 40
0.0
 40
0.0
 40
1.0
 40
1.0
 40
1.0
 40
1.0
 10
34.135130999752505
 20
75.718639999999937
 30
0.0
 10
34.764203999752681
 20
75.71863999999988
 30
0.0
 10
35.274743999752559
 20
75.208946999999966
 30
0.0
 10
35.274743999752445
 20
74.578744999999742
 30
0.0
  0
LWPOLYLINE
  5
D0
  8
New Front
 62
1
420
16711680
370
-1
  6
ByLayer
100
AcDbEntity
100
AcDbPolyline
 90
2
 70
0
 10
35.274743999752445
 20
74.578744999999742
 10
35.274743999752445
 20
74.578744999999742
  0
LWPOLYLINE
  5
D1
  8
New Front
 62
1
420
16711680
370
-1
  6
ByLayer
100
AcDbEntity
100
AcDbPolyline
 90
6
 70
0
 10
31.655243999752543
 20
197.97916499999985
 10
31.655243999752543
 20
205.85852699999919
 10
36.615017999752467
 20
205.8585269999993
 10
36.615017999752354
 20
197.9791649999998
 10
31.655243999752543
 20
197.97916499999985
 10
31.655243999752543
 20
197.97916499999985
  0
SPLINE
  5
D2
  8
New Front
 62
1
420
16711680
370
-1
  6
ByLayer
100
AcDbEntity
100
AcDbSpline
 70
8
 71
3
 72
8
 73
4
 74
0
 40
0.0
 40
0.0
 40
0.0
 40
0.0
 40
1.0
 40
1.0
 40
1.0
 40
1.0
 10
35.274743999752559
 20
181.91874499999977
 30
0.0
 10
35.274743999752673
 20
181.28967199999971
 30
0.0
 10
34.764203999752567
 20
180.7788489999993
 30
0.0
 10
34.135130999752505
 20
180.77884899999913
 30
0.0
  0
SPLINE
  5
D3
  8
New Front
 62
1
420
16711680
370
-1
  6
ByLayer
100
AcDbEntity
100
AcDbSpline
 70
8
 71
3
 72
8
 73
4
 74
0
 40
0.0
 40
0.0
 40
0.0
 40
0.0
 40
1.0
 40
1.0
 40
1.0
 40
1.0
 10
34.135130999752505
 20
180.77884899999913
 30
0.0
 10
33.505492999752619
 20
180.77884899999924
 30
0.0
 10
32.995517999752451
 20
181.28938900000043
 30
0.0
 10
32.995517999752565
 20
181.91874499999983
 30
0.0
  0
SPLINE
  5
D4
  8
New Front
 62
1
420
16711680
370
-1
  6
ByLayer
100
AcDbEntity
100
AcDbSpline
 70
8
 71
3
 72
8
 73
4
 74
0
 40
0.0
 40
0.0
 40
0.0
 40
0.0
 40
1.0
 40
1.0
 40
1.0
 40
1.0
 10
32.995517999752565
 20
181.91874499999983
 30
0.0
 10
32.995517999752451
 20
182.54894700000011
 30
0.0
 10
33.505492999752505
 20
183.05864000000025
 30
0.0
 10
34.135130999752391
 20
183.05864000000008
 30
0.0
  0
SPLINE
  5
D5
  8
New Front
 62
1
420
16711680
370
-1
  6
ByLayer
100
AcDbEntity
100
AcDbSpline
 70
8
 71
3
 72
8
 73
4
 74
0
 40
0.0
 40
0.0
 40
0.0
 40
0.0
 40
1.0
 40
1.0
 40
1.0
 40
1.0
 10
34.135130999752391
 20
183.05864000000008
 30
0.0
 10
34.764203999752681
 20
183.05864000000008
 30
0.0
 10
35.274743999752559
 20
182.54894700000017
 30
0.0
 10
35.274743999752559
 20
181.91874499999977
 30
0.0
  0
LWPOLYLINE
  5
D6
  8
New Front
 62
1
420
16711680
370
-1
  6
ByLayer
100
AcDbEntity
100
AcDbPolyline
 90
6
 70
0
 10
31.655243999752656
 20
157.97924499999925
 10
31.655243999752543
 20
165.85860699999915
 10
36.615017999752581
 20
165.85860699999898
 10
36.615017999752467
 20
157.97924499999948
 10
31.655243999752656
 20
157.97924499999925
 10
31.655243999752656
 20
157.97924499999925
  0
LWPOLYLINE
  5
D7
  8
New Front
 62
1
420
16711680
370
-1
  6
ByLayer
100
AcDbEntity
100
AcDbPolyline
 90
2
 70
0
 10
35.274743999752559
 20
181.91874499999977
 10
35.274743999752559
 20
181.91874499999977
  0
LWPOLYLINE
  5
D8
  8
New Front
 62
1
420
16711680
370
-1
  6
ByLayer
100
AcDbEntity
100
AcDbPolyline
 90
6
 70
0
 10
31.655243999752543
 20
305.31916499999983
 10
31.655243999752429
 20
313.19852699999961
 10
36.615017999752467
 20
313.19852699999944
 10
36.615017999752467
 20
305.319165
 10
31.655243999752543
 20
305.31916499999983
 10
31.655243999752543
 20
305.31916499999983
  0
SPLINE
  5
D9
  8
New Front
 62
1
420
16711680
370
-1
  6
ByLayer
100
AcDbEntity
100
AcDbSpline
 70
8
 71
3
 72
8
 73
4
 74
0
 40
0.0
 40
0.0
 40
0.0
 40
0.0
 40
1.0
 40
1.0
 40
1.0
 40
1.0
 10
35.274743999752673
 20
289.25874499999986
 30
0.0
 10
35.274743999752559
 20
288.6296720000002
 30
0.0
 10
34.764203999752453
 20
288.11884899999961
 30
0.0
 10
34.135130999752505
 20
288.11884899999933
 30
0.0
  0
SPLINE
  5
DA
  8
New Front
 62
1
420
16711680
370
-1
  6
ByLayer
100
AcDbEntity
100
AcDbSpline
 70
8
 71
3
 72
8
 73
4
 74
0
 40
0.0
 40
0.0
 40
0.0
 40
0.0
 40
1.0
 40
1.0
 40
1.0
 40
1.0
 10
34.135130999752505
 20
288.11884899999933
 30
0.0
 10
33.505492999752732
 20
288.11884899999944
 30
0.0
 10
32.995517999752451
 20
288.62938899999983
 30
0.0
 10
32.995517999752337
 20
289.25874500000015
 30
0.0
  0
SPLINE
  5
DB
  8
New Front
 62
1
420
16711680
370
-1
  6
ByLayer
100
AcDbEntity
100
AcDbSpline
 70
8
 71
3
 72
8
 73
4
 74
0
 40
0.0
 40
0.0
 40
0.0
 40
0.0
 40
1.0
 40
1.0
 40
1.0
 40
1.0
 10
32.995517999752337
 20
289.25874500000015
 30
0.0
 10
32.995517999752451
 20
289.8889469999994
 30
0.0
 10
33.505492999752505
 20
290.39863999999949
 30
0.0
 10
34.135130999752505
 20
290.39863999999955
 30
0.0
  0
SPLINE
  5
DC
  8
New Front
 62
1
420
16711680
370
-1
  6
ByLayer
100
AcDbEntity
100
AcDbSpline
 70
8
 71
3
 72
8
 73
4
 74
0
 40
0.0
 40
0.0
 40
0.0
 40
0.0
 40
1.0
 40
1.0
 40
1.0
 40
1.0
 10
34.135130999752505
 20
290.39863999999955
 30
0.0
 10
34.764203999752567
 20
290.39863999999943
 30
0.0
 10
35.274743999752673
 20
289.88894699999946
 30
0.0
 10
35.274743999752673
 20
289.25874499999986
 30
0.0
  0
LWPOLYLINE
  5
DD
  8
New Front
 62
1
420
16711680
370
-1
  6
ByLayer
100
AcDbEntity
100
AcDbPolyline
 90
6
 70
0
 10
31.655243999752543
 20
265.31924499999974
 10
31.655243999752543
 20
273.19860699999947
 10
36.615017999752467
 20
273.19860699999924
 10
36.615017999752581
 20
265.31924499999968
 10
31.655243999752543
 20
265.31924499999974
 10
31.655243999752543
 20
265.31924499999974
  0
LWPOLYLINE
  5
DE
  8
New Front
 62
1
420
16711680
370
-1
  6
ByLayer
100
AcDbEntity
100
AcDbPolyline
 90
2
 70
0
 10
35.274743999752673
 20
289.25874499999986
 10
35.274743999752673
 20
289.25874499999986
  0
LWPOLYLINE
  5
DF
  8
New Front
 62
1
420
16711680
370
-1
  6
ByLayer
100
AcDbEntity
100
AcDbPolyline
 90
6
 70
0
 10
31.655243999752543
 20
412.39041999999978
 10
31.655243999752543
 20
420.26978200000042
 10
36.615017999752467
 20
420.2697820000003
 10
36.615017999752354
 20
412.39041999999961
 10
31.655243999752543
 20
412.39041999999978
 10
31.655243999752543
 20
412.39041999999978
  0
SPLINE
  5
E0
  8
New Front
 62
1
420
16711680
370
-1
  6
ByLayer
100
AcDbEntity
100
AcDbSpline
 70
8
 71
3
 72
8
 73
4
 74
0
 40
0.0
 40
0.0
 40
0.0
 40
0.0
 40
1.0
 40
1.0
 40
1.0
 40
1.0
 10
35.274743999752445
 20
396.32999999999981
 30
0.0
 10
35.274743999752673
 20
395.70092699999958
 30
0.0
 10
34.764203999752567
 20
395.19010400000036
 30
0.0
 10
34.135130999752391
 20
395.19010400000036
 30
0.0
  0
SPLINE
  5
E1
  8
New Front
 62
1
420
16711680
370
-1
  6
ByLayer
100
AcDbEntity
100
AcDbSpline
 70
8
 71
3
 72
8
 73
4
 74
0
 40
0.0
 40
0.0
 40
0.0
 40
0.0
 40
1.0
 40
1.0
 40
1.0
 40
1.0
 10
34.135130999752391
 20
395.19010400000036
 30
0.0
 10
33.505492999752619
 20
395.19010400000036
 30
0.0
 10
32.995517999752451
 20
395.70064399999956
 30
0.0
 10
32.995517999752451
 20
396.32999999999981
 30
0.0
  0
SPLINE
  5
E2
  8
New Front
 62
1
420
16711680
370
-1
  6
ByLayer
100
AcDbEntity
100
AcDbSpline
 70
8
 71
3
 72
8
 73
4
 74
0
 40
0.0
 40
0.0
 40
0.0
 40
0.0
 40
1.0
 40
1.0
 40
1.0
 40
1.0
 10
32.995517999752451
 20
396.32999999999981
 30
0.0
 10
32.995517999752451
 20
396.9602019999993
 30
0.0
 10
33.505492999752619
 20
397.46989499999927
 30
0.0
 10
34.135130999752505
 20
397.4698949999991
 30
0.0
  0
SPLINE
  5
E3
  8
New Front
 62
1
420
16711680
370
-1
  6
ByLayer
100
AcDbEntity
100
AcDbSpline
 70
8
 71
3
 72
8
 73
4
 74
0
 40
0.0
 40
0.0
 40
0.0
 40
0.0
 40
1.0
 40
1.0
 40
1.0
 40
1.0
 10
34.135130999752505
 20
397.4698949999991
 30
0.0
 10
34.764203999752567
 20
397.46989499999916
 30
0.0
 10
35.274743999752673
 20
396.9602019999993
 30
0.0
 10
35.274743999752445
 20
396.32999999999981
 30
0.0
  0
LWPOLYLINE
  5
E4
  8
New Front
 62
1
420
16711680
370
-1
  6
ByLayer
100
AcDbEntity
100
AcDbPolyline
 90
6
 70
0
 10
31.655243999752429
 20
372.39050000000043
 10
31.655243999752543
 20
380.26986199999999
 10
36.615017999752467
 20
380.26986199999999
 10
36.615017999752581
 20
372.39050000000043
 10
31.655243999752429
 20
372.39050000000043
 10
31.655243999752429
 20
372.39050000000043
  0
LWPOLYLINE
  5
E5
  8
New Front
 62
1
420
16711680
370
-1
  6
ByLayer
100
AcDbEntity
100
AcDbPolyline
 90
2
 70
0
 10
35.274743999752445
 20
396.32999999999981
 10
35.274743999752445
 20
396.32999999999981
  0
LWPOLYLINE
  5
E6
  8
New Front
 62
1
420
16711680
370
-1
  6
ByLayer
100
AcDbEntity
100
AcDbPolyline
 90
6
 70
0
 10
31.655243999752543
 20
519.73041999999975
 10
31.655243999752543
 20
527.60978200000034
 10
36.615017999752581
 20
527.60978200000045
 10
36.615017999752467
 20
519.73041999999975
 10
31.655243999752543
 20
519.73041999999975
 10
31.655243999752543
 20
519.73041999999975
  0
SPLINE
  5
E7
  8
New Front
 62
1
420
16711680
370
-1
  6
ByLayer
100
AcDbEntity
100
AcDbSpline
 70
8
 71
3
 72
8
 73
4
 74
0
 40
0.0
 40
0.0
 40
0.0
 40
0.0
 40
1.0
 40
1.0
 40
1.0
 40
1.0
 10
35.274743999752559
 20
503.66999999999996
 30
0.0
 10
35.274743999752559
 20
503.0409269999999
 30
0.0
 10
34.764203999752567
 20
502.53010400000039
 30
0.0
 10
34.135130999752278
 20
502.53010400000039
 30
0.0
  0
SPLINE
  5
E8
  8
New Front
 62
1
420
16711680
370
-1
  6
ByLayer
100
AcDbEntity
100
AcDbSpline
 70
8
 71
3
 72
8
 73
4
 74
0
 40
0.0
 40
0.0
 40
0.0
 40
0.0
 40
1.0
 40
1.0
 40
1.0
 40
1.0
 10
34.135130999752278
 20
502.53010400000039
 30
0.0
 10
33.505492999752619
 20
502.53010400000039
 30
0.0
 10
32.995517999752337
 20
503.0406439999997
 30
0.0
 10
32.995517999752565
 20
503.67000000000019
 30
0.0
  0
SPLINE
  5
E9
  8
New Front
 62
1
420
16711680
370
-1
  6
ByLayer
100
AcDbEntity
100
AcDbSpline
 70
8
 71
3
 72
8
 73
4
 74
0
 40
0.0
 40
0.0
 40
0.0
 40
0.0
 40
1.0
 40
1.0
 40
1.0
 40
1.0
 10
32.995517999752565
 20
503.67000000000019
 30
0.0
 10
32.995517999752451
 20
504.30020199999933
 30
0.0
 10
33.505492999752619
 20
504.80989499999947
 30
0.0
 10
34.135130999752619
 20
504.80989499999953
 30
0.0
  0
SPLINE
  5
EA
  8
New Front
 62
1
420
16711680
370
-1
  6
ByLayer
100
AcDbEntity
100
AcDbSpline
 70
8
 71
3
 72
8
 73
4
 74
0
 40
0.0
 40
0.0
 40
0.0
 40
0.0
 40
1.0
 40
1.0
 40
1.0
 40
1.0
 10
34.135130999752619
 20
504.80989499999953
 30
0.0
 10
34.764203999752681
 20
504.80989499999947
 30
0.0
 10
35.274743999752673
 20
504.30020199999933
 30
0.0
 10
35.274743999752559
 20
503.66999999999996
 30
0.0
  0
LWPOLYLINE
  5
EB
  8
New Front
 62
1
420
16711680
370
-1
  6
ByLayer
100
AcDbEntity
100
AcDbPolyline
 90
6
 70
0
 10
31.655243999752543
 20
479.73050000000057
 10
31.655243999752543
 20
487.60986200000002
 10
36.615017999752467
 20
487.60986200000013
 10
36.615017999752581
 20
479.73050000000063
 10
31.655243999752543
 20
479.73050000000057
 10
31.655243999752543
 20
479.73050000000057
  0
LWPOLYLINE
  5
EC
  8
New Front
 62
1
420
16711680
370
-1
  6
ByLayer
100
AcDbEntity
100
AcDbPolyline
 90
2
 70
0
 10
35.274743999752559
 20
503.66999999999996
 10
35.274743999752559
 20
503.66999999999996
  0
LWPOLYLINE
  5
ED
  8
New Front
 62
1
420
16711680
370
-1
  6
ByLayer
100
AcDbEntity
100
AcDbPolyline
 90
6
 70
0
 10
31.655243999752429
 20
627.07042000000001
 10
31.655243999752543
 20
634.9497820000006
 10
36.615017999752467
 20
634.94978200000071
 10
36.615017999752467
 20
627.07042000000001
 10
31.655243999752429
 20
627.07042000000001
 10
31.655243999752429
 20
627.07042000000001
  0
SPLINE
  5
EE
  8
New Front
 62
1
420
16711680
370
-1
  6
ByLayer
100
AcDbEntity
100
AcDbSpline
 70
8
 71
3
 72
8
 73
4
 74
0
 40
0.0
 40
0.0
 40
0.0
 40
0.0
 40
1.0
 40
1.0
 40
1.0
 40
1.0
 10
35.274743999752559
 20
611.01000000000022
 30
0.0
 10
35.274743999752559
 20
610.38092700000016
 30
0.0
 10
34.764203999752567
 20
609.87010400000042
 30
0.0
 10
34.135130999752619
 20
609.87010400000054
 30
0.0
  0
SPLINE
  5
EF
  8
New Front
 62
1
420
16711680
370
-1
  6
ByLayer
100
AcDbEntity
100
AcDbSpline
 70
8
 71
3
 72
8
 73
4
 74
0
 40
0.0
 40
0.0
 40
0.0
 40
0.0
 40
1.0
 40
1.0
 40
1.0
 40
1.0
 10
34.135130999752619
 20
609.87010400000054
 30
0.0
 10
33.505492999752619
 20
609.87010400000054
 30
0.0
 10
32.995517999752451
 20
610.38064399999962
 30
0.0
 10
32.995517999752451
 20
611.01000000000022
 30
0.0
  0
SPLINE
  5
F0
  8
New Front
 62
1
420
16711680
370
-1
  6
ByLayer
100
AcDbEntity
100
AcDbSpline
 70
8
 71
3
 72
8
 73
4
 74
0
 40
0.0
 40
0.0
 40
0.0
 40
0.0
 40
1.0
 40
1.0
 40
1.0
 40
1.0
 10
32.995517999752451
 20
611.01000000000022
 30
0.0
 10
32.995517999752451
 20
611.64020199999959
 30
0.0
 10
33.505492999752505
 20
612.14989499999933
 30
0.0
 10
34.135130999752505
 20
612.14989499999956
 30
0.0
  0
SPLINE
  5
F1
  8
New Front
 62
1
420
16711680
370
-1
  6
ByLayer
100
AcDbEntity
100
AcDbSpline
 70
8
 71
3
 72
8
 73
4
 74
0
 40
0.0
 40
0.0
 40
0.0
 40
0.0
 40
1.0
 40
1.0
 40
1.0
 40
1.0
 10
34.135130999752505
 20
612.14989499999956
 30
0.0
 10
34.764203999752681
 20
612.14989499999956
 30
0.0
 10
35.274743999752673
 20
611.64020199999959
 30
0.0
 10
35.274743999752559
 20
611.01000000000022
 30
0.0
  0
LWPOLYLINE
  5
F2
  8
New Front
 62
1
420
16711680
370
-1
  6
ByLayer
100
AcDbEntity
100
AcDbPolyline
 90
6
 70
0
 10
31.655243999752315
 20
587.07050000000072
 10
31.655243999752543
 20
594.94986200000028
 10
36.615017999752467
 20
594.94986200000039
 10
36.615017999752581
 20
587.07050000000072
 10
31.655243999752315
 20
587.07050000000072
 10
31.655243999752315
 20
587.07050000000072
  0
LWPOLYLINE
  5
F3
  8
New Front
 62
1
420
16711680
370
-1
  6
ByLayer
100
AcDbEntity
100
AcDbPolyline
 90
2
 70
0
 10
35.274743999752559
 20
611.01000000000022
 10
35.274743999752559
 20
611.01000000000022
  0
LWPOLYLINE
  5
F4
  8
New Front
 62
1
420
16711680
370
-1
  6
ByLayer
100
AcDbEntity
100
AcDbPolyline
 90
6
 70
0
 10
31.655243999752429
 20
734.41041999999993
 10
31.655243999752429
 20
742.28978200000063
 10
36.615017999752354
 20
742.28978200000051
 10
36.615017999752354
 20
734.41042000000016
 10
31.655243999752429
 20
734.41041999999993
 10
31.655243999752429
 20
734.41041999999993
  0
SPLINE
  5
F5
  8
New Front
 62
1
420
16711680
370
-1
  6
ByLayer
100
AcDbEntity
100
AcDbSpline
 70
8
 71
3
 72
8
 73
4
 74
0
 40
0.0
 40
0.0
 40
0.0
 40
0.0
 40
1.0
 40
1.0
 40
1.0
 40
1.0
 10
35.274743999752673
 20
718.35000000000036
 30
0.0
 10
35.274743999752673
 20
717.72092700000042
 30
0.0
 10
34.764203999752681
 20
717.21010400000068
 30
0.0
 10
34.135130999752505
 20
717.21010400000046
 30
0.0
  0
SPLINE
  5
F6
  8
New Front
 62
1
420
16711680
370
-1
  6
ByLayer
100
AcDbEntity
100
AcDbSpline
 70
8
 71
3
 72
8
 73
4
 74
0
 40
0.0
 40
0.0
 40
0.0
 40
0.0
 40
1.0
 40
1.0
 40
1.0
 40
1.0
 10
34.135130999752505
 20
717.21010400000046
 30
0.0
 10
33.505492999752619
 20
717.21010400000046
 30
0.0
 10
32.995517999752451
 20
717.72064399999999
 30
0.0
 10
32.995517999752337
 20
718.35000000000014
 30
0.0
  0
SPLINE
  5
F7
  8
New Front
 62
1
420
16711680
370
-1
  6
ByLayer
100
AcDbEntity
100
AcDbSpline
 70
8
 71
3
 72
8
 73
4
 74
0
 40
0.0
 40
0.0
 40
0.0
 40
0.0
 40
1.0
 40
1.0
 40
1.0
 40
1.0
 10
32.995517999752337
 20
718.35000000000014
 30
0.0
 10
32.995517999752451
 20
718.98020199999974
 30
0.0
 10
33.505492999752732
 20
719.48989499999959
 30
0.0
 10
34.135130999752505
 20
719.48989499999948
 30
0.0
  0
SPLINE
  5
F8
  8
New Front
 62
1
420
16711680
370
-1
  6
ByLayer
100
AcDbEntity
100
AcDbSpline
 70
8
 71
3
 72
8
 73
4
 74
0
 40
0.0
 40
0.0
 40
0.0
 40
0.0
 40
1.0
 40
1.0
 40
1.0
 40
1.0
 10
34.135130999752505
 20
719.48989499999948
 30
0.0
 10
34.764203999752567
 20
719.48989499999971
 30
0.0
 10
35.274743999752559
 20
718.98020199999962
 30
0.0
 10
35.274743999752673
 20
718.35000000000036
 30
0.0
  0
LWPOLYLINE
  5
F9
  8
New Front
 62
1
420
16711680
370
-1
  6
ByLayer
100
AcDbEntity
100
AcDbPolyline
 90
6
 70
0
 10
31.655243999752656
 20
694.41050000000109
 10
31.655243999752656
 20
702.28986200000054
 10
36.615017999752581
 20
702.28986200000054
 10
36.615017999752467
 20
694.41050000000087
 10
31.655243999752656
 20
694.41050000000109
 10
31.655243999752656
 20
694.41050000000109
  0
LWPOLYLINE
  5
FA
  8
New Front
 62
1
420
16711680
370
-1
  6
ByLayer
100
AcDbEntity
100
AcDbPolyline
 90
2
 70
0
 10
35.274743999752673
 20
718.35000000000036
 10
35.274743999752673
 20
718.35000000000036
  0
SPLINE
  5
FB
  8
New Front
 62
1
420
16711680
370
-1
  6
ByLayer
100
AcDbEntity
100
AcDbSpline
 70
8
 71
3
 72
8
 73
4
 74
0
 40
0.0
 40
0.0
 40
0.0
 40
0.0
 40
1.0
 40
1.0
 40
1.0
 40
1.0
 10
1112.7891000000004
 20
842.11915600000043
 30
0.0
 10
1113.4186250000005
 20
842.11915600000009
 30
0.0
 10
1113.9289960000003
 20
841.6087849999999
 30
0.0
 10
1113.9289960000006
 20
840.9792599999995
 30
0.0
  0
SPLINE
  5
FC
  8
New Front
 62
1
420
16711680
370
-1
  6
ByLayer
100
AcDbEntity
100
AcDbSpline
 70
8
 71
3
 72
8
 73
4
 74
0
 40
0.0
 40
0.0
 40
0.0
 40
0.0
 40
1.0
 40
1.0
 40
1.0
 40
1.0
 10
1113.9289960000006
 20
840.9792599999995
 30
0.0
 10
1113.9289960000001
 20
840.34970700000031
 30
0.0
 10
1113.4186250000002
 20
839.83936499999948
 30
0.0
 10
1112.7891
 20
839.83936499999982
 30
0.0
  0
SPLINE
  5
FD
  8
New Front
 62
1
420
16711680
370
-1
  6
ByLayer
100
AcDbEntity
100
AcDbSpline
 70
8
 71
3
 72
8
 73
4
 74
0
 40
0.0
 40
0.0
 40
0.0
 40
0.0
 40
1.0
 40
1.0
 40
1.0
 40
1.0
 10
1112.7891
 20
839.83936499999982
 30
0.0
 10
1112.1595470000007
 20
839.83936499999948
 30
0.0
 10
1111.6492050000004
 20
840.34970699999974
 30
0.0
 10
1111.6492050000006
 20
840.9792599999995
 30
0.0
  0
SPLINE
  5
FE
  8
New Front
 62
1
420
16711680
370
-1
  6
ByLayer
100
AcDbEntity
100
AcDbSpline
 70
8
 71
3
 72
8
 73
4
 74
0
 40
0.0
 40
0.0
 40
0.0
 40
0.0
 40
1.0
 40
1.0
 40
1.0
 40
1.0
 10
1111.6492050000006
 20
840.9792599999995
 30
0.0
 10
1111.6492050000002
 20
841.6087849999999
 30
0.0
 10
1112.1595470000002
 20
842.11915600000043
 30
0.0
 10
1112.7891000000004
 20
842.11915600000043
 30
0.0
  0
LWPOLYLINE
  5
FF
  8
New Front
 62
1
420
16711680
370
-1
  6
ByLayer
100
AcDbEntity
100
AcDbPolyline
 90
2
 70
0
 10
1112.7891000000004
 20
842.11915600000043
 10
1112.7891000000004
 20
842.11915600000043
  0
LWPOLYLINE
  5
100
  8
New Front
 62
1
420
16711680
370
-1
  6
ByLayer
100
AcDbEntity
100
AcDbPolyline
 90
2
 70
0
 10
35.139613000000168
 20
82.248123480254492
 10
35.139613000000168
 20
82.248123480254492
  0
LWPOLYLINE
  5
101
  8
New Front
 62
1
420
16711680
370
-1
  6
ByLayer
100
AcDbEntity
100
AcDbPolyline
 90
2
 70
0
 10
35.274743999752445
 20
212.66115849999909
 10
35.274743999752445
 20
212.66115849999909
  0
LINE
  5
102
100
AcDbEntity
100
AcDbLine
  8
New Front
 62
1
420
16711680
370
-1
  6
ByLayer
 10
355.86644850000141
 20
43.320999999999913
 30
0.0
 11
355.66635350000161
 21
38.44927999999868
 31
0.0
  0
LINE
  5
103
100
AcDbEntity
100
AcDbLine
  8
New Front
 62
1
420
16711680
370
-1
  6
ByLayer
 10
355.66635350000161
 20
38.44927999999868
 30
0.0
 11
347.62894650000146
 21
38.449280000000726
 31
0.0
  0
LINE
  5
104
100
AcDbEntity
100
AcDbLine
  8
New Front
 62
1
420
16711680
370
-1
  6
ByLayer
 10
347.62894650000146
 20
38.449280000000726
 30
0.0
 11
347.42885050000086
 21
43.321000000000026
 31
0.0
  0
LINE
  5
105
100
AcDbEntity
100
AcDbLine
  8
New Front
 62
1
420
16711680
370
-1
  6
ByLayer
 10
347.42885050000086
 20
43.321000000000026
 30
0.0
 11
332.79788650000137
 21
43.320999999999685
 31
0.0
  0
LINE
  5
106
100
AcDbEntity
100
AcDbLine
  8
New Front
 62
1
420
16711680
370
-1
  6
ByLayer
 10
332.79788650000137
 20
43.320999999999685
 30
0.0
 11
332.79788650000103
 21
48.935528999998553
 31
0.0
  0
LINE
  5
107
100
AcDbEntity
100
AcDbLine
  8
New Front
 62
1
420
16711680
370
-1
  6
ByLayer
 10
332.79788650000103
 20
48.935528999998553
 30
0.0
 11
333.91802650000022
 21
48.935529000000315
 31
0.0
  0
LINE
  5
108
100
AcDbEntity
100
AcDbLine
  8
New Front
 62
1
420
16711680
370
-1
  6
ByLayer
 10
333.91802650000022
 20
48.935529000000315
 30
0.0
 11
333.91802650000022
 21
50.695749000000376
 31
0.0
  0
LINE
  5
109
100
AcDbEntity
100
AcDbLine
  8
New Front
 62
1
420
16711680
370
-1
  6
ByLayer
 10
333.91802650000022
 20
50.695749000000376
 30
0.0
 11
332.79788650000103
 21
50.69574900000049
 31
0.0
  0
LINE
  5
10A
100
AcDbEntity
100
AcDbLine
  8
New Front
 62
1
420
16711680
370
-1
  6
ByLayer
 10
332.79788650000103
 20
50.69574900000049
 30
0.0
 11
332.79788650000103
 21
51.850038000000609
 31
0.0
  0
LINE
  5
10B
100
AcDbEntity
100
AcDbLine
  8
New Front
 62
1
420
16711680
370
-1
  6
ByLayer
 10
332.79788650000103
 20
51.850038000000609
 30
0.0
 11
330.50511349999999
 21
51.850037999998676
 31
0.0
  0
LINE
  5
10C
100
AcDbEntity
100
AcDbLine
  8
New Front
 62
1
420
16711680
370
-1
  6
ByLayer
 10
330.50511349999999
 20
51.850037999998676
 30
0.0
 11
330.50511350000011
 21
50.6957489999985
 31
0.0
  0
LINE
  5
10D
100
AcDbEntity
100
AcDbLine
  8
New Front
 62
1
420
16711680
370
-1
  6
ByLayer
 10
330.50511350000011
 20
50.6957489999985
 30
0.0
 11
329.38553750000085
 21
50.695748999998727
 31
0.0
  0
LINE
  5
10E
100
AcDbEntity
100
AcDbLine
  8
New Front
 62
1
420
16711680
370
-1
  6
ByLayer
 10
329.38553750000085
 20
50.695748999998727
 30
0.0
 11
329.38553750000096
 21
48.935528999998439
 31
0.0
  0
LINE
  5
10F
100
AcDbEntity
100
AcDbLine
  8
New Front
 62
1
420
16711680
370
-1
  6
ByLayer
 10
329.38553750000096
 20
48.935528999998439
 30
0.0
 11
330.50511350000011
 21
48.935529000000201
 31
0.0
  0
LINE
  5
110
100
AcDbEntity
100
AcDbLine
  8
New Front
 62
1
420
16711680
370
-1
  6
ByLayer
 10
330.50511350000011
 20
48.935529000000201
 30
0.0
 11
330.50511350000011
 21
43.320999999999856
 31
0.0
  0
LINE
  5
111
100
AcDbEntity
100
AcDbLine
  8
New Front
 62
1
420
16711680
370
-1
  6
ByLayer
 10
330.50511350000011
 20
43.320999999999856
 30
0.0
 11
315.85326450000218
 21
43.320999999999742
 31
0.0
  0
LINE
  5
112
100
AcDbEntity
100
AcDbLine
  8
New Front
 62
1
420
16711680
370
-1
  6
ByLayer
 10
315.85326450000218
 20
43.320999999999742
 30
0.0
 11
315.65316850000158
 21
38.449280000000726
 31
0.0
  0
LINE
  5
113
100
AcDbEntity
100
AcDbLine
  8
New Front
 62
1
420
16711680
370
-1
  6
ByLayer
 10
315.65316850000158
 20
38.449280000000726
 30
0.0
 11
307.62422850000144
 21
38.449279999998851
 31
0.0
  0
LINE
  5
114
100
AcDbEntity
100
AcDbLine
  8
New Front
 62
1
420
16711680
370
-1
  6
ByLayer
 10
307.62422850000144
 20
38.449279999998851
 30
0.0
 11
307.4241335000014
 21
43.320999999999742
 31
0.0
  0
LINE
  5
115
100
AcDbEntity
100
AcDbLine
  8
New Front
 62
1
420
16711680
370
-1
  6
ByLayer
 10
463.20644850000144
 20
43.320999999999913
 30
0.0
 11
463.00635350000175
 21
38.44928000000067
 31
0.0
  0
LINE
  5
116
100
AcDbEntity
100
AcDbLine
  8
New Front
 62
1
420
16711680
370
-1
  6
ByLayer
 10
463.00635350000175
 20
38.44928000000067
 30
0.0
 11
454.96894650000178
 21
38.449279999998851
 31
0.0
  0
LINE
  5
117
100
AcDbEntity
100
AcDbLine
  8
New Front
 62
1
420
16711680
370
-1
  6
ByLayer
 10
454.96894650000178
 20
38.449279999998851
 30
0.0
 11
454.76885050000129
 21
43.320999999999799
 31
0.0
  0
LINE
  5
118
100
AcDbEntity
100
AcDbLine
  8
New Front
 62
1
420
16711680
370
-1
  6
ByLayer
 10
454.76885050000129
 20
43.320999999999799
 30
0.0
 11
440.13788650000112
 21
43.32099999999997
 31
0.0
  0
LINE
  5
119
100
AcDbEntity
100
AcDbLine
  8
New Front
 62
1
420
16711680
370
-1
  6
ByLayer
 10
440.13788650000112
 20
43.32099999999997
 30
0.0
 11
440.13788650000151
 21
48.935529000000201
 31
0.0
  0
LINE
  5
11A
100
AcDbEntity
100
AcDbLine
  8
New Front
 62
1
420
16711680
370
-1
  6
ByLayer
 10
440.13788650000151
 20
48.935529000000201
 30
0.0
 11
441.25802650000031
 21
48.935529000000258
 31
0.0
  0
LINE
  5
11B
100
AcDbEntity
100
AcDbLine
  8
New Front
 62
1
420
16711680
370
-1
  6
ByLayer
 10
441.25802650000031
 20
48.935529000000258
 30
0.0
 11
441.25802650000043
 21
50.6957489999985
 31
0.0
  0
LINE
  5
11C
100
AcDbEntity
100
AcDbLine
  8
New Front
 62
1
420
16711680
370
-1
  6
ByLayer
 10
441.25802650000043
 20
50.6957489999985
 30
0.0
 11
440.13788650000123
 21
50.695749000000376
 31
0.0
  0
LINE
  5
11D
100
AcDbEntity
100
AcDbLine
  8
New Front
 62
1
420
16711680
370
-1
  6
ByLayer
 10
440.13788650000123
 20
50.695749000000376
 30
0.0
 11
440.13788650000151
 21
51.850038000000438
 31
0.0
  0
LINE
  5
11E
100
AcDbEntity
100
AcDbLine
  8
New Front
 62
1
420
16711680
370
-1
  6
ByLayer
 10
440.13788650000151
 20
51.850038000000438
 30
0.0
 11
437.84511350000031
 21
51.850038000000438
 31
0.0
  0
LINE
  5
11F
100
AcDbEntity
100
AcDbLine
  8
New Front
 62
1
420
16711680
370
-1
  6
ByLayer
 10
437.84511350000031
 20
51.850038000000438
 30
0.0
 11
437.84511350000025
 21
50.695749000000433
 31
0.0
  0
LINE
  5
120
100
AcDbEntity
100
AcDbLine
  8
New Front
 62
1
420
16711680
370
-1
  6
ByLayer
 10
437.84511350000025
 20
50.695749000000433
 30
0.0
 11
436.72553750000134
 21
50.695749000000376
 31
0.0
  0
LINE
  5
121
100
AcDbEntity
100
AcDbLine
  8
New Front
 62
1
420
16711680
370
-1
  6
ByLayer
 10
436.72553750000134
 20
50.695749000000376
 30
0.0
 11
436.72553750000111
 21
48.935529000000315
 31
0.0
  0
LINE
  5
122
100
AcDbEntity
100
AcDbLine
  8
New Front
 62
1
420
16711680
370
-1
  6
ByLayer
 10
436.72553750000111
 20
48.935529000000315
 30
0.0
 11
437.84511350000048
 21
48.935529000000145
 31
0.0
  0
LINE
  5
123
100
AcDbEntity
100
AcDbLine
  8
New Front
 62
1
420
16711680
370
-1
  6
ByLayer
 10
437.84511350000048
 20
48.935529000000145
 30
0.0
 11
437.84511350000008
 21
43.32099999999997
 31
0.0
  0
LINE
  5
124
100
AcDbEntity
100
AcDbLine
  8
New Front
 62
1
420
16711680
370
-1
  6
ByLayer
 10
437.84511350000008
 20
43.32099999999997
 30
0.0
 11
423.19326450000216
 21
43.320999999999799
 31
0.0
  0
LINE
  5
125
100
AcDbEntity
100
AcDbLine
  8
New Front
 62
1
420
16711680
370
-1
  6
ByLayer
 10
423.19326450000216
 20
43.320999999999799
 30
0.0
 11
422.99316850000156
 21
38.44928000000067
 31
0.0
  0
LINE
  5
126
100
AcDbEntity
100
AcDbLine
  8
New Front
 62
1
420
16711680
370
-1
  6
ByLayer
 10
422.99316850000156
 20
38.44928000000067
 30
0.0
 11
414.96422850000187
 21
38.449279999998737
 31
0.0
  0
LINE
  5
127
100
AcDbEntity
100
AcDbLine
  8
New Front
 62
1
420
16711680
370
-1
  6
ByLayer
 10
414.96422850000187
 20
38.449279999998737
 30
0.0
 11
414.76413350000172
 21
43.320999999999685
 31
0.0
  0
LINE
  5
128
100
AcDbEntity
100
AcDbLine
  8
New Front
 62
1
420
16711680
370
-1
  6
ByLayer
 10
570.54494850000049
 20
43.320999999999856
 30
0.0
 11
570.34485350000068
 21
38.449279999998851
 31
0.0
  0
LINE
  5
129
100
AcDbEntity
100
AcDbLine
  8
New Front
 62
1
420
16711680
370
-1
  6
ByLayer
 10
570.34485350000068
 20
38.449279999998851
 30
0.0
 11
562.3074464999994
 21
38.449279999998851
 31
0.0
  0
LINE
  5
12A
100
AcDbEntity
100
AcDbLine
  8
New Front
 62
1
420
16711680
370
-1
  6
ByLayer
 10
562.3074464999994
 20
38.449279999998851
 30
0.0
 11
562.10735050000187
 21
43.320999999999856
 31
0.0
  0
LINE
  5
12B
100
AcDbEntity
100
AcDbLine
  8
New Front
 62
1
420
16711680
370
-1
  6
ByLayer
 10
562.10735050000187
 20
43.320999999999856
 30
0.0
 11
547.47638650000101
 21
43.320999999999856
 31
0.0
  0
LINE
  5
12C
100
AcDbEntity
100
AcDbLine
  8
New Front
 62
1
420
16711680
370
-1
  6
ByLayer
 10
547.47638650000101
 20
43.320999999999856
 30
0.0
 11
547.47638650000135
 21
48.935529000000258
 31
0.0
  0
LINE
  5
12D
100
AcDbEntity
100
AcDbLine
  8
New Front
 62
1
420
16711680
370
-1
  6
ByLayer
 10
547.47638650000135
 20
48.935529000000258
 30
0.0
 11
548.59652650000203
 21
48.935529000000258
 31
0.0
  0
LINE
  5
12E
100
AcDbEntity
100
AcDbLine
  8
New Front
 62
1
420
16711680
370
-1
  6
ByLayer
 10
548.59652650000203
 20
48.935529000000258
 30
0.0
 11
548.59652650000248
 21
50.695749000000376
 31
0.0
  0
LINE
  5
12F
100
AcDbEntity
100
AcDbLine
  8
New Front
 62
1
420
16711680
370
-1
  6
ByLayer
 10
548.59652650000248
 20
50.695749000000376
 30
0.0
 11
547.47638650000158
 21
50.695749000000376
 31
0.0
  0
LINE
  5
130
100
AcDbEntity
100
AcDbLine
  8
New Front
 62
1
420
16711680
370
-1
  6
ByLayer
 10
547.47638650000158
 20
50.695749000000376
 30
0.0
 11
547.47638650000147
 21
51.850038000000438
 31
0.0
  0
LINE
  5
131
100
AcDbEntity
100
AcDbLine
  8
New Front
 62
1
420
16711680
370
-1
  6
ByLayer
 10
547.47638650000147
 20
51.850038000000438
 30
0.0
 11
545.18361350000202
 21
51.850038000000438
 31
0.0
  0
LINE
  5
132
100
AcDbEntity
100
AcDbLine
  8
New Front
 62
1
420
16711680
370
-1
  6
ByLayer
 10
545.18361350000202
 20
51.850038000000438
 30
0.0
 11
545.18361350000191
 21
50.695749000000376
 31
0.0
  0
LINE
  5
133
100
AcDbEntity
100
AcDbLine
  8
New Front
 62
1
420
16711680
370
-1
  6
ByLayer
 10
545.18361350000191
 20
50.695749000000376
 30
0.0
 11
544.06403750000163
 21
50.695749000000376
 31
0.0
  0
LINE
  5
134
100
AcDbEntity
100
AcDbLine
  8
New Front
 62
1
420
16711680
370
-1
  6
ByLayer
 10
544.06403750000163
 20
50.695749000000376
 30
0.0
 11
544.06403750000129
 21
48.935529000000258
 31
0.0
  0
LINE
  5
135
100
AcDbEntity
100
AcDbLine
  8
New Front
 62
1
420
16711680
370
-1
  6
ByLayer
 10
544.06403750000129
 20
48.935529000000258
 30
0.0
 11
545.18361350000157
 21
48.935529000000315
 31
0.0
  0
LINE
  5
136
100
AcDbEntity
100
AcDbLine
  8
New Front
 62
1
420
16711680
370
-1
  6
ByLayer
 10
545.18361350000157
 20
48.935529000000315
 30
0.0
 11
545.18361350000237
 21
43.320999999999856
 31
0.0
  0
LINE
  5
137
100
AcDbEntity
100
AcDbLine
  8
New Front
 62
1
420
16711680
370
-1
  6
ByLayer
 10
545.18361350000237
 20
43.320999999999856
 30
0.0
 11
530.53176450000103
 21
43.320999999999799
 31
0.0
  0
LINE
  5
138
100
AcDbEntity
100
AcDbLine
  8
New Front
 62
1
420
16711680
370
-1
  6
ByLayer
 10
530.53176450000103
 20
43.320999999999799
 30
0.0
 11
530.33166849999952
 21
38.449279999998907
 31
0.0
  0
LINE
  5
139
100
AcDbEntity
100
AcDbLine
  8
New Front
 62
1
420
16711680
370
-1
  6
ByLayer
 10
530.33166849999952
 20
38.449279999998907
 30
0.0
 11
522.30272849999994
 21
38.449279999998851
 31
0.0
  0
LINE
  5
13A
100
AcDbEntity
100
AcDbLine
  8
New Front
 62
1
420
16711680
370
-1
  6
ByLayer
 10
522.30272849999994
 20
38.449279999998851
 30
0.0
 11
522.1026335000015
 21
43.320999999999856
 31
0.0
  0
LINE
  5
13B
100
AcDbEntity
100
AcDbLine
  8
New Front
 62
1
420
16711680
370
-1
  6
ByLayer
 10
677.88494849999938
 20
43.320999999999856
 30
0.0
 11
677.6848535000014
 21
38.449279999998907
 31
0.0
  0
LINE
  5
13C
100
AcDbEntity
100
AcDbLine
  8
New Front
 62
1
420
16711680
370
-1
  6
ByLayer
 10
677.6848535000014
 20
38.449279999998907
 30
0.0
 11
669.6474465
 21
38.449279999998851
 31
0.0
  0
LINE
  5
13D
100
AcDbEntity
100
AcDbLine
  8
New Front
 62
1
420
16711680
370
-1
  6
ByLayer
 10
669.6474465
 20
38.449279999998851
 30
0.0
 11
669.44735050000099
 21
43.320999999999799
 31
0.0
  0
LINE
  5
13E
100
AcDbEntity
100
AcDbLine
  8
New Front
 62
1
420
16711680
370
-1
  6
ByLayer
 10
669.44735050000099
 20
43.320999999999799
 30
0.0
 11
654.81638650000116
 21
43.320999999999856
 31
0.0
  0
LINE
  5
13F
100
AcDbEntity
100
AcDbLine
  8
New Front
 62
1
420
16711680
370
-1
  6
ByLayer
 10
654.81638650000116
 20
43.320999999999856
 30
0.0
 11
654.81638650000048
 21
48.935528999998382
 31
0.0
  0
LINE
  5
140
100
AcDbEntity
100
AcDbLine
  8
New Front
 62
1
420
16711680
370
-1
  6
ByLayer
 10
654.81638650000048
 20
48.935528999998382
 30
0.0
 11
655.93652650000161
 21
48.935528999998326
 31
0.0
  0
LINE
  5
141
100
AcDbEntity
100
AcDbLine
  8
New Front
 62
1
420
16711680
370
-1
  6
ByLayer
 10
655.93652650000161
 20
48.935528999998326
 30
0.0
 11
655.93652650000172
 21
50.695748999998557
 31
0.0
  0
LINE
  5
142
100
AcDbEntity
100
AcDbLine
  8
New Front
 62
1
420
16711680
370
-1
  6
ByLayer
 10
655.93652650000172
 20
50.695748999998557
 30
0.0
 11
654.81638650000093
 21
50.6957489999985
 31
0.0
  0
LINE
  5
143
100
AcDbEntity
100
AcDbLine
  8
New Front
 62
1
420
16711680
370
-1
  6
ByLayer
 10
654.81638650000093
 20
50.6957489999985
 30
0.0
 11
654.81638650000139
 21
51.850037999998619
 31
0.0
  0
LINE
  5
144
100
AcDbEntity
100
AcDbLine
  8
New Front
 62
1
420
16711680
370
-1
  6
ByLayer
 10
654.81638650000139
 20
51.850037999998619
 30
0.0
 11
652.52361350000194
 21
51.850037999998619
 31
0.0
  0
LINE
  5
145
100
AcDbEntity
100
AcDbLine
  8
New Front
 62
1
420
16711680
370
-1
  6
ByLayer
 10
652.52361350000194
 20
51.850037999998619
 30
0.0
 11
652.52361350000115
 21
50.6957489999985
 31
0.0
  0
LINE
  5
146
100
AcDbEntity
100
AcDbLine
  8
New Front
 62
1
420
16711680
370
-1
  6
ByLayer
 10
652.52361350000115
 20
50.6957489999985
 30
0.0
 11
651.40403750000087
 21
50.695748999998557
 31
0.0
  0
LINE
  5
147
100
AcDbEntity
100
AcDbLine
  8
New Front
 62
1
420
16711680
370
-1
  6
ByLayer
 10
651.40403750000087
 20
50.695748999998557
 30
0.0
 11
651.40403750000053
 21
48.935528999998439
 31
0.0
  0
LINE
  5
148
100
AcDbEntity
100
AcDbLine
  8
New Front
 62
1
420
16711680
370
-1
  6
ByLayer
 10
651.40403750000053
 20
48.935528999998439
 30
0.0
 11
652.52361350000183
 21
48.935528999998326
 31
0.0
  0
LINE
  5
149
100
AcDbEntity
100
AcDbLine
  8
New Front
 62
1
420
16711680
370
-1
  6
ByLayer
 10
652.52361350000183
 20
48.935528999998326
 30
0.0
 11
652.52361350000149
 21
43.320999999999856
 31
0.0
  0
LINE
  5
14A
100
AcDbEntity
100
AcDbLine
  8
New Front
 62
1
420
16711680
370
-1
  6
ByLayer
 10
652.52361350000149
 20
43.320999999999856
 30
0.0
 11
637.87176449999993
 21
43.320999999999856
 31
0.0
  0
LINE
  5
14B
100
AcDbEntity
100
AcDbLine
  8
New Front
 62
1
420
16711680
370
-1
  6
ByLayer
 10
637.87176449999993
 20
43.320999999999856
 30
0.0
 11
637.67166849999978
 21
38.449279999998851
 31
0.0
  0
LINE
  5
14C
100
AcDbEntity
100
AcDbLine
  8
New Front
 62
1
420
16711680
370
-1
  6
ByLayer
 10
637.67166849999978
 20
38.449279999998851
 30
0.0
 11
629.64272849999929
 21
38.449279999998851
 31
0.0
  0
LINE
  5
14D
100
AcDbEntity
100
AcDbLine
  8
New Front
 62
1
420
16711680
370
-1
  6
ByLayer
 10
629.64272849999929
 20
38.449279999998851
 30
0.0
 11
629.44263350000085
 21
43.320999999999856
 31
0.0
  0
LINE
  5
14E
100
AcDbEntity
100
AcDbLine
  8
New Front
 62
1
420
16711680
370
-1
  6
ByLayer
 10
669.44735050000099
 20
43.320999999999799
 30
0.0
 11
639.44735050000031
 21
43.320999999999799
 31
0.0
  0
LINE
  5
14F
100
AcDbEntity
100
AcDbLine
  8
New Front
 62
1
420
16711680
370
-1
  6
ByLayer
 10
785.22494849999975
 20
43.320999999999685
 30
0.0
 11
785.02485350000143
 21
38.44927999999868
 31
0.0
  0
LINE
  5
150
100
AcDbEntity
100
AcDbLine
  8
New Front
 62
1
420
16711680
370
-1
  6
ByLayer
 10
785.02485350000143
 20
38.44927999999868
 30
0.0
 11
776.98744649999981
 21
38.449279999998737
 31
0.0
  0
LINE
  5
151
100
AcDbEntity
100
AcDbLine
  8
New Front
 62
1
420
16711680
370
-1
  6
ByLayer
 10
776.98744649999981
 20
38.449279999998737
 30
0.0
 11
776.78735050000103
 21
43.320999999999685
 31
0.0
  0
LINE
  5
152
100
AcDbEntity
100
AcDbLine
  8
New Front
 62
1
420
16711680
370
-1
  6
ByLayer
 10
776.78735050000103
 20
43.320999999999685
 30
0.0
 11
762.15638650000142
 21
43.320999999999913
 31
0.0
  0
LINE
  5
153
100
AcDbEntity
100
AcDbLine
  8
New Front
 62
1
420
16711680
370
-1
  6
ByLayer
 10
762.15638650000142
 20
43.320999999999913
 30
0.0
 11
762.15638650000142
 21
48.935528999998439
 31
0.0
  0
LINE
  5
154
100
AcDbEntity
100
AcDbLine
  8
New Front
 62
1
420
16711680
370
-1
  6
ByLayer
 10
762.15638650000142
 20
48.935528999998439
 30
0.0
 11
763.27652650000186
 21
48.935528999998326
 31
0.0
  0
LINE
  5
155
100
AcDbEntity
100
AcDbLine
  8
New Front
 62
1
420
16711680
370
-1
  6
ByLayer
 10
763.27652650000186
 20
48.935528999998326
 30
0.0
 11
763.27652650000186
 21
50.695748999998443
 31
0.0
  0
LINE
  5
156
100
AcDbEntity
100
AcDbLine
  8
New Front
 62
1
420
16711680
370
-1
  6
ByLayer
 10
763.27652650000186
 20
50.695748999998443
 30
0.0
 11
762.15638650000085
 21
50.695748999998443
 31
0.0
  0
LINE
  5
157
100
AcDbEntity
100
AcDbLine
  8
New Front
 62
1
420
16711680
370
-1
  6
ByLayer
 10
762.15638650000085
 20
50.695748999998443
 30
0.0
 11
762.15638650000096
 21
51.850037999998449
 31
0.0
  0
LINE
  5
158
100
AcDbEntity
100
AcDbLine
  8
New Front
 62
1
420
16711680
370
-1
  6
ByLayer
 10
762.15638650000096
 20
51.850037999998449
 30
0.0
 11
759.86361350000197
 21
51.850037999998449
 31
0.0
  0
LINE
  5
159
100
AcDbEntity
100
AcDbLine
  8
New Front
 62
1
420
16711680
370
-1
  6
ByLayer
 10
759.86361350000197
 20
51.850037999998449
 30
0.0
 11
759.86361350000175
 21
50.695748999998386
 31
0.0
  0
LINE
  5
15A
100
AcDbEntity
100
AcDbLine
  8
New Front
 62
1
420
16711680
370
-1
  6
ByLayer
 10
759.86361350000175
 20
50.695748999998386
 30
0.0
 11
758.7440375000009
 21
50.695748999998443
 31
0.0
  0
LINE
  5
15B
100
AcDbEntity
100
AcDbLine
  8
New Front
 62
1
420
16711680
370
-1
  6
ByLayer
 10
758.7440375000009
 20
50.695748999998443
 30
0.0
 11
758.74403750000101
 21
48.935528999998212
 31
0.0
  0
LINE
  5
15C
100
AcDbEntity
100
AcDbLine
  8
New Front
 62
1
420
16711680
370
-1
  6
ByLayer
 10
758.74403750000101
 20
48.935528999998212
 30
0.0
 11
759.86361350000197
 21
48.935528999998269
 31
0.0
  0
LINE
  5
15D
100
AcDbEntity
100
AcDbLine
  8
New Front
 62
1
420
16711680
370
-1
  6
ByLayer
 10
759.86361350000197
 20
48.935528999998269
 30
0.0
 11
759.86361350000197
 21
43.320999999999685
 31
0.0
  0
LINE
  5
15E
100
AcDbEntity
100
AcDbLine
  8
New Front
 62
1
420
16711680
370
-1
  6
ByLayer
 10
759.86361350000197
 20
43.320999999999685
 30
0.0
 11
745.21176450000041
 21
43.320999999999685
 31
0.0
  0
LINE
  5
15F
100
AcDbEntity
100
AcDbLine
  8
New Front
 62
1
420
16711680
370
-1
  6
ByLayer
 10
745.21176450000041
 20
43.320999999999685
 30
0.0
 11
745.0116684999997
 21
38.449280000000442
 31
0.0
  0
LINE
  5
160
100
AcDbEntity
100
AcDbLine
  8
New Front
 62
1
420
16711680
370
-1
  6
ByLayer
 10
745.0116684999997
 20
38.449280000000442
 30
0.0
 11
736.98272849999944
 21
38.449280000000556
 31
0.0
  0
LINE
  5
161
100
AcDbEntity
100
AcDbLine
  8
New Front
 62
1
420
16711680
370
-1
  6
ByLayer
 10
736.98272849999944
 20
38.449280000000556
 30
0.0
 11
736.78263350000111
 21
43.320999999999685
 31
0.0
  0
LINE
  5
162
100
AcDbEntity
100
AcDbLine
  8
New Front
 62
1
420
16711680
370
-1
  6
ByLayer
 10
892.56494849999967
 20
43.320999999999685
 30
0.0
 11
892.36485350000157
 21
38.449279999997032
 31
0.0
  0
LINE
  5
163
100
AcDbEntity
100
AcDbLine
  8
New Front
 62
1
420
16711680
370
-1
  6
ByLayer
 10
892.36485350000157
 20
38.449279999997032
 30
0.0
 11
884.32744649999995
 21
38.449279999998794
 31
0.0
  0
LINE
  5
164
100
AcDbEntity
100
AcDbLine
  8
New Front
 62
1
420
16711680
370
-1
  6
ByLayer
 10
884.32744649999995
 20
38.449279999998794
 30
0.0
 11
884.1273505000014
 21
43.320999999999799
 31
0.0
  0
LINE
  5
165
100
AcDbEntity
100
AcDbLine
  8
New Front
 62
1
420
16711680
370
-1
  6
ByLayer
 10
884.1273505000014
 20
43.320999999999799
 30
0.0
 11
869.49638650000099
 21
43.320999999999458
 31
0.0
  0
LINE
  5
166
100
AcDbEntity
100
AcDbLine
  8
New Front
 62
1
420
16711680
370
-1
  6
ByLayer
 10
869.49638650000099
 20
43.320999999999458
 30
0.0
 11
869.49638650000122
 21
48.935528999998212
 31
0.0
  0
LINE
  5
167
100
AcDbEntity
100
AcDbLine
  8
New Front
 62
1
420
16711680
370
-1
  6
ByLayer
 10
869.49638650000122
 20
48.935528999998212
 30
0.0
 11
870.61652650000201
 21
48.935528999998155
 31
0.0
  0
LINE
  5
168
100
AcDbEntity
100
AcDbLine
  8
New Front
 62
1
420
16711680
370
-1
  6
ByLayer
 10
870.61652650000201
 20
48.935528999998155
 30
0.0
 11
870.61652650000212
 21
50.69574899999833
 31
0.0
  0
LINE
  5
169
100
AcDbEntity
100
AcDbLine
  8
New Front
 62
1
420
16711680
370
-1
  6
ByLayer
 10
870.61652650000212
 20
50.69574899999833
 30
0.0
 11
869.49638650000111
 21
50.69574899999833
 31
0.0
  0
LINE
  5
16A
100
AcDbEntity
100
AcDbLine
  8
New Front
 62
1
420
16711680
370
-1
  6
ByLayer
 10
869.49638650000111
 20
50.69574899999833
 30
0.0
 11
869.49638650000111
 21
51.850037999998392
 31
0.0
  0
LINE
  5
16B
100
AcDbEntity
100
AcDbLine
  8
New Front
 62
1
420
16711680
370
-1
  6
ByLayer
 10
869.49638650000111
 20
51.850037999998392
 30
0.0
 11
867.20361350000189
 21
51.850037999998335
 31
0.0
  0
LINE
  5
16C
100
AcDbEntity
100
AcDbLine
  8
New Front
 62
1
420
16711680
370
-1
  6
ByLayer
 10
867.20361350000189
 20
51.850037999998335
 30
0.0
 11
867.20361350000201
 21
50.695748999998386
 31
0.0
  0
LINE
  5
16D
100
AcDbEntity
100
AcDbLine
  8
New Front
 62
1
420
16711680
370
-1
  6
ByLayer
 10
867.20361350000201
 20
50.695748999998386
 30
0.0
 11
866.08403750000127
 21
50.695748999998443
 31
0.0
  0
LINE
  5
16E
100
AcDbEntity
100
AcDbLine
  8
New Front
 62
1
420
16711680
370
-1
  6
ByLayer
 10
866.08403750000127
 20
50.695748999998443
 30
0.0
 11
866.08403750000082
 21
48.935528999998098
 31
0.0
  0
LINE
  5
16F
100
AcDbEntity
100
AcDbLine
  8
New Front
 62
1
420
16711680
370
-1
  6
ByLayer
 10
866.08403750000082
 20
48.935528999998098
 30
0.0
 11
867.20361350000201
 21
48.935529000000088
 31
0.0
  0
LINE
  5
170
100
AcDbEntity
100
AcDbLine
  8
New Front
 62
1
420
16711680
370
-1
  6
ByLayer
 10
867.20361350000201
 20
48.935529000000088
 30
0.0
 11
867.20361350000178
 21
43.320999999999628
 31
0.0
  0
LINE
  5
171
100
AcDbEntity
100
AcDbLine
  8
New Front
 62
1
420
16711680
370
-1
  6
ByLayer
 10
867.20361350000178
 20
43.320999999999628
 30
0.0
 11
852.55176450000022
 21
43.320999999999515
 31
0.0
  0
LINE
  5
172
100
AcDbEntity
100
AcDbLine
  8
New Front
 62
1
420
16711680
370
-1
  6
ByLayer
 10
852.55176450000022
 20
43.320999999999515
 30
0.0
 11
852.35166849999996
 21
38.44927999999868
 31
0.0
  0
LINE
  5
173
100
AcDbEntity
100
AcDbLine
  8
New Front
 62
1
420
16711680
370
-1
  6
ByLayer
 10
852.35166849999996
 20
38.44927999999868
 30
0.0
 11
844.32272849999947
 21
38.44927999999851
 31
0.0
  0
LINE
  5
174
100
AcDbEntity
100
AcDbLine
  8
New Front
 62
1
420
16711680
370
-1
  6
ByLayer
 10
844.32272849999947
 20
38.44927999999851
 30
0.0
 11
844.12263350000103
 21
43.320999999999515
 31
0.0
  0
LINE
  5
175
100
AcDbEntity
100
AcDbLine
  8
New Front
 62
1
420
16711680
370
-1
  6
ByLayer
 10
999.90494850000118
 20
43.320999999999913
 30
0.0
 11
999.70485350000172
 21
38.44927999999868
 31
0.0
  0
LINE
  5
176
100
AcDbEntity
100
AcDbLine
  8
New Front
 62
1
420
16711680
370
-1
  6
ByLayer
 10
999.70485350000172
 20
38.44927999999868
 30
0.0
 11
991.66744650000089
 21
38.449280000002318
 31
0.0
  0
LINE
  5
177
100
AcDbEntity
100
AcDbLine
  8
New Front
 62
1
420
16711680
370
-1
  6
ByLayer
 10
991.66744650000089
 20
38.449280000002318
 30
0.0
 11
991.46735050000132
 21
43.320999999999685
 31
0.0
  0
LINE
  5
178
100
AcDbEntity
100
AcDbLine
  8
New Front
 62
1
420
16711680
370
-1
  6
ByLayer
 10
991.46735050000132
 20
43.320999999999685
 30
0.0
 11
976.83638650000137
 21
43.320999999999458
 31
0.0
  0
LINE
  5
179
100
AcDbEntity
100
AcDbLine
  8
New Front
 62
1
420
16711680
370
-1
  6
ByLayer
 10
976.83638650000137
 20
43.320999999999458
 30
0.0
 11
976.83638650000171
 21
48.935528999996677
 31
0.0
  0
LINE
  5
17A
100
AcDbEntity
100
AcDbLine
  8
New Front
 62
1
420
16711680
370
-1
  6
ByLayer
 10
976.83638650000171
 20
48.935528999996677
 30
0.0
 11
977.95652650000147
 21
48.93552900000202
 31
0.0
  0
LINE
  5
17B
100
AcDbEntity
100
AcDbLine
  8
New Front
 62
1
420
16711680
370
-1
  6
ByLayer
 10
977.95652650000147
 20
48.93552900000202
 30
0.0
 11
977.95652650000147
 21
50.695749000000262
 31
0.0
  0
LINE
  5
17C
100
AcDbEntity
100
AcDbLine
  8
New Front
 62
1
420
16711680
370
-1
  6
ByLayer
 10
977.95652650000147
 20
50.695749000000262
 30
0.0
 11
976.83638650000159
 21
50.695748999998443
 31
0.0
  0
LINE
  5
17D
100
AcDbEntity
100
AcDbLine
  8
New Front
 62
1
420
16711680
370
-1
  6
ByLayer
 10
976.83638650000159
 20
50.695748999998443
 30
0.0
 11
976.83638650000137
 21
51.850037999998221
 31
0.0
  0
LINE
  5
17E
100
AcDbEntity
100
AcDbLine
  8
New Front
 62
1
420
16711680
370
-1
  6
ByLayer
 10
976.83638650000137
 20
51.850037999998221
 30
0.0
 11
974.54361350000136
 21
51.850038000000495
 31
0.0
  0
LINE
  5
17F
100
AcDbEntity
100
AcDbLine
  8
New Front
 62
1
420
16711680
370
-1
  6
ByLayer
 10
974.54361350000136
 20
51.850038000000495
 30
0.0
 11
974.54361350000136
 21
50.695748999998443
 31
0.0
  0
LINE
  5
180
100
AcDbEntity
100
AcDbLine
  8
New Front
 62
1
420
16711680
370
-1
  6
ByLayer
 10
974.54361350000136
 20
50.695748999998443
 30
0.0
 11
973.42403750000119
 21
50.695749000000092
 31
0.0
  0
LINE
  5
181
100
AcDbEntity
100
AcDbLine
  8
New Front
 62
1
420
16711680
370
-1
  6
ByLayer
 10
973.42403750000119
 20
50.695749000000092
 30
0.0
 11
973.4240375000013
 21
48.935528999998439
 31
0.0
  0
LINE
  5
182
100
AcDbEntity
100
AcDbLine
  8
New Front
 62
1
420
16711680
370
-1
  6
ByLayer
 10
973.4240375000013
 20
48.935528999998439
 30
0.0
 11
974.54361350000158
 21
48.935528999996563
 31
0.0
  0
LINE
  5
183
100
AcDbEntity
100
AcDbLine
  8
New Front
 62
1
420
16711680
370
-1
  6
ByLayer
 10
974.54361350000158
 20
48.935528999996563
 30
0.0
 11
974.5436135000009
 21
43.320999999999287
 31
0.0
  0
LINE
  5
184
100
AcDbEntity
100
AcDbLine
  8
New Front
 62
1
420
16711680
370
-1
  6
ByLayer
 10
974.5436135000009
 20
43.320999999999287
 30
0.0
 11
959.89176450000127
 21
43.320999999999515
 31
0.0
  0
LINE
  5
185
100
AcDbEntity
100
AcDbLine
  8
New Front
 62
1
420
16711680
370
-1
  6
ByLayer
 10
959.89176450000127
 20
43.320999999999515
 30
0.0
 11
959.69166850000124
 21
38.449280000002545
 31
0.0
  0
LINE
  5
186
100
AcDbEntity
100
AcDbLine
  8
New Front
 62
1
420
16711680
370
-1
  6
ByLayer
 10
959.69166850000124
 20
38.449280000002545
 30
0.0
 11
951.66272850000064
 21
38.449280000000442
 31
0.0
  0
LINE
  5
187
100
AcDbEntity
100
AcDbLine
  8
New Front
 62
1
420
16711680
370
-1
  6
ByLayer
 10
951.66272850000064
 20
38.449280000000442
 30
0.0
 11
951.46263350000152
 21
43.320999999999628
 31
0.0
  0
LINE
  5
188
100
AcDbEntity
100
AcDbLine
  8
New Front
 62
1
420
16711680
370
-1
  6
ByLayer
 10
1107.2449485000011
 20
43.320999999999799
 30
0.0
 11
1107.0448535000019
 21
38.449280000002148
 31
0.0
  0
LINE
  5
189
100
AcDbEntity
100
AcDbLine
  8
New Front
 62
1
420
16711680
370
-1
  6
ByLayer
 10
1107.0448535000019
 20
38.449280000002148
 30
0.0
 11
1099.0074465000012
 21
38.449280000000385
 31
0.0
  0
LINE
  5
18A
100
AcDbEntity
100
AcDbLine
  8
New Front
 62
1
420
16711680
370
-1
  6
ByLayer
 10
1099.0074465000012
 20
38.449280000000385
 30
0.0
 11
1098.8073505000016
 21
43.320999999999742
 31
0.0
  0
LINE
  5
18B
100
AcDbEntity
100
AcDbLine
  8
New Front
 62
1
420
16711680
370
-1
  6
ByLayer
 10
1098.8073505000016
 20
43.320999999999742
 30
0.0
 11
1084.1763865000016
 21
43.320999999999515
 31
0.0
  0
LINE
  5
18C
100
AcDbEntity
100
AcDbLine
  8
New Front
 62
1
420
16711680
370
-1
  6
ByLayer
 10
1084.1763865000016
 20
43.320999999999515
 30
0.0
 11
1084.1763865000016
 21
48.935528999998155
 31
0.0
  0
LINE
  5
18D
100
AcDbEntity
100
AcDbLine
  8
New Front
 62
1
420
16711680
370
-1
  6
ByLayer
 10
1084.1763865000016
 20
48.935528999998155
 30
0.0
 11
1085.2965265000012
 21
48.935528999995654
 31
0.0
  0
LINE
  5
18E
100
AcDbEntity
100
AcDbLine
  8
New Front
 62
1
420
16711680
370
-1
  6
ByLayer
 10
1085.2965265000012
 20
48.935528999995654
 30
0.0
 11
1085.2965265000018
 21
50.69574900000049
 31
0.0
  0
LINE
  5
18F
100
AcDbEntity
100
AcDbLine
  8
New Front
 62
1
420
16711680
370
-1
  6
ByLayer
 10
1085.2965265000018
 20
50.69574900000049
 30
0.0
 11
1084.1763865000014
 21
50.695748999998216
 31
0.0
  0
LINE
  5
190
100
AcDbEntity
100
AcDbLine
  8
New Front
 62
1
420
16711680
370
-1
  6
ByLayer
 10
1084.1763865000014
 20
50.695748999998216
 30
0.0
 11
1084.1763865000016
 21
51.850038000000211
 31
0.0
  0
LINE
  5
191
100
AcDbEntity
100
AcDbLine
  8
New Front
 62
1
420
16711680
370
-1
  6
ByLayer
 10
1084.1763865000016
 20
51.850038000000211
 30
0.0
 11
1081.8836135000015
 21
51.850037999998449
 31
0.0
  0
LINE
  5
192
100
AcDbEntity
100
AcDbLine
  8
New Front
 62
1
420
16711680
370
-1
  6
ByLayer
 10
1081.8836135000015
 20
51.850037999998449
 30
0.0
 11
1081.8836135000015
 21
50.695749000001911
 31
0.0
  0
LINE
  5
193
100
AcDbEntity
100
AcDbLine
  8
New Front
 62
1
420
16711680
370
-1
  6
ByLayer
 10
1081.8836135000015
 20
50.695749000001911
 30
0.0
 11
1080.7640375000015
 21
50.695749000000319
 31
0.0
  0
LINE
  5
194
100
AcDbEntity
100
AcDbLine
  8
New Front
 62
1
420
16711680
370
-1
  6
ByLayer
 10
1080.7640375000015
 20
50.695749000000319
 30
0.0
 11
1080.7640375000015
 21
48.935528999999974
 31
0.0
  0
LINE
  5
195
100
AcDbEntity
100
AcDbLine
  8
New Front
 62
1
420
16711680
370
-1
  6
ByLayer
 10
1080.7640375000015
 20
48.935528999999974
 30
0.0
 11
1081.883613500001
 21
48.935528999997928
 31
0.0
  0
LINE
  5
196
100
AcDbEntity
100
AcDbLine
  8
New Front
 62
1
420
16711680
370
-1
  6
ByLayer
 10
1081.883613500001
 20
48.935528999997928
 30
0.0
 11
1081.8836135000013
 21
43.320999999999344
 31
0.0
  0
LINE
  5
197
100
AcDbEntity
100
AcDbLine
  8
New Front
 62
1
420
16711680
370
-1
  6
ByLayer
 10
1081.8836135000013
 20
43.320999999999344
 30
0.0
 11
1067.2317645000016
 21
43.320999999999458
 31
0.0
  0
LINE
  5
198
100
AcDbEntity
100
AcDbLine
  8
New Front
 62
1
420
16711680
370
-1
  6
ByLayer
 10
1067.2317645000016
 20
43.320999999999458
 30
0.0
 11
1067.0316685000012
 21
38.449280000000272
 31
0.0
  0
LINE
  5
199
100
AcDbEntity
100
AcDbLine
  8
New Front
 62
1
420
16711680
370
-1
  6
ByLayer
 10
1067.0316685000012
 20
38.449280000000272
 30
0.0
 11
1059.0027285000008
 21
38.449279999998339
 31
0.0
  0
LINE
  5
19A
100
AcDbEntity
100
AcDbLine
  8
New Front
 62
1
420
16711680
370
-1
  6
ByLayer
 10
1059.0027285000008
 20
38.449279999998339
 30
0.0
 11
1058.8026335000018
 21
43.320999999999742
 31
0.0
  0
LINE
  5
19B
100
AcDbEntity
100
AcDbLine
  8
New Front
 62
1
420
16711680
370
-1
  6
ByLayer
 10
248.52644850000138
 20
43.320999999999856
 30
0.0
 11
248.32635350000135
 21
38.449279999998794
 31
0.0
  0
LINE
  5
19C
100
AcDbEntity
100
AcDbLine
  8
New Front
 62
1
420
16711680
370
-1
  6
ByLayer
 10
248.32635350000135
 20
38.449279999998794
 30
0.0
 11
240.28894650000143
 21
38.449279999998964
 31
0.0
  0
LINE
  5
19D
100
AcDbEntity
100
AcDbLine
  8
New Front
 62
1
420
16711680
370
-1
  6
ByLayer
 10
240.28894650000143
 20
38.449279999998964
 30
0.0
 11
240.08885050000094
 21
43.320999999999856
 31
0.0
  0
LINE
  5
19E
100
AcDbEntity
100
AcDbLine
  8
New Front
 62
1
420
16711680
370
-1
  6
ByLayer
 10
240.08885050000094
 20
43.320999999999856
 30
0.0
 11
225.457886500001
 21
43.320999999999799
 31
0.0
  0
LINE
  5
19F
100
AcDbEntity
100
AcDbLine
  8
New Front
 62
1
420
16711680
370
-1
  6
ByLayer
 10
225.457886500001
 20
43.320999999999799
 30
0.0
 11
225.45788650000111
 21
48.935529000000201
 31
0.0
  0
LINE
  5
1A0
100
AcDbEntity
100
AcDbLine
  8
New Front
 62
1
420
16711680
370
-1
  6
ByLayer
 10
225.45788650000111
 20
48.935529000000201
 30
0.0
 11
226.57802649999985
 21
48.935529000000315
 31
0.0
  0
LINE
  5
1A1
100
AcDbEntity
100
AcDbLine
  8
New Front
 62
1
420
16711680
370
-1
  6
ByLayer
 10
226.57802649999985
 20
48.935529000000315
 30
0.0
 11
226.57802650000008
 21
50.69574900000049
 31
0.0
  0
LINE
  5
1A2
100
AcDbEntity
100
AcDbLine
  8
New Front
 62
1
420
16711680
370
-1
  6
ByLayer
 10
226.57802650000008
 20
50.69574900000049
 30
0.0
 11
225.457886500001
 21
50.69574900000049
 31
0.0
  0
LINE
  5
1A3
100
AcDbEntity
100
AcDbLine
  8
New Front
 62
1
420
16711680
370
-1
  6
ByLayer
 10
225.457886500001
 20
50.69574900000049
 30
0.0
 11
225.45788650000088
 21
51.850037999998676
 31
0.0
  0
LINE
  5
1A4
100
AcDbEntity
100
AcDbLine
  8
New Front
 62
1
420
16711680
370
-1
  6
ByLayer
 10
225.45788650000088
 20
51.850037999998676
 30
0.0
 11
223.16511350000007
 21
51.850038000000382
 31
0.0
  0
LINE
  5
1A5
100
AcDbEntity
100
AcDbLine
  8
New Front
 62
1
420
16711680
370
-1
  6
ByLayer
 10
223.16511350000007
 20
51.850038000000382
 30
0.0
 11
223.16511349999985
 21
50.695749000000603
 31
0.0
  0
LINE
  5
1A6
100
AcDbEntity
100
AcDbLine
  8
New Front
 62
1
420
16711680
370
-1
  6
ByLayer
 10
223.16511349999985
 20
50.695749000000603
 30
0.0
 11
222.04553750000082
 21
50.695749000000376
 31
0.0
  0
LINE
  5
1A7
100
AcDbEntity
100
AcDbLine
  8
New Front
 62
1
420
16711680
370
-1
  6
ByLayer
 10
222.04553750000082
 20
50.695749000000376
 30
0.0
 11
222.04553750000082
 21
48.935529000002077
 31
0.0
  0
LINE
  5
1A8
100
AcDbEntity
100
AcDbLine
  8
New Front
 62
1
420
16711680
370
-1
  6
ByLayer
 10
222.04553750000082
 20
48.935529000002077
 30
0.0
 11
223.16511349999985
 21
48.935528999998382
 31
0.0
  0
LINE
  5
1A9
100
AcDbEntity
100
AcDbLine
  8
New Front
 62
1
420
16711680
370
-1
  6
ByLayer
 10
223.16511349999985
 20
48.935528999998382
 30
0.0
 11
223.16511349999996
 21
43.320999999999799
 31
0.0
  0
LINE
  5
1AA
100
AcDbEntity
100
AcDbLine
  8
New Front
 62
1
420
16711680
370
-1
  6
ByLayer
 10
223.16511349999996
 20
43.320999999999799
 30
0.0
 11
208.51326450000192
 21
43.32099999999997
 31
0.0
  0
LINE
  5
1AB
100
AcDbEntity
100
AcDbLine
  8
New Front
 62
1
420
16711680
370
-1
  6
ByLayer
 10
208.51326450000192
 20
43.32099999999997
 30
0.0
 11
208.31316850000155
 21
38.449279999998794
 31
0.0
  0
LINE
  5
1AC
100
AcDbEntity
100
AcDbLine
  8
New Front
 62
1
420
16711680
370
-1
  6
ByLayer
 10
208.31316850000155
 20
38.449279999998794
 30
0.0
 11
200.2842285000014
 21
38.449279999996804
 31
0.0
  0
LINE
  5
1AD
100
AcDbEntity
100
AcDbLine
  8
New Front
 62
1
420
16711680
370
-1
  6
ByLayer
 10
200.2842285000014
 20
38.449279999996804
 30
0.0
 11
200.08413350000126
 21
43.320999999999913
 31
0.0
  0
LINE
  5
1AE
100
AcDbEntity
100
AcDbLine
  8
New Front
 62
1
420
16711680
370
-1
  6
ByLayer
 10
141.18644850000112
 20
43.32099999999997
 30
0.0
 11
140.98635350000109
 21
38.449280000000499
 31
0.0
  0
LINE
  5
1AF
100
AcDbEntity
100
AcDbLine
  8
New Front
 62
1
420
16711680
370
-1
  6
ByLayer
 10
140.98635350000109
 20
38.449280000000499
 30
0.0
 11
132.9489465000014
 21
38.449280000004194
 31
0.0
  0
LINE
  5
1B0
100
AcDbEntity
100
AcDbLine
  8
New Front
 62
1
420
16711680
370
-1
  6
ByLayer
 10
132.9489465000014
 20
38.449280000004194
 30
0.0
 11
132.74885050000069
 21
43.32099999999997
 31
0.0
  0
LINE
  5
1B1
100
AcDbEntity
100
AcDbLine
  8
New Front
 62
1
420
16711680
370
-1
  6
ByLayer
 10
132.74885050000069
 20
43.32099999999997
 30
0.0
 11
118.11788650000074
 21
43.32099999999997
 31
0.0
  0
LINE
  5
1B2
100
AcDbEntity
100
AcDbLine
  8
New Front
 62
1
420
16711680
370
-1
  6
ByLayer
 10
118.11788650000074
 20
43.32099999999997
 30
0.0
 11
118.11788650000085
 21
48.935529000000258
 31
0.0
  0
LINE
  5
1B3
100
AcDbEntity
100
AcDbLine
  8
New Front
 62
1
420
16711680
370
-1
  6
ByLayer
 10
118.11788650000085
 20
48.935529000000258
 30
0.0
 11
119.23802649999971
 21
48.935529000000258
 31
0.0
  0
LINE
  5
1B4
100
AcDbEntity
100
AcDbLine
  8
New Front
 62
1
420
16711680
370
-1
  6
ByLayer
 10
119.23802649999971
 20
48.935529000000258
 30
0.0
 11
119.23802649999993
 21
50.695749000000262
 31
0.0
  0
LINE
  5
1B5
100
AcDbEntity
100
AcDbLine
  8
New Front
 62
1
420
16711680
370
-1
  6
ByLayer
 10
119.23802649999993
 20
50.695749000000262
 30
0.0
 11
118.11788650000085
 21
50.695749000000433
 31
0.0
  0
LINE
  5
1B6
100
AcDbEntity
100
AcDbLine
  8
New Front
 62
1
420
16711680
370
-1
  6
ByLayer
 10
118.11788650000085
 20
50.695749000000433
 30
0.0
 11
118.11788650000085
 21
51.850037999998506
 31
0.0
  0
LINE
  5
1B7
100
AcDbEntity
100
AcDbLine
  8
New Front
 62
1
420
16711680
370
-1
  6
ByLayer
 10
118.11788650000085
 20
51.850037999998506
 30
0.0
 11
115.82511349999982
 21
51.850038000000325
 31
0.0
  0
LINE
  5
1B8
100
AcDbEntity
100
AcDbLine
  8
New Front
 62
1
420
16711680
370
-1
  6
ByLayer
 10
115.82511349999982
 20
51.850038000000325
 30
0.0
 11
115.82511349999959
 21
50.695748999998727
 31
0.0
  0
LINE
  5
1B9
100
AcDbEntity
100
AcDbLine
  8
New Front
 62
1
420
16711680
370
-1
  6
ByLayer
 10
115.82511349999959
 20
50.695748999998727
 30
0.0
 11
114.70553750000056
 21
50.695749000002081
 31
0.0
  0
LINE
  5
1BA
100
AcDbEntity
100
AcDbLine
  8
New Front
 62
1
420
16711680
370
-1
  6
ByLayer
 10
114.70553750000056
 20
50.695749000002081
 30
0.0
 11
114.70553750000056
 21
48.935528999994915
 31
0.0
  0
LINE
  5
1BB
100
AcDbEntity
100
AcDbLine
  8
New Front
 62
1
420
16711680
370
-1
  6
ByLayer
 10
114.70553750000056
 20
48.935528999994915
 30
0.0
 11
115.82511349999982
 21
48.935529000000258
 31
0.0
  0
LINE
  5
1BC
100
AcDbEntity
100
AcDbLine
  8
New Front
 62
1
420
16711680
370
-1
  6
ByLayer
 10
115.82511349999982
 20
48.935529000000258
 30
0.0
 11
115.8251134999997
 21
43.320999999999913
 31
0.0
  0
LINE
  5
1BD
100
AcDbEntity
100
AcDbLine
  8
New Front
 62
1
420
16711680
370
-1
  6
ByLayer
 10
115.8251134999997
 20
43.320999999999913
 30
0.0
 11
101.17326450000166
 21
43.320999999999685
 31
0.0
  0
LINE
  5
1BE
100
AcDbEntity
100
AcDbLine
  8
New Front
 62
1
420
16711680
370
-1
  6
ByLayer
 10
101.17326450000166
 20
43.320999999999685
 30
0.0
 11
100.97316850000118
 21
38.449279999995156
 31
0.0
  0
LINE
  5
1BF
100
AcDbEntity
100
AcDbLine
  8
New Front
 62
1
420
16711680
370
-1
  6
ByLayer
 10
100.97316850000118
 20
38.449279999995156
 30
0.0
 11
92.944228500000804
 21
38.449279999999021
 31
0.0
  0
LINE
  5
1C0
100
AcDbEntity
100
AcDbLine
  8
New Front
 62
1
420
16711680
370
-1
  6
ByLayer
 10
92.944228500000804
 20
38.449279999999021
 30
0.0
 11
92.744133500000771
 21
43.320999999999799
 31
0.0
  0
LINE
  5
1C1
100
AcDbEntity
100
AcDbLine
  8
New Front
 62
1
420
16711680
370
-1
  6
ByLayer
 10
522.1026335000015
 20
43.320999999999856
 30
0.0
 11
463.20644850000144
 21
43.320999999999913
 31
0.0
  0
LINE
  5
1C2
100
AcDbEntity
100
AcDbLine
  8
New Front
 62
1
420
16711680
370
-1
  6
ByLayer
 10
414.76413350000172
 20
43.320999999999685
 30
0.0
 11
355.86644850000141
 21
43.320999999999913
 31
0.0
  0
LINE
  5
1C3
100
AcDbEntity
100
AcDbLine
  8
New Front
 62
1
420
16711680
370
-1
  6
ByLayer
 10
307.4241335000014
 20
43.320999999999742
 30
0.0
 11
248.52644850000138
 21
43.320999999999856
 31
0.0
  0
LINE
  5
1C4
100
AcDbEntity
100
AcDbLine
  8
New Front
 62
1
420
16711680
370
-1
  6
ByLayer
 10
200.08413350000126
 20
43.320999999999913
 30
0.0
 11
141.18644850000112
 21
43.32099999999997
 31
0.0
  0
LINE
  5
1C5
100
AcDbEntity
100
AcDbLine
  8
New Front
 62
1
420
16711680
370
-1
  6
ByLayer
 10
629.44263350000085
 20
43.320999999999856
 30
0.0
 11
570.54494850000049
 21
43.320999999999856
 31
0.0
  0
LINE
  5
1C6
100
AcDbEntity
100
AcDbLine
  8
New Front
 62
1
420
16711680
370
-1
  6
ByLayer
 10
736.78263350000111
 20
43.320999999999685
 30
0.0
 11
677.88494849999938
 21
43.320999999999856
 31
0.0
  0
LINE
  5
1C7
100
AcDbEntity
100
AcDbLine
  8
New Front
 62
1
420
16711680
370
-1
  6
ByLayer
 10
844.12263350000103
 20
43.320999999999515
 30
0.0
 11
785.22494849999975
 21
43.320999999999685
 31
0.0
  0
LINE
  5
1C8
100
AcDbEntity
100
AcDbLine
  8
New Front
 62
1
420
16711680
370
-1
  6
ByLayer
 10
951.46263350000152
 20
43.320999999999628
 30
0.0
 11
892.56494849999967
 21
43.320999999999685
 31
0.0
  0
LINE
  5
1C9
100
AcDbEntity
100
AcDbLine
  8
New Front
 62
1
420
16711680
370
-1
  6
ByLayer
 10
1058.8026335000018
 20
43.320999999999742
 30
0.0
 11
999.90494850000118
 21
43.320999999999913
 31
0.0
  0
LINE
  5
1CA
100
AcDbEntity
100
AcDbLine
  8
New Front
 62
1
420
16711680
370
-1
  6
ByLayer
 10
1107.2449485000011
 20
43.320999999999799
 30
0.0
 11
1146.5879595000001
 21
43.320999999999628
 31
0.0
  0
LINE
  5
1CB
100
AcDbEntity
100
AcDbLine
  8
New Front
 62
1
420
16711680
370
-1
  6
ByLayer
 10
92.744133500000771
 20
43.320999999999799
 30
0.0
 11
53.412040499999875
 21
43.32099999999997
 31
0.0
  0
LINE
  5
1CC
100
AcDbEntity
100
AcDbLine
  8
New Front
 62
1
420
16711680
370
-1
  6
ByLayer
 10
844.13355149999893
 20
856.67899999999986
 30
0.0
 11
844.33364649999908
 21
861.55072000000075
 31
0.0
  0
LINE
  5
1CD
100
AcDbEntity
100
AcDbLine
  8
New Front
 62
1
420
16711680
370
-1
  6
ByLayer
 10
844.33364649999908
 20
861.55072000000075
 30
0.0
 11
852.37105349999911
 21
861.55071999999882
 31
0.0
  0
LINE
  5
1CE
100
AcDbEntity
100
AcDbLine
  8
New Front
 62
1
420
16711680
370
-1
  6
ByLayer
 10
852.37105349999911
 20
861.55071999999882
 30
0.0
 11
852.57114949999959
 21
856.67899999999975
 31
0.0
  0
LINE
  5
1CF
100
AcDbEntity
100
AcDbLine
  8
New Front
 62
1
420
16711680
370
-1
  6
ByLayer
 10
852.57114949999959
 20
856.67899999999975
 30
0.0
 11
867.20211349999931
 21
856.67899999999986
 31
0.0
  0
LINE
  5
1D0
100
AcDbEntity
100
AcDbLine
  8
New Front
 62
1
420
16711680
370
-1
  6
ByLayer
 10
867.20211349999931
 20
856.67899999999986
 30
0.0
 11
867.20211349999897
 21
851.06447100000139
 31
0.0
  0
LINE
  5
1D1
100
AcDbEntity
100
AcDbLine
  8
New Front
 62
1
420
16711680
370
-1
  6
ByLayer
 10
867.20211349999897
 20
851.06447100000139
 30
0.0
 11
866.08197350000012
 21
851.06447099999946
 31
0.0
  0
LINE
  5
1D2
100
AcDbEntity
100
AcDbLine
  8
New Front
 62
1
420
16711680
370
-1
  6
ByLayer
 10
866.08197350000012
 20
851.06447099999946
 30
0.0
 11
866.08197350000034
 21
849.30425099999923
 31
0.0
  0
LINE
  5
1D3
100
AcDbEntity
100
AcDbLine
  8
New Front
 62
1
420
16711680
370
-1
  6
ByLayer
 10
866.08197350000034
 20
849.30425099999923
 30
0.0
 11
867.20211349999943
 21
849.30425099999923
 31
0.0
  0
LINE
  5
1D4
100
AcDbEntity
100
AcDbLine
  8
New Front
 62
1
420
16711680
370
-1
  6
ByLayer
 10
867.20211349999943
 20
849.30425099999923
 30
0.0
 11
867.2021134999992
 21
848.14996199999928
 31
0.0
  0
LINE
  5
1D5
100
AcDbEntity
100
AcDbLine
  8
New Front
 62
1
420
16711680
370
-1
  6
ByLayer
 10
867.2021134999992
 20
848.14996199999928
 30
0.0
 11
869.49488650000012
 21
848.14996200000121
 31
0.0
  0
LINE
  5
1D6
100
AcDbEntity
100
AcDbLine
  8
New Front
 62
1
420
16711680
370
-1
  6
ByLayer
 10
869.49488650000012
 20
848.14996200000121
 30
0.0
 11
869.49488650000035
 21
849.30425100000116
 31
0.0
  0
LINE
  5
1D7
100
AcDbEntity
100
AcDbLine
  8
New Front
 62
1
420
16711680
370
-1
  6
ByLayer
 10
869.49488650000035
 20
849.30425100000116
 30
0.0
 11
870.61446249999938
 21
849.30425100000116
 31
0.0
  0
LINE
  5
1D8
100
AcDbEntity
100
AcDbLine
  8
New Front
 62
1
420
16711680
370
-1
  6
ByLayer
 10
870.61446249999938
 20
849.30425100000116
 30
0.0
 11
870.61446249999926
 21
851.06447100000128
 31
0.0
  0
LINE
  5
1D9
100
AcDbEntity
100
AcDbLine
  8
New Front
 62
1
420
16711680
370
-1
  6
ByLayer
 10
870.61446249999926
 20
851.06447100000128
 30
0.0
 11
869.49488650000023
 21
851.06447099999946
 31
0.0
  0
LINE
  5
1DA
100
AcDbEntity
100
AcDbLine
  8
New Front
 62
1
420
16711680
370
-1
  6
ByLayer
 10
869.49488650000023
 20
851.06447099999946
 30
0.0
 11
869.49488650000023
 21
856.67899999999986
 31
0.0
  0
LINE
  5
1DB
100
AcDbEntity
100
AcDbLine
  8
New Front
 62
1
420
16711680
370
-1
  6
ByLayer
 10
869.49488650000023
 20
856.67899999999986
 30
0.0
 11
884.14673549999827
 21
856.67899999999986
 31
0.0
  0
LINE
  5
1DC
100
AcDbEntity
100
AcDbLine
  8
New Front
 62
1
420
16711680
370
-1
  6
ByLayer
 10
884.14673549999827
 20
856.67899999999986
 30
0.0
 11
884.34683149999898
 21
861.55071999999893
 31
0.0
  0
LINE
  5
1DD
100
AcDbEntity
100
AcDbLine
  8
New Front
 62
1
420
16711680
370
-1
  6
ByLayer
 10
884.34683149999898
 20
861.55071999999893
 30
0.0
 11
892.3757714999989
 21
861.55072000000087
 31
0.0
  0
LINE
  5
1DE
100
AcDbEntity
100
AcDbLine
  8
New Front
 62
1
420
16711680
370
-1
  6
ByLayer
 10
892.3757714999989
 20
861.55072000000087
 30
0.0
 11
892.57586649999905
 21
856.67899999999986
 31
0.0
  0
LINE
  5
1DF
100
AcDbEntity
100
AcDbLine
  8
New Front
 62
1
420
16711680
370
-1
  6
ByLayer
 10
736.79355149999878
 20
856.67899999999997
 30
0.0
 11
736.9936464999987
 21
861.55071999999927
 31
0.0
  0
LINE
  5
1E0
100
AcDbEntity
100
AcDbLine
  8
New Front
 62
1
420
16711680
370
-1
  6
ByLayer
 10
736.9936464999987
 20
861.55071999999927
 30
0.0
 11
745.03105349999862
 21
861.55072000000109
 31
0.0
  0
LINE
  5
1E1
100
AcDbEntity
100
AcDbLine
  8
New Front
 62
1
420
16711680
370
-1
  6
ByLayer
 10
745.03105349999862
 20
861.55072000000109
 30
0.0
 11
745.23114949999899
 21
856.67899999999997
 31
0.0
  0
LINE
  5
1E2
100
AcDbEntity
100
AcDbLine
  8
New Front
 62
1
420
16711680
370
-1
  6
ByLayer
 10
745.23114949999899
 20
856.67899999999997
 30
0.0
 11
759.86211349999928
 21
856.67899999999986
 31
0.0
  0
LINE
  5
1E3
100
AcDbEntity
100
AcDbLine
  8
New Front
 62
1
420
16711680
370
-1
  6
ByLayer
 10
759.86211349999928
 20
856.67899999999986
 30
0.0
 11
759.86211349999905
 21
851.06447099999957
 31
0.0
  0
LINE
  5
1E4
100
AcDbEntity
100
AcDbLine
  8
New Front
 62
1
420
16711680
370
-1
  6
ByLayer
 10
759.86211349999905
 20
851.06447099999957
 30
0.0
 11
758.74197350000009
 21
851.06447099999946
 31
0.0
  0
LINE
  5
1E5
100
AcDbEntity
100
AcDbLine
  8
New Front
 62
1
420
16711680
370
-1
  6
ByLayer
 10
758.74197350000009
 20
851.06447099999946
 30
0.0
 11
758.74197349999986
 21
849.30425100000116
 31
0.0
  0
LINE
  5
1E6
100
AcDbEntity
100
AcDbLine
  8
New Front
 62
1
420
16711680
370
-1
  6
ByLayer
 10
758.74197349999986
 20
849.30425100000116
 30
0.0
 11
759.86211349999928
 21
849.30425099999934
 31
0.0
  0
LINE
  5
1E7
100
AcDbEntity
100
AcDbLine
  8
New Front
 62
1
420
16711680
370
-1
  6
ByLayer
 10
759.86211349999928
 20
849.30425099999934
 30
0.0
 11
759.86211349999928
 21
848.14996199999928
 31
0.0
  0
LINE
  5
1E8
100
AcDbEntity
100
AcDbLine
  8
New Front
 62
1
420
16711680
370
-1
  6
ByLayer
 10
759.86211349999928
 20
848.14996199999928
 30
0.0
 11
762.15488650000043
 21
848.14996199999928
 31
0.0
  0
LINE
  5
1E9
100
AcDbEntity
100
AcDbLine
  8
New Front
 62
1
420
16711680
370
-1
  6
ByLayer
 10
762.15488650000043
 20
848.14996199999928
 30
0.0
 11
762.15488650000032
 21
849.30425099999934
 31
0.0
  0
LINE
  5
1EA
100
AcDbEntity
100
AcDbLine
  8
New Front
 62
1
420
16711680
370
-1
  6
ByLayer
 10
762.15488650000032
 20
849.30425099999934
 30
0.0
 11
763.27446249999912
 21
849.30425099999945
 31
0.0
  0
LINE
  5
1EB
100
AcDbEntity
100
AcDbLine
  8
New Front
 62
1
420
16711680
370
-1
  6
ByLayer
 10
763.27446249999912
 20
849.30425099999945
 30
0.0
 11
763.27446249999957
 21
851.06447099999946
 31
0.0
  0
LINE
  5
1EC
100
AcDbEntity
100
AcDbLine
  8
New Front
 62
1
420
16711680
370
-1
  6
ByLayer
 10
763.27446249999957
 20
851.06447099999946
 30
0.0
 11
762.15488649999998
 21
851.06447099999957
 31
0.0
  0
LINE
  5
1ED
100
AcDbEntity
100
AcDbLine
  8
New Front
 62
1
420
16711680
370
-1
  6
ByLayer
 10
762.15488649999998
 20
851.06447099999957
 30
0.0
 11
762.15488649999998
 21
856.67900000000009
 31
0.0
  0
LINE
  5
1EE
100
AcDbEntity
100
AcDbLine
  8
New Front
 62
1
420
16711680
370
-1
  6
ByLayer
 10
762.15488649999998
 20
856.67900000000009
 30
0.0
 11
776.80673549999824
 21
856.67899999999986
 31
0.0
  0
LINE
  5
1EF
100
AcDbEntity
100
AcDbLine
  8
New Front
 62
1
420
16711680
370
-1
  6
ByLayer
 10
776.80673549999824
 20
856.67899999999986
 30
0.0
 11
777.00683149999895
 21
861.55071999999905
 31
0.0
  0
LINE
  5
1F0
100
AcDbEntity
100
AcDbLine
  8
New Front
 62
1
420
16711680
370
-1
  6
ByLayer
 10
777.00683149999895
 20
861.55071999999905
 30
0.0
 11
785.03577149999899
 21
861.55072000000087
 31
0.0
  0
LINE
  5
1F1
100
AcDbEntity
100
AcDbLine
  8
New Front
 62
1
420
16711680
370
-1
  6
ByLayer
 10
785.03577149999899
 20
861.55072000000087
 30
0.0
 11
785.23586649999879
 21
856.67900000000009
 31
0.0
  0
LINE
  5
1F2
100
AcDbEntity
100
AcDbLine
  8
New Front
 62
1
420
16711680
370
-1
  6
ByLayer
 10
629.45505150000054
 20
856.67900000000009
 30
0.0
 11
629.65514649999932
 21
861.55072000000109
 31
0.0
  0
LINE
  5
1F3
100
AcDbEntity
100
AcDbLine
  8
New Front
 62
1
420
16711680
370
-1
  6
ByLayer
 10
629.65514649999932
 20
861.55072000000109
 30
0.0
 11
637.69255350000094
 21
861.55072000000109
 31
0.0
  0
LINE
  5
1F4
100
AcDbEntity
100
AcDbLine
  8
New Front
 62
1
420
16711680
370
-1
  6
ByLayer
 10
637.69255350000094
 20
861.55072000000109
 30
0.0
 11
637.89264949999938
 21
856.67900000000009
 31
0.0
  0
LINE
  5
1F5
100
AcDbEntity
100
AcDbLine
  8
New Front
 62
1
420
16711680
370
-1
  6
ByLayer
 10
637.89264949999938
 20
856.67900000000009
 30
0.0
 11
652.52361349999956
 21
856.67899999999986
 31
0.0
  0
LINE
  5
1F6
100
AcDbEntity
100
AcDbLine
  8
New Front
 62
1
420
16711680
370
-1
  6
ByLayer
 10
652.52361349999956
 20
856.67899999999986
 30
0.0
 11
652.52361349999956
 21
851.06447099999946
 31
0.0
  0
LINE
  5
1F7
100
AcDbEntity
100
AcDbLine
  8
New Front
 62
1
420
16711680
370
-1
  6
ByLayer
 10
652.52361349999956
 20
851.06447099999946
 30
0.0
 11
651.4034734999982
 21
851.06447099999957
 31
0.0
  0
LINE
  5
1F8
100
AcDbEntity
100
AcDbLine
  8
New Front
 62
1
420
16711680
370
-1
  6
ByLayer
 10
651.4034734999982
 20
851.06447099999957
 30
0.0
 11
651.40347349999797
 21
849.30425099999957
 31
0.0
  0
LINE
  5
1F9
100
AcDbEntity
100
AcDbLine
  8
New Front
 62
1
420
16711680
370
-1
  6
ByLayer
 10
651.40347349999797
 20
849.30425099999957
 30
0.0
 11
652.52361349999865
 21
849.30425099999957
 31
0.0
  0
LINE
  5
1FA
100
AcDbEntity
100
AcDbLine
  8
New Front
 62
1
420
16711680
370
-1
  6
ByLayer
 10
652.52361349999865
 20
849.30425099999957
 30
0.0
 11
652.52361349999899
 21
848.1499619999995
 31
0.0
  0
LINE
  5
1FB
100
AcDbEntity
100
AcDbLine
  8
New Front
 62
1
420
16711680
370
-1
  6
ByLayer
 10
652.52361349999899
 20
848.1499619999995
 30
0.0
 11
654.81638649999854
 21
848.1499619999995
 31
0.0
  0
LINE
  5
1FC
100
AcDbEntity
100
AcDbLine
  8
New Front
 62
1
420
16711680
370
-1
  6
ByLayer
 10
654.81638649999854
 20
848.1499619999995
 30
0.0
 11
654.81638649999832
 21
849.30425099999945
 31
0.0
  0
LINE
  5
1FD
100
AcDbEntity
100
AcDbLine
  8
New Front
 62
1
420
16711680
370
-1
  6
ByLayer
 10
654.81638649999832
 20
849.30425099999945
 30
0.0
 11
655.93596249999905
 21
849.30425099999957
 31
0.0
  0
LINE
  5
1FE
100
AcDbEntity
100
AcDbLine
  8
New Front
 62
1
420
16711680
370
-1
  6
ByLayer
 10
655.93596249999905
 20
849.30425099999957
 30
0.0
 11
655.93596249999916
 21
851.06447099999957
 31
0.0
  0
LINE
  5
1FF
100
AcDbEntity
100
AcDbLine
  8
New Front
 62
1
420
16711680
370
-1
  6
ByLayer
 10
655.93596249999916
 20
851.06447099999957
 30
0.0
 11
654.8163864999982
 21
851.06447099999968
 31
0.0
  0
LINE
  5
200
100
AcDbEntity
100
AcDbLine
  8
New Front
 62
1
420
16711680
370
-1
  6
ByLayer
 10
654.8163864999982
 20
851.06447099999968
 30
0.0
 11
654.81638649999843
 21
856.67899999999986
 31
0.0
  0
LINE
  5
201
100
AcDbEntity
100
AcDbLine
  8
New Front
 62
1
420
16711680
370
-1
  6
ByLayer
 10
654.81638649999843
 20
856.67899999999986
 30
0.0
 11
669.46823549999954
 21
856.67900000000009
 31
0.0
  0
LINE
  5
202
100
AcDbEntity
100
AcDbLine
  8
New Front
 62
1
420
16711680
370
-1
  6
ByLayer
 10
669.46823549999954
 20
856.67900000000009
 30
0.0
 11
669.66833150000093
 21
861.55072000000109
 31
0.0
  0
LINE
  5
203
100
AcDbEntity
100
AcDbLine
  8
New Front
 62
1
420
16711680
370
-1
  6
ByLayer
 10
669.66833150000093
 20
861.55072000000109
 30
0.0
 11
677.69727150000097
 21
861.55072000000087
 31
0.0
  0
LINE
  5
204
100
AcDbEntity
100
AcDbLine
  8
New Front
 62
1
420
16711680
370
-1
  6
ByLayer
 10
677.69727150000097
 20
861.55072000000087
 30
0.0
 11
677.89736649999895
 21
856.67899999999986
 31
0.0
  0
LINE
  5
205
100
AcDbEntity
100
AcDbLine
  8
New Front
 62
1
420
16711680
370
-1
  6
ByLayer
 10
522.11505150000062
 20
856.67900000000009
 30
0.0
 11
522.31514649999883
 21
861.55072000000109
 31
0.0
  0
LINE
  5
206
100
AcDbEntity
100
AcDbLine
  8
New Front
 62
1
420
16711680
370
-1
  6
ByLayer
 10
522.31514649999883
 20
861.55072000000109
 30
0.0
 11
530.35255350000057
 21
861.55072000000109
 31
0.0
  0
LINE
  5
207
100
AcDbEntity
100
AcDbLine
  8
New Front
 62
1
420
16711680
370
-1
  6
ByLayer
 10
530.35255350000057
 20
861.55072000000109
 30
0.0
 11
530.55264949999923
 21
856.67900000000009
 31
0.0
  0
LINE
  5
208
100
AcDbEntity
100
AcDbLine
  8
New Front
 62
1
420
16711680
370
-1
  6
ByLayer
 10
530.55264949999923
 20
856.67900000000009
 30
0.0
 11
545.1836134999993
 21
856.67900000000009
 31
0.0
  0
LINE
  5
209
100
AcDbEntity
100
AcDbLine
  8
New Front
 62
1
420
16711680
370
-1
  6
ByLayer
 10
545.1836134999993
 20
856.67900000000009
 30
0.0
 11
545.1836134999993
 21
851.0644710000015
 31
0.0
  0
LINE
  5
20A
100
AcDbEntity
100
AcDbLine
  8
New Front
 62
1
420
16711680
370
-1
  6
ByLayer
 10
545.1836134999993
 20
851.0644710000015
 30
0.0
 11
544.06347349999885
 21
851.0644710000015
 31
0.0
  0
LINE
  5
20B
100
AcDbEntity
100
AcDbLine
  8
New Front
 62
1
420
16711680
370
-1
  6
ByLayer
 10
544.06347349999885
 20
851.0644710000015
 30
0.0
 11
544.06347349999817
 21
849.30425100000139
 31
0.0
  0
LINE
  5
20C
100
AcDbEntity
100
AcDbLine
  8
New Front
 62
1
420
16711680
370
-1
  6
ByLayer
 10
544.06347349999817
 20
849.30425100000139
 30
0.0
 11
545.18361349999907
 21
849.30425100000139
 31
0.0
  0
LINE
  5
20D
100
AcDbEntity
100
AcDbLine
  8
New Front
 62
1
420
16711680
370
-1
  6
ByLayer
 10
545.18361349999907
 20
849.30425100000139
 30
0.0
 11
545.18361349999941
 21
848.14996200000132
 31
0.0
  0
LINE
  5
20E
100
AcDbEntity
100
AcDbLine
  8
New Front
 62
1
420
16711680
370
-1
  6
ByLayer
 10
545.18361349999941
 20
848.14996200000132
 30
0.0
 11
547.4763864999984
 21
848.14996200000132
 31
0.0
  0
LINE
  5
20F
100
AcDbEntity
100
AcDbLine
  8
New Front
 62
1
420
16711680
370
-1
  6
ByLayer
 10
547.4763864999984
 20
848.14996200000132
 30
0.0
 11
547.47638649999897
 21
849.30425100000139
 31
0.0
  0
LINE
  5
210
100
AcDbEntity
100
AcDbLine
  8
New Front
 62
1
420
16711680
370
-1
  6
ByLayer
 10
547.47638649999897
 20
849.30425100000139
 30
0.0
 11
548.59596249999959
 21
849.30425100000139
 31
0.0
  0
LINE
  5
211
100
AcDbEntity
100
AcDbLine
  8
New Front
 62
1
420
16711680
370
-1
  6
ByLayer
 10
548.59596249999959
 20
849.30425100000139
 30
0.0
 11
548.59596249999947
 21
851.0644710000015
 31
0.0
  0
LINE
  5
212
100
AcDbEntity
100
AcDbLine
  8
New Front
 62
1
420
16711680
370
-1
  6
ByLayer
 10
548.59596249999947
 20
851.0644710000015
 30
0.0
 11
547.47638649999863
 21
851.0644710000015
 31
0.0
  0
LINE
  5
213
100
AcDbEntity
100
AcDbLine
  8
New Front
 62
1
420
16711680
370
-1
  6
ByLayer
 10
547.47638649999863
 20
851.0644710000015
 30
0.0
 11
547.47638649999863
 21
856.67900000000009
 31
0.0
  0
LINE
  5
214
100
AcDbEntity
100
AcDbLine
  8
New Front
 62
1
420
16711680
370
-1
  6
ByLayer
 10
547.47638649999863
 20
856.67900000000009
 30
0.0
 11
562.12823550000019
 21
856.67900000000009
 31
0.0
  0
LINE
  5
215
100
AcDbEntity
100
AcDbLine
  8
New Front
 62
1
420
16711680
370
-1
  6
ByLayer
 10
562.12823550000019
 20
856.67900000000009
 30
0.0
 11
562.32833149999965
 21
861.55072000000109
 31
0.0
  0
LINE
  5
216
100
AcDbEntity
100
AcDbLine
  8
New Front
 62
1
420
16711680
370
-1
  6
ByLayer
 10
562.32833149999965
 20
861.55072000000109
 30
0.0
 11
570.35727150000037
 21
861.55072000000109
 31
0.0
  0
LINE
  5
217
100
AcDbEntity
100
AcDbLine
  8
New Front
 62
1
420
16711680
370
-1
  6
ByLayer
 10
570.35727150000037
 20
861.55072000000109
 30
0.0
 11
570.55736649999938
 21
856.67900000000009
 31
0.0
  0
LINE
  5
218
100
AcDbEntity
100
AcDbLine
  8
New Front
 62
1
420
16711680
370
-1
  6
ByLayer
 10
530.55264949999923
 20
856.67900000000009
 30
0.0
 11
560.5526494999998
 21
856.67900000000009
 31
0.0
  0
LINE
  5
219
100
AcDbEntity
100
AcDbLine
  8
New Front
 62
1
420
16711680
370
-1
  6
ByLayer
 10
414.77505150000059
 20
856.67900000000009
 30
0.0
 11
414.97514649999874
 21
861.55072000000109
 31
0.0
  0
LINE
  5
21A
100
AcDbEntity
100
AcDbLine
  8
New Front
 62
1
420
16711680
370
-1
  6
ByLayer
 10
414.97514649999874
 20
861.55072000000109
 30
0.0
 11
423.01255350000031
 21
861.55072000000109
 31
0.0
  0
LINE
  5
21B
100
AcDbEntity
100
AcDbLine
  8
New Front
 62
1
420
16711680
370
-1
  6
ByLayer
 10
423.01255350000031
 20
861.55072000000109
 30
0.0
 11
423.2126494999992
 21
856.67900000000009
 31
0.0
  0
LINE
  5
21C
100
AcDbEntity
100
AcDbLine
  8
New Front
 62
1
420
16711680
370
-1
  6
ByLayer
 10
423.2126494999992
 20
856.67900000000009
 30
0.0
 11
437.84361349999904
 21
856.67900000000009
 31
0.0
  0
LINE
  5
21D
100
AcDbEntity
100
AcDbLine
  8
New Front
 62
1
420
16711680
370
-1
  6
ByLayer
 10
437.84361349999904
 20
856.67900000000009
 30
0.0
 11
437.84361349999892
 21
851.0644710000015
 31
0.0
  0
LINE
  5
21E
100
AcDbEntity
100
AcDbLine
  8
New Front
 62
1
420
16711680
370
-1
  6
ByLayer
 10
437.84361349999892
 20
851.0644710000015
 30
0.0
 11
436.72347349999825
 21
851.0644710000015
 31
0.0
  0
LINE
  5
21F
100
AcDbEntity
100
AcDbLine
  8
New Front
 62
1
420
16711680
370
-1
  6
ByLayer
 10
436.72347349999825
 20
851.0644710000015
 30
0.0
 11
436.72347349999825
 21
849.30425100000139
 31
0.0
  0
LINE
  5
220
100
AcDbEntity
100
AcDbLine
  8
New Front
 62
1
420
16711680
370
-1
  6
ByLayer
 10
436.72347349999825
 20
849.30425100000139
 30
0.0
 11
437.84361349999904
 21
849.30425100000139
 31
0.0
  0
LINE
  5
221
100
AcDbEntity
100
AcDbLine
  8
New Front
 62
1
420
16711680
370
-1
  6
ByLayer
 10
437.84361349999904
 20
849.30425100000139
 30
0.0
 11
437.84361349999904
 21
848.14996200000132
 31
0.0
  0
LINE
  5
222
100
AcDbEntity
100
AcDbLine
  8
New Front
 62
1
420
16711680
370
-1
  6
ByLayer
 10
437.84361349999904
 20
848.14996200000132
 30
0.0
 11
440.13638649999814
 21
848.14996200000132
 31
0.0
  0
LINE
  5
223
100
AcDbEntity
100
AcDbLine
  8
New Front
 62
1
420
16711680
370
-1
  6
ByLayer
 10
440.13638649999814
 20
848.14996200000132
 30
0.0
 11
440.13638649999837
 21
849.30425100000139
 31
0.0
  0
LINE
  5
224
100
AcDbEntity
100
AcDbLine
  8
New Front
 62
1
420
16711680
370
-1
  6
ByLayer
 10
440.13638649999837
 20
849.30425100000139
 30
0.0
 11
441.25596249999921
 21
849.30425100000139
 31
0.0
  0
LINE
  5
225
100
AcDbEntity
100
AcDbLine
  8
New Front
 62
1
420
16711680
370
-1
  6
ByLayer
 10
441.25596249999921
 20
849.30425100000139
 30
0.0
 11
441.25596249999916
 21
851.0644710000015
 31
0.0
  0
LINE
  5
226
100
AcDbEntity
100
AcDbLine
  8
New Front
 62
1
420
16711680
370
-1
  6
ByLayer
 10
441.25596249999916
 20
851.0644710000015
 30
0.0
 11
440.13638649999825
 21
851.0644710000015
 31
0.0
  0
LINE
  5
227
100
AcDbEntity
100
AcDbLine
  8
New Front
 62
1
420
16711680
370
-1
  6
ByLayer
 10
440.13638649999825
 20
851.0644710000015
 30
0.0
 11
440.13638649999825
 21
856.67900000000009
 31
0.0
  0
LINE
  5
228
100
AcDbEntity
100
AcDbLine
  8
New Front
 62
1
420
16711680
370
-1
  6
ByLayer
 10
440.13638649999825
 20
856.67900000000009
 30
0.0
 11
454.78823549999993
 21
856.67900000000009
 31
0.0
  0
LINE
  5
229
100
AcDbEntity
100
AcDbLine
  8
New Front
 62
1
420
16711680
370
-1
  6
ByLayer
 10
454.78823549999993
 20
856.67900000000009
 30
0.0
 11
454.98833150000041
 21
861.55071999999927
 31
0.0
  0
LINE
  5
22A
100
AcDbEntity
100
AcDbLine
  8
New Front
 62
1
420
16711680
370
-1
  6
ByLayer
 10
454.98833150000041
 20
861.55071999999927
 30
0.0
 11
463.01727150000045
 21
861.55071999999927
 31
0.0
  0
LINE
  5
22B
100
AcDbEntity
100
AcDbLine
  8
New Front
 62
1
420
16711680
370
-1
  6
ByLayer
 10
463.01727150000045
 20
861.55071999999927
 30
0.0
 11
463.21736649999883
 21
856.67900000000009
 31
0.0
  0
LINE
  5
22C
100
AcDbEntity
100
AcDbLine
  8
New Front
 62
1
420
16711680
370
-1
  6
ByLayer
 10
307.43505150000044
 20
856.67900000000009
 30
0.0
 11
307.63514649999877
 21
861.55072000000291
 31
0.0
  0
LINE
  5
22D
100
AcDbEntity
100
AcDbLine
  8
New Front
 62
1
420
16711680
370
-1
  6
ByLayer
 10
307.63514649999877
 20
861.55072000000291
 30
0.0
 11
315.67255350000039
 21
861.55072000000109
 31
0.0
  0
LINE
  5
22E
100
AcDbEntity
100
AcDbLine
  8
New Front
 62
1
420
16711680
370
-1
  6
ByLayer
 10
315.67255350000039
 20
861.55072000000109
 30
0.0
 11
315.87264949999906
 21
856.67900000000009
 31
0.0
  0
LINE
  5
22F
100
AcDbEntity
100
AcDbLine
  8
New Front
 62
1
420
16711680
370
-1
  6
ByLayer
 10
315.87264949999906
 20
856.67900000000009
 30
0.0
 11
330.50361349999901
 21
856.67900000000009
 31
0.0
  0
LINE
  5
230
100
AcDbEntity
100
AcDbLine
  8
New Front
 62
1
420
16711680
370
-1
  6
ByLayer
 10
330.50361349999901
 20
856.67900000000009
 30
0.0
 11
330.50361349999889
 21
851.0644710000015
 31
0.0
  0
LINE
  5
231
100
AcDbEntity
100
AcDbLine
  8
New Front
 62
1
420
16711680
370
-1
  6
ByLayer
 10
330.50361349999889
 20
851.0644710000015
 30
0.0
 11
329.38347349999776
 21
851.0644710000015
 31
0.0
  0
LINE
  5
232
100
AcDbEntity
100
AcDbLine
  8
New Front
 62
1
420
16711680
370
-1
  6
ByLayer
 10
329.38347349999776
 20
851.0644710000015
 30
0.0
 11
329.38347349999799
 21
849.30425100000139
 31
0.0
  0
LINE
  5
233
100
AcDbEntity
100
AcDbLine
  8
New Front
 62
1
420
16711680
370
-1
  6
ByLayer
 10
329.38347349999799
 20
849.30425100000139
 30
0.0
 11
330.50361349999889
 21
849.30425100000139
 31
0.0
  0
LINE
  5
234
100
AcDbEntity
100
AcDbLine
  8
New Front
 62
1
420
16711680
370
-1
  6
ByLayer
 10
330.50361349999889
 20
849.30425100000139
 30
0.0
 11
330.50361349999901
 21
848.14996200000132
 31
0.0
  0
LINE
  5
235
100
AcDbEntity
100
AcDbLine
  8
New Front
 62
1
420
16711680
370
-1
  6
ByLayer
 10
330.50361349999901
 20
848.14996200000132
 30
0.0
 11
332.79638649999799
 21
848.14996200000132
 31
0.0
  0
LINE
  5
236
100
AcDbEntity
100
AcDbLine
  8
New Front
 62
1
420
16711680
370
-1
  6
ByLayer
 10
332.79638649999799
 20
848.14996200000132
 30
0.0
 11
332.79638649999799
 21
849.30425100000127
 31
0.0
  0
LINE
  5
237
100
AcDbEntity
100
AcDbLine
  8
New Front
 62
1
420
16711680
370
-1
  6
ByLayer
 10
332.79638649999799
 20
849.30425100000127
 30
0.0
 11
333.91596249999895
 21
849.30425100000139
 31
0.0
  0
LINE
  5
238
100
AcDbEntity
100
AcDbLine
  8
New Front
 62
1
420
16711680
370
-1
  6
ByLayer
 10
333.91596249999895
 20
849.30425100000139
 30
0.0
 11
333.91596249999895
 21
851.0644710000015
 31
0.0
  0
LINE
  5
239
100
AcDbEntity
100
AcDbLine
  8
New Front
 62
1
420
16711680
370
-1
  6
ByLayer
 10
333.91596249999895
 20
851.0644710000015
 30
0.0
 11
332.79638649999833
 21
851.06447099999968
 31
0.0
  0
LINE
  5
23A
100
AcDbEntity
100
AcDbLine
  8
New Front
 62
1
420
16711680
370
-1
  6
ByLayer
 10
332.79638649999833
 20
851.06447099999968
 30
0.0
 11
332.79638649999811
 21
856.67900000000009
 31
0.0
  0
LINE
  5
23B
100
AcDbEntity
100
AcDbLine
  8
New Front
 62
1
420
16711680
370
-1
  6
ByLayer
 10
332.79638649999811
 20
856.67900000000009
 30
0.0
 11
347.44823549999967
 21
856.67900000000009
 31
0.0
  0
LINE
  5
23C
100
AcDbEntity
100
AcDbLine
  8
New Front
 62
1
420
16711680
370
-1
  6
ByLayer
 10
347.44823549999967
 20
856.67900000000009
 30
0.0
 11
347.64833150000015
 21
861.55072000000109
 31
0.0
  0
LINE
  5
23D
100
AcDbEntity
100
AcDbLine
  8
New Front
 62
1
420
16711680
370
-1
  6
ByLayer
 10
347.64833150000015
 20
861.55072000000109
 30
0.0
 11
355.67727150000042
 21
861.55072000000109
 31
0.0
  0
LINE
  5
23E
100
AcDbEntity
100
AcDbLine
  8
New Front
 62
1
420
16711680
370
-1
  6
ByLayer
 10
355.67727150000042
 20
861.55072000000109
 30
0.0
 11
355.87736649999874
 21
856.67900000000009
 31
0.0
  0
LINE
  5
23F
100
AcDbEntity
100
AcDbLine
  8
New Front
 62
1
420
16711680
370
-1
  6
ByLayer
 10
200.09505149999927
 20
856.67900000000009
 30
0.0
 11
200.2951464999984
 21
861.55072000000098
 31
0.0
  0
LINE
  5
240
100
AcDbEntity
100
AcDbLine
  8
New Front
 62
1
420
16711680
370
-1
  6
ByLayer
 10
200.2951464999984
 20
861.55072000000098
 30
0.0
 11
208.33255349999911
 21
861.55071999999745
 31
0.0
  0
LINE
  5
241
100
AcDbEntity
100
AcDbLine
  8
New Front
 62
1
420
16711680
370
-1
  6
ByLayer
 10
208.33255349999911
 20
861.55071999999745
 30
0.0
 11
208.5326494999988
 21
856.67900000000009
 31
0.0
  0
LINE
  5
242
100
AcDbEntity
100
AcDbLine
  8
New Front
 62
1
420
16711680
370
-1
  6
ByLayer
 10
208.5326494999988
 20
856.67900000000009
 30
0.0
 11
223.16361349999863
 21
856.67900000000009
 31
0.0
  0
LINE
  5
243
100
AcDbEntity
100
AcDbLine
  8
New Front
 62
1
420
16711680
370
-1
  6
ByLayer
 10
223.16361349999863
 20
856.67900000000009
 30
0.0
 11
223.16361349999875
 21
851.06447100000332
 31
0.0
  0
LINE
  5
244
100
AcDbEntity
100
AcDbLine
  8
New Front
 62
1
420
16711680
370
-1
  6
ByLayer
 10
223.16361349999875
 20
851.06447100000332
 30
0.0
 11
222.04347349999864
 21
851.06447099999787
 31
0.0
  0
LINE
  5
245
100
AcDbEntity
100
AcDbLine
  8
New Front
 62
1
420
16711680
370
-1
  6
ByLayer
 10
222.04347349999864
 20
851.06447099999787
 30
0.0
 11
222.04347349999887
 21
849.30425099999968
 31
0.0
  0
LINE
  5
246
100
AcDbEntity
100
AcDbLine
  8
New Front
 62
1
420
16711680
370
-1
  6
ByLayer
 10
222.04347349999887
 20
849.30425099999968
 30
0.0
 11
223.16361349999875
 21
849.30425100000139
 31
0.0
  0
LINE
  5
247
100
AcDbEntity
100
AcDbLine
  8
New Front
 62
1
420
16711680
370
-1
  6
ByLayer
 10
223.16361349999875
 20
849.30425100000139
 30
0.0
 11
223.16361349999863
 21
848.1499620000011
 31
0.0
  0
LINE
  5
248
100
AcDbEntity
100
AcDbLine
  8
New Front
 62
1
420
16711680
370
-1
  6
ByLayer
 10
223.16361349999863
 20
848.1499620000011
 30
0.0
 11
225.45638649999887
 21
848.14996199999939
 31
0.0
  0
LINE
  5
249
100
AcDbEntity
100
AcDbLine
  8
New Front
 62
1
420
16711680
370
-1
  6
ByLayer
 10
225.45638649999887
 20
848.14996199999939
 30
0.0
 11
225.45638649999898
 21
849.30425100000127
 31
0.0
  0
LINE
  5
24A
100
AcDbEntity
100
AcDbLine
  8
New Front
 62
1
420
16711680
370
-1
  6
ByLayer
 10
225.45638649999898
 20
849.30425100000127
 30
0.0
 11
226.57596249999892
 21
849.30425099999957
 31
0.0
  0
LINE
  5
24B
100
AcDbEntity
100
AcDbLine
  8
New Front
 62
1
420
16711680
370
-1
  6
ByLayer
 10
226.57596249999892
 20
849.30425099999957
 30
0.0
 11
226.57596249999892
 21
851.06447100000139
 31
0.0
  0
LINE
  5
24C
100
AcDbEntity
100
AcDbLine
  8
New Front
 62
1
420
16711680
370
-1
  6
ByLayer
 10
226.57596249999892
 20
851.06447100000139
 30
0.0
 11
225.45638649999876
 21
851.06447100000332
 31
0.0
  0
LINE
  5
24D
100
AcDbEntity
100
AcDbLine
  8
New Front
 62
1
420
16711680
370
-1
  6
ByLayer
 10
225.45638649999876
 20
851.06447100000332
 30
0.0
 11
225.45638649999898
 21
856.67900000000009
 31
0.0
  0
LINE
  5
24E
100
AcDbEntity
100
AcDbLine
  8
New Front
 62
1
420
16711680
370
-1
  6
ByLayer
 10
225.45638649999898
 20
856.67900000000009
 30
0.0
 11
240.10823549999884
 21
856.67900000000009
 31
0.0
  0
LINE
  5
24F
100
AcDbEntity
100
AcDbLine
  8
New Front
 62
1
420
16711680
370
-1
  6
ByLayer
 10
240.10823549999884
 20
856.67900000000009
 30
0.0
 11
240.3083314999991
 21
861.55071999999745
 31
0.0
  0
LINE
  5
250
100
AcDbEntity
100
AcDbLine
  8
New Front
 62
1
420
16711680
370
-1
  6
ByLayer
 10
240.3083314999991
 20
861.55071999999745
 30
0.0
 11
248.33727149999936
 21
861.55071999999927
 31
0.0
  0
LINE
  5
251
100
AcDbEntity
100
AcDbLine
  8
New Front
 62
1
420
16711680
370
-1
  6
ByLayer
 10
248.33727149999936
 20
861.55071999999927
 30
0.0
 11
248.5373664999986
 21
856.67900000000009
 31
0.0
  0
LINE
  5
252
100
AcDbEntity
100
AcDbLine
  8
New Front
 62
1
420
16711680
370
-1
  6
ByLayer
 10
92.755051499999013
 20
856.67900000000009
 30
0.0
 11
92.95514649999825
 21
861.55071999999745
 31
0.0
  0
LINE
  5
253
100
AcDbEntity
100
AcDbLine
  8
New Front
 62
1
420
16711680
370
-1
  6
ByLayer
 10
92.95514649999825
 20
861.55071999999745
 30
0.0
 11
100.99255349999908
 21
861.55071999999927
 31
0.0
  0
LINE
  5
254
100
AcDbEntity
100
AcDbLine
  8
New Front
 62
1
420
16711680
370
-1
  6
ByLayer
 10
100.99255349999908
 20
861.55071999999927
 30
0.0
 11
101.19264949999865
 21
856.67899999999986
 31
0.0
  0
LINE
  5
255
100
AcDbEntity
100
AcDbLine
  8
New Front
 62
1
420
16711680
370
-1
  6
ByLayer
 10
101.19264949999865
 20
856.67899999999986
 30
0.0
 11
115.8236134999986
 21
856.67900000000009
 31
0.0
  0
LINE
  5
256
100
AcDbEntity
100
AcDbLine
  8
New Front
 62
1
420
16711680
370
-1
  6
ByLayer
 10
115.8236134999986
 20
856.67900000000009
 30
0.0
 11
115.8236134999986
 21
851.0644710000015
 31
0.0
  0
LINE
  5
257
100
AcDbEntity
100
AcDbLine
  8
New Front
 62
1
420
16711680
370
-1
  6
ByLayer
 10
115.8236134999986
 20
851.0644710000015
 30
0.0
 11
114.70347349999849
 21
851.06447100000332
 31
0.0
  0
LINE
  5
258
100
AcDbEntity
100
AcDbLine
  8
New Front
 62
1
420
16711680
370
-1
  6
ByLayer
 10
114.70347349999849
 20
851.06447100000332
 30
0.0
 11
114.70347349999861
 21
849.30425099999957
 31
0.0
  0
LINE
  5
259
100
AcDbEntity
100
AcDbLine
  8
New Front
 62
1
420
16711680
370
-1
  6
ByLayer
 10
114.70347349999861
 20
849.30425099999957
 30
0.0
 11
115.82361349999849
 21
849.30425100000116
 31
0.0
  0
LINE
  5
25A
100
AcDbEntity
100
AcDbLine
  8
New Front
 62
1
420
16711680
370
-1
  6
ByLayer
 10
115.82361349999849
 20
849.30425100000116
 30
0.0
 11
115.82361349999837
 21
848.1499619999995
 31
0.0
  0
LINE
  5
25B
100
AcDbEntity
100
AcDbLine
  8
New Front
 62
1
420
16711680
370
-1
  6
ByLayer
 10
118.1163864999985
 20
848.1499620000011
 30
0.0
 11
118.1163864999985
 21
849.30425099999752
 31
0.0
  0
LINE
  5
25C
100
AcDbEntity
100
AcDbLine
  8
New Front
 62
1
420
16711680
370
-1
  6
ByLayer
 10
118.1163864999985
 20
849.30425099999752
 30
0.0
 11
119.23596249999866
 21
849.30425099999945
 31
0.0
  0
LINE
  5
25D
100
AcDbEntity
100
AcDbLine
  8
New Front
 62
1
420
16711680
370
-1
  6
ByLayer
 10
119.23596249999866
 20
849.30425099999945
 30
0.0
 11
119.23596249999878
 21
851.06447099999968
 31
0.0
  0
LINE
  5
25E
100
AcDbEntity
100
AcDbLine
  8
New Front
 62
1
420
16711680
370
-1
  6
ByLayer
 10
119.23596249999878
 20
851.06447099999968
 30
0.0
 11
118.11638649999873
 21
851.0644710000015
 31
0.0
  0
LINE
  5
25F
100
AcDbEntity
100
AcDbLine
  8
New Front
 62
1
420
16711680
370
-1
  6
ByLayer
 10
118.11638649999873
 20
851.0644710000015
 30
0.0
 11
118.11638649999873
 21
856.67900000000009
 31
0.0
  0
LINE
  5
260
100
AcDbEntity
100
AcDbLine
  8
New Front
 62
1
420
16711680
370
-1
  6
ByLayer
 10
118.11638649999873
 20
856.67900000000009
 30
0.0
 11
132.76823549999858
 21
856.67900000000009
 31
0.0
  0
LINE
  5
261
100
AcDbEntity
100
AcDbLine
  8
New Front
 62
1
420
16711680
370
-1
  6
ByLayer
 10
132.76823549999858
 20
856.67900000000009
 30
0.0
 11
132.96833149999895
 21
861.55071999999927
 31
0.0
  0
LINE
  5
262
100
AcDbEntity
100
AcDbLine
  8
New Front
 62
1
420
16711680
370
-1
  6
ByLayer
 10
132.96833149999895
 20
861.55071999999927
 30
0.0
 11
140.9972714999991
 21
861.55072000000109
 31
0.0
  0
LINE
  5
263
100
AcDbEntity
100
AcDbLine
  8
New Front
 62
1
420
16711680
370
-1
  6
ByLayer
 10
140.9972714999991
 20
861.55072000000109
 30
0.0
 11
141.19736649999834
 21
856.6790000000002
 31
0.0
  0
LINE
  5
264
100
AcDbEntity
100
AcDbLine
  8
New Front
 62
1
420
16711680
370
-1
  6
ByLayer
 10
951.47355149999885
 20
856.67900000000009
 30
0.0
 11
951.67364649999956
 21
861.55072000000064
 31
0.0
  0
LINE
  5
265
100
AcDbEntity
100
AcDbLine
  8
New Front
 62
1
420
16711680
370
-1
  6
ByLayer
 10
951.67364649999956
 20
861.55072000000064
 30
0.0
 11
959.71105349999903
 21
861.55072000000087
 31
0.0
  0
LINE
  5
266
100
AcDbEntity
100
AcDbLine
  8
New Front
 62
1
420
16711680
370
-1
  6
ByLayer
 10
959.71105349999903
 20
861.55072000000087
 30
0.0
 11
959.91114949999928
 21
856.67899999999986
 31
0.0
  0
LINE
  5
267
100
AcDbEntity
100
AcDbLine
  8
New Front
 62
1
420
16711680
370
-1
  6
ByLayer
 10
959.91114949999928
 20
856.67899999999986
 30
0.0
 11
974.54211349999969
 21
856.67899999999963
 31
0.0
  0
LINE
  5
268
100
AcDbEntity
100
AcDbLine
  8
New Front
 62
1
420
16711680
370
-1
  6
ByLayer
 10
974.54211349999969
 20
856.67899999999963
 30
0.0
 11
974.54211349999969
 21
851.06447099999923
 31
0.0
  0
LINE
  5
269
100
AcDbEntity
100
AcDbLine
  8
New Front
 62
1
420
16711680
370
-1
  6
ByLayer
 10
974.54211349999969
 20
851.06447099999923
 30
0.0
 11
973.4219735000006
 21
851.06447099999923
 31
0.0
  0
LINE
  5
26A
100
AcDbEntity
100
AcDbLine
  8
New Front
 62
1
420
16711680
370
-1
  6
ByLayer
 10
973.4219735000006
 20
851.06447099999923
 30
0.0
 11
973.42197350000049
 21
849.30425099999911
 31
0.0
  0
LINE
  5
26B
100
AcDbEntity
100
AcDbLine
  8
New Front
 62
1
420
16711680
370
-1
  6
ByLayer
 10
973.42197350000049
 20
849.30425099999911
 30
0.0
 11
974.54211349999946
 21
849.30425099999923
 31
0.0
  0
LINE
  5
26C
100
AcDbEntity
100
AcDbLine
  8
New Front
 62
1
420
16711680
370
-1
  6
ByLayer
 10
974.54211349999946
 20
849.30425099999923
 30
0.0
 11
974.54211349999935
 21
848.1499620000011
 31
0.0
  0
LINE
  5
26D
100
AcDbEntity
100
AcDbLine
  8
New Front
 62
1
420
16711680
370
-1
  6
ByLayer
 10
974.54211349999935
 20
848.1499620000011
 30
0.0
 11
976.83488650000061
 21
848.14996199999916
 31
0.0
  0
LINE
  5
26E
100
AcDbEntity
100
AcDbLine
  8
New Front
 62
1
420
16711680
370
-1
  6
ByLayer
 10
976.83488650000061
 20
848.14996199999916
 30
0.0
 11
976.83488650000095
 21
849.30425099999889
 31
0.0
  0
LINE
  5
26F
100
AcDbEntity
100
AcDbLine
  8
New Front
 62
1
420
16711680
370
-1
  6
ByLayer
 10
976.83488650000095
 20
849.30425099999889
 30
0.0
 11
977.95446249999952
 21
849.30425099999911
 31
0.0
  0
LINE
  5
270
100
AcDbEntity
100
AcDbLine
  8
New Front
 62
1
420
16711680
370
-1
  6
ByLayer
 10
977.95446249999952
 20
849.30425099999911
 30
0.0
 11
977.95446249999998
 21
851.06447099999718
 31
0.0
  0
LINE
  5
271
100
AcDbEntity
100
AcDbLine
  8
New Front
 62
1
420
16711680
370
-1
  6
ByLayer
 10
977.95446249999998
 20
851.06447099999718
 30
0.0
 11
976.83488650000072
 21
851.06447100000105
 31
0.0
  0
LINE
  5
272
100
AcDbEntity
100
AcDbLine
  8
New Front
 62
1
420
16711680
370
-1
  6
ByLayer
 10
976.83488650000072
 20
851.06447100000105
 30
0.0
 11
976.83488650000015
 21
856.67900000000009
 31
0.0
  0
LINE
  5
273
100
AcDbEntity
100
AcDbLine
  8
New Front
 62
1
420
16711680
370
-1
  6
ByLayer
 10
976.83488650000015
 20
856.67900000000009
 30
0.0
 11
991.48673549999842
 21
856.67899999999975
 31
0.0
  0
LINE
  5
274
100
AcDbEntity
100
AcDbLine
  8
New Front
 62
1
420
16711680
370
-1
  6
ByLayer
 10
991.48673549999842
 20
856.67899999999975
 30
0.0
 11
991.68683149999902
 21
861.55072000000087
 31
0.0
  0
LINE
  5
275
100
AcDbEntity
100
AcDbLine
  8
New Front
 62
1
420
16711680
370
-1
  6
ByLayer
 10
991.68683149999902
 20
861.55072000000087
 30
0.0
 11
999.71577149999916
 21
861.55072000000268
 31
0.0
  0
LINE
  5
276
100
AcDbEntity
100
AcDbLine
  8
New Front
 62
1
420
16711680
370
-1
  6
ByLayer
 10
999.71577149999916
 20
861.55072000000268
 30
0.0
 11
999.9158664999992
 21
856.67899999999986
 31
0.0
  0
LINE
  5
277
100
AcDbEntity
100
AcDbLine
  8
New Front
 62
1
420
16711680
370
-1
  6
ByLayer
 10
1058.813551499999
 20
856.67899999999986
 30
0.0
 11
1059.0136464999998
 21
861.55071999999882
 31
0.0
  0
LINE
  5
278
100
AcDbEntity
100
AcDbLine
  8
New Front
 62
1
420
16711680
370
-1
  6
ByLayer
 10
1059.0136464999998
 20
861.55071999999882
 30
0.0
 11
1067.0510534999989
 21
861.55071999999552
 31
0.0
  0
LINE
  5
279
100
AcDbEntity
100
AcDbLine
  8
New Front
 62
1
420
16711680
370
-1
  6
ByLayer
 10
1067.0510534999989
 20
861.55071999999552
 30
0.0
 11
1067.2511494999999
 21
856.67899999999963
 31
0.0
  0
LINE
  5
27A
100
AcDbEntity
100
AcDbLine
  8
New Front
 62
1
420
16711680
370
-1
  6
ByLayer
 10
1067.2511494999999
 20
856.67899999999963
 30
0.0
 11
1081.8821134999998
 21
856.67899999999952
 31
0.0
  0
LINE
  5
27B
100
AcDbEntity
100
AcDbLine
  8
New Front
 62
1
420
16711680
370
-1
  6
ByLayer
 10
1081.8821134999998
 20
856.67899999999952
 30
0.0
 11
1081.8821134999998
 21
851.06447099999923
 31
0.0
  0
LINE
  5
27C
100
AcDbEntity
100
AcDbLine
  8
New Front
 62
1
420
16711680
370
-1
  6
ByLayer
 10
1081.8821134999998
 20
851.06447099999923
 30
0.0
 11
1080.7619735000007
 21
851.06447099999912
 31
0.0
  0
LINE
  5
27D
100
AcDbEntity
100
AcDbLine
  8
New Front
 62
1
420
16711680
370
-1
  6
ByLayer
 10
1080.7619735000007
 20
851.06447099999912
 30
0.0
 11
1080.7619735000007
 21
849.30425099999911
 31
0.0
  0
LINE
  5
27E
100
AcDbEntity
100
AcDbLine
  8
New Front
 62
1
420
16711680
370
-1
  6
ByLayer
 10
1080.7619735000007
 20
849.30425099999911
 30
0.0
 11
1081.8821134999994
 21
849.30425099999957
 31
0.0
  0
LINE
  5
27F
100
AcDbEntity
100
AcDbLine
  8
New Front
 62
1
420
16711680
370
-1
  6
ByLayer
 10
1081.8821134999994
 20
849.30425099999957
 30
0.0
 11
1081.8821134999996
 21
848.1499620000011
 31
0.0
  0
LINE
  5
280
100
AcDbEntity
100
AcDbLine
  8
New Front
 62
1
420
16711680
370
-1
  6
ByLayer
 10
1081.8821134999996
 20
848.1499620000011
 30
0.0
 11
1084.1748865000009
 21
848.14996199999928
 31
0.0
  0
LINE
  5
281
100
AcDbEntity
100
AcDbLine
  8
New Front
 62
1
420
16711680
370
-1
  6
ByLayer
 10
1084.1748865000009
 20
848.14996199999928
 30
0.0
 11
1084.1748865000009
 21
849.30425100000116
 31
0.0
  0
LINE
  5
282
100
AcDbEntity
100
AcDbLine
  8
New Front
 62
1
420
16711680
370
-1
  6
ByLayer
 10
1084.1748865000009
 20
849.30425100000116
 30
0.0
 11
1085.2944625
 21
849.30425099999752
 31
0.0
  0
LINE
  5
283
100
AcDbEntity
100
AcDbLine
  8
New Front
 62
1
420
16711680
370
-1
  6
ByLayer
 10
1085.2944625
 20
849.30425099999752
 30
0.0
 11
1085.2944624999998
 21
851.06447100000514
 31
0.0
  0
LINE
  5
284
100
AcDbEntity
100
AcDbLine
  8
New Front
 62
1
420
16711680
370
-1
  6
ByLayer
 10
1085.2944624999998
 20
851.06447100000514
 30
0.0
 11
1084.1748865000011
 21
851.064470999999
 31
0.0
  0
LINE
  5
285
100
AcDbEntity
100
AcDbLine
  8
New Front
 62
1
420
16711680
370
-1
  6
ByLayer
 10
1084.1748865000011
 20
851.064470999999
 30
0.0
 11
1084.1748865000011
 21
856.67899999999941
 31
0.0
  0
LINE
  5
286
100
AcDbEntity
100
AcDbLine
  8
New Front
 62
1
420
16711680
370
-1
  6
ByLayer
 10
1084.1748865000011
 20
856.67899999999941
 30
0.0
 11
1098.8267354999989
 21
856.67899999999963
 31
0.0
  0
LINE
  5
287
100
AcDbEntity
100
AcDbLine
  8
New Front
 62
1
420
16711680
370
-1
  6
ByLayer
 10
1098.8267354999989
 20
856.67899999999963
 30
0.0
 11
1099.0268314999992
 21
861.5507200000045
 31
0.0
  0
LINE
  5
288
100
AcDbEntity
100
AcDbLine
  8
New Front
 62
1
420
16711680
370
-1
  6
ByLayer
 10
1099.0268314999992
 20
861.5507200000045
 30
0.0
 11
1107.0557714999995
 21
861.55072000000041
 31
0.0
  0
LINE
  5
289
100
AcDbEntity
100
AcDbLine
  8
New Front
 62
1
420
16711680
370
-1
  6
ByLayer
 10
1107.0557714999995
 20
861.55072000000041
 30
0.0
 11
1107.2558664999995
 21
856.67899999999986
 31
0.0
  0
LINE
  5
28A
100
AcDbEntity
100
AcDbLine
  8
New Front
 62
1
420
16711680
370
-1
  6
ByLayer
 10
677.89736649999895
 20
856.67899999999986
 30
0.0
 11
736.79355149999878
 21
856.67899999999997
 31
0.0
  0
LINE
  5
28B
100
AcDbEntity
100
AcDbLine
  8
New Front
 62
1
420
16711680
370
-1
  6
ByLayer
 10
785.23586649999879
 20
856.67900000000009
 30
0.0
 11
844.13355149999893
 21
856.67899999999986
 31
0.0
  0
LINE
  5
28C
100
AcDbEntity
100
AcDbLine
  8
New Front
 62
1
420
16711680
370
-1
  6
ByLayer
 10
892.57586649999905
 20
856.67899999999986
 30
0.0
 11
951.47355149999885
 21
856.67900000000009
 31
0.0
  0
LINE
  5
28D
100
AcDbEntity
100
AcDbLine
  8
New Front
 62
1
420
16711680
370
-1
  6
ByLayer
 10
999.9158664999992
 20
856.67899999999986
 30
0.0
 11
1058.813551499999
 21
856.67899999999986
 31
0.0
  0
LINE
  5
28E
100
AcDbEntity
100
AcDbLine
  8
New Front
 62
1
420
16711680
370
-1
  6
ByLayer
 10
570.55736649999938
 20
856.67900000000009
 30
0.0
 11
629.45505150000054
 21
856.67900000000009
 31
0.0
  0
LINE
  5
28F
100
AcDbEntity
100
AcDbLine
  8
New Front
 62
1
420
16711680
370
-1
  6
ByLayer
 10
463.21736649999883
 20
856.67900000000009
 30
0.0
 11
522.11505150000062
 21
856.67900000000009
 31
0.0
  0
LINE
  5
290
100
AcDbEntity
100
AcDbLine
  8
New Front
 62
1
420
16711680
370
-1
  6
ByLayer
 10
355.87736649999874
 20
856.67900000000009
 30
0.0
 11
414.77505150000059
 21
856.67900000000009
 31
0.0
  0
LINE
  5
291
100
AcDbEntity
100
AcDbLine
  8
New Front
 62
1
420
16711680
370
-1
  6
ByLayer
 10
248.5373664999986
 20
856.67900000000009
 30
0.0
 11
307.43505150000044
 21
856.67900000000009
 31
0.0
  0
LINE
  5
292
100
AcDbEntity
100
AcDbLine
  8
New Front
 62
1
420
16711680
370
-1
  6
ByLayer
 10
141.19736649999834
 20
856.6790000000002
 30
0.0
 11
200.09505149999927
 21
856.67900000000009
 31
0.0
  0
LINE
  5
293
100
AcDbEntity
100
AcDbLine
  8
New Front
 62
1
420
16711680
370
-1
  6
ByLayer
 10
92.755051499999013
 20
856.67900000000009
 30
0.0
 11
53.412040499999989
 21
856.67900000000009
 31
0.0
  0
LINE
  5
294
100
AcDbEntity
100
AcDbLine
  8
New Front
 62
1
420
16711680
370
-1
  6
ByLayer
 10
1107.2558664999995
 20
856.67899999999986
 30
0.0
 11
1146.5879595000001
 21
856.67900000000009
 31
0.0
  0
LINE
  5
295
100
AcDbEntity
100
AcDbLine
  8
New Front
 62
1
420
16711680
370
-1
  6
ByLayer
 10
36.500153000000068
 20
838.38930700000014
 30
0.0
 11
36.500153000000068
 21
856.67899999999997
 31
0.0
  0
LINE
  5
296
100
AcDbEntity
100
AcDbLine
  8
New Front
 62
1
420
16711680
370
-1
  6
ByLayer
 10
36.500153000000068
 20
856.67899999999997
 30
0.0
 11
54.609789000000092
 21
856.67900000000009
 31
0.0
  0
LINE
  5
297
100
AcDbEntity
100
AcDbLine
  8
New Front
 62
1
420
16711680
370
-1
  6
ByLayer
 10
36.500152999999955
 20
61.480588999998872
 30
0.0
 11
36.500153000000068
 21
43.320999999999799
 31
0.0
  0
LINE
  5
298
100
AcDbEntity
100
AcDbLine
  8
New Front
 62
1
420
16711680
370
-1
  6
ByLayer
 10
36.500153000000068
 20
43.320999999999799
 30
0.0
 11
54.609788999999864
 21
43.320999999999913
 31
0.0
  0
LINE
  5
299
100
AcDbEntity
100
AcDbLine
  8
New Front
 62
1
420
16711680
370
-1
  6
ByLayer
 10
1146.5879595000001
 20
43.320999999999628
 30
0.0
 11
1171.4999999999995
 21
43.320999999999344
 31
0.0
  0
LINE
  5
29A
100
AcDbEntity
100
AcDbLine
  8
New Front
 62
1
420
16711680
370
-1
  6
ByLayer
 10
1171.4999999999995
 20
43.320999999999344
 30
0.0
 11
1171.4999999999998
 21
61.451519999999221
 31
0.0
  0
LINE
  5
29B
100
AcDbEntity
100
AcDbLine
  8
New Front
 62
1
420
16711680
370
-1
  6
ByLayer
 10
1171.5000000000002
 20
856.67899999999975
 30
0.0
 11
1146.5879595000001
 21
856.67900000000009
 31
0.0
  0
LINE
  5
29C
100
AcDbEntity
100
AcDbLine
  8
New Front
 62
1
420
16711680
370
-1
  6
ByLayer
 10
115.82361349999837
 20
848.1499619999995
 30
0.0
 11
118.1163864999985
 21
848.1499620000011
 31
0.0
  0
SPLINE
  5
29D
  8
Front
 62
1
420
16711680
370
-1
  6
ByLayer
100
AcDbEntity
100
AcDbSpline
 70
8
 71
3
 72
8
 73
4
 74
0
 40
0.0
 40
0.0
 40
0.0
 40
0.0
 40
1.0
 40
1.0
 40
1.0
 40
1.0
 10
52.723365500000455
 20
81.161355999999898
 30
0.0
 10
52.723365500000341
 20
81.824577999999804
 30
0.0
 10
52.186297500000478
 20
82.361364999999978
 30
0.0
 10
51.523357500000429
 20
82.361364999999921
 30
0.0
  0
SPLINE
  5
29E
  8
Front
 62
1
420
16711680
370
-1
  6
ByLayer
100
AcDbEntity
100
AcDbSpline
 70
8
 71
3
 72
8
 73
4
 74
0
 40
0.0
 40
0.0
 40
0.0
 40
0.0
 40
1.0
 40
1.0
 40
1.0
 40
1.0
 10
51.523357500000429
 20
82.361364999999921
 30
0.0
 10
50.860134500000527
 20
82.361364999999694
 30
0.0
 10
50.323348500000407
 20
81.824577999999917
 30
0.0
 10
50.323348500000407
 20
81.161356000000069
 30
0.0
  0
SPLINE
  5
29F
  8
Front
 62
1
420
16711680
370
-1
  6
ByLayer
100
AcDbEntity
100
AcDbSpline
 70
8
 71
3
 72
8
 73
4
 74
0
 40
0.0
 40
0.0
 40
0.0
 40
0.0
 40
1.0
 40
1.0
 40
1.0
 40
1.0
 10
50.32334850000052
 20
78.76161999999988
 30
0.0
 10
50.323348500000634
 20
78.098962999999685
 30
0.0
 10
50.860134500000527
 20
77.561893999999711
 30
0.0
 10
51.523357500000202
 20
77.561893999999938
 30
0.0
  0
SPLINE
  5
2A0
  8
Front
 62
1
420
16711680
370
-1
  6
ByLayer
100
AcDbEntity
100
AcDbSpline
 70
8
 71
3
 72
8
 73
4
 74
0
 40
0.0
 40
0.0
 40
0.0
 40
0.0
 40
1.0
 40
1.0
 40
1.0
 40
1.0
 10
51.523357500000202
 20
77.561893999999938
 30
0.0
 10
52.186297500000478
 20
77.561893999999938
 30
0.0
 10
52.723365500000341
 20
78.098962999999856
 30
0.0
 10
52.723365500000227
 20
78.761620000000221
 30
0.0
  0
LWPOLYLINE
  5
2A1
  8
Front
 62
1
420
16711680
370
-1
  6
ByLayer
100
AcDbEntity
100
AcDbPolyline
 90
2
 70
0
 10
50.323348500000407
 20
81.161356000000069
 10
50.32334850000052
 20
78.76161999999988
  0
SPLINE
  5
2A2
  8
Front
 62
1
420
16711680
370
-1
  6
ByLayer
100
AcDbEntity
100
AcDbSpline
 70
8
 71
3
 72
8
 73
4
 74
0
 40
0.0
 40
0.0
 40
0.0
 40
0.0
 40
1.0
 40
1.0
 40
1.0
 40
1.0
 10
45.043534500000419
 20
81.161355999999898
 30
0.0
 10
45.043534500000533
 20
81.824577999999747
 30
0.0
 10
44.505901500000164
 20
82.361364999999978
 30
0.0
 10
43.843243500000312
 20
82.361365000000092
 30
0.0
  0
SPLINE
  5
2A3
  8
Front
 62
1
420
16711680
370
-1
  6
ByLayer
100
AcDbEntity
100
AcDbSpline
 70
8
 71
3
 72
8
 73
4
 74
0
 40
0.0
 40
0.0
 40
0.0
 40
0.0
 40
1.0
 40
1.0
 40
1.0
 40
1.0
 10
43.843243500000312
 20
82.361365000000092
 30
0.0
 10
43.180868500000429
 20
82.361364999999864
 30
0.0
 10
42.64323450000029
 20
81.824577999999917
 30
0.0
 10
42.643234500000176
 20
81.161356000000126
 30
0.0
  0
LWPOLYLINE
  5
2A4
  8
Front
 62
1
420
16711680
370
-1
  6
ByLayer
100
AcDbEntity
100
AcDbPolyline
 90
3
 70
0
 10
52.723365500000227
 20
78.761620000000221
 10
52.723365500000455
 20
81.161355999999898
 10
52.723365500000455
 20
81.161355999999898
  0
SPLINE
  5
2A5
  8
Front
 62
1
420
16711680
370
-1
  6
ByLayer
100
AcDbEntity
100
AcDbSpline
 70
8
 71
3
 72
8
 73
4
 74
0
 40
0.0
 40
0.0
 40
0.0
 40
0.0
 40
1.0
 40
1.0
 40
1.0
 40
1.0
 10
42.64323450000029
 20
78.761620000000164
 30
0.0
 10
42.64323450000029
 20
78.098963000000083
 30
0.0
 10
43.180868500000429
 20
77.561893999999768
 30
0.0
 10
43.843243500000085
 20
77.561893999999995
 30
0.0
  0
SPLINE
  5
2A6
  8
Front
 62
1
420
16711680
370
-1
  6
ByLayer
100
AcDbEntity
100
AcDbSpline
 70
8
 71
3
 72
8
 73
4
 74
0
 40
0.0
 40
0.0
 40
0.0
 40
0.0
 40
1.0
 40
1.0
 40
1.0
 40
1.0
 10
43.843243500000085
 20
77.561893999999995
 30
0.0
 10
44.505901500000164
 20
77.561893999999938
 30
0.0
 10
45.043534500000419
 20
78.098963000000026
 30
0.0
 10
45.043534500000305
 20
78.76161999999988
 30
0.0
  0
LWPOLYLINE
  5
2A7
  8
Front
 62
1
420
16711680
370
-1
  6
ByLayer
100
AcDbEntity
100
AcDbPolyline
 90
2
 70
0
 10
42.643234500000176
 20
81.161356000000126
 10
42.64323450000029
 20
78.761620000000164
  0
LWPOLYLINE
  5
2A8
  8
Front
 62
1
420
16711680
370
-1
  6
ByLayer
100
AcDbEntity
100
AcDbPolyline
 90
3
 70
0
 10
45.043534500000305
 20
78.76161999999988
 10
45.043534500000419
 20
81.161355999999898
 10
45.043534500000419
 20
81.161355999999898
  0
SPLINE
  5
2A9
  8
Front
 62
1
420
16711680
370
-1
  6
ByLayer
100
AcDbEntity
100
AcDbSpline
 70
8
 71
3
 72
8
 73
4
 74
0
 40
0.0
 40
0.0
 40
0.0
 40
0.0
 40
1.0
 40
1.0
 40
1.0
 40
1.0
 10
52.723365500000227
 20
820.83734200000026
 30
0.0
 10
52.7233655
 20
821.49999999999989
 30
0.0
 10
52.186297500000023
 20
822.03735099999972
 30
0.0
 10
51.523357499999975
 20
822.03735099999994
 30
0.0
  0
SPLINE
  5
2AA
  8
Front
 62
1
420
16711680
370
-1
  6
ByLayer
100
AcDbEntity
100
AcDbSpline
 70
8
 71
3
 72
8
 73
4
 74
0
 40
0.0
 40
0.0
 40
0.0
 40
0.0
 40
1.0
 40
1.0
 40
1.0
 40
1.0
 10
51.523357499999975
 20
822.03735099999994
 30
0.0
 10
50.860134500000299
 20
822.03735099999994
 30
0.0
 10
50.323348500000179
 20
821.5
 30
0.0
 10
50.323348500000179
 20
820.83734200000026
 30
0.0
  0
SPLINE
  5
2AB
  8
Front
 62
1
420
16711680
370
-1
  6
ByLayer
100
AcDbEntity
100
AcDbSpline
 70
8
 71
3
 72
8
 73
4
 74
0
 40
0.0
 40
0.0
 40
0.0
 40
0.0
 40
1.0
 40
1.0
 40
1.0
 40
1.0
 10
50.323348500000407
 20
818.43732399999999
 30
0.0
 10
50.323348500000066
 20
817.77438400000005
 30
0.0
 10
50.860134499999958
 20
817.23759800000016
 30
0.0
 10
51.523357500000202
 20
817.23759800000028
 30
0.0
  0
SPLINE
  5
2AC
  8
Front
 62
1
420
16711680
370
-1
  6
ByLayer
100
AcDbEntity
100
AcDbSpline
 70
8
 71
3
 72
8
 73
4
 74
0
 40
0.0
 40
0.0
 40
0.0
 40
0.0
 40
1.0
 40
1.0
 40
1.0
 40
1.0
 10
51.523357500000202
 20
817.23759800000028
 30
0.0
 10
52.186297500000023
 20
817.23759799999993
 30
0.0
 10
52.723365500000114
 20
817.77438400000028
 30
0.0
 10
52.723365500000114
 20
818.43732399999999
 30
0.0
  0
LWPOLYLINE
  5
2AD
  8
Front
 62
1
420
16711680
370
-1
  6
ByLayer
100
AcDbEntity
100
AcDbPolyline
 90
2
 70
0
 10
50.323348500000179
 20
820.83734200000026
 10
50.323348500000407
 20
818.43732399999999
  0
SPLINE
  5
2AE
  8
Front
 62
1
420
16711680
370
-1
  6
ByLayer
100
AcDbEntity
100
AcDbSpline
 70
8
 71
3
 72
8
 73
4
 74
0
 40
0.0
 40
0.0
 40
0.0
 40
0.0
 40
1.0
 40
1.0
 40
1.0
 40
1.0
 10
45.043534500000078
 20
820.83734200000015
 30
0.0
 10
45.043534500000078
 20
821.49999999999989
 30
0.0
 10
44.50590150000005
 20
822.03735099999994
 30
0.0
 10
43.843243499999971
 20
822.03735099999994
 30
0.0
  0
SPLINE
  5
2AF
  8
Front
 62
1
420
16711680
370
-1
  6
ByLayer
100
AcDbEntity
100
AcDbSpline
 70
8
 71
3
 72
8
 73
4
 74
0
 40
0.0
 40
0.0
 40
0.0
 40
0.0
 40
1.0
 40
1.0
 40
1.0
 40
1.0
 10
43.843243499999971
 20
822.03735099999994
 30
0.0
 10
43.180868500000088
 20
822.03735099999994
 30
0.0
 10
42.64323450000029
 20
821.5
 30
0.0
 10
42.64323450000029
 20
820.83734200000026
 30
0.0
  0
LWPOLYLINE
  5
2B0
  8
Front
 62
1
420
16711680
370
-1
  6
ByLayer
100
AcDbEntity
100
AcDbPolyline
 90
3
 70
0
 10
52.723365500000114
 20
818.43732399999999
 10
52.723365500000227
 20
820.83734200000026
 10
52.723365500000227
 20
820.83734200000026
  0
SPLINE
  5
2B1
  8
Front
 62
1
420
16711680
370
-1
  6
ByLayer
100
AcDbEntity
100
AcDbSpline
 70
8
 71
3
 72
8
 73
4
 74
0
 40
0.0
 40
0.0
 40
0.0
 40
0.0
 40
1.0
 40
1.0
 40
1.0
 40
1.0
 10
42.643234500000062
 20
818.43732399999999
 30
0.0
 10
42.64323450000029
 20
817.77438400000017
 30
0.0
 10
43.180868500000201
 20
817.23759800000016
 30
0.0
 10
43.843243499999971
 20
817.23759800000005
 30
0.0
  0
SPLINE
  5
2B2
  8
Front
 62
1
420
16711680
370
-1
  6
ByLayer
100
AcDbEntity
100
AcDbSpline
 70
8
 71
3
 72
8
 73
4
 74
0
 40
0.0
 40
0.0
 40
0.0
 40
0.0
 40
1.0
 40
1.0
 40
1.0
 40
1.0
 10
43.843243499999971
 20
817.23759800000005
 30
0.0
 10
44.50590150000005
 20
817.23759800000016
 30
0.0
 10
45.043534500000078
 20
817.77438400000005
 30
0.0
 10
45.043534500000192
 20
818.43732399999999
 30
0.0
  0
LWPOLYLINE
  5
2B3
  8
Front
 62
1
420
16711680
370
-1
  6
ByLayer
100
AcDbEntity
100
AcDbPolyline
 90
2
 70
0
 10
42.64323450000029
 20
820.83734200000026
 10
42.643234500000062
 20
818.43732399999999
  0
LWPOLYLINE
  5
2B4
  8
Front
 62
1
420
16711680
370
-1
  6
ByLayer
100
AcDbEntity
100
AcDbPolyline
 90
3
 70
0
 10
45.043534500000192
 20
818.43732399999999
 10
45.043534500000078
 20
820.83734200000015
 10
45.043534500000078
 20
820.83734200000015
  0
LINE
  5
2B5
100
AcDbEntity
100
AcDbLine
  8
Referance lines
 62
3
420
65280
370
-1
  6
ByLayer
 10
127.97688000000028
 20
450.0
 30
0.0
 11
968.5501278683106
 21
449.99999999999989
 31
0.0
  0
LINE
  5
2B6
100
AcDbEntity
100
AcDbLine
  8
Referance lines
 62
3
420
65280
370
-1
  6
ByLayer
 10
600.83308799999816
 20
113.08457986176739
 30
0.0
 11
600.83308799999827
 21
782.5359324774945
 31
0.0
  0
SPLINE
  5
2B7
  8
New Front
 62
1
420
16711680
370
-1
  6
ByLayer
100
AcDbEntity
100
AcDbSpline
 70
8
 71
3
 72
8
 73
4
 74
0
 40
0.0
 40
0.0
 40
0.0
 40
0.0
 40
1.0
 40
1.0
 40
1.0
 40
1.0
 10
968.52877000000046
 20
447.81080400000019
 30
0.0
 10
968.52877000000001
 20
401.81414199999983
 30
0.0
 10
982.68702900000028
 20
334.35123399999935
 30
0.0
 10
1006.8204440000004
 20
299.27278899999931
 30
0.0
  0
SPLINE
  5
2B8
  8
New Front
 62
1
420
16711680
370
-1
  6
ByLayer
100
AcDbEntity
100
AcDbSpline
 70
8
 71
3
 72
8
 73
4
 74
0
 40
0.0
 40
0.0
 40
0.0
 40
0.0
 40
1.0
 40
1.0
 40
1.0
 40
1.0
 10
1009.0631680000004
 20
296.07927599999948
 30
0.0
 10
1013.4035200000003
 20
290.00971999999956
 30
0.0
 10
1013.4035200000003
 20
290.00971999999956
 30
0.0
 10
1013.4035200000003
 20
290.00971999999956
 30
0.0
  0
SPLINE
  5
2B9
  8
New Front
 62
1
420
16711680
370
-1
  6
ByLayer
100
AcDbEntity
100
AcDbSpline
 70
8
 71
3
 72
8
 73
4
 74
0
 40
0.0
 40
0.0
 40
0.0
 40
0.0
 40
1.0
 40
1.0
 40
1.0
 40
1.0
 10
1013.4035200000003
 20
290.00971999999956
 30
0.0
 10
1018.665336
 20
283.73445199999918
 30
0.0
 10
1021.6417869999997
 20
271.96533399999936
 30
0.0
 10
1020.0170570000001
 20
263.85821800000008
 30
0.0
  0
SPLINE
  5
2BA
  8
New Front
 62
1
420
16711680
370
-1
  6
ByLayer
100
AcDbEntity
100
AcDbSpline
 70
8
 71
3
 72
8
 73
4
 74
0
 40
0.0
 40
0.0
 40
0.0
 40
0.0
 40
1.0
 40
1.0
 40
1.0
 40
1.0
 10
991.44089700000006
 20
142.34230399999956
 30
0.0
 10
989.41149000000053
 20
134.28147299999989
 30
0.0
 10
978.46493699999962
 20
127.04752499999967
 30
0.0
 10
967.11367400000017
 20
126.26720899999953
 30
0.0
  0
SPLINE
  5
2BB
  8
New Front
 62
1
420
16711680
370
-1
  6
ByLayer
100
AcDbEntity
100
AcDbSpline
 70
8
 71
3
 72
8
 73
4
 74
0
 40
0.0
 40
0.0
 40
0.0
 40
0.0
 40
1.0
 40
1.0
 40
1.0
 40
1.0
 10
967.11367400000017
 20
126.26720899999953
 30
0.0
 10
967.11367400000017
 20
126.26720899999953
 30
0.0
 10
774.08912300000088
 20
112.98571799999974
 30
0.0
 10
571.68053300000497
 20
112.98571799999985
 30
0.0
  0
SPLINE
  5
2BC
  8
New Front
 62
1
420
16711680
370
-1
  6
ByLayer
100
AcDbEntity
100
AcDbSpline
 70
8
 71
3
 72
8
 73
4
 74
0
 40
0.0
 40
0.0
 40
0.0
 40
0.0
 40
1.0
 40
1.0
 40
1.0
 40
1.0
 10
571.68053300000497
 20
112.98571799999985
 30
0.0
 10
486.85528599999918
 20
112.98571799999985
 30
0.0
 10
330.71211600000072
 20
117.28890099999978
 30
0.0
 10
330.71211600000072
 20
117.28890099999978
 30
0.0
  0
SPLINE
  5
2BD
  8
New Front
 62
1
420
16711680
370
-1
  6
ByLayer
100
AcDbEntity
100
AcDbSpline
 70
8
 71
3
 72
8
 73
4
 74
0
 40
0.0
 40
0.0
 40
0.0
 40
0.0
 40
1.0
 40
1.0
 40
1.0
 40
1.0
 10
330.71211600000072
 20
117.28890099999978
 30
0.0
 10
319.31945400000029
 20
117.60411500000026
 30
0.0
 10
304.62857400000041
 20
118.06893500000007
 30
0.0
 10
298.06498800000031
 20
118.32378200000028
 30
0.0
  0
SPLINE
  5
2BE
  8
New Front
 62
1
420
16711680
370
-1
  6
ByLayer
100
AcDbEntity
100
AcDbSpline
 70
8
 71
3
 72
8
 73
4
 74
0
 40
0.0
 40
0.0
 40
0.0
 40
0.0
 40
1.0
 40
1.0
 40
1.0
 40
1.0
 10
298.06498800000031
 20
118.32378200000028
 30
0.0
 10
291.50383000000068
 20
118.57859999999977
 30
0.0
 10
276.83245100000033
 20
119.29485199999988
 30
0.0
 10
265.464201
 20
119.9160229999996
 30
0.0
  0
LWPOLYLINE
  5
2BF
  8
New Front
 62
1
420
16711680
370
-1
  6
ByLayer
100
AcDbEntity
100
AcDbPolyline
 90
2
 70
0
 10
190.5312100000001
 20
92.272159000000045
 10
190.5312100000001
 20
92.272159000000045
  0
SPLINE
  5
2C0
  8
New Front
 62
1
420
16711680
370
-1
  6
ByLayer
100
AcDbEntity
100
AcDbSpline
 70
8
 71
3
 72
8
 73
4
 74
0
 40
0.0
 40
0.0
 40
0.0
 40
0.0
 40
1.0
 40
1.0
 40
1.0
 40
1.0
 10
148.62431400000071
 20
126.2988180000001
 30
0.0
 10
137.26822800000002
 20
127.02918000000039
 30
0.0
 10
127.97688000000028
 20
134.3288860000003
 30
0.0
 10
127.97687999999926
 20
142.52095099999934
 30
0.0
  0
LWPOLYLINE
  5
2C1
  8
New Front
 62
1
420
16711680
370
-1
  6
ByLayer
100
AcDbEntity
100
AcDbPolyline
 90
2
 70
0
 10
1006.8204440000004
 20
299.27278899999931
 10
1009.0631680000004
 20
296.07927599999948
  0
SPLINE
  5
2C2
  8
New Front
 62
1
420
16711680
370
-1
  6
ByLayer
100
AcDbEntity
100
AcDbSpline
 70
8
 71
3
 72
8
 73
4
 74
0
 40
0.0
 40
0.0
 40
0.0
 40
0.0
 40
1.0
 40
1.0
 40
1.0
 40
1.0
 10
127.97688000000039
 20
753.21696099999997
 30
0.0
 10
127.97688000000039
 20
761.40817900000002
 30
0.0
 10
137.26822800000093
 20
768.70788499999981
 30
0.0
 10
148.62431400000082
 20
769.43740100000014
 30
0.0
  0
LWPOLYLINE
  5
2C3
  8
New Front
 62
1
420
16711680
370
-1
  6
ByLayer
100
AcDbEntity
100
AcDbPolyline
 90
2
 70
0
 10
1020.0170570000001
 20
263.85821800000008
 10
991.44089700000006
 20
142.34230399999956
  0
SPLINE
  5
2C4
  8
New Front
 62
1
420
16711680
370
-1
  6
ByLayer
100
AcDbEntity
100
AcDbSpline
 70
8
 71
3
 72
8
 73
4
 74
0
 40
0.0
 40
0.0
 40
0.0
 40
0.0
 40
1.0
 40
1.0
 40
1.0
 40
1.0
 10
266.50997600000039
 20
775.86478600000009
 30
0.0
 10
277.87825400000031
 20
776.48480000000018
 30
0.0
 10
292.31440000000043
 20
777.16521000000012
 30
0.0
 10
298.58907499999998
 20
777.37546500000008
 30
0.0
  0
SPLINE
  5
2C5
  8
New Front
 62
1
420
16711680
370
-1
  6
ByLayer
100
AcDbEntity
100
AcDbSpline
 70
8
 71
3
 72
8
 73
4
 74
0
 40
0.0
 40
0.0
 40
0.0
 40
0.0
 40
1.0
 40
1.0
 40
1.0
 40
1.0
 10
298.58907499999998
 20
777.37546500000008
 30
0.0
 10
304.86380600000041
 20
777.58826099999987
 30
0.0
 10
319.32066800000052
 20
778.01720999999998
 30
0.0
 10
330.71211600000083
 20
778.33160599999974
 30
0.0
  0
SPLINE
  5
2C6
  8
New Front
 62
1
420
16711680
370
-1
  6
ByLayer
100
AcDbEntity
100
AcDbSpline
 70
8
 71
3
 72
8
 73
4
 74
0
 40
0.0
 40
0.0
 40
0.0
 40
0.0
 40
1.0
 40
1.0
 40
1.0
 40
1.0
 10
330.71211600000083
 20
778.33160599999974
 30
0.0
 10
330.71211600000083
 20
778.33160599999974
 30
0.0
 10
486.85528600000185
 20
782.63648300000023
 30
0.0
 10
571.68053300000133
 20
782.63478899999973
 30
0.0
  0
SPLINE
  5
2C7
  8
New Front
 62
1
420
16711680
370
-1
  6
ByLayer
100
AcDbEntity
100
AcDbSpline
 70
8
 71
3
 72
8
 73
4
 74
0
 40
0.0
 40
0.0
 40
0.0
 40
0.0
 40
1.0
 40
1.0
 40
1.0
 40
1.0
 10
571.68053300000133
 20
782.63478899999973
 30
0.0
 10
774.08789500000046
 20
782.6347889999995
 30
0.0
 10
967.11367400000051
 20
769.35414499999911
 30
0.0
 10
967.11367400000051
 20
769.35414499999911
 30
0.0
  0
SPLINE
  5
2C8
  8
New Front
 62
1
420
16711680
370
-1
  6
ByLayer
100
AcDbEntity
100
AcDbSpline
 70
8
 71
3
 72
8
 73
4
 74
0
 40
0.0
 40
0.0
 40
0.0
 40
0.0
 40
1.0
 40
1.0
 40
1.0
 40
1.0
 10
967.11367400000051
 20
769.35414499999911
 30
0.0
 10
978.46493700000087
 20
768.57298199999946
 30
0.0
 10
989.41149000000075
 20
761.33903400000031
 30
0.0
 10
991.44089700000052
 20
753.27817499999946
 30
0.0
  0
LWPOLYLINE
  5
2C9
  8
New Front
 62
1
420
16711680
370
-1
  6
ByLayer
100
AcDbEntity
100
AcDbPolyline
 90
2
 70
0
 10
265.464201
 20
119.9160229999996
 10
148.62431400000071
 20
126.2988180000001
  0
SPLINE
  5
2CA
  8
New Front
 62
1
420
16711680
370
-1
  6
ByLayer
100
AcDbEntity
100
AcDbSpline
 70
8
 71
3
 72
8
 73
4
 74
0
 40
0.0
 40
0.0
 40
0.0
 40
0.0
 40
1.0
 40
1.0
 40
1.0
 40
1.0
 10
1020.0170570000002
 20
631.76228899999978
 30
0.0
 10
1021.6417870000007
 20
623.65517299999988
 30
0.0
 10
1018.6665640000002
 20
611.88690199999996
 30
0.0
 10
1013.4035200000001
 20
605.61163399999953
 30
0.0
  0
SPLINE
  5
2CB
  8
New Front
 62
1
420
16711680
370
-1
  6
ByLayer
100
AcDbEntity
100
AcDbSpline
 70
8
 71
3
 72
8
 73
4
 74
0
 40
0.0
 40
0.0
 40
0.0
 40
0.0
 40
1.0
 40
1.0
 40
1.0
 40
1.0
 10
1013.4035200000001
 20
605.61163399999953
 30
0.0
 10
1013.4035200000001
 20
605.61163399999953
 30
0.0
 10
1013.4035200000001
 20
605.61163399999953
 30
0.0
 10
1009.0631680000002
 20
599.54038500000001
 30
0.0
  0
LWPOLYLINE
  5
2CC
  8
New Front
 62
1
420
16711680
370
-1
  6
ByLayer
100
AcDbEntity
100
AcDbPolyline
 90
2
 70
0
 10
127.97687999999926
 20
142.52095099999934
 10
127.97688000000039
 20
753.21696099999997
  0
SPLINE
  5
2CD
  8
New Front
 62
1
420
16711680
370
-1
  6
ByLayer
100
AcDbEntity
100
AcDbSpline
 70
8
 71
3
 72
8
 73
4
 74
0
 40
0.0
 40
0.0
 40
0.0
 40
0.0
 40
1.0
 40
1.0
 40
1.0
 40
1.0
 10
1006.8204440000005
 20
596.34771799999976
 30
0.0
 10
982.68825700000036
 20
561.269274
 30
0.0
 10
968.52877000000001
 20
493.80608399999949
 30
0.0
 10
968.52877000000046
 20
447.81080400000019
 30
0.0
  0
LWPOLYLINE
  5
2CE
  8
New Front
 62
1
420
16711680
370
-1
  6
ByLayer
100
AcDbEntity
100
AcDbPolyline
 90
2
 70
0
 10
148.62431400000082
 20
769.43740100000014
 10
266.50997600000039
 20
775.86478600000009
  0
LWPOLYLINE
  5
2CF
  8
New Front
 62
1
420
16711680
370
-1
  6
ByLayer
100
AcDbEntity
100
AcDbPolyline
 90
2
 70
0
 10
991.44089700000052
 20
753.27817499999946
 10
1020.0170570000002
 20
631.76228899999978
  0
LWPOLYLINE
  5
2D0
  8
New Front
 62
1
420
16711680
370
-1
  6
ByLayer
100
AcDbEntity
100
AcDbPolyline
 90
2
 70
0
 10
1009.0631680000002
 20
599.54038500000001
 10
1006.8204440000005
 20
596.34771799999976
  0
LWPOLYLINE
  5
2D1
  8
New Front
 62
1
420
16711680
370
-1
  6
ByLayer
100
AcDbEntity
100
AcDbPolyline
 90
2
 70
0
 10
968.52877000000046
 20
447.81080400000019
 10
968.52877000000046
 20
447.81080400000019
  0
ENDSEC
  0
SECTION
  2
OBJECTS
  0
DICTIONARY
  5
C
100
AcDbDictionary
280
0
281
1
  3
ACAD_GROUP
350
D
  3
ACAD_LAYOUT
350
1A
  3
ACAD_MLINESTYLE
350
17
  3
ACAD_PLOTSETTINGS
350
19
  3
ACAD_PLOTSTYLENAME
350
E
  3
AcDbVariableDictionary
350
2D2
  0
DICTIONARY
  5
D
100
AcDbDictionary
280
0
281
1
  0
ACDBDICTIONARYWDFLT
  5
E
100
AcDbDictionary
281
1
  3
Normal
350
F
100
AcDbDictionaryWithDefault
340
F
  0
ACDBPLACEHOLDER
  5
F
  0
DICTIONARY
  5
17
100
AcDbDictionary
280
0
281
1
  3
Standard
350
18
  0
MLINESTYLE
  5
18
100
AcDbMlineStyle
  2
STANDARD
 70
0
  3

 62
256
 51
90.0
 52
90.0
 71
2
 49
0.5
 62
256
  6
BYLAYER
 49
-0.5
 62
256
  6
BYLAYER
  0
DICTIONARY
  5
19
100
AcDbDictionary
280
0
281
1
  0
DICTIONARY
  5
1A
100
AcDbDictionary
281
1
  3
Layout1
350
1E
  3
Layout2
350
26
  3
Model
350
22
  0
LAYOUT
  5
1E
100
AcDbPlotSettings
  1

  2
C:\Program Files\AutoCAD 2002\plotters\DWF ePlot (optimized for plotting).pc3
  4

  6

 40
0.0
 41
0.0
 42
0.0
 43
0.0
 44
0.0
 45
0.0
 46
0.0
 47
0.0
 48
0.0
 49
0.0
140
0.0
141
0.0
142
1.0
143
1.0
 70
688
 72
0
 73
0
 74
5
  7

 75
16
147
1.0
148
0.0
149
0.0
100
AcDbLayout
  1
Layout1
 70
1
 71
1
 10
0.0
 20
0.0
 11
420.0
 21
297.0
 12
0.0
 22
0.0
 32
0.0
 14
100000000000000000000.0
 24
100000000000000000000.0
 34
100000000000000000000.0
 15
-100000000000000000000.0
 25
-100000000000000000000.0
 35
-100000000000000000000.0
146
0.0
 13
0.0
 23
0.0
 33
0.0
 16
1.0
 26
0.0
 36
0.0
 17
0.0
 27
1.0
 37
0.0
 76
0
330
1B
  0
LAYOUT
  5
22
100
AcDbPlotSettings
  1

  2
C:\Program Files\AutoCAD 2002\plotters\DWF ePlot (optimized for plotting).pc3
  4

  6

 40
0.0
 41
0.0
 42
0.0
 43
0.0
 44
0.0
 45
0.0
 46
0.0
 47
0.0
 48
0.0
 49
0.0
140
0.0
141
0.0
142
1.0
143
1.0
 70
1712
 72
0
 73
0
 74
0
  7

 75
0
147
1.0
148
0.0
149
0.0
100
AcDbLayout
  1
Model
 70
1
 71
0
 10
0.0
 20
0.0
 11
12.0
 21
9.0
 12
0.0
 22
0.0
 32
0.0
 14
0.0
 24
0.0
 34
0.0
 15
0.0
 25
0.0
 35
0.0
146
0.0
 13
0.0
 23
0.0
 33
0.0
 16
1.0
 26
0.0
 36
0.0
 17
0.0
 27
1.0
 37
0.0
 76
0
330
1F
  0
LAYOUT
  5
26
100
AcDbPlotSettings
  1

  2
C:\Program Files\AutoCAD 2002\plotters\DWF ePlot (optimized for plotting).pc3
  4

  6

 40
0.0
 41
0.0
 42
0.0
 43
0.0
 44
0.0
 45
0.0
 46
0.0
 47
0.0
 48
0.0
 49
0.0
140
0.0
141
0.0
142
1.0
143
1.0
 70
688
 72
0
 73
0
 74
5
  7

 75
16
147
1.0
148
0.0
149
0.0
100
AcDbLayout
  1
Layout2
 70
1
 71
2
 10
0.0
 20
0.0
 11
12.0
 21
9.0
 12
0.0
 22
0.0
 32
0.0
 14
0.0
 24
0.0
 34
0.0
 15
0.0
 25
0.0
 35
0.0
146
0.0
 13
0.0
 23
0.0
 33
0.0
 16
1.0
 26
0.0
 36
0.0
 17
0.0
 27
1.0
 37
0.0
 76
0
330
23
  0
DICTIONARY
  5
2D2
100
AcDbDictionary
281
1
  3
DIMASSOC
350
2D4
  3
HIDETEXT
350
2D3
  0
DICTIONARYVAR
  5
2D3
100
DictionaryVariables
280
0
  1
2
  0
DICTIONARYVAR
  5
2D4
100
DictionaryVariables
280
0
  1
1
  0
ENDSEC
  0
EOF
