  0
SECTION
  2
HEADER
  9
$ACADVER
  1
AC1024
  9
$ACADMAINTVER
 70
     6
  9
$DWGCODEPAGE
  3
ASCII
  9
$INSBASE
 10
0.0
 20
0.0
 30
0.0
  9
$EXTMIN
 10
1.000000000000000E+20
 20
1.000000000000000E+20
 30
1.000000000000000E+20
  9
$EXTMAX
 10
-1.000000000000000E+20
 20
-1.000000000000000E+20
 30
-1.000000000000000E+20
  9
$LIMMIN
 10
0.0
 20
0.0
  9
$LIMMAX
 10
12.0
 20
9.0
  9
$ORTHOMODE
 70
     0
  9
$REGENMODE
 70
     1
  9
$FILLMODE
 70
     1
  9
$QTEXTMODE
 70
     0
  9
$MIRRTEXT
 70
     1
  9
$LTSCALE
 40
1.0
  9
$ATTMODE
 70
     1
  9
$TEXTSIZE
 40
0.2
  9
$TRACEWID
 40
0.05
  9
$TEXTSTYLE
  7
Standard
  9
$CLAYER
  8
0
  9
$CELTYPE
  6
ByLayer
  9
$CECOLOR
 62
   256
  9
$CELTSCALE
 40
1.0
  9
$DISPSILH
 70
     0
  9
$DIMSCALE
 40
1.0
  9
$DIMASZ
 40
2.5
  9
$DIMEXO
 40
0.625
  9
$DIMDLI
 40
0.38
  9
$DIMRND
 40
0.0
  9
$DIMDLE
 40
0.0
  9
$DIMEXE
 40
1.25
  9
$DIMTP
 40
0.0
  9
$DIMTM
 40
0.0
  9
$DIMTXT
 40
2.5
  9
$DIMCEN
 40
0.09
  9
$DIMTSZ
 40
0.0
  9
$DIMTOL
 70
     0
  9
$DIMLIM
 70
     0
  9
$DIMTIH
 70
     1
  9
$DIMTOH
 70
     1
  9
$DIMSE1
 70
     0
  9
$DIMSE2
 70
     0
  9
$DIMTAD
 70
     0
  9
$DIMZIN
 70
     8
  9
$DIMBLK
  1

  9
$DIMASO
 70
     1
  9
$DIMSHO
 70
     1
  9
$DIMPOST
  1

  9
$DIMAPOST
  1

  9
$DIMALT
 70
     0
  9
$DIMALTD
 70
     2
  9
$DIMALTF
 40
25.4
  9
$DIMLFAC
 40
1.0
  9
$DIMTOFL
 70
     0
  9
$DIMTVP
 40
0.0
  9
$DIMTIX
 70
     0
  9
$DIMSOXD
 70
     0
  9
$DIMSAH
 70
     0
  9
$DIMBLK1
  1

  9
$DIMBLK2
  1

  9
$DIMSTYLE
  2
Standard
  9
$DIMCLRD
 70
     0
  9
$DIMCLRE
 70
     0
  9
$DIMCLRT
 70
     0
  9
$DIMTFAC
 40
1.0
  9
$DIMGAP
 40
0.625
  9
$DIMJUST
 70
     0
  9
$DIMSD1
 70
     0
  9
$DIMSD2
 70
     0
  9
$DIMTOLJ
 70
     1
  9
$DIMTZIN
 70
     0
  9
$DIMALTZ
 70
     0
  9
$DIMALTTZ
 70
     0
  9
$DIMUPT
 70
     0
  9
$DIMDEC
 70
     4
  9
$DIMTDEC
 70
     4
  9
$DIMALTU
 70
     2
  9
$DIMALTTD
 70
     2
  9
$DIMTXSTY
  7
Standard
  9
$DIMAUNIT
 70
     0
  9
$DIMADEC
 70
     0
  9
$DIMALTRND
 40
0.0
  9
$DIMAZIN
 70
     2
  9
$DIMDSEP
 70
    46
  9
$DIMATFIT
 70
     3
  9
$DIMFRAC
 70
     0
  9
$DIMLDRBLK
  1

  9
$DIMLUNIT
 70
     2
  9
$DIMLWD
 70
    -2
  9
$DIMLWE
 70
    -2
  9
$DIMTMOVE
 70
     0
  9
$DIMFXL
 40
1.0
  9
$DIMFXLON
 70
     0
  9
$DIMJOGANG
 40
0.7853981633974483
  9
$DIMTFILL
 70
     0
  9
$DIMTFILLCLR
 70
     0
  9
$DIMARCSYM
 70
     0
  9
$DIMLTYPE
  6

  9
$DIMLTEX1
  6

  9
$DIMLTEX2
  6

  9
$DIMTXTDIRECTION
 70
     0
  9
$LUNITS
 70
     2
  9
$LUPREC
 70
     4
  9
$SKETCHINC
 40
0.1
  9
$FILLETRAD
 40
0.5
  9
$AUNITS
 70
     0
  9
$AUPREC
 70
     0
  9
$MENU
  1
.
  9
$ELEVATION
 40
0.0
  9
$PELEVATION
 40
0.0
  9
$THICKNESS
 40
0.0
  9
$LIMCHECK
 70
     0
  9
$CHAMFERA
 40
0.5
  9
$CHAMFERB
 40
0.5
  9
$CHAMFERC
 40
1.0
  9
$CHAMFERD
 40
0.0
  9
$SKPOLY
 70
     0
  9
$TDCREATE
 40
2455860.664322315
  9
$TDUCREATE
 40
2455860.830988981
  9
$TDUPDATE
 40
2455860.664322315
  9
$TDUUPDATE
 40
2455860.830988981
  9
$TDINDWG
 40
0.0000000116
  9
$TDUSRTIMER
 40
0.0000000116
  9
$USRTIMER
 70
     1
  9
$ANGBASE
 50
0.0
  9
$ANGDIR
 70
     0
  9
$PDMODE
 70
     0
  9
$PDSIZE
 40
0.0
  9
$PLINEWID
 40
0.0
  9
$SPLFRAME
 70
     0
  9
$SPLINETYPE
 70
     6
  9
$SPLINESEGS
 70
     8
  9
$HANDSEED
  5
152
  9
$SURFTAB1
 70
     6
  9
$SURFTAB2
 70
     6
  9
$SURFTYPE
 70
     6
  9
$SURFU
 70
     6
  9
$SURFV
 70
     6
  9
$UCSBASE
  2

  9
$UCSNAME
  2

  9
$UCSORG
 10
0.0
 20
0.0
 30
0.0
  9
$UCSXDIR
 10
1.0
 20
0.0
 30
0.0
  9
$UCSYDIR
 10
0.0
 20
1.0
 30
0.0
  9
$UCSORTHOREF
  2

  9
$UCSORTHOVIEW
 70
     0
  9
$UCSORGTOP
 10
0.0
 20
0.0
 30
0.0
  9
$UCSORGBOTTOM
 10
0.0
 20
0.0
 30
0.0
  9
$UCSORGLEFT
 10
0.0
 20
0.0
 30
0.0
  9
$UCSORGRIGHT
 10
0.0
 20
0.0
 30
0.0
  9
$UCSORGFRONT
 10
0.0
 20
0.0
 30
0.0
  9
$UCSORGBACK
 10
0.0
 20
0.0
 30
0.0
  9
$PUCSBASE
  2

  9
$PUCSNAME
  2

  9
$PUCSORG
 10
0.0
 20
0.0
 30
0.0
  9
$PUCSXDIR
 10
1.0
 20
0.0
 30
0.0
  9
$PUCSYDIR
 10
0.0
 20
1.0
 30
0.0
  9
$PUCSORTHOREF
  2

  9
$PUCSORTHOVIEW
 70
     0
  9
$PUCSORGTOP
 10
0.0
 20
0.0
 30
0.0
  9
$PUCSORGBOTTOM
 10
0.0
 20
0.0
 30
0.0
  9
$PUCSORGLEFT
 10
0.0
 20
0.0
 30
0.0
  9
$PUCSORGRIGHT
 10
0.0
 20
0.0
 30
0.0
  9
$PUCSORGFRONT
 10
0.0
 20
0.0
 30
0.0
  9
$PUCSORGBACK
 10
0.0
 20
0.0
 30
0.0
  9
$USERI1
 70
     0
  9
$USERI2
 70
     0
  9
$USERI3
 70
     0
  9
$USERI4
 70
     0
  9
$USERI5
 70
     0
  9
$USERR1
 40
0.0
  9
$USERR2
 40
0.0
  9
$USERR3
 40
0.0
  9
$USERR4
 40
0.0
  9
$USERR5
 40
0.0
  9
$WORLDVIEW
 70
     1
  9
$SHADEDGE
 70
     3
  9
$SHADEDIF
 70
    70
  9
$TILEMODE
 70
     1
  9
$MAXACTVP
 70
    64
  9
$PINSBASE
 10
0.0
 20
0.0
 30
0.0
  9
$PLIMCHECK
 70
     0
  9
$PEXTMIN
 10
1.000000000000000E+20
 20
1.000000000000000E+20
 30
1.000000000000000E+20
  9
$PEXTMAX
 10
-1.000000000000000E+20
 20
-1.000000000000000E+20
 30
-1.000000000000000E+20
  9
$PLIMMIN
 10
0.0
 20
0.0
  9
$PLIMMAX
 10
12.0
 20
9.0
  9
$UNITMODE
 70
     0
  9
$VISRETAIN
 70
     1
  9
$PLINEGEN
 70
     0
  9
$PSLTSCALE
 70
     1
  9
$TREEDEPTH
 70
  3020
  9
$CMLSTYLE
  2
Standard
  9
$CMLJUST
 70
     0
  9
$CMLSCALE
 40
1.0
  9
$PROXYGRAPHICS
 70
     1
  9
$MEASUREMENT
 70
     1
  9
$CELWEIGHT
370
    -1
  9
$ENDCAPS
280
     0
  9
$JOINSTYLE
280
     0
  9
$LWDISPLAY
290
     0
  9
$INSUNITS
 70
     4
  9
$HYPERLINKBASE
  1

  9
$STYLESHEET
  1

  9
$XEDIT
290
     1
  9
$CEPSNTYPE
380
     0
  9
$PSTYLEMODE
290
     1
  9
$FINGERPRINTGUID
  2
{DC8E4DA6-ABC0-401D-8D60-EC29543DEB63}
  9
$VERSIONGUID
  2
{FAEB1C32-E019-11D5-929B-00C0DF256EC4}
  9
$EXTNAMES
290
     1
  9
$PSVPSCALE
 40
0.0
  9
$OLESTARTUP
290
     0
  9
$SORTENTS
280
   127
  9
$INDEXCTL
280
     0
  9
$HIDETEXT
280
     1
  9
$XCLIPFRAME
280
     2
  9
$HALOGAP
280
     0
  9
$OBSCOLOR
 70
   257
  9
$OBSLTYPE
280
     0
  9
$INTERSECTIONDISPLAY
280
     0
  9
$INTERSECTIONCOLOR
 70
   257
  9
$DIMASSOC
280
     2
  9
$PROJECTNAME
  1

  9
$CAMERADISPLAY
290
     0
  9
$LENSLENGTH
 40
50.0
  9
$CAMERAHEIGHT
 40
0.0
  9
$STEPSPERSEC
 40
2.0
  9
$STEPSIZE
 40
6.0
  9
$3DDWFPREC
 40
2.0
  9
$PSOLWIDTH
 40
0.25
  9
$PSOLHEIGHT
 40
4.0
  9
$LOFTANG1
 40
1.570796326794897
  9
$LOFTANG2
 40
1.570796326794897
  9
$LOFTMAG1
 40
0.0
  9
$LOFTMAG2
 40
0.0
  9
$LOFTPARAM
 70
     7
  9
$LOFTNORMALS
280
     1
  9
$LATITUDE
 40
37.795
  9
$LONGITUDE
 40
-122.394
  9
$NORTHDIRECTION
 40
0.0
  9
$TIMEZONE
 70
 -8000
  9
$LIGHTGLYPHDISPLAY
280
     1
  9
$TILEMODELIGHTSYNCH
280
     1
  9
$SOLIDHIST
280
     1
  9
$SHOWHIST
280
     1
  9
$DWFFRAME
280
     2
  9
$DGNFRAME
280
     2
  9
$REALWORLDSCALE
290
     1
  9
$INTERFERECOLOR
 62
   256
  9
$CSHADOW
280
     0
  9
$SHADOWPLANELOCATION
 40
0.0
  0
ENDSEC
  0
SECTION
  2
CLASSES
  0
CLASS
  1
ACDBDICTIONARYWDFLT
  2
AcDbDictionaryWithDefault
  3
ObjectDBX Classes
 90
        0
 91
        4
280
     0
281
     0
  0
CLASS
  1
VISUALSTYLE
  2
AcDbVisualStyle
  3
ObjectDBX Classes
 90
     4095
 91
        4
280
     0
281
     0
  0
CLASS
  1
MATERIAL
  2
AcDbMaterial
  3
ObjectDBX Classes
 90
     1153
 91
        4
280
     0
281
     0
  0
ENDSEC
  0
SECTION
  2
TABLES
  0
TABLE
  2
VPORT
  5
103
330
0
100
AcDbSymbolTable
 70
     1
  0
VPORT
  5
123
330
103
100
AcDbSymbolTableRecord
100
AcDbViewportTableRecord
  2
*Active
 70
     0
 10
0.0
 20
0.0
 11
1.0
 21
1.0
 12
10.42990654205607
 22
4.5
 13
0.0
 23
0.0
 14
0.5
 24
0.5
 15
0.5
 25
0.5
 16
0.0
 26
0.0
 36
1.0
 17
0.0
 27
0.0
 37
0.0
 40
9.0
 41
1.972972972850329
 42
50.0
 43
0.0
 44
0.0
 50
0.0
 51
0.0
 71
     0
 72
   100
 73
     1
 74
     3
 75
     0
 76
     0
 77
     0
 78
     0
281
     0
 65
     1
110
0.0
120
0.0
130
0.0
111
1.0
121
0.0
131
0.0
112
0.0
122
1.0
132
0.0
 79
     0
146
0.0
 60
     3
 61
     5
292
     1
282
     1
141
0.0
142
0.0
 63
   250
  0
ENDTAB
  0
TABLE
  2
LTYPE
  5
100
330
0
100
AcDbSymbolTable
 70
    19
  0
LTYPE
  5
10E
330
100
100
AcDbSymbolTableRecord
100
AcDbLinetypeTableRecord
  2
ByBlock
 70
     0
  3

 72
    65
 73
     0
 40
0.0
  0
LTYPE
  5
10F
330
100
100
AcDbSymbolTableRecord
100
AcDbLinetypeTableRecord
  2
ByLayer
 70
     0
  3

 72
    65
 73
     0
 40
0.0
  0
LTYPE
  5
110
330
100
100
AcDbSymbolTableRecord
100
AcDbLinetypeTableRecord
  2
Continuous
 70
     0
  3
Solid line
 72
    65
 73
     0
 40
0.0
  0
LTYPE
  5
13E
330
100
100
AcDbSymbolTableRecord
100
AcDbLinetypeTableRecord
  2
BORDER
 70
     0
  3

 72
    65
 73
     6
 40
42.00000000000001
 49
12.0
 74
     0
 49
-6.0
 74
     0
 49
12.0
 74
     0
 49
-5.95
 74
     0
 49
0.1
 74
     0
 49
-5.95
 74
     0
  0
LTYPE
  5
13F
330
100
100
AcDbSymbolTableRecord
100
AcDbLinetypeTableRecord
  2
BORDER2
 70
     0
  3

 72
    65
 73
     6
 40
21.0
 49
6.0
 74
     0
 49
-3.0
 74
     0
 49
6.0
 74
     0
 49
-2.95
 74
     0
 49
0.1
 74
     0
 49
-2.95
 74
     0
  0
LTYPE
  5
140
330
100
100
AcDbSymbolTableRecord
100
AcDbLinetypeTableRecord
  2
BORDERX2
 70
     0
  3

 72
    65
 73
     6
 40
84.0
 49
24.0
 74
     0
 49
-12.0
 74
     0
 49
24.0
 74
     0
 49
-11.95
 74
     0
 49
0.1
 74
     0
 49
-11.95
 74
     0
  0
LTYPE
  5
141
330
100
100
AcDbSymbolTableRecord
100
AcDbLinetypeTableRecord
  2
CENTER
 70
     0
  3

 72
    65
 73
     4
 40
50.0
 49
32.0
 74
     0
 49
-6.0
 74
     0
 49
6.0
 74
     0
 49
-6.0
 74
     0
  0
LTYPE
  5
142
330
100
100
AcDbSymbolTableRecord
100
AcDbLinetypeTableRecord
  2
CENTER2
 70
     0
  3

 72
    65
 73
     4
 40
25.0
 49
16.0
 74
     0
 49
-3.0
 74
     0
 49
3.0
 74
     0
 49
-3.0
 74
     0
  0
LTYPE
  5
143
330
100
100
AcDbSymbolTableRecord
100
AcDbLinetypeTableRecord
  2
CENTERX2
 70
     0
  3

 72
    65
 73
     4
 40
100.0
 49
64.0
 74
     0
 49
-12.0
 74
     0
 49
12.0
 74
     0
 49
-12.0
 74
     0
  0
LTYPE
  5
144
330
100
100
AcDbSymbolTableRecord
100
AcDbLinetypeTableRecord
  2
DASHDOT
 70
     0
  3

 72
    65
 73
     4
 40
24.0
 49
12.0
 74
     0
 49
-5.95
 74
     0
 49
0.1
 74
     0
 49
-5.95
 74
     0
  0
LTYPE
  5
145
330
100
100
AcDbSymbolTableRecord
100
AcDbLinetypeTableRecord
  2
DASHDOT2
 70
     0
  3

 72
    65
 73
     4
 40
12.0
 49
6.0
 74
     0
 49
-2.95
 74
     0
 49
0.1
 74
     0
 49
-2.95
 74
     0
  0
LTYPE
  5
146
330
100
100
AcDbSymbolTableRecord
100
AcDbLinetypeTableRecord
  2
DASHDOTX2
 70
     0
  3

 72
    65
 73
     4
 40
48.0
 49
24.0
 74
     0
 49
-11.95
 74
     0
 49
0.1
 74
     0
 49
-11.95
 74
     0
  0
LTYPE
  5
147
330
100
100
AcDbSymbolTableRecord
100
AcDbLinetypeTableRecord
  2
DASHED
 70
     0
  3

 72
    65
 73
     2
 40
18.0
 49
12.0
 74
     0
 49
-6.0
 74
     0
  0
LTYPE
  5
148
330
100
100
AcDbSymbolTableRecord
100
AcDbLinetypeTableRecord
  2
DASHED2
 70
     0
  3

 72
    65
 73
     2
 40
9.0
 49
6.0
 74
     0
 49
-3.0
 74
     0
  0
LTYPE
  5
149
330
100
100
AcDbSymbolTableRecord
100
AcDbLinetypeTableRecord
  2
DASHEDX2
 70
     0
  3

 72
    65
 73
     2
 40
36.0
 49
24.0
 74
     0
 49
-12.0
 74
     0
  0
LTYPE
  5
14A
330
100
100
AcDbSymbolTableRecord
100
AcDbLinetypeTableRecord
  2
DIVIDE
 70
     0
  3

 72
    65
 73
     6
 40
29.99999999999999
 49
12.0
 74
     0
 49
-5.9
 74
     0
 49
0.15
 74
     0
 49
-5.9
 74
     0
 49
0.15
 74
     0
 49
-5.9
 74
     0
  0
LTYPE
  5
14B
330
100
100
AcDbSymbolTableRecord
100
AcDbLinetypeTableRecord
  2
DIVIDE2
 70
     0
  3

 72
    65
 73
     6
 40
15.0
 49
6.0
 74
     0
 49
-2.9
 74
     0
 49
0.15
 74
     0
 49
-2.9
 74
     0
 49
0.15
 74
     0
 49
-2.9
 74
     0
  0
LTYPE
  5
14C
330
100
100
AcDbSymbolTableRecord
100
AcDbLinetypeTableRecord
  2
DIVIDEX2
 70
     0
  3

 72
    65
 73
     6
 40
59.99999999999999
 49
24.0
 74
     0
 49
-11.9
 74
     0
 49
0.15
 74
     0
 49
-11.9
 74
     0
 49
0.15
 74
     0
 49
-11.9
 74
     0
  0
LTYPE
  5
14D
330
100
100
AcDbSymbolTableRecord
100
AcDbLinetypeTableRecord
  2
DOT
 70
     0
  3

 72
    65
 73
     2
 40
6.3
 49
0.1
 74
     0
 49
-6.2
 74
     0
  0
LTYPE
  5
14E
330
100
100
AcDbSymbolTableRecord
100
AcDbLinetypeTableRecord
  2
DOT2
 70
     0
  3

 72
    65
 73
     2
 40
3.2
 49
0.1
 74
     0
 49
-3.1
 74
     0
  0
LTYPE
  5
14F
330
100
100
AcDbSymbolTableRecord
100
AcDbLinetypeTableRecord
  2
DOTX2
 70
     0
  3

 72
    65
 73
     2
 40
12.5
 49
0.1
 74
     0
 49
-12.4
 74
     0
  0
ENDTAB
  0
TABLE
  2
LAYER
  5
FD
330
0
100
AcDbSymbolTable
 70
     1
  0
LAYER
  5
10B
330
FD
100
AcDbSymbolTableRecord
100
AcDbLayerTableRecord
  2
0
 70
     0
 62
     7
420
 16777215
  6
Continuous
370
    25
390
10A
347
138
  0
ENDTAB
  0
TABLE
  2
STYLE
  5
FE
330
0
100
AcDbSymbolTable
 70
     1
  0
STYLE
  5
10C
330
FE
100
AcDbSymbolTableRecord
100
AcDbTextStyleTableRecord
  2
Standard
 70
     0
 40
0.0
 41
1.0
 50
0.0
 71
     0
 42
0.2
  3
txt
  4

  0
ENDTAB
  0
TABLE
  2
VIEW
  5
101
330
0
100
AcDbSymbolTable
 70
     0
  0
ENDTAB
  0
TABLE
  2
UCS
  5
102
330
0
100
AcDbSymbolTable
 70
     0
  0
ENDTAB
  0
TABLE
  2
APPID
  5
104
330
0
100
AcDbSymbolTable
 70
     2
  0
APPID
  5
10D
330
104
100
AcDbSymbolTableRecord
100
AcDbRegAppTableRecord
  2
ACAD
 70
     0
  0
APPID
  5
139
330
104
100
AcDbSymbolTableRecord
100
AcDbRegAppTableRecord
  2
QCAD
 70
     0
  0
ENDTAB
  0
TABLE
  2
DIMSTYLE
  5
105
330
0
100
AcDbSymbolTable
 70
     2
100
AcDbDimStyleTable
  0
DIMSTYLE
105
121
330
105
100
AcDbSymbolTableRecord
100
AcDbDimStyleTableRecord
  2
Standard
 70
     0
178
     0
340
10C
  0
DIMSTYLE
105
13D
330
105
100
AcDbSymbolTableRecord
100
AcDbDimStyleTableRecord
  2
QCADDimStyle
 70
     0
 41
2.5
 42
0.625
 44
1.25
 73
     0
 77
     1
140
2.5
147
0.625
178
     0
340
10C
  0
ENDTAB
  0
TABLE
  2
BLOCK_RECORD
  5
FC
330
0
100
AcDbSymbolTable
 70
     1
  0
BLOCK_RECORD
  5
119
330
FC
100
AcDbSymbolTableRecord
100
AcDbBlockTableRecord
  2
*Model_Space
340
11C
 70
     0
280
     1
281
     0
  0
BLOCK_RECORD
  5
115
330
FC
100
AcDbSymbolTableRecord
100
AcDbBlockTableRecord
  2
*Paper_Space
340
118
 70
     0
280
     1
281
     0
  0
BLOCK_RECORD
  5
11D
330
FC
100
AcDbSymbolTableRecord
100
AcDbBlockTableRecord
  2
*Paper_Space0
340
120
 70
     0
280
     1
281
     0
  0
ENDTAB
  0
ENDSEC
  0
SECTION
  2
BLOCKS
  0
BLOCK
  5
11A
330
119
100
AcDbEntity
  8
0
100
AcDbBlockBegin
  2
*Model_Space
 70
     0
 10
0.0
 20
0.0
 30
0.0
  3
*Model_Space
  1

  0
ENDBLK
  5
11B
330
119
100
AcDbEntity
  8
0
100
AcDbBlockEnd
  0
BLOCK
  5
116
330
115
100
AcDbEntity
 67
     1
  8
0
100
AcDbBlockBegin
  2
*Paper_Space
 70
     0
 10
0.0
 20
0.0
 30
0.0
  3
*Paper_Space
  1

  0
ENDBLK
  5
117
330
115
100
AcDbEntity
 67
     1
  8
0
100
AcDbBlockEnd
  0
BLOCK
  5
11E
330
11D
100
AcDbEntity
  8
0
100
AcDbBlockBegin
  2
*Paper_Space0
 70
     0
 10
0.0
 20
0.0
 30
0.0
  3
*Paper_Space0
  1

  0
ENDBLK
  5
11F
330
11D
100
AcDbEntity
  8
0
100
AcDbBlockEnd
  0
ENDSEC
  0
SECTION
  2
ENTITIES
  0
LWPOLYLINE
  5
17
330
119
100
AcDbEntity
  8
0
 62
     7
420
 16777215
100
AcDbPolyline
 90
        2
 70
     0
 43
0.0
 10
144.059405625
 20
34.98874812500003
 10
140.0006968749999
 20
34.98874812500003
  0
LWPOLYLINE
  5
18
330
119
100
AcDbEntity
  8
0
 62
     7
420
 16777215
100
AcDbPolyline
 90
        2
 70
     0
 43
0.0
 10
-84.06152187500004
 20
24.98855687499997
 10
-80.00246062500003
 20
24.98855687499997
  0
LWPOLYLINE
  5
19
330
119
100
AcDbEntity
  8
0
 62
     7
420
 16777215
100
AcDbPolyline
 90
        2
 70
     0
 43
0.0
 10
144.059405625
 20
24.98855687499997
 10
140.0006968749999
 20
24.98855687499997
  0
LWPOLYLINE
  5
1A
330
119
100
AcDbEntity
  8
0
 62
     7
420
 16777215
100
AcDbPolyline
 90
        2
 70
     0
 43
0.0
 10
144.059405625
 20
14.98871812499999
 10
140.0006968749999
 20
14.98871812499999
  0
LWPOLYLINE
  5
1B
330
119
100
AcDbEntity
  8
0
 62
     7
420
 16777215
100
AcDbPolyline
 90
        2
 70
     0
 43
0.0
 10
-84.06152187500004
 20
14.98871812499999
 10
-80.00246062500003
 20
14.98871812499999
  0
LWPOLYLINE
  5
1C
330
119
100
AcDbEntity
  8
0
 62
     7
420
 16777215
100
AcDbPolyline
 90
        2
 70
     0
 43
0.0
 10
-84.06152187500004
 20
4.988525625000079
 10
-80.00246062500003
 20
4.988525625000079
  0
LWPOLYLINE
  5
1D
330
119
100
AcDbEntity
  8
0
 62
     7
420
 16777215
100
AcDbPolyline
 90
        2
 70
     0
 43
0.0
 10
144.059405625
 20
4.988525625000079
 10
140.0006968749999
 20
4.988525625000079
  0
LWPOLYLINE
  5
1E
330
119
100
AcDbEntity
  8
0
 62
     7
420
 16777215
100
AcDbPolyline
 90
        2
 70
     0
 43
0.0
 10
-84.06152187500004
 20
-5.011313124999901
 10
-80.00246062500003
 20
-5.011313124999901
  0
LWPOLYLINE
  5
1F
330
119
100
AcDbEntity
  8
0
 62
     7
420
 16777215
100
AcDbPolyline
 90
        2
 70
     0
 43
0.0
 10
144.059405625
 20
-5.011313124999901
 10
140.0006968749999
 20
-5.011313124999901
  0
LWPOLYLINE
  5
20
330
119
100
AcDbEntity
  8
0
 62
     7
420
 16777215
100
AcDbPolyline
 90
        2
 70
     0
 43
0.0
 10
-84.06152187500004
 20
-15.01221062499997
 10
-80.00246062500003
 20
-15.01221062499997
  0
LWPOLYLINE
  5
21
330
119
100
AcDbEntity
  8
0
 62
     7
420
 16777215
100
AcDbPolyline
 90
        2
 70
     0
 43
0.0
 10
144.059405625
 20
-15.01221062499997
 10
140.0006968749999
 20
-15.01221062499997
  0
LWPOLYLINE
  5
22
330
119
100
AcDbEntity
  8
0
 62
     7
420
 16777215
100
AcDbPolyline
 90
        2
 70
     0
 43
0.0
 10
144.059405625
 20
-25.0116956249999
 10
140.0006968749999
 20
-25.0116956249999
  0
LWPOLYLINE
  5
23
330
119
100
AcDbEntity
  8
0
 62
     7
420
 16777215
100
AcDbPolyline
 90
        2
 70
     0
 43
0.0
 10
-84.06152187500004
 20
-25.0116956249999
 10
-80.00246062500003
 20
-25.0116956249999
  0
LWPOLYLINE
  5
24
330
119
100
AcDbEntity
  8
0
 62
     7
420
 16777215
100
AcDbPolyline
 90
        2
 70
     0
 43
0.0
 10
-84.06152187500004
 20
-35.012240625
 10
-80.00246062500003
 20
-35.012240625
  0
LWPOLYLINE
  5
25
330
119
100
AcDbEntity
  8
0
 62
     7
420
 16777215
100
AcDbPolyline
 90
        2
 70
     0
 43
0.0
 10
144.059405625
 20
-35.012240625
 10
140.0006968749999
 20
-35.012240625
  0
LWPOLYLINE
  5
26
330
119
100
AcDbEntity
  8
0
 62
     7
420
 16777215
100
AcDbPolyline
 90
        2
 70
     0
 43
0.0
 10
-84.06152187500004
 20
-45.01207937499998
 10
-80.00246062500003
 20
-45.01207937499998
  0
LWPOLYLINE
  5
27
330
119
100
AcDbEntity
  8
0
 62
     7
420
 16777215
100
AcDbPolyline
 90
        2
 70
     0
 43
0.0
 10
144.059405625
 20
-45.01207937499998
 10
140.0006968749999
 20
-45.01207937499998
  0
LWPOLYLINE
  5
28
330
119
100
AcDbEntity
  8
0
 62
     7
420
 16777215
100
AcDbPolyline
 90
        2
 70
     0
 43
0.0
 10
144.059405625
 20
-55.01227062499993
 10
140.0006968749999
 20
-55.01227062499993
  0
LWPOLYLINE
  5
29
330
119
100
AcDbEntity
  8
0
 62
     7
420
 16777215
100
AcDbPolyline
 90
        2
 70
     0
 43
0.0
 10
-84.06152187500004
 20
-55.01227062499993
 10
-80.00246062500003
 20
-55.01227062499993
  0
LWPOLYLINE
  5
2A
330
119
100
AcDbEntity
  8
0
 62
     7
420
 16777215
100
AcDbPolyline
 90
        2
 70
     0
 43
0.0
 10
-84.06152187500004
 20
-65.01211062499988
 10
-80.00246062500003
 20
-65.01211062499988
  0
LWPOLYLINE
  5
2B
330
119
100
AcDbEntity
  8
0
 62
     7
420
 16777215
100
AcDbPolyline
 90
        2
 70
     0
 43
0.0
 10
144.059405625
 20
-65.01211062499988
 10
140.0006968749999
 20
-65.01211062499988
  0
LWPOLYLINE
  5
2C
330
119
100
AcDbEntity
  8
0
 62
     7
420
 16777215
100
AcDbPolyline
 90
        2
 70
     0
 43
0.0
 10
-84.06152187500004
 20
-75.01265437500001
 10
-80.00246062500003
 20
-75.01265437500001
  0
LWPOLYLINE
  5
2D
330
119
100
AcDbEntity
  8
0
 62
     7
420
 16777215
100
AcDbPolyline
 90
        2
 70
     0
 43
0.0
 10
144.059405625
 20
-75.01265437500001
 10
140.0006968749999
 20
-75.01265437500001
  0
LWPOLYLINE
  5
2E
330
119
100
AcDbEntity
  8
0
 62
     7
420
 16777215
100
AcDbPolyline
 90
        2
 70
     0
 43
0.0
 10
144.059405625
 20
-85.01249312499999
 10
140.0006968749999
 20
-85.01249312499999
  0
LWPOLYLINE
  5
2F
330
119
100
AcDbEntity
  8
0
 62
     7
420
 16777215
100
AcDbPolyline
 90
        2
 70
     0
 43
0.0
 10
-84.06152187500004
 20
-85.01249312499999
 10
-80.00246062500003
 20
-85.01249312499999
  0
LWPOLYLINE
  5
30
330
119
100
AcDbEntity
  8
0
 62
     7
420
 16777215
100
AcDbPolyline
 90
        2
 70
     0
 43
0.0
 10
-84.06152187500004
 20
-95.01268562500002
 10
-80.00246062500003
 20
-95.01268562500002
  0
LWPOLYLINE
  5
31
330
119
100
AcDbEntity
  8
0
 62
     7
420
 16777215
100
AcDbPolyline
 90
        2
 70
     0
 43
0.0
 10
144.059405625
 20
-95.01268562500002
 10
140.0006968749999
 20
-95.01268562500002
  0
LWPOLYLINE
  5
32
330
119
100
AcDbEntity
  8
0
 62
     7
420
 16777215
100
AcDbPolyline
 90
        2
 70
     0
 43
0.0
 10
-84.06152187500004
 20
-105.0121706250001
 10
-80.00246062500003
 20
-105.0121706250001
  0
LWPOLYLINE
  5
33
330
119
100
AcDbEntity
  8
0
 62
     7
420
 16777215
100
AcDbPolyline
 90
        2
 70
     0
 43
0.0
 10
144.059405625
 20
-105.0121706250001
 10
140.0006968749999
 20
-105.0121706250001
  0
SPLINE
  5
34
330
119
100
AcDbEntity
  8
0
 62
     7
420
 16777215
100
AcDbSpline
210
0.0
220
0.0
230
1.0
 70
     8
 71
     3
 72
     8
 73
     4
 74
     0
 42
0.000000001
 43
0.001
 12
1.0
 22
0.0
 32
0.0
 13
1.0
 23
0.0
 33
0.0
 40
0.0
 40
0.0
 40
0.0
 40
0.0
 40
1.0
 40
1.0
 40
1.0
 40
1.0
 10
109.6092443749999
 20
-122.5431106249999
 30
0.0
 10
109.6092443749999
 20
-122.2862881249999
 30
0.0
 10
109.4540218750001
 20
-122.104960625
 30
0.0
 10
109.2127218749999
 20
-122.104960625
 30
0.0
  0
SPLINE
  5
35
330
119
100
AcDbEntity
  8
0
 62
     7
420
 16777215
100
AcDbSpline
210
0.0
220
0.0
230
1.0
 70
     8
 71
     3
 72
     8
 73
     4
 74
     0
 42
0.000000001
 43
0.001
 12
1.0
 22
0.0
 32
0.0
 13
1.0
 23
0.0
 33
0.0
 40
0.0
 40
0.0
 40
0.0
 40
0.0
 40
1.0
 40
1.0
 40
1.0
 40
1.0
 10
109.2127218749999
 20
-122.104960625
 30
0.0
 10
109.0253968750001
 20
-122.104960625
 30
0.0
 10
108.8786418750001
 20
-122.197388125
 30
0.0
 10
108.8063218750001
 20
-122.321213125
 30
0.0
  0
SPLINE
  5
36
330
119
100
AcDbEntity
  8
0
 62
     7
420
 16777215
100
AcDbSpline
210
0.0
220
0.0
230
1.0
 70
     8
 71
     3
 72
     8
 73
     4
 74
     0
 42
0.000000001
 43
0.001
 12
1.0
 22
0.0
 32
0.0
 13
1.0
 23
0.0
 33
0.0
 40
0.0
 40
0.0
 40
0.0
 40
0.0
 40
1.0
 40
1.0
 40
1.0
 40
1.0
 10
108.8063218750001
 20
-122.321213125
 30
0.0
 10
108.7897418749999
 20
-122.349788125
 30
0.0
 10
108.780216875
 20
-122.378363125
 30
0.0
 10
108.780216875
 20
-122.4259881249999
 30
0.0
  0
SPLINE
  5
37
330
119
100
AcDbEntity
  8
0
 62
     7
420
 16777215
100
AcDbSpline
210
0.0
220
0.0
230
1.0
 70
     8
 71
     3
 72
     8
 73
     4
 74
     0
 42
0.000000001
 43
0.001
 12
1.0
 22
0.0
 32
0.0
 13
1.0
 23
0.0
 33
0.0
 40
0.0
 40
0.0
 40
0.0
 40
0.0
 40
1.0
 40
1.0
 40
1.0
 40
1.0
 10
108.780216875
 20
-122.4259881249999
 30
0.0
 10
108.780216875
 20
-122.7780606249999
 30
0.0
 10
108.9107443749999
 20
-123.0479356249999
 30
0.0
 10
109.2056668749999
 20
-123.0479356249999
 30
0.0
  0
SPLINE
  5
38
330
119
100
AcDbEntity
  8
0
 62
     7
420
 16777215
100
AcDbSpline
210
0.0
220
0.0
230
1.0
 70
     8
 71
     3
 72
     8
 73
     4
 74
     0
 42
0.000000001
 43
0.001
 12
1.0
 22
0.0
 32
0.0
 13
1.0
 23
0.0
 33
0.0
 40
0.0
 40
0.0
 40
0.0
 40
0.0
 40
1.0
 40
1.0
 40
1.0
 40
1.0
 10
109.2056668749999
 20
-123.0479356249999
 30
0.0
 10
109.4413218750001
 20
-123.047581875
 30
0.0
 10
109.6092443749999
 20
-122.838738125
 30
0.0
 10
109.6092443749999
 20
-122.5431106249999
 30
0.0
  0
LWPOLYLINE
  5
39
330
119
100
AcDbEntity
  8
0
 62
     7
420
 16777215
100
AcDbPolyline
 90
        2
 70
     0
 43
0.0
 10
-84.06152187500004
 20
-115.0127156249999
 10
144.059405625
 20
-115.0127156249999
  0
SPLINE
  5
3A
330
119
100
AcDbEntity
  8
0
 62
     7
420
 16777215
100
AcDbSpline
210
0.0
220
0.0
230
1.0
 70
     8
 71
     3
 72
     8
 73
     4
 74
     0
 42
0.000000001
 43
0.001
 12
1.0
 22
0.0
 32
0.0
 13
1.0
 23
0.0
 33
0.0
 40
0.0
 40
0.0
 40
0.0
 40
0.0
 40
1.0
 40
1.0
 40
1.0
 40
1.0
 10
99.55684187499992
 20
-122.730788125
 30
0.0
 10
99.55966437500001
 20
-122.5247656249999
 30
0.0
 10
99.40091437499996
 20
-122.4129356249999
 30
0.0
 10
99.16208312499998
 20
-122.349788125
 30
0.0
  0
SPLINE
  5
3B
330
119
100
AcDbEntity
  8
0
 62
     7
420
 16777215
100
AcDbSpline
210
0.0
220
0.0
230
1.0
 70
     8
 71
     3
 72
     8
 73
     4
 74
     0
 42
0.000000001
 43
0.001
 12
1.0
 22
0.0
 32
0.0
 13
1.0
 23
0.0
 33
0.0
 40
0.0
 40
0.0
 40
0.0
 40
0.0
 40
1.0
 40
1.0
 40
1.0
 40
1.0
 10
99.16208312499998
 20
-122.349788125
 30
0.0
 10
98.98498937499994
 20
-122.410113125
 30
0.0
 10
98.84811187500009
 20
-122.537113125
 30
0.0
 10
98.84811187500009
 20
-122.724438125
 30
0.0
  0
SPLINE
  5
3C
330
119
100
AcDbEntity
  8
0
 62
     7
420
 16777215
100
AcDbSpline
210
0.0
220
0.0
230
1.0
 70
     8
 71
     3
 72
     8
 73
     4
 74
     0
 42
0.000000001
 43
0.001
 12
1.0
 22
0.0
 32
0.0
 13
1.0
 23
0.0
 33
0.0
 40
0.0
 40
0.0
 40
0.0
 40
0.0
 40
1.0
 40
1.0
 40
1.0
 40
1.0
 10
98.84811187500009
 20
-122.724438125
 30
0.0
 10
98.84811187500009
 20
-122.8898906249999
 30
0.0
 10
98.94618312500006
 20
-123.061340625
 30
0.0
 10
99.19736187500007
 20
-123.061340625
 30
0.0
  0
SPLINE
  5
3D
330
119
100
AcDbEntity
  8
0
 62
     7
420
 16777215
100
AcDbSpline
210
0.0
220
0.0
230
1.0
 70
     8
 71
     3
 72
     8
 73
     4
 74
     0
 42
0.000000001
 43
0.001
 12
1.0
 22
0.0
 32
0.0
 13
1.0
 23
0.0
 33
0.0
 40
0.0
 40
0.0
 40
0.0
 40
0.0
 40
1.0
 40
1.0
 40
1.0
 40
1.0
 10
99.19736187500007
 20
-123.061340625
 30
0.0
 10
99.42913687500004
 20
-123.060988125
 30
0.0
 10
99.55684187499992
 20
-122.9085881249999
 30
0.0
 10
99.55684187499992
 20
-122.730788125
 30
0.0
  0
LWPOLYLINE
  5
3E
330
119
100
AcDbEntity
  8
0
 62
     7
420
 16777215
100
AcDbPolyline
 90
        2
 70
     0
 43
0.0
 10
109.6092443749999
 20
-122.5431106249999
 10
109.6092443749999
 20
-122.5431106249999
  0
SPLINE
  5
3F
330
119
100
AcDbEntity
  8
0
 62
     7
420
 16777215
100
AcDbSpline
210
0.0
220
0.0
230
1.0
 70
     8
 71
     3
 72
     8
 73
     4
 74
     0
 42
0.000000001
 43
0.001
 12
1.0
 22
0.0
 32
0.0
 13
1.0
 23
0.0
 33
0.0
 40
0.0
 40
0.0
 40
0.0
 40
0.0
 40
1.0
 40
1.0
 40
1.0
 40
1.0
 10
10.42471437500001
 20
-122.5431106249999
 30
0.0
 10
10.42471437500001
 20
-122.2862881249999
 30
0.0
 10
10.26949187499997
 20
-122.104960625
 30
0.0
 10
10.02819187499995
 20
-122.104960625
 30
0.0
  0
SPLINE
  5
40
330
119
100
AcDbEntity
  8
0
 62
     7
420
 16777215
100
AcDbSpline
210
0.0
220
0.0
230
1.0
 70
     8
 71
     3
 72
     8
 73
     4
 74
     0
 42
0.000000001
 43
0.001
 12
1.0
 22
0.0
 32
0.0
 13
1.0
 23
0.0
 33
0.0
 40
0.0
 40
0.0
 40
0.0
 40
0.0
 40
1.0
 40
1.0
 40
1.0
 40
1.0
 10
10.02819187499995
 20
-122.104960625
 30
0.0
 10
9.840161875000035
 20
-122.104960625
 30
0.0
 10
9.694464375000052
 20
-122.197388125
 30
0.0
 10
9.621439375000023
 20
-122.321213125
 30
0.0
  0
SPLINE
  5
41
330
119
100
AcDbEntity
  8
0
 62
     7
420
 16777215
100
AcDbSpline
210
0.0
220
0.0
230
1.0
 70
     8
 71
     3
 72
     8
 73
     4
 74
     0
 42
0.000000001
 43
0.001
 12
1.0
 22
0.0
 32
0.0
 13
1.0
 23
0.0
 33
0.0
 40
0.0
 40
0.0
 40
0.0
 40
0.0
 40
1.0
 40
1.0
 40
1.0
 40
1.0
 10
9.621439375000023
 20
-122.321213125
 30
0.0
 10
9.605211875000009
 20
-122.349788125
 30
0.0
 10
9.596039375000032
 20
-122.378363125
 30
0.0
 10
9.596039375000032
 20
-122.4259881249999
 30
0.0
  0
SPLINE
  5
42
330
119
100
AcDbEntity
  8
0
 62
     7
420
 16777215
100
AcDbSpline
210
0.0
220
0.0
230
1.0
 70
     8
 71
     3
 72
     8
 73
     4
 74
     0
 42
0.000000001
 43
0.001
 12
1.0
 22
0.0
 32
0.0
 13
1.0
 23
0.0
 33
0.0
 40
0.0
 40
0.0
 40
0.0
 40
0.0
 40
1.0
 40
1.0
 40
1.0
 40
1.0
 10
9.596039375000032
 20
-122.4259881249999
 30
0.0
 10
9.596039375000032
 20
-122.7780606249999
 30
0.0
 10
9.72621437500004
 20
-123.0479356249999
 30
0.0
 10
10.02184187499995
 20
-123.0479356249999
 30
0.0
  0
SPLINE
  5
43
330
119
100
AcDbEntity
  8
0
 62
     7
420
 16777215
100
AcDbSpline
210
0.0
220
0.0
230
1.0
 70
     8
 71
     3
 72
     8
 73
     4
 74
     0
 42
0.000000001
 43
0.001
 12
1.0
 22
0.0
 32
0.0
 13
1.0
 23
0.0
 33
0.0
 40
0.0
 40
0.0
 40
0.0
 40
0.0
 40
1.0
 40
1.0
 40
1.0
 40
1.0
 10
10.02184187499995
 20
-123.0479356249999
 30
0.0
 10
10.25679187499998
 20
-123.047581875
 30
0.0
 10
10.42471437500001
 20
-122.838738125
 30
0.0
 10
10.42471437500001
 20
-122.5431106249999
 30
0.0
  0
LWPOLYLINE
  5
44
330
119
100
AcDbEntity
  8
0
 62
     7
420
 16777215
100
AcDbPolyline
 90
        2
 70
     0
 43
0.0
 10
99.55684187499992
 20
-122.730788125
 10
99.55684187499992
 20
-122.730788125
  0
SPLINE
  5
45
330
119
100
AcDbEntity
  8
0
 62
     7
420
 16777215
100
AcDbSpline
210
0.0
220
0.0
230
1.0
 70
     8
 71
     3
 72
     8
 73
     4
 74
     0
 42
0.000000001
 43
0.001
 12
1.0
 22
0.0
 32
0.0
 13
1.0
 23
0.0
 33
0.0
 40
0.0
 40
0.0
 40
0.0
 40
0.0
 40
1.0
 40
1.0
 40
1.0
 40
1.0
 10
0.3705468749999454
 20
-122.730788125
 30
0.0
 10
0.3737218750000011
 20
-122.5247656249999
 30
0.0
 10
0.2153256249999913
 20
-122.4129356249999
 30
0.0
 10
-0.0235056249999843
 20
-122.349788125
 30
0.0
  0
SPLINE
  5
46
330
119
100
AcDbEntity
  8
0
 62
     7
420
 16777215
100
AcDbSpline
210
0.0
220
0.0
230
1.0
 70
     8
 71
     3
 72
     8
 73
     4
 74
     0
 42
0.000000001
 43
0.001
 12
1.0
 22
0.0
 32
0.0
 13
1.0
 23
0.0
 33
0.0
 40
0.0
 40
0.0
 40
0.0
 40
0.0
 40
1.0
 40
1.0
 40
1.0
 40
1.0
 10
-0.0235056249999843
 20
-122.349788125
 30
0.0
 10
-0.2009531249999554
 20
-122.410113125
 30
0.0
 10
-0.3374781249999614
 20
-122.537113125
 30
0.0
 10
-0.3374781249999614
 20
-122.724438125
 30
0.0
  0
SPLINE
  5
47
330
119
100
AcDbEntity
  8
0
 62
     7
420
 16777215
100
AcDbSpline
210
0.0
220
0.0
230
1.0
 70
     8
 71
     3
 72
     8
 73
     4
 74
     0
 42
0.000000001
 43
0.001
 12
1.0
 22
0.0
 32
0.0
 13
1.0
 23
0.0
 33
0.0
 40
0.0
 40
0.0
 40
0.0
 40
0.0
 40
1.0
 40
1.0
 40
1.0
 40
1.0
 10
-0.3374781249999614
 20
-122.724438125
 30
0.0
 10
-0.3374781249999614
 20
-122.8898906249999
 30
0.0
 10
-0.2394056250000176
 20
-123.061340625
 30
0.0
 10
0.0114193749999458
 20
-123.061340625
 30
0.0
  0
SPLINE
  5
48
330
119
100
AcDbEntity
  8
0
 62
     7
420
 16777215
100
AcDbSpline
210
0.0
220
0.0
230
1.0
 70
     8
 71
     3
 72
     8
 73
     4
 74
     0
 42
0.000000001
 43
0.001
 12
1.0
 22
0.0
 32
0.0
 13
1.0
 23
0.0
 33
0.0
 40
0.0
 40
0.0
 40
0.0
 40
0.0
 40
1.0
 40
1.0
 40
1.0
 40
1.0
 10
0.0114193749999458
 20
-123.061340625
 30
0.0
 10
0.24319437500003
 20
-123.060988125
 30
0.0
 10
0.3705468749999454
 20
-122.9085881249999
 30
0.0
 10
0.3705468749999454
 20
-122.730788125
 30
0.0
  0
LWPOLYLINE
  5
49
330
119
100
AcDbEntity
  8
0
 62
     7
420
 16777215
100
AcDbPolyline
 90
        2
 70
     0
 43
0.0
 10
10.42471437500001
 20
-122.5431106249999
 10
10.42471437500001
 20
-122.5431106249999
  0
LWPOLYLINE
  5
4A
330
119
100
AcDbEntity
  8
0
 62
     7
420
 16777215
100
AcDbPolyline
 90
        2
 70
     0
 43
0.0
 10
0.3705468749999454
 20
-122.730788125
 10
0.3705468749999454
 20
-122.730788125
  0
LWPOLYLINE
  5
4B
330
119
100
AcDbEntity
  8
0
 62
     7
420
 16777215
100
AcDbPolyline
 90
        2
 70
     0
 43
0.0
 10
140.0006968749999
 20
-118.863638125
 10
140.0006968749999
 20
108.841011875
  0
LWPOLYLINE
  5
4C
330
119
100
AcDbEntity
  8
0
 62
     7
420
 16777215
100
AcDbPolyline
 90
        2
 70
     0
 43
0.0
 10
130.0012118750001
 20
104.9890318750001
 10
130.0012118750001
 20
108.841011875
  0
LWPOLYLINE
  5
4D
330
119
100
AcDbEntity
  8
0
 62
     7
420
 16777215
100
AcDbPolyline
 90
        2
 70
     0
 43
0.0
 10
130.0012118750001
 20
-115.0127156249999
 10
130.0012118750001
 20
-118.863638125
  0
LWPOLYLINE
  5
4E
330
119
100
AcDbEntity
  8
0
 62
     7
420
 16777215
100
AcDbPolyline
 90
        2
 70
     0
 43
0.0
 10
120.0010193749999
 20
108.841011875
 10
120.0010193749999
 20
104.9890318750001
  0
LWPOLYLINE
  5
4F
330
119
100
AcDbEntity
  8
0
 62
     7
420
 16777215
100
AcDbPolyline
 90
        2
 70
     0
 43
0.0
 10
120.0010193749999
 20
-118.863638125
 10
120.0010193749999
 20
-115.0127156249999
  0
LWPOLYLINE
  5
50
330
119
100
AcDbEntity
  8
0
 62
     7
420
 16777215
100
AcDbPolyline
 90
        2
 70
     0
 43
0.0
 10
110.001180625
 20
-115.0127156249999
 10
110.001180625
 20
-118.863638125
  0
LWPOLYLINE
  5
51
330
119
100
AcDbEntity
  8
0
 62
     7
420
 16777215
100
AcDbPolyline
 90
        2
 70
     0
 43
0.0
 10
110.001180625
 20
104.9890318750001
 10
110.001180625
 20
108.841011875
  0
LWPOLYLINE
  5
52
330
119
100
AcDbEntity
  8
0
 62
     7
420
 16777215
100
AcDbPolyline
 90
        2
 70
     0
 43
0.0
 10
100.0002831249999
 20
108.841011875
 10
100.0002831249999
 20
104.9890318750001
  0
LWPOLYLINE
  5
53
330
119
100
AcDbEntity
  8
0
 62
     7
420
 16777215
100
AcDbPolyline
 90
        2
 70
     0
 43
0.0
 10
100.0002831249999
 20
-118.863638125
 10
100.0002831249999
 20
-115.0127156249999
  0
LWPOLYLINE
  5
54
330
119
100
AcDbEntity
  8
0
 62
     7
420
 16777215
100
AcDbPolyline
 90
        2
 70
     0
 43
0.0
 10
90.00115062500004
 20
-115.0127156249999
 10
90.00115062500004
 20
-118.863638125
  0
LWPOLYLINE
  5
55
330
119
100
AcDbEntity
  8
0
 62
     7
420
 16777215
100
AcDbPolyline
 90
        2
 70
     0
 43
0.0
 10
90.00115062500004
 20
104.9890318750001
 10
90.00115062500004
 20
108.841011875
  0
LWPOLYLINE
  5
56
330
119
100
AcDbEntity
  8
0
 62
     7
420
 16777215
100
AcDbPolyline
 90
        2
 70
     0
 43
0.0
 10
80.00060562499993
 20
-118.863638125
 10
80.00060562499993
 20
-115.0127156249999
  0
LWPOLYLINE
  5
57
330
119
100
AcDbEntity
  8
0
 62
     7
420
 16777215
100
AcDbPolyline
 90
        2
 70
     0
 43
0.0
 10
80.00060562499993
 20
108.841011875
 10
80.00060562499993
 20
104.9890318750001
  0
LWPOLYLINE
  5
58
330
119
100
AcDbEntity
  8
0
 62
     7
420
 16777215
100
AcDbPolyline
 90
        2
 70
     0
 43
0.0
 10
70.00111937499992
 20
-115.0127156249999
 10
70.00111937499992
 20
-118.863638125
  0
LWPOLYLINE
  5
59
330
119
100
AcDbEntity
  8
0
 62
     7
420
 16777215
100
AcDbPolyline
 90
        2
 70
     0
 43
0.0
 10
70.00111937499992
 20
104.9890318750001
 10
70.00111937499992
 20
108.841011875
  0
LWPOLYLINE
  5
5A
330
119
100
AcDbEntity
  8
0
 62
     7
420
 16777215
100
AcDbPolyline
 90
        2
 70
     0
 43
0.0
 10
60.00057562500001
 20
108.841011875
 10
60.00057562500001
 20
104.9890318750001
  0
LWPOLYLINE
  5
5B
330
119
100
AcDbEntity
  8
0
 62
     7
420
 16777215
100
AcDbPolyline
 90
        2
 70
     0
 43
0.0
 10
60.00057562500001
 20
-118.863638125
 10
60.00057562500001
 20
-115.0127156249999
  0
LWPOLYLINE
  5
5C
330
119
100
AcDbEntity
  8
0
 62
     7
420
 16777215
100
AcDbPolyline
 90
        2
 70
     0
 43
0.0
 10
50.00073687500003
 20
-115.0127156249999
 10
50.00073687500003
 20
-118.863638125
  0
LWPOLYLINE
  5
5D
330
119
100
AcDbEntity
  8
0
 62
     7
420
 16777215
100
AcDbPolyline
 90
        2
 70
     0
 43
0.0
 10
50.00073687500003
 20
104.9890318750001
 10
50.00073687500003
 20
108.841011875
  0
LWPOLYLINE
  5
5E
330
119
100
AcDbEntity
  8
0
 62
     7
420
 16777215
100
AcDbPolyline
 90
        2
 70
     0
 43
0.0
 10
40.00019187499993
 20
108.841011875
 10
40.00019187499993
 20
104.9890318750001
  0
LWPOLYLINE
  5
5F
330
119
100
AcDbEntity
  8
0
 62
     7
420
 16777215
100
AcDbPolyline
 90
        2
 70
     0
 43
0.0
 10
40.00019187499993
 20
-118.863638125
 10
40.00019187499993
 20
-115.0127156249999
  0
LWPOLYLINE
  5
60
330
119
100
AcDbEntity
  8
0
 62
     7
420
 16777215
100
AcDbPolyline
 90
        2
 70
     0
 43
0.0
 10
30.0010581250001
 20
-115.0127156249999
 10
30.0010581250001
 20
-118.863638125
  0
LWPOLYLINE
  5
61
330
119
100
AcDbEntity
  8
0
 62
     7
420
 16777215
100
AcDbPolyline
 90
        2
 70
     0
 43
0.0
 10
30.0010581250001
 20
104.9890318750001
 10
30.0010581250001
 20
108.841011875
  0
SPLINE
  5
62
330
119
100
AcDbEntity
  8
0
 62
     7
420
 16777215
100
AcDbSpline
210
0.0
220
0.0
230
1.0
 70
     8
 71
     3
 72
     8
 73
     4
 74
     0
 42
0.000000001
 43
0.001
 12
1.0
 22
0.0
 32
0.0
 13
1.0
 23
0.0
 33
0.0
 40
0.0
 40
0.0
 40
0.0
 40
0.0
 40
1.0
 40
1.0
 40
1.0
 40
1.0
 10
19.17183937499999
 20
-14.82276812500004
 30
0.0
 10
19.72393687499994
 20
-14.82276812500004
 30
0.0
 10
20.17196437500002
 20
-15.27044312499993
 30
0.0
 10
20.17196437500002
 20
-15.82218812500003
 30
0.0
  0
SPLINE
  5
63
330
119
100
AcDbEntity
  8
0
 62
     7
420
 16777215
100
AcDbSpline
210
0.0
220
0.0
230
1.0
 70
     8
 71
     3
 72
     8
 73
     4
 74
     0
 42
0.000000001
 43
0.001
 12
1.0
 22
0.0
 32
0.0
 13
1.0
 23
0.0
 33
0.0
 40
0.0
 40
0.0
 40
0.0
 40
0.0
 40
1.0
 40
1.0
 40
1.0
 40
1.0
 10
20.17196437500002
 20
-15.82218812500003
 30
0.0
 10
20.17196437500002
 20
-16.37499062500001
 30
0.0
 10
19.72393687499994
 20
-16.82266562500001
 30
0.0
 10
19.17183937499999
 20
-16.82266562500001
 30
0.0
  0
SPLINE
  5
64
330
119
100
AcDbEntity
  8
0
 62
     7
420
 16777215
100
AcDbSpline
210
0.0
220
0.0
230
1.0
 70
     8
 71
     3
 72
     8
 73
     4
 74
     0
 42
0.000000001
 43
0.001
 12
1.0
 22
0.0
 32
0.0
 13
1.0
 23
0.0
 33
0.0
 40
0.0
 40
0.0
 40
0.0
 40
0.0
 40
1.0
 40
1.0
 40
1.0
 40
1.0
 10
19.17183937499999
 20
-16.82266562500001
 30
0.0
 10
18.61974187500005
 20
-16.82266562500001
 30
0.0
 10
18.17171437499997
 20
-16.37463812500005
 30
0.0
 10
18.17171437499997
 20
-15.82218812500003
 30
0.0
  0
SPLINE
  5
65
330
119
100
AcDbEntity
  8
0
 62
     7
420
 16777215
100
AcDbSpline
210
0.0
220
0.0
230
1.0
 70
     8
 71
     3
 72
     8
 73
     4
 74
     0
 42
0.000000001
 43
0.001
 12
1.0
 22
0.0
 32
0.0
 13
1.0
 23
0.0
 33
0.0
 40
0.0
 40
0.0
 40
0.0
 40
0.0
 40
1.0
 40
1.0
 40
1.0
 40
1.0
 10
18.17171437499997
 20
-15.82218812500003
 30
0.0
 10
18.17171437499997
 20
-15.27044312499993
 30
0.0
 10
18.61974187500005
 20
-14.82276812500004
 30
0.0
 10
19.17183937499999
 20
-14.82276812500004
 30
0.0
  0
LWPOLYLINE
  5
66
330
119
100
AcDbEntity
  8
0
 62
     7
420
 16777215
100
AcDbPolyline
 90
        2
 70
     0
 43
0.0
 10
20.00051437499997
 20
108.841011875
 10
20.00051437499997
 20
104.9890318750001
  0
SPLINE
  5
67
330
119
100
AcDbEntity
  8
0
 62
     7
420
 16777215
100
AcDbSpline
210
0.0
220
0.0
230
1.0
 70
     8
 71
     3
 72
     8
 73
     4
 74
     0
 42
0.000000001
 43
0.001
 12
1.0
 22
0.0
 32
0.0
 13
1.0
 23
0.0
 33
0.0
 40
0.0
 40
0.0
 40
0.0
 40
0.0
 40
1.0
 40
1.0
 40
1.0
 40
1.0
 10
40.83063062499991
 20
6.834964375000027
 30
0.0
 10
41.38308062500005
 20
6.834964375000027
 30
0.0
 10
41.8311081249999
 20
6.387643125000068
 30
0.0
 10
41.8311081249999
 20
5.835193125000046
 30
0.0
  0
SPLINE
  5
68
330
119
100
AcDbEntity
  8
0
 62
     7
420
 16777215
100
AcDbSpline
210
0.0
220
0.0
230
1.0
 70
     8
 71
     3
 72
     8
 73
     4
 74
     0
 42
0.000000001
 43
0.001
 12
1.0
 22
0.0
 32
0.0
 13
1.0
 23
0.0
 33
0.0
 40
0.0
 40
0.0
 40
0.0
 40
0.0
 40
1.0
 40
1.0
 40
1.0
 40
1.0
 10
41.8311081249999
 20
5.835193125000046
 30
0.0
 10
41.8311081249999
 20
5.282389375000093
 30
0.0
 10
41.38308062500005
 20
4.835420625000097
 30
0.0
 10
40.83063062499991
 20
4.835420625000097
 30
0.0
  0
SPLINE
  5
69
330
119
100
AcDbEntity
  8
0
 62
     7
420
 16777215
100
AcDbSpline
210
0.0
220
0.0
230
1.0
 70
     8
 71
     3
 72
     8
 73
     4
 74
     0
 42
0.000000001
 43
0.001
 12
1.0
 22
0.0
 32
0.0
 13
1.0
 23
0.0
 33
0.0
 40
0.0
 40
0.0
 40
0.0
 40
0.0
 40
1.0
 40
1.0
 40
1.0
 40
1.0
 10
40.83063062499991
 20
4.835420625000097
 30
0.0
 10
40.27853312499997
 20
4.835420625000097
 30
0.0
 10
39.83050562499989
 20
5.282389375000093
 30
0.0
 10
39.83050562499989
 20
5.835193125000046
 30
0.0
  0
SPLINE
  5
6A
330
119
100
AcDbEntity
  8
0
 62
     7
420
 16777215
100
AcDbSpline
210
0.0
220
0.0
230
1.0
 70
     8
 71
     3
 72
     8
 73
     4
 74
     0
 42
0.000000001
 43
0.001
 12
1.0
 22
0.0
 32
0.0
 13
1.0
 23
0.0
 33
0.0
 40
0.0
 40
0.0
 40
0.0
 40
0.0
 40
1.0
 40
1.0
 40
1.0
 40
1.0
 10
39.83050562499989
 20
5.835193125000046
 30
0.0
 10
39.83050562499989
 20
6.387643125000068
 30
0.0
 10
40.278180625
 20
6.834964375000027
 30
0.0
 10
40.83063062499991
 20
6.834964375000027
 30
0.0
  0
LWPOLYLINE
  5
6B
330
119
100
AcDbEntity
  8
0
 62
     7
420
 16777215
100
AcDbPolyline
 90
        2
 70
     0
 43
0.0
 10
19.17183937499999
 20
-14.82276812500004
 10
19.17183937499999
 20
-14.82276812500004
  0
SPLINE
  5
6C
330
119
100
AcDbEntity
  8
0
 62
     7
420
 16777215
100
AcDbSpline
210
0.0
220
0.0
230
1.0
 70
     8
 71
     3
 72
     8
 73
     4
 74
     0
 42
0.000000001
 43
0.001
 12
1.0
 22
0.0
 32
0.0
 13
1.0
 23
0.0
 33
0.0
 40
0.0
 40
0.0
 40
0.0
 40
0.0
 40
1.0
 40
1.0
 40
1.0
 40
1.0
 10
40.83063062499991
 20
-14.82276812500004
 30
0.0
 10
41.3823756249999
 20
-14.82276812500004
 30
0.0
 10
41.8311081249999
 20
-15.27044312499993
 30
0.0
 10
41.8311081249999
 20
-15.82289312499995
 30
0.0
  0
SPLINE
  5
6D
330
119
100
AcDbEntity
  8
0
 62
     7
420
 16777215
100
AcDbSpline
210
0.0
220
0.0
230
1.0
 70
     8
 71
     3
 72
     8
 73
     4
 74
     0
 42
0.000000001
 43
0.001
 12
1.0
 22
0.0
 32
0.0
 13
1.0
 23
0.0
 33
0.0
 40
0.0
 40
0.0
 40
0.0
 40
0.0
 40
1.0
 40
1.0
 40
1.0
 40
1.0
 10
41.8311081249999
 20
-15.82289312499995
 30
0.0
 10
41.8311081249999
 20
-16.37463812500005
 30
0.0
 10
41.38272812500009
 20
-16.82266562500001
 30
0.0
 10
40.83063062499991
 20
-16.82266562500001
 30
0.0
  0
SPLINE
  5
6E
330
119
100
AcDbEntity
  8
0
 62
     7
420
 16777215
100
AcDbSpline
210
0.0
220
0.0
230
1.0
 70
     8
 71
     3
 72
     8
 73
     4
 74
     0
 42
0.000000001
 43
0.001
 12
1.0
 22
0.0
 32
0.0
 13
1.0
 23
0.0
 33
0.0
 40
0.0
 40
0.0
 40
0.0
 40
0.0
 40
1.0
 40
1.0
 40
1.0
 40
1.0
 10
40.83063062499991
 20
-16.82266562500001
 30
0.0
 10
40.27853312499997
 20
-16.82266562500001
 30
0.0
 10
39.83050562499989
 20
-16.37463812500005
 30
0.0
 10
39.83050562499989
 20
-15.82289312499995
 30
0.0
  0
SPLINE
  5
6F
330
119
100
AcDbEntity
  8
0
 62
     7
420
 16777215
100
AcDbSpline
210
0.0
220
0.0
230
1.0
 70
     8
 71
     3
 72
     8
 73
     4
 74
     0
 42
0.000000001
 43
0.001
 12
1.0
 22
0.0
 32
0.0
 13
1.0
 23
0.0
 33
0.0
 40
0.0
 40
0.0
 40
0.0
 40
0.0
 40
1.0
 40
1.0
 40
1.0
 40
1.0
 10
39.83050562499989
 20
-15.82289312499995
 30
0.0
 10
39.83050562499989
 20
-15.27044312499993
 30
0.0
 10
40.278180625
 20
-14.82276812500004
 30
0.0
 10
40.83063062499991
 20
-14.82276812500004
 30
0.0
  0
SPLINE
  5
70
330
119
100
AcDbEntity
  8
0
 62
     7
420
 16777215
100
AcDbSpline
210
0.0
220
0.0
230
1.0
 70
     8
 71
     3
 72
     8
 73
     4
 74
     0
 42
0.000000001
 43
0.001
 12
1.0
 22
0.0
 32
0.0
 13
1.0
 23
0.0
 33
0.0
 40
0.0
 40
0.0
 40
0.0
 40
0.0
 40
1.0
 40
1.0
 40
1.0
 40
1.0
 10
22.97901687500007
 20
170.011620625
 30
0.0
 10
22.44632187499997
 20
169.313473125
 30
0.0
 10
21.65786437499992
 20
168.8255818750001
 30
0.0
 10
20.7536943749999
 20
168.679884375
 30
0.0
  0
LWPOLYLINE
  5
71
330
119
100
AcDbEntity
  8
0
 62
     7
420
 16777215
100
AcDbPolyline
 90
        2
 70
     0
 43
0.0
 10
40.83063062499991
 20
6.834964375000027
 10
40.83063062499991
 20
6.834964375000027
  0
SPLINE
  5
72
330
119
100
AcDbEntity
  8
0
 62
     7
420
 16777215
100
AcDbSpline
210
0.0
220
0.0
230
1.0
 70
     8
 71
     3
 72
     8
 73
     4
 74
     0
 42
0.000000001
 43
0.001
 12
1.0
 22
0.0
 32
0.0
 13
1.0
 23
0.0
 33
0.0
 40
0.0
 40
0.0
 40
0.0
 40
0.0
 40
1.0
 40
1.0
 40
1.0
 40
1.0
 10
20.7536943749999
 20
168.679884375
 30
0.0
 10
20.67925812499993
 20
168.6795318750001
 30
0.0
 10
20.60623312500002
 20
168.674593125
 30
0.0
 10
20.5332081250001
 20
168.6696543749999
 30
0.0
  0
SPLINE
  5
73
330
119
100
AcDbEntity
  8
0
 62
     7
420
 16777215
100
AcDbSpline
210
0.0
220
0.0
230
1.0
 70
     8
 71
     3
 72
     8
 73
     4
 74
     0
 42
0.000000001
 43
0.001
 12
1.0
 22
0.0
 32
0.0
 13
1.0
 23
0.0
 33
0.0
 40
0.0
 40
0.0
 40
0.0
 40
0.0
 40
1.0
 40
1.0
 40
1.0
 40
1.0
 10
19.23286937500006
 20
6.834964375000027
 30
0.0
 10
19.78602562500009
 20
6.834964375000027
 30
0.0
 10
20.23334687500005
 20
6.387643125000068
 30
0.0
 10
20.23334687500005
 20
5.835193125000046
 30
0.0
  0
SPLINE
  5
74
330
119
100
AcDbEntity
  8
0
 62
     7
420
 16777215
100
AcDbSpline
210
0.0
220
0.0
230
1.0
 70
     8
 71
     3
 72
     8
 73
     4
 74
     0
 42
0.000000001
 43
0.001
 12
1.0
 22
0.0
 32
0.0
 13
1.0
 23
0.0
 33
0.0
 40
0.0
 40
0.0
 40
0.0
 40
0.0
 40
1.0
 40
1.0
 40
1.0
 40
1.0
 10
20.5332081250001
 20
168.6696543749999
 30
0.0
 10
20.41326437499993
 20
168.6611868750001
 30
0.0
 10
20.2940256249999
 20
168.649193125
 30
0.0
 10
20.17690312500008
 20
168.631554375
 30
0.0
  0
SPLINE
  5
75
330
119
100
AcDbEntity
  8
0
 62
     7
420
 16777215
100
AcDbSpline
210
0.0
220
0.0
230
1.0
 70
     8
 71
     3
 72
     8
 73
     4
 74
     0
 42
0.000000001
 43
0.001
 12
1.0
 22
0.0
 32
0.0
 13
1.0
 23
0.0
 33
0.0
 40
0.0
 40
0.0
 40
0.0
 40
0.0
 40
1.0
 40
1.0
 40
1.0
 40
1.0
 10
20.23334687500005
 20
5.835193125000046
 30
0.0
 10
20.23334687500005
 20
5.282389375000093
 30
0.0
 10
19.78602562500009
 20
4.834714374999976
 30
0.0
 10
19.23286937500006
 20
4.834714374999976
 30
0.0
  0
SPLINE
  5
76
330
119
100
AcDbEntity
  8
0
 62
     7
420
 16777215
100
AcDbSpline
210
0.0
220
0.0
230
1.0
 70
     8
 71
     3
 72
     8
 73
     4
 74
     0
 42
0.000000001
 43
0.001
 12
1.0
 22
0.0
 32
0.0
 13
1.0
 23
0.0
 33
0.0
 40
0.0
 40
0.0
 40
0.0
 40
0.0
 40
1.0
 40
1.0
 40
1.0
 40
1.0
 10
20.17690312500008
 20
168.631554375
 30
0.0
 10
18.4038418749999
 20
168.365206875
 30
0.0
 10
17.01142812500007
 20
166.942100625
 30
0.0
 10
16.79623312500007
 20
165.152811875
 30
0.0
  0
SPLINE
  5
77
330
119
100
AcDbEntity
  8
0
 62
     7
420
 16777215
100
AcDbSpline
210
0.0
220
0.0
230
1.0
 70
     8
 71
     3
 72
     8
 73
     4
 74
     0
 42
0.000000001
 43
0.001
 12
1.0
 22
0.0
 32
0.0
 13
1.0
 23
0.0
 33
0.0
 40
0.0
 40
0.0
 40
0.0
 40
0.0
 40
1.0
 40
1.0
 40
1.0
 40
1.0
 10
19.23286937500006
 20
4.834714374999976
 30
0.0
 10
18.68112562500005
 20
4.834714374999976
 30
0.0
 10
18.233096875
 20
5.282389375000093
 30
0.0
 10
18.233096875
 20
5.835193125000046
 30
0.0
  0
SPLINE
  5
78
330
119
100
AcDbEntity
  8
0
 62
     7
420
 16777215
100
AcDbSpline
210
0.0
220
0.0
230
1.0
 70
     8
 71
     3
 72
     8
 73
     4
 74
     0
 42
0.000000001
 43
0.001
 12
1.0
 22
0.0
 32
0.0
 13
1.0
 23
0.0
 33
0.0
 40
0.0
 40
0.0
 40
0.0
 40
0.0
 40
1.0
 40
1.0
 40
1.0
 40
1.0
 10
18.233096875
 20
5.835193125000046
 30
0.0
 10
18.233096875
 20
6.387643125000068
 30
0.0
 10
18.68112562500005
 20
6.834964375000027
 30
0.0
 10
19.23286937500006
 20
6.834964375000027
 30
0.0
  0
SPLINE
  5
79
330
119
100
AcDbEntity
  8
0
 62
     7
420
 16777215
100
AcDbSpline
210
0.0
220
0.0
230
1.0
 70
     8
 71
     3
 72
     8
 73
     4
 74
     0
 42
0.000000001
 43
0.001
 12
1.0
 22
0.0
 32
0.0
 13
1.0
 23
0.0
 33
0.0
 40
0.0
 40
0.0
 40
0.0
 40
0.0
 40
1.0
 40
1.0
 40
1.0
 40
1.0
 10
16.79623312500007
 20
157.4654318749999
 30
0.0
 10
17.01742562499999
 20
155.6260481250001
 30
0.0
 10
18.48110062499995
 20
154.1711931249999
 30
0.0
 10
20.32506937500011
 20
153.964464375
 30
0.0
  0
LWPOLYLINE
  5
7A
330
119
100
AcDbEntity
  8
0
 62
     7
420
 16777215
100
AcDbPolyline
 90
        2
 70
     0
 43
0.0
 10
40.83063062499991
 20
-14.82276812500004
 10
40.83063062499991
 20
-14.82276812500004
  0
LWPOLYLINE
  5
7B
330
119
100
AcDbEntity
  8
0
 62
     7
420
 16777215
100
AcDbPolyline
 90
        2
 70
     0
 43
0.0
 10
16.79623312500007
 20
165.152811875
 10
16.79623312500007
 20
157.4654318749999
  0
SPLINE
  5
7C
330
119
100
AcDbEntity
  8
0
 62
     7
420
 16777215
100
AcDbSpline
210
0.0
220
0.0
230
1.0
 70
     8
 71
     3
 72
     8
 73
     4
 74
     0
 42
0.000000001
 43
0.001
 12
1.0
 22
0.0
 32
0.0
 13
1.0
 23
0.0
 33
0.0
 40
0.0
 40
0.0
 40
0.0
 40
0.0
 40
1.0
 40
1.0
 40
1.0
 40
1.0
 10
-82.563980625
 20
49.24485062500003
 30
0.0
 10
-82.563980625
 20
47.67110937500001
 30
0.0
 10
-83.84068312499994
 20
46.39475937500004
 30
0.0
 10
-85.41442437499995
 20
46.39475937500004
 30
0.0
  0
SPLINE
  5
7D
330
119
100
AcDbEntity
  8
0
 62
     7
420
 16777215
100
AcDbSpline
210
0.0
220
0.0
230
1.0
 70
     8
 71
     3
 72
     8
 73
     4
 74
     0
 42
0.000000001
 43
0.001
 12
1.0
 22
0.0
 32
0.0
 13
1.0
 23
0.0
 33
0.0
 40
0.0
 40
0.0
 40
0.0
 40
0.0
 40
1.0
 40
1.0
 40
1.0
 40
1.0
 10
20.47782187500002
 20
153.9507068749999
 30
0.0
 10
20.53215062499999
 20
153.946473125
 30
0.0
 10
20.58683062499995
 20
153.945061875
 30
0.0
 10
20.64151187500011
 20
153.943298125
 30
0.0
  0
SPLINE
  5
7E
330
119
100
AcDbEntity
  8
0
 62
     7
420
 16777215
100
AcDbSpline
210
0.0
220
0.0
230
1.0
 70
     8
 71
     3
 72
     8
 73
     4
 74
     0
 42
0.000000001
 43
0.001
 12
1.0
 22
0.0
 32
0.0
 13
1.0
 23
0.0
 33
0.0
 40
0.0
 40
0.0
 40
0.0
 40
0.0
 40
1.0
 40
1.0
 40
1.0
 40
1.0
 10
-85.41442437499995
 20
46.39475937500004
 30
0.0
 10
-86.98816687500005
 20
46.39475937500004
 30
0.0
 10
-88.26451687500003
 20
47.67110937500001
 30
0.0
 10
-88.26451687500003
 20
49.24485062500003
 30
0.0
  0
SPLINE
  5
7F
330
119
100
AcDbEntity
  8
0
 62
     7
420
 16777215
100
AcDbSpline
210
0.0
220
0.0
230
1.0
 70
     8
 71
     3
 72
     8
 73
     4
 74
     0
 42
0.000000001
 43
0.001
 12
1.0
 22
0.0
 32
0.0
 13
1.0
 23
0.0
 33
0.0
 40
0.0
 40
0.0
 40
0.0
 40
0.0
 40
1.0
 40
1.0
 40
1.0
 40
1.0
 10
20.64151187500011
 20
153.943298125
 30
0.0
 10
21.60424187500007
 20
153.8205318749999
 30
0.0
 10
22.44314687499991
 20
153.306534375
 30
0.0
 10
22.99806687499995
 20
152.5657006250001
 30
0.0
  0
SPLINE
  5
80
330
119
100
AcDbEntity
  8
0
 62
     7
420
 16777215
100
AcDbSpline
210
0.0
220
0.0
230
1.0
 70
     8
 71
     3
 72
     8
 73
     4
 74
     0
 42
0.000000001
 43
0.001
 12
1.0
 22
0.0
 32
0.0
 13
1.0
 23
0.0
 33
0.0
 40
0.0
 40
0.0
 40
0.0
 40
0.0
 40
1.0
 40
1.0
 40
1.0
 40
1.0
 10
-88.26451687500003
 20
49.24485062500003
 30
0.0
 10
-88.26451687500003
 20
50.81965062500001
 30
0.0
 10
-86.98816687500005
 20
52.09529562500006
 30
0.0
 10
-85.41442437499995
 20
52.09529562500006
 30
0.0
  0
LWPOLYLINE
  5
81
330
119
100
AcDbEntity
  8
0
 62
     7
420
 16777215
100
AcDbPolyline
 90
        2
 70
     0
 43
0.0
 10
20.32506937500011
 20
153.964464375
 10
20.47782187500002
 20
153.9507068749999
  0
SPLINE
  5
82
330
119
100
AcDbEntity
  8
0
 62
     7
420
 16777215
100
AcDbSpline
210
0.0
220
0.0
230
1.0
 70
     8
 71
     3
 72
     8
 73
     4
 74
     0
 42
0.000000001
 43
0.001
 12
1.0
 22
0.0
 32
0.0
 13
1.0
 23
0.0
 33
0.0
 40
0.0
 40
0.0
 40
0.0
 40
0.0
 40
1.0
 40
1.0
 40
1.0
 40
1.0
 10
-85.41442437499995
 20
52.09529562500006
 30
0.0
 10
-83.84068312499994
 20
52.09529562500006
 30
0.0
 10
-82.563980625
 20
50.81965062500001
 30
0.0
 10
-82.563980625
 20
49.24485062500003
 30
0.0
  0
SPLINE
  5
83
330
119
100
AcDbEntity
  8
0
 62
     7
420
 16777215
100
AcDbSpline
210
0.0
220
0.0
230
1.0
 70
     8
 71
     3
 72
     8
 73
     4
 74
     0
 42
0.000000001
 43
0.001
 12
1.0
 22
0.0
 32
0.0
 13
1.0
 23
0.0
 33
0.0
 40
0.0
 40
0.0
 40
0.0
 40
0.0
 40
1.0
 40
1.0
 40
1.0
 40
1.0
 10
38.28569187500011
 20
152.5657006250001
 30
0.0
 10
38.81803312500006
 20
153.2634956250001
 30
0.0
 10
39.60684437500004
 20
153.751386875
 30
0.0
 10
40.51136687500002
 20
153.8970843750001
 30
0.0
  0
SPLINE
  5
84
330
119
100
AcDbEntity
  8
0
 62
     7
420
 16777215
100
AcDbSpline
210
0.0
220
0.0
230
1.0
 70
     8
 71
     3
 72
     8
 73
     4
 74
     0
 42
0.000000001
 43
0.001
 12
1.0
 22
0.0
 32
0.0
 13
1.0
 23
0.0
 33
0.0
 40
0.0
 40
0.0
 40
0.0
 40
0.0
 40
1.0
 40
1.0
 40
1.0
 40
1.0
 10
-88.41444687500007
 20
42.45070437499999
 30
0.0
 10
-88.41444687500007
 20
40.79441187500004
 30
0.0
 10
-87.07071687500002
 20
39.45068187499999
 30
0.0
 10
-85.41442437499995
 20
39.45068187499999
 30
0.0
  0
SPLINE
  5
85
330
119
100
AcDbEntity
  8
0
 62
     7
420
 16777215
100
AcDbSpline
210
0.0
220
0.0
230
1.0
 70
     8
 71
     3
 72
     8
 73
     4
 74
     0
 42
0.000000001
 43
0.001
 12
1.0
 22
0.0
 32
0.0
 13
1.0
 23
0.0
 33
0.0
 40
0.0
 40
0.0
 40
0.0
 40
0.0
 40
1.0
 40
1.0
 40
1.0
 40
1.0
 10
40.51136687500002
 20
153.8970843750001
 30
0.0
 10
40.58509687500009
 20
153.897789375
 30
0.0
 10
40.6588281249999
 20
153.9023756250001
 30
0.0
 10
40.73185312500004
 20
153.9073143749999
 30
0.0
  0
SPLINE
  5
86
330
119
100
AcDbEntity
  8
0
 62
     7
420
 16777215
100
AcDbSpline
210
0.0
220
0.0
230
1.0
 70
     8
 71
     3
 72
     8
 73
     4
 74
     0
 42
0.000000001
 43
0.001
 12
1.0
 22
0.0
 32
0.0
 13
1.0
 23
0.0
 33
0.0
 40
0.0
 40
0.0
 40
0.0
 40
0.0
 40
1.0
 40
1.0
 40
1.0
 40
1.0
 10
-85.41442437499995
 20
39.45068187499999
 30
0.0
 10
-83.75813312500009
 20
39.45068187499999
 30
0.0
 10
-82.41404937499999
 20
40.79441187500004
 30
0.0
 10
-82.41404937499999
 20
42.45070437499999
 30
0.0
  0
SPLINE
  5
87
330
119
100
AcDbEntity
  8
0
 62
     7
420
 16777215
100
AcDbSpline
210
0.0
220
0.0
230
1.0
 70
     8
 71
     3
 72
     8
 73
     4
 74
     0
 42
0.000000001
 43
0.001
 12
1.0
 22
0.0
 32
0.0
 13
1.0
 23
0.0
 33
0.0
 40
0.0
 40
0.0
 40
0.0
 40
0.0
 40
1.0
 40
1.0
 40
1.0
 40
1.0
 10
40.73185312500004
 20
153.9073143749999
 30
0.0
 10
40.85109187500007
 20
153.916134375
 30
0.0
 10
40.97033062500009
 20
153.9277756250001
 30
0.0
 10
41.0878056250001
 20
153.9454143749999
 30
0.0
  0
SPLINE
  5
88
330
119
100
AcDbEntity
  8
0
 62
     7
420
 16777215
100
AcDbSpline
210
0.0
220
0.0
230
1.0
 70
     8
 71
     3
 72
     8
 73
     4
 74
     0
 42
0.000000001
 43
0.001
 12
1.0
 22
0.0
 32
0.0
 13
1.0
 23
0.0
 33
0.0
 40
0.0
 40
0.0
 40
0.0
 40
0.0
 40
1.0
 40
1.0
 40
1.0
 40
1.0
 10
-82.41404937499999
 20
42.45070437499999
 30
0.0
 10
-82.41404937499999
 20
43.56054312499998
 30
0.0
 10
-83.11889937500007
 20
44.52750687499997
 30
0.0
 10
-84.01495562499997
 20
45.04608937500007
 30
0.0
  0
SPLINE
  5
89
330
119
100
AcDbEntity
  8
0
 62
     7
420
 16777215
100
AcDbSpline
210
0.0
220
0.0
230
1.0
 70
     8
 71
     3
 72
     8
 73
     4
 74
     0
 42
0.000000001
 43
0.001
 12
1.0
 22
0.0
 32
0.0
 13
1.0
 23
0.0
 33
0.0
 40
0.0
 40
0.0
 40
0.0
 40
0.0
 40
1.0
 40
1.0
 40
1.0
 40
1.0
 10
41.0878056250001
 20
153.9454143749999
 30
0.0
 10
42.86086687500006
 20
154.2114093750001
 30
0.0
 10
44.25328062499989
 20
155.6352206250001
 30
0.0
 10
44.46847562500011
 20
157.4245093750001
 30
0.0
  0
LWPOLYLINE
  5
8A
330
119
100
AcDbEntity
  8
0
 62
     7
420
 16777215
100
AcDbPolyline
 90
        2
 70
     0
 43
0.0
 10
19.23286937500006
 20
6.834964375000027
 10
19.23286937500006
 20
6.834964375000027
  0
LWPOLYLINE
  5
8B
330
119
100
AcDbEntity
  8
0
 62
     7
420
 16777215
100
AcDbPolyline
 90
        2
 70
     0
 43
0.0
 10
22.99806687499995
 20
152.5657006250001
 10
38.28569187500011
 20
152.5657006250001
  0
SPLINE
  5
8C
330
119
100
AcDbEntity
  8
0
 62
     7
420
 16777215
100
AcDbSpline
210
0.0
220
0.0
230
1.0
 70
     8
 71
     3
 72
     8
 73
     4
 74
     0
 42
0.000000001
 43
0.001
 12
1.0
 22
0.0
 32
0.0
 13
1.0
 23
0.0
 33
0.0
 40
0.0
 40
0.0
 40
0.0
 40
0.0
 40
1.0
 40
1.0
 40
1.0
 40
1.0
 10
-84.01495562499997
 20
49.04658937500005
 30
0.0
 10
-84.01495562499997
 20
49.87491187500007
 30
0.0
 10
-84.58539687500001
 20
50.546600625
 30
0.0
 10
-85.41442437499995
 20
50.546600625
 30
0.0
  0
SPLINE
  5
8D
330
119
100
AcDbEntity
  8
0
 62
     7
420
 16777215
100
AcDbSpline
210
0.0
220
0.0
230
1.0
 70
     8
 71
     3
 72
     8
 73
     4
 74
     0
 42
0.000000001
 43
0.001
 12
1.0
 22
0.0
 32
0.0
 13
1.0
 23
0.0
 33
0.0
 40
0.0
 40
0.0
 40
0.0
 40
0.0
 40
1.0
 40
1.0
 40
1.0
 40
1.0
 10
44.46847562500011
 20
165.111536875
 30
0.0
 10
44.24657812500004
 20
166.950568125
 30
0.0
 10
42.78290312500008
 20
168.405423125
 30
0.0
 10
40.93858062499999
 20
168.612856875
 30
0.0
  0
SPLINE
  5
8E
330
119
100
AcDbEntity
  8
0
 62
     7
420
 16777215
100
AcDbSpline
210
0.0
220
0.0
230
1.0
 70
     8
 71
     3
 72
     8
 73
     4
 74
     0
 42
0.000000001
 43
0.001
 12
1.0
 22
0.0
 32
0.0
 13
1.0
 23
0.0
 33
0.0
 40
0.0
 40
0.0
 40
0.0
 40
0.0
 40
1.0
 40
1.0
 40
1.0
 40
1.0
 10
-85.41442437499995
 20
50.546600625
 30
0.0
 10
-86.24274687499997
 20
50.546600625
 30
0.0
 10
-86.81459937499994
 20
49.87491187500007
 30
0.0
 10
-86.81459937499994
 20
49.04658937500005
 30
0.0
  0
LWPOLYLINE
  5
8F
330
119
100
AcDbEntity
  8
0
 62
     7
420
 16777215
100
AcDbPolyline
 90
        2
 70
     0
 43
0.0
 10
44.46847562500011
 20
157.4245093750001
 10
44.46847562500011
 20
165.111536875
  0
LWPOLYLINE
  5
90
330
119
100
AcDbEntity
  8
0
 62
     7
420
 16777215
100
AcDbPolyline
 90
        2
 70
     0
 43
0.0
 10
-84.01495562499997
 20
45.04608937500007
 10
-84.01495562499997
 20
49.04658937500005
  0
SPLINE
  5
91
330
119
100
AcDbEntity
  8
0
 62
     7
420
 16777215
100
AcDbSpline
210
0.0
220
0.0
230
1.0
 70
     8
 71
     3
 72
     8
 73
     4
 74
     0
 42
0.000000001
 43
0.001
 12
1.0
 22
0.0
 32
0.0
 13
1.0
 23
0.0
 33
0.0
 40
0.0
 40
0.0
 40
0.0
 40
0.0
 40
1.0
 40
1.0
 40
1.0
 40
1.0
 10
40.78653312500001
 20
168.6266143749999
 30
0.0
 10
40.73255812499997
 20
168.6301431250001
 30
0.0
 10
40.67752562500004
 20
168.6319068749999
 30
0.0
 10
40.62319687500008
 20
168.6340231250001
 30
0.0
  0
SPLINE
  5
92
330
119
100
AcDbEntity
  8
0
 62
     7
420
 16777215
100
AcDbSpline
210
0.0
220
0.0
230
1.0
 70
     8
 71
     3
 72
     8
 73
     4
 74
     0
 42
0.000000001
 43
0.001
 12
1.0
 22
0.0
 32
0.0
 13
1.0
 23
0.0
 33
0.0
 40
0.0
 40
0.0
 40
0.0
 40
0.0
 40
1.0
 40
1.0
 40
1.0
 40
1.0
 10
-86.81459937499994
 20
45.04608937500007
 30
0.0
 10
-87.71030312499988
 20
44.52715437500001
 30
0.0
 10
-88.41444687500007
 20
43.56018937500005
 30
0.0
 10
-88.41444687500007
 20
42.45070437499999
 30
0.0
  0
SPLINE
  5
93
330
119
100
AcDbEntity
  8
0
 62
     7
420
 16777215
100
AcDbSpline
210
0.0
220
0.0
230
1.0
 70
     8
 71
     3
 72
     8
 73
     4
 74
     0
 42
0.000000001
 43
0.001
 12
1.0
 22
0.0
 32
0.0
 13
1.0
 23
0.0
 33
0.0
 40
0.0
 40
0.0
 40
0.0
 40
0.0
 40
1.0
 40
1.0
 40
1.0
 40
1.0
 10
40.62319687500008
 20
168.6340231250001
 30
0.0
 10
39.66046687500011
 20
168.756436875
 30
0.0
 10
38.82120812500011
 20
169.2707868750001
 30
0.0
 10
38.26628937500004
 20
170.011620625
 30
0.0
  0
LWPOLYLINE
  5
94
330
119
100
AcDbEntity
  8
0
 62
     7
420
 16777215
100
AcDbPolyline
 90
        2
 70
     0
 43
0.0
 10
-86.81459937499994
 20
49.04658937500005
 10
-86.81459937499994
 20
45.04608937500007
  0
LWPOLYLINE
  5
95
330
119
100
AcDbEntity
  8
0
 62
     7
420
 16777215
100
AcDbPolyline
 90
        2
 70
     0
 43
0.0
 10
40.93858062499999
 20
168.612856875
 10
40.78653312500001
 20
168.6266143749999
  0
SPLINE
  5
96
330
119
100
AcDbEntity
  8
0
 62
     7
420
 16777215
100
AcDbSpline
210
0.0
220
0.0
230
1.0
 70
     8
 71
     3
 72
     8
 73
     4
 74
     0
 42
0.000000001
 43
0.001
 12
1.0
 22
0.0
 32
0.0
 13
1.0
 23
0.0
 33
0.0
 40
0.0
 40
0.0
 40
0.0
 40
0.0
 40
1.0
 40
1.0
 40
1.0
 40
1.0
 10
-82.563980625
 20
-57.48630187499998
 30
0.0
 10
-82.563980625
 20
-59.06110187499985
 30
0.0
 10
-83.84068312499994
 20
-60.33674562499993
 30
0.0
 10
-85.41442437499995
 20
-60.33674562499993
 30
0.0
  0
SPLINE
  5
97
330
119
100
AcDbEntity
  8
0
 62
     7
420
 16777215
100
AcDbSpline
210
0.0
220
0.0
230
1.0
 70
     8
 71
     3
 72
     8
 73
     4
 74
     0
 42
0.000000001
 43
0.001
 12
1.0
 22
0.0
 32
0.0
 13
1.0
 23
0.0
 33
0.0
 40
0.0
 40
0.0
 40
0.0
 40
0.0
 40
1.0
 40
1.0
 40
1.0
 40
1.0
 10
23.86484187499991
 20
155.0686593749999
 30
0.0
 10
21.93197187500004
 20
155.0686593749999
 30
0.0
 10
20.36493312500011
 20
156.6360506250001
 30
0.0
 10
20.36493312500011
 20
158.5689206249999
 30
0.0
  0
SPLINE
  5
98
330
119
100
AcDbEntity
  8
0
 62
     7
420
 16777215
100
AcDbSpline
210
0.0
220
0.0
230
1.0
 70
     8
 71
     3
 72
     8
 73
     4
 74
     0
 42
0.000000001
 43
0.001
 12
1.0
 22
0.0
 32
0.0
 13
1.0
 23
0.0
 33
0.0
 40
0.0
 40
0.0
 40
0.0
 40
0.0
 40
1.0
 40
1.0
 40
1.0
 40
1.0
 10
-85.41442437499995
 20
-60.33674562499993
 30
0.0
 10
-86.98816687500005
 20
-60.33674562499993
 30
0.0
 10
-88.26451687500003
 20
-59.06110187499985
 30
0.0
 10
-88.26451687500003
 20
-57.48630187499998
 30
0.0
  0
LWPOLYLINE
  5
99
330
119
100
AcDbEntity
  8
0
 62
     7
420
 16777215
100
AcDbPolyline
 90
        3
 70
     0
 43
0.0
 10
38.26628937500004
 20
170.011620625
 10
22.97901687500007
 20
170.011620625
 10
22.97901687500007
 20
170.011620625
  0
SPLINE
  5
9A
330
119
100
AcDbEntity
  8
0
 62
     7
420
 16777215
100
AcDbSpline
210
0.0
220
0.0
230
1.0
 70
     8
 71
     3
 72
     8
 73
     4
 74
     0
 42
0.000000001
 43
0.001
 12
1.0
 22
0.0
 32
0.0
 13
1.0
 23
0.0
 33
0.0
 40
0.0
 40
0.0
 40
0.0
 40
0.0
 40
1.0
 40
1.0
 40
1.0
 40
1.0
 10
-88.26451687500003
 20
-57.48630187499998
 30
0.0
 10
-88.26451687500003
 20
-55.91256062499997
 30
0.0
 10
-86.98816687500005
 20
-54.63621062499999
 30
0.0
 10
-85.41442437499995
 20
-54.63621062499999
 30
0.0
  0
SPLINE
  5
9B
330
119
100
AcDbEntity
  8
0
 62
     7
420
 16777215
100
AcDbSpline
210
0.0
220
0.0
230
1.0
 70
     8
 71
     3
 72
     8
 73
     4
 74
     0
 42
0.000000001
 43
0.001
 12
1.0
 22
0.0
 32
0.0
 13
1.0
 23
0.0
 33
0.0
 40
0.0
 40
0.0
 40
0.0
 40
0.0
 40
1.0
 40
1.0
 40
1.0
 40
1.0
 10
20.77662562499995
 20
163.311311875
 30
0.0
 10
22.29956687499998
 20
163.311311875
 30
0.0
 10
23.53428937500007
 20
164.544975625
 30
0.0
 10
23.53428937500007
 20
166.0686231249999
 30
0.0
  0
SPLINE
  5
9C
330
119
100
AcDbEntity
  8
0
 62
     7
420
 16777215
100
AcDbSpline
210
0.0
220
0.0
230
1.0
 70
     8
 71
     3
 72
     8
 73
     4
 74
     0
 42
0.000000001
 43
0.001
 12
1.0
 22
0.0
 32
0.0
 13
1.0
 23
0.0
 33
0.0
 40
0.0
 40
0.0
 40
0.0
 40
0.0
 40
1.0
 40
1.0
 40
1.0
 40
1.0
 10
-85.41442437499995
 20
-54.63621062499999
 30
0.0
 10
-83.84068312499994
 20
-54.63621062499999
 30
0.0
 10
-82.563980625
 20
-55.91256062499997
 30
0.0
 10
-82.563980625
 20
-57.48630187499998
 30
0.0
  0
LWPOLYLINE
  5
9D
330
119
100
AcDbEntity
  8
0
 62
     7
420
 16777215
100
AcDbPolyline
 90
        3
 70
     0
 43
0.0
 10
20.36493312500011
 20
158.5689206249999
 10
20.32753937500001
 20
163.318368125
 10
20.77662562499995
 20
163.311311875
  0
SPLINE
  5
9E
330
119
100
AcDbEntity
  8
0
 62
     7
420
 16777215
100
AcDbSpline
210
0.0
220
0.0
230
1.0
 70
     8
 71
     3
 72
     8
 73
     4
 74
     0
 42
0.000000001
 43
0.001
 12
1.0
 22
0.0
 32
0.0
 13
1.0
 23
0.0
 33
0.0
 40
0.0
 40
0.0
 40
0.0
 40
0.0
 40
1.0
 40
1.0
 40
1.0
 40
1.0
 10
-88.41444687500007
 20
-64.28186062500004
 30
0.0
 10
-88.41444687500007
 20
-65.93815187500002
 30
0.0
 10
-87.07071687500002
 20
-67.28188187499995
 30
0.0
 10
-85.41442437499995
 20
-67.28188187499995
 30
0.0
  0
SPLINE
  5
9F
330
119
100
AcDbEntity
  8
0
 62
     7
420
 16777215
100
AcDbSpline
210
0.0
220
0.0
230
1.0
 70
     8
 71
     3
 72
     8
 73
     4
 74
     0
 42
0.000000001
 43
0.001
 12
1.0
 22
0.0
 32
0.0
 13
1.0
 23
0.0
 33
0.0
 40
0.0
 40
0.0
 40
0.0
 40
0.0
 40
1.0
 40
1.0
 40
1.0
 40
1.0
 10
37.62705562499991
 20
167.5686343750001
 30
0.0
 10
39.56027812499997
 20
167.5686343750001
 30
0.0
 10
41.1276693750001
 20
166.0019481250001
 30
0.0
 10
41.1276693750001
 20
164.069079375
 30
0.0
  0
SPLINE
  5
A0
330
119
100
AcDbEntity
  8
0
 62
     7
420
 16777215
100
AcDbSpline
210
0.0
220
0.0
230
1.0
 70
     8
 71
     3
 72
     8
 73
     4
 74
     0
 42
0.000000001
 43
0.001
 12
1.0
 22
0.0
 32
0.0
 13
1.0
 23
0.0
 33
0.0
 40
0.0
 40
0.0
 40
0.0
 40
0.0
 40
1.0
 40
1.0
 40
1.0
 40
1.0
 10
-85.41442437499995
 20
-67.28188187499995
 30
0.0
 10
-83.75813312500009
 20
-67.28188187499995
 30
0.0
 10
-82.41404937499999
 20
-65.93815187500002
 30
0.0
 10
-82.41404937499999
 20
-64.28186062500004
 30
0.0
  0
LWPOLYLINE
  5
A1
330
119
100
AcDbEntity
  8
0
 62
     7
420
 16777215
100
AcDbPolyline
 90
        3
 70
     0
 43
0.0
 10
23.53428937500007
 20
166.0686231249999
 10
23.5268806250001
 20
167.5686343750001
 10
37.62705562499991
 20
167.5686343750001
  0
SPLINE
  5
A2
330
119
100
AcDbEntity
  8
0
 62
     7
420
 16777215
100
AcDbSpline
210
0.0
220
0.0
230
1.0
 70
     8
 71
     3
 72
     8
 73
     4
 74
     0
 42
0.000000001
 43
0.001
 12
1.0
 22
0.0
 32
0.0
 13
1.0
 23
0.0
 33
0.0
 40
0.0
 40
0.0
 40
0.0
 40
0.0
 40
1.0
 40
1.0
 40
1.0
 40
1.0
 10
-82.41404937499999
 20
-64.28186062500004
 30
0.0
 10
-82.41404937499999
 20
-63.17166812499988
 30
0.0
 10
-83.11889937500007
 20
-62.20505687499997
 30
0.0
 10
-84.01495562499997
 20
-61.68612062500006
 30
0.0
  0
SPLINE
  5
A3
330
119
100
AcDbEntity
  8
0
 62
     7
420
 16777215
100
AcDbSpline
210
0.0
220
0.0
230
1.0
 70
     8
 71
     3
 72
     8
 73
     4
 74
     0
 42
0.000000001
 43
0.001
 12
1.0
 22
0.0
 32
0.0
 13
1.0
 23
0.0
 33
0.0
 40
0.0
 40
0.0
 40
0.0
 40
0.0
 40
1.0
 40
1.0
 40
1.0
 40
1.0
 10
39.2769968749999
 20
159.315045625
 30
0.0
 10
37.75934687499989
 20
159.315045625
 30
0.0
 10
36.53026937499999
 20
158.0863206250001
 30
0.0
 10
36.53026937499999
 20
156.5686706250001
 30
0.0
  0
LWPOLYLINE
  5
A4
330
119
100
AcDbEntity
  8
0
 62
     7
420
 16777215
100
AcDbPolyline
 90
        2
 70
     0
 43
0.0
 10
-88.41444687500007
 20
42.45070437499999
 10
-88.41444687500007
 20
42.45070437499999
  0
LWPOLYLINE
  5
A5
330
119
100
AcDbEntity
  8
0
 62
     7
420
 16777215
100
AcDbPolyline
 90
        3
 70
     0
 43
0.0
 10
41.1276693750001
 20
164.069079375
 10
41.1276693750001
 20
159.319279375
 10
39.2769968749999
 20
159.315045625
  0
SPLINE
  5
A6
330
119
100
AcDbEntity
  8
0
 62
     7
420
 16777215
100
AcDbSpline
210
0.0
220
0.0
230
1.0
 70
     8
 71
     3
 72
     8
 73
     4
 74
     0
 42
0.000000001
 43
0.001
 12
1.0
 22
0.0
 32
0.0
 13
1.0
 23
0.0
 33
0.0
 40
0.0
 40
0.0
 40
0.0
 40
0.0
 40
1.0
 40
1.0
 40
1.0
 40
1.0
 10
-84.01495562499997
 20
-57.68491562500003
 30
0.0
 10
-84.01495562499997
 20
-56.8565931249999
 30
0.0
 10
-84.58539687500001
 20
-56.18490437499997
 30
0.0
 10
-85.41442437499995
 20
-56.18490437499997
 30
0.0
  0
SPLINE
  5
A7
330
119
100
AcDbEntity
  8
0
 62
     7
420
 16777215
100
AcDbSpline
210
0.0
220
0.0
230
1.0
 70
     8
 71
     3
 72
     8
 73
     4
 74
     0
 42
0.000000001
 43
0.001
 12
1.0
 22
0.0
 32
0.0
 13
1.0
 23
0.0
 33
0.0
 40
0.0
 40
0.0
 40
0.0
 40
0.0
 40
1.0
 40
1.0
 40
1.0
 40
1.0
 10
40.7766556250001
 20
156.5686706250001
 30
0.0
 10
40.7766556250001
 20
157.3973456250001
 30
0.0
 10
40.10531937499991
 20
158.068681875
 30
0.0
 10
39.27735062500005
 20
158.068681875
 30
0.0
  0
SPLINE
  5
A8
330
119
100
AcDbEntity
  8
0
 62
     7
420
 16777215
100
AcDbSpline
210
0.0
220
0.0
230
1.0
 70
     8
 71
     3
 72
     8
 73
     4
 74
     0
 42
0.000000001
 43
0.001
 12
1.0
 22
0.0
 32
0.0
 13
1.0
 23
0.0
 33
0.0
 40
0.0
 40
0.0
 40
0.0
 40
0.0
 40
1.0
 40
1.0
 40
1.0
 40
1.0
 10
-85.41442437499995
 20
-56.18490437499997
 30
0.0
 10
-86.24274687499997
 20
-56.18490437499997
 30
0.0
 10
-86.81459937499994
 20
-56.8565931249999
 30
0.0
 10
-86.81459937499994
 20
-57.68491562500003
 30
0.0
  0
SPLINE
  5
A9
330
119
100
AcDbEntity
  8
0
 62
     7
420
 16777215
100
AcDbSpline
210
0.0
220
0.0
230
1.0
 70
     8
 71
     3
 72
     8
 73
     4
 74
     0
 42
0.000000001
 43
0.001
 12
1.0
 22
0.0
 32
0.0
 13
1.0
 23
0.0
 33
0.0
 40
0.0
 40
0.0
 40
0.0
 40
0.0
 40
1.0
 40
1.0
 40
1.0
 40
1.0
 10
39.27735062500005
 20
158.068681875
 30
0.0
 10
38.44867562500008
 20
158.068681875
 30
0.0
 10
37.77733937500011
 20
157.3973456250001
 30
0.0
 10
37.77733937500011
 20
156.5686706250001
 30
0.0
  0
LWPOLYLINE
  5
AA
330
119
100
AcDbEntity
  8
0
 62
     7
420
 16777215
100
AcDbPolyline
 90
        2
 70
     0
 43
0.0
 10
-84.01495562499997
 20
-61.68612062500006
 10
-84.01495562499997
 20
-57.68491562500003
  0
SPLINE
  5
AB
330
119
100
AcDbEntity
  8
0
 62
     7
420
 16777215
100
AcDbSpline
210
0.0
220
0.0
230
1.0
 70
     8
 71
     3
 72
     8
 73
     4
 74
     0
 42
0.000000001
 43
0.001
 12
1.0
 22
0.0
 32
0.0
 13
1.0
 23
0.0
 33
0.0
 40
0.0
 40
0.0
 40
0.0
 40
0.0
 40
1.0
 40
1.0
 40
1.0
 40
1.0
 10
37.77733937500011
 20
156.5686706250001
 30
0.0
 10
37.77733937500011
 20
155.7403481250001
 30
0.0
 10
38.44867562500008
 20
155.0686593749999
 30
0.0
 10
39.27735062500005
 20
155.0686593749999
 30
0.0
  0
SPLINE
  5
AC
330
119
100
AcDbEntity
  8
0
 62
     7
420
 16777215
100
AcDbSpline
210
0.0
220
0.0
230
1.0
 70
     8
 71
     3
 72
     8
 73
     4
 74
     0
 42
0.000000001
 43
0.001
 12
1.0
 22
0.0
 32
0.0
 13
1.0
 23
0.0
 33
0.0
 40
0.0
 40
0.0
 40
0.0
 40
0.0
 40
1.0
 40
1.0
 40
1.0
 40
1.0
 10
-86.81459937499994
 20
-61.68612062500006
 30
0.0
 10
-87.71030312499988
 20
-62.20505687499997
 30
0.0
 10
-88.41444687500007
 20
-63.17166812499988
 30
0.0
 10
-88.41444687500007
 20
-64.28186062500004
 30
0.0
  0
SPLINE
  5
AD
330
119
100
AcDbEntity
  8
0
 62
     7
420
 16777215
100
AcDbSpline
210
0.0
220
0.0
230
1.0
 70
     8
 71
     3
 72
     8
 73
     4
 74
     0
 42
0.000000001
 43
0.001
 12
1.0
 22
0.0
 32
0.0
 13
1.0
 23
0.0
 33
0.0
 40
0.0
 40
0.0
 40
0.0
 40
0.0
 40
1.0
 40
1.0
 40
1.0
 40
1.0
 10
39.27735062500005
 20
155.0686593749999
 30
0.0
 10
40.10496687499995
 20
155.0686593749999
 30
0.0
 10
40.7766556250001
 20
155.7403481250001
 30
0.0
 10
40.7766556250001
 20
156.5686706250001
 30
0.0
  0
LWPOLYLINE
  5
AE
330
119
100
AcDbEntity
  8
0
 62
     7
420
 16777215
100
AcDbPolyline
 90
        2
 70
     0
 43
0.0
 10
-86.81459937499994
 20
-57.68491562500003
 10
-86.81459937499994
 20
-61.68612062500006
  0
LWPOLYLINE
  5
AF
330
119
100
AcDbEntity
  8
0
 62
     7
420
 16777215
100
AcDbPolyline
 90
        4
 70
     0
 43
0.0
 10
36.53026937499999
 20
156.5686706250001
 10
36.52638937500001
 20
155.0686593749999
 10
23.86484187499991
 20
155.0686593749999
 10
23.86484187499991
 20
155.0686593749999
  0
SPLINE
  5
B0
330
119
100
AcDbEntity
  8
0
 62
     7
420
 16777215
100
AcDbSpline
210
0.0
220
0.0
230
1.0
 70
     8
 71
     3
 72
     8
 73
     4
 74
     0
 42
0.000000001
 43
0.001
 12
1.0
 22
0.0
 32
0.0
 13
1.0
 23
0.0
 33
0.0
 40
0.0
 40
0.0
 40
0.0
 40
0.0
 40
1.0
 40
1.0
 40
1.0
 40
1.0
 10
148.2588718750001
 20
49.388784375
 30
0.0
 10
148.2588718750001
 20
47.81468937500006
 30
0.0
 10
146.9828756249999
 20
46.53869312500001
 30
0.0
 10
145.408780625
 20
46.53869312500001
 30
0.0
  0
SPLINE
  5
B1
330
119
100
AcDbEntity
  8
0
 62
     7
420
 16777215
100
AcDbSpline
210
0.0
220
0.0
230
1.0
 70
     8
 71
     3
 72
     8
 73
     4
 74
     0
 42
0.000000001
 43
0.001
 12
1.0
 22
0.0
 32
0.0
 13
1.0
 23
0.0
 33
0.0
 40
0.0
 40
0.0
 40
0.0
 40
0.0
 40
1.0
 40
1.0
 40
1.0
 40
1.0
 10
22.27663687499989
 20
166.0689756250001
 30
0.0
 10
22.27663687499989
 20
166.8972981250001
 30
0.0
 10
21.60530062499993
 20
167.5689868750001
 30
0.0
 10
20.77662562499995
 20
167.5689868750001
 30
0.0
  0
SPLINE
  5
B2
330
119
100
AcDbEntity
  8
0
 62
     7
420
 16777215
100
AcDbSpline
210
0.0
220
0.0
230
1.0
 70
     8
 71
     3
 72
     8
 73
     4
 74
     0
 42
0.000000001
 43
0.001
 12
1.0
 22
0.0
 32
0.0
 13
1.0
 23
0.0
 33
0.0
 40
0.0
 40
0.0
 40
0.0
 40
0.0
 40
1.0
 40
1.0
 40
1.0
 40
1.0
 10
145.408780625
 20
46.53869312500001
 30
0.0
 10
143.834686875
 20
46.53869312500001
 30
0.0
 10
142.5586893750001
 20
47.81468937500006
 30
0.0
 10
142.5586893750001
 20
49.388784375
 30
0.0
  0
SPLINE
  5
B3
330
119
100
AcDbEntity
  8
0
 62
     7
420
 16777215
100
AcDbSpline
210
0.0
220
0.0
230
1.0
 70
     8
 71
     3
 72
     8
 73
     4
 74
     0
 42
0.000000001
 43
0.001
 12
1.0
 22
0.0
 32
0.0
 13
1.0
 23
0.0
 33
0.0
 40
0.0
 40
0.0
 40
0.0
 40
0.0
 40
1.0
 40
1.0
 40
1.0
 40
1.0
 10
20.77662562499995
 20
167.5689868750001
 30
0.0
 10
19.94795062499998
 20
167.5689868750001
 30
0.0
 10
19.27661437500001
 20
166.8972981250001
 30
0.0
 10
19.27661437500001
 20
166.0689756250001
 30
0.0
  0
SPLINE
  5
B4
330
119
100
AcDbEntity
  8
0
 62
     7
420
 16777215
100
AcDbSpline
210
0.0
220
0.0
230
1.0
 70
     8
 71
     3
 72
     8
 73
     4
 74
     0
 42
0.000000001
 43
0.001
 12
1.0
 22
0.0
 32
0.0
 13
1.0
 23
0.0
 33
0.0
 40
0.0
 40
0.0
 40
0.0
 40
0.0
 40
1.0
 40
1.0
 40
1.0
 40
1.0
 10
142.5586893750001
 20
49.388784375
 30
0.0
 10
142.5586893750001
 20
50.96323187500002
 30
0.0
 10
143.834686875
 20
52.23887562499999
 30
0.0
 10
145.408780625
 20
52.23887562499999
 30
0.0
  0
SPLINE
  5
B5
330
119
100
AcDbEntity
  8
0
 62
     7
420
 16777215
100
AcDbSpline
210
0.0
220
0.0
230
1.0
 70
     8
 71
     3
 72
     8
 73
     4
 74
     0
 42
0.000000001
 43
0.001
 12
1.0
 22
0.0
 32
0.0
 13
1.0
 23
0.0
 33
0.0
 40
0.0
 40
0.0
 40
0.0
 40
0.0
 40
1.0
 40
1.0
 40
1.0
 40
1.0
 10
19.27661437500001
 20
166.0689756250001
 30
0.0
 10
19.27661437500001
 20
165.2403006249999
 30
0.0
 10
19.94795062499998
 20
164.568964375
 30
0.0
 10
20.77662562499995
 20
164.568964375
 30
0.0
  0
SPLINE
  5
B6
330
119
100
AcDbEntity
  8
0
 62
     7
420
 16777215
100
AcDbSpline
210
0.0
220
0.0
230
1.0
 70
     8
 71
     3
 72
     8
 73
     4
 74
     0
 42
0.000000001
 43
0.001
 12
1.0
 22
0.0
 32
0.0
 13
1.0
 23
0.0
 33
0.0
 40
0.0
 40
0.0
 40
0.0
 40
0.0
 40
1.0
 40
1.0
 40
1.0
 40
1.0
 10
145.408780625
 20
52.23887562499999
 30
0.0
 10
146.9828756249999
 20
52.23887562499999
 30
0.0
 10
148.2588718750001
 20
50.96287937500006
 30
0.0
 10
148.2588718750001
 20
49.388784375
 30
0.0
  0
SPLINE
  5
B7
330
119
100
AcDbEntity
  8
0
 62
     7
420
 16777215
100
AcDbSpline
210
0.0
220
0.0
230
1.0
 70
     8
 71
     3
 72
     8
 73
     4
 74
     0
 42
0.000000001
 43
0.001
 12
1.0
 22
0.0
 32
0.0
 13
1.0
 23
0.0
 33
0.0
 40
0.0
 40
0.0
 40
0.0
 40
0.0
 40
1.0
 40
1.0
 40
1.0
 40
1.0
 10
20.77662562499995
 20
164.568964375
 30
0.0
 10
21.60530062499993
 20
164.568964375
 30
0.0
 10
22.27663687499989
 20
165.2403006249999
 30
0.0
 10
22.27663687499989
 20
166.0689756250001
 30
0.0
  0
SPLINE
  5
B8
330
119
100
AcDbEntity
  8
0
 62
     7
420
 16777215
100
AcDbSpline
210
0.0
220
0.0
230
1.0
 70
     8
 71
     3
 72
     8
 73
     4
 74
     0
 42
0.000000001
 43
0.001
 12
1.0
 22
0.0
 32
0.0
 13
1.0
 23
0.0
 33
0.0
 40
0.0
 40
0.0
 40
0.0
 40
0.0
 40
1.0
 40
1.0
 40
1.0
 40
1.0
 10
142.4087581250001
 20
42.59357937499999
 30
0.0
 10
142.4087581250001
 20
40.93728687500004
 30
0.0
 10
143.7524893750001
 20
39.59390937500007
 30
0.0
 10
145.408780625
 20
39.59390937500007
 30
0.0
  0
LWPOLYLINE
  5
B9
330
119
100
AcDbEntity
  8
0
 62
     7
420
 16777215
100
AcDbPolyline
 90
        2
 70
     0
 43
0.0
 10
40.7766556250001
 20
156.5686706250001
 10
40.7766556250001
 20
156.5686706250001
  0
SPLINE
  5
BA
330
119
100
AcDbEntity
  8
0
 62
     7
420
 16777215
100
AcDbSpline
210
0.0
220
0.0
230
1.0
 70
     8
 71
     3
 72
     8
 73
     4
 74
     0
 42
0.000000001
 43
0.001
 12
1.0
 22
0.0
 32
0.0
 13
1.0
 23
0.0
 33
0.0
 40
0.0
 40
0.0
 40
0.0
 40
0.0
 40
1.0
 40
1.0
 40
1.0
 40
1.0
 10
145.408780625
 20
39.59390937500007
 30
0.0
 10
147.0650718750001
 20
39.59390937500007
 30
0.0
 10
148.4088031250001
 20
40.93728687500004
 30
0.0
 10
148.4088031250001
 20
42.59357937499999
 30
0.0
  0
SPLINE
  5
BB
330
119
100
AcDbEntity
  8
0
 62
     7
420
 16777215
100
AcDbSpline
210
0.0
220
0.0
230
1.0
 70
     8
 71
     3
 72
     8
 73
     4
 74
     0
 42
0.000000001
 43
0.001
 12
1.0
 22
0.0
 32
0.0
 13
1.0
 23
0.0
 33
0.0
 40
0.0
 40
0.0
 40
0.0
 40
0.0
 40
1.0
 40
1.0
 40
1.0
 40
1.0
 10
148.4088031250001
 20
42.59357937499999
 30
0.0
 10
148.4088031250001
 20
43.70377062500006
 30
0.0
 10
147.703953125
 20
44.67038187499998
 30
0.0
 10
146.808250625
 20
45.18896437500007
 30
0.0
  0
LWPOLYLINE
  5
BC
330
119
100
AcDbEntity
  8
0
 62
     7
420
 16777215
100
AcDbPolyline
 90
        2
 70
     0
 43
0.0
 10
-88.41444687500007
 20
-64.28186062500004
 10
-88.41444687500007
 20
-64.28186062500004
  0
LWPOLYLINE
  5
BD
330
119
100
AcDbEntity
  8
0
 62
     7
420
 16777215
100
AcDbPolyline
 90
        2
 70
     0
 43
0.0
 10
22.27663687499989
 20
166.0689756250001
 10
22.27663687499989
 20
166.0689756250001
  0
SPLINE
  5
BE
330
119
100
AcDbEntity
  8
0
 62
     7
420
 16777215
100
AcDbSpline
210
0.0
220
0.0
230
1.0
 70
     8
 71
     3
 72
     8
 73
     4
 74
     0
 42
0.000000001
 43
0.001
 12
1.0
 22
0.0
 32
0.0
 13
1.0
 23
0.0
 33
0.0
 40
0.0
 40
0.0
 40
0.0
 40
0.0
 40
1.0
 40
1.0
 40
1.0
 40
1.0
 10
146.808250625
 20
49.18981812499999
 30
0.0
 10
146.808250625
 20
50.01813937500003
 30
0.0
 10
146.2378081249999
 20
50.68982937500004
 30
0.0
 10
145.408780625
 20
50.68982937500004
 30
0.0
  0
SPLINE
  5
BF
330
119
100
AcDbEntity
  8
0
 62
     7
420
 16777215
100
AcDbSpline
210
0.0
220
0.0
230
1.0
 70
     8
 71
     3
 72
     8
 73
     4
 74
     0
 42
0.000000001
 43
0.001
 12
1.0
 22
0.0
 32
0.0
 13
1.0
 23
0.0
 33
0.0
 40
0.0
 40
0.0
 40
0.0
 40
0.0
 40
1.0
 40
1.0
 40
1.0
 40
1.0
 10
145.408780625
 20
50.68982937500004
 30
0.0
 10
144.580458125
 20
50.68982937500004
 30
0.0
 10
144.008605625
 20
50.01813937500003
 30
0.0
 10
144.008605625
 20
49.18981812499999
 30
0.0
  0
LWPOLYLINE
  5
C0
330
119
100
AcDbEntity
  8
0
 62
     7
420
 16777215
100
AcDbPolyline
 90
        2
 70
     0
 43
0.0
 10
146.808250625
 20
45.18896437500007
 10
146.808250625
 20
49.18981812499999
  0
SPLINE
  5
C1
330
119
100
AcDbEntity
  8
0
 62
     7
420
 16777215
100
AcDbSpline
210
0.0
220
0.0
230
1.0
 70
     8
 71
     3
 72
     8
 73
     4
 74
     0
 42
0.000000001
 43
0.001
 12
1.0
 22
0.0
 32
0.0
 13
1.0
 23
0.0
 33
0.0
 40
0.0
 40
0.0
 40
0.0
 40
0.0
 40
1.0
 40
1.0
 40
1.0
 40
1.0
 10
144.008605625
 20
45.18896437500007
 30
0.0
 10
143.112903125
 20
44.67038187499998
 30
0.0
 10
142.4087581250001
 20
43.70377062500006
 30
0.0
 10
142.4087581250001
 20
42.59357937499999
 30
0.0
  0
LWPOLYLINE
  5
C2
330
119
100
AcDbEntity
  8
0
 62
     7
420
 16777215
100
AcDbPolyline
 90
        2
 70
     0
 43
0.0
 10
144.008605625
 20
49.18981812499999
 10
144.008605625
 20
45.18896437500007
  0
SPLINE
  5
C3
330
119
100
AcDbEntity
  8
0
 62
     7
420
 16777215
100
AcDbSpline
210
0.0
220
0.0
230
1.0
 70
     8
 71
     3
 72
     8
 73
     4
 74
     0
 42
0.000000001
 43
0.001
 12
1.0
 22
0.0
 32
0.0
 13
1.0
 23
0.0
 33
0.0
 40
0.0
 40
0.0
 40
0.0
 40
0.0
 40
1.0
 40
1.0
 40
1.0
 40
1.0
 10
148.2588718750001
 20
-57.38540687499994
 30
0.0
 10
148.2588718750001
 20
-58.95950187499989
 30
0.0
 10
146.9828756249999
 20
-60.2354993749999
 30
0.0
 10
145.408780625
 20
-60.2354993749999
 30
0.0
  0
SPLINE
  5
C4
330
119
100
AcDbEntity
  8
0
 62
     7
420
 16777215
100
AcDbSpline
210
0.0
220
0.0
230
1.0
 70
     8
 71
     3
 72
     8
 73
     4
 74
     0
 42
0.000000001
 43
0.001
 12
1.0
 22
0.0
 32
0.0
 13
1.0
 23
0.0
 33
0.0
 40
0.0
 40
0.0
 40
0.0
 40
0.0
 40
1.0
 40
1.0
 40
1.0
 40
1.0
 10
145.408780625
 20
-60.2354993749999
 30
0.0
 10
143.834686875
 20
-60.2354993749999
 30
0.0
 10
142.5586893750001
 20
-58.95950187499989
 30
0.0
 10
142.5586893750001
 20
-57.38540687499994
 30
0.0
  0
SPLINE
  5
C5
330
119
100
AcDbEntity
  8
0
 62
     7
420
 16777215
100
AcDbSpline
210
0.0
220
0.0
230
1.0
 70
     8
 71
     3
 72
     8
 73
     4
 74
     0
 42
0.000000001
 43
0.001
 12
1.0
 22
0.0
 32
0.0
 13
1.0
 23
0.0
 33
0.0
 40
0.0
 40
0.0
 40
0.0
 40
0.0
 40
1.0
 40
1.0
 40
1.0
 40
1.0
 10
142.5586893750001
 20
-57.38540687499994
 30
0.0
 10
142.5586893750001
 20
-55.81096062500001
 30
0.0
 10
143.834686875
 20
-54.53531562500007
 30
0.0
 10
145.408780625
 20
-54.53531562500007
 30
0.0
  0
SPLINE
  5
C6
330
119
100
AcDbEntity
  8
0
 62
     7
420
 16777215
100
AcDbSpline
210
0.0
220
0.0
230
1.0
 70
     8
 71
     3
 72
     8
 73
     4
 74
     0
 42
0.000000001
 43
0.001
 12
1.0
 22
0.0
 32
0.0
 13
1.0
 23
0.0
 33
0.0
 40
0.0
 40
0.0
 40
0.0
 40
0.0
 40
1.0
 40
1.0
 40
1.0
 40
1.0
 10
145.408780625
 20
-54.53531562500007
 30
0.0
 10
146.9828756249999
 20
-54.53531562500007
 30
0.0
 10
148.2588718750001
 20
-55.81131312499997
 30
0.0
 10
148.2588718750001
 20
-57.38540687499994
 30
0.0
  0
LWPOLYLINE
  5
C7
330
119
100
AcDbEntity
  8
0
 62
     7
420
 16777215
100
AcDbPolyline
 90
        2
 70
     0
 43
0.0
 10
142.4087581250001
 20
42.59357937499999
 10
142.4087581250001
 20
42.59357937499999
  0
SPLINE
  5
C8
330
119
100
AcDbEntity
  8
0
 62
     7
420
 16777215
100
AcDbSpline
210
0.0
220
0.0
230
1.0
 70
     8
 71
     3
 72
     8
 73
     4
 74
     0
 42
0.000000001
 43
0.001
 12
1.0
 22
0.0
 32
0.0
 13
1.0
 23
0.0
 33
0.0
 40
0.0
 40
0.0
 40
0.0
 40
0.0
 40
1.0
 40
1.0
 40
1.0
 40
1.0
 10
142.4087581250001
 20
-64.18061312500004
 30
0.0
 10
142.4087581250001
 20
-65.8369043749999
 30
0.0
 10
143.7524893750001
 20
-67.18063562499992
 30
0.0
 10
145.408780625
 20
-67.18063562499992
 30
0.0
  0
SPLINE
  5
C9
330
119
100
AcDbEntity
  8
0
 62
     7
420
 16777215
100
AcDbSpline
210
0.0
220
0.0
230
1.0
 70
     8
 71
     3
 72
     8
 73
     4
 74
     0
 42
0.000000001
 43
0.001
 12
1.0
 22
0.0
 32
0.0
 13
1.0
 23
0.0
 33
0.0
 40
0.0
 40
0.0
 40
0.0
 40
0.0
 40
1.0
 40
1.0
 40
1.0
 40
1.0
 10
145.408780625
 20
-67.18063562499992
 30
0.0
 10
147.0650718750001
 20
-67.18063562499992
 30
0.0
 10
148.4088031250001
 20
-65.8369043749999
 30
0.0
 10
148.4088031250001
 20
-64.18061312500004
 30
0.0
  0
SPLINE
  5
CA
330
119
100
AcDbEntity
  8
0
 62
     7
420
 16777215
100
AcDbSpline
210
0.0
220
0.0
230
1.0
 70
     8
 71
     3
 72
     8
 73
     4
 74
     0
 42
0.000000001
 43
0.001
 12
1.0
 22
0.0
 32
0.0
 13
1.0
 23
0.0
 33
0.0
 40
0.0
 40
0.0
 40
0.0
 40
0.0
 40
1.0
 40
1.0
 40
1.0
 40
1.0
 10
148.4088031250001
 20
-64.18061312500004
 30
0.0
 10
148.4088031250001
 20
-63.070420625
 30
0.0
 10
147.703953125
 20
-62.10381062499994
 30
0.0
 10
146.808250625
 20
-61.58487437500003
 30
0.0
  0
SPLINE
  5
CB
330
119
100
AcDbEntity
  8
0
 62
     7
420
 16777215
100
AcDbSpline
210
0.0
220
0.0
230
1.0
 70
     8
 71
     3
 72
     8
 73
     4
 74
     0
 42
0.000000001
 43
0.001
 12
1.0
 22
0.0
 32
0.0
 13
1.0
 23
0.0
 33
0.0
 40
0.0
 40
0.0
 40
0.0
 40
0.0
 40
1.0
 40
1.0
 40
1.0
 40
1.0
 10
146.808250625
 20
-57.58437437499992
 30
0.0
 10
146.808250625
 20
-56.75605187499991
 30
0.0
 10
146.2378081249999
 20
-56.08436312499998
 30
0.0
 10
145.408780625
 20
-56.08436312499998
 30
0.0
  0
SPLINE
  5
CC
330
119
100
AcDbEntity
  8
0
 62
     7
420
 16777215
100
AcDbSpline
210
0.0
220
0.0
230
1.0
 70
     8
 71
     3
 72
     8
 73
     4
 74
     0
 42
0.000000001
 43
0.001
 12
1.0
 22
0.0
 32
0.0
 13
1.0
 23
0.0
 33
0.0
 40
0.0
 40
0.0
 40
0.0
 40
0.0
 40
1.0
 40
1.0
 40
1.0
 40
1.0
 10
145.408780625
 20
-56.08436312499998
 30
0.0
 10
144.580458125
 20
-56.08436312499998
 30
0.0
 10
144.008605625
 20
-56.75605187499991
 30
0.0
 10
144.008605625
 20
-57.58437437499992
 30
0.0
  0
LWPOLYLINE
  5
CD
330
119
100
AcDbEntity
  8
0
 62
     7
420
 16777215
100
AcDbPolyline
 90
        2
 70
     0
 43
0.0
 10
146.808250625
 20
-61.58487437500003
 10
146.808250625
 20
-57.58437437499992
  0
SPLINE
  5
CE
330
119
100
AcDbEntity
  8
0
 62
     7
420
 16777215
100
AcDbSpline
210
0.0
220
0.0
230
1.0
 70
     8
 71
     3
 72
     8
 73
     4
 74
     0
 42
0.000000001
 43
0.001
 12
1.0
 22
0.0
 32
0.0
 13
1.0
 23
0.0
 33
0.0
 40
0.0
 40
0.0
 40
0.0
 40
0.0
 40
1.0
 40
1.0
 40
1.0
 40
1.0
 10
144.008605625
 20
-61.58487437500003
 30
0.0
 10
143.112903125
 20
-62.10381062499994
 30
0.0
 10
142.4087581250001
 20
-63.070420625
 30
0.0
 10
142.4087581250001
 20
-64.18061312500004
 30
0.0
  0
LWPOLYLINE
  5
CF
330
119
100
AcDbEntity
  8
0
 62
     7
420
 16777215
100
AcDbPolyline
 90
        2
 70
     0
 43
0.0
 10
144.008605625
 20
-57.58437437499992
 10
144.008605625
 20
-61.58487437500003
  0
LWPOLYLINE
  5
D0
330
119
100
AcDbEntity
  8
0
 62
     7
420
 16777215
100
AcDbPolyline
 90
        2
 70
     0
 43
0.0
 10
142.4087581250001
 20
-64.18061312500004
 10
142.4087581250001
 20
-64.18061312500004
  0
SPLINE
  5
D1
330
119
100
AcDbEntity
  8
0
 62
     7
420
 16777215
100
AcDbSpline
210
0.0
220
0.0
230
1.0
 70
     8
 71
     3
 72
     8
 73
     4
 74
     0
 42
0.000000001
 43
0.001
 12
1.0
 22
0.0
 32
0.0
 13
1.0
 23
0.0
 33
0.0
 40
0.0
 40
0.0
 40
0.0
 40
0.0
 40
1.0
 40
1.0
 40
1.0
 40
1.0
 10
-85.00026312500006
 20
-126.011620625
 30
0.0
 10
-88.31531687500001
 20
-126.011620625
 30
0.0
 10
-91.00136687500003
 20
-123.3252181249999
 30
0.0
 10
-91.00136687500003
 20
-120.0115768749999
 30
0.0
  0
SPLINE
  5
D2
330
119
100
AcDbEntity
  8
0
 62
     7
420
 16777215
100
AcDbSpline
210
0.0
220
0.0
230
1.0
 70
     8
 71
     3
 72
     8
 73
     4
 74
     0
 42
0.000000001
 43
0.001
 12
1.0
 22
0.0
 32
0.0
 13
1.0
 23
0.0
 33
0.0
 40
0.0
 40
0.0
 40
0.0
 40
0.0
 40
1.0
 40
1.0
 40
1.0
 40
1.0
 10
-91.00136687500003
 20
109.988598125
 30
0.0
 10
-91.00136687500003
 20
113.302239375
 30
0.0
 10
-88.31566937500008
 20
115.988643125
 30
0.0
 10
-85.00026312500006
 20
115.988643125
 30
0.0
  0
LWPOLYLINE
  5
D3
330
119
100
AcDbEntity
  8
0
 62
     7
420
 16777215
100
AcDbPolyline
 90
        2
 70
     0
 43
0.0
 10
-91.00136687500003
 20
-120.0115768749999
 10
-91.00136687500003
 20
109.988598125
  0
SPLINE
  5
D4
330
119
100
AcDbEntity
  8
0
 62
     7
420
 16777215
100
AcDbSpline
210
0.0
220
0.0
230
1.0
 70
     8
 71
     3
 72
     8
 73
     4
 74
     0
 42
0.000000001
 43
0.001
 12
1.0
 22
0.0
 32
0.0
 13
1.0
 23
0.0
 33
0.0
 40
0.0
 40
0.0
 40
0.0
 40
0.0
 40
1.0
 40
1.0
 40
1.0
 40
1.0
 10
145.0006168750001
 20
115.988643125
 30
0.0
 10
148.3146118750001
 20
115.988643125
 30
0.0
 10
151.001366875
 20
113.302239375
 30
0.0
 10
151.001366875
 20
109.988598125
 30
0.0
  0
LWPOLYLINE
  5
D5
330
119
100
AcDbEntity
  8
0
 62
     7
420
 16777215
100
AcDbPolyline
 90
        2
 70
     0
 43
0.0
 10
-85.00026312500006
 20
115.988643125
 10
145.0006168750001
 20
115.988643125
  0
SPLINE
  5
D6
330
119
100
AcDbEntity
  8
0
 62
     7
420
 16777215
100
AcDbSpline
210
0.0
220
0.0
230
1.0
 70
     8
 71
     3
 72
     8
 73
     4
 74
     0
 42
0.000000001
 43
0.001
 12
1.0
 22
0.0
 32
0.0
 13
1.0
 23
0.0
 33
0.0
 40
0.0
 40
0.0
 40
0.0
 40
0.0
 40
1.0
 40
1.0
 40
1.0
 40
1.0
 10
151.001366875
 20
-120.0115768749999
 30
0.0
 10
151.001366875
 20
-123.3252181249999
 30
0.0
 10
148.3146118750001
 20
-126.011620625
 30
0.0
 10
145.0006168750001
 20
-126.011620625
 30
0.0
  0
LWPOLYLINE
  5
D7
330
119
100
AcDbEntity
  8
0
 62
     7
420
 16777215
100
AcDbPolyline
 90
        2
 70
     0
 43
0.0
 10
151.001366875
 20
109.988598125
 10
151.001366875
 20
-120.0115768749999
  0
LWPOLYLINE
  5
D8
330
119
100
AcDbEntity
  8
0
 62
     7
420
 16777215
100
AcDbPolyline
 90
        3
 70
     0
 43
0.0
 10
145.0006168750001
 20
-126.011620625
 10
-85.00026312500006
 20
-126.011620625
 10
-85.00026312500006
 20
-126.011620625
  0
LWPOLYLINE
  5
D9
330
119
100
AcDbEntity
  8
0
 62
     7
420
 16777215
100
AcDbPolyline
 90
        2
 70
     0
 43
0.0
 10
20.00051437499997
 20
-118.863638125
 10
20.00051437499997
 20
-115.0127156249999
  0
LWPOLYLINE
  5
DA
330
119
100
AcDbEntity
  8
0
 62
     7
420
 16777215
100
AcDbPolyline
 90
        2
 70
     0
 43
0.0
 10
10.00032187500005
 20
-115.0127156249999
 10
10.00032187500005
 20
-118.863638125
  0
LWPOLYLINE
  5
DB
330
119
100
AcDbEntity
  8
0
 62
     7
420
 16777215
100
AcDbPolyline
 90
        2
 70
     0
 43
0.0
 10
10.00032187500005
 20
104.9890318750001
 10
10.00032187500005
 20
108.841011875
  0
LWPOLYLINE
  5
DC
330
119
100
AcDbEntity
  8
0
 62
     7
420
 16777215
100
AcDbPolyline
 90
        2
 70
     0
 43
0.0
 10
0.0004831249999597
 20
108.841011875
 10
0.0004831249999597
 20
104.9890318750001
  0
LWPOLYLINE
  5
DD
330
119
100
AcDbEntity
  8
0
 62
     7
420
 16777215
100
AcDbPolyline
 90
        2
 70
     0
 43
0.0
 10
0.0004831249999597
 20
-118.863638125
 10
0.0004831249999597
 20
-115.0127156249999
  0
LWPOLYLINE
  5
DE
330
119
100
AcDbEntity
  8
0
 62
     7
420
 16777215
100
AcDbPolyline
 90
        2
 70
     0
 43
0.0
 10
-9.999708124999984
 20
104.9890318750001
 10
-9.999708124999984
 20
108.841011875
  0
LWPOLYLINE
  5
DF
330
119
100
AcDbEntity
  8
0
 62
     7
420
 16777215
100
AcDbPolyline
 90
        2
 70
     0
 43
0.0
 10
-9.999708124999984
 20
-115.0127156249999
 10
-9.999708124999984
 20
-118.863638125
  0
LWPOLYLINE
  5
E0
330
119
100
AcDbEntity
  8
0
 62
     7
420
 16777215
100
AcDbPolyline
 90
        2
 70
     0
 43
0.0
 10
-20.00025312500009
 20
108.841011875
 10
-20.00025312500009
 20
104.9890318750001
  0
LWPOLYLINE
  5
E1
330
119
100
AcDbEntity
  8
0
 62
     7
420
 16777215
100
AcDbPolyline
 90
        2
 70
     0
 43
0.0
 10
-20.00025312500009
 20
-118.863638125
 10
-20.00025312500009
 20
-115.0127156249999
  0
LWPOLYLINE
  5
E2
330
119
100
AcDbEntity
  8
0
 62
     7
420
 16777215
100
AcDbPolyline
 90
        2
 70
     0
 43
0.0
 10
-29.99938562499995
 20
104.9890318750001
 10
-29.99938562499995
 20
108.841011875
  0
LWPOLYLINE
  5
E3
330
119
100
AcDbEntity
  8
0
 62
     7
420
 16777215
100
AcDbPolyline
 90
        2
 70
     0
 43
0.0
 10
-29.99938562499995
 20
-115.0127156249999
 10
-29.99938562499995
 20
-118.863638125
  0
LWPOLYLINE
  5
E4
330
119
100
AcDbEntity
  8
0
 62
     7
420
 16777215
100
AcDbPolyline
 90
        2
 70
     0
 43
0.0
 10
-40.00204687499991
 20
108.841011875
 10
-40.00204687499991
 20
104.9890318750001
  0
LWPOLYLINE
  5
E5
330
119
100
AcDbEntity
  8
0
 62
     7
420
 16777215
100
AcDbPolyline
 90
        2
 70
     0
 43
0.0
 10
-40.00204687499991
 20
-118.863638125
 10
-40.00204687499991
 20
-115.0127156249999
  0
LWPOLYLINE
  5
E6
330
119
100
AcDbEntity
  8
0
 62
     7
420
 16777215
100
AcDbPolyline
 90
        2
 70
     0
 43
0.0
 10
-50.00259187500001
 20
-115.0127156249999
 10
-50.00259187500001
 20
-118.863638125
  0
LWPOLYLINE
  5
E7
330
119
100
AcDbEntity
  8
0
 62
     7
420
 16777215
100
AcDbPolyline
 90
        2
 70
     0
 43
0.0
 10
-50.00259187500001
 20
104.9890318750001
 10
-50.00259187500001
 20
108.841011875
  0
LWPOLYLINE
  5
E8
330
119
100
AcDbEntity
  8
0
 62
     7
420
 16777215
100
AcDbPolyline
 90
        2
 70
     0
 43
0.0
 10
-60.00278312500006
 20
-118.863638125
 10
-60.00278312500006
 20
-115.0127156249999
  0
LWPOLYLINE
  5
E9
330
119
100
AcDbEntity
  8
0
 62
     7
420
 16777215
100
AcDbPolyline
 90
        2
 70
     0
 43
0.0
 10
-60.00278312500006
 20
108.841011875
 10
-60.00278312500006
 20
104.9890318750001
  0
LWPOLYLINE
  5
EA
330
119
100
AcDbEntity
  8
0
 62
     7
420
 16777215
100
AcDbPolyline
 90
        2
 70
     0
 43
0.0
 10
-70.00262187500005
 20
-115.0127156249999
 10
-70.00262187500005
 20
-118.863638125
  0
LWPOLYLINE
  5
EB
330
119
100
AcDbEntity
  8
0
 62
     7
420
 16777215
100
AcDbPolyline
 90
        2
 70
     0
 43
0.0
 10
-70.00262187500005
 20
104.9890318750001
 10
-70.00262187500005
 20
108.841011875
  0
LWPOLYLINE
  5
EC
330
119
100
AcDbEntity
  8
0
 62
     7
420
 16777215
100
AcDbPolyline
 90
        2
 70
     0
 43
0.0
 10
-80.00246062500003
 20
-118.863638125
 10
-80.00246062500003
 20
108.841011875
  0
LWPOLYLINE
  5
ED
330
119
100
AcDbEntity
  8
0
 62
     7
420
 16777215
100
AcDbPolyline
 90
        2
 70
     0
 43
0.0
 10
144.059405625
 20
104.9890318750001
 10
-84.06152187500004
 20
104.9890318750001
  0
LWPOLYLINE
  5
EE
330
119
100
AcDbEntity
  8
0
 62
     7
420
 16777215
100
AcDbPolyline
 90
        2
 70
     0
 43
0.0
 10
144.059405625
 20
94.98954562500012
 10
140.0006968749999
 20
94.98954562500012
  0
LWPOLYLINE
  5
EF
330
119
100
AcDbEntity
  8
0
 62
     7
420
 16777215
100
AcDbPolyline
 90
        2
 70
     0
 43
0.0
 10
-84.06152187500004
 20
94.98954562500012
 10
-80.00246062500003
 20
94.98954562500012
  0
LWPOLYLINE
  5
F0
330
119
100
AcDbEntity
  8
0
 62
     7
420
 16777215
100
AcDbPolyline
 90
        2
 70
     0
 43
0.0
 10
-84.06152187500004
 20
84.98935437499995
 10
-80.00246062500003
 20
84.98935437499995
  0
LWPOLYLINE
  5
F1
330
119
100
AcDbEntity
  8
0
 62
     7
420
 16777215
100
AcDbPolyline
 90
        2
 70
     0
 43
0.0
 10
144.059405625
 20
84.98935437499995
 10
140.0006968749999
 20
84.98935437499995
  0
LWPOLYLINE
  5
F2
330
119
100
AcDbEntity
  8
0
 62
     7
420
 16777215
100
AcDbPolyline
 90
        2
 70
     0
 43
0.0
 10
144.059405625
 20
74.989514375
 10
140.0006968749999
 20
74.989514375
  0
LWPOLYLINE
  5
F3
330
119
100
AcDbEntity
  8
0
 62
     7
420
 16777215
100
AcDbPolyline
 90
        2
 70
     0
 43
0.0
 10
-84.06152187500004
 20
74.989514375
 10
-80.00246062500003
 20
74.989514375
  0
LWPOLYLINE
  5
F4
330
119
100
AcDbEntity
  8
0
 62
     7
420
 16777215
100
AcDbPolyline
 90
        2
 70
     0
 43
0.0
 10
-84.06152187500004
 20
64.98897062500009
 10
-80.00246062500003
 20
64.98897062500009
  0
LWPOLYLINE
  5
F5
330
119
100
AcDbEntity
  8
0
 62
     7
420
 16777215
100
AcDbPolyline
 90
        2
 70
     0
 43
0.0
 10
144.059405625
 20
64.98897062500009
 10
140.0006968749999
 20
64.98897062500009
  0
LWPOLYLINE
  5
F6
330
119
100
AcDbEntity
  8
0
 62
     7
420
 16777215
100
AcDbPolyline
 90
        2
 70
     0
 43
0.0
 10
144.059405625
 20
54.989131875
 10
140.0006968749999
 20
54.989131875
  0
LWPOLYLINE
  5
F7
330
119
100
AcDbEntity
  8
0
 62
     7
420
 16777215
100
AcDbPolyline
 90
        2
 70
     0
 43
0.0
 10
-84.06152187500004
 20
54.989131875
 10
-80.00246062500003
 20
54.989131875
  0
LWPOLYLINE
  5
F8
330
119
100
AcDbEntity
  8
0
 62
     7
420
 16777215
100
AcDbPolyline
 90
        2
 70
     0
 43
0.0
 10
144.059405625
 20
44.98858687500001
 10
140.0006968749999
 20
44.98858687500001
  0
LWPOLYLINE
  5
F9
330
119
100
AcDbEntity
  8
0
 62
     7
420
 16777215
100
AcDbPolyline
 90
        2
 70
     0
 43
0.0
 10
-84.06152187500004
 20
44.98858687500001
 10
-80.00246062500003
 20
44.98858687500001
  0
LWPOLYLINE
  5
FA
330
119
100
AcDbEntity
  8
0
 62
     7
420
 16777215
100
AcDbPolyline
 90
        2
 70
     0
 43
0.0
 10
-84.06152187500004
 20
34.98874812500003
 10
-80.00246062500003
 20
34.98874812500003
  0
ENDSEC
  0
SECTION
  2
OBJECTS
  0
DICTIONARY
  5
107
330
0
100
AcDbDictionary
281
     1
  3
ACAD_GROUP
350
108
  3
ACAD_LAYOUT
350
114
  3
ACAD_MATERIAL
350
135
  3
ACAD_MLEADERSTYLE
350
151
  3
ACAD_MLINESTYLE
350
111
  3
ACAD_PLOTSETTINGS
350
113
  3
ACAD_PLOTSTYLENAME
350
109
  3
ACAD_TABLESTYLE
350
150
  3
ACAD_VISUALSTYLE
350
124
  3
QCAD_OBJECTS
350
13A
  0
DICTIONARY
  5
108
102
{ACAD_REACTORS
330
107
102
}
330
107
100
AcDbDictionary
281
     1
  0
DICTIONARY
  5
114
102
{ACAD_REACTORS
330
107
102
}
330
107
100
AcDbDictionary
281
     1
  3
Layout1
350
118
  3
Layout2
350
120
  3
Model
350
11C
  0
DICTIONARY
  5
135
102
{ACAD_REACTORS
330
107
102
}
330
107
100
AcDbDictionary
281
     1
  3
ByBlock
350
137
  3
ByLayer
350
136
  3
Global
350
138
  0
DICTIONARY
  5
151
102
{ACAD_REACTORS
330
107
102
}
330
107
100
AcDbDictionary
281
     1
  0
DICTIONARY
  5
111
102
{ACAD_REACTORS
330
107
102
}
330
107
100
AcDbDictionary
281
     1
  3
Standard
350
112
  0
DICTIONARY
  5
113
102
{ACAD_REACTORS
330
107
102
}
330
107
100
AcDbDictionary
281
     1
  0
ACDBDICTIONARYWDFLT
  5
109
102
{ACAD_REACTORS
330
107
102
}
330
107
100
AcDbDictionary
281
     1
  3
Normal
350
10A
100
AcDbDictionaryWithDefault
340
10A
  0
DICTIONARY
  5
150
102
{ACAD_REACTORS
330
107
102
}
330
107
100
AcDbDictionary
281
     1
  0
DICTIONARY
  5
124
102
{ACAD_REACTORS
330
107
102
}
330
107
100
AcDbDictionary
281
     1
  3
2dWireframe
350
129
  3
3D Hidden
350
12B
  3
3dWireframe
350
12A
  3
Basic
350
12C
  3
Brighten
350
130
  3
ColorChange
350
134
  3
Conceptual
350
12E
  3
Dim
350
12F
  3
Facepattern
350
133
  3
Flat
350
125
  3
FlatWithEdges
350
126
  3
Gouraud
350
127
  3
GouraudWithEdges
350
128
  3
Linepattern
350
132
  3
Realistic
350
12D
  3
Thicken
350
131
  0
DICTIONARY
  5
13A
102
{ACAD_REACTORS
330
107
102
}
330
107
100
AcDbDictionary
281
     1
  3
Grid/DisplayGrid
350
13B
  3
PageSettings/Scale
350
13C
  0
LAYOUT
  5
118
102
{ACAD_REACTORS
330
114
102
}
330
114
100
AcDbPlotSettings
  1

  2
none_device
  4

  6

 40
0.0
 41
0.0
 42
0.0
 43
0.0
 44
0.0
 45
0.0
 46
0.0
 47
0.0
 48
0.0
 49
0.0
140
0.0
141
0.0
142
1.0
143
1.0
 70
   688
 72
     0
 73
     0
 74
     5
  7

 75
    16
 76
     0
 77
     2
 78
   300
147
1.0
148
0.0
149
0.0
100
AcDbLayout
  1
Layout1
 70
     1
 71
     1
 10
0.0
 20
0.0
 11
12.0
 21
9.0
 12
0.0
 22
0.0
 32
0.0
 14
1.000000000000000E+20
 24
1.000000000000000E+20
 34
1.000000000000000E+20
 15
-1.000000000000000E+20
 25
-1.000000000000000E+20
 35
-1.000000000000000E+20
146
0.0
 13
0.0
 23
0.0
 33
0.0
 16
1.0
 26
0.0
 36
0.0
 17
0.0
 27
1.0
 37
0.0
 76
     0
330
115
  0
LAYOUT
  5
120
102
{ACAD_REACTORS
330
114
102
}
330
114
100
AcDbPlotSettings
  1

  2
none_device
  4

  6

 40
0.0
 41
0.0
 42
0.0
 43
0.0
 44
0.0
 45
0.0
 46
0.0
 47
0.0
 48
0.0
 49
0.0
140
0.0
141
0.0
142
1.0
143
1.0
 70
   688
 72
     0
 73
     0
 74
     5
  7

 75
    16
 76
     0
 77
     2
 78
   300
147
1.0
148
0.0
149
0.0
100
AcDbLayout
  1
Layout2
 70
     1
 71
     2
 10
0.0
 20
0.0
 11
0.0
 21
0.0
 12
0.0
 22
0.0
 32
0.0
 14
0.0
 24
0.0
 34
0.0
 15
0.0
 25
0.0
 35
0.0
146
0.0
 13
0.0
 23
0.0
 33
0.0
 16
1.0
 26
0.0
 36
0.0
 17
0.0
 27
1.0
 37
0.0
 76
     0
330
11D
  0
LAYOUT
  5
11C
102
{ACAD_REACTORS
330
114
102
}
330
114
100
AcDbPlotSettings
  1

  2
none_device
  4

  6

 40
0.0
 41
0.0
 42
0.0
 43
0.0
 44
0.0
 45
0.0
 46
0.0
 47
0.0
 48
0.0
 49
0.0
140
0.0
141
0.0
142
1.0
143
1.0
 70
  1712
 72
     0
 73
     0
 74
     0
  7

 75
     0
 76
     0
 77
     2
 78
   300
147
1.0
148
0.0
149
0.0
100
AcDbLayout
  1
Model
 70
     1
 71
     0
 10
0.0
 20
0.0
 11
12.0
 21
9.0
 12
0.0
 22
0.0
 32
0.0
 14
1.000000000000000E+20
 24
1.000000000000000E+20
 34
1.000000000000000E+20
 15
-1.000000000000000E+20
 25
-1.000000000000000E+20
 35
-1.000000000000000E+20
146
0.0
 13
0.0
 23
0.0
 33
0.0
 16
1.0
 26
0.0
 36
0.0
 17
0.0
 27
1.0
 37
0.0
 76
     0
330
119
331
123
  0
MATERIAL
  5
137
102
{ACAD_REACTORS
330
135
102
}
330
135
100
AcDbMaterial
  1
ByBlock
 72
     1
 94
      127
  0
MATERIAL
  5
136
102
{ACAD_REACTORS
330
135
102
}
330
135
100
AcDbMaterial
  1
ByLayer
 72
     1
 94
      127
  0
MATERIAL
  5
138
102
{ACAD_REACTORS
330
135
102
}
330
135
100
AcDbMaterial
  1
Global
 72
     1
 94
      127
  0
MLINESTYLE
  5
112
102
{ACAD_REACTORS
330
111
102
}
330
111
100
AcDbMlineStyle
  2
Standard
 70
     0
  3

 62
   256
 51
90.0
 52
90.0
 71
     2
 49
0.5
 62
   256
  6
BYLAYER
 49
-0.5
 62
   256
  6
BYLAYER
  0
ACDBPLACEHOLDER
  5
10A
102
{ACAD_REACTORS
330
109
102
}
330
109
  0
VISUALSTYLE
  5
129
102
{ACAD_REACTORS
330
124
102
}
330
124
100
AcDbVisualStyle
  2
2dWireframe
 70
     4
177
     2
291
     0
 71
     0
176
     1
 72
     2
176
     1
 73
     0
176
     1
 90
        0
176
     1
 40
-0.6
176
     1
 41
-30.0
176
     1
 62
     5
 63
     7
421
 16777215
176
     1
 74
     1
176
     1
 91
        4
176
     1
 64
     7
176
     1
 65
   257
176
     1
 75
     1
176
     1
175
     1
176
     1
 42
1.0
176
     1
 92
        0
176
     1
 66
   257
176
     1
 43
1.0
176
     1
 76
     1
176
     1
 77
     6
176
     1
 78
     2
176
     1
 67
     7
176
     1
 79
     5
176
     1
170
     0
176
     1
171
     0
176
     1
290
     0
176
     1
 93
        1
176
     1
 44
0.0
176
     1
173
     0
176
     1
  0
VISUALSTYLE
  5
12B
102
{ACAD_REACTORS
330
124
102
}
330
124
100
AcDbVisualStyle
  2
3D Hidden
 70
     6
177
     2
291
     0
 71
     1
176
     1
 72
     2
176
     1
 73
     2
176
     1
 90
        0
176
     1
 40
-0.6
176
     1
 41
-30.0
176
     1
 62
     5
 63
     7
421
 16777215
176
     1
 74
     2
176
     1
 91
        2
176
     1
 64
     7
176
     1
 65
   257
176
     1
 75
     2
176
     1
175
     1
176
     1
 42
40.0
176
     1
 92
        0
176
     1
 66
   257
176
     1
 43
1.0
176
     1
 76
     1
176
     1
 77
     6
176
     1
 78
     2
176
     1
 67
     7
176
     1
 79
     3
176
     1
170
     0
176
     1
171
     0
176
     1
290
     0
176
     1
 93
        1
176
     1
 44
0.0
176
     1
173
     0
176
     1
  0
VISUALSTYLE
  5
12A
102
{ACAD_REACTORS
330
124
102
}
330
124
100
AcDbVisualStyle
  2
3dWireframe
 70
     5
177
     2
291
     0
 71
     0
176
     1
 72
     2
176
     1
 73
     0
176
     1
 90
        0
176
     1
 40
-0.6
176
     1
 41
-30.0
176
     1
 62
     5
 63
     7
421
 16777215
176
     1
 74
     1
176
     1
 91
        4
176
     1
 64
     7
176
     1
 65
   257
176
     1
 75
     1
176
     1
175
     1
176
     1
 42
1.0
176
     1
 92
        0
176
     1
 66
   257
176
     1
 43
1.0
176
     1
 76
     1
176
     1
 77
     6
176
     1
 78
     2
176
     1
 67
     7
176
     1
 79
     5
176
     1
170
     0
176
     1
171
     0
176
     1
290
     0
176
     1
 93
        1
176
     1
 44
0.0
176
     1
173
     0
176
     1
  0
VISUALSTYLE
  5
12C
102
{ACAD_REACTORS
330
124
102
}
330
124
100
AcDbVisualStyle
  2
Basic
 70
     7
177
     2
291
     1
 71
     1
176
     1
 72
     0
176
     1
 73
     1
176
     1
 90
        0
176
     1
 40
-0.6
176
     1
 41
-30.0
176
     1
 62
     5
 63
     7
421
 16777215
176
     1
 74
     0
176
     1
 91
        4
176
     1
 64
     7
176
     1
 65
   257
176
     1
 75
     1
176
     1
175
     1
176
     1
 42
1.0
176
     1
 92
        8
176
     1
 66
     7
176
     1
 43
1.0
176
     1
 76
     1
176
     1
 77
     6
176
     1
 78
     2
176
     1
 67
     7
176
     1
 79
     5
176
     1
170
     0
176
     1
171
     0
176
     1
290
     0
176
     1
 93
        1
176
     1
 44
0.0
176
     1
173
     0
176
     1
  0
VISUALSTYLE
  5
130
102
{ACAD_REACTORS
330
124
102
}
330
124
100
AcDbVisualStyle
  2
Brighten
 70
    12
177
     2
291
     1
 71
     2
176
     1
 72
     2
176
     1
 73
     0
176
     1
 90
        0
176
     1
 40
-0.6
176
     1
 41
-30.0
176
     1
 62
     5
 63
     7
421
 16777215
176
     1
 74
     1
176
     1
 91
        4
176
     1
 64
     7
176
     1
 65
   257
176
     1
 75
     1
176
     1
175
     1
176
     1
 42
1.0
176
     1
 92
        8
176
     1
 66
     7
176
     1
 43
1.0
176
     1
 76
     1
176
     1
 77
     6
176
     1
 78
     2
176
     1
 67
     7
176
     1
 79
     5
176
     1
170
     0
176
     1
171
     0
176
     1
290
     0
176
     1
 93
        1
176
     1
 44
50.0
176
     1
173
     0
176
     1
  0
VISUALSTYLE
  5
134
102
{ACAD_REACTORS
330
124
102
}
330
124
100
AcDbVisualStyle
  2
ColorChange
 70
    16
177
     2
291
     1
 71
     2
176
     1
 72
     2
176
     1
 73
     3
176
     1
 90
        0
176
     1
 40
-0.6
176
     1
 41
-30.0
176
     1
 62
     5
 63
     8
421
  8421504
176
     1
 74
     1
176
     1
 91
        4
176
     1
 64
     7
176
     1
 65
   257
176
     1
 75
     1
176
     1
175
     1
176
     1
 42
1.0
176
     1
 92
        8
176
     1
 66
     8
424
  8421504
176
     1
 43
1.0
176
     1
 76
     1
176
     1
 77
     6
176
     1
 78
     2
176
     1
 67
     7
176
     1
 79
     5
176
     1
170
     0
176
     1
171
     0
176
     1
290
     0
176
     1
 93
        1
176
     1
 44
0.0
176
     1
173
     0
176
     1
  0
VISUALSTYLE
  5
12E
102
{ACAD_REACTORS
330
124
102
}
330
124
100
AcDbVisualStyle
  2
Conceptual
 70
     9
177
     2
291
     0
 71
     3
176
     1
 72
     2
176
     1
 73
     0
176
     1
 90
        0
176
     1
 40
-0.6
176
     1
 41
-30.0
176
     1
 62
     5
 63
     7
421
 16777215
176
     1
 74
     2
176
     1
 91
        2
176
     1
 64
     7
176
     1
 65
   257
176
     1
 75
     1
176
     1
175
     1
176
     1
 42
40.0
176
     1
 92
        8
176
     1
 66
     7
176
     1
 43
1.0
176
     1
 76
     1
176
     1
 77
     6
176
     1
 78
     2
176
     1
 67
     7
176
     1
 79
     3
176
     1
170
     0
176
     1
171
     0
176
     1
290
     0
176
     1
 93
        1
176
     1
 44
0.0
176
     1
173
     0
176
     1
  0
VISUALSTYLE
  5
12F
102
{ACAD_REACTORS
330
124
102
}
330
124
100
AcDbVisualStyle
  2
Dim
 70
    11
177
     2
291
     1
 71
     2
176
     1
 72
     2
176
     1
 73
     0
176
     1
 90
        0
176
     1
 40
-0.6
176
     1
 41
-30.0
176
     1
 62
     5
 63
     7
421
 16777215
176
     1
 74
     1
176
     1
 91
        4
176
     1
 64
     7
176
     1
 65
   257
176
     1
 75
     1
176
     1
175
     1
176
     1
 42
1.0
176
     1
 92
        8
176
     1
 66
     7
176
     1
 43
1.0
176
     1
 76
     1
176
     1
 77
     6
176
     1
 78
     2
176
     1
 67
     7
176
     1
 79
     5
176
     1
170
     0
176
     1
171
     0
176
     1
290
     0
176
     1
 93
        1
176
     1
 44
-50.0
176
     1
173
     0
176
     1
  0
VISUALSTYLE
  5
133
102
{ACAD_REACTORS
330
124
102
}
330
124
100
AcDbVisualStyle
  2
Facepattern
 70
    15
177
     2
291
     1
 71
     2
176
     1
 72
     2
176
     1
 73
     0
176
     1
 90
        0
176
     1
 40
-0.6
176
     1
 41
-30.0
176
     1
 62
     5
 63
     7
421
 16777215
176
     1
 74
     1
176
     1
 91
        4
176
     1
 64
     7
176
     1
 65
   257
176
     1
 75
     1
176
     1
175
     1
176
     1
 42
1.0
176
     1
 92
        8
176
     1
 66
     7
176
     1
 43
1.0
176
     1
 76
     1
176
     1
 77
     6
176
     1
 78
     2
176
     1
 67
     7
176
     1
 79
     5
176
     1
170
     0
176
     1
171
     0
176
     1
290
     0
176
     1
 93
        1
176
     1
 44
0.0
176
     1
173
     0
176
     1
  0
VISUALSTYLE
  5
125
102
{ACAD_REACTORS
330
124
102
}
330
124
100
AcDbVisualStyle
  2
Flat
 70
     0
177
     2
291
     1
 71
     2
176
     1
 72
     1
176
     1
 73
     1
176
     1
 90
        2
176
     1
 40
-0.6
176
     1
 41
30.0
176
     1
 62
     5
 63
     7
421
 16777215
176
     1
 74
     0
176
     1
 91
        4
176
     1
 64
     7
176
     1
 65
   257
176
     1
 75
     1
176
     1
175
     1
176
     1
 42
1.0
176
     1
 92
        8
176
     1
 66
     7
176
     1
 43
1.0
176
     1
 76
     1
176
     1
 77
     6
176
     1
 78
     2
176
     1
 67
     7
176
     1
 79
     5
176
     1
170
     0
176
     1
171
     0
176
     1
290
     0
176
     1
 93
       13
176
     1
 44
0.0
176
     1
173
     0
176
     1
  0
VISUALSTYLE
  5
126
102
{ACAD_REACTORS
330
124
102
}
330
124
100
AcDbVisualStyle
  2
FlatWithEdges
 70
     1
177
     2
291
     1
 71
     2
176
     1
 72
     1
176
     1
 73
     1
176
     1
 90
        2
176
     1
 40
-0.6
176
     1
 41
30.0
176
     1
 62
     5
 63
     7
421
 16777215
176
     1
 74
     1
176
     1
 91
        4
176
     1
 64
     7
176
     1
 65
   257
176
     1
 75
     1
176
     1
175
     1
176
     1
 42
1.0
176
     1
 92
        0
176
     1
 66
   257
176
     1
 43
1.0
176
     1
 76
     1
176
     1
 77
     6
176
     1
 78
     2
176
     1
 67
     7
176
     1
 79
     5
176
     1
170
     0
176
     1
171
     0
176
     1
290
     0
176
     1
 93
       13
176
     1
 44
0.0
176
     1
173
     0
176
     1
  0
VISUALSTYLE
  5
127
102
{ACAD_REACTORS
330
124
102
}
330
124
100
AcDbVisualStyle
  2
Gouraud
 70
     2
177
     2
291
     1
 71
     2
176
     1
 72
     2
176
     1
 73
     1
176
     1
 90
        2
176
     1
 40
-0.6
176
     1
 41
30.0
176
     1
 62
     5
 63
     7
421
 16777215
176
     1
 74
     0
176
     1
 91
        4
176
     1
 64
     7
176
     1
 65
   257
176
     1
 75
     1
176
     1
175
     1
176
     1
 42
1.0
176
     1
 92
        0
176
     1
 66
     7
176
     1
 43
1.0
176
     1
 76
     1
176
     1
 77
     6
176
     1
 78
     2
176
     1
 67
     7
176
     1
 79
     5
176
     1
170
     0
176
     1
171
     0
176
     1
290
     0
176
     1
 93
       13
176
     1
 44
0.0
176
     1
173
     0
176
     1
  0
VISUALSTYLE
  5
128
102
{ACAD_REACTORS
330
124
102
}
330
124
100
AcDbVisualStyle
  2
GouraudWithEdges
 70
     3
177
     2
291
     1
 71
     2
176
     1
 72
     2
176
     1
 73
     1
176
     1
 90
        2
176
     1
 40
-0.6
176
     1
 41
30.0
176
     1
 62
     5
 63
     7
421
 16777215
176
     1
 74
     1
176
     1
 91
        4
176
     1
 64
     7
176
     1
 65
   257
176
     1
 75
     1
176
     1
175
     1
176
     1
 42
1.0
176
     1
 92
        0
176
     1
 66
   257
176
     1
 43
1.0
176
     1
 76
     1
176
     1
 77
     6
176
     1
 78
     2
176
     1
 67
     7
176
     1
 79
     5
176
     1
170
     0
176
     1
171
     0
176
     1
290
     0
176
     1
 93
       13
176
     1
 44
0.0
176
     1
173
     0
176
     1
  0
VISUALSTYLE
  5
132
102
{ACAD_REACTORS
330
124
102
}
330
124
100
AcDbVisualStyle
  2
Linepattern
 70
    14
177
     2
291
     1
 71
     2
176
     1
 72
     2
176
     1
 73
     0
176
     1
 90
        0
176
     1
 40
-0.6
176
     1
 41
-30.0
176
     1
 62
     5
 63
     7
421
 16777215
176
     1
 74
     1
176
     1
 91
        4
176
     1
 64
     7
176
     1
 65
   257
176
     1
 75
     7
176
     1
175
     7
176
     1
 42
1.0
176
     1
 92
        8
176
     1
 66
     7
176
     1
 43
1.0
176
     1
 76
     1
176
     1
 77
     6
176
     1
 78
     2
176
     1
 67
     7
176
     1
 79
     5
176
     1
170
     0
176
     1
171
     0
176
     1
290
     0
176
     1
 93
        1
176
     1
 44
0.0
176
     1
173
     0
176
     1
  0
VISUALSTYLE
  5
12D
102
{ACAD_REACTORS
330
124
102
}
330
124
100
AcDbVisualStyle
  2
Realistic
 70
     8
177
     2
291
     0
 71
     2
176
     1
 72
     2
176
     1
 73
     0
176
     1
 90
        0
176
     1
 40
-0.6
176
     1
 41
-30.0
176
     1
 62
     5
 63
     7
421
 16777215
176
     1
 74
     1
176
     1
 91
        0
176
     1
 64
     7
176
     1
 65
   257
176
     1
 75
     1
176
     1
175
     1
176
     1
 42
1.0
176
     1
 92
        8
176
     1
 66
     8
424
  7895160
176
     1
 43
1.0
176
     1
 76
     1
176
     1
 77
     6
176
     1
 78
     2
176
     1
 67
     7
176
     1
 79
     5
176
     1
170
     0
176
     1
171
     0
176
     1
290
     0
176
     1
 93
       13
176
     1
 44
0.0
176
     1
173
     0
176
     1
  0
VISUALSTYLE
  5
131
102
{ACAD_REACTORS
330
124
102
}
330
124
100
AcDbVisualStyle
  2
Thicken
 70
    13
177
     2
291
     1
 71
     2
176
     1
 72
     2
176
     1
 73
     0
176
     1
 90
        0
176
     1
 40
-0.6
176
     1
 41
-30.0
176
     1
 62
     5
 63
     7
421
 16777215
176
     1
 74
     1
176
     1
 91
        4
176
     1
 64
     7
176
     1
 65
   257
176
     1
 75
     1
176
     1
175
     1
176
     1
 42
1.0
176
     1
 92
       12
176
     1
 66
     7
176
     1
 43
1.0
176
     1
 76
     1
176
     1
 77
     6
176
     1
 78
     2
176
     1
 67
     7
176
     1
 79
     5
176
     1
170
     0
176
     1
171
     0
176
     1
290
     0
176
     1
 93
        1
176
     1
 44
0.0
176
     1
173
     0
176
     1
  0
XRECORD
  5
13B
102
{ACAD_REACTORS
330
13A
102
}
330
13A
100
AcDbXrecord
280
     1
290
     1
  0
XRECORD
  5
13C
102
{ACAD_REACTORS
330
13A
102
}
330
13A
100
AcDbXrecord
280
     1
1000
1:1
  0
ENDSEC
  0
EOF
