999
dxflib 2.2.0.0
  0
SECTION
  2
HEADER
  9
$ACADVER
  1
AC1015
  9
$HANDSEED
  5
FFFF
  9
$DIMASZ
 40
2.5
  9
$PLIMMIN
 10
0.0
 20
0.0
  9
$DIMEXE
 40
1.25
  9
$DIMGAP
 40
0.625
  9
$PLIMMAX
 10
210.0
 20
297.0
  9
$INSUNITS
 70
4
  9
$DIMSTYLE
  2
Standard
  9
$MEASUREMENT
 70
1
  9
$DIMEXO
 40
0.625
  9
$DIMTXT
 40
2.5
  9
$CLAYER
  8
0
  0
ENDSEC
  0
SECTION
  2
TABLES
  0
TABLE
  2
VPORT
  5
8
100
AcDbSymbolTable
 70
1
  0
VPORT
  5
30
100
AcDbSymbolTableRecord
100
AcDbViewportTableRecord
  2
*Active
 70
0
 10
0.0
 20
0.0
 11
1.0
 21
1.0
 12
286.30555555555549
 22
148.5
 13
0.0
 23
0.0
 14
10.0
 24
10.0
 15
10.0
 25
10.0
 16
0.0
 26
0.0
 36
1.0
 17
0.0
 27
0.0
 37
0.0
 40
297.0
 41
1.92798353909465
 42
50.0
 43
0.0
 44
0.0
 50
0.0
 51
0.0
 71
0
 72
100
 73
1
 74
3
 75
1
 76
1
 77
0
 78
0
281
0
 65
1
110
0.0
120
0.0
130
0.0
111
1.0
121
0.0
131
0.0
112
0.0
122
1.0
132
0.0
 79
0
146
0.0
  0
ENDTAB
  0
TABLE
  2
LTYPE
  5
5
100
AcDbSymbolTable
 70
21
  0
LTYPE
  5
14
100
AcDbSymbolTableRecord
100
AcDbLinetypeTableRecord
  2
ByBlock
 70
0
  3

 72
65
 73
0
 40
0.0
  0
LTYPE
  5
15
100
AcDbSymbolTableRecord
100
AcDbLinetypeTableRecord
  2
ByLayer
 70
0
  3

 72
65
 73
0
 40
0.0
  0
LTYPE
  5
16
100
AcDbSymbolTableRecord
100
AcDbLinetypeTableRecord
  2
CONTINUOUS
 70
0
  3
Solid line
 72
65
 73
0
 40
0.0
  0
LTYPE
  5
31
100
AcDbSymbolTableRecord
100
AcDbLinetypeTableRecord
  2
DOT
 70
0
  3
Dot . . . . . . . . . . . . . . . . . . . . . .
 72
65
 73
2
 40
6.3499999999999996
 49
0.0
 74
0
 49
-6.3499999999999996
 74
0
  0
LTYPE
  5
32
100
AcDbSymbolTableRecord
100
AcDbLinetypeTableRecord
  2
DOT2
 70
0
  3
Dot (.5x) .....................................
 72
65
 73
2
 40
3.1749999999999998
 49
0.0
 74
0
 49
-3.1749999999999998
 74
0
  0
LTYPE
  5
33
100
AcDbSymbolTableRecord
100
AcDbLinetypeTableRecord
  2
DOTX2
 70
0
  3
Dot (2x) .  .  .  .  .  .  .  .  .  .  .  .  .
 72
65
 73
2
 40
12.699999999999999
 49
0.0
 74
0
 49
-12.699999999999999
 74
0
  0
LTYPE
  5
34
100
AcDbSymbolTableRecord
100
AcDbLinetypeTableRecord
  2
DASHED
 70
0
  3
Dashed __ __ __ __ __ __ __ __ __ __ __ __ __ _
 72
65
 73
2
 40
19.050000000000001
 49
12.699999999999999
 74
0
 49
-6.3499999999999996
 74
0
  0
LTYPE
  5
35
100
AcDbSymbolTableRecord
100
AcDbLinetypeTableRecord
  2
DASHED2
 70
0
  3
Dashed (.5x) _ _ _ _ _ _ _ _ _ _ _ _ _ _ _ _ _
 72
65
 73
2
 40
9.5250000000000004
 49
6.3499999999999996
 74
0
 49
-3.1749999999999998
 74
0
  0
LTYPE
  5
36
100
AcDbSymbolTableRecord
100
AcDbLinetypeTableRecord
  2
DASHEDX2
 70
0
  3
Dashed (2x) ____  ____  ____  ____  ____  ___
 72
65
 73
2
 40
38.100000000000001
 49
25.399999999999999
 74
0
 49
-12.699999999999999
 74
0
  0
LTYPE
  5
37
100
AcDbSymbolTableRecord
100
AcDbLinetypeTableRecord
  2
DASHDOT
 70
0
  3
Dash dot __ . __ . __ . __ . __ . __ . __ . __
 72
65
 73
4
 40
25.399999999999999
 49
12.699999999999999
 74
0
 49
-6.3499999999999996
 74
0
 49
0.0
 74
0
 49
-6.3499999999999996
 74
0
  0
LTYPE
  5
38
100
AcDbSymbolTableRecord
100
AcDbLinetypeTableRecord
  2
DASHDOT2
 70
0
  3
Dash dot (.5x) _._._._._._._._._._._._._._._.
 72
65
 73
4
 40
12.699999999999999
 49
6.3499999999999996
 74
0
 49
-3.1749999999999998
 74
0
 49
0.0
 74
0
 49
-3.1749999999999998
 74
0
  0
LTYPE
  5
39
100
AcDbSymbolTableRecord
100
AcDbLinetypeTableRecord
  2
DASHDOTX2
 70
0
  3
Dash dot (2x) ____  .  ____  .  ____  .  ___
 72
65
 73
4
 40
50.799999999999997
 49
25.399999999999999
 74
0
 49
-12.699999999999999
 74
0
 49
0.0
 74
0
 49
-12.699999999999999
 74
0
  0
LTYPE
  5
3A
100
AcDbSymbolTableRecord
100
AcDbLinetypeTableRecord
  2
DIVIDE
 70
0
  3
Divide ____ . . ____ . . ____ . . ____ . . ____
 72
65
 73
6
 40
31.75
 49
12.699999999999999
 74
0
 49
-6.3499999999999996
 74
0
 49
0.0
 74
0
 49
-6.3499999999999996
 74
0
 49
0.0
 74
0
 49
-6.3499999999999996
 74
0
  0
LTYPE
  5
3B
100
AcDbSymbolTableRecord
100
AcDbLinetypeTableRecord
  2
DIVIDE2
 70
0
  3
Divide (.5x) __..__..__..__..__..__..__..__.._
 72
65
 73
6
 40
15.875
 49
6.3499999999999996
 74
0
 49
-3.1749999999999998
 74
0
 49
0.0
 74
0
 49
-3.1749999999999998
 74
0
 49
0.0
 74
0
 49
-3.1749999999999998
 74
0
  0
LTYPE
  5
3C
100
AcDbSymbolTableRecord
100
AcDbLinetypeTableRecord
  2
DIVIDEX2
 70
0
  3
Divide (2x) ________  .  .  ________  .  .  _
 72
65
 73
6
 40
63.5
 49
25.399999999999999
 74
0
 49
-12.699999999999999
 74
0
 49
0.0
 74
0
 49
-12.699999999999999
 74
0
 49
0.0
 74
0
 49
-12.699999999999999
 74
0
  0
LTYPE
  5
3D
100
AcDbSymbolTableRecord
100
AcDbLinetypeTableRecord
  2
CENTER
 70
0
  3
Center ____ _ ____ _ ____ _ ____ _ ____ _ ____
 72
65
 73
4
 40
50.799999999999997
 49
31.75
 74
0
 49
-6.3499999999999996
 74
0
 49
6.3499999999999996
 74
0
 49
-6.3499999999999996
 74
0
  0
LTYPE
  5
3E
100
AcDbSymbolTableRecord
100
AcDbLinetypeTableRecord
  2
CENTER2
 70
0
  3
Center (.5x) ___ _ ___ _ ___ _ ___ _ ___ _ ___
 72
65
 73
4
 40
28.574999999999999
 49
19.050000000000001
 74
0
 49
-3.1749999999999998
 74
0
 49
3.1749999999999998
 74
0
 49
-3.1749999999999998
 74
0
  0
LTYPE
  5
3F
100
AcDbSymbolTableRecord
100
AcDbLinetypeTableRecord
  2
CENTERX2
 70
0
  3
Center (2x) ________  __  ________  __  _____
 72
65
 73
4
 40
101.59999999999999
 49
63.5
 74
0
 49
-12.699999999999999
 74
0
 49
12.699999999999999
 74
0
 49
-12.699999999999999
 74
0
  0
LTYPE
  5
40
100
AcDbSymbolTableRecord
100
AcDbLinetypeTableRecord
  2
BORDER
 70
0
  3
Border __ __ . __ __ . __ __ . __ __ . __ __ .
 72
65
 73
6
 40
44.450000000000003
 49
12.699999999999999
 74
0
 49
-6.3499999999999996
 74
0
 49
12.699999999999999
 74
0
 49
-6.3499999999999996
 74
0
 49
0.0
 74
0
 49
-6.3499999999999996
 74
0
  0
LTYPE
  5
41
100
AcDbSymbolTableRecord
100
AcDbLinetypeTableRecord
  2
BORDER2
 70
0
  3
Border (.5x) __.__.__.__.__.__.__.__.__.__.__.
 72
65
 73
6
 40
22.225000000000001
 49
6.3499999999999996
 74
0
 49
-3.1749999999999998
 74
0
 49
6.3499999999999996
 74
0
 49
-3.1749999999999998
 74
0
 49
0.0
 74
0
 49
-3.1749999999999998
 74
0
  0
LTYPE
  5
42
100
AcDbSymbolTableRecord
100
AcDbLinetypeTableRecord
  2
BORDERX2
 70
0
  3
Border (2x) ____  ____  .  ____  ____  .  ___
 72
65
 73
6
 40
88.900000000000006
 49
25.399999999999999
 74
0
 49
-12.699999999999999
 74
0
 49
25.399999999999999
 74
0
 49
-12.699999999999999
 74
0
 49
0.0
 74
0
 49
-12.699999999999999
 74
0
  0
ENDTAB
  0
TABLE
  2
LAYER
  5
2
100
AcDbSymbolTable
 70
2
  0
LAYER
  5
10
100
AcDbSymbolTableRecord
100
AcDbLayerTableRecord
  2
0
 70
0
 62
7
  6
CONTINUOUS
390
F
  0
LAYER
  5
43
100
AcDbSymbolTableRecord
100
AcDbLayerTableRecord
  2
Layer_1
 70
0
 62
7
  6
CONTINUOUS
390
F
  0
ENDTAB
  0
TABLE
  2
STYLE
  5
3
100
AcDbSymbolTable
 70
1
  0
STYLE
  5
11
100
AcDbSymbolTableRecord
100
AcDbTextStyleTableRecord
  2
Standard
 70
0
 40
0.0
 41
0.75
 50
0.0
 71
0
 42
2.5
  3
txt
  4

  0
ENDTAB
  0
TABLE
  2
VIEW
  5
6
100
AcDbSymbolTable
 70
0
  0
ENDTAB
  0
TABLE
  2
UCS
  5
7
100
AcDbSymbolTable
 70
0
  0
ENDTAB
  0
TABLE
  2
APPID
  5
9
100
AcDbSymbolTable
 70
1
  0
APPID
  5
12
100
AcDbSymbolTableRecord
100
AcDbRegAppTableRecord
  2
ACAD
 70
0
  0
ENDTAB
  0
TABLE
  2
DIMSTYLE
  5
A
100
AcDbSymbolTable
 70
1
100
AcDbDimStyleTable
 71
0
  0
DIMSTYLE
105
27
100
AcDbSymbolTableRecord
100
AcDbDimStyleTableRecord
  2
Standard
 41
2.5
 42
0.625
 43
3.75
 44
1.25
 70
0
 73
0
 74
0
 77
1
 78
8
140
2.5
141
2.5
143
0.03937007874016
147
0.625
171
3
172
1
271
2
272
2
274
3
278
44
283
0
284
8
340
11
  0
ENDTAB
  0
TABLE
  2
BLOCK_RECORD
  5
1
100
AcDbSymbolTable
 70
1
  0
BLOCK_RECORD
  5
1F
100
AcDbSymbolTableRecord
100
AcDbBlockTableRecord
  2
*Model_Space
340
22
  0
BLOCK_RECORD
  5
1B
100
AcDbSymbolTableRecord
100
AcDbBlockTableRecord
  2
*Paper_Space
340
1E
  0
BLOCK_RECORD
  5
23
100
AcDbSymbolTableRecord
100
AcDbBlockTableRecord
  2
*Paper_Space0
340
26
  0
ENDTAB
  0
ENDSEC
  0
SECTION
  2
BLOCKS
  0
BLOCK
  5
20
100
AcDbEntity
  8
0
100
AcDbBlockBegin
  2
*Model_Space
 70
0
 10
0.0
 20
0.0
 30
0.0
  3
*Model_Space
  1

  0
ENDBLK
  5
21
100
AcDbEntity
  8
0
100
AcDbBlockEnd
  0
BLOCK
  5
1C
100
AcDbEntity
 67
1
  8
0
100
AcDbBlockBegin
  2
*Paper_Space
 70
0
 10
0.0
 20
0.0
 30
0.0
  3
*Paper_Space
  1

  0
ENDBLK
  5
1D
100
AcDbEntity
 67
1
  8
0
100
AcDbBlockEnd
  0
BLOCK
  5
24
100
AcDbEntity
  8
0
100
AcDbBlockBegin
  2
*Paper_Space0
 70
0
 10
0.0
 20
0.0
 30
0.0
  3
*Paper_Space0
  1

  0
ENDBLK
  5
25
100
AcDbEntity
  8
0
100
AcDbBlockEnd
  0
ENDSEC
  0
SECTION
  2
ENTITIES
  0
SPLINE
  5
44
  8
Layer_1
 62
1
420
16711680
370
-1
  6
ByLayer
100
AcDbEntity
100
AcDbSpline
 70
8
 71
3
 72
8
 73
4
 74
0
 40
0.0
 40
0.0
 40
0.0
 40
0.0
 40
1.0
 40
1.0
 40
1.0
 40
1.0
 10
24.370268924000001
 20
52.954149059999999
 30
0.0
 10
24.340540345999997
 20
52.980337595999998
 30
0.0
 10
24.308335117999999
 20
53.004049481999999
 30
0.0
 10
24.276837145999998
 20
53.029530762
 30
0.0
  0
SPLINE
  5
45
  8
Layer_1
 62
1
420
16711680
370
-1
  6
ByLayer
100
AcDbEntity
100
AcDbSpline
 70
8
 71
3
 72
8
 73
4
 74
0
 40
0.0
 40
0.0
 40
0.0
 40
0.0
 40
1.0
 40
1.0
 40
1.0
 40
1.0
 10
24.276837145999998
 20
72.213042185999996
 30
0.0
 10
24.276837145999998
 20
74.429558663999984
 30
0.0
 10
22.481114161999997
 20
76.225988904000005
 30
0.0
 10
20.264951312000001
 20
76.225988904000005
 30
0.0
  0
LWPOLYLINE
  5
46
  8
Layer_1
 62
1
420
16711680
370
-1
  6
ByLayer
100
AcDbEntity
100
AcDbPolyline
 90
2
 70
0
 10
24.276837145999998
 20
53.029530762
 10
24.276837145999998
 20
72.213042185999996
  0
SPLINE
  5
47
  8
Layer_1
 62
1
420
16711680
370
-1
  6
ByLayer
100
AcDbEntity
100
AcDbSpline
 70
8
 71
3
 72
8
 73
4
 74
0
 40
0.0
 40
0.0
 40
0.0
 40
0.0
 40
1.0
 40
1.0
 40
1.0
 40
1.0
 10
19.830000158000001
 20
76.225988904000005
 30
0.0
 10
17.613836054
 20
76.225988904000005
 30
0.0
 10
15.817405813999997
 20
74.429558663999984
 30
0.0
 10
15.817405813999997
 20
72.213042185999996
 30
0.0
  0
LWPOLYLINE
  5
48
  8
Layer_1
 62
1
420
16711680
370
-1
  6
ByLayer
100
AcDbEntity
100
AcDbPolyline
 90
2
 70
0
 10
20.264951312000001
 20
76.225988904000005
 10
19.830000158000001
 20
76.225988904000005
  0
SPLINE
  5
49
  8
Layer_1
 62
1
420
16711680
370
-1
  6
ByLayer
100
AcDbEntity
100
AcDbSpline
 70
8
 71
3
 72
8
 73
4
 74
0
 40
0.0
 40
0.0
 40
0.0
 40
0.0
 40
1.0
 40
1.0
 40
1.0
 40
1.0
 10
15.817405813999997
 20
53.088986664000004
 30
0.0
 10
15.511984081999998
 20
52.842314832
 30
0.0
 10
15.221427266000001
 20
52.569451955999995
 30
0.0
 10
14.955996847999998
 20
52.261907201999996
 30
0.0
  0
SPLINE
  5
4A
  8
Layer_1
 62
1
420
16711680
370
-1
  6
ByLayer
100
AcDbEntity
100
AcDbSpline
 70
8
 71
3
 72
8
 73
4
 74
0
 40
0.0
 40
0.0
 40
0.0
 40
0.0
 40
1.0
 40
1.0
 40
1.0
 40
1.0
 10
14.955996847999998
 20
52.261907201999996
 30
0.0
 10
14.720295007999999
 20
51.989752836000001
 30
0.0
 10
14.519984809999999
 20
51.701319042000002
 30
0.0
 10
14.336660042
 20
51.405452789999998
 30
0.0
  0
LWPOLYLINE
  5
4B
  8
Layer_1
 62
1
420
16711680
370
-1
  6
ByLayer
100
AcDbEntity
100
AcDbPolyline
 90
2
 70
0
 10
15.817405813999997
 20
72.213042185999996
 10
15.817405813999997
 20
53.088986664000004
  0
SPLINE
  5
4C
  8
Layer_1
 62
1
420
16711680
370
-1
  6
ByLayer
100
AcDbEntity
100
AcDbSpline
 70
8
 71
3
 72
8
 73
4
 74
0
 40
0.0
 40
0.0
 40
0.0
 40
0.0
 40
1.0
 40
1.0
 40
1.0
 40
1.0
 10
14.336660042
 20
44.378282574000004
 30
0.0
 10
14.684197363999997
 20
43.817694414000002
 30
0.0
 10
15.121980050000001
 20
43.2999291
 30
0.0
 10
15.647176568000003
 20
42.845866985999997
 30
0.0
  0
SPLINE
  5
4D
  8
Layer_1
 62
1
420
16711680
370
-1
  6
ByLayer
100
AcDbEntity
100
AcDbSpline
 70
8
 71
3
 72
8
 73
4
 74
0
 40
0.0
 40
0.0
 40
0.0
 40
0.0
 40
1.0
 40
1.0
 40
1.0
 40
1.0
 10
15.647176568000003
 20
42.845866985999997
 30
0.0
 10
18.438792494000001
 20
40.437531144000005
 30
0.0
 10
22.653467683999999
 20
40.747907429999998
 30
0.0
 10
25.062864410000003
 20
43.539169727999997
 30
0.0
  0
SPLINE
  5
4E
  8
Layer_1
 62
1
420
16711680
370
-1
  6
ByLayer
100
AcDbEntity
100
AcDbSpline
 70
8
 71
3
 72
8
 73
4
 74
0
 40
0.0
 40
0.0
 40
0.0
 40
0.0
 40
1.0
 40
1.0
 40
1.0
 40
1.0
 10
25.062864410000003
 20
43.539169727999997
 30
0.0
 10
27.471552625999998
 20
46.329723516000001
 30
0.0
 10
27.16188485
 20
50.544752334000002
 30
0.0
 10
24.370268924000001
 20
52.954149059999999
 30
0.0
  0
LWPOLYLINE
  5
4F
  8
Layer_1
 62
1
420
16711680
370
-1
  6
ByLayer
100
AcDbEntity
100
AcDbPolyline
 90
2
 70
0
 10
14.336660042
 20
51.405452789999998
 10
14.336660042
 20
44.378282574000004
  0
SPLINE
  5
50
  8
Layer_1
 62
1
420
16711680
370
-1
  6
ByLayer
100
AcDbEntity
100
AcDbSpline
 70
8
 71
3
 72
8
 73
4
 74
0
 40
0.0
 40
0.0
 40
0.0
 40
0.0
 40
1.0
 40
1.0
 40
1.0
 40
1.0
 10
21.302604962
 20
71.515845773999999
 30
0.0
 10
21.038591564000001
 20
70.802016305999999
 30
0.0
 10
20.245131841999999
 20
70.437138672000003
 30
0.0
 10
19.530948746
 20
70.701152070000006
 30
0.0
  0
SPLINE
  5
51
  8
Layer_1
 62
1
420
16711680
370
-1
  6
ByLayer
100
AcDbEntity
100
AcDbSpline
 70
8
 71
3
 72
8
 73
4
 74
0
 40
0.0
 40
0.0
 40
0.0
 40
0.0
 40
1.0
 40
1.0
 40
1.0
 40
1.0
 10
19.530948746
 20
70.701152070000006
 30
0.0
 10
18.816410768000001
 20
70.965166721999992
 30
0.0
 10
18.451533133999998
 20
71.758271562000004
 30
0.0
 10
18.715194157999999
 20
72.472809540000014
 30
0.0
  0
SPLINE
  5
52
  8
Layer_1
 62
1
420
16711680
370
-1
  6
ByLayer
100
AcDbEntity
100
AcDbSpline
 70
8
 71
3
 72
8
 73
4
 74
0
 40
0.0
 40
0.0
 40
0.0
 40
0.0
 40
1.0
 40
1.0
 40
1.0
 40
1.0
 10
18.715194157999999
 20
72.472809540000014
 30
0.0
 10
18.979916066000001
 20
73.186992635999985
 30
0.0
 10
19.772667278
 20
73.551516641999996
 30
0.0
 10
20.487204001999999
 20
73.287856872000006
 30
0.0
  0
SPLINE
  5
53
  8
Layer_1
 62
1
420
16711680
370
-1
  6
ByLayer
100
AcDbEntity
100
AcDbSpline
 70
8
 71
3
 72
8
 73
4
 74
0
 40
0.0
 40
0.0
 40
0.0
 40
0.0
 40
1.0
 40
1.0
 40
1.0
 40
1.0
 10
20.487204001999999
 20
73.287856872000006
 30
0.0
 10
21.200679842
 20
73.023842220000006
 30
0.0
 10
21.566619614
 20
72.230383751999995
 30
0.0
 10
21.302604962
 20
71.515845773999999
 30
0.0
  0
LWPOLYLINE
  5
54
  8
Layer_1
 62
1
420
16711680
370
-1
  6
ByLayer
100
AcDbEntity
100
AcDbPolyline
 90
2
 70
0
 10
24.370268924000001
 20
52.954149059999999
 10
24.370268924000001
 20
52.954149059999999
  0
SPLINE
  5
55
  8
Layer_1
 62
1
420
16711680
370
-1
  6
ByLayer
100
AcDbEntity
100
AcDbSpline
 70
8
 71
3
 72
8
 73
4
 74
0
 40
0.0
 40
0.0
 40
0.0
 40
0.0
 40
1.0
 40
1.0
 40
1.0
 40
1.0
 10
20.343871801999999
 20
47.602018121999997
 30
0.0
 10
20.065348370000002
 20
46.849613106
 30
0.0
 10
19.229065802000001
 20
46.464562373999996
 30
0.0
 10
18.475598647999998
 20
46.742733431999994
 30
0.0
  0
SPLINE
  5
56
  8
Layer_1
 62
1
420
16711680
370
-1
  6
ByLayer
100
AcDbEntity
100
AcDbSpline
 70
8
 71
3
 72
8
 73
4
 74
0
 40
0.0
 40
0.0
 40
0.0
 40
0.0
 40
1.0
 40
1.0
 40
1.0
 40
1.0
 10
18.475598647999998
 20
46.742733431999994
 30
0.0
 10
17.722131493999999
 20
47.021256863999994
 30
0.0
 10
17.337080761999999
 20
47.858246687999994
 30
0.0
 10
17.615605448000004
 20
48.611713841999993
 30
0.0
  0
SPLINE
  5
57
  8
Layer_1
 62
1
420
16711680
370
-1
  6
ByLayer
100
AcDbEntity
100
AcDbSpline
 70
8
 71
3
 72
8
 73
4
 74
0
 40
0.0
 40
0.0
 40
0.0
 40
0.0
 40
1.0
 40
1.0
 40
1.0
 40
1.0
 10
17.615605448000004
 20
48.611713841999993
 30
0.0
 10
17.894838644
 20
49.364827367999993
 30
0.0
 10
18.731119958000001
 20
49.749169590000001
 30
0.0
 10
19.483878602000001
 20
49.470999786
 30
0.0
  0
SPLINE
  5
58
  8
Layer_1
 62
1
420
16711680
370
-1
  6
ByLayer
100
AcDbEntity
100
AcDbSpline
 70
8
 71
3
 72
8
 73
4
 74
0
 40
0.0
 40
0.0
 40
0.0
 40
0.0
 40
1.0
 40
1.0
 40
1.0
 40
1.0
 10
19.483878602000001
 20
49.470999786
 30
0.0
 10
20.236638500000002
 20
49.192828728000002
 30
0.0
 10
20.622042860000001
 20
48.355838904000002
 30
0.0
 10
20.343871801999999
 20
47.602018121999997
 30
0.0
  0
LWPOLYLINE
  5
59
  8
Layer_1
 62
1
420
16711680
370
-1
  6
ByLayer
100
AcDbEntity
100
AcDbPolyline
 90
2
 70
0
 10
21.302604962
 20
71.515845773999999
 10
21.302604962
 20
71.515845773999999
  0
SPLINE
  5
5A
  8
Layer_1
 62
1
420
16711680
370
-1
  6
ByLayer
100
AcDbEntity
100
AcDbSpline
 70
8
 71
3
 72
8
 73
4
 74
0
 40
0.0
 40
0.0
 40
0.0
 40
0.0
 40
1.0
 40
1.0
 40
1.0
 40
1.0
 10
2.1555473179999964
 20
10.820841294000001
 30
0.0
 10
2.1555473179999964
 20
11.624210124000001
 30
0.0
 10
2.8081514900000002
 20
12.274690019999998
 30
0.0
 10
3.6111654380000004
 20
12.273982763999999
 30
0.0
  0
SPLINE
  5
5B
  8
Layer_1
 62
1
420
16711680
370
-1
  6
ByLayer
100
AcDbEntity
100
AcDbSpline
 70
8
 71
3
 72
8
 73
4
 74
0
 40
0.0
 40
0.0
 40
0.0
 40
0.0
 40
1.0
 40
1.0
 40
1.0
 40
1.0
 10
3.6111654380000004
 20
12.273982763999999
 30
0.0
 10
4.4141793860000007
 20
12.273982763999999
 30
0.0
 10
5.0646592819999974
 20
11.621378591999999
 30
0.0
 10
5.0639520259999991
 20
10.818364643999999
 30
0.0
  0
SPLINE
  5
5C
  8
Layer_1
 62
1
420
16711680
370
-1
  6
ByLayer
100
AcDbEntity
100
AcDbSpline
 70
8
 71
3
 72
8
 73
4
 74
0
 40
0.0
 40
0.0
 40
0.0
 40
0.0
 40
1.0
 40
1.0
 40
1.0
 40
1.0
 10
5.0639520259999991
 20
10.818364643999999
 30
0.0
 10
5.0639520259999991
 20
10.015350695999999
 30
0.0
 10
4.4113478539999988
 20
9.3648695460000013
 30
0.0
 10
3.6083339059999986
 20
9.3655780560000039
 30
0.0
  0
SPLINE
  5
5D
  8
Layer_1
 62
1
420
16711680
370
-1
  6
ByLayer
100
AcDbEntity
100
AcDbSpline
 70
8
 71
3
 72
8
 73
4
 74
0
 40
0.0
 40
0.0
 40
0.0
 40
0.0
 40
1.0
 40
1.0
 40
1.0
 40
1.0
 10
3.6083339059999986
 20
9.3655780560000039
 30
0.0
 10
2.8053199579999983
 20
9.3655780560000039
 30
0.0
 10
2.1544851799999982
 20
10.017827345999997
 30
0.0
 10
2.1555473179999964
 20
10.820841294000001
 30
0.0
  0
LWPOLYLINE
  5
5E
  8
Layer_1
 62
1
420
16711680
370
-1
  6
ByLayer
100
AcDbEntity
100
AcDbPolyline
 90
2
 70
0
 10
20.343871801999999
 20
47.602018121999997
 10
20.343871801999999
 20
47.602018121999997
  0
SPLINE
  5
5F
  8
Layer_1
 62
1
420
16711680
370
-1
  6
ByLayer
100
AcDbEntity
100
AcDbSpline
 70
8
 71
3
 72
8
 73
4
 74
0
 40
0.0
 40
0.0
 40
0.0
 40
0.0
 40
1.0
 40
1.0
 40
1.0
 40
1.0
 10
17.626930322
 20
13.815246576
 30
0.0
 10
17.626930322
 20
14.618614151999999
 30
0.0
 10
18.279888121999999
 20
15.269094047999999
 30
0.0
 10
19.082548442
 20
15.268386792000001
 30
0.0
  0
SPLINE
  5
60
  8
Layer_1
 62
1
420
16711680
370
-1
  6
ByLayer
100
AcDbEntity
100
AcDbSpline
 70
8
 71
3
 72
8
 73
4
 74
0
 40
0.0
 40
0.0
 40
0.0
 40
0.0
 40
1.0
 40
1.0
 40
1.0
 40
1.0
 10
19.082548442
 20
15.268386792000001
 30
0.0
 10
19.8862709
 20
15.268386792000001
 30
0.0
 10
20.536397168000001
 20
14.615782620000001
 30
0.0
 10
20.535689911999999
 20
13.812768672000001
 30
0.0
  0
SPLINE
  5
61
  8
Layer_1
 62
1
420
16711680
370
-1
  6
ByLayer
100
AcDbEntity
100
AcDbSpline
 70
8
 71
3
 72
8
 73
4
 74
0
 40
0.0
 40
0.0
 40
0.0
 40
0.0
 40
1.0
 40
1.0
 40
1.0
 40
1.0
 10
20.535689911999999
 20
13.812768672000001
 30
0.0
 10
20.535689911999999
 20
13.009401095999998
 30
0.0
 10
19.882732111999999
 20
12.358919946
 30
0.0
 10
19.079363282000003
 20
12.359628455999999
 30
0.0
  0
SPLINE
  5
62
  8
Layer_1
 62
1
420
16711680
370
-1
  6
ByLayer
100
AcDbEntity
100
AcDbSpline
 70
8
 71
3
 72
8
 73
4
 74
0
 40
0.0
 40
0.0
 40
0.0
 40
0.0
 40
1.0
 40
1.0
 40
1.0
 40
1.0
 10
19.079363282000003
 20
12.359628455999999
 30
0.0
 10
18.276702962000002
 20
12.359628455999999
 30
0.0
 10
17.625869437999999
 20
13.012231373999999
 30
0.0
 10
17.626930322
 20
13.815246576
 30
0.0
  0
LWPOLYLINE
  5
63
  8
Layer_1
 62
1
420
16711680
370
-1
  6
ByLayer
100
AcDbEntity
100
AcDbPolyline
 90
2
 70
0
 10
2.1555473179999964
 20
10.820841294000001
 10
2.1555473179999964
 20
10.820841294000001
  0
SPLINE
  5
64
  8
Layer_1
 62
1
420
16711680
370
-1
  6
ByLayer
100
AcDbEntity
100
AcDbSpline
 70
8
 71
3
 72
8
 73
4
 74
0
 40
0.0
 40
0.0
 40
0.0
 40
0.0
 40
1.0
 40
1.0
 40
1.0
 40
1.0
 10
17.651704345999999
 20
32.976825539999993
 30
0.0
 10
17.651704345999999
 20
33.779839488
 30
0.0
 10
18.304308517999999
 20
34.430319384000001
 30
0.0
 10
19.106968838
 20
34.429612128000002
 30
0.0
  0
SPLINE
  5
65
  8
Layer_1
 62
1
420
16711680
370
-1
  6
ByLayer
100
AcDbEntity
100
AcDbSpline
 70
8
 71
3
 72
8
 73
4
 74
0
 40
0.0
 40
0.0
 40
0.0
 40
0.0
 40
1.0
 40
1.0
 40
1.0
 40
1.0
 10
19.106968838
 20
34.429612128000002
 30
0.0
 10
19.910690041999999
 20
34.428904871999997
 30
0.0
 10
20.560817564000001
 20
33.777007956000006
 30
0.0
 10
20.560109053999998
 20
32.973994007999998
 30
0.0
  0
SPLINE
  5
66
  8
Layer_1
 62
1
420
16711680
370
-1
  6
ByLayer
100
AcDbEntity
100
AcDbSpline
 70
8
 71
3
 72
8
 73
4
 74
0
 40
0.0
 40
0.0
 40
0.0
 40
0.0
 40
1.0
 40
1.0
 40
1.0
 40
1.0
 10
20.560109053999998
 20
32.973994007999998
 30
0.0
 10
20.560109053999998
 20
32.170271550000002
 30
0.0
 10
19.907504882000001
 20
31.520145281999998
 30
0.0
 10
19.104844562
 20
31.520853792
 30
0.0
  0
SPLINE
  5
67
  8
Layer_1
 62
1
420
16711680
370
-1
  6
ByLayer
100
AcDbEntity
100
AcDbSpline
 70
8
 71
3
 72
8
 73
4
 74
0
 40
0.0
 40
0.0
 40
0.0
 40
0.0
 40
1.0
 40
1.0
 40
1.0
 40
1.0
 10
19.104844562
 20
31.520853792
 30
0.0
 10
18.301476986000001
 20
31.521914675999998
 30
0.0
 10
17.650642208000001
 20
32.173456709999996
 30
0.0
 10
17.651704345999999
 20
32.976825539999993
 30
0.0
  0
LWPOLYLINE
  5
68
  8
Layer_1
 62
1
420
16711680
370
-1
  6
ByLayer
100
AcDbEntity
100
AcDbPolyline
 90
2
 70
0
 10
17.626930322
 20
13.815246576
 10
17.626930322
 20
13.815246576
  0
SPLINE
  5
69
  8
Layer_1
 62
1
420
16711680
370
-1
  6
ByLayer
100
AcDbEntity
100
AcDbSpline
 70
8
 71
3
 72
8
 73
4
 74
0
 40
0.0
 40
0.0
 40
0.0
 40
0.0
 40
1.0
 40
1.0
 40
1.0
 40
1.0
 10
3.1825846039999988
 20
34.996924235999998
 30
0.0
 10
3.1825846039999988
 20
35.800293066000002
 30
0.0
 10
3.8351875220000018
 20
36.450772962000002
 30
0.0
 10
4.6382027239999992
 20
36.449710824
 30
0.0
  0
SPLINE
  5
6A
  8
Layer_1
 62
1
420
16711680
370
-1
  6
ByLayer
100
AcDbEntity
100
AcDbSpline
 70
8
 71
3
 72
8
 73
4
 74
0
 40
0.0
 40
0.0
 40
0.0
 40
0.0
 40
1.0
 40
1.0
 40
1.0
 40
1.0
 10
4.6382027239999992
 20
36.449710824
 30
0.0
 10
5.4415702999999986
 20
36.449003568000002
 30
0.0
 10
6.0916965679999997
 20
35.797107905999994
 30
0.0
 10
6.0909893119999978
 20
34.994092703999996
 30
0.0
  0
SPLINE
  5
6B
  8
Layer_1
 62
1
420
16711680
370
-1
  6
ByLayer
100
AcDbEntity
100
AcDbSpline
 70
8
 71
3
 72
8
 73
4
 74
0
 40
0.0
 40
0.0
 40
0.0
 40
0.0
 40
1.0
 40
1.0
 40
1.0
 40
1.0
 10
6.0909893119999978
 20
34.994092703999996
 30
0.0
 10
6.0909893119999978
 20
34.190725128000004
 30
0.0
 10
5.4383851400000012
 20
33.540598860000003
 30
0.0
 10
4.6353711920000009
 20
33.541306116000001
 30
0.0
  0
SPLINE
  5
6C
  8
Layer_1
 62
1
420
16711680
370
-1
  6
ByLayer
100
AcDbEntity
100
AcDbSpline
 70
8
 71
3
 72
8
 73
4
 74
0
 40
0.0
 40
0.0
 40
0.0
 40
0.0
 40
1.0
 40
1.0
 40
1.0
 40
1.0
 10
4.6353711920000009
 20
33.541306116000001
 30
0.0
 10
3.8323572440000007
 20
33.542014626000004
 30
0.0
 10
3.1811688380000014
 20
34.193910287999998
 30
0.0
 10
3.1825846039999988
 20
34.996924235999998
 30
0.0
  0
LWPOLYLINE
  5
6D
  8
Layer_1
 62
1
420
16711680
370
-1
  6
ByLayer
100
AcDbEntity
100
AcDbPolyline
 90
2
 70
0
 10
17.651704345999999
 20
32.976825539999993
 10
17.651704345999999
 20
32.976825539999993
  0
SPLINE
  5
6E
  8
Layer_1
 62
1
420
16711680
370
-1
  6
ByLayer
100
AcDbEntity
100
AcDbSpline
 70
8
 71
3
 72
8
 73
4
 74
0
 40
0.0
 40
0.0
 40
0.0
 40
0.0
 40
1.0
 40
1.0
 40
1.0
 40
1.0
 10
16.026210608
 20
-0.6924499679999983
 30
0.0
 10
16.026210608
 20
0.110563980000002
 30
0.0
 10
16.678814780000003
 20
0.7606902479999995
 30
0.0
 10
17.481828728
 20
0.7599829919999976
 30
0.0
  0
SPLINE
  5
6F
  8
Layer_1
 62
1
420
16711680
370
-1
  6
ByLayer
100
AcDbEntity
100
AcDbSpline
 70
8
 71
3
 72
8
 73
4
 74
0
 40
0.0
 40
0.0
 40
0.0
 40
0.0
 40
1.0
 40
1.0
 40
1.0
 40
1.0
 10
17.481828728
 20
0.7599829919999976
 30
0.0
 10
18.285197558
 20
0.7599829919999976
 30
0.0
 10
18.935323826000001
 20
0.107378820000001
 30
0.0
 10
18.934616569999999
 20
-0.6959887559999984
 30
0.0
  0
SPLINE
  5
70
  8
Layer_1
 62
1
420
16711680
370
-1
  6
ByLayer
100
AcDbEntity
100
AcDbSpline
 70
8
 71
3
 72
8
 73
4
 74
0
 40
0.0
 40
0.0
 40
0.0
 40
0.0
 40
1.0
 40
1.0
 40
1.0
 40
1.0
 10
18.934616569999999
 20
-0.6959887559999984
 30
0.0
 10
18.934616569999999
 20
-1.4990027040000058
 30
0.0
 10
18.282012397999999
 20
-2.1494838539999961
 30
0.0
 10
17.478998449999999
 20
-2.1487753440000006
 30
0.0
  0
SPLINE
  5
71
  8
Layer_1
 62
1
420
16711680
370
-1
  6
ByLayer
100
AcDbEntity
100
AcDbSpline
 70
8
 71
3
 72
8
 73
4
 74
0
 40
0.0
 40
0.0
 40
0.0
 40
0.0
 40
1.0
 40
1.0
 40
1.0
 40
1.0
 10
17.478998449999999
 20
-2.1487753440000006
 30
0.0
 10
16.675983248000001
 20
-2.1487753440000006
 30
0.0
 10
16.024794841999999
 20
-1.4961724260000011
 30
0.0
 10
16.026210608
 20
-0.6924499679999983
 30
0.0
  0
LWPOLYLINE
  5
72
  8
Layer_1
 62
1
420
16711680
370
-1
  6
ByLayer
100
AcDbEntity
100
AcDbPolyline
 90
2
 70
0
 10
3.1825846039999988
 20
34.996924235999998
 10
3.1825846039999988
 20
34.996924235999998
  0
LWPOLYLINE
  5
73
  8
Layer_1
 62
1
420
16711680
370
-1
  6
ByLayer
100
AcDbEntity
100
AcDbPolyline
 90
2
 70
0
 10
16.026210608
 20
-0.6924499679999983
 10
16.026210608
 20
-0.6924499679999983
  0
SPLINE
  5
74
  8
Layer_1
 62
1
420
16711680
370
-1
  6
ByLayer
100
AcDbEntity
100
AcDbSpline
 70
8
 71
3
 72
8
 73
4
 74
0
 40
0.0
 40
0.0
 40
0.0
 40
0.0
 40
1.0
 40
1.0
 40
1.0
 40
1.0
 10
17.485013888000001
 20
-6.711695112000001
 30
0.0
 10
20.808551533999999
 20
-6.7152339000000012
 30
0.0
 10
23.506382053999999
 20
-4.0227115619999978
 30
0.0
 10
23.509567213999997
 20
-0.6984666600000011
 30
0.0
  0
LWPOLYLINE
  5
75
  8
Layer_1
 62
1
420
16711680
370
-1
  6
ByLayer
100
AcDbEntity
100
AcDbPolyline
 90
3
 70
0
 10
8.1181668380000005
 20
21.950145215999999
 10
8.1181668380000005
 20
21.953684004000003
 10
8.1217056260000007
 20
24.961182300000001
  0
SPLINE
  5
76
  8
Layer_1
 62
1
420
16711680
370
-1
  6
ByLayer
100
AcDbEntity
100
AcDbSpline
 70
8
 71
3
 72
8
 73
4
 74
0
 40
0.0
 40
0.0
 40
0.0
 40
0.0
 40
1.0
 40
1.0
 40
1.0
 40
1.0
 10
-4.188230518000001
 20
-0.6715696139999992
 30
0.0
 10
-4.1917693060000012
 20
-3.9961681440000021
 30
0.0
 10
-2.50221874
 20
-6.692584152000002
 30
0.0
 10
-2.50221874
 20
-6.692584152000002
 30
0.0
  0
LWPOLYLINE
  5
77
  8
Layer_1
 62
1
420
16711680
370
-1
  6
ByLayer
100
AcDbEntity
100
AcDbPolyline
 90
13
 70
0
 10
23.509567213999997
 20
-0.6984666600000011
 10
23.531509705999998
 20
21.93846546
 10
15.037750124
 20
21.946605173999998
 10
15.037750124
 20
20.791807859999999
 10
11.225820860000001
 20
20.795701530000002
 10
11.225820860000001
 20
21.950498843999995
 10
8.1188740940000006
 20
21.954037632000002
 10
8.1188740940000006
 20
21.950498843999995
 10
8.1146280500000003
 20
17.437480751999999
 10
3.4607544079999997
 20
17.442081677999997
 10
0.8956397240000023
 20
17.445620466000001
 10
-4.1701804419999995
 20
17.450928648000001
 10
-4.188230518000001
 20
-0.6715696139999992
  0
SPLINE
  5
78
  8
Layer_1
 62
1
420
16711680
370
-1
  6
ByLayer
100
AcDbEntity
100
AcDbSpline
 70
8
 71
3
 72
8
 73
4
 74
0
 40
0.0
 40
0.0
 40
0.0
 40
0.0
 40
1.0
 40
1.0
 40
1.0
 40
1.0
 10
1.224418459999999
 20
29.482705020000001
 30
0.0
 10
1.224418459999999
 20
28.827269315999999
 30
0.0
 10
0.6914346019999975
 20
28.296409734000001
 30
0.0
 10
0.0367074080000016
 20
28.297116989999999
 30
0.0
  0
SPLINE
  5
79
  8
Layer_1
 62
1
420
16711680
370
-1
  6
ByLayer
100
AcDbEntity
100
AcDbSpline
 70
8
 71
3
 72
8
 73
4
 74
0
 40
0.0
 40
0.0
 40
0.0
 40
0.0
 40
1.0
 40
1.0
 40
1.0
 40
1.0
 10
0.0367074080000016
 20
28.297116989999999
 30
0.0
 10
-0.6190806699999989
 20
28.298179128000001
 30
0.0
 10
-1.1499415059999976
 20
28.829747219999998
 30
0.0
 10
-1.1492329960000021
 20
29.485181670000003
 30
0.0
  0
SPLINE
  5
7A
  8
Layer_1
 62
1
420
16711680
370
-1
  6
ByLayer
100
AcDbEntity
100
AcDbSpline
 70
8
 71
3
 72
8
 73
4
 74
0
 40
0.0
 40
0.0
 40
0.0
 40
0.0
 40
1.0
 40
1.0
 40
1.0
 40
1.0
 10
-1.1492329960000021
 20
29.485181670000003
 30
0.0
 10
-1.1492329960000021
 20
30.140971002000001
 30
0.0
 10
-0.6169576480000032
 20
30.671476956000003
 30
0.0
 10
0.0388316840000016
 20
30.670769700000001
 30
0.0
  0
SPLINE
  5
7B
  8
Layer_1
 62
1
420
16711680
370
-1
  6
ByLayer
100
AcDbEntity
100
AcDbSpline
 70
8
 71
3
 72
8
 73
4
 74
0
 40
0.0
 40
0.0
 40
0.0
 40
0.0
 40
1.0
 40
1.0
 40
1.0
 40
1.0
 10
0.0388316840000016
 20
30.670769700000001
 30
0.0
 10
0.6942661339999994
 20
30.670416071999998
 30
0.0
 10
1.2251269700000016
 20
30.138847980000001
 30
0.0
 10
1.224418459999999
 20
29.482705020000001
 30
0.0
  0
LWPOLYLINE
  5
7C
  8
Layer_1
 62
1
420
16711680
370
-1
  6
ByLayer
100
AcDbEntity
100
AcDbPolyline
 90
4
 70
0
 10
-2.50221874
 20
-6.692584152000002
 10
11.465416369999998
 20
-6.7063856759999965
 10
17.485013888000001
 20
-6.7113402299999976
 10
17.485013888000001
 20
-6.711695112000001
  0
SPLINE
  5
7D
  8
Layer_1
 62
1
420
16711680
370
-1
  6
ByLayer
100
AcDbEntity
100
AcDbSpline
 70
8
 71
3
 72
8
 73
4
 74
0
 40
0.0
 40
0.0
 40
0.0
 40
0.0
 40
1.0
 40
1.0
 40
1.0
 40
1.0
 10
2.7819617000000001
 20
43.815571391999995
 30
0.0
 10
2.7819617000000001
 20
43.160135687999997
 30
0.0
 10
2.2493327240000021
 20
42.629276105999999
 30
0.0
 10
1.59389702
 20
42.629629733999998
 30
0.0
  0
SPLINE
  5
7E
  8
Layer_1
 62
1
420
16711680
370
-1
  6
ByLayer
100
AcDbEntity
100
AcDbSpline
 70
8
 71
3
 72
8
 73
4
 74
0
 40
0.0
 40
0.0
 40
0.0
 40
0.0
 40
1.0
 40
1.0
 40
1.0
 40
1.0
 10
1.59389702
 20
42.629629733999998
 30
0.0
 10
0.9384625700000022
 20
42.630336989999996
 30
0.0
 10
0.4083102440000026
 20
43.162613592
 30
0.0
 10
0.4083102440000026
 20
43.818048042000001
 30
0.0
  0
SPLINE
  5
7F
  8
Layer_1
 62
1
420
16711680
370
-1
  6
ByLayer
100
AcDbEntity
100
AcDbSpline
 70
8
 71
3
 72
8
 73
4
 74
0
 40
0.0
 40
0.0
 40
0.0
 40
0.0
 40
1.0
 40
1.0
 40
1.0
 40
1.0
 10
0.4083102440000026
 20
43.818048042000001
 30
0.0
 10
0.4083102440000026
 20
44.473837373999999
 30
0.0
 10
0.9405855920000015
 20
45.003989699999998
 30
0.0
 10
1.5963749239999991
 20
45.003636071999999
 30
0.0
  0
SPLINE
  5
80
  8
Layer_1
 62
1
420
16711680
370
-1
  6
ByLayer
100
AcDbEntity
100
AcDbSpline
 70
8
 71
3
 72
8
 73
4
 74
0
 40
0.0
 40
0.0
 40
0.0
 40
0.0
 40
1.0
 40
1.0
 40
1.0
 40
1.0
 10
1.5963749239999991
 20
45.003636071999999
 30
0.0
 10
2.2518093739999969
 20
45.002927561999996
 30
0.0
 10
2.7826702099999991
 20
44.471359470000003
 30
0.0
 10
2.7819617000000001
 20
43.815571391999995
 30
0.0
  0
LWPOLYLINE
  5
81
  8
Layer_1
 62
1
420
16711680
370
-1
  6
ByLayer
100
AcDbEntity
100
AcDbPolyline
 90
2
 70
0
 10
1.224418459999999
 20
29.482705020000001
 10
1.224418459999999
 20
29.482705020000001
  0
LWPOLYLINE
  5
82
  8
Layer_1
 62
1
420
16711680
370
-1
  6
ByLayer
100
AcDbEntity
100
AcDbPolyline
 90
2
 70
0
 10
2.7819617000000001
 20
43.815571391999995
 10
2.7819617000000001
 20
43.815571391999995
  0
SPLINE
  5
83
  8
Layer_1
 62
1
420
16711680
370
-1
  6
ByLayer
100
AcDbEntity
100
AcDbSpline
 70
8
 71
3
 72
8
 73
4
 74
0
 40
0.0
 40
0.0
 40
0.0
 40
0.0
 40
1.0
 40
1.0
 40
1.0
 40
1.0
 10
16.263681842
 20
40.568831213999999
 30
0.0
 10
13.724755694000001
 20
41.515885871999998
 30
0.0
 10
11.915231186
 20
43.956072059999997
 30
0.0
 10
11.918062718
 20
46.824485453999998
 30
0.0
  0
SPLINE
  5
84
  8
Layer_1
 62
1
420
16711680
370
-1
  6
ByLayer
100
AcDbEntity
100
AcDbSpline
 70
8
 71
3
 72
8
 73
4
 74
0
 40
0.0
 40
0.0
 40
0.0
 40
0.0
 40
1.0
 40
1.0
 40
1.0
 40
1.0
 10
11.918062718
 20
46.824485453999998
 30
0.0
 10
11.918062718
 20
48.107042796000002
 30
0.0
 10
12.289310671999999
 20
49.299354773999994
 30
0.0
 10
12.919618723999999
 20
50.314005047999999
 30
0.0
  0
LWPOLYLINE
  5
85
  8
Layer_1
 62
1
420
16711680
370
-1
  6
ByLayer
100
AcDbEntity
100
AcDbPolyline
 90
11
 70
0
 10
0.407601734
 20
43.816985903999999
 10
0.0045021799999994
 20
29.483058647999997
 10
8.125598042
 20
29.475272562000001
 10
8.1206434879999989
 20
24.960121416
 10
11.227590254000001
 20
24.956581374000002
 10
11.227590254000001
 20
26.111378687999999
 10
15.039519517999997
 20
26.107486271999999
 10
15.039519517999997
 20
24.952688958000003
 10
23.533279099999998
 20
24.944549244000001
 10
23.549204900000003
 20
40.561398755999996
 10
16.263681842
 20
40.568831213999999
  0
SPLINE
  5
86
  8
Layer_1
 62
1
420
16711680
370
-1
  6
ByLayer
100
AcDbEntity
100
AcDbSpline
 70
8
 71
3
 72
8
 73
4
 74
0
 40
0.0
 40
0.0
 40
0.0
 40
0.0
 40
1.0
 40
1.0
 40
1.0
 40
1.0
 10
-0.9492764260000008
 20
48.839275967999995
 30
0.0
 10
-2.6115763179999973
 20
48.839275967999995
 30
0.0
 10
-3.9588989979999987
 20
47.491599660000006
 30
0.0
 10
-3.9588989979999987
 20
45.830007023999997
 30
0.0
  0
LWPOLYLINE
  5
87
  8
Layer_1
 62
1
420
16711680
370
-1
  6
ByLayer
100
AcDbEntity
100
AcDbPolyline
 90
4
 70
0
 10
12.919618723999999
 20
50.314005047999999
 10
12.919618723999999
 20
51.321222863999999
 10
0.6358723700000013
 20
49.226096093999999
 10
-0.9492764260000008
 20
48.839275967999995
  0
SPLINE
  5
88
  8
Layer_1
 62
1
420
16711680
370
-1
  6
ByLayer
100
AcDbEntity
100
AcDbSpline
 70
8
 71
3
 72
8
 73
4
 74
0
 40
0.0
 40
0.0
 40
0.0
 40
0.0
 40
1.0
 40
1.0
 40
1.0
 40
1.0
 10
-4.3694297560000024
 20
21.592345158000001
 30
0.0
 10
-4.3694297560000024
 20
20.488864031999995
 30
0.0
 10
-3.8074258299999997
 20
19.105088825999999
 30
0.0
 10
-3.1183703859999987
 20
18.516542736000002
 30
0.0
  0
SPLINE
  5
89
  8
Layer_1
 62
1
420
16711680
370
-1
  6
ByLayer
100
AcDbEntity
100
AcDbSpline
 70
8
 71
3
 72
8
 73
4
 74
0
 40
0.0
 40
0.0
 40
0.0
 40
0.0
 40
1.0
 40
1.0
 40
1.0
 40
1.0
 10
-3.1183703859999987
 20
18.516542736000002
 30
0.0
 10
-2.4293136880000006
 20
17.928349019999999
 30
0.0
 10
-1.8273184480000033
 20
17.446682603999999
 30
0.0
 10
-1.8273184480000033
 20
17.446682603999999
 30
0.0
  0
SPLINE
  5
8A
  8
Layer_1
 62
1
420
16711680
370
-1
  6
ByLayer
100
AcDbEntity
100
AcDbSpline
 70
8
 71
3
 72
8
 73
4
 74
0
 40
0.0
 40
0.0
 40
0.0
 40
0.0
 40
1.0
 40
1.0
 40
1.0
 40
1.0
 10
1.0161089959999998
 20
50.605511141999997
 30
0.0
 10
2.6780552600000007
 20
50.605511141999997
 30
0.0
 10
4.0257315679999977
 20
51.952833822000002
 30
0.0
 10
4.0257315679999977
 20
53.615133714000002
 30
0.0
  0
SPLINE
  5
8B
  8
Layer_1
 62
1
420
16711680
370
-1
  6
ByLayer
100
AcDbEntity
100
AcDbSpline
 70
8
 71
3
 72
8
 73
4
 74
0
 40
0.0
 40
0.0
 40
0.0
 40
0.0
 40
1.0
 40
1.0
 40
1.0
 40
1.0
 10
4.0257315679999977
 20
53.615133714000002
 30
0.0
 10
4.0257315679999977
 20
53.989566828000008
 30
0.0
 10
3.9542422819999992
 20
54.346304747999994
 30
0.0
 10
3.8289589040000003
 20
54.677561388000001
 30
0.0
  0
LWPOLYLINE
  5
8C
  8
Layer_1
 62
1
420
16711680
370
-1
  6
ByLayer
100
AcDbEntity
100
AcDbPolyline
 90
3
 70
0
 10
-3.9588989979999987
 20
45.830007023999997
 10
-4.3619985519999993
 20
29.486951063999999
 10
-4.3694297560000024
 20
21.592345158000001
  0
SPLINE
  5
8D
  8
Layer_1
 62
1
420
16711680
370
-1
  6
ByLayer
100
AcDbEntity
100
AcDbSpline
 70
8
 71
3
 72
8
 73
4
 74
0
 40
0.0
 40
0.0
 40
0.0
 40
0.0
 40
1.0
 40
1.0
 40
1.0
 40
1.0
 10
12.495425635999998
 20
60.664246422000005
 30
0.0
 10
13.599260390000001
 20
60.664246422000005
 30
0.0
 10
14.501722808
 20
61.356841908000007
 30
0.0
 10
14.501722808
 20
62.460676661999997
 30
0.0
  0
SPLINE
  5
8E
  8
Layer_1
 62
1
420
16711680
370
-1
  6
ByLayer
100
AcDbEntity
100
AcDbSpline
 70
8
 71
3
 72
8
 73
4
 74
0
 40
0.0
 40
0.0
 40
0.0
 40
0.0
 40
1.0
 40
1.0
 40
1.0
 40
1.0
 10
14.501722808
 20
62.460676661999997
 30
0.0
 10
14.501722808
 20
62.460676661999997
 30
0.0
 10
13.656946898000001
 20
63.650864364
 30
0.0
 10
12.613985066
 20
63.650864364
 30
0.0
  0
SPLINE
  5
8F
  8
Layer_1
 62
1
420
16711680
370
-1
  6
ByLayer
100
AcDbEntity
100
AcDbSpline
 70
8
 71
3
 72
8
 73
4
 74
0
 40
0.0
 40
0.0
 40
0.0
 40
0.0
 40
1.0
 40
1.0
 40
1.0
 40
1.0
 10
12.613985066
 20
63.650864364
 30
0.0
 10
12.215131556000001
 20
63.650864364
 30
0.0
 10
11.884937054
 20
63.413746758000002
 30
0.0
 10
11.814863534000001
 20
63.035067599999991
 30
0.0
  0
LWPOLYLINE
  5
90
  8
Layer_1
 62
1
420
16711680
370
-1
  6
ByLayer
100
AcDbEntity
100
AcDbPolyline
 90
3
 70
0
 10
3.8289589040000003
 20
54.677561388000001
 10
3.8289589040000003
 20
60.664246422000005
 10
12.495425635999998
 20
60.664246422000005
  0
SPLINE
  5
91
  8
Layer_1
 62
1
420
16711680
370
-1
  6
ByLayer
100
AcDbEntity
100
AcDbSpline
 70
8
 71
3
 72
8
 73
4
 74
0
 40
0.0
 40
0.0
 40
0.0
 40
0.0
 40
1.0
 40
1.0
 40
1.0
 40
1.0
 10
6.0330896239999987
 20
63.035067599999991
 30
0.0
 10
5.7556270759999997
 20
63.035067599999991
 30
0.0
 10
5.5312501099999984
 20
63.259798193999998
 30
0.0
 10
5.5312501099999984
 20
63.536907113999995
 30
0.0
  0
LWPOLYLINE
  5
92
  8
Layer_1
 62
1
420
16711680
370
-1
  6
ByLayer
100
AcDbEntity
100
AcDbPolyline
 90
2
 70
0
 10
11.814863534000001
 20
63.035067599999991
 10
6.0330896239999987
 20
63.035067599999991
  0
SPLINE
  5
93
  8
Layer_1
 62
1
420
16711680
370
-1
  6
ByLayer
100
AcDbEntity
100
AcDbSpline
 70
8
 71
3
 72
8
 73
4
 74
0
 40
0.0
 40
0.0
 40
0.0
 40
0.0
 40
1.0
 40
1.0
 40
1.0
 40
1.0
 10
5.5312501099999984
 20
64.289665757999998
 30
0.0
 10
5.5312501099999984
 20
64.566774678000002
 30
0.0
 10
5.7556270759999997
 20
64.791505271999995
 30
0.0
 10
6.0330896239999987
 20
64.791505271999995
 30
0.0
  0
LWPOLYLINE
  5
94
  8
Layer_1
 62
1
420
16711680
370
-1
  6
ByLayer
100
AcDbEntity
100
AcDbPolyline
 90
2
 70
0
 10
5.5312501099999984
 20
63.536907113999995
 10
5.5312501099999984
 20
64.289665757999998
  0
SPLINE
  5
95
  8
Layer_1
 62
1
420
16711680
370
-1
  6
ByLayer
100
AcDbEntity
100
AcDbSpline
 70
8
 71
3
 72
8
 73
4
 74
0
 40
0.0
 40
0.0
 40
0.0
 40
0.0
 40
1.0
 40
1.0
 40
1.0
 40
1.0
 10
11.815217162000001
 20
64.791505271999995
 30
0.0
 10
11.885644309999998
 20
64.414241879999992
 30
0.0
 10
12.215840066
 20
64.227378324
 30
0.0
 10
12.613985066
 20
64.227378324
 30
0.0
  0
LWPOLYLINE
  5
96
  8
Layer_1
 62
1
420
16711680
370
-1
  6
ByLayer
100
AcDbEntity
100
AcDbPolyline
 90
2
 70
0
 10
6.0330896239999987
 20
64.791505271999995
 10
11.815217162000001
 20
64.791505271999995
  0
SPLINE
  5
97
  8
Layer_1
 62
1
420
16711680
370
-1
  6
ByLayer
100
AcDbEntity
100
AcDbSpline
 70
8
 71
3
 72
8
 73
4
 74
0
 40
0.0
 40
0.0
 40
0.0
 40
0.0
 40
1.0
 40
1.0
 40
1.0
 40
1.0
 10
12.613985066
 20
64.233748644000002
 30
0.0
 10
13.649515694
 20
64.233748644000002
 30
0.0
 10
14.488982168000001
 20
65.456496455999996
 30
0.0
 10
14.50066067
 20
65.473838021999995
 30
0.0
  0
SPLINE
  5
98
  8
Layer_1
 62
1
420
16711680
370
-1
  6
ByLayer
100
AcDbEntity
100
AcDbSpline
 70
8
 71
3
 72
8
 73
4
 74
0
 40
0.0
 40
0.0
 40
0.0
 40
0.0
 40
1.0
 40
1.0
 40
1.0
 40
1.0
 10
14.50066067
 20
65.473838021999995
 30
0.0
 10
14.488982168000001
 20
65.490471077999999
 30
0.0
 10
13.649515694
 20
66.712511634000009
 30
0.0
 10
12.613985066
 20
66.712511634000009
 30
0.0
  0
SPLINE
  5
99
  8
Layer_1
 62
1
420
16711680
370
-1
  6
ByLayer
100
AcDbEntity
100
AcDbSpline
 70
8
 71
3
 72
8
 73
4
 74
0
 40
0.0
 40
0.0
 40
0.0
 40
0.0
 40
1.0
 40
1.0
 40
1.0
 40
1.0
 10
12.613985066
 20
66.712511634000009
 30
0.0
 10
12.215131556000001
 20
66.712511634000009
 30
0.0
 10
11.884937054
 20
66.525648077999989
 30
0.0
 10
11.814863534000001
 20
66.146968920000006
 30
0.0
  0
LWPOLYLINE
  5
9A
  8
Layer_1
 62
1
420
16711680
370
-1
  6
ByLayer
100
AcDbEntity
100
AcDbPolyline
 90
2
 70
0
 10
12.613985066
 20
64.227378324
 10
12.613985066
 20
64.233748644000002
  0
SPLINE
  5
9B
  8
Layer_1
 62
1
420
16711680
370
-1
  6
ByLayer
100
AcDbEntity
100
AcDbSpline
 70
8
 71
3
 72
8
 73
4
 74
0
 40
0.0
 40
0.0
 40
0.0
 40
0.0
 40
1.0
 40
1.0
 40
1.0
 40
1.0
 10
6.0330896239999987
 20
66.146968920000006
 30
0.0
 10
5.7556270759999997
 20
66.146968920000006
 30
0.0
 10
5.5312501099999984
 20
66.371699513999999
 30
0.0
 10
5.5312501099999984
 20
66.648808433999989
 30
0.0
  0
LWPOLYLINE
  5
9C
  8
Layer_1
 62
1
420
16711680
370
-1
  6
ByLayer
100
AcDbEntity
100
AcDbPolyline
 90
2
 70
0
 10
11.814863534000001
 20
66.146968920000006
 10
6.0330896239999987
 20
66.146968920000006
  0
SPLINE
  5
9D
  8
Layer_1
 62
1
420
16711680
370
-1
  6
ByLayer
100
AcDbEntity
100
AcDbSpline
 70
8
 71
3
 72
8
 73
4
 74
0
 40
0.0
 40
0.0
 40
0.0
 40
0.0
 40
1.0
 40
1.0
 40
1.0
 40
1.0
 10
5.5312501099999984
 20
67.451468754000004
 30
0.0
 10
5.5312501099999984
 20
67.728577674000007
 30
0.0
 10
5.7556270759999997
 20
67.953308268000001
 30
0.0
 10
6.0330896239999987
 20
67.953308268000001
 30
0.0
  0
LWPOLYLINE
  5
9E
  8
Layer_1
 62
1
420
16711680
370
-1
  6
ByLayer
100
AcDbEntity
100
AcDbPolyline
 90
2
 70
0
 10
5.5312501099999984
 20
66.648808433999989
 10
5.5312501099999984
 20
67.451468754000004
  0
SPLINE
  5
9F
  8
Layer_1
 62
1
420
16711680
370
-1
  6
ByLayer
100
AcDbEntity
100
AcDbSpline
 70
8
 71
3
 72
8
 73
4
 74
0
 40
0.0
 40
0.0
 40
0.0
 40
0.0
 40
1.0
 40
1.0
 40
1.0
 40
1.0
 10
11.815217162000001
 20
67.953308268000001
 30
0.0
 10
11.885644309999998
 20
67.576043622
 30
0.0
 10
12.215840066
 20
67.339633271999986
 30
0.0
 10
12.613985066
 20
67.339633271999986
 30
0.0
  0
LWPOLYLINE
  5
A0
  8
Layer_1
 62
1
420
16711680
370
-1
  6
ByLayer
100
AcDbEntity
100
AcDbPolyline
 90
2
 70
0
 10
6.0330896239999987
 20
67.953308268000001
 10
11.815217162000001
 20
67.953308268000001
  0
SPLINE
  5
A1
  8
Layer_1
 62
1
420
16711680
370
-1
  6
ByLayer
100
AcDbEntity
100
AcDbSpline
 70
8
 71
3
 72
8
 73
4
 74
0
 40
0.0
 40
0.0
 40
0.0
 40
0.0
 40
1.0
 40
1.0
 40
1.0
 40
1.0
 10
12.613985066
 20
67.346003592000002
 30
0.0
 10
13.656946898000001
 20
67.346003592000002
 30
0.0
 10
14.501722808
 20
68.536899804000001
 30
0.0
 10
14.501722808
 20
68.536899804000001
 30
0.0
  0
LWPOLYLINE
  5
A2
  8
Layer_1
 62
1
420
16711680
370
-1
  6
ByLayer
100
AcDbEntity
100
AcDbPolyline
 90
2
 70
0
 10
12.613985066
 20
67.339633271999986
 10
12.613985066
 20
67.346003592000002
  0
SPLINE
  5
A3
  8
Layer_1
 62
1
420
16711680
370
-1
  6
ByLayer
100
AcDbEntity
100
AcDbSpline
 70
8
 71
3
 72
8
 73
4
 74
0
 40
0.0
 40
0.0
 40
0.0
 40
0.0
 40
1.0
 40
1.0
 40
1.0
 40
1.0
 10
14.501722808
 20
69.964913622000012
 30
0.0
 10
13.801694863999998
 20
70.499311992000003
 30
0.0
 10
13.312242361999999
 20
71.290293810000009
 30
0.0
 10
13.166078630000001
 20
72.197002272000006
 30
0.0
  0
SPLINE
  5
A4
  8
Layer_1
 62
1
420
16711680
370
-1
  6
ByLayer
100
AcDbEntity
100
AcDbSpline
 70
8
 71
3
 72
8
 73
4
 74
0
 40
0.0
 40
0.0
 40
0.0
 40
0.0
 40
1.0
 40
1.0
 40
1.0
 40
1.0
 10
13.166078630000001
 20
72.197002272000006
 30
0.0
 10
13.166078630000001
 20
72.272385228000005
 30
0.0
 10
13.160770447999999
 20
72.345643908
 30
0.0
 10
13.155462266000001
 20
72.418194077999999
 30
0.0
  0
SPLINE
  5
A5
  8
Layer_1
 62
1
420
16711680
370
-1
  6
ByLayer
100
AcDbEntity
100
AcDbSpline
 70
8
 71
3
 72
8
 73
4
 74
0
 40
0.0
 40
0.0
 40
0.0
 40
0.0
 40
1.0
 40
1.0
 40
1.0
 40
1.0
 10
13.155462266000001
 20
72.418194077999999
 30
0.0
 10
13.147321298000001
 20
72.538522902000011
 30
0.0
 10
13.135289168
 20
72.658850471999983
 30
0.0
 10
13.117593974
 20
72.775640508000009
 30
0.0
  0
SPLINE
  5
A6
  8
Layer_1
 62
1
420
16711680
370
-1
  6
ByLayer
100
AcDbEntity
100
AcDbSpline
 70
8
 71
3
 72
8
 73
4
 74
0
 40
0.0
 40
0.0
 40
0.0
 40
0.0
 40
1.0
 40
1.0
 40
1.0
 40
1.0
 10
13.117593974
 20
72.775640508000009
 30
0.0
 10
12.850394162000001
 20
74.555436438000015
 30
0.0
 10
11.422735226
 20
75.951598656000002
 30
0.0
 10
9.6273658699999984
 20
76.167482280000002
 30
0.0
  0
LWPOLYLINE
  5
A7
  8
Layer_1
 62
1
420
16711680
370
-1
  6
ByLayer
100
AcDbEntity
100
AcDbPolyline
 90
2
 70
0
 10
14.501722808
 20
68.536899804000001
 10
14.501722808
 20
69.964913622000012
  0
SPLINE
  5
A8
  8
Layer_1
 62
1
420
16711680
370
-1
  6
ByLayer
100
AcDbEntity
100
AcDbSpline
 70
8
 71
3
 72
8
 73
4
 74
0
 40
0.0
 40
0.0
 40
0.0
 40
0.0
 40
1.0
 40
1.0
 40
1.0
 40
1.0
 10
1.9157398820000004
 20
76.167482280000002
 30
0.0
 10
0.0704701040000018
 20
75.945581963999985
 30
0.0
 10
-1.3890404320000016
 20
74.476869575999984
 30
0.0
 10
-1.5964294599999995
 20
72.627707381999997
 30
0.0
  0
LWPOLYLINE
  5
A9
  8
Layer_1
 62
1
420
16711680
370
-1
  6
ByLayer
100
AcDbEntity
100
AcDbPolyline
 90
2
 70
0
 10
9.6273658699999984
 20
76.167482280000002
 10
1.9157398820000004
 20
76.167482280000002
  0
SPLINE
  5
AA
  8
Layer_1
 62
1
420
16711680
370
-1
  6
ByLayer
100
AcDbEntity
100
AcDbSpline
 70
8
 71
3
 72
8
 73
4
 74
0
 40
0.0
 40
0.0
 40
0.0
 40
0.0
 40
1.0
 40
1.0
 40
1.0
 40
1.0
 10
-1.6102322379999983
 20
72.474111192000009
 30
0.0
 10
-1.6144795359999975
 20
72.419609843999993
 30
0.0
 10
-1.615895302000002
 20
72.364754868000006
 30
0.0
 10
-1.6176646960000021
 20
72.309898638000007
 30
0.0
  0
SPLINE
  5
AB
  8
Layer_1
 62
1
420
16711680
370
-1
  6
ByLayer
100
AcDbEntity
100
AcDbSpline
 70
8
 71
3
 72
8
 73
4
 74
0
 40
0.0
 40
0.0
 40
0.0
 40
0.0
 40
1.0
 40
1.0
 40
1.0
 40
1.0
 10
-1.6176646960000021
 20
72.309898638000007
 30
0.0
 10
-1.740823798000001
 20
71.344087901999998
 30
0.0
 10
-2.25646609
 20
70.502852034
 30
0.0
 10
-2.9996692540000005
 20
69.945802662000006
 30
0.0
  0
LWPOLYLINE
  5
AC
  8
Layer_1
 62
1
420
16711680
370
-1
  6
ByLayer
100
AcDbEntity
100
AcDbPolyline
 90
2
 70
0
 10
-1.5964294599999995
 20
72.627707381999997
 10
-1.6102322379999983
 20
72.474111192000009
  0
SPLINE
  5
AD
  8
Layer_1
 62
1
420
16711680
370
-1
  6
ByLayer
100
AcDbEntity
100
AcDbSpline
 70
8
 71
3
 72
8
 73
4
 74
0
 40
0.0
 40
0.0
 40
0.0
 40
0.0
 40
1.0
 40
1.0
 40
1.0
 40
1.0
 10
-2.9996692540000005
 20
54.609257262
 30
0.0
 10
-2.5647181000000003
 20
54.277292111999998
 30
0.0
 10
-2.2196599359999993
 20
53.840571564000001
 30
0.0
 10
-1.9793571700000001
 20
53.342979348
 30
0.0
  0
SPLINE
  5
AE
  8
Layer_1
 62
1
420
16711680
370
-1
  6
ByLayer
100
AcDbEntity
100
AcDbSpline
 70
8
 71
3
 72
8
 73
4
 74
0
 40
0.0
 40
0.0
 40
0.0
 40
0.0
 40
1.0
 40
1.0
 40
1.0
 40
1.0
 10
-1.9793571700000001
 20
53.342979348
 30
0.0
 10
-1.8423952900000025
 20
51.808439484000004
 30
0.0
 10
-0.554528512000001
 20
50.605511141999997
 30
0.0
 10
1.0161089959999998
 20
50.605511141999997
 30
0.0
  0
LWPOLYLINE
  5
AF
  8
Layer_1
 62
1
420
16711680
370
-1
  6
ByLayer
100
AcDbEntity
100
AcDbPolyline
 90
2
 70
0
 10
-2.9996692540000005
 20
69.945802662000006
 10
-2.9996692540000005
 20
54.609257262
  0
LWPOLYLINE
  5
B0
  8
Layer_1
 62
1
420
16711680
370
-1
  6
ByLayer
100
AcDbEntity
100
AcDbPolyline
 90
2
 70
0
 10
1.0161089959999998
 20
50.605511141999997
 10
1.0161089959999998
 20
50.605511141999997
  0
SPLINE
  5
B1
  8
Layer_1
 62
1
420
16711680
370
-1
  6
ByLayer
100
AcDbEntity
100
AcDbSpline
 70
8
 71
3
 72
8
 73
4
 74
0
 40
0.0
 40
0.0
 40
0.0
 40
0.0
 40
1.0
 40
1.0
 40
1.0
 40
1.0
 10
1.6566797840000014
 20
70.669541237999994
 30
0.0
 10
0.8257079060000017
 20
70.669541237999994
 30
0.0
 10
0.1522233799999988
 20
71.342672136000004
 30
0.0
 10
0.1522233799999988
 20
72.173645268000001
 30
0.0
  0
SPLINE
  5
B2
  8
Layer_1
 62
1
420
16711680
370
-1
  6
ByLayer
100
AcDbEntity
100
AcDbSpline
 70
8
 71
3
 72
8
 73
4
 74
0
 40
0.0
 40
0.0
 40
0.0
 40
0.0
 40
1.0
 40
1.0
 40
1.0
 40
1.0
 10
0.1522233799999988
 20
72.173645268000001
 30
0.0
 10
0.1522233799999988
 20
73.005325655999997
 30
0.0
 10
0.8257079060000017
 20
73.678810182000007
 30
0.0
 10
1.6566797840000014
 20
73.678810182000007
 30
0.0
  0
LWPOLYLINE
  5
B3
  8
Layer_1
 62
1
420
16711680
370
-1
  6
ByLayer
100
AcDbEntity
100
AcDbPolyline
 90
5
 70
0
 10
14.501722808
 20
65.474191649999995
 10
14.501722808
 20
65.474191649999995
 10
14.501722808
 20
65.470652861999994
 10
14.501722808
 20
65.474191649999995
 10
14.501722808
 20
65.474191649999995
  0
SPLINE
  5
B4
  8
Layer_1
 62
1
420
16711680
370
-1
  6
ByLayer
100
AcDbEntity
100
AcDbSpline
 70
8
 71
3
 72
8
 73
4
 74
0
 40
0.0
 40
0.0
 40
0.0
 40
0.0
 40
1.0
 40
1.0
 40
1.0
 40
1.0
 10
5.2495402640000002
 20
73.678810182000007
 30
0.0
 10
6.0808670239999998
 20
73.678810182000007
 30
0.0
 10
6.7543515499999991
 20
73.005325655999997
 30
0.0
 10
6.7543515499999991
 20
72.173645268000001
 30
0.0
  0
SPLINE
  5
B5
  8
Layer_1
 62
1
420
16711680
370
-1
  6
ByLayer
100
AcDbEntity
100
AcDbSpline
 70
8
 71
3
 72
8
 73
4
 74
0
 40
0.0
 40
0.0
 40
0.0
 40
0.0
 40
1.0
 40
1.0
 40
1.0
 40
1.0
 10
6.7543515499999991
 20
72.173645268000001
 30
0.0
 10
6.7543515499999991
 20
71.342672136000004
 30
0.0
 10
6.0808670239999998
 20
70.669541237999994
 30
0.0
 10
5.2495402640000002
 20
70.669541237999994
 30
0.0
  0
LWPOLYLINE
  5
B6
  8
Layer_1
 62
1
420
16711680
370
-1
  6
ByLayer
100
AcDbEntity
100
AcDbPolyline
 90
2
 70
0
 10
1.6566797840000014
 20
73.678810182000007
 10
5.2495402640000002
 20
73.678810182000007
  0
SPLINE
  5
B7
  8
Layer_1
 62
1
420
16711680
370
-1
  6
ByLayer
100
AcDbEntity
100
AcDbSpline
 70
8
 71
3
 72
8
 73
4
 74
0
 40
0.0
 40
0.0
 40
0.0
 40
0.0
 40
1.0
 40
1.0
 40
1.0
 40
1.0
 10
1.0161089959999998
 20
52.110322428000003
 30
0.0
 10
1.8474357559999994
 20
52.110322428000003
 30
0.0
 10
2.5209202820000023
 20
52.783806953999999
 30
0.0
 10
2.5209202820000023
 20
53.615133714000002
 30
0.0
  0
SPLINE
  5
B8
  8
Layer_1
 62
1
420
16711680
370
-1
  6
ByLayer
100
AcDbEntity
100
AcDbSpline
 70
8
 71
3
 72
8
 73
4
 74
0
 40
0.0
 40
0.0
 40
0.0
 40
0.0
 40
1.0
 40
1.0
 40
1.0
 40
1.0
 10
2.5209202820000023
 20
53.615133714000002
 30
0.0
 10
2.5209202820000023
 20
54.445751963999996
 30
0.0
 10
1.8474357559999994
 20
55.119945000000001
 30
0.0
 10
1.0161089959999998
 20
55.119945000000001
 30
0.0
  0
SPLINE
  5
B9
  8
Layer_1
 62
1
420
16711680
370
-1
  6
ByLayer
100
AcDbEntity
100
AcDbSpline
 70
8
 71
3
 72
8
 73
4
 74
0
 40
0.0
 40
0.0
 40
0.0
 40
0.0
 40
1.0
 40
1.0
 40
1.0
 40
1.0
 10
1.0161089959999998
 20
55.119945000000001
 30
0.0
 10
0.1851358639999994
 20
55.119945000000001
 30
0.0
 10
-0.4890559179999983
 20
54.445751963999996
 30
0.0
 10
-0.4890559179999983
 20
53.615133714000002
 30
0.0
  0
SPLINE
  5
BA
  8
Layer_1
 62
1
420
16711680
370
-1
  6
ByLayer
100
AcDbEntity
100
AcDbSpline
 70
8
 71
3
 72
8
 73
4
 74
0
 40
0.0
 40
0.0
 40
0.0
 40
0.0
 40
1.0
 40
1.0
 40
1.0
 40
1.0
 10
-0.4890559179999983
 20
53.615133714000002
 30
0.0
 10
-0.4890559179999983
 20
52.783806953999999
 30
0.0
 10
0.1854907459999993
 20
52.110322428000003
 30
0.0
 10
1.0161089959999998
 20
52.110322428000003
 30
0.0
  0
LWPOLYLINE
  5
BB
  8
Layer_1
 62
1
420
16711680
370
-1
  6
ByLayer
100
AcDbEntity
100
AcDbPolyline
 90
3
 70
0
 10
5.2495402640000002
 20
70.669541237999994
 10
1.6566797840000014
 20
70.669541237999994
 10
1.6566797840000014
 20
70.669541237999994
  0
SPLINE
  5
BC
  8
Layer_1
 62
1
420
16711680
370
-1
  6
ByLayer
100
AcDbEntity
100
AcDbSpline
 70
8
 71
3
 72
8
 73
4
 74
0
 40
0.0
 40
0.0
 40
0.0
 40
0.0
 40
1.0
 40
1.0
 40
1.0
 40
1.0
 10
10.546461343999999
 20
70.669541237999994
 30
0.0
 10
11.377434475999999
 20
70.669541237999994
 30
0.0
 10
12.05127263
 20
71.342672136000004
 30
0.0
 10
12.05127263
 20
72.173645268000001
 30
0.0
  0
SPLINE
  5
BD
  8
Layer_1
 62
1
420
16711680
370
-1
  6
ByLayer
100
AcDbEntity
100
AcDbSpline
 70
8
 71
3
 72
8
 73
4
 74
0
 40
0.0
 40
0.0
 40
0.0
 40
0.0
 40
1.0
 40
1.0
 40
1.0
 40
1.0
 10
12.05127263
 20
72.173645268000001
 30
0.0
 10
12.05127263
 20
73.005325655999997
 30
0.0
 10
11.377434475999999
 20
73.678810182000007
 30
0.0
 10
10.546461343999999
 20
73.678810182000007
 30
0.0
  0
SPLINE
  5
BE
  8
Layer_1
 62
1
420
16711680
370
-1
  6
ByLayer
100
AcDbEntity
100
AcDbSpline
 70
8
 71
3
 72
8
 73
4
 74
0
 40
0.0
 40
0.0
 40
0.0
 40
0.0
 40
1.0
 40
1.0
 40
1.0
 40
1.0
 10
10.546461343999999
 20
73.678810182000007
 30
0.0
 10
9.7154894660000011
 20
73.678810182000007
 30
0.0
 10
9.0416500580000001
 20
73.005325655999997
 30
0.0
 10
9.0416500580000001
 20
72.173645268000001
 30
0.0
  0
SPLINE
  5
BF
  8
Layer_1
 62
1
420
16711680
370
-1
  6
ByLayer
100
AcDbEntity
100
AcDbSpline
 70
8
 71
3
 72
8
 73
4
 74
0
 40
0.0
 40
0.0
 40
0.0
 40
0.0
 40
1.0
 40
1.0
 40
1.0
 40
1.0
 10
9.0416500580000001
 20
72.173645268000001
 30
0.0
 10
9.0416500580000001
 20
71.342672136000004
 30
0.0
 10
9.7154894660000011
 20
70.669541237999994
 30
0.0
 10
10.546461343999999
 20
70.669541237999994
 30
0.0
  0
LWPOLYLINE
  5
C0
  8
Layer_1
 62
1
420
16711680
370
-1
  6
ByLayer
100
AcDbEntity
100
AcDbPolyline
 90
2
 70
0
 10
1.0161089959999998
 20
52.110322428000003
 10
1.0161089959999998
 20
52.110322428000003
  0
LWPOLYLINE
  5
C1
  8
Layer_1
 62
1
420
16711680
370
-1
  6
ByLayer
100
AcDbEntity
100
AcDbPolyline
 90
2
 70
0
 10
10.546461343999999
 20
70.669541237999994
 10
10.546461343999999
 20
70.669541237999994
  0
ENDSEC
  0
SECTION
  2
OBJECTS
  0
DICTIONARY
  5
C
100
AcDbDictionary
280
0
281
1
  3
ACAD_GROUP
350
D
  3
ACAD_LAYOUT
350
1A
  3
ACAD_MLINESTYLE
350
17
  3
ACAD_PLOTSETTINGS
350
19
  3
ACAD_PLOTSTYLENAME
350
E
  3
AcDbVariableDictionary
350
C2
  0
DICTIONARY
  5
D
100
AcDbDictionary
280
0
281
1
  0
ACDBDICTIONARYWDFLT
  5
E
100
AcDbDictionary
281
1
  3
Normal
350
F
100
AcDbDictionaryWithDefault
340
F
  0
ACDBPLACEHOLDER
  5
F
  0
DICTIONARY
  5
17
100
AcDbDictionary
280
0
281
1
  3
Standard
350
18
  0
MLINESTYLE
  5
18
100
AcDbMlineStyle
  2
STANDARD
 70
0
  3

 62
256
 51
90.0
 52
90.0
 71
2
 49
0.5
 62
256
  6
BYLAYER
 49
-0.5
 62
256
  6
BYLAYER
  0
DICTIONARY
  5
19
100
AcDbDictionary
280
0
281
1
  0
DICTIONARY
  5
1A
100
AcDbDictionary
281
1
  3
Layout1
350
1E
  3
Layout2
350
26
  3
Model
350
22
  0
LAYOUT
  5
1E
100
AcDbPlotSettings
  1

  2
C:\Program Files\AutoCAD 2002\plotters\DWF ePlot (optimized for plotting).pc3
  4

  6

 40
0.0
 41
0.0
 42
0.0
 43
0.0
 44
0.0
 45
0.0
 46
0.0
 47
0.0
 48
0.0
 49
0.0
140
0.0
141
0.0
142
1.0
143
1.0
 70
688
 72
0
 73
0
 74
5
  7

 75
16
147
1.0
148
0.0
149
0.0
100
AcDbLayout
  1
Layout1
 70
1
 71
1
 10
0.0
 20
0.0
 11
420.0
 21
297.0
 12
0.0
 22
0.0
 32
0.0
 14
100000000000000000000.0
 24
100000000000000000000.0
 34
100000000000000000000.0
 15
-100000000000000000000.0
 25
-100000000000000000000.0
 35
-100000000000000000000.0
146
0.0
 13
0.0
 23
0.0
 33
0.0
 16
1.0
 26
0.0
 36
0.0
 17
0.0
 27
1.0
 37
0.0
 76
0
330
1B
  0
LAYOUT
  5
22
100
AcDbPlotSettings
  1

  2
C:\Program Files\AutoCAD 2002\plotters\DWF ePlot (optimized for plotting).pc3
  4

  6

 40
0.0
 41
0.0
 42
0.0
 43
0.0
 44
0.0
 45
0.0
 46
0.0
 47
0.0
 48
0.0
 49
0.0
140
0.0
141
0.0
142
1.0
143
1.0
 70
1712
 72
0
 73
0
 74
0
  7

 75
0
147
1.0
148
0.0
149
0.0
100
AcDbLayout
  1
Model
 70
1
 71
0
 10
0.0
 20
0.0
 11
12.0
 21
9.0
 12
0.0
 22
0.0
 32
0.0
 14
0.0
 24
0.0
 34
0.0
 15
0.0
 25
0.0
 35
0.0
146
0.0
 13
0.0
 23
0.0
 33
0.0
 16
1.0
 26
0.0
 36
0.0
 17
0.0
 27
1.0
 37
0.0
 76
0
330
1F
  0
LAYOUT
  5
26
100
AcDbPlotSettings
  1

  2
C:\Program Files\AutoCAD 2002\plotters\DWF ePlot (optimized for plotting).pc3
  4

  6

 40
0.0
 41
0.0
 42
0.0
 43
0.0
 44
0.0
 45
0.0
 46
0.0
 47
0.0
 48
0.0
 49
0.0
140
0.0
141
0.0
142
1.0
143
1.0
 70
688
 72
0
 73
0
 74
5
  7

 75
16
147
1.0
148
0.0
149
0.0
100
AcDbLayout
  1
Layout2
 70
1
 71
2
 10
0.0
 20
0.0
 11
12.0
 21
9.0
 12
0.0
 22
0.0
 32
0.0
 14
0.0
 24
0.0
 34
0.0
 15
0.0
 25
0.0
 35
0.0
146
0.0
 13
0.0
 23
0.0
 33
0.0
 16
1.0
 26
0.0
 36
0.0
 17
0.0
 27
1.0
 37
0.0
 76
0
330
23
  0
DICTIONARY
  5
C2
100
AcDbDictionary
281
1
  3
DIMASSOC
350
C4
  3
HIDETEXT
350
C3
  0
DICTIONARYVAR
  5
C3
100
DictionaryVariables
280
0
  1
2
  0
DICTIONARYVAR
  5
C4
100
DictionaryVariables
280
0
  1
1
  0
ENDSEC
  0
EOF
