999
dxflib 2.2.0.0
  0
SECTION
  2
HEADER
  9
$ACADVER
  1
AC1015
  9
$HANDSEED
  5
FFFF
  9
$DIMASZ
 40
2.5
  9
$PLIMMIN
 10
0.0
 20
0.0
  9
$DIMEXE
 40
1.25
  9
$DIMGAP
 40
0.625
  9
$PLIMMAX
 10
210.0
 20
297.0
  9
$INSUNITS
 70
4
  9
$DIMSTYLE
  2
Standard
  9
$MEASUREMENT
 70
1
  9
$DIMEXO
 40
0.625
  9
$DIMTXT
 40
2.5
  9
$CLAYER
  8
0
  0
ENDSEC
  0
SECTION
  2
TABLES
  0
TABLE
  2
VPORT
  5
8
100
AcDbSymbolTable
 70
1
  0
VPORT
  5
30
100
AcDbSymbolTableRecord
100
AcDbViewportTableRecord
  2
*Active
 70
0
 10
0.0
 20
0.0
 11
1.0
 21
1.0
 12
286.30555555555549
 22
148.5
 13
0.0
 23
0.0
 14
10.0
 24
10.0
 15
10.0
 25
10.0
 16
0.0
 26
0.0
 36
1.0
 17
0.0
 27
0.0
 37
0.0
 40
297.0
 41
1.92798353909465
 42
50.0
 43
0.0
 44
0.0
 50
0.0
 51
0.0
 71
0
 72
100
 73
1
 74
3
 75
1
 76
1
 77
0
 78
0
281
0
 65
1
110
0.0
120
0.0
130
0.0
111
1.0
121
0.0
131
0.0
112
0.0
122
1.0
132
0.0
 79
0
146
0.0
  0
ENDTAB
  0
TABLE
  2
LTYPE
  5
5
100
AcDbSymbolTable
 70
21
  0
LTYPE
  5
14
100
AcDbSymbolTableRecord
100
AcDbLinetypeTableRecord
  2
ByBlock
 70
0
  3

 72
65
 73
0
 40
0.0
  0
LTYPE
  5
15
100
AcDbSymbolTableRecord
100
AcDbLinetypeTableRecord
  2
ByLayer
 70
0
  3

 72
65
 73
0
 40
0.0
  0
LTYPE
  5
16
100
AcDbSymbolTableRecord
100
AcDbLinetypeTableRecord
  2
CONTINUOUS
 70
0
  3
Solid line
 72
65
 73
0
 40
0.0
  0
LTYPE
  5
31
100
AcDbSymbolTableRecord
100
AcDbLinetypeTableRecord
  2
DOT
 70
0
  3
Dot . . . . . . . . . . . . . . . . . . . . . .
 72
65
 73
2
 40
6.3499999999999996
 49
0.0
 74
0
 49
-6.3499999999999996
 74
0
  0
LTYPE
  5
32
100
AcDbSymbolTableRecord
100
AcDbLinetypeTableRecord
  2
DOT2
 70
0
  3
Dot (.5x) .....................................
 72
65
 73
2
 40
3.1749999999999998
 49
0.0
 74
0
 49
-3.1749999999999998
 74
0
  0
LTYPE
  5
33
100
AcDbSymbolTableRecord
100
AcDbLinetypeTableRecord
  2
DOTX2
 70
0
  3
Dot (2x) .  .  .  .  .  .  .  .  .  .  .  .  .
 72
65
 73
2
 40
12.699999999999999
 49
0.0
 74
0
 49
-12.699999999999999
 74
0
  0
LTYPE
  5
34
100
AcDbSymbolTableRecord
100
AcDbLinetypeTableRecord
  2
DASHED
 70
0
  3
Dashed __ __ __ __ __ __ __ __ __ __ __ __ __ _
 72
65
 73
2
 40
19.050000000000001
 49
12.699999999999999
 74
0
 49
-6.3499999999999996
 74
0
  0
LTYPE
  5
35
100
AcDbSymbolTableRecord
100
AcDbLinetypeTableRecord
  2
DASHED2
 70
0
  3
Dashed (.5x) _ _ _ _ _ _ _ _ _ _ _ _ _ _ _ _ _
 72
65
 73
2
 40
9.5250000000000004
 49
6.3499999999999996
 74
0
 49
-3.1749999999999998
 74
0
  0
LTYPE
  5
36
100
AcDbSymbolTableRecord
100
AcDbLinetypeTableRecord
  2
DASHEDX2
 70
0
  3
Dashed (2x) ____  ____  ____  ____  ____  ___
 72
65
 73
2
 40
38.100000000000001
 49
25.399999999999999
 74
0
 49
-12.699999999999999
 74
0
  0
LTYPE
  5
37
100
AcDbSymbolTableRecord
100
AcDbLinetypeTableRecord
  2
DASHDOT
 70
0
  3
Dash dot __ . __ . __ . __ . __ . __ . __ . __
 72
65
 73
4
 40
25.399999999999999
 49
12.699999999999999
 74
0
 49
-6.3499999999999996
 74
0
 49
0.0
 74
0
 49
-6.3499999999999996
 74
0
  0
LTYPE
  5
38
100
AcDbSymbolTableRecord
100
AcDbLinetypeTableRecord
  2
DASHDOT2
 70
0
  3
Dash dot (.5x) _._._._._._._._._._._._._._._.
 72
65
 73
4
 40
12.699999999999999
 49
6.3499999999999996
 74
0
 49
-3.1749999999999998
 74
0
 49
0.0
 74
0
 49
-3.1749999999999998
 74
0
  0
LTYPE
  5
39
100
AcDbSymbolTableRecord
100
AcDbLinetypeTableRecord
  2
DASHDOTX2
 70
0
  3
Dash dot (2x) ____  .  ____  .  ____  .  ___
 72
65
 73
4
 40
50.799999999999997
 49
25.399999999999999
 74
0
 49
-12.699999999999999
 74
0
 49
0.0
 74
0
 49
-12.699999999999999
 74
0
  0
LTYPE
  5
3A
100
AcDbSymbolTableRecord
100
AcDbLinetypeTableRecord
  2
DIVIDE
 70
0
  3
Divide ____ . . ____ . . ____ . . ____ . . ____
 72
65
 73
6
 40
31.75
 49
12.699999999999999
 74
0
 49
-6.3499999999999996
 74
0
 49
0.0
 74
0
 49
-6.3499999999999996
 74
0
 49
0.0
 74
0
 49
-6.3499999999999996
 74
0
  0
LTYPE
  5
3B
100
AcDbSymbolTableRecord
100
AcDbLinetypeTableRecord
  2
DIVIDE2
 70
0
  3
Divide (.5x) __..__..__..__..__..__..__..__.._
 72
65
 73
6
 40
15.875
 49
6.3499999999999996
 74
0
 49
-3.1749999999999998
 74
0
 49
0.0
 74
0
 49
-3.1749999999999998
 74
0
 49
0.0
 74
0
 49
-3.1749999999999998
 74
0
  0
LTYPE
  5
3C
100
AcDbSymbolTableRecord
100
AcDbLinetypeTableRecord
  2
DIVIDEX2
 70
0
  3
Divide (2x) ________  .  .  ________  .  .  _
 72
65
 73
6
 40
63.5
 49
25.399999999999999
 74
0
 49
-12.699999999999999
 74
0
 49
0.0
 74
0
 49
-12.699999999999999
 74
0
 49
0.0
 74
0
 49
-12.699999999999999
 74
0
  0
LTYPE
  5
3D
100
AcDbSymbolTableRecord
100
AcDbLinetypeTableRecord
  2
CENTER
 70
0
  3
Center ____ _ ____ _ ____ _ ____ _ ____ _ ____
 72
65
 73
4
 40
50.799999999999997
 49
31.75
 74
0
 49
-6.3499999999999996
 74
0
 49
6.3499999999999996
 74
0
 49
-6.3499999999999996
 74
0
  0
LTYPE
  5
3E
100
AcDbSymbolTableRecord
100
AcDbLinetypeTableRecord
  2
CENTER2
 70
0
  3
Center (.5x) ___ _ ___ _ ___ _ ___ _ ___ _ ___
 72
65
 73
4
 40
28.574999999999999
 49
19.050000000000001
 74
0
 49
-3.1749999999999998
 74
0
 49
3.1749999999999998
 74
0
 49
-3.1749999999999998
 74
0
  0
LTYPE
  5
3F
100
AcDbSymbolTableRecord
100
AcDbLinetypeTableRecord
  2
CENTERX2
 70
0
  3
Center (2x) ________  __  ________  __  _____
 72
65
 73
4
 40
101.59999999999999
 49
63.5
 74
0
 49
-12.699999999999999
 74
0
 49
12.699999999999999
 74
0
 49
-12.699999999999999
 74
0
  0
LTYPE
  5
40
100
AcDbSymbolTableRecord
100
AcDbLinetypeTableRecord
  2
BORDER
 70
0
  3
Border __ __ . __ __ . __ __ . __ __ . __ __ .
 72
65
 73
6
 40
44.450000000000003
 49
12.699999999999999
 74
0
 49
-6.3499999999999996
 74
0
 49
12.699999999999999
 74
0
 49
-6.3499999999999996
 74
0
 49
0.0
 74
0
 49
-6.3499999999999996
 74
0
  0
LTYPE
  5
41
100
AcDbSymbolTableRecord
100
AcDbLinetypeTableRecord
  2
BORDER2
 70
0
  3
Border (.5x) __.__.__.__.__.__.__.__.__.__.__.
 72
65
 73
6
 40
22.225000000000001
 49
6.3499999999999996
 74
0
 49
-3.1749999999999998
 74
0
 49
6.3499999999999996
 74
0
 49
-3.1749999999999998
 74
0
 49
0.0
 74
0
 49
-3.1749999999999998
 74
0
  0
LTYPE
  5
42
100
AcDbSymbolTableRecord
100
AcDbLinetypeTableRecord
  2
BORDERX2
 70
0
  3
Border (2x) ____  ____  .  ____  ____  .  ___
 72
65
 73
6
 40
88.900000000000006
 49
25.399999999999999
 74
0
 49
-12.699999999999999
 74
0
 49
25.399999999999999
 74
0
 49
-12.699999999999999
 74
0
 49
0.0
 74
0
 49
-12.699999999999999
 74
0
  0
ENDTAB
  0
TABLE
  2
LAYER
  5
2
100
AcDbSymbolTable
 70
2
  0
LAYER
  5
10
100
AcDbSymbolTableRecord
100
AcDbLayerTableRecord
  2
0
 70
0
 62
7
  6
CONTINUOUS
390
F
  0
LAYER
  5
43
100
AcDbSymbolTableRecord
100
AcDbLayerTableRecord
  2
Layer_1
 70
0
 62
7
  6
CONTINUOUS
390
F
  0
ENDTAB
  0
TABLE
  2
STYLE
  5
3
100
AcDbSymbolTable
 70
1
  0
STYLE
  5
11
100
AcDbSymbolTableRecord
100
AcDbTextStyleTableRecord
  2
Standard
 70
0
 40
0.0
 41
0.75
 50
0.0
 71
0
 42
2.5
  3
txt
  4

  0
ENDTAB
  0
TABLE
  2
VIEW
  5
6
100
AcDbSymbolTable
 70
0
  0
ENDTAB
  0
TABLE
  2
UCS
  5
7
100
AcDbSymbolTable
 70
0
  0
ENDTAB
  0
TABLE
  2
APPID
  5
9
100
AcDbSymbolTable
 70
1
  0
APPID
  5
12
100
AcDbSymbolTableRecord
100
AcDbRegAppTableRecord
  2
ACAD
 70
0
  0
ENDTAB
  0
TABLE
  2
DIMSTYLE
  5
A
100
AcDbSymbolTable
 70
1
100
AcDbDimStyleTable
 71
0
  0
DIMSTYLE
105
27
100
AcDbSymbolTableRecord
100
AcDbDimStyleTableRecord
  2
Standard
 41
2.5
 42
0.625
 43
3.75
 44
1.25
 70
0
 73
0
 74
0
 77
1
 78
8
140
2.5
141
2.5
143
0.03937007874016
147
0.625
171
3
172
1
271
2
272
2
274
3
278
44
283
0
284
8
340
11
  0
ENDTAB
  0
TABLE
  2
BLOCK_RECORD
  5
1
100
AcDbSymbolTable
 70
1
  0
BLOCK_RECORD
  5
1F
100
AcDbSymbolTableRecord
100
AcDbBlockTableRecord
  2
*Model_Space
340
22
  0
BLOCK_RECORD
  5
1B
100
AcDbSymbolTableRecord
100
AcDbBlockTableRecord
  2
*Paper_Space
340
1E
  0
BLOCK_RECORD
  5
23
100
AcDbSymbolTableRecord
100
AcDbBlockTableRecord
  2
*Paper_Space0
340
26
  0
ENDTAB
  0
ENDSEC
  0
SECTION
  2
BLOCKS
  0
BLOCK
  5
20
100
AcDbEntity
  8
0
100
AcDbBlockBegin
  2
*Model_Space
 70
0
 10
0.0
 20
0.0
 30
0.0
  3
*Model_Space
  1

  0
ENDBLK
  5
21
100
AcDbEntity
  8
0
100
AcDbBlockEnd
  0
BLOCK
  5
1C
100
AcDbEntity
 67
1
  8
0
100
AcDbBlockBegin
  2
*Paper_Space
 70
0
 10
0.0
 20
0.0
 30
0.0
  3
*Paper_Space
  1

  0
ENDBLK
  5
1D
100
AcDbEntity
 67
1
  8
0
100
AcDbBlockEnd
  0
BLOCK
  5
24
100
AcDbEntity
  8
0
100
AcDbBlockBegin
  2
*Paper_Space0
 70
0
 10
0.0
 20
0.0
 30
0.0
  3
*Paper_Space0
  1

  0
ENDBLK
  5
25
100
AcDbEntity
  8
0
100
AcDbBlockEnd
  0
ENDSEC
  0
SECTION
  2
ENTITIES
  0
SPLINE
  5
44
  8
Layer_1
 62
1
420
16711680
370
-1
  6
ByLayer
100
AcDbEntity
100
AcDbSpline
 70
8
 71
3
 72
8
 73
4
 74
0
 40
0.0
 40
0.0
 40
0.0
 40
0.0
 40
1.0
 40
1.0
 40
1.0
 40
1.0
 10
-15.29923680600001
 20
-25.504875553999995
 30
0.0
 10
-18.624897473999994
 20
-25.504875553999995
 30
0.0
 10
-21.319542834000003
 20
-22.809876566000014
 30
0.0
 10
-21.319542834000003
 20
-19.485630409999999
 30
0.0
  0
SPLINE
  5
45
  8
Layer_1
 62
1
420
16711680
370
-1
  6
ByLayer
100
AcDbEntity
100
AcDbSpline
 70
8
 71
3
 72
8
 73
4
 74
0
 40
0.0
 40
0.0
 40
0.0
 40
0.0
 40
1.0
 40
1.0
 40
1.0
 40
1.0
 10
-21.319542834000003
 20
211.25054514999999
 30
0.0
 10
-21.319542834000003
 20
214.57479005199997
 30
0.0
 10
-18.625251101999993
 20
217.26978903999998
 30
0.0
 10
-15.29923680600001
 20
217.26978903999998
 30
0.0
  0
LWPOLYLINE
  5
46
  8
Layer_1
 62
1
420
16711680
370
-1
  6
ByLayer
100
AcDbEntity
100
AcDbPolyline
 90
2
 70
0
 10
-21.319542834000003
 20
-19.485630409999999
 10
-21.319542834000003
 20
211.25054514999999
  0
SPLINE
  5
47
  8
Layer_1
 62
1
420
16711680
370
-1
  6
ByLayer
100
AcDbEntity
100
AcDbSpline
 70
8
 71
3
 72
8
 73
4
 74
0
 40
0.0
 40
0.0
 40
0.0
 40
0.0
 40
1.0
 40
1.0
 40
1.0
 40
1.0
 10
215.43764726399999
 20
217.26978903999998
 30
0.0
 10
218.76224579399997
 20
217.26978903999998
 30
0.0
 10
221.45759966399999
 20
214.57479005199997
 30
0.0
 10
221.45759966399999
 20
211.25054514999999
 30
0.0
  0
LWPOLYLINE
  5
48
  8
Layer_1
 62
1
420
16711680
370
-1
  6
ByLayer
100
AcDbEntity
100
AcDbPolyline
 90
2
 70
0
 10
-15.29923680600001
 20
217.26978903999998
 10
215.43764726399999
 20
217.26978903999998
  0
SPLINE
  5
49
  8
Layer_1
 62
1
420
16711680
370
-1
  6
ByLayer
100
AcDbEntity
100
AcDbSpline
 70
8
 71
3
 72
8
 73
4
 74
0
 40
0.0
 40
0.0
 40
0.0
 40
0.0
 40
1.0
 40
1.0
 40
1.0
 40
1.0
 10
221.45759966399999
 20
-19.485630409999999
 30
0.0
 10
221.45759966399999
 20
-22.809876566000014
 30
0.0
 10
218.76224579399997
 20
-25.504875553999995
 30
0.0
 10
215.43764726399999
 20
-25.504875553999995
 30
0.0
  0
LWPOLYLINE
  5
4A
  8
Layer_1
 62
1
420
16711680
370
-1
  6
ByLayer
100
AcDbEntity
100
AcDbPolyline
 90
2
 70
0
 10
221.45759966399999
 20
211.25054514999999
 10
221.45759966399999
 20
-19.485630409999999
  0
LWPOLYLINE
  5
4B
  8
Layer_1
 62
1
420
16711680
370
-1
  6
ByLayer
100
AcDbEntity
100
AcDbPolyline
 90
3
 70
0
 10
215.43764726399999
 20
-25.504875553999995
 10
-15.29923680600001
 20
-25.504875553999995
 10
-15.29923680600001
 20
-25.504875553999995
  0
LWPOLYLINE
  5
4C
  8
Layer_1
 62
5
420
255
370
-1
  6
ByLayer
100
AcDbEntity
100
AcDbPolyline
 90
2
 70
0
 10
90.037544436000005
 20
-18.334018255999993
 10
90.037544436000005
 20
-14.470772804000006
  0
LWPOLYLINE
  5
4D
  8
Layer_1
 62
5
420
255
370
-1
  6
ByLayer
100
AcDbEntity
100
AcDbPolyline
 90
2
 70
0
 10
80.005351319999988
 20
-14.470772804000006
 10
80.005351319999988
 20
-18.334018255999993
  0
LWPOLYLINE
  5
4E
  8
Layer_1
 62
5
420
255
370
-1
  6
ByLayer
100
AcDbEntity
100
AcDbPolyline
 90
2
 70
0
 10
80.005351319999988
 20
206.23497903399999
 10
80.005351319999988
 20
210.099286624
  0
LWPOLYLINE
  5
4F
  8
Layer_1
 62
5
420
255
370
-1
  6
ByLayer
100
AcDbEntity
100
AcDbPolyline
 90
2
 70
0
 10
69.973513085999997
 20
210.099286624
 10
69.973513085999997
 20
206.23497903399999
  0
LWPOLYLINE
  5
50
  8
Layer_1
 62
5
420
255
370
-1
  6
ByLayer
100
AcDbEntity
100
AcDbPolyline
 90
2
 70
0
 10
69.973513085999997
 20
-18.334018255999993
 10
69.973513085999997
 20
-14.470772804000006
  0
LWPOLYLINE
  5
51
  8
Layer_1
 62
5
420
255
370
-1
  6
ByLayer
100
AcDbEntity
100
AcDbPolyline
 90
2
 70
0
 10
59.941321223999992
 20
206.23497903399999
 10
59.941321223999992
 20
210.099286624
  0
LWPOLYLINE
  5
52
  8
Layer_1
 62
5
420
255
370
-1
  6
ByLayer
100
AcDbEntity
100
AcDbPolyline
 90
2
 70
0
 10
59.941321223999992
 20
-14.470772804000006
 10
59.941321223999992
 20
-18.334018255999993
  0
LWPOLYLINE
  5
53
  8
Layer_1
 62
5
420
255
370
-1
  6
ByLayer
100
AcDbEntity
100
AcDbPolyline
 90
2
 70
0
 10
49.908774480000005
 20
210.099286624
 10
49.908774480000005
 20
206.23497903399999
  0
LWPOLYLINE
  5
54
  8
Layer_1
 62
5
420
255
370
-1
  6
ByLayer
100
AcDbEntity
100
AcDbPolyline
 90
2
 70
0
 10
49.908774480000005
 20
-18.334018255999993
 10
49.908774480000005
 20
-14.470772804000006
  0
LWPOLYLINE
  5
55
  8
Layer_1
 62
5
420
255
370
-1
  6
ByLayer
100
AcDbEntity
100
AcDbPolyline
 90
2
 70
0
 10
39.877644755999995
 20
206.23497903399999
 10
39.877644755999995
 20
210.099286624
  0
LWPOLYLINE
  5
56
  8
Layer_1
 62
5
420
255
370
-1
  6
ByLayer
100
AcDbEntity
100
AcDbPolyline
 90
2
 70
0
 10
39.877644755999995
 20
-14.470772804000006
 10
39.877644755999995
 20
-18.334018255999993
  0
LWPOLYLINE
  5
57
  8
Layer_1
 62
5
420
255
370
-1
  6
ByLayer
100
AcDbEntity
100
AcDbPolyline
 90
2
 70
0
 10
29.842974990000002
 20
210.099286624
 10
29.842974990000002
 20
206.23497903399999
  0
LWPOLYLINE
  5
58
  8
Layer_1
 62
5
420
255
370
-1
  6
ByLayer
100
AcDbEntity
100
AcDbPolyline
 90
2
 70
0
 10
29.842974990000002
 20
-18.334018255999993
 10
29.842974990000002
 20
-14.470772804000006
  0
LWPOLYLINE
  5
59
  8
Layer_1
 62
5
420
255
370
-1
  6
ByLayer
100
AcDbEntity
100
AcDbPolyline
 90
2
 70
0
 10
19.810428246000001
 20
-14.470772804000006
 10
19.810428246000001
 20
-18.334018255999993
  0
LWPOLYLINE
  5
5A
  8
Layer_1
 62
5
420
255
370
-1
  6
ByLayer
100
AcDbEntity
100
AcDbPolyline
 90
2
 70
0
 10
19.810428246000001
 20
206.23497903399999
 10
19.810428246000001
 20
210.099286624
  0
LWPOLYLINE
  5
5B
  8
Layer_1
 62
5
420
255
370
-1
  6
ByLayer
100
AcDbEntity
100
AcDbPolyline
 90
2
 70
0
 10
9.778236383999996
 20
-18.334018255999993
 10
9.778236383999996
 20
-14.470772804000006
  0
LWPOLYLINE
  5
5C
  8
Layer_1
 62
5
420
255
370
-1
  6
ByLayer
100
AcDbEntity
100
AcDbPolyline
 90
2
 70
0
 10
9.778236383999996
 20
210.099286624
 10
9.778236383999996
 20
206.23497903399999
  0
LWPOLYLINE
  5
5D
  8
Layer_1
 62
5
420
255
370
-1
  6
ByLayer
100
AcDbEntity
100
AcDbPolyline
 90
2
 70
0
 10
-0.2536018500000097
 20
-14.470772804000006
 10
-0.2536018500000097
 20
-18.334018255999993
  0
LWPOLYLINE
  5
5E
  8
Layer_1
 62
5
420
255
370
-1
  6
ByLayer
100
AcDbEntity
100
AcDbPolyline
 90
2
 70
0
 10
-0.2536018500000097
 20
206.23497903399999
 10
-0.2536018500000097
 20
210.099286624
  0
LWPOLYLINE
  5
5F
  8
Layer_1
 62
5
420
255
370
-1
  6
ByLayer
100
AcDbEntity
100
AcDbPolyline
 90
2
 70
0
 10
-10.285440084000001
 20
-18.334018255999993
 10
-10.285440084000001
 20
210.099286624
  0
LWPOLYLINE
  5
60
  8
Layer_1
 62
5
420
255
370
-1
  6
ByLayer
100
AcDbEntity
100
AcDbPolyline
 90
2
 70
0
 10
214.49342413799997
 20
206.23497903399999
 10
-14.357490330000005
 20
206.23497903399999
  0
LWPOLYLINE
  5
61
  8
Layer_1
 62
5
420
255
370
-1
  6
ByLayer
100
AcDbEntity
100
AcDbPolyline
 90
2
 70
0
 10
214.49342413799997
 20
196.203494428
 10
210.42172751999999
 20
196.203494428
  0
LWPOLYLINE
  5
62
  8
Layer_1
 62
5
420
255
370
-1
  6
ByLayer
100
AcDbEntity
100
AcDbPolyline
 90
2
 70
0
 10
-14.357490330000005
 20
196.203494428
 10
-10.285440084000001
 20
196.203494428
  0
LWPOLYLINE
  5
63
  8
Layer_1
 62
5
420
255
370
-1
  6
ByLayer
100
AcDbEntity
100
AcDbPolyline
 90
2
 70
0
 10
-14.357490330000005
 20
186.17130256600001
 10
-10.285440084000001
 20
186.17130256600001
  0
LWPOLYLINE
  5
64
  8
Layer_1
 62
5
420
255
370
-1
  6
ByLayer
100
AcDbEntity
100
AcDbPolyline
 90
2
 70
0
 10
214.49342413799997
 20
186.17130256600001
 10
210.42172751999999
 20
186.17130256600001
  0
LWPOLYLINE
  5
65
  8
Layer_1
 62
5
420
255
370
-1
  6
ByLayer
100
AcDbEntity
100
AcDbPolyline
 90
2
 70
0
 10
214.49342413799997
 20
176.13946433200002
 10
210.42172751999999
 20
176.13946433200002
  0
LWPOLYLINE
  5
66
  8
Layer_1
 62
5
420
255
370
-1
  6
ByLayer
100
AcDbEntity
100
AcDbPolyline
 90
2
 70
0
 10
-14.357490330000005
 20
176.13946433200002
 10
-10.285440084000001
 20
176.13946433200002
  0
LWPOLYLINE
  5
67
  8
Layer_1
 62
5
420
255
370
-1
  6
ByLayer
100
AcDbEntity
100
AcDbPolyline
 90
2
 70
0
 10
-14.357490330000005
 20
166.10691758800002
 10
-10.285440084000001
 20
166.10691758800002
  0
LWPOLYLINE
  5
68
  8
Layer_1
 62
5
420
255
370
-1
  6
ByLayer
100
AcDbEntity
100
AcDbPolyline
 90
2
 70
0
 10
214.49342413799997
 20
166.10691758800002
 10
210.42172751999999
 20
166.10691758800002
  0
LWPOLYLINE
  5
69
  8
Layer_1
 62
5
420
255
370
-1
  6
ByLayer
100
AcDbEntity
100
AcDbPolyline
 90
2
 70
0
 10
214.49342413799997
 20
156.075079354
 10
210.42172751999999
 20
156.075079354
  0
LWPOLYLINE
  5
6A
  8
Layer_1
 62
5
420
255
370
-1
  6
ByLayer
100
AcDbEntity
100
AcDbPolyline
 90
2
 70
0
 10
-14.357490330000005
 20
156.075079354
 10
-10.285440084000001
 20
156.075079354
  0
LWPOLYLINE
  5
6B
  8
Layer_1
 62
5
420
255
370
-1
  6
ByLayer
100
AcDbEntity
100
AcDbPolyline
 90
2
 70
0
 10
214.49342413799997
 20
146.04253386400001
 10
210.42172751999999
 20
146.04253386400001
  0
LWPOLYLINE
  5
6C
  8
Layer_1
 62
5
420
255
370
-1
  6
ByLayer
100
AcDbEntity
100
AcDbPolyline
 90
2
 70
0
 10
-14.357490330000005
 20
146.04253386400001
 10
-10.285440084000001
 20
146.04253386400001
  0
LWPOLYLINE
  5
6D
  8
Layer_1
 62
5
420
255
370
-1
  6
ByLayer
100
AcDbEntity
100
AcDbPolyline
 90
2
 70
0
 10
-14.357490330000005
 20
136.01069562999999
 10
-10.285440084000001
 20
136.01069562999999
  0
LWPOLYLINE
  5
6E
  8
Layer_1
 62
5
420
255
370
-1
  6
ByLayer
100
AcDbEntity
100
AcDbPolyline
 90
2
 70
0
 10
214.49342413799997
 20
136.01069562999999
 10
210.42172751999999
 20
136.01069562999999
  0
LWPOLYLINE
  5
6F
  8
Layer_1
 62
5
420
255
370
-1
  6
ByLayer
100
AcDbEntity
100
AcDbPolyline
 90
2
 70
0
 10
-14.357490330000005
 20
125.978502514
 10
-10.285440084000001
 20
125.978502514
  0
LWPOLYLINE
  5
70
  8
Layer_1
 62
5
420
255
370
-1
  6
ByLayer
100
AcDbEntity
100
AcDbPolyline
 90
2
 70
0
 10
214.49342413799997
 20
125.978502514
 10
210.42172751999999
 20
125.978502514
  0
LWPOLYLINE
  5
71
  8
Layer_1
 62
5
420
255
370
-1
  6
ByLayer
100
AcDbEntity
100
AcDbPolyline
 90
2
 70
0
 10
214.49342413799997
 20
115.94666428000001
 10
210.42172751999999
 20
115.94666428000001
  0
LWPOLYLINE
  5
72
  8
Layer_1
 62
5
420
255
370
-1
  6
ByLayer
100
AcDbEntity
100
AcDbPolyline
 90
2
 70
0
 10
-14.357490330000005
 20
115.94666428000001
 10
-10.285440084000001
 20
115.94666428000001
  0
LWPOLYLINE
  5
73
  8
Layer_1
 62
5
420
255
370
-1
  6
ByLayer
100
AcDbEntity
100
AcDbPolyline
 90
2
 70
0
 10
-14.357490330000005
 20
105.914472418
 10
-10.285440084000001
 20
105.914472418
  0
LWPOLYLINE
  5
74
  8
Layer_1
 62
5
420
255
370
-1
  6
ByLayer
100
AcDbEntity
100
AcDbPolyline
 90
2
 70
0
 10
214.49342413799997
 20
105.914472418
 10
210.42172751999999
 20
105.914472418
  0
LWPOLYLINE
  5
75
  8
Layer_1
 62
5
420
255
370
-1
  6
ByLayer
100
AcDbEntity
100
AcDbPolyline
 90
2
 70
0
 10
-14.357490330000005
 20
95.882634184000011
 10
-10.285440084000001
 20
95.882634184000011
  0
LWPOLYLINE
  5
76
  8
Layer_1
 62
5
420
255
370
-1
  6
ByLayer
100
AcDbEntity
100
AcDbPolyline
 90
2
 70
0
 10
214.49342413799997
 20
95.882634184000011
 10
210.42172751999999
 20
95.882634184000011
  0
LWPOLYLINE
  5
77
  8
Layer_1
 62
5
420
255
370
-1
  6
ByLayer
100
AcDbEntity
100
AcDbPolyline
 90
2
 70
0
 10
-14.357490330000005
 20
85.849733811999997
 10
-10.285440084000001
 20
85.849733811999997
  0
LWPOLYLINE
  5
78
  8
Layer_1
 62
5
420
255
370
-1
  6
ByLayer
100
AcDbEntity
100
AcDbPolyline
 90
2
 70
0
 10
214.49342413799997
 20
85.849733811999997
 10
210.42172751999999
 20
85.849733811999997
  0
LWPOLYLINE
  5
79
  8
Layer_1
 62
5
420
255
370
-1
  6
ByLayer
100
AcDbEntity
100
AcDbPolyline
 90
2
 70
0
 10
214.49342413799997
 20
75.818249206000004
 10
210.42172751999999
 20
75.818249206000004
  0
LWPOLYLINE
  5
7A
  8
Layer_1
 62
5
420
255
370
-1
  6
ByLayer
100
AcDbEntity
100
AcDbPolyline
 90
2
 70
0
 10
-14.357490330000005
 20
75.818249206000004
 10
-10.285440084000001
 20
75.818249206000004
  0
LWPOLYLINE
  5
7B
  8
Layer_1
 62
5
420
255
370
-1
  6
ByLayer
100
AcDbEntity
100
AcDbPolyline
 90
2
 70
0
 10
-14.357490330000005
 20
65.785703716
 10
-10.285440084000001
 20
65.785703716
  0
LWPOLYLINE
  5
7C
  8
Layer_1
 62
5
420
255
370
-1
  6
ByLayer
100
AcDbEntity
100
AcDbPolyline
 90
2
 70
0
 10
214.49342413799997
 20
65.785703716
 10
210.42172751999999
 20
65.785703716
  0
LWPOLYLINE
  5
7D
  8
Layer_1
 62
5
420
255
370
-1
  6
ByLayer
100
AcDbEntity
100
AcDbPolyline
 90
2
 70
0
 10
-14.357490330000005
 20
55.753864227999991
 10
-10.285440084000001
 20
55.753864227999991
  0
LWPOLYLINE
  5
7E
  8
Layer_1
 62
5
420
255
370
-1
  6
ByLayer
100
AcDbEntity
100
AcDbPolyline
 90
2
 70
0
 10
214.49342413799997
 20
55.753864227999991
 10
210.42172751999999
 20
55.753864227999991
  0
LWPOLYLINE
  5
7F
  8
Layer_1
 62
5
420
255
370
-1
  6
ByLayer
100
AcDbEntity
100
AcDbPolyline
 90
2
 70
0
 10
214.49342413799997
 20
45.721672366000007
 10
210.42172751999999
 20
45.721672366000007
  0
LWPOLYLINE
  5
80
  8
Layer_1
 62
5
420
255
370
-1
  6
ByLayer
100
AcDbEntity
100
AcDbPolyline
 90
2
 70
0
 10
-14.357490330000005
 20
45.721672366000007
 10
-10.285440084000001
 20
45.721672366000007
  0
LWPOLYLINE
  5
81
  8
Layer_1
 62
5
420
255
370
-1
  6
ByLayer
100
AcDbEntity
100
AcDbPolyline
 90
2
 70
0
 10
-14.357490330000005
 20
35.689834132000001
 10
-10.285440084000001
 20
35.689834132000001
  0
LWPOLYLINE
  5
82
  8
Layer_1
 62
5
420
255
370
-1
  6
ByLayer
100
AcDbEntity
100
AcDbPolyline
 90
2
 70
0
 10
214.49342413799997
 20
35.689834132000001
 10
210.42172751999999
 20
35.689834132000001
  0
LWPOLYLINE
  5
83
  8
Layer_1
 62
5
420
255
370
-1
  6
ByLayer
100
AcDbEntity
100
AcDbPolyline
 90
2
 70
0
 10
-14.357490330000005
 20
25.657287387999986
 10
-10.285440084000001
 20
25.657287387999986
  0
LWPOLYLINE
  5
84
  8
Layer_1
 62
5
420
255
370
-1
  6
ByLayer
100
AcDbEntity
100
AcDbPolyline
 90
2
 70
0
 10
214.49342413799997
 20
25.657287387999986
 10
210.42172751999999
 20
25.657287387999986
  0
LWPOLYLINE
  5
85
  8
Layer_1
 62
5
420
255
370
-1
  6
ByLayer
100
AcDbEntity
100
AcDbPolyline
 90
2
 70
0
 10
214.49342413799997
 20
15.625449154000009
 10
210.42172751999999
 20
15.625449154000009
  0
LWPOLYLINE
  5
86
  8
Layer_1
 62
5
420
255
370
-1
  6
ByLayer
100
AcDbEntity
100
AcDbPolyline
 90
2
 70
0
 10
-14.357490330000005
 20
15.625449154000009
 10
-10.285440084000001
 20
15.625449154000009
  0
LWPOLYLINE
  5
87
  8
Layer_1
 62
5
420
255
370
-1
  6
ByLayer
100
AcDbEntity
100
AcDbPolyline
 90
2
 70
0
 10
-14.357490330000005
 20
5.5932572919999899
 10
-10.285440084000001
 20
5.5932572919999899
  0
LWPOLYLINE
  5
88
  8
Layer_1
 62
5
420
255
370
-1
  6
ByLayer
100
AcDbEntity
100
AcDbPolyline
 90
2
 70
0
 10
214.49342413799997
 20
5.5932572919999899
 10
210.42172751999999
 20
5.5932572919999899
  0
LWPOLYLINE
  5
89
  8
Layer_1
 62
5
420
255
370
-1
  6
ByLayer
100
AcDbEntity
100
AcDbPolyline
 90
2
 70
0
 10
-14.357490330000005
 20
-4.4382273139999882
 10
-10.285440084000001
 20
-4.4382273139999882
  0
LWPOLYLINE
  5
8A
  8
Layer_1
 62
5
420
255
370
-1
  6
ByLayer
100
AcDbEntity
100
AcDbPolyline
 90
2
 70
0
 10
214.49342413799997
 20
-4.4382273139999882
 10
210.42172751999999
 20
-4.4382273139999882
  0
SPLINE
  5
8B
  8
Layer_1
 62
5
420
255
370
-1
  6
ByLayer
100
AcDbEntity
100
AcDbSpline
 70
8
 71
3
 72
8
 73
4
 74
0
 40
0.0
 40
0.0
 40
0.0
 40
0.0
 40
1.0
 40
1.0
 40
1.0
 40
1.0
 10
179.93302237199998
 20
-22.02526506800001
 30
0.0
 10
179.93302237199998
 20
-21.767620735999998
 30
0.0
 10
179.77730315999997
 20
-21.585712987999983
 30
0.0
 10
179.53523100000001
 20
-21.585712987999983
 30
0.0
  0
SPLINE
  5
8C
  8
Layer_1
 62
5
420
255
370
-1
  6
ByLayer
100
AcDbEntity
100
AcDbSpline
 70
8
 71
3
 72
8
 73
4
 74
0
 40
0.0
 40
0.0
 40
0.0
 40
0.0
 40
1.0
 40
1.0
 40
1.0
 40
1.0
 10
179.53523100000001
 20
-21.585712987999983
 30
0.0
 10
179.34730655999999
 20
-21.585712987999983
 30
0.0
 10
179.20008194399998
 20
-21.678436255999998
 30
0.0
 10
179.12753051999999
 20
-21.802657495999995
 30
0.0
  0
SPLINE
  5
8D
  8
Layer_1
 62
5
420
255
370
-1
  6
ByLayer
100
AcDbEntity
100
AcDbSpline
 70
8
 71
3
 72
8
 73
4
 74
0
 40
0.0
 40
0.0
 40
0.0
 40
0.0
 40
1.0
 40
1.0
 40
1.0
 40
1.0
 10
179.12753051999999
 20
-21.802657495999995
 30
0.0
 10
179.110897464
 20
-21.83132393599999
 30
0.0
 10
179.10134198399999
 20
-21.859990375999985
 30
0.0
 10
179.10134198399999
 20
-21.907767775999986
 30
0.0
  0
SPLINE
  5
8E
  8
Layer_1
 62
5
420
255
370
-1
  6
ByLayer
100
AcDbEntity
100
AcDbSpline
 70
8
 71
3
 72
8
 73
4
 74
0
 40
0.0
 40
0.0
 40
0.0
 40
0.0
 40
1.0
 40
1.0
 40
1.0
 40
1.0
 10
179.10134198399999
 20
-21.907767775999986
 30
0.0
 10
179.10134198399999
 20
-22.260966908
 30
0.0
 10
179.23228717200001
 20
-22.531705507999988
 30
0.0
 10
179.52815342400001
 20
-22.531705507999988
 30
0.0
  0
SPLINE
  5
8F
  8
Layer_1
 62
5
420
255
370
-1
  6
ByLayer
100
AcDbEntity
100
AcDbSpline
 70
8
 71
3
 72
8
 73
4
 74
0
 40
0.0
 40
0.0
 40
0.0
 40
0.0
 40
1.0
 40
1.0
 40
1.0
 40
1.0
 10
179.52815342400001
 20
-22.531705507999988
 30
0.0
 10
179.76456252000003
 20
-22.531705507999988
 30
0.0
 10
179.93302237199998
 20
-22.321838576000005
 30
0.0
 10
179.93302237199998
 20
-22.02526506800001
 30
0.0
  0
LWPOLYLINE
  5
90
  8
Layer_1
 62
5
420
255
370
-1
  6
ByLayer
100
AcDbEntity
100
AcDbPolyline
 90
2
 70
0
 10
-14.357490330000005
 20
-14.470772804000006
 10
214.49342413799997
 20
-14.470772804000006
  0
SPLINE
  5
91
  8
Layer_1
 62
5
420
255
370
-1
  6
ByLayer
100
AcDbEntity
100
AcDbSpline
 70
8
 71
3
 72
8
 73
4
 74
0
 40
0.0
 40
0.0
 40
0.0
 40
0.0
 40
1.0
 40
1.0
 40
1.0
 40
1.0
 10
169.848452184
 20
-22.213543135999998
 30
0.0
 10
169.85199097200001
 20
-22.006861364000002
 30
0.0
 10
169.69202571599999
 20
-21.894673508000011
 30
0.0
 10
169.45243020599997
 20
-21.83132393599999
 30
0.0
  0
SPLINE
  5
92
  8
Layer_1
 62
5
420
255
370
-1
  6
ByLayer
100
AcDbEntity
100
AcDbSpline
 70
8
 71
3
 72
8
 73
4
 74
0
 40
0.0
 40
0.0
 40
0.0
 40
0.0
 40
1.0
 40
1.0
 40
1.0
 40
1.0
 10
169.45243020599997
 20
-21.83132393599999
 30
0.0
 10
169.27476975600001
 20
-21.891841975999995
 30
0.0
 10
169.137452994
 20
-22.019248375999979
 30
0.0
 10
169.137452994
 20
-22.207172815999996
 30
0.0
  0
SPLINE
  5
93
  8
Layer_1
 62
5
420
255
370
-1
  6
ByLayer
100
AcDbEntity
100
AcDbSpline
 70
8
 71
3
 72
8
 73
4
 74
0
 40
0.0
 40
0.0
 40
0.0
 40
0.0
 40
1.0
 40
1.0
 40
1.0
 40
1.0
 10
169.137452994
 20
-22.207172815999996
 30
0.0
 10
169.137452994
 20
-22.373154763999992
 30
0.0
 10
169.23583932599999
 20
-22.545153404000018
 30
0.0
 10
169.48782059399997
 20
-22.545153404000018
 30
0.0
  0
SPLINE
  5
94
  8
Layer_1
 62
5
420
255
370
-1
  6
ByLayer
100
AcDbEntity
100
AcDbSpline
 70
8
 71
3
 72
8
 73
4
 74
0
 40
0.0
 40
0.0
 40
0.0
 40
0.0
 40
1.0
 40
1.0
 40
1.0
 40
1.0
 10
169.48782059399997
 20
-22.545153404000018
 30
0.0
 10
169.72033727400003
 20
-22.544799775999991
 30
0.0
 10
169.848452184
 20
-22.391912095999999
 30
0.0
 10
169.848452184
 20
-22.213543135999998
 30
0.0
  0
LWPOLYLINE
  5
95
  8
Layer_1
 62
5
420
255
370
-1
  6
ByLayer
100
AcDbEntity
100
AcDbPolyline
 90
2
 70
0
 10
179.93302237199998
 20
-22.02526506800001
 10
179.93302237199998
 20
-22.02526506800001
  0
SPLINE
  5
96
  8
Layer_1
 62
5
420
255
370
-1
  6
ByLayer
100
AcDbEntity
100
AcDbSpline
 70
8
 71
3
 72
8
 73
4
 74
0
 40
0.0
 40
0.0
 40
0.0
 40
0.0
 40
1.0
 40
1.0
 40
1.0
 40
1.0
 10
80.431101876
 20
-22.02526506800001
 30
0.0
 10
80.431101876
 20
-21.767620735999998
 30
0.0
 10
80.275382664000006
 20
-21.585712987999983
 30
0.0
 10
80.033310503999999
 20
-21.585712987999983
 30
0.0
  0
SPLINE
  5
97
  8
Layer_1
 62
5
420
255
370
-1
  6
ByLayer
100
AcDbEntity
100
AcDbSpline
 70
8
 71
3
 72
8
 73
4
 74
0
 40
0.0
 40
0.0
 40
0.0
 40
0.0
 40
1.0
 40
1.0
 40
1.0
 40
1.0
 10
80.033310503999999
 20
-21.585712987999983
 30
0.0
 10
79.844677554
 20
-21.585712987999983
 30
0.0
 10
79.698515076000007
 20
-21.678436255999998
 30
0.0
 10
79.625256395999997
 20
-21.802657495999995
 30
0.0
  0
SPLINE
  5
98
  8
Layer_1
 62
5
420
255
370
-1
  6
ByLayer
100
AcDbEntity
100
AcDbSpline
 70
8
 71
3
 72
8
 73
4
 74
0
 40
0.0
 40
0.0
 40
0.0
 40
0.0
 40
1.0
 40
1.0
 40
1.0
 40
1.0
 10
79.625256395999997
 20
-21.802657495999995
 30
0.0
 10
79.608975713999996
 20
-21.83132393599999
 30
0.0
 10
79.599775115999989
 20
-21.859990375999985
 30
0.0
 10
79.599775115999989
 20
-21.907767775999986
 30
0.0
  0
SPLINE
  5
99
  8
Layer_1
 62
5
420
255
370
-1
  6
ByLayer
100
AcDbEntity
100
AcDbSpline
 70
8
 71
3
 72
8
 73
4
 74
0
 40
0.0
 40
0.0
 40
0.0
 40
0.0
 40
1.0
 40
1.0
 40
1.0
 40
1.0
 10
79.599775115999989
 20
-21.907767775999986
 30
0.0
 10
79.599775115999989
 20
-22.260966908
 30
0.0
 10
79.730366675999989
 20
-22.531705507999988
 30
0.0
 10
80.026940183999997
 20
-22.531705507999988
 30
0.0
  0
SPLINE
  5
9A
  8
Layer_1
 62
5
420
255
370
-1
  6
ByLayer
100
AcDbEntity
100
AcDbSpline
 70
8
 71
3
 72
8
 73
4
 74
0
 40
0.0
 40
0.0
 40
0.0
 40
0.0
 40
1.0
 40
1.0
 40
1.0
 40
1.0
 10
80.026940183999997
 20
-22.531705507999988
 30
0.0
 10
80.262642024000002
 20
-22.531705507999988
 30
0.0
 10
80.431101876
 20
-22.321838576000005
 30
0.0
 10
80.431101876
 20
-22.02526506800001
 30
0.0
  0
LWPOLYLINE
  5
9B
  8
Layer_1
 62
5
420
255
370
-1
  6
ByLayer
100
AcDbEntity
100
AcDbPolyline
 90
2
 70
0
 10
169.848452184
 20
-22.213543135999998
 10
169.848452184
 20
-22.213543135999998
  0
SPLINE
  5
9C
  8
Layer_1
 62
5
420
255
370
-1
  6
ByLayer
100
AcDbEntity
100
AcDbSpline
 70
8
 71
3
 72
8
 73
4
 74
0
 40
0.0
 40
0.0
 40
0.0
 40
0.0
 40
1.0
 40
1.0
 40
1.0
 40
1.0
 10
70.344761039999995
 20
-22.213543135999998
 30
0.0
 10
70.348299827999995
 20
-22.006861364000002
 30
0.0
 10
70.189041828000001
 20
-21.894673508000011
 30
0.0
 10
69.949447571999997
 20
-21.83132393599999
 30
0.0
  0
SPLINE
  5
9D
  8
Layer_1
 62
5
420
255
370
-1
  6
ByLayer
100
AcDbEntity
100
AcDbSpline
 70
8
 71
3
 72
8
 73
4
 74
0
 40
0.0
 40
0.0
 40
0.0
 40
0.0
 40
1.0
 40
1.0
 40
1.0
 40
1.0
 10
69.949447571999997
 20
-21.83132393599999
 30
0.0
 10
69.771432239999996
 20
-21.891841975999995
 30
0.0
 10
69.634470360000009
 20
-22.019248375999979
 30
0.0
 10
69.634470360000009
 20
-22.207172815999996
 30
0.0
  0
SPLINE
  5
9E
  8
Layer_1
 62
5
420
255
370
-1
  6
ByLayer
100
AcDbEntity
100
AcDbSpline
 70
8
 71
3
 72
8
 73
4
 74
0
 40
0.0
 40
0.0
 40
0.0
 40
0.0
 40
1.0
 40
1.0
 40
1.0
 40
1.0
 10
69.634470360000009
 20
-22.207172815999996
 30
0.0
 10
69.634470360000009
 20
-22.373154763999992
 30
0.0
 10
69.732856691999999
 20
-22.545153404000018
 30
0.0
 10
69.984484331999994
 20
-22.545153404000018
 30
0.0
  0
SPLINE
  5
9F
  8
Layer_1
 62
5
420
255
370
-1
  6
ByLayer
100
AcDbEntity
100
AcDbSpline
 70
8
 71
3
 72
8
 73
4
 74
0
 40
0.0
 40
0.0
 40
0.0
 40
0.0
 40
1.0
 40
1.0
 40
1.0
 40
1.0
 10
69.984484331999994
 20
-22.545153404000018
 30
0.0
 10
70.217001011999997
 20
-22.544799775999991
 30
0.0
 10
70.344761039999995
 20
-22.391912095999999
 30
0.0
 10
70.344761039999995
 20
-22.213543135999998
 30
0.0
  0
LWPOLYLINE
  5
A0
  8
Layer_1
 62
5
420
255
370
-1
  6
ByLayer
100
AcDbEntity
100
AcDbPolyline
 90
2
 70
0
 10
80.431101876
 20
-22.02526506800001
 10
80.431101876
 20
-22.02526506800001
  0
LWPOLYLINE
  5
A1
  8
Layer_1
 62
5
420
255
370
-1
  6
ByLayer
100
AcDbEntity
100
AcDbPolyline
 90
2
 70
0
 10
70.344761039999995
 20
-22.213543135999998
 10
70.344761039999995
 20
-22.213543135999998
  0
LWPOLYLINE
  5
A2
  8
Layer_1
 62
5
420
255
370
-1
  6
ByLayer
100
AcDbEntity
100
AcDbPolyline
 90
2
 70
0
 10
210.42172751999999
 20
-18.334018255999993
 10
210.42172751999999
 20
210.099286624
  0
LWPOLYLINE
  5
A3
  8
Layer_1
 62
5
420
255
370
-1
  6
ByLayer
100
AcDbEntity
100
AcDbPolyline
 90
2
 70
0
 10
200.390242914
 20
206.23497903399999
 10
200.390242914
 20
210.099286624
  0
LWPOLYLINE
  5
A4
  8
Layer_1
 62
5
420
255
370
-1
  6
ByLayer
100
AcDbEntity
100
AcDbPolyline
 90
2
 70
0
 10
200.390242914
 20
-14.470772804000006
 10
200.390242914
 20
-18.334018255999993
  0
LWPOLYLINE
  5
A5
  8
Layer_1
 62
5
420
255
370
-1
  6
ByLayer
100
AcDbEntity
100
AcDbPolyline
 90
2
 70
0
 10
190.35805105200001
 20
210.099286624
 10
190.35805105200001
 20
206.23497903399999
  0
LWPOLYLINE
  5
A6
  8
Layer_1
 62
5
420
255
370
-1
  6
ByLayer
100
AcDbEntity
100
AcDbPolyline
 90
2
 70
0
 10
190.35805105200001
 20
-18.334018255999993
 10
190.35805105200001
 20
-14.470772804000006
  0
LWPOLYLINE
  5
A7
  8
Layer_1
 62
5
420
255
370
-1
  6
ByLayer
100
AcDbEntity
100
AcDbPolyline
 90
2
 70
0
 10
180.32621281799999
 20
-14.470772804000006
 10
180.32621281799999
 20
-18.334018255999993
  0
LWPOLYLINE
  5
A8
  8
Layer_1
 62
5
420
255
370
-1
  6
ByLayer
100
AcDbEntity
100
AcDbPolyline
 90
2
 70
0
 10
180.32621281799999
 20
206.23497903399999
 10
180.32621281799999
 20
210.099286624
  0
LWPOLYLINE
  5
A9
  8
Layer_1
 62
5
420
255
370
-1
  6
ByLayer
100
AcDbEntity
100
AcDbPolyline
 90
2
 70
0
 10
170.29331244599999
 20
210.099286624
 10
170.29331244599999
 20
206.23497903399999
  0
LWPOLYLINE
  5
AA
  8
Layer_1
 62
5
420
255
370
-1
  6
ByLayer
100
AcDbEntity
100
AcDbPolyline
 90
2
 70
0
 10
170.29331244599999
 20
-18.334018255999993
 10
170.29331244599999
 20
-14.470772804000006
  0
LWPOLYLINE
  5
AB
  8
Layer_1
 62
5
420
255
370
-1
  6
ByLayer
100
AcDbEntity
100
AcDbPolyline
 90
2
 70
0
 10
160.26218146799999
 20
-14.470772804000006
 10
160.26218146799999
 20
-18.334018255999993
  0
LWPOLYLINE
  5
AC
  8
Layer_1
 62
5
420
255
370
-1
  6
ByLayer
100
AcDbEntity
100
AcDbPolyline
 90
2
 70
0
 10
160.26218146799999
 20
206.23497903399999
 10
160.26218146799999
 20
210.099286624
  0
LWPOLYLINE
  5
AD
  8
Layer_1
 62
5
420
255
370
-1
  6
ByLayer
100
AcDbEntity
100
AcDbPolyline
 90
2
 70
0
 10
150.22963597799998
 20
-18.334018255999993
 10
150.22963597799998
 20
-14.470772804000006
  0
LWPOLYLINE
  5
AE
  8
Layer_1
 62
5
420
255
370
-1
  6
ByLayer
100
AcDbEntity
100
AcDbPolyline
 90
2
 70
0
 10
150.22963597799998
 20
210.099286624
 10
150.22963597799998
 20
206.23497903399999
  0
LWPOLYLINE
  5
AF
  8
Layer_1
 62
5
420
255
370
-1
  6
ByLayer
100
AcDbEntity
100
AcDbPolyline
 90
2
 70
0
 10
140.19815137199998
 20
-14.470772804000006
 10
140.19815137199998
 20
-18.334018255999993
  0
LWPOLYLINE
  5
B0
  8
Layer_1
 62
5
420
255
370
-1
  6
ByLayer
100
AcDbEntity
100
AcDbPolyline
 90
2
 70
0
 10
140.19815137199998
 20
206.23497903399999
 10
140.19815137199998
 20
210.099286624
  0
LWPOLYLINE
  5
B1
  8
Layer_1
 62
5
420
255
370
-1
  6
ByLayer
100
AcDbEntity
100
AcDbPolyline
 90
2
 70
0
 10
130.16560462799998
 20
210.099286624
 10
130.16560462799998
 20
206.23497903399999
  0
LWPOLYLINE
  5
B2
  8
Layer_1
 62
5
420
255
370
-1
  6
ByLayer
100
AcDbEntity
100
AcDbPolyline
 90
2
 70
0
 10
130.16560462799998
 20
-18.334018255999993
 10
130.16560462799998
 20
-14.470772804000006
  0
LWPOLYLINE
  5
B3
  8
Layer_1
 62
5
420
255
370
-1
  6
ByLayer
100
AcDbEntity
100
AcDbPolyline
 90
2
 70
0
 10
120.13376639399999
 20
-14.470772804000006
 10
120.13376639399999
 20
-18.334018255999993
  0
LWPOLYLINE
  5
B4
  8
Layer_1
 62
5
420
255
370
-1
  6
ByLayer
100
AcDbEntity
100
AcDbPolyline
 90
2
 70
0
 10
120.13376639399999
 20
206.23497903399999
 10
120.13376639399999
 20
210.099286624
  0
LWPOLYLINE
  5
B5
  8
Layer_1
 62
5
420
255
370
-1
  6
ByLayer
100
AcDbEntity
100
AcDbPolyline
 90
2
 70
0
 10
110.101220904
 20
210.099286624
 10
110.101220904
 20
206.23497903399999
  0
LWPOLYLINE
  5
B6
  8
Layer_1
 62
5
420
255
370
-1
  6
ByLayer
100
AcDbEntity
100
AcDbPolyline
 90
2
 70
0
 10
110.101220904
 20
-18.334018255999993
 10
110.101220904
 20
-14.470772804000006
  0
LWPOLYLINE
  5
B7
  8
Layer_1
 62
5
420
255
370
-1
  6
ByLayer
100
AcDbEntity
100
AcDbPolyline
 90
2
 70
0
 10
100.07008992599999
 20
-14.470772804000006
 10
100.07008992599999
 20
-18.334018255999993
  0
LWPOLYLINE
  5
B8
  8
Layer_1
 62
5
420
255
370
-1
  6
ByLayer
100
AcDbEntity
100
AcDbPolyline
 90
2
 70
0
 10
100.07008992599999
 20
206.23497903399999
 10
100.07008992599999
 20
210.099286624
  0
SPLINE
  5
B9
  8
Layer_1
 62
1
420
16711680
370
-1
  6
ByLayer
100
AcDbEntity
100
AcDbSpline
 70
8
 71
3
 72
8
 73
4
 74
0
 40
0.0
 40
0.0
 40
0.0
 40
0.0
 40
1.0
 40
1.0
 40
1.0
 40
1.0
 10
89.206217675999994
 20
86.039781273999992
 30
0.0
 10
89.760080633999991
 20
86.039781273999992
 30
0.0
 10
90.209543075999989
 20
85.590673714000005
 30
0.0
 10
90.209543075999989
 20
85.037164384000008
 30
0.0
  0
SPLINE
  5
BA
  8
Layer_1
 62
1
420
16711680
370
-1
  6
ByLayer
100
AcDbEntity
100
AcDbSpline
 70
8
 71
3
 72
8
 73
4
 74
0
 40
0.0
 40
0.0
 40
0.0
 40
0.0
 40
1.0
 40
1.0
 40
1.0
 40
1.0
 10
90.209543075999989
 20
85.037164384000008
 30
0.0
 10
90.209543075999989
 20
84.482592915999987
 30
0.0
 10
89.760080633999991
 20
84.033485356
 30
0.0
 10
89.206217675999994
 20
84.033485356
 30
0.0
  0
SPLINE
  5
BB
  8
Layer_1
 62
1
420
16711680
370
-1
  6
ByLayer
100
AcDbEntity
100
AcDbSpline
 70
8
 71
3
 72
8
 73
4
 74
0
 40
0.0
 40
0.0
 40
0.0
 40
0.0
 40
1.0
 40
1.0
 40
1.0
 40
1.0
 10
89.206217675999994
 20
84.033485356
 30
0.0
 10
88.652353464000001
 20
84.033485356
 30
0.0
 10
88.202892276
 20
84.482946544000015
 30
0.0
 10
88.202892276
 20
85.037164384000008
 30
0.0
  0
SPLINE
  5
BC
  8
Layer_1
 62
1
420
16711680
370
-1
  6
ByLayer
100
AcDbEntity
100
AcDbSpline
 70
8
 71
3
 72
8
 73
4
 74
0
 40
0.0
 40
0.0
 40
0.0
 40
0.0
 40
1.0
 40
1.0
 40
1.0
 40
1.0
 10
88.202892276
 20
85.037164384000008
 30
0.0
 10
88.202892276
 20
85.590673714000005
 30
0.0
 10
88.652353464000001
 20
86.039781273999992
 30
0.0
 10
89.206217675999994
 20
86.039781273999992
 30
0.0
  0
LWPOLYLINE
  5
BD
  8
Layer_1
 62
5
420
255
370
-1
  6
ByLayer
100
AcDbEntity
100
AcDbPolyline
 90
2
 70
0
 10
90.037544436000005
 20
210.099286624
 10
90.037544436000005
 20
206.23497903399999
  0
SPLINE
  5
BE
  8
Layer_1
 62
1
420
16711680
370
-1
  6
ByLayer
100
AcDbEntity
100
AcDbSpline
 70
8
 71
3
 72
8
 73
4
 74
0
 40
0.0
 40
0.0
 40
0.0
 40
0.0
 40
1.0
 40
1.0
 40
1.0
 40
1.0
 10
110.93431705799999
 20
107.76681977200001
 30
0.0
 10
111.48853489800001
 20
107.76681977200001
 30
0.0
 10
111.937996086
 20
107.31806584
 30
0.0
 10
111.937996086
 20
106.763848
 30
0.0
  0
SPLINE
  5
BF
  8
Layer_1
 62
1
420
16711680
370
-1
  6
ByLayer
100
AcDbEntity
100
AcDbSpline
 70
8
 71
3
 72
8
 73
4
 74
0
 40
0.0
 40
0.0
 40
0.0
 40
0.0
 40
1.0
 40
1.0
 40
1.0
 40
1.0
 10
111.937996086
 20
106.763848
 30
0.0
 10
111.937996086
 20
106.209276532
 30
0.0
 10
111.48853489800001
 20
105.76087622799999
 30
0.0
 10
110.93431705799999
 20
105.76087622799999
 30
0.0
  0
SPLINE
  5
C0
  8
Layer_1
 62
1
420
16711680
370
-1
  6
ByLayer
100
AcDbEntity
100
AcDbSpline
 70
8
 71
3
 72
8
 73
4
 74
0
 40
0.0
 40
0.0
 40
0.0
 40
0.0
 40
1.0
 40
1.0
 40
1.0
 40
1.0
 10
110.93431705799999
 20
105.76087622799999
 30
0.0
 10
110.380452846
 20
105.76087622799999
 30
0.0
 10
109.930991658
 20
106.209276532
 30
0.0
 10
109.930991658
 20
106.763848
 30
0.0
  0
SPLINE
  5
C1
  8
Layer_1
 62
1
420
16711680
370
-1
  6
ByLayer
100
AcDbEntity
100
AcDbSpline
 70
8
 71
3
 72
8
 73
4
 74
0
 40
0.0
 40
0.0
 40
0.0
 40
0.0
 40
1.0
 40
1.0
 40
1.0
 40
1.0
 10
109.930991658
 20
106.763848
 30
0.0
 10
109.930991658
 20
107.31806584
 30
0.0
 10
110.380099218
 20
107.76681977200001
 30
0.0
 10
110.93431705799999
 20
107.76681977200001
 30
0.0
  0
LWPOLYLINE
  5
C2
  8
Layer_1
 62
1
420
16711680
370
-1
  6
ByLayer
100
AcDbEntity
100
AcDbPolyline
 90
2
 70
0
 10
89.206217675999994
 20
86.039781273999992
 10
89.206217675999994
 20
86.039781273999992
  0
SPLINE
  5
C3
  8
Layer_1
 62
1
420
16711680
370
-1
  6
ByLayer
100
AcDbEntity
100
AcDbSpline
 70
8
 71
3
 72
8
 73
4
 74
0
 40
0.0
 40
0.0
 40
0.0
 40
0.0
 40
1.0
 40
1.0
 40
1.0
 40
1.0
 10
110.93431705799999
 20
86.039781273999992
 30
0.0
 10
111.487826388
 20
86.039781273999992
 30
0.0
 10
111.937996086
 20
85.590673714000005
 30
0.0
 10
111.937996086
 20
85.036455874000012
 30
0.0
  0
SPLINE
  5
C4
  8
Layer_1
 62
1
420
16711680
370
-1
  6
ByLayer
100
AcDbEntity
100
AcDbSpline
 70
8
 71
3
 72
8
 73
4
 74
0
 40
0.0
 40
0.0
 40
0.0
 40
0.0
 40
1.0
 40
1.0
 40
1.0
 40
1.0
 10
111.937996086
 20
85.036455874000012
 30
0.0
 10
111.937996086
 20
84.482946544000015
 30
0.0
 10
111.48818127000001
 20
84.033485356
 30
0.0
 10
110.93431705799999
 20
84.033485356
 30
0.0
  0
SPLINE
  5
C5
  8
Layer_1
 62
1
420
16711680
370
-1
  6
ByLayer
100
AcDbEntity
100
AcDbSpline
 70
8
 71
3
 72
8
 73
4
 74
0
 40
0.0
 40
0.0
 40
0.0
 40
0.0
 40
1.0
 40
1.0
 40
1.0
 40
1.0
 10
110.93431705799999
 20
84.033485356
 30
0.0
 10
110.380452846
 20
84.033485356
 30
0.0
 10
109.930991658
 20
84.482946544000015
 30
0.0
 10
109.930991658
 20
85.036455874000012
 30
0.0
  0
SPLINE
  5
C6
  8
Layer_1
 62
1
420
16711680
370
-1
  6
ByLayer
100
AcDbEntity
100
AcDbSpline
 70
8
 71
3
 72
8
 73
4
 74
0
 40
0.0
 40
0.0
 40
0.0
 40
0.0
 40
1.0
 40
1.0
 40
1.0
 40
1.0
 10
109.930991658
 20
85.036455874000012
 30
0.0
 10
109.930991658
 20
85.590673714000005
 30
0.0
 10
110.380099218
 20
86.039781273999992
 30
0.0
 10
110.93431705799999
 20
86.039781273999992
 30
0.0
  0
LWPOLYLINE
  5
C7
  8
Layer_1
 62
1
420
16711680
370
-1
  6
ByLayer
100
AcDbEntity
100
AcDbPolyline
 90
2
 70
0
 10
110.93431705799999
 20
107.76681977200001
 10
110.93431705799999
 20
107.76681977200001
  0
SPLINE
  5
C8
  8
Layer_1
 62
1
420
16711680
370
-1
  6
ByLayer
100
AcDbEntity
100
AcDbSpline
 70
8
 71
3
 72
8
 73
4
 74
0
 40
0.0
 40
0.0
 40
0.0
 40
0.0
 40
1.0
 40
1.0
 40
1.0
 40
1.0
 10
89.267442972000012
 20
107.76681977200001
 30
0.0
 10
89.822368068000003
 20
107.76681977200001
 30
0.0
 10
90.271122000000005
 20
107.31806584
 30
0.0
 10
90.271122000000005
 20
106.763848
 30
0.0
  0
SPLINE
  5
C9
  8
Layer_1
 62
1
420
16711680
370
-1
  6
ByLayer
100
AcDbEntity
100
AcDbSpline
 70
8
 71
3
 72
8
 73
4
 74
0
 40
0.0
 40
0.0
 40
0.0
 40
0.0
 40
1.0
 40
1.0
 40
1.0
 40
1.0
 10
90.271122000000005
 20
106.763848
 30
0.0
 10
90.271122000000005
 20
106.209276532
 30
0.0
 10
89.822368068000003
 20
105.760168972
 30
0.0
 10
89.267442972000012
 20
105.760168972
 30
0.0
  0
SPLINE
  5
CA
  8
Layer_1
 62
1
420
16711680
370
-1
  6
ByLayer
100
AcDbEntity
100
AcDbSpline
 70
8
 71
3
 72
8
 73
4
 74
0
 40
0.0
 40
0.0
 40
0.0
 40
0.0
 40
1.0
 40
1.0
 40
1.0
 40
1.0
 10
89.267442972000012
 20
105.760168972
 30
0.0
 10
88.713932387999989
 20
105.760168972
 30
0.0
 10
88.264471200000003
 20
106.209276532
 30
0.0
 10
88.264471200000003
 20
106.763848
 30
0.0
  0
SPLINE
  5
CB
  8
Layer_1
 62
1
420
16711680
370
-1
  6
ByLayer
100
AcDbEntity
100
AcDbSpline
 70
8
 71
3
 72
8
 73
4
 74
0
 40
0.0
 40
0.0
 40
0.0
 40
0.0
 40
1.0
 40
1.0
 40
1.0
 40
1.0
 10
88.264471200000003
 20
106.763848
 30
0.0
 10
88.264471200000003
 20
107.31806584
 30
0.0
 10
88.713932387999989
 20
107.76681977200001
 30
0.0
 10
89.267442972000012
 20
107.76681977200001
 30
0.0
  0
LWPOLYLINE
  5
CC
  8
Layer_1
 62
1
420
16711680
370
-1
  6
ByLayer
100
AcDbEntity
100
AcDbPolyline
 90
2
 70
0
 10
110.93431705799999
 20
86.039781273999992
 10
110.93431705799999
 20
86.039781273999992
  0
SPLINE
  5
CD
  8
Layer_1
 62
7
420
16777215
370
-1
  6
ByLayer
100
AcDbEntity
100
AcDbSpline
 70
8
 71
3
 72
8
 73
4
 74
0
 40
0.0
 40
0.0
 40
0.0
 40
0.0
 40
1.0
 40
1.0
 40
1.0
 40
1.0
 10
-12.855156948000001
 20
150.31241765800002
 30
0.0
 10
-12.855156948000001
 20
148.733640436
 30
0.0
 10
-14.135944895999998
 20
147.45320611599999
 30
0.0
 10
-15.714723371999995
 20
147.45320611599999
 30
0.0
  0
SPLINE
  5
CE
  8
Layer_1
 62
7
420
16777215
370
-1
  6
ByLayer
100
AcDbEntity
100
AcDbSpline
 70
8
 71
3
 72
8
 73
4
 74
0
 40
0.0
 40
0.0
 40
0.0
 40
0.0
 40
1.0
 40
1.0
 40
1.0
 40
1.0
 10
-15.714723371999995
 20
147.45320611599999
 30
0.0
 10
-17.293500594000008
 20
147.45320611599999
 30
0.0
 10
-18.573934914000006
 20
148.733640436
 30
0.0
 10
-18.573934914000006
 20
150.31241765800002
 30
0.0
  0
SPLINE
  5
CF
  8
Layer_1
 62
7
420
16777215
370
-1
  6
ByLayer
100
AcDbEntity
100
AcDbSpline
 70
8
 71
3
 72
8
 73
4
 74
0
 40
0.0
 40
0.0
 40
0.0
 40
0.0
 40
1.0
 40
1.0
 40
1.0
 40
1.0
 10
-18.573934914000006
 20
150.31241765800002
 30
0.0
 10
-18.573934914000006
 20
151.89225701800001
 30
0.0
 10
-17.293500594000008
 20
153.17198282800001
 30
0.0
 10
-15.714723371999995
 20
153.17198282800001
 30
0.0
  0
SPLINE
  5
D0
  8
Layer_1
 62
7
420
16777215
370
-1
  6
ByLayer
100
AcDbEntity
100
AcDbSpline
 70
8
 71
3
 72
8
 73
4
 74
0
 40
0.0
 40
0.0
 40
0.0
 40
0.0
 40
1.0
 40
1.0
 40
1.0
 40
1.0
 10
-15.714723371999995
 20
153.17198282800001
 30
0.0
 10
-14.135944895999998
 20
153.17198282800001
 30
0.0
 10
-12.855156948000001
 20
151.89225701800001
 30
0.0
 10
-12.855156948000001
 20
150.31241765800002
 30
0.0
  0
SPLINE
  5
D1
  8
Layer_1
 62
1
420
16711680
370
-1
  6
ByLayer
100
AcDbEntity
100
AcDbSpline
 70
8
 71
3
 72
8
 73
4
 74
0
 40
0.0
 40
0.0
 40
0.0
 40
0.0
 40
1.0
 40
1.0
 40
1.0
 40
1.0
 10
-18.724344690000009
 20
143.49652888599999
 30
0.0
 10
-18.724344690000009
 20
141.83493750399998
 30
0.0
 10
-17.376314754000006
 20
140.48690631400001
 30
0.0
 10
-15.714723371999995
 20
140.48690631400001
 30
0.0
  0
SPLINE
  5
D2
  8
Layer_1
 62
1
420
16711680
370
-1
  6
ByLayer
100
AcDbEntity
100
AcDbSpline
 70
8
 71
3
 72
8
 73
4
 74
0
 40
0.0
 40
0.0
 40
0.0
 40
0.0
 40
1.0
 40
1.0
 40
1.0
 40
1.0
 10
-15.714723371999995
 20
140.48690631400001
 30
0.0
 10
-14.053130736
 20
140.48690631400001
 30
0.0
 10
-12.704747171999998
 20
141.83493750399998
 30
0.0
 10
-12.704747171999998
 20
143.49652888599999
 30
0.0
  0
SPLINE
  5
D3
  8
Layer_1
 62
1
420
16711680
370
-1
  6
ByLayer
100
AcDbEntity
100
AcDbSpline
 70
8
 71
3
 72
8
 73
4
 74
0
 40
0.0
 40
0.0
 40
0.0
 40
0.0
 40
1.0
 40
1.0
 40
1.0
 40
1.0
 10
-12.704747171999998
 20
143.49652888599999
 30
0.0
 10
-12.704747171999998
 20
144.60991912
 30
0.0
 10
-13.411852691999997
 20
145.57997715400001
 30
0.0
 10
-14.310775068000012
 20
146.100220372
 30
0.0
  0
LWPOLYLINE
  5
D4
  8
Layer_1
 62
1
420
16711680
370
-1
  6
ByLayer
100
AcDbEntity
100
AcDbPolyline
 90
2
 70
0
 10
89.267442972000012
 20
107.76681977200001
 10
89.267442972000012
 20
107.76681977200001
  0
SPLINE
  5
D5
  8
Layer_1
 62
1
420
16711680
370
-1
  6
ByLayer
100
AcDbEntity
100
AcDbSpline
 70
8
 71
3
 72
8
 73
4
 74
0
 40
0.0
 40
0.0
 40
0.0
 40
0.0
 40
1.0
 40
1.0
 40
1.0
 40
1.0
 10
-14.310775068000012
 20
150.113521972
 30
0.0
 10
-14.310775068000012
 20
150.944495104
 30
0.0
 10
-14.883041730000002
 20
151.61833325800001
 30
0.0
 10
-15.714723371999995
 20
151.61833325800001
 30
0.0
  0
SPLINE
  5
D6
  8
Layer_1
 62
1
420
16711680
370
-1
  6
ByLayer
100
AcDbEntity
100
AcDbSpline
 70
8
 71
3
 72
8
 73
4
 74
0
 40
0.0
 40
0.0
 40
0.0
 40
0.0
 40
1.0
 40
1.0
 40
1.0
 40
1.0
 10
-15.714723371999995
 20
151.61833325800001
 30
0.0
 10
-16.545695249999994
 20
151.61833325800001
 30
0.0
 10
-17.119378932000004
 20
150.944495104
 30
0.0
 10
-17.119378932000004
 20
150.113521972
 30
0.0
  0
LWPOLYLINE
  5
D7
  8
Layer_1
 62
1
420
16711680
370
-1
  6
ByLayer
100
AcDbEntity
100
AcDbPolyline
 90
2
 70
0
 10
-14.310775068000012
 20
146.100220372
 10
-14.310775068000012
 20
150.113521972
  0
SPLINE
  5
D8
  8
Layer_1
 62
1
420
16711680
370
-1
  6
ByLayer
100
AcDbEntity
100
AcDbSpline
 70
8
 71
3
 72
8
 73
4
 74
0
 40
0.0
 40
0.0
 40
0.0
 40
0.0
 40
1.0
 40
1.0
 40
1.0
 40
1.0
 10
-17.119378932000004
 20
146.100220372
 30
0.0
 10
-18.017947680000006
 20
145.57962352600001
 30
0.0
 10
-18.724344690000009
 20
144.609565492
 30
0.0
 10
-18.724344690000009
 20
143.49652888599999
 30
0.0
  0
LWPOLYLINE
  5
D9
  8
Layer_1
 62
1
420
16711680
370
-1
  6
ByLayer
100
AcDbEntity
100
AcDbPolyline
 90
2
 70
0
 10
-17.119378932000004
 20
150.113521972
 10
-17.119378932000004
 20
146.100220372
  0
SPLINE
  5
DA
  8
Layer_1
 62
7
420
16777215
370
-1
  6
ByLayer
100
AcDbEntity
100
AcDbSpline
 70
8
 71
3
 72
8
 73
4
 74
0
 40
0.0
 40
0.0
 40
0.0
 40
0.0
 40
1.0
 40
1.0
 40
1.0
 40
1.0
 10
-12.855156948000001
 20
43.239725470000003
 30
0.0
 10
-12.855156948000001
 20
41.659886110000002
 30
0.0
 10
-14.135944895999998
 20
40.380159046000003
 30
0.0
 10
-15.714723371999995
 20
40.380159046000003
 30
0.0
  0
SPLINE
  5
DB
  8
Layer_1
 62
7
420
16777215
370
-1
  6
ByLayer
100
AcDbEntity
100
AcDbSpline
 70
8
 71
3
 72
8
 73
4
 74
0
 40
0.0
 40
0.0
 40
0.0
 40
0.0
 40
1.0
 40
1.0
 40
1.0
 40
1.0
 10
-15.714723371999995
 20
40.380159046000003
 30
0.0
 10
-17.293500594000008
 20
40.380159046000003
 30
0.0
 10
-18.573934914000006
 20
41.659886110000002
 30
0.0
 10
-18.573934914000006
 20
43.239725470000003
 30
0.0
  0
SPLINE
  5
DC
  8
Layer_1
 62
7
420
16777215
370
-1
  6
ByLayer
100
AcDbEntity
100
AcDbSpline
 70
8
 71
3
 72
8
 73
4
 74
0
 40
0.0
 40
0.0
 40
0.0
 40
0.0
 40
1.0
 40
1.0
 40
1.0
 40
1.0
 10
-18.573934914000006
 20
43.239725470000003
 30
0.0
 10
-18.573934914000006
 20
44.818502691999996
 30
0.0
 10
-17.293500594000008
 20
46.098937012000007
 30
0.0
 10
-15.714723371999995
 20
46.098937012000007
 30
0.0
  0
SPLINE
  5
DD
  8
Layer_1
 62
7
420
16777215
370
-1
  6
ByLayer
100
AcDbEntity
100
AcDbSpline
 70
8
 71
3
 72
8
 73
4
 74
0
 40
0.0
 40
0.0
 40
0.0
 40
0.0
 40
1.0
 40
1.0
 40
1.0
 40
1.0
 10
-15.714723371999995
 20
46.098937012000007
 30
0.0
 10
-14.135944895999998
 20
46.098937012000007
 30
0.0
 10
-12.855156948000001
 20
44.818502691999996
 30
0.0
 10
-12.855156948000001
 20
43.239725470000003
 30
0.0
  0
SPLINE
  5
DE
  8
Layer_1
 62
1
420
16711680
370
-1
  6
ByLayer
100
AcDbEntity
100
AcDbSpline
 70
8
 71
3
 72
8
 73
4
 74
0
 40
0.0
 40
0.0
 40
0.0
 40
0.0
 40
1.0
 40
1.0
 40
1.0
 40
1.0
 10
-18.724344690000009
 20
36.422420931999994
 30
0.0
 10
-18.724344690000009
 20
34.760829550000011
 30
0.0
 10
-17.376314754000006
 20
33.412798359999996
 30
0.0
 10
-15.714723371999995
 20
33.412798359999996
 30
0.0
  0
SPLINE
  5
DF
  8
Layer_1
 62
1
420
16711680
370
-1
  6
ByLayer
100
AcDbEntity
100
AcDbSpline
 70
8
 71
3
 72
8
 73
4
 74
0
 40
0.0
 40
0.0
 40
0.0
 40
0.0
 40
1.0
 40
1.0
 40
1.0
 40
1.0
 10
-15.714723371999995
 20
33.412798359999996
 30
0.0
 10
-14.053130736
 20
33.412798359999996
 30
0.0
 10
-12.704747171999998
 20
34.760829550000011
 30
0.0
 10
-12.704747171999998
 20
36.422420931999994
 30
0.0
  0
SPLINE
  5
E0
  8
Layer_1
 62
1
420
16711680
370
-1
  6
ByLayer
100
AcDbEntity
100
AcDbSpline
 70
8
 71
3
 72
8
 73
4
 74
0
 40
0.0
 40
0.0
 40
0.0
 40
0.0
 40
1.0
 40
1.0
 40
1.0
 40
1.0
 10
-12.704747171999998
 20
36.422420931999994
 30
0.0
 10
-12.704747171999998
 20
37.536164794000001
 30
0.0
 10
-13.411852691999997
 20
38.505869200000006
 30
0.0
 10
-14.310775068000012
 20
39.026466045999996
 30
0.0
  0
LWPOLYLINE
  5
E1
  8
Layer_1
 62
1
420
16711680
370
-1
  6
ByLayer
100
AcDbEntity
100
AcDbPolyline
 90
2
 70
0
 10
-18.724344690000009
 20
143.49652888599999
 10
-18.724344690000009
 20
143.49652888599999
  0
SPLINE
  5
E2
  8
Layer_1
 62
1
420
16711680
370
-1
  6
ByLayer
100
AcDbEntity
100
AcDbSpline
 70
8
 71
3
 72
8
 73
4
 74
0
 40
0.0
 40
0.0
 40
0.0
 40
0.0
 40
1.0
 40
1.0
 40
1.0
 40
1.0
 10
-14.310775068000012
 20
43.040476155999997
 30
0.0
 10
-14.310775068000012
 20
43.871448034000004
 30
0.0
 10
-14.883041730000002
 20
44.545286188000006
 30
0.0
 10
-15.714723371999995
 20
44.545286188000006
 30
0.0
  0
SPLINE
  5
E3
  8
Layer_1
 62
1
420
16711680
370
-1
  6
ByLayer
100
AcDbEntity
100
AcDbSpline
 70
8
 71
3
 72
8
 73
4
 74
0
 40
0.0
 40
0.0
 40
0.0
 40
0.0
 40
1.0
 40
1.0
 40
1.0
 40
1.0
 10
-15.714723371999995
 20
44.545286188000006
 30
0.0
 10
-16.545695249999994
 20
44.545286188000006
 30
0.0
 10
-17.119378932000004
 20
43.871448034000004
 30
0.0
 10
-17.119378932000004
 20
43.040476155999997
 30
0.0
  0
LWPOLYLINE
  5
E4
  8
Layer_1
 62
1
420
16711680
370
-1
  6
ByLayer
100
AcDbEntity
100
AcDbPolyline
 90
2
 70
0
 10
-14.310775068000012
 20
39.026466045999996
 10
-14.310775068000012
 20
43.040476155999997
  0
SPLINE
  5
E5
  8
Layer_1
 62
1
420
16711680
370
-1
  6
ByLayer
100
AcDbEntity
100
AcDbSpline
 70
8
 71
3
 72
8
 73
4
 74
0
 40
0.0
 40
0.0
 40
0.0
 40
0.0
 40
1.0
 40
1.0
 40
1.0
 40
1.0
 10
-17.119378932000004
 20
39.026466045999996
 30
0.0
 10
-18.017947680000006
 20
38.505869200000006
 30
0.0
 10
-18.724344690000009
 20
37.536164794000001
 30
0.0
 10
-18.724344690000009
 20
36.422420931999994
 30
0.0
  0
LWPOLYLINE
  5
E6
  8
Layer_1
 62
1
420
16711680
370
-1
  6
ByLayer
100
AcDbEntity
100
AcDbPolyline
 90
2
 70
0
 10
-17.119378932000004
 20
43.040476155999997
 10
-17.119378932000004
 20
39.026466045999996
  0
SPLINE
  5
E7
  8
Layer_1
 62
7
420
16777215
370
-1
  6
ByLayer
100
AcDbEntity
100
AcDbSpline
 70
8
 71
3
 72
8
 73
4
 74
0
 40
0.0
 40
0.0
 40
0.0
 40
0.0
 40
1.0
 40
1.0
 40
1.0
 40
1.0
 10
218.70632868000001
 20
150.456811996
 30
0.0
 10
218.70632868000001
 20
148.877679892
 30
0.0
 10
217.426247988
 20
147.59759920000002
 30
0.0
 10
215.84711713800002
 20
147.59759920000002
 30
0.0
  0
SPLINE
  5
E8
  8
Layer_1
 62
7
420
16777215
370
-1
  6
ByLayer
100
AcDbEntity
100
AcDbSpline
 70
8
 71
3
 72
8
 73
4
 74
0
 40
0.0
 40
0.0
 40
0.0
 40
0.0
 40
1.0
 40
1.0
 40
1.0
 40
1.0
 10
215.84711713800002
 20
147.59759920000002
 30
0.0
 10
214.26798503399999
 20
147.59759920000002
 30
0.0
 10
212.98790559599999
 20
148.877679892
 30
0.0
 10
212.98790559599999
 20
150.456811996
 30
0.0
  0
SPLINE
  5
E9
  8
Layer_1
 62
7
420
16777215
370
-1
  6
ByLayer
100
AcDbEntity
100
AcDbSpline
 70
8
 71
3
 72
8
 73
4
 74
0
 40
0.0
 40
0.0
 40
0.0
 40
0.0
 40
1.0
 40
1.0
 40
1.0
 40
1.0
 10
212.98790559599999
 20
150.456811996
 30
0.0
 10
212.98790559599999
 20
152.03629647399998
 30
0.0
 10
214.26798503399999
 20
153.31602353800002
 30
0.0
 10
215.84711713800002
 20
153.31602353800002
 30
0.0
  0
SPLINE
  5
EA
  8
Layer_1
 62
7
420
16777215
370
-1
  6
ByLayer
100
AcDbEntity
100
AcDbSpline
 70
8
 71
3
 72
8
 73
4
 74
0
 40
0.0
 40
0.0
 40
0.0
 40
0.0
 40
1.0
 40
1.0
 40
1.0
 40
1.0
 10
215.84711713800002
 20
153.31602353800002
 30
0.0
 10
217.426247988
 20
153.31602353800002
 30
0.0
 10
218.70632868000001
 20
152.03594284599998
 30
0.0
 10
218.70632868000001
 20
150.456811996
 30
0.0
  0
SPLINE
  5
EB
  8
Layer_1
 62
1
420
16711680
370
-1
  6
ByLayer
100
AcDbEntity
100
AcDbSpline
 70
8
 71
3
 72
8
 73
4
 74
0
 40
0.0
 40
0.0
 40
0.0
 40
0.0
 40
1.0
 40
1.0
 40
1.0
 40
1.0
 10
212.83749456599998
 20
143.639861086
 30
0.0
 10
212.83749456599998
 20
141.97826970400001
 30
0.0
 10
214.185525756
 20
140.63059339600002
 30
0.0
 10
215.84711713800002
 20
140.63059339600002
 30
0.0
  0
SPLINE
  5
EC
  8
Layer_1
 62
1
420
16711680
370
-1
  6
ByLayer
100
AcDbEntity
100
AcDbSpline
 70
8
 71
3
 72
8
 73
4
 74
0
 40
0.0
 40
0.0
 40
0.0
 40
0.0
 40
1.0
 40
1.0
 40
1.0
 40
1.0
 10
215.84711713800002
 20
140.63059339600002
 30
0.0
 10
217.50870852
 20
140.63059339600002
 30
0.0
 10
218.85673971
 20
141.97826970400001
 30
0.0
 10
218.85673971
 20
143.639861086
 30
0.0
  0
SPLINE
  5
ED
  8
Layer_1
 62
1
420
16711680
370
-1
  6
ByLayer
100
AcDbEntity
100
AcDbSpline
 70
8
 71
3
 72
8
 73
4
 74
0
 40
0.0
 40
0.0
 40
0.0
 40
0.0
 40
1.0
 40
1.0
 40
1.0
 40
1.0
 10
218.85673971
 20
143.639861086
 30
0.0
 10
218.85673971
 20
144.75360494799997
 30
0.0
 10
218.14963418999997
 20
145.72330935399998
 30
0.0
 10
217.25106418800002
 20
146.243552572
 30
0.0
  0
LWPOLYLINE
  5
EE
  8
Layer_1
 62
1
420
16711680
370
-1
  6
ByLayer
100
AcDbEntity
100
AcDbPolyline
 90
2
 70
0
 10
-18.724344690000009
 20
36.422420931999994
 10
-18.724344690000009
 20
36.422420931999994
  0
SPLINE
  5
EF
  8
Layer_1
 62
1
420
16711680
370
-1
  6
ByLayer
100
AcDbEntity
100
AcDbSpline
 70
8
 71
3
 72
8
 73
4
 74
0
 40
0.0
 40
0.0
 40
0.0
 40
0.0
 40
1.0
 40
1.0
 40
1.0
 40
1.0
 10
217.25106418800002
 20
150.2572078
 30
0.0
 10
217.25106418800002
 20
151.088180932
 30
0.0
 10
216.67879752599998
 20
151.76201908600001
 30
0.0
 10
215.84711713800002
 20
151.76201908600001
 30
0.0
  0
SPLINE
  5
F0
  8
Layer_1
 62
1
420
16711680
370
-1
  6
ByLayer
100
AcDbEntity
100
AcDbSpline
 70
8
 71
3
 72
8
 73
4
 74
0
 40
0.0
 40
0.0
 40
0.0
 40
0.0
 40
1.0
 40
1.0
 40
1.0
 40
1.0
 10
215.84711713800002
 20
151.76201908600001
 30
0.0
 10
215.01614400599999
 20
151.76201908600001
 30
0.0
 10
214.44246157800001
 20
151.088180932
 30
0.0
 10
214.44246157800001
 20
150.2572078
 30
0.0
  0
LWPOLYLINE
  5
F1
  8
Layer_1
 62
1
420
16711680
370
-1
  6
ByLayer
100
AcDbEntity
100
AcDbPolyline
 90
2
 70
0
 10
217.25106418800002
 20
146.243552572
 10
217.25106418800002
 20
150.2572078
  0
SPLINE
  5
F2
  8
Layer_1
 62
1
420
16711680
370
-1
  6
ByLayer
100
AcDbEntity
100
AcDbSpline
 70
8
 71
3
 72
8
 73
4
 74
0
 40
0.0
 40
0.0
 40
0.0
 40
0.0
 40
1.0
 40
1.0
 40
1.0
 40
1.0
 10
214.44246157800001
 20
146.243552572
 30
0.0
 10
213.54389283
 20
145.72330935399998
 30
0.0
 10
212.83749456599998
 20
144.75360494799997
 30
0.0
 10
212.83749456599998
 20
143.639861086
 30
0.0
  0
LWPOLYLINE
  5
F3
  8
Layer_1
 62
1
420
16711680
370
-1
  6
ByLayer
100
AcDbEntity
100
AcDbPolyline
 90
2
 70
0
 10
214.44246157800001
 20
150.2572078
 10
214.44246157800001
 20
146.243552572
  0
SPLINE
  5
F4
  8
Layer_1
 62
7
420
16777215
370
-1
  6
ByLayer
100
AcDbEntity
100
AcDbSpline
 70
8
 71
3
 72
8
 73
4
 74
0
 40
0.0
 40
0.0
 40
0.0
 40
0.0
 40
1.0
 40
1.0
 40
1.0
 40
1.0
 10
218.70632868000001
 20
43.340942079999998
 30
0.0
 10
218.70632868000001
 20
41.761811229999992
 30
0.0
 10
217.426247988
 20
40.481730537999994
 30
0.0
 10
215.84711713800002
 20
40.481730537999994
 30
0.0
  0
SPLINE
  5
F5
  8
Layer_1
 62
7
420
16777215
370
-1
  6
ByLayer
100
AcDbEntity
100
AcDbSpline
 70
8
 71
3
 72
8
 73
4
 74
0
 40
0.0
 40
0.0
 40
0.0
 40
0.0
 40
1.0
 40
1.0
 40
1.0
 40
1.0
 10
215.84711713800002
 20
40.481730537999994
 30
0.0
 10
214.26798503399999
 20
40.481730537999994
 30
0.0
 10
212.98790559599999
 20
41.761811229999992
 30
0.0
 10
212.98790559599999
 20
43.340942079999998
 30
0.0
  0
SPLINE
  5
F6
  8
Layer_1
 62
7
420
16777215
370
-1
  6
ByLayer
100
AcDbEntity
100
AcDbSpline
 70
8
 71
3
 72
8
 73
4
 74
0
 40
0.0
 40
0.0
 40
0.0
 40
0.0
 40
1.0
 40
1.0
 40
1.0
 40
1.0
 10
212.98790559599999
 20
43.340942079999998
 30
0.0
 10
212.98790559599999
 20
44.920427812
 30
0.0
 10
214.26798503399999
 20
46.200154875999999
 30
0.0
 10
215.84711713800002
 20
46.200154875999999
 30
0.0
  0
SPLINE
  5
F7
  8
Layer_1
 62
7
420
16777215
370
-1
  6
ByLayer
100
AcDbEntity
100
AcDbSpline
 70
8
 71
3
 72
8
 73
4
 74
0
 40
0.0
 40
0.0
 40
0.0
 40
0.0
 40
1.0
 40
1.0
 40
1.0
 40
1.0
 10
215.84711713800002
 20
46.200154875999999
 30
0.0
 10
217.426247988
 20
46.200154875999999
 30
0.0
 10
218.70632868000001
 20
44.920074184000001
 30
0.0
 10
218.70632868000001
 20
43.340942079999998
 30
0.0
  0
SPLINE
  5
F8
  8
Layer_1
 62
1
420
16711680
370
-1
  6
ByLayer
100
AcDbEntity
100
AcDbSpline
 70
8
 71
3
 72
8
 73
4
 74
0
 40
0.0
 40
0.0
 40
0.0
 40
0.0
 40
1.0
 40
1.0
 40
1.0
 40
1.0
 10
212.83749456599998
 20
36.523992423999999
 30
0.0
 10
212.83749456599998
 20
34.862399788000005
 30
0.0
 10
214.185525756
 20
33.514369852000002
 30
0.0
 10
215.84711713800002
 20
33.514369852000002
 30
0.0
  0
SPLINE
  5
F9
  8
Layer_1
 62
1
420
16711680
370
-1
  6
ByLayer
100
AcDbEntity
100
AcDbSpline
 70
8
 71
3
 72
8
 73
4
 74
0
 40
0.0
 40
0.0
 40
0.0
 40
0.0
 40
1.0
 40
1.0
 40
1.0
 40
1.0
 10
215.84711713800002
 20
33.514369852000002
 30
0.0
 10
217.50870852
 20
33.514369852000002
 30
0.0
 10
218.85673971
 20
34.862399788000005
 30
0.0
 10
218.85673971
 20
36.523992423999999
 30
0.0
  0
SPLINE
  5
FA
  8
Layer_1
 62
1
420
16711680
370
-1
  6
ByLayer
100
AcDbEntity
100
AcDbSpline
 70
8
 71
3
 72
8
 73
4
 74
0
 40
0.0
 40
0.0
 40
0.0
 40
0.0
 40
1.0
 40
1.0
 40
1.0
 40
1.0
 10
218.85673971
 20
36.523992423999999
 30
0.0
 10
218.85673971
 20
37.637736285999992
 30
0.0
 10
218.14963418999997
 20
38.607440691999997
 30
0.0
 10
217.25106418800002
 20
39.128037538000001
 30
0.0
  0
LWPOLYLINE
  5
FB
  8
Layer_1
 62
1
420
16711680
370
-1
  6
ByLayer
100
AcDbEntity
100
AcDbPolyline
 90
2
 70
0
 10
212.83749456599998
 20
143.639861086
 10
212.83749456599998
 20
143.639861086
  0
SPLINE
  5
FC
  8
Layer_1
 62
1
420
16711680
370
-1
  6
ByLayer
100
AcDbEntity
100
AcDbSpline
 70
8
 71
3
 72
8
 73
4
 74
0
 40
0.0
 40
0.0
 40
0.0
 40
0.0
 40
1.0
 40
1.0
 40
1.0
 40
1.0
 10
217.25106418800002
 20
43.141339137999999
 30
0.0
 10
217.25106418800002
 20
43.972312269999996
 30
0.0
 10
216.67879752599998
 20
44.646150423999998
 30
0.0
 10
215.84711713800002
 20
44.646150423999998
 30
0.0
  0
SPLINE
  5
FD
  8
Layer_1
 62
1
420
16711680
370
-1
  6
ByLayer
100
AcDbEntity
100
AcDbSpline
 70
8
 71
3
 72
8
 73
4
 74
0
 40
0.0
 40
0.0
 40
0.0
 40
0.0
 40
1.0
 40
1.0
 40
1.0
 40
1.0
 10
215.84711713800002
 20
44.646150423999998
 30
0.0
 10
215.01614400599999
 20
44.646150423999998
 30
0.0
 10
214.44246157800001
 20
43.972312269999996
 30
0.0
 10
214.44246157800001
 20
43.141339137999999
 30
0.0
  0
LWPOLYLINE
  5
FE
  8
Layer_1
 62
1
420
16711680
370
-1
  6
ByLayer
100
AcDbEntity
100
AcDbPolyline
 90
2
 70
0
 10
217.25106418800002
 20
39.128037538000001
 10
217.25106418800002
 20
43.141339137999999
  0
SPLINE
  5
FF
  8
Layer_1
 62
1
420
16711680
370
-1
  6
ByLayer
100
AcDbEntity
100
AcDbSpline
 70
8
 71
3
 72
8
 73
4
 74
0
 40
0.0
 40
0.0
 40
0.0
 40
0.0
 40
1.0
 40
1.0
 40
1.0
 40
1.0
 10
214.44246157800001
 20
39.128037538000001
 30
0.0
 10
213.54389283
 20
38.607440691999997
 30
0.0
 10
212.83749456599998
 20
37.637736285999992
 30
0.0
 10
212.83749456599998
 20
36.523992423999999
 30
0.0
  0
LWPOLYLINE
  5
100
  8
Layer_1
 62
1
420
16711680
370
-1
  6
ByLayer
100
AcDbEntity
100
AcDbPolyline
 90
2
 70
0
 10
214.44246157800001
 20
43.141339137999999
 10
214.44246157800001
 20
39.128037538000001
  0
SPLINE
  5
101
  8
Layer_1
 62
1
420
16711680
370
-1
  6
ByLayer
100
AcDbEntity
100
AcDbSpline
 70
8
 71
3
 72
8
 73
4
 74
0
 40
0.0
 40
0.0
 40
0.0
 40
0.0
 40
1.0
 40
1.0
 40
1.0
 40
1.0
 10
-13.146422274000003
 20
238.90623732400002
 30
0.0
 10
-13.680820643999994
 20
238.20585700600003
 30
0.0
 10
-14.471802462000014
 20
237.71640324999998
 30
0.0
 10
-15.378865806000007
 20
237.57024077200001
 30
0.0
  0
SPLINE
  5
102
  8
Layer_1
 62
1
420
16711680
370
-1
  6
ByLayer
100
AcDbEntity
100
AcDbSpline
 70
8
 71
3
 72
8
 73
4
 74
0
 40
0.0
 40
0.0
 40
0.0
 40
0.0
 40
1.0
 40
1.0
 40
1.0
 40
1.0
 10
-15.378865806000007
 20
237.57024077200001
 30
0.0
 10
-15.453540251999996
 20
237.56988588999999
 30
0.0
 10
-15.526798931999991
 20
237.564931336
 30
0.0
 10
-15.600057611999986
 20
237.55997678200001
 30
0.0
  0
SPLINE
  5
103
  8
Layer_1
 62
1
420
16711680
370
-1
  6
ByLayer
100
AcDbEntity
100
AcDbSpline
 70
8
 71
3
 72
8
 73
4
 74
0
 40
0.0
 40
0.0
 40
0.0
 40
0.0
 40
1.0
 40
1.0
 40
1.0
 40
1.0
 10
-15.600057611999986
 20
237.55997678200001
 30
0.0
 10
-15.720385182000001
 20
237.55148344
 30
0.0
 10
-15.840005496000003
 20
237.53945005599999
 30
0.0
 10
-15.957502788000014
 20
237.52175486199999
 30
0.0
  0
SPLINE
  5
104
  8
Layer_1
 62
1
420
16711680
370
-1
  6
ByLayer
100
AcDbEntity
100
AcDbSpline
 70
8
 71
3
 72
8
 73
4
 74
0
 40
0.0
 40
0.0
 40
0.0
 40
0.0
 40
1.0
 40
1.0
 40
1.0
 40
1.0
 10
-15.957502788000014
 20
237.52175486199999
 30
0.0
 10
-17.736237834000008
 20
237.25455504999999
 30
0.0
 10
-19.133107307999992
 20
235.82689611400002
 30
0.0
 10
-19.348990931999992
 20
234.03188163999999
 30
0.0
  0
LWPOLYLINE
  5
105
  8
Layer_1
 62
1
420
16711680
370
-1
  6
ByLayer
100
AcDbEntity
100
AcDbPolyline
 90
2
 70
0
 10
212.83749456599998
 20
36.523992423999999
 10
212.83749456599998
 20
36.523992423999999
  0
SPLINE
  5
106
  8
Layer_1
 62
1
420
16711680
370
-1
  6
ByLayer
100
AcDbEntity
100
AcDbSpline
 70
8
 71
3
 72
8
 73
4
 74
0
 40
0.0
 40
0.0
 40
0.0
 40
0.0
 40
1.0
 40
1.0
 40
1.0
 40
1.0
 10
-19.348990931999992
 20
226.31989073800003
 30
0.0
 10
-19.127090616000004
 20
224.47462096000001
 30
0.0
 10
-17.658731856000003
 20
223.015110424
 30
0.0
 10
-15.808862405999989
 20
222.80772139599998
 30
0.0
  0
LWPOLYLINE
  5
107
  8
Layer_1
 62
1
420
16711680
370
-1
  6
ByLayer
100
AcDbEntity
100
AcDbPolyline
 90
2
 70
0
 10
-19.348990931999992
 20
234.03188163999999
 10
-19.348990931999992
 20
226.31989073800003
  0
SPLINE
  5
108
  8
Layer_1
 62
1
420
16711680
370
-1
  6
ByLayer
100
AcDbEntity
100
AcDbSpline
 70
8
 71
3
 72
8
 73
4
 74
0
 40
0.0
 40
0.0
 40
0.0
 40
0.0
 40
1.0
 40
1.0
 40
1.0
 40
1.0
 10
-15.655619844
 20
222.79391861800002
 30
0.0
 10
-15.601118496000012
 20
222.78967132000002
 30
0.0
 10
-15.546263519999997
 20
222.78825555399999
 30
0.0
 10
-15.491407289999998
 20
222.78648615999998
 30
0.0
  0
SPLINE
  5
109
  8
Layer_1
 62
1
420
16711680
370
-1
  6
ByLayer
100
AcDbEntity
100
AcDbSpline
 70
8
 71
3
 72
8
 73
4
 74
0
 40
0.0
 40
0.0
 40
0.0
 40
0.0
 40
1.0
 40
1.0
 40
1.0
 40
1.0
 10
-15.491407289999998
 20
222.78648615999998
 30
0.0
 10
-14.525596554000003
 20
222.66332705800002
 30
0.0
 10
-13.684005803999995
 20
222.147684766
 30
0.0
 10
-13.127311313999996
 20
221.40448034799999
 30
0.0
  0
LWPOLYLINE
  5
10A
  8
Layer_1
 62
1
420
16711680
370
-1
  6
ByLayer
100
AcDbEntity
100
AcDbPolyline
 90
2
 70
0
 10
-15.808862405999989
 20
222.80772139599998
 10
-15.655619844
 20
222.79391861800002
  0
SPLINE
  5
10B
  8
Layer_1
 62
1
420
16711680
370
-1
  6
ByLayer
100
AcDbEntity
100
AcDbSpline
 70
8
 71
3
 72
8
 73
4
 74
0
 40
0.0
 40
0.0
 40
0.0
 40
0.0
 40
1.0
 40
1.0
 40
1.0
 40
1.0
 10
2.209234085999995
 20
221.40448034799999
 30
0.0
 10
2.7432788280000011
 20
222.10450829199999
 30
0.0
 10
3.534614273999992
 20
222.593960794
 30
0.0
 10
4.4420312459999991
 20
222.74012452599999
 30
0.0
  0
SPLINE
  5
10C
  8
Layer_1
 62
1
420
16711680
370
-1
  6
ByLayer
100
AcDbEntity
100
AcDbSpline
 70
8
 71
3
 72
8
 73
4
 74
0
 40
0.0
 40
0.0
 40
0.0
 40
0.0
 40
1.0
 40
1.0
 40
1.0
 40
1.0
 10
4.4420312459999991
 20
222.74012452599999
 30
0.0
 10
4.5159984360000038
 20
222.74012452599999
 30
0.0
 10
4.5899643719999972
 20
222.74543270800001
 30
0.0
 10
4.6632230519999922
 20
222.75038851599999
 30
0.0
  0
SPLINE
  5
10D
  8
Layer_1
 62
1
420
16711680
370
-1
  6
ByLayer
100
AcDbEntity
100
AcDbSpline
 70
8
 71
3
 72
8
 73
4
 74
0
 40
0.0
 40
0.0
 40
0.0
 40
0.0
 40
1.0
 40
1.0
 40
1.0
 40
1.0
 10
4.6632230519999922
 20
222.75038851599999
 30
0.0
 10
4.7828433660000087
 20
222.75923548600002
 30
0.0
 10
4.9024636799999968
 20
222.77091398800002
 30
0.0
 10
5.0203145999999919
 20
222.788610436
 30
0.0
  0
SPLINE
  5
10E
  8
Layer_1
 62
1
420
16711680
370
-1
  6
ByLayer
100
AcDbEntity
100
AcDbSpline
 70
8
 71
3
 72
8
 73
4
 74
0
 40
0.0
 40
0.0
 40
0.0
 40
0.0
 40
1.0
 40
1.0
 40
1.0
 40
1.0
 10
5.0203145999999919
 20
222.788610436
 30
0.0
 10
6.7990496460000145
 20
223.05545536599999
 30
0.0
 10
8.1959191199999992
 20
224.48382281199997
 30
0.0
 10
8.4118027439999992
 20
226.278837286
 30
0.0
  0
LWPOLYLINE
  5
10F
  8
Layer_1
 62
1
420
16711680
370
-1
  6
ByLayer
100
AcDbEntity
100
AcDbPolyline
 90
2
 70
0
 10
-13.127311313999996
 20
221.40448034799999
 10
2.209234085999995
 20
221.40448034799999
  0
SPLINE
  5
110
  8
Layer_1
 62
1
420
16711680
370
-1
  6
ByLayer
100
AcDbEntity
100
AcDbSpline
 70
8
 71
3
 72
8
 73
4
 74
0
 40
0.0
 40
0.0
 40
0.0
 40
0.0
 40
1.0
 40
1.0
 40
1.0
 40
1.0
 10
8.4118027439999992
 20
233.99047456
 30
0.0
 10
8.189195171999998
 20
235.835389456
 30
0.0
 10
6.720836411999997
 20
237.29490124599999
 30
0.0
 10
4.8706120799999866
 20
237.50299753000002
 30
0.0
  0
LWPOLYLINE
  5
111
  8
Layer_1
 62
1
420
16711680
370
-1
  6
ByLayer
100
AcDbEntity
100
AcDbPolyline
 90
2
 70
0
 10
8.4118027439999992
 20
226.278837286
 10
8.4118027439999992
 20
233.99047456
  0
SPLINE
  5
112
  8
Layer_1
 62
1
420
16711680
370
-1
  6
ByLayer
100
AcDbEntity
100
AcDbSpline
 70
8
 71
3
 72
8
 73
4
 74
0
 40
0.0
 40
0.0
 40
0.0
 40
0.0
 40
1.0
 40
1.0
 40
1.0
 40
1.0
 10
4.7180780279999937
 20
237.51680030799997
 30
0.0
 10
4.6639303079999905
 20
237.52033909599999
 30
0.0
 10
4.6087217039999899
 20
237.52210849000002
 30
0.0
 10
4.5542203560000019
 20
237.52423276600001
 30
0.0
  0
SPLINE
  5
113
  8
Layer_1
 62
1
420
16711680
370
-1
  6
ByLayer
100
AcDbEntity
100
AcDbSpline
 70
8
 71
3
 72
8
 73
4
 74
0
 40
0.0
 40
0.0
 40
0.0
 40
0.0
 40
1.0
 40
1.0
 40
1.0
 40
1.0
 10
4.5542203560000019
 20
237.52423276600001
 30
0.0
 10
3.5884083659999959
 20
237.64703824
 30
0.0
 10
2.7464639880000021
 20
238.16303416
 30
0.0
 10
2.189769498000004
 20
238.90623732400002
 30
0.0
  0
LWPOLYLINE
  5
114
  8
Layer_1
 62
1
420
16711680
370
-1
  6
ByLayer
100
AcDbEntity
100
AcDbPolyline
 90
2
 70
0
 10
4.8706120799999866
 20
237.50299753000002
 10
4.7180780279999937
 20
237.51680030799997
  0
SPLINE
  5
115
  8
Layer_1
 62
1
420
16711680
370
-1
  6
ByLayer
100
AcDbEntity
100
AcDbSpline
 70
8
 71
3
 72
8
 73
4
 74
0
 40
0.0
 40
0.0
 40
0.0
 40
0.0
 40
1.0
 40
1.0
 40
1.0
 40
1.0
 10
-12.257762633999988
 20
223.91544856599998
 30
0.0
 10
-14.196816564000002
 20
223.91544856599998
 30
0.0
 10
-15.768871092000012
 20
225.48785546799999
 30
0.0
 10
-15.768871092000012
 20
227.426910652
 30
0.0
  0
LWPOLYLINE
  5
116
  8
Layer_1
 62
1
420
16711680
370
-1
  6
ByLayer
100
AcDbEntity
100
AcDbPolyline
 90
3
 70
0
 10
2.189769498000004
 20
238.90623732400002
 10
-13.146422274000003
 20
238.90623732400002
 10
-13.146422274000003
 20
238.90623732400002
  0
SPLINE
  5
117
  8
Layer_1
 62
1
420
16711680
370
-1
  6
ByLayer
100
AcDbEntity
100
AcDbSpline
 70
8
 71
3
 72
8
 73
4
 74
0
 40
0.0
 40
0.0
 40
0.0
 40
0.0
 40
1.0
 40
1.0
 40
1.0
 40
1.0
 10
-15.355861175999991
 20
232.18448883999997
 30
0.0
 10
-13.828046514000008
 20
232.18448883999997
 30
0.0
 10
-12.589372901999994
 20
233.42210031399998
 30
0.0
 10
-12.589372901999994
 20
234.95062348599998
 30
0.0
  0
LWPOLYLINE
  5
118
  8
Layer_1
 62
1
420
16711680
370
-1
  6
ByLayer
100
AcDbEntity
100
AcDbPolyline
 90
3
 70
0
 10
-15.768871092000012
 20
227.426910652
 10
-15.806384502
 20
232.191566416
 10
-15.355861175999991
 20
232.18448883999997
  0
SPLINE
  5
119
  8
Layer_1
 62
1
420
16711680
370
-1
  6
ByLayer
100
AcDbEntity
100
AcDbSpline
 70
8
 71
3
 72
8
 73
4
 74
0
 40
0.0
 40
0.0
 40
0.0
 40
0.0
 40
1.0
 40
1.0
 40
1.0
 40
1.0
 10
1.5484902000000034
 20
236.45543477199999
 30
0.0
 10
3.4878990119999997
 20
236.45543477199999
 30
0.0
 10
5.0603059139999971
 20
234.883735126
 30
0.0
 10
5.0603059139999971
 20
232.94467994199999
 30
0.0
  0
LWPOLYLINE
  5
11A
  8
Layer_1
 62
1
420
16711680
370
-1
  6
ByLayer
100
AcDbEntity
100
AcDbPolyline
 90
3
 70
0
 10
-12.589372901999994
 20
234.95062348599998
 10
-12.596805360000005
 20
236.45543477199999
 10
1.5484902000000034
 20
236.45543477199999
  0
SPLINE
  5
11B
  8
Layer_1
 62
1
420
16711680
370
-1
  6
ByLayer
100
AcDbEntity
100
AcDbSpline
 70
8
 71
3
 72
8
 73
4
 74
0
 40
0.0
 40
0.0
 40
0.0
 40
0.0
 40
1.0
 40
1.0
 40
1.0
 40
1.0
 10
3.203712515999996
 20
228.17542325199997
 30
0.0
 10
1.6812060359999919
 20
228.17542325199997
 30
0.0
 10
0.4481942339999989
 20
226.94276633199999
 30
0.0
 10
0.4481942339999989
 20
225.42025985200002
 30
0.0
  0
LWPOLYLINE
  5
11C
  8
Layer_1
 62
1
420
16711680
370
-1
  6
ByLayer
100
AcDbEntity
100
AcDbPolyline
 90
3
 70
0
 10
5.0603059139999971
 20
232.94467994199999
 10
5.0603059139999971
 20
228.17967054999997
 10
3.203712515999996
 20
228.17542325199997
  0
SPLINE
  5
11D
  8
Layer_1
 62
1
420
16711680
370
-1
  6
ByLayer
100
AcDbEntity
100
AcDbSpline
 70
8
 71
3
 72
8
 73
4
 74
0
 40
0.0
 40
0.0
 40
0.0
 40
0.0
 40
1.0
 40
1.0
 40
1.0
 40
1.0
 10
4.7081689199999914
 20
225.42025985200002
 30
0.0
 10
4.7081689199999914
 20
226.25158661199998
 30
0.0
 10
4.0346843939999957
 20
226.92507113800002
 30
0.0
 10
3.2040661439999951
 20
226.92507113800002
 30
0.0
  0
SPLINE
  5
11E
  8
Layer_1
 62
1
420
16711680
370
-1
  6
ByLayer
100
AcDbEntity
100
AcDbSpline
 70
8
 71
3
 72
8
 73
4
 74
0
 40
0.0
 40
0.0
 40
0.0
 40
0.0
 40
1.0
 40
1.0
 40
1.0
 40
1.0
 10
3.2040661439999951
 20
226.92507113800002
 30
0.0
 10
2.3727393840000133
 20
226.92507113800002
 30
0.0
 10
1.6992548580000033
 20
226.25158661199998
 30
0.0
 10
1.6992548580000033
 20
225.42025985200002
 30
0.0
  0
SPLINE
  5
11F
  8
Layer_1
 62
1
420
16711680
370
-1
  6
ByLayer
100
AcDbEntity
100
AcDbSpline
 70
8
 71
3
 72
8
 73
4
 74
0
 40
0.0
 40
0.0
 40
0.0
 40
0.0
 40
1.0
 40
1.0
 40
1.0
 40
1.0
 10
1.6992548580000033
 20
225.42025985200002
 30
0.0
 10
1.6992548580000033
 20
224.58928671999999
 30
0.0
 10
2.3727393840000133
 20
223.91544856599998
 30
0.0
 10
3.2040661439999951
 20
223.91544856599998
 30
0.0
  0
SPLINE
  5
120
  8
Layer_1
 62
1
420
16711680
370
-1
  6
ByLayer
100
AcDbEntity
100
AcDbSpline
 70
8
 71
3
 72
8
 73
4
 74
0
 40
0.0
 40
0.0
 40
0.0
 40
0.0
 40
1.0
 40
1.0
 40
1.0
 40
1.0
 10
3.2040661439999951
 20
223.91544856599998
 30
0.0
 10
4.0343307659999965
 20
223.91544856599998
 30
0.0
 10
4.7081689199999914
 20
224.58928671999999
 30
0.0
 10
4.7081689199999914
 20
225.42025985200002
 30
0.0
  0
LWPOLYLINE
  5
121
  8
Layer_1
 62
1
420
16711680
370
-1
  6
ByLayer
100
AcDbEntity
100
AcDbPolyline
 90
4
 70
0
 10
0.4481942339999989
 20
225.42025985200002
 10
0.4443018179999854
 20
223.91544856599998
 10
-12.257762633999988
 20
223.91544856599998
 10
-12.257762633999988
 20
223.91544856599998
  0
SPLINE
  5
122
  8
Layer_1
 62
1
420
16711680
370
-1
  6
ByLayer
100
AcDbEntity
100
AcDbSpline
 70
8
 71
3
 72
8
 73
4
 74
0
 40
0.0
 40
0.0
 40
0.0
 40
0.0
 40
1.0
 40
1.0
 40
1.0
 40
1.0
 10
-13.851049889999999
 20
234.95097711399998
 30
0.0
 10
-13.851049889999999
 20
235.78195024600001
 30
0.0
 10
-14.524534416000009
 20
236.45578840000002
 30
0.0
 10
-15.355861175999991
 20
236.45578840000002
 30
0.0
  0
SPLINE
  5
123
  8
Layer_1
 62
1
420
16711680
370
-1
  6
ByLayer
100
AcDbEntity
100
AcDbSpline
 70
8
 71
3
 72
8
 73
4
 74
0
 40
0.0
 40
0.0
 40
0.0
 40
0.0
 40
1.0
 40
1.0
 40
1.0
 40
1.0
 10
-15.355861175999991
 20
236.45578840000002
 30
0.0
 10
-16.187187936000001
 20
236.45578840000002
 30
0.0
 10
-16.860672462000011
 20
235.78195024600001
 30
0.0
 10
-16.860672462000011
 20
234.95097711399998
 30
0.0
  0
SPLINE
  5
124
  8
Layer_1
 62
1
420
16711680
370
-1
  6
ByLayer
100
AcDbEntity
100
AcDbSpline
 70
8
 71
3
 72
8
 73
4
 74
0
 40
0.0
 40
0.0
 40
0.0
 40
0.0
 40
1.0
 40
1.0
 40
1.0
 40
1.0
 10
-16.860672462000011
 20
234.95097711399998
 30
0.0
 10
-16.860672462000011
 20
234.11965035399999
 30
0.0
 10
-16.187187936000001
 20
233.44616582800001
 30
0.0
 10
-15.355861175999991
 20
233.44616582800001
 30
0.0
  0
SPLINE
  5
125
  8
Layer_1
 62
1
420
16711680
370
-1
  6
ByLayer
100
AcDbEntity
100
AcDbSpline
 70
8
 71
3
 72
8
 73
4
 74
0
 40
0.0
 40
0.0
 40
0.0
 40
0.0
 40
1.0
 40
1.0
 40
1.0
 40
1.0
 10
-15.355861175999991
 20
233.44616582800001
 30
0.0
 10
-14.524534416000009
 20
233.44616582800001
 30
0.0
 10
-13.851049889999999
 20
234.11965035399999
 30
0.0
 10
-13.851049889999999
 20
234.95097711399998
 30
0.0
  0
LWPOLYLINE
  5
126
  8
Layer_1
 62
1
420
16711680
370
-1
  6
ByLayer
100
AcDbEntity
100
AcDbPolyline
 90
2
 70
0
 10
4.7081689199999914
 20
225.42025985200002
 10
4.7081689199999914
 20
225.42025985200002
  0
LWPOLYLINE
  5
127
  8
Layer_1
 62
1
420
16711680
370
-1
  6
ByLayer
100
AcDbEntity
100
AcDbPolyline
 90
2
 70
0
 10
-13.851049889999999
 20
234.95097711399998
 10
-13.851049889999999
 20
234.95097711399998
  0
ENDSEC
  0
SECTION
  2
OBJECTS
  0
DICTIONARY
  5
C
100
AcDbDictionary
280
0
281
1
  3
ACAD_GROUP
350
D
  3
ACAD_LAYOUT
350
1A
  3
ACAD_MLINESTYLE
350
17
  3
ACAD_PLOTSETTINGS
350
19
  3
ACAD_PLOTSTYLENAME
350
E
  3
AcDbVariableDictionary
350
128
  0
DICTIONARY
  5
D
100
AcDbDictionary
280
0
281
1
  0
ACDBDICTIONARYWDFLT
  5
E
100
AcDbDictionary
281
1
  3
Normal
350
F
100
AcDbDictionaryWithDefault
340
F
  0
ACDBPLACEHOLDER
  5
F
  0
DICTIONARY
  5
17
100
AcDbDictionary
280
0
281
1
  3
Standard
350
18
  0
MLINESTYLE
  5
18
100
AcDbMlineStyle
  2
STANDARD
 70
0
  3

 62
256
 51
90.0
 52
90.0
 71
2
 49
0.5
 62
256
  6
BYLAYER
 49
-0.5
 62
256
  6
BYLAYER
  0
DICTIONARY
  5
19
100
AcDbDictionary
280
0
281
1
  0
DICTIONARY
  5
1A
100
AcDbDictionary
281
1
  3
Layout1
350
1E
  3
Layout2
350
26
  3
Model
350
22
  0
LAYOUT
  5
1E
100
AcDbPlotSettings
  1

  2
C:\Program Files\AutoCAD 2002\plotters\DWF ePlot (optimized for plotting).pc3
  4

  6

 40
0.0
 41
0.0
 42
0.0
 43
0.0
 44
0.0
 45
0.0
 46
0.0
 47
0.0
 48
0.0
 49
0.0
140
0.0
141
0.0
142
1.0
143
1.0
 70
688
 72
0
 73
0
 74
5
  7

 75
16
147
1.0
148
0.0
149
0.0
100
AcDbLayout
  1
Layout1
 70
1
 71
1
 10
0.0
 20
0.0
 11
420.0
 21
297.0
 12
0.0
 22
0.0
 32
0.0
 14
100000000000000000000.0
 24
100000000000000000000.0
 34
100000000000000000000.0
 15
-100000000000000000000.0
 25
-100000000000000000000.0
 35
-100000000000000000000.0
146
0.0
 13
0.0
 23
0.0
 33
0.0
 16
1.0
 26
0.0
 36
0.0
 17
0.0
 27
1.0
 37
0.0
 76
0
330
1B
  0
LAYOUT
  5
22
100
AcDbPlotSettings
  1

  2
C:\Program Files\AutoCAD 2002\plotters\DWF ePlot (optimized for plotting).pc3
  4

  6

 40
0.0
 41
0.0
 42
0.0
 43
0.0
 44
0.0
 45
0.0
 46
0.0
 47
0.0
 48
0.0
 49
0.0
140
0.0
141
0.0
142
1.0
143
1.0
 70
1712
 72
0
 73
0
 74
0
  7

 75
0
147
1.0
148
0.0
149
0.0
100
AcDbLayout
  1
Model
 70
1
 71
0
 10
0.0
 20
0.0
 11
12.0
 21
9.0
 12
0.0
 22
0.0
 32
0.0
 14
0.0
 24
0.0
 34
0.0
 15
0.0
 25
0.0
 35
0.0
146
0.0
 13
0.0
 23
0.0
 33
0.0
 16
1.0
 26
0.0
 36
0.0
 17
0.0
 27
1.0
 37
0.0
 76
0
330
1F
  0
LAYOUT
  5
26
100
AcDbPlotSettings
  1

  2
C:\Program Files\AutoCAD 2002\plotters\DWF ePlot (optimized for plotting).pc3
  4

  6

 40
0.0
 41
0.0
 42
0.0
 43
0.0
 44
0.0
 45
0.0
 46
0.0
 47
0.0
 48
0.0
 49
0.0
140
0.0
141
0.0
142
1.0
143
1.0
 70
688
 72
0
 73
0
 74
5
  7

 75
16
147
1.0
148
0.0
149
0.0
100
AcDbLayout
  1
Layout2
 70
1
 71
2
 10
0.0
 20
0.0
 11
12.0
 21
9.0
 12
0.0
 22
0.0
 32
0.0
 14
0.0
 24
0.0
 34
0.0
 15
0.0
 25
0.0
 35
0.0
146
0.0
 13
0.0
 23
0.0
 33
0.0
 16
1.0
 26
0.0
 36
0.0
 17
0.0
 27
1.0
 37
0.0
 76
0
330
23
  0
DICTIONARY
  5
128
100
AcDbDictionary
281
1
  3
DIMASSOC
350
12A
  3
HIDETEXT
350
129
  0
DICTIONARYVAR
  5
129
100
DictionaryVariables
280
0
  1
2
  0
DICTIONARYVAR
  5
12A
100
DictionaryVariables
280
0
  1
1
  0
ENDSEC
  0
EOF
