  0
SECTION
  2
HEADER
  9
$ACADVER
  1
AC1024
  9
$ACADMAINTVER
 70
     6
  9
$DWGCODEPAGE
  3
ASCII
  9
$INSBASE
 10
0.0
 20
0.0
 30
0.0
  9
$EXTMIN
 10
1.000000000000000E+20
 20
1.000000000000000E+20
 30
1.000000000000000E+20
  9
$EXTMAX
 10
-1.000000000000000E+20
 20
-1.000000000000000E+20
 30
-1.000000000000000E+20
  9
$LIMMIN
 10
0.0
 20
0.0
  9
$LIMMAX
 10
12.0
 20
9.0
  9
$ORTHOMODE
 70
     0
  9
$REGENMODE
 70
     1
  9
$FILLMODE
 70
     1
  9
$QTEXTMODE
 70
     0
  9
$MIRRTEXT
 70
     1
  9
$LTSCALE
 40
1.0
  9
$ATTMODE
 70
     1
  9
$TEXTSIZE
 40
0.2
  9
$TRACEWID
 40
0.05
  9
$TEXTSTYLE
  7
Standard
  9
$CLAYER
  8
0
  9
$CELTYPE
  6
ByLayer
  9
$CECOLOR
 62
   256
  9
$CELTSCALE
 40
1.0
  9
$DISPSILH
 70
     0
  9
$DIMSCALE
 40
1.0
  9
$DIMASZ
 40
2.5
  9
$DIMEXO
 40
0.625
  9
$DIMDLI
 40
0.38
  9
$DIMRND
 40
0.0
  9
$DIMDLE
 40
0.0
  9
$DIMEXE
 40
1.25
  9
$DIMTP
 40
0.0
  9
$DIMTM
 40
0.0
  9
$DIMTXT
 40
2.5
  9
$DIMCEN
 40
0.09
  9
$DIMTSZ
 40
0.0
  9
$DIMTOL
 70
     0
  9
$DIMLIM
 70
     0
  9
$DIMTIH
 70
     1
  9
$DIMTOH
 70
     1
  9
$DIMSE1
 70
     0
  9
$DIMSE2
 70
     0
  9
$DIMTAD
 70
     0
  9
$DIMZIN
 70
     8
  9
$DIMBLK
  1

  9
$DIMASO
 70
     1
  9
$DIMSHO
 70
     1
  9
$DIMPOST
  1

  9
$DIMAPOST
  1

  9
$DIMALT
 70
     0
  9
$DIMALTD
 70
     2
  9
$DIMALTF
 40
25.4
  9
$DIMLFAC
 40
1.0
  9
$DIMTOFL
 70
     0
  9
$DIMTVP
 40
0.0
  9
$DIMTIX
 70
     0
  9
$DIMSOXD
 70
     0
  9
$DIMSAH
 70
     0
  9
$DIMBLK1
  1

  9
$DIMBLK2
  1

  9
$DIMSTYLE
  2
Standard
  9
$DIMCLRD
 70
     0
  9
$DIMCLRE
 70
     0
  9
$DIMCLRT
 70
     0
  9
$DIMTFAC
 40
1.0
  9
$DIMGAP
 40
0.625
  9
$DIMJUST
 70
     0
  9
$DIMSD1
 70
     0
  9
$DIMSD2
 70
     0
  9
$DIMTOLJ
 70
     1
  9
$DIMTZIN
 70
     0
  9
$DIMALTZ
 70
     0
  9
$DIMALTTZ
 70
     0
  9
$DIMUPT
 70
     0
  9
$DIMDEC
 70
     4
  9
$DIMTDEC
 70
     4
  9
$DIMALTU
 70
     2
  9
$DIMALTTD
 70
     2
  9
$DIMTXSTY
  7
Standard
  9
$DIMAUNIT
 70
     0
  9
$DIMADEC
 70
     0
  9
$DIMALTRND
 40
0.0
  9
$DIMAZIN
 70
     2
  9
$DIMDSEP
 70
    46
  9
$DIMATFIT
 70
     3
  9
$DIMFRAC
 70
     0
  9
$DIMLDRBLK
  1

  9
$DIMLUNIT
 70
     2
  9
$DIMLWD
 70
    -2
  9
$DIMLWE
 70
    -2
  9
$DIMTMOVE
 70
     0
  9
$DIMFXL
 40
1.0
  9
$DIMFXLON
 70
     0
  9
$DIMJOGANG
 40
0.7853981633974483
  9
$DIMTFILL
 70
     0
  9
$DIMTFILLCLR
 70
     0
  9
$DIMARCSYM
 70
     0
  9
$DIMLTYPE
  6

  9
$DIMLTEX1
  6

  9
$DIMLTEX2
  6

  9
$DIMTXTDIRECTION
 70
     0
  9
$LUNITS
 70
     2
  9
$LUPREC
 70
     4
  9
$SKETCHINC
 40
0.1
  9
$FILLETRAD
 40
0.5
  9
$AUNITS
 70
     0
  9
$AUPREC
 70
     0
  9
$MENU
  1
.
  9
$ELEVATION
 40
0.0
  9
$PELEVATION
 40
0.0
  9
$THICKNESS
 40
0.0
  9
$LIMCHECK
 70
     0
  9
$CHAMFERA
 40
0.5
  9
$CHAMFERB
 40
0.5
  9
$CHAMFERC
 40
1.0
  9
$CHAMFERD
 40
0.0
  9
$SKPOLY
 70
     0
  9
$TDCREATE
 40
2455861.680094132
  9
$TDUCREATE
 40
2455861.846760799
  9
$TDUPDATE
 40
2455861.680094132
  9
$TDUUPDATE
 40
2455861.846760799
  9
$TDINDWG
 40
0.0000000116
  9
$TDUSRTIMER
 40
0.0000000116
  9
$USRTIMER
 70
     1
  9
$ANGBASE
 50
0.0
  9
$ANGDIR
 70
     0
  9
$PDMODE
 70
     0
  9
$PDSIZE
 40
0.0
  9
$PLINEWID
 40
0.0
  9
$SPLFRAME
 70
     0
  9
$SPLINETYPE
 70
     6
  9
$SPLINESEGS
 70
     8
  9
$HANDSEED
  5
14A
  9
$SURFTAB1
 70
     6
  9
$SURFTAB2
 70
     6
  9
$SURFTYPE
 70
     6
  9
$SURFU
 70
     6
  9
$SURFV
 70
     6
  9
$UCSBASE
  2

  9
$UCSNAME
  2

  9
$UCSORG
 10
0.0
 20
0.0
 30
0.0
  9
$UCSXDIR
 10
1.0
 20
0.0
 30
0.0
  9
$UCSYDIR
 10
0.0
 20
1.0
 30
0.0
  9
$UCSORTHOREF
  2

  9
$UCSORTHOVIEW
 70
     0
  9
$UCSORGTOP
 10
0.0
 20
0.0
 30
0.0
  9
$UCSORGBOTTOM
 10
0.0
 20
0.0
 30
0.0
  9
$UCSORGLEFT
 10
0.0
 20
0.0
 30
0.0
  9
$UCSORGRIGHT
 10
0.0
 20
0.0
 30
0.0
  9
$UCSORGFRONT
 10
0.0
 20
0.0
 30
0.0
  9
$UCSORGBACK
 10
0.0
 20
0.0
 30
0.0
  9
$PUCSBASE
  2

  9
$PUCSNAME
  2

  9
$PUCSORG
 10
0.0
 20
0.0
 30
0.0
  9
$PUCSXDIR
 10
1.0
 20
0.0
 30
0.0
  9
$PUCSYDIR
 10
0.0
 20
1.0
 30
0.0
  9
$PUCSORTHOREF
  2

  9
$PUCSORTHOVIEW
 70
     0
  9
$PUCSORGTOP
 10
0.0
 20
0.0
 30
0.0
  9
$PUCSORGBOTTOM
 10
0.0
 20
0.0
 30
0.0
  9
$PUCSORGLEFT
 10
0.0
 20
0.0
 30
0.0
  9
$PUCSORGRIGHT
 10
0.0
 20
0.0
 30
0.0
  9
$PUCSORGFRONT
 10
0.0
 20
0.0
 30
0.0
  9
$PUCSORGBACK
 10
0.0
 20
0.0
 30
0.0
  9
$USERI1
 70
     0
  9
$USERI2
 70
     0
  9
$USERI3
 70
     0
  9
$USERI4
 70
     0
  9
$USERI5
 70
     0
  9
$USERR1
 40
0.0
  9
$USERR2
 40
0.0
  9
$USERR3
 40
0.0
  9
$USERR4
 40
0.0
  9
$USERR5
 40
0.0
  9
$WORLDVIEW
 70
     1
  9
$SHADEDGE
 70
     3
  9
$SHADEDIF
 70
    70
  9
$TILEMODE
 70
     1
  9
$MAXACTVP
 70
    64
  9
$PINSBASE
 10
0.0
 20
0.0
 30
0.0
  9
$PLIMCHECK
 70
     0
  9
$PEXTMIN
 10
1.000000000000000E+20
 20
1.000000000000000E+20
 30
1.000000000000000E+20
  9
$PEXTMAX
 10
-1.000000000000000E+20
 20
-1.000000000000000E+20
 30
-1.000000000000000E+20
  9
$PLIMMIN
 10
0.0
 20
0.0
  9
$PLIMMAX
 10
12.0
 20
9.0
  9
$UNITMODE
 70
     0
  9
$VISRETAIN
 70
     1
  9
$PLINEGEN
 70
     0
  9
$PSLTSCALE
 70
     1
  9
$TREEDEPTH
 70
  3020
  9
$CMLSTYLE
  2
Standard
  9
$CMLJUST
 70
     0
  9
$CMLSCALE
 40
1.0
  9
$PROXYGRAPHICS
 70
     1
  9
$MEASUREMENT
 70
     1
  9
$CELWEIGHT
370
    -1
  9
$ENDCAPS
280
     0
  9
$JOINSTYLE
280
     0
  9
$LWDISPLAY
290
     0
  9
$INSUNITS
 70
     4
  9
$HYPERLINKBASE
  1

  9
$STYLESHEET
  1

  9
$XEDIT
290
     1
  9
$CEPSNTYPE
380
     0
  9
$PSTYLEMODE
290
     1
  9
$FINGERPRINTGUID
  2
{3141932E-AB05-4985-8E0B-5FABBA1F6515}
  9
$VERSIONGUID
  2
{FAEB1C32-E019-11D5-929B-00C0DF256EC4}
  9
$EXTNAMES
290
     1
  9
$PSVPSCALE
 40
0.0
  9
$OLESTARTUP
290
     0
  9
$SORTENTS
280
   127
  9
$INDEXCTL
280
     0
  9
$HIDETEXT
280
     1
  9
$XCLIPFRAME
280
     2
  9
$HALOGAP
280
     0
  9
$OBSCOLOR
 70
   257
  9
$OBSLTYPE
280
     0
  9
$INTERSECTIONDISPLAY
280
     0
  9
$INTERSECTIONCOLOR
 70
   257
  9
$DIMASSOC
280
     2
  9
$PROJECTNAME
  1

  9
$CAMERADISPLAY
290
     0
  9
$LENSLENGTH
 40
50.0
  9
$CAMERAHEIGHT
 40
0.0
  9
$STEPSPERSEC
 40
2.0
  9
$STEPSIZE
 40
6.0
  9
$3DDWFPREC
 40
2.0
  9
$PSOLWIDTH
 40
0.25
  9
$PSOLHEIGHT
 40
4.0
  9
$LOFTANG1
 40
1.570796326794897
  9
$LOFTANG2
 40
1.570796326794897
  9
$LOFTMAG1
 40
0.0
  9
$LOFTMAG2
 40
0.0
  9
$LOFTPARAM
 70
     7
  9
$LOFTNORMALS
280
     1
  9
$LATITUDE
 40
37.795
  9
$LONGITUDE
 40
-122.394
  9
$NORTHDIRECTION
 40
0.0
  9
$TIMEZONE
 70
 -8000
  9
$LIGHTGLYPHDISPLAY
280
     1
  9
$TILEMODELIGHTSYNCH
280
     1
  9
$SOLIDHIST
280
     1
  9
$SHOWHIST
280
     1
  9
$DWFFRAME
280
     2
  9
$DGNFRAME
280
     2
  9
$REALWORLDSCALE
290
     1
  9
$INTERFERECOLOR
 62
   256
  9
$CSHADOW
280
     0
  9
$SHADOWPLANELOCATION
 40
0.0
  0
ENDSEC
  0
SECTION
  2
CLASSES
  0
CLASS
  1
ACDBDICTIONARYWDFLT
  2
AcDbDictionaryWithDefault
  3
ObjectDBX Classes
 90
        0
 91
        4
280
     0
281
     0
  0
CLASS
  1
VISUALSTYLE
  2
AcDbVisualStyle
  3
ObjectDBX Classes
 90
     4095
 91
        4
280
     0
281
     0
  0
CLASS
  1
MATERIAL
  2
AcDbMaterial
  3
ObjectDBX Classes
 90
     1153
 91
        4
280
     0
281
     0
  0
ENDSEC
  0
SECTION
  2
TABLES
  0
TABLE
  2
VPORT
  5
F8
330
0
100
AcDbSymbolTable
 70
     1
  0
VPORT
  5
118
330
F8
100
AcDbSymbolTableRecord
100
AcDbViewportTableRecord
  2
*Active
 70
     0
 10
0.0
 20
0.0
 11
1.0
 21
1.0
 12
10.42990654205607
 22
4.5
 13
0.0
 23
0.0
 14
0.5
 24
0.5
 15
0.5
 25
0.5
 16
0.0
 26
0.0
 36
1.0
 17
0.0
 27
0.0
 37
0.0
 40
9.0
 41
1.972972972850329
 42
50.0
 43
0.0
 44
0.0
 50
0.0
 51
0.0
 71
     0
 72
   100
 73
     1
 74
     3
 75
     0
 76
     0
 77
     0
 78
     0
281
     0
 65
     1
110
0.0
120
0.0
130
0.0
111
1.0
121
0.0
131
0.0
112
0.0
122
1.0
132
0.0
 79
     0
146
0.0
 60
     3
 61
     5
292
     1
282
     1
141
0.0
142
0.0
 63
   250
  0
ENDTAB
  0
TABLE
  2
LTYPE
  5
F5
330
0
100
AcDbSymbolTable
 70
    19
  0
LTYPE
  5
103
330
F5
100
AcDbSymbolTableRecord
100
AcDbLinetypeTableRecord
  2
ByBlock
 70
     0
  3

 72
    65
 73
     0
 40
0.0
  0
LTYPE
  5
104
330
F5
100
AcDbSymbolTableRecord
100
AcDbLinetypeTableRecord
  2
ByLayer
 70
     0
  3

 72
    65
 73
     0
 40
0.0
  0
LTYPE
  5
105
330
F5
100
AcDbSymbolTableRecord
100
AcDbLinetypeTableRecord
  2
Continuous
 70
     0
  3
Solid line
 72
    65
 73
     0
 40
0.0
  0
LTYPE
  5
133
330
F5
100
AcDbSymbolTableRecord
100
AcDbLinetypeTableRecord
  2
BORDER
 70
     0
  3

 72
    65
 73
     6
 40
42.00000000000001
 49
12.0
 74
     0
 49
-6.0
 74
     0
 49
12.0
 74
     0
 49
-5.95
 74
     0
 49
0.1
 74
     0
 49
-5.95
 74
     0
  0
LTYPE
  5
134
330
F5
100
AcDbSymbolTableRecord
100
AcDbLinetypeTableRecord
  2
BORDER2
 70
     0
  3

 72
    65
 73
     6
 40
21.0
 49
6.0
 74
     0
 49
-3.0
 74
     0
 49
6.0
 74
     0
 49
-2.95
 74
     0
 49
0.1
 74
     0
 49
-2.95
 74
     0
  0
LTYPE
  5
135
330
F5
100
AcDbSymbolTableRecord
100
AcDbLinetypeTableRecord
  2
BORDERX2
 70
     0
  3

 72
    65
 73
     6
 40
84.0
 49
24.0
 74
     0
 49
-12.0
 74
     0
 49
24.0
 74
     0
 49
-11.95
 74
     0
 49
0.1
 74
     0
 49
-11.95
 74
     0
  0
LTYPE
  5
136
330
F5
100
AcDbSymbolTableRecord
100
AcDbLinetypeTableRecord
  2
CENTER
 70
     0
  3

 72
    65
 73
     4
 40
50.0
 49
32.0
 74
     0
 49
-6.0
 74
     0
 49
6.0
 74
     0
 49
-6.0
 74
     0
  0
LTYPE
  5
137
330
F5
100
AcDbSymbolTableRecord
100
AcDbLinetypeTableRecord
  2
CENTER2
 70
     0
  3

 72
    65
 73
     4
 40
25.0
 49
16.0
 74
     0
 49
-3.0
 74
     0
 49
3.0
 74
     0
 49
-3.0
 74
     0
  0
LTYPE
  5
138
330
F5
100
AcDbSymbolTableRecord
100
AcDbLinetypeTableRecord
  2
CENTERX2
 70
     0
  3

 72
    65
 73
     4
 40
100.0
 49
64.0
 74
     0
 49
-12.0
 74
     0
 49
12.0
 74
     0
 49
-12.0
 74
     0
  0
LTYPE
  5
139
330
F5
100
AcDbSymbolTableRecord
100
AcDbLinetypeTableRecord
  2
DASHDOT
 70
     0
  3

 72
    65
 73
     4
 40
24.0
 49
12.0
 74
     0
 49
-5.95
 74
     0
 49
0.1
 74
     0
 49
-5.95
 74
     0
  0
LTYPE
  5
13A
330
F5
100
AcDbSymbolTableRecord
100
AcDbLinetypeTableRecord
  2
DASHDOT2
 70
     0
  3

 72
    65
 73
     4
 40
12.0
 49
6.0
 74
     0
 49
-2.95
 74
     0
 49
0.1
 74
     0
 49
-2.95
 74
     0
  0
LTYPE
  5
13B
330
F5
100
AcDbSymbolTableRecord
100
AcDbLinetypeTableRecord
  2
DASHDOTX2
 70
     0
  3

 72
    65
 73
     4
 40
48.0
 49
24.0
 74
     0
 49
-11.95
 74
     0
 49
0.1
 74
     0
 49
-11.95
 74
     0
  0
LTYPE
  5
13C
330
F5
100
AcDbSymbolTableRecord
100
AcDbLinetypeTableRecord
  2
DASHED
 70
     0
  3

 72
    65
 73
     2
 40
18.0
 49
12.0
 74
     0
 49
-6.0
 74
     0
  0
LTYPE
  5
13D
330
F5
100
AcDbSymbolTableRecord
100
AcDbLinetypeTableRecord
  2
DASHED2
 70
     0
  3

 72
    65
 73
     2
 40
9.0
 49
6.0
 74
     0
 49
-3.0
 74
     0
  0
LTYPE
  5
13E
330
F5
100
AcDbSymbolTableRecord
100
AcDbLinetypeTableRecord
  2
DASHEDX2
 70
     0
  3

 72
    65
 73
     2
 40
36.0
 49
24.0
 74
     0
 49
-12.0
 74
     0
  0
LTYPE
  5
13F
330
F5
100
AcDbSymbolTableRecord
100
AcDbLinetypeTableRecord
  2
DIVIDE
 70
     0
  3

 72
    65
 73
     6
 40
29.99999999999999
 49
12.0
 74
     0
 49
-5.9
 74
     0
 49
0.15
 74
     0
 49
-5.9
 74
     0
 49
0.15
 74
     0
 49
-5.9
 74
     0
  0
LTYPE
  5
140
330
F5
100
AcDbSymbolTableRecord
100
AcDbLinetypeTableRecord
  2
DIVIDE2
 70
     0
  3

 72
    65
 73
     6
 40
15.0
 49
6.0
 74
     0
 49
-2.9
 74
     0
 49
0.15
 74
     0
 49
-2.9
 74
     0
 49
0.15
 74
     0
 49
-2.9
 74
     0
  0
LTYPE
  5
141
330
F5
100
AcDbSymbolTableRecord
100
AcDbLinetypeTableRecord
  2
DIVIDEX2
 70
     0
  3

 72
    65
 73
     6
 40
59.99999999999999
 49
24.0
 74
     0
 49
-11.9
 74
     0
 49
0.15
 74
     0
 49
-11.9
 74
     0
 49
0.15
 74
     0
 49
-11.9
 74
     0
  0
LTYPE
  5
142
330
F5
100
AcDbSymbolTableRecord
100
AcDbLinetypeTableRecord
  2
DOT
 70
     0
  3

 72
    65
 73
     2
 40
6.3
 49
0.1
 74
     0
 49
-6.2
 74
     0
  0
LTYPE
  5
143
330
F5
100
AcDbSymbolTableRecord
100
AcDbLinetypeTableRecord
  2
DOT2
 70
     0
  3

 72
    65
 73
     2
 40
3.2
 49
0.1
 74
     0
 49
-3.1
 74
     0
  0
LTYPE
  5
144
330
F5
100
AcDbSymbolTableRecord
100
AcDbLinetypeTableRecord
  2
DOTX2
 70
     0
  3

 72
    65
 73
     2
 40
12.5
 49
0.1
 74
     0
 49
-12.4
 74
     0
  0
ENDTAB
  0
TABLE
  2
LAYER
  5
F2
330
0
100
AcDbSymbolTable
 70
     4
  0
LAYER
  5
100
330
F2
100
AcDbSymbolTableRecord
100
AcDbLayerTableRecord
  2
0
 70
     0
 62
     7
420
 16777215
  6
Continuous
370
    25
390
FF
347
12D
  0
LAYER
  5
145
330
F2
100
AcDbSymbolTableRecord
100
AcDbLayerTableRecord
  2
Graphix
 70
     0
 62
     7
420
 16777215
  6
Continuous
370
    25
390
FF
347
12D
  0
LAYER
  5
146
330
F2
100
AcDbSymbolTableRecord
100
AcDbLayerTableRecord
  2
Cuts
 70
     0
 62
     1
420
 16711680
  6
Continuous
370
    25
390
FF
347
12D
  0
LAYER
  5
147
330
F2
100
AcDbSymbolTableRecord
100
AcDbLayerTableRecord
  2
Text
 70
     0
 62
     5
420
      255
  6
Continuous
370
    25
390
FF
347
12D
  0
ENDTAB
  0
TABLE
  2
STYLE
  5
F3
330
0
100
AcDbSymbolTable
 70
     1
  0
STYLE
  5
101
330
F3
100
AcDbSymbolTableRecord
100
AcDbTextStyleTableRecord
  2
Standard
 70
     0
 40
0.0
 41
1.0
 50
0.0
 71
     0
 42
0.2
  3
txt
  4

  0
ENDTAB
  0
TABLE
  2
VIEW
  5
F6
330
0
100
AcDbSymbolTable
 70
     0
  0
ENDTAB
  0
TABLE
  2
UCS
  5
F7
330
0
100
AcDbSymbolTable
 70
     0
  0
ENDTAB
  0
TABLE
  2
APPID
  5
F9
330
0
100
AcDbSymbolTable
 70
     2
  0
APPID
  5
102
330
F9
100
AcDbSymbolTableRecord
100
AcDbRegAppTableRecord
  2
ACAD
 70
     0
  0
APPID
  5
12E
330
F9
100
AcDbSymbolTableRecord
100
AcDbRegAppTableRecord
  2
QCAD
 70
     0
  0
ENDTAB
  0
TABLE
  2
DIMSTYLE
  5
FA
330
0
100
AcDbSymbolTable
 70
     2
100
AcDbDimStyleTable
  0
DIMSTYLE
105
116
330
FA
100
AcDbSymbolTableRecord
100
AcDbDimStyleTableRecord
  2
Standard
 70
     0
178
     0
340
101
  0
DIMSTYLE
105
132
330
FA
100
AcDbSymbolTableRecord
100
AcDbDimStyleTableRecord
  2
QCADDimStyle
 70
     0
 41
2.5
 42
0.625
 44
1.25
 73
     0
 77
     1
140
2.5
147
0.625
178
     0
340
101
  0
ENDTAB
  0
TABLE
  2
BLOCK_RECORD
  5
F1
330
0
100
AcDbSymbolTable
 70
     1
  0
BLOCK_RECORD
  5
10E
330
F1
100
AcDbSymbolTableRecord
100
AcDbBlockTableRecord
  2
*Model_Space
340
111
 70
     0
280
     1
281
     0
  0
BLOCK_RECORD
  5
10A
330
F1
100
AcDbSymbolTableRecord
100
AcDbBlockTableRecord
  2
*Paper_Space
340
10D
 70
     0
280
     1
281
     0
  0
BLOCK_RECORD
  5
112
330
F1
100
AcDbSymbolTableRecord
100
AcDbBlockTableRecord
  2
*Paper_Space0
340
115
 70
     0
280
     1
281
     0
  0
ENDTAB
  0
ENDSEC
  0
SECTION
  2
BLOCKS
  0
BLOCK
  5
10F
330
10E
100
AcDbEntity
  8
0
100
AcDbBlockBegin
  2
*Model_Space
 70
     0
 10
0.0
 20
0.0
 30
0.0
  3
*Model_Space
  1

  0
ENDBLK
  5
110
330
10E
100
AcDbEntity
  8
0
100
AcDbBlockEnd
  0
BLOCK
  5
10B
330
10A
100
AcDbEntity
 67
     1
  8
0
100
AcDbBlockBegin
  2
*Paper_Space
 70
     0
 10
0.0
 20
0.0
 30
0.0
  3
*Paper_Space
  1

  0
ENDBLK
  5
10C
330
10A
100
AcDbEntity
 67
     1
  8
0
100
AcDbBlockEnd
  0
BLOCK
  5
113
330
112
100
AcDbEntity
  8
0
100
AcDbBlockBegin
  2
*Paper_Space0
 70
     0
 10
0.0
 20
0.0
 30
0.0
  3
*Paper_Space0
  1

  0
ENDBLK
  5
114
330
112
100
AcDbEntity
  8
0
100
AcDbBlockEnd
  0
ENDSEC
  0
SECTION
  2
ENTITIES
  0
SPLINE
  5
18
330
10E
100
AcDbEntity
  8
Cuts
 62
     1
420
 16711680
370
    25
100
AcDbSpline
210
0.0
220
0.0
230
1.0
 70
     8
 71
     3
 72
     8
 73
     4
 74
     0
 42
0.000000001
 43
0.001
 12
1.0
 22
0.0
 32
0.0
 13
1.0
 23
0.0
 33
0.0
 40
0.0
 40
0.0
 40
0.0
 40
0.0
 40
1.0
 40
1.0
 40
1.0
 40
1.0
 10
-92.00026312500006
 20
-114.011620625
 30
0.0
 10
-95.31531687500001
 20
-114.011620625
 30
0.0
 10
-98.00136687500003
 20
-111.3252181249999
 30
0.0
 10
-98.00136687500003
 20
-108.0115768749999
 30
0.0
  0
SPLINE
  5
19
330
10E
100
AcDbEntity
  8
Cuts
 62
     1
420
 16711680
370
    25
100
AcDbSpline
210
0.0
220
0.0
230
1.0
 70
     8
 71
     3
 72
     8
 73
     4
 74
     0
 42
0.000000001
 43
0.001
 12
1.0
 22
0.0
 32
0.0
 13
1.0
 23
0.0
 33
0.0
 40
0.0
 40
0.0
 40
0.0
 40
0.0
 40
1.0
 40
1.0
 40
1.0
 40
1.0
 10
-98.00136687500003
 20
121.988598125
 30
0.0
 10
-98.00136687500003
 20
125.302239375
 30
0.0
 10
-95.31566937500008
 20
127.988643125
 30
0.0
 10
-92.00026312500006
 20
127.988643125
 30
0.0
  0
LWPOLYLINE
  5
1A
330
10E
100
AcDbEntity
  8
Cuts
 62
     1
420
 16711680
370
    25
100
AcDbPolyline
 90
        2
 70
     0
 43
0.0
 10
-98.00136687500003
 20
-108.0115768749999
 10
-98.00136687500003
 20
121.988598125
  0
SPLINE
  5
1B
330
10E
100
AcDbEntity
  8
Cuts
 62
     1
420
 16711680
370
    25
100
AcDbSpline
210
0.0
220
0.0
230
1.0
 70
     8
 71
     3
 72
     8
 73
     4
 74
     0
 42
0.000000001
 43
0.001
 12
1.0
 22
0.0
 32
0.0
 13
1.0
 23
0.0
 33
0.0
 40
0.0
 40
0.0
 40
0.0
 40
0.0
 40
1.0
 40
1.0
 40
1.0
 40
1.0
 10
138.0006168750001
 20
127.988643125
 30
0.0
 10
141.3146118750001
 20
127.988643125
 30
0.0
 10
144.001366875
 20
125.302239375
 30
0.0
 10
144.001366875
 20
121.988598125
 30
0.0
  0
LWPOLYLINE
  5
1C
330
10E
100
AcDbEntity
  8
Cuts
 62
     1
420
 16711680
370
    25
100
AcDbPolyline
 90
        2
 70
     0
 43
0.0
 10
-92.00026312500006
 20
127.988643125
 10
138.0006168750001
 20
127.988643125
  0
SPLINE
  5
1D
330
10E
100
AcDbEntity
  8
Cuts
 62
     1
420
 16711680
370
    25
100
AcDbSpline
210
0.0
220
0.0
230
1.0
 70
     8
 71
     3
 72
     8
 73
     4
 74
     0
 42
0.000000001
 43
0.001
 12
1.0
 22
0.0
 32
0.0
 13
1.0
 23
0.0
 33
0.0
 40
0.0
 40
0.0
 40
0.0
 40
0.0
 40
1.0
 40
1.0
 40
1.0
 40
1.0
 10
144.001366875
 20
-108.0115768749999
 30
0.0
 10
144.001366875
 20
-111.3252181249999
 30
0.0
 10
141.3146118750001
 20
-114.011620625
 30
0.0
 10
138.0006168750001
 20
-114.011620625
 30
0.0
  0
LWPOLYLINE
  5
1E
330
10E
100
AcDbEntity
  8
Cuts
 62
     1
420
 16711680
370
    25
100
AcDbPolyline
 90
        2
 70
     0
 43
0.0
 10
144.001366875
 20
121.988598125
 10
144.001366875
 20
-108.0115768749999
  0
LWPOLYLINE
  5
1F
330
10E
100
AcDbEntity
  8
Cuts
 62
     1
420
 16711680
370
    25
100
AcDbPolyline
 90
        3
 70
     0
 43
0.0
 10
138.0006168750001
 20
-114.011620625
 10
-92.00026312500006
 20
-114.011620625
 10
-92.00026312500006
 20
-114.011620625
  0
LWPOLYLINE
  5
21
330
10E
100
AcDbEntity
  8
Text
 62
     5
420
      255
370
    25
100
AcDbPolyline
 90
        2
 70
     0
 43
0.0
 10
13.00051437499997
 20
-106.863638125
 10
13.00051437499997
 20
-103.0127156249999
  0
LWPOLYLINE
  5
22
330
10E
100
AcDbEntity
  8
Text
 62
     5
420
      255
370
    25
100
AcDbPolyline
 90
        2
 70
     0
 43
0.0
 10
3.000321875000054
 20
-103.0127156249999
 10
3.000321875000054
 20
-106.863638125
  0
LWPOLYLINE
  5
23
330
10E
100
AcDbEntity
  8
Text
 62
     5
420
      255
370
    25
100
AcDbPolyline
 90
        2
 70
     0
 43
0.0
 10
3.000321875000054
 20
116.9890318750001
 10
3.000321875000054
 20
120.841011875
  0
LWPOLYLINE
  5
24
330
10E
100
AcDbEntity
  8
Text
 62
     5
420
      255
370
    25
100
AcDbPolyline
 90
        2
 70
     0
 43
0.0
 10
-6.99951687500004
 20
120.841011875
 10
-6.99951687500004
 20
116.9890318750001
  0
LWPOLYLINE
  5
25
330
10E
100
AcDbEntity
  8
Text
 62
     5
420
      255
370
    25
100
AcDbPolyline
 90
        2
 70
     0
 43
0.0
 10
-6.99951687500004
 20
-106.863638125
 10
-6.99951687500004
 20
-103.0127156249999
  0
LWPOLYLINE
  5
26
330
10E
100
AcDbEntity
  8
Text
 62
     5
420
      255
370
    25
100
AcDbPolyline
 90
        2
 70
     0
 43
0.0
 10
-16.99970812499998
 20
116.9890318750001
 10
-16.99970812499998
 20
120.841011875
  0
LWPOLYLINE
  5
27
330
10E
100
AcDbEntity
  8
Text
 62
     5
420
      255
370
    25
100
AcDbPolyline
 90
        2
 70
     0
 43
0.0
 10
-16.99970812499998
 20
-103.0127156249999
 10
-16.99970812499998
 20
-106.863638125
  0
LWPOLYLINE
  5
28
330
10E
100
AcDbEntity
  8
Text
 62
     5
420
      255
370
    25
100
AcDbPolyline
 90
        2
 70
     0
 43
0.0
 10
-27.00025312500009
 20
120.841011875
 10
-27.00025312500009
 20
116.9890318750001
  0
LWPOLYLINE
  5
29
330
10E
100
AcDbEntity
  8
Text
 62
     5
420
      255
370
    25
100
AcDbPolyline
 90
        2
 70
     0
 43
0.0
 10
-27.00025312500009
 20
-106.863638125
 10
-27.00025312500009
 20
-103.0127156249999
  0
LWPOLYLINE
  5
2A
330
10E
100
AcDbEntity
  8
Text
 62
     5
420
      255
370
    25
100
AcDbPolyline
 90
        2
 70
     0
 43
0.0
 10
-36.99938562499995
 20
116.9890318750001
 10
-36.99938562499995
 20
120.841011875
  0
LWPOLYLINE
  5
2B
330
10E
100
AcDbEntity
  8
Text
 62
     5
420
      255
370
    25
100
AcDbPolyline
 90
        2
 70
     0
 43
0.0
 10
-36.99938562499995
 20
-103.0127156249999
 10
-36.99938562499995
 20
-106.863638125
  0
LWPOLYLINE
  5
2C
330
10E
100
AcDbEntity
  8
Text
 62
     5
420
      255
370
    25
100
AcDbPolyline
 90
        2
 70
     0
 43
0.0
 10
-47.00204687499991
 20
120.841011875
 10
-47.00204687499991
 20
116.9890318750001
  0
LWPOLYLINE
  5
2D
330
10E
100
AcDbEntity
  8
Text
 62
     5
420
      255
370
    25
100
AcDbPolyline
 90
        2
 70
     0
 43
0.0
 10
-47.00204687499991
 20
-106.863638125
 10
-47.00204687499991
 20
-103.0127156249999
  0
LWPOLYLINE
  5
2E
330
10E
100
AcDbEntity
  8
Text
 62
     5
420
      255
370
    25
100
AcDbPolyline
 90
        2
 70
     0
 43
0.0
 10
-57.00259187500001
 20
-103.0127156249999
 10
-57.00259187500001
 20
-106.863638125
  0
LWPOLYLINE
  5
2F
330
10E
100
AcDbEntity
  8
Text
 62
     5
420
      255
370
    25
100
AcDbPolyline
 90
        2
 70
     0
 43
0.0
 10
-57.00259187500001
 20
116.9890318750001
 10
-57.00259187500001
 20
120.841011875
  0
LWPOLYLINE
  5
30
330
10E
100
AcDbEntity
  8
Text
 62
     5
420
      255
370
    25
100
AcDbPolyline
 90
        2
 70
     0
 43
0.0
 10
-67.00278312500006
 20
-106.863638125
 10
-67.00278312500006
 20
-103.0127156249999
  0
LWPOLYLINE
  5
31
330
10E
100
AcDbEntity
  8
Text
 62
     5
420
      255
370
    25
100
AcDbPolyline
 90
        2
 70
     0
 43
0.0
 10
-67.00278312500006
 20
120.841011875
 10
-67.00278312500006
 20
116.9890318750001
  0
LWPOLYLINE
  5
32
330
10E
100
AcDbEntity
  8
Text
 62
     5
420
      255
370
    25
100
AcDbPolyline
 90
        2
 70
     0
 43
0.0
 10
-77.00262187500005
 20
-103.0127156249999
 10
-77.00262187500005
 20
-106.863638125
  0
LWPOLYLINE
  5
33
330
10E
100
AcDbEntity
  8
Text
 62
     5
420
      255
370
    25
100
AcDbPolyline
 90
        2
 70
     0
 43
0.0
 10
-77.00262187500005
 20
116.9890318750001
 10
-77.00262187500005
 20
120.841011875
  0
LWPOLYLINE
  5
34
330
10E
100
AcDbEntity
  8
Text
 62
     5
420
      255
370
    25
100
AcDbPolyline
 90
        2
 70
     0
 43
0.0
 10
-87.00246062500003
 20
-106.863638125
 10
-87.00246062500003
 20
120.841011875
  0
LWPOLYLINE
  5
35
330
10E
100
AcDbEntity
  8
Text
 62
     5
420
      255
370
    25
100
AcDbPolyline
 90
        2
 70
     0
 43
0.0
 10
137.059405625
 20
116.9890318750001
 10
-91.06152187500004
 20
116.9890318750001
  0
LWPOLYLINE
  5
36
330
10E
100
AcDbEntity
  8
Text
 62
     5
420
      255
370
    25
100
AcDbPolyline
 90
        2
 70
     0
 43
0.0
 10
137.059405625
 20
106.9895456250001
 10
133.0006968749999
 20
106.9895456250001
  0
LWPOLYLINE
  5
37
330
10E
100
AcDbEntity
  8
Text
 62
     5
420
      255
370
    25
100
AcDbPolyline
 90
        2
 70
     0
 43
0.0
 10
-91.06152187500004
 20
106.9895456250001
 10
-87.00246062500003
 20
106.9895456250001
  0
LWPOLYLINE
  5
38
330
10E
100
AcDbEntity
  8
Text
 62
     5
420
      255
370
    25
100
AcDbPolyline
 90
        2
 70
     0
 43
0.0
 10
-91.06152187500004
 20
96.98935437499995
 10
-87.00246062500003
 20
96.98935437499995
  0
LWPOLYLINE
  5
39
330
10E
100
AcDbEntity
  8
Text
 62
     5
420
      255
370
    25
100
AcDbPolyline
 90
        2
 70
     0
 43
0.0
 10
137.059405625
 20
96.98935437499995
 10
133.0006968749999
 20
96.98935437499995
  0
LWPOLYLINE
  5
3A
330
10E
100
AcDbEntity
  8
Text
 62
     5
420
      255
370
    25
100
AcDbPolyline
 90
        2
 70
     0
 43
0.0
 10
137.059405625
 20
86.989514375
 10
133.0006968749999
 20
86.989514375
  0
LWPOLYLINE
  5
3B
330
10E
100
AcDbEntity
  8
Text
 62
     5
420
      255
370
    25
100
AcDbPolyline
 90
        2
 70
     0
 43
0.0
 10
-91.06152187500004
 20
86.989514375
 10
-87.00246062500003
 20
86.989514375
  0
LWPOLYLINE
  5
3C
330
10E
100
AcDbEntity
  8
Text
 62
     5
420
      255
370
    25
100
AcDbPolyline
 90
        2
 70
     0
 43
0.0
 10
-91.06152187500004
 20
76.98897062500009
 10
-87.00246062500003
 20
76.98897062500009
  0
LWPOLYLINE
  5
3D
330
10E
100
AcDbEntity
  8
Text
 62
     5
420
      255
370
    25
100
AcDbPolyline
 90
        2
 70
     0
 43
0.0
 10
137.059405625
 20
76.98897062500009
 10
133.0006968749999
 20
76.98897062500009
  0
LWPOLYLINE
  5
3E
330
10E
100
AcDbEntity
  8
Text
 62
     5
420
      255
370
    25
100
AcDbPolyline
 90
        2
 70
     0
 43
0.0
 10
137.059405625
 20
66.989131875
 10
133.0006968749999
 20
66.989131875
  0
LWPOLYLINE
  5
3F
330
10E
100
AcDbEntity
  8
Text
 62
     5
420
      255
370
    25
100
AcDbPolyline
 90
        2
 70
     0
 43
0.0
 10
-91.06152187500004
 20
66.989131875
 10
-87.00246062500003
 20
66.989131875
  0
LWPOLYLINE
  5
40
330
10E
100
AcDbEntity
  8
Text
 62
     5
420
      255
370
    25
100
AcDbPolyline
 90
        2
 70
     0
 43
0.0
 10
137.059405625
 20
56.98858687500001
 10
133.0006968749999
 20
56.98858687500001
  0
LWPOLYLINE
  5
41
330
10E
100
AcDbEntity
  8
Text
 62
     5
420
      255
370
    25
100
AcDbPolyline
 90
        2
 70
     0
 43
0.0
 10
-91.06152187500004
 20
56.98858687500001
 10
-87.00246062500003
 20
56.98858687500001
  0
LWPOLYLINE
  5
42
330
10E
100
AcDbEntity
  8
Text
 62
     5
420
      255
370
    25
100
AcDbPolyline
 90
        2
 70
     0
 43
0.0
 10
-91.06152187500004
 20
46.98874812500003
 10
-87.00246062500003
 20
46.98874812500003
  0
LWPOLYLINE
  5
43
330
10E
100
AcDbEntity
  8
Text
 62
     5
420
      255
370
    25
100
AcDbPolyline
 90
        2
 70
     0
 43
0.0
 10
137.059405625
 20
46.98874812500003
 10
133.0006968749999
 20
46.98874812500003
  0
LWPOLYLINE
  5
44
330
10E
100
AcDbEntity
  8
Text
 62
     5
420
      255
370
    25
100
AcDbPolyline
 90
        2
 70
     0
 43
0.0
 10
-91.06152187500004
 20
36.98855687499997
 10
-87.00246062500003
 20
36.98855687499997
  0
LWPOLYLINE
  5
45
330
10E
100
AcDbEntity
  8
Text
 62
     5
420
      255
370
    25
100
AcDbPolyline
 90
        2
 70
     0
 43
0.0
 10
137.059405625
 20
36.98855687499997
 10
133.0006968749999
 20
36.98855687499997
  0
LWPOLYLINE
  5
46
330
10E
100
AcDbEntity
  8
Text
 62
     5
420
      255
370
    25
100
AcDbPolyline
 90
        2
 70
     0
 43
0.0
 10
137.059405625
 20
26.98871812499999
 10
133.0006968749999
 20
26.98871812499999
  0
LWPOLYLINE
  5
47
330
10E
100
AcDbEntity
  8
Text
 62
     5
420
      255
370
    25
100
AcDbPolyline
 90
        2
 70
     0
 43
0.0
 10
-91.06152187500004
 20
26.98871812499999
 10
-87.00246062500003
 20
26.98871812499999
  0
LWPOLYLINE
  5
48
330
10E
100
AcDbEntity
  8
Text
 62
     5
420
      255
370
    25
100
AcDbPolyline
 90
        2
 70
     0
 43
0.0
 10
-91.06152187500004
 20
16.98852562500008
 10
-87.00246062500003
 20
16.98852562500008
  0
LWPOLYLINE
  5
49
330
10E
100
AcDbEntity
  8
Text
 62
     5
420
      255
370
    25
100
AcDbPolyline
 90
        2
 70
     0
 43
0.0
 10
137.059405625
 20
16.98852562500008
 10
133.0006968749999
 20
16.98852562500008
  0
LWPOLYLINE
  5
4A
330
10E
100
AcDbEntity
  8
Text
 62
     5
420
      255
370
    25
100
AcDbPolyline
 90
        2
 70
     0
 43
0.0
 10
-91.06152187500004
 20
6.988686875000099
 10
-87.00246062500003
 20
6.988686875000099
  0
LWPOLYLINE
  5
4B
330
10E
100
AcDbEntity
  8
Text
 62
     5
420
      255
370
    25
100
AcDbPolyline
 90
        2
 70
     0
 43
0.0
 10
137.059405625
 20
6.988686875000099
 10
133.0006968749999
 20
6.988686875000099
  0
LWPOLYLINE
  5
4C
330
10E
100
AcDbEntity
  8
Text
 62
     5
420
      255
370
    25
100
AcDbPolyline
 90
        2
 70
     0
 43
0.0
 10
-91.06152187500004
 20
-3.012210624999966
 10
-87.00246062500003
 20
-3.012210624999966
  0
LWPOLYLINE
  5
4D
330
10E
100
AcDbEntity
  8
Text
 62
     5
420
      255
370
    25
100
AcDbPolyline
 90
        2
 70
     0
 43
0.0
 10
137.059405625
 20
-3.012210624999966
 10
133.0006968749999
 20
-3.012210624999966
  0
LWPOLYLINE
  5
4E
330
10E
100
AcDbEntity
  8
Text
 62
     5
420
      255
370
    25
100
AcDbPolyline
 90
        2
 70
     0
 43
0.0
 10
137.059405625
 20
-13.0116956249999
 10
133.0006968749999
 20
-13.0116956249999
  0
LWPOLYLINE
  5
4F
330
10E
100
AcDbEntity
  8
Text
 62
     5
420
      255
370
    25
100
AcDbPolyline
 90
        2
 70
     0
 43
0.0
 10
-91.06152187500004
 20
-13.0116956249999
 10
-87.00246062500003
 20
-13.0116956249999
  0
LWPOLYLINE
  5
50
330
10E
100
AcDbEntity
  8
Text
 62
     5
420
      255
370
    25
100
AcDbPolyline
 90
        2
 70
     0
 43
0.0
 10
-91.06152187500004
 20
-23.012240625
 10
-87.00246062500003
 20
-23.012240625
  0
LWPOLYLINE
  5
51
330
10E
100
AcDbEntity
  8
Text
 62
     5
420
      255
370
    25
100
AcDbPolyline
 90
        2
 70
     0
 43
0.0
 10
137.059405625
 20
-23.012240625
 10
133.0006968749999
 20
-23.012240625
  0
LWPOLYLINE
  5
52
330
10E
100
AcDbEntity
  8
Text
 62
     5
420
      255
370
    25
100
AcDbPolyline
 90
        2
 70
     0
 43
0.0
 10
-91.06152187500004
 20
-33.01207937499998
 10
-87.00246062500003
 20
-33.01207937499998
  0
LWPOLYLINE
  5
53
330
10E
100
AcDbEntity
  8
Text
 62
     5
420
      255
370
    25
100
AcDbPolyline
 90
        2
 70
     0
 43
0.0
 10
137.059405625
 20
-33.01207937499998
 10
133.0006968749999
 20
-33.01207937499998
  0
LWPOLYLINE
  5
54
330
10E
100
AcDbEntity
  8
Text
 62
     5
420
      255
370
    25
100
AcDbPolyline
 90
        2
 70
     0
 43
0.0
 10
137.059405625
 20
-43.01227062499993
 10
133.0006968749999
 20
-43.01227062499993
  0
LWPOLYLINE
  5
55
330
10E
100
AcDbEntity
  8
Text
 62
     5
420
      255
370
    25
100
AcDbPolyline
 90
        2
 70
     0
 43
0.0
 10
-91.06152187500004
 20
-43.01227062499993
 10
-87.00246062500003
 20
-43.01227062499993
  0
LWPOLYLINE
  5
56
330
10E
100
AcDbEntity
  8
Text
 62
     5
420
      255
370
    25
100
AcDbPolyline
 90
        2
 70
     0
 43
0.0
 10
-91.06152187500004
 20
-53.01211062499988
 10
-87.00246062500003
 20
-53.01211062499988
  0
LWPOLYLINE
  5
57
330
10E
100
AcDbEntity
  8
Text
 62
     5
420
      255
370
    25
100
AcDbPolyline
 90
        2
 70
     0
 43
0.0
 10
137.059405625
 20
-53.01211062499988
 10
133.0006968749999
 20
-53.01211062499988
  0
LWPOLYLINE
  5
58
330
10E
100
AcDbEntity
  8
Text
 62
     5
420
      255
370
    25
100
AcDbPolyline
 90
        2
 70
     0
 43
0.0
 10
-91.06152187500004
 20
-63.01265437500001
 10
-87.00246062500003
 20
-63.01265437500001
  0
LWPOLYLINE
  5
59
330
10E
100
AcDbEntity
  8
Text
 62
     5
420
      255
370
    25
100
AcDbPolyline
 90
        2
 70
     0
 43
0.0
 10
137.059405625
 20
-63.01265437500001
 10
133.0006968749999
 20
-63.01265437500001
  0
LWPOLYLINE
  5
5A
330
10E
100
AcDbEntity
  8
Text
 62
     5
420
      255
370
    25
100
AcDbPolyline
 90
        2
 70
     0
 43
0.0
 10
137.059405625
 20
-73.01249312499999
 10
133.0006968749999
 20
-73.01249312499999
  0
LWPOLYLINE
  5
5B
330
10E
100
AcDbEntity
  8
Text
 62
     5
420
      255
370
    25
100
AcDbPolyline
 90
        2
 70
     0
 43
0.0
 10
-91.06152187500004
 20
-73.01249312499999
 10
-87.00246062500003
 20
-73.01249312499999
  0
LWPOLYLINE
  5
5C
330
10E
100
AcDbEntity
  8
Text
 62
     5
420
      255
370
    25
100
AcDbPolyline
 90
        2
 70
     0
 43
0.0
 10
-91.06152187500004
 20
-83.01268562500002
 10
-87.00246062500003
 20
-83.01268562500002
  0
LWPOLYLINE
  5
5D
330
10E
100
AcDbEntity
  8
Text
 62
     5
420
      255
370
    25
100
AcDbPolyline
 90
        2
 70
     0
 43
0.0
 10
137.059405625
 20
-83.01268562500002
 10
133.0006968749999
 20
-83.01268562500002
  0
LWPOLYLINE
  5
5E
330
10E
100
AcDbEntity
  8
Text
 62
     5
420
      255
370
    25
100
AcDbPolyline
 90
        2
 70
     0
 43
0.0
 10
-91.06152187500004
 20
-93.01217062500007
 10
-87.00246062500003
 20
-93.01217062500007
  0
LWPOLYLINE
  5
5F
330
10E
100
AcDbEntity
  8
Text
 62
     5
420
      255
370
    25
100
AcDbPolyline
 90
        2
 70
     0
 43
0.0
 10
137.059405625
 20
-93.01217062500007
 10
133.0006968749999
 20
-93.01217062500007
  0
SPLINE
  5
60
330
10E
100
AcDbEntity
  8
Text
 62
     5
420
      255
370
    25
100
AcDbSpline
210
0.0
220
0.0
230
1.0
 70
     8
 71
     3
 72
     8
 73
     4
 74
     0
 42
0.000000001
 43
0.001
 12
1.0
 22
0.0
 32
0.0
 13
1.0
 23
0.0
 33
0.0
 40
0.0
 40
0.0
 40
0.0
 40
0.0
 40
1.0
 40
1.0
 40
1.0
 40
1.0
 10
102.6092443749999
 20
-110.5431106249999
 30
0.0
 10
102.6092443749999
 20
-110.2862881249999
 30
0.0
 10
102.4540218750001
 20
-110.104960625
 30
0.0
 10
102.2127218749999
 20
-110.104960625
 30
0.0
  0
SPLINE
  5
61
330
10E
100
AcDbEntity
  8
Text
 62
     5
420
      255
370
    25
100
AcDbSpline
210
0.0
220
0.0
230
1.0
 70
     8
 71
     3
 72
     8
 73
     4
 74
     0
 42
0.000000001
 43
0.001
 12
1.0
 22
0.0
 32
0.0
 13
1.0
 23
0.0
 33
0.0
 40
0.0
 40
0.0
 40
0.0
 40
0.0
 40
1.0
 40
1.0
 40
1.0
 40
1.0
 10
102.2127218749999
 20
-110.104960625
 30
0.0
 10
102.0253968750001
 20
-110.104960625
 30
0.0
 10
101.8786418750001
 20
-110.197388125
 30
0.0
 10
101.8063218750001
 20
-110.321213125
 30
0.0
  0
SPLINE
  5
62
330
10E
100
AcDbEntity
  8
Text
 62
     5
420
      255
370
    25
100
AcDbSpline
210
0.0
220
0.0
230
1.0
 70
     8
 71
     3
 72
     8
 73
     4
 74
     0
 42
0.000000001
 43
0.001
 12
1.0
 22
0.0
 32
0.0
 13
1.0
 23
0.0
 33
0.0
 40
0.0
 40
0.0
 40
0.0
 40
0.0
 40
1.0
 40
1.0
 40
1.0
 40
1.0
 10
101.8063218750001
 20
-110.321213125
 30
0.0
 10
101.7897418749999
 20
-110.349788125
 30
0.0
 10
101.780216875
 20
-110.378363125
 30
0.0
 10
101.780216875
 20
-110.4259881249999
 30
0.0
  0
SPLINE
  5
63
330
10E
100
AcDbEntity
  8
Text
 62
     5
420
      255
370
    25
100
AcDbSpline
210
0.0
220
0.0
230
1.0
 70
     8
 71
     3
 72
     8
 73
     4
 74
     0
 42
0.000000001
 43
0.001
 12
1.0
 22
0.0
 32
0.0
 13
1.0
 23
0.0
 33
0.0
 40
0.0
 40
0.0
 40
0.0
 40
0.0
 40
1.0
 40
1.0
 40
1.0
 40
1.0
 10
101.780216875
 20
-110.4259881249999
 30
0.0
 10
101.780216875
 20
-110.7780606249999
 30
0.0
 10
101.9107443749999
 20
-111.0479356249999
 30
0.0
 10
102.2056668749999
 20
-111.0479356249999
 30
0.0
  0
SPLINE
  5
64
330
10E
100
AcDbEntity
  8
Text
 62
     5
420
      255
370
    25
100
AcDbSpline
210
0.0
220
0.0
230
1.0
 70
     8
 71
     3
 72
     8
 73
     4
 74
     0
 42
0.000000001
 43
0.001
 12
1.0
 22
0.0
 32
0.0
 13
1.0
 23
0.0
 33
0.0
 40
0.0
 40
0.0
 40
0.0
 40
0.0
 40
1.0
 40
1.0
 40
1.0
 40
1.0
 10
102.2056668749999
 20
-111.0479356249999
 30
0.0
 10
102.4413218750001
 20
-111.047581875
 30
0.0
 10
102.6092443749999
 20
-110.838738125
 30
0.0
 10
102.6092443749999
 20
-110.5431106249999
 30
0.0
  0
LWPOLYLINE
  5
65
330
10E
100
AcDbEntity
  8
Text
 62
     5
420
      255
370
    25
100
AcDbPolyline
 90
        2
 70
     0
 43
0.0
 10
-91.06152187500004
 20
-103.0127156249999
 10
137.059405625
 20
-103.0127156249999
  0
SPLINE
  5
66
330
10E
100
AcDbEntity
  8
Text
 62
     5
420
      255
370
    25
100
AcDbSpline
210
0.0
220
0.0
230
1.0
 70
     8
 71
     3
 72
     8
 73
     4
 74
     0
 42
0.000000001
 43
0.001
 12
1.0
 22
0.0
 32
0.0
 13
1.0
 23
0.0
 33
0.0
 40
0.0
 40
0.0
 40
0.0
 40
0.0
 40
1.0
 40
1.0
 40
1.0
 40
1.0
 10
92.55684187499992
 20
-110.730788125
 30
0.0
 10
92.56036937499994
 20
-110.5247656249999
 30
0.0
 10
92.40091437499996
 20
-110.4129356249999
 30
0.0
 10
92.16208312499998
 20
-110.349788125
 30
0.0
  0
SPLINE
  5
67
330
10E
100
AcDbEntity
  8
Text
 62
     5
420
      255
370
    25
100
AcDbSpline
210
0.0
220
0.0
230
1.0
 70
     8
 71
     3
 72
     8
 73
     4
 74
     0
 42
0.000000001
 43
0.001
 12
1.0
 22
0.0
 32
0.0
 13
1.0
 23
0.0
 33
0.0
 40
0.0
 40
0.0
 40
0.0
 40
0.0
 40
1.0
 40
1.0
 40
1.0
 40
1.0
 10
92.16208312499998
 20
-110.349788125
 30
0.0
 10
91.98498937499994
 20
-110.410113125
 30
0.0
 10
91.84811187500009
 20
-110.537113125
 30
0.0
 10
91.84811187500009
 20
-110.724438125
 30
0.0
  0
SPLINE
  5
68
330
10E
100
AcDbEntity
  8
Text
 62
     5
420
      255
370
    25
100
AcDbSpline
210
0.0
220
0.0
230
1.0
 70
     8
 71
     3
 72
     8
 73
     4
 74
     0
 42
0.000000001
 43
0.001
 12
1.0
 22
0.0
 32
0.0
 13
1.0
 23
0.0
 33
0.0
 40
0.0
 40
0.0
 40
0.0
 40
0.0
 40
1.0
 40
1.0
 40
1.0
 40
1.0
 10
91.84811187500009
 20
-110.724438125
 30
0.0
 10
91.84811187500009
 20
-110.8898906249999
 30
0.0
 10
91.94618312500006
 20
-111.061340625
 30
0.0
 10
92.19736187500007
 20
-111.061340625
 30
0.0
  0
SPLINE
  5
69
330
10E
100
AcDbEntity
  8
Text
 62
     5
420
      255
370
    25
100
AcDbSpline
210
0.0
220
0.0
230
1.0
 70
     8
 71
     3
 72
     8
 73
     4
 74
     0
 42
0.000000001
 43
0.001
 12
1.0
 22
0.0
 32
0.0
 13
1.0
 23
0.0
 33
0.0
 40
0.0
 40
0.0
 40
0.0
 40
0.0
 40
1.0
 40
1.0
 40
1.0
 40
1.0
 10
92.19736187500007
 20
-111.061340625
 30
0.0
 10
92.42913687500004
 20
-111.060988125
 30
0.0
 10
92.55684187499992
 20
-110.9085881249999
 30
0.0
 10
92.55684187499992
 20
-110.730788125
 30
0.0
  0
SPLINE
  5
6A
330
10E
100
AcDbEntity
  8
Text
 62
     5
420
      255
370
    25
100
AcDbSpline
210
0.0
220
0.0
230
1.0
 70
     8
 71
     3
 72
     8
 73
     4
 74
     0
 42
0.000000001
 43
0.001
 12
1.0
 22
0.0
 32
0.0
 13
1.0
 23
0.0
 33
0.0
 40
0.0
 40
0.0
 40
0.0
 40
0.0
 40
1.0
 40
1.0
 40
1.0
 40
1.0
 10
3.424714375000008
 20
-110.5431106249999
 30
0.0
 10
3.424714375000008
 20
-110.2862881249999
 30
0.0
 10
3.269491874999972
 20
-110.104960625
 30
0.0
 10
3.028191874999948
 20
-110.104960625
 30
0.0
  0
SPLINE
  5
6B
330
10E
100
AcDbEntity
  8
Text
 62
     5
420
      255
370
    25
100
AcDbSpline
210
0.0
220
0.0
230
1.0
 70
     8
 71
     3
 72
     8
 73
     4
 74
     0
 42
0.000000001
 43
0.001
 12
1.0
 22
0.0
 32
0.0
 13
1.0
 23
0.0
 33
0.0
 40
0.0
 40
0.0
 40
0.0
 40
0.0
 40
1.0
 40
1.0
 40
1.0
 40
1.0
 10
3.028191874999948
 20
-110.104960625
 30
0.0
 10
2.840161875000035
 20
-110.104960625
 30
0.0
 10
2.694464375000052
 20
-110.197388125
 30
0.0
 10
2.621439375000023
 20
-110.321213125
 30
0.0
  0
SPLINE
  5
6C
330
10E
100
AcDbEntity
  8
Text
 62
     5
420
      255
370
    25
100
AcDbSpline
210
0.0
220
0.0
230
1.0
 70
     8
 71
     3
 72
     8
 73
     4
 74
     0
 42
0.000000001
 43
0.001
 12
1.0
 22
0.0
 32
0.0
 13
1.0
 23
0.0
 33
0.0
 40
0.0
 40
0.0
 40
0.0
 40
0.0
 40
1.0
 40
1.0
 40
1.0
 40
1.0
 10
2.621439375000023
 20
-110.321213125
 30
0.0
 10
2.605211875000009
 20
-110.349788125
 30
0.0
 10
2.596039375000032
 20
-110.378363125
 30
0.0
 10
2.596039375000032
 20
-110.4259881249999
 30
0.0
  0
SPLINE
  5
6D
330
10E
100
AcDbEntity
  8
Text
 62
     5
420
      255
370
    25
100
AcDbSpline
210
0.0
220
0.0
230
1.0
 70
     8
 71
     3
 72
     8
 73
     4
 74
     0
 42
0.000000001
 43
0.001
 12
1.0
 22
0.0
 32
0.0
 13
1.0
 23
0.0
 33
0.0
 40
0.0
 40
0.0
 40
0.0
 40
0.0
 40
1.0
 40
1.0
 40
1.0
 40
1.0
 10
2.596039375000032
 20
-110.4259881249999
 30
0.0
 10
2.596039375000032
 20
-110.7780606249999
 30
0.0
 10
2.72621437500004
 20
-111.0479356249999
 30
0.0
 10
3.02184187499995
 20
-111.0479356249999
 30
0.0
  0
SPLINE
  5
6E
330
10E
100
AcDbEntity
  8
Text
 62
     5
420
      255
370
    25
100
AcDbSpline
210
0.0
220
0.0
230
1.0
 70
     8
 71
     3
 72
     8
 73
     4
 74
     0
 42
0.000000001
 43
0.001
 12
1.0
 22
0.0
 32
0.0
 13
1.0
 23
0.0
 33
0.0
 40
0.0
 40
0.0
 40
0.0
 40
0.0
 40
1.0
 40
1.0
 40
1.0
 40
1.0
 10
3.02184187499995
 20
-111.0479356249999
 30
0.0
 10
3.256791874999976
 20
-111.047581875
 30
0.0
 10
3.424714375000008
 20
-110.838738125
 30
0.0
 10
3.424714375000008
 20
-110.5431106249999
 30
0.0
  0
SPLINE
  5
6F
330
10E
100
AcDbEntity
  8
Text
 62
     5
420
      255
370
    25
100
AcDbSpline
210
0.0
220
0.0
230
1.0
 70
     8
 71
     3
 72
     8
 73
     4
 74
     0
 42
0.000000001
 43
0.001
 12
1.0
 22
0.0
 32
0.0
 13
1.0
 23
0.0
 33
0.0
 40
0.0
 40
0.0
 40
0.0
 40
0.0
 40
1.0
 40
1.0
 40
1.0
 40
1.0
 10
-6.629453125000055
 20
-110.730788125
 30
0.0
 10
-6.625924374999954
 20
-110.5247656249999
 30
0.0
 10
-6.784674375000009
 20
-110.4129356249999
 30
0.0
 10
-7.023505624999984
 20
-110.349788125
 30
0.0
  0
SPLINE
  5
70
330
10E
100
AcDbEntity
  8
Text
 62
     5
420
      255
370
    25
100
AcDbSpline
210
0.0
220
0.0
230
1.0
 70
     8
 71
     3
 72
     8
 73
     4
 74
     0
 42
0.000000001
 43
0.001
 12
1.0
 22
0.0
 32
0.0
 13
1.0
 23
0.0
 33
0.0
 40
0.0
 40
0.0
 40
0.0
 40
0.0
 40
1.0
 40
1.0
 40
1.0
 40
1.0
 10
-7.023505624999984
 20
-110.349788125
 30
0.0
 10
-7.200953124999955
 20
-110.410113125
 30
0.0
 10
-7.337478124999961
 20
-110.537113125
 30
0.0
 10
-7.337478124999961
 20
-110.724438125
 30
0.0
  0
SPLINE
  5
71
330
10E
100
AcDbEntity
  8
Text
 62
     5
420
      255
370
    25
100
AcDbSpline
210
0.0
220
0.0
230
1.0
 70
     8
 71
     3
 72
     8
 73
     4
 74
     0
 42
0.000000001
 43
0.001
 12
1.0
 22
0.0
 32
0.0
 13
1.0
 23
0.0
 33
0.0
 40
0.0
 40
0.0
 40
0.0
 40
0.0
 40
1.0
 40
1.0
 40
1.0
 40
1.0
 10
-7.337478124999961
 20
-110.724438125
 30
0.0
 10
-7.337478124999961
 20
-110.8898906249999
 30
0.0
 10
-7.239405625000018
 20
-111.061340625
 30
0.0
 10
-6.988580625000054
 20
-111.061340625
 30
0.0
  0
SPLINE
  5
72
330
10E
100
AcDbEntity
  8
Text
 62
     5
420
      255
370
    25
100
AcDbSpline
210
0.0
220
0.0
230
1.0
 70
     8
 71
     3
 72
     8
 73
     4
 74
     0
 42
0.000000001
 43
0.001
 12
1.0
 22
0.0
 32
0.0
 13
1.0
 23
0.0
 33
0.0
 40
0.0
 40
0.0
 40
0.0
 40
0.0
 40
1.0
 40
1.0
 40
1.0
 40
1.0
 10
-6.988580625000054
 20
-111.061340625
 30
0.0
 10
-6.75680562499997
 20
-111.060988125
 30
0.0
 10
-6.629453125000055
 20
-110.9085881249999
 30
0.0
 10
-6.629453125000055
 20
-110.730788125
 30
0.0
  0
LWPOLYLINE
  5
73
330
10E
100
AcDbEntity
  8
Text
 62
     5
420
      255
370
    25
100
AcDbPolyline
 90
        2
 70
     0
 43
0.0
 10
133.0006968749999
 20
-106.863638125
 10
133.0006968749999
 20
120.841011875
  0
LWPOLYLINE
  5
74
330
10E
100
AcDbEntity
  8
Text
 62
     5
420
      255
370
    25
100
AcDbPolyline
 90
        2
 70
     0
 43
0.0
 10
123.0012118750001
 20
116.9890318750001
 10
123.0012118750001
 20
120.841011875
  0
LWPOLYLINE
  5
75
330
10E
100
AcDbEntity
  8
Text
 62
     5
420
      255
370
    25
100
AcDbPolyline
 90
        2
 70
     0
 43
0.0
 10
123.0012118750001
 20
-103.0127156249999
 10
123.0012118750001
 20
-106.863638125
  0
LWPOLYLINE
  5
76
330
10E
100
AcDbEntity
  8
Text
 62
     5
420
      255
370
    25
100
AcDbPolyline
 90
        2
 70
     0
 43
0.0
 10
113.0010193749999
 20
120.841011875
 10
113.0010193749999
 20
116.9890318750001
  0
LWPOLYLINE
  5
77
330
10E
100
AcDbEntity
  8
Text
 62
     5
420
      255
370
    25
100
AcDbPolyline
 90
        2
 70
     0
 43
0.0
 10
113.0010193749999
 20
-106.863638125
 10
113.0010193749999
 20
-103.0127156249999
  0
LWPOLYLINE
  5
78
330
10E
100
AcDbEntity
  8
Text
 62
     5
420
      255
370
    25
100
AcDbPolyline
 90
        2
 70
     0
 43
0.0
 10
103.001180625
 20
-103.0127156249999
 10
103.001180625
 20
-106.863638125
  0
LWPOLYLINE
  5
79
330
10E
100
AcDbEntity
  8
Text
 62
     5
420
      255
370
    25
100
AcDbPolyline
 90
        2
 70
     0
 43
0.0
 10
103.001180625
 20
116.9890318750001
 10
103.001180625
 20
120.841011875
  0
LWPOLYLINE
  5
7A
330
10E
100
AcDbEntity
  8
Text
 62
     5
420
      255
370
    25
100
AcDbPolyline
 90
        2
 70
     0
 43
0.0
 10
93.0002831249999
 20
120.841011875
 10
93.0002831249999
 20
116.9890318750001
  0
LWPOLYLINE
  5
7B
330
10E
100
AcDbEntity
  8
Text
 62
     5
420
      255
370
    25
100
AcDbPolyline
 90
        2
 70
     0
 43
0.0
 10
93.0002831249999
 20
-106.863638125
 10
93.0002831249999
 20
-103.0127156249999
  0
LWPOLYLINE
  5
7C
330
10E
100
AcDbEntity
  8
Text
 62
     5
420
      255
370
    25
100
AcDbPolyline
 90
        2
 70
     0
 43
0.0
 10
83.00115062500004
 20
-103.0127156249999
 10
83.00115062500004
 20
-106.863638125
  0
LWPOLYLINE
  5
7D
330
10E
100
AcDbEntity
  8
Text
 62
     5
420
      255
370
    25
100
AcDbPolyline
 90
        2
 70
     0
 43
0.0
 10
83.00115062500004
 20
116.9890318750001
 10
83.00115062500004
 20
120.841011875
  0
LWPOLYLINE
  5
7E
330
10E
100
AcDbEntity
  8
Text
 62
     5
420
      255
370
    25
100
AcDbPolyline
 90
        2
 70
     0
 43
0.0
 10
73.00060562499993
 20
-106.863638125
 10
73.00060562499993
 20
-103.0127156249999
  0
LWPOLYLINE
  5
7F
330
10E
100
AcDbEntity
  8
Text
 62
     5
420
      255
370
    25
100
AcDbPolyline
 90
        2
 70
     0
 43
0.0
 10
73.00060562499993
 20
120.841011875
 10
73.00060562499993
 20
116.9890318750001
  0
LWPOLYLINE
  5
80
330
10E
100
AcDbEntity
  8
Text
 62
     5
420
      255
370
    25
100
AcDbPolyline
 90
        2
 70
     0
 43
0.0
 10
63.00111937499992
 20
-103.0127156249999
 10
63.00111937499992
 20
-106.863638125
  0
LWPOLYLINE
  5
81
330
10E
100
AcDbEntity
  8
Text
 62
     5
420
      255
370
    25
100
AcDbPolyline
 90
        2
 70
     0
 43
0.0
 10
63.00111937499992
 20
116.9890318750001
 10
63.00111937499992
 20
120.841011875
  0
LWPOLYLINE
  5
82
330
10E
100
AcDbEntity
  8
Text
 62
     5
420
      255
370
    25
100
AcDbPolyline
 90
        2
 70
     0
 43
0.0
 10
53.00057562500001
 20
120.841011875
 10
53.00057562500001
 20
116.9890318750001
  0
LWPOLYLINE
  5
83
330
10E
100
AcDbEntity
  8
Text
 62
     5
420
      255
370
    25
100
AcDbPolyline
 90
        2
 70
     0
 43
0.0
 10
53.00057562500001
 20
-106.863638125
 10
53.00057562500001
 20
-103.0127156249999
  0
LWPOLYLINE
  5
84
330
10E
100
AcDbEntity
  8
Text
 62
     5
420
      255
370
    25
100
AcDbPolyline
 90
        2
 70
     0
 43
0.0
 10
43.00073687500003
 20
-103.0127156249999
 10
43.00073687500003
 20
-106.863638125
  0
LWPOLYLINE
  5
85
330
10E
100
AcDbEntity
  8
Text
 62
     5
420
      255
370
    25
100
AcDbPolyline
 90
        2
 70
     0
 43
0.0
 10
43.00073687500003
 20
116.9890318750001
 10
43.00073687500003
 20
120.841011875
  0
LWPOLYLINE
  5
86
330
10E
100
AcDbEntity
  8
Text
 62
     5
420
      255
370
    25
100
AcDbPolyline
 90
        2
 70
     0
 43
0.0
 10
33.00019187499993
 20
120.841011875
 10
33.00019187499993
 20
116.9890318750001
  0
LWPOLYLINE
  5
87
330
10E
100
AcDbEntity
  8
Text
 62
     5
420
      255
370
    25
100
AcDbPolyline
 90
        2
 70
     0
 43
0.0
 10
33.00019187499993
 20
-106.863638125
 10
33.00019187499993
 20
-103.0127156249999
  0
LWPOLYLINE
  5
88
330
10E
100
AcDbEntity
  8
Text
 62
     5
420
      255
370
    25
100
AcDbPolyline
 90
        2
 70
     0
 43
0.0
 10
23.0010581250001
 20
-103.0127156249999
 10
23.0010581250001
 20
-106.863638125
  0
LWPOLYLINE
  5
89
330
10E
100
AcDbEntity
  8
Text
 62
     5
420
      255
370
    25
100
AcDbPolyline
 90
        2
 70
     0
 43
0.0
 10
23.0010581250001
 20
116.9890318750001
 10
23.0010581250001
 20
120.841011875
  0
SPLINE
  5
8A
330
10E
100
AcDbEntity
  8
Cuts
 62
     1
420
 16711680
370
    25
100
AcDbSpline
210
0.0
220
0.0
230
1.0
 70
     8
 71
     3
 72
     8
 73
     4
 74
     0
 42
0.000000001
 43
0.001
 12
1.0
 22
0.0
 32
0.0
 13
1.0
 23
0.0
 33
0.0
 40
0.0
 40
0.0
 40
0.0
 40
0.0
 40
1.0
 40
1.0
 40
1.0
 40
1.0
 10
12.17183937499999
 20
-2.822768125000039
 30
0.0
 10
12.72393687499994
 20
-2.822768125000039
 30
0.0
 10
13.17196437500002
 20
-3.270443124999929
 30
0.0
 10
13.17196437500002
 20
-3.822188125000025
 30
0.0
  0
SPLINE
  5
8B
330
10E
100
AcDbEntity
  8
Cuts
 62
     1
420
 16711680
370
    25
100
AcDbSpline
210
0.0
220
0.0
230
1.0
 70
     8
 71
     3
 72
     8
 73
     4
 74
     0
 42
0.000000001
 43
0.001
 12
1.0
 22
0.0
 32
0.0
 13
1.0
 23
0.0
 33
0.0
 40
0.0
 40
0.0
 40
0.0
 40
0.0
 40
1.0
 40
1.0
 40
1.0
 40
1.0
 10
13.17196437500002
 20
-3.822188125000025
 30
0.0
 10
13.17196437500002
 20
-4.374990625000009
 30
0.0
 10
12.72393687499994
 20
-4.822665625000013
 30
0.0
 10
12.17183937499999
 20
-4.822665625000013
 30
0.0
  0
SPLINE
  5
8C
330
10E
100
AcDbEntity
  8
Cuts
 62
     1
420
 16711680
370
    25
100
AcDbSpline
210
0.0
220
0.0
230
1.0
 70
     8
 71
     3
 72
     8
 73
     4
 74
     0
 42
0.000000001
 43
0.001
 12
1.0
 22
0.0
 32
0.0
 13
1.0
 23
0.0
 33
0.0
 40
0.0
 40
0.0
 40
0.0
 40
0.0
 40
1.0
 40
1.0
 40
1.0
 40
1.0
 10
12.17183937499999
 20
-4.822665625000013
 30
0.0
 10
11.61974187500005
 20
-4.822665625000013
 30
0.0
 10
11.17171437499997
 20
-4.374638125000047
 30
0.0
 10
11.17171437499997
 20
-3.822188125000025
 30
0.0
  0
SPLINE
  5
8D
330
10E
100
AcDbEntity
  8
Cuts
 62
     1
420
 16711680
370
    25
100
AcDbSpline
210
0.0
220
0.0
230
1.0
 70
     8
 71
     3
 72
     8
 73
     4
 74
     0
 42
0.000000001
 43
0.001
 12
1.0
 22
0.0
 32
0.0
 13
1.0
 23
0.0
 33
0.0
 40
0.0
 40
0.0
 40
0.0
 40
0.0
 40
1.0
 40
1.0
 40
1.0
 40
1.0
 10
11.17171437499997
 20
-3.822188125000025
 30
0.0
 10
11.17171437499997
 20
-3.270443124999929
 30
0.0
 10
11.61974187500005
 20
-2.822768125000039
 30
0.0
 10
12.17183937499999
 20
-2.822768125000039
 30
0.0
  0
LWPOLYLINE
  5
8E
330
10E
100
AcDbEntity
  8
Text
 62
     5
420
      255
370
    25
100
AcDbPolyline
 90
        2
 70
     0
 43
0.0
 10
13.00051437499997
 20
120.841011875
 10
13.00051437499997
 20
116.9890318750001
  0
SPLINE
  5
8F
330
10E
100
AcDbEntity
  8
Cuts
 62
     1
420
 16711680
370
    25
100
AcDbSpline
210
0.0
220
0.0
230
1.0
 70
     8
 71
     3
 72
     8
 73
     4
 74
     0
 42
0.000000001
 43
0.001
 12
1.0
 22
0.0
 32
0.0
 13
1.0
 23
0.0
 33
0.0
 40
0.0
 40
0.0
 40
0.0
 40
0.0
 40
1.0
 40
1.0
 40
1.0
 40
1.0
 10
33.83063062499991
 20
18.83496437500003
 30
0.0
 10
34.38308062500005
 20
18.83496437500003
 30
0.0
 10
34.8311081249999
 20
18.38764312500007
 30
0.0
 10
34.8311081249999
 20
17.83519312500005
 30
0.0
  0
SPLINE
  5
90
330
10E
100
AcDbEntity
  8
Cuts
 62
     1
420
 16711680
370
    25
100
AcDbSpline
210
0.0
220
0.0
230
1.0
 70
     8
 71
     3
 72
     8
 73
     4
 74
     0
 42
0.000000001
 43
0.001
 12
1.0
 22
0.0
 32
0.0
 13
1.0
 23
0.0
 33
0.0
 40
0.0
 40
0.0
 40
0.0
 40
0.0
 40
1.0
 40
1.0
 40
1.0
 40
1.0
 10
34.8311081249999
 20
17.83519312500005
 30
0.0
 10
34.8311081249999
 20
17.28238937500009
 30
0.0
 10
34.38308062500005
 20
16.8354206250001
 30
0.0
 10
33.83063062499991
 20
16.8354206250001
 30
0.0
  0
SPLINE
  5
91
330
10E
100
AcDbEntity
  8
Cuts
 62
     1
420
 16711680
370
    25
100
AcDbSpline
210
0.0
220
0.0
230
1.0
 70
     8
 71
     3
 72
     8
 73
     4
 74
     0
 42
0.000000001
 43
0.001
 12
1.0
 22
0.0
 32
0.0
 13
1.0
 23
0.0
 33
0.0
 40
0.0
 40
0.0
 40
0.0
 40
0.0
 40
1.0
 40
1.0
 40
1.0
 40
1.0
 10
33.83063062499991
 20
16.8354206250001
 30
0.0
 10
33.27853312499997
 20
16.8354206250001
 30
0.0
 10
32.83050562499989
 20
17.28238937500009
 30
0.0
 10
32.83050562499989
 20
17.83519312500005
 30
0.0
  0
SPLINE
  5
92
330
10E
100
AcDbEntity
  8
Cuts
 62
     1
420
 16711680
370
    25
100
AcDbSpline
210
0.0
220
0.0
230
1.0
 70
     8
 71
     3
 72
     8
 73
     4
 74
     0
 42
0.000000001
 43
0.001
 12
1.0
 22
0.0
 32
0.0
 13
1.0
 23
0.0
 33
0.0
 40
0.0
 40
0.0
 40
0.0
 40
0.0
 40
1.0
 40
1.0
 40
1.0
 40
1.0
 10
32.83050562499989
 20
17.83519312500005
 30
0.0
 10
32.83050562499989
 20
18.38764312500007
 30
0.0
 10
33.278180625
 20
18.83496437500003
 30
0.0
 10
33.83063062499991
 20
18.83496437500003
 30
0.0
  0
SPLINE
  5
93
330
10E
100
AcDbEntity
  8
Cuts
 62
     1
420
 16711680
370
    25
100
AcDbSpline
210
0.0
220
0.0
230
1.0
 70
     8
 71
     3
 72
     8
 73
     4
 74
     0
 42
0.000000001
 43
0.001
 12
1.0
 22
0.0
 32
0.0
 13
1.0
 23
0.0
 33
0.0
 40
0.0
 40
0.0
 40
0.0
 40
0.0
 40
1.0
 40
1.0
 40
1.0
 40
1.0
 10
33.83063062499991
 20
-2.822768125000039
 30
0.0
 10
34.3823756249999
 20
-2.822768125000039
 30
0.0
 10
34.8311081249999
 20
-3.270443124999929
 30
0.0
 10
34.8311081249999
 20
-3.82289312499995
 30
0.0
  0
SPLINE
  5
94
330
10E
100
AcDbEntity
  8
Cuts
 62
     1
420
 16711680
370
    25
100
AcDbSpline
210
0.0
220
0.0
230
1.0
 70
     8
 71
     3
 72
     8
 73
     4
 74
     0
 42
0.000000001
 43
0.001
 12
1.0
 22
0.0
 32
0.0
 13
1.0
 23
0.0
 33
0.0
 40
0.0
 40
0.0
 40
0.0
 40
0.0
 40
1.0
 40
1.0
 40
1.0
 40
1.0
 10
34.8311081249999
 20
-3.82289312499995
 30
0.0
 10
34.8311081249999
 20
-4.374638125000047
 30
0.0
 10
34.38272812500009
 20
-4.822665625000013
 30
0.0
 10
33.83063062499991
 20
-4.822665625000013
 30
0.0
  0
SPLINE
  5
95
330
10E
100
AcDbEntity
  8
Cuts
 62
     1
420
 16711680
370
    25
100
AcDbSpline
210
0.0
220
0.0
230
1.0
 70
     8
 71
     3
 72
     8
 73
     4
 74
     0
 42
0.000000001
 43
0.001
 12
1.0
 22
0.0
 32
0.0
 13
1.0
 23
0.0
 33
0.0
 40
0.0
 40
0.0
 40
0.0
 40
0.0
 40
1.0
 40
1.0
 40
1.0
 40
1.0
 10
33.83063062499991
 20
-4.822665625000013
 30
0.0
 10
33.27853312499997
 20
-4.822665625000013
 30
0.0
 10
32.83050562499989
 20
-4.374638125000047
 30
0.0
 10
32.83050562499989
 20
-3.82289312499995
 30
0.0
  0
SPLINE
  5
96
330
10E
100
AcDbEntity
  8
Cuts
 62
     1
420
 16711680
370
    25
100
AcDbSpline
210
0.0
220
0.0
230
1.0
 70
     8
 71
     3
 72
     8
 73
     4
 74
     0
 42
0.000000001
 43
0.001
 12
1.0
 22
0.0
 32
0.0
 13
1.0
 23
0.0
 33
0.0
 40
0.0
 40
0.0
 40
0.0
 40
0.0
 40
1.0
 40
1.0
 40
1.0
 40
1.0
 10
32.83050562499989
 20
-3.82289312499995
 30
0.0
 10
32.83050562499989
 20
-3.270443124999929
 30
0.0
 10
33.278180625
 20
-2.822768125000039
 30
0.0
 10
33.83063062499991
 20
-2.822768125000039
 30
0.0
  0
SPLINE
  5
97
330
10E
100
AcDbEntity
  8
Cuts
 62
     1
420
 16711680
370
    25
100
AcDbSpline
210
0.0
220
0.0
230
1.0
 70
     8
 71
     3
 72
     8
 73
     4
 74
     0
 42
0.000000001
 43
0.001
 12
1.0
 22
0.0
 32
0.0
 13
1.0
 23
0.0
 33
0.0
 40
0.0
 40
0.0
 40
0.0
 40
0.0
 40
1.0
 40
1.0
 40
1.0
 40
1.0
 10
12.23286937500006
 20
18.83496437500003
 30
0.0
 10
12.78602562500009
 20
18.83496437500003
 30
0.0
 10
13.23334687500005
 20
18.38764312500007
 30
0.0
 10
13.23334687500005
 20
17.83519312500005
 30
0.0
  0
SPLINE
  5
98
330
10E
100
AcDbEntity
  8
Cuts
 62
     1
420
 16711680
370
    25
100
AcDbSpline
210
0.0
220
0.0
230
1.0
 70
     8
 71
     3
 72
     8
 73
     4
 74
     0
 42
0.000000001
 43
0.001
 12
1.0
 22
0.0
 32
0.0
 13
1.0
 23
0.0
 33
0.0
 40
0.0
 40
0.0
 40
0.0
 40
0.0
 40
1.0
 40
1.0
 40
1.0
 40
1.0
 10
13.23334687500005
 20
17.83519312500005
 30
0.0
 10
13.23334687500005
 20
17.28238937500009
 30
0.0
 10
12.78602562500009
 20
16.83471437499998
 30
0.0
 10
12.23286937500006
 20
16.83471437499998
 30
0.0
  0
SPLINE
  5
99
330
10E
100
AcDbEntity
  8
Cuts
 62
     1
420
 16711680
370
    25
100
AcDbSpline
210
0.0
220
0.0
230
1.0
 70
     8
 71
     3
 72
     8
 73
     4
 74
     0
 42
0.000000001
 43
0.001
 12
1.0
 22
0.0
 32
0.0
 13
1.0
 23
0.0
 33
0.0
 40
0.0
 40
0.0
 40
0.0
 40
0.0
 40
1.0
 40
1.0
 40
1.0
 40
1.0
 10
12.23286937500006
 20
16.83471437499998
 30
0.0
 10
11.68112562500005
 20
16.83471437499998
 30
0.0
 10
11.233096875
 20
17.28238937500009
 30
0.0
 10
11.233096875
 20
17.83519312500005
 30
0.0
  0
SPLINE
  5
9A
330
10E
100
AcDbEntity
  8
Cuts
 62
     1
420
 16711680
370
    25
100
AcDbSpline
210
0.0
220
0.0
230
1.0
 70
     8
 71
     3
 72
     8
 73
     4
 74
     0
 42
0.000000001
 43
0.001
 12
1.0
 22
0.0
 32
0.0
 13
1.0
 23
0.0
 33
0.0
 40
0.0
 40
0.0
 40
0.0
 40
0.0
 40
1.0
 40
1.0
 40
1.0
 40
1.0
 10
11.233096875
 20
17.83519312500005
 30
0.0
 10
11.233096875
 20
18.38764312500007
 30
0.0
 10
11.68112562500005
 20
18.83496437500003
 30
0.0
 10
12.23286937500006
 20
18.83496437500003
 30
0.0
  0
SPLINE
  5
9C
330
10E
100
AcDbEntity
  8
Graphix
 62
     7
420
 16777215
100
AcDbSpline
210
0.0
220
0.0
230
1.0
 70
     8
 71
     3
 72
     8
 73
     4
 74
     0
 42
0.000000001
 43
0.001
 12
1.0
 22
0.0
 32
0.0
 13
1.0
 23
0.0
 33
0.0
 40
0.0
 40
0.0
 40
0.0
 40
0.0
 40
1.0
 40
1.0
 40
1.0
 40
1.0
 10
-89.563980625
 20
61.24485062500003
 30
0.0
 10
-89.563980625
 20
59.67110937500001
 30
0.0
 10
-90.84068312499994
 20
58.39475937500004
 30
0.0
 10
-92.41442437499995
 20
58.39475937500004
 30
0.0
  0
SPLINE
  5
9D
330
10E
100
AcDbEntity
  8
Graphix
 62
     7
420
 16777215
100
AcDbSpline
210
0.0
220
0.0
230
1.0
 70
     8
 71
     3
 72
     8
 73
     4
 74
     0
 42
0.000000001
 43
0.001
 12
1.0
 22
0.0
 32
0.0
 13
1.0
 23
0.0
 33
0.0
 40
0.0
 40
0.0
 40
0.0
 40
0.0
 40
1.0
 40
1.0
 40
1.0
 40
1.0
 10
-92.41442437499995
 20
58.39475937500004
 30
0.0
 10
-93.98816687500005
 20
58.39475937500004
 30
0.0
 10
-95.26451687500003
 20
59.67110937500001
 30
0.0
 10
-95.26451687500003
 20
61.24485062500003
 30
0.0
  0
SPLINE
  5
9E
330
10E
100
AcDbEntity
  8
Graphix
 62
     7
420
 16777215
100
AcDbSpline
210
0.0
220
0.0
230
1.0
 70
     8
 71
     3
 72
     8
 73
     4
 74
     0
 42
0.000000001
 43
0.001
 12
1.0
 22
0.0
 32
0.0
 13
1.0
 23
0.0
 33
0.0
 40
0.0
 40
0.0
 40
0.0
 40
0.0
 40
1.0
 40
1.0
 40
1.0
 40
1.0
 10
-95.26451687500003
 20
61.24485062500003
 30
0.0
 10
-95.26451687500003
 20
62.81965062500001
 30
0.0
 10
-93.98816687500005
 20
64.09529562500006
 30
0.0
 10
-92.41442437499995
 20
64.09529562500006
 30
0.0
  0
SPLINE
  5
9F
330
10E
100
AcDbEntity
  8
Graphix
 62
     7
420
 16777215
100
AcDbSpline
210
0.0
220
0.0
230
1.0
 70
     8
 71
     3
 72
     8
 73
     4
 74
     0
 42
0.000000001
 43
0.001
 12
1.0
 22
0.0
 32
0.0
 13
1.0
 23
0.0
 33
0.0
 40
0.0
 40
0.0
 40
0.0
 40
0.0
 40
1.0
 40
1.0
 40
1.0
 40
1.0
 10
-92.41442437499995
 20
64.09529562500006
 30
0.0
 10
-90.84068312499994
 20
64.09529562500006
 30
0.0
 10
-89.563980625
 20
62.81965062500001
 30
0.0
 10
-89.563980625
 20
61.24485062500003
 30
0.0
  0
SPLINE
  5
A0
330
10E
100
AcDbEntity
  8
Cuts
 62
     1
420
 16711680
370
    25
100
AcDbSpline
210
0.0
220
0.0
230
1.0
 70
     8
 71
     3
 72
     8
 73
     4
 74
     0
 42
0.000000001
 43
0.001
 12
1.0
 22
0.0
 32
0.0
 13
1.0
 23
0.0
 33
0.0
 40
0.0
 40
0.0
 40
0.0
 40
0.0
 40
1.0
 40
1.0
 40
1.0
 40
1.0
 10
-95.41444687500007
 20
54.45070437499999
 30
0.0
 10
-95.41444687500007
 20
52.79441187500004
 30
0.0
 10
-94.07071687500002
 20
51.45068187499999
 30
0.0
 10
-92.41442437499995
 20
51.45068187499999
 30
0.0
  0
SPLINE
  5
A1
330
10E
100
AcDbEntity
  8
Cuts
 62
     1
420
 16711680
370
    25
100
AcDbSpline
210
0.0
220
0.0
230
1.0
 70
     8
 71
     3
 72
     8
 73
     4
 74
     0
 42
0.000000001
 43
0.001
 12
1.0
 22
0.0
 32
0.0
 13
1.0
 23
0.0
 33
0.0
 40
0.0
 40
0.0
 40
0.0
 40
0.0
 40
1.0
 40
1.0
 40
1.0
 40
1.0
 10
-92.41442437499995
 20
51.45068187499999
 30
0.0
 10
-90.75813312500009
 20
51.45068187499999
 30
0.0
 10
-89.41404937499999
 20
52.79441187500004
 30
0.0
 10
-89.41404937499999
 20
54.45070437499999
 30
0.0
  0
SPLINE
  5
A2
330
10E
100
AcDbEntity
  8
Cuts
 62
     1
420
 16711680
370
    25
100
AcDbSpline
210
0.0
220
0.0
230
1.0
 70
     8
 71
     3
 72
     8
 73
     4
 74
     0
 42
0.000000001
 43
0.001
 12
1.0
 22
0.0
 32
0.0
 13
1.0
 23
0.0
 33
0.0
 40
0.0
 40
0.0
 40
0.0
 40
0.0
 40
1.0
 40
1.0
 40
1.0
 40
1.0
 10
-89.41404937499999
 20
54.45070437499999
 30
0.0
 10
-89.41404937499999
 20
55.56054312499998
 30
0.0
 10
-90.11889937500007
 20
56.52750687499997
 30
0.0
 10
-91.01495562499997
 20
57.04608937500007
 30
0.0
  0
SPLINE
  5
A3
330
10E
100
AcDbEntity
  8
Cuts
 62
     1
420
 16711680
370
    25
100
AcDbSpline
210
0.0
220
0.0
230
1.0
 70
     8
 71
     3
 72
     8
 73
     4
 74
     0
 42
0.000000001
 43
0.001
 12
1.0
 22
0.0
 32
0.0
 13
1.0
 23
0.0
 33
0.0
 40
0.0
 40
0.0
 40
0.0
 40
0.0
 40
1.0
 40
1.0
 40
1.0
 40
1.0
 10
-91.01495562499997
 20
61.04658937500005
 30
0.0
 10
-91.01495562499997
 20
61.87491187500007
 30
0.0
 10
-91.58539687500001
 20
62.546600625
 30
0.0
 10
-92.41442437499995
 20
62.546600625
 30
0.0
  0
SPLINE
  5
A4
330
10E
100
AcDbEntity
  8
Cuts
 62
     1
420
 16711680
370
    25
100
AcDbSpline
210
0.0
220
0.0
230
1.0
 70
     8
 71
     3
 72
     8
 73
     4
 74
     0
 42
0.000000001
 43
0.001
 12
1.0
 22
0.0
 32
0.0
 13
1.0
 23
0.0
 33
0.0
 40
0.0
 40
0.0
 40
0.0
 40
0.0
 40
1.0
 40
1.0
 40
1.0
 40
1.0
 10
-92.41442437499995
 20
62.546600625
 30
0.0
 10
-93.24274687499997
 20
62.546600625
 30
0.0
 10
-93.81459937499994
 20
61.87491187500007
 30
0.0
 10
-93.81459937499994
 20
61.04658937500005
 30
0.0
  0
LWPOLYLINE
  5
A5
330
10E
100
AcDbEntity
  8
Cuts
 62
     1
420
 16711680
370
    25
100
AcDbPolyline
 90
        2
 70
     0
 43
0.0
 10
-91.01495562499997
 20
57.04608937500007
 10
-91.01495562499997
 20
61.04658937500005
  0
SPLINE
  5
A6
330
10E
100
AcDbEntity
  8
Cuts
 62
     1
420
 16711680
370
    25
100
AcDbSpline
210
0.0
220
0.0
230
1.0
 70
     8
 71
     3
 72
     8
 73
     4
 74
     0
 42
0.000000001
 43
0.001
 12
1.0
 22
0.0
 32
0.0
 13
1.0
 23
0.0
 33
0.0
 40
0.0
 40
0.0
 40
0.0
 40
0.0
 40
1.0
 40
1.0
 40
1.0
 40
1.0
 10
-93.81459937499994
 20
57.04608937500007
 30
0.0
 10
-94.71030312499988
 20
56.52715437500001
 30
0.0
 10
-95.41444687500007
 20
55.56018937500005
 30
0.0
 10
-95.41444687500007
 20
54.45070437499999
 30
0.0
  0
LWPOLYLINE
  5
A7
330
10E
100
AcDbEntity
  8
Cuts
 62
     1
420
 16711680
370
    25
100
AcDbPolyline
 90
        2
 70
     0
 43
0.0
 10
-93.81459937499994
 20
61.04658937500005
 10
-93.81459937499994
 20
57.04608937500007
  0
SPLINE
  5
A8
330
10E
100
AcDbEntity
  8
Graphix
 62
     7
420
 16777215
100
AcDbSpline
210
0.0
220
0.0
230
1.0
 70
     8
 71
     3
 72
     8
 73
     4
 74
     0
 42
0.000000001
 43
0.001
 12
1.0
 22
0.0
 32
0.0
 13
1.0
 23
0.0
 33
0.0
 40
0.0
 40
0.0
 40
0.0
 40
0.0
 40
1.0
 40
1.0
 40
1.0
 40
1.0
 10
-89.563980625
 20
-45.48630187499998
 30
0.0
 10
-89.563980625
 20
-47.06110187499985
 30
0.0
 10
-90.84068312499994
 20
-48.33674562499993
 30
0.0
 10
-92.41442437499995
 20
-48.33674562499993
 30
0.0
  0
SPLINE
  5
A9
330
10E
100
AcDbEntity
  8
Graphix
 62
     7
420
 16777215
100
AcDbSpline
210
0.0
220
0.0
230
1.0
 70
     8
 71
     3
 72
     8
 73
     4
 74
     0
 42
0.000000001
 43
0.001
 12
1.0
 22
0.0
 32
0.0
 13
1.0
 23
0.0
 33
0.0
 40
0.0
 40
0.0
 40
0.0
 40
0.0
 40
1.0
 40
1.0
 40
1.0
 40
1.0
 10
-92.41442437499995
 20
-48.33674562499993
 30
0.0
 10
-93.98816687500005
 20
-48.33674562499993
 30
0.0
 10
-95.26451687500003
 20
-47.06110187499985
 30
0.0
 10
-95.26451687500003
 20
-45.48630187499998
 30
0.0
  0
SPLINE
  5
AA
330
10E
100
AcDbEntity
  8
Graphix
 62
     7
420
 16777215
100
AcDbSpline
210
0.0
220
0.0
230
1.0
 70
     8
 71
     3
 72
     8
 73
     4
 74
     0
 42
0.000000001
 43
0.001
 12
1.0
 22
0.0
 32
0.0
 13
1.0
 23
0.0
 33
0.0
 40
0.0
 40
0.0
 40
0.0
 40
0.0
 40
1.0
 40
1.0
 40
1.0
 40
1.0
 10
-95.26451687500003
 20
-45.48630187499998
 30
0.0
 10
-95.26451687500003
 20
-43.91256062499997
 30
0.0
 10
-93.98816687500005
 20
-42.63621062499999
 30
0.0
 10
-92.41442437499995
 20
-42.63621062499999
 30
0.0
  0
SPLINE
  5
AB
330
10E
100
AcDbEntity
  8
Cuts
 62
     1
420
 16711680
370
    25
100
AcDbSpline
210
0.0
220
0.0
230
1.0
 70
     8
 71
     3
 72
     8
 73
     4
 74
     0
 42
0.000000001
 43
0.001
 12
1.0
 22
0.0
 32
0.0
 13
1.0
 23
0.0
 33
0.0
 40
0.0
 40
0.0
 40
0.0
 40
0.0
 40
1.0
 40
1.0
 40
1.0
 40
1.0
 10
15.97901687500007
 20
182.011620625
 30
0.0
 10
15.44632187499997
 20
181.313473125
 30
0.0
 10
14.65786437499992
 20
180.8255818750001
 30
0.0
 10
13.7536943749999
 20
180.679884375
 30
0.0
  0
SPLINE
  5
AC
330
10E
100
AcDbEntity
  8
Graphix
 62
     7
420
 16777215
100
AcDbSpline
210
0.0
220
0.0
230
1.0
 70
     8
 71
     3
 72
     8
 73
     4
 74
     0
 42
0.000000001
 43
0.001
 12
1.0
 22
0.0
 32
0.0
 13
1.0
 23
0.0
 33
0.0
 40
0.0
 40
0.0
 40
0.0
 40
0.0
 40
1.0
 40
1.0
 40
1.0
 40
1.0
 10
-92.41442437499995
 20
-42.63621062499999
 30
0.0
 10
-90.84068312499994
 20
-42.63621062499999
 30
0.0
 10
-89.563980625
 20
-43.91256062499997
 30
0.0
 10
-89.563980625
 20
-45.48630187499998
 30
0.0
  0
SPLINE
  5
AD
330
10E
100
AcDbEntity
  8
Cuts
 62
     1
420
 16711680
370
    25
100
AcDbSpline
210
0.0
220
0.0
230
1.0
 70
     8
 71
     3
 72
     8
 73
     4
 74
     0
 42
0.000000001
 43
0.001
 12
1.0
 22
0.0
 32
0.0
 13
1.0
 23
0.0
 33
0.0
 40
0.0
 40
0.0
 40
0.0
 40
0.0
 40
1.0
 40
1.0
 40
1.0
 40
1.0
 10
13.7536943749999
 20
180.679884375
 30
0.0
 10
13.67925812499993
 20
180.6795318750001
 30
0.0
 10
13.60623312500002
 20
180.674593125
 30
0.0
 10
13.5332081250001
 20
180.6696543749999
 30
0.0
  0
SPLINE
  5
AE
330
10E
100
AcDbEntity
  8
Cuts
 62
     1
420
 16711680
370
    25
100
AcDbSpline
210
0.0
220
0.0
230
1.0
 70
     8
 71
     3
 72
     8
 73
     4
 74
     0
 42
0.000000001
 43
0.001
 12
1.0
 22
0.0
 32
0.0
 13
1.0
 23
0.0
 33
0.0
 40
0.0
 40
0.0
 40
0.0
 40
0.0
 40
1.0
 40
1.0
 40
1.0
 40
1.0
 10
-95.41444687500007
 20
-52.28186062500004
 30
0.0
 10
-95.41444687500007
 20
-53.93815187500002
 30
0.0
 10
-94.07071687500002
 20
-55.28188187499995
 30
0.0
 10
-92.41442437499995
 20
-55.28188187499995
 30
0.0
  0
SPLINE
  5
AF
330
10E
100
AcDbEntity
  8
Cuts
 62
     1
420
 16711680
370
    25
100
AcDbSpline
210
0.0
220
0.0
230
1.0
 70
     8
 71
     3
 72
     8
 73
     4
 74
     0
 42
0.000000001
 43
0.001
 12
1.0
 22
0.0
 32
0.0
 13
1.0
 23
0.0
 33
0.0
 40
0.0
 40
0.0
 40
0.0
 40
0.0
 40
1.0
 40
1.0
 40
1.0
 40
1.0
 10
13.5332081250001
 20
180.6696543749999
 30
0.0
 10
13.41326437499993
 20
180.6611868750001
 30
0.0
 10
13.2940256249999
 20
180.649193125
 30
0.0
 10
13.17690312500008
 20
180.631554375
 30
0.0
  0
SPLINE
  5
B0
330
10E
100
AcDbEntity
  8
Cuts
 62
     1
420
 16711680
370
    25
100
AcDbSpline
210
0.0
220
0.0
230
1.0
 70
     8
 71
     3
 72
     8
 73
     4
 74
     0
 42
0.000000001
 43
0.001
 12
1.0
 22
0.0
 32
0.0
 13
1.0
 23
0.0
 33
0.0
 40
0.0
 40
0.0
 40
0.0
 40
0.0
 40
1.0
 40
1.0
 40
1.0
 40
1.0
 10
-92.41442437499995
 20
-55.28188187499995
 30
0.0
 10
-90.75813312500009
 20
-55.28188187499995
 30
0.0
 10
-89.41404937499999
 20
-53.93815187500002
 30
0.0
 10
-89.41404937499999
 20
-52.28186062500004
 30
0.0
  0
SPLINE
  5
B1
330
10E
100
AcDbEntity
  8
Cuts
 62
     1
420
 16711680
370
    25
100
AcDbSpline
210
0.0
220
0.0
230
1.0
 70
     8
 71
     3
 72
     8
 73
     4
 74
     0
 42
0.000000001
 43
0.001
 12
1.0
 22
0.0
 32
0.0
 13
1.0
 23
0.0
 33
0.0
 40
0.0
 40
0.0
 40
0.0
 40
0.0
 40
1.0
 40
1.0
 40
1.0
 40
1.0
 10
13.17690312500008
 20
180.631554375
 30
0.0
 10
11.4038418749999
 20
180.365206875
 30
0.0
 10
10.01142812500007
 20
178.942100625
 30
0.0
 10
9.796233125000072
 20
177.152811875
 30
0.0
  0
SPLINE
  5
B2
330
10E
100
AcDbEntity
  8
Cuts
 62
     1
420
 16711680
370
    25
100
AcDbSpline
210
0.0
220
0.0
230
1.0
 70
     8
 71
     3
 72
     8
 73
     4
 74
     0
 42
0.000000001
 43
0.001
 12
1.0
 22
0.0
 32
0.0
 13
1.0
 23
0.0
 33
0.0
 40
0.0
 40
0.0
 40
0.0
 40
0.0
 40
1.0
 40
1.0
 40
1.0
 40
1.0
 10
-89.41404937499999
 20
-52.28186062500004
 30
0.0
 10
-89.41404937499999
 20
-51.17166812499988
 30
0.0
 10
-90.11889937500007
 20
-50.20505687499997
 30
0.0
 10
-91.01495562499997
 20
-49.68612062500006
 30
0.0
  0
SPLINE
  5
B3
330
10E
100
AcDbEntity
  8
Cuts
 62
     1
420
 16711680
370
    25
100
AcDbSpline
210
0.0
220
0.0
230
1.0
 70
     8
 71
     3
 72
     8
 73
     4
 74
     0
 42
0.000000001
 43
0.001
 12
1.0
 22
0.0
 32
0.0
 13
1.0
 23
0.0
 33
0.0
 40
0.0
 40
0.0
 40
0.0
 40
0.0
 40
1.0
 40
1.0
 40
1.0
 40
1.0
 10
9.796233125000072
 20
169.4654318749999
 30
0.0
 10
10.01742562499999
 20
167.6260481250001
 30
0.0
 10
11.48110062499995
 20
166.1711931249999
 30
0.0
 10
13.32506937500011
 20
165.964464375
 30
0.0
  0
SPLINE
  5
B4
330
10E
100
AcDbEntity
  8
Cuts
 62
     1
420
 16711680
370
    25
100
AcDbSpline
210
0.0
220
0.0
230
1.0
 70
     8
 71
     3
 72
     8
 73
     4
 74
     0
 42
0.000000001
 43
0.001
 12
1.0
 22
0.0
 32
0.0
 13
1.0
 23
0.0
 33
0.0
 40
0.0
 40
0.0
 40
0.0
 40
0.0
 40
1.0
 40
1.0
 40
1.0
 40
1.0
 10
-91.01495562499997
 20
-45.68491562500003
 30
0.0
 10
-91.01495562499997
 20
-44.8565931249999
 30
0.0
 10
-91.58539687500001
 20
-44.18490437499997
 30
0.0
 10
-92.41442437499995
 20
-44.18490437499997
 30
0.0
  0
LWPOLYLINE
  5
B5
330
10E
100
AcDbEntity
  8
Cuts
 62
     1
420
 16711680
370
    25
100
AcDbPolyline
 90
        2
 70
     0
 43
0.0
 10
9.796233125000072
 20
177.152811875
 10
9.796233125000072
 20
169.4654318749999
  0
SPLINE
  5
B6
330
10E
100
AcDbEntity
  8
Cuts
 62
     1
420
 16711680
370
    25
100
AcDbSpline
210
0.0
220
0.0
230
1.0
 70
     8
 71
     3
 72
     8
 73
     4
 74
     0
 42
0.000000001
 43
0.001
 12
1.0
 22
0.0
 32
0.0
 13
1.0
 23
0.0
 33
0.0
 40
0.0
 40
0.0
 40
0.0
 40
0.0
 40
1.0
 40
1.0
 40
1.0
 40
1.0
 10
-92.41442437499995
 20
-44.18490437499997
 30
0.0
 10
-93.24274687499997
 20
-44.18490437499997
 30
0.0
 10
-93.81459937499994
 20
-44.8565931249999
 30
0.0
 10
-93.81459937499994
 20
-45.68491562500003
 30
0.0
  0
SPLINE
  5
B7
330
10E
100
AcDbEntity
  8
Cuts
 62
     1
420
 16711680
370
    25
100
AcDbSpline
210
0.0
220
0.0
230
1.0
 70
     8
 71
     3
 72
     8
 73
     4
 74
     0
 42
0.000000001
 43
0.001
 12
1.0
 22
0.0
 32
0.0
 13
1.0
 23
0.0
 33
0.0
 40
0.0
 40
0.0
 40
0.0
 40
0.0
 40
1.0
 40
1.0
 40
1.0
 40
1.0
 10
13.47782187500002
 20
165.9507068749999
 30
0.0
 10
13.53215062499999
 20
165.946473125
 30
0.0
 10
13.58683062499995
 20
165.945061875
 30
0.0
 10
13.64151187500011
 20
165.943298125
 30
0.0
  0
LWPOLYLINE
  5
B8
330
10E
100
AcDbEntity
  8
Cuts
 62
     1
420
 16711680
370
    25
100
AcDbPolyline
 90
        2
 70
     0
 43
0.0
 10
-91.01495562499997
 20
-49.68612062500006
 10
-91.01495562499997
 20
-45.68491562500003
  0
SPLINE
  5
B9
330
10E
100
AcDbEntity
  8
Cuts
 62
     1
420
 16711680
370
    25
100
AcDbSpline
210
0.0
220
0.0
230
1.0
 70
     8
 71
     3
 72
     8
 73
     4
 74
     0
 42
0.000000001
 43
0.001
 12
1.0
 22
0.0
 32
0.0
 13
1.0
 23
0.0
 33
0.0
 40
0.0
 40
0.0
 40
0.0
 40
0.0
 40
1.0
 40
1.0
 40
1.0
 40
1.0
 10
13.64151187500011
 20
165.943298125
 30
0.0
 10
14.60424187500007
 20
165.8205318749999
 30
0.0
 10
15.44314687499991
 20
165.306534375
 30
0.0
 10
15.99806687499995
 20
164.5657006250001
 30
0.0
  0
SPLINE
  5
BA
330
10E
100
AcDbEntity
  8
Cuts
 62
     1
420
 16711680
370
    25
100
AcDbSpline
210
0.0
220
0.0
230
1.0
 70
     8
 71
     3
 72
     8
 73
     4
 74
     0
 42
0.000000001
 43
0.001
 12
1.0
 22
0.0
 32
0.0
 13
1.0
 23
0.0
 33
0.0
 40
0.0
 40
0.0
 40
0.0
 40
0.0
 40
1.0
 40
1.0
 40
1.0
 40
1.0
 10
-93.81459937499994
 20
-49.68612062500006
 30
0.0
 10
-94.71030312499988
 20
-50.20505687499997
 30
0.0
 10
-95.41444687500007
 20
-51.17166812499988
 30
0.0
 10
-95.41444687500007
 20
-52.28186062500004
 30
0.0
  0
LWPOLYLINE
  5
BB
330
10E
100
AcDbEntity
  8
Cuts
 62
     1
420
 16711680
370
    25
100
AcDbPolyline
 90
        2
 70
     0
 43
0.0
 10
13.32506937500011
 20
165.964464375
 10
13.47782187500002
 20
165.9507068749999
  0
LWPOLYLINE
  5
BC
330
10E
100
AcDbEntity
  8
Cuts
 62
     1
420
 16711680
370
    25
100
AcDbPolyline
 90
        2
 70
     0
 43
0.0
 10
-93.81459937499994
 20
-45.68491562500003
 10
-93.81459937499994
 20
-49.68612062500006
  0
SPLINE
  5
BD
330
10E
100
AcDbEntity
  8
Cuts
 62
     1
420
 16711680
370
    25
100
AcDbSpline
210
0.0
220
0.0
230
1.0
 70
     8
 71
     3
 72
     8
 73
     4
 74
     0
 42
0.000000001
 43
0.001
 12
1.0
 22
0.0
 32
0.0
 13
1.0
 23
0.0
 33
0.0
 40
0.0
 40
0.0
 40
0.0
 40
0.0
 40
1.0
 40
1.0
 40
1.0
 40
1.0
 10
31.28569187500011
 20
164.5657006250001
 30
0.0
 10
31.81803312500006
 20
165.2634956250001
 30
0.0
 10
32.60684437500004
 20
165.751386875
 30
0.0
 10
33.51136687500002
 20
165.8970843750001
 30
0.0
  0
SPLINE
  5
BE
330
10E
100
AcDbEntity
  8
Graphix
 62
     7
420
 16777215
100
AcDbSpline
210
0.0
220
0.0
230
1.0
 70
     8
 71
     3
 72
     8
 73
     4
 74
     0
 42
0.000000001
 43
0.001
 12
1.0
 22
0.0
 32
0.0
 13
1.0
 23
0.0
 33
0.0
 40
0.0
 40
0.0
 40
0.0
 40
0.0
 40
1.0
 40
1.0
 40
1.0
 40
1.0
 10
141.2588718750001
 20
61.388784375
 30
0.0
 10
141.2588718750001
 20
59.81468937500006
 30
0.0
 10
139.9828756249999
 20
58.53869312500001
 30
0.0
 10
138.408780625
 20
58.53869312500001
 30
0.0
  0
SPLINE
  5
BF
330
10E
100
AcDbEntity
  8
Cuts
 62
     1
420
 16711680
370
    25
100
AcDbSpline
210
0.0
220
0.0
230
1.0
 70
     8
 71
     3
 72
     8
 73
     4
 74
     0
 42
0.000000001
 43
0.001
 12
1.0
 22
0.0
 32
0.0
 13
1.0
 23
0.0
 33
0.0
 40
0.0
 40
0.0
 40
0.0
 40
0.0
 40
1.0
 40
1.0
 40
1.0
 40
1.0
 10
33.51136687500002
 20
165.8970843750001
 30
0.0
 10
33.58509687500009
 20
165.897789375
 30
0.0
 10
33.6588281249999
 20
165.9023756250001
 30
0.0
 10
33.73185312500004
 20
165.9073143749999
 30
0.0
  0
SPLINE
  5
C0
330
10E
100
AcDbEntity
  8
Graphix
 62
     7
420
 16777215
100
AcDbSpline
210
0.0
220
0.0
230
1.0
 70
     8
 71
     3
 72
     8
 73
     4
 74
     0
 42
0.000000001
 43
0.001
 12
1.0
 22
0.0
 32
0.0
 13
1.0
 23
0.0
 33
0.0
 40
0.0
 40
0.0
 40
0.0
 40
0.0
 40
1.0
 40
1.0
 40
1.0
 40
1.0
 10
138.408780625
 20
58.53869312500001
 30
0.0
 10
136.834686875
 20
58.53869312500001
 30
0.0
 10
135.5586893750001
 20
59.81468937500006
 30
0.0
 10
135.5586893750001
 20
61.388784375
 30
0.0
  0
SPLINE
  5
C1
330
10E
100
AcDbEntity
  8
Cuts
 62
     1
420
 16711680
370
    25
100
AcDbSpline
210
0.0
220
0.0
230
1.0
 70
     8
 71
     3
 72
     8
 73
     4
 74
     0
 42
0.000000001
 43
0.001
 12
1.0
 22
0.0
 32
0.0
 13
1.0
 23
0.0
 33
0.0
 40
0.0
 40
0.0
 40
0.0
 40
0.0
 40
1.0
 40
1.0
 40
1.0
 40
1.0
 10
33.73185312500004
 20
165.9073143749999
 30
0.0
 10
33.85109187500007
 20
165.916134375
 30
0.0
 10
33.97033062500009
 20
165.9277756250001
 30
0.0
 10
34.0878056250001
 20
165.9454143749999
 30
0.0
  0
SPLINE
  5
C2
330
10E
100
AcDbEntity
  8
Graphix
 62
     7
420
 16777215
100
AcDbSpline
210
0.0
220
0.0
230
1.0
 70
     8
 71
     3
 72
     8
 73
     4
 74
     0
 42
0.000000001
 43
0.001
 12
1.0
 22
0.0
 32
0.0
 13
1.0
 23
0.0
 33
0.0
 40
0.0
 40
0.0
 40
0.0
 40
0.0
 40
1.0
 40
1.0
 40
1.0
 40
1.0
 10
135.5586893750001
 20
61.388784375
 30
0.0
 10
135.5586893750001
 20
62.96323187500002
 30
0.0
 10
136.834686875
 20
64.23887562499999
 30
0.0
 10
138.408780625
 20
64.23887562499999
 30
0.0
  0
SPLINE
  5
C3
330
10E
100
AcDbEntity
  8
Cuts
 62
     1
420
 16711680
370
    25
100
AcDbSpline
210
0.0
220
0.0
230
1.0
 70
     8
 71
     3
 72
     8
 73
     4
 74
     0
 42
0.000000001
 43
0.001
 12
1.0
 22
0.0
 32
0.0
 13
1.0
 23
0.0
 33
0.0
 40
0.0
 40
0.0
 40
0.0
 40
0.0
 40
1.0
 40
1.0
 40
1.0
 40
1.0
 10
34.0878056250001
 20
165.9454143749999
 30
0.0
 10
35.86086687500006
 20
166.2114093750001
 30
0.0
 10
37.25328062499989
 20
167.6352206250001
 30
0.0
 10
37.46847562500011
 20
169.4245093750001
 30
0.0
  0
SPLINE
  5
C4
330
10E
100
AcDbEntity
  8
Graphix
 62
     7
420
 16777215
100
AcDbSpline
210
0.0
220
0.0
230
1.0
 70
     8
 71
     3
 72
     8
 73
     4
 74
     0
 42
0.000000001
 43
0.001
 12
1.0
 22
0.0
 32
0.0
 13
1.0
 23
0.0
 33
0.0
 40
0.0
 40
0.0
 40
0.0
 40
0.0
 40
1.0
 40
1.0
 40
1.0
 40
1.0
 10
138.408780625
 20
64.23887562499999
 30
0.0
 10
139.9828756249999
 20
64.23887562499999
 30
0.0
 10
141.2588718750001
 20
62.96287937500006
 30
0.0
 10
141.2588718750001
 20
61.388784375
 30
0.0
  0
LWPOLYLINE
  5
C5
330
10E
100
AcDbEntity
  8
Cuts
 62
     1
420
 16711680
370
    25
100
AcDbPolyline
 90
        2
 70
     0
 43
0.0
 10
15.99806687499995
 20
164.5657006250001
 10
31.28569187500011
 20
164.5657006250001
  0
SPLINE
  5
C6
330
10E
100
AcDbEntity
  8
Cuts
 62
     1
420
 16711680
370
    25
100
AcDbSpline
210
0.0
220
0.0
230
1.0
 70
     8
 71
     3
 72
     8
 73
     4
 74
     0
 42
0.000000001
 43
0.001
 12
1.0
 22
0.0
 32
0.0
 13
1.0
 23
0.0
 33
0.0
 40
0.0
 40
0.0
 40
0.0
 40
0.0
 40
1.0
 40
1.0
 40
1.0
 40
1.0
 10
135.4087581250001
 20
54.59357937499999
 30
0.0
 10
135.4087581250001
 20
52.93728687500004
 30
0.0
 10
136.7524893750001
 20
51.59390937500007
 30
0.0
 10
138.408780625
 20
51.59390937500007
 30
0.0
  0
SPLINE
  5
C7
330
10E
100
AcDbEntity
  8
Cuts
 62
     1
420
 16711680
370
    25
100
AcDbSpline
210
0.0
220
0.0
230
1.0
 70
     8
 71
     3
 72
     8
 73
     4
 74
     0
 42
0.000000001
 43
0.001
 12
1.0
 22
0.0
 32
0.0
 13
1.0
 23
0.0
 33
0.0
 40
0.0
 40
0.0
 40
0.0
 40
0.0
 40
1.0
 40
1.0
 40
1.0
 40
1.0
 10
37.46847562500011
 20
177.111536875
 30
0.0
 10
37.24657812500004
 20
178.950568125
 30
0.0
 10
35.78290312500008
 20
180.405423125
 30
0.0
 10
33.93858062499999
 20
180.612856875
 30
0.0
  0
SPLINE
  5
C8
330
10E
100
AcDbEntity
  8
Cuts
 62
     1
420
 16711680
370
    25
100
AcDbSpline
210
0.0
220
0.0
230
1.0
 70
     8
 71
     3
 72
     8
 73
     4
 74
     0
 42
0.000000001
 43
0.001
 12
1.0
 22
0.0
 32
0.0
 13
1.0
 23
0.0
 33
0.0
 40
0.0
 40
0.0
 40
0.0
 40
0.0
 40
1.0
 40
1.0
 40
1.0
 40
1.0
 10
138.408780625
 20
51.59390937500007
 30
0.0
 10
140.0650718750001
 20
51.59390937500007
 30
0.0
 10
141.4088031250001
 20
52.93728687500004
 30
0.0
 10
141.4088031250001
 20
54.59357937499999
 30
0.0
  0
LWPOLYLINE
  5
C9
330
10E
100
AcDbEntity
  8
Cuts
 62
     1
420
 16711680
370
    25
100
AcDbPolyline
 90
        2
 70
     0
 43
0.0
 10
37.46847562500011
 20
169.4245093750001
 10
37.46847562500011
 20
177.111536875
  0
SPLINE
  5
CA
330
10E
100
AcDbEntity
  8
Cuts
 62
     1
420
 16711680
370
    25
100
AcDbSpline
210
0.0
220
0.0
230
1.0
 70
     8
 71
     3
 72
     8
 73
     4
 74
     0
 42
0.000000001
 43
0.001
 12
1.0
 22
0.0
 32
0.0
 13
1.0
 23
0.0
 33
0.0
 40
0.0
 40
0.0
 40
0.0
 40
0.0
 40
1.0
 40
1.0
 40
1.0
 40
1.0
 10
141.4088031250001
 20
54.59357937499999
 30
0.0
 10
141.4088031250001
 20
55.70377062500006
 30
0.0
 10
140.703953125
 20
56.67038187499998
 30
0.0
 10
139.808250625
 20
57.18896437500007
 30
0.0
  0
SPLINE
  5
CB
330
10E
100
AcDbEntity
  8
Cuts
 62
     1
420
 16711680
370
    25
100
AcDbSpline
210
0.0
220
0.0
230
1.0
 70
     8
 71
     3
 72
     8
 73
     4
 74
     0
 42
0.000000001
 43
0.001
 12
1.0
 22
0.0
 32
0.0
 13
1.0
 23
0.0
 33
0.0
 40
0.0
 40
0.0
 40
0.0
 40
0.0
 40
1.0
 40
1.0
 40
1.0
 40
1.0
 10
33.78653312500001
 20
180.6266143749999
 30
0.0
 10
33.73255812499997
 20
180.6301431250001
 30
0.0
 10
33.67752562500004
 20
180.6319068749999
 30
0.0
 10
33.62319687500008
 20
180.6340231250001
 30
0.0
  0
SPLINE
  5
CC
330
10E
100
AcDbEntity
  8
Cuts
 62
     1
420
 16711680
370
    25
100
AcDbSpline
210
0.0
220
0.0
230
1.0
 70
     8
 71
     3
 72
     8
 73
     4
 74
     0
 42
0.000000001
 43
0.001
 12
1.0
 22
0.0
 32
0.0
 13
1.0
 23
0.0
 33
0.0
 40
0.0
 40
0.0
 40
0.0
 40
0.0
 40
1.0
 40
1.0
 40
1.0
 40
1.0
 10
139.808250625
 20
61.18981812499999
 30
0.0
 10
139.808250625
 20
62.01813937500003
 30
0.0
 10
139.2378081249999
 20
62.68982937500004
 30
0.0
 10
138.408780625
 20
62.68982937500004
 30
0.0
  0
SPLINE
  5
CD
330
10E
100
AcDbEntity
  8
Cuts
 62
     1
420
 16711680
370
    25
100
AcDbSpline
210
0.0
220
0.0
230
1.0
 70
     8
 71
     3
 72
     8
 73
     4
 74
     0
 42
0.000000001
 43
0.001
 12
1.0
 22
0.0
 32
0.0
 13
1.0
 23
0.0
 33
0.0
 40
0.0
 40
0.0
 40
0.0
 40
0.0
 40
1.0
 40
1.0
 40
1.0
 40
1.0
 10
33.62319687500008
 20
180.6340231250001
 30
0.0
 10
32.66046687500011
 20
180.756436875
 30
0.0
 10
31.82120812500011
 20
181.2707868750001
 30
0.0
 10
31.26628937500004
 20
182.011620625
 30
0.0
  0
SPLINE
  5
CE
330
10E
100
AcDbEntity
  8
Cuts
 62
     1
420
 16711680
370
    25
100
AcDbSpline
210
0.0
220
0.0
230
1.0
 70
     8
 71
     3
 72
     8
 73
     4
 74
     0
 42
0.000000001
 43
0.001
 12
1.0
 22
0.0
 32
0.0
 13
1.0
 23
0.0
 33
0.0
 40
0.0
 40
0.0
 40
0.0
 40
0.0
 40
1.0
 40
1.0
 40
1.0
 40
1.0
 10
138.408780625
 20
62.68982937500004
 30
0.0
 10
137.580458125
 20
62.68982937500004
 30
0.0
 10
137.008605625
 20
62.01813937500003
 30
0.0
 10
137.008605625
 20
61.18981812499999
 30
0.0
  0
LWPOLYLINE
  5
CF
330
10E
100
AcDbEntity
  8
Cuts
 62
     1
420
 16711680
370
    25
100
AcDbPolyline
 90
        2
 70
     0
 43
0.0
 10
33.93858062499999
 20
180.612856875
 10
33.78653312500001
 20
180.6266143749999
  0
LWPOLYLINE
  5
D0
330
10E
100
AcDbEntity
  8
Cuts
 62
     1
420
 16711680
370
    25
100
AcDbPolyline
 90
        2
 70
     0
 43
0.0
 10
139.808250625
 20
57.18896437500007
 10
139.808250625
 20
61.18981812499999
  0
SPLINE
  5
D1
330
10E
100
AcDbEntity
  8
Cuts
 62
     1
420
 16711680
370
    25
100
AcDbSpline
210
0.0
220
0.0
230
1.0
 70
     8
 71
     3
 72
     8
 73
     4
 74
     0
 42
0.000000001
 43
0.001
 12
1.0
 22
0.0
 32
0.0
 13
1.0
 23
0.0
 33
0.0
 40
0.0
 40
0.0
 40
0.0
 40
0.0
 40
1.0
 40
1.0
 40
1.0
 40
1.0
 10
16.86484187499991
 20
167.0686593749999
 30
0.0
 10
14.93197187500004
 20
167.0686593749999
 30
0.0
 10
13.36493312500011
 20
168.6360506250001
 30
0.0
 10
13.36493312500011
 20
170.5689206249999
 30
0.0
  0
SPLINE
  5
D2
330
10E
100
AcDbEntity
  8
Cuts
 62
     1
420
 16711680
370
    25
100
AcDbSpline
210
0.0
220
0.0
230
1.0
 70
     8
 71
     3
 72
     8
 73
     4
 74
     0
 42
0.000000001
 43
0.001
 12
1.0
 22
0.0
 32
0.0
 13
1.0
 23
0.0
 33
0.0
 40
0.0
 40
0.0
 40
0.0
 40
0.0
 40
1.0
 40
1.0
 40
1.0
 40
1.0
 10
137.008605625
 20
57.18896437500007
 30
0.0
 10
136.112903125
 20
56.67038187499998
 30
0.0
 10
135.4087581250001
 20
55.70377062500006
 30
0.0
 10
135.4087581250001
 20
54.59357937499999
 30
0.0
  0
LWPOLYLINE
  5
D3
330
10E
100
AcDbEntity
  8
Cuts
 62
     1
420
 16711680
370
    25
100
AcDbPolyline
 90
        3
 70
     0
 43
0.0
 10
31.26628937500004
 20
182.011620625
 10
15.97901687500007
 20
182.011620625
 10
15.97901687500007
 20
182.011620625
  0
LWPOLYLINE
  5
D4
330
10E
100
AcDbEntity
  8
Cuts
 62
     1
420
 16711680
370
    25
100
AcDbPolyline
 90
        2
 70
     0
 43
0.0
 10
137.008605625
 20
61.18981812499999
 10
137.008605625
 20
57.18896437500007
  0
SPLINE
  5
D5
330
10E
100
AcDbEntity
  8
Cuts
 62
     1
420
 16711680
370
    25
100
AcDbSpline
210
0.0
220
0.0
230
1.0
 70
     8
 71
     3
 72
     8
 73
     4
 74
     0
 42
0.000000001
 43
0.001
 12
1.0
 22
0.0
 32
0.0
 13
1.0
 23
0.0
 33
0.0
 40
0.0
 40
0.0
 40
0.0
 40
0.0
 40
1.0
 40
1.0
 40
1.0
 40
1.0
 10
13.77662562499995
 20
175.311311875
 30
0.0
 10
15.29956687499998
 20
175.311311875
 30
0.0
 10
16.53428937500007
 20
176.544975625
 30
0.0
 10
16.53428937500007
 20
178.0686231249999
 30
0.0
  0
SPLINE
  5
D6
330
10E
100
AcDbEntity
  8
Graphix
 62
     7
420
 16777215
100
AcDbSpline
210
0.0
220
0.0
230
1.0
 70
     8
 71
     3
 72
     8
 73
     4
 74
     0
 42
0.000000001
 43
0.001
 12
1.0
 22
0.0
 32
0.0
 13
1.0
 23
0.0
 33
0.0
 40
0.0
 40
0.0
 40
0.0
 40
0.0
 40
1.0
 40
1.0
 40
1.0
 40
1.0
 10
141.2588718750001
 20
-45.38540687499994
 30
0.0
 10
141.2588718750001
 20
-46.95950187499989
 30
0.0
 10
139.9828756249999
 20
-48.2354993749999
 30
0.0
 10
138.408780625
 20
-48.2354993749999
 30
0.0
  0
LWPOLYLINE
  5
D7
330
10E
100
AcDbEntity
  8
Cuts
 62
     1
420
 16711680
370
    25
100
AcDbPolyline
 90
        3
 70
     0
 43
0.0
 10
13.36493312500011
 20
170.5689206249999
 10
13.32753937500001
 20
175.318368125
 10
13.77662562499995
 20
175.311311875
  0
SPLINE
  5
D8
330
10E
100
AcDbEntity
  8
Graphix
 62
     7
420
 16777215
100
AcDbSpline
210
0.0
220
0.0
230
1.0
 70
     8
 71
     3
 72
     8
 73
     4
 74
     0
 42
0.000000001
 43
0.001
 12
1.0
 22
0.0
 32
0.0
 13
1.0
 23
0.0
 33
0.0
 40
0.0
 40
0.0
 40
0.0
 40
0.0
 40
1.0
 40
1.0
 40
1.0
 40
1.0
 10
138.408780625
 20
-48.2354993749999
 30
0.0
 10
136.834686875
 20
-48.2354993749999
 30
0.0
 10
135.5586893750001
 20
-46.95950187499989
 30
0.0
 10
135.5586893750001
 20
-45.38540687499994
 30
0.0
  0
SPLINE
  5
D9
330
10E
100
AcDbEntity
  8
Cuts
 62
     1
420
 16711680
370
    25
100
AcDbSpline
210
0.0
220
0.0
230
1.0
 70
     8
 71
     3
 72
     8
 73
     4
 74
     0
 42
0.000000001
 43
0.001
 12
1.0
 22
0.0
 32
0.0
 13
1.0
 23
0.0
 33
0.0
 40
0.0
 40
0.0
 40
0.0
 40
0.0
 40
1.0
 40
1.0
 40
1.0
 40
1.0
 10
30.62705562499991
 20
179.5686343750001
 30
0.0
 10
32.56027812499997
 20
179.5686343750001
 30
0.0
 10
34.1276693750001
 20
178.0019481250001
 30
0.0
 10
34.1276693750001
 20
176.069079375
 30
0.0
  0
SPLINE
  5
DA
330
10E
100
AcDbEntity
  8
Graphix
 62
     7
420
 16777215
100
AcDbSpline
210
0.0
220
0.0
230
1.0
 70
     8
 71
     3
 72
     8
 73
     4
 74
     0
 42
0.000000001
 43
0.001
 12
1.0
 22
0.0
 32
0.0
 13
1.0
 23
0.0
 33
0.0
 40
0.0
 40
0.0
 40
0.0
 40
0.0
 40
1.0
 40
1.0
 40
1.0
 40
1.0
 10
135.5586893750001
 20
-45.38540687499994
 30
0.0
 10
135.5586893750001
 20
-43.81096062500001
 30
0.0
 10
136.834686875
 20
-42.53531562500007
 30
0.0
 10
138.408780625
 20
-42.53531562500007
 30
0.0
  0
LWPOLYLINE
  5
DB
330
10E
100
AcDbEntity
  8
Cuts
 62
     1
420
 16711680
370
    25
100
AcDbPolyline
 90
        3
 70
     0
 43
0.0
 10
16.53428937500007
 20
178.0686231249999
 10
16.5268806250001
 20
179.5686343750001
 10
30.62705562499991
 20
179.5686343750001
  0
SPLINE
  5
DC
330
10E
100
AcDbEntity
  8
Graphix
 62
     7
420
 16777215
100
AcDbSpline
210
0.0
220
0.0
230
1.0
 70
     8
 71
     3
 72
     8
 73
     4
 74
     0
 42
0.000000001
 43
0.001
 12
1.0
 22
0.0
 32
0.0
 13
1.0
 23
0.0
 33
0.0
 40
0.0
 40
0.0
 40
0.0
 40
0.0
 40
1.0
 40
1.0
 40
1.0
 40
1.0
 10
138.408780625
 20
-42.53531562500007
 30
0.0
 10
139.9828756249999
 20
-42.53531562500007
 30
0.0
 10
141.2588718750001
 20
-43.81131312499997
 30
0.0
 10
141.2588718750001
 20
-45.38540687499994
 30
0.0
  0
SPLINE
  5
DD
330
10E
100
AcDbEntity
  8
Cuts
 62
     1
420
 16711680
370
    25
100
AcDbSpline
210
0.0
220
0.0
230
1.0
 70
     8
 71
     3
 72
     8
 73
     4
 74
     0
 42
0.000000001
 43
0.001
 12
1.0
 22
0.0
 32
0.0
 13
1.0
 23
0.0
 33
0.0
 40
0.0
 40
0.0
 40
0.0
 40
0.0
 40
1.0
 40
1.0
 40
1.0
 40
1.0
 10
32.2769968749999
 20
171.315045625
 30
0.0
 10
30.75934687499989
 20
171.315045625
 30
0.0
 10
29.53026937499999
 20
170.0863206250001
 30
0.0
 10
29.53026937499999
 20
168.5686706250001
 30
0.0
  0
LWPOLYLINE
  5
DE
330
10E
100
AcDbEntity
  8
Cuts
 62
     1
420
 16711680
370
    25
100
AcDbPolyline
 90
        3
 70
     0
 43
0.0
 10
34.1276693750001
 20
176.069079375
 10
34.1276693750001
 20
171.319279375
 10
32.2769968749999
 20
171.315045625
  0
SPLINE
  5
DF
330
10E
100
AcDbEntity
  8
Cuts
 62
     1
420
 16711680
370
    25
100
AcDbSpline
210
0.0
220
0.0
230
1.0
 70
     8
 71
     3
 72
     8
 73
     4
 74
     0
 42
0.000000001
 43
0.001
 12
1.0
 22
0.0
 32
0.0
 13
1.0
 23
0.0
 33
0.0
 40
0.0
 40
0.0
 40
0.0
 40
0.0
 40
1.0
 40
1.0
 40
1.0
 40
1.0
 10
33.7766556250001
 20
168.5686706250001
 30
0.0
 10
33.7766556250001
 20
169.3973456250001
 30
0.0
 10
33.10531937499991
 20
170.068681875
 30
0.0
 10
32.27735062500005
 20
170.068681875
 30
0.0
  0
SPLINE
  5
E0
330
10E
100
AcDbEntity
  8
Cuts
 62
     1
420
 16711680
370
    25
100
AcDbSpline
210
0.0
220
0.0
230
1.0
 70
     8
 71
     3
 72
     8
 73
     4
 74
     0
 42
0.000000001
 43
0.001
 12
1.0
 22
0.0
 32
0.0
 13
1.0
 23
0.0
 33
0.0
 40
0.0
 40
0.0
 40
0.0
 40
0.0
 40
1.0
 40
1.0
 40
1.0
 40
1.0
 10
32.27735062500005
 20
170.068681875
 30
0.0
 10
31.44867562500008
 20
170.068681875
 30
0.0
 10
30.77733937500011
 20
169.3973456250001
 30
0.0
 10
30.77733937500011
 20
168.5686706250001
 30
0.0
  0
SPLINE
  5
E1
330
10E
100
AcDbEntity
  8
Cuts
 62
     1
420
 16711680
370
    25
100
AcDbSpline
210
0.0
220
0.0
230
1.0
 70
     8
 71
     3
 72
     8
 73
     4
 74
     0
 42
0.000000001
 43
0.001
 12
1.0
 22
0.0
 32
0.0
 13
1.0
 23
0.0
 33
0.0
 40
0.0
 40
0.0
 40
0.0
 40
0.0
 40
1.0
 40
1.0
 40
1.0
 40
1.0
 10
30.77733937500011
 20
168.5686706250001
 30
0.0
 10
30.77733937500011
 20
167.7403481250001
 30
0.0
 10
31.44867562500008
 20
167.0686593749999
 30
0.0
 10
32.27735062500005
 20
167.0686593749999
 30
0.0
  0
SPLINE
  5
E2
330
10E
100
AcDbEntity
  8
Cuts
 62
     1
420
 16711680
370
    25
100
AcDbSpline
210
0.0
220
0.0
230
1.0
 70
     8
 71
     3
 72
     8
 73
     4
 74
     0
 42
0.000000001
 43
0.001
 12
1.0
 22
0.0
 32
0.0
 13
1.0
 23
0.0
 33
0.0
 40
0.0
 40
0.0
 40
0.0
 40
0.0
 40
1.0
 40
1.0
 40
1.0
 40
1.0
 10
32.27735062500005
 20
167.0686593749999
 30
0.0
 10
33.10496687499995
 20
167.0686593749999
 30
0.0
 10
33.7766556250001
 20
167.7403481250001
 30
0.0
 10
33.7766556250001
 20
168.5686706250001
 30
0.0
  0
LWPOLYLINE
  5
E3
330
10E
100
AcDbEntity
  8
Cuts
 62
     1
420
 16711680
370
    25
100
AcDbPolyline
 90
        4
 70
     0
 43
0.0
 10
29.53026937499999
 20
168.5686706250001
 10
29.52638937500001
 20
167.0686593749999
 10
16.86484187499991
 20
167.0686593749999
 10
16.86484187499991
 20
167.0686593749999
  0
SPLINE
  5
E4
330
10E
100
AcDbEntity
  8
Cuts
 62
     1
420
 16711680
370
    25
100
AcDbSpline
210
0.0
220
0.0
230
1.0
 70
     8
 71
     3
 72
     8
 73
     4
 74
     0
 42
0.000000001
 43
0.001
 12
1.0
 22
0.0
 32
0.0
 13
1.0
 23
0.0
 33
0.0
 40
0.0
 40
0.0
 40
0.0
 40
0.0
 40
1.0
 40
1.0
 40
1.0
 40
1.0
 10
15.27663687499989
 20
178.0689756250001
 30
0.0
 10
15.27663687499989
 20
178.8972981250001
 30
0.0
 10
14.60530062499993
 20
179.5689868750001
 30
0.0
 10
13.77662562499995
 20
179.5689868750001
 30
0.0
  0
SPLINE
  5
E5
330
10E
100
AcDbEntity
  8
Cuts
 62
     1
420
 16711680
370
    25
100
AcDbSpline
210
0.0
220
0.0
230
1.0
 70
     8
 71
     3
 72
     8
 73
     4
 74
     0
 42
0.000000001
 43
0.001
 12
1.0
 22
0.0
 32
0.0
 13
1.0
 23
0.0
 33
0.0
 40
0.0
 40
0.0
 40
0.0
 40
0.0
 40
1.0
 40
1.0
 40
1.0
 40
1.0
 10
13.77662562499995
 20
179.5689868750001
 30
0.0
 10
12.94795062499998
 20
179.5689868750001
 30
0.0
 10
12.27661437500001
 20
178.8972981250001
 30
0.0
 10
12.27661437500001
 20
178.0689756250001
 30
0.0
  0
SPLINE
  5
E6
330
10E
100
AcDbEntity
  8
Cuts
 62
     1
420
 16711680
370
    25
100
AcDbSpline
210
0.0
220
0.0
230
1.0
 70
     8
 71
     3
 72
     8
 73
     4
 74
     0
 42
0.000000001
 43
0.001
 12
1.0
 22
0.0
 32
0.0
 13
1.0
 23
0.0
 33
0.0
 40
0.0
 40
0.0
 40
0.0
 40
0.0
 40
1.0
 40
1.0
 40
1.0
 40
1.0
 10
12.27661437500001
 20
178.0689756250001
 30
0.0
 10
12.27661437500001
 20
177.2403006249999
 30
0.0
 10
12.94795062499998
 20
176.568964375
 30
0.0
 10
13.77662562499995
 20
176.568964375
 30
0.0
  0
SPLINE
  5
E7
330
10E
100
AcDbEntity
  8
Cuts
 62
     1
420
 16711680
370
    25
100
AcDbSpline
210
0.0
220
0.0
230
1.0
 70
     8
 71
     3
 72
     8
 73
     4
 74
     0
 42
0.000000001
 43
0.001
 12
1.0
 22
0.0
 32
0.0
 13
1.0
 23
0.0
 33
0.0
 40
0.0
 40
0.0
 40
0.0
 40
0.0
 40
1.0
 40
1.0
 40
1.0
 40
1.0
 10
13.77662562499995
 20
176.568964375
 30
0.0
 10
14.60530062499993
 20
176.568964375
 30
0.0
 10
15.27663687499989
 20
177.2403006249999
 30
0.0
 10
15.27663687499989
 20
178.0689756250001
 30
0.0
  0
SPLINE
  5
E8
330
10E
100
AcDbEntity
  8
Cuts
 62
     1
420
 16711680
370
    25
100
AcDbSpline
210
0.0
220
0.0
230
1.0
 70
     8
 71
     3
 72
     8
 73
     4
 74
     0
 42
0.000000001
 43
0.001
 12
1.0
 22
0.0
 32
0.0
 13
1.0
 23
0.0
 33
0.0
 40
0.0
 40
0.0
 40
0.0
 40
0.0
 40
1.0
 40
1.0
 40
1.0
 40
1.0
 10
135.4087581250001
 20
-52.18061312500004
 30
0.0
 10
135.4087581250001
 20
-53.8369043749999
 30
0.0
 10
136.7524893750001
 20
-55.18063562499992
 30
0.0
 10
138.408780625
 20
-55.18063562499992
 30
0.0
  0
SPLINE
  5
E9
330
10E
100
AcDbEntity
  8
Cuts
 62
     1
420
 16711680
370
    25
100
AcDbSpline
210
0.0
220
0.0
230
1.0
 70
     8
 71
     3
 72
     8
 73
     4
 74
     0
 42
0.000000001
 43
0.001
 12
1.0
 22
0.0
 32
0.0
 13
1.0
 23
0.0
 33
0.0
 40
0.0
 40
0.0
 40
0.0
 40
0.0
 40
1.0
 40
1.0
 40
1.0
 40
1.0
 10
138.408780625
 20
-55.18063562499992
 30
0.0
 10
140.0650718750001
 20
-55.18063562499992
 30
0.0
 10
141.4088031250001
 20
-53.8369043749999
 30
0.0
 10
141.4088031250001
 20
-52.18061312500004
 30
0.0
  0
SPLINE
  5
EA
330
10E
100
AcDbEntity
  8
Cuts
 62
     1
420
 16711680
370
    25
100
AcDbSpline
210
0.0
220
0.0
230
1.0
 70
     8
 71
     3
 72
     8
 73
     4
 74
     0
 42
0.000000001
 43
0.001
 12
1.0
 22
0.0
 32
0.0
 13
1.0
 23
0.0
 33
0.0
 40
0.0
 40
0.0
 40
0.0
 40
0.0
 40
1.0
 40
1.0
 40
1.0
 40
1.0
 10
141.4088031250001
 20
-52.18061312500004
 30
0.0
 10
141.4088031250001
 20
-51.070420625
 30
0.0
 10
140.703953125
 20
-50.10381062499994
 30
0.0
 10
139.808250625
 20
-49.58487437500003
 30
0.0
  0
SPLINE
  5
EB
330
10E
100
AcDbEntity
  8
Cuts
 62
     1
420
 16711680
370
    25
100
AcDbSpline
210
0.0
220
0.0
230
1.0
 70
     8
 71
     3
 72
     8
 73
     4
 74
     0
 42
0.000000001
 43
0.001
 12
1.0
 22
0.0
 32
0.0
 13
1.0
 23
0.0
 33
0.0
 40
0.0
 40
0.0
 40
0.0
 40
0.0
 40
1.0
 40
1.0
 40
1.0
 40
1.0
 10
139.808250625
 20
-45.58437437499992
 30
0.0
 10
139.808250625
 20
-44.75605187499991
 30
0.0
 10
139.2378081249999
 20
-44.08436312499998
 30
0.0
 10
138.408780625
 20
-44.08436312499998
 30
0.0
  0
SPLINE
  5
EC
330
10E
100
AcDbEntity
  8
Cuts
 62
     1
420
 16711680
370
    25
100
AcDbSpline
210
0.0
220
0.0
230
1.0
 70
     8
 71
     3
 72
     8
 73
     4
 74
     0
 42
0.000000001
 43
0.001
 12
1.0
 22
0.0
 32
0.0
 13
1.0
 23
0.0
 33
0.0
 40
0.0
 40
0.0
 40
0.0
 40
0.0
 40
1.0
 40
1.0
 40
1.0
 40
1.0
 10
138.408780625
 20
-44.08436312499998
 30
0.0
 10
137.580458125
 20
-44.08436312499998
 30
0.0
 10
137.008605625
 20
-44.75605187499991
 30
0.0
 10
137.008605625
 20
-45.58437437499992
 30
0.0
  0
LWPOLYLINE
  5
ED
330
10E
100
AcDbEntity
  8
Cuts
 62
     1
420
 16711680
370
    25
100
AcDbPolyline
 90
        2
 70
     0
 43
0.0
 10
139.808250625
 20
-49.58487437500003
 10
139.808250625
 20
-45.58437437499992
  0
SPLINE
  5
EE
330
10E
100
AcDbEntity
  8
Cuts
 62
     1
420
 16711680
370
    25
100
AcDbSpline
210
0.0
220
0.0
230
1.0
 70
     8
 71
     3
 72
     8
 73
     4
 74
     0
 42
0.000000001
 43
0.001
 12
1.0
 22
0.0
 32
0.0
 13
1.0
 23
0.0
 33
0.0
 40
0.0
 40
0.0
 40
0.0
 40
0.0
 40
1.0
 40
1.0
 40
1.0
 40
1.0
 10
137.008605625
 20
-49.58487437500003
 30
0.0
 10
136.112903125
 20
-50.10381062499994
 30
0.0
 10
135.4087581250001
 20
-51.070420625
 30
0.0
 10
135.4087581250001
 20
-52.18061312500004
 30
0.0
  0
LWPOLYLINE
  5
EF
330
10E
100
AcDbEntity
  8
Cuts
 62
     1
420
 16711680
370
    25
100
AcDbPolyline
 90
        2
 70
     0
 43
0.0
 10
137.008605625
 20
-45.58437437499992
 10
137.008605625
 20
-49.58487437500003
  0
ENDSEC
  0
SECTION
  2
OBJECTS
  0
DICTIONARY
  5
FC
330
0
100
AcDbDictionary
281
     1
  3
ACAD_GROUP
350
FD
  3
ACAD_LAYOUT
350
109
  3
ACAD_MATERIAL
350
12A
  3
ACAD_MLEADERSTYLE
350
149
  3
ACAD_MLINESTYLE
350
106
  3
ACAD_PLOTSETTINGS
350
108
  3
ACAD_PLOTSTYLENAME
350
FE
  3
ACAD_TABLESTYLE
350
148
  3
ACAD_VISUALSTYLE
350
119
  3
QCAD_OBJECTS
350
12F
  0
DICTIONARY
  5
FD
102
{ACAD_REACTORS
330
FC
102
}
330
FC
100
AcDbDictionary
281
     1
  0
DICTIONARY
  5
109
102
{ACAD_REACTORS
330
FC
102
}
330
FC
100
AcDbDictionary
281
     1
  3
Layout1
350
10D
  3
Layout2
350
115
  3
Model
350
111
  0
DICTIONARY
  5
12A
102
{ACAD_REACTORS
330
FC
102
}
330
FC
100
AcDbDictionary
281
     1
  3
ByBlock
350
12C
  3
ByLayer
350
12B
  3
Global
350
12D
  0
DICTIONARY
  5
149
102
{ACAD_REACTORS
330
FC
102
}
330
FC
100
AcDbDictionary
281
     1
  0
DICTIONARY
  5
106
102
{ACAD_REACTORS
330
FC
102
}
330
FC
100
AcDbDictionary
281
     1
  3
Standard
350
107
  0
DICTIONARY
  5
108
102
{ACAD_REACTORS
330
FC
102
}
330
FC
100
AcDbDictionary
281
     1
  0
ACDBDICTIONARYWDFLT
  5
FE
102
{ACAD_REACTORS
330
FC
102
}
330
FC
100
AcDbDictionary
281
     1
  3
Normal
350
FF
100
AcDbDictionaryWithDefault
340
FF
  0
DICTIONARY
  5
148
102
{ACAD_REACTORS
330
FC
102
}
330
FC
100
AcDbDictionary
281
     1
  0
DICTIONARY
  5
119
102
{ACAD_REACTORS
330
FC
102
}
330
FC
100
AcDbDictionary
281
     1
  3
2dWireframe
350
11E
  3
3D Hidden
350
120
  3
3dWireframe
350
11F
  3
Basic
350
121
  3
Brighten
350
125
  3
ColorChange
350
129
  3
Conceptual
350
123
  3
Dim
350
124
  3
Facepattern
350
128
  3
Flat
350
11A
  3
FlatWithEdges
350
11B
  3
Gouraud
350
11C
  3
GouraudWithEdges
350
11D
  3
Linepattern
350
127
  3
Realistic
350
122
  3
Thicken
350
126
  0
DICTIONARY
  5
12F
102
{ACAD_REACTORS
330
FC
102
}
330
FC
100
AcDbDictionary
281
     1
  3
Grid/DisplayGrid
350
130
  3
PageSettings/Scale
350
131
  0
LAYOUT
  5
10D
102
{ACAD_REACTORS
330
109
102
}
330
109
100
AcDbPlotSettings
  1

  2
none_device
  4

  6

 40
0.0
 41
0.0
 42
0.0
 43
0.0
 44
0.0
 45
0.0
 46
0.0
 47
0.0
 48
0.0
 49
0.0
140
0.0
141
0.0
142
1.0
143
1.0
 70
   688
 72
     0
 73
     0
 74
     5
  7

 75
    16
 76
     0
 77
     2
 78
   300
147
1.0
148
0.0
149
0.0
100
AcDbLayout
  1
Layout1
 70
     1
 71
     1
 10
0.0
 20
0.0
 11
12.0
 21
9.0
 12
0.0
 22
0.0
 32
0.0
 14
1.000000000000000E+20
 24
1.000000000000000E+20
 34
1.000000000000000E+20
 15
-1.000000000000000E+20
 25
-1.000000000000000E+20
 35
-1.000000000000000E+20
146
0.0
 13
0.0
 23
0.0
 33
0.0
 16
1.0
 26
0.0
 36
0.0
 17
0.0
 27
1.0
 37
0.0
 76
     0
330
10A
  0
LAYOUT
  5
115
102
{ACAD_REACTORS
330
109
102
}
330
109
100
AcDbPlotSettings
  1

  2
none_device
  4

  6

 40
0.0
 41
0.0
 42
0.0
 43
0.0
 44
0.0
 45
0.0
 46
0.0
 47
0.0
 48
0.0
 49
0.0
140
0.0
141
0.0
142
1.0
143
1.0
 70
   688
 72
     0
 73
     0
 74
     5
  7

 75
    16
 76
     0
 77
     2
 78
   300
147
1.0
148
0.0
149
0.0
100
AcDbLayout
  1
Layout2
 70
     1
 71
     2
 10
0.0
 20
0.0
 11
0.0
 21
0.0
 12
0.0
 22
0.0
 32
0.0
 14
0.0
 24
0.0
 34
0.0
 15
0.0
 25
0.0
 35
0.0
146
0.0
 13
0.0
 23
0.0
 33
0.0
 16
1.0
 26
0.0
 36
0.0
 17
0.0
 27
1.0
 37
0.0
 76
     0
330
112
  0
LAYOUT
  5
111
102
{ACAD_REACTORS
330
109
102
}
330
109
100
AcDbPlotSettings
  1

  2
none_device
  4

  6

 40
0.0
 41
0.0
 42
0.0
 43
0.0
 44
0.0
 45
0.0
 46
0.0
 47
0.0
 48
0.0
 49
0.0
140
0.0
141
0.0
142
1.0
143
1.0
 70
  1712
 72
     0
 73
     0
 74
     0
  7

 75
     0
 76
     0
 77
     2
 78
   300
147
1.0
148
0.0
149
0.0
100
AcDbLayout
  1
Model
 70
     1
 71
     0
 10
0.0
 20
0.0
 11
12.0
 21
9.0
 12
0.0
 22
0.0
 32
0.0
 14
1.000000000000000E+20
 24
1.000000000000000E+20
 34
1.000000000000000E+20
 15
-1.000000000000000E+20
 25
-1.000000000000000E+20
 35
-1.000000000000000E+20
146
0.0
 13
0.0
 23
0.0
 33
0.0
 16
1.0
 26
0.0
 36
0.0
 17
0.0
 27
1.0
 37
0.0
 76
     0
330
10E
331
118
  0
MATERIAL
  5
12C
102
{ACAD_REACTORS
330
12A
102
}
330
12A
100
AcDbMaterial
  1
ByBlock
 72
     1
 94
      127
  0
MATERIAL
  5
12B
102
{ACAD_REACTORS
330
12A
102
}
330
12A
100
AcDbMaterial
  1
ByLayer
 72
     1
 94
      127
  0
MATERIAL
  5
12D
102
{ACAD_REACTORS
330
12A
102
}
330
12A
100
AcDbMaterial
  1
Global
 72
     1
 94
      127
  0
MLINESTYLE
  5
107
102
{ACAD_REACTORS
330
106
102
}
330
106
100
AcDbMlineStyle
  2
Standard
 70
     0
  3

 62
   256
 51
90.0
 52
90.0
 71
     2
 49
0.5
 62
   256
  6
BYLAYER
 49
-0.5
 62
   256
  6
BYLAYER
  0
ACDBPLACEHOLDER
  5
FF
102
{ACAD_REACTORS
330
FE
102
}
330
FE
  0
VISUALSTYLE
  5
11E
102
{ACAD_REACTORS
330
119
102
}
330
119
100
AcDbVisualStyle
  2
2dWireframe
 70
     4
177
     2
291
     0
 71
     0
176
     1
 72
     2
176
     1
 73
     0
176
     1
 90
        0
176
     1
 40
-0.6
176
     1
 41
-30.0
176
     1
 62
     5
 63
     7
421
 16777215
176
     1
 74
     1
176
     1
 91
        4
176
     1
 64
     7
176
     1
 65
   257
176
     1
 75
     1
176
     1
175
     1
176
     1
 42
1.0
176
     1
 92
        0
176
     1
 66
   257
176
     1
 43
1.0
176
     1
 76
     1
176
     1
 77
     6
176
     1
 78
     2
176
     1
 67
     7
176
     1
 79
     5
176
     1
170
     0
176
     1
171
     0
176
     1
290
     0
176
     1
 93
        1
176
     1
 44
0.0
176
     1
173
     0
176
     1
  0
VISUALSTYLE
  5
120
102
{ACAD_REACTORS
330
119
102
}
330
119
100
AcDbVisualStyle
  2
3D Hidden
 70
     6
177
     2
291
     0
 71
     1
176
     1
 72
     2
176
     1
 73
     2
176
     1
 90
        0
176
     1
 40
-0.6
176
     1
 41
-30.0
176
     1
 62
     5
 63
     7
421
 16777215
176
     1
 74
     2
176
     1
 91
        2
176
     1
 64
     7
176
     1
 65
   257
176
     1
 75
     2
176
     1
175
     1
176
     1
 42
40.0
176
     1
 92
        0
176
     1
 66
   257
176
     1
 43
1.0
176
     1
 76
     1
176
     1
 77
     6
176
     1
 78
     2
176
     1
 67
     7
176
     1
 79
     3
176
     1
170
     0
176
     1
171
     0
176
     1
290
     0
176
     1
 93
        1
176
     1
 44
0.0
176
     1
173
     0
176
     1
  0
VISUALSTYLE
  5
11F
102
{ACAD_REACTORS
330
119
102
}
330
119
100
AcDbVisualStyle
  2
3dWireframe
 70
     5
177
     2
291
     0
 71
     0
176
     1
 72
     2
176
     1
 73
     0
176
     1
 90
        0
176
     1
 40
-0.6
176
     1
 41
-30.0
176
     1
 62
     5
 63
     7
421
 16777215
176
     1
 74
     1
176
     1
 91
        4
176
     1
 64
     7
176
     1
 65
   257
176
     1
 75
     1
176
     1
175
     1
176
     1
 42
1.0
176
     1
 92
        0
176
     1
 66
   257
176
     1
 43
1.0
176
     1
 76
     1
176
     1
 77
     6
176
     1
 78
     2
176
     1
 67
     7
176
     1
 79
     5
176
     1
170
     0
176
     1
171
     0
176
     1
290
     0
176
     1
 93
        1
176
     1
 44
0.0
176
     1
173
     0
176
     1
  0
VISUALSTYLE
  5
121
102
{ACAD_REACTORS
330
119
102
}
330
119
100
AcDbVisualStyle
  2
Basic
 70
     7
177
     2
291
     1
 71
     1
176
     1
 72
     0
176
     1
 73
     1
176
     1
 90
        0
176
     1
 40
-0.6
176
     1
 41
-30.0
176
     1
 62
     5
 63
     7
421
 16777215
176
     1
 74
     0
176
     1
 91
        4
176
     1
 64
     7
176
     1
 65
   257
176
     1
 75
     1
176
     1
175
     1
176
     1
 42
1.0
176
     1
 92
        8
176
     1
 66
     7
176
     1
 43
1.0
176
     1
 76
     1
176
     1
 77
     6
176
     1
 78
     2
176
     1
 67
     7
176
     1
 79
     5
176
     1
170
     0
176
     1
171
     0
176
     1
290
     0
176
     1
 93
        1
176
     1
 44
0.0
176
     1
173
     0
176
     1
  0
VISUALSTYLE
  5
125
102
{ACAD_REACTORS
330
119
102
}
330
119
100
AcDbVisualStyle
  2
Brighten
 70
    12
177
     2
291
     1
 71
     2
176
     1
 72
     2
176
     1
 73
     0
176
     1
 90
        0
176
     1
 40
-0.6
176
     1
 41
-30.0
176
     1
 62
     5
 63
     7
421
 16777215
176
     1
 74
     1
176
     1
 91
        4
176
     1
 64
     7
176
     1
 65
   257
176
     1
 75
     1
176
     1
175
     1
176
     1
 42
1.0
176
     1
 92
        8
176
     1
 66
     7
176
     1
 43
1.0
176
     1
 76
     1
176
     1
 77
     6
176
     1
 78
     2
176
     1
 67
     7
176
     1
 79
     5
176
     1
170
     0
176
     1
171
     0
176
     1
290
     0
176
     1
 93
        1
176
     1
 44
50.0
176
     1
173
     0
176
     1
  0
VISUALSTYLE
  5
129
102
{ACAD_REACTORS
330
119
102
}
330
119
100
AcDbVisualStyle
  2
ColorChange
 70
    16
177
     2
291
     1
 71
     2
176
     1
 72
     2
176
     1
 73
     3
176
     1
 90
        0
176
     1
 40
-0.6
176
     1
 41
-30.0
176
     1
 62
     5
 63
     8
421
  8421504
176
     1
 74
     1
176
     1
 91
        4
176
     1
 64
     7
176
     1
 65
   257
176
     1
 75
     1
176
     1
175
     1
176
     1
 42
1.0
176
     1
 92
        8
176
     1
 66
     8
424
  8421504
176
     1
 43
1.0
176
     1
 76
     1
176
     1
 77
     6
176
     1
 78
     2
176
     1
 67
     7
176
     1
 79
     5
176
     1
170
     0
176
     1
171
     0
176
     1
290
     0
176
     1
 93
        1
176
     1
 44
0.0
176
     1
173
     0
176
     1
  0
VISUALSTYLE
  5
123
102
{ACAD_REACTORS
330
119
102
}
330
119
100
AcDbVisualStyle
  2
Conceptual
 70
     9
177
     2
291
     0
 71
     3
176
     1
 72
     2
176
     1
 73
     0
176
     1
 90
        0
176
     1
 40
-0.6
176
     1
 41
-30.0
176
     1
 62
     5
 63
     7
421
 16777215
176
     1
 74
     2
176
     1
 91
        2
176
     1
 64
     7
176
     1
 65
   257
176
     1
 75
     1
176
     1
175
     1
176
     1
 42
40.0
176
     1
 92
        8
176
     1
 66
     7
176
     1
 43
1.0
176
     1
 76
     1
176
     1
 77
     6
176
     1
 78
     2
176
     1
 67
     7
176
     1
 79
     3
176
     1
170
     0
176
     1
171
     0
176
     1
290
     0
176
     1
 93
        1
176
     1
 44
0.0
176
     1
173
     0
176
     1
  0
VISUALSTYLE
  5
124
102
{ACAD_REACTORS
330
119
102
}
330
119
100
AcDbVisualStyle
  2
Dim
 70
    11
177
     2
291
     1
 71
     2
176
     1
 72
     2
176
     1
 73
     0
176
     1
 90
        0
176
     1
 40
-0.6
176
     1
 41
-30.0
176
     1
 62
     5
 63
     7
421
 16777215
176
     1
 74
     1
176
     1
 91
        4
176
     1
 64
     7
176
     1
 65
   257
176
     1
 75
     1
176
     1
175
     1
176
     1
 42
1.0
176
     1
 92
        8
176
     1
 66
     7
176
     1
 43
1.0
176
     1
 76
     1
176
     1
 77
     6
176
     1
 78
     2
176
     1
 67
     7
176
     1
 79
     5
176
     1
170
     0
176
     1
171
     0
176
     1
290
     0
176
     1
 93
        1
176
     1
 44
-50.0
176
     1
173
     0
176
     1
  0
VISUALSTYLE
  5
128
102
{ACAD_REACTORS
330
119
102
}
330
119
100
AcDbVisualStyle
  2
Facepattern
 70
    15
177
     2
291
     1
 71
     2
176
     1
 72
     2
176
     1
 73
     0
176
     1
 90
        0
176
     1
 40
-0.6
176
     1
 41
-30.0
176
     1
 62
     5
 63
     7
421
 16777215
176
     1
 74
     1
176
     1
 91
        4
176
     1
 64
     7
176
     1
 65
   257
176
     1
 75
     1
176
     1
175
     1
176
     1
 42
1.0
176
     1
 92
        8
176
     1
 66
     7
176
     1
 43
1.0
176
     1
 76
     1
176
     1
 77
     6
176
     1
 78
     2
176
     1
 67
     7
176
     1
 79
     5
176
     1
170
     0
176
     1
171
     0
176
     1
290
     0
176
     1
 93
        1
176
     1
 44
0.0
176
     1
173
     0
176
     1
  0
VISUALSTYLE
  5
11A
102
{ACAD_REACTORS
330
119
102
}
330
119
100
AcDbVisualStyle
  2
Flat
 70
     0
177
     2
291
     1
 71
     2
176
     1
 72
     1
176
     1
 73
     1
176
     1
 90
        2
176
     1
 40
-0.6
176
     1
 41
30.0
176
     1
 62
     5
 63
     7
421
 16777215
176
     1
 74
     0
176
     1
 91
        4
176
     1
 64
     7
176
     1
 65
   257
176
     1
 75
     1
176
     1
175
     1
176
     1
 42
1.0
176
     1
 92
        8
176
     1
 66
     7
176
     1
 43
1.0
176
     1
 76
     1
176
     1
 77
     6
176
     1
 78
     2
176
     1
 67
     7
176
     1
 79
     5
176
     1
170
     0
176
     1
171
     0
176
     1
290
     0
176
     1
 93
       13
176
     1
 44
0.0
176
     1
173
     0
176
     1
  0
VISUALSTYLE
  5
11B
102
{ACAD_REACTORS
330
119
102
}
330
119
100
AcDbVisualStyle
  2
FlatWithEdges
 70
     1
177
     2
291
     1
 71
     2
176
     1
 72
     1
176
     1
 73
     1
176
     1
 90
        2
176
     1
 40
-0.6
176
     1
 41
30.0
176
     1
 62
     5
 63
     7
421
 16777215
176
     1
 74
     1
176
     1
 91
        4
176
     1
 64
     7
176
     1
 65
   257
176
     1
 75
     1
176
     1
175
     1
176
     1
 42
1.0
176
     1
 92
        0
176
     1
 66
   257
176
     1
 43
1.0
176
     1
 76
     1
176
     1
 77
     6
176
     1
 78
     2
176
     1
 67
     7
176
     1
 79
     5
176
     1
170
     0
176
     1
171
     0
176
     1
290
     0
176
     1
 93
       13
176
     1
 44
0.0
176
     1
173
     0
176
     1
  0
VISUALSTYLE
  5
11C
102
{ACAD_REACTORS
330
119
102
}
330
119
100
AcDbVisualStyle
  2
Gouraud
 70
     2
177
     2
291
     1
 71
     2
176
     1
 72
     2
176
     1
 73
     1
176
     1
 90
        2
176
     1
 40
-0.6
176
     1
 41
30.0
176
     1
 62
     5
 63
     7
421
 16777215
176
     1
 74
     0
176
     1
 91
        4
176
     1
 64
     7
176
     1
 65
   257
176
     1
 75
     1
176
     1
175
     1
176
     1
 42
1.0
176
     1
 92
        0
176
     1
 66
     7
176
     1
 43
1.0
176
     1
 76
     1
176
     1
 77
     6
176
     1
 78
     2
176
     1
 67
     7
176
     1
 79
     5
176
     1
170
     0
176
     1
171
     0
176
     1
290
     0
176
     1
 93
       13
176
     1
 44
0.0
176
     1
173
     0
176
     1
  0
VISUALSTYLE
  5
11D
102
{ACAD_REACTORS
330
119
102
}
330
119
100
AcDbVisualStyle
  2
GouraudWithEdges
 70
     3
177
     2
291
     1
 71
     2
176
     1
 72
     2
176
     1
 73
     1
176
     1
 90
        2
176
     1
 40
-0.6
176
     1
 41
30.0
176
     1
 62
     5
 63
     7
421
 16777215
176
     1
 74
     1
176
     1
 91
        4
176
     1
 64
     7
176
     1
 65
   257
176
     1
 75
     1
176
     1
175
     1
176
     1
 42
1.0
176
     1
 92
        0
176
     1
 66
   257
176
     1
 43
1.0
176
     1
 76
     1
176
     1
 77
     6
176
     1
 78
     2
176
     1
 67
     7
176
     1
 79
     5
176
     1
170
     0
176
     1
171
     0
176
     1
290
     0
176
     1
 93
       13
176
     1
 44
0.0
176
     1
173
     0
176
     1
  0
VISUALSTYLE
  5
127
102
{ACAD_REACTORS
330
119
102
}
330
119
100
AcDbVisualStyle
  2
Linepattern
 70
    14
177
     2
291
     1
 71
     2
176
     1
 72
     2
176
     1
 73
     0
176
     1
 90
        0
176
     1
 40
-0.6
176
     1
 41
-30.0
176
     1
 62
     5
 63
     7
421
 16777215
176
     1
 74
     1
176
     1
 91
        4
176
     1
 64
     7
176
     1
 65
   257
176
     1
 75
     7
176
     1
175
     7
176
     1
 42
1.0
176
     1
 92
        8
176
     1
 66
     7
176
     1
 43
1.0
176
     1
 76
     1
176
     1
 77
     6
176
     1
 78
     2
176
     1
 67
     7
176
     1
 79
     5
176
     1
170
     0
176
     1
171
     0
176
     1
290
     0
176
     1
 93
        1
176
     1
 44
0.0
176
     1
173
     0
176
     1
  0
VISUALSTYLE
  5
122
102
{ACAD_REACTORS
330
119
102
}
330
119
100
AcDbVisualStyle
  2
Realistic
 70
     8
177
     2
291
     0
 71
     2
176
     1
 72
     2
176
     1
 73
     0
176
     1
 90
        0
176
     1
 40
-0.6
176
     1
 41
-30.0
176
     1
 62
     5
 63
     7
421
 16777215
176
     1
 74
     1
176
     1
 91
        0
176
     1
 64
     7
176
     1
 65
   257
176
     1
 75
     1
176
     1
175
     1
176
     1
 42
1.0
176
     1
 92
        8
176
     1
 66
     8
424
  7895160
176
     1
 43
1.0
176
     1
 76
     1
176
     1
 77
     6
176
     1
 78
     2
176
     1
 67
     7
176
     1
 79
     5
176
     1
170
     0
176
     1
171
     0
176
     1
290
     0
176
     1
 93
       13
176
     1
 44
0.0
176
     1
173
     0
176
     1
  0
VISUALSTYLE
  5
126
102
{ACAD_REACTORS
330
119
102
}
330
119
100
AcDbVisualStyle
  2
Thicken
 70
    13
177
     2
291
     1
 71
     2
176
     1
 72
     2
176
     1
 73
     0
176
     1
 90
        0
176
     1
 40
-0.6
176
     1
 41
-30.0
176
     1
 62
     5
 63
     7
421
 16777215
176
     1
 74
     1
176
     1
 91
        4
176
     1
 64
     7
176
     1
 65
   257
176
     1
 75
     1
176
     1
175
     1
176
     1
 42
1.0
176
     1
 92
       12
176
     1
 66
     7
176
     1
 43
1.0
176
     1
 76
     1
176
     1
 77
     6
176
     1
 78
     2
176
     1
 67
     7
176
     1
 79
     5
176
     1
170
     0
176
     1
171
     0
176
     1
290
     0
176
     1
 93
        1
176
     1
 44
0.0
176
     1
173
     0
176
     1
  0
XRECORD
  5
130
102
{ACAD_REACTORS
330
12F
102
}
330
12F
100
AcDbXrecord
280
     1
290
     1
  0
XRECORD
  5
131
102
{ACAD_REACTORS
330
12F
102
}
330
12F
100
AcDbXrecord
280
     1
1000
1:1
  0
ENDSEC
  0
EOF
