999
dxflib 2.2.0.0
  0
SECTION
  2
HEADER
  9
$ACADVER
  1
AC1015
  9
$HANDSEED
  5
FFFF
  9
$DIMASZ
 40
2.5
  9
$PLIMMIN
 10
0.0
 20
0.0
  9
$DIMEXE
 40
1.25
  9
$DIMGAP
 40
0.625
  9
$PLIMMAX
 10
210.0
 20
297.0
  9
$INSUNITS
 70
4
  9
$DIMSTYLE
  2
Standard
  9
$MEASUREMENT
 70
1
  9
$DIMEXO
 40
0.625
  9
$DIMTXT
 40
2.5
  9
$CLAYER
  8
0
  0
ENDSEC
  0
SECTION
  2
TABLES
  0
TABLE
  2
VPORT
  5
8
100
AcDbSymbolTable
 70
1
  0
VPORT
  5
30
100
AcDbSymbolTableRecord
100
AcDbViewportTableRecord
  2
*Active
 70
0
 10
0.0
 20
0.0
 11
1.0
 21
1.0
 12
286.30555555555549
 22
148.5
 13
0.0
 23
0.0
 14
10.0
 24
10.0
 15
10.0
 25
10.0
 16
0.0
 26
0.0
 36
1.0
 17
0.0
 27
0.0
 37
0.0
 40
297.0
 41
1.92798353909465
 42
50.0
 43
0.0
 44
0.0
 50
0.0
 51
0.0
 71
0
 72
100
 73
1
 74
3
 75
1
 76
1
 77
0
 78
0
281
0
 65
1
110
0.0
120
0.0
130
0.0
111
1.0
121
0.0
131
0.0
112
0.0
122
1.0
132
0.0
 79
0
146
0.0
  0
ENDTAB
  0
TABLE
  2
LTYPE
  5
5
100
AcDbSymbolTable
 70
21
  0
LTYPE
  5
14
100
AcDbSymbolTableRecord
100
AcDbLinetypeTableRecord
  2
ByBlock
 70
0
  3

 72
65
 73
0
 40
0.0
  0
LTYPE
  5
15
100
AcDbSymbolTableRecord
100
AcDbLinetypeTableRecord
  2
ByLayer
 70
0
  3

 72
65
 73
0
 40
0.0
  0
LTYPE
  5
16
100
AcDbSymbolTableRecord
100
AcDbLinetypeTableRecord
  2
CONTINUOUS
 70
0
  3
Solid line
 72
65
 73
0
 40
0.0
  0
LTYPE
  5
31
100
AcDbSymbolTableRecord
100
AcDbLinetypeTableRecord
  2
DOT
 70
0
  3
Dot . . . . . . . . . . . . . . . . . . . . . .
 72
65
 73
2
 40
6.3499999999999996
 49
0.0
 74
0
 49
-6.3499999999999996
 74
0
  0
LTYPE
  5
32
100
AcDbSymbolTableRecord
100
AcDbLinetypeTableRecord
  2
DOT2
 70
0
  3
Dot (.5x) .....................................
 72
65
 73
2
 40
3.1749999999999998
 49
0.0
 74
0
 49
-3.1749999999999998
 74
0
  0
LTYPE
  5
33
100
AcDbSymbolTableRecord
100
AcDbLinetypeTableRecord
  2
DOTX2
 70
0
  3
Dot (2x) .  .  .  .  .  .  .  .  .  .  .  .  .
 72
65
 73
2
 40
12.699999999999999
 49
0.0
 74
0
 49
-12.699999999999999
 74
0
  0
LTYPE
  5
34
100
AcDbSymbolTableRecord
100
AcDbLinetypeTableRecord
  2
DASHED
 70
0
  3
Dashed __ __ __ __ __ __ __ __ __ __ __ __ __ _
 72
65
 73
2
 40
19.050000000000001
 49
12.699999999999999
 74
0
 49
-6.3499999999999996
 74
0
  0
LTYPE
  5
35
100
AcDbSymbolTableRecord
100
AcDbLinetypeTableRecord
  2
DASHED2
 70
0
  3
Dashed (.5x) _ _ _ _ _ _ _ _ _ _ _ _ _ _ _ _ _
 72
65
 73
2
 40
9.5250000000000004
 49
6.3499999999999996
 74
0
 49
-3.1749999999999998
 74
0
  0
LTYPE
  5
36
100
AcDbSymbolTableRecord
100
AcDbLinetypeTableRecord
  2
DASHEDX2
 70
0
  3
Dashed (2x) ____  ____  ____  ____  ____  ___
 72
65
 73
2
 40
38.100000000000001
 49
25.399999999999999
 74
0
 49
-12.699999999999999
 74
0
  0
LTYPE
  5
37
100
AcDbSymbolTableRecord
100
AcDbLinetypeTableRecord
  2
DASHDOT
 70
0
  3
Dash dot __ . __ . __ . __ . __ . __ . __ . __
 72
65
 73
4
 40
25.399999999999999
 49
12.699999999999999
 74
0
 49
-6.3499999999999996
 74
0
 49
0.0
 74
0
 49
-6.3499999999999996
 74
0
  0
LTYPE
  5
38
100
AcDbSymbolTableRecord
100
AcDbLinetypeTableRecord
  2
DASHDOT2
 70
0
  3
Dash dot (.5x) _._._._._._._._._._._._._._._.
 72
65
 73
4
 40
12.699999999999999
 49
6.3499999999999996
 74
0
 49
-3.1749999999999998
 74
0
 49
0.0
 74
0
 49
-3.1749999999999998
 74
0
  0
LTYPE
  5
39
100
AcDbSymbolTableRecord
100
AcDbLinetypeTableRecord
  2
DASHDOTX2
 70
0
  3
Dash dot (2x) ____  .  ____  .  ____  .  ___
 72
65
 73
4
 40
50.799999999999997
 49
25.399999999999999
 74
0
 49
-12.699999999999999
 74
0
 49
0.0
 74
0
 49
-12.699999999999999
 74
0
  0
LTYPE
  5
3A
100
AcDbSymbolTableRecord
100
AcDbLinetypeTableRecord
  2
DIVIDE
 70
0
  3
Divide ____ . . ____ . . ____ . . ____ . . ____
 72
65
 73
6
 40
31.75
 49
12.699999999999999
 74
0
 49
-6.3499999999999996
 74
0
 49
0.0
 74
0
 49
-6.3499999999999996
 74
0
 49
0.0
 74
0
 49
-6.3499999999999996
 74
0
  0
LTYPE
  5
3B
100
AcDbSymbolTableRecord
100
AcDbLinetypeTableRecord
  2
DIVIDE2
 70
0
  3
Divide (.5x) __..__..__..__..__..__..__..__.._
 72
65
 73
6
 40
15.875
 49
6.3499999999999996
 74
0
 49
-3.1749999999999998
 74
0
 49
0.0
 74
0
 49
-3.1749999999999998
 74
0
 49
0.0
 74
0
 49
-3.1749999999999998
 74
0
  0
LTYPE
  5
3C
100
AcDbSymbolTableRecord
100
AcDbLinetypeTableRecord
  2
DIVIDEX2
 70
0
  3
Divide (2x) ________  .  .  ________  .  .  _
 72
65
 73
6
 40
63.5
 49
25.399999999999999
 74
0
 49
-12.699999999999999
 74
0
 49
0.0
 74
0
 49
-12.699999999999999
 74
0
 49
0.0
 74
0
 49
-12.699999999999999
 74
0
  0
LTYPE
  5
3D
100
AcDbSymbolTableRecord
100
AcDbLinetypeTableRecord
  2
CENTER
 70
0
  3
Center ____ _ ____ _ ____ _ ____ _ ____ _ ____
 72
65
 73
4
 40
50.799999999999997
 49
31.75
 74
0
 49
-6.3499999999999996
 74
0
 49
6.3499999999999996
 74
0
 49
-6.3499999999999996
 74
0
  0
LTYPE
  5
3E
100
AcDbSymbolTableRecord
100
AcDbLinetypeTableRecord
  2
CENTER2
 70
0
  3
Center (.5x) ___ _ ___ _ ___ _ ___ _ ___ _ ___
 72
65
 73
4
 40
28.574999999999999
 49
19.050000000000001
 74
0
 49
-3.1749999999999998
 74
0
 49
3.1749999999999998
 74
0
 49
-3.1749999999999998
 74
0
  0
LTYPE
  5
3F
100
AcDbSymbolTableRecord
100
AcDbLinetypeTableRecord
  2
CENTERX2
 70
0
  3
Center (2x) ________  __  ________  __  _____
 72
65
 73
4
 40
101.59999999999999
 49
63.5
 74
0
 49
-12.699999999999999
 74
0
 49
12.699999999999999
 74
0
 49
-12.699999999999999
 74
0
  0
LTYPE
  5
40
100
AcDbSymbolTableRecord
100
AcDbLinetypeTableRecord
  2
BORDER
 70
0
  3
Border __ __ . __ __ . __ __ . __ __ . __ __ .
 72
65
 73
6
 40
44.450000000000003
 49
12.699999999999999
 74
0
 49
-6.3499999999999996
 74
0
 49
12.699999999999999
 74
0
 49
-6.3499999999999996
 74
0
 49
0.0
 74
0
 49
-6.3499999999999996
 74
0
  0
LTYPE
  5
41
100
AcDbSymbolTableRecord
100
AcDbLinetypeTableRecord
  2
BORDER2
 70
0
  3
Border (.5x) __.__.__.__.__.__.__.__.__.__.__.
 72
65
 73
6
 40
22.225000000000001
 49
6.3499999999999996
 74
0
 49
-3.1749999999999998
 74
0
 49
6.3499999999999996
 74
0
 49
-3.1749999999999998
 74
0
 49
0.0
 74
0
 49
-3.1749999999999998
 74
0
  0
LTYPE
  5
42
100
AcDbSymbolTableRecord
100
AcDbLinetypeTableRecord
  2
BORDERX2
 70
0
  3
Border (2x) ____  ____  .  ____  ____  .  ___
 72
65
 73
6
 40
88.900000000000006
 49
25.399999999999999
 74
0
 49
-12.699999999999999
 74
0
 49
25.399999999999999
 74
0
 49
-12.699999999999999
 74
0
 49
0.0
 74
0
 49
-12.699999999999999
 74
0
  0
ENDTAB
  0
TABLE
  2
LAYER
  5
2
100
AcDbSymbolTable
 70
2
  0
LAYER
  5
10
100
AcDbSymbolTableRecord
100
AcDbLayerTableRecord
  2
0
 70
0
 62
7
  6
CONTINUOUS
390
F
  0
LAYER
  5
43
100
AcDbSymbolTableRecord
100
AcDbLayerTableRecord
  2
Layer_1
 70
0
 62
7
  6
CONTINUOUS
390
F
  0
ENDTAB
  0
TABLE
  2
STYLE
  5
3
100
AcDbSymbolTable
 70
1
  0
STYLE
  5
11
100
AcDbSymbolTableRecord
100
AcDbTextStyleTableRecord
  2
Standard
 70
0
 40
0.0
 41
0.75
 50
0.0
 71
0
 42
2.5
  3
txt
  4

  0
ENDTAB
  0
TABLE
  2
VIEW
  5
6
100
AcDbSymbolTable
 70
0
  0
ENDTAB
  0
TABLE
  2
UCS
  5
7
100
AcDbSymbolTable
 70
0
  0
ENDTAB
  0
TABLE
  2
APPID
  5
9
100
AcDbSymbolTable
 70
1
  0
APPID
  5
12
100
AcDbSymbolTableRecord
100
AcDbRegAppTableRecord
  2
ACAD
 70
0
  0
ENDTAB
  0
TABLE
  2
DIMSTYLE
  5
A
100
AcDbSymbolTable
 70
1
100
AcDbDimStyleTable
 71
0
  0
DIMSTYLE
105
27
100
AcDbSymbolTableRecord
100
AcDbDimStyleTableRecord
  2
Standard
 41
2.5
 42
0.625
 43
3.75
 44
1.25
 70
0
 73
0
 74
0
 77
1
 78
8
140
2.5
141
2.5
143
0.03937007874016
147
0.625
171
3
172
1
271
2
272
2
274
3
278
44
283
0
284
8
340
11
  0
ENDTAB
  0
TABLE
  2
BLOCK_RECORD
  5
1
100
AcDbSymbolTable
 70
1
  0
BLOCK_RECORD
  5
1F
100
AcDbSymbolTableRecord
100
AcDbBlockTableRecord
  2
*Model_Space
340
22
  0
BLOCK_RECORD
  5
1B
100
AcDbSymbolTableRecord
100
AcDbBlockTableRecord
  2
*Paper_Space
340
1E
  0
BLOCK_RECORD
  5
23
100
AcDbSymbolTableRecord
100
AcDbBlockTableRecord
  2
*Paper_Space0
340
26
  0
ENDTAB
  0
ENDSEC
  0
SECTION
  2
BLOCKS
  0
BLOCK
  5
20
100
AcDbEntity
  8
0
100
AcDbBlockBegin
  2
*Model_Space
 70
0
 10
0.0
 20
0.0
 30
0.0
  3
*Model_Space
  1

  0
ENDBLK
  5
21
100
AcDbEntity
  8
0
100
AcDbBlockEnd
  0
BLOCK
  5
1C
100
AcDbEntity
 67
1
  8
0
100
AcDbBlockBegin
  2
*Paper_Space
 70
0
 10
0.0
 20
0.0
 30
0.0
  3
*Paper_Space
  1

  0
ENDBLK
  5
1D
100
AcDbEntity
 67
1
  8
0
100
AcDbBlockEnd
  0
BLOCK
  5
24
100
AcDbEntity
  8
0
100
AcDbBlockBegin
  2
*Paper_Space0
 70
0
 10
0.0
 20
0.0
 30
0.0
  3
*Paper_Space0
  1

  0
ENDBLK
  5
25
100
AcDbEntity
  8
0
100
AcDbBlockEnd
  0
ENDSEC
  0
SECTION
  2
ENTITIES
  0
SPLINE
  5
44
  8
Layer_1
 62
1
420
16711680
370
-1
  6
ByLayer
100
AcDbEntity
100
AcDbSpline
 70
8
 71
3
 72
8
 73
4
 74
0
 40
0.0
 40
0.0
 40
0.0
 40
0.0
 40
1.0
 40
1.0
 40
1.0
 40
1.0
 10
78.073558774743304
 20
72.857244403206408
 30
0.0
 10
77.436066556743327
 20
72.324402247206407
 30
0.0
 10
76.487243758743304
 20
72.409198981206401
 30
0.0
 10
75.954401602743303
 20
73.046691199206407
 30
0.0
  0
SPLINE
  5
45
  8
Layer_1
 62
1
420
16711680
370
-1
  6
ByLayer
100
AcDbEntity
100
AcDbSpline
 70
8
 71
3
 72
8
 73
4
 74
0
 40
0.0
 40
0.0
 40
0.0
 40
0.0
 40
1.0
 40
1.0
 40
1.0
 40
1.0
 10
75.954401602743303
 20
73.046691199206407
 30
0.0
 10
75.421524334743324
 20
73.684218529206404
 30
0.0
 10
75.506391292743302
 20
74.633041327206399
 30
0.0
 10
76.143847144743319
 20
75.165883483206414
 30
0.0
  0
SPLINE
  5
46
  8
Layer_1
 62
1
420
16711680
370
-1
  6
ByLayer
100
AcDbEntity
100
AcDbSpline
 70
8
 71
3
 72
8
 73
4
 74
0
 40
0.0
 40
0.0
 40
0.0
 40
0.0
 40
1.0
 40
1.0
 40
1.0
 40
1.0
 10
76.143847144743319
 20
75.165883483206414
 30
0.0
 10
76.781410840743305
 20
75.698760751206407
 30
0.0
 10
77.730163414743316
 20
75.613893793206401
 30
0.0
 10
78.263040682743309
 20
74.976401575206395
 30
0.0
  0
SPLINE
  5
47
  8
Layer_1
 62
1
420
16711680
370
-1
  6
ByLayer
100
AcDbEntity
100
AcDbSpline
 70
8
 71
3
 72
8
 73
4
 74
0
 40
0.0
 40
0.0
 40
0.0
 40
0.0
 40
1.0
 40
1.0
 40
1.0
 40
1.0
 10
78.263040682743309
 20
74.976401575206395
 30
0.0
 10
78.795917950743302
 20
74.338874245206398
 30
0.0
 10
78.711086104743316
 20
73.390086559206409
 30
0.0
 10
78.073558774743304
 20
72.857244403206408
 30
0.0
  0
LWPOLYLINE
  5
48
  8
Layer_1
 62
1
420
16711680
370
-1
  6
ByLayer
100
AcDbEntity
100
AcDbPolyline
 90
2
 70
0
 10
78.073558774743304
 20
72.857244403206408
 10
78.073558774743304
 20
72.857244403206408
  0
LWPOLYLINE
  5
49
  8
Layer_1
 62
1
420
16711680
370
-1
  6
ByLayer
100
AcDbEntity
100
AcDbPolyline
 90
2
 70
0
 10
37.350792844743317
 20
81.37443246720639
 10
36.856244086743317
 20
82.727630137206404
  0
LWPOLYLINE
  5
4A
  8
Layer_1
 62
1
420
16711680
370
-1
  6
ByLayer
100
AcDbEntity
100
AcDbPolyline
 90
2
 70
0
 10
36.562997440743317
 20
83.797561747206402
 10
35.875073104743308
 20
85.683353281206394
  0
LWPOLYLINE
  5
4B
  8
Layer_1
 62
1
420
16711680
370
-1
  6
ByLayer
100
AcDbEntity
100
AcDbPolyline
 90
2
 70
0
 10
35.449960834743308
 20
87.026358439206405
 10
34.762745008743316
 20
88.911406351206409
  0
LWPOLYLINE
  5
4C
  8
Layer_1
 62
1
420
16711680
370
-1
  6
ByLayer
100
AcDbEntity
100
AcDbPolyline
 90
2
 70
0
 10
34.07503259874332
 20
90.795923821206401
 10
33.38735655474332
 20
92.681468317206395
  0
LWPOLYLINE
  5
4D
  8
Layer_1
 62
1
420
16711680
370
-1
  6
ByLayer
100
AcDbEntity
100
AcDbPolyline
 90
2
 70
0
 10
32.748626638743318
 20
94.552112785206418
 10
32.306031100743311
 20
95.922050101206395
  0
LWPOLYLINE
  5
4E
  8
Layer_1
 62
1
420
16711680
370
-1
  6
ByLayer
100
AcDbEntity
100
AcDbPolyline
 90
2
 70
0
 10
31.690126492743314
 20
97.831093303206387
 10
31.073904622743314
 20
99.740419909206409
  0
LWPOLYLINE
  5
4F
  8
Layer_1
 62
1
420
16711680
370
-1
  6
ByLayer
100
AcDbEntity
100
AcDbPolyline
 90
2
 70
0
 10
30.457292758743318
 20
101.6502769572064
 10
29.840857708743311
 20
103.55981548920639
  0
LWPOLYLINE
  5
50
  8
Layer_1
 62
1
420
16711680
370
-1
  6
ByLayer
100
AcDbEntity
100
AcDbPolyline
 90
2
 70
0
 10
29.225237758743315
 20
105.4695672012064
 10
28.608732484743317
 20
107.37868062720639
  0
LWPOLYLINE
  5
51
  8
Layer_1
 62
1
420
16711680
370
-1
  6
ByLayer
100
AcDbEntity
100
AcDbPolyline
 90
2
 70
0
 10
27.992580838743311
 20
109.28797212120639
 10
27.37522535274331
 20
111.19814768520641
  0
LWPOLYLINE
  5
52
  8
Layer_1
 62
1
420
16711680
370
-1
  6
ByLayer
100
AcDbEntity
100
AcDbPolyline
 90
2
 70
0
 10
26.759286886743318
 20
113.10768621720641
 10
26.382836086743314
 20
114.2754724632064
  0
LWPOLYLINE
  5
53
  8
Layer_1
 62
1
420
16711680
370
-1
  6
ByLayer
100
AcDbEntity
100
AcDbPolyline
 90
2
 70
0
 10
67.677091198743312
 20
111.22532813520641
 10
67.001730688743308
 20
113.9029504452064
  0
LWPOLYLINE
  5
54
  8
Layer_1
 62
1
420
16711680
370
-1
  6
ByLayer
100
AcDbEntity
100
AcDbPolyline
 90
2
 70
0
 10
65.955617554743299
 20
115.61529246120639
 10
64.911628696743321
 20
117.3284132112064
  0
LWPOLYLINE
  5
55
  8
Layer_1
 62
1
420
16711680
370
-1
  6
ByLayer
100
AcDbEntity
100
AcDbPolyline
 90
2
 70
0
 10
63.866825992743316
 20
119.0413922592064
 10
62.822552476743311
 20
120.75433619520641
  0
LWPOLYLINE
  5
56
  8
Layer_1
 62
1
420
16711680
370
-1
  6
ByLayer
100
AcDbEntity
100
AcDbPolyline
 90
2
 70
0
 10
61.77693592674332
 20
122.4666067332064
 10
60.732131968743317
 20
124.17905533920641
  0
LWPOLYLINE
  5
57
  8
Layer_1
 62
1
420
16711680
370
-1
  6
ByLayer
100
AcDbEntity
100
AcDbPolyline
 90
2
 70
0
 10
59.686940524743314
 20
125.8930601592064
 10
58.423988218743311
 20
128.0574478572064
  0
LWPOLYLINE
  5
58
  8
Layer_1
 62
5
420
255
370
-1
  6
ByLayer
100
AcDbEntity
100
AcDbPolyline
 90
2
 70
0
 10
28.265513938743318
 20
86.601953425206403
 10
13.646548720743311
 20
98.118394735206408
  0
LWPOLYLINE
  5
59
  8
Layer_1
 62
5
420
255
370
-1
  6
ByLayer
100
AcDbEntity
100
AcDbPolyline
 90
2
 70
0
 10
68.691032962743307
 20
109.7181104232064
 10
33.082573108743318
 20
93.313227247206399
  0
LWPOLYLINE
  5
5A
  8
Layer_1
 62
1
420
16711680
370
-1
  6
ByLayer
100
AcDbEntity
100
AcDbPolyline
 90
2
 70
0
 10
37.600544500743311
 20
80.565225013206401
 10
37.600544500743311
 20
80.565225013206401
  0
LWPOLYLINE
  5
5B
  8
Layer_1
 62
1
420
16711680
370
-1
  6
ByLayer
100
AcDbEntity
100
AcDbPolyline
 90
12
 70
0
 10
33.082573108743318
 20
93.313227247206399
 10
25.959670024743318
 20
83.265073219206386
 10
11.189941402743308
 20
94.860294571206396
 10
16.52430566874331
 20
101.5490954592064
 10
8.0610885107433106
 20
107.78786835120641
 10
26.131668664743309
 20
115.6255551972064
 10
57.506238286743312
 20
129.55928590920641
 10
73.326467788743301
 20
137.48187607920642
 10
73.40698085874331
 20
126.04361289120639
 10
82.463169472743317
 20
125.0481789132064
 10
80.429586514743306
 20
109.42549955520641
 10
68.691528292743314
 20
109.7180389452064
  0
LWPOLYLINE
  5
5C
  8
Layer_1
 62
5
420
255
370
-1
  6
ByLayer
100
AcDbEntity
100
AcDbPolyline
 90
2
 70
0
 10
76.661542234743322
 20
125.69158123320641
 10
75.279041092743313
 20
110.24076006720639
  0
LWPOLYLINE
  5
5D
  8
Layer_1
 62
1
420
16711680
370
-1
  6
ByLayer
100
AcDbEntity
100
AcDbPolyline
 90
8
 70
0
 10
101.83945330074332
 20
101.60554301520639
 10
113.77545166074331
 20
87.325373485206399
 10
82.436060500743309
 20
61.312171765206401
 10
74.461905850743321
 20
67.541354065206406
 10
53.073592816743314
 20
93.498285043206408
 10
37.600544500743311
 20
80.565225013206401
 10
32.407247710743313
 20
78.660252295206391
 10
29.992012360743317
 20
88.539981583206412
  0
LWPOLYLINE
  5
5E
  8
Layer_1
 62
1
420
16711680
370
-1
  6
ByLayer
100
AcDbEntity
100
AcDbPolyline
 90
2
 70
0
 10
53.88732971874331
 20
8.9890882272064019
 10
55.538658364743313
 20
8.9890882272064019
  0
LWPOLYLINE
  5
5F
  8
Layer_1
 62
1
420
16711680
370
-1
  6
ByLayer
100
AcDbEntity
100
AcDbPolyline
 90
2
 70
0
 10
50.997327460743314
 20
8.9890882272064019
 10
52.648656106743317
 20
8.9890882272064019
  0
LWPOLYLINE
  5
60
  8
Layer_1
 62
1
420
16711680
370
-1
  6
ByLayer
100
AcDbEntity
100
AcDbPolyline
 90
2
 70
0
 10
48.107326456743323
 20
8.9890882272064019
 10
49.758655102743319
 20
8.9890882272064019
  0
LWPOLYLINE
  5
61
  8
Layer_1
 62
1
420
16711680
370
-1
  6
ByLayer
100
AcDbEntity
100
AcDbPolyline
 90
2
 70
0
 10
45.217324198743313
 20
8.9890882272064019
 10
46.868652844743309
 20
8.9890882272064019
  0
LWPOLYLINE
  5
62
  8
Layer_1
 62
1
420
16711680
370
-1
  6
ByLayer
100
AcDbEntity
100
AcDbPolyline
 90
2
 70
0
 10
42.32732194074331
 20
8.9890882272064019
 10
43.978650586743314
 20
8.9890882272064019
  0
LWPOLYLINE
  5
63
  8
Layer_1
 62
1
420
16711680
370
-1
  6
ByLayer
100
AcDbEntity
100
AcDbPolyline
 90
2
 70
0
 10
39.437320936743312
 20
8.9890882272064019
 10
41.088649582743315
 20
8.9890882272064019
  0
LWPOLYLINE
  5
64
  8
Layer_1
 62
1
420
16711680
370
-1
  6
ByLayer
100
AcDbEntity
100
AcDbPolyline
 90
2
 70
0
 10
36.547318678743316
 20
8.9890882272064019
 10
38.198647324743312
 20
8.9890882272064019
  0
LWPOLYLINE
  5
65
  8
Layer_1
 62
1
420
16711680
370
-1
  6
ByLayer
100
AcDbEntity
100
AcDbPolyline
 90
2
 70
0
 10
33.657316420743314
 20
8.9890882272064019
 10
35.308645066743317
 20
8.9890882272064019
  0
LWPOLYLINE
  5
66
  8
Layer_1
 62
1
420
16711680
370
-1
  6
ByLayer
100
AcDbEntity
100
AcDbPolyline
 90
2
 70
0
 10
30.767315416743312
 20
8.9890882272064019
 10
32.418644062743319
 20
8.9890882272064019
  0
LWPOLYLINE
  5
67
  8
Layer_1
 62
1
420
16711680
370
-1
  6
ByLayer
100
AcDbEntity
100
AcDbPolyline
 90
2
 70
0
 10
27.877313158743316
 20
8.9890882272064019
 10
29.528641804743312
 20
8.9890882272064019
  0
LWPOLYLINE
  5
68
  8
Layer_1
 62
1
420
16711680
370
-1
  6
ByLayer
100
AcDbEntity
100
AcDbPolyline
 90
2
 70
0
 10
24.98731090074331
 20
8.9890882272064019
 10
26.638639546743317
 20
8.9890882272064019
  0
LWPOLYLINE
  5
69
  8
Layer_1
 62
1
420
16711680
370
-1
  6
ByLayer
100
AcDbEntity
100
AcDbPolyline
 90
2
 70
0
 10
22.097309896743312
 20
8.9890882272064019
 10
23.748638542743315
 20
8.9890882272064019
  0
LWPOLYLINE
  5
6A
  8
Layer_1
 62
1
420
16711680
370
-1
  6
ByLayer
100
AcDbEntity
100
AcDbPolyline
 90
2
 70
0
 10
19.207307638743316
 20
8.9890882272064019
 10
20.858636284743312
 20
8.9890882272064019
  0
LWPOLYLINE
  5
6B
  8
Layer_1
 62
1
420
16711680
370
-1
  6
ByLayer
100
AcDbEntity
100
AcDbPolyline
 90
2
 70
0
 10
16.317305380743313
 20
8.9890882272064019
 10
17.968634026743317
 20
8.9890882272064019
  0
LWPOLYLINE
  5
6C
  8
Layer_1
 62
1
420
16711680
370
-1
  6
ByLayer
100
AcDbEntity
100
AcDbPolyline
 90
2
 70
0
 10
13.427304376743315
 20
8.9890882272064019
 10
15.078633022743311
 20
8.9890882272064019
  0
LWPOLYLINE
  5
6D
  8
Layer_1
 62
1
420
16711680
370
-1
  6
ByLayer
100
AcDbEntity
100
AcDbPolyline
 90
2
 70
0
 10
59.667332980743318
 20
59.149341535206396
 10
61.318661626743314
 20
59.149341535206396
  0
LWPOLYLINE
  5
6E
  8
Layer_1
 62
1
420
16711680
370
-1
  6
ByLayer
100
AcDbEntity
100
AcDbPolyline
 90
2
 70
0
 10
56.777331976743319
 20
59.149341535206396
 10
58.428660622743315
 20
59.149341535206396
  0
LWPOLYLINE
  5
6F
  8
Layer_1
 62
1
420
16711680
370
-1
  6
ByLayer
100
AcDbEntity
100
AcDbPolyline
 90
2
 70
0
 10
53.88732971874331
 20
59.149341535206396
 10
55.538658364743313
 20
59.149341535206396
  0
LWPOLYLINE
  5
70
  8
Layer_1
 62
1
420
16711680
370
-1
  6
ByLayer
100
AcDbEntity
100
AcDbPolyline
 90
2
 70
0
 10
50.997327460743314
 20
59.149341535206396
 10
52.648656106743317
 20
59.149341535206396
  0
LWPOLYLINE
  5
71
  8
Layer_1
 62
1
420
16711680
370
-1
  6
ByLayer
100
AcDbEntity
100
AcDbPolyline
 90
2
 70
0
 10
48.107326456743323
 20
59.149341535206396
 10
49.758655102743319
 20
59.149341535206396
  0
LWPOLYLINE
  5
72
  8
Layer_1
 62
1
420
16711680
370
-1
  6
ByLayer
100
AcDbEntity
100
AcDbPolyline
 90
2
 70
0
 10
45.217324198743313
 20
59.149341535206396
 10
46.868652844743309
 20
59.149341535206396
  0
LWPOLYLINE
  5
73
  8
Layer_1
 62
1
420
16711680
370
-1
  6
ByLayer
100
AcDbEntity
100
AcDbPolyline
 90
2
 70
0
 10
42.32732194074331
 20
59.149341535206396
 10
43.978650586743314
 20
59.149341535206396
  0
LWPOLYLINE
  5
74
  8
Layer_1
 62
1
420
16711680
370
-1
  6
ByLayer
100
AcDbEntity
100
AcDbPolyline
 90
2
 70
0
 10
39.437320936743312
 20
59.149341535206396
 10
41.088649582743315
 20
59.149341535206396
  0
LWPOLYLINE
  5
75
  8
Layer_1
 62
1
420
16711680
370
-1
  6
ByLayer
100
AcDbEntity
100
AcDbPolyline
 90
2
 70
0
 10
36.547318678743316
 20
59.149341535206396
 10
38.198647324743312
 20
59.149341535206396
  0
LWPOLYLINE
  5
76
  8
Layer_1
 62
1
420
16711680
370
-1
  6
ByLayer
100
AcDbEntity
100
AcDbPolyline
 90
2
 70
0
 10
33.657316420743314
 20
59.149341535206396
 10
35.308645066743317
 20
59.149341535206396
  0
LWPOLYLINE
  5
77
  8
Layer_1
 62
1
420
16711680
370
-1
  6
ByLayer
100
AcDbEntity
100
AcDbPolyline
 90
2
 70
0
 10
30.767315416743312
 20
59.149341535206396
 10
32.418644062743319
 20
59.149341535206396
  0
LWPOLYLINE
  5
78
  8
Layer_1
 62
1
420
16711680
370
-1
  6
ByLayer
100
AcDbEntity
100
AcDbPolyline
 90
2
 70
0
 10
27.877313158743316
 20
59.149341535206396
 10
29.528641804743312
 20
59.149341535206396
  0
LWPOLYLINE
  5
79
  8
Layer_1
 62
1
420
16711680
370
-1
  6
ByLayer
100
AcDbEntity
100
AcDbPolyline
 90
2
 70
0
 10
24.98731090074331
 20
59.149341535206396
 10
26.638639546743317
 20
59.149341535206396
  0
LWPOLYLINE
  5
7A
  8
Layer_1
 62
1
420
16711680
370
-1
  6
ByLayer
100
AcDbEntity
100
AcDbPolyline
 90
2
 70
0
 10
22.097309896743312
 20
59.149341535206396
 10
23.748638542743315
 20
59.149341535206396
  0
LWPOLYLINE
  5
7B
  8
Layer_1
 62
1
420
16711680
370
-1
  6
ByLayer
100
AcDbEntity
100
AcDbPolyline
 90
2
 70
0
 10
19.207307638743316
 20
59.149341535206396
 10
20.858636284743312
 20
59.149341535206396
  0
LWPOLYLINE
  5
7C
  8
Layer_1
 62
1
420
16711680
370
-1
  6
ByLayer
100
AcDbEntity
100
AcDbPolyline
 90
2
 70
0
 10
16.317305380743313
 20
59.149341535206396
 10
17.968634026743317
 20
59.149341535206396
  0
LWPOLYLINE
  5
7D
  8
Layer_1
 62
1
420
16711680
370
-1
  6
ByLayer
100
AcDbEntity
100
AcDbPolyline
 90
2
 70
0
 10
13.427304376743315
 20
59.149341535206396
 10
15.078633022743311
 20
59.149341535206396
  0
LWPOLYLINE
  5
7E
  8
Layer_1
 62
1
420
16711680
370
-1
  6
ByLayer
100
AcDbEntity
100
AcDbPolyline
 90
2
 70
0
 10
62.452933468743311
 20
11.774687461206398
 10
62.452933468743311
 20
10.123358815206402
  0
LWPOLYLINE
  5
7F
  8
Layer_1
 62
1
420
16711680
370
-1
  6
ByLayer
100
AcDbEntity
100
AcDbPolyline
 90
2
 70
0
 10
62.452933468743311
 20
14.6646897192064
 10
62.452933468743311
 20
13.013361073206397
  0
LWPOLYLINE
  5
80
  8
Layer_1
 62
1
420
16711680
370
-1
  6
ByLayer
100
AcDbEntity
100
AcDbPolyline
 90
2
 70
0
 10
62.452933468743311
 20
17.554691977206399
 10
62.452933468743311
 20
15.9033633312064
  0
LWPOLYLINE
  5
81
  8
Layer_1
 62
1
420
16711680
370
-1
  6
ByLayer
100
AcDbEntity
100
AcDbPolyline
 90
2
 70
0
 10
62.452933468743311
 20
20.444692981206398
 10
62.452933468743311
 20
18.793364335206402
  0
LWPOLYLINE
  5
82
  8
Layer_1
 62
1
420
16711680
370
-1
  6
ByLayer
100
AcDbEntity
100
AcDbPolyline
 90
2
 70
0
 10
62.452933468743311
 20
23.3346952392064
 10
62.452933468743311
 20
21.683366593206401
  0
LWPOLYLINE
  5
83
  8
Layer_1
 62
1
420
16711680
370
-1
  6
ByLayer
100
AcDbEntity
100
AcDbPolyline
 90
2
 70
0
 10
62.452933468743311
 20
26.2246974972064
 10
62.452933468743311
 20
24.573368851206403
  0
LWPOLYLINE
  5
84
  8
Layer_1
 62
1
420
16711680
370
-1
  6
ByLayer
100
AcDbEntity
100
AcDbPolyline
 90
2
 70
0
 10
62.452933468743311
 20
29.114698501206398
 10
62.452933468743311
 20
27.463369855206402
  0
LWPOLYLINE
  5
85
  8
Layer_1
 62
1
420
16711680
370
-1
  6
ByLayer
100
AcDbEntity
100
AcDbPolyline
 90
2
 70
0
 10
62.452933468743311
 20
32.004700759206401
 10
62.452933468743311
 20
30.353372113206404
  0
LWPOLYLINE
  5
86
  8
Layer_1
 62
1
420
16711680
370
-1
  6
ByLayer
100
AcDbEntity
100
AcDbPolyline
 90
2
 70
0
 10
62.452933468743311
 20
34.894703017206396
 10
62.452933468743311
 20
33.2433743712064
  0
LWPOLYLINE
  5
87
  8
Layer_1
 62
1
420
16711680
370
-1
  6
ByLayer
100
AcDbEntity
100
AcDbPolyline
 90
2
 70
0
 10
62.452933468743311
 20
37.784350393206395
 10
62.452933468743311
 20
36.133021747206399
  0
LWPOLYLINE
  5
88
  8
Layer_1
 62
1
420
16711680
370
-1
  6
ByLayer
100
AcDbEntity
100
AcDbPolyline
 90
2
 70
0
 10
62.452933468743311
 20
40.674352651206405
 10
62.452933468743311
 20
39.023024005206395
  0
LWPOLYLINE
  5
89
  8
Layer_1
 62
1
420
16711680
370
-1
  6
ByLayer
100
AcDbEntity
100
AcDbPolyline
 90
2
 70
0
 10
62.452933468743311
 20
43.564353655206403
 10
62.452933468743311
 20
41.913026263206405
  0
LWPOLYLINE
  5
8A
  8
Layer_1
 62
1
420
16711680
370
-1
  6
ByLayer
100
AcDbEntity
100
AcDbPolyline
 90
2
 70
0
 10
62.452933468743311
 20
46.454355913206399
 10
62.452933468743311
 20
44.803027267206403
  0
LWPOLYLINE
  5
8B
  8
Layer_1
 62
1
420
16711680
370
-1
  6
ByLayer
100
AcDbEntity
100
AcDbPolyline
 90
2
 70
0
 10
62.452933468743311
 20
49.344358171206402
 10
62.452933468743311
 20
47.693029525206406
  0
LWPOLYLINE
  5
8C
  8
Layer_1
 62
1
420
16711680
370
-1
  6
ByLayer
100
AcDbEntity
100
AcDbPolyline
 90
2
 70
0
 10
62.452933468743311
 20
52.2343591752064
 10
62.452933468743311
 20
50.583031783206401
  0
LWPOLYLINE
  5
8D
  8
Layer_1
 62
1
420
16711680
370
-1
  6
ByLayer
100
AcDbEntity
100
AcDbPolyline
 90
2
 70
0
 10
62.452933468743311
 20
55.124361433206403
 10
62.452933468743311
 20
53.4730327872064
  0
SPLINE
  5
8E
  8
Layer_1
 62
1
420
16711680
370
-1
  6
ByLayer
100
AcDbEntity
100
AcDbSpline
 70
8
 71
3
 72
8
 73
4
 74
0
 40
0.0
 40
0.0
 40
0.0
 40
0.0
 40
1.0
 40
1.0
 40
1.0
 40
1.0
 10
61.199041312743311
 20
34.069746577206402
 30
0.0
 10
61.199041312743311
 20
20.910788479206399
 30
0.0
 10
50.531940472743315
 20
10.2433340112064
 30
0.0
 10
37.373337256743312
 20
10.2433340112064
 30
0.0
  0
SPLINE
  5
8F
  8
Layer_1
 62
1
420
16711680
370
-1
  6
ByLayer
100
AcDbEntity
100
AcDbSpline
 70
8
 71
3
 72
8
 73
4
 74
0
 40
0.0
 40
0.0
 40
0.0
 40
0.0
 40
1.0
 40
1.0
 40
1.0
 40
1.0
 10
37.373337256743312
 20
10.2433340112064
 30
0.0
 10
24.214732786743319
 20
10.2433340112064
 30
0.0
 10
13.547278318743309
 20
20.911142107206398
 30
0.0
 10
13.547278318743309
 20
34.069746577206402
 30
0.0
  0
SPLINE
  5
90
  8
Layer_1
 62
1
420
16711680
370
-1
  6
ByLayer
100
AcDbEntity
100
AcDbSpline
 70
8
 71
3
 72
8
 73
4
 74
0
 40
0.0
 40
0.0
 40
0.0
 40
0.0
 40
1.0
 40
1.0
 40
1.0
 40
1.0
 10
13.547278318743309
 20
34.069746577206402
 30
0.0
 10
13.547278318743309
 20
47.228349793206398
 30
0.0
 10
24.214732786743319
 20
57.895804261206408
 30
0.0
 10
37.373337256743312
 20
57.895804261206408
 30
0.0
  0
SPLINE
  5
91
  8
Layer_1
 62
1
420
16711680
370
-1
  6
ByLayer
100
AcDbEntity
100
AcDbSpline
 70
8
 71
3
 72
8
 73
4
 74
0
 40
0.0
 40
0.0
 40
0.0
 40
0.0
 40
1.0
 40
1.0
 40
1.0
 40
1.0
 10
37.373337256743312
 20
57.895804261206408
 30
0.0
 10
50.531940472743315
 20
57.895804261206408
 30
0.0
 10
61.199041312743311
 20
47.228349793206398
 30
0.0
 10
61.199041312743311
 20
34.069746577206402
 30
0.0
  0
LWPOLYLINE
  5
92
  8
Layer_1
 62
1
420
16711680
370
-1
  6
ByLayer
100
AcDbEntity
100
AcDbPolyline
 90
2
 70
0
 10
62.452933468743311
 20
58.014363691206398
 10
62.452933468743311
 20
56.363035045206402
  0
SPLINE
  5
93
  8
Layer_1
 62
1
420
16711680
370
-1
  6
ByLayer
100
AcDbEntity
100
AcDbSpline
 70
8
 71
3
 72
8
 73
4
 74
0
 40
0.0
 40
0.0
 40
0.0
 40
0.0
 40
1.0
 40
1.0
 40
1.0
 40
1.0
 10
55.932556066743317
 20
54.133423045206406
 30
0.0
 10
55.932556066743317
 20
54.964749805206402
 30
0.0
 10
56.606394220743312
 20
55.638234331206398
 30
0.0
 10
57.437720980743315
 20
55.638234331206398
 30
0.0
  0
SPLINE
  5
94
  8
Layer_1
 62
1
420
16711680
370
-1
  6
ByLayer
100
AcDbEntity
100
AcDbSpline
 70
8
 71
3
 72
8
 73
4
 74
0
 40
0.0
 40
0.0
 40
0.0
 40
0.0
 40
1.0
 40
1.0
 40
1.0
 40
1.0
 10
57.437720980743315
 20
55.638234331206398
 30
0.0
 10
58.268694112743319
 20
55.638234331206398
 30
0.0
 10
58.942532266743314
 20
54.964749805206402
 30
0.0
 10
58.942532266743314
 20
54.133423045206406
 30
0.0
  0
SPLINE
  5
95
  8
Layer_1
 62
1
420
16711680
370
-1
  6
ByLayer
100
AcDbEntity
100
AcDbSpline
 70
8
 71
3
 72
8
 73
4
 74
0
 40
0.0
 40
0.0
 40
0.0
 40
0.0
 40
1.0
 40
1.0
 40
1.0
 40
1.0
 10
58.942532266743314
 20
54.133423045206406
 30
0.0
 10
58.942532266743314
 20
53.302449913206402
 30
0.0
 10
58.268694112743319
 20
52.6286117592064
 30
0.0
 10
57.437720980743315
 20
52.6286117592064
 30
0.0
  0
SPLINE
  5
96
  8
Layer_1
 62
1
420
16711680
370
-1
  6
ByLayer
100
AcDbEntity
100
AcDbSpline
 70
8
 71
3
 72
8
 73
4
 74
0
 40
0.0
 40
0.0
 40
0.0
 40
0.0
 40
1.0
 40
1.0
 40
1.0
 40
1.0
 10
57.437720980743315
 20
52.6286117592064
 30
0.0
 10
56.606394220743312
 20
52.6286117592064
 30
0.0
 10
55.932556066743317
 20
53.302449913206402
 30
0.0
 10
55.932556066743317
 20
54.133423045206406
 30
0.0
  0
LWPOLYLINE
  5
97
  8
Layer_1
 62
1
420
16711680
370
-1
  6
ByLayer
100
AcDbEntity
100
AcDbPolyline
 90
2
 70
0
 10
61.199041312743311
 20
34.069746577206402
 10
61.199041312743311
 20
34.069746577206402
  0
SPLINE
  5
98
  8
Layer_1
 62
1
420
16711680
370
-1
  6
ByLayer
100
AcDbEntity
100
AcDbSpline
 70
8
 71
3
 72
8
 73
4
 74
0
 40
0.0
 40
0.0
 40
0.0
 40
0.0
 40
1.0
 40
1.0
 40
1.0
 40
1.0
 10
15.804494620743313
 20
54.133423045206406
 30
0.0
 10
15.804494620743313
 20
54.964749805206402
 30
0.0
 10
16.478334028743312
 20
55.638234331206398
 30
0.0
 10
17.309305906743312
 20
55.638234331206398
 30
0.0
  0
SPLINE
  5
99
  8
Layer_1
 62
1
420
16711680
370
-1
  6
ByLayer
100
AcDbEntity
100
AcDbSpline
 70
8
 71
3
 72
8
 73
4
 74
0
 40
0.0
 40
0.0
 40
0.0
 40
0.0
 40
1.0
 40
1.0
 40
1.0
 40
1.0
 10
17.309305906743312
 20
55.638234331206398
 30
0.0
 10
18.140987548743311
 20
55.638234331206398
 30
0.0
 10
18.814117192743318
 20
54.964749805206402
 30
0.0
 10
18.814117192743318
 20
54.133423045206406
 30
0.0
  0
SPLINE
  5
9A
  8
Layer_1
 62
1
420
16711680
370
-1
  6
ByLayer
100
AcDbEntity
100
AcDbSpline
 70
8
 71
3
 72
8
 73
4
 74
0
 40
0.0
 40
0.0
 40
0.0
 40
0.0
 40
1.0
 40
1.0
 40
1.0
 40
1.0
 10
18.814117192743318
 20
54.133423045206406
 30
0.0
 10
18.814117192743318
 20
53.302449913206402
 30
0.0
 10
18.140987548743311
 20
52.6286117592064
 30
0.0
 10
17.309305906743312
 20
52.6286117592064
 30
0.0
  0
SPLINE
  5
9B
  8
Layer_1
 62
1
420
16711680
370
-1
  6
ByLayer
100
AcDbEntity
100
AcDbSpline
 70
8
 71
3
 72
8
 73
4
 74
0
 40
0.0
 40
0.0
 40
0.0
 40
0.0
 40
1.0
 40
1.0
 40
1.0
 40
1.0
 10
17.309305906743312
 20
52.6286117592064
 30
0.0
 10
16.478334028743312
 20
52.6286117592064
 30
0.0
 10
15.804494620743313
 20
53.302449913206402
 30
0.0
 10
15.804494620743313
 20
54.133423045206406
 30
0.0
  0
LWPOLYLINE
  5
9C
  8
Layer_1
 62
1
420
16711680
370
-1
  6
ByLayer
100
AcDbEntity
100
AcDbPolyline
 90
2
 70
0
 10
55.932556066743317
 20
54.133423045206406
 10
55.932556066743317
 20
54.133423045206406
  0
SPLINE
  5
9D
  8
Layer_1
 62
1
420
16711680
370
-1
  6
ByLayer
100
AcDbEntity
100
AcDbSpline
 70
8
 71
3
 72
8
 73
4
 74
0
 40
0.0
 40
0.0
 40
0.0
 40
0.0
 40
1.0
 40
1.0
 40
1.0
 40
1.0
 10
55.932556066743317
 20
14.005361599206402
 30
0.0
 10
55.932556066743317
 20
14.836688359206402
 30
0.0
 10
56.606394220743312
 20
15.510172885206401
 30
0.0
 10
57.437720980743315
 20
15.510172885206401
 30
0.0
  0
SPLINE
  5
9E
  8
Layer_1
 62
1
420
16711680
370
-1
  6
ByLayer
100
AcDbEntity
100
AcDbSpline
 70
8
 71
3
 72
8
 73
4
 74
0
 40
0.0
 40
0.0
 40
0.0
 40
0.0
 40
1.0
 40
1.0
 40
1.0
 40
1.0
 10
57.437720980743315
 20
15.510172885206401
 30
0.0
 10
58.268694112743319
 20
15.510172885206401
 30
0.0
 10
58.942532266743314
 20
14.836688359206402
 30
0.0
 10
58.942532266743314
 20
14.005361599206402
 30
0.0
  0
SPLINE
  5
9F
  8
Layer_1
 62
1
420
16711680
370
-1
  6
ByLayer
100
AcDbEntity
100
AcDbSpline
 70
8
 71
3
 72
8
 73
4
 74
0
 40
0.0
 40
0.0
 40
0.0
 40
0.0
 40
1.0
 40
1.0
 40
1.0
 40
1.0
 10
58.942532266743314
 20
14.005361599206402
 30
0.0
 10
58.942532266743314
 20
13.174388467206398
 30
0.0
 10
58.268694112743319
 20
12.500550313206404
 30
0.0
 10
57.437720980743315
 20
12.500550313206404
 30
0.0
  0
SPLINE
  5
A0
  8
Layer_1
 62
1
420
16711680
370
-1
  6
ByLayer
100
AcDbEntity
100
AcDbSpline
 70
8
 71
3
 72
8
 73
4
 74
0
 40
0.0
 40
0.0
 40
0.0
 40
0.0
 40
1.0
 40
1.0
 40
1.0
 40
1.0
 10
57.437720980743315
 20
12.500550313206404
 30
0.0
 10
56.606394220743312
 20
12.500550313206404
 30
0.0
 10
55.932556066743317
 20
13.174742095206398
 30
0.0
 10
55.932556066743317
 20
14.005361599206402
 30
0.0
  0
LWPOLYLINE
  5
A1
  8
Layer_1
 62
1
420
16711680
370
-1
  6
ByLayer
100
AcDbEntity
100
AcDbPolyline
 90
2
 70
0
 10
15.804494620743313
 20
54.133423045206406
 10
15.804494620743313
 20
54.133423045206406
  0
SPLINE
  5
A2
  8
Layer_1
 62
1
420
16711680
370
-1
  6
ByLayer
100
AcDbEntity
100
AcDbSpline
 70
8
 71
3
 72
8
 73
4
 74
0
 40
0.0
 40
0.0
 40
0.0
 40
0.0
 40
1.0
 40
1.0
 40
1.0
 40
1.0
 10
15.804494620743313
 20
14.005361599206402
 30
0.0
 10
15.804494620743313
 20
14.836688359206402
 30
0.0
 10
16.478334028743312
 20
15.510172885206401
 30
0.0
 10
17.309305906743312
 20
15.510172885206401
 30
0.0
  0
SPLINE
  5
A3
  8
Layer_1
 62
1
420
16711680
370
-1
  6
ByLayer
100
AcDbEntity
100
AcDbSpline
 70
8
 71
3
 72
8
 73
4
 74
0
 40
0.0
 40
0.0
 40
0.0
 40
0.0
 40
1.0
 40
1.0
 40
1.0
 40
1.0
 10
17.309305906743312
 20
15.510172885206401
 30
0.0
 10
18.140987548743311
 20
15.510172885206401
 30
0.0
 10
18.814117192743318
 20
14.836688359206402
 30
0.0
 10
18.814117192743318
 20
14.005361599206402
 30
0.0
  0
SPLINE
  5
A4
  8
Layer_1
 62
1
420
16711680
370
-1
  6
ByLayer
100
AcDbEntity
100
AcDbSpline
 70
8
 71
3
 72
8
 73
4
 74
0
 40
0.0
 40
0.0
 40
0.0
 40
0.0
 40
1.0
 40
1.0
 40
1.0
 40
1.0
 10
18.814117192743318
 20
14.005361599206402
 30
0.0
 10
18.814117192743318
 20
13.174388467206398
 30
0.0
 10
18.140987548743311
 20
12.500550313206404
 30
0.0
 10
17.309305906743312
 20
12.500550313206404
 30
0.0
  0
SPLINE
  5
A5
  8
Layer_1
 62
1
420
16711680
370
-1
  6
ByLayer
100
AcDbEntity
100
AcDbSpline
 70
8
 71
3
 72
8
 73
4
 74
0
 40
0.0
 40
0.0
 40
0.0
 40
0.0
 40
1.0
 40
1.0
 40
1.0
 40
1.0
 10
17.309305906743312
 20
12.500550313206404
 30
0.0
 10
16.478334028743312
 20
12.500550313206404
 30
0.0
 10
15.804494620743313
 20
13.174742095206398
 30
0.0
 10
15.804494620743313
 20
14.005361599206402
 30
0.0
  0
LWPOLYLINE
  5
A6
  8
Layer_1
 62
1
420
16711680
370
-1
  6
ByLayer
100
AcDbEntity
100
AcDbPolyline
 90
2
 70
0
 10
55.932556066743317
 20
14.005361599206402
 10
55.932556066743317
 20
14.005361599206402
  0
SPLINE
  5
A7
  8
Layer_1
 62
1
420
16711680
370
-1
  6
ByLayer
100
AcDbEntity
100
AcDbSpline
 70
8
 71
3
 72
8
 73
4
 74
0
 40
0.0
 40
0.0
 40
0.0
 40
0.0
 40
1.0
 40
1.0
 40
1.0
 40
1.0
 10
9.3042915707433167
 20
8.9890882272064019
 30
0.0
 10
5.4141490727433137
 20
8.9890882272064019
 30
0.0
 10
2.2608406727433135
 20
5.8357798272064016
 30
0.0
 10
2.2608406727433135
 20
1.9456385832063958
 30
0.0
  0
LWPOLYLINE
  5
A8
  8
Layer_1
 62
1
420
16711680
370
-1
  6
ByLayer
100
AcDbEntity
100
AcDbPolyline
 90
2
 70
0
 10
15.804494620743313
 20
14.005361599206402
 10
15.804494620743313
 20
14.005361599206402
  0
SPLINE
  5
A9
  8
Layer_1
 62
1
420
16711680
370
-1
  6
ByLayer
100
AcDbEntity
100
AcDbSpline
 70
8
 71
3
 72
8
 73
4
 74
0
 40
0.0
 40
0.0
 40
0.0
 40
0.0
 40
1.0
 40
1.0
 40
1.0
 40
1.0
 10
23.416673392743313
 20
-9.216577822793603
 30
0.0
 10
23.416673392743313
 20
-10.148768818793599
 30
0.0
 10
24.105730090743315
 20
-10.111254154793599
 30
0.0
 10
25.001113678743316
 20
-10.244323618793594
 30
0.0
  0
SPLINE
  5
AA
  8
Layer_1
 62
1
420
16711680
370
-1
  6
ByLayer
100
AcDbEntity
100
AcDbSpline
 70
8
 71
3
 72
8
 73
4
 74
0
 40
0.0
 40
0.0
 40
0.0
 40
0.0
 40
1.0
 40
1.0
 40
1.0
 40
1.0
 10
25.001113678743316
 20
-10.244323618793594
 30
0.0
 10
25.089590902743318
 20
-10.262726068793597
 30
0.0
 10
25.180898404743317
 20
-10.271927920793594
 30
0.0
 10
25.274683810743312
 20
-10.271927920793594
 30
0.0
  0
LWPOLYLINE
  5
AB
  8
Layer_1
 62
1
420
16711680
370
-1
  6
ByLayer
100
AcDbEntity
100
AcDbPolyline
 90
5
 70
0
 10
2.2608406727433135
 20
1.9456385832063958
 10
2.2608406727433135
 20
-6.6900386867935993
 10
10.876698472743321
 20
-8.4316126967935929
 10
23.416673392743313
 20
-8.3541079727935994
 10
23.416673392743313
 20
-9.216577822793603
  0
SPLINE
  5
AC
  8
Layer_1
 62
1
420
16711680
370
-1
  6
ByLayer
100
AcDbEntity
100
AcDbSpline
 70
8
 71
3
 72
8
 73
4
 74
0
 40
0.0
 40
0.0
 40
0.0
 40
0.0
 40
1.0
 40
1.0
 40
1.0
 40
1.0
 10
26.20722718074331
 20
-10.268389132793601
 30
0.0
 10
27.689742346743309
 20
-10.268389132793601
 30
0.0
 10
28.892671942743309
 20
-9.8596265147935966
 30
0.0
 10
28.892671942743309
 20
-8.3654328467935954
 30
0.0
  0
LWPOLYLINE
  5
AD
  8
Layer_1
 62
1
420
16711680
370
-1
  6
ByLayer
100
AcDbEntity
100
AcDbPolyline
 90
2
 70
0
 10
25.274683810743312
 20
-10.271927920793594
 10
26.20722718074331
 20
-10.268389132793601
  0
SPLINE
  5
AE
  8
Layer_1
 62
1
420
16711680
370
-1
  6
ByLayer
100
AcDbEntity
100
AcDbSpline
 70
8
 71
3
 72
8
 73
4
 74
0
 40
0.0
 40
0.0
 40
0.0
 40
0.0
 40
1.0
 40
1.0
 40
1.0
 40
1.0
 10
40.470020032743307
 20
-9.214808428793603
 30
0.0
 10
40.470020032743307
 20
-10.240429948793597
 30
0.0
 10
41.302408930743319
 20
-10.269804898793602
 30
0.0
 10
42.328030450743313
 20
-10.269804898793602
 30
0.0
  0
SPLINE
  5
AF
  8
Layer_1
 62
1
420
16711680
370
-1
  6
ByLayer
100
AcDbEntity
100
AcDbSpline
 70
8
 71
3
 72
8
 73
4
 74
0
 40
0.0
 40
0.0
 40
0.0
 40
0.0
 40
1.0
 40
1.0
 40
1.0
 40
1.0
 10
42.328030450743313
 20
-10.269804898793602
 30
0.0
 10
42.348203548743314
 20
-10.269804898793602
 30
0.0
 10
42.366605998743317
 20
-10.264850344793601
 30
0.0
 10
42.386779096743311
 20
-10.264141834793598
 30
0.0
  0
SPLINE
  5
B0
  8
Layer_1
 62
1
420
16711680
370
-1
  6
ByLayer
100
AcDbEntity
100
AcDbSpline
 70
8
 71
3
 72
8
 73
4
 74
0
 40
0.0
 40
0.0
 40
0.0
 40
0.0
 40
1.0
 40
1.0
 40
1.0
 40
1.0
 10
42.386779096743311
 20
-10.264141834793598
 30
0.0
 10
42.406243684743309
 20
-10.264141834793598
 30
0.0
 10
42.42464738874331
 20
-10.269804898793602
 30
0.0
 10
42.444819232743313
 20
-10.269804898793602
 30
0.0
  0
LWPOLYLINE
  5
B1
  8
Layer_1
 62
1
420
16711680
370
-1
  6
ByLayer
100
AcDbEntity
100
AcDbPolyline
 90
6
 70
0
 10
28.892671942743309
 20
-8.3654328467935954
 10
28.905766210743316
 20
-8.3618940587935953
 10
27.132694228743315
 20
-8.0607196247935988
 10
27.132694228743315
 20
-7.3486582967935945
 10
40.470020032743307
 20
-7.3486582967935945
 10
40.470020032743307
 20
-9.214808428793603
  0
SPLINE
  5
B2
  8
Layer_1
 62
1
420
16711680
370
-1
  6
ByLayer
100
AcDbEntity
100
AcDbSpline
 70
8
 71
3
 72
8
 73
4
 74
0
 40
0.0
 40
0.0
 40
0.0
 40
0.0
 40
1.0
 40
1.0
 40
1.0
 40
1.0
 10
43.390458124743311
 20
-10.264850344793601
 30
0.0
 10
44.873326918743309
 20
-10.264850344793601
 30
0.0
 10
46.075901632743317
 20
-9.8560877267936036
 30
0.0
 10
46.075901632743317
 20
-8.3615391767935989
 30
0.0
  0
LWPOLYLINE
  5
B3
  8
Layer_1
 62
1
420
16711680
370
-1
  6
ByLayer
100
AcDbEntity
100
AcDbPolyline
 90
2
 70
0
 10
42.444819232743313
 20
-10.269804898793602
 10
43.390458124743311
 20
-10.264850344793601
  0
SPLINE
  5
B4
  8
Layer_1
 62
1
420
16711680
370
-1
  6
ByLayer
100
AcDbEntity
100
AcDbSpline
 70
8
 71
3
 72
8
 73
4
 74
0
 40
0.0
 40
0.0
 40
0.0
 40
0.0
 40
1.0
 40
1.0
 40
1.0
 40
1.0
 10
46.91643024474331
 20
-7.3483046687936024
 30
0.0
 10
50.599890970743317
 20
-7.3483046687936024
 30
0.0
 10
53.982177262743313
 20
-5.2609639847935981
 30
0.0
 10
56.644616140743317
 20
-3.1201815827935988
 30
0.0
  0
LWPOLYLINE
  5
B5
  8
Layer_1
 62
1
420
16711680
370
-1
  6
ByLayer
100
AcDbEntity
100
AcDbPolyline
 90
4
 70
0
 10
46.075901632743317
 20
-8.3615391767935989
 10
44.186040868743312
 20
-8.0603647427935954
 10
44.186040868743312
 20
-7.3483046687936024
 10
46.91643024474331
 20
-7.3483046687936024
  0
SPLINE
  5
B6
  8
Layer_1
 62
1
420
16711680
370
-1
  6
ByLayer
100
AcDbEntity
100
AcDbSpline
 70
8
 71
3
 72
8
 73
4
 74
0
 40
0.0
 40
0.0
 40
0.0
 40
0.0
 40
1.0
 40
1.0
 40
1.0
 40
1.0
 10
58.122530380743314
 20
-4.5980958227936028
 30
0.0
 10
58.781858500743319
 20
-5.2570703147936015
 30
0.0
 10
59.810311552743315
 20
-5.3108644067935984
 30
0.0
 10
60.537590170743314
 20
-4.7722187387935975
 30
0.0
  0
SPLINE
  5
B7
  8
Layer_1
 62
1
420
16711680
370
-1
  6
ByLayer
100
AcDbEntity
100
AcDbSpline
 70
8
 71
3
 72
8
 73
4
 74
0
 40
0.0
 40
0.0
 40
0.0
 40
0.0
 40
1.0
 40
1.0
 40
1.0
 40
1.0
 10
60.537590170743314
 20
-4.7722187387935975
 30
0.0
 10
60.612264616743317
 20
-4.7223170627936
 30
0.0
 10
60.684107530743319
 20
-4.6646305547936038
 30
0.0
 10
60.750287380743316
 20
-4.5980958227936028
 30
0.0
  0
LWPOLYLINE
  5
B8
  8
Layer_1
 62
1
420
16711680
370
-1
  6
ByLayer
100
AcDbEntity
100
AcDbPolyline
 90
2
 70
0
 10
56.644616140743317
 20
-3.1201815827935988
 10
58.122530380743314
 20
-4.5980958227936028
  0
SPLINE
  5
B9
  8
Layer_1
 62
1
420
16711680
370
-1
  6
ByLayer
100
AcDbEntity
100
AcDbSpline
 70
8
 71
3
 72
8
 73
4
 74
0
 40
0.0
 40
0.0
 40
0.0
 40
0.0
 40
1.0
 40
1.0
 40
1.0
 40
1.0
 10
61.415278564743311
 20
-3.9263819447935973
 30
0.0
 10
62.463903460743317
 20
-2.8774021667936012
 30
0.0
 10
62.256868060743315
 20
-0.9701985827935928
 30
0.0
 10
61.200810706743312
 20
0.0865660272064019
 30
0.0
  0
LWPOLYLINE
  5
BA
  8
Layer_1
 62
1
420
16711680
370
-1
  6
ByLayer
100
AcDbEntity
100
AcDbPolyline
 90
2
 70
0
 10
60.750287380743316
 20
-4.5980958227936028
 10
61.415278564743311
 20
-3.9263819447935973
  0
SPLINE
  5
BB
  8
Layer_1
 62
1
420
16711680
370
-1
  6
ByLayer
100
AcDbEntity
100
AcDbSpline
 70
8
 71
3
 72
8
 73
4
 74
0
 40
0.0
 40
0.0
 40
0.0
 40
0.0
 40
1.0
 40
1.0
 40
1.0
 40
1.0
 10
59.242999444743312
 20
-0.4634045147936021
 30
0.0
 10
61.255313308743311
 20
2.1555042612064028
 30
0.0
 10
62.453640724743316
 20
5.4323266452064018
 30
0.0
 10
62.453640724743316
 20
8.990857621206402
 30
0.0
  0
LWPOLYLINE
  5
BC
  8
Layer_1
 62
1
420
16711680
370
-1
  6
ByLayer
100
AcDbEntity
100
AcDbPolyline
 90
3
 70
0
 10
61.200810706743312
 20
0.0865660272064019
 10
59.645391742743314
 20
-0.8657968127936044
 10
59.242999444743312
 20
-0.4634045147936021
  0
SPLINE
  5
BD
  8
Layer_1
 62
1
420
16711680
370
-1
  6
ByLayer
100
AcDbEntity
100
AcDbSpline
 70
8
 71
3
 72
8
 73
4
 74
0
 40
0.0
 40
0.0
 40
0.0
 40
0.0
 40
1.0
 40
1.0
 40
1.0
 40
1.0
 10
120.79515430674331
 20
8.990857621206402
 30
0.0
 10
122.38879644474332
 20
8.990857621206402
 30
0.0
 10
123.68090926674333
 20
10.282971697206399
 30
0.0
 10
123.68090926674333
 20
11.876612581206402
 30
0.0
  0
LWPOLYLINE
  5
BE
  8
Layer_1
 62
1
420
16711680
370
-1
  6
ByLayer
100
AcDbEntity
100
AcDbPolyline
 90
2
 70
0
 10
62.453640724743316
 20
8.990857621206402
 10
120.79515430674331
 20
8.990857621206402
  0
SPLINE
  5
BF
  8
Layer_1
 62
1
420
16711680
370
-1
  6
ByLayer
100
AcDbEntity
100
AcDbSpline
 70
8
 71
3
 72
8
 73
4
 74
0
 40
0.0
 40
0.0
 40
0.0
 40
0.0
 40
1.0
 40
1.0
 40
1.0
 40
1.0
 10
123.68090926674333
 20
12.110545027206399
 30
0.0
 10
123.68090926674333
 20
13.704187165206399
 30
0.0
 10
122.38879644474332
 20
14.996299987206399
 30
0.0
 10
120.79515430674331
 20
14.996299987206399
 30
0.0
  0
SPLINE
  5
C0
  8
Layer_1
 62
1
420
16711680
370
-1
  6
ByLayer
100
AcDbEntity
100
AcDbSpline
 70
8
 71
3
 72
8
 73
4
 74
0
 40
0.0
 40
0.0
 40
0.0
 40
0.0
 40
1.0
 40
1.0
 40
1.0
 40
1.0
 10
120.79515430674331
 20
14.996299987206399
 30
0.0
 10
116.17773444474332
 20
14.996299987206399
 30
0.0
 10
112.43481781674332
 20
23.534653063206402
 30
0.0
 10
112.43481781674332
 20
34.067268673206399
 30
0.0
  0
SPLINE
  5
C1
  8
Layer_1
 62
1
420
16711680
370
-1
  6
ByLayer
100
AcDbEntity
100
AcDbSpline
 70
8
 71
3
 72
8
 73
4
 74
0
 40
0.0
 40
0.0
 40
0.0
 40
0.0
 40
1.0
 40
1.0
 40
1.0
 40
1.0
 10
112.43481781674332
 20
34.067268673206399
 30
0.0
 10
112.43481781674332
 20
44.599530655206401
 30
0.0
 10
116.17773444474332
 20
53.1382373592064
 30
0.0
 10
120.79515430674331
 20
53.1382373592064
 30
0.0
  0
LWPOLYLINE
  5
C2
  8
Layer_1
 62
1
420
16711680
370
-1
  6
ByLayer
100
AcDbEntity
100
AcDbPolyline
 90
2
 70
0
 10
123.68090926674333
 20
11.876612581206402
 10
123.68090926674333
 20
12.110545027206399
  0
SPLINE
  5
C3
  8
Layer_1
 62
1
420
16711680
370
-1
  6
ByLayer
100
AcDbEntity
100
AcDbSpline
 70
8
 71
3
 72
8
 73
4
 74
0
 40
0.0
 40
0.0
 40
0.0
 40
0.0
 40
1.0
 40
1.0
 40
1.0
 40
1.0
 10
120.79515430674331
 20
53.1382373592064
 30
0.0
 10
122.38879644474332
 20
53.1382373592064
 30
0.0
 10
123.68090926674333
 20
54.429996553206394
 30
0.0
 10
123.68090926674333
 20
56.024345947206399
 30
0.0
  0
LWPOLYLINE
  5
C4
  8
Layer_1
 62
1
420
16711680
370
-1
  6
ByLayer
100
AcDbEntity
100
AcDbPolyline
 90
3
 70
0
 10
120.79515430674331
 20
53.1382373592064
 10
120.79515430674331
 20
53.145669817206397
 10
120.79515430674331
 20
53.1382373592064
  0
SPLINE
  5
C5
  8
Layer_1
 62
1
420
16711680
370
-1
  6
ByLayer
100
AcDbEntity
100
AcDbSpline
 70
8
 71
3
 72
8
 73
4
 74
0
 40
0.0
 40
0.0
 40
0.0
 40
0.0
 40
1.0
 40
1.0
 40
1.0
 40
1.0
 10
123.68090926674333
 20
56.257924765206397
 30
0.0
 10
123.68090926674333
 20
57.851920531206403
 30
0.0
 10
122.38879644474332
 20
59.143679725206397
 30
0.0
 10
120.79515430674331
 20
59.143679725206397
 30
0.0
  0
LWPOLYLINE
  5
C6
  8
Layer_1
 62
1
420
16711680
370
-1
  6
ByLayer
100
AcDbEntity
100
AcDbPolyline
 90
2
 70
0
 10
123.68090926674333
 20
56.024345947206399
 10
123.68090926674333
 20
56.257924765206397
  0
SPLINE
  5
C7
  8
Layer_1
 62
1
420
16711680
370
-1
  6
ByLayer
100
AcDbEntity
100
AcDbSpline
 70
8
 71
3
 72
8
 73
4
 74
0
 40
0.0
 40
0.0
 40
0.0
 40
0.0
 40
1.0
 40
1.0
 40
1.0
 40
1.0
 10
62.453640724743316
 20
59.151112183206401
 30
0.0
 10
62.453640724743316
 20
62.709289531206402
 30
0.0
 10
61.254958426743308
 20
65.986110661206396
 30
0.0
 10
59.242999444743312
 20
68.605020691206406
 30
0.0
  0
LWPOLYLINE
  5
C8
  8
Layer_1
 62
1
420
16711680
370
-1
  6
ByLayer
100
AcDbEntity
100
AcDbPolyline
 90
3
 70
0
 10
120.79515430674331
 20
59.143679725206397
 10
120.79515430674331
 20
59.151112183206401
 10
62.453640724743316
 20
59.151112183206401
  0
SPLINE
  5
C9
  8
Layer_1
 62
1
420
16711680
370
-1
  6
ByLayer
100
AcDbEntity
100
AcDbSpline
 70
8
 71
3
 72
8
 73
4
 74
0
 40
0.0
 40
0.0
 40
0.0
 40
0.0
 40
1.0
 40
1.0
 40
1.0
 40
1.0
 10
61.200810706743312
 20
68.055403777206408
 30
0.0
 10
62.256868060743315
 20
69.112168387206395
 30
0.0
 10
62.463903460743317
 20
71.019371971206397
 30
0.0
 10
61.415278564743311
 20
72.068350495206403
 30
0.0
  0
LWPOLYLINE
  5
CA
  8
Layer_1
 62
1
420
16711680
370
-1
  6
ByLayer
100
AcDbEntity
100
AcDbPolyline
 90
3
 70
0
 10
59.242999444743312
 20
68.605020691206406
 10
59.645391742743314
 20
69.0077666172064
 10
61.200810706743312
 20
68.055403777206408
  0
SPLINE
  5
CB
  8
Layer_1
 62
1
420
16711680
370
-1
  6
ByLayer
100
AcDbEntity
100
AcDbSpline
 70
8
 71
3
 72
8
 73
4
 74
0
 40
0.0
 40
0.0
 40
0.0
 40
0.0
 40
1.0
 40
1.0
 40
1.0
 40
1.0
 10
60.750287380743316
 20
72.740065627206405
 30
0.0
 10
60.684107530743319
 20
72.806600359206413
 30
0.0
 10
60.612264616743317
 20
72.864286867206388
 30
0.0
 10
60.537590170743314
 20
72.913833661206397
 30
0.0
  0
SPLINE
  5
CC
  8
Layer_1
 62
1
420
16711680
370
-1
  6
ByLayer
100
AcDbEntity
100
AcDbSpline
 70
8
 71
3
 72
8
 73
4
 74
0
 40
0.0
 40
0.0
 40
0.0
 40
0.0
 40
1.0
 40
1.0
 40
1.0
 40
1.0
 10
60.537590170743314
 20
72.913833661206397
 30
0.0
 10
59.809957924743308
 20
73.452480583206395
 30
0.0
 10
58.781858500743319
 20
73.399393747206403
 30
0.0
 10
58.122530380743314
 20
72.740065627206405
 30
0.0
  0
LWPOLYLINE
  5
CD
  8
Layer_1
 62
1
420
16711680
370
-1
  6
ByLayer
100
AcDbEntity
100
AcDbPolyline
 90
2
 70
0
 10
61.415278564743311
 20
72.068350495206403
 10
60.750287380743316
 20
72.740065627206405
  0
SPLINE
  5
CE
  8
Layer_1
 62
1
420
16711680
370
-1
  6
ByLayer
100
AcDbEntity
100
AcDbSpline
 70
8
 71
3
 72
8
 73
4
 74
0
 40
0.0
 40
0.0
 40
0.0
 40
0.0
 40
1.0
 40
1.0
 40
1.0
 40
1.0
 10
56.644616140743317
 20
71.261797759206388
 30
0.0
 10
53.982177262743313
 20
73.402932535206403
 30
0.0
 10
50.599890970743317
 20
75.490274473206398
 30
0.0
 10
46.91643024474331
 20
75.490274473206398
 30
0.0
  0
LWPOLYLINE
  5
CF
  8
Layer_1
 62
1
420
16711680
370
-1
  6
ByLayer
100
AcDbEntity
100
AcDbPolyline
 90
2
 70
0
 10
58.122530380743314
 20
72.740065627206405
 10
56.644616140743317
 20
71.261797759206388
  0
SPLINE
  5
D0
  8
Layer_1
 62
1
420
16711680
370
-1
  6
ByLayer
100
AcDbEntity
100
AcDbSpline
 70
8
 71
3
 72
8
 73
4
 74
0
 40
0.0
 40
0.0
 40
0.0
 40
0.0
 40
1.0
 40
1.0
 40
1.0
 40
1.0
 10
46.075901632743317
 20
76.503508981206409
 30
0.0
 10
46.075901632743317
 20
77.9977039032064
 30
0.0
 10
44.873680546743316
 20
78.405758011206402
 30
0.0
 10
43.390458124743311
 20
78.405758011206402
 30
0.0
  0
LWPOLYLINE
  5
D1
  8
Layer_1
 62
1
420
16711680
370
-1
  6
ByLayer
100
AcDbEntity
100
AcDbPolyline
 90
4
 70
0
 10
46.91643024474331
 20
75.490274473206398
 10
44.186040868743312
 20
75.490274473206398
 10
44.186040868743312
 20
76.201980919206406
 10
46.075901632743317
 20
76.503508981206409
  0
SPLINE
  5
D2
  8
Layer_1
 62
1
420
16711680
370
-1
  6
ByLayer
100
AcDbEntity
100
AcDbSpline
 70
8
 71
3
 72
8
 73
4
 74
0
 40
0.0
 40
0.0
 40
0.0
 40
0.0
 40
1.0
 40
1.0
 40
1.0
 40
1.0
 10
42.444819232743313
 20
78.410712565206396
 30
0.0
 10
42.42464738874331
 20
78.410712565206396
 30
0.0
 10
42.406243684743309
 20
78.405758011206402
 30
0.0
 10
42.386779096743311
 20
78.405049501206406
 30
0.0
  0
SPLINE
  5
D3
  8
Layer_1
 62
1
420
16711680
370
-1
  6
ByLayer
100
AcDbEntity
100
AcDbSpline
 70
8
 71
3
 72
8
 73
4
 74
0
 40
0.0
 40
0.0
 40
0.0
 40
0.0
 40
1.0
 40
1.0
 40
1.0
 40
1.0
 10
42.386779096743311
 20
78.405049501206406
 30
0.0
 10
42.366605998743317
 20
78.405049501206406
 30
0.0
 10
42.348203548743314
 20
78.410712565206396
 30
0.0
 10
42.328030450743313
 20
78.410712565206396
 30
0.0
  0
SPLINE
  5
D4
  8
Layer_1
 62
1
420
16711680
370
-1
  6
ByLayer
100
AcDbEntity
100
AcDbSpline
 70
8
 71
3
 72
8
 73
4
 74
0
 40
0.0
 40
0.0
 40
0.0
 40
0.0
 40
1.0
 40
1.0
 40
1.0
 40
1.0
 10
42.328030450743313
 20
78.410712565206396
 30
0.0
 10
41.302408930743319
 20
78.410712565206396
 30
0.0
 10
40.470020032743307
 20
78.382046125206415
 30
0.0
 10
40.470020032743307
 20
77.356424605206399
 30
0.0
  0
LWPOLYLINE
  5
D5
  8
Layer_1
 62
1
420
16711680
370
-1
  6
ByLayer
100
AcDbEntity
100
AcDbPolyline
 90
2
 70
0
 10
43.390458124743311
 20
78.405758011206402
 10
42.444819232743313
 20
78.410712565206396
  0
SPLINE
  5
D6
  8
Layer_1
 62
1
420
16711680
370
-1
  6
ByLayer
100
AcDbEntity
100
AcDbSpline
 70
8
 71
3
 72
8
 73
4
 74
0
 40
0.0
 40
0.0
 40
0.0
 40
0.0
 40
1.0
 40
1.0
 40
1.0
 40
1.0
 10
28.892671942743309
 20
76.507049023206406
 30
0.0
 10
28.892671942743309
 20
78.0012426912064
 30
0.0
 10
27.690097228743316
 20
78.308787445206391
 30
0.0
 10
26.20722718074331
 20
78.308787445206391
 30
0.0
  0
LWPOLYLINE
  5
D7
  8
Layer_1
 62
1
420
16711680
370
-1
  6
ByLayer
100
AcDbEntity
100
AcDbPolyline
 90
6
 70
0
 10
40.470020032743307
 20
77.356424605206399
 10
40.470020032743307
 20
75.490274473206398
 10
27.132694228743315
 20
75.490274473206398
 10
27.132694228743315
 20
76.201980919206406
 10
28.905766210743316
 20
76.503508981206409
 10
28.892671942743309
 20
76.507049023206406
  0
SPLINE
  5
D8
  8
Layer_1
 62
1
420
16711680
370
-1
  6
ByLayer
100
AcDbEntity
100
AcDbSpline
 70
8
 71
3
 72
8
 73
4
 74
0
 40
0.0
 40
0.0
 40
0.0
 40
0.0
 40
1.0
 40
1.0
 40
1.0
 40
1.0
 10
25.274683810743312
 20
78.312326233206406
 30
0.0
 10
25.180544776743311
 20
78.312326233206406
 30
0.0
 10
25.089590902743318
 20
78.303124381206402
 30
0.0
 10
25.001113678743316
 20
78.284721931206406
 30
0.0
  0
SPLINE
  5
D9
  8
Layer_1
 62
1
420
16711680
370
-1
  6
ByLayer
100
AcDbEntity
100
AcDbSpline
 70
8
 71
3
 72
8
 73
4
 74
0
 40
0.0
 40
0.0
 40
0.0
 40
0.0
 40
1.0
 40
1.0
 40
1.0
 40
1.0
 10
25.001113678743316
 20
78.284721931206406
 30
0.0
 10
24.106083718743314
 20
78.151652467206404
 30
0.0
 10
23.416673392743313
 20
78.290383741206398
 30
0.0
 10
23.416673392743313
 20
77.358193999206392
 30
0.0
  0
LWPOLYLINE
  5
DA
  8
Layer_1
 62
1
420
16711680
370
-1
  6
ByLayer
100
AcDbEntity
100
AcDbPolyline
 90
2
 70
0
 10
26.20722718074331
 20
78.308787445206391
 10
25.274683810743312
 20
78.312326233206406
  0
SPLINE
  5
DB
  8
Layer_1
 62
1
420
16711680
370
-1
  6
ByLayer
100
AcDbEntity
100
AcDbSpline
 70
8
 71
3
 72
8
 73
4
 74
0
 40
0.0
 40
0.0
 40
0.0
 40
0.0
 40
1.0
 40
1.0
 40
1.0
 40
1.0
 10
2.2608406727433135
 20
66.196331221206407
 30
0.0
 10
2.2608406727433135
 20
62.306189977206401
 30
0.0
 10
5.4141490727433137
 20
59.152881577206401
 30
0.0
 10
9.3042915707433167
 20
59.152881577206401
 30
0.0
  0
LWPOLYLINE
  5
DC
  8
Layer_1
 62
1
420
16711680
370
-1
  6
ByLayer
100
AcDbEntity
100
AcDbPolyline
 90
5
 70
0
 10
23.416673392743313
 20
77.358193999206392
 10
23.416673392743313
 20
76.495722895206399
 10
10.876698472743321
 20
76.572875245206404
 10
2.2608406727433135
 20
74.832008491206409
 10
2.2608406727433135
 20
66.196331221206407
  0
LWPOLYLINE
  5
DD
  8
Layer_1
 62
1
420
16711680
370
-1
  6
ByLayer
100
AcDbEntity
100
AcDbPolyline
 90
4
 70
0
 10
12.293033788743315
 20
59.152881577206401
 10
-13.005984835256683
 20
59.152881577206401
 10
-13.005984835256683
 20
8.9926270152064021
 10
12.293033788743315
 20
8.9926270152064021
  0
LWPOLYLINE
  5
DE
  8
Layer_1
 62
1
420
16711680
370
-1
  6
ByLayer
100
AcDbEntity
100
AcDbPolyline
 90
6
 70
0
 10
106.59783530274332
 20
11.500763701206402
 10
113.62040459274331
 20
11.500763701206402
 10
113.62040459274331
 20
12.2029146672064
 10
106.59783530274332
 20
12.2029146672064
 10
106.59783530274332
 20
11.500763701206402
 10
106.59783530274332
 20
11.500763701206402
  0
LWPOLYLINE
  5
DF
  8
Layer_1
 62
1
420
16711680
370
-1
  6
ByLayer
100
AcDbEntity
100
AcDbPolyline
 90
6
 70
0
 10
90.243099586743313
 20
11.500763701206402
 10
97.265316502743318
 20
11.500763701206402
 10
97.265316502743318
 20
12.2029146672064
 10
90.243099586743313
 20
12.2029146672064
 10
90.243099586743313
 20
11.500763701206402
 10
90.243099586743313
 20
11.500763701206402
  0
LWPOLYLINE
  5
E0
  8
Layer_1
 62
1
420
16711680
370
-1
  6
ByLayer
100
AcDbEntity
100
AcDbPolyline
 90
6
 70
0
 10
72.183950896743312
 20
11.500763701206402
 10
79.206166558743305
 20
11.500763701206402
 10
79.206166558743305
 20
12.2029146672064
 10
72.183950896743312
 20
12.2029146672064
 10
72.183950896743312
 20
11.500763701206402
 10
72.183950896743312
 20
11.500763701206402
  0
LWPOLYLINE
  5
E1
  8
Layer_1
 62
1
420
16711680
370
-1
  6
ByLayer
100
AcDbEntity
100
AcDbPolyline
 90
6
 70
0
 10
106.59783530274332
 20
56.6447448912064
 10
113.62040459274331
 20
56.6447448912064
 10
113.62040459274331
 20
55.942240297206396
 10
106.59783530274332
 20
55.942240297206396
 10
106.59783530274332
 20
56.6447448912064
 10
106.59783530274332
 20
56.6447448912064
  0
LWPOLYLINE
  5
E2
  8
Layer_1
 62
1
420
16711680
370
-1
  6
ByLayer
100
AcDbEntity
100
AcDbPolyline
 90
6
 70
0
 10
90.243099586743313
 20
56.6447448912064
 10
97.265316502743318
 20
56.6447448912064
 10
97.265316502743318
 20
55.942240297206396
 10
90.243099586743313
 20
55.942240297206396
 10
90.243099586743313
 20
56.6447448912064
 10
90.243099586743313
 20
56.6447448912064
  0
LWPOLYLINE
  5
E3
  8
Layer_1
 62
1
420
16711680
370
-1
  6
ByLayer
100
AcDbEntity
100
AcDbPolyline
 90
6
 70
0
 10
72.18465815274331
 20
56.6447448912064
 10
79.206875068743315
 20
56.6447448912064
 10
79.206875068743315
 20
55.942240297206396
 10
72.18465815274331
 20
55.942240297206396
 10
72.18465815274331
 20
56.6447448912064
 10
72.18465815274331
 20
56.6447448912064
  0
LWPOLYLINE
  5
E4
  8
Layer_1
 62
1
420
16711680
370
-1
  6
ByLayer
100
AcDbEntity
100
AcDbPolyline
 90
2
 70
0
 10
2.2604870447433143
 20
11.778227503206402
 10
2.2604870447433143
 20
10.126898857206399
  0
LWPOLYLINE
  5
E5
  8
Layer_1
 62
1
420
16711680
370
-1
  6
ByLayer
100
AcDbEntity
100
AcDbPolyline
 90
2
 70
0
 10
2.2604870447433143
 20
14.6682285072064
 10
2.2604870447433143
 20
13.016899861206404
  0
LWPOLYLINE
  5
E6
  8
Layer_1
 62
1
420
16711680
370
-1
  6
ByLayer
100
AcDbEntity
100
AcDbPolyline
 90
2
 70
0
 10
2.2604870447433143
 20
17.558230765206403
 10
2.2604870447433143
 20
15.9069021192064
  0
LWPOLYLINE
  5
E7
  8
Layer_1
 62
1
420
16711680
370
-1
  6
ByLayer
100
AcDbEntity
100
AcDbPolyline
 90
2
 70
0
 10
2.2604870447433143
 20
20.448233023206402
 10
2.2604870447433143
 20
18.796904377206403
  0
LWPOLYLINE
  5
E8
  8
Layer_1
 62
1
420
16711680
370
-1
  6
ByLayer
100
AcDbEntity
100
AcDbPolyline
 90
2
 70
0
 10
2.2604870447433143
 20
23.338234027206401
 10
2.2604870447433143
 20
21.686905381206401
  0
LWPOLYLINE
  5
E9
  8
Layer_1
 62
1
420
16711680
370
-1
  6
ByLayer
100
AcDbEntity
100
AcDbPolyline
 90
2
 70
0
 10
2.2604870447433143
 20
26.2282362852064
 10
2.2604870447433143
 20
24.5769076392064
  0
LWPOLYLINE
  5
EA
  8
Layer_1
 62
1
420
16711680
370
-1
  6
ByLayer
100
AcDbEntity
100
AcDbPolyline
 90
2
 70
0
 10
2.2604870447433143
 20
29.118238543206395
 10
2.2604870447433143
 20
27.466909897206399
  0
LWPOLYLINE
  5
EB
  8
Layer_1
 62
1
420
16711680
370
-1
  6
ByLayer
100
AcDbEntity
100
AcDbPolyline
 90
2
 70
0
 10
2.2604870447433143
 20
32.008239547206401
 10
2.2604870447433143
 20
30.356910901206398
  0
LWPOLYLINE
  5
EC
  8
Layer_1
 62
1
420
16711680
370
-1
  6
ByLayer
100
AcDbEntity
100
AcDbPolyline
 90
2
 70
0
 10
2.2604870447433143
 20
34.898241805206396
 10
2.2604870447433143
 20
33.2469131592064
  0
LWPOLYLINE
  5
ED
  8
Layer_1
 62
1
420
16711680
370
-1
  6
ByLayer
100
AcDbEntity
100
AcDbPolyline
 90
2
 70
0
 10
2.2604870447433143
 20
37.787889181206403
 10
2.2604870447433143
 20
36.136560535206399
  0
LWPOLYLINE
  5
EE
  8
Layer_1
 62
1
420
16711680
370
-1
  6
ByLayer
100
AcDbEntity
100
AcDbPolyline
 90
2
 70
0
 10
2.2604870447433143
 20
40.677891439206405
 10
2.2604870447433143
 20
39.026562793206395
  0
LWPOLYLINE
  5
EF
  8
Layer_1
 62
1
420
16711680
370
-1
  6
ByLayer
100
AcDbEntity
100
AcDbPolyline
 90
2
 70
0
 10
2.2604870447433143
 20
43.567893697206401
 10
2.2604870447433143
 20
41.916565051206405
  0
LWPOLYLINE
  5
F0
  8
Layer_1
 62
1
420
16711680
370
-1
  6
ByLayer
100
AcDbEntity
100
AcDbPolyline
 90
2
 70
0
 10
2.2604870447433143
 20
46.457894701206399
 10
2.2604870447433143
 20
44.806566055206403
  0
LWPOLYLINE
  5
F1
  8
Layer_1
 62
1
420
16711680
370
-1
  6
ByLayer
100
AcDbEntity
100
AcDbPolyline
 90
2
 70
0
 10
2.2604870447433143
 20
49.347896959206402
 10
2.2604870447433143
 20
47.696568313206399
  0
LWPOLYLINE
  5
F2
  8
Layer_1
 62
1
420
16711680
370
-1
  6
ByLayer
100
AcDbEntity
100
AcDbPolyline
 90
2
 70
0
 10
2.2604870447433143
 20
52.237899217206397
 10
2.2604870447433143
 20
50.586570571206401
  0
LWPOLYLINE
  5
F3
  8
Layer_1
 62
1
420
16711680
370
-1
  6
ByLayer
100
AcDbEntity
100
AcDbPolyline
 90
2
 70
0
 10
2.2604870447433143
 20
55.127900221206396
 10
2.2604870447433143
 20
53.4765715752064
  0
LWPOLYLINE
  5
F4
  8
Layer_1
 62
1
420
16711680
370
-1
  6
ByLayer
100
AcDbEntity
100
AcDbPolyline
 90
2
 70
0
 10
2.2604870447433143
 20
58.017902479206398
 10
2.2604870447433143
 20
56.366573833206402
  0
LWPOLYLINE
  5
F5
  8
Layer_1
 62
1
420
16711680
370
-1
  6
ByLayer
100
AcDbEntity
100
AcDbPolyline
 90
2
 70
0
 10
12.293033788743315
 20
11.778227503206402
 10
12.293033788743315
 20
10.126898857206399
  0
LWPOLYLINE
  5
F6
  8
Layer_1
 62
1
420
16711680
370
-1
  6
ByLayer
100
AcDbEntity
100
AcDbPolyline
 90
2
 70
0
 10
12.293033788743315
 20
14.6682285072064
 10
12.293033788743315
 20
13.016899861206404
  0
LWPOLYLINE
  5
F7
  8
Layer_1
 62
1
420
16711680
370
-1
  6
ByLayer
100
AcDbEntity
100
AcDbPolyline
 90
2
 70
0
 10
12.293033788743315
 20
17.558230765206403
 10
12.293033788743315
 20
15.9069021192064
  0
LWPOLYLINE
  5
F8
  8
Layer_1
 62
1
420
16711680
370
-1
  6
ByLayer
100
AcDbEntity
100
AcDbPolyline
 90
2
 70
0
 10
12.293033788743315
 20
20.448233023206402
 10
12.293033788743315
 20
18.796904377206403
  0
LWPOLYLINE
  5
F9
  8
Layer_1
 62
1
420
16711680
370
-1
  6
ByLayer
100
AcDbEntity
100
AcDbPolyline
 90
2
 70
0
 10
12.293033788743315
 20
23.338234027206401
 10
12.293033788743315
 20
21.686905381206401
  0
LWPOLYLINE
  5
FA
  8
Layer_1
 62
1
420
16711680
370
-1
  6
ByLayer
100
AcDbEntity
100
AcDbPolyline
 90
2
 70
0
 10
12.293033788743315
 20
26.2282362852064
 10
12.293033788743315
 20
24.5769076392064
  0
LWPOLYLINE
  5
FB
  8
Layer_1
 62
1
420
16711680
370
-1
  6
ByLayer
100
AcDbEntity
100
AcDbPolyline
 90
2
 70
0
 10
12.293033788743315
 20
29.118238543206395
 10
12.293033788743315
 20
27.466909897206399
  0
LWPOLYLINE
  5
FC
  8
Layer_1
 62
1
420
16711680
370
-1
  6
ByLayer
100
AcDbEntity
100
AcDbPolyline
 90
2
 70
0
 10
12.293033788743315
 20
32.008239547206401
 10
12.293033788743315
 20
30.356910901206398
  0
LWPOLYLINE
  5
FD
  8
Layer_1
 62
1
420
16711680
370
-1
  6
ByLayer
100
AcDbEntity
100
AcDbPolyline
 90
2
 70
0
 10
12.293033788743315
 20
34.898241805206396
 10
12.293033788743315
 20
33.2469131592064
  0
LWPOLYLINE
  5
FE
  8
Layer_1
 62
1
420
16711680
370
-1
  6
ByLayer
100
AcDbEntity
100
AcDbPolyline
 90
2
 70
0
 10
12.293033788743315
 20
37.787889181206403
 10
12.293033788743315
 20
36.136560535206399
  0
LWPOLYLINE
  5
FF
  8
Layer_1
 62
1
420
16711680
370
-1
  6
ByLayer
100
AcDbEntity
100
AcDbPolyline
 90
2
 70
0
 10
12.293033788743315
 20
40.677891439206405
 10
12.293033788743315
 20
39.026562793206395
  0
LWPOLYLINE
  5
100
  8
Layer_1
 62
1
420
16711680
370
-1
  6
ByLayer
100
AcDbEntity
100
AcDbPolyline
 90
2
 70
0
 10
12.293033788743315
 20
43.567893697206401
 10
12.293033788743315
 20
41.916565051206405
  0
LWPOLYLINE
  5
101
  8
Layer_1
 62
1
420
16711680
370
-1
  6
ByLayer
100
AcDbEntity
100
AcDbPolyline
 90
2
 70
0
 10
12.293033788743315
 20
46.457894701206399
 10
12.293033788743315
 20
44.806566055206403
  0
LWPOLYLINE
  5
102
  8
Layer_1
 62
1
420
16711680
370
-1
  6
ByLayer
100
AcDbEntity
100
AcDbPolyline
 90
2
 70
0
 10
12.293033788743315
 20
49.347896959206402
 10
12.293033788743315
 20
47.696568313206399
  0
LWPOLYLINE
  5
103
  8
Layer_1
 62
1
420
16711680
370
-1
  6
ByLayer
100
AcDbEntity
100
AcDbPolyline
 90
2
 70
0
 10
12.293033788743315
 20
52.237899217206397
 10
12.293033788743315
 20
50.586570571206401
  0
LWPOLYLINE
  5
104
  8
Layer_1
 62
1
420
16711680
370
-1
  6
ByLayer
100
AcDbEntity
100
AcDbPolyline
 90
2
 70
0
 10
12.293033788743315
 20
55.127900221206396
 10
12.293033788743315
 20
53.4765715752064
  0
LWPOLYLINE
  5
105
  8
Layer_1
 62
1
420
16711680
370
-1
  6
ByLayer
100
AcDbEntity
100
AcDbPolyline
 90
2
 70
0
 10
12.293033788743315
 20
58.017902479206398
 10
12.293033788743315
 20
56.366573833206402
  0
LWPOLYLINE
  5
106
  8
Layer_1
 62
1
420
16711680
370
-1
  6
ByLayer
100
AcDbEntity
100
AcDbPolyline
 90
2
 70
0
 10
59.667332980743318
 20
8.9926270152064021
 10
61.318661626743314
 20
8.9926270152064021
  0
LWPOLYLINE
  5
107
  8
Layer_1
 62
1
420
16711680
370
-1
  6
ByLayer
100
AcDbEntity
100
AcDbPolyline
 90
2
 70
0
 10
56.777331976743319
 20
8.9926270152064021
 10
58.428660622743315
 20
8.9926270152064021
  0
LWPOLYLINE
  5
108
  8
Layer_1
 62
5
420
255
370
-1
  6
ByLayer
100
AcDbEntity
100
AcDbPolyline
 90
4
 70
0
 10
68.691032962743307
 20
109.7181104232064
 10
93.390816400743319
 20
97.12494333120641
 10
106.57631791674331
 20
81.349943101206406
 10
106.50734039274332
 20
81.432155341206396
  0
LWPOLYLINE
  5
109
  8
Layer_1
 62
1
420
16711680
370
-1
  6
ByLayer
100
AcDbEntity
100
AcDbPolyline
 90
2
 70
0
 10
80.429056072743322
 20
109.42557103320641
 10
98.769596092743313
 20
99.977819665206397
  0
LWPOLYLINE
  5
10A
  8
Layer_1
 62
1
420
16711680
370
-1
  6
ByLayer
100
AcDbEntity
100
AcDbPolyline
 90
2
 70
0
 10
93.390816400743319
 20
97.12494333120641
 10
101.83973670474333
 20
101.60575494120638
  0
ENDSEC
  0
SECTION
  2
OBJECTS
  0
DICTIONARY
  5
C
100
AcDbDictionary
280
0
281
1
  3
ACAD_GROUP
350
D
  3
ACAD_LAYOUT
350
1A
  3
ACAD_MLINESTYLE
350
17
  3
ACAD_PLOTSETTINGS
350
19
  3
ACAD_PLOTSTYLENAME
350
E
  3
AcDbVariableDictionary
350
10B
  0
DICTIONARY
  5
D
100
AcDbDictionary
280
0
281
1
  0
ACDBDICTIONARYWDFLT
  5
E
100
AcDbDictionary
281
1
  3
Normal
350
F
100
AcDbDictionaryWithDefault
340
F
  0
ACDBPLACEHOLDER
  5
F
  0
DICTIONARY
  5
17
100
AcDbDictionary
280
0
281
1
  3
Standard
350
18
  0
MLINESTYLE
  5
18
100
AcDbMlineStyle
  2
STANDARD
 70
0
  3

 62
256
 51
90.0
 52
90.0
 71
2
 49
0.5
 62
256
  6
BYLAYER
 49
-0.5
 62
256
  6
BYLAYER
  0
DICTIONARY
  5
19
100
AcDbDictionary
280
0
281
1
  0
DICTIONARY
  5
1A
100
AcDbDictionary
281
1
  3
Layout1
350
1E
  3
Layout2
350
26
  3
Model
350
22
  0
LAYOUT
  5
1E
100
AcDbPlotSettings
  1

  2
C:\Program Files\AutoCAD 2002\plotters\DWF ePlot (optimized for plotting).pc3
  4

  6

 40
0.0
 41
0.0
 42
0.0
 43
0.0
 44
0.0
 45
0.0
 46
0.0
 47
0.0
 48
0.0
 49
0.0
140
0.0
141
0.0
142
1.0
143
1.0
 70
688
 72
0
 73
0
 74
5
  7

 75
16
147
1.0
148
0.0
149
0.0
100
AcDbLayout
  1
Layout1
 70
1
 71
1
 10
0.0
 20
0.0
 11
420.0
 21
297.0
 12
0.0
 22
0.0
 32
0.0
 14
100000000000000000000.0
 24
100000000000000000000.0
 34
100000000000000000000.0
 15
-100000000000000000000.0
 25
-100000000000000000000.0
 35
-100000000000000000000.0
146
0.0
 13
0.0
 23
0.0
 33
0.0
 16
1.0
 26
0.0
 36
0.0
 17
0.0
 27
1.0
 37
0.0
 76
0
330
1B
  0
LAYOUT
  5
22
100
AcDbPlotSettings
  1

  2
C:\Program Files\AutoCAD 2002\plotters\DWF ePlot (optimized for plotting).pc3
  4

  6

 40
0.0
 41
0.0
 42
0.0
 43
0.0
 44
0.0
 45
0.0
 46
0.0
 47
0.0
 48
0.0
 49
0.0
140
0.0
141
0.0
142
1.0
143
1.0
 70
1712
 72
0
 73
0
 74
0
  7

 75
0
147
1.0
148
0.0
149
0.0
100
AcDbLayout
  1
Model
 70
1
 71
0
 10
0.0
 20
0.0
 11
12.0
 21
9.0
 12
0.0
 22
0.0
 32
0.0
 14
0.0
 24
0.0
 34
0.0
 15
0.0
 25
0.0
 35
0.0
146
0.0
 13
0.0
 23
0.0
 33
0.0
 16
1.0
 26
0.0
 36
0.0
 17
0.0
 27
1.0
 37
0.0
 76
0
330
1F
  0
LAYOUT
  5
26
100
AcDbPlotSettings
  1

  2
C:\Program Files\AutoCAD 2002\plotters\DWF ePlot (optimized for plotting).pc3
  4

  6

 40
0.0
 41
0.0
 42
0.0
 43
0.0
 44
0.0
 45
0.0
 46
0.0
 47
0.0
 48
0.0
 49
0.0
140
0.0
141
0.0
142
1.0
143
1.0
 70
688
 72
0
 73
0
 74
5
  7

 75
16
147
1.0
148
0.0
149
0.0
100
AcDbLayout
  1
Layout2
 70
1
 71
2
 10
0.0
 20
0.0
 11
12.0
 21
9.0
 12
0.0
 22
0.0
 32
0.0
 14
0.0
 24
0.0
 34
0.0
 15
0.0
 25
0.0
 35
0.0
146
0.0
 13
0.0
 23
0.0
 33
0.0
 16
1.0
 26
0.0
 36
0.0
 17
0.0
 27
1.0
 37
0.0
 76
0
330
23
  0
DICTIONARY
  5
10B
100
AcDbDictionary
281
1
  3
DIMASSOC
350
10D
  3
HIDETEXT
350
10C
  0
DICTIONARYVAR
  5
10C
100
DictionaryVariables
280
0
  1
2
  0
DICTIONARYVAR
  5
10D
100
DictionaryVariables
280
0
  1
1
  0
ENDSEC
  0
EOF
