  0
SECTION
  2
HEADER
  9
$ACADVER
  1
AC1024
  9
$ACADMAINTVER
 70
     6
  9
$DWGCODEPAGE
  3
ASCII
  9
$INSBASE
 10
0.0
 20
0.0
 30
0.0
  9
$EXTMIN
 10
1.000000000000000E+20
 20
1.000000000000000E+20
 30
1.000000000000000E+20
  9
$EXTMAX
 10
-1.000000000000000E+20
 20
-1.000000000000000E+20
 30
-1.000000000000000E+20
  9
$LIMMIN
 10
0.0
 20
0.0
  9
$LIMMAX
 10
12.0
 20
9.0
  9
$ORTHOMODE
 70
     0
  9
$REGENMODE
 70
     1
  9
$FILLMODE
 70
     1
  9
$QTEXTMODE
 70
     0
  9
$MIRRTEXT
 70
     1
  9
$LTSCALE
 40
1.0
  9
$ATTMODE
 70
     1
  9
$TEXTSIZE
 40
0.2
  9
$TRACEWID
 40
0.05
  9
$TEXTSTYLE
  7
Standard
  9
$CLAYER
  8
0
  9
$CELTYPE
  6
ByLayer
  9
$CECOLOR
 62
   256
  9
$CELTSCALE
 40
1.0
  9
$DISPSILH
 70
     0
  9
$DIMSCALE
 40
1.0
  9
$DIMASZ
 40
2.5
  9
$DIMEXO
 40
0.625
  9
$DIMDLI
 40
0.38
  9
$DIMRND
 40
0.0
  9
$DIMDLE
 40
0.0
  9
$DIMEXE
 40
1.25
  9
$DIMTP
 40
0.0
  9
$DIMTM
 40
0.0
  9
$DIMTXT
 40
2.5
  9
$DIMCEN
 40
0.09
  9
$DIMTSZ
 40
0.0
  9
$DIMTOL
 70
     0
  9
$DIMLIM
 70
     0
  9
$DIMTIH
 70
     1
  9
$DIMTOH
 70
     1
  9
$DIMSE1
 70
     0
  9
$DIMSE2
 70
     0
  9
$DIMTAD
 70
     0
  9
$DIMZIN
 70
     8
  9
$DIMBLK
  1

  9
$DIMASO
 70
     1
  9
$DIMSHO
 70
     1
  9
$DIMPOST
  1

  9
$DIMAPOST
  1

  9
$DIMALT
 70
     0
  9
$DIMALTD
 70
     2
  9
$DIMALTF
 40
25.4
  9
$DIMLFAC
 40
1.0
  9
$DIMTOFL
 70
     0
  9
$DIMTVP
 40
0.0
  9
$DIMTIX
 70
     0
  9
$DIMSOXD
 70
     0
  9
$DIMSAH
 70
     0
  9
$DIMBLK1
  1

  9
$DIMBLK2
  1

  9
$DIMSTYLE
  2
Standard
  9
$DIMCLRD
 70
     0
  9
$DIMCLRE
 70
     0
  9
$DIMCLRT
 70
     0
  9
$DIMTFAC
 40
1.0
  9
$DIMGAP
 40
0.625
  9
$DIMJUST
 70
     0
  9
$DIMSD1
 70
     0
  9
$DIMSD2
 70
     0
  9
$DIMTOLJ
 70
     1
  9
$DIMTZIN
 70
     0
  9
$DIMALTZ
 70
     0
  9
$DIMALTTZ
 70
     0
  9
$DIMUPT
 70
     0
  9
$DIMDEC
 70
     4
  9
$DIMTDEC
 70
     4
  9
$DIMALTU
 70
     2
  9
$DIMALTTD
 70
     2
  9
$DIMTXSTY
  7
Standard
  9
$DIMAUNIT
 70
     0
  9
$DIMADEC
 70
     0
  9
$DIMALTRND
 40
0.0
  9
$DIMAZIN
 70
     2
  9
$DIMDSEP
 70
    46
  9
$DIMATFIT
 70
     3
  9
$DIMFRAC
 70
     0
  9
$DIMLDRBLK
  1

  9
$DIMLUNIT
 70
     2
  9
$DIMLWD
 70
    -2
  9
$DIMLWE
 70
    -2
  9
$DIMTMOVE
 70
     0
  9
$DIMFXL
 40
1.0
  9
$DIMFXLON
 70
     0
  9
$DIMJOGANG
 40
0.7853981633974483
  9
$DIMTFILL
 70
     0
  9
$DIMTFILLCLR
 70
     0
  9
$DIMARCSYM
 70
     0
  9
$DIMLTYPE
  6

  9
$DIMLTEX1
  6

  9
$DIMLTEX2
  6

  9
$DIMTXTDIRECTION
 70
     0
  9
$LUNITS
 70
     2
  9
$LUPREC
 70
     4
  9
$SKETCHINC
 40
0.1
  9
$FILLETRAD
 40
0.5
  9
$AUNITS
 70
     0
  9
$AUPREC
 70
     0
  9
$MENU
  1
.
  9
$ELEVATION
 40
0.0
  9
$PELEVATION
 40
0.0
  9
$THICKNESS
 40
0.0
  9
$LIMCHECK
 70
     0
  9
$CHAMFERA
 40
0.5
  9
$CHAMFERB
 40
0.5
  9
$CHAMFERC
 40
1.0
  9
$CHAMFERD
 40
0.0
  9
$SKPOLY
 70
     0
  9
$TDCREATE
 40
2455860.665186909
  9
$TDUCREATE
 40
2455860.831853576
  9
$TDUPDATE
 40
2455860.665186909
  9
$TDUUPDATE
 40
2455860.831853576
  9
$TDINDWG
 40
0.0000000116
  9
$TDUSRTIMER
 40
0.0000000116
  9
$USRTIMER
 70
     1
  9
$ANGBASE
 50
0.0
  9
$ANGDIR
 70
     0
  9
$PDMODE
 70
     0
  9
$PDSIZE
 40
0.0
  9
$PLINEWID
 40
0.0
  9
$SPLFRAME
 70
     0
  9
$SPLINETYPE
 70
     6
  9
$SPLINESEGS
 70
     8
  9
$HANDSEED
  5
EC
  9
$SURFTAB1
 70
     6
  9
$SURFTAB2
 70
     6
  9
$SURFTYPE
 70
     6
  9
$SURFU
 70
     6
  9
$SURFV
 70
     6
  9
$UCSBASE
  2

  9
$UCSNAME
  2

  9
$UCSORG
 10
0.0
 20
0.0
 30
0.0
  9
$UCSXDIR
 10
1.0
 20
0.0
 30
0.0
  9
$UCSYDIR
 10
0.0
 20
1.0
 30
0.0
  9
$UCSORTHOREF
  2

  9
$UCSORTHOVIEW
 70
     0
  9
$UCSORGTOP
 10
0.0
 20
0.0
 30
0.0
  9
$UCSORGBOTTOM
 10
0.0
 20
0.0
 30
0.0
  9
$UCSORGLEFT
 10
0.0
 20
0.0
 30
0.0
  9
$UCSORGRIGHT
 10
0.0
 20
0.0
 30
0.0
  9
$UCSORGFRONT
 10
0.0
 20
0.0
 30
0.0
  9
$UCSORGBACK
 10
0.0
 20
0.0
 30
0.0
  9
$PUCSBASE
  2

  9
$PUCSNAME
  2

  9
$PUCSORG
 10
0.0
 20
0.0
 30
0.0
  9
$PUCSXDIR
 10
1.0
 20
0.0
 30
0.0
  9
$PUCSYDIR
 10
0.0
 20
1.0
 30
0.0
  9
$PUCSORTHOREF
  2

  9
$PUCSORTHOVIEW
 70
     0
  9
$PUCSORGTOP
 10
0.0
 20
0.0
 30
0.0
  9
$PUCSORGBOTTOM
 10
0.0
 20
0.0
 30
0.0
  9
$PUCSORGLEFT
 10
0.0
 20
0.0
 30
0.0
  9
$PUCSORGRIGHT
 10
0.0
 20
0.0
 30
0.0
  9
$PUCSORGFRONT
 10
0.0
 20
0.0
 30
0.0
  9
$PUCSORGBACK
 10
0.0
 20
0.0
 30
0.0
  9
$USERI1
 70
     0
  9
$USERI2
 70
     0
  9
$USERI3
 70
     0
  9
$USERI4
 70
     0
  9
$USERI5
 70
     0
  9
$USERR1
 40
0.0
  9
$USERR2
 40
0.0
  9
$USERR3
 40
0.0
  9
$USERR4
 40
0.0
  9
$USERR5
 40
0.0
  9
$WORLDVIEW
 70
     1
  9
$SHADEDGE
 70
     3
  9
$SHADEDIF
 70
    70
  9
$TILEMODE
 70
     1
  9
$MAXACTVP
 70
    64
  9
$PINSBASE
 10
0.0
 20
0.0
 30
0.0
  9
$PLIMCHECK
 70
     0
  9
$PEXTMIN
 10
1.000000000000000E+20
 20
1.000000000000000E+20
 30
1.000000000000000E+20
  9
$PEXTMAX
 10
-1.000000000000000E+20
 20
-1.000000000000000E+20
 30
-1.000000000000000E+20
  9
$PLIMMIN
 10
0.0
 20
0.0
  9
$PLIMMAX
 10
12.0
 20
9.0
  9
$UNITMODE
 70
     0
  9
$VISRETAIN
 70
     1
  9
$PLINEGEN
 70
     0
  9
$PSLTSCALE
 70
     1
  9
$TREEDEPTH
 70
  3020
  9
$CMLSTYLE
  2
Standard
  9
$CMLJUST
 70
     0
  9
$CMLSCALE
 40
1.0
  9
$PROXYGRAPHICS
 70
     1
  9
$MEASUREMENT
 70
     1
  9
$CELWEIGHT
370
    -1
  9
$ENDCAPS
280
     0
  9
$JOINSTYLE
280
     0
  9
$LWDISPLAY
290
     0
  9
$INSUNITS
 70
     4
  9
$HYPERLINKBASE
  1

  9
$STYLESHEET
  1

  9
$XEDIT
290
     1
  9
$CEPSNTYPE
380
     0
  9
$PSTYLEMODE
290
     1
  9
$FINGERPRINTGUID
  2
{4E38B5E2-1C0D-4CD1-B24E-1E3C832B9F10}
  9
$VERSIONGUID
  2
{FAEB1C32-E019-11D5-929B-00C0DF256EC4}
  9
$EXTNAMES
290
     1
  9
$PSVPSCALE
 40
0.0
  9
$OLESTARTUP
290
     0
  9
$SORTENTS
280
   127
  9
$INDEXCTL
280
     0
  9
$HIDETEXT
280
     1
  9
$XCLIPFRAME
280
     2
  9
$HALOGAP
280
     0
  9
$OBSCOLOR
 70
   257
  9
$OBSLTYPE
280
     0
  9
$INTERSECTIONDISPLAY
280
     0
  9
$INTERSECTIONCOLOR
 70
   257
  9
$DIMASSOC
280
     2
  9
$PROJECTNAME
  1

  9
$CAMERADISPLAY
290
     0
  9
$LENSLENGTH
 40
50.0
  9
$CAMERAHEIGHT
 40
0.0
  9
$STEPSPERSEC
 40
2.0
  9
$STEPSIZE
 40
6.0
  9
$3DDWFPREC
 40
2.0
  9
$PSOLWIDTH
 40
0.25
  9
$PSOLHEIGHT
 40
4.0
  9
$LOFTANG1
 40
1.570796326794897
  9
$LOFTANG2
 40
1.570796326794897
  9
$LOFTMAG1
 40
0.0
  9
$LOFTMAG2
 40
0.0
  9
$LOFTPARAM
 70
     7
  9
$LOFTNORMALS
280
     1
  9
$LATITUDE
 40
37.795
  9
$LONGITUDE
 40
-122.394
  9
$NORTHDIRECTION
 40
0.0
  9
$TIMEZONE
 70
 -8000
  9
$LIGHTGLYPHDISPLAY
280
     1
  9
$TILEMODELIGHTSYNCH
280
     1
  9
$SOLIDHIST
280
     1
  9
$SHOWHIST
280
     1
  9
$DWFFRAME
280
     2
  9
$DGNFRAME
280
     2
  9
$REALWORLDSCALE
290
     1
  9
$INTERFERECOLOR
 62
   256
  9
$CSHADOW
280
     0
  9
$SHADOWPLANELOCATION
 40
0.0
  0
ENDSEC
  0
SECTION
  2
CLASSES
  0
CLASS
  1
ACDBDICTIONARYWDFLT
  2
AcDbDictionaryWithDefault
  3
ObjectDBX Classes
 90
        0
 91
        4
280
     0
281
     0
  0
CLASS
  1
VISUALSTYLE
  2
AcDbVisualStyle
  3
ObjectDBX Classes
 90
     4095
 91
        4
280
     0
281
     0
  0
CLASS
  1
MATERIAL
  2
AcDbMaterial
  3
ObjectDBX Classes
 90
     1153
 91
        4
280
     0
281
     0
  0
ENDSEC
  0
SECTION
  2
TABLES
  0
TABLE
  2
VPORT
  5
9D
330
0
100
AcDbSymbolTable
 70
     1
  0
VPORT
  5
BD
330
9D
100
AcDbSymbolTableRecord
100
AcDbViewportTableRecord
  2
*Active
 70
     0
 10
0.0
 20
0.0
 11
1.0
 21
1.0
 12
10.42990654205607
 22
4.5
 13
0.0
 23
0.0
 14
0.5
 24
0.5
 15
0.5
 25
0.5
 16
0.0
 26
0.0
 36
1.0
 17
0.0
 27
0.0
 37
0.0
 40
9.0
 41
1.972972972850329
 42
50.0
 43
0.0
 44
0.0
 50
0.0
 51
0.0
 71
     0
 72
   100
 73
     1
 74
     3
 75
     0
 76
     0
 77
     0
 78
     0
281
     0
 65
     1
110
0.0
120
0.0
130
0.0
111
1.0
121
0.0
131
0.0
112
0.0
122
1.0
132
0.0
 79
     0
146
0.0
 60
     3
 61
     5
292
     1
282
     1
141
0.0
142
0.0
 63
   250
  0
ENDTAB
  0
TABLE
  2
LTYPE
  5
9A
330
0
100
AcDbSymbolTable
 70
    19
  0
LTYPE
  5
A8
330
9A
100
AcDbSymbolTableRecord
100
AcDbLinetypeTableRecord
  2
ByBlock
 70
     0
  3

 72
    65
 73
     0
 40
0.0
  0
LTYPE
  5
A9
330
9A
100
AcDbSymbolTableRecord
100
AcDbLinetypeTableRecord
  2
ByLayer
 70
     0
  3

 72
    65
 73
     0
 40
0.0
  0
LTYPE
  5
AA
330
9A
100
AcDbSymbolTableRecord
100
AcDbLinetypeTableRecord
  2
Continuous
 70
     0
  3
Solid line
 72
    65
 73
     0
 40
0.0
  0
LTYPE
  5
D8
330
9A
100
AcDbSymbolTableRecord
100
AcDbLinetypeTableRecord
  2
BORDER
 70
     0
  3

 72
    65
 73
     6
 40
42.00000000000001
 49
12.0
 74
     0
 49
-6.0
 74
     0
 49
12.0
 74
     0
 49
-5.95
 74
     0
 49
0.1
 74
     0
 49
-5.95
 74
     0
  0
LTYPE
  5
D9
330
9A
100
AcDbSymbolTableRecord
100
AcDbLinetypeTableRecord
  2
BORDER2
 70
     0
  3

 72
    65
 73
     6
 40
21.0
 49
6.0
 74
     0
 49
-3.0
 74
     0
 49
6.0
 74
     0
 49
-2.95
 74
     0
 49
0.1
 74
     0
 49
-2.95
 74
     0
  0
LTYPE
  5
DA
330
9A
100
AcDbSymbolTableRecord
100
AcDbLinetypeTableRecord
  2
BORDERX2
 70
     0
  3

 72
    65
 73
     6
 40
84.0
 49
24.0
 74
     0
 49
-12.0
 74
     0
 49
24.0
 74
     0
 49
-11.95
 74
     0
 49
0.1
 74
     0
 49
-11.95
 74
     0
  0
LTYPE
  5
DB
330
9A
100
AcDbSymbolTableRecord
100
AcDbLinetypeTableRecord
  2
CENTER
 70
     0
  3

 72
    65
 73
     4
 40
50.0
 49
32.0
 74
     0
 49
-6.0
 74
     0
 49
6.0
 74
     0
 49
-6.0
 74
     0
  0
LTYPE
  5
DC
330
9A
100
AcDbSymbolTableRecord
100
AcDbLinetypeTableRecord
  2
CENTER2
 70
     0
  3

 72
    65
 73
     4
 40
25.0
 49
16.0
 74
     0
 49
-3.0
 74
     0
 49
3.0
 74
     0
 49
-3.0
 74
     0
  0
LTYPE
  5
DD
330
9A
100
AcDbSymbolTableRecord
100
AcDbLinetypeTableRecord
  2
CENTERX2
 70
     0
  3

 72
    65
 73
     4
 40
100.0
 49
64.0
 74
     0
 49
-12.0
 74
     0
 49
12.0
 74
     0
 49
-12.0
 74
     0
  0
LTYPE
  5
DE
330
9A
100
AcDbSymbolTableRecord
100
AcDbLinetypeTableRecord
  2
DASHDOT
 70
     0
  3

 72
    65
 73
     4
 40
24.0
 49
12.0
 74
     0
 49
-5.95
 74
     0
 49
0.1
 74
     0
 49
-5.95
 74
     0
  0
LTYPE
  5
DF
330
9A
100
AcDbSymbolTableRecord
100
AcDbLinetypeTableRecord
  2
DASHDOT2
 70
     0
  3

 72
    65
 73
     4
 40
12.0
 49
6.0
 74
     0
 49
-2.95
 74
     0
 49
0.1
 74
     0
 49
-2.95
 74
     0
  0
LTYPE
  5
E0
330
9A
100
AcDbSymbolTableRecord
100
AcDbLinetypeTableRecord
  2
DASHDOTX2
 70
     0
  3

 72
    65
 73
     4
 40
48.0
 49
24.0
 74
     0
 49
-11.95
 74
     0
 49
0.1
 74
     0
 49
-11.95
 74
     0
  0
LTYPE
  5
E1
330
9A
100
AcDbSymbolTableRecord
100
AcDbLinetypeTableRecord
  2
DASHED
 70
     0
  3

 72
    65
 73
     2
 40
18.0
 49
12.0
 74
     0
 49
-6.0
 74
     0
  0
LTYPE
  5
E2
330
9A
100
AcDbSymbolTableRecord
100
AcDbLinetypeTableRecord
  2
DASHED2
 70
     0
  3

 72
    65
 73
     2
 40
9.0
 49
6.0
 74
     0
 49
-3.0
 74
     0
  0
LTYPE
  5
E3
330
9A
100
AcDbSymbolTableRecord
100
AcDbLinetypeTableRecord
  2
DASHEDX2
 70
     0
  3

 72
    65
 73
     2
 40
36.0
 49
24.0
 74
     0
 49
-12.0
 74
     0
  0
LTYPE
  5
E4
330
9A
100
AcDbSymbolTableRecord
100
AcDbLinetypeTableRecord
  2
DIVIDE
 70
     0
  3

 72
    65
 73
     6
 40
29.99999999999999
 49
12.0
 74
     0
 49
-5.9
 74
     0
 49
0.15
 74
     0
 49
-5.9
 74
     0
 49
0.15
 74
     0
 49
-5.9
 74
     0
  0
LTYPE
  5
E5
330
9A
100
AcDbSymbolTableRecord
100
AcDbLinetypeTableRecord
  2
DIVIDE2
 70
     0
  3

 72
    65
 73
     6
 40
15.0
 49
6.0
 74
     0
 49
-2.9
 74
     0
 49
0.15
 74
     0
 49
-2.9
 74
     0
 49
0.15
 74
     0
 49
-2.9
 74
     0
  0
LTYPE
  5
E6
330
9A
100
AcDbSymbolTableRecord
100
AcDbLinetypeTableRecord
  2
DIVIDEX2
 70
     0
  3

 72
    65
 73
     6
 40
59.99999999999999
 49
24.0
 74
     0
 49
-11.9
 74
     0
 49
0.15
 74
     0
 49
-11.9
 74
     0
 49
0.15
 74
     0
 49
-11.9
 74
     0
  0
LTYPE
  5
E7
330
9A
100
AcDbSymbolTableRecord
100
AcDbLinetypeTableRecord
  2
DOT
 70
     0
  3

 72
    65
 73
     2
 40
6.3
 49
0.1
 74
     0
 49
-6.2
 74
     0
  0
LTYPE
  5
E8
330
9A
100
AcDbSymbolTableRecord
100
AcDbLinetypeTableRecord
  2
DOT2
 70
     0
  3

 72
    65
 73
     2
 40
3.2
 49
0.1
 74
     0
 49
-3.1
 74
     0
  0
LTYPE
  5
E9
330
9A
100
AcDbSymbolTableRecord
100
AcDbLinetypeTableRecord
  2
DOTX2
 70
     0
  3

 72
    65
 73
     2
 40
12.5
 49
0.1
 74
     0
 49
-12.4
 74
     0
  0
ENDTAB
  0
TABLE
  2
LAYER
  5
97
330
0
100
AcDbSymbolTable
 70
     1
  0
LAYER
  5
A5
330
97
100
AcDbSymbolTableRecord
100
AcDbLayerTableRecord
  2
0
 70
     0
 62
     7
420
 16777215
  6
Continuous
370
    25
390
A4
347
D2
  0
ENDTAB
  0
TABLE
  2
STYLE
  5
98
330
0
100
AcDbSymbolTable
 70
     1
  0
STYLE
  5
A6
330
98
100
AcDbSymbolTableRecord
100
AcDbTextStyleTableRecord
  2
Standard
 70
     0
 40
0.0
 41
1.0
 50
0.0
 71
     0
 42
0.2
  3
txt
  4

  0
ENDTAB
  0
TABLE
  2
VIEW
  5
9B
330
0
100
AcDbSymbolTable
 70
     0
  0
ENDTAB
  0
TABLE
  2
UCS
  5
9C
330
0
100
AcDbSymbolTable
 70
     0
  0
ENDTAB
  0
TABLE
  2
APPID
  5
9E
330
0
100
AcDbSymbolTable
 70
     2
  0
APPID
  5
A7
330
9E
100
AcDbSymbolTableRecord
100
AcDbRegAppTableRecord
  2
ACAD
 70
     0
  0
APPID
  5
D3
330
9E
100
AcDbSymbolTableRecord
100
AcDbRegAppTableRecord
  2
QCAD
 70
     0
  0
ENDTAB
  0
TABLE
  2
DIMSTYLE
  5
9F
330
0
100
AcDbSymbolTable
 70
     2
100
AcDbDimStyleTable
  0
DIMSTYLE
105
BB
330
9F
100
AcDbSymbolTableRecord
100
AcDbDimStyleTableRecord
  2
Standard
 70
     0
178
     0
340
A6
  0
DIMSTYLE
105
D7
330
9F
100
AcDbSymbolTableRecord
100
AcDbDimStyleTableRecord
  2
QCADDimStyle
 70
     0
 41
2.5
 42
0.625
 44
1.25
 73
     0
 77
     1
140
2.5
147
0.625
178
     0
340
A6
  0
ENDTAB
  0
TABLE
  2
BLOCK_RECORD
  5
96
330
0
100
AcDbSymbolTable
 70
     1
  0
BLOCK_RECORD
  5
B3
330
96
100
AcDbSymbolTableRecord
100
AcDbBlockTableRecord
  2
*Model_Space
340
B6
 70
     0
280
     1
281
     0
  0
BLOCK_RECORD
  5
AF
330
96
100
AcDbSymbolTableRecord
100
AcDbBlockTableRecord
  2
*Paper_Space
340
B2
 70
     0
280
     1
281
     0
  0
BLOCK_RECORD
  5
B7
330
96
100
AcDbSymbolTableRecord
100
AcDbBlockTableRecord
  2
*Paper_Space0
340
BA
 70
     0
280
     1
281
     0
  0
ENDTAB
  0
ENDSEC
  0
SECTION
  2
BLOCKS
  0
BLOCK
  5
B4
330
B3
100
AcDbEntity
  8
0
100
AcDbBlockBegin
  2
*Model_Space
 70
     0
 10
0.0
 20
0.0
 30
0.0
  3
*Model_Space
  1

  0
ENDBLK
  5
B5
330
B3
100
AcDbEntity
  8
0
100
AcDbBlockEnd
  0
BLOCK
  5
B0
330
AF
100
AcDbEntity
 67
     1
  8
0
100
AcDbBlockBegin
  2
*Paper_Space
 70
     0
 10
0.0
 20
0.0
 30
0.0
  3
*Paper_Space
  1

  0
ENDBLK
  5
B1
330
AF
100
AcDbEntity
 67
     1
  8
0
100
AcDbBlockEnd
  0
BLOCK
  5
B8
330
B7
100
AcDbEntity
  8
0
100
AcDbBlockBegin
  2
*Paper_Space0
 70
     0
 10
0.0
 20
0.0
 30
0.0
  3
*Paper_Space0
  1

  0
ENDBLK
  5
B9
330
B7
100
AcDbEntity
  8
0
100
AcDbBlockEnd
  0
ENDSEC
  0
SECTION
  2
ENTITIES
  0
SPLINE
  5
17
330
B3
100
AcDbEntity
  8
0
 62
     7
420
 16777215
100
AcDbSpline
210
0.0
220
0.0
230
1.0
 70
     8
 71
     3
 72
     8
 73
     4
 74
     0
 42
0.000000001
 43
0.001
 12
1.0
 22
0.0
 32
0.0
 13
1.0
 23
0.0
 33
0.0
 40
0.0
 40
0.0
 40
0.0
 40
0.0
 40
1.0
 40
1.0
 40
1.0
 40
1.0
 10
32.52961956613763
 20
74.20262312499995
 30
0.0
 10
33.24081956613782
 20
73.93945062500006
 30
0.0
 10
33.60559081613769
 20
73.14852312500011
 30
0.0
 10
33.34241956613778
 20
72.43626437500006
 30
0.0
  0
LWPOLYLINE
  5
18
330
B3
100
AcDbEntity
  8
0
 62
     7
420
 16777215
100
AcDbPolyline
 90
        2
 70
     0
 43
0.0
 10
36.40029706613768
 20
53.93377562499995
 10
36.40029706613768
 20
53.93377562499995
  0
SPLINE
  5
19
330
B3
100
AcDbEntity
  8
0
 62
     7
420
 16777215
100
AcDbSpline
210
0.0
220
0.0
230
1.0
 70
     8
 71
     3
 72
     8
 73
     4
 74
     0
 42
0.000000001
 43
0.001
 12
1.0
 22
0.0
 32
0.0
 13
1.0
 23
0.0
 33
0.0
 40
0.0
 40
0.0
 40
0.0
 40
0.0
 40
1.0
 40
1.0
 40
1.0
 40
1.0
 10
32.38674456613762
 20
48.59871687500004
 30
0.0
 10
32.10910831613774
 20
47.84871187499994
 30
0.0
 10
31.2754945661377
 20
47.46488937499998
 30
0.0
 10
30.52443081613774
 20
47.74217312499991
 30
0.0
  0
SPLINE
  5
1A
330
B3
100
AcDbEntity
  8
0
 62
     7
420
 16777215
100
AcDbSpline
210
0.0
220
0.0
230
1.0
 70
     8
 71
     3
 72
     8
 73
     4
 74
     0
 42
0.000000001
 43
0.001
 12
1.0
 22
0.0
 32
0.0
 13
1.0
 23
0.0
 33
0.0
 40
0.0
 40
0.0
 40
0.0
 40
0.0
 40
1.0
 40
1.0
 40
1.0
 40
1.0
 10
30.52443081613774
 20
47.74217312499991
 30
0.0
 10
29.77336581613781
 20
48.01980812500005
 30
0.0
 10
29.38954456613783
 20
48.85412812499999
 30
0.0
 10
29.66718081613772
 20
49.60519187499995
 30
0.0
  0
SPLINE
  5
1B
330
B3
100
AcDbEntity
  8
0
 62
     7
420
 16777215
100
AcDbSpline
210
0.0
220
0.0
230
1.0
 70
     8
 71
     3
 72
     8
 73
     4
 74
     0
 42
0.000000001
 43
0.001
 12
1.0
 22
0.0
 32
0.0
 13
1.0
 23
0.0
 33
0.0
 40
0.0
 40
0.0
 40
0.0
 40
0.0
 40
1.0
 40
1.0
 40
1.0
 40
1.0
 10
29.66718081613772
 20
49.60519187499995
 30
0.0
 10
29.94552206613776
 20
50.35590312499994
 30
0.0
 10
30.7791358161378
 20
50.739019375
 30
0.0
 10
31.52949456613783
 20
50.46173687500004
 30
0.0
  0
SPLINE
  5
1C
330
B3
100
AcDbEntity
  8
0
 62
     7
420
 16777215
100
AcDbSpline
210
0.0
220
0.0
230
1.0
 70
     8
 71
     3
 72
     8
 73
     4
 74
     0
 42
0.000000001
 43
0.001
 12
1.0
 22
0.0
 32
0.0
 13
1.0
 23
0.0
 33
0.0
 40
0.0
 40
0.0
 40
0.0
 40
0.0
 40
1.0
 40
1.0
 40
1.0
 40
1.0
 10
31.52949456613783
 20
50.46173687500004
 30
0.0
 10
32.27985206613766
 20
50.18445312499989
 30
0.0
 10
32.66402706613781
 20
49.35013312499996
 30
0.0
 10
32.38674456613762
 20
48.59871687500004
 30
0.0
  0
LWPOLYLINE
  5
1D
330
B3
100
AcDbEntity
  8
0
 62
     7
420
 16777215
100
AcDbPolyline
 90
        2
 70
     0
 43
0.0
 10
33.34241956613778
 20
72.43626437500006
 10
33.34241956613778
 20
72.43626437500006
  0
LWPOLYLINE
  5
1E
330
B3
100
AcDbEntity
  8
0
 62
     7
420
 16777215
100
AcDbPolyline
 90
        2
 70
     0
 43
0.0
 10
32.38674456613762
 20
48.59871687500004
 10
32.38674456613762
 20
48.59871687500004
  0
SPLINE
  5
1F
330
B3
100
AcDbEntity
  8
0
 62
     7
420
 16777215
100
AcDbSpline
210
0.0
220
0.0
230
1.0
 70
     8
 71
     3
 72
     8
 73
     4
 74
     0
 42
0.000000001
 43
0.001
 12
1.0
 22
0.0
 32
0.0
 13
1.0
 23
0.0
 33
0.0
 40
0.0
 40
0.0
 40
0.0
 40
0.0
 40
1.0
 40
1.0
 40
1.0
 40
1.0
 10
14.25643581613781
 20
11.9348756249999
 30
0.0
 10
14.25714081613773
 20
12.73568062499999
 30
0.0
 10
14.90695831613766
 20
13.38408687500009
 30
0.0
 10
15.70741081613778
 20
13.38338062499997
 30
0.0
  0
SPLINE
  5
20
330
B3
100
AcDbEntity
  8
0
 62
     7
420
 16777215
100
AcDbSpline
210
0.0
220
0.0
230
1.0
 70
     8
 71
     3
 72
     8
 73
     4
 74
     0
 42
0.000000001
 43
0.001
 12
1.0
 22
0.0
 32
0.0
 13
1.0
 23
0.0
 33
0.0
 40
0.0
 40
0.0
 40
0.0
 40
0.0
 40
1.0
 40
1.0
 40
1.0
 40
1.0
 10
15.70741081613778
 20
13.38338062499997
 30
0.0
 10
16.50786331613767
 20
13.38267562500005
 30
0.0
 10
17.15626956613778
 20
12.73285812499989
 30
0.0
 10
17.15556331613766
 20
11.932405625
 30
0.0
  0
SPLINE
  5
21
330
B3
100
AcDbEntity
  8
0
 62
     7
420
 16777215
100
AcDbSpline
210
0.0
220
0.0
230
1.0
 70
     8
 71
     3
 72
     8
 73
     4
 74
     0
 42
0.000000001
 43
0.001
 12
1.0
 22
0.0
 32
0.0
 13
1.0
 23
0.0
 33
0.0
 40
0.0
 40
0.0
 40
0.0
 40
0.0
 40
1.0
 40
1.0
 40
1.0
 40
1.0
 10
17.15556331613766
 20
11.932405625
 30
0.0
 10
17.15485831613773
 20
11.13195312500011
 30
0.0
 10
16.50504081613781
 20
10.48354812499997
 30
0.0
 10
15.70458831613769
 20
10.4842531249999
 30
0.0
  0
SPLINE
  5
22
330
B3
100
AcDbEntity
  8
0
 62
     7
420
 16777215
100
AcDbSpline
210
0.0
220
0.0
230
1.0
 70
     8
 71
     3
 72
     8
 73
     4
 74
     0
 42
0.000000001
 43
0.001
 12
1.0
 22
0.0
 32
0.0
 13
1.0
 23
0.0
 33
0.0
 40
0.0
 40
0.0
 40
0.0
 40
0.0
 40
1.0
 40
1.0
 40
1.0
 40
1.0
 10
15.70458831613769
 20
10.4842531249999
 30
0.0
 10
14.9041358161378
 20
10.48495812500005
 30
0.0
 10
14.25537706613773
 20
11.13442312500001
 30
0.0
 10
14.25643581613781
 20
11.9348756249999
 30
0.0
  0
SPLINE
  5
23
330
B3
100
AcDbEntity
  8
0
 62
     7
420
 16777215
100
AcDbSpline
210
0.0
220
0.0
230
1.0
 70
     8
 71
     3
 72
     8
 73
     4
 74
     0
 42
0.000000001
 43
0.001
 12
1.0
 22
0.0
 32
0.0
 13
1.0
 23
0.0
 33
0.0
 40
0.0
 40
0.0
 40
0.0
 40
0.0
 40
1.0
 40
1.0
 40
1.0
 40
1.0
 10
29.67846956613766
 20
14.91972812499989
 30
0.0
 10
29.67917456613782
 20
15.72053312499997
 30
0.0
 10
30.32934456613771
 20
16.36893937500008
 30
0.0
 10
31.12944456613764
 20
16.36823312499996
 30
0.0
  0
SPLINE
  5
24
330
B3
100
AcDbEntity
  8
0
 62
     7
420
 16777215
100
AcDbSpline
210
0.0
220
0.0
230
1.0
 70
     8
 71
     3
 72
     8
 73
     4
 74
     0
 42
0.000000001
 43
0.001
 12
1.0
 22
0.0
 32
0.0
 13
1.0
 23
0.0
 33
0.0
 40
0.0
 40
0.0
 40
0.0
 40
0.0
 40
1.0
 40
1.0
 40
1.0
 40
1.0
 10
31.12944456613764
 20
16.36823312499996
 30
0.0
 10
31.93060206613768
 20
16.36717562500007
 30
0.0
 10
32.57865581613783
 20
15.71771187500008
 30
0.0
 10
32.5779495661377
 20
14.91725812499999
 30
0.0
  0
SPLINE
  5
25
330
B3
100
AcDbEntity
  8
0
 62
     7
420
 16777215
100
AcDbSpline
210
0.0
220
0.0
230
1.0
 70
     8
 71
     3
 72
     8
 73
     4
 74
     0
 42
0.000000001
 43
0.001
 12
1.0
 22
0.0
 32
0.0
 13
1.0
 23
0.0
 33
0.0
 40
0.0
 40
0.0
 40
0.0
 40
0.0
 40
1.0
 40
1.0
 40
1.0
 40
1.0
 10
32.5779495661377
 20
14.91725812499999
 30
0.0
 10
32.57724456613778
 20
14.11645312499991
 30
0.0
 10
31.92707456613766
 20
13.468048125
 30
0.0
 10
31.12626956613781
 20
13.46875312499992
 30
0.0
  0
SPLINE
  5
26
330
B3
100
AcDbEntity
  8
0
 62
     7
420
 16777215
100
AcDbSpline
210
0.0
220
0.0
230
1.0
 70
     8
 71
     3
 72
     8
 73
     4
 74
     0
 42
0.000000001
 43
0.001
 12
1.0
 22
0.0
 32
0.0
 13
1.0
 23
0.0
 33
0.0
 40
0.0
 40
0.0
 40
0.0
 40
0.0
 40
1.0
 40
1.0
 40
1.0
 40
1.0
 10
31.12626956613781
 20
13.46875312499992
 30
0.0
 10
30.32616956613765
 20
13.469811875
 30
0.0
 10
29.67741081613781
 20
14.119275625
 30
0.0
 10
29.67846956613766
 20
14.91972812499989
 30
0.0
  0
LWPOLYLINE
  5
27
330
B3
100
AcDbEntity
  8
0
 62
     7
420
 16777215
100
AcDbPolyline
 90
        2
 70
     0
 43
0.0
 10
14.25643581613781
 20
11.9348756249999
 10
14.25643581613781
 20
11.9348756249999
  0
SPLINE
  5
28
330
B3
100
AcDbEntity
  8
0
 62
     7
420
 16777215
100
AcDbSpline
210
0.0
220
0.0
230
1.0
 70
     8
 71
     3
 72
     8
 73
     4
 74
     0
 42
0.000000001
 43
0.001
 12
1.0
 22
0.0
 32
0.0
 13
1.0
 23
0.0
 33
0.0
 40
0.0
 40
0.0
 40
0.0
 40
0.0
 40
1.0
 40
1.0
 40
1.0
 40
1.0
 10
29.70316331613776
 20
34.02017562500009
 30
0.0
 10
29.70386956613766
 20
34.82062812499998
 30
0.0
 10
30.35368581613761
 20
35.4690331249999
 30
0.0
 10
31.15378581613777
 20
35.46832812499997
 30
0.0
  0
SPLINE
  5
29
330
B3
100
AcDbEntity
  8
0
 62
     7
420
 16777215
100
AcDbSpline
210
0.0
220
0.0
230
1.0
 70
     8
 71
     3
 72
     8
 73
     4
 74
     0
 42
0.000000001
 43
0.001
 12
1.0
 22
0.0
 32
0.0
 13
1.0
 23
0.0
 33
0.0
 40
0.0
 40
0.0
 40
0.0
 40
0.0
 40
1.0
 40
1.0
 40
1.0
 40
1.0
 10
31.15378581613777
 20
35.46832812499997
 30
0.0
 10
31.95494456613778
 20
35.46762312500005
 30
0.0
 10
32.60299706613773
 20
34.81780562499989
 30
0.0
 10
32.60229081613784
 20
34.017353125
 30
0.0
  0
SPLINE
  5
2A
330
B3
100
AcDbEntity
  8
0
 62
     7
420
 16777215
100
AcDbSpline
210
0.0
220
0.0
230
1.0
 70
     8
 71
     3
 72
     8
 73
     4
 74
     0
 42
0.000000001
 43
0.001
 12
1.0
 22
0.0
 32
0.0
 13
1.0
 23
0.0
 33
0.0
 40
0.0
 40
0.0
 40
0.0
 40
0.0
 40
1.0
 40
1.0
 40
1.0
 40
1.0
 10
32.60229081613784
 20
34.017353125
 30
0.0
 10
32.60158581613769
 20
33.21619437499999
 30
0.0
 10
31.95176956613773
 20
32.56814187500004
 30
0.0
 10
31.1516695661378
 20
32.56884812499993
 30
0.0
  0
SPLINE
  5
2B
330
B3
100
AcDbEntity
  8
0
 62
     7
420
 16777215
100
AcDbSpline
210
0.0
220
0.0
230
1.0
 70
     8
 71
     3
 72
     8
 73
     4
 74
     0
 42
0.000000001
 43
0.001
 12
1.0
 22
0.0
 32
0.0
 13
1.0
 23
0.0
 33
0.0
 40
0.0
 40
0.0
 40
0.0
 40
0.0
 40
1.0
 40
1.0
 40
1.0
 40
1.0
 10
31.1516695661378
 20
32.56884812499993
 30
0.0
 10
30.35086331613775
 20
32.56990562500005
 30
0.0
 10
29.70210581613765
 20
33.21936937500004
 30
0.0
 10
29.70316331613776
 20
34.02017562500009
 30
0.0
  0
LWPOLYLINE
  5
2C
330
B3
100
AcDbEntity
  8
0
 62
     7
420
 16777215
100
AcDbPolyline
 90
        2
 70
     0
 43
0.0
 10
29.67846956613766
 20
14.91972812499989
 10
29.67846956613766
 20
14.91972812499989
  0
SPLINE
  5
2D
330
B3
100
AcDbEntity
  8
0
 62
     7
420
 16777215
100
AcDbSpline
210
0.0
220
0.0
230
1.0
 70
     8
 71
     3
 72
     8
 73
     4
 74
     0
 42
0.000000001
 43
0.001
 12
1.0
 22
0.0
 32
0.0
 13
1.0
 23
0.0
 33
0.0
 40
0.0
 40
0.0
 40
0.0
 40
0.0
 40
1.0
 40
1.0
 40
1.0
 40
1.0
 10
15.28019706613782
 20
36.03383062500006
 30
0.0
 10
15.28090206613774
 20
36.83463687500011
 30
0.0
 10
15.93071956613767
 20
37.48304187500003
 30
0.0
 10
16.73117206613779
 20
37.48198312499994
 30
0.0
  0
SPLINE
  5
2E
330
B3
100
AcDbEntity
  8
0
 62
     7
420
 16777215
100
AcDbSpline
210
0.0
220
0.0
230
1.0
 70
     8
 71
     3
 72
     8
 73
     4
 74
     0
 42
0.000000001
 43
0.001
 12
1.0
 22
0.0
 32
0.0
 13
1.0
 23
0.0
 33
0.0
 40
0.0
 40
0.0
 40
0.0
 40
0.0
 40
1.0
 40
1.0
 40
1.0
 40
1.0
 10
16.73117206613779
 20
37.48198312499994
 30
0.0
 10
17.53197706613764
 20
37.48127812500002
 30
0.0
 10
18.18003081613779
 20
36.83146187500006
 30
0.0
 10
18.17932456613767
 20
36.03100812499997
 30
0.0
  0
SPLINE
  5
2F
330
B3
100
AcDbEntity
  8
0
 62
     7
420
 16777215
100
AcDbSpline
210
0.0
220
0.0
230
1.0
 70
     8
 71
     3
 72
     8
 73
     4
 74
     0
 42
0.000000001
 43
0.001
 12
1.0
 22
0.0
 32
0.0
 13
1.0
 23
0.0
 33
0.0
 40
0.0
 40
0.0
 40
0.0
 40
0.0
 40
1.0
 40
1.0
 40
1.0
 40
1.0
 10
18.17932456613767
 20
36.03100812499997
 30
0.0
 10
18.17861956613774
 20
35.23020312500012
 30
0.0
 10
17.52880206613781
 20
34.58215062499994
 30
0.0
 10
16.72834956613769
 20
34.58285562500009
 30
0.0
  0
SPLINE
  5
30
330
B3
100
AcDbEntity
  8
0
 62
     7
420
 16777215
100
AcDbSpline
210
0.0
220
0.0
230
1.0
 70
     8
 71
     3
 72
     8
 73
     4
 74
     0
 42
0.000000001
 43
0.001
 12
1.0
 22
0.0
 32
0.0
 13
1.0
 23
0.0
 33
0.0
 40
0.0
 40
0.0
 40
0.0
 40
0.0
 40
1.0
 40
1.0
 40
1.0
 40
1.0
 10
16.72834956613769
 20
34.58285562500009
 30
0.0
 10
15.9278970661378
 20
34.58356187499999
 30
0.0
 10
15.27878581613777
 20
35.23337812499994
 30
0.0
 10
15.28019706613782
 20
36.03383062500006
 30
0.0
  0
LWPOLYLINE
  5
31
330
B3
100
AcDbEntity
  8
0
 62
     7
420
 16777215
100
AcDbPolyline
 90
        2
 70
     0
 43
0.0
 10
29.70316331613776
 20
34.02017562500009
 10
29.70316331613776
 20
34.02017562500009
  0
SPLINE
  5
32
330
B3
100
AcDbEntity
  8
0
 62
     7
420
 16777215
100
AcDbSpline
210
0.0
220
0.0
230
1.0
 70
     8
 71
     3
 72
     8
 73
     4
 74
     0
 42
0.000000001
 43
0.001
 12
1.0
 22
0.0
 32
0.0
 13
1.0
 23
0.0
 33
0.0
 40
0.0
 40
0.0
 40
0.0
 40
0.0
 40
1.0
 40
1.0
 40
1.0
 40
1.0
 10
28.08285581613768
 20
0.4583081250000305
 30
0.0
 10
28.08356081613783
 20
1.258761874999891
 30
0.0
 10
28.73337706613779
 20
1.906814375000067
 30
0.0
 10
29.53383081613765
 20
1.906108124999946
 30
0.0
  0
SPLINE
  5
33
330
B3
100
AcDbEntity
  8
0
 62
     7
420
 16777215
100
AcDbSpline
210
0.0
220
0.0
230
1.0
 70
     8
 71
     3
 72
     8
 73
     4
 74
     0
 42
0.000000001
 43
0.001
 12
1.0
 22
0.0
 32
0.0
 13
1.0
 23
0.0
 33
0.0
 40
0.0
 40
0.0
 40
0.0
 40
0.0
 40
1.0
 40
1.0
 40
1.0
 40
1.0
 10
29.53383081613765
 20
1.906108124999946
 30
0.0
 10
30.33463581613773
 20
1.905050625000058
 30
0.0
 10
30.98268831613768
 20
1.255586875000063
 30
0.0
 10
30.98198331613776
 20
0.4547806250000122
 30
0.0
  0
SPLINE
  5
34
330
B3
100
AcDbEntity
  8
0
 62
     7
420
 16777215
100
AcDbSpline
210
0.0
220
0.0
230
1.0
 70
     8
 71
     3
 72
     8
 73
     4
 74
     0
 42
0.000000001
 43
0.001
 12
1.0
 22
0.0
 32
0.0
 13
1.0
 23
0.0
 33
0.0
 40
0.0
 40
0.0
 40
0.0
 40
0.0
 40
1.0
 40
1.0
 40
1.0
 40
1.0
 10
30.98198331613776
 20
0.4547806250000122
 30
0.0
 10
30.98127706613764
 20
-0.3456718750001073
 30
0.0
 10
30.33146081613768
 20
-0.9940768750000188
 30
0.0
 10
29.53100831613779
 20
-0.9933718750000935
 30
0.0
  0
SPLINE
  5
35
330
B3
100
AcDbEntity
  8
0
 62
     7
420
 16777215
100
AcDbSpline
210
0.0
220
0.0
230
1.0
 70
     8
 71
     3
 72
     8
 73
     4
 74
     0
 42
0.000000001
 43
0.001
 12
1.0
 22
0.0
 32
0.0
 13
1.0
 23
0.0
 33
0.0
 40
0.0
 40
0.0
 40
0.0
 40
0.0
 40
1.0
 40
1.0
 40
1.0
 40
1.0
 10
29.53100831613779
 20
-0.9933718750000935
 30
0.0
 10
28.73055581613767
 20
-0.9926668749999408
 30
0.0
 10
28.08144456613763
 20
-0.3428493750000143
 30
0.0
 10
28.08285581613768
 20
0.4583081250000305
 30
0.0
  0
LWPOLYLINE
  5
36
330
B3
100
AcDbEntity
  8
0
 62
     7
420
 16777215
100
AcDbPolyline
 90
        2
 70
     0
 43
0.0
 10
15.28019706613782
 20
36.03383062500006
 10
15.28019706613782
 20
36.03383062500006
  0
LWPOLYLINE
  5
37
330
B3
100
AcDbEntity
  8
0
 62
     7
420
 16777215
100
AcDbPolyline
 90
        2
 70
     0
 43
0.0
 10
28.08285581613768
 20
0.4583081250000305
 10
28.08285581613768
 20
0.4583081250000305
  0
SPLINE
  5
38
330
B3
100
AcDbEntity
  8
0
 62
     7
420
 16777215
100
AcDbSpline
210
0.0
220
0.0
230
1.0
 70
     8
 71
     3
 72
     8
 73
     4
 74
     0
 42
0.000000001
 43
0.001
 12
1.0
 22
0.0
 32
0.0
 13
1.0
 23
0.0
 33
0.0
 40
0.0
 40
0.0
 40
0.0
 40
0.0
 40
1.0
 40
1.0
 40
1.0
 40
1.0
 10
29.53629956613781
 20
-5.542794375000085
 30
0.0
 10
32.84923581613771
 20
-5.545969374999913
 30
0.0
 10
35.53846081613779
 20
-2.862388125000052
 30
0.0
 10
35.54163581613761
 20
0.4512531249999938
 30
0.0
  0
LWPOLYLINE
  5
39
330
B3
100
AcDbEntity
  8
0
 62
     7
420
 16777215
100
AcDbPolyline
 90
        3
 70
     0
 43
0.0
 10
20.20003581613764
 20
23.02867812499994
 10
20.20003581613764
 20
23.03114812500007
 10
20.20285831613774
 20
26.02905312500002
  0
SPLINE
  5
3A
330
B3
100
AcDbEntity
  8
0
 62
     7
420
 16777215
100
AcDbSpline
210
0.0
220
0.0
230
1.0
 70
     8
 71
     3
 72
     8
 73
     4
 74
     0
 42
0.000000001
 43
0.001
 12
1.0
 22
0.0
 32
0.0
 13
1.0
 23
0.0
 33
0.0
 40
0.0
 40
0.0
 40
0.0
 40
0.0
 40
1.0
 40
1.0
 40
1.0
 40
1.0
 10
7.932188316137626
 20
0.4777118750000682
 30
0.0
 10
7.929365816137761
 20
-2.836283124999909
 30
0.0
 10
9.612822066137824
 20
-5.524096874999941
 30
0.0
 10
9.612822066137824
 20
-5.524096874999941
 30
0.0
  0
LWPOLYLINE
  5
3B
330
B3
100
AcDbEntity
  8
0
 62
     7
420
 16777215
100
AcDbPolyline
 90
       13
 70
     0
 43
0.0
 10
35.54163581613761
 20
0.4512531249999938
 10
35.56350831613781
 20
23.01597812499995
 10
27.09684081613773
 20
23.02409187500007
 10
27.0961358161378
 20
21.87297812499992
 10
23.29636581613772
 20
21.8768581249999
 10
23.29707206613762
 20
23.02797312500002
 10
20.20003581613764
 20
23.03114812500007
 10
20.20003581613764
 20
23.02867812499994
 10
20.19580206613773
 20
18.53005562499993
 10
15.55677456613762
 20
18.53464187500003
 10
12.99984081613775
 20
18.53711187499994
 10
7.950180816137618
 20
18.54240312499996
 10
7.932188316137626
 20
0.4777118750000682
  0
SPLINE
  5
3C
330
B3
100
AcDbEntity
  8
0
 62
     7
420
 16777215
100
AcDbSpline
210
0.0
220
0.0
230
1.0
 70
     8
 71
     3
 72
     8
 73
     4
 74
     0
 42
0.000000001
 43
0.001
 12
1.0
 22
0.0
 32
0.0
 13
1.0
 23
0.0
 33
0.0
 40
0.0
 40
0.0
 40
0.0
 40
0.0
 40
1.0
 40
1.0
 40
1.0
 40
1.0
 10
13.32757206613769
 20
30.53614187500011
 30
0.0
 10
13.3268658161378
 20
29.88279812499991
 30
0.0
 10
12.79628831613763
 20
29.35363062500005
 30
0.0
 10
12.14364956613781
 20
29.35433687499994
 30
0.0
  0
SPLINE
  5
3D
330
B3
100
AcDbEntity
  8
0
 62
     7
420
 16777215
100
AcDbSpline
210
0.0
220
0.0
230
1.0
 70
     8
 71
     3
 72
     8
 73
     4
 74
     0
 42
0.000000001
 43
0.001
 12
1.0
 22
0.0
 32
0.0
 13
1.0
 23
0.0
 33
0.0
 40
0.0
 40
0.0
 40
0.0
 40
0.0
 40
1.0
 40
1.0
 40
1.0
 40
1.0
 10
12.14364956613781
 20
29.35433687499994
 30
0.0
 10
11.48995206613768
 20
29.35539437500006
 30
0.0
 10
10.96078581613779
 20
29.88526687500007
 30
0.0
 10
10.96149081613771
 20
30.53861187500002
 30
0.0
  0
SPLINE
  5
3E
330
B3
100
AcDbEntity
  8
0
 62
     7
420
 16777215
100
AcDbSpline
210
0.0
220
0.0
230
1.0
 70
     8
 71
     3
 72
     8
 73
     4
 74
     0
 42
0.000000001
 43
0.001
 12
1.0
 22
0.0
 32
0.0
 13
1.0
 23
0.0
 33
0.0
 40
0.0
 40
0.0
 40
0.0
 40
0.0
 40
1.0
 40
1.0
 40
1.0
 40
1.0
 10
10.96149081613771
 20
30.53861187500002
 30
0.0
 10
10.96219706613783
 20
31.19230812499995
 30
0.0
 10
11.49206956613762
 20
31.72112312500008
 30
0.0
 10
12.14576581613778
 20
31.72041687499996
 30
0.0
  0
SPLINE
  5
3F
330
B3
100
AcDbEntity
  8
0
 62
     7
420
 16777215
100
AcDbSpline
210
0.0
220
0.0
230
1.0
 70
     8
 71
     3
 72
     8
 73
     4
 74
     0
 42
0.000000001
 43
0.001
 12
1.0
 22
0.0
 32
0.0
 13
1.0
 23
0.0
 33
0.0
 40
0.0
 40
0.0
 40
0.0
 40
0.0
 40
1.0
 40
1.0
 40
1.0
 40
1.0
 10
12.14576581613778
 20
31.72041687499996
 30
0.0
 10
12.79911081613773
 20
31.72006437499999
 30
0.0
 10
13.32827706613762
 20
31.19019187499998
 30
0.0
 10
13.32757206613769
 20
30.53614187500011
 30
0.0
  0
LWPOLYLINE
  5
40
330
B3
100
AcDbEntity
  8
0
 62
     7
420
 16777215
100
AcDbPolyline
 90
        4
 70
     0
 43
0.0
 10
9.612822066137824
 20
-5.524096874999941
 10
23.53590206613762
 20
-5.53785562500002
 10
29.53629956613781
 20
-5.542794375000085
 10
29.53629956613781
 20
-5.542794375000085
  0
SPLINE
  5
41
330
B3
100
AcDbEntity
  8
0
 62
     7
420
 16777215
100
AcDbSpline
210
0.0
220
0.0
230
1.0
 70
     8
 71
     3
 72
     8
 73
     4
 74
     0
 42
0.000000001
 43
0.001
 12
1.0
 22
0.0
 32
0.0
 13
1.0
 23
0.0
 33
0.0
 40
0.0
 40
0.0
 40
0.0
 40
0.0
 40
1.0
 40
1.0
 40
1.0
 40
1.0
 10
14.88014706613762
 20
44.82328937500006
 30
0.0
 10
14.87944081613773
 20
44.16994437500011
 30
0.0
 10
14.34921581613776
 20
43.640778125
 30
0.0
 10
13.69587206613778
 20
43.64113062499996
 30
0.0
  0
SPLINE
  5
42
330
B3
100
AcDbEntity
  8
0
 62
     7
420
 16777215
100
AcDbSpline
210
0.0
220
0.0
230
1.0
 70
     8
 71
     3
 72
     8
 73
     4
 74
     0
 42
0.000000001
 43
0.001
 12
1.0
 22
0.0
 32
0.0
 13
1.0
 23
0.0
 33
0.0
 40
0.0
 40
0.0
 40
0.0
 40
0.0
 40
1.0
 40
1.0
 40
1.0
 40
1.0
 10
13.69587206613778
 20
43.64113062499996
 30
0.0
 10
13.04252706613784
 20
43.64183687500008
 30
0.0
 10
12.51406581613765
 20
44.17241437500002
 30
0.0
 10
12.51406581613765
 20
44.82575812499999
 30
0.0
  0
SPLINE
  5
43
330
B3
100
AcDbEntity
  8
0
 62
     7
420
 16777215
100
AcDbSpline
210
0.0
220
0.0
230
1.0
 70
     8
 71
     3
 72
     8
 73
     4
 74
     0
 42
0.000000001
 43
0.001
 12
1.0
 22
0.0
 32
0.0
 13
1.0
 23
0.0
 33
0.0
 40
0.0
 40
0.0
 40
0.0
 40
0.0
 40
1.0
 40
1.0
 40
1.0
 40
1.0
 10
12.51406581613765
 20
44.82575812499999
 30
0.0
 10
12.51477206613777
 20
45.4794556249999
 30
0.0
 10
13.04464456613778
 20
46.00791687500009
 30
0.0
 10
13.69834081613772
 20
46.0075643749999
 30
0.0
  0
SPLINE
  5
44
330
B3
100
AcDbEntity
  8
0
 62
     7
420
 16777215
100
AcDbSpline
210
0.0
220
0.0
230
1.0
 70
     8
 71
     3
 72
     8
 73
     4
 74
     0
 42
0.000000001
 43
0.001
 12
1.0
 22
0.0
 32
0.0
 13
1.0
 23
0.0
 33
0.0
 40
0.0
 40
0.0
 40
0.0
 40
0.0
 40
1.0
 40
1.0
 40
1.0
 40
1.0
 10
13.69834081613772
 20
46.0075643749999
 30
0.0
 10
14.35168581613766
 20
46.00685812500001
 30
0.0
 10
14.88085206613778
 20
45.47698687499997
 30
0.0
 10
14.88014706613762
 20
44.82328937500006
 30
0.0
  0
LWPOLYLINE
  5
45
330
B3
100
AcDbEntity
  8
0
 62
     7
420
 16777215
100
AcDbPolyline
 90
        2
 70
     0
 43
0.0
 10
13.32757206613769
 20
30.53614187500011
 10
13.32757206613769
 20
30.53614187500011
  0
LWPOLYLINE
  5
46
330
B3
100
AcDbEntity
  8
0
 62
     7
420
 16777215
100
AcDbPolyline
 90
        2
 70
     0
 43
0.0
 10
14.88014706613762
 20
44.82328937500006
 10
14.88014706613762
 20
44.82328937500006
  0
SPLINE
  5
47
330
B3
100
AcDbEntity
  8
0
 62
     7
420
 16777215
100
AcDbSpline
210
0.0
220
0.0
230
1.0
 70
     8
 71
     3
 72
     8
 73
     4
 74
     0
 42
0.000000001
 43
0.001
 12
1.0
 22
0.0
 32
0.0
 13
1.0
 23
0.0
 33
0.0
 40
0.0
 40
0.0
 40
0.0
 40
0.0
 40
1.0
 40
1.0
 40
1.0
 40
1.0
 10
32.77303581613774
 20
-23.12841312499995
 30
0.0
 10
32.77303581613774
 20
-21.47176937499989
 30
0.0
 10
31.43001081613784
 20
-20.12839187500003
 30
0.0
 10
29.77301331613762
 20
-20.12839187500003
 30
0.0
  0
SPLINE
  5
48
330
B3
100
AcDbEntity
  8
0
 62
     7
420
 16777215
100
AcDbSpline
210
0.0
220
0.0
230
1.0
 70
     8
 71
     3
 72
     8
 73
     4
 74
     0
 42
0.000000001
 43
0.001
 12
1.0
 22
0.0
 32
0.0
 13
1.0
 23
0.0
 33
0.0
 40
0.0
 40
0.0
 40
0.0
 40
0.0
 40
1.0
 40
1.0
 40
1.0
 40
1.0
 10
29.77301331613762
 20
-20.12839187500003
 30
0.0
 10
29.39977456613769
 20
-20.12839187500003
 30
0.0
 10
29.04417456613783
 20
-20.19965187499997
 30
0.0
 10
28.71397456613772
 20
-20.32453562499995
 30
0.0
  0
SPLINE
  5
49
330
B3
100
AcDbEntity
  8
0
 62
     7
420
 16777215
100
AcDbSpline
210
0.0
220
0.0
230
1.0
 70
     8
 71
     3
 72
     8
 73
     4
 74
     0
 42
0.000000001
 43
0.001
 12
1.0
 22
0.0
 32
0.0
 13
1.0
 23
0.0
 33
0.0
 40
0.0
 40
0.0
 40
0.0
 40
0.0
 40
1.0
 40
1.0
 40
1.0
 40
1.0
 10
22.74638581613772
 20
-11.68571312499989
 30
0.0
 10
22.74638581613772
 20
-10.58539937499995
 30
0.0
 10
22.05599956613764
 20
-9.685816875
 30
0.0
 10
20.9556858161377
 20
-9.685816875
 30
0.0
  0
SPLINE
  5
4A
330
B3
100
AcDbEntity
  8
0
 62
     7
420
 16777215
100
AcDbSpline
210
0.0
220
0.0
230
1.0
 70
     8
 71
     3
 72
     8
 73
     4
 74
     0
 42
0.000000001
 43
0.001
 12
1.0
 22
0.0
 32
0.0
 13
1.0
 23
0.0
 33
0.0
 40
0.0
 40
0.0
 40
0.0
 40
0.0
 40
1.0
 40
1.0
 40
1.0
 40
1.0
 10
20.9556858161377
 20
-9.685816875
 30
0.0
 10
20.9556858161377
 20
-9.685816875
 30
0.0
 10
19.76929456613766
 20
-10.5278968749999
 30
0.0
 10
19.76929456613766
 20
-11.56753312499995
 30
0.0
  0
SPLINE
  5
4B
330
B3
100
AcDbEntity
  8
0
 62
     7
420
 16777215
100
AcDbSpline
210
0.0
220
0.0
230
1.0
 70
     8
 71
     3
 72
     8
 73
     4
 74
     0
 42
0.000000001
 43
0.001
 12
1.0
 22
0.0
 32
0.0
 13
1.0
 23
0.0
 33
0.0
 40
0.0
 40
0.0
 40
0.0
 40
0.0
 40
1.0
 40
1.0
 40
1.0
 40
1.0
 10
19.76929456613766
 20
-11.56753312499995
 30
0.0
 10
19.76929456613766
 20
-11.96511312500002
 30
0.0
 10
20.00565581613773
 20
-12.29425562500001
 30
0.0
 10
20.38312706613783
 20
-12.36410562500009
 30
0.0
  0
LWPOLYLINE
  5
4C
330
B3
100
AcDbEntity
  8
0
 62
     7
420
 16777215
100
AcDbPolyline
 90
        3
 70
     0
 43
0.0
 10
28.71397456613772
 20
-20.32453562499995
 10
22.74638581613772
 20
-20.32453562499995
 10
22.74638581613772
 20
-11.68571312499989
  0
SPLINE
  5
4D
330
B3
100
AcDbEntity
  8
0
 62
     7
420
 16777215
100
AcDbSpline
210
0.0
220
0.0
230
1.0
 70
     8
 71
     3
 72
     8
 73
     4
 74
     0
 42
0.000000001
 43
0.001
 12
1.0
 22
0.0
 32
0.0
 13
1.0
 23
0.0
 33
0.0
 40
0.0
 40
0.0
 40
0.0
 40
0.0
 40
1.0
 40
1.0
 40
1.0
 40
1.0
 10
20.38312706613783
 20
-18.12743562500009
 30
0.0
 10
20.38312706613783
 20
-18.40401312499989
 30
0.0
 10
20.15911331613779
 20
-18.62767437499997
 30
0.0
 10
19.88288831613772
 20
-18.62767437499997
 30
0.0
  0
LWPOLYLINE
  5
4E
330
B3
100
AcDbEntity
  8
0
 62
     7
420
 16777215
100
AcDbPolyline
 90
        2
 70
     0
 43
0.0
 10
20.38312706613783
 20
-12.36410562500009
 10
20.38312706613783
 20
-18.12743562500009
  0
SPLINE
  5
4F
330
B3
100
AcDbEntity
  8
0
 62
     7
420
 16777215
100
AcDbSpline
210
0.0
220
0.0
230
1.0
 70
     8
 71
     3
 72
     8
 73
     4
 74
     0
 42
0.000000001
 43
0.001
 12
1.0
 22
0.0
 32
0.0
 13
1.0
 23
0.0
 33
0.0
 40
0.0
 40
0.0
 40
0.0
 40
0.0
 40
1.0
 40
1.0
 40
1.0
 40
1.0
 10
19.13253081613766
 20
-18.62767437499997
 30
0.0
 10
18.85630581613782
 20
-18.62767437499997
 30
0.0
 10
18.63229081613781
 20
-18.40401312499989
 30
0.0
 10
18.63229081613781
 20
-18.12743562500009
 30
0.0
  0
LWPOLYLINE
  5
50
330
B3
100
AcDbEntity
  8
0
 62
     7
420
 16777215
100
AcDbPolyline
 90
        2
 70
     0
 43
0.0
 10
19.88288831613772
 20
-18.62767437499997
 10
19.13253081613766
 20
-18.62767437499997
  0
SPLINE
  5
51
330
B3
100
AcDbEntity
  8
0
 62
     7
420
 16777215
100
AcDbSpline
210
0.0
220
0.0
230
1.0
 70
     8
 71
     3
 72
     8
 73
     4
 74
     0
 42
0.000000001
 43
0.001
 12
1.0
 22
0.0
 32
0.0
 13
1.0
 23
0.0
 33
0.0
 40
0.0
 40
0.0
 40
0.0
 40
0.0
 40
1.0
 40
1.0
 40
1.0
 40
1.0
 10
18.63229081613781
 20
-12.36375187499993
 30
0.0
 10
19.00835206613783
 20
-12.29354937499988
 30
0.0
 10
19.19461956613782
 20
-11.96440812500009
 30
0.0
 10
19.19461956613782
 20
-11.56753312499995
 30
0.0
  0
LWPOLYLINE
  5
52
330
B3
100
AcDbEntity
  8
0
 62
     7
420
 16777215
100
AcDbPolyline
 90
        2
 70
     0
 43
0.0
 10
18.63229081613781
 20
-18.12743562500009
 10
18.63229081613781
 20
-12.36375187499993
  0
SPLINE
  5
53
330
B3
100
AcDbEntity
  8
0
 62
     7
420
 16777215
100
AcDbSpline
210
0.0
220
0.0
230
1.0
 70
     8
 71
     3
 72
     8
 73
     4
 74
     0
 42
0.000000001
 43
0.001
 12
1.0
 22
0.0
 32
0.0
 13
1.0
 23
0.0
 33
0.0
 40
0.0
 40
0.0
 40
0.0
 40
0.0
 40
1.0
 40
1.0
 40
1.0
 40
1.0
 10
19.18826956613771
 20
-11.56753312499995
 30
0.0
 10
19.18826956613771
 20
-10.53530562500009
 30
0.0
 10
17.96942206613767
 20
-9.698516874999996
 30
0.0
 10
17.9521358161378
 20
-9.686874374999888
 30
0.0
  0
SPLINE
  5
54
330
B3
100
AcDbEntity
  8
0
 62
     7
420
 16777215
100
AcDbSpline
210
0.0
220
0.0
230
1.0
 70
     8
 71
     3
 72
     8
 73
     4
 74
     0
 42
0.000000001
 43
0.001
 12
1.0
 22
0.0
 32
0.0
 13
1.0
 23
0.0
 33
0.0
 40
0.0
 40
0.0
 40
0.0
 40
0.0
 40
1.0
 40
1.0
 40
1.0
 40
1.0
 10
17.9521358161378
 20
-9.686874374999888
 30
0.0
 10
17.93555581613782
 20
-9.698516874999996
 30
0.0
 10
16.71741331613771
 20
-10.53530562500009
 30
0.0
 10
16.71741331613771
 20
-11.56753312499995
 30
0.0
  0
SPLINE
  5
55
330
B3
100
AcDbEntity
  8
0
 62
     7
420
 16777215
100
AcDbSpline
210
0.0
220
0.0
230
1.0
 70
     8
 71
     3
 72
     8
 73
     4
 74
     0
 42
0.000000001
 43
0.001
 12
1.0
 22
0.0
 32
0.0
 13
1.0
 23
0.0
 33
0.0
 40
0.0
 40
0.0
 40
0.0
 40
0.0
 40
1.0
 40
1.0
 40
1.0
 40
1.0
 10
16.71741331613771
 20
-11.56753312499995
 30
0.0
 10
16.71741331613771
 20
-11.96511312500002
 30
0.0
 10
16.90368081613769
 20
-12.29425562500001
 30
0.0
 10
17.28115206613779
 20
-12.36410562500009
 30
0.0
  0
LWPOLYLINE
  5
56
330
B3
100
AcDbEntity
  8
0
 62
     7
420
 16777215
100
AcDbPolyline
 90
        2
 70
     0
 43
0.0
 10
19.19461956613782
 20
-11.56753312499995
 10
19.18826956613771
 20
-11.56753312499995
  0
SPLINE
  5
57
330
B3
100
AcDbEntity
  8
0
 62
     7
420
 16777215
100
AcDbSpline
210
0.0
220
0.0
230
1.0
 70
     8
 71
     3
 72
     8
 73
     4
 74
     0
 42
0.000000001
 43
0.001
 12
1.0
 22
0.0
 32
0.0
 13
1.0
 23
0.0
 33
0.0
 40
0.0
 40
0.0
 40
0.0
 40
0.0
 40
1.0
 40
1.0
 40
1.0
 40
1.0
 10
17.28115206613779
 20
-18.12743562500009
 30
0.0
 10
17.28115206613779
 20
-18.40401312499989
 30
0.0
 10
17.05713831613775
 20
-18.62767437499997
 30
0.0
 10
16.78091331613768
 20
-18.62767437499997
 30
0.0
  0
LWPOLYLINE
  5
58
330
B3
100
AcDbEntity
  8
0
 62
     7
420
 16777215
100
AcDbPolyline
 90
        2
 70
     0
 43
0.0
 10
17.28115206613779
 20
-12.36410562500009
 10
17.28115206613779
 20
-18.12743562500009
  0
SPLINE
  5
59
330
B3
100
AcDbEntity
  8
0
 62
     7
420
 16777215
100
AcDbSpline
210
0.0
220
0.0
230
1.0
 70
     8
 71
     3
 72
     8
 73
     4
 74
     0
 42
0.000000001
 43
0.001
 12
1.0
 22
0.0
 32
0.0
 13
1.0
 23
0.0
 33
0.0
 40
0.0
 40
0.0
 40
0.0
 40
0.0
 40
1.0
 40
1.0
 40
1.0
 40
1.0
 10
15.98081331613776
 20
-18.62767437499997
 30
0.0
 10
15.70458831613769
 20
-18.62767437499997
 30
0.0
 10
15.48057456613765
 20
-18.40401312499989
 30
0.0
 10
15.48057456613765
 20
-18.12743562500009
 30
0.0
  0
LWPOLYLINE
  5
5A
330
B3
100
AcDbEntity
  8
0
 62
     7
420
 16777215
100
AcDbPolyline
 90
        2
 70
     0
 43
0.0
 10
16.78091331613768
 20
-18.62767437499997
 10
15.98081331613776
 20
-18.62767437499997
  0
SPLINE
  5
5B
330
B3
100
AcDbEntity
  8
0
 62
     7
420
 16777215
100
AcDbSpline
210
0.0
220
0.0
230
1.0
 70
     8
 71
     3
 72
     8
 73
     4
 74
     0
 42
0.000000001
 43
0.001
 12
1.0
 22
0.0
 32
0.0
 13
1.0
 23
0.0
 33
0.0
 40
0.0
 40
0.0
 40
0.0
 40
0.0
 40
1.0
 40
1.0
 40
1.0
 40
1.0
 10
15.48057456613765
 20
-12.36375187499993
 30
0.0
 10
15.85663581613767
 20
-12.29354937499988
 30
0.0
 10
16.09229081613762
 20
-11.96440812500009
 30
0.0
 10
16.09229081613762
 20
-11.56753312499995
 30
0.0
  0
LWPOLYLINE
  5
5C
330
B3
100
AcDbEntity
  8
0
 62
     7
420
 16777215
100
AcDbPolyline
 90
        2
 70
     0
 43
0.0
 10
15.48057456613765
 20
-18.12743562500009
 10
15.48057456613765
 20
-12.36375187499993
  0
SPLINE
  5
5D
330
B3
100
AcDbEntity
  8
0
 62
     7
420
 16777215
100
AcDbSpline
210
0.0
220
0.0
230
1.0
 70
     8
 71
     3
 72
     8
 73
     4
 74
     0
 42
0.000000001
 43
0.001
 12
1.0
 22
0.0
 32
0.0
 13
1.0
 23
0.0
 33
0.0
 40
0.0
 40
0.0
 40
0.0
 40
0.0
 40
1.0
 40
1.0
 40
1.0
 40
1.0
 10
16.08594081613774
 20
-11.56753312499995
 30
0.0
 10
16.08594081613774
 20
-10.5278968749999
 30
0.0
 10
14.89884456613777
 20
-9.685816875
 30
0.0
 10
14.89884456613777
 20
-9.685816875
 30
0.0
  0
LWPOLYLINE
  5
5E
330
B3
100
AcDbEntity
  8
0
 62
     7
420
 16777215
100
AcDbPolyline
 90
        2
 70
     0
 43
0.0
 10
16.09229081613762
 20
-11.56753312499995
 10
16.08594081613774
 20
-11.56753312499995
  0
SPLINE
  5
5F
330
B3
100
AcDbEntity
  8
0
 62
     7
420
 16777215
100
AcDbSpline
210
0.0
220
0.0
230
1.0
 70
     8
 71
     3
 72
     8
 73
     4
 74
     0
 42
0.000000001
 43
0.001
 12
1.0
 22
0.0
 32
0.0
 13
1.0
 23
0.0
 33
0.0
 40
0.0
 40
0.0
 40
0.0
 40
0.0
 40
1.0
 40
1.0
 40
1.0
 40
1.0
 10
13.47538581613776
 20
-9.685816875
 30
0.0
 10
12.94269081613766
 20
-10.38361062500007
 30
0.0
 10
12.15423331613783
 20
-10.87150187499992
 30
0.0
 10
11.25041581613777
 20
-11.01719937500002
 30
0.0
  0
SPLINE
  5
60
330
B3
100
AcDbEntity
  8
0
 62
     7
420
 16777215
100
AcDbSpline
210
0.0
220
0.0
230
1.0
 70
     8
 71
     3
 72
     8
 73
     4
 74
     0
 42
0.000000001
 43
0.001
 12
1.0
 22
0.0
 32
0.0
 13
1.0
 23
0.0
 33
0.0
 40
0.0
 40
0.0
 40
0.0
 40
0.0
 40
1.0
 40
1.0
 40
1.0
 40
1.0
 10
11.25041581613777
 20
-11.01719937500002
 30
0.0
 10
11.17527456613766
 20
-11.01755187499998
 30
0.0
 10
11.10224956613774
 20
-11.02249187500001
 30
0.0
 10
11.02993081613772
 20
-11.02778312500004
 30
0.0
  0
SPLINE
  5
61
330
B3
100
AcDbEntity
  8
0
 62
     7
420
 16777215
100
AcDbSpline
210
0.0
220
0.0
230
1.0
 70
     8
 71
     3
 72
     8
 73
     4
 74
     0
 42
0.000000001
 43
0.001
 12
1.0
 22
0.0
 32
0.0
 13
1.0
 23
0.0
 33
0.0
 40
0.0
 40
0.0
 40
0.0
 40
0.0
 40
1.0
 40
1.0
 40
1.0
 40
1.0
 10
11.02993081613772
 20
-11.02778312500004
 30
0.0
 10
10.90998581613781
 20
-11.03589687499993
 30
0.0
 10
10.79004081613766
 20
-11.047891875
 30
0.0
 10
10.67362456613773
 20
-11.06553062500006
 30
0.0
  0
SPLINE
  5
62
330
B3
100
AcDbEntity
  8
0
 62
     7
420
 16777215
100
AcDbSpline
210
0.0
220
0.0
230
1.0
 70
     8
 71
     3
 72
     8
 73
     4
 74
     0
 42
0.000000001
 43
0.001
 12
1.0
 22
0.0
 32
0.0
 13
1.0
 23
0.0
 33
0.0
 40
0.0
 40
0.0
 40
0.0
 40
0.0
 40
1.0
 40
1.0
 40
1.0
 40
1.0
 10
10.67362456613773
 20
-11.06553062500006
 30
0.0
 10
8.899505816137662
 20
-11.33187687500003
 30
0.0
 10
7.507797066137755
 20
-12.75498312500008
 30
0.0
 10
7.292602066137761
 20
-14.54462437500001
 30
0.0
  0
LWPOLYLINE
  5
63
330
B3
100
AcDbEntity
  8
0
 62
     7
420
 16777215
100
AcDbPolyline
 90
        2
 70
     0
 43
0.0
 10
14.89884456613777
 20
-9.685816875
 10
13.47538581613776
 20
-9.685816875
  0
SPLINE
  5
64
330
B3
100
AcDbEntity
  8
0
 62
     7
420
 16777215
100
AcDbSpline
210
0.0
220
0.0
230
1.0
 70
     8
 71
     3
 72
     8
 73
     4
 74
     0
 42
0.000000001
 43
0.001
 12
1.0
 22
0.0
 32
0.0
 13
1.0
 23
0.0
 33
0.0
 40
0.0
 40
0.0
 40
0.0
 40
0.0
 40
1.0
 40
1.0
 40
1.0
 40
1.0
 10
7.292602066137761
 20
-22.2316518749999
 30
0.0
 10
7.513794566137676
 20
-24.07103562499992
 30
0.0
 10
8.977822066137833
 20
-25.52589187500007
 30
0.0
 10
10.82108581613784
 20
-25.73261937500001
 30
0.0
  0
LWPOLYLINE
  5
65
330
B3
100
AcDbEntity
  8
0
 62
     7
420
 16777215
100
AcDbPolyline
 90
        2
 70
     0
 43
0.0
 10
7.292602066137761
 20
-14.54462437500001
 10
7.292602066137761
 20
-22.2316518749999
  0
SPLINE
  5
66
330
B3
100
AcDbEntity
  8
0
 62
     7
420
 16777215
100
AcDbSpline
210
0.0
220
0.0
230
1.0
 70
     8
 71
     3
 72
     8
 73
     4
 74
     0
 42
0.000000001
 43
0.001
 12
1.0
 22
0.0
 32
0.0
 13
1.0
 23
0.0
 33
0.0
 40
0.0
 40
0.0
 40
0.0
 40
0.0
 40
1.0
 40
1.0
 40
1.0
 40
1.0
 10
10.97419081613771
 20
-25.7463768749999
 30
0.0
 10
11.02851956613767
 20
-25.75061062500004
 30
0.0
 10
11.08319956613764
 20
-25.75202187500008
 30
0.0
 10
11.13788081613779
 20
-25.75378562500009
 30
0.0
  0
SPLINE
  5
67
330
B3
100
AcDbEntity
  8
0
 62
     7
420
 16777215
100
AcDbSpline
210
0.0
220
0.0
230
1.0
 70
     8
 71
     3
 72
     8
 73
     4
 74
     0
 42
0.000000001
 43
0.001
 12
1.0
 22
0.0
 32
0.0
 13
1.0
 23
0.0
 33
0.0
 40
0.0
 40
0.0
 40
0.0
 40
0.0
 40
1.0
 40
1.0
 40
1.0
 40
1.0
 10
11.13788081613779
 20
-25.75378562500009
 30
0.0
 10
12.10061081613776
 20
-25.8765518749999
 30
0.0
 10
12.93916331613764
 20
-26.39054937500009
 30
0.0
 10
13.49443581613764
 20
-27.13138312499996
 30
0.0
  0
LWPOLYLINE
  5
68
330
B3
100
AcDbEntity
  8
0
 62
     7
420
 16777215
100
AcDbPolyline
 90
        2
 70
     0
 43
0.0
 10
10.82108581613784
 20
-25.73261937500001
 10
10.97419081613771
 20
-25.7463768749999
  0
SPLINE
  5
69
330
B3
100
AcDbEntity
  8
0
 62
     7
420
 16777215
100
AcDbSpline
210
0.0
220
0.0
230
1.0
 70
     8
 71
     3
 72
     8
 73
     4
 74
     0
 42
0.000000001
 43
0.001
 12
1.0
 22
0.0
 32
0.0
 13
1.0
 23
0.0
 33
0.0
 40
0.0
 40
0.0
 40
0.0
 40
0.0
 40
1.0
 40
1.0
 40
1.0
 40
1.0
 10
28.7820608161378
 20
-27.13138312499996
 30
0.0
 10
29.11296581613783
 20
-26.69781937500011
 30
0.0
 10
29.54829456613766
 20
-26.35386062499992
 30
0.0
 10
30.04429956613762
 20
-26.11432437500002
 30
0.0
  0
SPLINE
  5
6A
330
B3
100
AcDbEntity
  8
0
 62
     7
420
 16777215
100
AcDbSpline
210
0.0
220
0.0
230
1.0
 70
     8
 71
     3
 72
     8
 73
     4
 74
     0
 42
0.000000001
 43
0.001
 12
1.0
 22
0.0
 32
0.0
 13
1.0
 23
0.0
 33
0.0
 40
0.0
 40
0.0
 40
0.0
 40
0.0
 40
1.0
 40
1.0
 40
1.0
 40
1.0
 10
30.04429956613762
 20
-26.11432437500002
 30
0.0
 10
31.5739445661377
 20
-25.9777993749999
 30
0.0
 10
32.77303581613774
 20
-24.69404187500004
 30
0.0
 10
32.77303581613774
 20
-23.12841312499995
 30
0.0
  0
LWPOLYLINE
  5
6B
330
B3
100
AcDbEntity
  8
0
 62
     7
420
 16777215
100
AcDbPolyline
 90
        2
 70
     0
 43
0.0
 10
13.49443581613764
 20
-27.13138312499996
 10
28.7820608161378
 20
-27.13138312499996
  0
LWPOLYLINE
  5
6C
330
B3
100
AcDbEntity
  8
0
 62
     7
420
 16777215
100
AcDbPolyline
 90
        2
 70
     0
 43
0.0
 10
32.77303581613774
 20
-23.12841312499995
 10
32.77303581613774
 20
-23.12841312499995
  0
SPLINE
  5
6D
330
B3
100
AcDbEntity
  8
0
 62
     7
420
 16777215
100
AcDbSpline
210
0.0
220
0.0
230
1.0
 70
     8
 71
     3
 72
     8
 73
     4
 74
     0
 42
0.000000001
 43
0.001
 12
1.0
 22
0.0
 32
0.0
 13
1.0
 23
0.0
 33
0.0
 40
0.0
 40
0.0
 40
0.0
 40
0.0
 40
1.0
 40
1.0
 40
1.0
 40
1.0
 10
12.77300581613781
 20
-22.48988562499994
 30
0.0
 10
12.77300581613781
 20
-23.31820812499996
 30
0.0
 10
12.10202206613781
 20
-23.98954437499992
 30
0.0
 10
11.27369956613779
 20
-23.98954437499992
 30
0.0
  0
SPLINE
  5
6E
330
B3
100
AcDbEntity
  8
0
 62
     7
420
 16777215
100
AcDbSpline
210
0.0
220
0.0
230
1.0
 70
     8
 71
     3
 72
     8
 73
     4
 74
     0
 42
0.000000001
 43
0.001
 12
1.0
 22
0.0
 32
0.0
 13
1.0
 23
0.0
 33
0.0
 40
0.0
 40
0.0
 40
0.0
 40
0.0
 40
1.0
 40
1.0
 40
1.0
 40
1.0
 10
11.27369956613779
 20
-23.98954437499992
 30
0.0
 10
10.44467206613763
 20
-23.98954437499992
 30
0.0
 10
9.77333581613766
 20
-23.31820812499996
 30
0.0
 10
9.77333581613766
 20
-22.48988562499994
 30
0.0
  0
LWPOLYLINE
  5
6F
330
B3
100
AcDbEntity
  8
0
 62
     7
420
 16777215
100
AcDbPolyline
 90
        5
 70
     0
 43
0.0
 10
17.95178331613783
 20
-9.685816875
 10
17.95248831613776
 20
-9.686874374999888
 10
17.9546058161377
 20
-9.685816875
 10
17.95178331613783
 20
-9.685816875
 10
17.95178331613783
 20
-9.685816875
  0
SPLINE
  5
70
330
B3
100
AcDbEntity
  8
0
 62
     7
420
 16777215
100
AcDbSpline
210
0.0
220
0.0
230
1.0
 70
     8
 71
     3
 72
     8
 73
     4
 74
     0
 42
0.000000001
 43
0.001
 12
1.0
 22
0.0
 32
0.0
 13
1.0
 23
0.0
 33
0.0
 40
0.0
 40
0.0
 40
0.0
 40
0.0
 40
1.0
 40
1.0
 40
1.0
 40
1.0
 10
9.77333581613766
 20
-18.90848562499991
 30
0.0
 10
9.77333581613766
 20
-18.07981062499994
 30
0.0
 10
10.44467206613763
 20
-17.40847437499997
 30
0.0
 10
11.27369956613779
 20
-17.40847437499997
 30
0.0
  0
SPLINE
  5
71
330
B3
100
AcDbEntity
  8
0
 62
     7
420
 16777215
100
AcDbSpline
210
0.0
220
0.0
230
1.0
 70
     8
 71
     3
 72
     8
 73
     4
 74
     0
 42
0.000000001
 43
0.001
 12
1.0
 22
0.0
 32
0.0
 13
1.0
 23
0.0
 33
0.0
 40
0.0
 40
0.0
 40
0.0
 40
0.0
 40
1.0
 40
1.0
 40
1.0
 40
1.0
 10
11.27369956613779
 20
-17.40847437499997
 30
0.0
 10
12.10202206613781
 20
-17.40847437499997
 30
0.0
 10
12.77300581613781
 20
-18.07981062499994
 30
0.0
 10
12.77300581613781
 20
-18.90848562499991
 30
0.0
  0
LWPOLYLINE
  5
72
330
B3
100
AcDbEntity
  8
0
 62
     7
420
 16777215
100
AcDbPolyline
 90
        2
 70
     0
 43
0.0
 10
9.77333581613766
 20
-22.48988562499994
 10
9.77333581613766
 20
-18.90848562499991
  0
SPLINE
  5
73
330
B3
100
AcDbEntity
  8
0
 62
     7
420
 16777215
100
AcDbSpline
210
0.0
220
0.0
230
1.0
 70
     8
 71
     3
 72
     8
 73
     4
 74
     0
 42
0.000000001
 43
0.001
 12
1.0
 22
0.0
 32
0.0
 13
1.0
 23
0.0
 33
0.0
 40
0.0
 40
0.0
 40
0.0
 40
0.0
 40
1.0
 40
1.0
 40
1.0
 40
1.0
 10
31.27302456613779
 20
-23.12841312499995
 30
0.0
 10
31.27302456613779
 20
-22.29973812499998
 30
0.0
 10
30.60168831613782
 20
-21.62840187500001
 30
0.0
 10
29.77301331613762
 20
-21.62840187500001
 30
0.0
  0
SPLINE
  5
74
330
B3
100
AcDbEntity
  8
0
 62
     7
420
 16777215
100
AcDbSpline
210
0.0
220
0.0
230
1.0
 70
     8
 71
     3
 72
     8
 73
     4
 74
     0
 42
0.000000001
 43
0.001
 12
1.0
 22
0.0
 32
0.0
 13
1.0
 23
0.0
 33
0.0
 40
0.0
 40
0.0
 40
0.0
 40
0.0
 40
1.0
 40
1.0
 40
1.0
 40
1.0
 10
29.77301331613762
 20
-21.62840187500001
 30
0.0
 10
28.94504456613777
 20
-21.62840187500001
 30
0.0
 10
28.27300206613768
 20
-22.29973812499998
 30
0.0
 10
28.27300206613768
 20
-23.12841312499995
 30
0.0
  0
SPLINE
  5
75
330
B3
100
AcDbEntity
  8
0
 62
     7
420
 16777215
100
AcDbSpline
210
0.0
220
0.0
230
1.0
 70
     8
 71
     3
 72
     8
 73
     4
 74
     0
 42
0.000000001
 43
0.001
 12
1.0
 22
0.0
 32
0.0
 13
1.0
 23
0.0
 33
0.0
 40
0.0
 40
0.0
 40
0.0
 40
0.0
 40
1.0
 40
1.0
 40
1.0
 40
1.0
 10
28.27300206613768
 20
-23.12841312499995
 30
0.0
 10
28.27300206613768
 20
-23.95673562499996
 30
0.0
 10
28.94504456613777
 20
-24.62877687500009
 30
0.0
 10
29.77301331613762
 20
-24.62877687500009
 30
0.0
  0
SPLINE
  5
76
330
B3
100
AcDbEntity
  8
0
 62
     7
420
 16777215
100
AcDbSpline
210
0.0
220
0.0
230
1.0
 70
     8
 71
     3
 72
     8
 73
     4
 74
     0
 42
0.000000001
 43
0.001
 12
1.0
 22
0.0
 32
0.0
 13
1.0
 23
0.0
 33
0.0
 40
0.0
 40
0.0
 40
0.0
 40
0.0
 40
1.0
 40
1.0
 40
1.0
 40
1.0
 10
29.77301331613762
 20
-24.62877687500009
 30
0.0
 10
30.60168831613782
 20
-24.62877687500009
 30
0.0
 10
31.27302456613779
 20
-23.956383125
 30
0.0
 10
31.27302456613779
 20
-23.12841312499995
 30
0.0
  0
LWPOLYLINE
  5
77
330
B3
100
AcDbEntity
  8
0
 62
     7
420
 16777215
100
AcDbPolyline
 90
        3
 70
     0
 43
0.0
 10
12.77300581613781
 20
-18.90848562499991
 10
12.77300581613781
 20
-22.48988562499994
 10
12.77300581613781
 20
-22.48988562499994
  0
SPLINE
  5
78
330
B3
100
AcDbEntity
  8
0
 62
     7
420
 16777215
100
AcDbSpline
210
0.0
220
0.0
230
1.0
 70
     8
 71
     3
 72
     8
 73
     4
 74
     0
 42
0.000000001
 43
0.001
 12
1.0
 22
0.0
 32
0.0
 13
1.0
 23
0.0
 33
0.0
 40
0.0
 40
0.0
 40
0.0
 40
0.0
 40
1.0
 40
1.0
 40
1.0
 40
1.0
 10
12.77300581613781
 20
-13.62846062499989
 30
0.0
 10
12.77300581613781
 20
-12.8001381250001
 30
0.0
 10
12.10202206613781
 20
-12.12844937499995
 30
0.0
 10
11.27369956613779
 20
-12.12844937499995
 30
0.0
  0
SPLINE
  5
79
330
B3
100
AcDbEntity
  8
0
 62
     7
420
 16777215
100
AcDbSpline
210
0.0
220
0.0
230
1.0
 70
     8
 71
     3
 72
     8
 73
     4
 74
     0
 42
0.000000001
 43
0.001
 12
1.0
 22
0.0
 32
0.0
 13
1.0
 23
0.0
 33
0.0
 40
0.0
 40
0.0
 40
0.0
 40
0.0
 40
1.0
 40
1.0
 40
1.0
 40
1.0
 10
11.27369956613779
 20
-12.12844937499995
 30
0.0
 10
10.44467206613763
 20
-12.12844937499995
 30
0.0
 10
9.77333581613766
 20
-12.8001381250001
 30
0.0
 10
9.77333581613766
 20
-13.62846062499989
 30
0.0
  0
SPLINE
  5
7A
330
B3
100
AcDbEntity
  8
0
 62
     7
420
 16777215
100
AcDbSpline
210
0.0
220
0.0
230
1.0
 70
     8
 71
     3
 72
     8
 73
     4
 74
     0
 42
0.000000001
 43
0.001
 12
1.0
 22
0.0
 32
0.0
 13
1.0
 23
0.0
 33
0.0
 40
0.0
 40
0.0
 40
0.0
 40
0.0
 40
1.0
 40
1.0
 40
1.0
 40
1.0
 10
9.77333581613766
 20
-13.62846062499989
 30
0.0
 10
9.77333581613766
 20
-14.4567831249999
 30
0.0
 10
10.44467206613763
 20
-15.12847187500006
 30
0.0
 10
11.27369956613779
 20
-15.12847187500006
 30
0.0
  0
SPLINE
  5
7B
330
B3
100
AcDbEntity
  8
0
 62
     7
420
 16777215
100
AcDbSpline
210
0.0
220
0.0
230
1.0
 70
     8
 71
     3
 72
     8
 73
     4
 74
     0
 42
0.000000001
 43
0.001
 12
1.0
 22
0.0
 32
0.0
 13
1.0
 23
0.0
 33
0.0
 40
0.0
 40
0.0
 40
0.0
 40
0.0
 40
1.0
 40
1.0
 40
1.0
 40
1.0
 10
11.27369956613779
 20
-15.12847187500006
 30
0.0
 10
12.10202206613781
 20
-15.12847187500006
 30
0.0
 10
12.77300581613781
 20
-14.4567831249999
 30
0.0
 10
12.77300581613781
 20
-13.62846062499989
 30
0.0
  0
LWPOLYLINE
  5
7C
330
B3
100
AcDbEntity
  8
0
 62
     7
420
 16777215
100
AcDbPolyline
 90
        2
 70
     0
 43
0.0
 10
31.27302456613779
 20
-23.12841312499995
 10
31.27302456613779
 20
-23.12841312499995
  0
SPLINE
  5
7D
330
B3
100
AcDbEntity
  8
0
 62
     7
420
 16777215
100
AcDbSpline
210
0.0
220
0.0
230
1.0
 70
     8
 71
     3
 72
     8
 73
     4
 74
     0
 42
0.000000001
 43
0.001
 12
1.0
 22
0.0
 32
0.0
 13
1.0
 23
0.0
 33
0.0
 40
0.0
 40
0.0
 40
0.0
 40
0.0
 40
1.0
 40
1.0
 40
1.0
 40
1.0
 10
36.40029706613768
 20
53.93377562499995
 30
0.0
 10
36.37066331613778
 20
53.9598806250001
 30
0.0
 10
36.33856081613771
 20
53.98351687500008
 30
0.0
 10
36.3071633161378
 20
54.00891687500007
 30
0.0
  0
LWPOLYLINE
  5
7E
330
B3
100
AcDbEntity
  8
0
 62
     7
420
 16777215
100
AcDbPolyline
 90
        2
 70
     0
 43
0.0
 10
12.77300581613781
 20
-13.62846062499989
 10
12.77300581613781
 20
-13.62846062499989
  0
SPLINE
  5
7F
330
B3
100
AcDbEntity
  8
0
 62
     7
420
 16777215
100
AcDbSpline
210
0.0
220
0.0
230
1.0
 70
     8
 71
     3
 72
     8
 73
     4
 74
     0
 42
0.000000001
 43
0.001
 12
1.0
 22
0.0
 32
0.0
 13
1.0
 23
0.0
 33
0.0
 40
0.0
 40
0.0
 40
0.0
 40
0.0
 40
1.0
 40
1.0
 40
1.0
 40
1.0
 10
36.3071633161378
 20
73.13123687500001
 30
0.0
 10
36.3071633161378
 20
75.34068312499994
 30
0.0
 10
34.51716956613768
 20
77.13138312499996
 30
0.0
 10
32.30807456613775
 20
77.13138312499996
 30
0.0
  0
LWPOLYLINE
  5
80
330
B3
100
AcDbEntity
  8
0
 62
     7
420
 16777215
100
AcDbPolyline
 90
        2
 70
     0
 43
0.0
 10
36.3071633161378
 20
54.00891687500007
 10
36.3071633161378
 20
73.13123687500001
  0
SPLINE
  5
81
330
B3
100
AcDbEntity
  8
0
 62
     7
420
 16777215
100
AcDbSpline
210
0.0
220
0.0
230
1.0
 70
     8
 71
     3
 72
     8
 73
     4
 74
     0
 42
0.000000001
 43
0.001
 12
1.0
 22
0.0
 32
0.0
 13
1.0
 23
0.0
 33
0.0
 40
0.0
 40
0.0
 40
0.0
 40
0.0
 40
1.0
 40
1.0
 40
1.0
 40
1.0
 10
31.87451081613767
 20
77.13138312499996
 30
0.0
 10
29.66541581613774
 20
77.13138312499996
 30
0.0
 10
27.87471581613772
 20
75.34068312499994
 30
0.0
 10
27.87471581613772
 20
73.13123687500001
 30
0.0
  0
LWPOLYLINE
  5
82
330
B3
100
AcDbEntity
  8
0
 62
     7
420
 16777215
100
AcDbPolyline
 90
        2
 70
     0
 43
0.0
 10
32.30807456613775
 20
77.13138312499996
 10
31.87451081613767
 20
77.13138312499996
  0
SPLINE
  5
83
330
B3
100
AcDbEntity
  8
0
 62
     7
420
 16777215
100
AcDbSpline
210
0.0
220
0.0
230
1.0
 70
     8
 71
     3
 72
     8
 73
     4
 74
     0
 42
0.000000001
 43
0.001
 12
1.0
 22
0.0
 32
0.0
 13
1.0
 23
0.0
 33
0.0
 40
0.0
 40
0.0
 40
0.0
 40
0.0
 40
1.0
 40
1.0
 40
1.0
 40
1.0
 10
27.87471581613772
 20
54.0681831249999
 30
0.0
 10
27.57026956613777
 20
53.82229812500009
 30
0.0
 10
27.28063831613781
 20
53.55030562499996
 30
0.0
 10
27.01605581613762
 20
53.24374187500007
 30
0.0
  0
SPLINE
  5
84
330
B3
100
AcDbEntity
  8
0
 62
     7
420
 16777215
100
AcDbSpline
210
0.0
220
0.0
230
1.0
 70
     8
 71
     3
 72
     8
 73
     4
 74
     0
 42
0.000000001
 43
0.001
 12
1.0
 22
0.0
 32
0.0
 13
1.0
 23
0.0
 33
0.0
 40
0.0
 40
0.0
 40
0.0
 40
0.0
 40
1.0
 40
1.0
 40
1.0
 40
1.0
 10
27.01605581613762
 20
53.24374187500007
 30
0.0
 10
26.78110581613782
 20
52.97245562500007
 30
0.0
 10
26.58143331613769
 20
52.68494187500005
 30
0.0
 10
26.39869456613769
 20
52.39001937500007
 30
0.0
  0
SPLINE
  5
85
330
B3
100
AcDbEntity
  8
0
 62
     7
420
 16777215
100
AcDbSpline
210
0.0
220
0.0
230
1.0
 70
     8
 71
     3
 72
     8
 73
     4
 74
     0
 42
0.000000001
 43
0.001
 12
1.0
 22
0.0
 32
0.0
 13
1.0
 23
0.0
 33
0.0
 40
0.0
 40
0.0
 40
0.0
 40
0.0
 40
1.0
 40
1.0
 40
1.0
 40
1.0
 10
28.31956956613772
 20
41.58831687499992
 30
0.0
 10
25.78874081613776
 20
42.53235062499994
 30
0.0
 10
23.98498831613779
 20
44.96475312500002
 30
0.0
 10
23.98781081613765
 20
47.8240168750001
 30
0.0
  0
LWPOLYLINE
  5
86
330
B3
100
AcDbEntity
  8
0
 62
     7
420
 16777215
100
AcDbPolyline
 90
        2
 70
     0
 43
0.0
 10
27.87471581613772
 20
73.13123687500001
 10
27.87471581613772
 20
54.0681831249999
  0
SPLINE
  5
87
330
B3
100
AcDbEntity
  8
0
 62
     7
420
 16777215
100
AcDbSpline
210
0.0
220
0.0
230
1.0
 70
     8
 71
     3
 72
     8
 73
     4
 74
     0
 42
0.000000001
 43
0.001
 12
1.0
 22
0.0
 32
0.0
 13
1.0
 23
0.0
 33
0.0
 40
0.0
 40
0.0
 40
0.0
 40
0.0
 40
1.0
 40
1.0
 40
1.0
 40
1.0
 10
23.98781081613765
 20
47.8240168750001
 30
0.0
 10
23.9892220661377
 20
49.10248312499994
 30
0.0
 10
24.35787456613775
 20
50.29099187499992
 30
0.0
 10
24.98617206613767
 20
51.30240562499989
 30
0.0
  0
SPLINE
  5
88
330
B3
100
AcDbEntity
  8
0
 62
     7
420
 16777215
100
AcDbSpline
210
0.0
220
0.0
230
1.0
 70
     8
 71
     3
 72
     8
 73
     4
 74
     0
 42
0.000000001
 43
0.001
 12
1.0
 22
0.0
 32
0.0
 13
1.0
 23
0.0
 33
0.0
 40
0.0
 40
0.0
 40
0.0
 40
0.0
 40
1.0
 40
1.0
 40
1.0
 40
1.0
 10
26.39869456613769
 20
45.38526437499991
 30
0.0
 10
26.74512206613781
 20
44.82646437500011
 30
0.0
 10
27.18150831613775
 20
44.31035062499996
 30
0.0
 10
27.70503081613765
 20
43.857736875
 30
0.0
  0
LWPOLYLINE
  5
89
330
B3
100
AcDbEntity
  8
0
 62
     7
420
 16777215
100
AcDbPolyline
 90
       11
 70
     0
 43
0.0
 10
12.51406581613765
 20
44.82575812499999
 10
12.11225206613767
 20
30.53755312499993
 10
20.20744456613784
 20
30.529791875
 10
20.20250581613777
 20
26.02905312500002
 10
23.29954081613778
 20
26.02587812499996
 10
23.30095206613782
 20
27.17699187500011
 10
27.10072206613768
 20
27.1731118749999
 10
27.09931081613763
 20
26.02199812499998
 10
35.56597706613775
 20
26.01388312499989
 10
35.5818520661378
 20
41.58090812499995
 10
28.31956956613772
 20
41.58831687499992
  0
SPLINE
  5
8A
330
B3
100
AcDbEntity
  8
0
 62
     7
420
 16777215
100
AcDbSpline
210
0.0
220
0.0
230
1.0
 70
     8
 71
     3
 72
     8
 73
     4
 74
     0
 42
0.000000001
 43
0.001
 12
1.0
 22
0.0
 32
0.0
 13
1.0
 23
0.0
 33
0.0
 40
0.0
 40
0.0
 40
0.0
 40
0.0
 40
1.0
 40
1.0
 40
1.0
 40
1.0
 10
27.70503081613765
 20
43.857736875
 30
0.0
 10
30.48774081613783
 20
41.45708312500005
 30
0.0
 10
34.68897206613769
 20
41.76646937500004
 30
0.0
 10
37.09068331613776
 20
44.548828125
 30
0.0
  0
SPLINE
  5
8B
330
B3
100
AcDbEntity
  8
0
 62
     7
420
 16777215
100
AcDbSpline
210
0.0
220
0.0
230
1.0
 70
     8
 71
     3
 72
     8
 73
     4
 74
     0
 42
0.000000001
 43
0.001
 12
1.0
 22
0.0
 32
0.0
 13
1.0
 23
0.0
 33
0.0
 40
0.0
 40
0.0
 40
0.0
 40
0.0
 40
1.0
 40
1.0
 40
1.0
 40
1.0
 10
11.16292706613763
 20
49.83238062500004
 30
0.0
 10
9.505930816137834
 20
49.83238062500004
 30
0.0
 10
8.162905816137709
 20
48.48900312499995
 30
0.0
 10
8.162905816137709
 20
46.83271187500009
 30
0.0
  0
SPLINE
  5
8C
330
B3
100
AcDbEntity
  8
0
 62
     7
420
 16777215
100
AcDbSpline
210
0.0
220
0.0
230
1.0
 70
     8
 71
     3
 72
     8
 73
     4
 74
     0
 42
0.000000001
 43
0.001
 12
1.0
 22
0.0
 32
0.0
 13
1.0
 23
0.0
 33
0.0
 40
0.0
 40
0.0
 40
0.0
 40
0.0
 40
1.0
 40
1.0
 40
1.0
 40
1.0
 10
37.09068331613776
 20
44.548828125
 30
0.0
 10
39.4916883161377
 20
47.33048062500006
 30
0.0
 10
39.18300831613783
 20
51.53206437499989
 30
0.0
 10
36.40029706613768
 20
53.93377562499995
 30
0.0
  0
LWPOLYLINE
  5
8D
330
B3
100
AcDbEntity
  8
0
 62
     7
420
 16777215
100
AcDbPolyline
 90
        2
 70
     0
 43
0.0
 10
26.39869456613769
 20
52.39001937500007
 10
26.39869456613769
 20
45.38526437499991
  0
LWPOLYLINE
  5
8E
330
B3
100
AcDbEntity
  8
0
 62
     7
420
 16777215
100
AcDbPolyline
 90
        4
 70
     0
 43
0.0
 10
24.98617206613767
 20
51.30240562499989
 10
24.98758331613772
 20
52.30641187500009
 10
12.74301956613772
 20
50.217966875
 10
11.16292706613763
 20
49.83238062500004
  0
SPLINE
  5
8F
330
B3
100
AcDbEntity
  8
0
 62
     7
420
 16777215
100
AcDbSpline
210
0.0
220
0.0
230
1.0
 70
     8
 71
     3
 72
     8
 73
     4
 74
     0
 42
0.000000001
 43
0.001
 12
1.0
 22
0.0
 32
0.0
 13
1.0
 23
0.0
 33
0.0
 40
0.0
 40
0.0
 40
0.0
 40
0.0
 40
1.0
 40
1.0
 40
1.0
 40
1.0
 10
33.34241956613778
 20
72.43626437500006
 30
0.0
 10
33.07924706613767
 20
71.72471187499991
 30
0.0
 10
32.28831956613772
 20
71.36099812499992
 30
0.0
 10
31.57641331613763
 20
71.62416937500006
 30
0.0
  0
SPLINE
  5
90
330
B3
100
AcDbEntity
  8
0
 62
     7
420
 16777215
100
AcDbSpline
210
0.0
220
0.0
230
1.0
 70
     8
 71
     3
 72
     8
 73
     4
 74
     0
 42
0.000000001
 43
0.001
 12
1.0
 22
0.0
 32
0.0
 13
1.0
 23
0.0
 33
0.0
 40
0.0
 40
0.0
 40
0.0
 40
0.0
 40
1.0
 40
1.0
 40
1.0
 40
1.0
 10
7.753683316137767
 20
22.67237312499992
 30
0.0
 10
7.752272066137721
 20
21.57241187499994
 30
0.0
 10
8.313894566137833
 20
20.19305062500007
 30
0.0
 10
9.000752066137693
 20
19.60638062499993
 30
0.0
  0
SPLINE
  5
91
330
B3
100
AcDbEntity
  8
0
 62
     7
420
 16777215
100
AcDbSpline
210
0.0
220
0.0
230
1.0
 70
     8
 71
     3
 72
     8
 73
     4
 74
     0
 42
0.000000001
 43
0.001
 12
1.0
 22
0.0
 32
0.0
 13
1.0
 23
0.0
 33
0.0
 40
0.0
 40
0.0
 40
0.0
 40
0.0
 40
1.0
 40
1.0
 40
1.0
 40
1.0
 10
31.57641331613763
 20
71.62416937500006
 30
0.0
 10
30.86415581613778
 20
71.88734187499995
 30
0.0
 10
30.50044081613783
 20
72.67791687499994
 30
0.0
 10
30.76326081613774
 20
73.39017562499998
 30
0.0
  0
SPLINE
  5
92
330
B3
100
AcDbEntity
  8
0
 62
     7
420
 16777215
100
AcDbSpline
210
0.0
220
0.0
230
1.0
 70
     8
 71
     3
 72
     8
 73
     4
 74
     0
 42
0.000000001
 43
0.001
 12
1.0
 22
0.0
 32
0.0
 13
1.0
 23
0.0
 33
0.0
 40
0.0
 40
0.0
 40
0.0
 40
0.0
 40
1.0
 40
1.0
 40
1.0
 40
1.0
 10
9.000752066137693
 20
19.60638062499993
 30
0.0
 10
9.687610816137749
 20
19.02006437499995
 30
0.0
 10
10.28768581613781
 20
18.53993312500006
 30
0.0
 10
10.28768581613781
 20
18.53993312500006
 30
0.0
  0
SPLINE
  5
93
330
B3
100
AcDbEntity
  8
0
 62
     7
420
 16777215
100
AcDbSpline
210
0.0
220
0.0
230
1.0
 70
     8
 71
     3
 72
     8
 73
     4
 74
     0
 42
0.000000001
 43
0.001
 12
1.0
 22
0.0
 32
0.0
 13
1.0
 23
0.0
 33
0.0
 40
0.0
 40
0.0
 40
0.0
 40
0.0
 40
1.0
 40
1.0
 40
1.0
 40
1.0
 10
30.76326081613774
 20
73.39017562499998
 30
0.0
 10
31.02713831613778
 20
74.1020806250001
 30
0.0
 10
31.81736081613781
 20
74.4654418749999
 30
0.0
 10
32.52961956613763
 20
74.20262312499995
 30
0.0
  0
LWPOLYLINE
  5
94
330
B3
100
AcDbEntity
  8
0
 62
     7
420
 16777215
100
AcDbPolyline
 90
        3
 70
     0
 43
0.0
 10
8.162905816137709
 20
46.83271187500009
 10
7.761090816137767
 20
30.54178687500007
 10
7.753683316137767
 20
22.67237312499992
  0
ENDSEC
  0
SECTION
  2
OBJECTS
  0
DICTIONARY
  5
A1
330
0
100
AcDbDictionary
281
     1
  3
ACAD_GROUP
350
A2
  3
ACAD_LAYOUT
350
AE
  3
ACAD_MATERIAL
350
CF
  3
ACAD_MLEADERSTYLE
350
EB
  3
ACAD_MLINESTYLE
350
AB
  3
ACAD_PLOTSETTINGS
350
AD
  3
ACAD_PLOTSTYLENAME
350
A3
  3
ACAD_TABLESTYLE
350
EA
  3
ACAD_VISUALSTYLE
350
BE
  3
QCAD_OBJECTS
350
D4
  0
DICTIONARY
  5
A2
102
{ACAD_REACTORS
330
A1
102
}
330
A1
100
AcDbDictionary
281
     1
  0
DICTIONARY
  5
AE
102
{ACAD_REACTORS
330
A1
102
}
330
A1
100
AcDbDictionary
281
     1
  3
Layout1
350
B2
  3
Layout2
350
BA
  3
Model
350
B6
  0
DICTIONARY
  5
CF
102
{ACAD_REACTORS
330
A1
102
}
330
A1
100
AcDbDictionary
281
     1
  3
ByBlock
350
D1
  3
ByLayer
350
D0
  3
Global
350
D2
  0
DICTIONARY
  5
EB
102
{ACAD_REACTORS
330
A1
102
}
330
A1
100
AcDbDictionary
281
     1
  0
DICTIONARY
  5
AB
102
{ACAD_REACTORS
330
A1
102
}
330
A1
100
AcDbDictionary
281
     1
  3
Standard
350
AC
  0
DICTIONARY
  5
AD
102
{ACAD_REACTORS
330
A1
102
}
330
A1
100
AcDbDictionary
281
     1
  0
ACDBDICTIONARYWDFLT
  5
A3
102
{ACAD_REACTORS
330
A1
102
}
330
A1
100
AcDbDictionary
281
     1
  3
Normal
350
A4
100
AcDbDictionaryWithDefault
340
A4
  0
DICTIONARY
  5
EA
102
{ACAD_REACTORS
330
A1
102
}
330
A1
100
AcDbDictionary
281
     1
  0
DICTIONARY
  5
BE
102
{ACAD_REACTORS
330
A1
102
}
330
A1
100
AcDbDictionary
281
     1
  3
2dWireframe
350
C3
  3
3D Hidden
350
C5
  3
3dWireframe
350
C4
  3
Basic
350
C6
  3
Brighten
350
CA
  3
ColorChange
350
CE
  3
Conceptual
350
C8
  3
Dim
350
C9
  3
Facepattern
350
CD
  3
Flat
350
BF
  3
FlatWithEdges
350
C0
  3
Gouraud
350
C1
  3
GouraudWithEdges
350
C2
  3
Linepattern
350
CC
  3
Realistic
350
C7
  3
Thicken
350
CB
  0
DICTIONARY
  5
D4
102
{ACAD_REACTORS
330
A1
102
}
330
A1
100
AcDbDictionary
281
     1
  3
Grid/DisplayGrid
350
D5
  3
PageSettings/Scale
350
D6
  0
LAYOUT
  5
B2
102
{ACAD_REACTORS
330
AE
102
}
330
AE
100
AcDbPlotSettings
  1

  2
none_device
  4

  6

 40
0.0
 41
0.0
 42
0.0
 43
0.0
 44
0.0
 45
0.0
 46
0.0
 47
0.0
 48
0.0
 49
0.0
140
0.0
141
0.0
142
1.0
143
1.0
 70
   688
 72
     0
 73
     0
 74
     5
  7

 75
    16
 76
     0
 77
     2
 78
   300
147
1.0
148
0.0
149
0.0
100
AcDbLayout
  1
Layout1
 70
     1
 71
     1
 10
0.0
 20
0.0
 11
12.0
 21
9.0
 12
0.0
 22
0.0
 32
0.0
 14
1.000000000000000E+20
 24
1.000000000000000E+20
 34
1.000000000000000E+20
 15
-1.000000000000000E+20
 25
-1.000000000000000E+20
 35
-1.000000000000000E+20
146
0.0
 13
0.0
 23
0.0
 33
0.0
 16
1.0
 26
0.0
 36
0.0
 17
0.0
 27
1.0
 37
0.0
 76
     0
330
AF
  0
LAYOUT
  5
BA
102
{ACAD_REACTORS
330
AE
102
}
330
AE
100
AcDbPlotSettings
  1

  2
none_device
  4

  6

 40
0.0
 41
0.0
 42
0.0
 43
0.0
 44
0.0
 45
0.0
 46
0.0
 47
0.0
 48
0.0
 49
0.0
140
0.0
141
0.0
142
1.0
143
1.0
 70
   688
 72
     0
 73
     0
 74
     5
  7

 75
    16
 76
     0
 77
     2
 78
   300
147
1.0
148
0.0
149
0.0
100
AcDbLayout
  1
Layout2
 70
     1
 71
     2
 10
0.0
 20
0.0
 11
0.0
 21
0.0
 12
0.0
 22
0.0
 32
0.0
 14
0.0
 24
0.0
 34
0.0
 15
0.0
 25
0.0
 35
0.0
146
0.0
 13
0.0
 23
0.0
 33
0.0
 16
1.0
 26
0.0
 36
0.0
 17
0.0
 27
1.0
 37
0.0
 76
     0
330
B7
  0
LAYOUT
  5
B6
102
{ACAD_REACTORS
330
AE
102
}
330
AE
100
AcDbPlotSettings
  1

  2
none_device
  4

  6

 40
0.0
 41
0.0
 42
0.0
 43
0.0
 44
0.0
 45
0.0
 46
0.0
 47
0.0
 48
0.0
 49
0.0
140
0.0
141
0.0
142
1.0
143
1.0
 70
  1712
 72
     0
 73
     0
 74
     0
  7

 75
     0
 76
     0
 77
     2
 78
   300
147
1.0
148
0.0
149
0.0
100
AcDbLayout
  1
Model
 70
     1
 71
     0
 10
0.0
 20
0.0
 11
12.0
 21
9.0
 12
0.0
 22
0.0
 32
0.0
 14
1.000000000000000E+20
 24
1.000000000000000E+20
 34
1.000000000000000E+20
 15
-1.000000000000000E+20
 25
-1.000000000000000E+20
 35
-1.000000000000000E+20
146
0.0
 13
0.0
 23
0.0
 33
0.0
 16
1.0
 26
0.0
 36
0.0
 17
0.0
 27
1.0
 37
0.0
 76
     0
330
B3
331
BD
  0
MATERIAL
  5
D1
102
{ACAD_REACTORS
330
CF
102
}
330
CF
100
AcDbMaterial
  1
ByBlock
 72
     1
 94
      127
  0
MATERIAL
  5
D0
102
{ACAD_REACTORS
330
CF
102
}
330
CF
100
AcDbMaterial
  1
ByLayer
 72
     1
 94
      127
  0
MATERIAL
  5
D2
102
{ACAD_REACTORS
330
CF
102
}
330
CF
100
AcDbMaterial
  1
Global
 72
     1
 94
      127
  0
MLINESTYLE
  5
AC
102
{ACAD_REACTORS
330
AB
102
}
330
AB
100
AcDbMlineStyle
  2
Standard
 70
     0
  3

 62
   256
 51
90.0
 52
90.0
 71
     2
 49
0.5
 62
   256
  6
BYLAYER
 49
-0.5
 62
   256
  6
BYLAYER
  0
ACDBPLACEHOLDER
  5
A4
102
{ACAD_REACTORS
330
A3
102
}
330
A3
  0
VISUALSTYLE
  5
C3
102
{ACAD_REACTORS
330
BE
102
}
330
BE
100
AcDbVisualStyle
  2
2dWireframe
 70
     4
177
     2
291
     0
 71
     0
176
     1
 72
     2
176
     1
 73
     0
176
     1
 90
        0
176
     1
 40
-0.6
176
     1
 41
-30.0
176
     1
 62
     5
 63
     7
421
 16777215
176
     1
 74
     1
176
     1
 91
        4
176
     1
 64
     7
176
     1
 65
   257
176
     1
 75
     1
176
     1
175
     1
176
     1
 42
1.0
176
     1
 92
        0
176
     1
 66
   257
176
     1
 43
1.0
176
     1
 76
     1
176
     1
 77
     6
176
     1
 78
     2
176
     1
 67
     7
176
     1
 79
     5
176
     1
170
     0
176
     1
171
     0
176
     1
290
     0
176
     1
 93
        1
176
     1
 44
0.0
176
     1
173
     0
176
     1
  0
VISUALSTYLE
  5
C5
102
{ACAD_REACTORS
330
BE
102
}
330
BE
100
AcDbVisualStyle
  2
3D Hidden
 70
     6
177
     2
291
     0
 71
     1
176
     1
 72
     2
176
     1
 73
     2
176
     1
 90
        0
176
     1
 40
-0.6
176
     1
 41
-30.0
176
     1
 62
     5
 63
     7
421
 16777215
176
     1
 74
     2
176
     1
 91
        2
176
     1
 64
     7
176
     1
 65
   257
176
     1
 75
     2
176
     1
175
     1
176
     1
 42
40.0
176
     1
 92
        0
176
     1
 66
   257
176
     1
 43
1.0
176
     1
 76
     1
176
     1
 77
     6
176
     1
 78
     2
176
     1
 67
     7
176
     1
 79
     3
176
     1
170
     0
176
     1
171
     0
176
     1
290
     0
176
     1
 93
        1
176
     1
 44
0.0
176
     1
173
     0
176
     1
  0
VISUALSTYLE
  5
C4
102
{ACAD_REACTORS
330
BE
102
}
330
BE
100
AcDbVisualStyle
  2
3dWireframe
 70
     5
177
     2
291
     0
 71
     0
176
     1
 72
     2
176
     1
 73
     0
176
     1
 90
        0
176
     1
 40
-0.6
176
     1
 41
-30.0
176
     1
 62
     5
 63
     7
421
 16777215
176
     1
 74
     1
176
     1
 91
        4
176
     1
 64
     7
176
     1
 65
   257
176
     1
 75
     1
176
     1
175
     1
176
     1
 42
1.0
176
     1
 92
        0
176
     1
 66
   257
176
     1
 43
1.0
176
     1
 76
     1
176
     1
 77
     6
176
     1
 78
     2
176
     1
 67
     7
176
     1
 79
     5
176
     1
170
     0
176
     1
171
     0
176
     1
290
     0
176
     1
 93
        1
176
     1
 44
0.0
176
     1
173
     0
176
     1
  0
VISUALSTYLE
  5
C6
102
{ACAD_REACTORS
330
BE
102
}
330
BE
100
AcDbVisualStyle
  2
Basic
 70
     7
177
     2
291
     1
 71
     1
176
     1
 72
     0
176
     1
 73
     1
176
     1
 90
        0
176
     1
 40
-0.6
176
     1
 41
-30.0
176
     1
 62
     5
 63
     7
421
 16777215
176
     1
 74
     0
176
     1
 91
        4
176
     1
 64
     7
176
     1
 65
   257
176
     1
 75
     1
176
     1
175
     1
176
     1
 42
1.0
176
     1
 92
        8
176
     1
 66
     7
176
     1
 43
1.0
176
     1
 76
     1
176
     1
 77
     6
176
     1
 78
     2
176
     1
 67
     7
176
     1
 79
     5
176
     1
170
     0
176
     1
171
     0
176
     1
290
     0
176
     1
 93
        1
176
     1
 44
0.0
176
     1
173
     0
176
     1
  0
VISUALSTYLE
  5
CA
102
{ACAD_REACTORS
330
BE
102
}
330
BE
100
AcDbVisualStyle
  2
Brighten
 70
    12
177
     2
291
     1
 71
     2
176
     1
 72
     2
176
     1
 73
     0
176
     1
 90
        0
176
     1
 40
-0.6
176
     1
 41
-30.0
176
     1
 62
     5
 63
     7
421
 16777215
176
     1
 74
     1
176
     1
 91
        4
176
     1
 64
     7
176
     1
 65
   257
176
     1
 75
     1
176
     1
175
     1
176
     1
 42
1.0
176
     1
 92
        8
176
     1
 66
     7
176
     1
 43
1.0
176
     1
 76
     1
176
     1
 77
     6
176
     1
 78
     2
176
     1
 67
     7
176
     1
 79
     5
176
     1
170
     0
176
     1
171
     0
176
     1
290
     0
176
     1
 93
        1
176
     1
 44
50.0
176
     1
173
     0
176
     1
  0
VISUALSTYLE
  5
CE
102
{ACAD_REACTORS
330
BE
102
}
330
BE
100
AcDbVisualStyle
  2
ColorChange
 70
    16
177
     2
291
     1
 71
     2
176
     1
 72
     2
176
     1
 73
     3
176
     1
 90
        0
176
     1
 40
-0.6
176
     1
 41
-30.0
176
     1
 62
     5
 63
     8
421
  8421504
176
     1
 74
     1
176
     1
 91
        4
176
     1
 64
     7
176
     1
 65
   257
176
     1
 75
     1
176
     1
175
     1
176
     1
 42
1.0
176
     1
 92
        8
176
     1
 66
     8
424
  8421504
176
     1
 43
1.0
176
     1
 76
     1
176
     1
 77
     6
176
     1
 78
     2
176
     1
 67
     7
176
     1
 79
     5
176
     1
170
     0
176
     1
171
     0
176
     1
290
     0
176
     1
 93
        1
176
     1
 44
0.0
176
     1
173
     0
176
     1
  0
VISUALSTYLE
  5
C8
102
{ACAD_REACTORS
330
BE
102
}
330
BE
100
AcDbVisualStyle
  2
Conceptual
 70
     9
177
     2
291
     0
 71
     3
176
     1
 72
     2
176
     1
 73
     0
176
     1
 90
        0
176
     1
 40
-0.6
176
     1
 41
-30.0
176
     1
 62
     5
 63
     7
421
 16777215
176
     1
 74
     2
176
     1
 91
        2
176
     1
 64
     7
176
     1
 65
   257
176
     1
 75
     1
176
     1
175
     1
176
     1
 42
40.0
176
     1
 92
        8
176
     1
 66
     7
176
     1
 43
1.0
176
     1
 76
     1
176
     1
 77
     6
176
     1
 78
     2
176
     1
 67
     7
176
     1
 79
     3
176
     1
170
     0
176
     1
171
     0
176
     1
290
     0
176
     1
 93
        1
176
     1
 44
0.0
176
     1
173
     0
176
     1
  0
VISUALSTYLE
  5
C9
102
{ACAD_REACTORS
330
BE
102
}
330
BE
100
AcDbVisualStyle
  2
Dim
 70
    11
177
     2
291
     1
 71
     2
176
     1
 72
     2
176
     1
 73
     0
176
     1
 90
        0
176
     1
 40
-0.6
176
     1
 41
-30.0
176
     1
 62
     5
 63
     7
421
 16777215
176
     1
 74
     1
176
     1
 91
        4
176
     1
 64
     7
176
     1
 65
   257
176
     1
 75
     1
176
     1
175
     1
176
     1
 42
1.0
176
     1
 92
        8
176
     1
 66
     7
176
     1
 43
1.0
176
     1
 76
     1
176
     1
 77
     6
176
     1
 78
     2
176
     1
 67
     7
176
     1
 79
     5
176
     1
170
     0
176
     1
171
     0
176
     1
290
     0
176
     1
 93
        1
176
     1
 44
-50.0
176
     1
173
     0
176
     1
  0
VISUALSTYLE
  5
CD
102
{ACAD_REACTORS
330
BE
102
}
330
BE
100
AcDbVisualStyle
  2
Facepattern
 70
    15
177
     2
291
     1
 71
     2
176
     1
 72
     2
176
     1
 73
     0
176
     1
 90
        0
176
     1
 40
-0.6
176
     1
 41
-30.0
176
     1
 62
     5
 63
     7
421
 16777215
176
     1
 74
     1
176
     1
 91
        4
176
     1
 64
     7
176
     1
 65
   257
176
     1
 75
     1
176
     1
175
     1
176
     1
 42
1.0
176
     1
 92
        8
176
     1
 66
     7
176
     1
 43
1.0
176
     1
 76
     1
176
     1
 77
     6
176
     1
 78
     2
176
     1
 67
     7
176
     1
 79
     5
176
     1
170
     0
176
     1
171
     0
176
     1
290
     0
176
     1
 93
        1
176
     1
 44
0.0
176
     1
173
     0
176
     1
  0
VISUALSTYLE
  5
BF
102
{ACAD_REACTORS
330
BE
102
}
330
BE
100
AcDbVisualStyle
  2
Flat
 70
     0
177
     2
291
     1
 71
     2
176
     1
 72
     1
176
     1
 73
     1
176
     1
 90
        2
176
     1
 40
-0.6
176
     1
 41
30.0
176
     1
 62
     5
 63
     7
421
 16777215
176
     1
 74
     0
176
     1
 91
        4
176
     1
 64
     7
176
     1
 65
   257
176
     1
 75
     1
176
     1
175
     1
176
     1
 42
1.0
176
     1
 92
        8
176
     1
 66
     7
176
     1
 43
1.0
176
     1
 76
     1
176
     1
 77
     6
176
     1
 78
     2
176
     1
 67
     7
176
     1
 79
     5
176
     1
170
     0
176
     1
171
     0
176
     1
290
     0
176
     1
 93
       13
176
     1
 44
0.0
176
     1
173
     0
176
     1
  0
VISUALSTYLE
  5
C0
102
{ACAD_REACTORS
330
BE
102
}
330
BE
100
AcDbVisualStyle
  2
FlatWithEdges
 70
     1
177
     2
291
     1
 71
     2
176
     1
 72
     1
176
     1
 73
     1
176
     1
 90
        2
176
     1
 40
-0.6
176
     1
 41
30.0
176
     1
 62
     5
 63
     7
421
 16777215
176
     1
 74
     1
176
     1
 91
        4
176
     1
 64
     7
176
     1
 65
   257
176
     1
 75
     1
176
     1
175
     1
176
     1
 42
1.0
176
     1
 92
        0
176
     1
 66
   257
176
     1
 43
1.0
176
     1
 76
     1
176
     1
 77
     6
176
     1
 78
     2
176
     1
 67
     7
176
     1
 79
     5
176
     1
170
     0
176
     1
171
     0
176
     1
290
     0
176
     1
 93
       13
176
     1
 44
0.0
176
     1
173
     0
176
     1
  0
VISUALSTYLE
  5
C1
102
{ACAD_REACTORS
330
BE
102
}
330
BE
100
AcDbVisualStyle
  2
Gouraud
 70
     2
177
     2
291
     1
 71
     2
176
     1
 72
     2
176
     1
 73
     1
176
     1
 90
        2
176
     1
 40
-0.6
176
     1
 41
30.0
176
     1
 62
     5
 63
     7
421
 16777215
176
     1
 74
     0
176
     1
 91
        4
176
     1
 64
     7
176
     1
 65
   257
176
     1
 75
     1
176
     1
175
     1
176
     1
 42
1.0
176
     1
 92
        0
176
     1
 66
     7
176
     1
 43
1.0
176
     1
 76
     1
176
     1
 77
     6
176
     1
 78
     2
176
     1
 67
     7
176
     1
 79
     5
176
     1
170
     0
176
     1
171
     0
176
     1
290
     0
176
     1
 93
       13
176
     1
 44
0.0
176
     1
173
     0
176
     1
  0
VISUALSTYLE
  5
C2
102
{ACAD_REACTORS
330
BE
102
}
330
BE
100
AcDbVisualStyle
  2
GouraudWithEdges
 70
     3
177
     2
291
     1
 71
     2
176
     1
 72
     2
176
     1
 73
     1
176
     1
 90
        2
176
     1
 40
-0.6
176
     1
 41
30.0
176
     1
 62
     5
 63
     7
421
 16777215
176
     1
 74
     1
176
     1
 91
        4
176
     1
 64
     7
176
     1
 65
   257
176
     1
 75
     1
176
     1
175
     1
176
     1
 42
1.0
176
     1
 92
        0
176
     1
 66
   257
176
     1
 43
1.0
176
     1
 76
     1
176
     1
 77
     6
176
     1
 78
     2
176
     1
 67
     7
176
     1
 79
     5
176
     1
170
     0
176
     1
171
     0
176
     1
290
     0
176
     1
 93
       13
176
     1
 44
0.0
176
     1
173
     0
176
     1
  0
VISUALSTYLE
  5
CC
102
{ACAD_REACTORS
330
BE
102
}
330
BE
100
AcDbVisualStyle
  2
Linepattern
 70
    14
177
     2
291
     1
 71
     2
176
     1
 72
     2
176
     1
 73
     0
176
     1
 90
        0
176
     1
 40
-0.6
176
     1
 41
-30.0
176
     1
 62
     5
 63
     7
421
 16777215
176
     1
 74
     1
176
     1
 91
        4
176
     1
 64
     7
176
     1
 65
   257
176
     1
 75
     7
176
     1
175
     7
176
     1
 42
1.0
176
     1
 92
        8
176
     1
 66
     7
176
     1
 43
1.0
176
     1
 76
     1
176
     1
 77
     6
176
     1
 78
     2
176
     1
 67
     7
176
     1
 79
     5
176
     1
170
     0
176
     1
171
     0
176
     1
290
     0
176
     1
 93
        1
176
     1
 44
0.0
176
     1
173
     0
176
     1
  0
VISUALSTYLE
  5
C7
102
{ACAD_REACTORS
330
BE
102
}
330
BE
100
AcDbVisualStyle
  2
Realistic
 70
     8
177
     2
291
     0
 71
     2
176
     1
 72
     2
176
     1
 73
     0
176
     1
 90
        0
176
     1
 40
-0.6
176
     1
 41
-30.0
176
     1
 62
     5
 63
     7
421
 16777215
176
     1
 74
     1
176
     1
 91
        0
176
     1
 64
     7
176
     1
 65
   257
176
     1
 75
     1
176
     1
175
     1
176
     1
 42
1.0
176
     1
 92
        8
176
     1
 66
     8
424
  7895160
176
     1
 43
1.0
176
     1
 76
     1
176
     1
 77
     6
176
     1
 78
     2
176
     1
 67
     7
176
     1
 79
     5
176
     1
170
     0
176
     1
171
     0
176
     1
290
     0
176
     1
 93
       13
176
     1
 44
0.0
176
     1
173
     0
176
     1
  0
VISUALSTYLE
  5
CB
102
{ACAD_REACTORS
330
BE
102
}
330
BE
100
AcDbVisualStyle
  2
Thicken
 70
    13
177
     2
291
     1
 71
     2
176
     1
 72
     2
176
     1
 73
     0
176
     1
 90
        0
176
     1
 40
-0.6
176
     1
 41
-30.0
176
     1
 62
     5
 63
     7
421
 16777215
176
     1
 74
     1
176
     1
 91
        4
176
     1
 64
     7
176
     1
 65
   257
176
     1
 75
     1
176
     1
175
     1
176
     1
 42
1.0
176
     1
 92
       12
176
     1
 66
     7
176
     1
 43
1.0
176
     1
 76
     1
176
     1
 77
     6
176
     1
 78
     2
176
     1
 67
     7
176
     1
 79
     5
176
     1
170
     0
176
     1
171
     0
176
     1
290
     0
176
     1
 93
        1
176
     1
 44
0.0
176
     1
173
     0
176
     1
  0
XRECORD
  5
D5
102
{ACAD_REACTORS
330
D4
102
}
330
D4
100
AcDbXrecord
280
     1
290
     1
  0
XRECORD
  5
D6
102
{ACAD_REACTORS
330
D4
102
}
330
D4
100
AcDbXrecord
280
     1
1000
1:1
  0
ENDSEC
  0
EOF
