  0
SECTION
  2
HEADER
  9
$ACADVER
  1
AC1024
  9
$ACADMAINTVER
 70
     6
  9
$DWGCODEPAGE
  3
ASCII
  9
$INSBASE
 10
0.0
 20
0.0
 30
0.0
  9
$EXTMIN
 10
1.000000000000000E+20
 20
1.000000000000000E+20
 30
1.000000000000000E+20
  9
$EXTMAX
 10
-1.000000000000000E+20
 20
-1.000000000000000E+20
 30
-1.000000000000000E+20
  9
$LIMMIN
 10
0.0
 20
0.0
  9
$LIMMAX
 10
12.0
 20
9.0
  9
$ORTHOMODE
 70
     0
  9
$REGENMODE
 70
     1
  9
$FILLMODE
 70
     1
  9
$QTEXTMODE
 70
     0
  9
$MIRRTEXT
 70
     1
  9
$LTSCALE
 40
1.0
  9
$ATTMODE
 70
     1
  9
$TEXTSIZE
 40
0.2
  9
$TRACEWID
 40
0.05
  9
$TEXTSTYLE
  7
Standard
  9
$CLAYER
  8
0
  9
$CELTYPE
  6
ByLayer
  9
$CECOLOR
 62
   256
  9
$CELTSCALE
 40
1.0
  9
$DISPSILH
 70
     0
  9
$DIMSCALE
 40
1.0
  9
$DIMASZ
 40
2.5
  9
$DIMEXO
 40
0.625
  9
$DIMDLI
 40
0.38
  9
$DIMRND
 40
0.0
  9
$DIMDLE
 40
0.0
  9
$DIMEXE
 40
1.25
  9
$DIMTP
 40
0.0
  9
$DIMTM
 40
0.0
  9
$DIMTXT
 40
2.5
  9
$DIMCEN
 40
0.09
  9
$DIMTSZ
 40
0.0
  9
$DIMTOL
 70
     0
  9
$DIMLIM
 70
     0
  9
$DIMTIH
 70
     1
  9
$DIMTOH
 70
     1
  9
$DIMSE1
 70
     0
  9
$DIMSE2
 70
     0
  9
$DIMTAD
 70
     0
  9
$DIMZIN
 70
     8
  9
$DIMBLK
  1

  9
$DIMASO
 70
     1
  9
$DIMSHO
 70
     1
  9
$DIMPOST
  1

  9
$DIMAPOST
  1

  9
$DIMALT
 70
     0
  9
$DIMALTD
 70
     2
  9
$DIMALTF
 40
25.4
  9
$DIMLFAC
 40
1.0
  9
$DIMTOFL
 70
     0
  9
$DIMTVP
 40
0.0
  9
$DIMTIX
 70
     0
  9
$DIMSOXD
 70
     0
  9
$DIMSAH
 70
     0
  9
$DIMBLK1
  1

  9
$DIMBLK2
  1

  9
$DIMSTYLE
  2
Standard
  9
$DIMCLRD
 70
     0
  9
$DIMCLRE
 70
     0
  9
$DIMCLRT
 70
     0
  9
$DIMTFAC
 40
1.0
  9
$DIMGAP
 40
0.625
  9
$DIMJUST
 70
     0
  9
$DIMSD1
 70
     0
  9
$DIMSD2
 70
     0
  9
$DIMTOLJ
 70
     1
  9
$DIMTZIN
 70
     0
  9
$DIMALTZ
 70
     0
  9
$DIMALTTZ
 70
     0
  9
$DIMUPT
 70
     0
  9
$DIMDEC
 70
     4
  9
$DIMTDEC
 70
     4
  9
$DIMALTU
 70
     2
  9
$DIMALTTD
 70
     2
  9
$DIMTXSTY
  7
Standard
  9
$DIMAUNIT
 70
     0
  9
$DIMADEC
 70
     0
  9
$DIMALTRND
 40
0.0
  9
$DIMAZIN
 70
     2
  9
$DIMDSEP
 70
    46
  9
$DIMATFIT
 70
     3
  9
$DIMFRAC
 70
     0
  9
$DIMLDRBLK
  1

  9
$DIMLUNIT
 70
     2
  9
$DIMLWD
 70
    -2
  9
$DIMLWE
 70
    -2
  9
$DIMTMOVE
 70
     0
  9
$DIMFXL
 40
1.0
  9
$DIMFXLON
 70
     0
  9
$DIMJOGANG
 40
0.7853981633974483
  9
$DIMTFILL
 70
     0
  9
$DIMTFILLCLR
 70
     0
  9
$DIMARCSYM
 70
     0
  9
$DIMLTYPE
  6

  9
$DIMLTEX1
  6

  9
$DIMLTEX2
  6

  9
$DIMTXTDIRECTION
 70
     0
  9
$LUNITS
 70
     2
  9
$LUPREC
 70
     4
  9
$SKETCHINC
 40
0.1
  9
$FILLETRAD
 40
0.5
  9
$AUNITS
 70
     0
  9
$AUPREC
 70
     0
  9
$MENU
  1
.
  9
$ELEVATION
 40
0.0
  9
$PELEVATION
 40
0.0
  9
$THICKNESS
 40
0.0
  9
$LIMCHECK
 70
     0
  9
$CHAMFERA
 40
0.5
  9
$CHAMFERB
 40
0.5
  9
$CHAMFERC
 40
1.0
  9
$CHAMFERD
 40
0.0
  9
$SKPOLY
 70
     0
  9
$TDCREATE
 40
2455861.684829121
  9
$TDUCREATE
 40
2455861.851495787
  9
$TDUPDATE
 40
2455861.684829121
  9
$TDUUPDATE
 40
2455861.851495787
  9
$TDINDWG
 40
0.0000000116
  9
$TDUSRTIMER
 40
0.0000000116
  9
$USRTIMER
 70
     1
  9
$ANGBASE
 50
0.0
  9
$ANGDIR
 70
     0
  9
$PDMODE
 70
     0
  9
$PDSIZE
 40
0.0
  9
$PLINEWID
 40
0.0
  9
$SPLFRAME
 70
     0
  9
$SPLINETYPE
 70
     6
  9
$SPLINESEGS
 70
     8
  9
$HANDSEED
  5
E1
  9
$SURFTAB1
 70
     6
  9
$SURFTAB2
 70
     6
  9
$SURFTYPE
 70
     6
  9
$SURFU
 70
     6
  9
$SURFV
 70
     6
  9
$UCSBASE
  2

  9
$UCSNAME
  2

  9
$UCSORG
 10
0.0
 20
0.0
 30
0.0
  9
$UCSXDIR
 10
1.0
 20
0.0
 30
0.0
  9
$UCSYDIR
 10
0.0
 20
1.0
 30
0.0
  9
$UCSORTHOREF
  2

  9
$UCSORTHOVIEW
 70
     0
  9
$UCSORGTOP
 10
0.0
 20
0.0
 30
0.0
  9
$UCSORGBOTTOM
 10
0.0
 20
0.0
 30
0.0
  9
$UCSORGLEFT
 10
0.0
 20
0.0
 30
0.0
  9
$UCSORGRIGHT
 10
0.0
 20
0.0
 30
0.0
  9
$UCSORGFRONT
 10
0.0
 20
0.0
 30
0.0
  9
$UCSORGBACK
 10
0.0
 20
0.0
 30
0.0
  9
$PUCSBASE
  2

  9
$PUCSNAME
  2

  9
$PUCSORG
 10
0.0
 20
0.0
 30
0.0
  9
$PUCSXDIR
 10
1.0
 20
0.0
 30
0.0
  9
$PUCSYDIR
 10
0.0
 20
1.0
 30
0.0
  9
$PUCSORTHOREF
  2

  9
$PUCSORTHOVIEW
 70
     0
  9
$PUCSORGTOP
 10
0.0
 20
0.0
 30
0.0
  9
$PUCSORGBOTTOM
 10
0.0
 20
0.0
 30
0.0
  9
$PUCSORGLEFT
 10
0.0
 20
0.0
 30
0.0
  9
$PUCSORGRIGHT
 10
0.0
 20
0.0
 30
0.0
  9
$PUCSORGFRONT
 10
0.0
 20
0.0
 30
0.0
  9
$PUCSORGBACK
 10
0.0
 20
0.0
 30
0.0
  9
$USERI1
 70
     0
  9
$USERI2
 70
     0
  9
$USERI3
 70
     0
  9
$USERI4
 70
     0
  9
$USERI5
 70
     0
  9
$USERR1
 40
0.0
  9
$USERR2
 40
0.0
  9
$USERR3
 40
0.0
  9
$USERR4
 40
0.0
  9
$USERR5
 40
0.0
  9
$WORLDVIEW
 70
     1
  9
$SHADEDGE
 70
     3
  9
$SHADEDIF
 70
    70
  9
$TILEMODE
 70
     1
  9
$MAXACTVP
 70
    64
  9
$PINSBASE
 10
0.0
 20
0.0
 30
0.0
  9
$PLIMCHECK
 70
     0
  9
$PEXTMIN
 10
1.000000000000000E+20
 20
1.000000000000000E+20
 30
1.000000000000000E+20
  9
$PEXTMAX
 10
-1.000000000000000E+20
 20
-1.000000000000000E+20
 30
-1.000000000000000E+20
  9
$PLIMMIN
 10
0.0
 20
0.0
  9
$PLIMMAX
 10
12.0
 20
9.0
  9
$UNITMODE
 70
     0
  9
$VISRETAIN
 70
     1
  9
$PLINEGEN
 70
     0
  9
$PSLTSCALE
 70
     1
  9
$TREEDEPTH
 70
  3020
  9
$CMLSTYLE
  2
Standard
  9
$CMLJUST
 70
     0
  9
$CMLSCALE
 40
1.0
  9
$PROXYGRAPHICS
 70
     1
  9
$MEASUREMENT
 70
     1
  9
$CELWEIGHT
370
    -1
  9
$ENDCAPS
280
     0
  9
$JOINSTYLE
280
     0
  9
$LWDISPLAY
290
     0
  9
$INSUNITS
 70
     4
  9
$HYPERLINKBASE
  1

  9
$STYLESHEET
  1

  9
$XEDIT
290
     1
  9
$CEPSNTYPE
380
     0
  9
$PSTYLEMODE
290
     1
  9
$FINGERPRINTGUID
  2
{D227A338-85E0-4549-970C-3ABD6A78C893}
  9
$VERSIONGUID
  2
{FAEB1C32-E019-11D5-929B-00C0DF256EC4}
  9
$EXTNAMES
290
     1
  9
$PSVPSCALE
 40
0.0
  9
$OLESTARTUP
290
     0
  9
$SORTENTS
280
   127
  9
$INDEXCTL
280
     0
  9
$HIDETEXT
280
     1
  9
$XCLIPFRAME
280
     2
  9
$HALOGAP
280
     0
  9
$OBSCOLOR
 70
   257
  9
$OBSLTYPE
280
     0
  9
$INTERSECTIONDISPLAY
280
     0
  9
$INTERSECTIONCOLOR
 70
   257
  9
$DIMASSOC
280
     2
  9
$PROJECTNAME
  1

  9
$CAMERADISPLAY
290
     0
  9
$LENSLENGTH
 40
50.0
  9
$CAMERAHEIGHT
 40
0.0
  9
$STEPSPERSEC
 40
2.0
  9
$STEPSIZE
 40
6.0
  9
$3DDWFPREC
 40
2.0
  9
$PSOLWIDTH
 40
0.25
  9
$PSOLHEIGHT
 40
4.0
  9
$LOFTANG1
 40
1.570796326794897
  9
$LOFTANG2
 40
1.570796326794897
  9
$LOFTMAG1
 40
0.0
  9
$LOFTMAG2
 40
0.0
  9
$LOFTPARAM
 70
     7
  9
$LOFTNORMALS
280
     1
  9
$LATITUDE
 40
37.795
  9
$LONGITUDE
 40
-122.394
  9
$NORTHDIRECTION
 40
0.0
  9
$TIMEZONE
 70
 -8000
  9
$LIGHTGLYPHDISPLAY
280
     1
  9
$TILEMODELIGHTSYNCH
280
     1
  9
$SOLIDHIST
280
     1
  9
$SHOWHIST
280
     1
  9
$DWFFRAME
280
     2
  9
$DGNFRAME
280
     2
  9
$REALWORLDSCALE
290
     1
  9
$INTERFERECOLOR
 62
   256
  9
$CSHADOW
280
     0
  9
$SHADOWPLANELOCATION
 40
0.0
  0
ENDSEC
  0
SECTION
  2
CLASSES
  0
CLASS
  1
ACDBDICTIONARYWDFLT
  2
AcDbDictionaryWithDefault
  3
ObjectDBX Classes
 90
        0
 91
        4
280
     0
281
     0
  0
CLASS
  1
VISUALSTYLE
  2
AcDbVisualStyle
  3
ObjectDBX Classes
 90
     4095
 91
        4
280
     0
281
     0
  0
CLASS
  1
MATERIAL
  2
AcDbMaterial
  3
ObjectDBX Classes
 90
     1153
 91
        4
280
     0
281
     0
  0
ENDSEC
  0
SECTION
  2
TABLES
  0
TABLE
  2
VPORT
  5
91
330
0
100
AcDbSymbolTable
 70
     1
  0
VPORT
  5
B1
330
91
100
AcDbSymbolTableRecord
100
AcDbViewportTableRecord
  2
*Active
 70
     0
 10
0.0
 20
0.0
 11
1.0
 21
1.0
 12
10.42990654205607
 22
4.5
 13
0.0
 23
0.0
 14
0.5
 24
0.5
 15
0.5
 25
0.5
 16
0.0
 26
0.0
 36
1.0
 17
0.0
 27
0.0
 37
0.0
 40
9.0
 41
1.972972972850329
 42
50.0
 43
0.0
 44
0.0
 50
0.0
 51
0.0
 71
     0
 72
   100
 73
     1
 74
     3
 75
     0
 76
     0
 77
     0
 78
     0
281
     0
 65
     1
110
0.0
120
0.0
130
0.0
111
1.0
121
0.0
131
0.0
112
0.0
122
1.0
132
0.0
 79
     0
146
0.0
 60
     3
 61
     5
292
     1
282
     1
141
0.0
142
0.0
 63
   250
  0
ENDTAB
  0
TABLE
  2
LTYPE
  5
8E
330
0
100
AcDbSymbolTable
 70
    19
  0
LTYPE
  5
9C
330
8E
100
AcDbSymbolTableRecord
100
AcDbLinetypeTableRecord
  2
ByBlock
 70
     0
  3

 72
    65
 73
     0
 40
0.0
  0
LTYPE
  5
9D
330
8E
100
AcDbSymbolTableRecord
100
AcDbLinetypeTableRecord
  2
ByLayer
 70
     0
  3

 72
    65
 73
     0
 40
0.0
  0
LTYPE
  5
9E
330
8E
100
AcDbSymbolTableRecord
100
AcDbLinetypeTableRecord
  2
Continuous
 70
     0
  3
Solid line
 72
    65
 73
     0
 40
0.0
  0
LTYPE
  5
CC
330
8E
100
AcDbSymbolTableRecord
100
AcDbLinetypeTableRecord
  2
BORDER
 70
     0
  3

 72
    65
 73
     6
 40
42.00000000000001
 49
12.0
 74
     0
 49
-6.0
 74
     0
 49
12.0
 74
     0
 49
-5.95
 74
     0
 49
0.1
 74
     0
 49
-5.95
 74
     0
  0
LTYPE
  5
CD
330
8E
100
AcDbSymbolTableRecord
100
AcDbLinetypeTableRecord
  2
BORDER2
 70
     0
  3

 72
    65
 73
     6
 40
21.0
 49
6.0
 74
     0
 49
-3.0
 74
     0
 49
6.0
 74
     0
 49
-2.95
 74
     0
 49
0.1
 74
     0
 49
-2.95
 74
     0
  0
LTYPE
  5
CE
330
8E
100
AcDbSymbolTableRecord
100
AcDbLinetypeTableRecord
  2
BORDERX2
 70
     0
  3

 72
    65
 73
     6
 40
84.0
 49
24.0
 74
     0
 49
-12.0
 74
     0
 49
24.0
 74
     0
 49
-11.95
 74
     0
 49
0.1
 74
     0
 49
-11.95
 74
     0
  0
LTYPE
  5
CF
330
8E
100
AcDbSymbolTableRecord
100
AcDbLinetypeTableRecord
  2
CENTER
 70
     0
  3

 72
    65
 73
     4
 40
50.0
 49
32.0
 74
     0
 49
-6.0
 74
     0
 49
6.0
 74
     0
 49
-6.0
 74
     0
  0
LTYPE
  5
D0
330
8E
100
AcDbSymbolTableRecord
100
AcDbLinetypeTableRecord
  2
CENTER2
 70
     0
  3

 72
    65
 73
     4
 40
25.0
 49
16.0
 74
     0
 49
-3.0
 74
     0
 49
3.0
 74
     0
 49
-3.0
 74
     0
  0
LTYPE
  5
D1
330
8E
100
AcDbSymbolTableRecord
100
AcDbLinetypeTableRecord
  2
CENTERX2
 70
     0
  3

 72
    65
 73
     4
 40
100.0
 49
64.0
 74
     0
 49
-12.0
 74
     0
 49
12.0
 74
     0
 49
-12.0
 74
     0
  0
LTYPE
  5
D2
330
8E
100
AcDbSymbolTableRecord
100
AcDbLinetypeTableRecord
  2
DASHDOT
 70
     0
  3

 72
    65
 73
     4
 40
24.0
 49
12.0
 74
     0
 49
-5.95
 74
     0
 49
0.1
 74
     0
 49
-5.95
 74
     0
  0
LTYPE
  5
D3
330
8E
100
AcDbSymbolTableRecord
100
AcDbLinetypeTableRecord
  2
DASHDOT2
 70
     0
  3

 72
    65
 73
     4
 40
12.0
 49
6.0
 74
     0
 49
-2.95
 74
     0
 49
0.1
 74
     0
 49
-2.95
 74
     0
  0
LTYPE
  5
D4
330
8E
100
AcDbSymbolTableRecord
100
AcDbLinetypeTableRecord
  2
DASHDOTX2
 70
     0
  3

 72
    65
 73
     4
 40
48.0
 49
24.0
 74
     0
 49
-11.95
 74
     0
 49
0.1
 74
     0
 49
-11.95
 74
     0
  0
LTYPE
  5
D5
330
8E
100
AcDbSymbolTableRecord
100
AcDbLinetypeTableRecord
  2
DASHED
 70
     0
  3

 72
    65
 73
     2
 40
18.0
 49
12.0
 74
     0
 49
-6.0
 74
     0
  0
LTYPE
  5
D6
330
8E
100
AcDbSymbolTableRecord
100
AcDbLinetypeTableRecord
  2
DASHED2
 70
     0
  3

 72
    65
 73
     2
 40
9.0
 49
6.0
 74
     0
 49
-3.0
 74
     0
  0
LTYPE
  5
D7
330
8E
100
AcDbSymbolTableRecord
100
AcDbLinetypeTableRecord
  2
DASHEDX2
 70
     0
  3

 72
    65
 73
     2
 40
36.0
 49
24.0
 74
     0
 49
-12.0
 74
     0
  0
LTYPE
  5
D8
330
8E
100
AcDbSymbolTableRecord
100
AcDbLinetypeTableRecord
  2
DIVIDE
 70
     0
  3

 72
    65
 73
     6
 40
29.99999999999999
 49
12.0
 74
     0
 49
-5.9
 74
     0
 49
0.15
 74
     0
 49
-5.9
 74
     0
 49
0.15
 74
     0
 49
-5.9
 74
     0
  0
LTYPE
  5
D9
330
8E
100
AcDbSymbolTableRecord
100
AcDbLinetypeTableRecord
  2
DIVIDE2
 70
     0
  3

 72
    65
 73
     6
 40
15.0
 49
6.0
 74
     0
 49
-2.9
 74
     0
 49
0.15
 74
     0
 49
-2.9
 74
     0
 49
0.15
 74
     0
 49
-2.9
 74
     0
  0
LTYPE
  5
DA
330
8E
100
AcDbSymbolTableRecord
100
AcDbLinetypeTableRecord
  2
DIVIDEX2
 70
     0
  3

 72
    65
 73
     6
 40
59.99999999999999
 49
24.0
 74
     0
 49
-11.9
 74
     0
 49
0.15
 74
     0
 49
-11.9
 74
     0
 49
0.15
 74
     0
 49
-11.9
 74
     0
  0
LTYPE
  5
DB
330
8E
100
AcDbSymbolTableRecord
100
AcDbLinetypeTableRecord
  2
DOT
 70
     0
  3

 72
    65
 73
     2
 40
6.3
 49
0.1
 74
     0
 49
-6.2
 74
     0
  0
LTYPE
  5
DC
330
8E
100
AcDbSymbolTableRecord
100
AcDbLinetypeTableRecord
  2
DOT2
 70
     0
  3

 72
    65
 73
     2
 40
3.2
 49
0.1
 74
     0
 49
-3.1
 74
     0
  0
LTYPE
  5
DD
330
8E
100
AcDbSymbolTableRecord
100
AcDbLinetypeTableRecord
  2
DOTX2
 70
     0
  3

 72
    65
 73
     2
 40
12.5
 49
0.1
 74
     0
 49
-12.4
 74
     0
  0
ENDTAB
  0
TABLE
  2
LAYER
  5
8B
330
0
100
AcDbSymbolTable
 70
     2
  0
LAYER
  5
99
330
8B
100
AcDbSymbolTableRecord
100
AcDbLayerTableRecord
  2
0
 70
     0
 62
     7
420
 16777215
  6
Continuous
370
    25
390
98
347
C6
  0
LAYER
  5
DE
330
8B
100
AcDbSymbolTableRecord
100
AcDbLayerTableRecord
  2
Cuts
 70
     0
 62
     1
420
 16711680
  6
Continuous
370
    25
390
98
347
C6
  0
ENDTAB
  0
TABLE
  2
STYLE
  5
8C
330
0
100
AcDbSymbolTable
 70
     1
  0
STYLE
  5
9A
330
8C
100
AcDbSymbolTableRecord
100
AcDbTextStyleTableRecord
  2
Standard
 70
     0
 40
0.0
 41
1.0
 50
0.0
 71
     0
 42
0.2
  3
txt
  4

  0
ENDTAB
  0
TABLE
  2
VIEW
  5
8F
330
0
100
AcDbSymbolTable
 70
     0
  0
ENDTAB
  0
TABLE
  2
UCS
  5
90
330
0
100
AcDbSymbolTable
 70
     0
  0
ENDTAB
  0
TABLE
  2
APPID
  5
92
330
0
100
AcDbSymbolTable
 70
     2
  0
APPID
  5
9B
330
92
100
AcDbSymbolTableRecord
100
AcDbRegAppTableRecord
  2
ACAD
 70
     0
  0
APPID
  5
C7
330
92
100
AcDbSymbolTableRecord
100
AcDbRegAppTableRecord
  2
QCAD
 70
     0
  0
ENDTAB
  0
TABLE
  2
DIMSTYLE
  5
93
330
0
100
AcDbSymbolTable
 70
     2
100
AcDbDimStyleTable
  0
DIMSTYLE
105
AF
330
93
100
AcDbSymbolTableRecord
100
AcDbDimStyleTableRecord
  2
Standard
 70
     0
178
     0
340
9A
  0
DIMSTYLE
105
CB
330
93
100
AcDbSymbolTableRecord
100
AcDbDimStyleTableRecord
  2
QCADDimStyle
 70
     0
 41
2.5
 42
0.625
 44
1.25
 73
     0
 77
     1
140
2.5
147
0.625
178
     0
340
9A
  0
ENDTAB
  0
TABLE
  2
BLOCK_RECORD
  5
8A
330
0
100
AcDbSymbolTable
 70
     1
  0
BLOCK_RECORD
  5
A7
330
8A
100
AcDbSymbolTableRecord
100
AcDbBlockTableRecord
  2
*Model_Space
340
AA
 70
     0
280
     1
281
     0
  0
BLOCK_RECORD
  5
A3
330
8A
100
AcDbSymbolTableRecord
100
AcDbBlockTableRecord
  2
*Paper_Space
340
A6
 70
     0
280
     1
281
     0
  0
BLOCK_RECORD
  5
AB
330
8A
100
AcDbSymbolTableRecord
100
AcDbBlockTableRecord
  2
*Paper_Space0
340
AE
 70
     0
280
     1
281
     0
  0
ENDTAB
  0
ENDSEC
  0
SECTION
  2
BLOCKS
  0
BLOCK
  5
A8
330
A7
100
AcDbEntity
  8
0
100
AcDbBlockBegin
  2
*Model_Space
 70
     0
 10
0.0
 20
0.0
 30
0.0
  3
*Model_Space
  1

  0
ENDBLK
  5
A9
330
A7
100
AcDbEntity
  8
0
100
AcDbBlockEnd
  0
BLOCK
  5
A4
330
A3
100
AcDbEntity
 67
     1
  8
0
100
AcDbBlockBegin
  2
*Paper_Space
 70
     0
 10
0.0
 20
0.0
 30
0.0
  3
*Paper_Space
  1

  0
ENDBLK
  5
A5
330
A3
100
AcDbEntity
 67
     1
  8
0
100
AcDbBlockEnd
  0
BLOCK
  5
AC
330
AB
100
AcDbEntity
  8
0
100
AcDbBlockBegin
  2
*Paper_Space0
 70
     0
 10
0.0
 20
0.0
 30
0.0
  3
*Paper_Space0
  1

  0
ENDBLK
  5
AD
330
AB
100
AcDbEntity
  8
0
100
AcDbBlockEnd
  0
ENDSEC
  0
SECTION
  2
ENTITIES
  0
SPLINE
  5
18
330
A7
100
AcDbEntity
  8
Cuts
 62
     1
420
 16711680
370
    25
100
AcDbSpline
210
0.0
220
0.0
230
1.0
 70
     8
 71
     3
 72
     8
 73
     4
 74
     0
 42
0.000000001
 43
0.001
 12
1.0
 22
0.0
 32
0.0
 13
1.0
 23
0.0
 33
0.0
 40
0.0
 40
0.0
 40
0.0
 40
0.0
 40
1.0
 40
1.0
 40
1.0
 40
1.0
 10
22.28115206613779
 20
-16.12743562500009
 30
0.0
 10
22.28115206613779
 20
-16.40401312499989
 30
0.0
 10
22.05713831613775
 20
-16.62767437499997
 30
0.0
 10
21.78091331613768
 20
-16.62767437499997
 30
0.0
  0
LWPOLYLINE
  5
19
330
A7
100
AcDbEntity
  8
Cuts
 62
     1
420
 16711680
370
    25
100
AcDbPolyline
 90
        2
 70
     0
 43
0.0
 10
22.28115206613779
 20
-10.36410562500009
 10
22.28115206613779
 20
-16.12743562500009
  0
SPLINE
  5
1A
330
A7
100
AcDbEntity
  8
Cuts
 62
     1
420
 16711680
370
    25
100
AcDbSpline
210
0.0
220
0.0
230
1.0
 70
     8
 71
     3
 72
     8
 73
     4
 74
     0
 42
0.000000001
 43
0.001
 12
1.0
 22
0.0
 32
0.0
 13
1.0
 23
0.0
 33
0.0
 40
0.0
 40
0.0
 40
0.0
 40
0.0
 40
1.0
 40
1.0
 40
1.0
 40
1.0
 10
20.98081331613776
 20
-16.62767437499997
 30
0.0
 10
20.70458831613769
 20
-16.62767437499997
 30
0.0
 10
20.48057456613765
 20
-16.40401312499989
 30
0.0
 10
20.48057456613765
 20
-16.12743562500009
 30
0.0
  0
LWPOLYLINE
  5
1B
330
A7
100
AcDbEntity
  8
Cuts
 62
     1
420
 16711680
370
    25
100
AcDbPolyline
 90
        2
 70
     0
 43
0.0
 10
21.78091331613768
 20
-16.62767437499997
 10
20.98081331613776
 20
-16.62767437499997
  0
SPLINE
  5
1C
330
A7
100
AcDbEntity
  8
Cuts
 62
     1
420
 16711680
370
    25
100
AcDbSpline
210
0.0
220
0.0
230
1.0
 70
     8
 71
     3
 72
     8
 73
     4
 74
     0
 42
0.000000001
 43
0.001
 12
1.0
 22
0.0
 32
0.0
 13
1.0
 23
0.0
 33
0.0
 40
0.0
 40
0.0
 40
0.0
 40
0.0
 40
1.0
 40
1.0
 40
1.0
 40
1.0
 10
33.31956956613772
 20
43.58796437499996
 30
0.0
 10
30.78874081613776
 20
44.53199812499997
 30
0.0
 10
28.98498831613779
 20
46.96440062500005
 30
0.0
 10
28.98781081613765
 20
49.82366437499991
 30
0.0
  0
SPLINE
  5
1D
330
A7
100
AcDbEntity
  8
Cuts
 62
     1
420
 16711680
370
    25
100
AcDbSpline
210
0.0
220
0.0
230
1.0
 70
     8
 71
     3
 72
     8
 73
     4
 74
     0
 42
0.000000001
 43
0.001
 12
1.0
 22
0.0
 32
0.0
 13
1.0
 23
0.0
 33
0.0
 40
0.0
 40
0.0
 40
0.0
 40
0.0
 40
1.0
 40
1.0
 40
1.0
 40
1.0
 10
20.48057456613765
 20
-10.36375187499993
 30
0.0
 10
20.85663581613767
 20
-10.29354937499988
 30
0.0
 10
21.09229081613762
 20
-9.96440812500009
 30
0.0
 10
21.09229081613762
 20
-9.567533124999954
 30
0.0
  0
SPLINE
  5
1E
330
A7
100
AcDbEntity
  8
Cuts
 62
     1
420
 16711680
370
    25
100
AcDbSpline
210
0.0
220
0.0
230
1.0
 70
     8
 71
     3
 72
     8
 73
     4
 74
     0
 42
0.000000001
 43
0.001
 12
1.0
 22
0.0
 32
0.0
 13
1.0
 23
0.0
 33
0.0
 40
0.0
 40
0.0
 40
0.0
 40
0.0
 40
1.0
 40
1.0
 40
1.0
 40
1.0
 10
28.98781081613765
 20
49.82366437499991
 30
0.0
 10
28.98781081613765
 20
51.10213062499997
 30
0.0
 10
29.35787456613775
 20
52.29063937499996
 30
0.0
 10
29.98617206613767
 20
53.30205312499993
 30
0.0
  0
LWPOLYLINE
  5
1F
330
A7
100
AcDbEntity
  8
Cuts
 62
     1
420
 16711680
370
    25
100
AcDbPolyline
 90
        2
 70
     0
 43
0.0
 10
20.48057456613765
 20
-16.12743562500009
 10
20.48057456613765
 20
-10.36375187499993
  0
LWPOLYLINE
  5
20
330
A7
100
AcDbEntity
  8
Cuts
 62
     1
420
 16711680
370
    25
100
AcDbPolyline
 90
       11
 70
     0
 43
0.0
 10
17.51406581613765
 20
46.82575812499999
 10
17.11225206613767
 20
32.53755312499993
 10
25.20744456613784
 20
32.529791875
 10
25.20250581613777
 20
28.02905312500002
 10
28.29954081613778
 20
28.025525625
 10
28.29954081613778
 20
29.17663937499992
 10
32.09931081613763
 20
29.17275812499997
 10
32.09931081613763
 20
28.02164437500005
 10
40.56597706613775
 20
28.01353062499993
 10
40.5818520661378
 20
43.58055562499999
 10
33.31956956613772
 20
43.58796437499996
  0
SPLINE
  5
21
330
A7
100
AcDbEntity
  8
Cuts
 62
     1
420
 16711680
370
    25
100
AcDbSpline
210
0.0
220
0.0
230
1.0
 70
     8
 71
     3
 72
     8
 73
     4
 74
     0
 42
0.000000001
 43
0.001
 12
1.0
 22
0.0
 32
0.0
 13
1.0
 23
0.0
 33
0.0
 40
0.0
 40
0.0
 40
0.0
 40
0.0
 40
1.0
 40
1.0
 40
1.0
 40
1.0
 10
21.08594081613774
 20
-9.567533124999954
 30
0.0
 10
21.08594081613774
 20
-8.527896874999897
 30
0.0
 10
19.89884456613777
 20
-7.685816875
 30
0.0
 10
19.89884456613777
 20
-7.685816875
 30
0.0
  0
SPLINE
  5
22
330
A7
100
AcDbEntity
  8
Cuts
 62
     1
420
 16711680
370
    25
100
AcDbSpline
210
0.0
220
0.0
230
1.0
 70
     8
 71
     3
 72
     8
 73
     4
 74
     0
 42
0.000000001
 43
0.001
 12
1.0
 22
0.0
 32
0.0
 13
1.0
 23
0.0
 33
0.0
 40
0.0
 40
0.0
 40
0.0
 40
0.0
 40
1.0
 40
1.0
 40
1.0
 40
1.0
 10
16.16151581613781
 20
51.83202812500008
 30
0.0
 10
14.50451956613779
 20
51.83202812500008
 30
0.0
 10
13.16149456613766
 20
50.48865062499999
 30
0.0
 10
13.16149456613766
 20
48.83235812499993
 30
0.0
  0
LWPOLYLINE
  5
23
330
A7
100
AcDbEntity
  8
Cuts
 62
     1
420
 16711680
370
    25
100
AcDbPolyline
 90
        2
 70
     0
 43
0.0
 10
21.09229081613762
 20
-9.567533124999954
 10
21.08594081613774
 20
-9.567533124999954
  0
LWPOLYLINE
  5
24
330
A7
100
AcDbEntity
  8
Cuts
 62
     1
420
 16711680
370
    25
100
AcDbPolyline
 90
        4
 70
     0
 43
0.0
 10
29.98617206613767
 20
53.30205312499993
 10
29.98617206613767
 20
54.30605812499994
 10
17.74160831613767
 20
52.21761437500004
 10
16.16151581613781
 20
51.83202812500008
  0
SPLINE
  5
25
330
A7
100
AcDbEntity
  8
Cuts
 62
     1
420
 16711680
370
    25
100
AcDbSpline
210
0.0
220
0.0
230
1.0
 70
     8
 71
     3
 72
     8
 73
     4
 74
     0
 42
0.000000001
 43
0.001
 12
1.0
 22
0.0
 32
0.0
 13
1.0
 23
0.0
 33
0.0
 40
0.0
 40
0.0
 40
0.0
 40
0.0
 40
1.0
 40
1.0
 40
1.0
 40
1.0
 10
18.47538581613776
 20
-7.685816875
 30
0.0
 10
17.94269081613766
 20
-8.383610625000074
 30
0.0
 10
17.15423331613783
 20
-8.871501874999922
 30
0.0
 10
16.25041581613777
 20
-9.017199375000018
 30
0.0
  0
SPLINE
  5
26
330
A7
100
AcDbEntity
  8
Cuts
 62
     1
420
 16711680
370
    25
100
AcDbSpline
210
0.0
220
0.0
230
1.0
 70
     8
 71
     3
 72
     8
 73
     4
 74
     0
 42
0.000000001
 43
0.001
 12
1.0
 22
0.0
 32
0.0
 13
1.0
 23
0.0
 33
0.0
 40
0.0
 40
0.0
 40
0.0
 40
0.0
 40
1.0
 40
1.0
 40
1.0
 40
1.0
 10
12.75227206613772
 20
24.67201937499999
 30
0.0
 10
12.75227206613772
 20
23.57205812500001
 30
0.0
 10
13.31248331613779
 20
22.19269812500011
 30
0.0
 10
13.99934081613765
 20
21.60602812499997
 30
0.0
  0
SPLINE
  5
27
330
A7
100
AcDbEntity
  8
Cuts
 62
     1
420
 16711680
370
    25
100
AcDbSpline
210
0.0
220
0.0
230
1.0
 70
     8
 71
     3
 72
     8
 73
     4
 74
     0
 42
0.000000001
 43
0.001
 12
1.0
 22
0.0
 32
0.0
 13
1.0
 23
0.0
 33
0.0
 40
0.0
 40
0.0
 40
0.0
 40
0.0
 40
1.0
 40
1.0
 40
1.0
 40
1.0
 10
16.25041581613777
 20
-9.017199375000018
 30
0.0
 10
16.17527456613766
 20
-9.017551874999981
 30
0.0
 10
16.10224956613774
 20
-9.022491875000014
 30
0.0
 10
16.02993081613772
 20
-9.027783125000042
 30
0.0
  0
SPLINE
  5
28
330
A7
100
AcDbEntity
  8
Cuts
 62
     1
420
 16711680
370
    25
100
AcDbSpline
210
0.0
220
0.0
230
1.0
 70
     8
 71
     3
 72
     8
 73
     4
 74
     0
 42
0.000000001
 43
0.001
 12
1.0
 22
0.0
 32
0.0
 13
1.0
 23
0.0
 33
0.0
 40
0.0
 40
0.0
 40
0.0
 40
0.0
 40
1.0
 40
1.0
 40
1.0
 40
1.0
 10
13.99934081613765
 20
21.60602812499997
 30
0.0
 10
14.6861995661377
 20
21.01971187499998
 30
0.0
 10
15.28627456613776
 20
20.5395806250001
 30
0.0
 10
15.28627456613776
 20
20.5395806250001
 30
0.0
  0
SPLINE
  5
29
330
A7
100
AcDbEntity
  8
Cuts
 62
     1
420
 16711680
370
    25
100
AcDbSpline
210
0.0
220
0.0
230
1.0
 70
     8
 71
     3
 72
     8
 73
     4
 74
     0
 42
0.000000001
 43
0.001
 12
1.0
 22
0.0
 32
0.0
 13
1.0
 23
0.0
 33
0.0
 40
0.0
 40
0.0
 40
0.0
 40
0.0
 40
1.0
 40
1.0
 40
1.0
 40
1.0
 10
16.02993081613772
 20
-9.027783125000042
 30
0.0
 10
15.90998581613781
 20
-9.035896874999935
 30
0.0
 10
15.79004081613766
 20
-9.047891875000005
 30
0.0
 10
15.67362456613773
 20
-9.065530625000065
 30
0.0
  0
LWPOLYLINE
  5
2A
330
A7
100
AcDbEntity
  8
Cuts
 62
     1
420
 16711680
370
    25
100
AcDbPolyline
 90
        3
 70
     0
 43
0.0
 10
13.16149456613766
 20
48.83235812499993
 10
12.75968081613769
 20
32.54143312499991
 10
12.75227206613772
 20
24.67201937499999
  0
SPLINE
  5
2B
330
A7
100
AcDbEntity
  8
Cuts
 62
     1
420
 16711680
370
    25
100
AcDbSpline
210
0.0
220
0.0
230
1.0
 70
     8
 71
     3
 72
     8
 73
     4
 74
     0
 42
0.000000001
 43
0.001
 12
1.0
 22
0.0
 32
0.0
 13
1.0
 23
0.0
 33
0.0
 40
0.0
 40
0.0
 40
0.0
 40
0.0
 40
1.0
 40
1.0
 40
1.0
 40
1.0
 10
41.40029706613768
 20
55.93377562499995
 30
0.0
 10
41.37066331613778
 20
55.9598806250001
 30
0.0
 10
41.33856081613771
 20
55.98351687500008
 30
0.0
 10
41.3071633161378
 20
56.00891687500007
 30
0.0
  0
SPLINE
  5
2C
330
A7
100
AcDbEntity
  8
Cuts
 62
     1
420
 16711680
370
    25
100
AcDbSpline
210
0.0
220
0.0
230
1.0
 70
     8
 71
     3
 72
     8
 73
     4
 74
     0
 42
0.000000001
 43
0.001
 12
1.0
 22
0.0
 32
0.0
 13
1.0
 23
0.0
 33
0.0
 40
0.0
 40
0.0
 40
0.0
 40
0.0
 40
1.0
 40
1.0
 40
1.0
 40
1.0
 10
15.67362456613773
 20
-9.065530625000065
 30
0.0
 10
13.89950581613766
 20
-9.331876875000034
 30
0.0
 10
12.50779706613775
 20
-10.75498312500008
 30
0.0
 10
12.29260206613776
 20
-12.54462437500001
 30
0.0
  0
SPLINE
  5
2D
330
A7
100
AcDbEntity
  8
Cuts
 62
     1
420
 16711680
370
    25
100
AcDbSpline
210
0.0
220
0.0
230
1.0
 70
     8
 71
     3
 72
     8
 73
     4
 74
     0
 42
0.000000001
 43
0.001
 12
1.0
 22
0.0
 32
0.0
 13
1.0
 23
0.0
 33
0.0
 40
0.0
 40
0.0
 40
0.0
 40
0.0
 40
1.0
 40
1.0
 40
1.0
 40
1.0
 10
41.3071633161378
 20
75.13123687500001
 30
0.0
 10
41.3071633161378
 20
77.34068312499994
 30
0.0
 10
39.51716956613768
 20
79.13138312499996
 30
0.0
 10
37.30807456613775
 20
79.13138312499996
 30
0.0
  0
LWPOLYLINE
  5
2E
330
A7
100
AcDbEntity
  8
Cuts
 62
     1
420
 16711680
370
    25
100
AcDbPolyline
 90
        2
 70
     0
 43
0.0
 10
19.89884456613777
 20
-7.685816875
 10
18.47538581613776
 20
-7.685816875
  0
LWPOLYLINE
  5
2F
330
A7
100
AcDbEntity
  8
Cuts
 62
     1
420
 16711680
370
    25
100
AcDbPolyline
 90
        2
 70
     0
 43
0.0
 10
41.3071633161378
 20
56.00891687500007
 10
41.3071633161378
 20
75.13123687500001
  0
SPLINE
  5
30
330
A7
100
AcDbEntity
  8
Cuts
 62
     1
420
 16711680
370
    25
100
AcDbSpline
210
0.0
220
0.0
230
1.0
 70
     8
 71
     3
 72
     8
 73
     4
 74
     0
 42
0.000000001
 43
0.001
 12
1.0
 22
0.0
 32
0.0
 13
1.0
 23
0.0
 33
0.0
 40
0.0
 40
0.0
 40
0.0
 40
0.0
 40
1.0
 40
1.0
 40
1.0
 40
1.0
 10
12.29260206613776
 20
-20.2316518749999
 30
0.0
 10
12.51379456613768
 20
-22.07103562499992
 30
0.0
 10
13.97782206613783
 20
-23.52589187500007
 30
0.0
 10
15.82108581613784
 20
-23.73261937500001
 30
0.0
  0
SPLINE
  5
31
330
A7
100
AcDbEntity
  8
Cuts
 62
     1
420
 16711680
370
    25
100
AcDbSpline
210
0.0
220
0.0
230
1.0
 70
     8
 71
     3
 72
     8
 73
     4
 74
     0
 42
0.000000001
 43
0.001
 12
1.0
 22
0.0
 32
0.0
 13
1.0
 23
0.0
 33
0.0
 40
0.0
 40
0.0
 40
0.0
 40
0.0
 40
1.0
 40
1.0
 40
1.0
 40
1.0
 10
36.87451081613767
 20
79.13138312499996
 30
0.0
 10
34.66541581613774
 20
79.13138312499996
 30
0.0
 10
32.87471581613772
 20
77.34068312499994
 30
0.0
 10
32.87471581613772
 20
75.13123687500001
 30
0.0
  0
LWPOLYLINE
  5
32
330
A7
100
AcDbEntity
  8
Cuts
 62
     1
420
 16711680
370
    25
100
AcDbPolyline
 90
        2
 70
     0
 43
0.0
 10
12.29260206613776
 20
-12.54462437500001
 10
12.29260206613776
 20
-20.2316518749999
  0
LWPOLYLINE
  5
33
330
A7
100
AcDbEntity
  8
Cuts
 62
     1
420
 16711680
370
    25
100
AcDbPolyline
 90
        2
 70
     0
 43
0.0
 10
37.30807456613775
 20
79.13138312499996
 10
36.87451081613767
 20
79.13138312499996
  0
SPLINE
  5
34
330
A7
100
AcDbEntity
  8
Cuts
 62
     1
420
 16711680
370
    25
100
AcDbSpline
210
0.0
220
0.0
230
1.0
 70
     8
 71
     3
 72
     8
 73
     4
 74
     0
 42
0.000000001
 43
0.001
 12
1.0
 22
0.0
 32
0.0
 13
1.0
 23
0.0
 33
0.0
 40
0.0
 40
0.0
 40
0.0
 40
0.0
 40
1.0
 40
1.0
 40
1.0
 40
1.0
 10
15.97419081613771
 20
-23.7463768749999
 30
0.0
 10
16.02851956613767
 20
-23.75061062500004
 30
0.0
 10
16.08319956613764
 20
-23.75202187500008
 30
0.0
 10
16.13788081613779
 20
-23.75378562500009
 30
0.0
  0
SPLINE
  5
35
330
A7
100
AcDbEntity
  8
Cuts
 62
     1
420
 16711680
370
    25
100
AcDbSpline
210
0.0
220
0.0
230
1.0
 70
     8
 71
     3
 72
     8
 73
     4
 74
     0
 42
0.000000001
 43
0.001
 12
1.0
 22
0.0
 32
0.0
 13
1.0
 23
0.0
 33
0.0
 40
0.0
 40
0.0
 40
0.0
 40
0.0
 40
1.0
 40
1.0
 40
1.0
 40
1.0
 10
32.87471581613772
 20
56.0681831249999
 30
0.0
 10
32.57026956613777
 20
55.82229812500009
 30
0.0
 10
32.28063831613781
 20
55.55030562499996
 30
0.0
 10
32.01605581613762
 20
55.24374187500007
 30
0.0
  0
SPLINE
  5
36
330
A7
100
AcDbEntity
  8
Cuts
 62
     1
420
 16711680
370
    25
100
AcDbSpline
210
0.0
220
0.0
230
1.0
 70
     8
 71
     3
 72
     8
 73
     4
 74
     0
 42
0.000000001
 43
0.001
 12
1.0
 22
0.0
 32
0.0
 13
1.0
 23
0.0
 33
0.0
 40
0.0
 40
0.0
 40
0.0
 40
0.0
 40
1.0
 40
1.0
 40
1.0
 40
1.0
 10
16.13788081613779
 20
-23.75378562500009
 30
0.0
 10
17.10061081613776
 20
-23.8765518749999
 30
0.0
 10
17.93916331613764
 20
-24.39054937500009
 30
0.0
 10
18.49443581613764
 20
-25.13138312499996
 30
0.0
  0
SPLINE
  5
37
330
A7
100
AcDbEntity
  8
Cuts
 62
     1
420
 16711680
370
    25
100
AcDbSpline
210
0.0
220
0.0
230
1.0
 70
     8
 71
     3
 72
     8
 73
     4
 74
     0
 42
0.000000001
 43
0.001
 12
1.0
 22
0.0
 32
0.0
 13
1.0
 23
0.0
 33
0.0
 40
0.0
 40
0.0
 40
0.0
 40
0.0
 40
1.0
 40
1.0
 40
1.0
 40
1.0
 10
32.01605581613762
 20
55.24374187500007
 30
0.0
 10
31.78110581613782
 20
54.97245562500007
 30
0.0
 10
31.58143331613769
 20
54.68494187500005
 30
0.0
 10
31.39869456613769
 20
54.39001937500007
 30
0.0
  0
LWPOLYLINE
  5
38
330
A7
100
AcDbEntity
  8
Cuts
 62
     1
420
 16711680
370
    25
100
AcDbPolyline
 90
        2
 70
     0
 43
0.0
 10
15.82108581613784
 20
-23.73261937500001
 10
15.97419081613771
 20
-23.7463768749999
  0
LWPOLYLINE
  5
39
330
A7
100
AcDbEntity
  8
Cuts
 62
     1
420
 16711680
370
    25
100
AcDbPolyline
 90
        2
 70
     0
 43
0.0
 10
32.87471581613772
 20
75.13123687500001
 10
32.87471581613772
 20
56.0681831249999
  0
SPLINE
  5
3A
330
A7
100
AcDbEntity
  8
Cuts
 62
     1
420
 16711680
370
    25
100
AcDbSpline
210
0.0
220
0.0
230
1.0
 70
     8
 71
     3
 72
     8
 73
     4
 74
     0
 42
0.000000001
 43
0.001
 12
1.0
 22
0.0
 32
0.0
 13
1.0
 23
0.0
 33
0.0
 40
0.0
 40
0.0
 40
0.0
 40
0.0
 40
1.0
 40
1.0
 40
1.0
 40
1.0
 10
33.7820608161378
 20
-25.13138312499996
 30
0.0
 10
34.11296581613783
 20
-24.69781937500011
 30
0.0
 10
34.54829456613766
 20
-24.35386062499992
 30
0.0
 10
35.04429956613762
 20
-24.11432437500002
 30
0.0
  0
SPLINE
  5
3B
330
A7
100
AcDbEntity
  8
Cuts
 62
     1
420
 16711680
370
    25
100
AcDbSpline
210
0.0
220
0.0
230
1.0
 70
     8
 71
     3
 72
     8
 73
     4
 74
     0
 42
0.000000001
 43
0.001
 12
1.0
 22
0.0
 32
0.0
 13
1.0
 23
0.0
 33
0.0
 40
0.0
 40
0.0
 40
0.0
 40
0.0
 40
1.0
 40
1.0
 40
1.0
 40
1.0
 10
31.39869456613769
 20
47.38526437499991
 30
0.0
 10
31.74512206613781
 20
46.82646437500011
 30
0.0
 10
32.18150831613775
 20
46.31035062499996
 30
0.0
 10
32.70503081613765
 20
45.857736875
 30
0.0
  0
SPLINE
  5
3C
330
A7
100
AcDbEntity
  8
Cuts
 62
     1
420
 16711680
370
    25
100
AcDbSpline
210
0.0
220
0.0
230
1.0
 70
     8
 71
     3
 72
     8
 73
     4
 74
     0
 42
0.000000001
 43
0.001
 12
1.0
 22
0.0
 32
0.0
 13
1.0
 23
0.0
 33
0.0
 40
0.0
 40
0.0
 40
0.0
 40
0.0
 40
1.0
 40
1.0
 40
1.0
 40
1.0
 10
35.04429956613762
 20
-24.11432437500002
 30
0.0
 10
36.5739445661377
 20
-23.9777993749999
 30
0.0
 10
37.77303581613774
 20
-22.69404187500004
 30
0.0
 10
37.77303581613774
 20
-21.12841312499995
 30
0.0
  0
SPLINE
  5
3D
330
A7
100
AcDbEntity
  8
Cuts
 62
     1
420
 16711680
370
    25
100
AcDbSpline
210
0.0
220
0.0
230
1.0
 70
     8
 71
     3
 72
     8
 73
     4
 74
     0
 42
0.000000001
 43
0.001
 12
1.0
 22
0.0
 32
0.0
 13
1.0
 23
0.0
 33
0.0
 40
0.0
 40
0.0
 40
0.0
 40
0.0
 40
1.0
 40
1.0
 40
1.0
 40
1.0
 10
32.70503081613765
 20
45.857736875
 30
0.0
 10
35.48774081613783
 20
43.45708312500005
 30
0.0
 10
39.68897206613769
 20
43.76646937500004
 30
0.0
 10
42.09068331613776
 20
46.548828125
 30
0.0
  0
LWPOLYLINE
  5
3E
330
A7
100
AcDbEntity
  8
Cuts
 62
     1
420
 16711680
370
    25
100
AcDbPolyline
 90
        2
 70
     0
 43
0.0
 10
18.49443581613764
 20
-25.13138312499996
 10
33.7820608161378
 20
-25.13138312499996
  0
SPLINE
  5
3F
330
A7
100
AcDbEntity
  8
Cuts
 62
     1
420
 16711680
370
    25
100
AcDbSpline
210
0.0
220
0.0
230
1.0
 70
     8
 71
     3
 72
     8
 73
     4
 74
     0
 42
0.000000001
 43
0.001
 12
1.0
 22
0.0
 32
0.0
 13
1.0
 23
0.0
 33
0.0
 40
0.0
 40
0.0
 40
0.0
 40
0.0
 40
1.0
 40
1.0
 40
1.0
 40
1.0
 10
42.09068331613776
 20
46.548828125
 30
0.0
 10
44.4916883161377
 20
49.33048062500006
 30
0.0
 10
44.18300831613783
 20
53.53206437499989
 30
0.0
 10
41.40029706613768
 20
55.93377562499995
 30
0.0
  0
SPLINE
  5
40
330
A7
100
AcDbEntity
  8
Cuts
 62
     1
420
 16711680
370
    25
100
AcDbSpline
210
0.0
220
0.0
230
1.0
 70
     8
 71
     3
 72
     8
 73
     4
 74
     0
 42
0.000000001
 43
0.001
 12
1.0
 22
0.0
 32
0.0
 13
1.0
 23
0.0
 33
0.0
 40
0.0
 40
0.0
 40
0.0
 40
0.0
 40
1.0
 40
1.0
 40
1.0
 40
1.0
 10
17.77300581613781
 20
-20.48988562499994
 30
0.0
 10
17.77300581613781
 20
-21.31820812499996
 30
0.0
 10
17.10202206613781
 20
-21.98954437499992
 30
0.0
 10
16.27369956613779
 20
-21.98954437499992
 30
0.0
  0
LWPOLYLINE
  5
41
330
A7
100
AcDbEntity
  8
Cuts
 62
     1
420
 16711680
370
    25
100
AcDbPolyline
 90
        2
 70
     0
 43
0.0
 10
31.39869456613769
 20
54.39001937500007
 10
31.39869456613769
 20
47.38526437499991
  0
SPLINE
  5
42
330
A7
100
AcDbEntity
  8
Cuts
 62
     1
420
 16711680
370
    25
100
AcDbSpline
210
0.0
220
0.0
230
1.0
 70
     8
 71
     3
 72
     8
 73
     4
 74
     0
 42
0.000000001
 43
0.001
 12
1.0
 22
0.0
 32
0.0
 13
1.0
 23
0.0
 33
0.0
 40
0.0
 40
0.0
 40
0.0
 40
0.0
 40
1.0
 40
1.0
 40
1.0
 40
1.0
 10
16.27369956613779
 20
-21.98954437499992
 30
0.0
 10
15.44467206613763
 20
-21.98954437499992
 30
0.0
 10
14.77333581613766
 20
-21.31820812499996
 30
0.0
 10
14.77333581613766
 20
-20.48988562499994
 30
0.0
  0
SPLINE
  5
43
330
A7
100
AcDbEntity
  8
Cuts
 62
     1
420
 16711680
370
    25
100
AcDbSpline
210
0.0
220
0.0
230
1.0
 70
     8
 71
     3
 72
     8
 73
     4
 74
     0
 42
0.000000001
 43
0.001
 12
1.0
 22
0.0
 32
0.0
 13
1.0
 23
0.0
 33
0.0
 40
0.0
 40
0.0
 40
0.0
 40
0.0
 40
1.0
 40
1.0
 40
1.0
 40
1.0
 10
38.34241956613778
 20
74.43626437500006
 30
0.0
 10
38.07924706613767
 20
73.72471187499991
 30
0.0
 10
37.28831956613772
 20
73.36099812499992
 30
0.0
 10
36.57641331613763
 20
73.62416937500006
 30
0.0
  0
LWPOLYLINE
  5
44
330
A7
100
AcDbEntity
  8
Cuts
 62
     1
420
 16711680
370
    25
100
AcDbPolyline
 90
        5
 70
     0
 43
0.0
 10
22.95178331613783
 20
-7.685816875
 10
22.95178331613783
 20
-7.685816875
 10
22.95531081613763
 20
-7.685816875
 10
22.95178331613783
 20
-7.685816875
 10
22.95178331613783
 20
-7.685816875
  0
SPLINE
  5
45
330
A7
100
AcDbEntity
  8
Cuts
 62
     1
420
 16711680
370
    25
100
AcDbSpline
210
0.0
220
0.0
230
1.0
 70
     8
 71
     3
 72
     8
 73
     4
 74
     0
 42
0.000000001
 43
0.001
 12
1.0
 22
0.0
 32
0.0
 13
1.0
 23
0.0
 33
0.0
 40
0.0
 40
0.0
 40
0.0
 40
0.0
 40
1.0
 40
1.0
 40
1.0
 40
1.0
 10
36.57641331613763
 20
73.62416937500006
 30
0.0
 10
35.86415581613778
 20
73.88734187499995
 30
0.0
 10
35.50044081613783
 20
74.67791687499994
 30
0.0
 10
35.76326081613774
 20
75.39017562499998
 30
0.0
  0
SPLINE
  5
46
330
A7
100
AcDbEntity
  8
Cuts
 62
     1
420
 16711680
370
    25
100
AcDbSpline
210
0.0
220
0.0
230
1.0
 70
     8
 71
     3
 72
     8
 73
     4
 74
     0
 42
0.000000001
 43
0.001
 12
1.0
 22
0.0
 32
0.0
 13
1.0
 23
0.0
 33
0.0
 40
0.0
 40
0.0
 40
0.0
 40
0.0
 40
1.0
 40
1.0
 40
1.0
 40
1.0
 10
14.77333581613766
 20
-16.90848562499991
 30
0.0
 10
14.77333581613766
 20
-16.07981062499994
 30
0.0
 10
15.44467206613763
 20
-15.40847437499997
 30
0.0
 10
16.27369956613779
 20
-15.40847437499997
 30
0.0
  0
SPLINE
  5
47
330
A7
100
AcDbEntity
  8
Cuts
 62
     1
420
 16711680
370
    25
100
AcDbSpline
210
0.0
220
0.0
230
1.0
 70
     8
 71
     3
 72
     8
 73
     4
 74
     0
 42
0.000000001
 43
0.001
 12
1.0
 22
0.0
 32
0.0
 13
1.0
 23
0.0
 33
0.0
 40
0.0
 40
0.0
 40
0.0
 40
0.0
 40
1.0
 40
1.0
 40
1.0
 40
1.0
 10
35.76326081613774
 20
75.39017562499998
 30
0.0
 10
36.02713831613778
 20
76.1020806250001
 30
0.0
 10
36.81736081613781
 20
76.4654418749999
 30
0.0
 10
37.52961956613763
 20
76.20262312499995
 30
0.0
  0
SPLINE
  5
48
330
A7
100
AcDbEntity
  8
Cuts
 62
     1
420
 16711680
370
    25
100
AcDbSpline
210
0.0
220
0.0
230
1.0
 70
     8
 71
     3
 72
     8
 73
     4
 74
     0
 42
0.000000001
 43
0.001
 12
1.0
 22
0.0
 32
0.0
 13
1.0
 23
0.0
 33
0.0
 40
0.0
 40
0.0
 40
0.0
 40
0.0
 40
1.0
 40
1.0
 40
1.0
 40
1.0
 10
16.27369956613779
 20
-15.40847437499997
 30
0.0
 10
17.10202206613781
 20
-15.40847437499997
 30
0.0
 10
17.77300581613781
 20
-16.07981062499994
 30
0.0
 10
17.77300581613781
 20
-16.90848562499991
 30
0.0
  0
SPLINE
  5
49
330
A7
100
AcDbEntity
  8
Cuts
 62
     1
420
 16711680
370
    25
100
AcDbSpline
210
0.0
220
0.0
230
1.0
 70
     8
 71
     3
 72
     8
 73
     4
 74
     0
 42
0.000000001
 43
0.001
 12
1.0
 22
0.0
 32
0.0
 13
1.0
 23
0.0
 33
0.0
 40
0.0
 40
0.0
 40
0.0
 40
0.0
 40
1.0
 40
1.0
 40
1.0
 40
1.0
 10
37.52961956613763
 20
76.20262312499995
 30
0.0
 10
38.24081956613782
 20
75.93945062500006
 30
0.0
 10
38.60559081613769
 20
75.14852312500011
 30
0.0
 10
38.34241956613778
 20
74.43626437500006
 30
0.0
  0
LWPOLYLINE
  5
4A
330
A7
100
AcDbEntity
  8
Cuts
 62
     1
420
 16711680
370
    25
100
AcDbPolyline
 90
        2
 70
     0
 43
0.0
 10
14.77333581613766
 20
-20.48988562499994
 10
14.77333581613766
 20
-16.90848562499991
  0
SPLINE
  5
4B
330
A7
100
AcDbEntity
  8
Cuts
 62
     1
420
 16711680
370
    25
100
AcDbSpline
210
0.0
220
0.0
230
1.0
 70
     8
 71
     3
 72
     8
 73
     4
 74
     0
 42
0.000000001
 43
0.001
 12
1.0
 22
0.0
 32
0.0
 13
1.0
 23
0.0
 33
0.0
 40
0.0
 40
0.0
 40
0.0
 40
0.0
 40
1.0
 40
1.0
 40
1.0
 40
1.0
 10
37.38674456613762
 20
50.59871687500004
 30
0.0
 10
37.10910831613774
 20
49.84871187499994
 30
0.0
 10
36.2754945661377
 20
49.46488937499998
 30
0.0
 10
35.52443081613774
 20
49.74217312499991
 30
0.0
  0
SPLINE
  5
4C
330
A7
100
AcDbEntity
  8
Cuts
 62
     1
420
 16711680
370
    25
100
AcDbSpline
210
0.0
220
0.0
230
1.0
 70
     8
 71
     3
 72
     8
 73
     4
 74
     0
 42
0.000000001
 43
0.001
 12
1.0
 22
0.0
 32
0.0
 13
1.0
 23
0.0
 33
0.0
 40
0.0
 40
0.0
 40
0.0
 40
0.0
 40
1.0
 40
1.0
 40
1.0
 40
1.0
 10
36.27302456613779
 20
-21.12841312499995
 30
0.0
 10
36.27302456613779
 20
-20.29973812499998
 30
0.0
 10
35.60168831613782
 20
-19.62840187500001
 30
0.0
 10
34.77301331613762
 20
-19.62840187500001
 30
0.0
  0
SPLINE
  5
4D
330
A7
100
AcDbEntity
  8
Cuts
 62
     1
420
 16711680
370
    25
100
AcDbSpline
210
0.0
220
0.0
230
1.0
 70
     8
 71
     3
 72
     8
 73
     4
 74
     0
 42
0.000000001
 43
0.001
 12
1.0
 22
0.0
 32
0.0
 13
1.0
 23
0.0
 33
0.0
 40
0.0
 40
0.0
 40
0.0
 40
0.0
 40
1.0
 40
1.0
 40
1.0
 40
1.0
 10
35.52443081613774
 20
49.74217312499991
 30
0.0
 10
34.77336581613781
 20
50.01980812500005
 30
0.0
 10
34.38954456613783
 20
50.85412812499999
 30
0.0
 10
34.66718081613772
 20
51.60519187499995
 30
0.0
  0
SPLINE
  5
4E
330
A7
100
AcDbEntity
  8
Cuts
 62
     1
420
 16711680
370
    25
100
AcDbSpline
210
0.0
220
0.0
230
1.0
 70
     8
 71
     3
 72
     8
 73
     4
 74
     0
 42
0.000000001
 43
0.001
 12
1.0
 22
0.0
 32
0.0
 13
1.0
 23
0.0
 33
0.0
 40
0.0
 40
0.0
 40
0.0
 40
0.0
 40
1.0
 40
1.0
 40
1.0
 40
1.0
 10
34.77301331613762
 20
-19.62840187500001
 30
0.0
 10
33.94504456613777
 20
-19.62840187500001
 30
0.0
 10
33.27300206613768
 20
-20.29973812499998
 30
0.0
 10
33.27300206613768
 20
-21.12841312499995
 30
0.0
  0
SPLINE
  5
4F
330
A7
100
AcDbEntity
  8
Cuts
 62
     1
420
 16711680
370
    25
100
AcDbSpline
210
0.0
220
0.0
230
1.0
 70
     8
 71
     3
 72
     8
 73
     4
 74
     0
 42
0.000000001
 43
0.001
 12
1.0
 22
0.0
 32
0.0
 13
1.0
 23
0.0
 33
0.0
 40
0.0
 40
0.0
 40
0.0
 40
0.0
 40
1.0
 40
1.0
 40
1.0
 40
1.0
 10
34.66718081613772
 20
51.60519187499995
 30
0.0
 10
34.94552206613776
 20
52.35590312499994
 30
0.0
 10
35.7791358161378
 20
52.739019375
 30
0.0
 10
36.52949456613783
 20
52.46173687500004
 30
0.0
  0
SPLINE
  5
50
330
A7
100
AcDbEntity
  8
Cuts
 62
     1
420
 16711680
370
    25
100
AcDbSpline
210
0.0
220
0.0
230
1.0
 70
     8
 71
     3
 72
     8
 73
     4
 74
     0
 42
0.000000001
 43
0.001
 12
1.0
 22
0.0
 32
0.0
 13
1.0
 23
0.0
 33
0.0
 40
0.0
 40
0.0
 40
0.0
 40
0.0
 40
1.0
 40
1.0
 40
1.0
 40
1.0
 10
33.27300206613768
 20
-21.12841312499995
 30
0.0
 10
33.27300206613768
 20
-21.95673562499996
 30
0.0
 10
33.94504456613777
 20
-22.62877687500009
 30
0.0
 10
34.77301331613762
 20
-22.62877687500009
 30
0.0
  0
SPLINE
  5
51
330
A7
100
AcDbEntity
  8
Cuts
 62
     1
420
 16711680
370
    25
100
AcDbSpline
210
0.0
220
0.0
230
1.0
 70
     8
 71
     3
 72
     8
 73
     4
 74
     0
 42
0.000000001
 43
0.001
 12
1.0
 22
0.0
 32
0.0
 13
1.0
 23
0.0
 33
0.0
 40
0.0
 40
0.0
 40
0.0
 40
0.0
 40
1.0
 40
1.0
 40
1.0
 40
1.0
 10
36.52949456613783
 20
52.46173687500004
 30
0.0
 10
37.27985206613766
 20
52.18445312499989
 30
0.0
 10
37.66402706613781
 20
51.35013312499996
 30
0.0
 10
37.38674456613762
 20
50.59871687500004
 30
0.0
  0
SPLINE
  5
52
330
A7
100
AcDbEntity
  8
Cuts
 62
     1
420
 16711680
370
    25
100
AcDbSpline
210
0.0
220
0.0
230
1.0
 70
     8
 71
     3
 72
     8
 73
     4
 74
     0
 42
0.000000001
 43
0.001
 12
1.0
 22
0.0
 32
0.0
 13
1.0
 23
0.0
 33
0.0
 40
0.0
 40
0.0
 40
0.0
 40
0.0
 40
1.0
 40
1.0
 40
1.0
 40
1.0
 10
34.77301331613762
 20
-22.62877687500009
 30
0.0
 10
35.60168831613782
 20
-22.62877687500009
 30
0.0
 10
36.27302456613779
 20
-21.956383125
 30
0.0
 10
36.27302456613779
 20
-21.12841312499995
 30
0.0
  0
LWPOLYLINE
  5
53
330
A7
100
AcDbEntity
  8
Cuts
 62
     1
420
 16711680
370
    25
100
AcDbPolyline
 90
        3
 70
     0
 43
0.0
 10
17.77300581613781
 20
-16.90848562499991
 10
17.77300581613781
 20
-20.48988562499994
 10
17.77300581613781
 20
-20.48988562499994
  0
SPLINE
  5
54
330
A7
100
AcDbEntity
  8
Cuts
 62
     1
420
 16711680
370
    25
100
AcDbSpline
210
0.0
220
0.0
230
1.0
 70
     8
 71
     3
 72
     8
 73
     4
 74
     0
 42
0.000000001
 43
0.001
 12
1.0
 22
0.0
 32
0.0
 13
1.0
 23
0.0
 33
0.0
 40
0.0
 40
0.0
 40
0.0
 40
0.0
 40
1.0
 40
1.0
 40
1.0
 40
1.0
 10
17.77300581613781
 20
-11.62846062499989
 30
0.0
 10
17.77300581613781
 20
-10.8001381250001
 30
0.0
 10
17.10202206613781
 20
-10.12844937499995
 30
0.0
 10
16.27369956613779
 20
-10.12844937499995
 30
0.0
  0
SPLINE
  5
55
330
A7
100
AcDbEntity
  8
Cuts
 62
     1
420
 16711680
370
    25
100
AcDbSpline
210
0.0
220
0.0
230
1.0
 70
     8
 71
     3
 72
     8
 73
     4
 74
     0
 42
0.000000001
 43
0.001
 12
1.0
 22
0.0
 32
0.0
 13
1.0
 23
0.0
 33
0.0
 40
0.0
 40
0.0
 40
0.0
 40
0.0
 40
1.0
 40
1.0
 40
1.0
 40
1.0
 10
16.27369956613779
 20
-10.12844937499995
 30
0.0
 10
15.44467206613763
 20
-10.12844937499995
 30
0.0
 10
14.77333581613766
 20
-10.8001381250001
 30
0.0
 10
14.77333581613766
 20
-11.62846062499989
 30
0.0
  0
SPLINE
  5
56
330
A7
100
AcDbEntity
  8
Cuts
 62
     1
420
 16711680
370
    25
100
AcDbSpline
210
0.0
220
0.0
230
1.0
 70
     8
 71
     3
 72
     8
 73
     4
 74
     0
 42
0.000000001
 43
0.001
 12
1.0
 22
0.0
 32
0.0
 13
1.0
 23
0.0
 33
0.0
 40
0.0
 40
0.0
 40
0.0
 40
0.0
 40
1.0
 40
1.0
 40
1.0
 40
1.0
 10
14.77333581613766
 20
-11.62846062499989
 30
0.0
 10
14.77333581613766
 20
-12.4567831249999
 30
0.0
 10
15.44467206613763
 20
-13.12847187500006
 30
0.0
 10
16.27369956613779
 20
-13.12847187500006
 30
0.0
  0
SPLINE
  5
57
330
A7
100
AcDbEntity
  8
Cuts
 62
     1
420
 16711680
370
    25
100
AcDbSpline
210
0.0
220
0.0
230
1.0
 70
     8
 71
     3
 72
     8
 73
     4
 74
     0
 42
0.000000001
 43
0.001
 12
1.0
 22
0.0
 32
0.0
 13
1.0
 23
0.0
 33
0.0
 40
0.0
 40
0.0
 40
0.0
 40
0.0
 40
1.0
 40
1.0
 40
1.0
 40
1.0
 10
16.27369956613779
 20
-13.12847187500006
 30
0.0
 10
17.10202206613781
 20
-13.12847187500006
 30
0.0
 10
17.77300581613781
 20
-12.4567831249999
 30
0.0
 10
17.77300581613781
 20
-11.62846062499989
 30
0.0
  0
SPLINE
  5
58
330
A7
100
AcDbEntity
  8
Cuts
 62
     1
420
 16711680
370
    25
100
AcDbSpline
210
0.0
220
0.0
230
1.0
 70
     8
 71
     3
 72
     8
 73
     4
 74
     0
 42
0.000000001
 43
0.001
 12
1.0
 22
0.0
 32
0.0
 13
1.0
 23
0.0
 33
0.0
 40
0.0
 40
0.0
 40
0.0
 40
0.0
 40
1.0
 40
1.0
 40
1.0
 40
1.0
 10
19.25643581613781
 20
13.9348756249999
 30
0.0
 10
19.25643581613781
 20
14.73568062499999
 30
0.0
 10
19.90695831613766
 20
15.38408687500009
 30
0.0
 10
20.70741081613778
 20
15.38338062499997
 30
0.0
  0
SPLINE
  5
59
330
A7
100
AcDbEntity
  8
Cuts
 62
     1
420
 16711680
370
    25
100
AcDbSpline
210
0.0
220
0.0
230
1.0
 70
     8
 71
     3
 72
     8
 73
     4
 74
     0
 42
0.000000001
 43
0.001
 12
1.0
 22
0.0
 32
0.0
 13
1.0
 23
0.0
 33
0.0
 40
0.0
 40
0.0
 40
0.0
 40
0.0
 40
1.0
 40
1.0
 40
1.0
 40
1.0
 10
20.70741081613778
 20
15.38338062499997
 30
0.0
 10
21.50786331613767
 20
15.38338062499997
 30
0.0
 10
22.15626956613778
 20
14.73285812499989
 30
0.0
 10
22.15556331613766
 20
13.932405625
 30
0.0
  0
SPLINE
  5
5A
330
A7
100
AcDbEntity
  8
Cuts
 62
     1
420
 16711680
370
    25
100
AcDbSpline
210
0.0
220
0.0
230
1.0
 70
     8
 71
     3
 72
     8
 73
     4
 74
     0
 42
0.000000001
 43
0.001
 12
1.0
 22
0.0
 32
0.0
 13
1.0
 23
0.0
 33
0.0
 40
0.0
 40
0.0
 40
0.0
 40
0.0
 40
1.0
 40
1.0
 40
1.0
 40
1.0
 10
22.15556331613766
 20
13.932405625
 30
0.0
 10
22.15556331613766
 20
13.13195312500011
 30
0.0
 10
21.50504081613781
 20
12.48354812499997
 30
0.0
 10
20.70458831613769
 20
12.4842531249999
 30
0.0
  0
SPLINE
  5
5B
330
A7
100
AcDbEntity
  8
Cuts
 62
     1
420
 16711680
370
    25
100
AcDbSpline
210
0.0
220
0.0
230
1.0
 70
     8
 71
     3
 72
     8
 73
     4
 74
     0
 42
0.000000001
 43
0.001
 12
1.0
 22
0.0
 32
0.0
 13
1.0
 23
0.0
 33
0.0
 40
0.0
 40
0.0
 40
0.0
 40
0.0
 40
1.0
 40
1.0
 40
1.0
 40
1.0
 10
20.70458831613769
 20
12.4842531249999
 30
0.0
 10
19.9041358161378
 20
12.4842531249999
 30
0.0
 10
19.25537706613773
 20
13.13442312500001
 30
0.0
 10
19.25643581613781
 20
13.9348756249999
 30
0.0
  0
SPLINE
  5
5C
330
A7
100
AcDbEntity
  8
Cuts
 62
     1
420
 16711680
370
    25
100
AcDbSpline
210
0.0
220
0.0
230
1.0
 70
     8
 71
     3
 72
     8
 73
     4
 74
     0
 42
0.000000001
 43
0.001
 12
1.0
 22
0.0
 32
0.0
 13
1.0
 23
0.0
 33
0.0
 40
0.0
 40
0.0
 40
0.0
 40
0.0
 40
1.0
 40
1.0
 40
1.0
 40
1.0
 10
34.67846956613766
 20
16.91972812499989
 30
0.0
 10
34.67846956613766
 20
17.72053312499997
 30
0.0
 10
35.32934456613771
 20
18.36893937500008
 30
0.0
 10
36.12944456613764
 20
18.36823312499996
 30
0.0
  0
SPLINE
  5
5D
330
A7
100
AcDbEntity
  8
Cuts
 62
     1
420
 16711680
370
    25
100
AcDbSpline
210
0.0
220
0.0
230
1.0
 70
     8
 71
     3
 72
     8
 73
     4
 74
     0
 42
0.000000001
 43
0.001
 12
1.0
 22
0.0
 32
0.0
 13
1.0
 23
0.0
 33
0.0
 40
0.0
 40
0.0
 40
0.0
 40
0.0
 40
1.0
 40
1.0
 40
1.0
 40
1.0
 10
36.12944456613764
 20
18.36823312499996
 30
0.0
 10
36.93060206613768
 20
18.36823312499996
 30
0.0
 10
37.57865581613783
 20
17.71771187500008
 30
0.0
 10
37.5779495661377
 20
16.91725812499999
 30
0.0
  0
SPLINE
  5
5E
330
A7
100
AcDbEntity
  8
Cuts
 62
     1
420
 16711680
370
    25
100
AcDbSpline
210
0.0
220
0.0
230
1.0
 70
     8
 71
     3
 72
     8
 73
     4
 74
     0
 42
0.000000001
 43
0.001
 12
1.0
 22
0.0
 32
0.0
 13
1.0
 23
0.0
 33
0.0
 40
0.0
 40
0.0
 40
0.0
 40
0.0
 40
1.0
 40
1.0
 40
1.0
 40
1.0
 10
37.5779495661377
 20
16.91725812499999
 30
0.0
 10
37.5779495661377
 20
16.11645312499991
 30
0.0
 10
36.92707456613766
 20
15.468048125
 30
0.0
 10
36.12626956613781
 20
15.46875312499992
 30
0.0
  0
SPLINE
  5
5F
330
A7
100
AcDbEntity
  8
Cuts
 62
     1
420
 16711680
370
    25
100
AcDbSpline
210
0.0
220
0.0
230
1.0
 70
     8
 71
     3
 72
     8
 73
     4
 74
     0
 42
0.000000001
 43
0.001
 12
1.0
 22
0.0
 32
0.0
 13
1.0
 23
0.0
 33
0.0
 40
0.0
 40
0.0
 40
0.0
 40
0.0
 40
1.0
 40
1.0
 40
1.0
 40
1.0
 10
36.12626956613781
 20
15.46875312499992
 30
0.0
 10
35.32616956613765
 20
15.46875312499992
 30
0.0
 10
34.67741081613781
 20
16.119275625
 30
0.0
 10
34.67846956613766
 20
16.91972812499989
 30
0.0
  0
SPLINE
  5
60
330
A7
100
AcDbEntity
  8
Cuts
 62
     1
420
 16711680
370
    25
100
AcDbSpline
210
0.0
220
0.0
230
1.0
 70
     8
 71
     3
 72
     8
 73
     4
 74
     0
 42
0.000000001
 43
0.001
 12
1.0
 22
0.0
 32
0.0
 13
1.0
 23
0.0
 33
0.0
 40
0.0
 40
0.0
 40
0.0
 40
0.0
 40
1.0
 40
1.0
 40
1.0
 40
1.0
 10
34.70316331613776
 20
36.02017562500009
 30
0.0
 10
34.70316331613776
 20
36.82062812499998
 30
0.0
 10
35.35368581613761
 20
37.4690331249999
 30
0.0
 10
36.15378581613777
 20
37.46832812499997
 30
0.0
  0
SPLINE
  5
61
330
A7
100
AcDbEntity
  8
Cuts
 62
     1
420
 16711680
370
    25
100
AcDbSpline
210
0.0
220
0.0
230
1.0
 70
     8
 71
     3
 72
     8
 73
     4
 74
     0
 42
0.000000001
 43
0.001
 12
1.0
 22
0.0
 32
0.0
 13
1.0
 23
0.0
 33
0.0
 40
0.0
 40
0.0
 40
0.0
 40
0.0
 40
1.0
 40
1.0
 40
1.0
 40
1.0
 10
36.15378581613777
 20
37.46832812499997
 30
0.0
 10
36.95494456613778
 20
37.46762312500005
 30
0.0
 10
37.60299706613773
 20
36.81780562499989
 30
0.0
 10
37.60229081613784
 20
36.017353125
 30
0.0
  0
SPLINE
  5
62
330
A7
100
AcDbEntity
  8
Cuts
 62
     1
420
 16711680
370
    25
100
AcDbSpline
210
0.0
220
0.0
230
1.0
 70
     8
 71
     3
 72
     8
 73
     4
 74
     0
 42
0.000000001
 43
0.001
 12
1.0
 22
0.0
 32
0.0
 13
1.0
 23
0.0
 33
0.0
 40
0.0
 40
0.0
 40
0.0
 40
0.0
 40
1.0
 40
1.0
 40
1.0
 40
1.0
 10
37.60229081613784
 20
36.017353125
 30
0.0
 10
37.60229081613784
 20
35.21619437499999
 30
0.0
 10
36.95176956613773
 20
34.56814187500004
 30
0.0
 10
36.1516695661378
 20
34.56884812499993
 30
0.0
  0
SPLINE
  5
63
330
A7
100
AcDbEntity
  8
Cuts
 62
     1
420
 16711680
370
    25
100
AcDbSpline
210
0.0
220
0.0
230
1.0
 70
     8
 71
     3
 72
     8
 73
     4
 74
     0
 42
0.000000001
 43
0.001
 12
1.0
 22
0.0
 32
0.0
 13
1.0
 23
0.0
 33
0.0
 40
0.0
 40
0.0
 40
0.0
 40
0.0
 40
1.0
 40
1.0
 40
1.0
 40
1.0
 10
36.1516695661378
 20
34.56884812499993
 30
0.0
 10
35.35086331613775
 20
34.56990562500005
 30
0.0
 10
34.70210581613765
 20
35.21936937500004
 30
0.0
 10
34.70316331613776
 20
36.02017562500009
 30
0.0
  0
SPLINE
  5
64
330
A7
100
AcDbEntity
  8
Cuts
 62
     1
420
 16711680
370
    25
100
AcDbSpline
210
0.0
220
0.0
230
1.0
 70
     8
 71
     3
 72
     8
 73
     4
 74
     0
 42
0.000000001
 43
0.001
 12
1.0
 22
0.0
 32
0.0
 13
1.0
 23
0.0
 33
0.0
 40
0.0
 40
0.0
 40
0.0
 40
0.0
 40
1.0
 40
1.0
 40
1.0
 40
1.0
 10
20.28019706613782
 20
38.03383062500006
 30
0.0
 10
20.28019706613782
 20
38.83463687500011
 30
0.0
 10
20.93071956613767
 20
39.48304187500003
 30
0.0
 10
21.73117206613779
 20
39.48198312499994
 30
0.0
  0
SPLINE
  5
65
330
A7
100
AcDbEntity
  8
Cuts
 62
     1
420
 16711680
370
    25
100
AcDbSpline
210
0.0
220
0.0
230
1.0
 70
     8
 71
     3
 72
     8
 73
     4
 74
     0
 42
0.000000001
 43
0.001
 12
1.0
 22
0.0
 32
0.0
 13
1.0
 23
0.0
 33
0.0
 40
0.0
 40
0.0
 40
0.0
 40
0.0
 40
1.0
 40
1.0
 40
1.0
 40
1.0
 10
21.73117206613779
 20
39.48198312499994
 30
0.0
 10
22.53197706613764
 20
39.48127812500002
 30
0.0
 10
23.18003081613779
 20
38.83146187500006
 30
0.0
 10
23.17932456613767
 20
38.03100812499997
 30
0.0
  0
SPLINE
  5
66
330
A7
100
AcDbEntity
  8
Cuts
 62
     1
420
 16711680
370
    25
100
AcDbSpline
210
0.0
220
0.0
230
1.0
 70
     8
 71
     3
 72
     8
 73
     4
 74
     0
 42
0.000000001
 43
0.001
 12
1.0
 22
0.0
 32
0.0
 13
1.0
 23
0.0
 33
0.0
 40
0.0
 40
0.0
 40
0.0
 40
0.0
 40
1.0
 40
1.0
 40
1.0
 40
1.0
 10
23.17932456613767
 20
38.03100812499997
 30
0.0
 10
23.17932456613767
 20
37.23020312500012
 30
0.0
 10
22.52880206613781
 20
36.58215062499994
 30
0.0
 10
21.72834956613769
 20
36.58285562500009
 30
0.0
  0
SPLINE
  5
67
330
A7
100
AcDbEntity
  8
Cuts
 62
     1
420
 16711680
370
    25
100
AcDbSpline
210
0.0
220
0.0
230
1.0
 70
     8
 71
     3
 72
     8
 73
     4
 74
     0
 42
0.000000001
 43
0.001
 12
1.0
 22
0.0
 32
0.0
 13
1.0
 23
0.0
 33
0.0
 40
0.0
 40
0.0
 40
0.0
 40
0.0
 40
1.0
 40
1.0
 40
1.0
 40
1.0
 10
21.72834956613769
 20
36.58285562500009
 30
0.0
 10
20.9278970661378
 20
36.58356187499999
 30
0.0
 10
20.27878581613777
 20
37.23337812499994
 30
0.0
 10
20.28019706613782
 20
38.03383062500006
 30
0.0
  0
SPLINE
  5
68
330
A7
100
AcDbEntity
  8
Cuts
 62
     1
420
 16711680
370
    25
100
AcDbSpline
210
0.0
220
0.0
230
1.0
 70
     8
 71
     3
 72
     8
 73
     4
 74
     0
 42
0.000000001
 43
0.001
 12
1.0
 22
0.0
 32
0.0
 13
1.0
 23
0.0
 33
0.0
 40
0.0
 40
0.0
 40
0.0
 40
0.0
 40
1.0
 40
1.0
 40
1.0
 40
1.0
 10
33.08285581613768
 20
2.45830812500003
 30
0.0
 10
33.08285581613768
 20
3.258761874999891
 30
0.0
 10
33.73337706613779
 20
3.906814375000067
 30
0.0
 10
34.53383081613765
 20
3.906108124999946
 30
0.0
  0
SPLINE
  5
69
330
A7
100
AcDbEntity
  8
Cuts
 62
     1
420
 16711680
370
    25
100
AcDbSpline
210
0.0
220
0.0
230
1.0
 70
     8
 71
     3
 72
     8
 73
     4
 74
     0
 42
0.000000001
 43
0.001
 12
1.0
 22
0.0
 32
0.0
 13
1.0
 23
0.0
 33
0.0
 40
0.0
 40
0.0
 40
0.0
 40
0.0
 40
1.0
 40
1.0
 40
1.0
 40
1.0
 10
34.53383081613765
 20
3.906108124999946
 30
0.0
 10
35.33463581613773
 20
3.906108124999946
 30
0.0
 10
35.98268831613768
 20
3.255586875000063
 30
0.0
 10
35.98198331613776
 20
2.454780625000012
 30
0.0
  0
SPLINE
  5
6A
330
A7
100
AcDbEntity
  8
Cuts
 62
     1
420
 16711680
370
    25
100
AcDbSpline
210
0.0
220
0.0
230
1.0
 70
     8
 71
     3
 72
     8
 73
     4
 74
     0
 42
0.000000001
 43
0.001
 12
1.0
 22
0.0
 32
0.0
 13
1.0
 23
0.0
 33
0.0
 40
0.0
 40
0.0
 40
0.0
 40
0.0
 40
1.0
 40
1.0
 40
1.0
 40
1.0
 10
35.98198331613776
 20
2.454780625000012
 30
0.0
 10
35.98198331613776
 20
1.654328124999893
 30
0.0
 10
35.33146081613768
 20
1.005923124999981
 30
0.0
 10
34.53100831613779
 20
1.006628124999907
 30
0.0
  0
SPLINE
  5
6B
330
A7
100
AcDbEntity
  8
Cuts
 62
     1
420
 16711680
370
    25
100
AcDbSpline
210
0.0
220
0.0
230
1.0
 70
     8
 71
     3
 72
     8
 73
     4
 74
     0
 42
0.000000001
 43
0.001
 12
1.0
 22
0.0
 32
0.0
 13
1.0
 23
0.0
 33
0.0
 40
0.0
 40
0.0
 40
0.0
 40
0.0
 40
1.0
 40
1.0
 40
1.0
 40
1.0
 10
34.53100831613779
 20
1.006628124999907
 30
0.0
 10
33.73055581613767
 20
1.006628124999907
 30
0.0
 10
33.08144456613763
 20
1.657150624999986
 30
0.0
 10
33.08285581613768
 20
2.45830812500003
 30
0.0
  0
SPLINE
  5
6C
330
A7
100
AcDbEntity
  8
Cuts
 62
     1
420
 16711680
370
    25
100
AcDbSpline
210
0.0
220
0.0
230
1.0
 70
     8
 71
     3
 72
     8
 73
     4
 74
     0
 42
0.000000001
 43
0.001
 12
1.0
 22
0.0
 32
0.0
 13
1.0
 23
0.0
 33
0.0
 40
0.0
 40
0.0
 40
0.0
 40
0.0
 40
1.0
 40
1.0
 40
1.0
 40
1.0
 10
34.53700581613771
 20
-3.541735625000001
 30
0.0
 10
37.84994081613763
 20
-3.545263125000019
 30
0.0
 10
40.53916581613771
 20
-0.8613306249999368
 30
0.0
 10
40.54234081613777
 20
2.452311875000078
 30
0.0
  0
LWPOLYLINE
  5
6D
330
A7
100
AcDbEntity
  8
Cuts
 62
     1
420
 16711680
370
    25
100
AcDbPolyline
 90
        3
 70
     0
 43
0.0
 10
25.20003581613764
 20
25.02867812499994
 10
25.20003581613764
 20
25.03220562499996
 10
25.20356331613766
 20
28.0301118750001
  0
SPLINE
  5
6E
330
A7
100
AcDbEntity
  8
Cuts
 62
     1
420
 16711680
370
    25
100
AcDbSpline
210
0.0
220
0.0
230
1.0
 70
     8
 71
     3
 72
     8
 73
     4
 74
     0
 42
0.000000001
 43
0.001
 12
1.0
 22
0.0
 32
0.0
 13
1.0
 23
0.0
 33
0.0
 40
0.0
 40
0.0
 40
0.0
 40
0.0
 40
1.0
 40
1.0
 40
1.0
 40
1.0
 10
12.93289456613775
 20
2.479123125000115
 30
0.0
 10
12.92936581613776
 20
-0.8348718750000899
 30
0.0
 10
14.61352706613775
 20
-3.522685624999895
 30
0.0
 10
14.61352706613775
 20
-3.522685624999895
 30
0.0
  0
LWPOLYLINE
  5
6F
330
A7
100
AcDbEntity
  8
Cuts
 62
     1
420
 16711680
370
    25
100
AcDbPolyline
 90
       13
 70
     0
 43
0.0
 10
40.54234081613777
 20
2.452311875000078
 10
40.56421331613774
 20
25.01703687500003
 10
32.09754706613762
 20
25.02515062499992
 10
32.09754706613762
 20
23.874036875
 10
28.29777706613777
 20
23.87791687499998
 10
28.29777706613777
 20
25.0290306249999
 10
25.2007408161378
 20
25.03255812499992
 10
25.2007408161378
 20
25.0290306249999
 10
25.19650831613762
 20
20.53040812499989
 10
20.55748081613774
 20
20.534994375
 10
18.00054706613764
 20
20.53852312499998
 10
12.95088581613777
 20
20.54381437500001
 10
12.93289456613775
 20
2.479123125000115
  0
SPLINE
  5
70
330
A7
100
AcDbEntity
  8
Cuts
 62
     1
420
 16711680
370
    25
100
AcDbSpline
210
0.0
220
0.0
230
1.0
 70
     8
 71
     3
 72
     8
 73
     4
 74
     0
 42
0.000000001
 43
0.001
 12
1.0
 22
0.0
 32
0.0
 13
1.0
 23
0.0
 33
0.0
 40
0.0
 40
0.0
 40
0.0
 40
0.0
 40
1.0
 40
1.0
 40
1.0
 40
1.0
 10
18.32827706613762
 20
32.53720062499997
 30
0.0
 10
18.32827706613762
 20
31.88385562500002
 30
0.0
 10
17.79699456613776
 20
31.35468937499991
 30
0.0
 10
17.1443558161377
 20
31.35539437500006
 30
0.0
  0
SPLINE
  5
71
330
A7
100
AcDbEntity
  8
Cuts
 62
     1
420
 16711680
370
    25
100
AcDbSpline
210
0.0
220
0.0
230
1.0
 70
     8
 71
     3
 72
     8
 73
     4
 74
     0
 42
0.000000001
 43
0.001
 12
1.0
 22
0.0
 32
0.0
 13
1.0
 23
0.0
 33
0.0
 40
0.0
 40
0.0
 40
0.0
 40
0.0
 40
1.0
 40
1.0
 40
1.0
 40
1.0
 10
17.1443558161377
 20
31.35539437500006
 30
0.0
 10
16.4906583161378
 20
31.35645312499992
 30
0.0
 10
15.96149081613771
 20
31.88632562499993
 30
0.0
 10
15.96219706613783
 20
32.5396693749999
 30
0.0
  0
SPLINE
  5
72
330
A7
100
AcDbEntity
  8
Cuts
 62
     1
420
 16711680
370
    25
100
AcDbSpline
210
0.0
220
0.0
230
1.0
 70
     8
 71
     3
 72
     8
 73
     4
 74
     0
 42
0.000000001
 43
0.001
 12
1.0
 22
0.0
 32
0.0
 13
1.0
 23
0.0
 33
0.0
 40
0.0
 40
0.0
 40
0.0
 40
0.0
 40
1.0
 40
1.0
 40
1.0
 40
1.0
 10
15.96219706613783
 20
32.5396693749999
 30
0.0
 10
15.96219706613783
 20
33.19336687500004
 30
0.0
 10
16.49277456613777
 20
33.72218062499996
 30
0.0
 10
17.14647206613768
 20
33.72147562500004
 30
0.0
  0
SPLINE
  5
73
330
A7
100
AcDbEntity
  8
Cuts
 62
     1
420
 16711680
370
    25
100
AcDbSpline
210
0.0
220
0.0
230
1.0
 70
     8
 71
     3
 72
     8
 73
     4
 74
     0
 42
0.000000001
 43
0.001
 12
1.0
 22
0.0
 32
0.0
 13
1.0
 23
0.0
 33
0.0
 40
0.0
 40
0.0
 40
0.0
 40
0.0
 40
1.0
 40
1.0
 40
1.0
 40
1.0
 10
17.14647206613768
 20
33.72147562500004
 30
0.0
 10
17.79981581613765
 20
33.72112312500008
 30
0.0
 10
18.32898331613774
 20
33.19125062500007
 30
0.0
 10
18.32827706613762
 20
32.53720062499997
 30
0.0
  0
LWPOLYLINE
  5
74
330
A7
100
AcDbEntity
  8
Cuts
 62
     1
420
 16711680
370
    25
100
AcDbPolyline
 90
        4
 70
     0
 43
0.0
 10
14.61352706613775
 20
-3.522685624999895
 10
28.53660831613774
 20
-3.536444374999974
 10
34.53700581613771
 20
-3.541383125000038
 10
34.53700581613771
 20
-3.541735625000001
  0
SPLINE
  5
75
330
A7
100
AcDbEntity
  8
Cuts
 62
     1
420
 16711680
370
    25
100
AcDbSpline
210
0.0
220
0.0
230
1.0
 70
     8
 71
     3
 72
     8
 73
     4
 74
     0
 42
0.000000001
 43
0.001
 12
1.0
 22
0.0
 32
0.0
 13
1.0
 23
0.0
 33
0.0
 40
0.0
 40
0.0
 40
0.0
 40
0.0
 40
1.0
 40
1.0
 40
1.0
 40
1.0
 10
19.88085206613778
 20
46.82434812499991
 30
0.0
 10
19.88085206613778
 20
46.17100312499997
 30
0.0
 10
19.34992206613765
 20
45.64183687500008
 30
0.0
 10
18.69657706613771
 20
45.64218937500004
 30
0.0
  0
SPLINE
  5
76
330
A7
100
AcDbEntity
  8
Cuts
 62
     1
420
 16711680
370
    25
100
AcDbSpline
210
0.0
220
0.0
230
1.0
 70
     8
 71
     3
 72
     8
 73
     4
 74
     0
 42
0.000000001
 43
0.001
 12
1.0
 22
0.0
 32
0.0
 13
1.0
 23
0.0
 33
0.0
 40
0.0
 40
0.0
 40
0.0
 40
0.0
 40
1.0
 40
1.0
 40
1.0
 40
1.0
 10
18.69657706613771
 20
45.64218937500004
 30
0.0
 10
18.04323331613773
 20
45.64289437499997
 30
0.0
 10
17.51477206613777
 20
46.1734731250001
 30
0.0
 10
17.51477206613777
 20
46.82681687500008
 30
0.0
  0
SPLINE
  5
77
330
A7
100
AcDbEntity
  8
Cuts
 62
     1
420
 16711680
370
    25
100
AcDbSpline
210
0.0
220
0.0
230
1.0
 70
     8
 71
     3
 72
     8
 73
     4
 74
     0
 42
0.000000001
 43
0.001
 12
1.0
 22
0.0
 32
0.0
 13
1.0
 23
0.0
 33
0.0
 40
0.0
 40
0.0
 40
0.0
 40
0.0
 40
1.0
 40
1.0
 40
1.0
 40
1.0
 10
17.51477206613777
 20
46.82681687500008
 30
0.0
 10
17.51477206613777
 20
47.48051437499998
 30
0.0
 10
18.0453495661377
 20
48.00897562499995
 30
0.0
 10
18.69904706613784
 20
48.00862312499999
 30
0.0
  0
SPLINE
  5
78
330
A7
100
AcDbEntity
  8
Cuts
 62
     1
420
 16711680
370
    25
100
AcDbSpline
210
0.0
220
0.0
230
1.0
 70
     8
 71
     3
 72
     8
 73
     4
 74
     0
 42
0.000000001
 43
0.001
 12
1.0
 22
0.0
 32
0.0
 13
1.0
 23
0.0
 33
0.0
 40
0.0
 40
0.0
 40
0.0
 40
0.0
 40
1.0
 40
1.0
 40
1.0
 40
1.0
 10
18.69904706613784
 20
48.00862312499999
 30
0.0
 10
19.35239081613781
 20
48.00791687500009
 30
0.0
 10
19.88155831613767
 20
47.47804437500008
 30
0.0
 10
19.88085206613778
 20
46.82434812499991
 30
0.0
  0
SPLINE
  5
79
330
A7
100
AcDbEntity
  8
Cuts
 62
     1
420
 16711680
370
    25
100
AcDbSpline
210
0.0
220
0.0
230
1.0
 70
     8
 71
     3
 72
     8
 73
     4
 74
     0
 42
0.000000001
 43
0.001
 12
1.0
 22
0.0
 32
0.0
 13
1.0
 23
0.0
 33
0.0
 40
0.0
 40
0.0
 40
0.0
 40
0.0
 40
1.0
 40
1.0
 40
1.0
 40
1.0
 10
37.77303581613774
 20
-21.12841312499995
 30
0.0
 10
37.77303581613774
 20
-19.47176937499989
 30
0.0
 10
36.43001081613784
 20
-18.12839187500003
 30
0.0
 10
34.77301331613762
 20
-18.12839187500003
 30
0.0
  0
SPLINE
  5
7A
330
A7
100
AcDbEntity
  8
Cuts
 62
     1
420
 16711680
370
    25
100
AcDbSpline
210
0.0
220
0.0
230
1.0
 70
     8
 71
     3
 72
     8
 73
     4
 74
     0
 42
0.000000001
 43
0.001
 12
1.0
 22
0.0
 32
0.0
 13
1.0
 23
0.0
 33
0.0
 40
0.0
 40
0.0
 40
0.0
 40
0.0
 40
1.0
 40
1.0
 40
1.0
 40
1.0
 10
34.77301331613762
 20
-18.12839187500003
 30
0.0
 10
34.39977456613769
 20
-18.12839187500003
 30
0.0
 10
34.04417456613783
 20
-18.19965187499997
 30
0.0
 10
33.71397456613772
 20
-18.32453562499995
 30
0.0
  0
SPLINE
  5
7B
330
A7
100
AcDbEntity
  8
Cuts
 62
     1
420
 16711680
370
    25
100
AcDbSpline
210
0.0
220
0.0
230
1.0
 70
     8
 71
     3
 72
     8
 73
     4
 74
     0
 42
0.000000001
 43
0.001
 12
1.0
 22
0.0
 32
0.0
 13
1.0
 23
0.0
 33
0.0
 40
0.0
 40
0.0
 40
0.0
 40
0.0
 40
1.0
 40
1.0
 40
1.0
 40
1.0
 10
27.74638581613772
 20
-9.685713124999893
 30
0.0
 10
27.74638581613772
 20
-8.585399374999952
 30
0.0
 10
27.05599956613764
 20
-7.685816875
 30
0.0
 10
25.9556858161377
 20
-7.685816875
 30
0.0
  0
SPLINE
  5
7C
330
A7
100
AcDbEntity
  8
Cuts
 62
     1
420
 16711680
370
    25
100
AcDbSpline
210
0.0
220
0.0
230
1.0
 70
     8
 71
     3
 72
     8
 73
     4
 74
     0
 42
0.000000001
 43
0.001
 12
1.0
 22
0.0
 32
0.0
 13
1.0
 23
0.0
 33
0.0
 40
0.0
 40
0.0
 40
0.0
 40
0.0
 40
1.0
 40
1.0
 40
1.0
 40
1.0
 10
25.9556858161377
 20
-7.685816875
 30
0.0
 10
25.9556858161377
 20
-7.685816875
 30
0.0
 10
24.76929456613766
 20
-8.527896874999897
 30
0.0
 10
24.76929456613766
 20
-9.567533124999954
 30
0.0
  0
SPLINE
  5
7D
330
A7
100
AcDbEntity
  8
Cuts
 62
     1
420
 16711680
370
    25
100
AcDbSpline
210
0.0
220
0.0
230
1.0
 70
     8
 71
     3
 72
     8
 73
     4
 74
     0
 42
0.000000001
 43
0.001
 12
1.0
 22
0.0
 32
0.0
 13
1.0
 23
0.0
 33
0.0
 40
0.0
 40
0.0
 40
0.0
 40
0.0
 40
1.0
 40
1.0
 40
1.0
 40
1.0
 10
24.76929456613766
 20
-9.567533124999954
 30
0.0
 10
24.76929456613766
 20
-9.965113125000016
 30
0.0
 10
25.00565581613773
 20
-10.29425562500001
 30
0.0
 10
25.38312706613783
 20
-10.36410562500009
 30
0.0
  0
LWPOLYLINE
  5
7E
330
A7
100
AcDbEntity
  8
Cuts
 62
     1
420
 16711680
370
    25
100
AcDbPolyline
 90
        3
 70
     0
 43
0.0
 10
33.71397456613772
 20
-18.32453562499995
 10
27.74638581613772
 20
-18.32453562499995
 10
27.74638581613772
 20
-9.685713124999893
  0
SPLINE
  5
7F
330
A7
100
AcDbEntity
  8
Cuts
 62
     1
420
 16711680
370
    25
100
AcDbSpline
210
0.0
220
0.0
230
1.0
 70
     8
 71
     3
 72
     8
 73
     4
 74
     0
 42
0.000000001
 43
0.001
 12
1.0
 22
0.0
 32
0.0
 13
1.0
 23
0.0
 33
0.0
 40
0.0
 40
0.0
 40
0.0
 40
0.0
 40
1.0
 40
1.0
 40
1.0
 40
1.0
 10
25.38312706613783
 20
-16.12743562500009
 30
0.0
 10
25.38312706613783
 20
-16.40401312499989
 30
0.0
 10
25.15911331613779
 20
-16.62767437499997
 30
0.0
 10
24.88288831613772
 20
-16.62767437499997
 30
0.0
  0
LWPOLYLINE
  5
80
330
A7
100
AcDbEntity
  8
Cuts
 62
     1
420
 16711680
370
    25
100
AcDbPolyline
 90
        2
 70
     0
 43
0.0
 10
25.38312706613783
 20
-10.36410562500009
 10
25.38312706613783
 20
-16.12743562500009
  0
SPLINE
  5
81
330
A7
100
AcDbEntity
  8
Cuts
 62
     1
420
 16711680
370
    25
100
AcDbSpline
210
0.0
220
0.0
230
1.0
 70
     8
 71
     3
 72
     8
 73
     4
 74
     0
 42
0.000000001
 43
0.001
 12
1.0
 22
0.0
 32
0.0
 13
1.0
 23
0.0
 33
0.0
 40
0.0
 40
0.0
 40
0.0
 40
0.0
 40
1.0
 40
1.0
 40
1.0
 40
1.0
 10
24.13253081613766
 20
-16.62767437499997
 30
0.0
 10
23.85630581613782
 20
-16.62767437499997
 30
0.0
 10
23.63229081613781
 20
-16.40401312499989
 30
0.0
 10
23.63229081613781
 20
-16.12743562500009
 30
0.0
  0
LWPOLYLINE
  5
82
330
A7
100
AcDbEntity
  8
Cuts
 62
     1
420
 16711680
370
    25
100
AcDbPolyline
 90
        2
 70
     0
 43
0.0
 10
24.88288831613772
 20
-16.62767437499997
 10
24.13253081613766
 20
-16.62767437499997
  0
SPLINE
  5
83
330
A7
100
AcDbEntity
  8
Cuts
 62
     1
420
 16711680
370
    25
100
AcDbSpline
210
0.0
220
0.0
230
1.0
 70
     8
 71
     3
 72
     8
 73
     4
 74
     0
 42
0.000000001
 43
0.001
 12
1.0
 22
0.0
 32
0.0
 13
1.0
 23
0.0
 33
0.0
 40
0.0
 40
0.0
 40
0.0
 40
0.0
 40
1.0
 40
1.0
 40
1.0
 40
1.0
 10
23.63229081613781
 20
-10.36375187499993
 30
0.0
 10
24.00835206613783
 20
-10.29354937499988
 30
0.0
 10
24.19461956613782
 20
-9.96440812500009
 30
0.0
 10
24.19461956613782
 20
-9.567533124999954
 30
0.0
  0
LWPOLYLINE
  5
84
330
A7
100
AcDbEntity
  8
Cuts
 62
     1
420
 16711680
370
    25
100
AcDbPolyline
 90
        2
 70
     0
 43
0.0
 10
23.63229081613781
 20
-16.12743562500009
 10
23.63229081613781
 20
-10.36375187499993
  0
SPLINE
  5
85
330
A7
100
AcDbEntity
  8
Cuts
 62
     1
420
 16711680
370
    25
100
AcDbSpline
210
0.0
220
0.0
230
1.0
 70
     8
 71
     3
 72
     8
 73
     4
 74
     0
 42
0.000000001
 43
0.001
 12
1.0
 22
0.0
 32
0.0
 13
1.0
 23
0.0
 33
0.0
 40
0.0
 40
0.0
 40
0.0
 40
0.0
 40
1.0
 40
1.0
 40
1.0
 40
1.0
 10
24.18826956613771
 20
-9.567533124999954
 30
0.0
 10
24.18826956613771
 20
-8.535305625000092
 30
0.0
 10
22.96942206613767
 20
-7.698516874999996
 30
0.0
 10
22.9521358161378
 20
-7.686874374999888
 30
0.0
  0
SPLINE
  5
86
330
A7
100
AcDbEntity
  8
Cuts
 62
     1
420
 16711680
370
    25
100
AcDbSpline
210
0.0
220
0.0
230
1.0
 70
     8
 71
     3
 72
     8
 73
     4
 74
     0
 42
0.000000001
 43
0.001
 12
1.0
 22
0.0
 32
0.0
 13
1.0
 23
0.0
 33
0.0
 40
0.0
 40
0.0
 40
0.0
 40
0.0
 40
1.0
 40
1.0
 40
1.0
 40
1.0
 10
22.9521358161378
 20
-7.686874374999888
 30
0.0
 10
22.93555581613782
 20
-7.698516874999996
 30
0.0
 10
21.71741331613771
 20
-8.535305625000092
 30
0.0
 10
21.71741331613771
 20
-9.567533124999954
 30
0.0
  0
SPLINE
  5
87
330
A7
100
AcDbEntity
  8
Cuts
 62
     1
420
 16711680
370
    25
100
AcDbSpline
210
0.0
220
0.0
230
1.0
 70
     8
 71
     3
 72
     8
 73
     4
 74
     0
 42
0.000000001
 43
0.001
 12
1.0
 22
0.0
 32
0.0
 13
1.0
 23
0.0
 33
0.0
 40
0.0
 40
0.0
 40
0.0
 40
0.0
 40
1.0
 40
1.0
 40
1.0
 40
1.0
 10
21.71741331613771
 20
-9.567533124999954
 30
0.0
 10
21.71741331613771
 20
-9.965113125000016
 30
0.0
 10
21.90368081613769
 20
-10.29425562500001
 30
0.0
 10
22.28115206613779
 20
-10.36410562500009
 30
0.0
  0
LWPOLYLINE
  5
88
330
A7
100
AcDbEntity
  8
Cuts
 62
     1
420
 16711680
370
    25
100
AcDbPolyline
 90
        2
 70
     0
 43
0.0
 10
24.19461956613782
 20
-9.567533124999954
 10
24.18826956613771
 20
-9.567533124999954
  0
ENDSEC
  0
SECTION
  2
OBJECTS
  0
DICTIONARY
  5
95
330
0
100
AcDbDictionary
281
     1
  3
ACAD_GROUP
350
96
  3
ACAD_LAYOUT
350
A2
  3
ACAD_MATERIAL
350
C3
  3
ACAD_MLEADERSTYLE
350
E0
  3
ACAD_MLINESTYLE
350
9F
  3
ACAD_PLOTSETTINGS
350
A1
  3
ACAD_PLOTSTYLENAME
350
97
  3
ACAD_TABLESTYLE
350
DF
  3
ACAD_VISUALSTYLE
350
B2
  3
QCAD_OBJECTS
350
C8
  0
DICTIONARY
  5
96
102
{ACAD_REACTORS
330
95
102
}
330
95
100
AcDbDictionary
281
     1
  0
DICTIONARY
  5
A2
102
{ACAD_REACTORS
330
95
102
}
330
95
100
AcDbDictionary
281
     1
  3
Layout1
350
A6
  3
Layout2
350
AE
  3
Model
350
AA
  0
DICTIONARY
  5
C3
102
{ACAD_REACTORS
330
95
102
}
330
95
100
AcDbDictionary
281
     1
  3
ByBlock
350
C5
  3
ByLayer
350
C4
  3
Global
350
C6
  0
DICTIONARY
  5
E0
102
{ACAD_REACTORS
330
95
102
}
330
95
100
AcDbDictionary
281
     1
  0
DICTIONARY
  5
9F
102
{ACAD_REACTORS
330
95
102
}
330
95
100
AcDbDictionary
281
     1
  3
Standard
350
A0
  0
DICTIONARY
  5
A1
102
{ACAD_REACTORS
330
95
102
}
330
95
100
AcDbDictionary
281
     1
  0
ACDBDICTIONARYWDFLT
  5
97
102
{ACAD_REACTORS
330
95
102
}
330
95
100
AcDbDictionary
281
     1
  3
Normal
350
98
100
AcDbDictionaryWithDefault
340
98
  0
DICTIONARY
  5
DF
102
{ACAD_REACTORS
330
95
102
}
330
95
100
AcDbDictionary
281
     1
  0
DICTIONARY
  5
B2
102
{ACAD_REACTORS
330
95
102
}
330
95
100
AcDbDictionary
281
     1
  3
2dWireframe
350
B7
  3
3D Hidden
350
B9
  3
3dWireframe
350
B8
  3
Basic
350
BA
  3
Brighten
350
BE
  3
ColorChange
350
C2
  3
Conceptual
350
BC
  3
Dim
350
BD
  3
Facepattern
350
C1
  3
Flat
350
B3
  3
FlatWithEdges
350
B4
  3
Gouraud
350
B5
  3
GouraudWithEdges
350
B6
  3
Linepattern
350
C0
  3
Realistic
350
BB
  3
Thicken
350
BF
  0
DICTIONARY
  5
C8
102
{ACAD_REACTORS
330
95
102
}
330
95
100
AcDbDictionary
281
     1
  3
Grid/DisplayGrid
350
C9
  3
PageSettings/Scale
350
CA
  0
LAYOUT
  5
A6
102
{ACAD_REACTORS
330
A2
102
}
330
A2
100
AcDbPlotSettings
  1

  2
none_device
  4

  6

 40
0.0
 41
0.0
 42
0.0
 43
0.0
 44
0.0
 45
0.0
 46
0.0
 47
0.0
 48
0.0
 49
0.0
140
0.0
141
0.0
142
1.0
143
1.0
 70
   688
 72
     0
 73
     0
 74
     5
  7

 75
    16
 76
     0
 77
     2
 78
   300
147
1.0
148
0.0
149
0.0
100
AcDbLayout
  1
Layout1
 70
     1
 71
     1
 10
0.0
 20
0.0
 11
12.0
 21
9.0
 12
0.0
 22
0.0
 32
0.0
 14
1.000000000000000E+20
 24
1.000000000000000E+20
 34
1.000000000000000E+20
 15
-1.000000000000000E+20
 25
-1.000000000000000E+20
 35
-1.000000000000000E+20
146
0.0
 13
0.0
 23
0.0
 33
0.0
 16
1.0
 26
0.0
 36
0.0
 17
0.0
 27
1.0
 37
0.0
 76
     0
330
A3
  0
LAYOUT
  5
AE
102
{ACAD_REACTORS
330
A2
102
}
330
A2
100
AcDbPlotSettings
  1

  2
none_device
  4

  6

 40
0.0
 41
0.0
 42
0.0
 43
0.0
 44
0.0
 45
0.0
 46
0.0
 47
0.0
 48
0.0
 49
0.0
140
0.0
141
0.0
142
1.0
143
1.0
 70
   688
 72
     0
 73
     0
 74
     5
  7

 75
    16
 76
     0
 77
     2
 78
   300
147
1.0
148
0.0
149
0.0
100
AcDbLayout
  1
Layout2
 70
     1
 71
     2
 10
0.0
 20
0.0
 11
0.0
 21
0.0
 12
0.0
 22
0.0
 32
0.0
 14
0.0
 24
0.0
 34
0.0
 15
0.0
 25
0.0
 35
0.0
146
0.0
 13
0.0
 23
0.0
 33
0.0
 16
1.0
 26
0.0
 36
0.0
 17
0.0
 27
1.0
 37
0.0
 76
     0
330
AB
  0
LAYOUT
  5
AA
102
{ACAD_REACTORS
330
A2
102
}
330
A2
100
AcDbPlotSettings
  1

  2
none_device
  4

  6

 40
0.0
 41
0.0
 42
0.0
 43
0.0
 44
0.0
 45
0.0
 46
0.0
 47
0.0
 48
0.0
 49
0.0
140
0.0
141
0.0
142
1.0
143
1.0
 70
  1712
 72
     0
 73
     0
 74
     0
  7

 75
     0
 76
     0
 77
     2
 78
   300
147
1.0
148
0.0
149
0.0
100
AcDbLayout
  1
Model
 70
     1
 71
     0
 10
0.0
 20
0.0
 11
12.0
 21
9.0
 12
0.0
 22
0.0
 32
0.0
 14
1.000000000000000E+20
 24
1.000000000000000E+20
 34
1.000000000000000E+20
 15
-1.000000000000000E+20
 25
-1.000000000000000E+20
 35
-1.000000000000000E+20
146
0.0
 13
0.0
 23
0.0
 33
0.0
 16
1.0
 26
0.0
 36
0.0
 17
0.0
 27
1.0
 37
0.0
 76
     0
330
A7
331
B1
  0
MATERIAL
  5
C5
102
{ACAD_REACTORS
330
C3
102
}
330
C3
100
AcDbMaterial
  1
ByBlock
 72
     1
 94
      127
  0
MATERIAL
  5
C4
102
{ACAD_REACTORS
330
C3
102
}
330
C3
100
AcDbMaterial
  1
ByLayer
 72
     1
 94
      127
  0
MATERIAL
  5
C6
102
{ACAD_REACTORS
330
C3
102
}
330
C3
100
AcDbMaterial
  1
Global
 72
     1
 94
      127
  0
MLINESTYLE
  5
A0
102
{ACAD_REACTORS
330
9F
102
}
330
9F
100
AcDbMlineStyle
  2
Standard
 70
     0
  3

 62
   256
 51
90.0
 52
90.0
 71
     2
 49
0.5
 62
   256
  6
BYLAYER
 49
-0.5
 62
   256
  6
BYLAYER
  0
ACDBPLACEHOLDER
  5
98
102
{ACAD_REACTORS
330
97
102
}
330
97
  0
VISUALSTYLE
  5
B7
102
{ACAD_REACTORS
330
B2
102
}
330
B2
100
AcDbVisualStyle
  2
2dWireframe
 70
     4
177
     2
291
     0
 71
     0
176
     1
 72
     2
176
     1
 73
     0
176
     1
 90
        0
176
     1
 40
-0.6
176
     1
 41
-30.0
176
     1
 62
     5
 63
     7
421
 16777215
176
     1
 74
     1
176
     1
 91
        4
176
     1
 64
     7
176
     1
 65
   257
176
     1
 75
     1
176
     1
175
     1
176
     1
 42
1.0
176
     1
 92
        0
176
     1
 66
   257
176
     1
 43
1.0
176
     1
 76
     1
176
     1
 77
     6
176
     1
 78
     2
176
     1
 67
     7
176
     1
 79
     5
176
     1
170
     0
176
     1
171
     0
176
     1
290
     0
176
     1
 93
        1
176
     1
 44
0.0
176
     1
173
     0
176
     1
  0
VISUALSTYLE
  5
B9
102
{ACAD_REACTORS
330
B2
102
}
330
B2
100
AcDbVisualStyle
  2
3D Hidden
 70
     6
177
     2
291
     0
 71
     1
176
     1
 72
     2
176
     1
 73
     2
176
     1
 90
        0
176
     1
 40
-0.6
176
     1
 41
-30.0
176
     1
 62
     5
 63
     7
421
 16777215
176
     1
 74
     2
176
     1
 91
        2
176
     1
 64
     7
176
     1
 65
   257
176
     1
 75
     2
176
     1
175
     1
176
     1
 42
40.0
176
     1
 92
        0
176
     1
 66
   257
176
     1
 43
1.0
176
     1
 76
     1
176
     1
 77
     6
176
     1
 78
     2
176
     1
 67
     7
176
     1
 79
     3
176
     1
170
     0
176
     1
171
     0
176
     1
290
     0
176
     1
 93
        1
176
     1
 44
0.0
176
     1
173
     0
176
     1
  0
VISUALSTYLE
  5
B8
102
{ACAD_REACTORS
330
B2
102
}
330
B2
100
AcDbVisualStyle
  2
3dWireframe
 70
     5
177
     2
291
     0
 71
     0
176
     1
 72
     2
176
     1
 73
     0
176
     1
 90
        0
176
     1
 40
-0.6
176
     1
 41
-30.0
176
     1
 62
     5
 63
     7
421
 16777215
176
     1
 74
     1
176
     1
 91
        4
176
     1
 64
     7
176
     1
 65
   257
176
     1
 75
     1
176
     1
175
     1
176
     1
 42
1.0
176
     1
 92
        0
176
     1
 66
   257
176
     1
 43
1.0
176
     1
 76
     1
176
     1
 77
     6
176
     1
 78
     2
176
     1
 67
     7
176
     1
 79
     5
176
     1
170
     0
176
     1
171
     0
176
     1
290
     0
176
     1
 93
        1
176
     1
 44
0.0
176
     1
173
     0
176
     1
  0
VISUALSTYLE
  5
BA
102
{ACAD_REACTORS
330
B2
102
}
330
B2
100
AcDbVisualStyle
  2
Basic
 70
     7
177
     2
291
     1
 71
     1
176
     1
 72
     0
176
     1
 73
     1
176
     1
 90
        0
176
     1
 40
-0.6
176
     1
 41
-30.0
176
     1
 62
     5
 63
     7
421
 16777215
176
     1
 74
     0
176
     1
 91
        4
176
     1
 64
     7
176
     1
 65
   257
176
     1
 75
     1
176
     1
175
     1
176
     1
 42
1.0
176
     1
 92
        8
176
     1
 66
     7
176
     1
 43
1.0
176
     1
 76
     1
176
     1
 77
     6
176
     1
 78
     2
176
     1
 67
     7
176
     1
 79
     5
176
     1
170
     0
176
     1
171
     0
176
     1
290
     0
176
     1
 93
        1
176
     1
 44
0.0
176
     1
173
     0
176
     1
  0
VISUALSTYLE
  5
BE
102
{ACAD_REACTORS
330
B2
102
}
330
B2
100
AcDbVisualStyle
  2
Brighten
 70
    12
177
     2
291
     1
 71
     2
176
     1
 72
     2
176
     1
 73
     0
176
     1
 90
        0
176
     1
 40
-0.6
176
     1
 41
-30.0
176
     1
 62
     5
 63
     7
421
 16777215
176
     1
 74
     1
176
     1
 91
        4
176
     1
 64
     7
176
     1
 65
   257
176
     1
 75
     1
176
     1
175
     1
176
     1
 42
1.0
176
     1
 92
        8
176
     1
 66
     7
176
     1
 43
1.0
176
     1
 76
     1
176
     1
 77
     6
176
     1
 78
     2
176
     1
 67
     7
176
     1
 79
     5
176
     1
170
     0
176
     1
171
     0
176
     1
290
     0
176
     1
 93
        1
176
     1
 44
50.0
176
     1
173
     0
176
     1
  0
VISUALSTYLE
  5
C2
102
{ACAD_REACTORS
330
B2
102
}
330
B2
100
AcDbVisualStyle
  2
ColorChange
 70
    16
177
     2
291
     1
 71
     2
176
     1
 72
     2
176
     1
 73
     3
176
     1
 90
        0
176
     1
 40
-0.6
176
     1
 41
-30.0
176
     1
 62
     5
 63
     8
421
  8421504
176
     1
 74
     1
176
     1
 91
        4
176
     1
 64
     7
176
     1
 65
   257
176
     1
 75
     1
176
     1
175
     1
176
     1
 42
1.0
176
     1
 92
        8
176
     1
 66
     8
424
  8421504
176
     1
 43
1.0
176
     1
 76
     1
176
     1
 77
     6
176
     1
 78
     2
176
     1
 67
     7
176
     1
 79
     5
176
     1
170
     0
176
     1
171
     0
176
     1
290
     0
176
     1
 93
        1
176
     1
 44
0.0
176
     1
173
     0
176
     1
  0
VISUALSTYLE
  5
BC
102
{ACAD_REACTORS
330
B2
102
}
330
B2
100
AcDbVisualStyle
  2
Conceptual
 70
     9
177
     2
291
     0
 71
     3
176
     1
 72
     2
176
     1
 73
     0
176
     1
 90
        0
176
     1
 40
-0.6
176
     1
 41
-30.0
176
     1
 62
     5
 63
     7
421
 16777215
176
     1
 74
     2
176
     1
 91
        2
176
     1
 64
     7
176
     1
 65
   257
176
     1
 75
     1
176
     1
175
     1
176
     1
 42
40.0
176
     1
 92
        8
176
     1
 66
     7
176
     1
 43
1.0
176
     1
 76
     1
176
     1
 77
     6
176
     1
 78
     2
176
     1
 67
     7
176
     1
 79
     3
176
     1
170
     0
176
     1
171
     0
176
     1
290
     0
176
     1
 93
        1
176
     1
 44
0.0
176
     1
173
     0
176
     1
  0
VISUALSTYLE
  5
BD
102
{ACAD_REACTORS
330
B2
102
}
330
B2
100
AcDbVisualStyle
  2
Dim
 70
    11
177
     2
291
     1
 71
     2
176
     1
 72
     2
176
     1
 73
     0
176
     1
 90
        0
176
     1
 40
-0.6
176
     1
 41
-30.0
176
     1
 62
     5
 63
     7
421
 16777215
176
     1
 74
     1
176
     1
 91
        4
176
     1
 64
     7
176
     1
 65
   257
176
     1
 75
     1
176
     1
175
     1
176
     1
 42
1.0
176
     1
 92
        8
176
     1
 66
     7
176
     1
 43
1.0
176
     1
 76
     1
176
     1
 77
     6
176
     1
 78
     2
176
     1
 67
     7
176
     1
 79
     5
176
     1
170
     0
176
     1
171
     0
176
     1
290
     0
176
     1
 93
        1
176
     1
 44
-50.0
176
     1
173
     0
176
     1
  0
VISUALSTYLE
  5
C1
102
{ACAD_REACTORS
330
B2
102
}
330
B2
100
AcDbVisualStyle
  2
Facepattern
 70
    15
177
     2
291
     1
 71
     2
176
     1
 72
     2
176
     1
 73
     0
176
     1
 90
        0
176
     1
 40
-0.6
176
     1
 41
-30.0
176
     1
 62
     5
 63
     7
421
 16777215
176
     1
 74
     1
176
     1
 91
        4
176
     1
 64
     7
176
     1
 65
   257
176
     1
 75
     1
176
     1
175
     1
176
     1
 42
1.0
176
     1
 92
        8
176
     1
 66
     7
176
     1
 43
1.0
176
     1
 76
     1
176
     1
 77
     6
176
     1
 78
     2
176
     1
 67
     7
176
     1
 79
     5
176
     1
170
     0
176
     1
171
     0
176
     1
290
     0
176
     1
 93
        1
176
     1
 44
0.0
176
     1
173
     0
176
     1
  0
VISUALSTYLE
  5
B3
102
{ACAD_REACTORS
330
B2
102
}
330
B2
100
AcDbVisualStyle
  2
Flat
 70
     0
177
     2
291
     1
 71
     2
176
     1
 72
     1
176
     1
 73
     1
176
     1
 90
        2
176
     1
 40
-0.6
176
     1
 41
30.0
176
     1
 62
     5
 63
     7
421
 16777215
176
     1
 74
     0
176
     1
 91
        4
176
     1
 64
     7
176
     1
 65
   257
176
     1
 75
     1
176
     1
175
     1
176
     1
 42
1.0
176
     1
 92
        8
176
     1
 66
     7
176
     1
 43
1.0
176
     1
 76
     1
176
     1
 77
     6
176
     1
 78
     2
176
     1
 67
     7
176
     1
 79
     5
176
     1
170
     0
176
     1
171
     0
176
     1
290
     0
176
     1
 93
       13
176
     1
 44
0.0
176
     1
173
     0
176
     1
  0
VISUALSTYLE
  5
B4
102
{ACAD_REACTORS
330
B2
102
}
330
B2
100
AcDbVisualStyle
  2
FlatWithEdges
 70
     1
177
     2
291
     1
 71
     2
176
     1
 72
     1
176
     1
 73
     1
176
     1
 90
        2
176
     1
 40
-0.6
176
     1
 41
30.0
176
     1
 62
     5
 63
     7
421
 16777215
176
     1
 74
     1
176
     1
 91
        4
176
     1
 64
     7
176
     1
 65
   257
176
     1
 75
     1
176
     1
175
     1
176
     1
 42
1.0
176
     1
 92
        0
176
     1
 66
   257
176
     1
 43
1.0
176
     1
 76
     1
176
     1
 77
     6
176
     1
 78
     2
176
     1
 67
     7
176
     1
 79
     5
176
     1
170
     0
176
     1
171
     0
176
     1
290
     0
176
     1
 93
       13
176
     1
 44
0.0
176
     1
173
     0
176
     1
  0
VISUALSTYLE
  5
B5
102
{ACAD_REACTORS
330
B2
102
}
330
B2
100
AcDbVisualStyle
  2
Gouraud
 70
     2
177
     2
291
     1
 71
     2
176
     1
 72
     2
176
     1
 73
     1
176
     1
 90
        2
176
     1
 40
-0.6
176
     1
 41
30.0
176
     1
 62
     5
 63
     7
421
 16777215
176
     1
 74
     0
176
     1
 91
        4
176
     1
 64
     7
176
     1
 65
   257
176
     1
 75
     1
176
     1
175
     1
176
     1
 42
1.0
176
     1
 92
        0
176
     1
 66
     7
176
     1
 43
1.0
176
     1
 76
     1
176
     1
 77
     6
176
     1
 78
     2
176
     1
 67
     7
176
     1
 79
     5
176
     1
170
     0
176
     1
171
     0
176
     1
290
     0
176
     1
 93
       13
176
     1
 44
0.0
176
     1
173
     0
176
     1
  0
VISUALSTYLE
  5
B6
102
{ACAD_REACTORS
330
B2
102
}
330
B2
100
AcDbVisualStyle
  2
GouraudWithEdges
 70
     3
177
     2
291
     1
 71
     2
176
     1
 72
     2
176
     1
 73
     1
176
     1
 90
        2
176
     1
 40
-0.6
176
     1
 41
30.0
176
     1
 62
     5
 63
     7
421
 16777215
176
     1
 74
     1
176
     1
 91
        4
176
     1
 64
     7
176
     1
 65
   257
176
     1
 75
     1
176
     1
175
     1
176
     1
 42
1.0
176
     1
 92
        0
176
     1
 66
   257
176
     1
 43
1.0
176
     1
 76
     1
176
     1
 77
     6
176
     1
 78
     2
176
     1
 67
     7
176
     1
 79
     5
176
     1
170
     0
176
     1
171
     0
176
     1
290
     0
176
     1
 93
       13
176
     1
 44
0.0
176
     1
173
     0
176
     1
  0
VISUALSTYLE
  5
C0
102
{ACAD_REACTORS
330
B2
102
}
330
B2
100
AcDbVisualStyle
  2
Linepattern
 70
    14
177
     2
291
     1
 71
     2
176
     1
 72
     2
176
     1
 73
     0
176
     1
 90
        0
176
     1
 40
-0.6
176
     1
 41
-30.0
176
     1
 62
     5
 63
     7
421
 16777215
176
     1
 74
     1
176
     1
 91
        4
176
     1
 64
     7
176
     1
 65
   257
176
     1
 75
     7
176
     1
175
     7
176
     1
 42
1.0
176
     1
 92
        8
176
     1
 66
     7
176
     1
 43
1.0
176
     1
 76
     1
176
     1
 77
     6
176
     1
 78
     2
176
     1
 67
     7
176
     1
 79
     5
176
     1
170
     0
176
     1
171
     0
176
     1
290
     0
176
     1
 93
        1
176
     1
 44
0.0
176
     1
173
     0
176
     1
  0
VISUALSTYLE
  5
BB
102
{ACAD_REACTORS
330
B2
102
}
330
B2
100
AcDbVisualStyle
  2
Realistic
 70
     8
177
     2
291
     0
 71
     2
176
     1
 72
     2
176
     1
 73
     0
176
     1
 90
        0
176
     1
 40
-0.6
176
     1
 41
-30.0
176
     1
 62
     5
 63
     7
421
 16777215
176
     1
 74
     1
176
     1
 91
        0
176
     1
 64
     7
176
     1
 65
   257
176
     1
 75
     1
176
     1
175
     1
176
     1
 42
1.0
176
     1
 92
        8
176
     1
 66
     8
424
  7895160
176
     1
 43
1.0
176
     1
 76
     1
176
     1
 77
     6
176
     1
 78
     2
176
     1
 67
     7
176
     1
 79
     5
176
     1
170
     0
176
     1
171
     0
176
     1
290
     0
176
     1
 93
       13
176
     1
 44
0.0
176
     1
173
     0
176
     1
  0
VISUALSTYLE
  5
BF
102
{ACAD_REACTORS
330
B2
102
}
330
B2
100
AcDbVisualStyle
  2
Thicken
 70
    13
177
     2
291
     1
 71
     2
176
     1
 72
     2
176
     1
 73
     0
176
     1
 90
        0
176
     1
 40
-0.6
176
     1
 41
-30.0
176
     1
 62
     5
 63
     7
421
 16777215
176
     1
 74
     1
176
     1
 91
        4
176
     1
 64
     7
176
     1
 65
   257
176
     1
 75
     1
176
     1
175
     1
176
     1
 42
1.0
176
     1
 92
       12
176
     1
 66
     7
176
     1
 43
1.0
176
     1
 76
     1
176
     1
 77
     6
176
     1
 78
     2
176
     1
 67
     7
176
     1
 79
     5
176
     1
170
     0
176
     1
171
     0
176
     1
290
     0
176
     1
 93
        1
176
     1
 44
0.0
176
     1
173
     0
176
     1
  0
XRECORD
  5
C9
102
{ACAD_REACTORS
330
C8
102
}
330
C8
100
AcDbXrecord
280
     1
290
     1
  0
XRECORD
  5
CA
102
{ACAD_REACTORS
330
C8
102
}
330
C8
100
AcDbXrecord
280
     1
1000
1:1
  0
ENDSEC
  0
EOF
