  0
SECTION
  2
HEADER
  9
$ACADVER
  1
AC1024
  9
$ACADMAINTVER
 70
     6
  9
$DWGCODEPAGE
  3
ASCII
  9
$INSBASE
 10
0.0
 20
0.0
 30
0.0
  9
$EXTMIN
 10
1.000000000000000E+20
 20
1.000000000000000E+20
 30
1.000000000000000E+20
  9
$EXTMAX
 10
-1.000000000000000E+20
 20
-1.000000000000000E+20
 30
-1.000000000000000E+20
  9
$LIMMIN
 10
0.0
 20
0.0
  9
$LIMMAX
 10
12.0
 20
9.0
  9
$ORTHOMODE
 70
     0
  9
$REGENMODE
 70
     1
  9
$FILLMODE
 70
     1
  9
$QTEXTMODE
 70
     0
  9
$MIRRTEXT
 70
     1
  9
$LTSCALE
 40
1.0
  9
$ATTMODE
 70
     1
  9
$TEXTSIZE
 40
0.2
  9
$TRACEWID
 40
0.05
  9
$TEXTSTYLE
  7
Standard
  9
$CLAYER
  8
0
  9
$CELTYPE
  6
ByLayer
  9
$CECOLOR
 62
   256
  9
$CELTSCALE
 40
1.0
  9
$DISPSILH
 70
     0
  9
$DIMSCALE
 40
1.0
  9
$DIMASZ
 40
2.5
  9
$DIMEXO
 40
0.625
  9
$DIMDLI
 40
0.38
  9
$DIMRND
 40
0.0
  9
$DIMDLE
 40
0.0
  9
$DIMEXE
 40
1.25
  9
$DIMTP
 40
0.0
  9
$DIMTM
 40
0.0
  9
$DIMTXT
 40
2.5
  9
$DIMCEN
 40
0.09
  9
$DIMTSZ
 40
0.0
  9
$DIMTOL
 70
     0
  9
$DIMLIM
 70
     0
  9
$DIMTIH
 70
     1
  9
$DIMTOH
 70
     1
  9
$DIMSE1
 70
     0
  9
$DIMSE2
 70
     0
  9
$DIMTAD
 70
     0
  9
$DIMZIN
 70
     8
  9
$DIMBLK
  1

  9
$DIMASO
 70
     1
  9
$DIMSHO
 70
     1
  9
$DIMPOST
  1

  9
$DIMAPOST
  1

  9
$DIMALT
 70
     0
  9
$DIMALTD
 70
     2
  9
$DIMALTF
 40
25.4
  9
$DIMLFAC
 40
1.0
  9
$DIMTOFL
 70
     0
  9
$DIMTVP
 40
0.0
  9
$DIMTIX
 70
     0
  9
$DIMSOXD
 70
     0
  9
$DIMSAH
 70
     0
  9
$DIMBLK1
  1

  9
$DIMBLK2
  1

  9
$DIMSTYLE
  2
Standard
  9
$DIMCLRD
 70
     0
  9
$DIMCLRE
 70
     0
  9
$DIMCLRT
 70
     0
  9
$DIMTFAC
 40
1.0
  9
$DIMGAP
 40
0.625
  9
$DIMJUST
 70
     0
  9
$DIMSD1
 70
     0
  9
$DIMSD2
 70
     0
  9
$DIMTOLJ
 70
     1
  9
$DIMTZIN
 70
     0
  9
$DIMALTZ
 70
     0
  9
$DIMALTTZ
 70
     0
  9
$DIMUPT
 70
     0
  9
$DIMDEC
 70
     4
  9
$DIMTDEC
 70
     4
  9
$DIMALTU
 70
     2
  9
$DIMALTTD
 70
     2
  9
$DIMTXSTY
  7
Standard
  9
$DIMAUNIT
 70
     0
  9
$DIMADEC
 70
     0
  9
$DIMALTRND
 40
0.0
  9
$DIMAZIN
 70
     2
  9
$DIMDSEP
 70
    46
  9
$DIMATFIT
 70
     3
  9
$DIMFRAC
 70
     0
  9
$DIMLDRBLK
  1

  9
$DIMLUNIT
 70
     2
  9
$DIMLWD
 70
    -2
  9
$DIMLWE
 70
    -2
  9
$DIMTMOVE
 70
     0
  9
$DIMFXL
 40
1.0
  9
$DIMFXLON
 70
     0
  9
$DIMJOGANG
 40
0.7853981633974483
  9
$DIMTFILL
 70
     0
  9
$DIMTFILLCLR
 70
     0
  9
$DIMARCSYM
 70
     0
  9
$DIMLTYPE
  6

  9
$DIMLTEX1
  6

  9
$DIMLTEX2
  6

  9
$DIMTXTDIRECTION
 70
     0
  9
$LUNITS
 70
     2
  9
$LUPREC
 70
     4
  9
$SKETCHINC
 40
0.1
  9
$FILLETRAD
 40
0.5
  9
$AUNITS
 70
     0
  9
$AUPREC
 70
     0
  9
$MENU
  1
.
  9
$ELEVATION
 40
0.0
  9
$PELEVATION
 40
0.0
  9
$THICKNESS
 40
0.0
  9
$LIMCHECK
 70
     0
  9
$CHAMFERA
 40
0.5
  9
$CHAMFERB
 40
0.5
  9
$CHAMFERC
 40
1.0
  9
$CHAMFERD
 40
0.0
  9
$SKPOLY
 70
     0
  9
$TDCREATE
 40
2455860.666193218
  9
$TDUCREATE
 40
2455860.832859884
  9
$TDUPDATE
 40
2455860.666193218
  9
$TDUUPDATE
 40
2455860.832859884
  9
$TDINDWG
 40
0.0000000116
  9
$TDUSRTIMER
 40
0.0000000116
  9
$USRTIMER
 70
     1
  9
$ANGBASE
 50
0.0
  9
$ANGDIR
 70
     0
  9
$PDMODE
 70
     0
  9
$PDSIZE
 40
0.0
  9
$PLINEWID
 40
0.0
  9
$SPLFRAME
 70
     0
  9
$SPLINETYPE
 70
     6
  9
$SPLINESEGS
 70
     8
  9
$HANDSEED
  5
12E
  9
$SURFTAB1
 70
     6
  9
$SURFTAB2
 70
     6
  9
$SURFTYPE
 70
     6
  9
$SURFU
 70
     6
  9
$SURFV
 70
     6
  9
$UCSBASE
  2

  9
$UCSNAME
  2

  9
$UCSORG
 10
0.0
 20
0.0
 30
0.0
  9
$UCSXDIR
 10
1.0
 20
0.0
 30
0.0
  9
$UCSYDIR
 10
0.0
 20
1.0
 30
0.0
  9
$UCSORTHOREF
  2

  9
$UCSORTHOVIEW
 70
     0
  9
$UCSORGTOP
 10
0.0
 20
0.0
 30
0.0
  9
$UCSORGBOTTOM
 10
0.0
 20
0.0
 30
0.0
  9
$UCSORGLEFT
 10
0.0
 20
0.0
 30
0.0
  9
$UCSORGRIGHT
 10
0.0
 20
0.0
 30
0.0
  9
$UCSORGFRONT
 10
0.0
 20
0.0
 30
0.0
  9
$UCSORGBACK
 10
0.0
 20
0.0
 30
0.0
  9
$PUCSBASE
  2

  9
$PUCSNAME
  2

  9
$PUCSORG
 10
0.0
 20
0.0
 30
0.0
  9
$PUCSXDIR
 10
1.0
 20
0.0
 30
0.0
  9
$PUCSYDIR
 10
0.0
 20
1.0
 30
0.0
  9
$PUCSORTHOREF
  2

  9
$PUCSORTHOVIEW
 70
     0
  9
$PUCSORGTOP
 10
0.0
 20
0.0
 30
0.0
  9
$PUCSORGBOTTOM
 10
0.0
 20
0.0
 30
0.0
  9
$PUCSORGLEFT
 10
0.0
 20
0.0
 30
0.0
  9
$PUCSORGRIGHT
 10
0.0
 20
0.0
 30
0.0
  9
$PUCSORGFRONT
 10
0.0
 20
0.0
 30
0.0
  9
$PUCSORGBACK
 10
0.0
 20
0.0
 30
0.0
  9
$USERI1
 70
     0
  9
$USERI2
 70
     0
  9
$USERI3
 70
     0
  9
$USERI4
 70
     0
  9
$USERI5
 70
     0
  9
$USERR1
 40
0.0
  9
$USERR2
 40
0.0
  9
$USERR3
 40
0.0
  9
$USERR4
 40
0.0
  9
$USERR5
 40
0.0
  9
$WORLDVIEW
 70
     1
  9
$SHADEDGE
 70
     3
  9
$SHADEDIF
 70
    70
  9
$TILEMODE
 70
     1
  9
$MAXACTVP
 70
    64
  9
$PINSBASE
 10
0.0
 20
0.0
 30
0.0
  9
$PLIMCHECK
 70
     0
  9
$PEXTMIN
 10
1.000000000000000E+20
 20
1.000000000000000E+20
 30
1.000000000000000E+20
  9
$PEXTMAX
 10
-1.000000000000000E+20
 20
-1.000000000000000E+20
 30
-1.000000000000000E+20
  9
$PLIMMIN
 10
0.0
 20
0.0
  9
$PLIMMAX
 10
12.0
 20
9.0
  9
$UNITMODE
 70
     0
  9
$VISRETAIN
 70
     1
  9
$PLINEGEN
 70
     0
  9
$PSLTSCALE
 70
     1
  9
$TREEDEPTH
 70
  3020
  9
$CMLSTYLE
  2
Standard
  9
$CMLJUST
 70
     0
  9
$CMLSCALE
 40
1.0
  9
$PROXYGRAPHICS
 70
     1
  9
$MEASUREMENT
 70
     1
  9
$CELWEIGHT
370
    -1
  9
$ENDCAPS
280
     0
  9
$JOINSTYLE
280
     0
  9
$LWDISPLAY
290
     0
  9
$INSUNITS
 70
     4
  9
$HYPERLINKBASE
  1

  9
$STYLESHEET
  1

  9
$XEDIT
290
     1
  9
$CEPSNTYPE
380
     0
  9
$PSTYLEMODE
290
     1
  9
$FINGERPRINTGUID
  2
{6A6F8212-34A8-486B-93B7-ED0DCE921D23}
  9
$VERSIONGUID
  2
{FAEB1C32-E019-11D5-929B-00C0DF256EC4}
  9
$EXTNAMES
290
     1
  9
$PSVPSCALE
 40
0.0
  9
$OLESTARTUP
290
     0
  9
$SORTENTS
280
   127
  9
$INDEXCTL
280
     0
  9
$HIDETEXT
280
     1
  9
$XCLIPFRAME
280
     2
  9
$HALOGAP
280
     0
  9
$OBSCOLOR
 70
   257
  9
$OBSLTYPE
280
     0
  9
$INTERSECTIONDISPLAY
280
     0
  9
$INTERSECTIONCOLOR
 70
   257
  9
$DIMASSOC
280
     2
  9
$PROJECTNAME
  1

  9
$CAMERADISPLAY
290
     0
  9
$LENSLENGTH
 40
50.0
  9
$CAMERAHEIGHT
 40
0.0
  9
$STEPSPERSEC
 40
2.0
  9
$STEPSIZE
 40
6.0
  9
$3DDWFPREC
 40
2.0
  9
$PSOLWIDTH
 40
0.25
  9
$PSOLHEIGHT
 40
4.0
  9
$LOFTANG1
 40
1.570796326794897
  9
$LOFTANG2
 40
1.570796326794897
  9
$LOFTMAG1
 40
0.0
  9
$LOFTMAG2
 40
0.0
  9
$LOFTPARAM
 70
     7
  9
$LOFTNORMALS
280
     1
  9
$LATITUDE
 40
37.795
  9
$LONGITUDE
 40
-122.394
  9
$NORTHDIRECTION
 40
0.0
  9
$TIMEZONE
 70
 -8000
  9
$LIGHTGLYPHDISPLAY
280
     1
  9
$TILEMODELIGHTSYNCH
280
     1
  9
$SOLIDHIST
280
     1
  9
$SHOWHIST
280
     1
  9
$DWFFRAME
280
     2
  9
$DGNFRAME
280
     2
  9
$REALWORLDSCALE
290
     1
  9
$INTERFERECOLOR
 62
   256
  9
$CSHADOW
280
     0
  9
$SHADOWPLANELOCATION
 40
0.0
  0
ENDSEC
  0
SECTION
  2
CLASSES
  0
CLASS
  1
ACDBDICTIONARYWDFLT
  2
AcDbDictionaryWithDefault
  3
ObjectDBX Classes
 90
        0
 91
        4
280
     0
281
     0
  0
CLASS
  1
VISUALSTYLE
  2
AcDbVisualStyle
  3
ObjectDBX Classes
 90
     4095
 91
        4
280
     0
281
     0
  0
CLASS
  1
MATERIAL
  2
AcDbMaterial
  3
ObjectDBX Classes
 90
     1153
 91
        4
280
     0
281
     0
  0
ENDSEC
  0
SECTION
  2
TABLES
  0
TABLE
  2
VPORT
  5
DF
330
0
100
AcDbSymbolTable
 70
     1
  0
VPORT
  5
FF
330
DF
100
AcDbSymbolTableRecord
100
AcDbViewportTableRecord
  2
*Active
 70
     0
 10
0.0
 20
0.0
 11
1.0
 21
1.0
 12
10.42990654205607
 22
4.5
 13
0.0
 23
0.0
 14
0.5
 24
0.5
 15
0.5
 25
0.5
 16
0.0
 26
0.0
 36
1.0
 17
0.0
 27
0.0
 37
0.0
 40
9.0
 41
1.972972972850329
 42
50.0
 43
0.0
 44
0.0
 50
0.0
 51
0.0
 71
     0
 72
   100
 73
     1
 74
     3
 75
     0
 76
     0
 77
     0
 78
     0
281
     0
 65
     1
110
0.0
120
0.0
130
0.0
111
1.0
121
0.0
131
0.0
112
0.0
122
1.0
132
0.0
 79
     0
146
0.0
 60
     3
 61
     5
292
     1
282
     1
141
0.0
142
0.0
 63
   250
  0
ENDTAB
  0
TABLE
  2
LTYPE
  5
DC
330
0
100
AcDbSymbolTable
 70
    19
  0
LTYPE
  5
EA
330
DC
100
AcDbSymbolTableRecord
100
AcDbLinetypeTableRecord
  2
ByBlock
 70
     0
  3

 72
    65
 73
     0
 40
0.0
  0
LTYPE
  5
EB
330
DC
100
AcDbSymbolTableRecord
100
AcDbLinetypeTableRecord
  2
ByLayer
 70
     0
  3

 72
    65
 73
     0
 40
0.0
  0
LTYPE
  5
EC
330
DC
100
AcDbSymbolTableRecord
100
AcDbLinetypeTableRecord
  2
Continuous
 70
     0
  3
Solid line
 72
    65
 73
     0
 40
0.0
  0
LTYPE
  5
11A
330
DC
100
AcDbSymbolTableRecord
100
AcDbLinetypeTableRecord
  2
BORDER
 70
     0
  3

 72
    65
 73
     6
 40
42.00000000000001
 49
12.0
 74
     0
 49
-6.0
 74
     0
 49
12.0
 74
     0
 49
-5.95
 74
     0
 49
0.1
 74
     0
 49
-5.95
 74
     0
  0
LTYPE
  5
11B
330
DC
100
AcDbSymbolTableRecord
100
AcDbLinetypeTableRecord
  2
BORDER2
 70
     0
  3

 72
    65
 73
     6
 40
21.0
 49
6.0
 74
     0
 49
-3.0
 74
     0
 49
6.0
 74
     0
 49
-2.95
 74
     0
 49
0.1
 74
     0
 49
-2.95
 74
     0
  0
LTYPE
  5
11C
330
DC
100
AcDbSymbolTableRecord
100
AcDbLinetypeTableRecord
  2
BORDERX2
 70
     0
  3

 72
    65
 73
     6
 40
84.0
 49
24.0
 74
     0
 49
-12.0
 74
     0
 49
24.0
 74
     0
 49
-11.95
 74
     0
 49
0.1
 74
     0
 49
-11.95
 74
     0
  0
LTYPE
  5
11D
330
DC
100
AcDbSymbolTableRecord
100
AcDbLinetypeTableRecord
  2
CENTER
 70
     0
  3

 72
    65
 73
     4
 40
50.0
 49
32.0
 74
     0
 49
-6.0
 74
     0
 49
6.0
 74
     0
 49
-6.0
 74
     0
  0
LTYPE
  5
11E
330
DC
100
AcDbSymbolTableRecord
100
AcDbLinetypeTableRecord
  2
CENTER2
 70
     0
  3

 72
    65
 73
     4
 40
25.0
 49
16.0
 74
     0
 49
-3.0
 74
     0
 49
3.0
 74
     0
 49
-3.0
 74
     0
  0
LTYPE
  5
11F
330
DC
100
AcDbSymbolTableRecord
100
AcDbLinetypeTableRecord
  2
CENTERX2
 70
     0
  3

 72
    65
 73
     4
 40
100.0
 49
64.0
 74
     0
 49
-12.0
 74
     0
 49
12.0
 74
     0
 49
-12.0
 74
     0
  0
LTYPE
  5
120
330
DC
100
AcDbSymbolTableRecord
100
AcDbLinetypeTableRecord
  2
DASHDOT
 70
     0
  3

 72
    65
 73
     4
 40
24.0
 49
12.0
 74
     0
 49
-5.95
 74
     0
 49
0.1
 74
     0
 49
-5.95
 74
     0
  0
LTYPE
  5
121
330
DC
100
AcDbSymbolTableRecord
100
AcDbLinetypeTableRecord
  2
DASHDOT2
 70
     0
  3

 72
    65
 73
     4
 40
12.0
 49
6.0
 74
     0
 49
-2.95
 74
     0
 49
0.1
 74
     0
 49
-2.95
 74
     0
  0
LTYPE
  5
122
330
DC
100
AcDbSymbolTableRecord
100
AcDbLinetypeTableRecord
  2
DASHDOTX2
 70
     0
  3

 72
    65
 73
     4
 40
48.0
 49
24.0
 74
     0
 49
-11.95
 74
     0
 49
0.1
 74
     0
 49
-11.95
 74
     0
  0
LTYPE
  5
123
330
DC
100
AcDbSymbolTableRecord
100
AcDbLinetypeTableRecord
  2
DASHED
 70
     0
  3

 72
    65
 73
     2
 40
18.0
 49
12.0
 74
     0
 49
-6.0
 74
     0
  0
LTYPE
  5
124
330
DC
100
AcDbSymbolTableRecord
100
AcDbLinetypeTableRecord
  2
DASHED2
 70
     0
  3

 72
    65
 73
     2
 40
9.0
 49
6.0
 74
     0
 49
-3.0
 74
     0
  0
LTYPE
  5
125
330
DC
100
AcDbSymbolTableRecord
100
AcDbLinetypeTableRecord
  2
DASHEDX2
 70
     0
  3

 72
    65
 73
     2
 40
36.0
 49
24.0
 74
     0
 49
-12.0
 74
     0
  0
LTYPE
  5
126
330
DC
100
AcDbSymbolTableRecord
100
AcDbLinetypeTableRecord
  2
DIVIDE
 70
     0
  3

 72
    65
 73
     6
 40
29.99999999999999
 49
12.0
 74
     0
 49
-5.9
 74
     0
 49
0.15
 74
     0
 49
-5.9
 74
     0
 49
0.15
 74
     0
 49
-5.9
 74
     0
  0
LTYPE
  5
127
330
DC
100
AcDbSymbolTableRecord
100
AcDbLinetypeTableRecord
  2
DIVIDE2
 70
     0
  3

 72
    65
 73
     6
 40
15.0
 49
6.0
 74
     0
 49
-2.9
 74
     0
 49
0.15
 74
     0
 49
-2.9
 74
     0
 49
0.15
 74
     0
 49
-2.9
 74
     0
  0
LTYPE
  5
128
330
DC
100
AcDbSymbolTableRecord
100
AcDbLinetypeTableRecord
  2
DIVIDEX2
 70
     0
  3

 72
    65
 73
     6
 40
59.99999999999999
 49
24.0
 74
     0
 49
-11.9
 74
     0
 49
0.15
 74
     0
 49
-11.9
 74
     0
 49
0.15
 74
     0
 49
-11.9
 74
     0
  0
LTYPE
  5
129
330
DC
100
AcDbSymbolTableRecord
100
AcDbLinetypeTableRecord
  2
DOT
 70
     0
  3

 72
    65
 73
     2
 40
6.3
 49
0.1
 74
     0
 49
-6.2
 74
     0
  0
LTYPE
  5
12A
330
DC
100
AcDbSymbolTableRecord
100
AcDbLinetypeTableRecord
  2
DOT2
 70
     0
  3

 72
    65
 73
     2
 40
3.2
 49
0.1
 74
     0
 49
-3.1
 74
     0
  0
LTYPE
  5
12B
330
DC
100
AcDbSymbolTableRecord
100
AcDbLinetypeTableRecord
  2
DOTX2
 70
     0
  3

 72
    65
 73
     2
 40
12.5
 49
0.1
 74
     0
 49
-12.4
 74
     0
  0
ENDTAB
  0
TABLE
  2
LAYER
  5
D9
330
0
100
AcDbSymbolTable
 70
     1
  0
LAYER
  5
E7
330
D9
100
AcDbSymbolTableRecord
100
AcDbLayerTableRecord
  2
0
 70
     0
 62
     7
420
 16777215
  6
Continuous
370
    25
390
E6
347
114
  0
ENDTAB
  0
TABLE
  2
STYLE
  5
DA
330
0
100
AcDbSymbolTable
 70
     1
  0
STYLE
  5
E8
330
DA
100
AcDbSymbolTableRecord
100
AcDbTextStyleTableRecord
  2
Standard
 70
     0
 40
0.0
 41
1.0
 50
0.0
 71
     0
 42
0.2
  3
txt
  4

  0
ENDTAB
  0
TABLE
  2
VIEW
  5
DD
330
0
100
AcDbSymbolTable
 70
     0
  0
ENDTAB
  0
TABLE
  2
UCS
  5
DE
330
0
100
AcDbSymbolTable
 70
     0
  0
ENDTAB
  0
TABLE
  2
APPID
  5
E0
330
0
100
AcDbSymbolTable
 70
     2
  0
APPID
  5
E9
330
E0
100
AcDbSymbolTableRecord
100
AcDbRegAppTableRecord
  2
ACAD
 70
     0
  0
APPID
  5
115
330
E0
100
AcDbSymbolTableRecord
100
AcDbRegAppTableRecord
  2
QCAD
 70
     0
  0
ENDTAB
  0
TABLE
  2
DIMSTYLE
  5
E1
330
0
100
AcDbSymbolTable
 70
     2
100
AcDbDimStyleTable
  0
DIMSTYLE
105
FD
330
E1
100
AcDbSymbolTableRecord
100
AcDbDimStyleTableRecord
  2
Standard
 70
     0
178
     0
340
E8
  0
DIMSTYLE
105
119
330
E1
100
AcDbSymbolTableRecord
100
AcDbDimStyleTableRecord
  2
QCADDimStyle
 70
     0
 41
2.5
 42
0.625
 44
1.25
 73
     0
 77
     1
140
2.5
147
0.625
178
     0
340
E8
  0
ENDTAB
  0
TABLE
  2
BLOCK_RECORD
  5
D8
330
0
100
AcDbSymbolTable
 70
     1
  0
BLOCK_RECORD
  5
F5
330
D8
100
AcDbSymbolTableRecord
100
AcDbBlockTableRecord
  2
*Model_Space
340
F8
 70
     0
280
     1
281
     0
  0
BLOCK_RECORD
  5
F1
330
D8
100
AcDbSymbolTableRecord
100
AcDbBlockTableRecord
  2
*Paper_Space
340
F4
 70
     0
280
     1
281
     0
  0
BLOCK_RECORD
  5
F9
330
D8
100
AcDbSymbolTableRecord
100
AcDbBlockTableRecord
  2
*Paper_Space0
340
FC
 70
     0
280
     1
281
     0
  0
ENDTAB
  0
ENDSEC
  0
SECTION
  2
BLOCKS
  0
BLOCK
  5
F6
330
F5
100
AcDbEntity
  8
0
100
AcDbBlockBegin
  2
*Model_Space
 70
     0
 10
0.0
 20
0.0
 30
0.0
  3
*Model_Space
  1

  0
ENDBLK
  5
F7
330
F5
100
AcDbEntity
  8
0
100
AcDbBlockEnd
  0
BLOCK
  5
F2
330
F1
100
AcDbEntity
 67
     1
  8
0
100
AcDbBlockBegin
  2
*Paper_Space
 70
     0
 10
0.0
 20
0.0
 30
0.0
  3
*Paper_Space
  1

  0
ENDBLK
  5
F3
330
F1
100
AcDbEntity
 67
     1
  8
0
100
AcDbBlockEnd
  0
BLOCK
  5
FA
330
F9
100
AcDbEntity
  8
0
100
AcDbBlockBegin
  2
*Paper_Space0
 70
     0
 10
0.0
 20
0.0
 30
0.0
  3
*Paper_Space0
  1

  0
ENDBLK
  5
FB
330
F9
100
AcDbEntity
  8
0
100
AcDbBlockEnd
  0
ENDSEC
  0
SECTION
  2
ENTITIES
  0
LWPOLYLINE
  5
17
330
F5
100
AcDbEntity
  8
0
 62
     7
420
 16777215
100
AcDbPolyline
 90
        2
 70
     0
 43
0.0
 10
35.55449312499991
 20
-47.19871312500004
 10
37.20055437499991
 20
-47.19871312500004
  0
LWPOLYLINE
  5
18
330
F5
100
AcDbEntity
  8
0
 62
     7
420
 16777215
100
AcDbPolyline
 90
        2
 70
     0
 43
0.0
 10
32.67371062499979
 20
-47.19871312500004
 10
34.31977062499982
 20
-47.19871312500004
  0
LWPOLYLINE
  5
19
330
F5
100
AcDbEntity
  8
0
 62
     7
420
 16777215
100
AcDbPolyline
 90
        2
 70
     0
 43
0.0
 10
29.79292687499992
 20
-47.19871312500004
 10
31.43898812499992
 20
-47.19871312500004
  0
LWPOLYLINE
  5
1A
330
F5
100
AcDbEntity
  8
0
 62
     7
420
 16777215
100
AcDbPolyline
 90
        2
 70
     0
 43
0.0
 10
26.91214312499983
 20
-47.19871312500004
 10
28.55820437499983
 20
-47.19871312500004
  0
LWPOLYLINE
  5
1B
330
F5
100
AcDbEntity
  8
0
 62
     7
420
 16777215
100
AcDbPolyline
 90
        2
 70
     0
 43
0.0
 10
24.03136062499993
 20
-47.19871312500004
 10
25.67742062499974
 20
-47.19871312500004
  0
LWPOLYLINE
  5
1C
330
F5
100
AcDbEntity
  8
0
 62
     7
420
 16777215
100
AcDbPolyline
 90
        2
 70
     0
 43
0.0
 10
21.15057687499984
 20
-47.19871312500004
 10
22.79663812499984
 20
-47.19871312500004
  0
LWPOLYLINE
  5
1D
330
F5
100
AcDbEntity
  8
0
 62
     7
420
 16777215
100
AcDbPolyline
 90
        2
 70
     0
 43
0.0
 10
18.26979312499975
 20
-47.19871312500004
 10
19.91585437499975
 20
-47.19871312500004
  0
LWPOLYLINE
  5
1E
330
F5
100
AcDbEntity
  8
0
 62
     7
420
 16777215
100
AcDbPolyline
 90
        2
 70
     0
 43
0.0
 10
15.38901062499986
 20
-47.19871312500004
 10
17.03507062499989
 20
-47.19871312500004
  0
LWPOLYLINE
  5
1F
330
F5
100
AcDbEntity
  8
0
 62
     7
420
 16777215
100
AcDbPolyline
 90
        2
 70
     0
 43
0.0
 10
12.50822687499976
 20
-47.19871312500004
 10
14.15428812499977
 20
-47.19871312500004
  0
LWPOLYLINE
  5
20
330
F5
100
AcDbEntity
  8
0
 62
     7
420
 16777215
100
AcDbPolyline
 90
        2
 70
     0
 43
0.0
 10
9.6274431249999
 20
-47.19871312500004
 10
11.2735043749999
 20
-47.19871312500004
  0
LWPOLYLINE
  5
21
330
F5
100
AcDbEntity
  8
0
 62
     7
420
 16777215
100
AcDbPolyline
 90
        2
 70
     0
 43
0.0
 10
6.746660624999777
 20
-47.19871312500004
 10
8.39272062499981
 20
-47.19871312500004
  0
LWPOLYLINE
  5
22
330
F5
100
AcDbEntity
  8
0
 62
     7
420
 16777215
100
AcDbPolyline
 90
        2
 70
     0
 43
0.0
 10
3.865876874999913
 20
-47.19871312500004
 10
5.511938124999915
 20
-47.19871312500004
  0
LWPOLYLINE
  5
23
330
F5
100
AcDbEntity
  8
0
 62
     7
420
 16777215
100
AcDbPolyline
 90
        2
 70
     0
 43
0.0
 10
0.9850931249998212
 20
-47.19871312500004
 10
2.631154374999824
 20
-47.19871312500004
  0
LWPOLYLINE
  5
24
330
F5
100
AcDbEntity
  8
0
 62
     7
420
 16777215
100
AcDbPolyline
 90
        2
 70
     0
 43
0.0
 10
-1.895689375000075
 20
-47.19871312500004
 10
-0.2496293750002678
 20
-47.19871312500004
  0
LWPOLYLINE
  5
25
330
F5
100
AcDbEntity
  8
0
 62
     7
420
 16777215
100
AcDbPolyline
 90
        2
 70
     0
 43
0.0
 10
-4.776473125000166
 20
-47.19871312500004
 10
-3.130411875000163
 20
-47.19871312500004
  0
LWPOLYLINE
  5
26
330
F5
100
AcDbEntity
  8
0
 62
     7
420
 16777215
100
AcDbPolyline
 90
        2
 70
     0
 43
0.0
 10
41.31606062499986
 20
2.801539374999948
 10
42.9621206249999
 20
2.801539374999948
  0
LWPOLYLINE
  5
27
330
F5
100
AcDbEntity
  8
0
 62
     7
420
 16777215
100
AcDbPolyline
 90
        2
 70
     0
 43
0.0
 10
38.43527687499977
 20
2.801539374999948
 10
40.08133812499977
 20
2.801539374999948
  0
LWPOLYLINE
  5
28
330
F5
100
AcDbEntity
  8
0
 62
     7
420
 16777215
100
AcDbPolyline
 90
        2
 70
     0
 43
0.0
 10
35.55449312499991
 20
2.801539374999948
 10
37.20055437499991
 20
2.801539374999948
  0
LWPOLYLINE
  5
29
330
F5
100
AcDbEntity
  8
0
 62
     7
420
 16777215
100
AcDbPolyline
 90
        2
 70
     0
 43
0.0
 10
32.67371062499979
 20
2.801539374999948
 10
34.31977062499982
 20
2.801539374999948
  0
LWPOLYLINE
  5
2A
330
F5
100
AcDbEntity
  8
0
 62
     7
420
 16777215
100
AcDbPolyline
 90
        2
 70
     0
 43
0.0
 10
29.79292687499992
 20
2.801539374999948
 10
31.43898812499992
 20
2.801539374999948
  0
LWPOLYLINE
  5
2B
330
F5
100
AcDbEntity
  8
0
 62
     7
420
 16777215
100
AcDbPolyline
 90
        2
 70
     0
 43
0.0
 10
26.91214312499983
 20
2.801539374999948
 10
28.55820437499983
 20
2.801539374999948
  0
LWPOLYLINE
  5
2C
330
F5
100
AcDbEntity
  8
0
 62
     7
420
 16777215
100
AcDbPolyline
 90
        2
 70
     0
 43
0.0
 10
24.03136062499993
 20
2.801539374999948
 10
25.67742062499974
 20
2.801539374999948
  0
LWPOLYLINE
  5
2D
330
F5
100
AcDbEntity
  8
0
 62
     7
420
 16777215
100
AcDbPolyline
 90
        2
 70
     0
 43
0.0
 10
21.15057687499984
 20
2.801539374999948
 10
22.79663812499984
 20
2.801539374999948
  0
LWPOLYLINE
  5
2E
330
F5
100
AcDbEntity
  8
0
 62
     7
420
 16777215
100
AcDbPolyline
 90
        2
 70
     0
 43
0.0
 10
26.19212437499982
 20
113.8947893750001
 10
45.14264062499979
 20
121.8823831249999
  0
LWPOLYLINE
  5
2F
330
F5
100
AcDbEntity
  8
0
 62
     7
420
 16777215
100
AcDbPolyline
 90
        2
 70
     0
 43
0.0
 10
18.26979312499975
 20
2.801539374999948
 10
19.91585437499975
 20
2.801539374999948
  0
LWPOLYLINE
  5
30
330
F5
100
AcDbEntity
  8
0
 62
     7
420
 16777215
100
AcDbPolyline
 90
        2
 70
     0
 43
0.0
 10
15.38901062499986
 20
2.801539374999948
 10
17.03507062499989
 20
2.801539374999948
  0
LWPOLYLINE
  5
31
330
F5
100
AcDbEntity
  8
0
 62
     7
420
 16777215
100
AcDbPolyline
 90
        2
 70
     0
 43
0.0
 10
43.88604562499972
 20
115.944780625
 10
45.86019062499986
 20
125.2711668750001
  0
LWPOLYLINE
  5
32
330
F5
100
AcDbEntity
  8
0
 62
     7
420
 16777215
100
AcDbPolyline
 90
        2
 70
     0
 43
0.0
 10
12.50822687499976
 20
2.801539374999948
 10
14.15428812499977
 20
2.801539374999948
  0
LWPOLYLINE
  5
33
330
F5
100
AcDbEntity
  8
0
 62
     7
420
 16777215
100
AcDbPolyline
 90
        2
 70
     0
 43
0.0
 10
9.6274431249999
 20
2.801539374999948
 10
11.2735043749999
 20
2.801539374999948
  0
LWPOLYLINE
  5
34
330
F5
100
AcDbEntity
  8
0
 62
     7
420
 16777215
100
AcDbPolyline
 90
        2
 70
     0
 43
0.0
 10
6.746660624999777
 20
2.801539374999948
 10
8.39272062499981
 20
2.801539374999948
  0
LWPOLYLINE
  5
35
330
F5
100
AcDbEntity
  8
0
 62
     7
420
 16777215
100
AcDbPolyline
 90
        2
 70
     0
 43
0.0
 10
3.865876874999913
 20
2.801539374999948
 10
5.511938124999915
 20
2.801539374999948
  0
LWPOLYLINE
  5
36
330
F5
100
AcDbEntity
  8
0
 62
     7
420
 16777215
100
AcDbPolyline
 90
        2
 70
     0
 43
0.0
 10
0.9850931249998212
 20
2.801539374999948
 10
2.631154374999824
 20
2.801539374999948
  0
LWPOLYLINE
  5
37
330
F5
100
AcDbEntity
  8
0
 62
     7
420
 16777215
100
AcDbPolyline
 90
        2
 70
     0
 43
0.0
 10
-1.895689375000075
 20
2.801539374999948
 10
-0.2496293750002678
 20
2.801539374999948
  0
LWPOLYLINE
  5
38
330
F5
100
AcDbEntity
  8
0
 62
     7
420
 16777215
100
AcDbPolyline
 90
        2
 70
     0
 43
0.0
 10
-4.776473125000166
 20
2.801539374999948
 10
-3.130411875000163
 20
2.801539374999948
  0
LWPOLYLINE
  5
39
330
F5
100
AcDbEntity
  8
0
 62
     7
420
 16777215
100
AcDbPolyline
 90
        2
 70
     0
 43
0.0
 10
44.09277437499986
 20
-44.42199937500004
 10
44.09277437499986
 20
-46.06806062500004
  0
LWPOLYLINE
  5
3A
330
F5
100
AcDbEntity
  8
0
 62
     7
420
 16777215
100
AcDbPolyline
 90
        2
 70
     0
 43
0.0
 10
44.09277437499986
 20
-41.54121687500003
 10
44.09277437499986
 20
-43.18727687500007
  0
LWPOLYLINE
  5
3B
330
F5
100
AcDbEntity
  8
0
 62
     7
420
 16777215
100
AcDbPolyline
 90
        2
 70
     0
 43
0.0
 10
44.09277437499986
 20
-38.66043312500005
 10
44.09277437499986
 20
-40.30649437500006
  0
LWPOLYLINE
  5
3C
330
F5
100
AcDbEntity
  8
0
 62
     7
420
 16777215
100
AcDbPolyline
 90
        2
 70
     0
 43
0.0
 10
44.09277437499986
 20
-35.77964937500008
 10
44.09277437499986
 20
-37.42571062499997
  0
LWPOLYLINE
  5
3D
330
F5
100
AcDbEntity
  8
0
 62
     7
420
 16777215
100
AcDbPolyline
 90
        2
 70
     0
 43
0.0
 10
44.09277437499986
 20
-32.89886687500007
 10
44.09277437499986
 20
-34.54492687499999
  0
LWPOLYLINE
  5
3E
330
F5
100
AcDbEntity
  8
0
 62
     7
420
 16777215
100
AcDbPolyline
 90
        2
 70
     0
 43
0.0
 10
44.09277437499986
 20
-30.01808312500009
 10
44.09277437499986
 20
-31.66414437499998
  0
LWPOLYLINE
  5
3F
330
F5
100
AcDbEntity
  8
0
 62
     7
420
 16777215
100
AcDbPolyline
 90
        2
 70
     0
 43
0.0
 10
44.09277437499986
 20
-27.137299375
 10
44.09277437499986
 20
-28.783360625
  0
LWPOLYLINE
  5
40
330
F5
100
AcDbEntity
  8
0
 62
     7
420
 16777215
100
AcDbPolyline
 90
        2
 70
     0
 43
0.0
 10
44.09277437499986
 20
-24.25651687499999
 10
44.09277437499986
 20
-25.90257687500002
  0
LWPOLYLINE
  5
41
330
F5
100
AcDbEntity
  8
0
 62
     7
420
 16777215
100
AcDbPolyline
 90
        2
 70
     0
 43
0.0
 10
44.09277437499986
 20
-21.37573312500001
 10
44.09277437499986
 20
-23.02179437500013
  0
LWPOLYLINE
  5
42
330
F5
100
AcDbEntity
  8
0
 62
     7
420
 16777215
100
AcDbPolyline
 90
        2
 70
     0
 43
0.0
 10
44.09277437499986
 20
-18.495301875
 10
44.09277437499986
 20
-20.141363125
  0
LWPOLYLINE
  5
43
330
F5
100
AcDbEntity
  8
0
 62
     7
420
 16777215
100
AcDbPolyline
 90
        2
 70
     0
 43
0.0
 10
44.09277437499986
 20
-15.61451937499999
 10
44.09277437499986
 20
-17.2605806250001
  0
LWPOLYLINE
  5
44
330
F5
100
AcDbEntity
  8
0
 62
     7
420
 16777215
100
AcDbPolyline
 90
        2
 70
     0
 43
0.0
 10
44.09277437499986
 20
-12.73373562500001
 10
44.09277437499986
 20
-14.37979687500012
  0
LWPOLYLINE
  5
45
330
F5
100
AcDbEntity
  8
0
 62
     7
420
 16777215
100
AcDbPolyline
 90
        2
 70
     0
 43
0.0
 10
44.09277437499986
 20
-9.85295187500003
 10
44.09277437499986
 20
-11.49901312499992
  0
LWPOLYLINE
  5
46
330
F5
100
AcDbEntity
  8
0
 62
     7
420
 16777215
100
AcDbPolyline
 90
        2
 70
     0
 43
0.0
 10
44.09277437499986
 20
-6.972169375000021
 10
44.09277437499986
 20
-8.618230625000024
  0
LWPOLYLINE
  5
47
330
F5
100
AcDbEntity
  8
0
 62
     7
420
 16777215
100
AcDbPolyline
 90
        2
 70
     0
 43
0.0
 10
44.09277437499986
 20
-4.09138562499993
 10
44.09277437499986
 20
-5.737446875000046
  0
LWPOLYLINE
  5
48
330
F5
100
AcDbEntity
  8
0
 62
     7
420
 16777215
100
AcDbPolyline
 90
        2
 70
     0
 43
0.0
 10
44.09277437499986
 20
-1.210601875000066
 10
44.09277437499986
 20
-2.856663125000068
  0
SPLINE
  5
49
330
F5
100
AcDbEntity
  8
0
 62
     7
420
 16777215
100
AcDbSpline
210
0.0
220
0.0
230
1.0
 70
     8
 71
     3
 72
     8
 73
     4
 74
     0
 42
0.000000001
 43
0.001
 12
1.0
 22
0.0
 32
0.0
 13
1.0
 23
0.0
 33
0.0
 40
0.0
 40
0.0
 40
0.0
 40
0.0
 40
1.0
 40
1.0
 40
1.0
 40
1.0
 10
42.84288187499988
 20
-22.19805812499999
 30
0.0
 10
42.84288187499988
 20
-35.31504187499991
 30
0.0
 10
32.20980687499991
 20
-45.94846937500006
 30
0.0
 10
19.09317687499993
 20
-45.94846937500006
 30
0.0
  0
SPLINE
  5
4A
330
F5
100
AcDbEntity
  8
0
 62
     7
420
 16777215
100
AcDbSpline
210
0.0
220
0.0
230
1.0
 70
     8
 71
     3
 72
     8
 73
     4
 74
     0
 42
0.000000001
 43
0.001
 12
1.0
 22
0.0
 32
0.0
 13
1.0
 23
0.0
 33
0.0
 40
0.0
 40
0.0
 40
0.0
 40
0.0
 40
1.0
 40
1.0
 40
1.0
 40
1.0
 10
19.09317687499993
 20
-45.94846937500006
 30
0.0
 10
5.976545624999744
 20
-45.94846937500006
 30
0.0
 10
-4.656881875000181
 20
-35.31468812499998
 30
0.0
 10
-4.656881875000181
 20
-22.19805812499999
 30
0.0
  0
SPLINE
  5
4B
330
F5
100
AcDbEntity
  8
0
 62
     7
420
 16777215
100
AcDbSpline
210
0.0
220
0.0
230
1.0
 70
     8
 71
     3
 72
     8
 73
     4
 74
     0
 42
0.000000001
 43
0.001
 12
1.0
 22
0.0
 32
0.0
 13
1.0
 23
0.0
 33
0.0
 40
0.0
 40
0.0
 40
0.0
 40
0.0
 40
1.0
 40
1.0
 40
1.0
 40
1.0
 10
-4.656881875000181
 20
-22.19805812499999
 30
0.0
 10
-4.656881875000181
 20
-9.081426875000034
 30
0.0
 10
5.976545624999744
 20
1.552000625000005
 30
0.0
 10
19.09317687499993
 20
1.552000625000005
 30
0.0
  0
SPLINE
  5
4C
330
F5
100
AcDbEntity
  8
0
 62
     7
420
 16777215
100
AcDbSpline
210
0.0
220
0.0
230
1.0
 70
     8
 71
     3
 72
     8
 73
     4
 74
     0
 42
0.000000001
 43
0.001
 12
1.0
 22
0.0
 32
0.0
 13
1.0
 23
0.0
 33
0.0
 40
0.0
 40
0.0
 40
0.0
 40
0.0
 40
1.0
 40
1.0
 40
1.0
 40
1.0
 10
19.09317687499993
 20
1.552000625000005
 30
0.0
 10
32.20980687499991
 20
1.552000625000005
 30
0.0
 10
42.84288187499988
 20
-9.081426875000034
 30
0.0
 10
42.84288187499988
 20
-22.19805812499999
 30
0.0
  0
LWPOLYLINE
  5
4D
330
F5
100
AcDbEntity
  8
0
 62
     7
420
 16777215
100
AcDbPolyline
 90
        2
 70
     0
 43
0.0
 10
44.09277437499986
 20
1.670180624999944
 10
44.09277437499986
 20
0.0241193749999411
  0
SPLINE
  5
4E
330
F5
100
AcDbEntity
  8
0
 62
     7
420
 16777215
100
AcDbSpline
210
0.0
220
0.0
230
1.0
 70
     8
 71
     3
 72
     8
 73
     4
 74
     0
 42
0.000000001
 43
0.001
 12
1.0
 22
0.0
 32
0.0
 13
1.0
 23
0.0
 33
0.0
 40
0.0
 40
0.0
 40
0.0
 40
0.0
 40
1.0
 40
1.0
 40
1.0
 40
1.0
 10
37.59319562499991
 20
-2.198380625000027
 30
0.0
 10
37.59319562499991
 20
-1.369705625000051
 30
0.0
 10
38.26488562499981
 20
-0.6983693750000839
 30
0.0
 10
39.09356062499978
 20
-0.6983693750000839
 30
0.0
  0
SPLINE
  5
4F
330
F5
100
AcDbEntity
  8
0
 62
     7
420
 16777215
100
AcDbSpline
210
0.0
220
0.0
230
1.0
 70
     8
 71
     3
 72
     8
 73
     4
 74
     0
 42
0.000000001
 43
0.001
 12
1.0
 22
0.0
 32
0.0
 13
1.0
 23
0.0
 33
0.0
 40
0.0
 40
0.0
 40
0.0
 40
0.0
 40
1.0
 40
1.0
 40
1.0
 40
1.0
 10
39.09356062499978
 20
-0.6983693750000839
 30
0.0
 10
39.92188187499983
 20
-0.6983693750000839
 30
0.0
 10
40.59357062499976
 20
-1.369705625000051
 30
0.0
 10
40.59357062499976
 20
-2.198380625000027
 30
0.0
  0
SPLINE
  5
50
330
F5
100
AcDbEntity
  8
0
 62
     7
420
 16777215
100
AcDbSpline
210
0.0
220
0.0
230
1.0
 70
     8
 71
     3
 72
     8
 73
     4
 74
     0
 42
0.000000001
 43
0.001
 12
1.0
 22
0.0
 32
0.0
 13
1.0
 23
0.0
 33
0.0
 40
0.0
 40
0.0
 40
0.0
 40
0.0
 40
1.0
 40
1.0
 40
1.0
 40
1.0
 10
40.59357062499976
 20
-2.198380625000027
 30
0.0
 10
40.59357062499976
 20
-3.026701875000072
 30
0.0
 10
39.92188187499983
 20
-3.69839187499997
 30
0.0
 10
39.09356062499978
 20
-3.69839187499997
 30
0.0
  0
SPLINE
  5
51
330
F5
100
AcDbEntity
  8
0
 62
     7
420
 16777215
100
AcDbSpline
210
0.0
220
0.0
230
1.0
 70
     8
 71
     3
 72
     8
 73
     4
 74
     0
 42
0.000000001
 43
0.001
 12
1.0
 22
0.0
 32
0.0
 13
1.0
 23
0.0
 33
0.0
 40
0.0
 40
0.0
 40
0.0
 40
0.0
 40
1.0
 40
1.0
 40
1.0
 40
1.0
 10
39.09356062499978
 20
-3.69839187499997
 30
0.0
 10
38.26488562499981
 20
-3.69839187499997
 30
0.0
 10
37.59319562499991
 20
-3.026701875000072
 30
0.0
 10
37.59319562499991
 20
-2.198380625000027
 30
0.0
  0
LWPOLYLINE
  5
52
330
F5
100
AcDbEntity
  8
0
 62
     7
420
 16777215
100
AcDbPolyline
 90
        2
 70
     0
 43
0.0
 10
42.84288187499988
 20
-22.19805812499999
 10
42.84288187499988
 20
-22.19805812499999
  0
SPLINE
  5
53
330
F5
100
AcDbEntity
  8
0
 62
     7
420
 16777215
100
AcDbSpline
210
0.0
220
0.0
230
1.0
 70
     8
 71
     3
 72
     8
 73
     4
 74
     0
 42
0.000000001
 43
0.001
 12
1.0
 22
0.0
 32
0.0
 13
1.0
 23
0.0
 33
0.0
 40
0.0
 40
0.0
 40
0.0
 40
0.0
 40
1.0
 40
1.0
 40
1.0
 40
1.0
 10
-2.406864375000168
 20
-2.198380625000027
 30
0.0
 10
-2.406864375000168
 20
-1.369705625000051
 30
0.0
 10
-1.735175625000238
 20
-0.6983693750000839
 30
0.0
 10
-0.9068543750001936
 20
-0.6983693750000839
 30
0.0
  0
SPLINE
  5
54
330
F5
100
AcDbEntity
  8
0
 62
     7
420
 16777215
100
AcDbSpline
210
0.0
220
0.0
230
1.0
 70
     8
 71
     3
 72
     8
 73
     4
 74
     0
 42
0.000000001
 43
0.001
 12
1.0
 22
0.0
 32
0.0
 13
1.0
 23
0.0
 33
0.0
 40
0.0
 40
0.0
 40
0.0
 40
0.0
 40
1.0
 40
1.0
 40
1.0
 40
1.0
 10
-0.9068543750001936
 20
-0.6983693750000839
 30
0.0
 10
-0.0778256250000595
 20
-0.6983693750000839
 30
0.0
 10
0.5931568749997496
 20
-1.369705625000051
 30
0.0
 10
0.5931568749997496
 20
-2.198380625000027
 30
0.0
  0
SPLINE
  5
55
330
F5
100
AcDbEntity
  8
0
 62
     7
420
 16777215
100
AcDbSpline
210
0.0
220
0.0
230
1.0
 70
     8
 71
     3
 72
     8
 73
     4
 74
     0
 42
0.000000001
 43
0.001
 12
1.0
 22
0.0
 32
0.0
 13
1.0
 23
0.0
 33
0.0
 40
0.0
 40
0.0
 40
0.0
 40
0.0
 40
1.0
 40
1.0
 40
1.0
 40
1.0
 10
0.5931568749997496
 20
-2.198380625000027
 30
0.0
 10
0.5931568749997496
 20
-3.026701875000072
 30
0.0
 10
-0.0778256250000595
 20
-3.69839187499997
 30
0.0
 10
-0.9068543750001936
 20
-3.69839187499997
 30
0.0
  0
SPLINE
  5
56
330
F5
100
AcDbEntity
  8
0
 62
     7
420
 16777215
100
AcDbSpline
210
0.0
220
0.0
230
1.0
 70
     8
 71
     3
 72
     8
 73
     4
 74
     0
 42
0.000000001
 43
0.001
 12
1.0
 22
0.0
 32
0.0
 13
1.0
 23
0.0
 33
0.0
 40
0.0
 40
0.0
 40
0.0
 40
0.0
 40
1.0
 40
1.0
 40
1.0
 40
1.0
 10
-0.9068543750001936
 20
-3.69839187499997
 30
0.0
 10
-1.735175625000238
 20
-3.69839187499997
 30
0.0
 10
-2.406864375000168
 20
-3.026701875000072
 30
0.0
 10
-2.406864375000168
 20
-2.198380625000027
 30
0.0
  0
LWPOLYLINE
  5
57
330
F5
100
AcDbEntity
  8
0
 62
     7
420
 16777215
100
AcDbPolyline
 90
        2
 70
     0
 43
0.0
 10
37.59319562499991
 20
-2.198380625000027
 10
37.59319562499991
 20
-2.198380625000027
  0
SPLINE
  5
58
330
F5
100
AcDbEntity
  8
0
 62
     7
420
 16777215
100
AcDbSpline
210
0.0
220
0.0
230
1.0
 70
     8
 71
     3
 72
     8
 73
     4
 74
     0
 42
0.000000001
 43
0.001
 12
1.0
 22
0.0
 32
0.0
 13
1.0
 23
0.0
 33
0.0
 40
0.0
 40
0.0
 40
0.0
 40
0.0
 40
1.0
 40
1.0
 40
1.0
 40
1.0
 10
37.59319562499991
 20
-42.19844187500007
 30
0.0
 10
37.59319562499991
 20
-41.36976687499998
 30
0.0
 10
38.26488562499981
 20
-40.69843062500001
 30
0.0
 10
39.09356062499978
 20
-40.69843062500001
 30
0.0
  0
SPLINE
  5
59
330
F5
100
AcDbEntity
  8
0
 62
     7
420
 16777215
100
AcDbSpline
210
0.0
220
0.0
230
1.0
 70
     8
 71
     3
 72
     8
 73
     4
 74
     0
 42
0.000000001
 43
0.001
 12
1.0
 22
0.0
 32
0.0
 13
1.0
 23
0.0
 33
0.0
 40
0.0
 40
0.0
 40
0.0
 40
0.0
 40
1.0
 40
1.0
 40
1.0
 40
1.0
 10
39.09356062499978
 20
-40.69843062500001
 30
0.0
 10
39.92188187499983
 20
-40.69843062500001
 30
0.0
 10
40.59357062499976
 20
-41.36976687499998
 30
0.0
 10
40.59357062499976
 20
-42.19844187500007
 30
0.0
  0
SPLINE
  5
5A
330
F5
100
AcDbEntity
  8
0
 62
     7
420
 16777215
100
AcDbSpline
210
0.0
220
0.0
230
1.0
 70
     8
 71
     3
 72
     8
 73
     4
 74
     0
 42
0.000000001
 43
0.001
 12
1.0
 22
0.0
 32
0.0
 13
1.0
 23
0.0
 33
0.0
 40
0.0
 40
0.0
 40
0.0
 40
0.0
 40
1.0
 40
1.0
 40
1.0
 40
1.0
 10
40.59357062499976
 20
-42.19844187500007
 30
0.0
 10
40.59357062499976
 20
-43.026763125
 30
0.0
 10
39.92188187499983
 20
-43.69845187499993
 30
0.0
 10
39.09356062499978
 20
-43.69845187499993
 30
0.0
  0
SPLINE
  5
5B
330
F5
100
AcDbEntity
  8
0
 62
     7
420
 16777215
100
AcDbSpline
210
0.0
220
0.0
230
1.0
 70
     8
 71
     3
 72
     8
 73
     4
 74
     0
 42
0.000000001
 43
0.001
 12
1.0
 22
0.0
 32
0.0
 13
1.0
 23
0.0
 33
0.0
 40
0.0
 40
0.0
 40
0.0
 40
0.0
 40
1.0
 40
1.0
 40
1.0
 40
1.0
 10
39.09356062499978
 20
-43.69845187499993
 30
0.0
 10
38.26488562499981
 20
-43.69845187499993
 30
0.0
 10
37.59319562499991
 20
-43.02641062500004
 30
0.0
 10
37.59319562499991
 20
-42.19844187500007
 30
0.0
  0
LWPOLYLINE
  5
5C
330
F5
100
AcDbEntity
  8
0
 62
     7
420
 16777215
100
AcDbPolyline
 90
        2
 70
     0
 43
0.0
 10
-2.406864375000168
 20
-2.198380625000027
 10
-2.406864375000168
 20
-2.198380625000027
  0
SPLINE
  5
5D
330
F5
100
AcDbEntity
  8
0
 62
     7
420
 16777215
100
AcDbSpline
210
0.0
220
0.0
230
1.0
 70
     8
 71
     3
 72
     8
 73
     4
 74
     0
 42
0.000000001
 43
0.001
 12
1.0
 22
0.0
 32
0.0
 13
1.0
 23
0.0
 33
0.0
 40
0.0
 40
0.0
 40
0.0
 40
0.0
 40
1.0
 40
1.0
 40
1.0
 40
1.0
 10
-2.406864375000168
 20
-42.19844187500007
 30
0.0
 10
-2.406864375000168
 20
-41.36976687499998
 30
0.0
 10
-1.735175625000238
 20
-40.69843062500001
 30
0.0
 10
-0.9068543750001936
 20
-40.69843062500001
 30
0.0
  0
SPLINE
  5
5E
330
F5
100
AcDbEntity
  8
0
 62
     7
420
 16777215
100
AcDbSpline
210
0.0
220
0.0
230
1.0
 70
     8
 71
     3
 72
     8
 73
     4
 74
     0
 42
0.000000001
 43
0.001
 12
1.0
 22
0.0
 32
0.0
 13
1.0
 23
0.0
 33
0.0
 40
0.0
 40
0.0
 40
0.0
 40
0.0
 40
1.0
 40
1.0
 40
1.0
 40
1.0
 10
-0.9068543750001936
 20
-40.69843062500001
 30
0.0
 10
-0.0778256250000595
 20
-40.69843062500001
 30
0.0
 10
0.5931568749997496
 20
-41.36976687499998
 30
0.0
 10
0.5931568749997496
 20
-42.19844187500007
 30
0.0
  0
SPLINE
  5
5F
330
F5
100
AcDbEntity
  8
0
 62
     7
420
 16777215
100
AcDbSpline
210
0.0
220
0.0
230
1.0
 70
     8
 71
     3
 72
     8
 73
     4
 74
     0
 42
0.000000001
 43
0.001
 12
1.0
 22
0.0
 32
0.0
 13
1.0
 23
0.0
 33
0.0
 40
0.0
 40
0.0
 40
0.0
 40
0.0
 40
1.0
 40
1.0
 40
1.0
 40
1.0
 10
0.5931568749997496
 20
-42.19844187500007
 30
0.0
 10
0.5931568749997496
 20
-43.026763125
 30
0.0
 10
-0.0778256250000595
 20
-43.69845187499993
 30
0.0
 10
-0.9068543750001936
 20
-43.69845187499993
 30
0.0
  0
SPLINE
  5
60
330
F5
100
AcDbEntity
  8
0
 62
     7
420
 16777215
100
AcDbSpline
210
0.0
220
0.0
230
1.0
 70
     8
 71
     3
 72
     8
 73
     4
 74
     0
 42
0.000000001
 43
0.001
 12
1.0
 22
0.0
 32
0.0
 13
1.0
 23
0.0
 33
0.0
 40
0.0
 40
0.0
 40
0.0
 40
0.0
 40
1.0
 40
1.0
 40
1.0
 40
1.0
 10
-0.9068543750001936
 20
-43.69845187499993
 30
0.0
 10
-1.735175625000238
 20
-43.69845187499993
 30
0.0
 10
-2.406864375000168
 20
-43.02641062500004
 30
0.0
 10
-2.406864375000168
 20
-42.19844187500007
 30
0.0
  0
LWPOLYLINE
  5
61
330
F5
100
AcDbEntity
  8
0
 62
     7
420
 16777215
100
AcDbPolyline
 90
        2
 70
     0
 43
0.0
 10
37.59319562499991
 20
-42.19844187500007
 10
37.59319562499991
 20
-42.19844187500007
  0
SPLINE
  5
62
330
F5
100
AcDbEntity
  8
0
 62
     7
420
 16777215
100
AcDbSpline
210
0.0
220
0.0
230
1.0
 70
     8
 71
     3
 72
     8
 73
     4
 74
     0
 42
0.000000001
 43
0.001
 12
1.0
 22
0.0
 32
0.0
 13
1.0
 23
0.0
 33
0.0
 40
0.0
 40
0.0
 40
0.0
 40
0.0
 40
1.0
 40
1.0
 40
1.0
 40
1.0
 10
-8.88633437500016
 20
-47.19871312500004
 30
0.0
 10
-12.76406812500022
 20
-47.19871312500004
 30
0.0
 10
-15.90731812500007
 20
-50.34196312500012
 30
0.0
 10
-15.90731812500007
 20
-54.21969687499995
 30
0.0
  0
LWPOLYLINE
  5
63
330
F5
100
AcDbEntity
  8
0
 62
     7
420
 16777215
100
AcDbPolyline
 90
        2
 70
     0
 43
0.0
 10
-2.406864375000168
 20
-42.19844187500007
 10
-2.406864375000168
 20
-42.19844187500007
  0
SPLINE
  5
64
330
F5
100
AcDbEntity
  8
0
 62
     7
420
 16777215
100
AcDbSpline
210
0.0
220
0.0
230
1.0
 70
     8
 71
     3
 72
     8
 73
     4
 74
     0
 42
0.000000001
 43
0.001
 12
1.0
 22
0.0
 32
0.0
 13
1.0
 23
0.0
 33
0.0
 40
0.0
 40
0.0
 40
0.0
 40
0.0
 40
1.0
 40
1.0
 40
1.0
 40
1.0
 10
5.181031874999917
 20
-65.34630812500006
 30
0.0
 10
5.181031874999917
 20
-66.27552437500003
 30
0.0
 10
5.867890624999745
 20
-66.23813062499994
 30
0.0
 10
6.760418124999887
 20
-66.370774375
 30
0.0
  0
SPLINE
  5
65
330
F5
100
AcDbEntity
  8
0
 62
     7
420
 16777215
100
AcDbSpline
210
0.0
220
0.0
230
1.0
 70
     8
 71
     3
 72
     8
 73
     4
 74
     0
 42
0.000000001
 43
0.001
 12
1.0
 22
0.0
 32
0.0
 13
1.0
 23
0.0
 33
0.0
 40
0.0
 40
0.0
 40
0.0
 40
0.0
 40
1.0
 40
1.0
 40
1.0
 40
1.0
 10
6.760418124999887
 20
-66.370774375
 30
0.0
 10
6.848613124999929
 20
-66.38911937500006
 30
0.0
 10
6.939629374999868
 20
-66.39829187500004
 30
0.0
 10
7.033115624999937
 20
-66.39829187500004
 30
0.0
  0
LWPOLYLINE
  5
66
330
F5
100
AcDbEntity
  8
0
 62
     7
420
 16777215
100
AcDbPolyline
 90
        5
 70
     0
 43
0.0
 10
-15.90731812500007
 20
-54.21969687499995
 10
-15.90731812500007
 20
-62.82782687500003
 10
-7.31894312500026
 20
-64.56384687499997
 10
5.181031874999917
 20
-64.48658812500003
 10
5.181031874999917
 20
-65.34630812500006
  0
SPLINE
  5
67
330
F5
100
AcDbEntity
  8
0
 62
     7
420
 16777215
100
AcDbSpline
210
0.0
220
0.0
230
1.0
 70
     8
 71
     3
 72
     8
 73
     4
 74
     0
 42
0.000000001
 43
0.001
 12
1.0
 22
0.0
 32
0.0
 13
1.0
 23
0.0
 33
0.0
 40
0.0
 40
0.0
 40
0.0
 40
0.0
 40
1.0
 40
1.0
 40
1.0
 40
1.0
 10
7.962685624999949
 20
-66.39652687500006
 30
0.0
 10
9.440470624999762
 20
-66.39652687500006
 30
0.0
 10
10.63956312499977
 20
-65.9890693750001
 30
0.0
 10
10.63956312499977
 20
-64.49964187500007
 30
0.0
  0
LWPOLYLINE
  5
68
330
F5
100
AcDbEntity
  8
0
 62
     7
420
 16777215
100
AcDbPolyline
 90
        2
 70
     0
 43
0.0
 10
7.033115624999937
 20
-66.39829187500004
 10
7.962685624999949
 20
-66.39652687500006
  0
SPLINE
  5
69
330
F5
100
AcDbEntity
  8
0
 62
     7
420
 16777215
100
AcDbSpline
210
0.0
220
0.0
230
1.0
 70
     8
 71
     3
 72
     8
 73
     4
 74
     0
 42
0.000000001
 43
0.001
 12
1.0
 22
0.0
 32
0.0
 13
1.0
 23
0.0
 33
0.0
 40
0.0
 40
0.0
 40
0.0
 40
0.0
 40
1.0
 40
1.0
 40
1.0
 40
1.0
 10
22.17998187499984
 20
-65.34630812500006
 30
0.0
 10
22.17998187499984
 20
-66.36865812499991
 30
0.0
 10
23.0097156249999
 20
-66.39793812500011
 30
0.0
 10
24.03206562499986
 20
-66.39793812500011
 30
0.0
  0
SPLINE
  5
6A
330
F5
100
AcDbEntity
  8
0
 62
     7
420
 16777215
100
AcDbSpline
210
0.0
220
0.0
230
1.0
 70
     8
 71
     3
 72
     8
 73
     4
 74
     0
 42
0.000000001
 43
0.001
 12
1.0
 22
0.0
 32
0.0
 13
1.0
 23
0.0
 33
0.0
 40
0.0
 40
0.0
 40
0.0
 40
0.0
 40
1.0
 40
1.0
 40
1.0
 40
1.0
 10
24.03206562499986
 20
-66.39793812500011
 30
0.0
 10
24.05217437499982
 20
-66.39793812500011
 30
0.0
 10
24.07051812499981
 20
-66.39299937500004
 30
0.0
 10
24.09062687499977
 20
-66.392294375
 30
0.0
  0
SPLINE
  5
6B
330
F5
100
AcDbEntity
  8
0
 62
     7
420
 16777215
100
AcDbSpline
210
0.0
220
0.0
230
1.0
 70
     8
 71
     3
 72
     8
 73
     4
 74
     0
 42
0.000000001
 43
0.001
 12
1.0
 22
0.0
 32
0.0
 13
1.0
 23
0.0
 33
0.0
 40
0.0
 40
0.0
 40
0.0
 40
0.0
 40
1.0
 40
1.0
 40
1.0
 40
1.0
 10
24.09062687499977
 20
-66.392294375
 30
0.0
 10
24.11002937499984
 20
-66.39299937500004
 30
0.0
 10
24.12837437499979
 20
-66.39793812500011
 30
0.0
 10
24.14848187499979
 20
-66.39793812500011
 30
0.0
  0
LWPOLYLINE
  5
6C
330
F5
100
AcDbEntity
  8
0
 62
     7
420
 16777215
100
AcDbPolyline
 90
        6
 70
     0
 43
0.0
 10
10.63956312499977
 20
-64.49964187500007
 10
10.65261562499973
 20
-64.49611312499997
 10
8.88519937499973
 20
-64.19589937499995
 10
8.88519937499973
 20
-63.48611062500004
 10
22.17998187499984
 20
-63.48611062500004
 10
22.17998187499984
 20
-65.34630812500006
  0
SPLINE
  5
6D
330
F5
100
AcDbEntity
  8
0
 62
     7
420
 16777215
100
AcDbSpline
210
0.0
220
0.0
230
1.0
 70
     8
 71
     3
 72
     8
 73
     4
 74
     0
 42
0.000000001
 43
0.001
 12
1.0
 22
0.0
 32
0.0
 13
1.0
 23
0.0
 33
0.0
 40
0.0
 40
0.0
 40
0.0
 40
0.0
 40
1.0
 40
1.0
 40
1.0
 40
1.0
 10
25.09110437499976
 20
-66.39299937500004
 30
0.0
 10
26.56924312499973
 20
-66.39299937500004
 30
0.0
 10
27.7679818749998
 20
-65.98554187500008
 30
0.0
 10
27.7679818749998
 20
-64.495760625
 30
0.0
  0
LWPOLYLINE
  5
6E
330
F5
100
AcDbEntity
  8
0
 62
     7
420
 16777215
100
AcDbPolyline
 90
        2
 70
     0
 43
0.0
 10
24.14848187499979
 20
-66.39793812500011
 10
25.09110437499976
 20
-66.39299937500004
  0
SPLINE
  5
6F
330
F5
100
AcDbEntity
  8
0
 62
     7
420
 16777215
100
AcDbSpline
210
0.0
220
0.0
230
1.0
 70
     8
 71
     3
 72
     8
 73
     4
 74
     0
 42
0.000000001
 43
0.001
 12
1.0
 22
0.0
 32
0.0
 13
1.0
 23
0.0
 33
0.0
 40
0.0
 40
0.0
 40
0.0
 40
0.0
 40
1.0
 40
1.0
 40
1.0
 40
1.0
 10
28.60582937499976
 20
-63.48575812500007
 30
0.0
 10
32.2775406249998
 20
-63.48575812500007
 30
0.0
 10
35.64903812499983
 20
-61.40507437499991
 30
0.0
 10
38.30298562499979
 20
-59.27112187500006
 30
0.0
  0
LWPOLYLINE
  5
70
330
F5
100
AcDbEntity
  8
0
 62
     7
420
 16777215
100
AcDbPolyline
 90
        4
 70
     0
 43
0.0
 10
27.7679818749998
 20
-64.495760625
 10
25.88414937499988
 20
-64.19554687499999
 10
25.88414937499988
 20
-63.48575812500007
 10
28.60582937499976
 20
-63.48575812500007
  0
SPLINE
  5
71
330
F5
100
AcDbEntity
  8
0
 62
     7
420
 16777215
100
AcDbSpline
210
0.0
220
0.0
230
1.0
 70
     8
 71
     3
 72
     8
 73
     4
 74
     0
 42
0.000000001
 43
0.001
 12
1.0
 22
0.0
 32
0.0
 13
1.0
 23
0.0
 33
0.0
 40
0.0
 40
0.0
 40
0.0
 40
0.0
 40
1.0
 40
1.0
 40
1.0
 40
1.0
 10
39.77618562499993
 20
-60.74432187499997
 30
0.0
 10
40.43341062499985
 20
-61.40119437499993
 30
0.0
 10
41.45858187499994
 20
-61.45481687500001
 30
0.0
 10
42.18354062499975
 20
-60.91788812499999
 30
0.0
  0
SPLINE
  5
72
330
F5
100
AcDbEntity
  8
0
 62
     7
420
 16777215
100
AcDbSpline
210
0.0
220
0.0
230
1.0
 70
     8
 71
     3
 72
     8
 73
     4
 74
     0
 42
0.000000001
 43
0.001
 12
1.0
 22
0.0
 32
0.0
 13
1.0
 23
0.0
 33
0.0
 40
0.0
 40
0.0
 40
0.0
 40
0.0
 40
1.0
 40
1.0
 40
1.0
 40
1.0
 10
42.18354062499975
 20
-60.91788812499999
 30
0.0
 10
42.25797687499994
 20
-60.86814687499998
 30
0.0
 10
42.32959062499981
 20
-60.81064437500004
 30
0.0
 10
42.39556062499992
 20
-60.74432187499997
 30
0.0
  0
LWPOLYLINE
  5
73
330
F5
100
AcDbEntity
  8
0
 62
     7
420
 16777215
100
AcDbPolyline
 90
        2
 70
     0
 43
0.0
 10
38.30298562499979
 20
-59.27112187500006
 10
39.77618562499993
 20
-60.74432187499997
  0
SPLINE
  5
74
330
F5
100
AcDbEntity
  8
0
 62
     7
420
 16777215
100
AcDbSpline
210
0.0
220
0.0
230
1.0
 70
     8
 71
     3
 72
     8
 73
     4
 74
     0
 42
0.000000001
 43
0.001
 12
1.0
 22
0.0
 32
0.0
 13
1.0
 23
0.0
 33
0.0
 40
0.0
 40
0.0
 40
0.0
 40
0.0
 40
1.0
 40
1.0
 40
1.0
 40
1.0
 10
43.05842937499983
 20
-60.07474937500001
 30
0.0
 10
44.10371062499985
 20
-59.029116875
 30
0.0
 10
43.89733562499987
 20
-57.12799687500001
 30
0.0
 10
42.84464562499988
 20
-56.07460187499998
 30
0.0
  0
LWPOLYLINE
  5
75
330
F5
100
AcDbEntity
  8
0
 62
     7
420
 16777215
100
AcDbPolyline
 90
        2
 70
     0
 43
0.0
 10
42.39556062499992
 20
-60.74432187499997
 10
43.05842937499983
 20
-60.07474937500001
  0
SPLINE
  5
76
330
F5
100
AcDbEntity
  8
0
 62
     7
420
 16777215
100
AcDbSpline
210
0.0
220
0.0
230
1.0
 70
     8
 71
     3
 72
     8
 73
     4
 74
     0
 42
0.000000001
 43
0.001
 12
1.0
 22
0.0
 32
0.0
 13
1.0
 23
0.0
 33
0.0
 40
0.0
 40
0.0
 40
0.0
 40
0.0
 40
1.0
 40
1.0
 40
1.0
 40
1.0
 10
40.89307937499984
 20
-56.62281937500006
 30
0.0
 10
42.89897437499985
 20
-54.01226312500012
 30
0.0
 10
44.09347937499979
 20
-50.74589437500003
 30
0.0
 10
44.09347937499979
 20
-47.19871312500004
 30
0.0
  0
LWPOLYLINE
  5
77
330
F5
100
AcDbEntity
  8
0
 62
     7
420
 16777215
100
AcDbPolyline
 90
        3
 70
     0
 43
0.0
 10
42.84464562499988
 20
-56.07460187499998
 10
41.29418812499989
 20
-57.02392687500003
 10
40.89307937499984
 20
-56.62281937500006
  0
SPLINE
  5
78
330
F5
100
AcDbEntity
  8
0
 62
     7
420
 16777215
100
AcDbSpline
210
0.0
220
0.0
230
1.0
 70
     8
 71
     3
 72
     8
 73
     4
 74
     0
 42
0.000000001
 43
0.001
 12
1.0
 22
0.0
 32
0.0
 13
1.0
 23
0.0
 33
0.0
 40
0.0
 40
0.0
 40
0.0
 40
0.0
 40
1.0
 40
1.0
 40
1.0
 40
1.0
 10
102.2488956249999
 20
-47.19871312500004
 30
0.0
 10
103.8374543749999
 20
-47.19871312500004
 30
0.0
 10
105.1254456249999
 20
-45.91072187500004
 30
0.0
 10
105.1254456249999
 20
-44.32216312500009
 30
0.0
  0
LWPOLYLINE
  5
79
330
F5
100
AcDbEntity
  8
0
 62
     7
420
 16777215
100
AcDbPolyline
 90
        2
 70
     0
 43
0.0
 10
44.09347937499979
 20
-47.19871312500004
 10
102.2488956249999
 20
-47.19871312500004
  0
SPLINE
  5
7A
330
F5
100
AcDbEntity
  8
0
 62
     7
420
 16777215
100
AcDbSpline
210
0.0
220
0.0
230
1.0
 70
     8
 71
     3
 72
     8
 73
     4
 74
     0
 42
0.000000001
 43
0.001
 12
1.0
 22
0.0
 32
0.0
 13
1.0
 23
0.0
 33
0.0
 40
0.0
 40
0.0
 40
0.0
 40
0.0
 40
1.0
 40
1.0
 40
1.0
 40
1.0
 10
105.1254456249999
 20
-44.08897687500007
 30
0.0
 10
105.1254456249999
 20
-42.50041937500009
 30
0.0
 10
103.8374543749999
 20
-41.21242687500012
 30
0.0
 10
102.2488956249999
 20
-41.21242687500012
 30
0.0
  0
SPLINE
  5
7B
330
F5
100
AcDbEntity
  8
0
 62
     7
420
 16777215
100
AcDbSpline
210
0.0
220
0.0
230
1.0
 70
     8
 71
     3
 72
     8
 73
     4
 74
     0
 42
0.000000001
 43
0.001
 12
1.0
 22
0.0
 32
0.0
 13
1.0
 23
0.0
 33
0.0
 40
0.0
 40
0.0
 40
0.0
 40
0.0
 40
1.0
 40
1.0
 40
1.0
 40
1.0
 10
102.2488956249999
 20
-41.21242687500012
 30
0.0
 10
97.6462043749998
 20
-41.21242687500012
 30
0.0
 10
93.91522687499992
 20
-32.70131062500002
 30
0.0
 10
93.91522687499992
 20
-22.20229187500001
 30
0.0
  0
SPLINE
  5
7C
330
F5
100
AcDbEntity
  8
0
 62
     7
420
 16777215
100
AcDbSpline
210
0.0
220
0.0
230
1.0
 70
     8
 71
     3
 72
     8
 73
     4
 74
     0
 42
0.000000001
 43
0.001
 12
1.0
 22
0.0
 32
0.0
 13
1.0
 23
0.0
 33
0.0
 40
0.0
 40
0.0
 40
0.0
 40
0.0
 40
1.0
 40
1.0
 40
1.0
 40
1.0
 10
93.91522687499992
 20
-22.20229187500001
 30
0.0
 10
93.91522687499992
 20
-11.70362437500012
 30
0.0
 10
97.6462043749998
 20
-3.192155624999941
 30
0.0
 10
102.2488956249999
 20
-3.192155624999941
 30
0.0
  0
LWPOLYLINE
  5
7D
330
F5
100
AcDbEntity
  8
0
 62
     7
420
 16777215
100
AcDbPolyline
 90
        2
 70
     0
 43
0.0
 10
105.1254456249999
 20
-44.32216312500009
 10
105.1254456249999
 20
-44.08897687500007
  0
SPLINE
  5
7E
330
F5
100
AcDbEntity
  8
0
 62
     7
420
 16777215
100
AcDbSpline
210
0.0
220
0.0
230
1.0
 70
     8
 71
     3
 72
     8
 73
     4
 74
     0
 42
0.000000001
 43
0.001
 12
1.0
 22
0.0
 32
0.0
 13
1.0
 23
0.0
 33
0.0
 40
0.0
 40
0.0
 40
0.0
 40
0.0
 40
1.0
 40
1.0
 40
1.0
 40
1.0
 10
102.2488956249999
 20
-3.192155624999941
 30
0.0
 10
103.8374543749999
 20
-3.192155624999941
 30
0.0
 10
105.1254456249999
 20
-1.904516875000013
 30
0.0
 10
105.1254456249999
 20
-0.3152518750000581
 30
0.0
  0
LWPOLYLINE
  5
7F
330
F5
100
AcDbEntity
  8
0
 62
     7
420
 16777215
100
AcDbPolyline
 90
        3
 70
     0
 43
0.0
 10
102.2488956249999
 20
-3.192155624999941
 10
102.2488956249999
 20
-3.184746875000087
 10
102.2488956249999
 20
-3.192155624999941
  0
SPLINE
  5
80
330
F5
100
AcDbEntity
  8
0
 62
     7
420
 16777215
100
AcDbSpline
210
0.0
220
0.0
230
1.0
 70
     8
 71
     3
 72
     8
 73
     4
 74
     0
 42
0.000000001
 43
0.001
 12
1.0
 22
0.0
 32
0.0
 13
1.0
 23
0.0
 33
0.0
 40
0.0
 40
0.0
 40
0.0
 40
0.0
 40
1.0
 40
1.0
 40
1.0
 40
1.0
 10
105.1254456249999
 20
-0.0824193750000859
 30
0.0
 10
105.1254456249999
 20
1.506491874999938
 30
0.0
 10
103.8374543749999
 20
2.79413062499998
 30
0.0
 10
102.2488956249999
 20
2.79413062499998
 30
0.0
  0
LWPOLYLINE
  5
81
330
F5
100
AcDbEntity
  8
0
 62
     7
420
 16777215
100
AcDbPolyline
 90
        2
 70
     0
 43
0.0
 10
105.1254456249999
 20
-0.3152518750000581
 10
105.1254456249999
 20
-0.0824193750000859
  0
SPLINE
  5
82
330
F5
100
AcDbEntity
  8
0
 62
     7
420
 16777215
100
AcDbSpline
210
0.0
220
0.0
230
1.0
 70
     8
 71
     3
 72
     8
 73
     4
 74
     0
 42
0.000000001
 43
0.001
 12
1.0
 22
0.0
 32
0.0
 13
1.0
 23
0.0
 33
0.0
 40
0.0
 40
0.0
 40
0.0
 40
0.0
 40
1.0
 40
1.0
 40
1.0
 40
1.0
 10
44.09347937499979
 20
2.801539374999948
 30
0.0
 10
44.09347937499979
 20
6.348366875000011
 30
0.0
 10
42.89862062499992
 20
9.614736874999949
 30
0.0
 10
40.89307937499984
 20
12.22529187499993
 30
0.0
  0
LWPOLYLINE
  5
83
330
F5
100
AcDbEntity
  8
0
 62
     7
420
 16777215
100
AcDbPolyline
 90
        3
 70
     0
 43
0.0
 10
102.2488956249999
 20
2.79413062499998
 10
102.2488956249999
 20
2.801539374999948
 10
44.09347937499979
 20
2.801539374999948
  0
SPLINE
  5
84
330
F5
100
AcDbEntity
  8
0
 62
     7
420
 16777215
100
AcDbSpline
210
0.0
220
0.0
230
1.0
 70
     8
 71
     3
 72
     8
 73
     4
 74
     0
 42
0.000000001
 43
0.001
 12
1.0
 22
0.0
 32
0.0
 13
1.0
 23
0.0
 33
0.0
 40
0.0
 40
0.0
 40
0.0
 40
0.0
 40
1.0
 40
1.0
 40
1.0
 40
1.0
 10
42.84464562499988
 20
11.67742812500001
 30
0.0
 10
43.89733562499987
 20
12.73082312499992
 30
0.0
 10
44.10371062499985
 20
14.63194187499994
 30
0.0
 10
43.05842937499983
 20
15.67757562499992
 30
0.0
  0
LWPOLYLINE
  5
85
330
F5
100
AcDbEntity
  8
0
 62
     7
420
 16777215
100
AcDbPolyline
 90
        3
 70
     0
 43
0.0
 10
40.89307937499984
 20
12.22529187499993
 10
41.29418812499989
 20
12.62675312499994
 10
42.84464562499988
 20
11.67742812500001
  0
SPLINE
  5
86
330
F5
100
AcDbEntity
  8
0
 62
     7
420
 16777215
100
AcDbSpline
210
0.0
220
0.0
230
1.0
 70
     8
 71
     3
 72
     8
 73
     4
 74
     0
 42
0.000000001
 43
0.001
 12
1.0
 22
0.0
 32
0.0
 13
1.0
 23
0.0
 33
0.0
 40
0.0
 40
0.0
 40
0.0
 40
0.0
 40
1.0
 40
1.0
 40
1.0
 40
1.0
 10
42.39556062499992
 20
16.34714812499999
 30
0.0
 10
42.32959062499981
 20
16.41346937499998
 30
0.0
 10
42.25797687499994
 20
16.470973125
 30
0.0
 10
42.18354062499975
 20
16.52036187499994
 30
0.0
  0
SPLINE
  5
87
330
F5
100
AcDbEntity
  8
0
 62
     7
420
 16777215
100
AcDbSpline
210
0.0
220
0.0
230
1.0
 70
     8
 71
     3
 72
     8
 73
     4
 74
     0
 42
0.000000001
 43
0.001
 12
1.0
 22
0.0
 32
0.0
 13
1.0
 23
0.0
 33
0.0
 40
0.0
 40
0.0
 40
0.0
 40
0.0
 40
1.0
 40
1.0
 40
1.0
 40
1.0
 10
42.18354062499975
 20
16.52036187499994
 30
0.0
 10
41.45822937499975
 20
17.05728937499998
 30
0.0
 10
40.43341062499985
 20
17.00437312499992
 30
0.0
 10
39.77618562499993
 20
16.34714812499999
 30
0.0
  0
LWPOLYLINE
  5
88
330
F5
100
AcDbEntity
  8
0
 62
     7
420
 16777215
100
AcDbPolyline
 90
        2
 70
     0
 43
0.0
 10
43.05842937499983
 20
15.67757562499992
 10
42.39556062499992
 20
16.34714812499999
  0
SPLINE
  5
89
330
F5
100
AcDbEntity
  8
0
 62
     7
420
 16777215
100
AcDbSpline
210
0.0
220
0.0
230
1.0
 70
     8
 71
     3
 72
     8
 73
     4
 74
     0
 42
0.000000001
 43
0.001
 12
1.0
 22
0.0
 32
0.0
 13
1.0
 23
0.0
 33
0.0
 40
0.0
 40
0.0
 40
0.0
 40
0.0
 40
1.0
 40
1.0
 40
1.0
 40
1.0
 10
38.30298562499979
 20
14.87359437499993
 30
0.0
 10
35.64903812499983
 20
17.00790062499993
 30
0.0
 10
32.2775406249998
 20
19.08858312500001
 30
0.0
 10
28.60582937499976
 20
19.08858312500001
 30
0.0
  0
LWPOLYLINE
  5
8A
330
F5
100
AcDbEntity
  8
0
 62
     7
420
 16777215
100
AcDbPolyline
 90
        2
 70
     0
 43
0.0
 10
39.77618562499993
 20
16.34714812499999
 10
38.30298562499979
 20
14.87359437499993
  0
SPLINE
  5
8B
330
F5
100
AcDbEntity
  8
0
 62
     7
420
 16777215
100
AcDbSpline
210
0.0
220
0.0
230
1.0
 70
     8
 71
     3
 72
     8
 73
     4
 74
     0
 42
0.000000001
 43
0.001
 12
1.0
 22
0.0
 32
0.0
 13
1.0
 23
0.0
 33
0.0
 40
0.0
 40
0.0
 40
0.0
 40
0.0
 40
1.0
 40
1.0
 40
1.0
 40
1.0
 10
27.7679818749998
 20
20.09858687500002
 30
0.0
 10
27.7679818749998
 20
21.58801437499994
 30
0.0
 10
26.56959562499992
 20
21.99476687499987
 30
0.0
 10
25.09110437499976
 20
21.99476687499987
 30
0.0
  0
LWPOLYLINE
  5
8C
330
F5
100
AcDbEntity
  8
0
 62
     7
420
 16777215
100
AcDbPolyline
 90
        4
 70
     0
 43
0.0
 10
28.60582937499976
 20
19.08858312500001
 10
25.88414937499988
 20
19.08858312500001
 10
25.88414937499988
 20
19.79801937499997
 10
27.7679818749998
 20
20.09858687500002
  0
SPLINE
  5
8D
330
F5
100
AcDbEntity
  8
0
 62
     7
420
 16777215
100
AcDbSpline
210
0.0
220
0.0
230
1.0
 70
     8
 71
     3
 72
     8
 73
     4
 74
     0
 42
0.000000001
 43
0.001
 12
1.0
 22
0.0
 32
0.0
 13
1.0
 23
0.0
 33
0.0
 40
0.0
 40
0.0
 40
0.0
 40
0.0
 40
1.0
 40
1.0
 40
1.0
 40
1.0
 10
24.14848187499979
 20
21.99970562499993
 30
0.0
 10
24.12837437499979
 20
21.99970562499993
 30
0.0
 10
24.11002937499984
 20
21.99476687499987
 30
0.0
 10
24.09062687499977
 20
21.99406187499994
 30
0.0
  0
SPLINE
  5
8E
330
F5
100
AcDbEntity
  8
0
 62
     7
420
 16777215
100
AcDbSpline
210
0.0
220
0.0
230
1.0
 70
     8
 71
     3
 72
     8
 73
     4
 74
     0
 42
0.000000001
 43
0.001
 12
1.0
 22
0.0
 32
0.0
 13
1.0
 23
0.0
 33
0.0
 40
0.0
 40
0.0
 40
0.0
 40
0.0
 40
1.0
 40
1.0
 40
1.0
 40
1.0
 10
24.09062687499977
 20
21.99406187499994
 30
0.0
 10
24.07051812499981
 20
21.99476687499987
 30
0.0
 10
24.05217437499982
 20
21.99970562499993
 30
0.0
 10
24.03206562499986
 20
21.99970562499993
 30
0.0
  0
SPLINE
  5
8F
330
F5
100
AcDbEntity
  8
0
 62
     7
420
 16777215
100
AcDbSpline
210
0.0
220
0.0
230
1.0
 70
     8
 71
     3
 72
     8
 73
     4
 74
     0
 42
0.000000001
 43
0.001
 12
1.0
 22
0.0
 32
0.0
 13
1.0
 23
0.0
 33
0.0
 40
0.0
 40
0.0
 40
0.0
 40
0.0
 40
1.0
 40
1.0
 40
1.0
 40
1.0
 10
24.03206562499986
 20
21.99970562499993
 30
0.0
 10
23.0097156249999
 20
21.99970562499993
 30
0.0
 10
22.17998187499984
 20
21.97113062499989
 30
0.0
 10
22.17998187499984
 20
20.94878062499993
 30
0.0
  0
LWPOLYLINE
  5
90
330
F5
100
AcDbEntity
  8
0
 62
     7
420
 16777215
100
AcDbPolyline
 90
        2
 70
     0
 43
0.0
 10
25.09110437499976
 20
21.99476687499987
 10
24.14848187499979
 20
21.99970562499993
  0
SPLINE
  5
91
330
F5
100
AcDbEntity
  8
0
 62
     7
420
 16777215
100
AcDbSpline
210
0.0
220
0.0
230
1.0
 70
     8
 71
     3
 72
     8
 73
     4
 74
     0
 42
0.000000001
 43
0.001
 12
1.0
 22
0.0
 32
0.0
 13
1.0
 23
0.0
 33
0.0
 40
0.0
 40
0.0
 40
0.0
 40
0.0
 40
1.0
 40
1.0
 40
1.0
 40
1.0
 10
10.63956312499977
 20
20.10176187499997
 30
0.0
 10
10.63956312499977
 20
21.591189375
 30
0.0
 10
9.44082437499992
 20
21.89775312500001
 30
0.0
 10
7.962685624999949
 20
21.89775312500001
 30
0.0
  0
LWPOLYLINE
  5
92
330
F5
100
AcDbEntity
  8
0
 62
     7
420
 16777215
100
AcDbPolyline
 90
        6
 70
     0
 43
0.0
 10
22.17998187499984
 20
20.94878062499993
 10
22.17998187499984
 20
19.08858312500001
 10
8.88519937499973
 20
19.08858312500001
 10
8.88519937499973
 20
19.79801937499997
 10
10.65261562499973
 20
20.09858687500002
 10
10.63956312499977
 20
20.10176187499997
  0
SPLINE
  5
93
330
F5
100
AcDbEntity
  8
0
 62
     7
420
 16777215
100
AcDbSpline
210
0.0
220
0.0
230
1.0
 70
     8
 71
     3
 72
     8
 73
     4
 74
     0
 42
0.000000001
 43
0.001
 12
1.0
 22
0.0
 32
0.0
 13
1.0
 23
0.0
 33
0.0
 40
0.0
 40
0.0
 40
0.0
 40
0.0
 40
1.0
 40
1.0
 40
1.0
 40
1.0
 10
7.033115624999937
 20
21.89986937499998
 30
0.0
 10
6.939276874999905
 20
21.89986937499998
 30
0.0
 10
6.848613124999929
 20
21.89069812499997
 30
0.0
 10
6.760418124999887
 20
21.87235312500002
 30
0.0
  0
SPLINE
  5
94
330
F5
100
AcDbEntity
  8
0
 62
     7
420
 16777215
100
AcDbSpline
210
0.0
220
0.0
230
1.0
 70
     8
 71
     3
 72
     8
 73
     4
 74
     0
 42
0.000000001
 43
0.001
 12
1.0
 22
0.0
 32
0.0
 13
1.0
 23
0.0
 33
0.0
 40
0.0
 40
0.0
 40
0.0
 40
0.0
 40
1.0
 40
1.0
 40
1.0
 40
1.0
 10
6.760418124999887
 20
21.87235312500002
 30
0.0
 10
5.868243124999935
 20
21.73970812499999
 30
0.0
 10
5.181031874999917
 20
21.87799812499998
 30
0.0
 10
5.181031874999917
 20
20.94878062499993
 30
0.0
  0
LWPOLYLINE
  5
95
330
F5
100
AcDbEntity
  8
0
 62
     7
420
 16777215
100
AcDbPolyline
 90
        2
 70
     0
 43
0.0
 10
7.962685624999949
 20
21.89775312500001
 10
7.033115624999937
 20
21.89986937499998
  0
SPLINE
  5
96
330
F5
100
AcDbEntity
  8
0
 62
     7
420
 16777215
100
AcDbSpline
210
0.0
220
0.0
230
1.0
 70
     8
 71
     3
 72
     8
 73
     4
 74
     0
 42
0.000000001
 43
0.001
 12
1.0
 22
0.0
 32
0.0
 13
1.0
 23
0.0
 33
0.0
 40
0.0
 40
0.0
 40
0.0
 40
0.0
 40
1.0
 40
1.0
 40
1.0
 40
1.0
 10
-15.90731812500007
 20
9.822523124999975
 30
0.0
 10
-15.90731812500007
 20
5.944789375000028
 30
0.0
 10
-12.76406812500022
 20
2.801539374999948
 30
0.0
 10
-8.88633437500016
 20
2.801539374999948
 30
0.0
  0
LWPOLYLINE
  5
97
330
F5
100
AcDbEntity
  8
0
 62
     7
420
 16777215
100
AcDbPolyline
 90
        5
 70
     0
 43
0.0
 10
5.181031874999917
 20
20.94878062499993
 10
5.181031874999917
 20
20.08906187499997
 10
-7.31894312500026
 20
20.16596687499998
 10
-15.90731812500007
 20
18.43065312499994
 10
-15.90731812500007
 20
9.822523124999975
  0
LWPOLYLINE
  5
98
330
F5
100
AcDbEntity
  8
0
 62
     7
420
 16777215
100
AcDbPolyline
 90
        4
 70
     0
 43
0.0
 10
-5.907125625000162
 20
2.801539374999948
 10
-31.12544562500011
 20
2.801539374999948
 10
-31.12544562500011
 20
-47.19871312500004
 10
-5.907125625000162
 20
-47.19871312500004
  0
LWPOLYLINE
  5
99
330
F5
100
AcDbEntity
  8
0
 62
     7
420
 16777215
100
AcDbPolyline
 90
        6
 70
     0
 43
0.0
 10
88.0968631249998
 20
-44.69857687500007
 10
95.09703187499986
 20
-44.69857687500007
 10
95.09703187499986
 20
-43.99866687500003
 10
88.0968631249998
 20
-43.99866687500003
 10
88.0968631249998
 20
-44.69857687500007
 10
88.0968631249998
 20
-44.69857687500007
  0
LWPOLYLINE
  5
9A
330
F5
100
AcDbEntity
  8
0
 62
     7
420
 16777215
100
AcDbPolyline
 90
        6
 70
     0
 43
0.0
 10
71.7942956249999
 20
-44.69857687500007
 10
78.79411312499974
 20
-44.69857687500007
 10
78.79411312499974
 20
-43.99866687500003
 10
71.7942956249999
 20
-43.99866687500003
 10
71.7942956249999
 20
-44.69857687500007
 10
71.7942956249999
 20
-44.69857687500007
  0
LWPOLYLINE
  5
9B
330
F5
100
AcDbEntity
  8
0
 62
     7
420
 16777215
100
AcDbPolyline
 90
        6
 70
     0
 43
0.0
 10
53.79275187499979
 20
-44.69857687500007
 10
60.79256812499989
 20
-44.69857687500007
 10
60.79256812499989
 20
-43.99866687500003
 10
53.79275187499979
 20
-43.99866687500003
 10
53.79275187499979
 20
-44.69857687500007
 10
53.79275187499979
 20
-44.69857687500007
  0
LWPOLYLINE
  5
9C
330
F5
100
AcDbEntity
  8
0
 62
     7
420
 16777215
100
AcDbPolyline
 90
        6
 70
     0
 43
0.0
 10
88.0968631249998
 20
0.3014031249999789
 10
95.09703187499986
 20
0.3014031249999789
 10
95.09703187499986
 20
-0.3988606249999975
 10
88.0968631249998
 20
-0.3988606249999975
 10
88.0968631249998
 20
0.3014031249999789
 10
88.0968631249998
 20
0.3014031249999789
  0
LWPOLYLINE
  5
9D
330
F5
100
AcDbEntity
  8
0
 62
     7
420
 16777215
100
AcDbPolyline
 90
        6
 70
     0
 43
0.0
 10
71.7942956249999
 20
0.3014031249999789
 10
78.79411312499974
 20
0.3014031249999789
 10
78.79411312499974
 20
-0.3988606249999975
 10
71.7942956249999
 20
-0.3988606249999975
 10
71.7942956249999
 20
0.3014031249999789
 10
71.7942956249999
 20
0.3014031249999789
  0
LWPOLYLINE
  5
9E
330
F5
100
AcDbEntity
  8
0
 62
     7
420
 16777215
100
AcDbPolyline
 90
        6
 70
     0
 43
0.0
 10
53.79345687499995
 20
0.3014031249999789
 10
60.79327437499978
 20
0.3014031249999789
 10
60.79327437499978
 20
-0.3988606249999975
 10
53.79345687499995
 20
-0.3988606249999975
 10
53.79345687499995
 20
0.3014031249999789
 10
53.79345687499995
 20
0.3014031249999789
  0
LWPOLYLINE
  5
9F
330
F5
100
AcDbEntity
  8
0
 62
     7
420
 16777215
100
AcDbPolyline
 90
        2
 70
     0
 43
0.0
 10
-15.90767062500026
 20
-44.42199937500004
 10
-15.90767062500026
 20
-46.06806062500004
  0
LWPOLYLINE
  5
A0
330
F5
100
AcDbEntity
  8
0
 62
     7
420
 16777215
100
AcDbPolyline
 90
        2
 70
     0
 43
0.0
 10
-15.90767062500026
 20
-41.54121687500003
 10
-15.90767062500026
 20
-43.18727687500007
  0
LWPOLYLINE
  5
A1
330
F5
100
AcDbEntity
  8
0
 62
     7
420
 16777215
100
AcDbPolyline
 90
        2
 70
     0
 43
0.0
 10
-15.90767062500026
 20
-38.66043312500005
 10
-15.90767062500026
 20
-40.30649437500006
  0
LWPOLYLINE
  5
A2
330
F5
100
AcDbEntity
  8
0
 62
     7
420
 16777215
100
AcDbPolyline
 90
        2
 70
     0
 43
0.0
 10
-15.90767062500026
 20
-35.77964937500008
 10
-15.90767062500026
 20
-37.42571062499997
  0
LWPOLYLINE
  5
A3
330
F5
100
AcDbEntity
  8
0
 62
     7
420
 16777215
100
AcDbPolyline
 90
        2
 70
     0
 43
0.0
 10
-15.90767062500026
 20
-32.89886687500007
 10
-15.90767062500026
 20
-34.54492687499999
  0
LWPOLYLINE
  5
A4
330
F5
100
AcDbEntity
  8
0
 62
     7
420
 16777215
100
AcDbPolyline
 90
        2
 70
     0
 43
0.0
 10
-15.90767062500026
 20
-30.01808312500009
 10
-15.90767062500026
 20
-31.66414437499998
  0
LWPOLYLINE
  5
A5
330
F5
100
AcDbEntity
  8
0
 62
     7
420
 16777215
100
AcDbPolyline
 90
        2
 70
     0
 43
0.0
 10
-15.90767062500026
 20
-27.137299375
 10
-15.90767062500026
 20
-28.783360625
  0
LWPOLYLINE
  5
A6
330
F5
100
AcDbEntity
  8
0
 62
     7
420
 16777215
100
AcDbPolyline
 90
        2
 70
     0
 43
0.0
 10
-15.90767062500026
 20
-24.25651687499999
 10
-15.90767062500026
 20
-25.90257687500002
  0
LWPOLYLINE
  5
A7
330
F5
100
AcDbEntity
  8
0
 62
     7
420
 16777215
100
AcDbPolyline
 90
        2
 70
     0
 43
0.0
 10
-15.90767062500026
 20
-21.37573312500001
 10
-15.90767062500026
 20
-23.02179437500013
  0
LWPOLYLINE
  5
A8
330
F5
100
AcDbEntity
  8
0
 62
     7
420
 16777215
100
AcDbPolyline
 90
        2
 70
     0
 43
0.0
 10
-15.90767062500026
 20
-18.495301875
 10
-15.90767062500026
 20
-20.141363125
  0
LWPOLYLINE
  5
A9
330
F5
100
AcDbEntity
  8
0
 62
     7
420
 16777215
100
AcDbPolyline
 90
        2
 70
     0
 43
0.0
 10
-15.90767062500026
 20
-15.61451937499999
 10
-15.90767062500026
 20
-17.2605806250001
  0
LWPOLYLINE
  5
AA
330
F5
100
AcDbEntity
  8
0
 62
     7
420
 16777215
100
AcDbPolyline
 90
        2
 70
     0
 43
0.0
 10
-15.90767062500026
 20
-12.73373562500001
 10
-15.90767062500026
 20
-14.37979687500012
  0
LWPOLYLINE
  5
AB
330
F5
100
AcDbEntity
  8
0
 62
     7
420
 16777215
100
AcDbPolyline
 90
        2
 70
     0
 43
0.0
 10
-15.90767062500026
 20
-9.85295187500003
 10
-15.90767062500026
 20
-11.49901312499992
  0
LWPOLYLINE
  5
AC
330
F5
100
AcDbEntity
  8
0
 62
     7
420
 16777215
100
AcDbPolyline
 90
        2
 70
     0
 43
0.0
 10
-15.90767062500026
 20
-6.972169375000021
 10
-15.90767062500026
 20
-8.618230625000024
  0
LWPOLYLINE
  5
AD
330
F5
100
AcDbEntity
  8
0
 62
     7
420
 16777215
100
AcDbPolyline
 90
        2
 70
     0
 43
0.0
 10
20.10741312499977
 20
63.0150618749999
 10
18.75627437499975
 20
63.50189437499989
  0
LWPOLYLINE
  5
AE
330
F5
100
AcDbEntity
  8
0
 62
     7
420
 16777215
100
AcDbPolyline
 90
        2
 70
     0
 43
0.0
 10
-15.90767062500026
 20
-4.09138562499993
 10
-15.90767062500026
 20
-5.737446875000046
  0
LWPOLYLINE
  5
AF
330
F5
100
AcDbEntity
  8
0
 62
     7
420
 16777215
100
AcDbPolyline
 90
        2
 70
     0
 43
0.0
 10
17.75050437499976
 20
63.96156437500008
 10
15.86843562499985
 20
64.64101437499994
  0
LWPOLYLINE
  5
B0
330
F5
100
AcDbEntity
  8
0
 62
     7
420
 16777215
100
AcDbPolyline
 90
        2
 70
     0
 43
0.0
 10
-15.90767062500026
 20
-1.210601875000066
 10
-15.90767062500026
 20
-2.856663125000068
  0
LWPOLYLINE
  5
B1
330
F5
100
AcDbEntity
  8
0
 62
     7
420
 16777215
100
AcDbPolyline
 90
        2
 70
     0
 43
0.0
 10
14.56950687499989
 20
65.17441437499997
 10
12.68849562499986
 20
65.85386437500006
  0
LWPOLYLINE
  5
B2
330
F5
100
AcDbEntity
  8
0
 62
     7
420
 16777215
100
AcDbPolyline
 90
        2
 70
     0
 43
0.0
 10
-15.90767062500026
 20
1.670180624999944
 10
-15.90767062500026
 20
0.0241193749999411
  0
LWPOLYLINE
  5
B3
330
F5
100
AcDbEntity
  8
0
 62
     7
420
 16777215
100
AcDbPolyline
 90
        2
 70
     0
 43
0.0
 10
10.8074856249998
 20
66.53260812500002
 10
8.925768124999877
 20
67.21205812499988
  0
LWPOLYLINE
  5
B4
330
F5
100
AcDbEntity
  8
0
 62
     7
420
 16777215
100
AcDbPolyline
 90
        2
 70
     0
 43
0.0
 10
-5.907125625000162
 20
-44.42199937500004
 10
-5.907125625000162
 20
-46.06806062500004
  0
LWPOLYLINE
  5
B5
330
F5
100
AcDbEntity
  8
0
 62
     7
420
 16777215
100
AcDbPolyline
 90
        2
 70
     0
 43
0.0
 10
7.086738124999783
 20
67.91937812499987
 10
5.756060624999918
 20
68.45665812499988
  0
LWPOLYLINE
  5
B6
330
F5
100
AcDbEntity
  8
0
 62
     7
420
 16777215
100
AcDbPolyline
 90
        2
 70
     0
 43
0.0
 10
-5.907125625000162
 20
-41.54121687500003
 10
-5.907125625000162
 20
-43.18727687500007
  0
LWPOLYLINE
  5
B7
330
F5
100
AcDbEntity
  8
0
 62
     7
420
 16777215
100
AcDbPolyline
 90
        2
 70
     0
 43
0.0
 10
3.902213124999889
 20
69.20595812500005
 10
2.048013124999898
 20
69.955258125
  0
LWPOLYLINE
  5
B8
330
F5
100
AcDbEntity
  8
0
 62
     7
420
 16777215
100
AcDbPolyline
 90
        2
 70
     0
 43
0.0
 10
-5.907125625000162
 20
-38.66043312500005
 10
-5.907125625000162
 20
-40.30649437500006
  0
LWPOLYLINE
  5
B9
330
F5
100
AcDbEntity
  8
0
 62
     7
420
 16777215
100
AcDbPolyline
 90
        2
 70
     0
 43
0.0
 10
0.1931068749997848
 20
70.70455812499995
 10
-1.661445625000169
 20
71.4538581249999
  0
LWPOLYLINE
  5
BA
330
F5
100
AcDbEntity
  8
0
 62
     7
420
 16777215
100
AcDbPolyline
 90
        2
 70
     0
 43
0.0
 10
-5.907125625000162
 20
-35.77964937500008
 10
-5.907125625000162
 20
-37.42571062499997
  0
LWPOLYLINE
  5
BB
330
F5
100
AcDbEntity
  8
0
 62
     7
420
 16777215
100
AcDbPolyline
 90
        2
 70
     0
 43
0.0
 10
-3.515645625000161
 20
72.20386437499997
 10
-5.369845625000153
 20
72.95281187499995
  0
LWPOLYLINE
  5
BC
330
F5
100
AcDbEntity
  8
0
 62
     7
420
 16777215
100
AcDbPolyline
 90
        2
 70
     0
 43
0.0
 10
-5.907125625000162
 20
-32.89886687500007
 10
-5.907125625000162
 20
-34.54492687499999
  0
LWPOLYLINE
  5
BD
330
F5
100
AcDbEntity
  8
0
 62
     7
420
 16777215
100
AcDbPolyline
 90
        2
 70
     0
 43
0.0
 10
-7.224045625000144
 20
73.7021118749999
 10
-9.079656875000182
 20
74.45105812499992
  0
LWPOLYLINE
  5
BE
330
F5
100
AcDbEntity
  8
0
 62
     7
420
 16777215
100
AcDbPolyline
 90
        2
 70
     0
 43
0.0
 10
-5.907125625000162
 20
-30.01808312500009
 10
-5.907125625000162
 20
-31.66414437499998
  0
LWPOLYLINE
  5
BF
330
F5
100
AcDbEntity
  8
0
 62
     7
420
 16777215
100
AcDbPolyline
 90
        2
 70
     0
 43
0.0
 10
-10.93385687500017
 20
75.20071187500002
 10
-12.06768437500023
 20
75.6593231249999
  0
LWPOLYLINE
  5
C0
330
F5
100
AcDbEntity
  8
0
 62
     7
420
 16777215
100
AcDbPolyline
 90
        2
 70
     0
 43
0.0
 10
-5.907125625000162
 20
-27.137299375
 10
-5.907125625000162
 20
-28.783360625
  0
LWPOLYLINE
  5
C1
330
F5
100
AcDbEntity
  8
0
 62
     7
420
 16777215
100
AcDbPolyline
 90
        2
 70
     0
 43
0.0
 10
16.66359562499974
 20
105.292303125
 10
14.18392062499993
 20
106.487514375
  0
LWPOLYLINE
  5
C2
330
F5
100
AcDbEntity
  8
0
 62
     7
420
 16777215
100
AcDbPolyline
 90
        2
 70
     0
 43
0.0
 10
-5.907125625000162
 20
-24.25651687499999
 10
-5.907125625000162
 20
-25.90257687500002
  0
LWPOLYLINE
  5
C3
330
F5
100
AcDbEntity
  8
0
 62
     7
420
 16777215
100
AcDbPolyline
 90
        2
 70
     0
 43
0.0
 10
12.20554312499985
 20
106.7820831249999
 10
10.22787062499992
 20
107.0787693749999
  0
LWPOLYLINE
  5
C4
330
F5
100
AcDbEntity
  8
0
 62
     7
420
 16777215
100
AcDbPolyline
 90
        2
 70
     0
 43
0.0
 10
-5.907125625000162
 20
-21.37573312500001
 10
-5.907125625000162
 20
-23.02179437500013
  0
LWPOLYLINE
  5
C5
330
F5
100
AcDbEntity
  8
0
 62
     7
420
 16777215
100
AcDbPolyline
 90
        2
 70
     0
 43
0.0
 10
8.249845624999807
 20
107.3747506249999
 10
6.27217437499985
 20
107.671083125
  0
LWPOLYLINE
  5
C6
330
F5
100
AcDbEntity
  8
0
 62
     7
420
 16777215
100
AcDbPolyline
 90
        2
 70
     0
 43
0.0
 10
-5.907125625000162
 20
-18.495301875
 10
-5.907125625000162
 20
-20.141363125
  0
LWPOLYLINE
  5
C7
330
F5
100
AcDbEntity
  8
0
 62
     7
420
 16777215
100
AcDbPolyline
 90
        2
 70
     0
 43
0.0
 10
4.294149374999733
 20
107.966005625
 10
2.316476874999807
 20
108.2616331249999
  0
LWPOLYLINE
  5
C8
330
F5
100
AcDbEntity
  8
0
 62
     7
420
 16777215
100
AcDbPolyline
 90
        2
 70
     0
 43
0.0
 10
-5.907125625000162
 20
-15.61451937499999
 10
-5.907125625000162
 20
-17.2605806250001
  0
LWPOLYLINE
  5
C9
330
F5
100
AcDbEntity
  8
0
 62
     7
420
 16777215
100
AcDbPolyline
 90
        2
 70
     0
 43
0.0
 10
0.337393124999835
 20
108.5579668749999
 10
-2.125348125000073
 20
108.9756556249999
  0
LWPOLYLINE
  5
CA
330
F5
100
AcDbEntity
  8
0
 62
     7
420
 16777215
100
AcDbPolyline
 90
        2
 70
     0
 43
0.0
 10
-5.907125625000162
 20
-12.73373562500001
 10
-5.907125625000162
 20
-14.37979687500012
  0
LWPOLYLINE
  5
CB
330
F5
100
AcDbEntity
  8
0
 62
     7
420
 16777215
100
AcDbPolyline
 90
        2
 70
     0
 43
0.0
 10
10.30124937499977
 20
59.40826187499988
 10
-7.852343125000061
 20
55.58944187499992
  0
LWPOLYLINE
  5
CC
330
F5
100
AcDbEntity
  8
0
 62
     7
420
 16777215
100
AcDbPolyline
 90
        2
 70
     0
 43
0.0
 10
-5.907125625000162
 20
-9.85295187500003
 10
-5.907125625000162
 20
-11.49901312499992
  0
LWPOLYLINE
  5
CD
330
F5
100
AcDbEntity
  8
0
 62
     7
420
 16777215
100
AcDbPolyline
 90
        2
 70
     0
 43
0.0
 10
18.46452687499982
 20
105.104273125
 10
8.247729374999835
 20
67.38280312500001
  0
LWPOLYLINE
  5
CE
330
F5
100
AcDbEntity
  8
0
 62
     7
420
 16777215
100
AcDbPolyline
 90
        2
 70
     0
 43
0.0
 10
-5.907125625000162
 20
-6.972169375000021
 10
-5.907125625000162
 20
-8.618230625000024
  0
LWPOLYLINE
  5
CF
330
F5
100
AcDbEntity
  8
0
 62
     7
420
 16777215
100
AcDbPolyline
 90
        2
 70
     0
 43
0.0
 10
20.88599312499991
 20
62.68874187500001
 10
20.88599312499991
 20
62.68874187500001
  0
LWPOLYLINE
  5
D0
330
F5
100
AcDbEntity
  8
0
 62
     7
420
 16777215
100
AcDbPolyline
 90
        2
 70
     0
 43
0.0
 10
-5.907125625000162
 20
-4.09138562499993
 10
-5.907125625000162
 20
-5.737446875000046
  0
LWPOLYLINE
  5
D1
330
F5
100
AcDbEntity
  8
0
 62
     7
420
 16777215
100
AcDbPolyline
 90
        2
 70
     0
 43
0.0
 10
-5.907125625000162
 20
-1.210601875000066
 10
-5.907125625000162
 20
-2.856663125000068
  0
LWPOLYLINE
  5
D2
330
F5
100
AcDbEntity
  8
0
 62
     7
420
 16777215
100
AcDbPolyline
 90
       12
 70
     0
 43
0.0
 10
8.247729374999835
 20
67.38280312500001
 10
11.37933812499978
 20
55.51147812499994
 10
-6.930886875000169
 20
51.62774812499993
 10
-8.636568125000167
 20
59.98364187499988
 10
-18.81843937500025
 20
57.499028125
 10
-13.26077937500008
 20
76.33030562499994
 10
-3.860661875000233
 20
109.233889375
 10
0.1934606249999433
 20
126.398291875
 10
8.993149374999803
 20
119.1476506249999
 10
15.54387937499973
 20
125.437678125
 10
26.19247687499978
 20
113.895141875
 10
18.46487937499978
 20
105.1046256249999
  0
LWPOLYLINE
  5
D3
330
F5
100
AcDbEntity
  8
0
 62
     7
420
 16777215
100
AcDbPolyline
 90
        2
 70
     0
 43
0.0
 10
-5.907125625000162
 20
1.670180624999944
 10
-5.907125625000162
 20
0.0241193749999411
  0
LWPOLYLINE
  5
D4
330
F5
100
AcDbEntity
  8
0
 62
     7
420
 16777215
100
AcDbPolyline
 90
        2
 70
     0
 43
0.0
 10
41.31606062499986
 20
-47.19871312500004
 10
42.9621206249999
 20
-47.19871312500004
  0
LWPOLYLINE
  5
D5
330
F5
100
AcDbEntity
  8
0
 62
     7
420
 16777215
100
AcDbPolyline
 90
        2
 70
     0
 43
0.0
 10
38.43527687499977
 20
-47.19871312500004
 10
40.08133812499977
 20
-47.19871312500004
  0
LWPOLYLINE
  5
D6
330
F5
100
AcDbEntity
  8
0
 62
     7
420
 16777215
100
AcDbPolyline
 90
        8
 70
     0
 43
0.0
 10
45.86019062499986
 20
125.2708143749999
 10
64.41242062499987
 20
125.2708143749999
 10
64.27342687499981
 20
84.67208937500004
 10
54.41152437499977
 20
82.55542312500006
 10
20.88599312499991
 20
82.79072562500005
 10
20.88599312499991
 20
62.68874187500001
 10
19.02297437499988
 20
57.499028125
 10
9.922718124999847
 20
61.96766437499991
  0
ENDSEC
  0
SECTION
  2
OBJECTS
  0
DICTIONARY
  5
E3
330
0
100
AcDbDictionary
281
     1
  3
ACAD_GROUP
350
E4
  3
ACAD_LAYOUT
350
F0
  3
ACAD_MATERIAL
350
111
  3
ACAD_MLEADERSTYLE
350
12D
  3
ACAD_MLINESTYLE
350
ED
  3
ACAD_PLOTSETTINGS
350
EF
  3
ACAD_PLOTSTYLENAME
350
E5
  3
ACAD_TABLESTYLE
350
12C
  3
ACAD_VISUALSTYLE
350
100
  3
QCAD_OBJECTS
350
116
  0
DICTIONARY
  5
E4
102
{ACAD_REACTORS
330
E3
102
}
330
E3
100
AcDbDictionary
281
     1
  0
DICTIONARY
  5
F0
102
{ACAD_REACTORS
330
E3
102
}
330
E3
100
AcDbDictionary
281
     1
  3
Layout1
350
F4
  3
Layout2
350
FC
  3
Model
350
F8
  0
DICTIONARY
  5
111
102
{ACAD_REACTORS
330
E3
102
}
330
E3
100
AcDbDictionary
281
     1
  3
ByBlock
350
113
  3
ByLayer
350
112
  3
Global
350
114
  0
DICTIONARY
  5
12D
102
{ACAD_REACTORS
330
E3
102
}
330
E3
100
AcDbDictionary
281
     1
  0
DICTIONARY
  5
ED
102
{ACAD_REACTORS
330
E3
102
}
330
E3
100
AcDbDictionary
281
     1
  3
Standard
350
EE
  0
DICTIONARY
  5
EF
102
{ACAD_REACTORS
330
E3
102
}
330
E3
100
AcDbDictionary
281
     1
  0
ACDBDICTIONARYWDFLT
  5
E5
102
{ACAD_REACTORS
330
E3
102
}
330
E3
100
AcDbDictionary
281
     1
  3
Normal
350
E6
100
AcDbDictionaryWithDefault
340
E6
  0
DICTIONARY
  5
12C
102
{ACAD_REACTORS
330
E3
102
}
330
E3
100
AcDbDictionary
281
     1
  0
DICTIONARY
  5
100
102
{ACAD_REACTORS
330
E3
102
}
330
E3
100
AcDbDictionary
281
     1
  3
2dWireframe
350
105
  3
3D Hidden
350
107
  3
3dWireframe
350
106
  3
Basic
350
108
  3
Brighten
350
10C
  3
ColorChange
350
110
  3
Conceptual
350
10A
  3
Dim
350
10B
  3
Facepattern
350
10F
  3
Flat
350
101
  3
FlatWithEdges
350
102
  3
Gouraud
350
103
  3
GouraudWithEdges
350
104
  3
Linepattern
350
10E
  3
Realistic
350
109
  3
Thicken
350
10D
  0
DICTIONARY
  5
116
102
{ACAD_REACTORS
330
E3
102
}
330
E3
100
AcDbDictionary
281
     1
  3
Grid/DisplayGrid
350
117
  3
PageSettings/Scale
350
118
  0
LAYOUT
  5
F4
102
{ACAD_REACTORS
330
F0
102
}
330
F0
100
AcDbPlotSettings
  1

  2
none_device
  4

  6

 40
0.0
 41
0.0
 42
0.0
 43
0.0
 44
0.0
 45
0.0
 46
0.0
 47
0.0
 48
0.0
 49
0.0
140
0.0
141
0.0
142
1.0
143
1.0
 70
   688
 72
     0
 73
     0
 74
     5
  7

 75
    16
 76
     0
 77
     2
 78
   300
147
1.0
148
0.0
149
0.0
100
AcDbLayout
  1
Layout1
 70
     1
 71
     1
 10
0.0
 20
0.0
 11
12.0
 21
9.0
 12
0.0
 22
0.0
 32
0.0
 14
1.000000000000000E+20
 24
1.000000000000000E+20
 34
1.000000000000000E+20
 15
-1.000000000000000E+20
 25
-1.000000000000000E+20
 35
-1.000000000000000E+20
146
0.0
 13
0.0
 23
0.0
 33
0.0
 16
1.0
 26
0.0
 36
0.0
 17
0.0
 27
1.0
 37
0.0
 76
     0
330
F1
  0
LAYOUT
  5
FC
102
{ACAD_REACTORS
330
F0
102
}
330
F0
100
AcDbPlotSettings
  1

  2
none_device
  4

  6

 40
0.0
 41
0.0
 42
0.0
 43
0.0
 44
0.0
 45
0.0
 46
0.0
 47
0.0
 48
0.0
 49
0.0
140
0.0
141
0.0
142
1.0
143
1.0
 70
   688
 72
     0
 73
     0
 74
     5
  7

 75
    16
 76
     0
 77
     2
 78
   300
147
1.0
148
0.0
149
0.0
100
AcDbLayout
  1
Layout2
 70
     1
 71
     2
 10
0.0
 20
0.0
 11
0.0
 21
0.0
 12
0.0
 22
0.0
 32
0.0
 14
0.0
 24
0.0
 34
0.0
 15
0.0
 25
0.0
 35
0.0
146
0.0
 13
0.0
 23
0.0
 33
0.0
 16
1.0
 26
0.0
 36
0.0
 17
0.0
 27
1.0
 37
0.0
 76
     0
330
F9
  0
LAYOUT
  5
F8
102
{ACAD_REACTORS
330
F0
102
}
330
F0
100
AcDbPlotSettings
  1

  2
none_device
  4

  6

 40
0.0
 41
0.0
 42
0.0
 43
0.0
 44
0.0
 45
0.0
 46
0.0
 47
0.0
 48
0.0
 49
0.0
140
0.0
141
0.0
142
1.0
143
1.0
 70
  1712
 72
     0
 73
     0
 74
     0
  7

 75
     0
 76
     0
 77
     2
 78
   300
147
1.0
148
0.0
149
0.0
100
AcDbLayout
  1
Model
 70
     1
 71
     0
 10
0.0
 20
0.0
 11
12.0
 21
9.0
 12
0.0
 22
0.0
 32
0.0
 14
1.000000000000000E+20
 24
1.000000000000000E+20
 34
1.000000000000000E+20
 15
-1.000000000000000E+20
 25
-1.000000000000000E+20
 35
-1.000000000000000E+20
146
0.0
 13
0.0
 23
0.0
 33
0.0
 16
1.0
 26
0.0
 36
0.0
 17
0.0
 27
1.0
 37
0.0
 76
     0
330
F5
331
FF
  0
MATERIAL
  5
113
102
{ACAD_REACTORS
330
111
102
}
330
111
100
AcDbMaterial
  1
ByBlock
 72
     1
 94
      127
  0
MATERIAL
  5
112
102
{ACAD_REACTORS
330
111
102
}
330
111
100
AcDbMaterial
  1
ByLayer
 72
     1
 94
      127
  0
MATERIAL
  5
114
102
{ACAD_REACTORS
330
111
102
}
330
111
100
AcDbMaterial
  1
Global
 72
     1
 94
      127
  0
MLINESTYLE
  5
EE
102
{ACAD_REACTORS
330
ED
102
}
330
ED
100
AcDbMlineStyle
  2
Standard
 70
     0
  3

 62
   256
 51
90.0
 52
90.0
 71
     2
 49
0.5
 62
   256
  6
BYLAYER
 49
-0.5
 62
   256
  6
BYLAYER
  0
ACDBPLACEHOLDER
  5
E6
102
{ACAD_REACTORS
330
E5
102
}
330
E5
  0
VISUALSTYLE
  5
105
102
{ACAD_REACTORS
330
100
102
}
330
100
100
AcDbVisualStyle
  2
2dWireframe
 70
     4
177
     2
291
     0
 71
     0
176
     1
 72
     2
176
     1
 73
     0
176
     1
 90
        0
176
     1
 40
-0.6
176
     1
 41
-30.0
176
     1
 62
     5
 63
     7
421
 16777215
176
     1
 74
     1
176
     1
 91
        4
176
     1
 64
     7
176
     1
 65
   257
176
     1
 75
     1
176
     1
175
     1
176
     1
 42
1.0
176
     1
 92
        0
176
     1
 66
   257
176
     1
 43
1.0
176
     1
 76
     1
176
     1
 77
     6
176
     1
 78
     2
176
     1
 67
     7
176
     1
 79
     5
176
     1
170
     0
176
     1
171
     0
176
     1
290
     0
176
     1
 93
        1
176
     1
 44
0.0
176
     1
173
     0
176
     1
  0
VISUALSTYLE
  5
107
102
{ACAD_REACTORS
330
100
102
}
330
100
100
AcDbVisualStyle
  2
3D Hidden
 70
     6
177
     2
291
     0
 71
     1
176
     1
 72
     2
176
     1
 73
     2
176
     1
 90
        0
176
     1
 40
-0.6
176
     1
 41
-30.0
176
     1
 62
     5
 63
     7
421
 16777215
176
     1
 74
     2
176
     1
 91
        2
176
     1
 64
     7
176
     1
 65
   257
176
     1
 75
     2
176
     1
175
     1
176
     1
 42
40.0
176
     1
 92
        0
176
     1
 66
   257
176
     1
 43
1.0
176
     1
 76
     1
176
     1
 77
     6
176
     1
 78
     2
176
     1
 67
     7
176
     1
 79
     3
176
     1
170
     0
176
     1
171
     0
176
     1
290
     0
176
     1
 93
        1
176
     1
 44
0.0
176
     1
173
     0
176
     1
  0
VISUALSTYLE
  5
106
102
{ACAD_REACTORS
330
100
102
}
330
100
100
AcDbVisualStyle
  2
3dWireframe
 70
     5
177
     2
291
     0
 71
     0
176
     1
 72
     2
176
     1
 73
     0
176
     1
 90
        0
176
     1
 40
-0.6
176
     1
 41
-30.0
176
     1
 62
     5
 63
     7
421
 16777215
176
     1
 74
     1
176
     1
 91
        4
176
     1
 64
     7
176
     1
 65
   257
176
     1
 75
     1
176
     1
175
     1
176
     1
 42
1.0
176
     1
 92
        0
176
     1
 66
   257
176
     1
 43
1.0
176
     1
 76
     1
176
     1
 77
     6
176
     1
 78
     2
176
     1
 67
     7
176
     1
 79
     5
176
     1
170
     0
176
     1
171
     0
176
     1
290
     0
176
     1
 93
        1
176
     1
 44
0.0
176
     1
173
     0
176
     1
  0
VISUALSTYLE
  5
108
102
{ACAD_REACTORS
330
100
102
}
330
100
100
AcDbVisualStyle
  2
Basic
 70
     7
177
     2
291
     1
 71
     1
176
     1
 72
     0
176
     1
 73
     1
176
     1
 90
        0
176
     1
 40
-0.6
176
     1
 41
-30.0
176
     1
 62
     5
 63
     7
421
 16777215
176
     1
 74
     0
176
     1
 91
        4
176
     1
 64
     7
176
     1
 65
   257
176
     1
 75
     1
176
     1
175
     1
176
     1
 42
1.0
176
     1
 92
        8
176
     1
 66
     7
176
     1
 43
1.0
176
     1
 76
     1
176
     1
 77
     6
176
     1
 78
     2
176
     1
 67
     7
176
     1
 79
     5
176
     1
170
     0
176
     1
171
     0
176
     1
290
     0
176
     1
 93
        1
176
     1
 44
0.0
176
     1
173
     0
176
     1
  0
VISUALSTYLE
  5
10C
102
{ACAD_REACTORS
330
100
102
}
330
100
100
AcDbVisualStyle
  2
Brighten
 70
    12
177
     2
291
     1
 71
     2
176
     1
 72
     2
176
     1
 73
     0
176
     1
 90
        0
176
     1
 40
-0.6
176
     1
 41
-30.0
176
     1
 62
     5
 63
     7
421
 16777215
176
     1
 74
     1
176
     1
 91
        4
176
     1
 64
     7
176
     1
 65
   257
176
     1
 75
     1
176
     1
175
     1
176
     1
 42
1.0
176
     1
 92
        8
176
     1
 66
     7
176
     1
 43
1.0
176
     1
 76
     1
176
     1
 77
     6
176
     1
 78
     2
176
     1
 67
     7
176
     1
 79
     5
176
     1
170
     0
176
     1
171
     0
176
     1
290
     0
176
     1
 93
        1
176
     1
 44
50.0
176
     1
173
     0
176
     1
  0
VISUALSTYLE
  5
110
102
{ACAD_REACTORS
330
100
102
}
330
100
100
AcDbVisualStyle
  2
ColorChange
 70
    16
177
     2
291
     1
 71
     2
176
     1
 72
     2
176
     1
 73
     3
176
     1
 90
        0
176
     1
 40
-0.6
176
     1
 41
-30.0
176
     1
 62
     5
 63
     8
421
  8421504
176
     1
 74
     1
176
     1
 91
        4
176
     1
 64
     7
176
     1
 65
   257
176
     1
 75
     1
176
     1
175
     1
176
     1
 42
1.0
176
     1
 92
        8
176
     1
 66
     8
424
  8421504
176
     1
 43
1.0
176
     1
 76
     1
176
     1
 77
     6
176
     1
 78
     2
176
     1
 67
     7
176
     1
 79
     5
176
     1
170
     0
176
     1
171
     0
176
     1
290
     0
176
     1
 93
        1
176
     1
 44
0.0
176
     1
173
     0
176
     1
  0
VISUALSTYLE
  5
10A
102
{ACAD_REACTORS
330
100
102
}
330
100
100
AcDbVisualStyle
  2
Conceptual
 70
     9
177
     2
291
     0
 71
     3
176
     1
 72
     2
176
     1
 73
     0
176
     1
 90
        0
176
     1
 40
-0.6
176
     1
 41
-30.0
176
     1
 62
     5
 63
     7
421
 16777215
176
     1
 74
     2
176
     1
 91
        2
176
     1
 64
     7
176
     1
 65
   257
176
     1
 75
     1
176
     1
175
     1
176
     1
 42
40.0
176
     1
 92
        8
176
     1
 66
     7
176
     1
 43
1.0
176
     1
 76
     1
176
     1
 77
     6
176
     1
 78
     2
176
     1
 67
     7
176
     1
 79
     3
176
     1
170
     0
176
     1
171
     0
176
     1
290
     0
176
     1
 93
        1
176
     1
 44
0.0
176
     1
173
     0
176
     1
  0
VISUALSTYLE
  5
10B
102
{ACAD_REACTORS
330
100
102
}
330
100
100
AcDbVisualStyle
  2
Dim
 70
    11
177
     2
291
     1
 71
     2
176
     1
 72
     2
176
     1
 73
     0
176
     1
 90
        0
176
     1
 40
-0.6
176
     1
 41
-30.0
176
     1
 62
     5
 63
     7
421
 16777215
176
     1
 74
     1
176
     1
 91
        4
176
     1
 64
     7
176
     1
 65
   257
176
     1
 75
     1
176
     1
175
     1
176
     1
 42
1.0
176
     1
 92
        8
176
     1
 66
     7
176
     1
 43
1.0
176
     1
 76
     1
176
     1
 77
     6
176
     1
 78
     2
176
     1
 67
     7
176
     1
 79
     5
176
     1
170
     0
176
     1
171
     0
176
     1
290
     0
176
     1
 93
        1
176
     1
 44
-50.0
176
     1
173
     0
176
     1
  0
VISUALSTYLE
  5
10F
102
{ACAD_REACTORS
330
100
102
}
330
100
100
AcDbVisualStyle
  2
Facepattern
 70
    15
177
     2
291
     1
 71
     2
176
     1
 72
     2
176
     1
 73
     0
176
     1
 90
        0
176
     1
 40
-0.6
176
     1
 41
-30.0
176
     1
 62
     5
 63
     7
421
 16777215
176
     1
 74
     1
176
     1
 91
        4
176
     1
 64
     7
176
     1
 65
   257
176
     1
 75
     1
176
     1
175
     1
176
     1
 42
1.0
176
     1
 92
        8
176
     1
 66
     7
176
     1
 43
1.0
176
     1
 76
     1
176
     1
 77
     6
176
     1
 78
     2
176
     1
 67
     7
176
     1
 79
     5
176
     1
170
     0
176
     1
171
     0
176
     1
290
     0
176
     1
 93
        1
176
     1
 44
0.0
176
     1
173
     0
176
     1
  0
VISUALSTYLE
  5
101
102
{ACAD_REACTORS
330
100
102
}
330
100
100
AcDbVisualStyle
  2
Flat
 70
     0
177
     2
291
     1
 71
     2
176
     1
 72
     1
176
     1
 73
     1
176
     1
 90
        2
176
     1
 40
-0.6
176
     1
 41
30.0
176
     1
 62
     5
 63
     7
421
 16777215
176
     1
 74
     0
176
     1
 91
        4
176
     1
 64
     7
176
     1
 65
   257
176
     1
 75
     1
176
     1
175
     1
176
     1
 42
1.0
176
     1
 92
        8
176
     1
 66
     7
176
     1
 43
1.0
176
     1
 76
     1
176
     1
 77
     6
176
     1
 78
     2
176
     1
 67
     7
176
     1
 79
     5
176
     1
170
     0
176
     1
171
     0
176
     1
290
     0
176
     1
 93
       13
176
     1
 44
0.0
176
     1
173
     0
176
     1
  0
VISUALSTYLE
  5
102
102
{ACAD_REACTORS
330
100
102
}
330
100
100
AcDbVisualStyle
  2
FlatWithEdges
 70
     1
177
     2
291
     1
 71
     2
176
     1
 72
     1
176
     1
 73
     1
176
     1
 90
        2
176
     1
 40
-0.6
176
     1
 41
30.0
176
     1
 62
     5
 63
     7
421
 16777215
176
     1
 74
     1
176
     1
 91
        4
176
     1
 64
     7
176
     1
 65
   257
176
     1
 75
     1
176
     1
175
     1
176
     1
 42
1.0
176
     1
 92
        0
176
     1
 66
   257
176
     1
 43
1.0
176
     1
 76
     1
176
     1
 77
     6
176
     1
 78
     2
176
     1
 67
     7
176
     1
 79
     5
176
     1
170
     0
176
     1
171
     0
176
     1
290
     0
176
     1
 93
       13
176
     1
 44
0.0
176
     1
173
     0
176
     1
  0
VISUALSTYLE
  5
103
102
{ACAD_REACTORS
330
100
102
}
330
100
100
AcDbVisualStyle
  2
Gouraud
 70
     2
177
     2
291
     1
 71
     2
176
     1
 72
     2
176
     1
 73
     1
176
     1
 90
        2
176
     1
 40
-0.6
176
     1
 41
30.0
176
     1
 62
     5
 63
     7
421
 16777215
176
     1
 74
     0
176
     1
 91
        4
176
     1
 64
     7
176
     1
 65
   257
176
     1
 75
     1
176
     1
175
     1
176
     1
 42
1.0
176
     1
 92
        0
176
     1
 66
     7
176
     1
 43
1.0
176
     1
 76
     1
176
     1
 77
     6
176
     1
 78
     2
176
     1
 67
     7
176
     1
 79
     5
176
     1
170
     0
176
     1
171
     0
176
     1
290
     0
176
     1
 93
       13
176
     1
 44
0.0
176
     1
173
     0
176
     1
  0
VISUALSTYLE
  5
104
102
{ACAD_REACTORS
330
100
102
}
330
100
100
AcDbVisualStyle
  2
GouraudWithEdges
 70
     3
177
     2
291
     1
 71
     2
176
     1
 72
     2
176
     1
 73
     1
176
     1
 90
        2
176
     1
 40
-0.6
176
     1
 41
30.0
176
     1
 62
     5
 63
     7
421
 16777215
176
     1
 74
     1
176
     1
 91
        4
176
     1
 64
     7
176
     1
 65
   257
176
     1
 75
     1
176
     1
175
     1
176
     1
 42
1.0
176
     1
 92
        0
176
     1
 66
   257
176
     1
 43
1.0
176
     1
 76
     1
176
     1
 77
     6
176
     1
 78
     2
176
     1
 67
     7
176
     1
 79
     5
176
     1
170
     0
176
     1
171
     0
176
     1
290
     0
176
     1
 93
       13
176
     1
 44
0.0
176
     1
173
     0
176
     1
  0
VISUALSTYLE
  5
10E
102
{ACAD_REACTORS
330
100
102
}
330
100
100
AcDbVisualStyle
  2
Linepattern
 70
    14
177
     2
291
     1
 71
     2
176
     1
 72
     2
176
     1
 73
     0
176
     1
 90
        0
176
     1
 40
-0.6
176
     1
 41
-30.0
176
     1
 62
     5
 63
     7
421
 16777215
176
     1
 74
     1
176
     1
 91
        4
176
     1
 64
     7
176
     1
 65
   257
176
     1
 75
     7
176
     1
175
     7
176
     1
 42
1.0
176
     1
 92
        8
176
     1
 66
     7
176
     1
 43
1.0
176
     1
 76
     1
176
     1
 77
     6
176
     1
 78
     2
176
     1
 67
     7
176
     1
 79
     5
176
     1
170
     0
176
     1
171
     0
176
     1
290
     0
176
     1
 93
        1
176
     1
 44
0.0
176
     1
173
     0
176
     1
  0
VISUALSTYLE
  5
109
102
{ACAD_REACTORS
330
100
102
}
330
100
100
AcDbVisualStyle
  2
Realistic
 70
     8
177
     2
291
     0
 71
     2
176
     1
 72
     2
176
     1
 73
     0
176
     1
 90
        0
176
     1
 40
-0.6
176
     1
 41
-30.0
176
     1
 62
     5
 63
     7
421
 16777215
176
     1
 74
     1
176
     1
 91
        0
176
     1
 64
     7
176
     1
 65
   257
176
     1
 75
     1
176
     1
175
     1
176
     1
 42
1.0
176
     1
 92
        8
176
     1
 66
     8
424
  7895160
176
     1
 43
1.0
176
     1
 76
     1
176
     1
 77
     6
176
     1
 78
     2
176
     1
 67
     7
176
     1
 79
     5
176
     1
170
     0
176
     1
171
     0
176
     1
290
     0
176
     1
 93
       13
176
     1
 44
0.0
176
     1
173
     0
176
     1
  0
VISUALSTYLE
  5
10D
102
{ACAD_REACTORS
330
100
102
}
330
100
100
AcDbVisualStyle
  2
Thicken
 70
    13
177
     2
291
     1
 71
     2
176
     1
 72
     2
176
     1
 73
     0
176
     1
 90
        0
176
     1
 40
-0.6
176
     1
 41
-30.0
176
     1
 62
     5
 63
     7
421
 16777215
176
     1
 74
     1
176
     1
 91
        4
176
     1
 64
     7
176
     1
 65
   257
176
     1
 75
     1
176
     1
175
     1
176
     1
 42
1.0
176
     1
 92
       12
176
     1
 66
     7
176
     1
 43
1.0
176
     1
 76
     1
176
     1
 77
     6
176
     1
 78
     2
176
     1
 67
     7
176
     1
 79
     5
176
     1
170
     0
176
     1
171
     0
176
     1
290
     0
176
     1
 93
        1
176
     1
 44
0.0
176
     1
173
     0
176
     1
  0
XRECORD
  5
117
102
{ACAD_REACTORS
330
116
102
}
330
116
100
AcDbXrecord
280
     1
290
     1
  0
XRECORD
  5
118
102
{ACAD_REACTORS
330
116
102
}
330
116
100
AcDbXrecord
280
     1
1000
1:1
  0
ENDSEC
  0
EOF
