  0
SECTION
  2
HEADER
  9
$ACADVER
  1
AC1024
  9
$ACADMAINTVER
 70
     6
  9
$DWGCODEPAGE
  3
ASCII
  9
$INSBASE
 10
0.0
 20
0.0
 30
0.0
  9
$EXTMIN
 10
1.000000000000000E+20
 20
1.000000000000000E+20
 30
1.000000000000000E+20
  9
$EXTMAX
 10
-1.000000000000000E+20
 20
-1.000000000000000E+20
 30
-1.000000000000000E+20
  9
$LIMMIN
 10
0.0
 20
0.0
  9
$LIMMAX
 10
12.0
 20
9.0
  9
$ORTHOMODE
 70
     0
  9
$REGENMODE
 70
     1
  9
$FILLMODE
 70
     1
  9
$QTEXTMODE
 70
     0
  9
$MIRRTEXT
 70
     1
  9
$LTSCALE
 40
1.0
  9
$ATTMODE
 70
     1
  9
$TEXTSIZE
 40
0.2
  9
$TRACEWID
 40
0.05
  9
$TEXTSTYLE
  7
Standard
  9
$CLAYER
  8
0
  9
$CELTYPE
  6
ByLayer
  9
$CECOLOR
 62
   256
  9
$CELTSCALE
 40
1.0
  9
$DISPSILH
 70
     0
  9
$DIMSCALE
 40
1.0
  9
$DIMASZ
 40
2.5
  9
$DIMEXO
 40
0.625
  9
$DIMDLI
 40
0.38
  9
$DIMRND
 40
0.0
  9
$DIMDLE
 40
0.0
  9
$DIMEXE
 40
1.25
  9
$DIMTP
 40
0.0
  9
$DIMTM
 40
0.0
  9
$DIMTXT
 40
2.5
  9
$DIMCEN
 40
0.09
  9
$DIMTSZ
 40
0.0
  9
$DIMTOL
 70
     0
  9
$DIMLIM
 70
     0
  9
$DIMTIH
 70
     1
  9
$DIMTOH
 70
     1
  9
$DIMSE1
 70
     0
  9
$DIMSE2
 70
     0
  9
$DIMTAD
 70
     0
  9
$DIMZIN
 70
     8
  9
$DIMBLK
  1

  9
$DIMASO
 70
     1
  9
$DIMSHO
 70
     1
  9
$DIMPOST
  1

  9
$DIMAPOST
  1

  9
$DIMALT
 70
     0
  9
$DIMALTD
 70
     2
  9
$DIMALTF
 40
25.4
  9
$DIMLFAC
 40
1.0
  9
$DIMTOFL
 70
     0
  9
$DIMTVP
 40
0.0
  9
$DIMTIX
 70
     0
  9
$DIMSOXD
 70
     0
  9
$DIMSAH
 70
     0
  9
$DIMBLK1
  1

  9
$DIMBLK2
  1

  9
$DIMSTYLE
  2
Standard
  9
$DIMCLRD
 70
     0
  9
$DIMCLRE
 70
     0
  9
$DIMCLRT
 70
     0
  9
$DIMTFAC
 40
1.0
  9
$DIMGAP
 40
0.625
  9
$DIMJUST
 70
     0
  9
$DIMSD1
 70
     0
  9
$DIMSD2
 70
     0
  9
$DIMTOLJ
 70
     1
  9
$DIMTZIN
 70
     0
  9
$DIMALTZ
 70
     0
  9
$DIMALTTZ
 70
     0
  9
$DIMUPT
 70
     0
  9
$DIMDEC
 70
     4
  9
$DIMTDEC
 70
     4
  9
$DIMALTU
 70
     2
  9
$DIMALTTD
 70
     2
  9
$DIMTXSTY
  7
Standard
  9
$DIMAUNIT
 70
     0
  9
$DIMADEC
 70
     0
  9
$DIMALTRND
 40
0.0
  9
$DIMAZIN
 70
     2
  9
$DIMDSEP
 70
    46
  9
$DIMATFIT
 70
     3
  9
$DIMFRAC
 70
     0
  9
$DIMLDRBLK
  1

  9
$DIMLUNIT
 70
     2
  9
$DIMLWD
 70
    -2
  9
$DIMLWE
 70
    -2
  9
$DIMTMOVE
 70
     0
  9
$DIMFXL
 40
1.0
  9
$DIMFXLON
 70
     0
  9
$DIMJOGANG
 40
0.7853981633974483
  9
$DIMTFILL
 70
     0
  9
$DIMTFILLCLR
 70
     0
  9
$DIMARCSYM
 70
     0
  9
$DIMLTYPE
  6

  9
$DIMLTEX1
  6

  9
$DIMLTEX2
  6

  9
$DIMTXTDIRECTION
 70
     0
  9
$LUNITS
 70
     2
  9
$LUPREC
 70
     4
  9
$SKETCHINC
 40
0.1
  9
$FILLETRAD
 40
0.5
  9
$AUNITS
 70
     0
  9
$AUPREC
 70
     0
  9
$MENU
  1
.
  9
$ELEVATION
 40
0.0
  9
$PELEVATION
 40
0.0
  9
$THICKNESS
 40
0.0
  9
$LIMCHECK
 70
     0
  9
$CHAMFERA
 40
0.5
  9
$CHAMFERB
 40
0.5
  9
$CHAMFERC
 40
1.0
  9
$CHAMFERD
 40
0.0
  9
$SKPOLY
 70
     0
  9
$TDCREATE
 40
2455861.683993808
  9
$TDUCREATE
 40
2455861.850660475
  9
$TDUPDATE
 40
2455861.683993982
  9
$TDUUPDATE
 40
2455861.850660648
  9
$TDINDWG
 40
0.0000000116
  9
$TDUSRTIMER
 40
0.0000000116
  9
$USRTIMER
 70
     1
  9
$ANGBASE
 50
0.0
  9
$ANGDIR
 70
     0
  9
$PDMODE
 70
     0
  9
$PDSIZE
 40
0.0
  9
$PLINEWID
 40
0.0
  9
$SPLFRAME
 70
     0
  9
$SPLINETYPE
 70
     6
  9
$SPLINESEGS
 70
     8
  9
$HANDSEED
  5
BB
  9
$SURFTAB1
 70
     6
  9
$SURFTAB2
 70
     6
  9
$SURFTYPE
 70
     6
  9
$SURFU
 70
     6
  9
$SURFV
 70
     6
  9
$UCSBASE
  2

  9
$UCSNAME
  2

  9
$UCSORG
 10
0.0
 20
0.0
 30
0.0
  9
$UCSXDIR
 10
1.0
 20
0.0
 30
0.0
  9
$UCSYDIR
 10
0.0
 20
1.0
 30
0.0
  9
$UCSORTHOREF
  2

  9
$UCSORTHOVIEW
 70
     0
  9
$UCSORGTOP
 10
0.0
 20
0.0
 30
0.0
  9
$UCSORGBOTTOM
 10
0.0
 20
0.0
 30
0.0
  9
$UCSORGLEFT
 10
0.0
 20
0.0
 30
0.0
  9
$UCSORGRIGHT
 10
0.0
 20
0.0
 30
0.0
  9
$UCSORGFRONT
 10
0.0
 20
0.0
 30
0.0
  9
$UCSORGBACK
 10
0.0
 20
0.0
 30
0.0
  9
$PUCSBASE
  2

  9
$PUCSNAME
  2

  9
$PUCSORG
 10
0.0
 20
0.0
 30
0.0
  9
$PUCSXDIR
 10
1.0
 20
0.0
 30
0.0
  9
$PUCSYDIR
 10
0.0
 20
1.0
 30
0.0
  9
$PUCSORTHOREF
  2

  9
$PUCSORTHOVIEW
 70
     0
  9
$PUCSORGTOP
 10
0.0
 20
0.0
 30
0.0
  9
$PUCSORGBOTTOM
 10
0.0
 20
0.0
 30
0.0
  9
$PUCSORGLEFT
 10
0.0
 20
0.0
 30
0.0
  9
$PUCSORGRIGHT
 10
0.0
 20
0.0
 30
0.0
  9
$PUCSORGFRONT
 10
0.0
 20
0.0
 30
0.0
  9
$PUCSORGBACK
 10
0.0
 20
0.0
 30
0.0
  9
$USERI1
 70
     0
  9
$USERI2
 70
     0
  9
$USERI3
 70
     0
  9
$USERI4
 70
     0
  9
$USERI5
 70
     0
  9
$USERR1
 40
0.0
  9
$USERR2
 40
0.0
  9
$USERR3
 40
0.0
  9
$USERR4
 40
0.0
  9
$USERR5
 40
0.0
  9
$WORLDVIEW
 70
     1
  9
$SHADEDGE
 70
     3
  9
$SHADEDIF
 70
    70
  9
$TILEMODE
 70
     1
  9
$MAXACTVP
 70
    64
  9
$PINSBASE
 10
0.0
 20
0.0
 30
0.0
  9
$PLIMCHECK
 70
     0
  9
$PEXTMIN
 10
1.000000000000000E+20
 20
1.000000000000000E+20
 30
1.000000000000000E+20
  9
$PEXTMAX
 10
-1.000000000000000E+20
 20
-1.000000000000000E+20
 30
-1.000000000000000E+20
  9
$PLIMMIN
 10
0.0
 20
0.0
  9
$PLIMMAX
 10
12.0
 20
9.0
  9
$UNITMODE
 70
     0
  9
$VISRETAIN
 70
     1
  9
$PLINEGEN
 70
     0
  9
$PSLTSCALE
 70
     1
  9
$TREEDEPTH
 70
  3020
  9
$CMLSTYLE
  2
Standard
  9
$CMLJUST
 70
     0
  9
$CMLSCALE
 40
1.0
  9
$PROXYGRAPHICS
 70
     1
  9
$MEASUREMENT
 70
     1
  9
$CELWEIGHT
370
    -1
  9
$ENDCAPS
280
     0
  9
$JOINSTYLE
280
     0
  9
$LWDISPLAY
290
     0
  9
$INSUNITS
 70
     4
  9
$HYPERLINKBASE
  1

  9
$STYLESHEET
  1

  9
$XEDIT
290
     1
  9
$CEPSNTYPE
380
     0
  9
$PSTYLEMODE
290
     1
  9
$FINGERPRINTGUID
  2
{564D91E4-33ED-4EC3-802C-338A3BB5C977}
  9
$VERSIONGUID
  2
{FAEB1C32-E019-11D5-929B-00C0DF256EC4}
  9
$EXTNAMES
290
     1
  9
$PSVPSCALE
 40
0.0
  9
$OLESTARTUP
290
     0
  9
$SORTENTS
280
   127
  9
$INDEXCTL
280
     0
  9
$HIDETEXT
280
     1
  9
$XCLIPFRAME
280
     2
  9
$HALOGAP
280
     0
  9
$OBSCOLOR
 70
   257
  9
$OBSLTYPE
280
     0
  9
$INTERSECTIONDISPLAY
280
     0
  9
$INTERSECTIONCOLOR
 70
   257
  9
$DIMASSOC
280
     2
  9
$PROJECTNAME
  1

  9
$CAMERADISPLAY
290
     0
  9
$LENSLENGTH
 40
50.0
  9
$CAMERAHEIGHT
 40
0.0
  9
$STEPSPERSEC
 40
2.0
  9
$STEPSIZE
 40
6.0
  9
$3DDWFPREC
 40
2.0
  9
$PSOLWIDTH
 40
0.25
  9
$PSOLHEIGHT
 40
4.0
  9
$LOFTANG1
 40
1.570796326794897
  9
$LOFTANG2
 40
1.570796326794897
  9
$LOFTMAG1
 40
0.0
  9
$LOFTMAG2
 40
0.0
  9
$LOFTPARAM
 70
     7
  9
$LOFTNORMALS
280
     1
  9
$LATITUDE
 40
37.795
  9
$LONGITUDE
 40
-122.394
  9
$NORTHDIRECTION
 40
0.0
  9
$TIMEZONE
 70
 -8000
  9
$LIGHTGLYPHDISPLAY
280
     1
  9
$TILEMODELIGHTSYNCH
280
     1
  9
$SOLIDHIST
280
     1
  9
$SHOWHIST
280
     1
  9
$DWFFRAME
280
     2
  9
$DGNFRAME
280
     2
  9
$REALWORLDSCALE
290
     1
  9
$INTERFERECOLOR
 62
   256
  9
$CSHADOW
280
     0
  9
$SHADOWPLANELOCATION
 40
0.0
  0
ENDSEC
  0
SECTION
  2
CLASSES
  0
CLASS
  1
ACDBDICTIONARYWDFLT
  2
AcDbDictionaryWithDefault
  3
ObjectDBX Classes
 90
        0
 91
        4
280
     0
281
     0
  0
CLASS
  1
VISUALSTYLE
  2
AcDbVisualStyle
  3
ObjectDBX Classes
 90
     4095
 91
        4
280
     0
281
     0
  0
CLASS
  1
MATERIAL
  2
AcDbMaterial
  3
ObjectDBX Classes
 90
     1153
 91
        4
280
     0
281
     0
  0
ENDSEC
  0
SECTION
  2
TABLES
  0
TABLE
  2
VPORT
  5
6B
330
0
100
AcDbSymbolTable
 70
     1
  0
VPORT
  5
8B
330
6B
100
AcDbSymbolTableRecord
100
AcDbViewportTableRecord
  2
*Active
 70
     0
 10
0.0
 20
0.0
 11
1.0
 21
1.0
 12
10.42990654205607
 22
4.5
 13
0.0
 23
0.0
 14
0.5
 24
0.5
 15
0.5
 25
0.5
 16
0.0
 26
0.0
 36
1.0
 17
0.0
 27
0.0
 37
0.0
 40
9.0
 41
1.972972972850329
 42
50.0
 43
0.0
 44
0.0
 50
0.0
 51
0.0
 71
     0
 72
   100
 73
     1
 74
     3
 75
     0
 76
     0
 77
     0
 78
     0
281
     0
 65
     1
110
0.0
120
0.0
130
0.0
111
1.0
121
0.0
131
0.0
112
0.0
122
1.0
132
0.0
 79
     0
146
0.0
 60
     3
 61
     5
292
     1
282
     1
141
0.0
142
0.0
 63
   250
  0
ENDTAB
  0
TABLE
  2
LTYPE
  5
68
330
0
100
AcDbSymbolTable
 70
    19
  0
LTYPE
  5
76
330
68
100
AcDbSymbolTableRecord
100
AcDbLinetypeTableRecord
  2
ByBlock
 70
     0
  3

 72
    65
 73
     0
 40
0.0
  0
LTYPE
  5
77
330
68
100
AcDbSymbolTableRecord
100
AcDbLinetypeTableRecord
  2
ByLayer
 70
     0
  3

 72
    65
 73
     0
 40
0.0
  0
LTYPE
  5
78
330
68
100
AcDbSymbolTableRecord
100
AcDbLinetypeTableRecord
  2
Continuous
 70
     0
  3
Solid line
 72
    65
 73
     0
 40
0.0
  0
LTYPE
  5
A6
330
68
100
AcDbSymbolTableRecord
100
AcDbLinetypeTableRecord
  2
BORDER
 70
     0
  3

 72
    65
 73
     6
 40
42.00000000000001
 49
12.0
 74
     0
 49
-6.0
 74
     0
 49
12.0
 74
     0
 49
-5.95
 74
     0
 49
0.1
 74
     0
 49
-5.95
 74
     0
  0
LTYPE
  5
A7
330
68
100
AcDbSymbolTableRecord
100
AcDbLinetypeTableRecord
  2
BORDER2
 70
     0
  3

 72
    65
 73
     6
 40
21.0
 49
6.0
 74
     0
 49
-3.0
 74
     0
 49
6.0
 74
     0
 49
-2.95
 74
     0
 49
0.1
 74
     0
 49
-2.95
 74
     0
  0
LTYPE
  5
A8
330
68
100
AcDbSymbolTableRecord
100
AcDbLinetypeTableRecord
  2
BORDERX2
 70
     0
  3

 72
    65
 73
     6
 40
84.0
 49
24.0
 74
     0
 49
-12.0
 74
     0
 49
24.0
 74
     0
 49
-11.95
 74
     0
 49
0.1
 74
     0
 49
-11.95
 74
     0
  0
LTYPE
  5
A9
330
68
100
AcDbSymbolTableRecord
100
AcDbLinetypeTableRecord
  2
CENTER
 70
     0
  3

 72
    65
 73
     4
 40
50.0
 49
32.0
 74
     0
 49
-6.0
 74
     0
 49
6.0
 74
     0
 49
-6.0
 74
     0
  0
LTYPE
  5
AA
330
68
100
AcDbSymbolTableRecord
100
AcDbLinetypeTableRecord
  2
CENTER2
 70
     0
  3

 72
    65
 73
     4
 40
25.0
 49
16.0
 74
     0
 49
-3.0
 74
     0
 49
3.0
 74
     0
 49
-3.0
 74
     0
  0
LTYPE
  5
AB
330
68
100
AcDbSymbolTableRecord
100
AcDbLinetypeTableRecord
  2
CENTERX2
 70
     0
  3

 72
    65
 73
     4
 40
100.0
 49
64.0
 74
     0
 49
-12.0
 74
     0
 49
12.0
 74
     0
 49
-12.0
 74
     0
  0
LTYPE
  5
AC
330
68
100
AcDbSymbolTableRecord
100
AcDbLinetypeTableRecord
  2
DASHDOT
 70
     0
  3

 72
    65
 73
     4
 40
24.0
 49
12.0
 74
     0
 49
-5.95
 74
     0
 49
0.1
 74
     0
 49
-5.95
 74
     0
  0
LTYPE
  5
AD
330
68
100
AcDbSymbolTableRecord
100
AcDbLinetypeTableRecord
  2
DASHDOT2
 70
     0
  3

 72
    65
 73
     4
 40
12.0
 49
6.0
 74
     0
 49
-2.95
 74
     0
 49
0.1
 74
     0
 49
-2.95
 74
     0
  0
LTYPE
  5
AE
330
68
100
AcDbSymbolTableRecord
100
AcDbLinetypeTableRecord
  2
DASHDOTX2
 70
     0
  3

 72
    65
 73
     4
 40
48.0
 49
24.0
 74
     0
 49
-11.95
 74
     0
 49
0.1
 74
     0
 49
-11.95
 74
     0
  0
LTYPE
  5
AF
330
68
100
AcDbSymbolTableRecord
100
AcDbLinetypeTableRecord
  2
DASHED
 70
     0
  3

 72
    65
 73
     2
 40
18.0
 49
12.0
 74
     0
 49
-6.0
 74
     0
  0
LTYPE
  5
B0
330
68
100
AcDbSymbolTableRecord
100
AcDbLinetypeTableRecord
  2
DASHED2
 70
     0
  3

 72
    65
 73
     2
 40
9.0
 49
6.0
 74
     0
 49
-3.0
 74
     0
  0
LTYPE
  5
B1
330
68
100
AcDbSymbolTableRecord
100
AcDbLinetypeTableRecord
  2
DASHEDX2
 70
     0
  3

 72
    65
 73
     2
 40
36.0
 49
24.0
 74
     0
 49
-12.0
 74
     0
  0
LTYPE
  5
B2
330
68
100
AcDbSymbolTableRecord
100
AcDbLinetypeTableRecord
  2
DIVIDE
 70
     0
  3

 72
    65
 73
     6
 40
29.99999999999999
 49
12.0
 74
     0
 49
-5.9
 74
     0
 49
0.15
 74
     0
 49
-5.9
 74
     0
 49
0.15
 74
     0
 49
-5.9
 74
     0
  0
LTYPE
  5
B3
330
68
100
AcDbSymbolTableRecord
100
AcDbLinetypeTableRecord
  2
DIVIDE2
 70
     0
  3

 72
    65
 73
     6
 40
15.0
 49
6.0
 74
     0
 49
-2.9
 74
     0
 49
0.15
 74
     0
 49
-2.9
 74
     0
 49
0.15
 74
     0
 49
-2.9
 74
     0
  0
LTYPE
  5
B4
330
68
100
AcDbSymbolTableRecord
100
AcDbLinetypeTableRecord
  2
DIVIDEX2
 70
     0
  3

 72
    65
 73
     6
 40
59.99999999999999
 49
24.0
 74
     0
 49
-11.9
 74
     0
 49
0.15
 74
     0
 49
-11.9
 74
     0
 49
0.15
 74
     0
 49
-11.9
 74
     0
  0
LTYPE
  5
B5
330
68
100
AcDbSymbolTableRecord
100
AcDbLinetypeTableRecord
  2
DOT
 70
     0
  3

 72
    65
 73
     2
 40
6.3
 49
0.1
 74
     0
 49
-6.2
 74
     0
  0
LTYPE
  5
B6
330
68
100
AcDbSymbolTableRecord
100
AcDbLinetypeTableRecord
  2
DOT2
 70
     0
  3

 72
    65
 73
     2
 40
3.2
 49
0.1
 74
     0
 49
-3.1
 74
     0
  0
LTYPE
  5
B7
330
68
100
AcDbSymbolTableRecord
100
AcDbLinetypeTableRecord
  2
DOTX2
 70
     0
  3

 72
    65
 73
     2
 40
12.5
 49
0.1
 74
     0
 49
-12.4
 74
     0
  0
ENDTAB
  0
TABLE
  2
LAYER
  5
65
330
0
100
AcDbSymbolTable
 70
     2
  0
LAYER
  5
73
330
65
100
AcDbSymbolTableRecord
100
AcDbLayerTableRecord
  2
0
 70
     0
 62
     7
420
 16777215
  6
Continuous
370
    25
390
72
347
A0
  0
LAYER
  5
B8
330
65
100
AcDbSymbolTableRecord
100
AcDbLayerTableRecord
  2
Cuts
 70
     0
 62
     1
420
 16711680
  6
Continuous
370
    25
390
72
347
A0
  0
ENDTAB
  0
TABLE
  2
STYLE
  5
66
330
0
100
AcDbSymbolTable
 70
     1
  0
STYLE
  5
74
330
66
100
AcDbSymbolTableRecord
100
AcDbTextStyleTableRecord
  2
Standard
 70
     0
 40
0.0
 41
1.0
 50
0.0
 71
     0
 42
0.2
  3
txt
  4

  0
ENDTAB
  0
TABLE
  2
VIEW
  5
69
330
0
100
AcDbSymbolTable
 70
     0
  0
ENDTAB
  0
TABLE
  2
UCS
  5
6A
330
0
100
AcDbSymbolTable
 70
     0
  0
ENDTAB
  0
TABLE
  2
APPID
  5
6C
330
0
100
AcDbSymbolTable
 70
     2
  0
APPID
  5
75
330
6C
100
AcDbSymbolTableRecord
100
AcDbRegAppTableRecord
  2
ACAD
 70
     0
  0
APPID
  5
A1
330
6C
100
AcDbSymbolTableRecord
100
AcDbRegAppTableRecord
  2
QCAD
 70
     0
  0
ENDTAB
  0
TABLE
  2
DIMSTYLE
  5
6D
330
0
100
AcDbSymbolTable
 70
     2
100
AcDbDimStyleTable
  0
DIMSTYLE
105
89
330
6D
100
AcDbSymbolTableRecord
100
AcDbDimStyleTableRecord
  2
Standard
 70
     0
178
     0
340
74
  0
DIMSTYLE
105
A5
330
6D
100
AcDbSymbolTableRecord
100
AcDbDimStyleTableRecord
  2
QCADDimStyle
 70
     0
 41
2.5
 42
0.625
 44
1.25
 73
     0
 77
     1
140
2.5
147
0.625
178
     0
340
74
  0
ENDTAB
  0
TABLE
  2
BLOCK_RECORD
  5
64
330
0
100
AcDbSymbolTable
 70
     1
  0
BLOCK_RECORD
  5
81
330
64
100
AcDbSymbolTableRecord
100
AcDbBlockTableRecord
  2
*Model_Space
340
84
 70
     0
280
     1
281
     0
  0
BLOCK_RECORD
  5
7D
330
64
100
AcDbSymbolTableRecord
100
AcDbBlockTableRecord
  2
*Paper_Space
340
80
 70
     0
280
     1
281
     0
  0
BLOCK_RECORD
  5
85
330
64
100
AcDbSymbolTableRecord
100
AcDbBlockTableRecord
  2
*Paper_Space0
340
88
 70
     0
280
     1
281
     0
  0
ENDTAB
  0
ENDSEC
  0
SECTION
  2
BLOCKS
  0
BLOCK
  5
82
330
81
100
AcDbEntity
  8
0
100
AcDbBlockBegin
  2
*Model_Space
 70
     0
 10
0.0
 20
0.0
 30
0.0
  3
*Model_Space
  1

  0
ENDBLK
  5
83
330
81
100
AcDbEntity
  8
0
100
AcDbBlockEnd
  0
BLOCK
  5
7E
330
7D
100
AcDbEntity
 67
     1
  8
0
100
AcDbBlockBegin
  2
*Paper_Space
 70
     0
 10
0.0
 20
0.0
 30
0.0
  3
*Paper_Space
  1

  0
ENDBLK
  5
7F
330
7D
100
AcDbEntity
 67
     1
  8
0
100
AcDbBlockEnd
  0
BLOCK
  5
86
330
85
100
AcDbEntity
  8
0
100
AcDbBlockBegin
  2
*Paper_Space0
 70
     0
 10
0.0
 20
0.0
 30
0.0
  3
*Paper_Space0
  1

  0
ENDBLK
  5
87
330
85
100
AcDbEntity
  8
0
100
AcDbBlockEnd
  0
ENDSEC
  0
SECTION
  2
ENTITIES
  0
SPLINE
  5
18
330
81
100
AcDbEntity
  8
Cuts
 62
     1
420
 16711680
370
    25
100
AcDbSpline
210
0.0
220
0.0
230
1.0
 70
     8
 71
     3
 72
     8
 73
     4
 74
     0
 42
0.000000001
 43
0.001
 12
1.0
 22
0.0
 32
0.0
 13
1.0
 23
0.0
 33
0.0
 40
0.0
 40
0.0
 40
0.0
 40
0.0
 40
1.0
 40
1.0
 40
1.0
 40
1.0
 10
56.35365437499991
 20
24.45863312500001
 30
0.0
 10
56.35365437499991
 20
25.43300562499985
 30
0.0
 10
57.14669812500006
 20
26.22534437499985
 30
0.0
 10
58.12036437500001
 20
26.22534437499985
 30
0.0
  0
SPLINE
  5
19
330
81
100
AcDbEntity
  8
Cuts
 62
     1
420
 16711680
370
    25
100
AcDbSpline
210
0.0
220
0.0
230
1.0
 70
     8
 71
     3
 72
     8
 73
     4
 74
     0
 42
0.000000001
 43
0.001
 12
1.0
 22
0.0
 32
0.0
 13
1.0
 23
0.0
 33
0.0
 40
0.0
 40
0.0
 40
0.0
 40
0.0
 40
1.0
 40
1.0
 40
1.0
 40
1.0
 10
59.00372062499991
 20
26.17560312499995
 30
0.0
 10
59.00372062499991
 20
25.40372562499988
 30
0.0
 10
59.63131187499994
 20
24.77578062499992
 30
0.0
 10
60.40424812499987
 20
24.77578062499992
 30
0.0
  0
SPLINE
  5
1A
330
81
100
AcDbEntity
  8
Cuts
 62
     1
420
 16711680
370
    25
100
AcDbSpline
210
0.0
220
0.0
230
1.0
 70
     8
 71
     3
 72
     8
 73
     4
 74
     0
 42
0.000000001
 43
0.001
 12
1.0
 22
0.0
 32
0.0
 13
1.0
 23
0.0
 33
0.0
 40
0.0
 40
0.0
 40
0.0
 40
0.0
 40
1.0
 40
1.0
 40
1.0
 40
1.0
 10
60.40424812499987
 20
24.77578062499992
 30
0.0
 10
61.17577312499998
 20
24.77578062499992
 30
0.0
 10
61.80407062499989
 20
25.40372562499988
 30
0.0
 10
61.80407062499989
 20
26.17560312499995
 30
0.0
  0
LWPOLYLINE
  5
1B
330
81
100
AcDbEntity
  8
Cuts
 62
     1
420
 16711680
370
    25
100
AcDbPolyline
 90
        3
 70
     0
 43
0.0
 10
58.12036437500001
 20
26.22534437499985
 10
59.00372062499991
 20
26.22534437499985
 10
59.00372062499991
 20
26.17560312499995
  0
SPLINE
  5
1C
330
81
100
AcDbEntity
  8
Cuts
 62
     1
420
 16711680
370
    25
100
AcDbSpline
210
0.0
220
0.0
230
1.0
 70
     8
 71
     3
 72
     8
 73
     4
 74
     0
 42
0.000000001
 43
0.001
 12
1.0
 22
0.0
 32
0.0
 13
1.0
 23
0.0
 33
0.0
 40
0.0
 40
0.0
 40
0.0
 40
0.0
 40
1.0
 40
1.0
 40
1.0
 40
1.0
 10
62.68742562500006
 20
26.22534437499985
 30
0.0
 10
63.66109312499998
 20
26.22534437499985
 30
0.0
 10
64.45343187499998
 20
25.43300562499985
 30
0.0
 10
64.45343187499998
 20
24.45863312500001
 30
0.0
  0
LWPOLYLINE
  5
1D
330
81
100
AcDbEntity
  8
Cuts
 62
     1
420
 16711680
370
    25
100
AcDbPolyline
 90
        3
 70
     0
 43
0.0
 10
61.80407062499989
 20
26.17560312499995
 10
61.80407062499989
 20
26.22534437499985
 10
62.68742562500006
 20
26.22534437499985
  0
SPLINE
  5
1E
330
81
100
AcDbEntity
  8
Cuts
 62
     1
420
 16711680
370
    25
100
AcDbSpline
210
0.0
220
0.0
230
1.0
 70
     8
 71
     3
 72
     8
 73
     4
 74
     0
 42
0.000000001
 43
0.001
 12
1.0
 22
0.0
 32
0.0
 13
1.0
 23
0.0
 33
0.0
 40
0.0
 40
0.0
 40
0.0
 40
0.0
 40
1.0
 40
1.0
 40
1.0
 40
1.0
 10
64.45343187499998
 20
17.89308687499988
 30
0.0
 10
64.45343187499998
 20
16.919066875
 30
0.0
 10
63.66109312499998
 20
16.12602312499985
 30
0.0
 10
62.68742562500006
 20
16.12602312499985
 30
0.0
  0
LWPOLYLINE
  5
1F
330
81
100
AcDbEntity
  8
Cuts
 62
     1
420
 16711680
370
    25
100
AcDbPolyline
 90
        2
 70
     0
 43
0.0
 10
64.45343187499998
 20
24.45863312500001
 10
64.45343187499998
 20
17.89308687499988
  0
SPLINE
  5
20
330
81
100
AcDbEntity
  8
Cuts
 62
     1
420
 16711680
370
    25
100
AcDbSpline
210
0.0
220
0.0
230
1.0
 70
     8
 71
     3
 72
     8
 73
     4
 74
     0
 42
0.000000001
 43
0.001
 12
1.0
 22
0.0
 32
0.0
 13
1.0
 23
0.0
 33
0.0
 40
0.0
 40
0.0
 40
0.0
 40
0.0
 40
1.0
 40
1.0
 40
1.0
 40
1.0
 10
61.80407062499989
 20
16.17576437499997
 30
0.0
 10
61.80407062499989
 20
16.94799437500001
 30
0.0
 10
61.17577312499998
 20
17.57593937499996
 30
0.0
 10
60.40424812499987
 20
17.57593937499996
 30
0.0
  0
SPLINE
  5
21
330
81
100
AcDbEntity
  8
Cuts
 62
     1
420
 16711680
370
    25
100
AcDbSpline
210
0.0
220
0.0
230
1.0
 70
     8
 71
     3
 72
     8
 73
     4
 74
     0
 42
0.000000001
 43
0.001
 12
1.0
 22
0.0
 32
0.0
 13
1.0
 23
0.0
 33
0.0
 40
0.0
 40
0.0
 40
0.0
 40
0.0
 40
1.0
 40
1.0
 40
1.0
 40
1.0
 10
60.40424812499987
 20
17.57593937499996
 30
0.0
 10
59.6316643749999
 20
17.57593937499996
 30
0.0
 10
59.00372062499991
 20
16.94834812499994
 30
0.0
 10
59.00372062499991
 20
16.17576437499997
 30
0.0
  0
LWPOLYLINE
  5
22
330
81
100
AcDbEntity
  8
Cuts
 62
     1
420
 16711680
370
    25
100
AcDbPolyline
 90
        3
 70
     0
 43
0.0
 10
62.68742562500006
 20
16.12602312499985
 10
61.80407062499989
 20
16.12602312499985
 10
61.80407062499989
 20
16.17576437499997
  0
SPLINE
  5
23
330
81
100
AcDbEntity
  8
Cuts
 62
     1
420
 16711680
370
    25
100
AcDbSpline
210
0.0
220
0.0
230
1.0
 70
     8
 71
     3
 72
     8
 73
     4
 74
     0
 42
0.000000001
 43
0.001
 12
1.0
 22
0.0
 32
0.0
 13
1.0
 23
0.0
 33
0.0
 40
0.0
 40
0.0
 40
0.0
 40
0.0
 40
1.0
 40
1.0
 40
1.0
 40
1.0
 10
58.12036437500001
 20
16.12602312499985
 30
0.0
 10
57.14669812500006
 20
16.12602312499985
 30
0.0
 10
56.35365437499991
 20
16.919066875
 30
0.0
 10
56.35365437499991
 20
17.89308687499988
 30
0.0
  0
SPLINE
  5
24
330
81
100
AcDbEntity
  8
Cuts
 62
     1
420
 16711680
370
    25
100
AcDbSpline
210
0.0
220
0.0
230
1.0
 70
     8
 71
     3
 72
     8
 73
     4
 74
     0
 42
0.000000001
 43
0.001
 12
1.0
 22
0.0
 32
0.0
 13
1.0
 23
0.0
 33
0.0
 40
0.0
 40
0.0
 40
0.0
 40
0.0
 40
1.0
 40
1.0
 40
1.0
 40
1.0
 10
59.15400437499989
 20
21.17568312499998
 30
0.0
 10
59.15400437499989
 20
21.86571687499986
 30
0.0
 10
59.71315687499987
 20
22.42557562499996
 30
0.0
 10
60.4038956249999
 20
22.42557562499996
 30
0.0
  0
SPLINE
  5
25
330
81
100
AcDbEntity
  8
Cuts
 62
     1
420
 16711680
370
    25
100
AcDbSpline
210
0.0
220
0.0
230
1.0
 70
     8
 71
     3
 72
     8
 73
     4
 74
     0
 42
0.000000001
 43
0.001
 12
1.0
 22
0.0
 32
0.0
 13
1.0
 23
0.0
 33
0.0
 40
0.0
 40
0.0
 40
0.0
 40
0.0
 40
1.0
 40
1.0
 40
1.0
 40
1.0
 10
60.4038956249999
 20
22.42557562499996
 30
0.0
 10
61.09357562499986
 20
22.42557562499996
 30
0.0
 10
61.65343437499996
 20
21.86571687499986
 30
0.0
 10
61.65343437499996
 20
21.17568312499998
 30
0.0
  0
SPLINE
  5
26
330
81
100
AcDbEntity
  8
Cuts
 62
     1
420
 16711680
370
    25
100
AcDbSpline
210
0.0
220
0.0
230
1.0
 70
     8
 71
     3
 72
     8
 73
     4
 74
     0
 42
0.000000001
 43
0.001
 12
1.0
 22
0.0
 32
0.0
 13
1.0
 23
0.0
 33
0.0
 40
0.0
 40
0.0
 40
0.0
 40
0.0
 40
1.0
 40
1.0
 40
1.0
 40
1.0
 10
61.65343437499996
 20
21.17568312499998
 30
0.0
 10
61.65343437499996
 20
20.48529812499987
 30
0.0
 10
61.09357562499986
 20
19.925439375
 30
0.0
 10
60.4038956249999
 20
19.925439375
 30
0.0
  0
SPLINE
  5
27
330
81
100
AcDbEntity
  8
Cuts
 62
     1
420
 16711680
370
    25
100
AcDbSpline
210
0.0
220
0.0
230
1.0
 70
     8
 71
     3
 72
     8
 73
     4
 74
     0
 42
0.000000001
 43
0.001
 12
1.0
 22
0.0
 32
0.0
 13
1.0
 23
0.0
 33
0.0
 40
0.0
 40
0.0
 40
0.0
 40
0.0
 40
1.0
 40
1.0
 40
1.0
 40
1.0
 10
60.4038956249999
 20
19.925439375
 30
0.0
 10
59.71315687499987
 20
19.925439375
 30
0.0
 10
59.15400437499989
 20
20.48529812499987
 30
0.0
 10
59.15400437499989
 20
21.17568312499998
 30
0.0
  0
LWPOLYLINE
  5
28
330
81
100
AcDbEntity
  8
Cuts
 62
     1
420
 16711680
370
    25
100
AcDbPolyline
 90
        3
 70
     0
 43
0.0
 10
59.00372062499991
 20
16.17576437499997
 10
59.00372062499991
 20
16.12602312499985
 10
58.12036437500001
 20
16.12602312499985
  0
SPLINE
  5
29
330
81
100
AcDbEntity
  8
Cuts
 62
     1
420
 16711680
370
    25
100
AcDbSpline
210
0.0
220
0.0
230
1.0
 70
     8
 71
     3
 72
     8
 73
     4
 74
     0
 42
0.000000001
 43
0.001
 12
1.0
 22
0.0
 32
0.0
 13
1.0
 23
0.0
 33
0.0
 40
0.0
 40
0.0
 40
0.0
 40
0.0
 40
1.0
 40
1.0
 40
1.0
 40
1.0
 10
48.2535231249999
 20
24.45863312500001
 30
0.0
 10
48.2535231249999
 20
25.43300562499985
 30
0.0
 10
49.04656812500002
 20
26.22534437499985
 30
0.0
 10
50.02023437499997
 20
26.22534437499985
 30
0.0
  0
SPLINE
  5
2A
330
81
100
AcDbEntity
  8
Cuts
 62
     1
420
 16711680
370
    25
100
AcDbSpline
210
0.0
220
0.0
230
1.0
 70
     8
 71
     3
 72
     8
 73
     4
 74
     0
 42
0.000000001
 43
0.001
 12
1.0
 22
0.0
 32
0.0
 13
1.0
 23
0.0
 33
0.0
 40
0.0
 40
0.0
 40
0.0
 40
0.0
 40
1.0
 40
1.0
 40
1.0
 40
1.0
 10
50.90358937499991
 20
26.17560312499995
 30
0.0
 10
50.90358937499991
 20
25.40372562499988
 30
0.0
 10
51.53188687500005
 20
24.77578062499992
 30
0.0
 10
52.30411812500006
 20
24.77578062499992
 30
0.0
  0
SPLINE
  5
2B
330
81
100
AcDbEntity
  8
Cuts
 62
     1
420
 16711680
370
    25
100
AcDbSpline
210
0.0
220
0.0
230
1.0
 70
     8
 71
     3
 72
     8
 73
     4
 74
     0
 42
0.000000001
 43
0.001
 12
1.0
 22
0.0
 32
0.0
 13
1.0
 23
0.0
 33
0.0
 40
0.0
 40
0.0
 40
0.0
 40
0.0
 40
1.0
 40
1.0
 40
1.0
 40
1.0
 10
52.30411812500006
 20
24.77578062499992
 30
0.0
 10
53.07564312499994
 20
24.77578062499992
 30
0.0
 10
53.70393937499989
 20
25.40372562499988
 30
0.0
 10
53.70393937499989
 20
26.17560312499995
 30
0.0
  0
LWPOLYLINE
  5
2C
330
81
100
AcDbEntity
  8
Cuts
 62
     1
420
 16711680
370
    25
100
AcDbPolyline
 90
        3
 70
     0
 43
0.0
 10
50.02023437499997
 20
26.22534437499985
 10
50.90358937499991
 20
26.22534437499985
 10
50.90358937499991
 20
26.17560312499995
  0
SPLINE
  5
2D
330
81
100
AcDbEntity
  8
Cuts
 62
     1
420
 16711680
370
    25
100
AcDbSpline
210
0.0
220
0.0
230
1.0
 70
     8
 71
     3
 72
     8
 73
     4
 74
     0
 42
0.000000001
 43
0.001
 12
1.0
 22
0.0
 32
0.0
 13
1.0
 23
0.0
 33
0.0
 40
0.0
 40
0.0
 40
0.0
 40
0.0
 40
1.0
 40
1.0
 40
1.0
 40
1.0
 10
54.58729562500002
 20
26.22534437499985
 30
0.0
 10
55.56096187499998
 20
26.22534437499985
 30
0.0
 10
56.35400687499987
 20
25.43300562499985
 30
0.0
 10
56.35400687499987
 20
24.45863312500001
 30
0.0
  0
LWPOLYLINE
  5
2E
330
81
100
AcDbEntity
  8
Cuts
 62
     1
420
 16711680
370
    25
100
AcDbPolyline
 90
        3
 70
     0
 43
0.0
 10
53.70393937499989
 20
26.17560312499995
 10
53.70393937499989
 20
26.22534437499985
 10
54.58729562500002
 20
26.22534437499985
  0
SPLINE
  5
2F
330
81
100
AcDbEntity
  8
Cuts
 62
     1
420
 16711680
370
    25
100
AcDbSpline
210
0.0
220
0.0
230
1.0
 70
     8
 71
     3
 72
     8
 73
     4
 74
     0
 42
0.000000001
 43
0.001
 12
1.0
 22
0.0
 32
0.0
 13
1.0
 23
0.0
 33
0.0
 40
0.0
 40
0.0
 40
0.0
 40
0.0
 40
1.0
 40
1.0
 40
1.0
 40
1.0
 10
56.35400687499987
 20
17.89308687499988
 30
0.0
 10
56.35400687499987
 20
16.919066875
 30
0.0
 10
55.56096187499998
 20
16.12602312499985
 30
0.0
 10
54.58729562500002
 20
16.12602312499985
 30
0.0
  0
LWPOLYLINE
  5
30
330
81
100
AcDbEntity
  8
Cuts
 62
     1
420
 16711680
370
    25
100
AcDbPolyline
 90
        2
 70
     0
 43
0.0
 10
56.35400687499987
 20
24.45863312500001
 10
56.35400687499987
 20
17.89308687499988
  0
SPLINE
  5
31
330
81
100
AcDbEntity
  8
Cuts
 62
     1
420
 16711680
370
    25
100
AcDbSpline
210
0.0
220
0.0
230
1.0
 70
     8
 71
     3
 72
     8
 73
     4
 74
     0
 42
0.000000001
 43
0.001
 12
1.0
 22
0.0
 32
0.0
 13
1.0
 23
0.0
 33
0.0
 40
0.0
 40
0.0
 40
0.0
 40
0.0
 40
1.0
 40
1.0
 40
1.0
 40
1.0
 10
53.70393937499989
 20
16.17576437499997
 30
0.0
 10
53.70393937499989
 20
16.94799437500001
 30
0.0
 10
53.07564312499994
 20
17.57593937499996
 30
0.0
 10
52.30411812500006
 20
17.57593937499996
 30
0.0
  0
SPLINE
  5
32
330
81
100
AcDbEntity
  8
Cuts
 62
     1
420
 16711680
370
    25
100
AcDbSpline
210
0.0
220
0.0
230
1.0
 70
     8
 71
     3
 72
     8
 73
     4
 74
     0
 42
0.000000001
 43
0.001
 12
1.0
 22
0.0
 32
0.0
 13
1.0
 23
0.0
 33
0.0
 40
0.0
 40
0.0
 40
0.0
 40
0.0
 40
1.0
 40
1.0
 40
1.0
 40
1.0
 10
52.30411812500006
 20
17.57593937499996
 30
0.0
 10
51.53223937500002
 20
17.57593937499996
 30
0.0
 10
50.90358937499991
 20
16.94834812499994
 30
0.0
 10
50.90358937499991
 20
16.17576437499997
 30
0.0
  0
LWPOLYLINE
  5
33
330
81
100
AcDbEntity
  8
Cuts
 62
     1
420
 16711680
370
    25
100
AcDbPolyline
 90
        3
 70
     0
 43
0.0
 10
54.58729562500002
 20
16.12602312499985
 10
53.70393937499989
 20
16.12602312499985
 10
53.70393937499989
 20
16.17576437499997
  0
SPLINE
  5
34
330
81
100
AcDbEntity
  8
Cuts
 62
     1
420
 16711680
370
    25
100
AcDbSpline
210
0.0
220
0.0
230
1.0
 70
     8
 71
     3
 72
     8
 73
     4
 74
     0
 42
0.000000001
 43
0.001
 12
1.0
 22
0.0
 32
0.0
 13
1.0
 23
0.0
 33
0.0
 40
0.0
 40
0.0
 40
0.0
 40
0.0
 40
1.0
 40
1.0
 40
1.0
 40
1.0
 10
50.02023437499997
 20
16.12602312499985
 30
0.0
 10
49.04656812500002
 20
16.12602312499985
 30
0.0
 10
48.2535231249999
 20
16.919066875
 30
0.0
 10
48.2535231249999
 20
17.89308687499988
 30
0.0
  0
SPLINE
  5
35
330
81
100
AcDbEntity
  8
Cuts
 62
     1
420
 16711680
370
    25
100
AcDbSpline
210
0.0
220
0.0
230
1.0
 70
     8
 71
     3
 72
     8
 73
     4
 74
     0
 42
0.000000001
 43
0.001
 12
1.0
 22
0.0
 32
0.0
 13
1.0
 23
0.0
 33
0.0
 40
0.0
 40
0.0
 40
0.0
 40
0.0
 40
1.0
 40
1.0
 40
1.0
 40
1.0
 10
51.05387312499988
 20
21.17568312499998
 30
0.0
 10
51.05387312499988
 20
21.86571687499986
 30
0.0
 10
51.6126731249999
 20
22.42557562499996
 30
0.0
 10
52.3037643749999
 20
22.42557562499996
 30
0.0
  0
SPLINE
  5
36
330
81
100
AcDbEntity
  8
Cuts
 62
     1
420
 16711680
370
    25
100
AcDbSpline
210
0.0
220
0.0
230
1.0
 70
     8
 71
     3
 72
     8
 73
     4
 74
     0
 42
0.000000001
 43
0.001
 12
1.0
 22
0.0
 32
0.0
 13
1.0
 23
0.0
 33
0.0
 40
0.0
 40
0.0
 40
0.0
 40
0.0
 40
1.0
 40
1.0
 40
1.0
 40
1.0
 10
52.3037643749999
 20
22.42557562499996
 30
0.0
 10
52.99344562500005
 20
22.42557562499996
 30
0.0
 10
53.55295062499999
 20
21.86571687499986
 30
0.0
 10
53.55295062499999
 20
21.17568312499998
 30
0.0
  0
SPLINE
  5
37
330
81
100
AcDbEntity
  8
Cuts
 62
     1
420
 16711680
370
    25
100
AcDbSpline
210
0.0
220
0.0
230
1.0
 70
     8
 71
     3
 72
     8
 73
     4
 74
     0
 42
0.000000001
 43
0.001
 12
1.0
 22
0.0
 32
0.0
 13
1.0
 23
0.0
 33
0.0
 40
0.0
 40
0.0
 40
0.0
 40
0.0
 40
1.0
 40
1.0
 40
1.0
 40
1.0
 10
53.55295062499999
 20
21.17568312499998
 30
0.0
 10
53.55295062499999
 20
20.48529812499987
 30
0.0
 10
52.99344562500005
 20
19.925439375
 30
0.0
 10
52.3037643749999
 20
19.925439375
 30
0.0
  0
SPLINE
  5
38
330
81
100
AcDbEntity
  8
Cuts
 62
     1
420
 16711680
370
    25
100
AcDbSpline
210
0.0
220
0.0
230
1.0
 70
     8
 71
     3
 72
     8
 73
     4
 74
     0
 42
0.000000001
 43
0.001
 12
1.0
 22
0.0
 32
0.0
 13
1.0
 23
0.0
 33
0.0
 40
0.0
 40
0.0
 40
0.0
 40
0.0
 40
1.0
 40
1.0
 40
1.0
 40
1.0
 10
52.3037643749999
 20
19.925439375
 30
0.0
 10
51.6126731249999
 20
19.925439375
 30
0.0
 10
51.05387312499988
 20
20.48529812499987
 30
0.0
 10
51.05387312499988
 20
21.17568312499998
 30
0.0
  0
LWPOLYLINE
  5
39
330
81
100
AcDbEntity
  8
Cuts
 62
     1
420
 16711680
370
    25
100
AcDbPolyline
 90
        3
 70
     0
 43
0.0
 10
50.90358937499991
 20
16.17576437499997
 10
50.90358937499991
 20
16.12602312499985
 10
50.02023437499997
 20
16.12602312499985
  0
SPLINE
  5
3A
330
81
100
AcDbEntity
  8
Cuts
 62
     1
420
 16711680
370
    25
100
AcDbSpline
210
0.0
220
0.0
230
1.0
 70
     8
 71
     3
 72
     8
 73
     4
 74
     0
 42
0.000000001
 43
0.001
 12
1.0
 22
0.0
 32
0.0
 13
1.0
 23
0.0
 33
0.0
 40
0.0
 40
0.0
 40
0.0
 40
0.0
 40
1.0
 40
1.0
 40
1.0
 40
1.0
 10
40.15409812500002
 20
24.45863312500001
 30
0.0
 10
40.15409812500002
 20
25.43300562499985
 30
0.0
 10
40.94643687500002
 20
26.22534437499985
 30
0.0
 10
41.92010437499994
 20
26.22534437499985
 30
0.0
  0
SPLINE
  5
3B
330
81
100
AcDbEntity
  8
Cuts
 62
     1
420
 16711680
370
    25
100
AcDbSpline
210
0.0
220
0.0
230
1.0
 70
     8
 71
     3
 72
     8
 73
     4
 74
     0
 42
0.000000001
 43
0.001
 12
1.0
 22
0.0
 32
0.0
 13
1.0
 23
0.0
 33
0.0
 40
0.0
 40
0.0
 40
0.0
 40
0.0
 40
1.0
 40
1.0
 40
1.0
 40
1.0
 10
42.80345937499987
 20
26.17560312499995
 30
0.0
 10
42.80345937499987
 20
25.40372562499988
 30
0.0
 10
43.43175687500002
 20
24.77578062499992
 30
0.0
 10
44.20398687500006
 20
24.77578062499992
 30
0.0
  0
SPLINE
  5
3C
330
81
100
AcDbEntity
  8
Cuts
 62
     1
420
 16711680
370
    25
100
AcDbSpline
210
0.0
220
0.0
230
1.0
 70
     8
 71
     3
 72
     8
 73
     4
 74
     0
 42
0.000000001
 43
0.001
 12
1.0
 22
0.0
 32
0.0
 13
1.0
 23
0.0
 33
0.0
 40
0.0
 40
0.0
 40
0.0
 40
0.0
 40
1.0
 40
1.0
 40
1.0
 40
1.0
 10
44.20398687500006
 20
24.77578062499992
 30
0.0
 10
44.97621812500006
 20
24.77578062499992
 30
0.0
 10
45.60345687499989
 20
25.40372562499988
 30
0.0
 10
45.60345687499989
 20
26.17560312499995
 30
0.0
  0
LWPOLYLINE
  5
3D
330
81
100
AcDbEntity
  8
Cuts
 62
     1
420
 16711680
370
    25
100
AcDbPolyline
 90
        3
 70
     0
 43
0.0
 10
41.92010437499994
 20
26.22534437499985
 10
42.80345937499987
 20
26.22534437499985
 10
42.80345937499987
 20
26.17560312499995
  0
SPLINE
  5
3E
330
81
100
AcDbEntity
  8
Cuts
 62
     1
420
 16711680
370
    25
100
AcDbSpline
210
0.0
220
0.0
230
1.0
 70
     8
 71
     3
 72
     8
 73
     4
 74
     0
 42
0.000000001
 43
0.001
 12
1.0
 22
0.0
 32
0.0
 13
1.0
 23
0.0
 33
0.0
 40
0.0
 40
0.0
 40
0.0
 40
0.0
 40
1.0
 40
1.0
 40
1.0
 40
1.0
 10
46.48716437500002
 20
26.22534437499985
 30
0.0
 10
47.46083187499994
 20
26.22534437499985
 30
0.0
 10
48.25387562499986
 20
25.43300562499985
 30
0.0
 10
48.25387562499986
 20
24.45863312500001
 30
0.0
  0
LWPOLYLINE
  5
3F
330
81
100
AcDbEntity
  8
Cuts
 62
     1
420
 16711680
370
    25
100
AcDbPolyline
 90
        3
 70
     0
 43
0.0
 10
45.60345687499989
 20
26.17560312499995
 10
45.60345687499989
 20
26.22534437499985
 10
46.48716437500002
 20
26.22534437499985
  0
SPLINE
  5
40
330
81
100
AcDbEntity
  8
Cuts
 62
     1
420
 16711680
370
    25
100
AcDbSpline
210
0.0
220
0.0
230
1.0
 70
     8
 71
     3
 72
     8
 73
     4
 74
     0
 42
0.000000001
 43
0.001
 12
1.0
 22
0.0
 32
0.0
 13
1.0
 23
0.0
 33
0.0
 40
0.0
 40
0.0
 40
0.0
 40
0.0
 40
1.0
 40
1.0
 40
1.0
 40
1.0
 10
48.25387562499986
 20
17.89308687499988
 30
0.0
 10
48.25387562499986
 20
16.919066875
 30
0.0
 10
47.46083187499994
 20
16.12602312499985
 30
0.0
 10
46.48716437500002
 20
16.12602312499985
 30
0.0
  0
LWPOLYLINE
  5
41
330
81
100
AcDbEntity
  8
Cuts
 62
     1
420
 16711680
370
    25
100
AcDbPolyline
 90
        2
 70
     0
 43
0.0
 10
48.25387562499986
 20
24.45863312500001
 10
48.25387562499986
 20
17.89308687499988
  0
SPLINE
  5
42
330
81
100
AcDbEntity
  8
Cuts
 62
     1
420
 16711680
370
    25
100
AcDbSpline
210
0.0
220
0.0
230
1.0
 70
     8
 71
     3
 72
     8
 73
     4
 74
     0
 42
0.000000001
 43
0.001
 12
1.0
 22
0.0
 32
0.0
 13
1.0
 23
0.0
 33
0.0
 40
0.0
 40
0.0
 40
0.0
 40
0.0
 40
1.0
 40
1.0
 40
1.0
 40
1.0
 10
45.60345687499989
 20
16.17576437499997
 30
0.0
 10
45.60345687499989
 20
16.94799437500001
 30
0.0
 10
44.97621812500006
 20
17.57593937499996
 30
0.0
 10
44.20398687500006
 20
17.57593937499996
 30
0.0
  0
SPLINE
  5
43
330
81
100
AcDbEntity
  8
Cuts
 62
     1
420
 16711680
370
    25
100
AcDbSpline
210
0.0
220
0.0
230
1.0
 70
     8
 71
     3
 72
     8
 73
     4
 74
     0
 42
0.000000001
 43
0.001
 12
1.0
 22
0.0
 32
0.0
 13
1.0
 23
0.0
 33
0.0
 40
0.0
 40
0.0
 40
0.0
 40
0.0
 40
1.0
 40
1.0
 40
1.0
 40
1.0
 10
44.20398687500006
 20
17.57593937499996
 30
0.0
 10
43.43175687500002
 20
17.57593937499996
 30
0.0
 10
42.80345937499987
 20
16.94834812499994
 30
0.0
 10
42.80345937499987
 20
16.17576437499997
 30
0.0
  0
LWPOLYLINE
  5
44
330
81
100
AcDbEntity
  8
Cuts
 62
     1
420
 16711680
370
    25
100
AcDbPolyline
 90
        3
 70
     0
 43
0.0
 10
46.48716437500002
 20
16.12602312499985
 10
45.60345687499989
 20
16.12602312499985
 10
45.60345687499989
 20
16.17576437499997
  0
SPLINE
  5
45
330
81
100
AcDbEntity
  8
Cuts
 62
     1
420
 16711680
370
    25
100
AcDbSpline
210
0.0
220
0.0
230
1.0
 70
     8
 71
     3
 72
     8
 73
     4
 74
     0
 42
0.000000001
 43
0.001
 12
1.0
 22
0.0
 32
0.0
 13
1.0
 23
0.0
 33
0.0
 40
0.0
 40
0.0
 40
0.0
 40
0.0
 40
1.0
 40
1.0
 40
1.0
 40
1.0
 10
41.92010437499994
 20
16.12602312499985
 30
0.0
 10
40.94643687500002
 20
16.12602312499985
 30
0.0
 10
40.15409812500002
 20
16.919066875
 30
0.0
 10
40.15409812500002
 20
17.89308687499988
 30
0.0
  0
SPLINE
  5
46
330
81
100
AcDbEntity
  8
Cuts
 62
     1
420
 16711680
370
    25
100
AcDbSpline
210
0.0
220
0.0
230
1.0
 70
     8
 71
     3
 72
     8
 73
     4
 74
     0
 42
0.000000001
 43
0.001
 12
1.0
 22
0.0
 32
0.0
 13
1.0
 23
0.0
 33
0.0
 40
0.0
 40
0.0
 40
0.0
 40
0.0
 40
1.0
 40
1.0
 40
1.0
 40
1.0
 10
42.95374312499985
 20
21.17568312499998
 30
0.0
 10
42.95374312499985
 20
21.86571687499986
 30
0.0
 10
43.51289562500006
 20
22.42557562499996
 30
0.0
 10
44.20363437499987
 20
22.42557562499996
 30
0.0
  0
SPLINE
  5
47
330
81
100
AcDbEntity
  8
Cuts
 62
     1
420
 16711680
370
    25
100
AcDbSpline
210
0.0
220
0.0
230
1.0
 70
     8
 71
     3
 72
     8
 73
     4
 74
     0
 42
0.000000001
 43
0.001
 12
1.0
 22
0.0
 32
0.0
 13
1.0
 23
0.0
 33
0.0
 40
0.0
 40
0.0
 40
0.0
 40
0.0
 40
1.0
 40
1.0
 40
1.0
 40
1.0
 10
44.20363437499987
 20
22.42557562499996
 30
0.0
 10
44.89331437500005
 20
22.42557562499996
 30
0.0
 10
45.45317312499992
 20
21.86571687499986
 30
0.0
 10
45.45317312499992
 20
21.17568312499998
 30
0.0
  0
SPLINE
  5
48
330
81
100
AcDbEntity
  8
Cuts
 62
     1
420
 16711680
370
    25
100
AcDbSpline
210
0.0
220
0.0
230
1.0
 70
     8
 71
     3
 72
     8
 73
     4
 74
     0
 42
0.000000001
 43
0.001
 12
1.0
 22
0.0
 32
0.0
 13
1.0
 23
0.0
 33
0.0
 40
0.0
 40
0.0
 40
0.0
 40
0.0
 40
1.0
 40
1.0
 40
1.0
 40
1.0
 10
45.45317312499992
 20
21.17568312499998
 30
0.0
 10
45.45317312499992
 20
20.48529812499987
 30
0.0
 10
44.89331437500005
 20
19.925439375
 30
0.0
 10
44.20363437499987
 20
19.925439375
 30
0.0
  0
SPLINE
  5
49
330
81
100
AcDbEntity
  8
Cuts
 62
     1
420
 16711680
370
    25
100
AcDbSpline
210
0.0
220
0.0
230
1.0
 70
     8
 71
     3
 72
     8
 73
     4
 74
     0
 42
0.000000001
 43
0.001
 12
1.0
 22
0.0
 32
0.0
 13
1.0
 23
0.0
 33
0.0
 40
0.0
 40
0.0
 40
0.0
 40
0.0
 40
1.0
 40
1.0
 40
1.0
 40
1.0
 10
44.20363437499987
 20
19.925439375
 30
0.0
 10
43.51289562500006
 20
19.925439375
 30
0.0
 10
42.95374312499985
 20
20.48529812499987
 30
0.0
 10
42.95374312499985
 20
21.17568312499998
 30
0.0
  0
LWPOLYLINE
  5
4A
330
81
100
AcDbEntity
  8
Cuts
 62
     1
420
 16711680
370
    25
100
AcDbPolyline
 90
        3
 70
     0
 43
0.0
 10
42.80345937499987
 20
16.17576437499997
 10
42.80345937499987
 20
16.12602312499985
 10
41.92010437499994
 20
16.12602312499985
  0
SPLINE
  5
4B
330
81
100
AcDbEntity
  8
Cuts
 62
     1
420
 16711680
370
    25
100
AcDbSpline
210
0.0
220
0.0
230
1.0
 70
     8
 71
     3
 72
     8
 73
     4
 74
     0
 42
0.000000001
 43
0.001
 12
1.0
 22
0.0
 32
0.0
 13
1.0
 23
0.0
 33
0.0
 40
0.0
 40
0.0
 40
0.0
 40
0.0
 40
1.0
 40
1.0
 40
1.0
 40
1.0
 10
37.50332562499989
 20
16.17541187500001
 30
0.0
 10
37.50332562499989
 20
16.94764187500004
 30
0.0
 10
36.87573437499987
 20
17.575586875
 30
0.0
 10
36.10350437500006
 20
17.575586875
 30
0.0
  0
SPLINE
  5
4C
330
81
100
AcDbEntity
  8
Cuts
 62
     1
420
 16711680
370
    25
100
AcDbSpline
210
0.0
220
0.0
230
1.0
 70
     8
 71
     3
 72
     8
 73
     4
 74
     0
 42
0.000000001
 43
0.001
 12
1.0
 22
0.0
 32
0.0
 13
1.0
 23
0.0
 33
0.0
 40
0.0
 40
0.0
 40
0.0
 40
0.0
 40
1.0
 40
1.0
 40
1.0
 40
1.0
 10
36.10350437500006
 20
17.575586875
 30
0.0
 10
35.33197937499995
 20
17.575586875
 30
0.0
 10
34.70227062499998
 20
16.94799437500001
 30
0.0
 10
34.70227062499998
 20
16.17541187500001
 30
0.0
  0
LWPOLYLINE
  5
4D
330
81
100
AcDbEntity
  8
Cuts
 62
     1
420
 16711680
370
    25
100
AcDbPolyline
 90
        3
 70
     0
 43
0.0
 10
38.38632937500006
 20
16.12566937499992
 10
37.50332562499989
 20
16.12566937499992
 10
37.50332562499989
 20
16.17541187500001
  0
SPLINE
  5
4E
330
81
100
AcDbEntity
  8
Cuts
 62
     1
420
 16711680
370
    25
100
AcDbSpline
210
0.0
220
0.0
230
1.0
 70
     8
 71
     3
 72
     8
 73
     4
 74
     0
 42
0.000000001
 43
0.001
 12
1.0
 22
0.0
 32
0.0
 13
1.0
 23
0.0
 33
0.0
 40
0.0
 40
0.0
 40
0.0
 40
0.0
 40
1.0
 40
1.0
 40
1.0
 40
1.0
 10
33.81962062499997
 20
16.12566937499992
 30
0.0
 10
32.84595437500002
 20
16.12566937499992
 30
0.0
 10
32.05361437500005
 20
16.91871437500004
 30
0.0
 10
32.05361437500005
 20
17.89273312499995
 30
0.0
  0
LWPOLYLINE
  5
4F
330
81
100
AcDbEntity
  8
Cuts
 62
     1
420
 16711680
370
    25
100
AcDbPolyline
 90
        3
 70
     0
 43
0.0
 10
34.70227062499998
 20
16.17541187500001
 10
34.70227062499998
 20
16.12566937499992
 10
33.81962062499997
 20
16.12566937499992
  0
SPLINE
  5
50
330
81
100
AcDbEntity
  8
Cuts
 62
     1
420
 16711680
370
    25
100
AcDbSpline
210
0.0
220
0.0
230
1.0
 70
     8
 71
     3
 72
     8
 73
     4
 74
     0
 42
0.000000001
 43
0.001
 12
1.0
 22
0.0
 32
0.0
 13
1.0
 23
0.0
 33
0.0
 40
0.0
 40
0.0
 40
0.0
 40
0.0
 40
1.0
 40
1.0
 40
1.0
 40
1.0
 10
32.05361437500005
 20
24.45828062500004
 30
0.0
 10
32.05361437500005
 20
25.43265312499989
 30
0.0
 10
32.84595437500002
 20
26.22499187499989
 30
0.0
 10
33.81962062499997
 20
26.22499187499989
 30
0.0
  0
LWPOLYLINE
  5
51
330
81
100
AcDbEntity
  8
Cuts
 62
     1
420
 16711680
370
    25
100
AcDbPolyline
 90
        2
 70
     0
 43
0.0
 10
32.05361437500005
 20
17.89273312499995
 10
32.05361437500005
 20
24.45828062500004
  0
SPLINE
  5
52
330
81
100
AcDbEntity
  8
Cuts
 62
     1
420
 16711680
370
    25
100
AcDbSpline
210
0.0
220
0.0
230
1.0
 70
     8
 71
     3
 72
     8
 73
     4
 74
     0
 42
0.000000001
 43
0.001
 12
1.0
 22
0.0
 32
0.0
 13
1.0
 23
0.0
 33
0.0
 40
0.0
 40
0.0
 40
0.0
 40
0.0
 40
1.0
 40
1.0
 40
1.0
 40
1.0
 10
34.70227062499998
 20
26.17525062499999
 30
0.0
 10
34.70227062499998
 20
25.40337312499992
 30
0.0
 10
35.33197937499995
 20
24.77542812499996
 30
0.0
 10
36.10350437500006
 20
24.77542812499996
 30
0.0
  0
SPLINE
  5
53
330
81
100
AcDbEntity
  8
Cuts
 62
     1
420
 16711680
370
    25
100
AcDbSpline
210
0.0
220
0.0
230
1.0
 70
     8
 71
     3
 72
     8
 73
     4
 74
     0
 42
0.000000001
 43
0.001
 12
1.0
 22
0.0
 32
0.0
 13
1.0
 23
0.0
 33
0.0
 40
0.0
 40
0.0
 40
0.0
 40
0.0
 40
1.0
 40
1.0
 40
1.0
 40
1.0
 10
36.10350437500006
 20
24.77542812499996
 30
0.0
 10
36.8753818749999
 20
24.77542812499996
 30
0.0
 10
37.50332562499989
 20
25.40337312499992
 30
0.0
 10
37.50332562499989
 20
26.17525062499999
 30
0.0
  0
LWPOLYLINE
  5
54
330
81
100
AcDbEntity
  8
Cuts
 62
     1
420
 16711680
370
    25
100
AcDbPolyline
 90
        3
 70
     0
 43
0.0
 10
33.81962062499997
 20
26.22499187499989
 10
34.70227062499998
 20
26.22499187499989
 10
34.70227062499998
 20
26.17525062499999
  0
SPLINE
  5
55
330
81
100
AcDbEntity
  8
Cuts
 62
     1
420
 16711680
370
    25
100
AcDbSpline
210
0.0
220
0.0
230
1.0
 70
     8
 71
     3
 72
     8
 73
     4
 74
     0
 42
0.000000001
 43
0.001
 12
1.0
 22
0.0
 32
0.0
 13
1.0
 23
0.0
 33
0.0
 40
0.0
 40
0.0
 40
0.0
 40
0.0
 40
1.0
 40
1.0
 40
1.0
 40
1.0
 10
38.38632937500006
 20
26.22499187499989
 30
0.0
 10
39.36105437499987
 20
26.22499187499989
 30
0.0
 10
40.15409812500002
 20
25.43265312499989
 30
0.0
 10
40.15409812500002
 20
24.45828062500004
 30
0.0
  0
LWPOLYLINE
  5
56
330
81
100
AcDbEntity
  8
Cuts
 62
     1
420
 16711680
370
    25
100
AcDbPolyline
 90
        3
 70
     0
 43
0.0
 10
37.50332562499989
 20
26.17525062499999
 10
37.50332562499989
 20
26.22499187499989
 10
38.38632937500006
 20
26.22499187499989
  0
SPLINE
  5
57
330
81
100
AcDbEntity
  8
Cuts
 62
     1
420
 16711680
370
    25
100
AcDbSpline
210
0.0
220
0.0
230
1.0
 70
     8
 71
     3
 72
     8
 73
     4
 74
     0
 42
0.000000001
 43
0.001
 12
1.0
 22
0.0
 32
0.0
 13
1.0
 23
0.0
 33
0.0
 40
0.0
 40
0.0
 40
0.0
 40
0.0
 40
1.0
 40
1.0
 40
1.0
 40
1.0
 10
40.15409812500002
 20
17.89273312499995
 30
0.0
 10
40.15409812500002
 20
16.91871437500004
 30
0.0
 10
39.36105437499987
 20
16.12566937499992
 30
0.0
 10
38.38632937500006
 20
16.12566937499992
 30
0.0
  0
LWPOLYLINE
  5
58
330
81
100
AcDbEntity
  8
Cuts
 62
     1
420
 16711680
370
    25
100
AcDbPolyline
 90
        2
 70
     0
 43
0.0
 10
40.15409812500002
 20
24.45828062500004
 10
40.15409812500002
 20
17.89273312499995
  0
SPLINE
  5
59
330
81
100
AcDbEntity
  8
Cuts
 62
     1
420
 16711680
370
    25
100
AcDbSpline
210
0.0
220
0.0
230
1.0
 70
     8
 71
     3
 72
     8
 73
     4
 74
     0
 42
0.000000001
 43
0.001
 12
1.0
 22
0.0
 32
0.0
 13
1.0
 23
0.0
 33
0.0
 40
0.0
 40
0.0
 40
0.0
 40
0.0
 40
1.0
 40
1.0
 40
1.0
 40
1.0
 10
34.85361187499984
 20
21.17568312499998
 30
0.0
 10
34.85361187499984
 20
21.86571687499986
 30
0.0
 10
35.41276437500005
 20
22.42557562499996
 30
0.0
 10
36.10350437500006
 20
22.42557562499996
 30
0.0
  0
SPLINE
  5
5A
330
81
100
AcDbEntity
  8
Cuts
 62
     1
420
 16711680
370
    25
100
AcDbSpline
210
0.0
220
0.0
230
1.0
 70
     8
 71
     3
 72
     8
 73
     4
 74
     0
 42
0.000000001
 43
0.001
 12
1.0
 22
0.0
 32
0.0
 13
1.0
 23
0.0
 33
0.0
 40
0.0
 40
0.0
 40
0.0
 40
0.0
 40
1.0
 40
1.0
 40
1.0
 40
1.0
 10
36.10350437500006
 20
22.42557562499996
 30
0.0
 10
36.79318437500001
 20
22.42557562499996
 30
0.0
 10
37.35304312499989
 20
21.86571687499986
 30
0.0
 10
37.35304312499989
 20
21.17568312499998
 30
0.0
  0
SPLINE
  5
5B
330
81
100
AcDbEntity
  8
Cuts
 62
     1
420
 16711680
370
    25
100
AcDbSpline
210
0.0
220
0.0
230
1.0
 70
     8
 71
     3
 72
     8
 73
     4
 74
     0
 42
0.000000001
 43
0.001
 12
1.0
 22
0.0
 32
0.0
 13
1.0
 23
0.0
 33
0.0
 40
0.0
 40
0.0
 40
0.0
 40
0.0
 40
1.0
 40
1.0
 40
1.0
 40
1.0
 10
37.35304312499989
 20
21.17568312499998
 30
0.0
 10
37.35304312499989
 20
20.48529812499987
 30
0.0
 10
36.79318437500001
 20
19.925439375
 30
0.0
 10
36.10350437500006
 20
19.925439375
 30
0.0
  0
SPLINE
  5
5C
330
81
100
AcDbEntity
  8
Cuts
 62
     1
420
 16711680
370
    25
100
AcDbSpline
210
0.0
220
0.0
230
1.0
 70
     8
 71
     3
 72
     8
 73
     4
 74
     0
 42
0.000000001
 43
0.001
 12
1.0
 22
0.0
 32
0.0
 13
1.0
 23
0.0
 33
0.0
 40
0.0
 40
0.0
 40
0.0
 40
0.0
 40
1.0
 40
1.0
 40
1.0
 40
1.0
 10
36.10350437500006
 20
19.925439375
 30
0.0
 10
35.41276437500005
 20
19.925439375
 30
0.0
 10
34.85361187499984
 20
20.48529812499987
 30
0.0
 10
34.85361187499984
 20
21.17568312499998
 30
0.0
  0
SPLINE
  5
5D
330
81
100
AcDbEntity
  8
Cuts
 62
     1
420
 16711680
370
    25
100
AcDbSpline
210
0.0
220
0.0
230
1.0
 70
     8
 71
     3
 72
     8
 73
     4
 74
     0
 42
0.000000001
 43
0.001
 12
1.0
 22
0.0
 32
0.0
 13
1.0
 23
0.0
 33
0.0
 40
0.0
 40
0.0
 40
0.0
 40
0.0
 40
1.0
 40
1.0
 40
1.0
 40
1.0
 10
-7.611306875000082
 20
18.60569812499989
 30
0.0
 10
-8.35108187500009
 20
18.60569812499989
 30
0.0
 10
-9.037588124999957
 20
18.94118937500002
 30
0.0
 10
-9.49619937500006
 20
19.52574187499999
 30
0.0
  0
SPLINE
  5
5E
330
81
100
AcDbEntity
  8
Cuts
 62
     1
420
 16711680
370
    25
100
AcDbSpline
210
0.0
220
0.0
230
1.0
 70
     8
 71
     3
 72
     8
 73
     4
 74
     0
 42
0.000000001
 43
0.001
 12
1.0
 22
0.0
 32
0.0
 13
1.0
 23
0.0
 33
0.0
 40
0.0
 40
0.0
 40
0.0
 40
0.0
 40
1.0
 40
1.0
 40
1.0
 40
1.0
 10
-9.504665625000143
 20
22.44568312499996
 30
0.0
 10
-9.037588124999957
 20
23.0574006249999
 30
0.0
 10
-8.350729375000128
 20
23.39289187500003
 30
0.0
 10
-7.611306875000082
 20
23.39289187500003
 30
0.0
  0
SPLINE
  5
5F
330
81
100
AcDbEntity
  8
Cuts
 62
     1
420
 16711680
370
    25
100
AcDbSpline
210
0.0
220
0.0
230
1.0
 70
     8
 71
     3
 72
     8
 73
     4
 74
     0
 42
0.000000001
 43
0.001
 12
1.0
 22
0.0
 32
0.0
 13
1.0
 23
0.0
 33
0.0
 40
0.0
 40
0.0
 40
0.0
 40
0.0
 40
1.0
 40
1.0
 40
1.0
 40
1.0
 10
-7.611306875000082
 20
23.39289187500003
 30
0.0
 10
-6.292270625000128
 20
23.39289187500003
 30
0.0
 10
-5.217710625000109
 20
22.31903687499994
 30
0.0
 10
-5.217710625000109
 20
20.99929437499986
 30
0.0
  0
SPLINE
  5
60
330
81
100
AcDbEntity
  8
Cuts
 62
     1
420
 16711680
370
    25
100
AcDbSpline
210
0.0
220
0.0
230
1.0
 70
     8
 71
     3
 72
     8
 73
     4
 74
     0
 42
0.000000001
 43
0.001
 12
1.0
 22
0.0
 32
0.0
 13
1.0
 23
0.0
 33
0.0
 40
0.0
 40
0.0
 40
0.0
 40
0.0
 40
1.0
 40
1.0
 40
1.0
 40
1.0
 10
-5.217710625000109
 20
20.99929437499986
 30
0.0
 10
-5.217710625000109
 20
19.67955312499998
 30
0.0
 10
-6.291918124999938
 20
18.60569812499989
 30
0.0
 10
-7.611306875000082
 20
18.60569812499989
 30
0.0
  0
LWPOLYLINE
  5
61
330
81
100
AcDbEntity
  8
Cuts
 62
     1
420
 16711680
370
    25
100
AcDbPolyline
 90
        2
 70
     0
 43
0.0
 10
-9.49619937500006
 20
19.52574187499999
 10
-9.504665625000143
 20
22.44568312499996
  0
LWPOLYLINE
  5
62
330
81
100
AcDbEntity
  8
Cuts
 62
     1
420
 16711680
370
    25
100
AcDbPolyline
 90
       66
 70
     0
 43
0.0
 10
-9.203040625000085
 20
14.15575812499992
 10
-10.12379062500008
 20
14.43798062499991
 10
-10.3841406250001
 20
16.18846437499997
 10
-10.28501062500004
 20
16.55182562499999
 10
-9.834160625000095
 20
17.37026937499991
 10
-10.75067687499995
 20
18.1262731249999
 10
-11.43400687500002
 20
17.55230312499998
 10
-11.80971562500008
 20
17.36956437499998
 10
-13.57607437499996
 20
17.28666187499994
 10
-14.02762937500006
 20
18.13756187499985
 10
-12.94107437499997
 20
19.57760062500006
 10
-12.64544562500009
 20
19.74658062499998
 10
-11.74903812499997
 20
20.00622562499984
 10
-11.86263187500003
 20
21.18944187500006
 10
-12.75127937499997
 20
21.26634812499992
 10
-13.14568562499994
 20
21.40357812499997
 10
-14.45343187499998
 20
22.59243937499991
 10
-14.17156312500015
 20
23.51389437499984
 10
-12.42072687500013
 20
23.77389187499989
 10
-12.05701312500014
 20
23.67511437500002
 10
-11.23892062499999
 20
23.22426437499985
 10
-10.48327062500016
 20
24.14148687500006
 10
-11.05653562500015
 20
24.82375812500004
 10
-11.23892062499999
 20
25.20052562499995
 10
-11.32252937500016
 20
26.96547312500002
 10
-10.4709243750001
 20
27.41738062499985
 10
-9.03088562500011
 20
26.33153062499991
 10
-8.862610625000116
 20
26.03731437500005
 10
-8.602260625000099
 20
25.14020062500003
 10
-7.419395625000107
 20
25.25273687499998
 10
-7.342843124999945
 20
26.14103062499998
 10
-7.205260624999937
 20
26.53649437499985
 10
-6.016045625000061
 20
27.84424187499985
 10
-5.095295625000063
 20
27.5616668749999
 10
-4.835299374999977
 20
25.81118312499984
 10
-4.934076875000073
 20
25.44746937499986
 10
-5.384220625000125
 20
24.6293781249999
 10
-4.467351875000077
 20
23.87337562499988
 10
-3.785079375000123
 20
24.44734437500006
 10
-3.409018125000102
 20
24.6293781249999
 10
-1.643013125000152
 20
24.71263312499991
 10
-1.191456875000085
 20
23.86138062500004
 10
-2.278013125000143
 20
22.42169437500002
 10
-2.572229375000006
 20
22.25271437499987
 10
-3.469343125000023
 20
21.993069375
 10
-3.356454375000112
 20
20.80985312500002
 10
-2.467806874999951
 20
20.73294812499989
 10
-2.072695625000051
 20
20.59571687499988
 10
-0.76565437499994
 20
19.40615062500001
 10
-1.047524374999966
 20
18.48504812500005
 10
-2.798360624999987
 20
18.22540312499996
 10
-3.161368125000081
 20
18.32418062500005
 10
-3.979460625000002
 20
18.77467812500004
 10
-4.735815624999987
 20
17.85851437499991
 10
-4.162551874999963
 20
17.17624187499996
 10
-3.980165625000154
 20
16.79912312500005
 10
-3.896556874999987
 20
15.03382312500003
 10
-4.747456875000125
 20
14.58226687499996
 10
-6.188201875000004
 20
15.66776437499993
 10
-6.356829374999961
 20
15.96268687499992
 10
-6.616120625000121
 20
16.8601531249999
 10
-7.799338125000077
 20
16.74726437499999
 10
-7.875890625000011
 20
15.85861687500005
 10
-8.01382687499995
 20
15.46315312499996
 10
-9.203040625000085
 20
14.15575812499992
 10
-9.203040625000085
 20
14.15575812499992
  0
ENDSEC
  0
SECTION
  2
OBJECTS
  0
DICTIONARY
  5
6F
330
0
100
AcDbDictionary
281
     1
  3
ACAD_GROUP
350
70
  3
ACAD_LAYOUT
350
7C
  3
ACAD_MATERIAL
350
9D
  3
ACAD_MLEADERSTYLE
350
BA
  3
ACAD_MLINESTYLE
350
79
  3
ACAD_PLOTSETTINGS
350
7B
  3
ACAD_PLOTSTYLENAME
350
71
  3
ACAD_TABLESTYLE
350
B9
  3
ACAD_VISUALSTYLE
350
8C
  3
QCAD_OBJECTS
350
A2
  0
DICTIONARY
  5
70
102
{ACAD_REACTORS
330
6F
102
}
330
6F
100
AcDbDictionary
281
     1
  0
DICTIONARY
  5
7C
102
{ACAD_REACTORS
330
6F
102
}
330
6F
100
AcDbDictionary
281
     1
  3
Layout1
350
80
  3
Layout2
350
88
  3
Model
350
84
  0
DICTIONARY
  5
9D
102
{ACAD_REACTORS
330
6F
102
}
330
6F
100
AcDbDictionary
281
     1
  3
ByBlock
350
9F
  3
ByLayer
350
9E
  3
Global
350
A0
  0
DICTIONARY
  5
BA
102
{ACAD_REACTORS
330
6F
102
}
330
6F
100
AcDbDictionary
281
     1
  0
DICTIONARY
  5
79
102
{ACAD_REACTORS
330
6F
102
}
330
6F
100
AcDbDictionary
281
     1
  3
Standard
350
7A
  0
DICTIONARY
  5
7B
102
{ACAD_REACTORS
330
6F
102
}
330
6F
100
AcDbDictionary
281
     1
  0
ACDBDICTIONARYWDFLT
  5
71
102
{ACAD_REACTORS
330
6F
102
}
330
6F
100
AcDbDictionary
281
     1
  3
Normal
350
72
100
AcDbDictionaryWithDefault
340
72
  0
DICTIONARY
  5
B9
102
{ACAD_REACTORS
330
6F
102
}
330
6F
100
AcDbDictionary
281
     1
  0
DICTIONARY
  5
8C
102
{ACAD_REACTORS
330
6F
102
}
330
6F
100
AcDbDictionary
281
     1
  3
2dWireframe
350
91
  3
3D Hidden
350
93
  3
3dWireframe
350
92
  3
Basic
350
94
  3
Brighten
350
98
  3
ColorChange
350
9C
  3
Conceptual
350
96
  3
Dim
350
97
  3
Facepattern
350
9B
  3
Flat
350
8D
  3
FlatWithEdges
350
8E
  3
Gouraud
350
8F
  3
GouraudWithEdges
350
90
  3
Linepattern
350
9A
  3
Realistic
350
95
  3
Thicken
350
99
  0
DICTIONARY
  5
A2
102
{ACAD_REACTORS
330
6F
102
}
330
6F
100
AcDbDictionary
281
     1
  3
Grid/DisplayGrid
350
A3
  3
PageSettings/Scale
350
A4
  0
LAYOUT
  5
80
102
{ACAD_REACTORS
330
7C
102
}
330
7C
100
AcDbPlotSettings
  1

  2
none_device
  4

  6

 40
0.0
 41
0.0
 42
0.0
 43
0.0
 44
0.0
 45
0.0
 46
0.0
 47
0.0
 48
0.0
 49
0.0
140
0.0
141
0.0
142
1.0
143
1.0
 70
   688
 72
     0
 73
     0
 74
     5
  7

 75
    16
 76
     0
 77
     2
 78
   300
147
1.0
148
0.0
149
0.0
100
AcDbLayout
  1
Layout1
 70
     1
 71
     1
 10
0.0
 20
0.0
 11
12.0
 21
9.0
 12
0.0
 22
0.0
 32
0.0
 14
1.000000000000000E+20
 24
1.000000000000000E+20
 34
1.000000000000000E+20
 15
-1.000000000000000E+20
 25
-1.000000000000000E+20
 35
-1.000000000000000E+20
146
0.0
 13
0.0
 23
0.0
 33
0.0
 16
1.0
 26
0.0
 36
0.0
 17
0.0
 27
1.0
 37
0.0
 76
     0
330
7D
  0
LAYOUT
  5
88
102
{ACAD_REACTORS
330
7C
102
}
330
7C
100
AcDbPlotSettings
  1

  2
none_device
  4

  6

 40
0.0
 41
0.0
 42
0.0
 43
0.0
 44
0.0
 45
0.0
 46
0.0
 47
0.0
 48
0.0
 49
0.0
140
0.0
141
0.0
142
1.0
143
1.0
 70
   688
 72
     0
 73
     0
 74
     5
  7

 75
    16
 76
     0
 77
     2
 78
   300
147
1.0
148
0.0
149
0.0
100
AcDbLayout
  1
Layout2
 70
     1
 71
     2
 10
0.0
 20
0.0
 11
0.0
 21
0.0
 12
0.0
 22
0.0
 32
0.0
 14
0.0
 24
0.0
 34
0.0
 15
0.0
 25
0.0
 35
0.0
146
0.0
 13
0.0
 23
0.0
 33
0.0
 16
1.0
 26
0.0
 36
0.0
 17
0.0
 27
1.0
 37
0.0
 76
     0
330
85
  0
LAYOUT
  5
84
102
{ACAD_REACTORS
330
7C
102
}
330
7C
100
AcDbPlotSettings
  1

  2
none_device
  4

  6

 40
0.0
 41
0.0
 42
0.0
 43
0.0
 44
0.0
 45
0.0
 46
0.0
 47
0.0
 48
0.0
 49
0.0
140
0.0
141
0.0
142
1.0
143
1.0
 70
  1712
 72
     0
 73
     0
 74
     0
  7

 75
     0
 76
     0
 77
     2
 78
   300
147
1.0
148
0.0
149
0.0
100
AcDbLayout
  1
Model
 70
     1
 71
     0
 10
0.0
 20
0.0
 11
12.0
 21
9.0
 12
0.0
 22
0.0
 32
0.0
 14
1.000000000000000E+20
 24
1.000000000000000E+20
 34
1.000000000000000E+20
 15
-1.000000000000000E+20
 25
-1.000000000000000E+20
 35
-1.000000000000000E+20
146
0.0
 13
0.0
 23
0.0
 33
0.0
 16
1.0
 26
0.0
 36
0.0
 17
0.0
 27
1.0
 37
0.0
 76
     0
330
81
331
8B
  0
MATERIAL
  5
9F
102
{ACAD_REACTORS
330
9D
102
}
330
9D
100
AcDbMaterial
  1
ByBlock
 72
     1
 94
      127
  0
MATERIAL
  5
9E
102
{ACAD_REACTORS
330
9D
102
}
330
9D
100
AcDbMaterial
  1
ByLayer
 72
     1
 94
      127
  0
MATERIAL
  5
A0
102
{ACAD_REACTORS
330
9D
102
}
330
9D
100
AcDbMaterial
  1
Global
 72
     1
 94
      127
  0
MLINESTYLE
  5
7A
102
{ACAD_REACTORS
330
79
102
}
330
79
100
AcDbMlineStyle
  2
Standard
 70
     0
  3

 62
   256
 51
90.0
 52
90.0
 71
     2
 49
0.5
 62
   256
  6
BYLAYER
 49
-0.5
 62
   256
  6
BYLAYER
  0
ACDBPLACEHOLDER
  5
72
102
{ACAD_REACTORS
330
71
102
}
330
71
  0
VISUALSTYLE
  5
91
102
{ACAD_REACTORS
330
8C
102
}
330
8C
100
AcDbVisualStyle
  2
2dWireframe
 70
     4
177
     2
291
     0
 71
     0
176
     1
 72
     2
176
     1
 73
     0
176
     1
 90
        0
176
     1
 40
-0.6
176
     1
 41
-30.0
176
     1
 62
     5
 63
     7
421
 16777215
176
     1
 74
     1
176
     1
 91
        4
176
     1
 64
     7
176
     1
 65
   257
176
     1
 75
     1
176
     1
175
     1
176
     1
 42
1.0
176
     1
 92
        0
176
     1
 66
   257
176
     1
 43
1.0
176
     1
 76
     1
176
     1
 77
     6
176
     1
 78
     2
176
     1
 67
     7
176
     1
 79
     5
176
     1
170
     0
176
     1
171
     0
176
     1
290
     0
176
     1
 93
        1
176
     1
 44
0.0
176
     1
173
     0
176
     1
  0
VISUALSTYLE
  5
93
102
{ACAD_REACTORS
330
8C
102
}
330
8C
100
AcDbVisualStyle
  2
3D Hidden
 70
     6
177
     2
291
     0
 71
     1
176
     1
 72
     2
176
     1
 73
     2
176
     1
 90
        0
176
     1
 40
-0.6
176
     1
 41
-30.0
176
     1
 62
     5
 63
     7
421
 16777215
176
     1
 74
     2
176
     1
 91
        2
176
     1
 64
     7
176
     1
 65
   257
176
     1
 75
     2
176
     1
175
     1
176
     1
 42
40.0
176
     1
 92
        0
176
     1
 66
   257
176
     1
 43
1.0
176
     1
 76
     1
176
     1
 77
     6
176
     1
 78
     2
176
     1
 67
     7
176
     1
 79
     3
176
     1
170
     0
176
     1
171
     0
176
     1
290
     0
176
     1
 93
        1
176
     1
 44
0.0
176
     1
173
     0
176
     1
  0
VISUALSTYLE
  5
92
102
{ACAD_REACTORS
330
8C
102
}
330
8C
100
AcDbVisualStyle
  2
3dWireframe
 70
     5
177
     2
291
     0
 71
     0
176
     1
 72
     2
176
     1
 73
     0
176
     1
 90
        0
176
     1
 40
-0.6
176
     1
 41
-30.0
176
     1
 62
     5
 63
     7
421
 16777215
176
     1
 74
     1
176
     1
 91
        4
176
     1
 64
     7
176
     1
 65
   257
176
     1
 75
     1
176
     1
175
     1
176
     1
 42
1.0
176
     1
 92
        0
176
     1
 66
   257
176
     1
 43
1.0
176
     1
 76
     1
176
     1
 77
     6
176
     1
 78
     2
176
     1
 67
     7
176
     1
 79
     5
176
     1
170
     0
176
     1
171
     0
176
     1
290
     0
176
     1
 93
        1
176
     1
 44
0.0
176
     1
173
     0
176
     1
  0
VISUALSTYLE
  5
94
102
{ACAD_REACTORS
330
8C
102
}
330
8C
100
AcDbVisualStyle
  2
Basic
 70
     7
177
     2
291
     1
 71
     1
176
     1
 72
     0
176
     1
 73
     1
176
     1
 90
        0
176
     1
 40
-0.6
176
     1
 41
-30.0
176
     1
 62
     5
 63
     7
421
 16777215
176
     1
 74
     0
176
     1
 91
        4
176
     1
 64
     7
176
     1
 65
   257
176
     1
 75
     1
176
     1
175
     1
176
     1
 42
1.0
176
     1
 92
        8
176
     1
 66
     7
176
     1
 43
1.0
176
     1
 76
     1
176
     1
 77
     6
176
     1
 78
     2
176
     1
 67
     7
176
     1
 79
     5
176
     1
170
     0
176
     1
171
     0
176
     1
290
     0
176
     1
 93
        1
176
     1
 44
0.0
176
     1
173
     0
176
     1
  0
VISUALSTYLE
  5
98
102
{ACAD_REACTORS
330
8C
102
}
330
8C
100
AcDbVisualStyle
  2
Brighten
 70
    12
177
     2
291
     1
 71
     2
176
     1
 72
     2
176
     1
 73
     0
176
     1
 90
        0
176
     1
 40
-0.6
176
     1
 41
-30.0
176
     1
 62
     5
 63
     7
421
 16777215
176
     1
 74
     1
176
     1
 91
        4
176
     1
 64
     7
176
     1
 65
   257
176
     1
 75
     1
176
     1
175
     1
176
     1
 42
1.0
176
     1
 92
        8
176
     1
 66
     7
176
     1
 43
1.0
176
     1
 76
     1
176
     1
 77
     6
176
     1
 78
     2
176
     1
 67
     7
176
     1
 79
     5
176
     1
170
     0
176
     1
171
     0
176
     1
290
     0
176
     1
 93
        1
176
     1
 44
50.0
176
     1
173
     0
176
     1
  0
VISUALSTYLE
  5
9C
102
{ACAD_REACTORS
330
8C
102
}
330
8C
100
AcDbVisualStyle
  2
ColorChange
 70
    16
177
     2
291
     1
 71
     2
176
     1
 72
     2
176
     1
 73
     3
176
     1
 90
        0
176
     1
 40
-0.6
176
     1
 41
-30.0
176
     1
 62
     5
 63
     8
421
  8421504
176
     1
 74
     1
176
     1
 91
        4
176
     1
 64
     7
176
     1
 65
   257
176
     1
 75
     1
176
     1
175
     1
176
     1
 42
1.0
176
     1
 92
        8
176
     1
 66
     8
424
  8421504
176
     1
 43
1.0
176
     1
 76
     1
176
     1
 77
     6
176
     1
 78
     2
176
     1
 67
     7
176
     1
 79
     5
176
     1
170
     0
176
     1
171
     0
176
     1
290
     0
176
     1
 93
        1
176
     1
 44
0.0
176
     1
173
     0
176
     1
  0
VISUALSTYLE
  5
96
102
{ACAD_REACTORS
330
8C
102
}
330
8C
100
AcDbVisualStyle
  2
Conceptual
 70
     9
177
     2
291
     0
 71
     3
176
     1
 72
     2
176
     1
 73
     0
176
     1
 90
        0
176
     1
 40
-0.6
176
     1
 41
-30.0
176
     1
 62
     5
 63
     7
421
 16777215
176
     1
 74
     2
176
     1
 91
        2
176
     1
 64
     7
176
     1
 65
   257
176
     1
 75
     1
176
     1
175
     1
176
     1
 42
40.0
176
     1
 92
        8
176
     1
 66
     7
176
     1
 43
1.0
176
     1
 76
     1
176
     1
 77
     6
176
     1
 78
     2
176
     1
 67
     7
176
     1
 79
     3
176
     1
170
     0
176
     1
171
     0
176
     1
290
     0
176
     1
 93
        1
176
     1
 44
0.0
176
     1
173
     0
176
     1
  0
VISUALSTYLE
  5
97
102
{ACAD_REACTORS
330
8C
102
}
330
8C
100
AcDbVisualStyle
  2
Dim
 70
    11
177
     2
291
     1
 71
     2
176
     1
 72
     2
176
     1
 73
     0
176
     1
 90
        0
176
     1
 40
-0.6
176
     1
 41
-30.0
176
     1
 62
     5
 63
     7
421
 16777215
176
     1
 74
     1
176
     1
 91
        4
176
     1
 64
     7
176
     1
 65
   257
176
     1
 75
     1
176
     1
175
     1
176
     1
 42
1.0
176
     1
 92
        8
176
     1
 66
     7
176
     1
 43
1.0
176
     1
 76
     1
176
     1
 77
     6
176
     1
 78
     2
176
     1
 67
     7
176
     1
 79
     5
176
     1
170
     0
176
     1
171
     0
176
     1
290
     0
176
     1
 93
        1
176
     1
 44
-50.0
176
     1
173
     0
176
     1
  0
VISUALSTYLE
  5
9B
102
{ACAD_REACTORS
330
8C
102
}
330
8C
100
AcDbVisualStyle
  2
Facepattern
 70
    15
177
     2
291
     1
 71
     2
176
     1
 72
     2
176
     1
 73
     0
176
     1
 90
        0
176
     1
 40
-0.6
176
     1
 41
-30.0
176
     1
 62
     5
 63
     7
421
 16777215
176
     1
 74
     1
176
     1
 91
        4
176
     1
 64
     7
176
     1
 65
   257
176
     1
 75
     1
176
     1
175
     1
176
     1
 42
1.0
176
     1
 92
        8
176
     1
 66
     7
176
     1
 43
1.0
176
     1
 76
     1
176
     1
 77
     6
176
     1
 78
     2
176
     1
 67
     7
176
     1
 79
     5
176
     1
170
     0
176
     1
171
     0
176
     1
290
     0
176
     1
 93
        1
176
     1
 44
0.0
176
     1
173
     0
176
     1
  0
VISUALSTYLE
  5
8D
102
{ACAD_REACTORS
330
8C
102
}
330
8C
100
AcDbVisualStyle
  2
Flat
 70
     0
177
     2
291
     1
 71
     2
176
     1
 72
     1
176
     1
 73
     1
176
     1
 90
        2
176
     1
 40
-0.6
176
     1
 41
30.0
176
     1
 62
     5
 63
     7
421
 16777215
176
     1
 74
     0
176
     1
 91
        4
176
     1
 64
     7
176
     1
 65
   257
176
     1
 75
     1
176
     1
175
     1
176
     1
 42
1.0
176
     1
 92
        8
176
     1
 66
     7
176
     1
 43
1.0
176
     1
 76
     1
176
     1
 77
     6
176
     1
 78
     2
176
     1
 67
     7
176
     1
 79
     5
176
     1
170
     0
176
     1
171
     0
176
     1
290
     0
176
     1
 93
       13
176
     1
 44
0.0
176
     1
173
     0
176
     1
  0
VISUALSTYLE
  5
8E
102
{ACAD_REACTORS
330
8C
102
}
330
8C
100
AcDbVisualStyle
  2
FlatWithEdges
 70
     1
177
     2
291
     1
 71
     2
176
     1
 72
     1
176
     1
 73
     1
176
     1
 90
        2
176
     1
 40
-0.6
176
     1
 41
30.0
176
     1
 62
     5
 63
     7
421
 16777215
176
     1
 74
     1
176
     1
 91
        4
176
     1
 64
     7
176
     1
 65
   257
176
     1
 75
     1
176
     1
175
     1
176
     1
 42
1.0
176
     1
 92
        0
176
     1
 66
   257
176
     1
 43
1.0
176
     1
 76
     1
176
     1
 77
     6
176
     1
 78
     2
176
     1
 67
     7
176
     1
 79
     5
176
     1
170
     0
176
     1
171
     0
176
     1
290
     0
176
     1
 93
       13
176
     1
 44
0.0
176
     1
173
     0
176
     1
  0
VISUALSTYLE
  5
8F
102
{ACAD_REACTORS
330
8C
102
}
330
8C
100
AcDbVisualStyle
  2
Gouraud
 70
     2
177
     2
291
     1
 71
     2
176
     1
 72
     2
176
     1
 73
     1
176
     1
 90
        2
176
     1
 40
-0.6
176
     1
 41
30.0
176
     1
 62
     5
 63
     7
421
 16777215
176
     1
 74
     0
176
     1
 91
        4
176
     1
 64
     7
176
     1
 65
   257
176
     1
 75
     1
176
     1
175
     1
176
     1
 42
1.0
176
     1
 92
        0
176
     1
 66
     7
176
     1
 43
1.0
176
     1
 76
     1
176
     1
 77
     6
176
     1
 78
     2
176
     1
 67
     7
176
     1
 79
     5
176
     1
170
     0
176
     1
171
     0
176
     1
290
     0
176
     1
 93
       13
176
     1
 44
0.0
176
     1
173
     0
176
     1
  0
VISUALSTYLE
  5
90
102
{ACAD_REACTORS
330
8C
102
}
330
8C
100
AcDbVisualStyle
  2
GouraudWithEdges
 70
     3
177
     2
291
     1
 71
     2
176
     1
 72
     2
176
     1
 73
     1
176
     1
 90
        2
176
     1
 40
-0.6
176
     1
 41
30.0
176
     1
 62
     5
 63
     7
421
 16777215
176
     1
 74
     1
176
     1
 91
        4
176
     1
 64
     7
176
     1
 65
   257
176
     1
 75
     1
176
     1
175
     1
176
     1
 42
1.0
176
     1
 92
        0
176
     1
 66
   257
176
     1
 43
1.0
176
     1
 76
     1
176
     1
 77
     6
176
     1
 78
     2
176
     1
 67
     7
176
     1
 79
     5
176
     1
170
     0
176
     1
171
     0
176
     1
290
     0
176
     1
 93
       13
176
     1
 44
0.0
176
     1
173
     0
176
     1
  0
VISUALSTYLE
  5
9A
102
{ACAD_REACTORS
330
8C
102
}
330
8C
100
AcDbVisualStyle
  2
Linepattern
 70
    14
177
     2
291
     1
 71
     2
176
     1
 72
     2
176
     1
 73
     0
176
     1
 90
        0
176
     1
 40
-0.6
176
     1
 41
-30.0
176
     1
 62
     5
 63
     7
421
 16777215
176
     1
 74
     1
176
     1
 91
        4
176
     1
 64
     7
176
     1
 65
   257
176
     1
 75
     7
176
     1
175
     7
176
     1
 42
1.0
176
     1
 92
        8
176
     1
 66
     7
176
     1
 43
1.0
176
     1
 76
     1
176
     1
 77
     6
176
     1
 78
     2
176
     1
 67
     7
176
     1
 79
     5
176
     1
170
     0
176
     1
171
     0
176
     1
290
     0
176
     1
 93
        1
176
     1
 44
0.0
176
     1
173
     0
176
     1
  0
VISUALSTYLE
  5
95
102
{ACAD_REACTORS
330
8C
102
}
330
8C
100
AcDbVisualStyle
  2
Realistic
 70
     8
177
     2
291
     0
 71
     2
176
     1
 72
     2
176
     1
 73
     0
176
     1
 90
        0
176
     1
 40
-0.6
176
     1
 41
-30.0
176
     1
 62
     5
 63
     7
421
 16777215
176
     1
 74
     1
176
     1
 91
        0
176
     1
 64
     7
176
     1
 65
   257
176
     1
 75
     1
176
     1
175
     1
176
     1
 42
1.0
176
     1
 92
        8
176
     1
 66
     8
424
  7895160
176
     1
 43
1.0
176
     1
 76
     1
176
     1
 77
     6
176
     1
 78
     2
176
     1
 67
     7
176
     1
 79
     5
176
     1
170
     0
176
     1
171
     0
176
     1
290
     0
176
     1
 93
       13
176
     1
 44
0.0
176
     1
173
     0
176
     1
  0
VISUALSTYLE
  5
99
102
{ACAD_REACTORS
330
8C
102
}
330
8C
100
AcDbVisualStyle
  2
Thicken
 70
    13
177
     2
291
     1
 71
     2
176
     1
 72
     2
176
     1
 73
     0
176
     1
 90
        0
176
     1
 40
-0.6
176
     1
 41
-30.0
176
     1
 62
     5
 63
     7
421
 16777215
176
     1
 74
     1
176
     1
 91
        4
176
     1
 64
     7
176
     1
 65
   257
176
     1
 75
     1
176
     1
175
     1
176
     1
 42
1.0
176
     1
 92
       12
176
     1
 66
     7
176
     1
 43
1.0
176
     1
 76
     1
176
     1
 77
     6
176
     1
 78
     2
176
     1
 67
     7
176
     1
 79
     5
176
     1
170
     0
176
     1
171
     0
176
     1
290
     0
176
     1
 93
        1
176
     1
 44
0.0
176
     1
173
     0
176
     1
  0
XRECORD
  5
A3
102
{ACAD_REACTORS
330
A2
102
}
330
A2
100
AcDbXrecord
280
     1
290
     1
  0
XRECORD
  5
A4
102
{ACAD_REACTORS
330
A2
102
}
330
A2
100
AcDbXrecord
280
     1
1000
1:1
  0
ENDSEC
  0
EOF
