  0
SECTION
  2
HEADER
  9
$ACADVER
  1
AC1024
  9
$ACADMAINTVER
 70
     6
  9
$DWGCODEPAGE
  3
ASCII
  9
$INSBASE
 10
0.0
 20
0.0
 30
0.0
  9
$EXTMIN
 10
1.000000000000000E+20
 20
1.000000000000000E+20
 30
1.000000000000000E+20
  9
$EXTMAX
 10
-1.000000000000000E+20
 20
-1.000000000000000E+20
 30
-1.000000000000000E+20
  9
$LIMMIN
 10
0.0
 20
0.0
  9
$LIMMAX
 10
12.0
 20
9.0
  9
$ORTHOMODE
 70
     0
  9
$REGENMODE
 70
     1
  9
$FILLMODE
 70
     1
  9
$QTEXTMODE
 70
     0
  9
$MIRRTEXT
 70
     1
  9
$LTSCALE
 40
1.0
  9
$ATTMODE
 70
     1
  9
$TEXTSIZE
 40
0.2
  9
$TRACEWID
 40
0.05
  9
$TEXTSTYLE
  7
Standard
  9
$CLAYER
  8
0
  9
$CELTYPE
  6
ByLayer
  9
$CECOLOR
 62
   256
  9
$CELTSCALE
 40
1.0
  9
$DISPSILH
 70
     0
  9
$DIMSCALE
 40
1.0
  9
$DIMASZ
 40
2.5
  9
$DIMEXO
 40
0.625
  9
$DIMDLI
 40
0.38
  9
$DIMRND
 40
0.0
  9
$DIMDLE
 40
0.0
  9
$DIMEXE
 40
1.25
  9
$DIMTP
 40
0.0
  9
$DIMTM
 40
0.0
  9
$DIMTXT
 40
2.5
  9
$DIMCEN
 40
0.09
  9
$DIMTSZ
 40
0.0
  9
$DIMTOL
 70
     0
  9
$DIMLIM
 70
     0
  9
$DIMTIH
 70
     1
  9
$DIMTOH
 70
     1
  9
$DIMSE1
 70
     0
  9
$DIMSE2
 70
     0
  9
$DIMTAD
 70
     0
  9
$DIMZIN
 70
     8
  9
$DIMBLK
  1

  9
$DIMASO
 70
     1
  9
$DIMSHO
 70
     1
  9
$DIMPOST
  1

  9
$DIMAPOST
  1

  9
$DIMALT
 70
     0
  9
$DIMALTD
 70
     2
  9
$DIMALTF
 40
25.4
  9
$DIMLFAC
 40
1.0
  9
$DIMTOFL
 70
     0
  9
$DIMTVP
 40
0.0
  9
$DIMTIX
 70
     0
  9
$DIMSOXD
 70
     0
  9
$DIMSAH
 70
     0
  9
$DIMBLK1
  1

  9
$DIMBLK2
  1

  9
$DIMSTYLE
  2
Standard
  9
$DIMCLRD
 70
     0
  9
$DIMCLRE
 70
     0
  9
$DIMCLRT
 70
     0
  9
$DIMTFAC
 40
1.0
  9
$DIMGAP
 40
0.625
  9
$DIMJUST
 70
     0
  9
$DIMSD1
 70
     0
  9
$DIMSD2
 70
     0
  9
$DIMTOLJ
 70
     1
  9
$DIMTZIN
 70
     0
  9
$DIMALTZ
 70
     0
  9
$DIMALTTZ
 70
     0
  9
$DIMUPT
 70
     0
  9
$DIMDEC
 70
     4
  9
$DIMTDEC
 70
     4
  9
$DIMALTU
 70
     2
  9
$DIMALTTD
 70
     2
  9
$DIMTXSTY
  7
Standard
  9
$DIMAUNIT
 70
     0
  9
$DIMADEC
 70
     0
  9
$DIMALTRND
 40
0.0
  9
$DIMAZIN
 70
     2
  9
$DIMDSEP
 70
    46
  9
$DIMATFIT
 70
     3
  9
$DIMFRAC
 70
     0
  9
$DIMLDRBLK
  1

  9
$DIMLUNIT
 70
     2
  9
$DIMLWD
 70
    -2
  9
$DIMLWE
 70
    -2
  9
$DIMTMOVE
 70
     0
  9
$DIMFXL
 40
1.0
  9
$DIMFXLON
 70
     0
  9
$DIMJOGANG
 40
0.7853981633974483
  9
$DIMTFILL
 70
     0
  9
$DIMTFILLCLR
 70
     0
  9
$DIMARCSYM
 70
     0
  9
$DIMLTYPE
  6

  9
$DIMLTEX1
  6

  9
$DIMLTEX2
  6

  9
$DIMTXTDIRECTION
 70
     0
  9
$LUNITS
 70
     2
  9
$LUPREC
 70
     4
  9
$SKETCHINC
 40
0.1
  9
$FILLETRAD
 40
0.5
  9
$AUNITS
 70
     0
  9
$AUPREC
 70
     0
  9
$MENU
  1
.
  9
$ELEVATION
 40
0.0
  9
$PELEVATION
 40
0.0
  9
$THICKNESS
 40
0.0
  9
$LIMCHECK
 70
     0
  9
$CHAMFERA
 40
0.5
  9
$CHAMFERB
 40
0.5
  9
$CHAMFERC
 40
1.0
  9
$CHAMFERD
 40
0.0
  9
$SKPOLY
 70
     0
  9
$TDCREATE
 40
2455861.685340741
  9
$TDUCREATE
 40
2455861.852007407
  9
$TDUPDATE
 40
2455861.685340741
  9
$TDUUPDATE
 40
2455861.852007407
  9
$TDINDWG
 40
0.0000000116
  9
$TDUSRTIMER
 40
0.0000000116
  9
$USRTIMER
 70
     1
  9
$ANGBASE
 50
0.0
  9
$ANGDIR
 70
     0
  9
$PDMODE
 70
     0
  9
$PDSIZE
 40
0.0
  9
$PLINEWID
 40
0.0
  9
$SPLFRAME
 70
     0
  9
$SPLINETYPE
 70
     6
  9
$SPLINESEGS
 70
     8
  9
$HANDSEED
  5
132
  9
$SURFTAB1
 70
     6
  9
$SURFTAB2
 70
     6
  9
$SURFTYPE
 70
     6
  9
$SURFU
 70
     6
  9
$SURFV
 70
     6
  9
$UCSBASE
  2

  9
$UCSNAME
  2

  9
$UCSORG
 10
0.0
 20
0.0
 30
0.0
  9
$UCSXDIR
 10
1.0
 20
0.0
 30
0.0
  9
$UCSYDIR
 10
0.0
 20
1.0
 30
0.0
  9
$UCSORTHOREF
  2

  9
$UCSORTHOVIEW
 70
     0
  9
$UCSORGTOP
 10
0.0
 20
0.0
 30
0.0
  9
$UCSORGBOTTOM
 10
0.0
 20
0.0
 30
0.0
  9
$UCSORGLEFT
 10
0.0
 20
0.0
 30
0.0
  9
$UCSORGRIGHT
 10
0.0
 20
0.0
 30
0.0
  9
$UCSORGFRONT
 10
0.0
 20
0.0
 30
0.0
  9
$UCSORGBACK
 10
0.0
 20
0.0
 30
0.0
  9
$PUCSBASE
  2

  9
$PUCSNAME
  2

  9
$PUCSORG
 10
0.0
 20
0.0
 30
0.0
  9
$PUCSXDIR
 10
1.0
 20
0.0
 30
0.0
  9
$PUCSYDIR
 10
0.0
 20
1.0
 30
0.0
  9
$PUCSORTHOREF
  2

  9
$PUCSORTHOVIEW
 70
     0
  9
$PUCSORGTOP
 10
0.0
 20
0.0
 30
0.0
  9
$PUCSORGBOTTOM
 10
0.0
 20
0.0
 30
0.0
  9
$PUCSORGLEFT
 10
0.0
 20
0.0
 30
0.0
  9
$PUCSORGRIGHT
 10
0.0
 20
0.0
 30
0.0
  9
$PUCSORGFRONT
 10
0.0
 20
0.0
 30
0.0
  9
$PUCSORGBACK
 10
0.0
 20
0.0
 30
0.0
  9
$USERI1
 70
     0
  9
$USERI2
 70
     0
  9
$USERI3
 70
     0
  9
$USERI4
 70
     0
  9
$USERI5
 70
     0
  9
$USERR1
 40
0.0
  9
$USERR2
 40
0.0
  9
$USERR3
 40
0.0
  9
$USERR4
 40
0.0
  9
$USERR5
 40
0.0
  9
$WORLDVIEW
 70
     1
  9
$SHADEDGE
 70
     3
  9
$SHADEDIF
 70
    70
  9
$TILEMODE
 70
     1
  9
$MAXACTVP
 70
    64
  9
$PINSBASE
 10
0.0
 20
0.0
 30
0.0
  9
$PLIMCHECK
 70
     0
  9
$PEXTMIN
 10
1.000000000000000E+20
 20
1.000000000000000E+20
 30
1.000000000000000E+20
  9
$PEXTMAX
 10
-1.000000000000000E+20
 20
-1.000000000000000E+20
 30
-1.000000000000000E+20
  9
$PLIMMIN
 10
0.0
 20
0.0
  9
$PLIMMAX
 10
12.0
 20
9.0
  9
$UNITMODE
 70
     0
  9
$VISRETAIN
 70
     1
  9
$PLINEGEN
 70
     0
  9
$PSLTSCALE
 70
     1
  9
$TREEDEPTH
 70
  3020
  9
$CMLSTYLE
  2
Standard
  9
$CMLJUST
 70
     0
  9
$CMLSCALE
 40
1.0
  9
$PROXYGRAPHICS
 70
     1
  9
$MEASUREMENT
 70
     1
  9
$CELWEIGHT
370
    -1
  9
$ENDCAPS
280
     0
  9
$JOINSTYLE
280
     0
  9
$LWDISPLAY
290
     0
  9
$INSUNITS
 70
     4
  9
$HYPERLINKBASE
  1

  9
$STYLESHEET
  1

  9
$XEDIT
290
     1
  9
$CEPSNTYPE
380
     0
  9
$PSTYLEMODE
290
     1
  9
$FINGERPRINTGUID
  2
{F53563AB-29A0-47BA-B6C2-9622341D97AD}
  9
$VERSIONGUID
  2
{FAEB1C32-E019-11D5-929B-00C0DF256EC4}
  9
$EXTNAMES
290
     1
  9
$PSVPSCALE
 40
0.0
  9
$OLESTARTUP
290
     0
  9
$SORTENTS
280
   127
  9
$INDEXCTL
280
     0
  9
$HIDETEXT
280
     1
  9
$XCLIPFRAME
280
     2
  9
$HALOGAP
280
     0
  9
$OBSCOLOR
 70
   257
  9
$OBSLTYPE
280
     0
  9
$INTERSECTIONDISPLAY
280
     0
  9
$INTERSECTIONCOLOR
 70
   257
  9
$DIMASSOC
280
     2
  9
$PROJECTNAME
  1

  9
$CAMERADISPLAY
290
     0
  9
$LENSLENGTH
 40
50.0
  9
$CAMERAHEIGHT
 40
0.0
  9
$STEPSPERSEC
 40
2.0
  9
$STEPSIZE
 40
6.0
  9
$3DDWFPREC
 40
2.0
  9
$PSOLWIDTH
 40
0.25
  9
$PSOLHEIGHT
 40
4.0
  9
$LOFTANG1
 40
1.570796326794897
  9
$LOFTANG2
 40
1.570796326794897
  9
$LOFTMAG1
 40
0.0
  9
$LOFTMAG2
 40
0.0
  9
$LOFTPARAM
 70
     7
  9
$LOFTNORMALS
280
     1
  9
$LATITUDE
 40
37.795
  9
$LONGITUDE
 40
-122.394
  9
$NORTHDIRECTION
 40
0.0
  9
$TIMEZONE
 70
 -8000
  9
$LIGHTGLYPHDISPLAY
280
     1
  9
$TILEMODELIGHTSYNCH
280
     1
  9
$SOLIDHIST
280
     1
  9
$SHOWHIST
280
     1
  9
$DWFFRAME
280
     2
  9
$DGNFRAME
280
     2
  9
$REALWORLDSCALE
290
     1
  9
$INTERFERECOLOR
 62
   256
  9
$CSHADOW
280
     0
  9
$SHADOWPLANELOCATION
 40
0.0
  0
ENDSEC
  0
SECTION
  2
CLASSES
  0
CLASS
  1
ACDBDICTIONARYWDFLT
  2
AcDbDictionaryWithDefault
  3
ObjectDBX Classes
 90
        0
 91
        4
280
     0
281
     0
  0
CLASS
  1
VISUALSTYLE
  2
AcDbVisualStyle
  3
ObjectDBX Classes
 90
     4095
 91
        4
280
     0
281
     0
  0
CLASS
  1
MATERIAL
  2
AcDbMaterial
  3
ObjectDBX Classes
 90
     1153
 91
        4
280
     0
281
     0
  0
ENDSEC
  0
SECTION
  2
TABLES
  0
TABLE
  2
VPORT
  5
E1
330
0
100
AcDbSymbolTable
 70
     1
  0
VPORT
  5
101
330
E1
100
AcDbSymbolTableRecord
100
AcDbViewportTableRecord
  2
*Active
 70
     0
 10
0.0
 20
0.0
 11
1.0
 21
1.0
 12
10.42990654205607
 22
4.5
 13
0.0
 23
0.0
 14
0.5
 24
0.5
 15
0.5
 25
0.5
 16
0.0
 26
0.0
 36
1.0
 17
0.0
 27
0.0
 37
0.0
 40
9.0
 41
1.972972972850329
 42
50.0
 43
0.0
 44
0.0
 50
0.0
 51
0.0
 71
     0
 72
   100
 73
     1
 74
     3
 75
     0
 76
     0
 77
     0
 78
     0
281
     0
 65
     1
110
0.0
120
0.0
130
0.0
111
1.0
121
0.0
131
0.0
112
0.0
122
1.0
132
0.0
 79
     0
146
0.0
 60
     3
 61
     5
292
     1
282
     1
141
0.0
142
0.0
 63
   250
  0
ENDTAB
  0
TABLE
  2
LTYPE
  5
DE
330
0
100
AcDbSymbolTable
 70
    19
  0
LTYPE
  5
EC
330
DE
100
AcDbSymbolTableRecord
100
AcDbLinetypeTableRecord
  2
ByBlock
 70
     0
  3

 72
    65
 73
     0
 40
0.0
  0
LTYPE
  5
ED
330
DE
100
AcDbSymbolTableRecord
100
AcDbLinetypeTableRecord
  2
ByLayer
 70
     0
  3

 72
    65
 73
     0
 40
0.0
  0
LTYPE
  5
EE
330
DE
100
AcDbSymbolTableRecord
100
AcDbLinetypeTableRecord
  2
Continuous
 70
     0
  3
Solid line
 72
    65
 73
     0
 40
0.0
  0
LTYPE
  5
11C
330
DE
100
AcDbSymbolTableRecord
100
AcDbLinetypeTableRecord
  2
BORDER
 70
     0
  3

 72
    65
 73
     6
 40
42.00000000000001
 49
12.0
 74
     0
 49
-6.0
 74
     0
 49
12.0
 74
     0
 49
-5.95
 74
     0
 49
0.1
 74
     0
 49
-5.95
 74
     0
  0
LTYPE
  5
11D
330
DE
100
AcDbSymbolTableRecord
100
AcDbLinetypeTableRecord
  2
BORDER2
 70
     0
  3

 72
    65
 73
     6
 40
21.0
 49
6.0
 74
     0
 49
-3.0
 74
     0
 49
6.0
 74
     0
 49
-2.95
 74
     0
 49
0.1
 74
     0
 49
-2.95
 74
     0
  0
LTYPE
  5
11E
330
DE
100
AcDbSymbolTableRecord
100
AcDbLinetypeTableRecord
  2
BORDERX2
 70
     0
  3

 72
    65
 73
     6
 40
84.0
 49
24.0
 74
     0
 49
-12.0
 74
     0
 49
24.0
 74
     0
 49
-11.95
 74
     0
 49
0.1
 74
     0
 49
-11.95
 74
     0
  0
LTYPE
  5
11F
330
DE
100
AcDbSymbolTableRecord
100
AcDbLinetypeTableRecord
  2
CENTER
 70
     0
  3

 72
    65
 73
     4
 40
50.0
 49
32.0
 74
     0
 49
-6.0
 74
     0
 49
6.0
 74
     0
 49
-6.0
 74
     0
  0
LTYPE
  5
120
330
DE
100
AcDbSymbolTableRecord
100
AcDbLinetypeTableRecord
  2
CENTER2
 70
     0
  3

 72
    65
 73
     4
 40
25.0
 49
16.0
 74
     0
 49
-3.0
 74
     0
 49
3.0
 74
     0
 49
-3.0
 74
     0
  0
LTYPE
  5
121
330
DE
100
AcDbSymbolTableRecord
100
AcDbLinetypeTableRecord
  2
CENTERX2
 70
     0
  3

 72
    65
 73
     4
 40
100.0
 49
64.0
 74
     0
 49
-12.0
 74
     0
 49
12.0
 74
     0
 49
-12.0
 74
     0
  0
LTYPE
  5
122
330
DE
100
AcDbSymbolTableRecord
100
AcDbLinetypeTableRecord
  2
DASHDOT
 70
     0
  3

 72
    65
 73
     4
 40
24.0
 49
12.0
 74
     0
 49
-5.95
 74
     0
 49
0.1
 74
     0
 49
-5.95
 74
     0
  0
LTYPE
  5
123
330
DE
100
AcDbSymbolTableRecord
100
AcDbLinetypeTableRecord
  2
DASHDOT2
 70
     0
  3

 72
    65
 73
     4
 40
12.0
 49
6.0
 74
     0
 49
-2.95
 74
     0
 49
0.1
 74
     0
 49
-2.95
 74
     0
  0
LTYPE
  5
124
330
DE
100
AcDbSymbolTableRecord
100
AcDbLinetypeTableRecord
  2
DASHDOTX2
 70
     0
  3

 72
    65
 73
     4
 40
48.0
 49
24.0
 74
     0
 49
-11.95
 74
     0
 49
0.1
 74
     0
 49
-11.95
 74
     0
  0
LTYPE
  5
125
330
DE
100
AcDbSymbolTableRecord
100
AcDbLinetypeTableRecord
  2
DASHED
 70
     0
  3

 72
    65
 73
     2
 40
18.0
 49
12.0
 74
     0
 49
-6.0
 74
     0
  0
LTYPE
  5
126
330
DE
100
AcDbSymbolTableRecord
100
AcDbLinetypeTableRecord
  2
DASHED2
 70
     0
  3

 72
    65
 73
     2
 40
9.0
 49
6.0
 74
     0
 49
-3.0
 74
     0
  0
LTYPE
  5
127
330
DE
100
AcDbSymbolTableRecord
100
AcDbLinetypeTableRecord
  2
DASHEDX2
 70
     0
  3

 72
    65
 73
     2
 40
36.0
 49
24.0
 74
     0
 49
-12.0
 74
     0
  0
LTYPE
  5
128
330
DE
100
AcDbSymbolTableRecord
100
AcDbLinetypeTableRecord
  2
DIVIDE
 70
     0
  3

 72
    65
 73
     6
 40
29.99999999999999
 49
12.0
 74
     0
 49
-5.9
 74
     0
 49
0.15
 74
     0
 49
-5.9
 74
     0
 49
0.15
 74
     0
 49
-5.9
 74
     0
  0
LTYPE
  5
129
330
DE
100
AcDbSymbolTableRecord
100
AcDbLinetypeTableRecord
  2
DIVIDE2
 70
     0
  3

 72
    65
 73
     6
 40
15.0
 49
6.0
 74
     0
 49
-2.9
 74
     0
 49
0.15
 74
     0
 49
-2.9
 74
     0
 49
0.15
 74
     0
 49
-2.9
 74
     0
  0
LTYPE
  5
12A
330
DE
100
AcDbSymbolTableRecord
100
AcDbLinetypeTableRecord
  2
DIVIDEX2
 70
     0
  3

 72
    65
 73
     6
 40
59.99999999999999
 49
24.0
 74
     0
 49
-11.9
 74
     0
 49
0.15
 74
     0
 49
-11.9
 74
     0
 49
0.15
 74
     0
 49
-11.9
 74
     0
  0
LTYPE
  5
12B
330
DE
100
AcDbSymbolTableRecord
100
AcDbLinetypeTableRecord
  2
DOT
 70
     0
  3

 72
    65
 73
     2
 40
6.3
 49
0.1
 74
     0
 49
-6.2
 74
     0
  0
LTYPE
  5
12C
330
DE
100
AcDbSymbolTableRecord
100
AcDbLinetypeTableRecord
  2
DOT2
 70
     0
  3

 72
    65
 73
     2
 40
3.2
 49
0.1
 74
     0
 49
-3.1
 74
     0
  0
LTYPE
  5
12D
330
DE
100
AcDbSymbolTableRecord
100
AcDbLinetypeTableRecord
  2
DOTX2
 70
     0
  3

 72
    65
 73
     2
 40
12.5
 49
0.1
 74
     0
 49
-12.4
 74
     0
  0
ENDTAB
  0
TABLE
  2
LAYER
  5
DB
330
0
100
AcDbSymbolTable
 70
     3
  0
LAYER
  5
E9
330
DB
100
AcDbSymbolTableRecord
100
AcDbLayerTableRecord
  2
0
 70
     0
 62
     7
420
 16777215
  6
Continuous
370
    25
390
E8
347
116
  0
LAYER
  5
12E
330
DB
100
AcDbSymbolTableRecord
100
AcDbLayerTableRecord
  2
Cuts
 70
     0
 62
     1
420
 16711680
  6
Continuous
370
    25
390
E8
347
116
  0
LAYER
  5
12F
330
DB
100
AcDbSymbolTableRecord
100
AcDbLayerTableRecord
  2
Text
 70
     0
 62
     5
420
      255
  6
Continuous
370
    25
390
E8
347
116
  0
ENDTAB
  0
TABLE
  2
STYLE
  5
DC
330
0
100
AcDbSymbolTable
 70
     1
  0
STYLE
  5
EA
330
DC
100
AcDbSymbolTableRecord
100
AcDbTextStyleTableRecord
  2
Standard
 70
     0
 40
0.0
 41
1.0
 50
0.0
 71
     0
 42
0.2
  3
txt
  4

  0
ENDTAB
  0
TABLE
  2
VIEW
  5
DF
330
0
100
AcDbSymbolTable
 70
     0
  0
ENDTAB
  0
TABLE
  2
UCS
  5
E0
330
0
100
AcDbSymbolTable
 70
     0
  0
ENDTAB
  0
TABLE
  2
APPID
  5
E2
330
0
100
AcDbSymbolTable
 70
     2
  0
APPID
  5
EB
330
E2
100
AcDbSymbolTableRecord
100
AcDbRegAppTableRecord
  2
ACAD
 70
     0
  0
APPID
  5
117
330
E2
100
AcDbSymbolTableRecord
100
AcDbRegAppTableRecord
  2
QCAD
 70
     0
  0
ENDTAB
  0
TABLE
  2
DIMSTYLE
  5
E3
330
0
100
AcDbSymbolTable
 70
     2
100
AcDbDimStyleTable
  0
DIMSTYLE
105
FF
330
E3
100
AcDbSymbolTableRecord
100
AcDbDimStyleTableRecord
  2
Standard
 70
     0
178
     0
340
EA
  0
DIMSTYLE
105
11B
330
E3
100
AcDbSymbolTableRecord
100
AcDbDimStyleTableRecord
  2
QCADDimStyle
 70
     0
 41
2.5
 42
0.625
 44
1.25
 73
     0
 77
     1
140
2.5
147
0.625
178
     0
340
EA
  0
ENDTAB
  0
TABLE
  2
BLOCK_RECORD
  5
DA
330
0
100
AcDbSymbolTable
 70
     1
  0
BLOCK_RECORD
  5
F7
330
DA
100
AcDbSymbolTableRecord
100
AcDbBlockTableRecord
  2
*Model_Space
340
FA
 70
     0
280
     1
281
     0
  0
BLOCK_RECORD
  5
F3
330
DA
100
AcDbSymbolTableRecord
100
AcDbBlockTableRecord
  2
*Paper_Space
340
F6
 70
     0
280
     1
281
     0
  0
BLOCK_RECORD
  5
FB
330
DA
100
AcDbSymbolTableRecord
100
AcDbBlockTableRecord
  2
*Paper_Space0
340
FE
 70
     0
280
     1
281
     0
  0
ENDTAB
  0
ENDSEC
  0
SECTION
  2
BLOCKS
  0
BLOCK
  5
F8
330
F7
100
AcDbEntity
  8
0
100
AcDbBlockBegin
  2
*Model_Space
 70
     0
 10
0.0
 20
0.0
 30
0.0
  3
*Model_Space
  1

  0
ENDBLK
  5
F9
330
F7
100
AcDbEntity
  8
0
100
AcDbBlockEnd
  0
BLOCK
  5
F4
330
F3
100
AcDbEntity
 67
     1
  8
0
100
AcDbBlockBegin
  2
*Paper_Space
 70
     0
 10
0.0
 20
0.0
 30
0.0
  3
*Paper_Space
  1

  0
ENDBLK
  5
F5
330
F3
100
AcDbEntity
 67
     1
  8
0
100
AcDbBlockEnd
  0
BLOCK
  5
FC
330
FB
100
AcDbEntity
  8
0
100
AcDbBlockBegin
  2
*Paper_Space0
 70
     0
 10
0.0
 20
0.0
 30
0.0
  3
*Paper_Space0
  1

  0
ENDBLK
  5
FD
330
FB
100
AcDbEntity
  8
0
100
AcDbBlockEnd
  0
ENDSEC
  0
SECTION
  2
ENTITIES
  0
LWPOLYLINE
  5
18
330
F7
100
AcDbEntity
  8
Cuts
 62
     1
420
 16711680
370
    25
100
AcDbPolyline
 90
        2
 70
     0
 43
0.0
 10
34.09277437499986
 20
-40.54121687500003
 10
34.09277437499986
 20
-42.18727687500007
  0
LWPOLYLINE
  5
19
330
F7
100
AcDbEntity
  8
Cuts
 62
     1
420
 16711680
370
    25
100
AcDbPolyline
 90
        2
 70
     0
 43
0.0
 10
34.09277437499986
 20
-37.66043312500005
 10
34.09277437499986
 20
-39.30649437500006
  0
LWPOLYLINE
  5
1A
330
F7
100
AcDbEntity
  8
Cuts
 62
     1
420
 16711680
370
    25
100
AcDbPolyline
 90
        2
 70
     0
 43
0.0
 10
34.09277437499986
 20
-34.77964937500008
 10
34.09277437499986
 20
-36.42571062499997
  0
LWPOLYLINE
  5
1B
330
F7
100
AcDbEntity
  8
Cuts
 62
     1
420
 16711680
370
    25
100
AcDbPolyline
 90
        2
 70
     0
 43
0.0
 10
34.09277437499986
 20
-31.89886687500007
 10
34.09277437499986
 20
-33.54492687499999
  0
LWPOLYLINE
  5
1C
330
F7
100
AcDbEntity
  8
Cuts
 62
     1
420
 16711680
370
    25
100
AcDbPolyline
 90
        2
 70
     0
 43
0.0
 10
34.09277437499986
 20
-29.01808312500009
 10
34.09277437499986
 20
-30.66414437499998
  0
LWPOLYLINE
  5
1D
330
F7
100
AcDbEntity
  8
Cuts
 62
     1
420
 16711680
370
    25
100
AcDbPolyline
 90
        2
 70
     0
 43
0.0
 10
34.09277437499986
 20
-26.137299375
 10
34.09277437499986
 20
-27.783360625
  0
LWPOLYLINE
  5
1E
330
F7
100
AcDbEntity
  8
Cuts
 62
     1
420
 16711680
370
    25
100
AcDbPolyline
 90
        2
 70
     0
 43
0.0
 10
34.09277437499986
 20
-23.25651687499999
 10
34.09277437499986
 20
-24.90257687500002
  0
LWPOLYLINE
  5
1F
330
F7
100
AcDbEntity
  8
Cuts
 62
     1
420
 16711680
370
    25
100
AcDbPolyline
 90
        2
 70
     0
 43
0.0
 10
34.09277437499986
 20
-20.37573312500001
 10
34.09277437499986
 20
-22.02179437500013
  0
LWPOLYLINE
  5
20
330
F7
100
AcDbEntity
  8
Cuts
 62
     1
420
 16711680
370
    25
100
AcDbPolyline
 90
        2
 70
     0
 43
0.0
 10
34.09277437499986
 20
-17.495301875
 10
34.09277437499986
 20
-19.141363125
  0
LWPOLYLINE
  5
21
330
F7
100
AcDbEntity
  8
Cuts
 62
     1
420
 16711680
370
    25
100
AcDbPolyline
 90
        2
 70
     0
 43
0.0
 10
34.09277437499986
 20
-14.61451937499999
 10
34.09277437499986
 20
-16.2605806250001
  0
LWPOLYLINE
  5
22
330
F7
100
AcDbEntity
  8
Cuts
 62
     1
420
 16711680
370
    25
100
AcDbPolyline
 90
        2
 70
     0
 43
0.0
 10
34.09277437499986
 20
-11.73373562500001
 10
34.09277437499986
 20
-13.37979687500012
  0
LWPOLYLINE
  5
23
330
F7
100
AcDbEntity
  8
Cuts
 62
     1
420
 16711680
370
    25
100
AcDbPolyline
 90
        2
 70
     0
 43
0.0
 10
34.09277437499986
 20
-8.85295187500003
 10
34.09277437499986
 20
-10.49901312499992
  0
LWPOLYLINE
  5
24
330
F7
100
AcDbEntity
  8
Cuts
 62
     1
420
 16711680
370
    25
100
AcDbPolyline
 90
        2
 70
     0
 43
0.0
 10
34.09277437499986
 20
-5.972169375000021
 10
34.09277437499986
 20
-7.618230625000024
  0
LWPOLYLINE
  5
25
330
F7
100
AcDbEntity
  8
Cuts
 62
     1
420
 16711680
370
    25
100
AcDbPolyline
 90
        2
 70
     0
 43
0.0
 10
34.09277437499986
 20
-3.09138562499993
 10
34.09277437499986
 20
-4.737446875000046
  0
LWPOLYLINE
  5
26
330
F7
100
AcDbEntity
  8
Cuts
 62
     1
420
 16711680
370
    25
100
AcDbPolyline
 90
        2
 70
     0
 43
0.0
 10
34.09277437499986
 20
-0.2106018750000658
 10
34.09277437499986
 20
-1.856663125000068
  0
SPLINE
  5
27
330
F7
100
AcDbEntity
  8
Cuts
 62
     1
420
 16711680
370
    25
100
AcDbSpline
210
0.0
220
0.0
230
1.0
 70
     8
 71
     3
 72
     8
 73
     4
 74
     0
 42
0.000000001
 43
0.001
 12
1.0
 22
0.0
 32
0.0
 13
1.0
 23
0.0
 33
0.0
 40
0.0
 40
0.0
 40
0.0
 40
0.0
 40
1.0
 40
1.0
 40
1.0
 40
1.0
 10
32.84288187499988
 20
-21.19805812499999
 30
0.0
 10
32.84288187499988
 20
-34.31504187499991
 30
0.0
 10
22.20980687499991
 20
-44.94846937500006
 30
0.0
 10
9.093176874999926
 20
-44.94846937500006
 30
0.0
  0
SPLINE
  5
28
330
F7
100
AcDbEntity
  8
Cuts
 62
     1
420
 16711680
370
    25
100
AcDbSpline
210
0.0
220
0.0
230
1.0
 70
     8
 71
     3
 72
     8
 73
     4
 74
     0
 42
0.000000001
 43
0.001
 12
1.0
 22
0.0
 32
0.0
 13
1.0
 23
0.0
 33
0.0
 40
0.0
 40
0.0
 40
0.0
 40
0.0
 40
1.0
 40
1.0
 40
1.0
 40
1.0
 10
9.093176874999926
 20
-44.94846937500006
 30
0.0
 10
-4.023454375000256
 20
-44.94846937500006
 30
0.0
 10
-14.65688187500018
 20
-34.31468812499998
 30
0.0
 10
-14.65688187500018
 20
-21.19805812499999
 30
0.0
  0
SPLINE
  5
29
330
F7
100
AcDbEntity
  8
Cuts
 62
     1
420
 16711680
370
    25
100
AcDbSpline
210
0.0
220
0.0
230
1.0
 70
     8
 71
     3
 72
     8
 73
     4
 74
     0
 42
0.000000001
 43
0.001
 12
1.0
 22
0.0
 32
0.0
 13
1.0
 23
0.0
 33
0.0
 40
0.0
 40
0.0
 40
0.0
 40
0.0
 40
1.0
 40
1.0
 40
1.0
 40
1.0
 10
-14.65688187500018
 20
-21.19805812499999
 30
0.0
 10
-14.65688187500018
 20
-8.081426875000034
 30
0.0
 10
-4.023454375000256
 20
2.552000625000005
 30
0.0
 10
9.093176874999926
 20
2.552000625000005
 30
0.0
  0
SPLINE
  5
2A
330
F7
100
AcDbEntity
  8
Cuts
 62
     1
420
 16711680
370
    25
100
AcDbSpline
210
0.0
220
0.0
230
1.0
 70
     8
 71
     3
 72
     8
 73
     4
 74
     0
 42
0.000000001
 43
0.001
 12
1.0
 22
0.0
 32
0.0
 13
1.0
 23
0.0
 33
0.0
 40
0.0
 40
0.0
 40
0.0
 40
0.0
 40
1.0
 40
1.0
 40
1.0
 40
1.0
 10
9.093176874999926
 20
2.552000625000005
 30
0.0
 10
22.20980687499991
 20
2.552000625000005
 30
0.0
 10
32.84288187499988
 20
-8.081426875000034
 30
0.0
 10
32.84288187499988
 20
-21.19805812499999
 30
0.0
  0
LWPOLYLINE
  5
2B
330
F7
100
AcDbEntity
  8
Cuts
 62
     1
420
 16711680
370
    25
100
AcDbPolyline
 90
        2
 70
     0
 43
0.0
 10
34.09277437499986
 20
2.670180624999944
 10
34.09277437499986
 20
1.024119374999941
  0
SPLINE
  5
2C
330
F7
100
AcDbEntity
  8
Cuts
 62
     1
420
 16711680
370
    25
100
AcDbSpline
210
0.0
220
0.0
230
1.0
 70
     8
 71
     3
 72
     8
 73
     4
 74
     0
 42
0.000000001
 43
0.001
 12
1.0
 22
0.0
 32
0.0
 13
1.0
 23
0.0
 33
0.0
 40
0.0
 40
0.0
 40
0.0
 40
0.0
 40
1.0
 40
1.0
 40
1.0
 40
1.0
 10
27.59319562499991
 20
-1.198380625000027
 30
0.0
 10
27.59319562499991
 20
-0.3697056250000514
 30
0.0
 10
28.26488562499981
 20
0.3016306249999161
 30
0.0
 10
29.09356062499978
 20
0.3016306249999161
 30
0.0
  0
SPLINE
  5
2D
330
F7
100
AcDbEntity
  8
Cuts
 62
     1
420
 16711680
370
    25
100
AcDbSpline
210
0.0
220
0.0
230
1.0
 70
     8
 71
     3
 72
     8
 73
     4
 74
     0
 42
0.000000001
 43
0.001
 12
1.0
 22
0.0
 32
0.0
 13
1.0
 23
0.0
 33
0.0
 40
0.0
 40
0.0
 40
0.0
 40
0.0
 40
1.0
 40
1.0
 40
1.0
 40
1.0
 10
29.09356062499978
 20
0.3016306249999161
 30
0.0
 10
29.92188187499983
 20
0.3016306249999161
 30
0.0
 10
30.59357062499976
 20
-0.3697056250000514
 30
0.0
 10
30.59357062499976
 20
-1.198380625000027
 30
0.0
  0
SPLINE
  5
2E
330
F7
100
AcDbEntity
  8
Cuts
 62
     1
420
 16711680
370
    25
100
AcDbSpline
210
0.0
220
0.0
230
1.0
 70
     8
 71
     3
 72
     8
 73
     4
 74
     0
 42
0.000000001
 43
0.001
 12
1.0
 22
0.0
 32
0.0
 13
1.0
 23
0.0
 33
0.0
 40
0.0
 40
0.0
 40
0.0
 40
0.0
 40
1.0
 40
1.0
 40
1.0
 40
1.0
 10
30.59357062499976
 20
-1.198380625000027
 30
0.0
 10
30.59357062499976
 20
-2.026701875000072
 30
0.0
 10
29.92188187499983
 20
-2.69839187499997
 30
0.0
 10
29.09356062499978
 20
-2.69839187499997
 30
0.0
  0
SPLINE
  5
2F
330
F7
100
AcDbEntity
  8
Cuts
 62
     1
420
 16711680
370
    25
100
AcDbSpline
210
0.0
220
0.0
230
1.0
 70
     8
 71
     3
 72
     8
 73
     4
 74
     0
 42
0.000000001
 43
0.001
 12
1.0
 22
0.0
 32
0.0
 13
1.0
 23
0.0
 33
0.0
 40
0.0
 40
0.0
 40
0.0
 40
0.0
 40
1.0
 40
1.0
 40
1.0
 40
1.0
 10
29.09356062499978
 20
-2.69839187499997
 30
0.0
 10
28.26488562499981
 20
-2.69839187499997
 30
0.0
 10
27.59319562499991
 20
-2.026701875000072
 30
0.0
 10
27.59319562499991
 20
-1.198380625000027
 30
0.0
  0
SPLINE
  5
30
330
F7
100
AcDbEntity
  8
Cuts
 62
     1
420
 16711680
370
    25
100
AcDbSpline
210
0.0
220
0.0
230
1.0
 70
     8
 71
     3
 72
     8
 73
     4
 74
     0
 42
0.000000001
 43
0.001
 12
1.0
 22
0.0
 32
0.0
 13
1.0
 23
0.0
 33
0.0
 40
0.0
 40
0.0
 40
0.0
 40
0.0
 40
1.0
 40
1.0
 40
1.0
 40
1.0
 10
-12.40686437500017
 20
-1.198380625000027
 30
0.0
 10
-12.40686437500017
 20
-0.3697056250000514
 30
0.0
 10
-11.73517562500024
 20
0.3016306249999161
 30
0.0
 10
-10.90685437500019
 20
0.3016306249999161
 30
0.0
  0
SPLINE
  5
31
330
F7
100
AcDbEntity
  8
Cuts
 62
     1
420
 16711680
370
    25
100
AcDbSpline
210
0.0
220
0.0
230
1.0
 70
     8
 71
     3
 72
     8
 73
     4
 74
     0
 42
0.000000001
 43
0.001
 12
1.0
 22
0.0
 32
0.0
 13
1.0
 23
0.0
 33
0.0
 40
0.0
 40
0.0
 40
0.0
 40
0.0
 40
1.0
 40
1.0
 40
1.0
 40
1.0
 10
-10.90685437500019
 20
0.3016306249999161
 30
0.0
 10
-10.07782562500006
 20
0.3016306249999161
 30
0.0
 10
-9.40684312500025
 20
-0.3697056250000514
 30
0.0
 10
-9.40684312500025
 20
-1.198380625000027
 30
0.0
  0
SPLINE
  5
32
330
F7
100
AcDbEntity
  8
Cuts
 62
     1
420
 16711680
370
    25
100
AcDbSpline
210
0.0
220
0.0
230
1.0
 70
     8
 71
     3
 72
     8
 73
     4
 74
     0
 42
0.000000001
 43
0.001
 12
1.0
 22
0.0
 32
0.0
 13
1.0
 23
0.0
 33
0.0
 40
0.0
 40
0.0
 40
0.0
 40
0.0
 40
1.0
 40
1.0
 40
1.0
 40
1.0
 10
-9.40684312500025
 20
-1.198380625000027
 30
0.0
 10
-9.40684312500025
 20
-2.026701875000072
 30
0.0
 10
-10.07782562500006
 20
-2.69839187499997
 30
0.0
 10
-10.90685437500019
 20
-2.69839187499997
 30
0.0
  0
SPLINE
  5
33
330
F7
100
AcDbEntity
  8
Cuts
 62
     1
420
 16711680
370
    25
100
AcDbSpline
210
0.0
220
0.0
230
1.0
 70
     8
 71
     3
 72
     8
 73
     4
 74
     0
 42
0.000000001
 43
0.001
 12
1.0
 22
0.0
 32
0.0
 13
1.0
 23
0.0
 33
0.0
 40
0.0
 40
0.0
 40
0.0
 40
0.0
 40
1.0
 40
1.0
 40
1.0
 40
1.0
 10
-10.90685437500019
 20
-2.69839187499997
 30
0.0
 10
-11.73517562500024
 20
-2.69839187499997
 30
0.0
 10
-12.40686437500017
 20
-2.026701875000072
 30
0.0
 10
-12.40686437500017
 20
-1.198380625000027
 30
0.0
  0
SPLINE
  5
34
330
F7
100
AcDbEntity
  8
Cuts
 62
     1
420
 16711680
370
    25
100
AcDbSpline
210
0.0
220
0.0
230
1.0
 70
     8
 71
     3
 72
     8
 73
     4
 74
     0
 42
0.000000001
 43
0.001
 12
1.0
 22
0.0
 32
0.0
 13
1.0
 23
0.0
 33
0.0
 40
0.0
 40
0.0
 40
0.0
 40
0.0
 40
1.0
 40
1.0
 40
1.0
 40
1.0
 10
27.59319562499991
 20
-41.19844187500007
 30
0.0
 10
27.59319562499991
 20
-40.36976687499998
 30
0.0
 10
28.26488562499981
 20
-39.69843062500001
 30
0.0
 10
29.09356062499978
 20
-39.69843062500001
 30
0.0
  0
SPLINE
  5
35
330
F7
100
AcDbEntity
  8
Cuts
 62
     1
420
 16711680
370
    25
100
AcDbSpline
210
0.0
220
0.0
230
1.0
 70
     8
 71
     3
 72
     8
 73
     4
 74
     0
 42
0.000000001
 43
0.001
 12
1.0
 22
0.0
 32
0.0
 13
1.0
 23
0.0
 33
0.0
 40
0.0
 40
0.0
 40
0.0
 40
0.0
 40
1.0
 40
1.0
 40
1.0
 40
1.0
 10
29.09356062499978
 20
-39.69843062500001
 30
0.0
 10
29.92188187499983
 20
-39.69843062500001
 30
0.0
 10
30.59357062499976
 20
-40.36976687499998
 30
0.0
 10
30.59357062499976
 20
-41.19844187500007
 30
0.0
  0
SPLINE
  5
36
330
F7
100
AcDbEntity
  8
Cuts
 62
     1
420
 16711680
370
    25
100
AcDbSpline
210
0.0
220
0.0
230
1.0
 70
     8
 71
     3
 72
     8
 73
     4
 74
     0
 42
0.000000001
 43
0.001
 12
1.0
 22
0.0
 32
0.0
 13
1.0
 23
0.0
 33
0.0
 40
0.0
 40
0.0
 40
0.0
 40
0.0
 40
1.0
 40
1.0
 40
1.0
 40
1.0
 10
30.59357062499976
 20
-41.19844187500007
 30
0.0
 10
30.59357062499976
 20
-42.026763125
 30
0.0
 10
29.92188187499983
 20
-42.69845187499993
 30
0.0
 10
29.09356062499978
 20
-42.69845187499993
 30
0.0
  0
SPLINE
  5
37
330
F7
100
AcDbEntity
  8
Cuts
 62
     1
420
 16711680
370
    25
100
AcDbSpline
210
0.0
220
0.0
230
1.0
 70
     8
 71
     3
 72
     8
 73
     4
 74
     0
 42
0.000000001
 43
0.001
 12
1.0
 22
0.0
 32
0.0
 13
1.0
 23
0.0
 33
0.0
 40
0.0
 40
0.0
 40
0.0
 40
0.0
 40
1.0
 40
1.0
 40
1.0
 40
1.0
 10
29.09356062499978
 20
-42.69845187499993
 30
0.0
 10
28.26488562499981
 20
-42.69845187499993
 30
0.0
 10
27.59319562499991
 20
-42.02641062500004
 30
0.0
 10
27.59319562499991
 20
-41.19844187500007
 30
0.0
  0
SPLINE
  5
38
330
F7
100
AcDbEntity
  8
Cuts
 62
     1
420
 16711680
370
    25
100
AcDbSpline
210
0.0
220
0.0
230
1.0
 70
     8
 71
     3
 72
     8
 73
     4
 74
     0
 42
0.000000001
 43
0.001
 12
1.0
 22
0.0
 32
0.0
 13
1.0
 23
0.0
 33
0.0
 40
0.0
 40
0.0
 40
0.0
 40
0.0
 40
1.0
 40
1.0
 40
1.0
 40
1.0
 10
-12.40686437500017
 20
-41.19844187500007
 30
0.0
 10
-12.40686437500017
 20
-40.36976687499998
 30
0.0
 10
-11.73517562500024
 20
-39.69843062500001
 30
0.0
 10
-10.90685437500019
 20
-39.69843062500001
 30
0.0
  0
SPLINE
  5
39
330
F7
100
AcDbEntity
  8
Cuts
 62
     1
420
 16711680
370
    25
100
AcDbSpline
210
0.0
220
0.0
230
1.0
 70
     8
 71
     3
 72
     8
 73
     4
 74
     0
 42
0.000000001
 43
0.001
 12
1.0
 22
0.0
 32
0.0
 13
1.0
 23
0.0
 33
0.0
 40
0.0
 40
0.0
 40
0.0
 40
0.0
 40
1.0
 40
1.0
 40
1.0
 40
1.0
 10
-10.90685437500019
 20
-39.69843062500001
 30
0.0
 10
-10.07782562500006
 20
-39.69843062500001
 30
0.0
 10
-9.40684312500025
 20
-40.36976687499998
 30
0.0
 10
-9.40684312500025
 20
-41.19844187500007
 30
0.0
  0
SPLINE
  5
3A
330
F7
100
AcDbEntity
  8
Cuts
 62
     1
420
 16711680
370
    25
100
AcDbSpline
210
0.0
220
0.0
230
1.0
 70
     8
 71
     3
 72
     8
 73
     4
 74
     0
 42
0.000000001
 43
0.001
 12
1.0
 22
0.0
 32
0.0
 13
1.0
 23
0.0
 33
0.0
 40
0.0
 40
0.0
 40
0.0
 40
0.0
 40
1.0
 40
1.0
 40
1.0
 40
1.0
 10
-9.40684312500025
 20
-41.19844187500007
 30
0.0
 10
-9.40684312500025
 20
-42.026763125
 30
0.0
 10
-10.07782562500006
 20
-42.69845187499993
 30
0.0
 10
-10.90685437500019
 20
-42.69845187499993
 30
0.0
  0
SPLINE
  5
3B
330
F7
100
AcDbEntity
  8
Cuts
 62
     1
420
 16711680
370
    25
100
AcDbSpline
210
0.0
220
0.0
230
1.0
 70
     8
 71
     3
 72
     8
 73
     4
 74
     0
 42
0.000000001
 43
0.001
 12
1.0
 22
0.0
 32
0.0
 13
1.0
 23
0.0
 33
0.0
 40
0.0
 40
0.0
 40
0.0
 40
0.0
 40
1.0
 40
1.0
 40
1.0
 40
1.0
 10
-10.90685437500019
 20
-42.69845187499993
 30
0.0
 10
-11.73517562500024
 20
-42.69845187499993
 30
0.0
 10
-12.40686437500017
 20
-42.02641062500004
 30
0.0
 10
-12.40686437500017
 20
-41.19844187500007
 30
0.0
  0
SPLINE
  5
3C
330
F7
100
AcDbEntity
  8
Cuts
 62
     1
420
 16711680
370
    25
100
AcDbSpline
210
0.0
220
0.0
230
1.0
 70
     8
 71
     3
 72
     8
 73
     4
 74
     0
 42
0.000000001
 43
0.001
 12
1.0
 22
0.0
 32
0.0
 13
1.0
 23
0.0
 33
0.0
 40
0.0
 40
0.0
 40
0.0
 40
0.0
 40
1.0
 40
1.0
 40
1.0
 40
1.0
 10
-18.88633437500016
 20
-46.19871312500004
 30
0.0
 10
-22.76406812500022
 20
-46.19871312500004
 30
0.0
 10
-25.90731812500007
 20
-49.34196312500012
 30
0.0
 10
-25.90731812500007
 20
-53.21969687499995
 30
0.0
  0
SPLINE
  5
3D
330
F7
100
AcDbEntity
  8
Cuts
 62
     1
420
 16711680
370
    25
100
AcDbSpline
210
0.0
220
0.0
230
1.0
 70
     8
 71
     3
 72
     8
 73
     4
 74
     0
 42
0.000000001
 43
0.001
 12
1.0
 22
0.0
 32
0.0
 13
1.0
 23
0.0
 33
0.0
 40
0.0
 40
0.0
 40
0.0
 40
0.0
 40
1.0
 40
1.0
 40
1.0
 40
1.0
 10
-4.818968125000083
 20
-64.34630812500006
 30
0.0
 10
-4.818968125000083
 20
-65.27552437500003
 30
0.0
 10
-4.132109375000255
 20
-65.23813062499994
 30
0.0
 10
-3.239581875000113
 20
-65.370774375
 30
0.0
  0
SPLINE
  5
3E
330
F7
100
AcDbEntity
  8
Cuts
 62
     1
420
 16711680
370
    25
100
AcDbSpline
210
0.0
220
0.0
230
1.0
 70
     8
 71
     3
 72
     8
 73
     4
 74
     0
 42
0.000000001
 43
0.001
 12
1.0
 22
0.0
 32
0.0
 13
1.0
 23
0.0
 33
0.0
 40
0.0
 40
0.0
 40
0.0
 40
0.0
 40
1.0
 40
1.0
 40
1.0
 40
1.0
 10
-3.239581875000113
 20
-65.370774375
 30
0.0
 10
-3.151386875000071
 20
-65.38911937500006
 30
0.0
 10
-3.060370625000132
 20
-65.39829187500004
 30
0.0
 10
-2.966884375000063
 20
-65.39829187500004
 30
0.0
  0
LWPOLYLINE
  5
3F
330
F7
100
AcDbEntity
  8
Cuts
 62
     1
420
 16711680
370
    25
100
AcDbPolyline
 90
        5
 70
     0
 43
0.0
 10
-25.90731812500007
 20
-53.21969687499995
 10
-25.90731812500007
 20
-61.82782687500003
 10
-17.31894312500026
 20
-63.56384687499997
 10
-4.818968125000083
 20
-63.48658812500003
 10
-4.818968125000083
 20
-64.34630812500006
  0
SPLINE
  5
40
330
F7
100
AcDbEntity
  8
Cuts
 62
     1
420
 16711680
370
    25
100
AcDbSpline
210
0.0
220
0.0
230
1.0
 70
     8
 71
     3
 72
     8
 73
     4
 74
     0
 42
0.000000001
 43
0.001
 12
1.0
 22
0.0
 32
0.0
 13
1.0
 23
0.0
 33
0.0
 40
0.0
 40
0.0
 40
0.0
 40
0.0
 40
1.0
 40
1.0
 40
1.0
 40
1.0
 10
-2.037314375000051
 20
-65.39476312500005
 30
0.0
 10
-0.5595293750002384
 20
-65.39476312500005
 30
0.0
 10
0.6395631249997678
 20
-64.98730562499998
 30
0.0
 10
0.6395631249997678
 20
-63.49787687499997
 30
0.0
  0
LWPOLYLINE
  5
41
330
F7
100
AcDbEntity
  8
Cuts
 62
     1
420
 16711680
370
    25
100
AcDbPolyline
 90
        2
 70
     0
 43
0.0
 10
-2.966884375000063
 20
-65.39829187500004
 10
-2.037314375000051
 20
-65.39476312500005
  0
SPLINE
  5
42
330
F7
100
AcDbEntity
  8
Cuts
 62
     1
420
 16711680
370
    25
100
AcDbSpline
210
0.0
220
0.0
230
1.0
 70
     8
 71
     3
 72
     8
 73
     4
 74
     0
 42
0.000000001
 43
0.001
 12
1.0
 22
0.0
 32
0.0
 13
1.0
 23
0.0
 33
0.0
 40
0.0
 40
0.0
 40
0.0
 40
0.0
 40
1.0
 40
1.0
 40
1.0
 40
1.0
 10
12.17998187499984
 20
-64.34454437500005
 30
0.0
 10
12.17998187499984
 20
-65.36689437500002
 30
0.0
 10
13.0097156249999
 20
-65.39617437499999
 30
0.0
 10
14.03206562499986
 20
-65.39617437499999
 30
0.0
  0
SPLINE
  5
43
330
F7
100
AcDbEntity
  8
Cuts
 62
     1
420
 16711680
370
    25
100
AcDbSpline
210
0.0
220
0.0
230
1.0
 70
     8
 71
     3
 72
     8
 73
     4
 74
     0
 42
0.000000001
 43
0.001
 12
1.0
 22
0.0
 32
0.0
 13
1.0
 23
0.0
 33
0.0
 40
0.0
 40
0.0
 40
0.0
 40
0.0
 40
1.0
 40
1.0
 40
1.0
 40
1.0
 10
14.03206562499986
 20
-65.39617437499999
 30
0.0
 10
14.05217437499982
 20
-65.39617437499999
 30
0.0
 10
14.07051812499981
 20
-65.39123562500004
 30
0.0
 10
14.09062687499977
 20
-65.390530625
 30
0.0
  0
SPLINE
  5
44
330
F7
100
AcDbEntity
  8
Cuts
 62
     1
420
 16711680
370
    25
100
AcDbSpline
210
0.0
220
0.0
230
1.0
 70
     8
 71
     3
 72
     8
 73
     4
 74
     0
 42
0.000000001
 43
0.001
 12
1.0
 22
0.0
 32
0.0
 13
1.0
 23
0.0
 33
0.0
 40
0.0
 40
0.0
 40
0.0
 40
0.0
 40
1.0
 40
1.0
 40
1.0
 40
1.0
 10
14.09062687499977
 20
-65.390530625
 30
0.0
 10
14.11002937499984
 20
-65.390530625
 30
0.0
 10
14.12837437499979
 20
-65.39617437499999
 30
0.0
 10
14.14848187499979
 20
-65.39617437499999
 30
0.0
  0
LWPOLYLINE
  5
45
330
F7
100
AcDbEntity
  8
Cuts
 62
     1
420
 16711680
370
    25
100
AcDbPolyline
 90
        6
 70
     0
 43
0.0
 10
0.6395631249997678
 20
-63.49787687499997
 10
0.6526156249997257
 20
-63.49434937500007
 10
-1.114800625000271
 20
-63.19413562500006
 10
-1.114800625000271
 20
-62.48434687500003
 10
12.17998187499984
 20
-62.48434687500003
 10
12.17998187499984
 20
-64.34454437500005
  0
SPLINE
  5
46
330
F7
100
AcDbEntity
  8
Cuts
 62
     1
420
 16711680
370
    25
100
AcDbSpline
210
0.0
220
0.0
230
1.0
 70
     8
 71
     3
 72
     8
 73
     4
 74
     0
 42
0.000000001
 43
0.001
 12
1.0
 22
0.0
 32
0.0
 13
1.0
 23
0.0
 33
0.0
 40
0.0
 40
0.0
 40
0.0
 40
0.0
 40
1.0
 40
1.0
 40
1.0
 40
1.0
 10
15.09110437499976
 20
-65.39123562500004
 30
0.0
 10
16.56924312499973
 20
-65.39123562500004
 30
0.0
 10
17.7679818749998
 20
-64.98377687499999
 30
0.0
 10
17.7679818749998
 20
-63.49399687499999
 30
0.0
  0
LWPOLYLINE
  5
47
330
F7
100
AcDbEntity
  8
Cuts
 62
     1
420
 16711680
370
    25
100
AcDbPolyline
 90
        2
 70
     0
 43
0.0
 10
14.14848187499979
 20
-65.39617437499999
 10
15.09110437499976
 20
-65.39123562500004
  0
SPLINE
  5
48
330
F7
100
AcDbEntity
  8
Cuts
 62
     1
420
 16711680
370
    25
100
AcDbSpline
210
0.0
220
0.0
230
1.0
 70
     8
 71
     3
 72
     8
 73
     4
 74
     0
 42
0.000000001
 43
0.001
 12
1.0
 22
0.0
 32
0.0
 13
1.0
 23
0.0
 33
0.0
 40
0.0
 40
0.0
 40
0.0
 40
0.0
 40
1.0
 40
1.0
 40
1.0
 40
1.0
 10
18.60582937499976
 20
-62.48399437499995
 30
0.0
 10
22.2775406249998
 20
-62.48399437499995
 30
0.0
 10
25.64903812499983
 20
-60.40331062500002
 30
0.0
 10
28.30298562499979
 20
-58.26935812499994
 30
0.0
  0
LWPOLYLINE
  5
49
330
F7
100
AcDbEntity
  8
Cuts
 62
     1
420
 16711680
370
    25
100
AcDbPolyline
 90
        4
 70
     0
 43
0.0
 10
17.7679818749998
 20
-63.49399687499999
 10
15.88414937499988
 20
-63.1937831250001
 10
15.88414937499988
 20
-62.48399437499995
 10
18.60582937499976
 20
-62.48399437499995
  0
SPLINE
  5
4A
330
F7
100
AcDbEntity
  8
Cuts
 62
     1
420
 16711680
370
    25
100
AcDbSpline
210
0.0
220
0.0
230
1.0
 70
     8
 71
     3
 72
     8
 73
     4
 74
     0
 42
0.000000001
 43
0.001
 12
1.0
 22
0.0
 32
0.0
 13
1.0
 23
0.0
 33
0.0
 40
0.0
 40
0.0
 40
0.0
 40
0.0
 40
1.0
 40
1.0
 40
1.0
 40
1.0
 10
29.77618562499993
 20
-59.74255812500007
 30
0.0
 10
30.43341062499985
 20
-60.39943062500004
 30
0.0
 10
31.45858187499994
 20
-60.45305187500003
 30
0.0
 10
32.18354062499975
 20
-59.91612437500009
 30
0.0
  0
SPLINE
  5
4B
330
F7
100
AcDbEntity
  8
Cuts
 62
     1
420
 16711680
370
    25
100
AcDbSpline
210
0.0
220
0.0
230
1.0
 70
     8
 71
     3
 72
     8
 73
     4
 74
     0
 42
0.000000001
 43
0.001
 12
1.0
 22
0.0
 32
0.0
 13
1.0
 23
0.0
 33
0.0
 40
0.0
 40
0.0
 40
0.0
 40
0.0
 40
1.0
 40
1.0
 40
1.0
 40
1.0
 10
32.18354062499975
 20
-59.91612437500009
 30
0.0
 10
32.25797687499994
 20
-59.86638312500008
 30
0.0
 10
32.32959062499981
 20
-59.80888062500003
 30
0.0
 10
32.39556062499992
 20
-59.74255812500007
 30
0.0
  0
LWPOLYLINE
  5
4C
330
F7
100
AcDbEntity
  8
Cuts
 62
     1
420
 16711680
370
    25
100
AcDbPolyline
 90
        2
 70
     0
 43
0.0
 10
28.30298562499979
 20
-58.26935812499994
 10
29.77618562499993
 20
-59.74255812500007
  0
SPLINE
  5
4D
330
F7
100
AcDbEntity
  8
Cuts
 62
     1
420
 16711680
370
    25
100
AcDbSpline
210
0.0
220
0.0
230
1.0
 70
     8
 71
     3
 72
     8
 73
     4
 74
     0
 42
0.000000001
 43
0.001
 12
1.0
 22
0.0
 32
0.0
 13
1.0
 23
0.0
 33
0.0
 40
0.0
 40
0.0
 40
0.0
 40
0.0
 40
1.0
 40
1.0
 40
1.0
 40
1.0
 10
33.05842937499983
 20
-59.072985625
 30
0.0
 10
34.10371062499985
 20
-58.02735187500002
 30
0.0
 10
33.89733562499987
 20
-56.126233125
 30
0.0
 10
32.84464562499988
 20
-55.07283812500009
 30
0.0
  0
LWPOLYLINE
  5
4E
330
F7
100
AcDbEntity
  8
Cuts
 62
     1
420
 16711680
370
    25
100
AcDbPolyline
 90
        2
 70
     0
 43
0.0
 10
32.39556062499992
 20
-59.74255812500007
 10
33.05842937499983
 20
-59.072985625
  0
SPLINE
  5
4F
330
F7
100
AcDbEntity
  8
Cuts
 62
     1
420
 16711680
370
    25
100
AcDbSpline
210
0.0
220
0.0
230
1.0
 70
     8
 71
     3
 72
     8
 73
     4
 74
     0
 42
0.000000001
 43
0.001
 12
1.0
 22
0.0
 32
0.0
 13
1.0
 23
0.0
 33
0.0
 40
0.0
 40
0.0
 40
0.0
 40
0.0
 40
1.0
 40
1.0
 40
1.0
 40
1.0
 10
30.89307937499984
 20
-55.62105562500005
 30
0.0
 10
32.89897437499985
 20
-53.01049937499999
 30
0.0
 10
34.09347937499979
 20
-49.74413062500003
 30
0.0
 10
34.09347937499979
 20
-46.19694937500003
 30
0.0
  0
LWPOLYLINE
  5
50
330
F7
100
AcDbEntity
  8
Cuts
 62
     1
420
 16711680
370
    25
100
AcDbPolyline
 90
        3
 70
     0
 43
0.0
 10
32.84464562499988
 20
-55.07283812500009
 10
31.29418812499989
 20
-56.02216312500002
 10
30.89307937499984
 20
-55.62105562500005
  0
SPLINE
  5
51
330
F7
100
AcDbEntity
  8
Cuts
 62
     1
420
 16711680
370
    25
100
AcDbSpline
210
0.0
220
0.0
230
1.0
 70
     8
 71
     3
 72
     8
 73
     4
 74
     0
 42
0.000000001
 43
0.001
 12
1.0
 22
0.0
 32
0.0
 13
1.0
 23
0.0
 33
0.0
 40
0.0
 40
0.0
 40
0.0
 40
0.0
 40
1.0
 40
1.0
 40
1.0
 40
1.0
 10
92.24889562499993
 20
-46.19694937500003
 30
0.0
 10
93.83745437499988
 20
-46.19694937500003
 30
0.0
 10
95.12544562499988
 20
-44.90895812500003
 30
0.0
 10
95.12544562499988
 20
-43.32039937499997
 30
0.0
  0
LWPOLYLINE
  5
53
330
F7
100
AcDbEntity
  8
Text
 62
     5
420
      255
370
    25
100
AcDbPolyline
 90
        4
 70
     0
 43
0.0
 10
8.46452687499982
 20
106.104273125
 10
33.88604562499972
 20
116.944780625
 10
54.3803181249998
 20
116.944780625
 10
54.27342687499981
 20
116.944780625
  0
LWPOLYLINE
  5
54
330
F7
100
AcDbEntity
  8
Cuts
 62
     1
420
 16711680
370
    25
100
AcDbPolyline
 90
        2
 70
     0
 43
0.0
 10
34.09347937499979
 20
-46.19694937500003
 10
92.24889562499993
 20
-46.19694937500003
  0
LWPOLYLINE
  5
55
330
F7
100
AcDbEntity
  8
Cuts
 62
     1
420
 16711680
370
    25
100
AcDbPolyline
 90
        2
 70
     0
 43
0.0
 10
16.19212437499982
 20
114.8947893750001
 10
35.14264062499979
 20
122.8823831249999
  0
SPLINE
  5
56
330
F7
100
AcDbEntity
  8
Cuts
 62
     1
420
 16711680
370
    25
100
AcDbSpline
210
0.0
220
0.0
230
1.0
 70
     8
 71
     3
 72
     8
 73
     4
 74
     0
 42
0.000000001
 43
0.001
 12
1.0
 22
0.0
 32
0.0
 13
1.0
 23
0.0
 33
0.0
 40
0.0
 40
0.0
 40
0.0
 40
0.0
 40
1.0
 40
1.0
 40
1.0
 40
1.0
 10
95.12544562499988
 20
-43.08721312499995
 30
0.0
 10
95.12544562499988
 20
-41.49865562499997
 30
0.0
 10
93.83745437499988
 20
-40.210663125
 30
0.0
 10
92.24889562499993
 20
-40.210663125
 30
0.0
  0
SPLINE
  5
57
330
F7
100
AcDbEntity
  8
Cuts
 62
     1
420
 16711680
370
    25
100
AcDbSpline
210
0.0
220
0.0
230
1.0
 70
     8
 71
     3
 72
     8
 73
     4
 74
     0
 42
0.000000001
 43
0.001
 12
1.0
 22
0.0
 32
0.0
 13
1.0
 23
0.0
 33
0.0
 40
0.0
 40
0.0
 40
0.0
 40
0.0
 40
1.0
 40
1.0
 40
1.0
 40
1.0
 10
92.24889562499993
 20
-40.210663125
 30
0.0
 10
87.6462043749998
 20
-40.210663125
 30
0.0
 10
83.91522687499992
 20
-31.69954687500012
 30
0.0
 10
83.91522687499992
 20
-21.20052687500004
 30
0.0
  0
LWPOLYLINE
  5
58
330
F7
100
AcDbEntity
  8
Cuts
 62
     1
420
 16711680
370
    25
100
AcDbPolyline
 90
        2
 70
     0
 43
0.0
 10
33.88604562499972
 20
116.944780625
 10
35.86019062499986
 20
126.2711668750001
  0
SPLINE
  5
59
330
F7
100
AcDbEntity
  8
Cuts
 62
     1
420
 16711680
370
    25
100
AcDbSpline
210
0.0
220
0.0
230
1.0
 70
     8
 71
     3
 72
     8
 73
     4
 74
     0
 42
0.000000001
 43
0.001
 12
1.0
 22
0.0
 32
0.0
 13
1.0
 23
0.0
 33
0.0
 40
0.0
 40
0.0
 40
0.0
 40
0.0
 40
1.0
 40
1.0
 40
1.0
 40
1.0
 10
83.91522687499992
 20
-21.20052687500004
 30
0.0
 10
83.91522687499992
 20
-10.70186062499999
 30
0.0
 10
87.6462043749998
 20
-2.190391875000046
 30
0.0
 10
92.24889562499993
 20
-2.190391875000046
 30
0.0
  0
LWPOLYLINE
  5
5A
330
F7
100
AcDbEntity
  8
Cuts
 62
     1
420
 16711680
370
    25
100
AcDbPolyline
 90
        2
 70
     0
 43
0.0
 10
95.12544562499988
 20
-43.32039937499997
 10
95.12544562499988
 20
-43.08721312499995
  0
SPLINE
  5
5B
330
F7
100
AcDbEntity
  8
Cuts
 62
     1
420
 16711680
370
    25
100
AcDbSpline
210
0.0
220
0.0
230
1.0
 70
     8
 71
     3
 72
     8
 73
     4
 74
     0
 42
0.000000001
 43
0.001
 12
1.0
 22
0.0
 32
0.0
 13
1.0
 23
0.0
 33
0.0
 40
0.0
 40
0.0
 40
0.0
 40
0.0
 40
1.0
 40
1.0
 40
1.0
 40
1.0
 10
92.24889562499993
 20
-2.190391875000046
 30
0.0
 10
93.83745437499988
 20
-2.190391875000046
 30
0.0
 10
95.12544562499988
 20
-0.9027518750000354
 30
0.0
 10
95.12544562499988
 20
0.686511874999951
 30
0.0
  0
LWPOLYLINE
  5
5C
330
F7
100
AcDbEntity
  8
Cuts
 62
     1
420
 16711680
370
    25
100
AcDbPolyline
 90
        3
 70
     0
 43
0.0
 10
92.24889562499993
 20
-2.190391875000046
 10
92.24889562499993
 20
-2.182983124999964
 10
92.24889562499993
 20
-2.190391875000046
  0
SPLINE
  5
5D
330
F7
100
AcDbEntity
  8
Cuts
 62
     1
420
 16711680
370
    25
100
AcDbSpline
210
0.0
220
0.0
230
1.0
 70
     8
 71
     3
 72
     8
 73
     4
 74
     0
 42
0.000000001
 43
0.001
 12
1.0
 22
0.0
 32
0.0
 13
1.0
 23
0.0
 33
0.0
 40
0.0
 40
0.0
 40
0.0
 40
0.0
 40
1.0
 40
1.0
 40
1.0
 40
1.0
 10
95.12544562499988
 20
0.9193443749999233
 30
0.0
 10
95.12544562499988
 20
2.508255624999947
 30
0.0
 10
93.83745437499988
 20
3.795894374999989
 30
0.0
 10
92.24889562499993
 20
3.795894374999989
 30
0.0
  0
LWPOLYLINE
  5
5E
330
F7
100
AcDbEntity
  8
Cuts
 62
     1
420
 16711680
370
    25
100
AcDbPolyline
 90
        2
 70
     0
 43
0.0
 10
95.12544562499988
 20
0.686511874999951
 10
95.12544562499988
 20
0.9193443749999233
  0
SPLINE
  5
5F
330
F7
100
AcDbEntity
  8
Cuts
 62
     1
420
 16711680
370
    25
100
AcDbSpline
210
0.0
220
0.0
230
1.0
 70
     8
 71
     3
 72
     8
 73
     4
 74
     0
 42
0.000000001
 43
0.001
 12
1.0
 22
0.0
 32
0.0
 13
1.0
 23
0.0
 33
0.0
 40
0.0
 40
0.0
 40
0.0
 40
0.0
 40
1.0
 40
1.0
 40
1.0
 40
1.0
 10
34.09347937499979
 20
3.803303124999957
 30
0.0
 10
34.09347937499979
 20
7.35013062500002
 30
0.0
 10
32.89862062499992
 20
10.61650062499996
 30
0.0
 10
30.89307937499984
 20
13.22705562499993
 30
0.0
  0
LWPOLYLINE
  5
60
330
F7
100
AcDbEntity
  8
Cuts
 62
     1
420
 16711680
370
    25
100
AcDbPolyline
 90
        3
 70
     0
 43
0.0
 10
92.24889562499993
 20
3.795894374999989
 10
92.24889562499993
 20
3.803303124999957
 10
34.09347937499979
 20
3.803303124999957
  0
SPLINE
  5
61
330
F7
100
AcDbEntity
  8
Cuts
 62
     1
420
 16711680
370
    25
100
AcDbSpline
210
0.0
220
0.0
230
1.0
 70
     8
 71
     3
 72
     8
 73
     4
 74
     0
 42
0.000000001
 43
0.001
 12
1.0
 22
0.0
 32
0.0
 13
1.0
 23
0.0
 33
0.0
 40
0.0
 40
0.0
 40
0.0
 40
0.0
 40
1.0
 40
1.0
 40
1.0
 40
1.0
 10
32.84464562499988
 20
12.67919187500001
 30
0.0
 10
33.89733562499987
 20
13.73258687499992
 30
0.0
 10
34.10371062499985
 20
15.63370562499995
 30
0.0
 10
33.05842937499983
 20
16.67933937499993
 30
0.0
  0
LWPOLYLINE
  5
62
330
F7
100
AcDbEntity
  8
Cuts
 62
     1
420
 16711680
370
    25
100
AcDbPolyline
 90
        3
 70
     0
 43
0.0
 10
30.89307937499984
 20
13.22705562499993
 10
31.29418812499989
 20
13.62851687499995
 10
32.84464562499988
 20
12.67919187500001
  0
SPLINE
  5
63
330
F7
100
AcDbEntity
  8
Cuts
 62
     1
420
 16711680
370
    25
100
AcDbSpline
210
0.0
220
0.0
230
1.0
 70
     8
 71
     3
 72
     8
 73
     4
 74
     0
 42
0.000000001
 43
0.001
 12
1.0
 22
0.0
 32
0.0
 13
1.0
 23
0.0
 33
0.0
 40
0.0
 40
0.0
 40
0.0
 40
0.0
 40
1.0
 40
1.0
 40
1.0
 40
1.0
 10
32.39556062499992
 20
17.348911875
 30
0.0
 10
32.32959062499981
 20
17.41523312499999
 30
0.0
 10
32.25797687499994
 20
17.47273687500001
 30
0.0
 10
32.18354062499975
 20
17.52212562499994
 30
0.0
  0
SPLINE
  5
64
330
F7
100
AcDbEntity
  8
Cuts
 62
     1
420
 16711680
370
    25
100
AcDbSpline
210
0.0
220
0.0
230
1.0
 70
     8
 71
     3
 72
     8
 73
     4
 74
     0
 42
0.000000001
 43
0.001
 12
1.0
 22
0.0
 32
0.0
 13
1.0
 23
0.0
 33
0.0
 40
0.0
 40
0.0
 40
0.0
 40
0.0
 40
1.0
 40
1.0
 40
1.0
 40
1.0
 10
32.18354062499975
 20
17.52212562499994
 30
0.0
 10
31.45822937499975
 20
18.05905312499999
 30
0.0
 10
30.43341062499985
 20
18.00613687499992
 30
0.0
 10
29.77618562499993
 20
17.348911875
 30
0.0
  0
LWPOLYLINE
  5
65
330
F7
100
AcDbEntity
  8
Cuts
 62
     1
420
 16711680
370
    25
100
AcDbPolyline
 90
        2
 70
     0
 43
0.0
 10
33.05842937499983
 20
16.67933937499993
 10
32.39556062499992
 20
17.348911875
  0
SPLINE
  5
66
330
F7
100
AcDbEntity
  8
Cuts
 62
     1
420
 16711680
370
    25
100
AcDbSpline
210
0.0
220
0.0
230
1.0
 70
     8
 71
     3
 72
     8
 73
     4
 74
     0
 42
0.000000001
 43
0.001
 12
1.0
 22
0.0
 32
0.0
 13
1.0
 23
0.0
 33
0.0
 40
0.0
 40
0.0
 40
0.0
 40
0.0
 40
1.0
 40
1.0
 40
1.0
 40
1.0
 10
28.30298562499979
 20
15.87535812499993
 30
0.0
 10
25.64903812499983
 20
18.00966437499994
 30
0.0
 10
22.2775406249998
 20
20.09034812499999
 30
0.0
 10
18.60582937499976
 20
20.09034812499999
 30
0.0
  0
LWPOLYLINE
  5
67
330
F7
100
AcDbEntity
  8
Cuts
 62
     1
420
 16711680
370
    25
100
AcDbPolyline
 90
        2
 70
     0
 43
0.0
 10
29.77618562499993
 20
17.348911875
 10
28.30298562499979
 20
15.87535812499993
  0
SPLINE
  5
68
330
F7
100
AcDbEntity
  8
Cuts
 62
     1
420
 16711680
370
    25
100
AcDbSpline
210
0.0
220
0.0
230
1.0
 70
     8
 71
     3
 72
     8
 73
     4
 74
     0
 42
0.000000001
 43
0.001
 12
1.0
 22
0.0
 32
0.0
 13
1.0
 23
0.0
 33
0.0
 40
0.0
 40
0.0
 40
0.0
 40
0.0
 40
1.0
 40
1.0
 40
1.0
 40
1.0
 10
17.7679818749998
 20
21.10035062499992
 30
0.0
 10
17.7679818749998
 20
22.58977812499995
 30
0.0
 10
16.56959562499992
 20
22.99653062499988
 30
0.0
 10
15.09110437499976
 20
22.99653062499988
 30
0.0
  0
LWPOLYLINE
  5
69
330
F7
100
AcDbEntity
  8
Cuts
 62
     1
420
 16711680
370
    25
100
AcDbPolyline
 90
        4
 70
     0
 43
0.0
 10
18.60582937499976
 20
20.09034812499999
 10
15.88414937499988
 20
20.09034812499999
 10
15.88414937499988
 20
20.79978312499998
 10
17.7679818749998
 20
21.10035062499992
  0
SPLINE
  5
6A
330
F7
100
AcDbEntity
  8
Cuts
 62
     1
420
 16711680
370
    25
100
AcDbSpline
210
0.0
220
0.0
230
1.0
 70
     8
 71
     3
 72
     8
 73
     4
 74
     0
 42
0.000000001
 43
0.001
 12
1.0
 22
0.0
 32
0.0
 13
1.0
 23
0.0
 33
0.0
 40
0.0
 40
0.0
 40
0.0
 40
0.0
 40
1.0
 40
1.0
 40
1.0
 40
1.0
 10
14.14848187499979
 20
23.00146937499994
 30
0.0
 10
14.12837437499979
 20
23.00146937499994
 30
0.0
 10
14.11002937499984
 20
22.99653062499988
 30
0.0
 10
14.09062687499977
 20
22.99582562499995
 30
0.0
  0
SPLINE
  5
6B
330
F7
100
AcDbEntity
  8
Cuts
 62
     1
420
 16711680
370
    25
100
AcDbSpline
210
0.0
220
0.0
230
1.0
 70
     8
 71
     3
 72
     8
 73
     4
 74
     0
 42
0.000000001
 43
0.001
 12
1.0
 22
0.0
 32
0.0
 13
1.0
 23
0.0
 33
0.0
 40
0.0
 40
0.0
 40
0.0
 40
0.0
 40
1.0
 40
1.0
 40
1.0
 40
1.0
 10
14.09062687499977
 20
22.99582562499995
 30
0.0
 10
14.07051812499981
 20
22.99582562499995
 30
0.0
 10
14.05217437499982
 20
23.00146937499994
 30
0.0
 10
14.03206562499986
 20
23.00146937499994
 30
0.0
  0
SPLINE
  5
6C
330
F7
100
AcDbEntity
  8
Cuts
 62
     1
420
 16711680
370
    25
100
AcDbSpline
210
0.0
220
0.0
230
1.0
 70
     8
 71
     3
 72
     8
 73
     4
 74
     0
 42
0.000000001
 43
0.001
 12
1.0
 22
0.0
 32
0.0
 13
1.0
 23
0.0
 33
0.0
 40
0.0
 40
0.0
 40
0.0
 40
0.0
 40
1.0
 40
1.0
 40
1.0
 40
1.0
 10
14.03206562499986
 20
23.00146937499994
 30
0.0
 10
13.0097156249999
 20
23.00146937499994
 30
0.0
 10
12.17998187499984
 20
22.9728943749999
 30
0.0
 10
12.17998187499984
 20
21.95054437499994
 30
0.0
  0
LWPOLYLINE
  5
6D
330
F7
100
AcDbEntity
  8
Cuts
 62
     1
420
 16711680
370
    25
100
AcDbPolyline
 90
        2
 70
     0
 43
0.0
 10
15.09110437499976
 20
22.99653062499988
 10
14.14848187499979
 20
23.00146937499994
  0
SPLINE
  5
6E
330
F7
100
AcDbEntity
  8
Cuts
 62
     1
420
 16711680
370
    25
100
AcDbSpline
210
0.0
220
0.0
230
1.0
 70
     8
 71
     3
 72
     8
 73
     4
 74
     0
 42
0.000000001
 43
0.001
 12
1.0
 22
0.0
 32
0.0
 13
1.0
 23
0.0
 33
0.0
 40
0.0
 40
0.0
 40
0.0
 40
0.0
 40
1.0
 40
1.0
 40
1.0
 40
1.0
 10
0.6395631249997678
 20
21.10387812499994
 30
0.0
 10
0.6395631249997678
 20
22.59330562499997
 30
0.0
 10
-0.5591756250000799
 20
22.89986937499998
 30
0.0
 10
-2.037314375000051
 20
22.89986937499998
 30
0.0
  0
LWPOLYLINE
  5
6F
330
F7
100
AcDbEntity
  8
Cuts
 62
     1
420
 16711680
370
    25
100
AcDbPolyline
 90
        6
 70
     0
 43
0.0
 10
12.17998187499984
 20
21.95054437499994
 10
12.17998187499984
 20
20.09034812499999
 10
-1.114800625000271
 20
20.09034812499999
 10
-1.114800625000271
 20
20.79978312499998
 10
0.6526156249997257
 20
21.10035062499992
 10
0.6395631249997678
 20
21.10387812499994
  0
SPLINE
  5
70
330
F7
100
AcDbEntity
  8
Cuts
 62
     1
420
 16711680
370
    25
100
AcDbSpline
210
0.0
220
0.0
230
1.0
 70
     8
 71
     3
 72
     8
 73
     4
 74
     0
 42
0.000000001
 43
0.001
 12
1.0
 22
0.0
 32
0.0
 13
1.0
 23
0.0
 33
0.0
 40
0.0
 40
0.0
 40
0.0
 40
0.0
 40
1.0
 40
1.0
 40
1.0
 40
1.0
 10
-2.966884375000063
 20
22.90339812499997
 30
0.0
 10
-3.060723125000095
 20
22.90339812499997
 30
0.0
 10
-3.151386875000071
 20
22.89422562499999
 30
0.0
 10
-3.239581875000113
 20
22.87588062500004
 30
0.0
  0
SPLINE
  5
71
330
F7
100
AcDbEntity
  8
Cuts
 62
     1
420
 16711680
370
    25
100
AcDbSpline
210
0.0
220
0.0
230
1.0
 70
     8
 71
     3
 72
     8
 73
     4
 74
     0
 42
0.000000001
 43
0.001
 12
1.0
 22
0.0
 32
0.0
 13
1.0
 23
0.0
 33
0.0
 40
0.0
 40
0.0
 40
0.0
 40
0.0
 40
1.0
 40
1.0
 40
1.0
 40
1.0
 10
-3.239581875000113
 20
22.87588062500004
 30
0.0
 10
-4.131756875000065
 20
22.74323687499998
 30
0.0
 10
-4.818968125000083
 20
22.88152562499999
 30
0.0
 10
-4.818968125000083
 20
21.95230812499994
 30
0.0
  0
LWPOLYLINE
  5
72
330
F7
100
AcDbEntity
  8
Cuts
 62
     1
420
 16711680
370
    25
100
AcDbPolyline
 90
        2
 70
     0
 43
0.0
 10
-2.037314375000051
 20
22.89986937499998
 10
-2.966884375000063
 20
22.90339812499997
  0
SPLINE
  5
73
330
F7
100
AcDbEntity
  8
Cuts
 62
     1
420
 16711680
370
    25
100
AcDbSpline
210
0.0
220
0.0
230
1.0
 70
     8
 71
     3
 72
     8
 73
     4
 74
     0
 42
0.000000001
 43
0.001
 12
1.0
 22
0.0
 32
0.0
 13
1.0
 23
0.0
 33
0.0
 40
0.0
 40
0.0
 40
0.0
 40
0.0
 40
1.0
 40
1.0
 40
1.0
 40
1.0
 10
-25.90731812500007
 20
10.82605062499999
 30
0.0
 10
-25.90731812500007
 20
6.948316874999932
 30
0.0
 10
-22.76406812500022
 20
3.805066874999966
 30
0.0
 10
-18.88633437500016
 20
3.805066874999966
 30
0.0
  0
LWPOLYLINE
  5
74
330
F7
100
AcDbEntity
  8
Cuts
 62
     1
420
 16711680
370
    25
100
AcDbPolyline
 90
        5
 70
     0
 43
0.0
 10
-4.818968125000083
 20
21.95230812499994
 10
-4.818968125000083
 20
21.09258937499999
 10
-17.31894312500026
 20
21.169494375
 10
-25.90731812500007
 20
19.43418062499995
 10
-25.90731812500007
 20
10.82605062499999
  0
LWPOLYLINE
  5
75
330
F7
100
AcDbEntity
  8
Cuts
 62
     1
420
 16711680
370
    25
100
AcDbPolyline
 90
        4
 70
     0
 43
0.0
 10
-15.90712562500016
 20
3.805066874999966
 10
-41.12544562500011
 20
3.805066874999966
 10
-41.12544562500011
 20
-46.19518562500002
 10
-15.90712562500016
 20
-46.19518562500002
  0
LWPOLYLINE
  5
76
330
F7
100
AcDbEntity
  8
Cuts
 62
     1
420
 16711680
370
    25
100
AcDbPolyline
 90
        6
 70
     0
 43
0.0
 10
78.0968631249998
 20
-43.69504937499994
 10
85.09703187499986
 20
-43.69504937499994
 10
85.09703187499986
 20
-42.99513812500004
 10
78.0968631249998
 20
-42.99513812500004
 10
78.0968631249998
 20
-43.69504937499994
 10
78.0968631249998
 20
-43.69504937499994
  0
LWPOLYLINE
  5
77
330
F7
100
AcDbEntity
  8
Cuts
 62
     1
420
 16711680
370
    25
100
AcDbPolyline
 90
        6
 70
     0
 43
0.0
 10
61.7942956249999
 20
-43.69504937499994
 10
68.79411312499974
 20
-43.69504937499994
 10
68.79411312499974
 20
-42.99513812500004
 10
61.7942956249999
 20
-42.99513812500004
 10
61.7942956249999
 20
-43.69504937499994
 10
61.7942956249999
 20
-43.69504937499994
  0
LWPOLYLINE
  5
78
330
F7
100
AcDbEntity
  8
Cuts
 62
     1
420
 16711680
370
    25
100
AcDbPolyline
 90
        6
 70
     0
 43
0.0
 10
43.79275187499979
 20
-43.69504937499994
 10
50.79256812499989
 20
-43.69504937499994
 10
50.79256812499989
 20
-42.99513812500004
 10
43.79275187499979
 20
-42.99513812500004
 10
43.79275187499979
 20
-43.69504937499994
 10
43.79275187499979
 20
-43.69504937499994
  0
LWPOLYLINE
  5
79
330
F7
100
AcDbEntity
  8
Cuts
 62
     1
420
 16711680
370
    25
100
AcDbPolyline
 90
        6
 70
     0
 43
0.0
 10
78.0968631249998
 20
1.304930624999997
 10
85.09703187499986
 20
1.304930624999997
 10
85.09703187499986
 20
0.6046668750000208
 10
78.0968631249998
 20
0.6046668750000208
 10
78.0968631249998
 20
1.304930624999997
 10
78.0968631249998
 20
1.304930624999997
  0
LWPOLYLINE
  5
7A
330
F7
100
AcDbEntity
  8
Cuts
 62
     1
420
 16711680
370
    25
100
AcDbPolyline
 90
        6
 70
     0
 43
0.0
 10
61.7942956249999
 20
1.304930624999997
 10
68.79411312499974
 20
1.304930624999997
 10
68.79411312499974
 20
0.6046668750000208
 10
61.7942956249999
 20
0.6046668750000208
 10
61.7942956249999
 20
1.304930624999997
 10
61.7942956249999
 20
1.304930624999997
  0
LWPOLYLINE
  5
7B
330
F7
100
AcDbEntity
  8
Cuts
 62
     1
420
 16711680
370
    25
100
AcDbPolyline
 90
        6
 70
     0
 43
0.0
 10
43.79345687499995
 20
1.304930624999997
 10
50.79327437499978
 20
1.304930624999997
 10
50.79327437499978
 20
0.6046668750000208
 10
43.79345687499995
 20
0.6046668750000208
 10
43.79345687499995
 20
1.304930624999997
 10
43.79345687499995
 20
1.304930624999997
  0
LWPOLYLINE
  5
7C
330
F7
100
AcDbEntity
  8
Cuts
 62
     1
420
 16711680
370
    25
100
AcDbPolyline
 90
        2
 70
     0
 43
0.0
 10
-25.90767062500026
 20
-43.41847187500002
 10
-25.90767062500026
 20
-45.06453312500003
  0
LWPOLYLINE
  5
7D
330
F7
100
AcDbEntity
  8
Cuts
 62
     1
420
 16711680
370
    25
100
AcDbPolyline
 90
        2
 70
     0
 43
0.0
 10
-25.90767062500026
 20
-40.53768812499993
 10
-25.90767062500026
 20
-42.18374937500005
  0
LWPOLYLINE
  5
7E
330
F7
100
AcDbEntity
  8
Cuts
 62
     1
420
 16711680
370
    25
100
AcDbPolyline
 90
        2
 70
     0
 43
0.0
 10
-25.90767062500026
 20
-37.65690562500004
 10
-25.90767062500026
 20
-39.30296687500004
  0
LWPOLYLINE
  5
7F
330
F7
100
AcDbEntity
  8
Cuts
 62
     1
420
 16711680
370
    25
100
AcDbPolyline
 90
        2
 70
     0
 43
0.0
 10
-25.90767062500026
 20
-34.77612187499994
 10
-25.90767062500026
 20
-36.42218312500006
  0
LWPOLYLINE
  5
80
330
F7
100
AcDbEntity
  8
Cuts
 62
     1
420
 16711680
370
    25
100
AcDbPolyline
 90
        2
 70
     0
 43
0.0
 10
-25.90767062500026
 20
-31.89533812500008
 10
-25.90767062500026
 20
-33.54139937500008
  0
LWPOLYLINE
  5
81
330
F7
100
AcDbEntity
  8
Cuts
 62
     1
420
 16711680
370
    25
100
AcDbPolyline
 90
        2
 70
     0
 43
0.0
 10
-25.90767062500026
 20
-29.01455562500007
 10
-25.90767062500026
 20
-30.66061687499996
  0
LWPOLYLINE
  5
82
330
F7
100
AcDbEntity
  8
Cuts
 62
     1
420
 16711680
370
    25
100
AcDbPolyline
 90
        2
 70
     0
 43
0.0
 10
-25.90767062500026
 20
-26.13377187500009
 10
-25.90767062500026
 20
-27.77983312499998
  0
LWPOLYLINE
  5
83
330
F7
100
AcDbEntity
  8
Cuts
 62
     1
420
 16711680
370
    25
100
AcDbPolyline
 90
        2
 70
     0
 43
0.0
 10
-25.90767062500026
 20
-23.25298812500012
 10
-25.90767062500026
 20
-24.899049375
  0
LWPOLYLINE
  5
84
330
F7
100
AcDbEntity
  8
Cuts
 62
     1
420
 16711680
370
    25
100
AcDbPolyline
 90
        2
 70
     0
 43
0.0
 10
-25.90767062500026
 20
-20.37220562499999
 10
-25.90767062500026
 20
-22.01826687499999
  0
LWPOLYLINE
  5
85
330
F7
100
AcDbEntity
  8
Cuts
 62
     1
420
 16711680
370
    25
100
AcDbPolyline
 90
        2
 70
     0
 43
0.0
 10
-25.90767062500026
 20
-17.49177437500009
 10
-25.90767062500026
 20
-19.13783562499998
  0
LWPOLYLINE
  5
86
330
F7
100
AcDbEntity
  8
Cuts
 62
     1
420
 16711680
370
    25
100
AcDbPolyline
 90
        2
 70
     0
 43
0.0
 10
-25.90767062500026
 20
-14.61099187499997
 10
-25.90767062500026
 20
-16.257051875
  0
LWPOLYLINE
  5
87
330
F7
100
AcDbEntity
  8
Cuts
 62
     1
420
 16711680
370
    25
100
AcDbPolyline
 90
        2
 70
     0
 43
0.0
 10
-25.90767062500026
 20
-11.73020812499999
 10
-25.90767062500026
 20
-13.37626937499999
  0
LWPOLYLINE
  5
88
330
F7
100
AcDbEntity
  8
Cuts
 62
     1
420
 16711680
370
    25
100
AcDbPolyline
 90
        2
 70
     0
 43
0.0
 10
-25.90767062500026
 20
-8.849424375000012
 10
-25.90767062500026
 20
-10.49548562500013
  0
LWPOLYLINE
  5
89
330
F7
100
AcDbEntity
  8
Cuts
 62
     1
420
 16711680
370
    25
100
AcDbPolyline
 90
        2
 70
     0
 43
0.0
 10
-25.90767062500026
 20
-5.968641875000003
 10
-25.90767062500026
 20
-7.614701875000037
  0
LWPOLYLINE
  5
8A
330
F7
100
AcDbEntity
  8
Cuts
 62
     1
420
 16711680
370
    25
100
AcDbPolyline
 90
        2
 70
     0
 43
0.0
 10
-25.90767062500026
 20
-3.087858125000025
 10
-25.90767062500026
 20
-4.733919374999914
  0
LWPOLYLINE
  5
8B
330
F7
100
AcDbEntity
  8
Cuts
 62
     1
420
 16711680
370
    25
100
AcDbPolyline
 90
        2
 70
     0
 43
0.0
 10
-25.90767062500026
 20
-0.2070743750000474
 10
-25.90767062500026
 20
-1.85313562500005
  0
LWPOLYLINE
  5
8C
330
F7
100
AcDbEntity
  8
Cuts
 62
     1
420
 16711680
370
    25
100
AcDbPolyline
 90
        2
 70
     0
 43
0.0
 10
-25.90767062500026
 20
2.673708124999962
 10
-25.90767062500026
 20
1.027648124999928
  0
LWPOLYLINE
  5
8D
330
F7
100
AcDbEntity
  8
Cuts
 62
     1
420
 16711680
370
    25
100
AcDbPolyline
 90
        2
 70
     0
 43
0.0
 10
-15.90712562500016
 20
-43.41847187500002
 10
-15.90712562500016
 20
-45.06453312500003
  0
LWPOLYLINE
  5
8E
330
F7
100
AcDbEntity
  8
Cuts
 62
     1
420
 16711680
370
    25
100
AcDbPolyline
 90
        2
 70
     0
 43
0.0
 10
-15.90712562500016
 20
-40.53768812499993
 10
-15.90712562500016
 20
-42.18374937500005
  0
LWPOLYLINE
  5
8F
330
F7
100
AcDbEntity
  8
Cuts
 62
     1
420
 16711680
370
    25
100
AcDbPolyline
 90
        2
 70
     0
 43
0.0
 10
-15.90712562500016
 20
-37.65690562500004
 10
-15.90712562500016
 20
-39.30296687500004
  0
LWPOLYLINE
  5
90
330
F7
100
AcDbEntity
  8
Cuts
 62
     1
420
 16711680
370
    25
100
AcDbPolyline
 90
        2
 70
     0
 43
0.0
 10
-15.90712562500016
 20
-34.77612187499994
 10
-15.90712562500016
 20
-36.42218312500006
  0
SPLINE
  5
91
330
F7
100
AcDbEntity
  8
Cuts
 62
     1
420
 16711680
370
    25
100
AcDbSpline
210
0.0
220
0.0
230
1.0
 70
     8
 71
     3
 72
     8
 73
     4
 74
     0
 42
0.000000001
 43
0.001
 12
1.0
 22
0.0
 32
0.0
 13
1.0
 23
0.0
 33
0.0
 40
0.0
 40
0.0
 40
0.0
 40
0.0
 40
1.0
 40
1.0
 40
1.0
 40
1.0
 10
42.6546556249998
 20
89.71598437500006
 30
0.0
 10
42.6546556249998
 20
88.88774312500004
 30
0.0
 10
41.98324812499982
 20
88.21632562500008
 30
0.0
 10
41.15499687499982
 20
88.21632562500008
 30
0.0
  0
LWPOLYLINE
  5
92
330
F7
100
AcDbEntity
  8
Cuts
 62
     1
420
 16711680
370
    25
100
AcDbPolyline
 90
        2
 70
     0
 43
0.0
 10
-15.90712562500016
 20
-31.89533812500008
 10
-15.90712562500016
 20
-33.54139937500008
  0
SPLINE
  5
93
330
F7
100
AcDbEntity
  8
Cuts
 62
     1
420
 16711680
370
    25
100
AcDbSpline
210
0.0
220
0.0
230
1.0
 70
     8
 71
     3
 72
     8
 73
     4
 74
     0
 42
0.000000001
 43
0.001
 12
1.0
 22
0.0
 32
0.0
 13
1.0
 23
0.0
 33
0.0
 40
0.0
 40
0.0
 40
0.0
 40
0.0
 40
1.0
 40
1.0
 40
1.0
 40
1.0
 10
41.15499687499982
 20
88.21632562500008
 30
0.0
 10
40.32678062499986
 20
88.21632562500008
 30
0.0
 10
39.65533812499984
 20
88.88774312500004
 30
0.0
 10
39.65533812499984
 20
89.71598437500006
 30
0.0
  0
LWPOLYLINE
  5
94
330
F7
100
AcDbEntity
  8
Cuts
 62
     1
420
 16711680
370
    25
100
AcDbPolyline
 90
        2
 70
     0
 43
0.0
 10
-15.90712562500016
 20
-29.01455562500007
 10
-15.90712562500016
 20
-30.66061687499996
  0
SPLINE
  5
95
330
F7
100
AcDbEntity
  8
Cuts
 62
     1
420
 16711680
370
    25
100
AcDbSpline
210
0.0
220
0.0
230
1.0
 70
     8
 71
     3
 72
     8
 73
     4
 74
     0
 42
0.000000001
 43
0.001
 12
1.0
 22
0.0
 32
0.0
 13
1.0
 23
0.0
 33
0.0
 40
0.0
 40
0.0
 40
0.0
 40
0.0
 40
1.0
 40
1.0
 40
1.0
 40
1.0
 10
39.65533812499984
 20
89.71598437500006
 30
0.0
 10
39.65533812499984
 20
90.54422187499995
 30
0.0
 10
40.32678062499986
 20
91.21564312500004
 30
0.0
 10
41.15499687499982
 20
91.21564312500004
 30
0.0
  0
LWPOLYLINE
  5
96
330
F7
100
AcDbEntity
  8
Cuts
 62
     1
420
 16711680
370
    25
100
AcDbPolyline
 90
        2
 70
     0
 43
0.0
 10
-15.90712562500016
 20
-26.13377187500009
 10
-15.90712562500016
 20
-27.77983312499998
  0
SPLINE
  5
97
330
F7
100
AcDbEntity
  8
Cuts
 62
     1
420
 16711680
370
    25
100
AcDbSpline
210
0.0
220
0.0
230
1.0
 70
     8
 71
     3
 72
     8
 73
     4
 74
     0
 42
0.000000001
 43
0.001
 12
1.0
 22
0.0
 32
0.0
 13
1.0
 23
0.0
 33
0.0
 40
0.0
 40
0.0
 40
0.0
 40
0.0
 40
1.0
 40
1.0
 40
1.0
 40
1.0
 10
41.15499687499982
 20
91.21564312500004
 30
0.0
 10
41.98324812499982
 20
91.21564312500004
 30
0.0
 10
42.6546556249998
 20
90.54422187499995
 30
0.0
 10
42.6546556249998
 20
89.71598437500006
 30
0.0
  0
LWPOLYLINE
  5
98
330
F7
100
AcDbEntity
  8
Cuts
 62
     1
420
 16711680
370
    25
100
AcDbPolyline
 90
        2
 70
     0
 43
0.0
 10
-15.90712562500016
 20
-23.25298812500012
 10
-15.90712562500016
 20
-24.899049375
  0
LWPOLYLINE
  5
99
330
F7
100
AcDbEntity
  8
Cuts
 62
     1
420
 16711680
370
    25
100
AcDbPolyline
 90
        2
 70
     0
 43
0.0
 10
-15.90712562500016
 20
-20.37220562499999
 10
-15.90712562500016
 20
-22.01826687499999
  0
LWPOLYLINE
  5
9A
330
F7
100
AcDbEntity
  8
Cuts
 62
     1
420
 16711680
370
    25
100
AcDbPolyline
 90
        2
 70
     0
 43
0.0
 10
10.10741312499977
 20
64.0150618749999
 10
8.756274374999748
 20
64.50189437499989
  0
LWPOLYLINE
  5
9B
330
F7
100
AcDbEntity
  8
Cuts
 62
     1
420
 16711680
370
    25
100
AcDbPolyline
 90
        2
 70
     0
 43
0.0
 10
-15.90712562500016
 20
-17.49177437500009
 10
-15.90712562500016
 20
-19.13783562499998
  0
LWPOLYLINE
  5
9C
330
F7
100
AcDbEntity
  8
Cuts
 62
     1
420
 16711680
370
    25
100
AcDbPolyline
 90
        2
 70
     0
 43
0.0
 10
7.750504374999764
 20
64.96156437500008
 10
5.868435624999847
 20
65.64101437499994
  0
LWPOLYLINE
  5
9D
330
F7
100
AcDbEntity
  8
Cuts
 62
     1
420
 16711680
370
    25
100
AcDbPolyline
 90
        2
 70
     0
 43
0.0
 10
-15.90712562500016
 20
-14.61099187499997
 10
-15.90712562500016
 20
-16.257051875
  0
LWPOLYLINE
  5
9E
330
F7
100
AcDbEntity
  8
Cuts
 62
     1
420
 16711680
370
    25
100
AcDbPolyline
 90
        2
 70
     0
 43
0.0
 10
4.569506874999888
 20
66.17441437499997
 10
2.68849562499986
 20
66.85386437500006
  0
LWPOLYLINE
  5
9F
330
F7
100
AcDbEntity
  8
Cuts
 62
     1
420
 16711680
370
    25
100
AcDbPolyline
 90
        2
 70
     0
 43
0.0
 10
-15.90712562500016
 20
-11.73020812499999
 10
-15.90712562500016
 20
-13.37626937499999
  0
LWPOLYLINE
  5
A0
330
F7
100
AcDbEntity
  8
Cuts
 62
     1
420
 16711680
370
    25
100
AcDbPolyline
 90
        2
 70
     0
 43
0.0
 10
0.8074856249997993
 20
67.53260812500002
 10
-1.074231875000123
 20
68.21205812499988
  0
LWPOLYLINE
  5
A1
330
F7
100
AcDbEntity
  8
Cuts
 62
     1
420
 16711680
370
    25
100
AcDbPolyline
 90
        2
 70
     0
 43
0.0
 10
-15.90712562500016
 20
-8.849424375000012
 10
-15.90712562500016
 20
-10.49548562500013
  0
LWPOLYLINE
  5
A2
330
F7
100
AcDbEntity
  8
Cuts
 62
     1
420
 16711680
370
    25
100
AcDbPolyline
 90
        2
 70
     0
 43
0.0
 10
-2.913261875000217
 20
68.91937812499987
 10
-4.243939375000082
 20
69.45665812499988
  0
LWPOLYLINE
  5
A3
330
F7
100
AcDbEntity
  8
Cuts
 62
     1
420
 16711680
370
    25
100
AcDbPolyline
 90
        2
 70
     0
 43
0.0
 10
-15.90712562500016
 20
-5.968641875000003
 10
-15.90712562500016
 20
-7.614701875000037
  0
LWPOLYLINE
  5
A4
330
F7
100
AcDbEntity
  8
Cuts
 62
     1
420
 16711680
370
    25
100
AcDbPolyline
 90
        2
 70
     0
 43
0.0
 10
-6.097786875000111
 20
70.20595812500005
 10
-7.951986875000102
 20
70.955258125
  0
LWPOLYLINE
  5
A5
330
F7
100
AcDbEntity
  8
Cuts
 62
     1
420
 16711680
370
    25
100
AcDbPolyline
 90
        2
 70
     0
 43
0.0
 10
-15.90712562500016
 20
-3.087858125000025
 10
-15.90712562500016
 20
-4.733919374999914
  0
LWPOLYLINE
  5
A6
330
F7
100
AcDbEntity
  8
Cuts
 62
     1
420
 16711680
370
    25
100
AcDbPolyline
 90
        2
 70
     0
 43
0.0
 10
-9.806893125000215
 20
71.70455812499995
 10
-11.66144562500017
 20
72.4538581249999
  0
LWPOLYLINE
  5
A7
330
F7
100
AcDbEntity
  8
Cuts
 62
     1
420
 16711680
370
    25
100
AcDbPolyline
 90
        2
 70
     0
 43
0.0
 10
-15.90712562500016
 20
-0.2070743750000474
 10
-15.90712562500016
 20
-1.85313562500005
  0
LWPOLYLINE
  5
A8
330
F7
100
AcDbEntity
  8
Cuts
 62
     1
420
 16711680
370
    25
100
AcDbPolyline
 90
        2
 70
     0
 43
0.0
 10
-13.51564562500016
 20
73.20386437499997
 10
-15.36984562500015
 20
73.95281187499995
  0
LWPOLYLINE
  5
A9
330
F7
100
AcDbEntity
  8
Cuts
 62
     1
420
 16711680
370
    25
100
AcDbPolyline
 90
        2
 70
     0
 43
0.0
 10
-15.90712562500016
 20
2.673708124999962
 10
-15.90712562500016
 20
1.027648124999928
  0
LWPOLYLINE
  5
AA
330
F7
100
AcDbEntity
  8
Cuts
 62
     1
420
 16711680
370
    25
100
AcDbPolyline
 90
        2
 70
     0
 43
0.0
 10
-17.22404562500014
 20
74.7021118749999
 10
-19.07965687500018
 20
75.45105812499992
  0
LWPOLYLINE
  5
AB
330
F7
100
AcDbEntity
  8
Cuts
 62
     1
420
 16711680
370
    25
100
AcDbPolyline
 90
        2
 70
     0
 43
0.0
 10
31.31606062499986
 20
-46.19518562500002
 10
32.9621206249999
 20
-46.19518562500002
  0
LWPOLYLINE
  5
AC
330
F7
100
AcDbEntity
  8
Cuts
 62
     1
420
 16711680
370
    25
100
AcDbPolyline
 90
        2
 70
     0
 43
0.0
 10
-20.93385687500017
 20
76.20071187500002
 10
-22.06768437500023
 20
76.6593231249999
  0
LWPOLYLINE
  5
AD
330
F7
100
AcDbEntity
  8
Cuts
 62
     1
420
 16711680
370
    25
100
AcDbPolyline
 90
        2
 70
     0
 43
0.0
 10
28.43527687499977
 20
-46.19518562500002
 10
30.08133812499977
 20
-46.19518562500002
  0
LWPOLYLINE
  5
AE
330
F7
100
AcDbEntity
  8
Cuts
 62
     1
420
 16711680
370
    25
100
AcDbPolyline
 90
        2
 70
     0
 43
0.0
 10
6.663595624999743
 20
106.292303125
 10
4.183920624999928
 20
107.487514375
  0
LWPOLYLINE
  5
AF
330
F7
100
AcDbEntity
  8
Cuts
 62
     1
420
 16711680
370
    25
100
AcDbPolyline
 90
        2
 70
     0
 43
0.0
 10
2.205543124999849
 20
107.7820831249999
 10
0.2278706249999232
 20
108.0787693749999
  0
LWPOLYLINE
  5
B0
330
F7
100
AcDbEntity
  8
Cuts
 62
     1
420
 16711680
370
    25
100
AcDbPolyline
 90
        2
 70
     0
 43
0.0
 10
-1.750154375000193
 20
108.3747506249999
 10
-3.72782562500015
 20
108.671083125
  0
LWPOLYLINE
  5
B1
330
F7
100
AcDbEntity
  8
Cuts
 62
     1
420
 16711680
370
    25
100
AcDbPolyline
 90
        2
 70
     0
 43
0.0
 10
-5.705850625000267
 20
108.966005625
 10
-7.683523125000193
 20
109.2616331249999
  0
LWPOLYLINE
  5
B2
330
F7
100
AcDbEntity
  8
Cuts
 62
     1
420
 16711680
370
    25
100
AcDbPolyline
 90
        2
 70
     0
 43
0.0
 10
-9.662606875000165
 20
109.5579668749999
 10
-12.12534812500007
 20
109.9756556249999
  0
LWPOLYLINE
  5
B3
330
F7
100
AcDbEntity
  8
Text
 62
     5
420
      255
370
    25
100
AcDbPolyline
 90
        2
 70
     0
 43
0.0
 10
0.3012493749997702
 20
60.40826187499988
 10
-17.85234312500006
 20
56.58944187499992
  0
LWPOLYLINE
  5
B4
330
F7
100
AcDbEntity
  8
Text
 62
     5
420
      255
370
    25
100
AcDbPolyline
 90
        2
 70
     0
 43
0.0
 10
8.46452687499982
 20
106.104273125
 10
-1.752270625000165
 20
68.38280312500001
  0
LWPOLYLINE
  5
B5
330
F7
100
AcDbEntity
  8
Cuts
 62
     1
420
 16711680
370
    25
100
AcDbPolyline
 90
       12
 70
     0
 43
0.0
 10
-1.752270625000165
 20
68.38280312500001
 10
1.379338124999776
 20
56.51147812499994
 10
-16.93088687500017
 20
52.62774812499993
 10
-18.63656812500017
 20
60.98364187499988
 10
-28.81843937500025
 20
58.499028125
 10
-23.26077937500008
 20
77.33030562499994
 10
-13.86066187500023
 20
110.233889375
 10
-9.806539375000057
 20
127.398291875
 10
-1.006850625000197
 20
120.1476506249999
 10
5.543879374999733
 20
126.437678125
 10
16.19247687499978
 20
114.895141875
 10
8.464879374999782
 20
106.1046256249999
  0
LWPOLYLINE
  5
B6
330
F7
100
AcDbEntity
  8
Text
 62
     5
420
      255
370
    25
100
AcDbPolyline
 90
        2
 70
     0
 43
0.0
 10
1.342966874999775
 20
122.4117706249999
 10
12.2763256249998
 20
111.4770781249999
  0
LWPOLYLINE
  5
B7
330
F7
100
AcDbEntity
  8
Cuts
 62
     1
420
 16711680
370
    25
100
AcDbPolyline
 90
        8
 70
     0
 43
0.0
 10
35.86019062499986
 20
126.2708143749999
 10
54.41242062499987
 20
126.2708143749999
 10
54.27342687499981
 20
85.67208937500004
 10
44.41152437499977
 20
83.55542312500006
 10
10.88599312499991
 20
83.79072562500005
 10
10.88599312499991
 20
63.68874187500001
 10
9.022974374999876
 20
58.499028125
 10
-0.0772818750001534
 20
62.96766437499991
  0
LWPOLYLINE
  5
B8
330
F7
100
AcDbEntity
  8
Cuts
 62
     1
420
 16711680
370
    25
100
AcDbPolyline
 90
        2
 70
     0
 43
0.0
 10
25.55449312499991
 20
-46.19871312500004
 10
27.20055437499991
 20
-46.19871312500004
  0
LWPOLYLINE
  5
B9
330
F7
100
AcDbEntity
  8
Cuts
 62
     1
420
 16711680
370
    25
100
AcDbPolyline
 90
        2
 70
     0
 43
0.0
 10
22.67371062499979
 20
-46.19871312500004
 10
24.31977062499982
 20
-46.19871312500004
  0
LWPOLYLINE
  5
BA
330
F7
100
AcDbEntity
  8
Cuts
 62
     1
420
 16711680
370
    25
100
AcDbPolyline
 90
        2
 70
     0
 43
0.0
 10
19.79292687499992
 20
-46.19871312500004
 10
21.43898812499992
 20
-46.19871312500004
  0
LWPOLYLINE
  5
BB
330
F7
100
AcDbEntity
  8
Cuts
 62
     1
420
 16711680
370
    25
100
AcDbPolyline
 90
        2
 70
     0
 43
0.0
 10
16.91214312499983
 20
-46.19871312500004
 10
18.55820437499983
 20
-46.19871312500004
  0
LWPOLYLINE
  5
BC
330
F7
100
AcDbEntity
  8
Cuts
 62
     1
420
 16711680
370
    25
100
AcDbPolyline
 90
        2
 70
     0
 43
0.0
 10
14.03136062499993
 20
-46.19871312500004
 10
15.67742062499974
 20
-46.19871312500004
  0
LWPOLYLINE
  5
BD
330
F7
100
AcDbEntity
  8
Cuts
 62
     1
420
 16711680
370
    25
100
AcDbPolyline
 90
        2
 70
     0
 43
0.0
 10
11.15057687499984
 20
-46.19871312500004
 10
12.79663812499984
 20
-46.19871312500004
  0
LWPOLYLINE
  5
BE
330
F7
100
AcDbEntity
  8
Cuts
 62
     1
420
 16711680
370
    25
100
AcDbPolyline
 90
        2
 70
     0
 43
0.0
 10
8.269793124999751
 20
-46.19871312500004
 10
9.915854374999753
 20
-46.19871312500004
  0
LWPOLYLINE
  5
BF
330
F7
100
AcDbEntity
  8
Cuts
 62
     1
420
 16711680
370
    25
100
AcDbPolyline
 90
        2
 70
     0
 43
0.0
 10
5.389010624999855
 20
-46.19871312500004
 10
7.035070624999889
 20
-46.19871312500004
  0
LWPOLYLINE
  5
C0
330
F7
100
AcDbEntity
  8
Cuts
 62
     1
420
 16711680
370
    25
100
AcDbPolyline
 90
        2
 70
     0
 43
0.0
 10
2.508226874999764
 20
-46.19871312500004
 10
4.154288124999766
 20
-46.19871312500004
  0
LWPOLYLINE
  5
C1
330
F7
100
AcDbEntity
  8
Cuts
 62
     1
420
 16711680
370
    25
100
AcDbPolyline
 90
        2
 70
     0
 43
0.0
 10
-0.3725568750001003
 20
-46.19871312500004
 10
1.273504374999902
 20
-46.19871312500004
  0
LWPOLYLINE
  5
C2
330
F7
100
AcDbEntity
  8
Cuts
 62
     1
420
 16711680
370
    25
100
AcDbPolyline
 90
        2
 70
     0
 43
0.0
 10
-3.253339375000223
 20
-46.19871312500004
 10
-1.607279375000189
 20
-46.19871312500004
  0
LWPOLYLINE
  5
C3
330
F7
100
AcDbEntity
  8
Cuts
 62
     1
420
 16711680
370
    25
100
AcDbPolyline
 90
        2
 70
     0
 43
0.0
 10
-6.134123125000087
 20
-46.19871312500004
 10
-4.488061875000085
 20
-46.19871312500004
  0
LWPOLYLINE
  5
C4
330
F7
100
AcDbEntity
  8
Cuts
 62
     1
420
 16711680
370
    25
100
AcDbPolyline
 90
        2
 70
     0
 43
0.0
 10
-9.014906875000179
 20
-46.19871312500004
 10
-7.368845625000176
 20
-46.19871312500004
  0
LWPOLYLINE
  5
C5
330
F7
100
AcDbEntity
  8
Cuts
 62
     1
420
 16711680
370
    25
100
AcDbPolyline
 90
        2
 70
     0
 43
0.0
 10
-11.89568937500007
 20
-46.19871312500004
 10
-10.24962937500027
 20
-46.19871312500004
  0
LWPOLYLINE
  5
C6
330
F7
100
AcDbEntity
  8
Cuts
 62
     1
420
 16711680
370
    25
100
AcDbPolyline
 90
        2
 70
     0
 43
0.0
 10
-14.77647312500017
 20
-46.19871312500004
 10
-13.13041187500016
 20
-46.19871312500004
  0
LWPOLYLINE
  5
C7
330
F7
100
AcDbEntity
  8
Cuts
 62
     1
420
 16711680
370
    25
100
AcDbPolyline
 90
        2
 70
     0
 43
0.0
 10
31.31606062499986
 20
3.801539374999948
 10
32.9621206249999
 20
3.801539374999948
  0
LWPOLYLINE
  5
C8
330
F7
100
AcDbEntity
  8
Cuts
 62
     1
420
 16711680
370
    25
100
AcDbPolyline
 90
        2
 70
     0
 43
0.0
 10
28.43527687499977
 20
3.801539374999948
 10
30.08133812499977
 20
3.801539374999948
  0
LWPOLYLINE
  5
C9
330
F7
100
AcDbEntity
  8
Cuts
 62
     1
420
 16711680
370
    25
100
AcDbPolyline
 90
        2
 70
     0
 43
0.0
 10
25.55449312499991
 20
3.801539374999948
 10
27.20055437499991
 20
3.801539374999948
  0
LWPOLYLINE
  5
CA
330
F7
100
AcDbEntity
  8
Cuts
 62
     1
420
 16711680
370
    25
100
AcDbPolyline
 90
        2
 70
     0
 43
0.0
 10
22.67371062499979
 20
3.801539374999948
 10
24.31977062499982
 20
3.801539374999948
  0
LWPOLYLINE
  5
CB
330
F7
100
AcDbEntity
  8
Cuts
 62
     1
420
 16711680
370
    25
100
AcDbPolyline
 90
        2
 70
     0
 43
0.0
 10
19.79292687499992
 20
3.801539374999948
 10
21.43898812499992
 20
3.801539374999948
  0
LWPOLYLINE
  5
CC
330
F7
100
AcDbEntity
  8
Cuts
 62
     1
420
 16711680
370
    25
100
AcDbPolyline
 90
        2
 70
     0
 43
0.0
 10
16.91214312499983
 20
3.801539374999948
 10
18.55820437499983
 20
3.801539374999948
  0
LWPOLYLINE
  5
CD
330
F7
100
AcDbEntity
  8
Cuts
 62
     1
420
 16711680
370
    25
100
AcDbPolyline
 90
        2
 70
     0
 43
0.0
 10
14.03136062499993
 20
3.801539374999948
 10
15.67742062499974
 20
3.801539374999948
  0
LWPOLYLINE
  5
CE
330
F7
100
AcDbEntity
  8
Cuts
 62
     1
420
 16711680
370
    25
100
AcDbPolyline
 90
        2
 70
     0
 43
0.0
 10
11.15057687499984
 20
3.801539374999948
 10
12.79663812499984
 20
3.801539374999948
  0
LWPOLYLINE
  5
CF
330
F7
100
AcDbEntity
  8
Cuts
 62
     1
420
 16711680
370
    25
100
AcDbPolyline
 90
        2
 70
     0
 43
0.0
 10
8.269793124999751
 20
3.801539374999948
 10
9.915854374999753
 20
3.801539374999948
  0
LWPOLYLINE
  5
D0
330
F7
100
AcDbEntity
  8
Cuts
 62
     1
420
 16711680
370
    25
100
AcDbPolyline
 90
        2
 70
     0
 43
0.0
 10
5.389010624999855
 20
3.801539374999948
 10
7.035070624999889
 20
3.801539374999948
  0
LWPOLYLINE
  5
D1
330
F7
100
AcDbEntity
  8
Cuts
 62
     1
420
 16711680
370
    25
100
AcDbPolyline
 90
        2
 70
     0
 43
0.0
 10
2.508226874999764
 20
3.801539374999948
 10
4.154288124999766
 20
3.801539374999948
  0
LWPOLYLINE
  5
D2
330
F7
100
AcDbEntity
  8
Cuts
 62
     1
420
 16711680
370
    25
100
AcDbPolyline
 90
        2
 70
     0
 43
0.0
 10
-0.3725568750001003
 20
3.801539374999948
 10
1.273504374999902
 20
3.801539374999948
  0
LWPOLYLINE
  5
D3
330
F7
100
AcDbEntity
  8
Cuts
 62
     1
420
 16711680
370
    25
100
AcDbPolyline
 90
        2
 70
     0
 43
0.0
 10
-3.253339375000223
 20
3.801539374999948
 10
-1.607279375000189
 20
3.801539374999948
  0
LWPOLYLINE
  5
D4
330
F7
100
AcDbEntity
  8
Cuts
 62
     1
420
 16711680
370
    25
100
AcDbPolyline
 90
        2
 70
     0
 43
0.0
 10
-6.134123125000087
 20
3.801539374999948
 10
-4.488061875000085
 20
3.801539374999948
  0
LWPOLYLINE
  5
D5
330
F7
100
AcDbEntity
  8
Cuts
 62
     1
420
 16711680
370
    25
100
AcDbPolyline
 90
        2
 70
     0
 43
0.0
 10
-9.014906875000179
 20
3.801539374999948
 10
-7.368845625000176
 20
3.801539374999948
  0
LWPOLYLINE
  5
D6
330
F7
100
AcDbEntity
  8
Cuts
 62
     1
420
 16711680
370
    25
100
AcDbPolyline
 90
        2
 70
     0
 43
0.0
 10
-11.89568937500007
 20
3.801539374999948
 10
-10.24962937500027
 20
3.801539374999948
  0
LWPOLYLINE
  5
D7
330
F7
100
AcDbEntity
  8
Cuts
 62
     1
420
 16711680
370
    25
100
AcDbPolyline
 90
        2
 70
     0
 43
0.0
 10
-14.77647312500017
 20
3.801539374999948
 10
-13.13041187500016
 20
3.801539374999948
  0
LWPOLYLINE
  5
D8
330
F7
100
AcDbEntity
  8
Cuts
 62
     1
420
 16711680
370
    25
100
AcDbPolyline
 90
        2
 70
     0
 43
0.0
 10
34.09277437499986
 20
-43.42199937500004
 10
34.09277437499986
 20
-45.06806062500004
  0
ENDSEC
  0
SECTION
  2
OBJECTS
  0
DICTIONARY
  5
E5
330
0
100
AcDbDictionary
281
     1
  3
ACAD_GROUP
350
E6
  3
ACAD_LAYOUT
350
F2
  3
ACAD_MATERIAL
350
113
  3
ACAD_MLEADERSTYLE
350
131
  3
ACAD_MLINESTYLE
350
EF
  3
ACAD_PLOTSETTINGS
350
F1
  3
ACAD_PLOTSTYLENAME
350
E7
  3
ACAD_TABLESTYLE
350
130
  3
ACAD_VISUALSTYLE
350
102
  3
QCAD_OBJECTS
350
118
  0
DICTIONARY
  5
E6
102
{ACAD_REACTORS
330
E5
102
}
330
E5
100
AcDbDictionary
281
     1
  0
DICTIONARY
  5
F2
102
{ACAD_REACTORS
330
E5
102
}
330
E5
100
AcDbDictionary
281
     1
  3
Layout1
350
F6
  3
Layout2
350
FE
  3
Model
350
FA
  0
DICTIONARY
  5
113
102
{ACAD_REACTORS
330
E5
102
}
330
E5
100
AcDbDictionary
281
     1
  3
ByBlock
350
115
  3
ByLayer
350
114
  3
Global
350
116
  0
DICTIONARY
  5
131
102
{ACAD_REACTORS
330
E5
102
}
330
E5
100
AcDbDictionary
281
     1
  0
DICTIONARY
  5
EF
102
{ACAD_REACTORS
330
E5
102
}
330
E5
100
AcDbDictionary
281
     1
  3
Standard
350
F0
  0
DICTIONARY
  5
F1
102
{ACAD_REACTORS
330
E5
102
}
330
E5
100
AcDbDictionary
281
     1
  0
ACDBDICTIONARYWDFLT
  5
E7
102
{ACAD_REACTORS
330
E5
102
}
330
E5
100
AcDbDictionary
281
     1
  3
Normal
350
E8
100
AcDbDictionaryWithDefault
340
E8
  0
DICTIONARY
  5
130
102
{ACAD_REACTORS
330
E5
102
}
330
E5
100
AcDbDictionary
281
     1
  0
DICTIONARY
  5
102
102
{ACAD_REACTORS
330
E5
102
}
330
E5
100
AcDbDictionary
281
     1
  3
2dWireframe
350
107
  3
3D Hidden
350
109
  3
3dWireframe
350
108
  3
Basic
350
10A
  3
Brighten
350
10E
  3
ColorChange
350
112
  3
Conceptual
350
10C
  3
Dim
350
10D
  3
Facepattern
350
111
  3
Flat
350
103
  3
FlatWithEdges
350
104
  3
Gouraud
350
105
  3
GouraudWithEdges
350
106
  3
Linepattern
350
110
  3
Realistic
350
10B
  3
Thicken
350
10F
  0
DICTIONARY
  5
118
102
{ACAD_REACTORS
330
E5
102
}
330
E5
100
AcDbDictionary
281
     1
  3
Grid/DisplayGrid
350
119
  3
PageSettings/Scale
350
11A
  0
LAYOUT
  5
F6
102
{ACAD_REACTORS
330
F2
102
}
330
F2
100
AcDbPlotSettings
  1

  2
none_device
  4

  6

 40
0.0
 41
0.0
 42
0.0
 43
0.0
 44
0.0
 45
0.0
 46
0.0
 47
0.0
 48
0.0
 49
0.0
140
0.0
141
0.0
142
1.0
143
1.0
 70
   688
 72
     0
 73
     0
 74
     5
  7

 75
    16
 76
     0
 77
     2
 78
   300
147
1.0
148
0.0
149
0.0
100
AcDbLayout
  1
Layout1
 70
     1
 71
     1
 10
0.0
 20
0.0
 11
12.0
 21
9.0
 12
0.0
 22
0.0
 32
0.0
 14
1.000000000000000E+20
 24
1.000000000000000E+20
 34
1.000000000000000E+20
 15
-1.000000000000000E+20
 25
-1.000000000000000E+20
 35
-1.000000000000000E+20
146
0.0
 13
0.0
 23
0.0
 33
0.0
 16
1.0
 26
0.0
 36
0.0
 17
0.0
 27
1.0
 37
0.0
 76
     0
330
F3
  0
LAYOUT
  5
FE
102
{ACAD_REACTORS
330
F2
102
}
330
F2
100
AcDbPlotSettings
  1

  2
none_device
  4

  6

 40
0.0
 41
0.0
 42
0.0
 43
0.0
 44
0.0
 45
0.0
 46
0.0
 47
0.0
 48
0.0
 49
0.0
140
0.0
141
0.0
142
1.0
143
1.0
 70
   688
 72
     0
 73
     0
 74
     5
  7

 75
    16
 76
     0
 77
     2
 78
   300
147
1.0
148
0.0
149
0.0
100
AcDbLayout
  1
Layout2
 70
     1
 71
     2
 10
0.0
 20
0.0
 11
0.0
 21
0.0
 12
0.0
 22
0.0
 32
0.0
 14
0.0
 24
0.0
 34
0.0
 15
0.0
 25
0.0
 35
0.0
146
0.0
 13
0.0
 23
0.0
 33
0.0
 16
1.0
 26
0.0
 36
0.0
 17
0.0
 27
1.0
 37
0.0
 76
     0
330
FB
  0
LAYOUT
  5
FA
102
{ACAD_REACTORS
330
F2
102
}
330
F2
100
AcDbPlotSettings
  1

  2
none_device
  4

  6

 40
0.0
 41
0.0
 42
0.0
 43
0.0
 44
0.0
 45
0.0
 46
0.0
 47
0.0
 48
0.0
 49
0.0
140
0.0
141
0.0
142
1.0
143
1.0
 70
  1712
 72
     0
 73
     0
 74
     0
  7

 75
     0
 76
     0
 77
     2
 78
   300
147
1.0
148
0.0
149
0.0
100
AcDbLayout
  1
Model
 70
     1
 71
     0
 10
0.0
 20
0.0
 11
12.0
 21
9.0
 12
0.0
 22
0.0
 32
0.0
 14
1.000000000000000E+20
 24
1.000000000000000E+20
 34
1.000000000000000E+20
 15
-1.000000000000000E+20
 25
-1.000000000000000E+20
 35
-1.000000000000000E+20
146
0.0
 13
0.0
 23
0.0
 33
0.0
 16
1.0
 26
0.0
 36
0.0
 17
0.0
 27
1.0
 37
0.0
 76
     0
330
F7
331
101
  0
MATERIAL
  5
115
102
{ACAD_REACTORS
330
113
102
}
330
113
100
AcDbMaterial
  1
ByBlock
 72
     1
 94
      127
  0
MATERIAL
  5
114
102
{ACAD_REACTORS
330
113
102
}
330
113
100
AcDbMaterial
  1
ByLayer
 72
     1
 94
      127
  0
MATERIAL
  5
116
102
{ACAD_REACTORS
330
113
102
}
330
113
100
AcDbMaterial
  1
Global
 72
     1
 94
      127
  0
MLINESTYLE
  5
F0
102
{ACAD_REACTORS
330
EF
102
}
330
EF
100
AcDbMlineStyle
  2
Standard
 70
     0
  3

 62
   256
 51
90.0
 52
90.0
 71
     2
 49
0.5
 62
   256
  6
BYLAYER
 49
-0.5
 62
   256
  6
BYLAYER
  0
ACDBPLACEHOLDER
  5
E8
102
{ACAD_REACTORS
330
E7
102
}
330
E7
  0
VISUALSTYLE
  5
107
102
{ACAD_REACTORS
330
102
102
}
330
102
100
AcDbVisualStyle
  2
2dWireframe
 70
     4
177
     2
291
     0
 71
     0
176
     1
 72
     2
176
     1
 73
     0
176
     1
 90
        0
176
     1
 40
-0.6
176
     1
 41
-30.0
176
     1
 62
     5
 63
     7
421
 16777215
176
     1
 74
     1
176
     1
 91
        4
176
     1
 64
     7
176
     1
 65
   257
176
     1
 75
     1
176
     1
175
     1
176
     1
 42
1.0
176
     1
 92
        0
176
     1
 66
   257
176
     1
 43
1.0
176
     1
 76
     1
176
     1
 77
     6
176
     1
 78
     2
176
     1
 67
     7
176
     1
 79
     5
176
     1
170
     0
176
     1
171
     0
176
     1
290
     0
176
     1
 93
        1
176
     1
 44
0.0
176
     1
173
     0
176
     1
  0
VISUALSTYLE
  5
109
102
{ACAD_REACTORS
330
102
102
}
330
102
100
AcDbVisualStyle
  2
3D Hidden
 70
     6
177
     2
291
     0
 71
     1
176
     1
 72
     2
176
     1
 73
     2
176
     1
 90
        0
176
     1
 40
-0.6
176
     1
 41
-30.0
176
     1
 62
     5
 63
     7
421
 16777215
176
     1
 74
     2
176
     1
 91
        2
176
     1
 64
     7
176
     1
 65
   257
176
     1
 75
     2
176
     1
175
     1
176
     1
 42
40.0
176
     1
 92
        0
176
     1
 66
   257
176
     1
 43
1.0
176
     1
 76
     1
176
     1
 77
     6
176
     1
 78
     2
176
     1
 67
     7
176
     1
 79
     3
176
     1
170
     0
176
     1
171
     0
176
     1
290
     0
176
     1
 93
        1
176
     1
 44
0.0
176
     1
173
     0
176
     1
  0
VISUALSTYLE
  5
108
102
{ACAD_REACTORS
330
102
102
}
330
102
100
AcDbVisualStyle
  2
3dWireframe
 70
     5
177
     2
291
     0
 71
     0
176
     1
 72
     2
176
     1
 73
     0
176
     1
 90
        0
176
     1
 40
-0.6
176
     1
 41
-30.0
176
     1
 62
     5
 63
     7
421
 16777215
176
     1
 74
     1
176
     1
 91
        4
176
     1
 64
     7
176
     1
 65
   257
176
     1
 75
     1
176
     1
175
     1
176
     1
 42
1.0
176
     1
 92
        0
176
     1
 66
   257
176
     1
 43
1.0
176
     1
 76
     1
176
     1
 77
     6
176
     1
 78
     2
176
     1
 67
     7
176
     1
 79
     5
176
     1
170
     0
176
     1
171
     0
176
     1
290
     0
176
     1
 93
        1
176
     1
 44
0.0
176
     1
173
     0
176
     1
  0
VISUALSTYLE
  5
10A
102
{ACAD_REACTORS
330
102
102
}
330
102
100
AcDbVisualStyle
  2
Basic
 70
     7
177
     2
291
     1
 71
     1
176
     1
 72
     0
176
     1
 73
     1
176
     1
 90
        0
176
     1
 40
-0.6
176
     1
 41
-30.0
176
     1
 62
     5
 63
     7
421
 16777215
176
     1
 74
     0
176
     1
 91
        4
176
     1
 64
     7
176
     1
 65
   257
176
     1
 75
     1
176
     1
175
     1
176
     1
 42
1.0
176
     1
 92
        8
176
     1
 66
     7
176
     1
 43
1.0
176
     1
 76
     1
176
     1
 77
     6
176
     1
 78
     2
176
     1
 67
     7
176
     1
 79
     5
176
     1
170
     0
176
     1
171
     0
176
     1
290
     0
176
     1
 93
        1
176
     1
 44
0.0
176
     1
173
     0
176
     1
  0
VISUALSTYLE
  5
10E
102
{ACAD_REACTORS
330
102
102
}
330
102
100
AcDbVisualStyle
  2
Brighten
 70
    12
177
     2
291
     1
 71
     2
176
     1
 72
     2
176
     1
 73
     0
176
     1
 90
        0
176
     1
 40
-0.6
176
     1
 41
-30.0
176
     1
 62
     5
 63
     7
421
 16777215
176
     1
 74
     1
176
     1
 91
        4
176
     1
 64
     7
176
     1
 65
   257
176
     1
 75
     1
176
     1
175
     1
176
     1
 42
1.0
176
     1
 92
        8
176
     1
 66
     7
176
     1
 43
1.0
176
     1
 76
     1
176
     1
 77
     6
176
     1
 78
     2
176
     1
 67
     7
176
     1
 79
     5
176
     1
170
     0
176
     1
171
     0
176
     1
290
     0
176
     1
 93
        1
176
     1
 44
50.0
176
     1
173
     0
176
     1
  0
VISUALSTYLE
  5
112
102
{ACAD_REACTORS
330
102
102
}
330
102
100
AcDbVisualStyle
  2
ColorChange
 70
    16
177
     2
291
     1
 71
     2
176
     1
 72
     2
176
     1
 73
     3
176
     1
 90
        0
176
     1
 40
-0.6
176
     1
 41
-30.0
176
     1
 62
     5
 63
     8
421
  8421504
176
     1
 74
     1
176
     1
 91
        4
176
     1
 64
     7
176
     1
 65
   257
176
     1
 75
     1
176
     1
175
     1
176
     1
 42
1.0
176
     1
 92
        8
176
     1
 66
     8
424
  8421504
176
     1
 43
1.0
176
     1
 76
     1
176
     1
 77
     6
176
     1
 78
     2
176
     1
 67
     7
176
     1
 79
     5
176
     1
170
     0
176
     1
171
     0
176
     1
290
     0
176
     1
 93
        1
176
     1
 44
0.0
176
     1
173
     0
176
     1
  0
VISUALSTYLE
  5
10C
102
{ACAD_REACTORS
330
102
102
}
330
102
100
AcDbVisualStyle
  2
Conceptual
 70
     9
177
     2
291
     0
 71
     3
176
     1
 72
     2
176
     1
 73
     0
176
     1
 90
        0
176
     1
 40
-0.6
176
     1
 41
-30.0
176
     1
 62
     5
 63
     7
421
 16777215
176
     1
 74
     2
176
     1
 91
        2
176
     1
 64
     7
176
     1
 65
   257
176
     1
 75
     1
176
     1
175
     1
176
     1
 42
40.0
176
     1
 92
        8
176
     1
 66
     7
176
     1
 43
1.0
176
     1
 76
     1
176
     1
 77
     6
176
     1
 78
     2
176
     1
 67
     7
176
     1
 79
     3
176
     1
170
     0
176
     1
171
     0
176
     1
290
     0
176
     1
 93
        1
176
     1
 44
0.0
176
     1
173
     0
176
     1
  0
VISUALSTYLE
  5
10D
102
{ACAD_REACTORS
330
102
102
}
330
102
100
AcDbVisualStyle
  2
Dim
 70
    11
177
     2
291
     1
 71
     2
176
     1
 72
     2
176
     1
 73
     0
176
     1
 90
        0
176
     1
 40
-0.6
176
     1
 41
-30.0
176
     1
 62
     5
 63
     7
421
 16777215
176
     1
 74
     1
176
     1
 91
        4
176
     1
 64
     7
176
     1
 65
   257
176
     1
 75
     1
176
     1
175
     1
176
     1
 42
1.0
176
     1
 92
        8
176
     1
 66
     7
176
     1
 43
1.0
176
     1
 76
     1
176
     1
 77
     6
176
     1
 78
     2
176
     1
 67
     7
176
     1
 79
     5
176
     1
170
     0
176
     1
171
     0
176
     1
290
     0
176
     1
 93
        1
176
     1
 44
-50.0
176
     1
173
     0
176
     1
  0
VISUALSTYLE
  5
111
102
{ACAD_REACTORS
330
102
102
}
330
102
100
AcDbVisualStyle
  2
Facepattern
 70
    15
177
     2
291
     1
 71
     2
176
     1
 72
     2
176
     1
 73
     0
176
     1
 90
        0
176
     1
 40
-0.6
176
     1
 41
-30.0
176
     1
 62
     5
 63
     7
421
 16777215
176
     1
 74
     1
176
     1
 91
        4
176
     1
 64
     7
176
     1
 65
   257
176
     1
 75
     1
176
     1
175
     1
176
     1
 42
1.0
176
     1
 92
        8
176
     1
 66
     7
176
     1
 43
1.0
176
     1
 76
     1
176
     1
 77
     6
176
     1
 78
     2
176
     1
 67
     7
176
     1
 79
     5
176
     1
170
     0
176
     1
171
     0
176
     1
290
     0
176
     1
 93
        1
176
     1
 44
0.0
176
     1
173
     0
176
     1
  0
VISUALSTYLE
  5
103
102
{ACAD_REACTORS
330
102
102
}
330
102
100
AcDbVisualStyle
  2
Flat
 70
     0
177
     2
291
     1
 71
     2
176
     1
 72
     1
176
     1
 73
     1
176
     1
 90
        2
176
     1
 40
-0.6
176
     1
 41
30.0
176
     1
 62
     5
 63
     7
421
 16777215
176
     1
 74
     0
176
     1
 91
        4
176
     1
 64
     7
176
     1
 65
   257
176
     1
 75
     1
176
     1
175
     1
176
     1
 42
1.0
176
     1
 92
        8
176
     1
 66
     7
176
     1
 43
1.0
176
     1
 76
     1
176
     1
 77
     6
176
     1
 78
     2
176
     1
 67
     7
176
     1
 79
     5
176
     1
170
     0
176
     1
171
     0
176
     1
290
     0
176
     1
 93
       13
176
     1
 44
0.0
176
     1
173
     0
176
     1
  0
VISUALSTYLE
  5
104
102
{ACAD_REACTORS
330
102
102
}
330
102
100
AcDbVisualStyle
  2
FlatWithEdges
 70
     1
177
     2
291
     1
 71
     2
176
     1
 72
     1
176
     1
 73
     1
176
     1
 90
        2
176
     1
 40
-0.6
176
     1
 41
30.0
176
     1
 62
     5
 63
     7
421
 16777215
176
     1
 74
     1
176
     1
 91
        4
176
     1
 64
     7
176
     1
 65
   257
176
     1
 75
     1
176
     1
175
     1
176
     1
 42
1.0
176
     1
 92
        0
176
     1
 66
   257
176
     1
 43
1.0
176
     1
 76
     1
176
     1
 77
     6
176
     1
 78
     2
176
     1
 67
     7
176
     1
 79
     5
176
     1
170
     0
176
     1
171
     0
176
     1
290
     0
176
     1
 93
       13
176
     1
 44
0.0
176
     1
173
     0
176
     1
  0
VISUALSTYLE
  5
105
102
{ACAD_REACTORS
330
102
102
}
330
102
100
AcDbVisualStyle
  2
Gouraud
 70
     2
177
     2
291
     1
 71
     2
176
     1
 72
     2
176
     1
 73
     1
176
     1
 90
        2
176
     1
 40
-0.6
176
     1
 41
30.0
176
     1
 62
     5
 63
     7
421
 16777215
176
     1
 74
     0
176
     1
 91
        4
176
     1
 64
     7
176
     1
 65
   257
176
     1
 75
     1
176
     1
175
     1
176
     1
 42
1.0
176
     1
 92
        0
176
     1
 66
     7
176
     1
 43
1.0
176
     1
 76
     1
176
     1
 77
     6
176
     1
 78
     2
176
     1
 67
     7
176
     1
 79
     5
176
     1
170
     0
176
     1
171
     0
176
     1
290
     0
176
     1
 93
       13
176
     1
 44
0.0
176
     1
173
     0
176
     1
  0
VISUALSTYLE
  5
106
102
{ACAD_REACTORS
330
102
102
}
330
102
100
AcDbVisualStyle
  2
GouraudWithEdges
 70
     3
177
     2
291
     1
 71
     2
176
     1
 72
     2
176
     1
 73
     1
176
     1
 90
        2
176
     1
 40
-0.6
176
     1
 41
30.0
176
     1
 62
     5
 63
     7
421
 16777215
176
     1
 74
     1
176
     1
 91
        4
176
     1
 64
     7
176
     1
 65
   257
176
     1
 75
     1
176
     1
175
     1
176
     1
 42
1.0
176
     1
 92
        0
176
     1
 66
   257
176
     1
 43
1.0
176
     1
 76
     1
176
     1
 77
     6
176
     1
 78
     2
176
     1
 67
     7
176
     1
 79
     5
176
     1
170
     0
176
     1
171
     0
176
     1
290
     0
176
     1
 93
       13
176
     1
 44
0.0
176
     1
173
     0
176
     1
  0
VISUALSTYLE
  5
110
102
{ACAD_REACTORS
330
102
102
}
330
102
100
AcDbVisualStyle
  2
Linepattern
 70
    14
177
     2
291
     1
 71
     2
176
     1
 72
     2
176
     1
 73
     0
176
     1
 90
        0
176
     1
 40
-0.6
176
     1
 41
-30.0
176
     1
 62
     5
 63
     7
421
 16777215
176
     1
 74
     1
176
     1
 91
        4
176
     1
 64
     7
176
     1
 65
   257
176
     1
 75
     7
176
     1
175
     7
176
     1
 42
1.0
176
     1
 92
        8
176
     1
 66
     7
176
     1
 43
1.0
176
     1
 76
     1
176
     1
 77
     6
176
     1
 78
     2
176
     1
 67
     7
176
     1
 79
     5
176
     1
170
     0
176
     1
171
     0
176
     1
290
     0
176
     1
 93
        1
176
     1
 44
0.0
176
     1
173
     0
176
     1
  0
VISUALSTYLE
  5
10B
102
{ACAD_REACTORS
330
102
102
}
330
102
100
AcDbVisualStyle
  2
Realistic
 70
     8
177
     2
291
     0
 71
     2
176
     1
 72
     2
176
     1
 73
     0
176
     1
 90
        0
176
     1
 40
-0.6
176
     1
 41
-30.0
176
     1
 62
     5
 63
     7
421
 16777215
176
     1
 74
     1
176
     1
 91
        0
176
     1
 64
     7
176
     1
 65
   257
176
     1
 75
     1
176
     1
175
     1
176
     1
 42
1.0
176
     1
 92
        8
176
     1
 66
     8
424
  7895160
176
     1
 43
1.0
176
     1
 76
     1
176
     1
 77
     6
176
     1
 78
     2
176
     1
 67
     7
176
     1
 79
     5
176
     1
170
     0
176
     1
171
     0
176
     1
290
     0
176
     1
 93
       13
176
     1
 44
0.0
176
     1
173
     0
176
     1
  0
VISUALSTYLE
  5
10F
102
{ACAD_REACTORS
330
102
102
}
330
102
100
AcDbVisualStyle
  2
Thicken
 70
    13
177
     2
291
     1
 71
     2
176
     1
 72
     2
176
     1
 73
     0
176
     1
 90
        0
176
     1
 40
-0.6
176
     1
 41
-30.0
176
     1
 62
     5
 63
     7
421
 16777215
176
     1
 74
     1
176
     1
 91
        4
176
     1
 64
     7
176
     1
 65
   257
176
     1
 75
     1
176
     1
175
     1
176
     1
 42
1.0
176
     1
 92
       12
176
     1
 66
     7
176
     1
 43
1.0
176
     1
 76
     1
176
     1
 77
     6
176
     1
 78
     2
176
     1
 67
     7
176
     1
 79
     5
176
     1
170
     0
176
     1
171
     0
176
     1
290
     0
176
     1
 93
        1
176
     1
 44
0.0
176
     1
173
     0
176
     1
  0
XRECORD
  5
119
102
{ACAD_REACTORS
330
118
102
}
330
118
100
AcDbXrecord
280
     1
290
     1
  0
XRECORD
  5
11A
102
{ACAD_REACTORS
330
118
102
}
330
118
100
AcDbXrecord
280
     1
1000
1:1
  0
ENDSEC
  0
EOF
