999
dxflib 2.2.0.0
  0
SECTION
  2
HEADER
  9
$ACADVER
  1
AC1015
  9
$HANDSEED
  5
FFFF
  9
$DIMASZ
 40
2.5
  9
$PLIMMIN
 10
0.0
 20
0.0
  9
$DIMEXE
 40
1.25
  9
$DIMGAP
 40
0.625
  9
$PLIMMAX
 10
210.0
 20
297.0
  9
$INSUNITS
 70
4
  9
$DIMSTYLE
  2
Standard
  9
$MEASUREMENT
 70
1
  9
$DIMEXO
 40
0.625
  9
$DIMTXT
 40
2.5
  9
$CLAYER
  8
0
  0
ENDSEC
  0
SECTION
  2
TABLES
  0
TABLE
  2
VPORT
  5
8
100
AcDbSymbolTable
 70
1
  0
VPORT
  5
30
100
AcDbSymbolTableRecord
100
AcDbViewportTableRecord
  2
*Active
 70
0
 10
0.0
 20
0.0
 11
1.0
 21
1.0
 12
286.30555555555549
 22
148.5
 13
0.0
 23
0.0
 14
10.0
 24
10.0
 15
10.0
 25
10.0
 16
0.0
 26
0.0
 36
1.0
 17
0.0
 27
0.0
 37
0.0
 40
297.0
 41
1.92798353909465
 42
50.0
 43
0.0
 44
0.0
 50
0.0
 51
0.0
 71
0
 72
100
 73
1
 74
3
 75
1
 76
1
 77
0
 78
0
281
0
 65
1
110
0.0
120
0.0
130
0.0
111
1.0
121
0.0
131
0.0
112
0.0
122
1.0
132
0.0
 79
0
146
0.0
  0
ENDTAB
  0
TABLE
  2
LTYPE
  5
5
100
AcDbSymbolTable
 70
21
  0
LTYPE
  5
14
100
AcDbSymbolTableRecord
100
AcDbLinetypeTableRecord
  2
ByBlock
 70
0
  3

 72
65
 73
0
 40
0.0
  0
LTYPE
  5
15
100
AcDbSymbolTableRecord
100
AcDbLinetypeTableRecord
  2
ByLayer
 70
0
  3

 72
65
 73
0
 40
0.0
  0
LTYPE
  5
16
100
AcDbSymbolTableRecord
100
AcDbLinetypeTableRecord
  2
CONTINUOUS
 70
0
  3
Solid line
 72
65
 73
0
 40
0.0
  0
LTYPE
  5
31
100
AcDbSymbolTableRecord
100
AcDbLinetypeTableRecord
  2
DOT
 70
0
  3
Dot . . . . . . . . . . . . . . . . . . . . . .
 72
65
 73
2
 40
6.3499999999999996
 49
0.0
 74
0
 49
-6.3499999999999996
 74
0
  0
LTYPE
  5
32
100
AcDbSymbolTableRecord
100
AcDbLinetypeTableRecord
  2
DOT2
 70
0
  3
Dot (.5x) .....................................
 72
65
 73
2
 40
3.1749999999999998
 49
0.0
 74
0
 49
-3.1749999999999998
 74
0
  0
LTYPE
  5
33
100
AcDbSymbolTableRecord
100
AcDbLinetypeTableRecord
  2
DOTX2
 70
0
  3
Dot (2x) .  .  .  .  .  .  .  .  .  .  .  .  .
 72
65
 73
2
 40
12.699999999999999
 49
0.0
 74
0
 49
-12.699999999999999
 74
0
  0
LTYPE
  5
34
100
AcDbSymbolTableRecord
100
AcDbLinetypeTableRecord
  2
DASHED
 70
0
  3
Dashed __ __ __ __ __ __ __ __ __ __ __ __ __ _
 72
65
 73
2
 40
19.050000000000001
 49
12.699999999999999
 74
0
 49
-6.3499999999999996
 74
0
  0
LTYPE
  5
35
100
AcDbSymbolTableRecord
100
AcDbLinetypeTableRecord
  2
DASHED2
 70
0
  3
Dashed (.5x) _ _ _ _ _ _ _ _ _ _ _ _ _ _ _ _ _
 72
65
 73
2
 40
9.5250000000000004
 49
6.3499999999999996
 74
0
 49
-3.1749999999999998
 74
0
  0
LTYPE
  5
36
100
AcDbSymbolTableRecord
100
AcDbLinetypeTableRecord
  2
DASHEDX2
 70
0
  3
Dashed (2x) ____  ____  ____  ____  ____  ___
 72
65
 73
2
 40
38.100000000000001
 49
25.399999999999999
 74
0
 49
-12.699999999999999
 74
0
  0
LTYPE
  5
37
100
AcDbSymbolTableRecord
100
AcDbLinetypeTableRecord
  2
DASHDOT
 70
0
  3
Dash dot __ . __ . __ . __ . __ . __ . __ . __
 72
65
 73
4
 40
25.399999999999999
 49
12.699999999999999
 74
0
 49
-6.3499999999999996
 74
0
 49
0.0
 74
0
 49
-6.3499999999999996
 74
0
  0
LTYPE
  5
38
100
AcDbSymbolTableRecord
100
AcDbLinetypeTableRecord
  2
DASHDOT2
 70
0
  3
Dash dot (.5x) _._._._._._._._._._._._._._._.
 72
65
 73
4
 40
12.699999999999999
 49
6.3499999999999996
 74
0
 49
-3.1749999999999998
 74
0
 49
0.0
 74
0
 49
-3.1749999999999998
 74
0
  0
LTYPE
  5
39
100
AcDbSymbolTableRecord
100
AcDbLinetypeTableRecord
  2
DASHDOTX2
 70
0
  3
Dash dot (2x) ____  .  ____  .  ____  .  ___
 72
65
 73
4
 40
50.799999999999997
 49
25.399999999999999
 74
0
 49
-12.699999999999999
 74
0
 49
0.0
 74
0
 49
-12.699999999999999
 74
0
  0
LTYPE
  5
3A
100
AcDbSymbolTableRecord
100
AcDbLinetypeTableRecord
  2
DIVIDE
 70
0
  3
Divide ____ . . ____ . . ____ . . ____ . . ____
 72
65
 73
6
 40
31.75
 49
12.699999999999999
 74
0
 49
-6.3499999999999996
 74
0
 49
0.0
 74
0
 49
-6.3499999999999996
 74
0
 49
0.0
 74
0
 49
-6.3499999999999996
 74
0
  0
LTYPE
  5
3B
100
AcDbSymbolTableRecord
100
AcDbLinetypeTableRecord
  2
DIVIDE2
 70
0
  3
Divide (.5x) __..__..__..__..__..__..__..__.._
 72
65
 73
6
 40
15.875
 49
6.3499999999999996
 74
0
 49
-3.1749999999999998
 74
0
 49
0.0
 74
0
 49
-3.1749999999999998
 74
0
 49
0.0
 74
0
 49
-3.1749999999999998
 74
0
  0
LTYPE
  5
3C
100
AcDbSymbolTableRecord
100
AcDbLinetypeTableRecord
  2
DIVIDEX2
 70
0
  3
Divide (2x) ________  .  .  ________  .  .  _
 72
65
 73
6
 40
63.5
 49
25.399999999999999
 74
0
 49
-12.699999999999999
 74
0
 49
0.0
 74
0
 49
-12.699999999999999
 74
0
 49
0.0
 74
0
 49
-12.699999999999999
 74
0
  0
LTYPE
  5
3D
100
AcDbSymbolTableRecord
100
AcDbLinetypeTableRecord
  2
CENTER
 70
0
  3
Center ____ _ ____ _ ____ _ ____ _ ____ _ ____
 72
65
 73
4
 40
50.799999999999997
 49
31.75
 74
0
 49
-6.3499999999999996
 74
0
 49
6.3499999999999996
 74
0
 49
-6.3499999999999996
 74
0
  0
LTYPE
  5
3E
100
AcDbSymbolTableRecord
100
AcDbLinetypeTableRecord
  2
CENTER2
 70
0
  3
Center (.5x) ___ _ ___ _ ___ _ ___ _ ___ _ ___
 72
65
 73
4
 40
28.574999999999999
 49
19.050000000000001
 74
0
 49
-3.1749999999999998
 74
0
 49
3.1749999999999998
 74
0
 49
-3.1749999999999998
 74
0
  0
LTYPE
  5
3F
100
AcDbSymbolTableRecord
100
AcDbLinetypeTableRecord
  2
CENTERX2
 70
0
  3
Center (2x) ________  __  ________  __  _____
 72
65
 73
4
 40
101.59999999999999
 49
63.5
 74
0
 49
-12.699999999999999
 74
0
 49
12.699999999999999
 74
0
 49
-12.699999999999999
 74
0
  0
LTYPE
  5
40
100
AcDbSymbolTableRecord
100
AcDbLinetypeTableRecord
  2
BORDER
 70
0
  3
Border __ __ . __ __ . __ __ . __ __ . __ __ .
 72
65
 73
6
 40
44.450000000000003
 49
12.699999999999999
 74
0
 49
-6.3499999999999996
 74
0
 49
12.699999999999999
 74
0
 49
-6.3499999999999996
 74
0
 49
0.0
 74
0
 49
-6.3499999999999996
 74
0
  0
LTYPE
  5
41
100
AcDbSymbolTableRecord
100
AcDbLinetypeTableRecord
  2
BORDER2
 70
0
  3
Border (.5x) __.__.__.__.__.__.__.__.__.__.__.
 72
65
 73
6
 40
22.225000000000001
 49
6.3499999999999996
 74
0
 49
-3.1749999999999998
 74
0
 49
6.3499999999999996
 74
0
 49
-3.1749999999999998
 74
0
 49
0.0
 74
0
 49
-3.1749999999999998
 74
0
  0
LTYPE
  5
42
100
AcDbSymbolTableRecord
100
AcDbLinetypeTableRecord
  2
BORDERX2
 70
0
  3
Border (2x) ____  ____  .  ____  ____  .  ___
 72
65
 73
6
 40
88.900000000000006
 49
25.399999999999999
 74
0
 49
-12.699999999999999
 74
0
 49
25.399999999999999
 74
0
 49
-12.699999999999999
 74
0
 49
0.0
 74
0
 49
-12.699999999999999
 74
0
  0
ENDTAB
  0
TABLE
  2
LAYER
  5
2
100
AcDbSymbolTable
 70
2
  0
LAYER
  5
10
100
AcDbSymbolTableRecord
100
AcDbLayerTableRecord
  2
0
 70
0
 62
7
  6
CONTINUOUS
390
F
  0
LAYER
  5
43
100
AcDbSymbolTableRecord
100
AcDbLayerTableRecord
  2
Layer_1
 70
0
 62
7
  6
CONTINUOUS
390
F
  0
ENDTAB
  0
TABLE
  2
STYLE
  5
3
100
AcDbSymbolTable
 70
1
  0
STYLE
  5
11
100
AcDbSymbolTableRecord
100
AcDbTextStyleTableRecord
  2
Standard
 70
0
 40
0.0
 41
0.75
 50
0.0
 71
0
 42
2.5
  3
txt
  4

  0
ENDTAB
  0
TABLE
  2
VIEW
  5
6
100
AcDbSymbolTable
 70
0
  0
ENDTAB
  0
TABLE
  2
UCS
  5
7
100
AcDbSymbolTable
 70
0
  0
ENDTAB
  0
TABLE
  2
APPID
  5
9
100
AcDbSymbolTable
 70
1
  0
APPID
  5
12
100
AcDbSymbolTableRecord
100
AcDbRegAppTableRecord
  2
ACAD
 70
0
  0
ENDTAB
  0
TABLE
  2
DIMSTYLE
  5
A
100
AcDbSymbolTable
 70
1
100
AcDbDimStyleTable
 71
0
  0
DIMSTYLE
105
27
100
AcDbSymbolTableRecord
100
AcDbDimStyleTableRecord
  2
Standard
 41
2.5
 42
0.625
 43
3.75
 44
1.25
 70
0
 73
0
 74
0
 77
1
 78
8
140
2.5
141
2.5
143
0.03937007874016
147
0.625
171
3
172
1
271
2
272
2
274
3
278
44
283
0
284
8
340
11
  0
ENDTAB
  0
TABLE
  2
BLOCK_RECORD
  5
1
100
AcDbSymbolTable
 70
1
  0
BLOCK_RECORD
  5
1F
100
AcDbSymbolTableRecord
100
AcDbBlockTableRecord
  2
*Model_Space
340
22
  0
BLOCK_RECORD
  5
1B
100
AcDbSymbolTableRecord
100
AcDbBlockTableRecord
  2
*Paper_Space
340
1E
  0
BLOCK_RECORD
  5
23
100
AcDbSymbolTableRecord
100
AcDbBlockTableRecord
  2
*Paper_Space0
340
26
  0
ENDTAB
  0
ENDSEC
  0
SECTION
  2
BLOCKS
  0
BLOCK
  5
20
100
AcDbEntity
  8
0
100
AcDbBlockBegin
  2
*Model_Space
 70
0
 10
0.0
 20
0.0
 30
0.0
  3
*Model_Space
  1

  0
ENDBLK
  5
21
100
AcDbEntity
  8
0
100
AcDbBlockEnd
  0
BLOCK
  5
1C
100
AcDbEntity
 67
1
  8
0
100
AcDbBlockBegin
  2
*Paper_Space
 70
0
 10
0.0
 20
0.0
 30
0.0
  3
*Paper_Space
  1

  0
ENDBLK
  5
1D
100
AcDbEntity
 67
1
  8
0
100
AcDbBlockEnd
  0
BLOCK
  5
24
100
AcDbEntity
  8
0
100
AcDbBlockBegin
  2
*Paper_Space0
 70
0
 10
0.0
 20
0.0
 30
0.0
  3
*Paper_Space0
  1

  0
ENDBLK
  5
25
100
AcDbEntity
  8
0
100
AcDbBlockEnd
  0
ENDSEC
  0
SECTION
  2
ENTITIES
  0
SPLINE
  5
44
  8
Layer_1
 62
1
420
16711680
370
-1
  6
ByLayer
100
AcDbEntity
100
AcDbSpline
 70
8
 71
3
 72
8
 73
4
 74
0
 40
0.0
 40
0.0
 40
0.0
 40
0.0
 40
1.0
 40
1.0
 40
1.0
 40
1.0
 10
36.918407670000001
 20
9.9623833460000011
 30
0.0
 10
36.918407670000001
 20
10.939872584
 30
0.0
 10
37.713989159999997
 20
11.734746818000001
 30
0.0
 10
38.690772396
 20
11.734746818000001
 30
0.0
  0
SPLINE
  5
45
  8
Layer_1
 62
1
420
16711680
370
-1
  6
ByLayer
100
AcDbEntity
100
AcDbSpline
 70
8
 71
3
 72
8
 73
4
 74
0
 40
0.0
 40
0.0
 40
0.0
 40
0.0
 40
1.0
 40
1.0
 40
1.0
 40
1.0
 10
39.576954131999997
 20
11.684846395999999
 30
0.0
 10
39.576954131999997
 20
10.910498887999999
 30
0.0
 10
40.206553674000006
 20
10.280544464
 30
0.0
 10
40.981963319999991
 20
10.280544464
 30
0.0
  0
SPLINE
  5
46
  8
Layer_1
 62
1
420
16711680
370
-1
  6
ByLayer
100
AcDbEntity
100
AcDbSpline
 70
8
 71
3
 72
8
 73
4
 74
0
 40
0.0
 40
0.0
 40
0.0
 40
0.0
 40
1.0
 40
1.0
 40
1.0
 40
1.0
 10
40.981963319999991
 20
10.280544464
 30
0.0
 10
41.755957199999997
 20
10.280544464
 30
0.0
 10
42.386265252000001
 20
10.910498887999999
 30
0.0
 10
42.386265252000001
 20
11.684846395999999
 30
0.0
  0
LWPOLYLINE
  5
47
  8
Layer_1
 62
1
420
16711680
370
-1
  6
ByLayer
100
AcDbEntity
100
AcDbPolyline
 90
3
 70
0
 10
38.690772396
 20
11.734746818000001
 10
39.576954131999997
 20
11.734746818000001
 10
39.576954131999997
 20
11.684846395999999
  0
SPLINE
  5
48
  8
Layer_1
 62
1
420
16711680
370
-1
  6
ByLayer
100
AcDbEntity
100
AcDbSpline
 70
8
 71
3
 72
8
 73
4
 74
0
 40
0.0
 40
0.0
 40
0.0
 40
0.0
 40
1.0
 40
1.0
 40
1.0
 40
1.0
 10
43.272446987999999
 20
11.734746818000001
 30
0.0
 10
44.249230224000001
 20
11.734746818000001
 30
0.0
 10
45.044104458
 20
10.939872584
 30
0.0
 10
45.044104458
 20
9.9623833460000011
 30
0.0
  0
LWPOLYLINE
  5
49
  8
Layer_1
 62
1
420
16711680
370
-1
  6
ByLayer
100
AcDbEntity
100
AcDbPolyline
 90
3
 70
0
 10
42.386265252000001
 20
11.684846395999999
 10
42.386265252000001
 20
11.734746818000001
 10
43.272446987999999
 20
11.734746818000001
  0
SPLINE
  5
4A
  8
Layer_1
 62
1
420
16711680
370
-1
  6
ByLayer
100
AcDbEntity
100
AcDbSpline
 70
8
 71
3
 72
8
 73
4
 74
0
 40
0.0
 40
0.0
 40
0.0
 40
0.0
 40
1.0
 40
1.0
 40
1.0
 40
1.0
 10
45.044104458
 20
3.3758260939999998
 30
0.0
 10
45.044104458
 20
2.3986892299999996
 30
0.0
 10
44.249230224000001
 20
1.6031077400000004
 30
0.0
 10
43.272446987999999
 20
1.6031077400000004
 30
0.0
  0
LWPOLYLINE
  5
4B
  8
Layer_1
 62
1
420
16711680
370
-1
  6
ByLayer
100
AcDbEntity
100
AcDbPolyline
 90
2
 70
0
 10
45.044104458
 20
9.9623833460000011
 10
45.044104458
 20
3.3758260939999998
  0
SPLINE
  5
4C
  8
Layer_1
 62
1
420
16711680
370
-1
  6
ByLayer
100
AcDbEntity
100
AcDbSpline
 70
8
 71
3
 72
8
 73
4
 74
0
 40
0.0
 40
0.0
 40
0.0
 40
0.0
 40
1.0
 40
1.0
 40
1.0
 40
1.0
 10
42.386265252000001
 20
1.6530081620000008
 30
0.0
 10
42.386265252000001
 20
2.4277092979999999
 30
0.0
 10
41.755957199999997
 20
3.057663722
 30
0.0
 10
40.981963319999991
 20
3.057663722
 30
0.0
  0
SPLINE
  5
4D
  8
Layer_1
 62
1
420
16711680
370
-1
  6
ByLayer
100
AcDbEntity
100
AcDbSpline
 70
8
 71
3
 72
8
 73
4
 74
0
 40
0.0
 40
0.0
 40
0.0
 40
0.0
 40
1.0
 40
1.0
 40
1.0
 40
1.0
 10
40.981963319999991
 20
3.057663722
 30
0.0
 10
40.206908556000002
 20
3.057663722
 30
0.0
 10
39.576954131999997
 20
2.4280641800000007
 30
0.0
 10
39.576954131999997
 20
1.6530081620000008
 30
0.0
  0
LWPOLYLINE
  5
4E
  8
Layer_1
 62
1
420
16711680
370
-1
  6
ByLayer
100
AcDbEntity
100
AcDbPolyline
 90
3
 70
0
 10
43.272446987999999
 20
1.6031077400000004
 10
42.386265252000001
 20
1.6031077400000004
 10
42.386265252000001
 20
1.6530081620000008
  0
SPLINE
  5
4F
  8
Layer_1
 62
1
420
16711680
370
-1
  6
ByLayer
100
AcDbEntity
100
AcDbSpline
 70
8
 71
3
 72
8
 73
4
 74
0
 40
0.0
 40
0.0
 40
0.0
 40
0.0
 40
1.0
 40
1.0
 40
1.0
 40
1.0
 10
38.690772396
 20
1.6031077400000004
 30
0.0
 10
37.713989159999997
 20
1.6031077400000004
 30
0.0
 10
36.918407670000001
 20
2.3986892299999996
 30
0.0
 10
36.918407670000001
 20
3.3758260939999998
 30
0.0
  0
SPLINE
  5
50
  8
Layer_1
 62
1
420
16711680
370
-1
  6
ByLayer
100
AcDbEntity
100
AcDbSpline
 70
8
 71
3
 72
8
 73
4
 74
0
 40
0.0
 40
0.0
 40
0.0
 40
0.0
 40
1.0
 40
1.0
 40
1.0
 40
1.0
 10
39.727718789999997
 20
6.6689279059999995
 30
0.0
 10
39.727718789999997
 20
7.3611685100000006
 30
0.0
 10
40.288660577999998
 20
7.9228188079999997
 30
0.0
 10
40.981609691999999
 20
7.9228188079999997
 30
0.0
  0
SPLINE
  5
51
  8
Layer_1
 62
1
420
16711680
370
-1
  6
ByLayer
100
AcDbEntity
100
AcDbSpline
 70
8
 71
3
 72
8
 73
4
 74
0
 40
0.0
 40
0.0
 40
0.0
 40
0.0
 40
1.0
 40
1.0
 40
1.0
 40
1.0
 10
40.981609691999999
 20
7.9228188079999997
 30
0.0
 10
41.673496667999999
 20
7.9228188079999997
 30
0.0
 10
42.235146966000002
 20
7.3611685100000006
 30
0.0
 10
42.235146966000002
 20
6.6689279059999995
 30
0.0
  0
SPLINE
  5
52
  8
Layer_1
 62
1
420
16711680
370
-1
  6
ByLayer
100
AcDbEntity
100
AcDbSpline
 70
8
 71
3
 72
8
 73
4
 74
0
 40
0.0
 40
0.0
 40
0.0
 40
0.0
 40
1.0
 40
1.0
 40
1.0
 40
1.0
 10
42.235146966000002
 20
6.6689279059999995
 30
0.0
 10
42.235146966000002
 20
5.9763324200000003
 30
0.0
 10
41.673496667999999
 20
5.4146821219999994
 30
0.0
 10
40.981609691999999
 20
5.4146821219999994
 30
0.0
  0
SPLINE
  5
53
  8
Layer_1
 62
1
420
16711680
370
-1
  6
ByLayer
100
AcDbEntity
100
AcDbSpline
 70
8
 71
3
 72
8
 73
4
 74
0
 40
0.0
 40
0.0
 40
0.0
 40
0.0
 40
1.0
 40
1.0
 40
1.0
 40
1.0
 10
40.981609691999999
 20
5.4146821219999994
 30
0.0
 10
40.288660577999998
 20
5.4146821219999994
 30
0.0
 10
39.727718789999997
 20
5.9763324200000003
 30
0.0
 10
39.727718789999997
 20
6.6689279059999995
 30
0.0
  0
LWPOLYLINE
  5
54
  8
Layer_1
 62
1
420
16711680
370
-1
  6
ByLayer
100
AcDbEntity
100
AcDbPolyline
 90
3
 70
0
 10
39.576954131999997
 20
1.6530081620000008
 10
39.576954131999997
 20
1.6031077400000004
 10
38.690772396
 20
1.6031077400000004
  0
SPLINE
  5
55
  8
Layer_1
 62
1
420
16711680
370
-1
  6
ByLayer
100
AcDbEntity
100
AcDbSpline
 70
8
 71
3
 72
8
 73
4
 74
0
 40
0.0
 40
0.0
 40
0.0
 40
0.0
 40
1.0
 40
1.0
 40
1.0
 40
1.0
 10
28.792355999999998
 20
9.9623833460000011
 30
0.0
 10
28.792355999999998
 20
10.939872584
 30
0.0
 10
29.587938743999999
 20
11.734746818000001
 30
0.0
 10
30.564720726000004
 20
11.734746818000001
 30
0.0
  0
LWPOLYLINE
  5
56
  8
Layer_1
 62
1
420
16711680
370
-1
  6
ByLayer
100
AcDbEntity
100
AcDbPolyline
 90
2
 70
0
 10
39.727718789999997
 20
6.6689279059999995
 10
39.727718789999997
 20
6.6689279059999995
  0
SPLINE
  5
57
  8
Layer_1
 62
1
420
16711680
370
-1
  6
ByLayer
100
AcDbEntity
100
AcDbSpline
 70
8
 71
3
 72
8
 73
4
 74
0
 40
0.0
 40
0.0
 40
0.0
 40
0.0
 40
1.0
 40
1.0
 40
1.0
 40
1.0
 10
31.450903715999999
 20
11.684846395999999
 30
0.0
 10
31.450903715999999
 20
10.910498887999999
 30
0.0
 10
32.081210513999999
 20
10.280544464
 30
0.0
 10
32.855912904
 20
10.280544464
 30
0.0
  0
SPLINE
  5
58
  8
Layer_1
 62
1
420
16711680
370
-1
  6
ByLayer
100
AcDbEntity
100
AcDbSpline
 70
8
 71
3
 72
8
 73
4
 74
0
 40
0.0
 40
0.0
 40
0.0
 40
0.0
 40
1.0
 40
1.0
 40
1.0
 40
1.0
 10
32.855912904
 20
10.280544464
 30
0.0
 10
33.629906783999999
 20
10.280544464
 30
0.0
 10
34.260214836000003
 20
10.910498887999999
 30
0.0
 10
34.260214836000003
 20
11.684846395999999
 30
0.0
  0
LWPOLYLINE
  5
59
  8
Layer_1
 62
1
420
16711680
370
-1
  6
ByLayer
100
AcDbEntity
100
AcDbPolyline
 90
3
 70
0
 10
30.564720726000004
 20
11.734746818000001
 10
31.450903715999999
 20
11.734746818000001
 10
31.450903715999999
 20
11.684846395999999
  0
SPLINE
  5
5A
  8
Layer_1
 62
1
420
16711680
370
-1
  6
ByLayer
100
AcDbEntity
100
AcDbSpline
 70
8
 71
3
 72
8
 73
4
 74
0
 40
0.0
 40
0.0
 40
0.0
 40
0.0
 40
1.0
 40
1.0
 40
1.0
 40
1.0
 10
35.146396572
 20
11.734746818000001
 30
0.0
 10
36.123178553999999
 20
11.734746818000001
 30
0.0
 10
36.918761298
 20
10.939872584
 30
0.0
 10
36.918761298
 20
9.9623833460000011
 30
0.0
  0
LWPOLYLINE
  5
5B
  8
Layer_1
 62
1
420
16711680
370
-1
  6
ByLayer
100
AcDbEntity
100
AcDbPolyline
 90
3
 70
0
 10
34.260214836000003
 20
11.684846395999999
 10
34.260214836000003
 20
11.734746818000001
 10
35.146396572
 20
11.734746818000001
  0
SPLINE
  5
5C
  8
Layer_1
 62
1
420
16711680
370
-1
  6
ByLayer
100
AcDbEntity
100
AcDbSpline
 70
8
 71
3
 72
8
 73
4
 74
0
 40
0.0
 40
0.0
 40
0.0
 40
0.0
 40
1.0
 40
1.0
 40
1.0
 40
1.0
 10
36.918761298
 20
3.3758260939999998
 30
0.0
 10
36.918761298
 20
2.3986892299999996
 30
0.0
 10
36.123178553999999
 20
1.6031077400000004
 30
0.0
 10
35.146396572
 20
1.6031077400000004
 30
0.0
  0
LWPOLYLINE
  5
5D
  8
Layer_1
 62
1
420
16711680
370
-1
  6
ByLayer
100
AcDbEntity
100
AcDbPolyline
 90
2
 70
0
 10
36.918761298
 20
9.9623833460000011
 10
36.918761298
 20
3.3758260939999998
  0
SPLINE
  5
5E
  8
Layer_1
 62
1
420
16711680
370
-1
  6
ByLayer
100
AcDbEntity
100
AcDbSpline
 70
8
 71
3
 72
8
 73
4
 74
0
 40
0.0
 40
0.0
 40
0.0
 40
0.0
 40
1.0
 40
1.0
 40
1.0
 40
1.0
 10
34.260214836000003
 20
1.6530081620000008
 30
0.0
 10
34.260214836000003
 20
2.4277092979999999
 30
0.0
 10
33.629906783999999
 20
3.057663722
 30
0.0
 10
32.855912904
 20
3.057663722
 30
0.0
  0
SPLINE
  5
5F
  8
Layer_1
 62
1
420
16711680
370
-1
  6
ByLayer
100
AcDbEntity
100
AcDbSpline
 70
8
 71
3
 72
8
 73
4
 74
0
 40
0.0
 40
0.0
 40
0.0
 40
0.0
 40
1.0
 40
1.0
 40
1.0
 40
1.0
 10
32.855912904
 20
3.057663722
 30
0.0
 10
32.081565396000002
 20
3.057663722
 30
0.0
 10
31.450903715999999
 20
2.4280641800000007
 30
0.0
 10
31.450903715999999
 20
1.6530081620000008
 30
0.0
  0
LWPOLYLINE
  5
60
  8
Layer_1
 62
1
420
16711680
370
-1
  6
ByLayer
100
AcDbEntity
100
AcDbPolyline
 90
3
 70
0
 10
35.146396572
 20
1.6031077400000004
 10
34.260214836000003
 20
1.6031077400000004
 10
34.260214836000003
 20
1.6530081620000008
  0
SPLINE
  5
61
  8
Layer_1
 62
1
420
16711680
370
-1
  6
ByLayer
100
AcDbEntity
100
AcDbSpline
 70
8
 71
3
 72
8
 73
4
 74
0
 40
0.0
 40
0.0
 40
0.0
 40
0.0
 40
1.0
 40
1.0
 40
1.0
 40
1.0
 10
30.564720726000004
 20
1.6031077400000004
 30
0.0
 10
29.587938743999999
 20
1.6031077400000004
 30
0.0
 10
28.792355999999998
 20
2.3986892299999996
 30
0.0
 10
28.792355999999998
 20
3.3758260939999998
 30
0.0
  0
SPLINE
  5
62
  8
Layer_1
 62
1
420
16711680
370
-1
  6
ByLayer
100
AcDbEntity
100
AcDbSpline
 70
8
 71
3
 72
8
 73
4
 74
0
 40
0.0
 40
0.0
 40
0.0
 40
0.0
 40
1.0
 40
1.0
 40
1.0
 40
1.0
 10
31.601667120000002
 20
6.6689279059999995
 30
0.0
 10
31.601667120000002
 20
7.3611685100000006
 30
0.0
 10
32.162255279999997
 20
7.9228188079999997
 30
0.0
 10
32.855559276000001
 20
7.9228188079999997
 30
0.0
  0
SPLINE
  5
63
  8
Layer_1
 62
1
420
16711680
370
-1
  6
ByLayer
100
AcDbEntity
100
AcDbSpline
 70
8
 71
3
 72
8
 73
4
 74
0
 40
0.0
 40
0.0
 40
0.0
 40
0.0
 40
1.0
 40
1.0
 40
1.0
 40
1.0
 10
32.855559276000001
 20
7.9228188079999997
 30
0.0
 10
33.547446252
 20
7.9228188079999997
 30
0.0
 10
34.108741668
 20
7.3611685100000006
 30
0.0
 10
34.108741668
 20
6.6689279059999995
 30
0.0
  0
SPLINE
  5
64
  8
Layer_1
 62
1
420
16711680
370
-1
  6
ByLayer
100
AcDbEntity
100
AcDbSpline
 70
8
 71
3
 72
8
 73
4
 74
0
 40
0.0
 40
0.0
 40
0.0
 40
0.0
 40
1.0
 40
1.0
 40
1.0
 40
1.0
 10
34.108741668
 20
6.6689279059999995
 30
0.0
 10
34.108741668
 20
5.9763324200000003
 30
0.0
 10
33.547446252
 20
5.4146821219999994
 30
0.0
 10
32.855559276000001
 20
5.4146821219999994
 30
0.0
  0
SPLINE
  5
65
  8
Layer_1
 62
1
420
16711680
370
-1
  6
ByLayer
100
AcDbEntity
100
AcDbSpline
 70
8
 71
3
 72
8
 73
4
 74
0
 40
0.0
 40
0.0
 40
0.0
 40
0.0
 40
1.0
 40
1.0
 40
1.0
 40
1.0
 10
32.855559276000001
 20
5.4146821219999994
 30
0.0
 10
32.162255279999997
 20
5.4146821219999994
 30
0.0
 10
31.601667120000002
 20
5.9763324200000003
 30
0.0
 10
31.601667120000002
 20
6.6689279059999995
 30
0.0
  0
LWPOLYLINE
  5
66
  8
Layer_1
 62
1
420
16711680
370
-1
  6
ByLayer
100
AcDbEntity
100
AcDbPolyline
 90
3
 70
0
 10
31.450903715999999
 20
1.6530081620000008
 10
31.450903715999999
 20
1.6031077400000004
 10
30.564720726000004
 20
1.6031077400000004
  0
SPLINE
  5
67
  8
Layer_1
 62
1
420
16711680
370
-1
  6
ByLayer
100
AcDbEntity
100
AcDbSpline
 70
8
 71
3
 72
8
 73
4
 74
0
 40
0.0
 40
0.0
 40
0.0
 40
0.0
 40
1.0
 40
1.0
 40
1.0
 40
1.0
 10
20.667012839999998
 20
9.9623833460000011
 30
0.0
 10
20.667012839999998
 20
10.939872584
 30
0.0
 10
21.461887074000003
 20
11.734746818000001
 30
0.0
 10
22.438670310000003
 20
11.734746818000001
 30
0.0
  0
LWPOLYLINE
  5
68
  8
Layer_1
 62
1
420
16711680
370
-1
  6
ByLayer
100
AcDbEntity
100
AcDbPolyline
 90
2
 70
0
 10
31.601667120000002
 20
6.6689279059999995
 10
31.601667120000002
 20
6.6689279059999995
  0
SPLINE
  5
69
  8
Layer_1
 62
1
420
16711680
370
-1
  6
ByLayer
100
AcDbEntity
100
AcDbSpline
 70
8
 71
3
 72
8
 73
4
 74
0
 40
0.0
 40
0.0
 40
0.0
 40
0.0
 40
1.0
 40
1.0
 40
1.0
 40
1.0
 10
23.324852046
 20
11.684846395999999
 30
0.0
 10
23.324852046
 20
10.910498887999999
 30
0.0
 10
23.955160098
 20
10.280544464
 30
0.0
 10
24.729861234000001
 20
10.280544464
 30
0.0
  0
SPLINE
  5
6A
  8
Layer_1
 62
1
420
16711680
370
-1
  6
ByLayer
100
AcDbEntity
100
AcDbSpline
 70
8
 71
3
 72
8
 73
4
 74
0
 40
0.0
 40
0.0
 40
0.0
 40
0.0
 40
1.0
 40
1.0
 40
1.0
 40
1.0
 10
24.729861234000001
 20
10.280544464
 30
0.0
 10
25.504563623999999
 20
10.280544464
 30
0.0
 10
26.133809538000001
 20
10.910498887999999
 30
0.0
 10
26.133809538000001
 20
11.684846395999999
 30
0.0
  0
LWPOLYLINE
  5
6B
  8
Layer_1
 62
1
420
16711680
370
-1
  6
ByLayer
100
AcDbEntity
100
AcDbPolyline
 90
3
 70
0
 10
22.438670310000003
 20
11.734746818000001
 10
23.324852046
 20
11.734746818000001
 10
23.324852046
 20
11.684846395999999
  0
SPLINE
  5
6C
  8
Layer_1
 62
1
420
16711680
370
-1
  6
ByLayer
100
AcDbEntity
100
AcDbSpline
 70
8
 71
3
 72
8
 73
4
 74
0
 40
0.0
 40
0.0
 40
0.0
 40
0.0
 40
1.0
 40
1.0
 40
1.0
 40
1.0
 10
27.020346155999999
 20
11.734746818000001
 30
0.0
 10
27.997128138000001
 20
11.734746818000001
 30
0.0
 10
28.792709628000001
 20
10.939872584
 30
0.0
 10
28.792709628000001
 20
9.9623833460000011
 30
0.0
  0
LWPOLYLINE
  5
6D
  8
Layer_1
 62
1
420
16711680
370
-1
  6
ByLayer
100
AcDbEntity
100
AcDbPolyline
 90
3
 70
0
 10
26.133809538000001
 20
11.684846395999999
 10
26.133809538000001
 20
11.734746818000001
 10
27.020346155999999
 20
11.734746818000001
  0
SPLINE
  5
6E
  8
Layer_1
 62
1
420
16711680
370
-1
  6
ByLayer
100
AcDbEntity
100
AcDbSpline
 70
8
 71
3
 72
8
 73
4
 74
0
 40
0.0
 40
0.0
 40
0.0
 40
0.0
 40
1.0
 40
1.0
 40
1.0
 40
1.0
 10
28.792709628000001
 20
3.3758260939999998
 30
0.0
 10
28.792709628000001
 20
2.3986892299999996
 30
0.0
 10
27.997128138000001
 20
1.6031077400000004
 30
0.0
 10
27.020346155999999
 20
1.6031077400000004
 30
0.0
  0
LWPOLYLINE
  5
6F
  8
Layer_1
 62
1
420
16711680
370
-1
  6
ByLayer
100
AcDbEntity
100
AcDbPolyline
 90
2
 70
0
 10
28.792709628000001
 20
9.9623833460000011
 10
28.792709628000001
 20
3.3758260939999998
  0
SPLINE
  5
70
  8
Layer_1
 62
1
420
16711680
370
-1
  6
ByLayer
100
AcDbEntity
100
AcDbSpline
 70
8
 71
3
 72
8
 73
4
 74
0
 40
0.0
 40
0.0
 40
0.0
 40
0.0
 40
1.0
 40
1.0
 40
1.0
 40
1.0
 10
26.133809538000001
 20
1.6530081620000008
 30
0.0
 10
26.133809538000001
 20
2.4277092979999999
 30
0.0
 10
25.504563623999999
 20
3.057663722
 30
0.0
 10
24.729861234000001
 20
3.057663722
 30
0.0
  0
SPLINE
  5
71
  8
Layer_1
 62
1
420
16711680
370
-1
  6
ByLayer
100
AcDbEntity
100
AcDbSpline
 70
8
 71
3
 72
8
 73
4
 74
0
 40
0.0
 40
0.0
 40
0.0
 40
0.0
 40
1.0
 40
1.0
 40
1.0
 40
1.0
 10
24.729861234000001
 20
3.057663722
 30
0.0
 10
23.955160098
 20
3.057663722
 30
0.0
 10
23.324852046
 20
2.4280641800000007
 30
0.0
 10
23.324852046
 20
1.6530081620000008
 30
0.0
  0
LWPOLYLINE
  5
72
  8
Layer_1
 62
1
420
16711680
370
-1
  6
ByLayer
100
AcDbEntity
100
AcDbPolyline
 90
3
 70
0
 10
27.020346155999999
 20
1.6031077400000004
 10
26.133809538000001
 20
1.6031077400000004
 10
26.133809538000001
 20
1.6530081620000008
  0
SPLINE
  5
73
  8
Layer_1
 62
1
420
16711680
370
-1
  6
ByLayer
100
AcDbEntity
100
AcDbSpline
 70
8
 71
3
 72
8
 73
4
 74
0
 40
0.0
 40
0.0
 40
0.0
 40
0.0
 40
1.0
 40
1.0
 40
1.0
 40
1.0
 10
22.438670310000003
 20
1.6031077400000004
 30
0.0
 10
21.461887074000003
 20
1.6031077400000004
 30
0.0
 10
20.667012839999998
 20
2.3986892299999996
 30
0.0
 10
20.667012839999998
 20
3.3758260939999998
 30
0.0
  0
SPLINE
  5
74
  8
Layer_1
 62
1
420
16711680
370
-1
  6
ByLayer
100
AcDbEntity
100
AcDbSpline
 70
8
 71
3
 72
8
 73
4
 74
0
 40
0.0
 40
0.0
 40
0.0
 40
0.0
 40
1.0
 40
1.0
 40
1.0
 40
1.0
 10
23.475616704
 20
6.6689279059999995
 30
0.0
 10
23.475616704
 20
7.3611685100000006
 30
0.0
 10
24.036558492000001
 20
7.9228188079999997
 30
0.0
 10
24.729507605999999
 20
7.9228188079999997
 30
0.0
  0
SPLINE
  5
75
  8
Layer_1
 62
1
420
16711680
370
-1
  6
ByLayer
100
AcDbEntity
100
AcDbSpline
 70
8
 71
3
 72
8
 73
4
 74
0
 40
0.0
 40
0.0
 40
0.0
 40
0.0
 40
1.0
 40
1.0
 40
1.0
 40
1.0
 10
24.729507605999999
 20
7.9228188079999997
 30
0.0
 10
25.421395835999999
 20
7.9228188079999997
 30
0.0
 10
25.983044880000001
 20
7.3611685100000006
 30
0.0
 10
25.983044880000001
 20
6.6689279059999995
 30
0.0
  0
SPLINE
  5
76
  8
Layer_1
 62
1
420
16711680
370
-1
  6
ByLayer
100
AcDbEntity
100
AcDbSpline
 70
8
 71
3
 72
8
 73
4
 74
0
 40
0.0
 40
0.0
 40
0.0
 40
0.0
 40
1.0
 40
1.0
 40
1.0
 40
1.0
 10
25.983044880000001
 20
6.6689279059999995
 30
0.0
 10
25.983044880000001
 20
5.9763324200000003
 30
0.0
 10
25.421395835999999
 20
5.4146821219999994
 30
0.0
 10
24.729507605999999
 20
5.4146821219999994
 30
0.0
  0
SPLINE
  5
77
  8
Layer_1
 62
1
420
16711680
370
-1
  6
ByLayer
100
AcDbEntity
100
AcDbSpline
 70
8
 71
3
 72
8
 73
4
 74
0
 40
0.0
 40
0.0
 40
0.0
 40
0.0
 40
1.0
 40
1.0
 40
1.0
 40
1.0
 10
24.729507605999999
 20
5.4146821219999994
 30
0.0
 10
24.036558492000001
 20
5.4146821219999994
 30
0.0
 10
23.475616704
 20
5.9763324200000003
 30
0.0
 10
23.475616704
 20
6.6689279059999995
 30
0.0
  0
LWPOLYLINE
  5
78
  8
Layer_1
 62
1
420
16711680
370
-1
  6
ByLayer
100
AcDbEntity
100
AcDbPolyline
 90
3
 70
0
 10
23.324852046
 20
1.6530081620000008
 10
23.324852046
 20
1.6031077400000004
 10
22.438670310000003
 20
1.6031077400000004
  0
LWPOLYLINE
  5
79
  8
Layer_1
 62
1
420
16711680
370
-1
  6
ByLayer
100
AcDbEntity
100
AcDbPolyline
 90
2
 70
0
 10
23.475616704
 20
6.6689279059999995
 10
23.475616704
 20
6.6689279059999995
  0
SPLINE
  5
7A
  8
Layer_1
 62
1
420
16711680
370
-1
  6
ByLayer
100
AcDbEntity
100
AcDbSpline
 70
8
 71
3
 72
8
 73
4
 74
0
 40
0.0
 40
0.0
 40
0.0
 40
0.0
 40
1.0
 40
1.0
 40
1.0
 40
1.0
 10
18.007757868000002
 20
1.6526545339999998
 30
0.0
 10
18.007757868000002
 20
2.4273556700000007
 30
0.0
 10
17.378158325999998
 20
3.057310094
 30
0.0
 10
16.60345719
 20
3.057310094
 30
0.0
  0
SPLINE
  5
7B
  8
Layer_1
 62
1
420
16711680
370
-1
  6
ByLayer
100
AcDbEntity
100
AcDbSpline
 70
8
 71
3
 72
8
 73
4
 74
0
 40
0.0
 40
0.0
 40
0.0
 40
0.0
 40
1.0
 40
1.0
 40
1.0
 40
1.0
 10
16.60345719
 20
3.057310094
 30
0.0
 10
15.829463309999998
 20
3.057310094
 30
0.0
 10
15.197739491999998
 20
2.4277092979999999
 30
0.0
 10
15.197739491999998
 20
1.6526545339999998
 30
0.0
  0
LWPOLYLINE
  5
7C
  8
Layer_1
 62
1
420
16711680
370
-1
  6
ByLayer
100
AcDbEntity
100
AcDbPolyline
 90
3
 70
0
 10
18.893587230000001
 20
1.6027528579999997
 10
18.007757868000002
 20
1.6027528579999997
 10
18.007757868000002
 20
1.6526545339999998
  0
SPLINE
  5
7D
  8
Layer_1
 62
1
420
16711680
370
-1
  6
ByLayer
100
AcDbEntity
100
AcDbSpline
 70
8
 71
3
 72
8
 73
4
 74
0
 40
0.0
 40
0.0
 40
0.0
 40
0.0
 40
1.0
 40
1.0
 40
1.0
 40
1.0
 10
14.312265012000001
 20
1.6027528579999997
 30
0.0
 10
13.335483029999999
 20
1.6027528579999997
 30
0.0
 10
12.540608795999999
 20
2.3983356020000004
 30
0.0
 10
12.540608795999999
 20
3.3754724660000006
 30
0.0
  0
LWPOLYLINE
  5
7E
  8
Layer_1
 62
1
420
16711680
370
-1
  6
ByLayer
100
AcDbEntity
100
AcDbPolyline
 90
3
 70
0
 10
15.197739491999998
 20
1.6526545339999998
 10
15.197739491999998
 20
1.6027528579999997
 10
14.312265012000001
 20
1.6027528579999997
  0
SPLINE
  5
7F
  8
Layer_1
 62
1
420
16711680
370
-1
  6
ByLayer
100
AcDbEntity
100
AcDbSpline
 70
8
 71
3
 72
8
 73
4
 74
0
 40
0.0
 40
0.0
 40
0.0
 40
0.0
 40
1.0
 40
1.0
 40
1.0
 40
1.0
 10
12.540608795999999
 20
9.9620284639999994
 30
0.0
 10
12.540608795999999
 20
10.939518955999999
 30
0.0
 10
13.335483029999999
 20
11.73439319
 30
0.0
 10
14.312265012000001
 20
11.73439319
 30
0.0
  0
LWPOLYLINE
  5
80
  8
Layer_1
 62
1
420
16711680
370
-1
  6
ByLayer
100
AcDbEntity
100
AcDbPolyline
 90
2
 70
0
 10
12.540608795999999
 20
3.3754724660000006
 10
12.540608795999999
 20
9.9620284639999994
  0
SPLINE
  5
81
  8
Layer_1
 62
1
420
16711680
370
-1
  6
ByLayer
100
AcDbEntity
100
AcDbSpline
 70
8
 71
3
 72
8
 73
4
 74
0
 40
0.0
 40
0.0
 40
0.0
 40
0.0
 40
1.0
 40
1.0
 40
1.0
 40
1.0
 10
15.197739491999998
 20
11.684492768000002
 30
0.0
 10
15.197739491999998
 20
10.91014526
 30
0.0
 10
15.829463309999998
 20
10.280190835999999
 30
0.0
 10
16.60345719
 20
10.280190835999999
 30
0.0
  0
SPLINE
  5
82
  8
Layer_1
 62
1
420
16711680
370
-1
  6
ByLayer
100
AcDbEntity
100
AcDbSpline
 70
8
 71
3
 72
8
 73
4
 74
0
 40
0.0
 40
0.0
 40
0.0
 40
0.0
 40
1.0
 40
1.0
 40
1.0
 40
1.0
 10
16.60345719
 20
10.280190835999999
 30
0.0
 10
17.377804697999998
 20
10.280190835999999
 30
0.0
 10
18.007757868000002
 20
10.91014526
 30
0.0
 10
18.007757868000002
 20
11.684492768000002
 30
0.0
  0
LWPOLYLINE
  5
83
  8
Layer_1
 62
1
420
16711680
370
-1
  6
ByLayer
100
AcDbEntity
100
AcDbPolyline
 90
3
 70
0
 10
14.312265012000001
 20
11.73439319
 10
15.197739491999998
 20
11.73439319
 10
15.197739491999998
 20
11.684492768000002
  0
SPLINE
  5
84
  8
Layer_1
 62
1
420
16711680
370
-1
  6
ByLayer
100
AcDbEntity
100
AcDbSpline
 70
8
 71
3
 72
8
 73
4
 74
0
 40
0.0
 40
0.0
 40
0.0
 40
0.0
 40
1.0
 40
1.0
 40
1.0
 40
1.0
 10
18.893587230000001
 20
11.73439319
 30
0.0
 10
19.871431349999998
 20
11.73439319
 30
0.0
 10
20.667012839999998
 20
10.939518955999999
 30
0.0
 10
20.667012839999998
 20
9.9620284639999994
 30
0.0
  0
LWPOLYLINE
  5
85
  8
Layer_1
 62
1
420
16711680
370
-1
  6
ByLayer
100
AcDbEntity
100
AcDbPolyline
 90
3
 70
0
 10
18.007757868000002
 20
11.684492768000002
 10
18.007757868000002
 20
11.73439319
 10
18.893587230000001
 20
11.73439319
  0
SPLINE
  5
86
  8
Layer_1
 62
1
420
16711680
370
-1
  6
ByLayer
100
AcDbEntity
100
AcDbSpline
 70
8
 71
3
 72
8
 73
4
 74
0
 40
0.0
 40
0.0
 40
0.0
 40
0.0
 40
1.0
 40
1.0
 40
1.0
 40
1.0
 10
20.667012839999998
 20
3.3754724660000006
 30
0.0
 10
20.667012839999998
 20
2.3983356020000004
 30
0.0
 10
19.871431349999998
 20
1.6027528579999997
 30
0.0
 10
18.893587230000001
 20
1.6027528579999997
 30
0.0
  0
LWPOLYLINE
  5
87
  8
Layer_1
 62
1
420
16711680
370
-1
  6
ByLayer
100
AcDbEntity
100
AcDbPolyline
 90
2
 70
0
 10
20.667012839999998
 20
9.9620284639999994
 10
20.667012839999998
 20
3.3754724660000006
  0
SPLINE
  5
88
  8
Layer_1
 62
1
420
16711680
370
-1
  6
ByLayer
100
AcDbEntity
100
AcDbSpline
 70
8
 71
3
 72
8
 73
4
 74
0
 40
0.0
 40
0.0
 40
0.0
 40
0.0
 40
1.0
 40
1.0
 40
1.0
 40
1.0
 10
15.349565034000001
 20
6.6689279059999995
 30
0.0
 10
15.349565034000001
 20
7.3611685100000006
 30
0.0
 10
15.910508075999999
 20
7.9228188079999997
 30
0.0
 10
16.60345719
 20
7.9228188079999997
 30
0.0
  0
SPLINE
  5
89
  8
Layer_1
 62
1
420
16711680
370
-1
  6
ByLayer
100
AcDbEntity
100
AcDbSpline
 70
8
 71
3
 72
8
 73
4
 74
0
 40
0.0
 40
0.0
 40
0.0
 40
0.0
 40
1.0
 40
1.0
 40
1.0
 40
1.0
 10
16.60345719
 20
7.9228188079999997
 30
0.0
 10
17.295344166000003
 20
7.9228188079999997
 30
0.0
 10
17.856994464
 20
7.3611685100000006
 30
0.0
 10
17.856994464
 20
6.6689279059999995
 30
0.0
  0
SPLINE
  5
8A
  8
Layer_1
 62
1
420
16711680
370
-1
  6
ByLayer
100
AcDbEntity
100
AcDbSpline
 70
8
 71
3
 72
8
 73
4
 74
0
 40
0.0
 40
0.0
 40
0.0
 40
0.0
 40
1.0
 40
1.0
 40
1.0
 40
1.0
 10
17.856994464
 20
6.6689279059999995
 30
0.0
 10
17.856994464
 20
5.9763324200000003
 30
0.0
 10
17.295344166000003
 20
5.4146821219999994
 30
0.0
 10
16.60345719
 20
5.4146821219999994
 30
0.0
  0
SPLINE
  5
8B
  8
Layer_1
 62
1
420
16711680
370
-1
  6
ByLayer
100
AcDbEntity
100
AcDbSpline
 70
8
 71
3
 72
8
 73
4
 74
0
 40
0.0
 40
0.0
 40
0.0
 40
0.0
 40
1.0
 40
1.0
 40
1.0
 40
1.0
 10
16.60345719
 20
5.4146821219999994
 30
0.0
 10
15.910508075999999
 20
5.4146821219999994
 30
0.0
 10
15.349565034000001
 20
5.9763324200000003
 30
0.0
 10
15.349565034000001
 20
6.6689279059999995
 30
0.0
  0
LWPOLYLINE
  5
8C
  8
Layer_1
 62
1
420
16711680
370
-1
  6
ByLayer
100
AcDbEntity
100
AcDbPolyline
 90
2
 70
0
 10
18.893587230000001
 20
1.6027528579999997
 10
18.893587230000001
 20
1.6027528579999997
  0
SPLINE
  5
8D
  8
Layer_1
 62
1
420
16711680
370
-1
  6
ByLayer
100
AcDbEntity
100
AcDbSpline
 70
8
 71
3
 72
8
 73
4
 74
0
 40
0.0
 40
0.0
 40
0.0
 40
0.0
 40
1.0
 40
1.0
 40
1.0
 40
1.0
 10
3.184731738
 20
4.0907177000000008
 30
0.0
 10
2.4425894579999969
 20
4.0907177000000008
 30
0.0
 10
1.7538863880000015
 20
4.4272825219999996
 30
0.0
 10
1.2938088360000002
 20
5.0137055900000007
 30
0.0
  0
LWPOLYLINE
  5
8E
  8
Layer_1
 62
1
420
16711680
370
-1
  6
ByLayer
100
AcDbEntity
100
AcDbPolyline
 90
2
 70
0
 10
15.349565034000001
 20
6.6689279059999995
 10
15.349565034000001
 20
6.6689279059999995
  0
SPLINE
  5
8F
  8
Layer_1
 62
1
420
16711680
370
-1
  6
ByLayer
100
AcDbEntity
100
AcDbSpline
 70
8
 71
3
 72
8
 73
4
 74
0
 40
0.0
 40
0.0
 40
0.0
 40
0.0
 40
1.0
 40
1.0
 40
1.0
 40
1.0
 10
1.2853142399999982
 20
7.9429919059999996
 30
0.0
 10
1.7538863880000015
 20
8.5566656479999992
 30
0.0
 10
2.4429430859999997
 20
8.8932304700000007
 30
0.0
 10
3.184731738
 20
8.8932304700000007
 30
0.0
  0
SPLINE
  5
90
  8
Layer_1
 62
1
420
16711680
370
-1
  6
ByLayer
100
AcDbEntity
100
AcDbSpline
 70
8
 71
3
 72
8
 73
4
 74
0
 40
0.0
 40
0.0
 40
0.0
 40
0.0
 40
1.0
 40
1.0
 40
1.0
 40
1.0
 10
3.184731738
 20
8.8932304700000007
 30
0.0
 10
4.5079889040000012
 20
8.8932304700000007
 30
0.0
 10
5.5859887500000003
 20
7.8159391339999997
 30
0.0
 10
5.5859887500000003
 20
6.4919734580000004
 30
0.0
  0
SPLINE
  5
91
  8
Layer_1
 62
1
420
16711680
370
-1
  6
ByLayer
100
AcDbEntity
100
AcDbSpline
 70
8
 71
3
 72
8
 73
4
 74
0
 40
0.0
 40
0.0
 40
0.0
 40
0.0
 40
1.0
 40
1.0
 40
1.0
 40
1.0
 10
5.5859887500000003
 20
6.4919734580000004
 30
0.0
 10
5.5859887500000003
 20
5.1680090360000008
 30
0.0
 10
4.5083425320000003
 20
4.0907177000000008
 30
0.0
 10
3.184731738
 20
4.0907177000000008
 30
0.0
  0
LWPOLYLINE
  5
92
  8
Layer_1
 62
1
420
16711680
370
-1
  6
ByLayer
100
AcDbEntity
100
AcDbPolyline
 90
2
 70
0
 10
1.2938088360000002
 20
5.0137055900000007
 10
1.2853142399999982
 20
7.9429919059999996
  0
LWPOLYLINE
  5
93
  8
Layer_1
 62
1
420
16711680
370
-1
  6
ByLayer
100
AcDbEntity
100
AcDbPolyline
 90
2
 70
0
 10
3.184731738
 20
4.0907177000000008
 10
3.184731738
 20
4.0907177000000008
  0
LWPOLYLINE
  5
94
  8
Layer_1
 62
1
420
16711680
370
-1
  6
ByLayer
100
AcDbEntity
100
AcDbPolyline
 90
66
 70
0
 10
1.5879044400000026
 20
-0.3734608539999993
 10
0.6642080399999983
 20
-0.090336495999999
 10
0.40302492
 20
1.6657488019999995
 10
0.5024733900000022
 20
2.0302728080000003
 10
0.9547661100000013
 20
2.8513355779999996
 10
0.0353157539999991
 20
3.6097585400000005
 10
-0.6502009020000017
 20
3.033951836
 10
-1.0271119199999994
 20
2.8506283220000004
 10
-2.7991217640000023
 20
2.7674605339999996
 10
-3.2521229940000005
 20
3.6210834140000001
 10
-2.1620897639999974
 20
5.065730288000001
 10
-1.8655162559999994
 20
5.2352510240000001
 10
-0.9662402519999986
 20
5.4957268880000001
 10
-1.0801975020000008
 20
6.6827294299999993
 10
-1.9716886739999993
 20
6.7598817800000006
 10
-2.3673557699999996
 20
6.8975509159999993
 10
-3.6792880620000012
 20
8.0902165219999986
 10
-3.3965173320000019
 20
9.0146201779999995
 10
-1.6400784060000007
 20
9.2754496700000004
 10
-1.275200771999998
 20
9.1763560820000016
 10
-0.4544903760000025
 20
8.7240633620000008
 10
0.3035777039999985
 20
9.6442209739999996
 10
-0.2715204900000039
 20
10.328676745999999
 10
-0.4544903760000025
 20
10.706648648
 10
-0.5383666739999988
 20
12.477243980000001
 10
0.3159647159999999
 20
12.930597584000001
 10
1.7606115899999999
 20
11.841272864
 10
1.9294250700000006
 20
11.546115122
 10
2.1906081900000025
 20
10.646130608
 10
3.3772571039999981
 20
10.759026974000001
 10
3.4540545720000004
 20
11.650163264
 10
3.5920785899999998
 20
12.046892498000002
 10
4.7850978240000011
 20
13.35882479
 10
5.708794224
 20
13.075345550000002
 10
5.9696237159999992
 20
11.319261506
 10
5.8705288739999997
 20
10.954382618
 10
5.4189446639999996
 20
10.133673476
 10
6.3387473939999985
 20
9.3752517679999983
 10
7.0232031660000001
 20
9.951057217999999
 10
7.4004678119999987
 20
10.133673476
 10
9.1721240280000007
 20
10.217196145999999
 10
9.6251252579999989
 20
9.3632183840000014
 10
8.5350920279999993
 20
7.9189251380000005
 10
8.2399342860000004
 20
7.7494044020000006
 10
7.3399497720000006
 20
7.4889285379999997
 10
7.4531997660000009
 20
6.3019259959999996
 10
8.3446909379999994
 20
6.2247748999999999
 10
8.7410665439999988
 20
6.0871045099999996
 10
10.052290326
 20
4.8937316479999993
 10
9.7695195960000003
 20
3.9696816200000002
 10
8.0130806700000008
 20
3.7092057559999994
 10
7.6489102920000018
 20
3.8082993439999999
 10
6.8282011499999999
 20
4.2602384359999999
 10
6.0694245599999999
 20
3.3411429620000002
 10
6.6445227540000005
 20
2.6566871899999995
 10
6.8274926399999991
 20
2.2783616599999998
 10
6.911368937999999
 20
0.5074127000000006
 10
6.0577460579999993
 20
0.0544114699999998
 10
4.6123906740000002
 20
1.1433825620000002
 10
4.4432235660000003
 20
1.4392488139999999
 10
4.1831025840000002
 20
2.3395869560000007
 10
2.9960987879999976
 20
2.2263369619999995
 10
2.9193013199999989
 20
1.3348457899999993
 10
2.7809236740000003
 20
0.9381165559999989
 10
1.5879044400000026
 20
-0.3734608539999993
 10
1.5879044400000026
 20
-0.3734608539999993
  0
ENDSEC
  0
SECTION
  2
OBJECTS
  0
DICTIONARY
  5
C
100
AcDbDictionary
280
0
281
1
  3
ACAD_GROUP
350
D
  3
ACAD_LAYOUT
350
1A
  3
ACAD_MLINESTYLE
350
17
  3
ACAD_PLOTSETTINGS
350
19
  3
ACAD_PLOTSTYLENAME
350
E
  3
AcDbVariableDictionary
350
95
  0
DICTIONARY
  5
D
100
AcDbDictionary
280
0
281
1
  0
ACDBDICTIONARYWDFLT
  5
E
100
AcDbDictionary
281
1
  3
Normal
350
F
100
AcDbDictionaryWithDefault
340
F
  0
ACDBPLACEHOLDER
  5
F
  0
DICTIONARY
  5
17
100
AcDbDictionary
280
0
281
1
  3
Standard
350
18
  0
MLINESTYLE
  5
18
100
AcDbMlineStyle
  2
STANDARD
 70
0
  3

 62
256
 51
90.0
 52
90.0
 71
2
 49
0.5
 62
256
  6
BYLAYER
 49
-0.5
 62
256
  6
BYLAYER
  0
DICTIONARY
  5
19
100
AcDbDictionary
280
0
281
1
  0
DICTIONARY
  5
1A
100
AcDbDictionary
281
1
  3
Layout1
350
1E
  3
Layout2
350
26
  3
Model
350
22
  0
LAYOUT
  5
1E
100
AcDbPlotSettings
  1

  2
C:\Program Files\AutoCAD 2002\plotters\DWF ePlot (optimized for plotting).pc3
  4

  6

 40
0.0
 41
0.0
 42
0.0
 43
0.0
 44
0.0
 45
0.0
 46
0.0
 47
0.0
 48
0.0
 49
0.0
140
0.0
141
0.0
142
1.0
143
1.0
 70
688
 72
0
 73
0
 74
5
  7

 75
16
147
1.0
148
0.0
149
0.0
100
AcDbLayout
  1
Layout1
 70
1
 71
1
 10
0.0
 20
0.0
 11
420.0
 21
297.0
 12
0.0
 22
0.0
 32
0.0
 14
100000000000000000000.0
 24
100000000000000000000.0
 34
100000000000000000000.0
 15
-100000000000000000000.0
 25
-100000000000000000000.0
 35
-100000000000000000000.0
146
0.0
 13
0.0
 23
0.0
 33
0.0
 16
1.0
 26
0.0
 36
0.0
 17
0.0
 27
1.0
 37
0.0
 76
0
330
1B
  0
LAYOUT
  5
22
100
AcDbPlotSettings
  1

  2
C:\Program Files\AutoCAD 2002\plotters\DWF ePlot (optimized for plotting).pc3
  4

  6

 40
0.0
 41
0.0
 42
0.0
 43
0.0
 44
0.0
 45
0.0
 46
0.0
 47
0.0
 48
0.0
 49
0.0
140
0.0
141
0.0
142
1.0
143
1.0
 70
1712
 72
0
 73
0
 74
0
  7

 75
0
147
1.0
148
0.0
149
0.0
100
AcDbLayout
  1
Model
 70
1
 71
0
 10
0.0
 20
0.0
 11
12.0
 21
9.0
 12
0.0
 22
0.0
 32
0.0
 14
0.0
 24
0.0
 34
0.0
 15
0.0
 25
0.0
 35
0.0
146
0.0
 13
0.0
 23
0.0
 33
0.0
 16
1.0
 26
0.0
 36
0.0
 17
0.0
 27
1.0
 37
0.0
 76
0
330
1F
  0
LAYOUT
  5
26
100
AcDbPlotSettings
  1

  2
C:\Program Files\AutoCAD 2002\plotters\DWF ePlot (optimized for plotting).pc3
  4

  6

 40
0.0
 41
0.0
 42
0.0
 43
0.0
 44
0.0
 45
0.0
 46
0.0
 47
0.0
 48
0.0
 49
0.0
140
0.0
141
0.0
142
1.0
143
1.0
 70
688
 72
0
 73
0
 74
5
  7

 75
16
147
1.0
148
0.0
149
0.0
100
AcDbLayout
  1
Layout2
 70
1
 71
2
 10
0.0
 20
0.0
 11
12.0
 21
9.0
 12
0.0
 22
0.0
 32
0.0
 14
0.0
 24
0.0
 34
0.0
 15
0.0
 25
0.0
 35
0.0
146
0.0
 13
0.0
 23
0.0
 33
0.0
 16
1.0
 26
0.0
 36
0.0
 17
0.0
 27
1.0
 37
0.0
 76
0
330
23
  0
DICTIONARY
  5
95
100
AcDbDictionary
281
1
  3
DIMASSOC
350
97
  3
HIDETEXT
350
96
  0
DICTIONARYVAR
  5
96
100
DictionaryVariables
280
0
  1
2
  0
DICTIONARYVAR
  5
97
100
DictionaryVariables
280
0
  1
1
  0
ENDSEC
  0
EOF
