999
dxflib 2.2.0.0
  0
SECTION
  2
HEADER
  9
$ACADVER
  1
AC1015
  9
$HANDSEED
  5
FFFF
  9
$DIMASZ
 40
2.5
  9
$PLIMMIN
 10
0.0
 20
0.0
  9
$DIMEXE
 40
1.25
  9
$DIMGAP
 40
0.625
  9
$PLIMMAX
 10
210.0
 20
297.0
  9
$INSUNITS
 70
4
  9
$DIMSTYLE
  2
Standard
  9
$MEASUREMENT
 70
1
  9
$CLAYER
  8
0
  9
$DIMEXO
 40
0.625
  9
$DIMTXT
 40
2.5
  9
$CLAYER
  8
laser cut size
  0
ENDSEC
  0
SECTION
  2
TABLES
  0
TABLE
  2
VPORT
  5
8
100
AcDbSymbolTable
 70
1
  0
VPORT
  5
30
100
AcDbSymbolTableRecord
100
AcDbViewportTableRecord
  2
*Active
 70
0
 10
0.0
 20
0.0
 11
1.0
 21
1.0
 12
286.30555555555549
 22
148.5
 13
0.0
 23
0.0
 14
10.0
 24
10.0
 15
10.0
 25
10.0
 16
0.0
 26
0.0
 36
1.0
 17
0.0
 27
0.0
 37
0.0
 40
297.0
 41
1.92798353909465
 42
50.0
 43
0.0
 44
0.0
 50
0.0
 51
0.0
 71
0
 72
100
 73
1
 74
3
 75
1
 76
1
 77
0
 78
0
281
0
 65
1
110
0.0
120
0.0
130
0.0
111
1.0
121
0.0
131
0.0
112
0.0
122
1.0
132
0.0
 79
0
146
0.0
  0
ENDTAB
  0
TABLE
  2
LTYPE
  5
5
100
AcDbSymbolTable
 70
21
  0
LTYPE
  5
14
100
AcDbSymbolTableRecord
100
AcDbLinetypeTableRecord
  2
ByBlock
 70
0
  3

 72
65
 73
0
 40
0.0
  0
LTYPE
  5
15
100
AcDbSymbolTableRecord
100
AcDbLinetypeTableRecord
  2
ByLayer
 70
0
  3

 72
65
 73
0
 40
0.0
  0
LTYPE
  5
16
100
AcDbSymbolTableRecord
100
AcDbLinetypeTableRecord
  2
CONTINUOUS
 70
0
  3
Solid line
 72
65
 73
0
 40
0.0
  0
LTYPE
  5
31
100
AcDbSymbolTableRecord
100
AcDbLinetypeTableRecord
  2
DOT
 70
0
  3
Dot . . . . . . . . . . . . . . . . . . . . . .
 72
65
 73
2
 40
6.3499999999999996
 49
0.0
 74
0
 49
-6.3499999999999996
 74
0
  0
LTYPE
  5
32
100
AcDbSymbolTableRecord
100
AcDbLinetypeTableRecord
  2
DOT2
 70
0
  3
Dot (.5x) .....................................
 72
65
 73
2
 40
3.1749999999999998
 49
0.0
 74
0
 49
-3.1749999999999998
 74
0
  0
LTYPE
  5
33
100
AcDbSymbolTableRecord
100
AcDbLinetypeTableRecord
  2
DOTX2
 70
0
  3
Dot (2x) .  .  .  .  .  .  .  .  .  .  .  .  .
 72
65
 73
2
 40
12.699999999999999
 49
0.0
 74
0
 49
-12.699999999999999
 74
0
  0
LTYPE
  5
34
100
AcDbSymbolTableRecord
100
AcDbLinetypeTableRecord
  2
DASHED
 70
0
  3
Dashed __ __ __ __ __ __ __ __ __ __ __ __ __ _
 72
65
 73
2
 40
19.050000000000001
 49
12.699999999999999
 74
0
 49
-6.3499999999999996
 74
0
  0
LTYPE
  5
35
100
AcDbSymbolTableRecord
100
AcDbLinetypeTableRecord
  2
DASHED2
 70
0
  3
Dashed (.5x) _ _ _ _ _ _ _ _ _ _ _ _ _ _ _ _ _
 72
65
 73
2
 40
9.5250000000000004
 49
6.3499999999999996
 74
0
 49
-3.1749999999999998
 74
0
  0
LTYPE
  5
36
100
AcDbSymbolTableRecord
100
AcDbLinetypeTableRecord
  2
DASHEDX2
 70
0
  3
Dashed (2x) ____  ____  ____  ____  ____  ___
 72
65
 73
2
 40
38.100000000000001
 49
25.399999999999999
 74
0
 49
-12.699999999999999
 74
0
  0
LTYPE
  5
37
100
AcDbSymbolTableRecord
100
AcDbLinetypeTableRecord
  2
DASHDOT
 70
0
  3
Dash dot __ . __ . __ . __ . __ . __ . __ . __
 72
65
 73
4
 40
25.399999999999999
 49
12.699999999999999
 74
0
 49
-6.3499999999999996
 74
0
 49
0.0
 74
0
 49
-6.3499999999999996
 74
0
  0
LTYPE
  5
38
100
AcDbSymbolTableRecord
100
AcDbLinetypeTableRecord
  2
DASHDOT2
 70
0
  3
Dash dot (.5x) _._._._._._._._._._._._._._._.
 72
65
 73
4
 40
12.699999999999999
 49
6.3499999999999996
 74
0
 49
-3.1749999999999998
 74
0
 49
0.0
 74
0
 49
-3.1749999999999998
 74
0
  0
LTYPE
  5
39
100
AcDbSymbolTableRecord
100
AcDbLinetypeTableRecord
  2
DASHDOTX2
 70
0
  3
Dash dot (2x) ____  .  ____  .  ____  .  ___
 72
65
 73
4
 40
50.799999999999997
 49
25.399999999999999
 74
0
 49
-12.699999999999999
 74
0
 49
0.0
 74
0
 49
-12.699999999999999
 74
0
  0
LTYPE
  5
3A
100
AcDbSymbolTableRecord
100
AcDbLinetypeTableRecord
  2
DIVIDE
 70
0
  3
Divide ____ . . ____ . . ____ . . ____ . . ____
 72
65
 73
6
 40
31.75
 49
12.699999999999999
 74
0
 49
-6.3499999999999996
 74
0
 49
0.0
 74
0
 49
-6.3499999999999996
 74
0
 49
0.0
 74
0
 49
-6.3499999999999996
 74
0
  0
LTYPE
  5
3B
100
AcDbSymbolTableRecord
100
AcDbLinetypeTableRecord
  2
DIVIDE2
 70
0
  3
Divide (.5x) __..__..__..__..__..__..__..__.._
 72
65
 73
6
 40
15.875
 49
6.3499999999999996
 74
0
 49
-3.1749999999999998
 74
0
 49
0.0
 74
0
 49
-3.1749999999999998
 74
0
 49
0.0
 74
0
 49
-3.1749999999999998
 74
0
  0
LTYPE
  5
3C
100
AcDbSymbolTableRecord
100
AcDbLinetypeTableRecord
  2
DIVIDEX2
 70
0
  3
Divide (2x) ________  .  .  ________  .  .  _
 72
65
 73
6
 40
63.5
 49
25.399999999999999
 74
0
 49
-12.699999999999999
 74
0
 49
0.0
 74
0
 49
-12.699999999999999
 74
0
 49
0.0
 74
0
 49
-12.699999999999999
 74
0
  0
LTYPE
  5
3D
100
AcDbSymbolTableRecord
100
AcDbLinetypeTableRecord
  2
CENTER
 70
0
  3
Center ____ _ ____ _ ____ _ ____ _ ____ _ ____
 72
65
 73
4
 40
50.799999999999997
 49
31.75
 74
0
 49
-6.3499999999999996
 74
0
 49
6.3499999999999996
 74
0
 49
-6.3499999999999996
 74
0
  0
LTYPE
  5
3E
100
AcDbSymbolTableRecord
100
AcDbLinetypeTableRecord
  2
CENTER2
 70
0
  3
Center (.5x) ___ _ ___ _ ___ _ ___ _ ___ _ ___
 72
65
 73
4
 40
28.574999999999999
 49
19.050000000000001
 74
0
 49
-3.1749999999999998
 74
0
 49
3.1749999999999998
 74
0
 49
-3.1749999999999998
 74
0
  0
LTYPE
  5
3F
100
AcDbSymbolTableRecord
100
AcDbLinetypeTableRecord
  2
CENTERX2
 70
0
  3
Center (2x) ________  __  ________  __  _____
 72
65
 73
4
 40
101.59999999999999
 49
63.5
 74
0
 49
-12.699999999999999
 74
0
 49
12.699999999999999
 74
0
 49
-12.699999999999999
 74
0
  0
LTYPE
  5
40
100
AcDbSymbolTableRecord
100
AcDbLinetypeTableRecord
  2
BORDER
 70
0
  3
Border __ __ . __ __ . __ __ . __ __ . __ __ .
 72
65
 73
6
 40
44.450000000000003
 49
12.699999999999999
 74
0
 49
-6.3499999999999996
 74
0
 49
12.699999999999999
 74
0
 49
-6.3499999999999996
 74
0
 49
0.0
 74
0
 49
-6.3499999999999996
 74
0
  0
LTYPE
  5
41
100
AcDbSymbolTableRecord
100
AcDbLinetypeTableRecord
  2
BORDER2
 70
0
  3
Border (.5x) __.__.__.__.__.__.__.__.__.__.__.
 72
65
 73
6
 40
22.225000000000001
 49
6.3499999999999996
 74
0
 49
-3.1749999999999998
 74
0
 49
6.3499999999999996
 74
0
 49
-3.1749999999999998
 74
0
 49
0.0
 74
0
 49
-3.1749999999999998
 74
0
  0
LTYPE
  5
42
100
AcDbSymbolTableRecord
100
AcDbLinetypeTableRecord
  2
BORDERX2
 70
0
  3
Border (2x) ____  ____  .  ____  ____  .  ___
 72
65
 73
6
 40
88.900000000000006
 49
25.399999999999999
 74
0
 49
-12.699999999999999
 74
0
 49
25.399999999999999
 74
0
 49
-12.699999999999999
 74
0
 49
0.0
 74
0
 49
-12.699999999999999
 74
0
  0
ENDTAB
  0
TABLE
  2
LAYER
  5
2
100
AcDbSymbolTable
 70
3
  0
LAYER
  5
10
100
AcDbSymbolTableRecord
100
AcDbLayerTableRecord
  2
0
 70
0
 62
7
420
16777215
  6
CONTINUOUS
390
F
  0
LAYER
  5
43
100
AcDbSymbolTableRecord
100
AcDbLayerTableRecord
  2
Layer_1
 70
0
 62
7
420
16777215
  6
CONTINUOUS
390
F
  0
LAYER
  5
44
100
AcDbSymbolTableRecord
100
AcDbLayerTableRecord
  2
laser cut size
 70
0
 62
3
420
65280
  6
CONTINUOUS
370
0
390
F
  0
ENDTAB
  0
TABLE
  2
STYLE
  5
3
100
AcDbSymbolTable
 70
1
  0
STYLE
  5
11
100
AcDbSymbolTableRecord
100
AcDbTextStyleTableRecord
  2
Standard
 70
0
 40
0.0
 41
0.75
 50
0.0
 71
0
 42
2.5
  3
txt
  4

  0
ENDTAB
  0
TABLE
  2
VIEW
  5
6
100
AcDbSymbolTable
 70
0
  0
ENDTAB
  0
TABLE
  2
UCS
  5
7
100
AcDbSymbolTable
 70
0
  0
ENDTAB
  0
TABLE
  2
APPID
  5
9
100
AcDbSymbolTable
 70
1
  0
APPID
  5
12
100
AcDbSymbolTableRecord
100
AcDbRegAppTableRecord
  2
ACAD
 70
0
  0
ENDTAB
  0
TABLE
  2
DIMSTYLE
  5
A
100
AcDbSymbolTable
 70
1
100
AcDbDimStyleTable
 71
0
  0
DIMSTYLE
105
27
100
AcDbSymbolTableRecord
100
AcDbDimStyleTableRecord
  2
Standard
 41
2.5
 42
0.625
 43
3.75
 44
1.25
 70
0
 73
0
 74
0
 77
1
 78
8
140
2.5
141
2.5
143
0.03937007874016
147
0.625
171
3
172
1
271
2
272
2
274
3
278
44
283
0
284
8
340
11
  0
ENDTAB
  0
TABLE
  2
BLOCK_RECORD
  5
1
100
AcDbSymbolTable
 70
1
  0
BLOCK_RECORD
  5
1F
100
AcDbSymbolTableRecord
100
AcDbBlockTableRecord
  2
*Model_Space
340
22
  0
BLOCK_RECORD
  5
1B
100
AcDbSymbolTableRecord
100
AcDbBlockTableRecord
  2
*Paper_Space
340
1E
  0
BLOCK_RECORD
  5
23
100
AcDbSymbolTableRecord
100
AcDbBlockTableRecord
  2
*Paper_Space0
340
26
  0
ENDTAB
  0
ENDSEC
  0
SECTION
  2
BLOCKS
  0
BLOCK
  5
20
100
AcDbEntity
  8
0
100
AcDbBlockBegin
  2
*Model_Space
 70
0
 10
0.0
 20
0.0
 30
0.0
  3
*Model_Space
  1

  0
ENDBLK
  5
21
100
AcDbEntity
  8
0
100
AcDbBlockEnd
  0
BLOCK
  5
1C
100
AcDbEntity
 67
1
  8
0
100
AcDbBlockBegin
  2
*Paper_Space
 70
0
 10
0.0
 20
0.0
 30
0.0
  3
*Paper_Space
  1

  0
ENDBLK
  5
1D
100
AcDbEntity
 67
1
  8
0
100
AcDbBlockEnd
  0
BLOCK
  5
24
100
AcDbEntity
  8
0
100
AcDbBlockBegin
  2
*Paper_Space0
 70
0
 10
0.0
 20
0.0
 30
0.0
  3
*Paper_Space0
  1

  0
ENDBLK
  5
25
100
AcDbEntity
  8
0
100
AcDbBlockEnd
  0
ENDSEC
  0
SECTION
  2
ENTITIES
  0
SPLINE
  5
45
  8
Layer_1
 62
1
420
16711680
370
-1
  6
ByLayer
100
AcDbEntity
100
AcDbSpline
 70
8
 71
3
 72
8
 73
4
 74
0
 40
0.0
 40
0.0
 40
0.0
 40
0.0
 40
1.0
 40
1.0
 40
1.0
 40
1.0
 10
73.913437999999999
 20
67.573429000000004
 30
0.0
 10
73.405071000000007
 20
67.148515000000003
 30
0.0
 10
72.648433999999995
 20
67.216136000000006
 30
0.0
 10
72.223519999999994
 20
67.724502999999999
 30
0.0
  0
SPLINE
  5
46
  8
Layer_1
 62
1
420
16711680
370
-1
  6
ByLayer
100
AcDbEntity
100
AcDbSpline
 70
8
 71
3
 72
8
 73
4
 74
0
 40
0.0
 40
0.0
 40
0.0
 40
0.0
 40
1.0
 40
1.0
 40
1.0
 40
1.0
 10
72.223519999999994
 20
67.724502999999999
 30
0.0
 10
71.798578000000006
 20
68.232898000000006
 30
0.0
 10
71.866254999999995
 20
68.989535000000004
 30
0.0
 10
72.374593000000004
 20
69.414449000000005
 30
0.0
  0
SPLINE
  5
47
  8
Layer_1
 62
1
420
16711680
370
-1
  6
ByLayer
100
AcDbEntity
100
AcDbSpline
 70
8
 71
3
 72
8
 73
4
 74
0
 40
0.0
 40
0.0
 40
0.0
 40
0.0
 40
1.0
 40
1.0
 40
1.0
 40
1.0
 10
72.374593000000004
 20
69.414449000000005
 30
0.0
 10
72.883016999999995
 20
69.839391000000006
 30
0.0
 10
73.639598000000007
 20
69.771714000000003
 30
0.0
 10
74.064539999999994
 20
69.263346999999996
 30
0.0
  0
SPLINE
  5
48
  8
Layer_1
 62
1
420
16711680
370
-1
  6
ByLayer
100
AcDbEntity
100
AcDbSpline
 70
8
 71
3
 72
8
 73
4
 74
0
 40
0.0
 40
0.0
 40
0.0
 40
0.0
 40
1.0
 40
1.0
 40
1.0
 40
1.0
 10
74.064539999999994
 20
69.263346999999996
 30
0.0
 10
74.489481999999995
 20
68.754952000000003
 30
0.0
 10
74.421833000000007
 20
67.998343000000006
 30
0.0
 10
73.913437999999999
 20
67.573429000000004
 30
0.0
  0
LWPOLYLINE
  5
49
  8
Layer_1
 62
1
420
16711680
370
-1
  6
ByLayer
100
AcDbEntity
100
AcDbPolyline
 90
2
 70
0
 10
73.913437999999999
 20
67.573429000000004
 10
73.913437999999999
 20
67.573429000000004
  0
LWPOLYLINE
  5
4A
  8
Layer_1
 62
1
420
16711680
370
-1
  6
ByLayer
100
AcDbEntity
100
AcDbPolyline
 90
2
 70
0
 10
41.439143000000001
 20
74.365444999999994
 10
41.044766000000003
 20
75.444550000000007
  0
LWPOLYLINE
  5
4B
  8
Layer_1
 62
1
420
16711680
370
-1
  6
ByLayer
100
AcDbEntity
100
AcDbPolyline
 90
2
 70
0
 10
40.810917000000003
 20
76.297764999999998
 10
40.262332999999998
 20
77.801586
  0
LWPOLYLINE
  5
4C
  8
Layer_1
 62
1
420
16711680
370
-1
  6
ByLayer
100
AcDbEntity
100
AcDbPolyline
 90
2
 70
0
 10
39.923327999999998
 20
78.872563
 10
39.375309000000001
 20
80.375791000000007
  0
LWPOLYLINE
  5
4D
  8
Layer_1
 62
1
420
16711680
370
-1
  6
ByLayer
100
AcDbEntity
100
AcDbPolyline
 90
2
 70
0
 10
38.826894000000003
 20
81.878596000000002
 10
38.278508000000002
 20
83.382220000000004
  0
LWPOLYLINE
  5
4E
  8
Layer_1
 62
1
420
16711680
370
-1
  6
ByLayer
100
AcDbEntity
100
AcDbPolyline
 90
2
 70
0
 10
37.769154
 20
84.873962000000006
 10
37.416207
 20
85.966415999999995
  0
LWPOLYLINE
  5
4F
  8
Layer_1
 62
1
420
16711680
370
-1
  6
ByLayer
100
AcDbEntity
100
AcDbPolyline
 90
2
 70
0
 10
36.925055
 20
87.488778999999994
 10
36.43365
 20
89.011368000000004
  0
LWPOLYLINE
  5
50
  8
Layer_1
 62
1
420
16711680
370
-1
  6
ByLayer
100
AcDbEntity
100
AcDbPolyline
 90
2
 70
0
 10
35.941934000000003
 20
90.534379999999999
 10
35.450358999999999
 20
92.057137999999995
  0
LWPOLYLINE
  5
51
  8
Layer_1
 62
1
420
16711680
370
-1
  6
ByLayer
100
AcDbEntity
100
AcDbPolyline
 90
2
 70
0
 10
34.959434000000002
 20
93.580066000000002
 10
34.467803000000004
 20
95.102485000000001
  0
LWPOLYLINE
  5
52
  8
Layer_1
 62
1
420
16711680
370
-1
  6
ByLayer
100
AcDbEntity
100
AcDbPolyline
 90
2
 70
0
 10
33.976453999999997
 20
96.625045999999998
 10
33.484144999999998
 20
98.148312000000004
  0
LWPOLYLINE
  5
53
  8
Layer_1
 62
1
420
16711680
370
-1
  6
ByLayer
100
AcDbEntity
100
AcDbPolyline
 90
2
 70
0
 10
32.992966000000003
 20
99.67107
 10
32.692765999999999
 20
100.60231899999999
  0
LWPOLYLINE
  5
54
  8
Layer_1
 62
1
420
16711680
370
-1
  6
ByLayer
100
AcDbEntity
100
AcDbPolyline
 90
2
 70
0
 10
65.622793999999999
 20
98.169987000000006
 10
65.084228999999993
 20
100.305252
  0
LWPOLYLINE
  5
55
  8
Layer_1
 62
1
420
16711680
370
-1
  6
ByLayer
100
AcDbEntity
100
AcDbPolyline
 90
2
 70
0
 10
64.250007999999994
 20
101.670756
 10
63.417481000000002
 20
103.03688099999999
  0
LWPOLYLINE
  5
56
  8
Layer_1
 62
1
420
16711680
370
-1
  6
ByLayer
100
AcDbEntity
100
AcDbPolyline
 90
2
 70
0
 10
62.584305000000001
 20
104.40289300000001
 10
61.751550999999999
 20
105.768877
  0
LWPOLYLINE
  5
57
  8
Layer_1
 62
1
420
16711680
370
-1
  6
ByLayer
100
AcDbEntity
100
AcDbPolyline
 90
2
 70
0
 10
60.917726000000002
 20
107.13432400000001
 10
60.084549000000003
 20
108.49991300000001
  0
LWPOLYLINE
  5
58
  8
Layer_1
 62
1
420
16711680
370
-1
  6
ByLayer
100
AcDbEntity
100
AcDbPolyline
 90
2
 70
0
 10
59.251063000000002
 20
109.866743
 10
58.243924
 20
111.59273
  0
LWPOLYLINE
  5
59
  8
Layer_1
 62
5
420
255
370
-1
  6
ByLayer
100
AcDbEntity
100
AcDbPolyline
 90
2
 70
0
 10
34.194104000000003
 20
78.534121999999996
 10
22.536237
 20
87.717887000000005
  0
LWPOLYLINE
  5
5A
  8
Layer_1
 62
5
420
255
370
-1
  6
ByLayer
100
AcDbEntity
100
AcDbPolyline
 90
2
 70
0
 10
66.431359999999998
 20
96.968058999999997
 10
38.035459000000003
 20
83.886015
  0
LWPOLYLINE
  5
5B
  8
Layer_1
 62
1
420
16711680
370
-1
  6
ByLayer
100
AcDbEntity
100
AcDbPolyline
 90
2
 70
0
 10
41.638306999999998
 20
73.720144000000005
 10
41.638306999999998
 20
73.720144000000005
  0
LWPOLYLINE
  5
5C
  8
Layer_1
 62
1
420
16711680
370
-1
  6
ByLayer
100
AcDbEntity
100
AcDbPolyline
 90
12
 70
0
 10
38.035459000000003
 20
83.886015
 10
32.355313000000002
 20
75.873132999999996
 10
20.577220000000001
 20
85.119720999999998
 10
24.831098999999998
 20
90.453693000000001
 10
18.082121999999998
 20
95.428791000000004
 10
32.492472999999997
 20
101.67894
 10
57.512065999999997
 20
112.790368
 10
70.127878999999993
 20
119.108223
 10
70.192083999999994
 20
109.986801
 10
77.413925000000006
 20
109.192994
 10
75.792248000000001
 20
96.734717000000003
 10
66.431754999999995
 20
96.968001999999998
  0
LWPOLYLINE
  5
5D
  8
Layer_1
 62
5
420
255
370
-1
  6
ByLayer
100
AcDbEntity
100
AcDbPolyline
 90
2
 70
0
 10
72.787428000000006
 20
109.706074
 10
71.684955000000002
 20
97.384844999999999
  0
LWPOLYLINE
  5
5E
  8
Layer_1
 62
1
420
16711680
370
-1
  6
ByLayer
100
AcDbEntity
100
AcDbPolyline
 90
8
 70
0
 10
92.865506999999994
 20
90.498706999999996
 10
102.383847
 20
79.111012000000002
 10
77.392307000000002
 20
58.366832000000002
 10
71.033332000000001
 20
63.334282000000002
 10
53.977260999999999
 20
84.033589000000006
 10
41.638306999999998
 20
73.720144000000005
 10
37.496921999999998
 20
72.201026999999996
 10
35.570897000000002
 20
80.079599000000002
  0
LWPOLYLINE
  5
5F
  8
Layer_1
 62
1
420
16711680
370
-1
  6
ByLayer
100
AcDbEntity
100
AcDbPolyline
 90
2
 70
0
 10
54.626173999999999
 20
16.641884999999998
 10
55.943022999999997
 20
16.641884999999998
  0
LWPOLYLINE
  5
60
  8
Layer_1
 62
1
420
16711680
370
-1
  6
ByLayer
100
AcDbEntity
100
AcDbPolyline
 90
2
 70
0
 10
52.321547000000002
 20
16.641884999999998
 10
53.638396
 20
16.641884999999998
  0
LWPOLYLINE
  5
61
  8
Layer_1
 62
1
420
16711680
370
-1
  6
ByLayer
100
AcDbEntity
100
AcDbPolyline
 90
2
 70
0
 10
50.016921000000004
 20
16.641884999999998
 10
51.333770000000001
 20
16.641884999999998
  0
LWPOLYLINE
  5
62
  8
Layer_1
 62
1
420
16711680
370
-1
  6
ByLayer
100
AcDbEntity
100
AcDbPolyline
 90
2
 70
0
 10
47.712294
 20
16.641884999999998
 10
49.029142999999998
 20
16.641884999999998
  0
LWPOLYLINE
  5
63
  8
Layer_1
 62
1
420
16711680
370
-1
  6
ByLayer
100
AcDbEntity
100
AcDbPolyline
 90
2
 70
0
 10
45.407666999999996
 20
16.641884999999998
 10
46.724516000000001
 20
16.641884999999998
  0
LWPOLYLINE
  5
64
  8
Layer_1
 62
1
420
16711680
370
-1
  6
ByLayer
100
AcDbEntity
100
AcDbPolyline
 90
2
 70
0
 10
43.103040999999997
 20
16.641884999999998
 10
44.419890000000002
 20
16.641884999999998
  0
LWPOLYLINE
  5
65
  8
Layer_1
 62
1
420
16711680
370
-1
  6
ByLayer
100
AcDbEntity
100
AcDbPolyline
 90
2
 70
0
 10
40.798414000000001
 20
16.641884999999998
 10
42.115262999999999
 20
16.641884999999998
  0
LWPOLYLINE
  5
66
  8
Layer_1
 62
1
420
16711680
370
-1
  6
ByLayer
100
AcDbEntity
100
AcDbPolyline
 90
2
 70
0
 10
38.493786999999998
 20
16.641884999999998
 10
39.810636000000002
 20
16.641884999999998
  0
LWPOLYLINE
  5
67
  8
Layer_1
 62
1
420
16711680
370
-1
  6
ByLayer
100
AcDbEntity
100
AcDbPolyline
 90
2
 70
0
 10
36.189160999999999
 20
16.641884999999998
 10
37.506010000000003
 20
16.641884999999998
  0
LWPOLYLINE
  5
68
  8
Layer_1
 62
1
420
16711680
370
-1
  6
ByLayer
100
AcDbEntity
100
AcDbPolyline
 90
2
 70
0
 10
33.884534000000002
 20
16.641884999999998
 10
35.201383
 20
16.641884999999998
  0
LWPOLYLINE
  5
69
  8
Layer_1
 62
1
420
16711680
370
-1
  6
ByLayer
100
AcDbEntity
100
AcDbPolyline
 90
2
 70
0
 10
31.579906999999999
 20
16.641884999999998
 10
32.896756000000003
 20
16.641884999999998
  0
LWPOLYLINE
  5
6A
  8
Layer_1
 62
1
420
16711680
370
-1
  6
ByLayer
100
AcDbEntity
100
AcDbPolyline
 90
2
 70
0
 10
29.275281
 20
16.641884999999998
 10
30.592130000000001
 20
16.641884999999998
  0
LWPOLYLINE
  5
6B
  8
Layer_1
 62
1
420
16711680
370
-1
  6
ByLayer
100
AcDbEntity
100
AcDbPolyline
 90
2
 70
0
 10
26.970654
 20
16.641884999999998
 10
28.287503000000001
 20
16.641884999999998
  0
LWPOLYLINE
  5
6C
  8
Layer_1
 62
1
420
16711680
370
-1
  6
ByLayer
100
AcDbEntity
100
AcDbPolyline
 90
2
 70
0
 10
24.666027
 20
16.641884999999998
 10
25.982876000000001
 20
16.641884999999998
  0
LWPOLYLINE
  5
6D
  8
Layer_1
 62
1
420
16711680
370
-1
  6
ByLayer
100
AcDbEntity
100
AcDbPolyline
 90
2
 70
0
 10
22.361401000000001
 20
16.641884999999998
 10
23.678249999999998
 20
16.641884999999998
  0
LWPOLYLINE
  5
6E
  8
Layer_1
 62
1
420
16711680
370
-1
  6
ByLayer
100
AcDbEntity
100
AcDbPolyline
 90
2
 70
0
 10
59.235427000000001
 20
56.642086999999997
 10
60.552275999999999
 20
56.642086999999997
  0
LWPOLYLINE
  5
6F
  8
Layer_1
 62
1
420
16711680
370
-1
  6
ByLayer
100
AcDbEntity
100
AcDbPolyline
 90
2
 70
0
 10
56.930801000000002
 20
56.642086999999997
 10
58.24765
 20
56.642086999999997
  0
LWPOLYLINE
  5
70
  8
Layer_1
 62
1
420
16711680
370
-1
  6
ByLayer
100
AcDbEntity
100
AcDbPolyline
 90
2
 70
0
 10
54.626173999999999
 20
56.642086999999997
 10
55.943022999999997
 20
56.642086999999997
  0
LWPOLYLINE
  5
71
  8
Layer_1
 62
1
420
16711680
370
-1
  6
ByLayer
100
AcDbEntity
100
AcDbPolyline
 90
2
 70
0
 10
52.321547000000002
 20
56.642086999999997
 10
53.638396
 20
56.642086999999997
  0
LWPOLYLINE
  5
72
  8
Layer_1
 62
1
420
16711680
370
-1
  6
ByLayer
100
AcDbEntity
100
AcDbPolyline
 90
2
 70
0
 10
50.016921000000004
 20
56.642086999999997
 10
51.333770000000001
 20
56.642086999999997
  0
LWPOLYLINE
  5
73
  8
Layer_1
 62
1
420
16711680
370
-1
  6
ByLayer
100
AcDbEntity
100
AcDbPolyline
 90
2
 70
0
 10
47.712294
 20
56.642086999999997
 10
49.029142999999998
 20
56.642086999999997
  0
LWPOLYLINE
  5
74
  8
Layer_1
 62
1
420
16711680
370
-1
  6
ByLayer
100
AcDbEntity
100
AcDbPolyline
 90
2
 70
0
 10
45.407666999999996
 20
56.642086999999997
 10
46.724516000000001
 20
56.642086999999997
  0
LWPOLYLINE
  5
75
  8
Layer_1
 62
1
420
16711680
370
-1
  6
ByLayer
100
AcDbEntity
100
AcDbPolyline
 90
2
 70
0
 10
43.103040999999997
 20
56.642086999999997
 10
44.419890000000002
 20
56.642086999999997
  0
LWPOLYLINE
  5
76
  8
Layer_1
 62
1
420
16711680
370
-1
  6
ByLayer
100
AcDbEntity
100
AcDbPolyline
 90
2
 70
0
 10
40.798414000000001
 20
56.642086999999997
 10
42.115262999999999
 20
56.642086999999997
  0
LWPOLYLINE
  5
77
  8
Layer_1
 62
1
420
16711680
370
-1
  6
ByLayer
100
AcDbEntity
100
AcDbPolyline
 90
2
 70
0
 10
38.493786999999998
 20
56.642086999999997
 10
39.810636000000002
 20
56.642086999999997
  0
LWPOLYLINE
  5
78
  8
Layer_1
 62
1
420
16711680
370
-1
  6
ByLayer
100
AcDbEntity
100
AcDbPolyline
 90
2
 70
0
 10
36.189160999999999
 20
56.642086999999997
 10
37.506010000000003
 20
56.642086999999997
  0
LWPOLYLINE
  5
79
  8
Layer_1
 62
1
420
16711680
370
-1
  6
ByLayer
100
AcDbEntity
100
AcDbPolyline
 90
2
 70
0
 10
33.884534000000002
 20
56.642086999999997
 10
35.201383
 20
56.642086999999997
  0
LWPOLYLINE
  5
7A
  8
Layer_1
 62
1
420
16711680
370
-1
  6
ByLayer
100
AcDbEntity
100
AcDbPolyline
 90
2
 70
0
 10
31.579906999999999
 20
56.642086999999997
 10
32.896756000000003
 20
56.642086999999997
  0
LWPOLYLINE
  5
7B
  8
Layer_1
 62
1
420
16711680
370
-1
  6
ByLayer
100
AcDbEntity
100
AcDbPolyline
 90
2
 70
0
 10
29.275281
 20
56.642086999999997
 10
30.592130000000001
 20
56.642086999999997
  0
LWPOLYLINE
  5
7C
  8
Layer_1
 62
1
420
16711680
370
-1
  6
ByLayer
100
AcDbEntity
100
AcDbPolyline
 90
2
 70
0
 10
26.970654
 20
56.642086999999997
 10
28.287503000000001
 20
56.642086999999997
  0
LWPOLYLINE
  5
7D
  8
Layer_1
 62
1
420
16711680
370
-1
  6
ByLayer
100
AcDbEntity
100
AcDbPolyline
 90
2
 70
0
 10
24.666027
 20
56.642086999999997
 10
25.982876000000001
 20
56.642086999999997
  0
LWPOLYLINE
  5
7E
  8
Layer_1
 62
1
420
16711680
370
-1
  6
ByLayer
100
AcDbEntity
100
AcDbPolyline
 90
2
 70
0
 10
22.361401000000001
 20
56.642086999999997
 10
23.678249999999998
 20
56.642086999999997
  0
LWPOLYLINE
  5
7F
  8
Layer_1
 62
1
420
16711680
370
-1
  6
ByLayer
100
AcDbEntity
100
AcDbPolyline
 90
2
 70
0
 10
61.456798999999997
 20
18.863256
 10
61.456798999999997
 20
17.546406999999999
  0
LWPOLYLINE
  5
80
  8
Layer_1
 62
1
420
16711680
370
-1
  6
ByLayer
100
AcDbEntity
100
AcDbPolyline
 90
2
 70
0
 10
61.456798999999997
 20
21.167883
 10
61.456798999999997
 20
19.851033999999999
  0
LWPOLYLINE
  5
81
  8
Layer_1
 62
1
420
16711680
370
-1
  6
ByLayer
100
AcDbEntity
100
AcDbPolyline
 90
2
 70
0
 10
61.456798999999997
 20
23.47251
 10
61.456798999999997
 20
22.155660999999998
  0
LWPOLYLINE
  5
82
  8
Layer_1
 62
1
420
16711680
370
-1
  6
ByLayer
100
AcDbEntity
100
AcDbPolyline
 90
2
 70
0
 10
61.456798999999997
 20
25.777135999999999
 10
61.456798999999997
 20
24.460287000000001
  0
LWPOLYLINE
  5
83
  8
Layer_1
 62
1
420
16711680
370
-1
  6
ByLayer
100
AcDbEntity
100
AcDbPolyline
 90
2
 70
0
 10
61.456798999999997
 20
28.081762999999999
 10
61.456798999999997
 20
26.764914000000001
  0
LWPOLYLINE
  5
84
  8
Layer_1
 62
1
420
16711680
370
-1
  6
ByLayer
100
AcDbEntity
100
AcDbPolyline
 90
2
 70
0
 10
61.456798999999997
 20
30.386389999999999
 10
61.456798999999997
 20
29.069541000000001
  0
LWPOLYLINE
  5
85
  8
Layer_1
 62
1
420
16711680
370
-1
  6
ByLayer
100
AcDbEntity
100
AcDbPolyline
 90
2
 70
0
 10
61.456798999999997
 20
32.691015999999998
 10
61.456798999999997
 20
31.374167
  0
LWPOLYLINE
  5
86
  8
Layer_1
 62
1
420
16711680
370
-1
  6
ByLayer
100
AcDbEntity
100
AcDbPolyline
 90
2
 70
0
 10
61.456798999999997
 20
34.995643000000001
 10
61.456798999999997
 20
33.678794000000003
  0
LWPOLYLINE
  5
87
  8
Layer_1
 62
1
420
16711680
370
-1
  6
ByLayer
100
AcDbEntity
100
AcDbPolyline
 90
2
 70
0
 10
61.456798999999997
 20
37.300269999999998
 10
61.456798999999997
 20
35.983421
  0
LWPOLYLINE
  5
88
  8
Layer_1
 62
1
420
16711680
370
-1
  6
ByLayer
100
AcDbEntity
100
AcDbPolyline
 90
2
 70
0
 10
61.456798999999997
 20
39.604613999999998
 10
61.456798999999997
 20
38.287765
  0
LWPOLYLINE
  5
89
  8
Layer_1
 62
1
420
16711680
370
-1
  6
ByLayer
100
AcDbEntity
100
AcDbPolyline
 90
2
 70
0
 10
61.456798999999997
 20
41.909241000000002
 10
61.456798999999997
 20
40.592391999999997
  0
LWPOLYLINE
  5
8A
  8
Layer_1
 62
1
420
16711680
370
-1
  6
ByLayer
100
AcDbEntity
100
AcDbPolyline
 90
2
 70
0
 10
61.456798999999997
 20
44.213867
 10
61.456798999999997
 20
42.897019
  0
LWPOLYLINE
  5
8B
  8
Layer_1
 62
1
420
16711680
370
-1
  6
ByLayer
100
AcDbEntity
100
AcDbPolyline
 90
2
 70
0
 10
61.456798999999997
 20
46.518493999999997
 10
61.456798999999997
 20
45.201644999999999
  0
LWPOLYLINE
  5
8C
  8
Layer_1
 62
1
420
16711680
370
-1
  6
ByLayer
100
AcDbEntity
100
AcDbPolyline
 90
2
 70
0
 10
61.456798999999997
 20
48.823121
 10
61.456798999999997
 20
47.506272000000003
  0
LWPOLYLINE
  5
8D
  8
Layer_1
 62
1
420
16711680
370
-1
  6
ByLayer
100
AcDbEntity
100
AcDbPolyline
 90
2
 70
0
 10
61.456798999999997
 20
51.127746999999999
 10
61.456798999999997
 20
49.810898999999999
  0
LWPOLYLINE
  5
8E
  8
Layer_1
 62
1
420
16711680
370
-1
  6
ByLayer
100
AcDbEntity
100
AcDbPolyline
 90
2
 70
0
 10
61.456798999999997
 20
53.432374000000003
 10
61.456798999999997
 20
52.115524999999998
  0
SPLINE
  5
8F
  8
Layer_1
 62
1
420
16711680
370
-1
  6
ByLayer
100
AcDbEntity
100
AcDbSpline
 70
8
 71
3
 72
8
 73
4
 74
0
 40
0.0
 40
0.0
 40
0.0
 40
0.0
 40
1.0
 40
1.0
 40
1.0
 40
1.0
 10
60.456885
 20
36.642409999999998
 30
0.0
 10
60.456885
 20
26.148823
 30
0.0
 10
51.950425000000003
 20
17.642081000000001
 30
0.0
 10
41.457121000000001
 20
17.642081000000001
 30
0.0
  0
SPLINE
  5
90
  8
Layer_1
 62
1
420
16711680
370
-1
  6
ByLayer
100
AcDbEntity
100
AcDbSpline
 70
8
 71
3
 72
8
 73
4
 74
0
 40
0.0
 40
0.0
 40
0.0
 40
0.0
 40
1.0
 40
1.0
 40
1.0
 40
1.0
 10
41.457121000000001
 20
17.642081000000001
 30
0.0
 10
30.963816000000001
 20
17.642081000000001
 30
0.0
 10
22.457073999999999
 20
26.149104999999999
 30
0.0
 10
22.457073999999999
 20
36.642409999999998
 30
0.0
  0
SPLINE
  5
91
  8
Layer_1
 62
1
420
16711680
370
-1
  6
ByLayer
100
AcDbEntity
100
AcDbSpline
 70
8
 71
3
 72
8
 73
4
 74
0
 40
0.0
 40
0.0
 40
0.0
 40
0.0
 40
1.0
 40
1.0
 40
1.0
 40
1.0
 10
22.457073999999999
 20
36.642409999999998
 30
0.0
 10
22.457073999999999
 20
47.135714
 30
0.0
 10
30.963816000000001
 20
55.642456000000003
 30
0.0
 10
41.457121000000001
 20
55.642456000000003
 30
0.0
  0
SPLINE
  5
92
  8
Layer_1
 62
1
420
16711680
370
-1
  6
ByLayer
100
AcDbEntity
100
AcDbSpline
 70
8
 71
3
 72
8
 73
4
 74
0
 40
0.0
 40
0.0
 40
0.0
 40
0.0
 40
1.0
 40
1.0
 40
1.0
 40
1.0
 10
41.457121000000001
 20
55.642456000000003
 30
0.0
 10
51.950425000000003
 20
55.642456000000003
 30
0.0
 10
60.456885
 20
47.135714
 30
0.0
 10
60.456885
 20
36.642409999999998
 30
0.0
  0
LWPOLYLINE
  5
93
  8
Layer_1
 62
1
420
16711680
370
-1
  6
ByLayer
100
AcDbEntity
100
AcDbPolyline
 90
2
 70
0
 10
61.456798999999997
 20
55.737000999999999
 10
61.456798999999997
 20
54.420152000000002
  0
SPLINE
  5
94
  8
Layer_1
 62
1
420
16711680
370
-1
  6
ByLayer
100
AcDbEntity
100
AcDbSpline
 70
8
 71
3
 72
8
 73
4
 74
0
 40
0.0
 40
0.0
 40
0.0
 40
0.0
 40
1.0
 40
1.0
 40
1.0
 40
1.0
 10
56.257136000000003
 20
52.642152000000003
 30
0.0
 10
56.257136000000003
 20
53.305092000000002
 30
0.0
 10
56.794486999999997
 20
53.842160999999997
 30
0.0
 10
57.457427000000003
 20
53.842160999999997
 30
0.0
  0
SPLINE
  5
95
  8
Layer_1
 62
1
420
16711680
370
-1
  6
ByLayer
100
AcDbEntity
100
AcDbSpline
 70
8
 71
3
 72
8
 73
4
 74
0
 40
0.0
 40
0.0
 40
0.0
 40
0.0
 40
1.0
 40
1.0
 40
1.0
 40
1.0
 10
57.457427000000003
 20
53.842160999999997
 30
0.0
 10
58.120085000000003
 20
53.842160999999997
 30
0.0
 10
58.657435999999997
 20
53.305092000000002
 30
0.0
 10
58.657435999999997
 20
52.642152000000003
 30
0.0
  0
SPLINE
  5
96
  8
Layer_1
 62
1
420
16711680
370
-1
  6
ByLayer
100
AcDbEntity
100
AcDbSpline
 70
8
 71
3
 72
8
 73
4
 74
0
 40
0.0
 40
0.0
 40
0.0
 40
0.0
 40
1.0
 40
1.0
 40
1.0
 40
1.0
 10
58.657435999999997
 20
52.642152000000003
 30
0.0
 10
58.657435999999997
 20
51.979494000000003
 30
0.0
 10
58.120085000000003
 20
51.442143000000002
 30
0.0
 10
57.457427000000003
 20
51.442143000000002
 30
0.0
  0
SPLINE
  5
97
  8
Layer_1
 62
1
420
16711680
370
-1
  6
ByLayer
100
AcDbEntity
100
AcDbSpline
 70
8
 71
3
 72
8
 73
4
 74
0
 40
0.0
 40
0.0
 40
0.0
 40
0.0
 40
1.0
 40
1.0
 40
1.0
 40
1.0
 10
57.457427000000003
 20
51.442143000000002
 30
0.0
 10
56.794486999999997
 20
51.442143000000002
 30
0.0
 10
56.257136000000003
 20
51.979494000000003
 30
0.0
 10
56.257136000000003
 20
52.642152000000003
 30
0.0
  0
LWPOLYLINE
  5
98
  8
Layer_1
 62
1
420
16711680
370
-1
  6
ByLayer
100
AcDbEntity
100
AcDbPolyline
 90
2
 70
0
 10
60.456885
 20
36.642409999999998
 10
60.456885
 20
36.642409999999998
  0
SPLINE
  5
99
  8
Layer_1
 62
1
420
16711680
370
-1
  6
ByLayer
100
AcDbEntity
100
AcDbSpline
 70
8
 71
3
 72
8
 73
4
 74
0
 40
0.0
 40
0.0
 40
0.0
 40
0.0
 40
1.0
 40
1.0
 40
1.0
 40
1.0
 10
24.257086999999999
 20
52.642152000000003
 30
0.0
 10
24.257086999999999
 20
53.305092000000002
 30
0.0
 10
24.794439000000001
 20
53.842160999999997
 30
0.0
 10
25.457096
 20
53.842160999999997
 30
0.0
  0
SPLINE
  5
9A
  8
Layer_1
 62
1
420
16711680
370
-1
  6
ByLayer
100
AcDbEntity
100
AcDbSpline
 70
8
 71
3
 72
8
 73
4
 74
0
 40
0.0
 40
0.0
 40
0.0
 40
0.0
 40
1.0
 40
1.0
 40
1.0
 40
1.0
 10
25.457096
 20
53.842160999999997
 30
0.0
 10
26.120318999999999
 20
53.842160999999997
 30
0.0
 10
26.657105000000001
 20
53.305092000000002
 30
0.0
 10
26.657105000000001
 20
52.642152000000003
 30
0.0
  0
SPLINE
  5
9B
  8
Layer_1
 62
1
420
16711680
370
-1
  6
ByLayer
100
AcDbEntity
100
AcDbSpline
 70
8
 71
3
 72
8
 73
4
 74
0
 40
0.0
 40
0.0
 40
0.0
 40
0.0
 40
1.0
 40
1.0
 40
1.0
 40
1.0
 10
26.657105000000001
 20
52.642152000000003
 30
0.0
 10
26.657105000000001
 20
51.979494000000003
 30
0.0
 10
26.120318999999999
 20
51.442143000000002
 30
0.0
 10
25.457096
 20
51.442143000000002
 30
0.0
  0
SPLINE
  5
9C
  8
Layer_1
 62
1
420
16711680
370
-1
  6
ByLayer
100
AcDbEntity
100
AcDbSpline
 70
8
 71
3
 72
8
 73
4
 74
0
 40
0.0
 40
0.0
 40
0.0
 40
0.0
 40
1.0
 40
1.0
 40
1.0
 40
1.0
 10
25.457096
 20
51.442143000000002
 30
0.0
 10
24.794439000000001
 20
51.442143000000002
 30
0.0
 10
24.257086999999999
 20
51.979494000000003
 30
0.0
 10
24.257086999999999
 20
52.642152000000003
 30
0.0
  0
LWPOLYLINE
  5
9D
  8
Layer_1
 62
1
420
16711680
370
-1
  6
ByLayer
100
AcDbEntity
100
AcDbPolyline
 90
2
 70
0
 10
56.257136000000003
 20
52.642152000000003
 10
56.257136000000003
 20
52.642152000000003
  0
SPLINE
  5
9E
  8
Layer_1
 62
1
420
16711680
370
-1
  6
ByLayer
100
AcDbEntity
100
AcDbSpline
 70
8
 71
3
 72
8
 73
4
 74
0
 40
0.0
 40
0.0
 40
0.0
 40
0.0
 40
1.0
 40
1.0
 40
1.0
 40
1.0
 10
56.257136000000003
 20
20.642102999999999
 30
0.0
 10
56.257136000000003
 20
21.305043000000001
 30
0.0
 10
56.794486999999997
 20
21.842112
 30
0.0
 10
57.457427000000003
 20
21.842112
 30
0.0
  0
SPLINE
  5
9F
  8
Layer_1
 62
1
420
16711680
370
-1
  6
ByLayer
100
AcDbEntity
100
AcDbSpline
 70
8
 71
3
 72
8
 73
4
 74
0
 40
0.0
 40
0.0
 40
0.0
 40
0.0
 40
1.0
 40
1.0
 40
1.0
 40
1.0
 10
57.457427000000003
 20
21.842112
 30
0.0
 10
58.120085000000003
 20
21.842112
 30
0.0
 10
58.657435999999997
 20
21.305043000000001
 30
0.0
 10
58.657435999999997
 20
20.642102999999999
 30
0.0
  0
SPLINE
  5
A0
  8
Layer_1
 62
1
420
16711680
370
-1
  6
ByLayer
100
AcDbEntity
100
AcDbSpline
 70
8
 71
3
 72
8
 73
4
 74
0
 40
0.0
 40
0.0
 40
0.0
 40
0.0
 40
1.0
 40
1.0
 40
1.0
 40
1.0
 10
58.657435999999997
 20
20.642102999999999
 30
0.0
 10
58.657435999999997
 20
19.979444999999998
 30
0.0
 10
58.120085000000003
 20
19.442094000000001
 30
0.0
 10
57.457427000000003
 20
19.442094000000001
 30
0.0
  0
SPLINE
  5
A1
  8
Layer_1
 62
1
420
16711680
370
-1
  6
ByLayer
100
AcDbEntity
100
AcDbSpline
 70
8
 71
3
 72
8
 73
4
 74
0
 40
0.0
 40
0.0
 40
0.0
 40
0.0
 40
1.0
 40
1.0
 40
1.0
 40
1.0
 10
57.457427000000003
 20
19.442094000000001
 30
0.0
 10
56.794486999999997
 20
19.442094000000001
 30
0.0
 10
56.257136000000003
 20
19.979727
 30
0.0
 10
56.257136000000003
 20
20.642102999999999
 30
0.0
  0
LWPOLYLINE
  5
A2
  8
Layer_1
 62
1
420
16711680
370
-1
  6
ByLayer
100
AcDbEntity
100
AcDbPolyline
 90
2
 70
0
 10
24.257086999999999
 20
52.642152000000003
 10
24.257086999999999
 20
52.642152000000003
  0
SPLINE
  5
A3
  8
Layer_1
 62
1
420
16711680
370
-1
  6
ByLayer
100
AcDbEntity
100
AcDbSpline
 70
8
 71
3
 72
8
 73
4
 74
0
 40
0.0
 40
0.0
 40
0.0
 40
0.0
 40
1.0
 40
1.0
 40
1.0
 40
1.0
 10
24.257086999999999
 20
20.642102999999999
 30
0.0
 10
24.257086999999999
 20
21.305043000000001
 30
0.0
 10
24.794439000000001
 20
21.842112
 30
0.0
 10
25.457096
 20
21.842112
 30
0.0
  0
SPLINE
  5
A4
  8
Layer_1
 62
1
420
16711680
370
-1
  6
ByLayer
100
AcDbEntity
100
AcDbSpline
 70
8
 71
3
 72
8
 73
4
 74
0
 40
0.0
 40
0.0
 40
0.0
 40
0.0
 40
1.0
 40
1.0
 40
1.0
 40
1.0
 10
25.457096
 20
21.842112
 30
0.0
 10
26.120318999999999
 20
21.842112
 30
0.0
 10
26.657105000000001
 20
21.305043000000001
 30
0.0
 10
26.657105000000001
 20
20.642102999999999
 30
0.0
  0
SPLINE
  5
A5
  8
Layer_1
 62
1
420
16711680
370
-1
  6
ByLayer
100
AcDbEntity
100
AcDbSpline
 70
8
 71
3
 72
8
 73
4
 74
0
 40
0.0
 40
0.0
 40
0.0
 40
0.0
 40
1.0
 40
1.0
 40
1.0
 40
1.0
 10
26.657105000000001
 20
20.642102999999999
 30
0.0
 10
26.657105000000001
 20
19.979444999999998
 30
0.0
 10
26.120318999999999
 20
19.442094000000001
 30
0.0
 10
25.457096
 20
19.442094000000001
 30
0.0
  0
SPLINE
  5
A6
  8
Layer_1
 62
1
420
16711680
370
-1
  6
ByLayer
100
AcDbEntity
100
AcDbSpline
 70
8
 71
3
 72
8
 73
4
 74
0
 40
0.0
 40
0.0
 40
0.0
 40
0.0
 40
1.0
 40
1.0
 40
1.0
 40
1.0
 10
25.457096
 20
19.442094000000001
 30
0.0
 10
24.794439000000001
 20
19.442094000000001
 30
0.0
 10
24.257086999999999
 20
19.979727
 30
0.0
 10
24.257086999999999
 20
20.642102999999999
 30
0.0
  0
LWPOLYLINE
  5
A7
  8
Layer_1
 62
1
420
16711680
370
-1
  6
ByLayer
100
AcDbEntity
100
AcDbPolyline
 90
2
 70
0
 10
56.257136000000003
 20
20.642102999999999
 10
56.257136000000003
 20
20.642102999999999
  0
SPLINE
  5
A8
  8
Layer_1
 62
1
420
16711680
370
-1
  6
ByLayer
100
AcDbEntity
100
AcDbSpline
 70
8
 71
3
 72
8
 73
4
 74
0
 40
0.0
 40
0.0
 40
0.0
 40
0.0
 40
1.0
 40
1.0
 40
1.0
 40
1.0
 10
19.073512000000001
 20
16.641884999999998
 30
0.0
 10
15.971325
 20
16.641884999999998
 30
0.0
 10
13.456725
 20
14.127285000000001
 30
0.0
 10
13.456725
 20
11.025099000000001
 30
0.0
  0
LWPOLYLINE
  5
A9
  8
Layer_1
 62
1
420
16711680
370
-1
  6
ByLayer
100
AcDbEntity
100
AcDbPolyline
 90
2
 70
0
 10
24.257086999999999
 20
20.642102999999999
 10
24.257086999999999
 20
20.642102999999999
  0
SPLINE
  5
AA
  8
Layer_1
 62
1
420
16711680
370
-1
  6
ByLayer
100
AcDbEntity
100
AcDbSpline
 70
8
 71
3
 72
8
 73
4
 74
0
 40
0.0
 40
0.0
 40
0.0
 40
0.0
 40
1.0
 40
1.0
 40
1.0
 40
1.0
 10
30.327404999999999
 20
2.1238100000000002
 30
0.0
 10
30.327404999999999
 20
1.380436
 30
0.0
 10
30.876892000000002
 20
1.4103520000000001
 30
0.0
 10
31.590914000000001
 20
1.304236
 30
0.0
  0
SPLINE
  5
AB
  8
Layer_1
 62
1
420
16711680
370
-1
  6
ByLayer
100
AcDbEntity
100
AcDbSpline
 70
8
 71
3
 72
8
 73
4
 74
0
 40
0.0
 40
0.0
 40
0.0
 40
0.0
 40
1.0
 40
1.0
 40
1.0
 40
1.0
 10
31.590914000000001
 20
1.304236
 30
0.0
 10
31.661470000000001
 20
1.289561
 30
0.0
 10
31.734283000000001
 20
1.2822229999999999
 30
0.0
 10
31.809072
 20
1.2822229999999999
 30
0.0
  0
LWPOLYLINE
  5
AC
  8
Layer_1
 62
1
420
16711680
370
-1
  6
ByLayer
100
AcDbEntity
100
AcDbPolyline
 90
5
 70
0
 10
13.456725
 20
11.025099000000001
 10
13.456725
 20
4.1385940000000003
 10
20.327425000000002
 20
2.7497790000000002
 10
30.327404999999999
 20
2.811585
 10
30.327404999999999
 20
2.1238100000000002
  0
SPLINE
  5
AD
  8
Layer_1
 62
1
420
16711680
370
-1
  6
ByLayer
100
AcDbEntity
100
AcDbSpline
 70
8
 71
3
 72
8
 73
4
 74
0
 40
0.0
 40
0.0
 40
0.0
 40
0.0
 40
1.0
 40
1.0
 40
1.0
 40
1.0
 10
32.552726999999997
 20
1.285045
 30
0.0
 10
33.734955999999997
 20
1.285045
 30
0.0
 10
34.694229999999997
 20
1.6110120000000001
 30
0.0
 10
34.694229999999997
 20
2.8025540000000002
 30
0.0
  0
LWPOLYLINE
  5
AE
  8
Layer_1
 62
1
420
16711680
370
-1
  6
ByLayer
100
AcDbEntity
100
AcDbPolyline
 90
2
 70
0
 10
31.809072
 20
1.2822229999999999
 10
32.552726999999997
 20
1.285045
  0
SPLINE
  5
AF
  8
Layer_1
 62
1
420
16711680
370
-1
  6
ByLayer
100
AcDbEntity
100
AcDbSpline
 70
8
 71
3
 72
8
 73
4
 74
0
 40
0.0
 40
0.0
 40
0.0
 40
0.0
 40
1.0
 40
1.0
 40
1.0
 40
1.0
 10
43.926564999999997
 20
2.1252209999999998
 30
0.0
 10
43.926564999999997
 20
1.3073410000000001
 30
0.0
 10
44.590352000000003
 20
1.2839160000000001
 30
0.0
 10
45.408231999999998
 20
1.2839160000000001
 30
0.0
  0
SPLINE
  5
B0
  8
Layer_1
 62
1
420
16711680
370
-1
  6
ByLayer
100
AcDbEntity
100
AcDbSpline
 70
8
 71
3
 72
8
 73
4
 74
0
 40
0.0
 40
0.0
 40
0.0
 40
0.0
 40
1.0
 40
1.0
 40
1.0
 40
1.0
 10
45.408231999999998
 20
1.2839160000000001
 30
0.0
 10
45.424318999999997
 20
1.2839160000000001
 30
0.0
 10
45.438994000000001
 20
1.2878670000000001
 30
0.0
 10
45.455081
 20
1.288432
 30
0.0
  0
SPLINE
  5
B1
  8
Layer_1
 62
1
420
16711680
370
-1
  6
ByLayer
100
AcDbEntity
100
AcDbSpline
 70
8
 71
3
 72
8
 73
4
 74
0
 40
0.0
 40
0.0
 40
0.0
 40
0.0
 40
1.0
 40
1.0
 40
1.0
 40
1.0
 10
45.455081
 20
1.288432
 30
0.0
 10
45.470602999999997
 20
1.288432
 30
0.0
 10
45.485278999999998
 20
1.2839160000000001
 30
0.0
 10
45.501365
 20
1.2839160000000001
 30
0.0
  0
LWPOLYLINE
  5
B2
  8
Layer_1
 62
1
420
16711680
370
-1
  6
ByLayer
100
AcDbEntity
100
AcDbPolyline
 90
6
 70
0
 10
34.694229999999997
 20
2.8025540000000002
 10
34.704672000000002
 20
2.8053759999999999
 10
33.290739000000002
 20
3.045547
 10
33.290739000000002
 20
3.6133790000000001
 10
43.926564999999997
 20
3.6133790000000001
 10
43.926564999999997
 20
2.1252209999999998
  0
SPLINE
  5
B3
  8
Layer_1
 62
1
420
16711680
370
-1
  6
ByLayer
100
AcDbEntity
100
AcDbSpline
 70
8
 71
3
 72
8
 73
4
 74
0
 40
0.0
 40
0.0
 40
0.0
 40
0.0
 40
1.0
 40
1.0
 40
1.0
 40
1.0
 10
46.255462999999999
 20
1.2878670000000001
 30
0.0
 10
47.437973999999997
 20
1.2878670000000001
 30
0.0
 10
48.396965000000002
 20
1.613834
 30
0.0
 10
48.396965000000002
 20
2.8056589999999999
 30
0.0
  0
LWPOLYLINE
  5
B4
  8
Layer_1
 62
1
420
16711680
370
-1
  6
ByLayer
100
AcDbEntity
100
AcDbPolyline
 90
2
 70
0
 10
45.501365
 20
1.2839160000000001
 10
46.255462999999999
 20
1.2878670000000001
  0
SPLINE
  5
B5
  8
Layer_1
 62
1
420
16711680
370
-1
  6
ByLayer
100
AcDbEntity
100
AcDbSpline
 70
8
 71
3
 72
8
 73
4
 74
0
 40
0.0
 40
0.0
 40
0.0
 40
0.0
 40
1.0
 40
1.0
 40
1.0
 40
1.0
 10
49.067242999999998
 20
3.613661
 30
0.0
 10
52.004612000000002
 20
3.613661
 30
0.0
 10
54.701810000000002
 20
5.2782070000000001
 30
0.0
 10
56.824967000000001
 20
6.9853699999999996
 30
0.0
  0
LWPOLYLINE
  5
B6
  8
Layer_1
 62
1
420
16711680
370
-1
  6
ByLayer
100
AcDbEntity
100
AcDbPolyline
 90
4
 70
0
 10
48.396965000000002
 20
2.8056589999999999
 10
46.889899
 20
3.04583
 10
46.889899
 20
3.613661
 10
49.067242999999998
 20
3.613661
  0
SPLINE
  5
B7
  8
Layer_1
 62
1
420
16711680
370
-1
  6
ByLayer
100
AcDbEntity
100
AcDbSpline
 70
8
 71
3
 72
8
 73
4
 74
0
 40
0.0
 40
0.0
 40
0.0
 40
0.0
 40
1.0
 40
1.0
 40
1.0
 40
1.0
 10
58.003526999999998
 20
5.8068099999999996
 30
0.0
 10
58.529307000000003
 20
5.2813119999999998
 30
0.0
 10
59.349445000000003
 20
5.2384139999999997
 30
0.0
 10
59.929411999999999
 20
5.6679560000000002
 30
0.0
  0
SPLINE
  5
B8
  8
Layer_1
 62
1
420
16711680
370
-1
  6
ByLayer
100
AcDbEntity
100
AcDbSpline
 70
8
 71
3
 72
8
 73
4
 74
0
 40
0.0
 40
0.0
 40
0.0
 40
0.0
 40
1.0
 40
1.0
 40
1.0
 40
1.0
 10
59.929411999999999
 20
5.6679560000000002
 30
0.0
 10
59.988961000000003
 20
5.7077499999999999
 30
0.0
 10
60.046252000000003
 20
5.7537520000000004
 30
0.0
 10
60.099027
 20
5.8068099999999996
 30
0.0
  0
LWPOLYLINE
  5
B9
  8
Layer_1
 62
1
420
16711680
370
-1
  6
ByLayer
100
AcDbEntity
100
AcDbPolyline
 90
2
 70
0
 10
56.824967000000001
 20
6.9853699999999996
 10
58.003526999999998
 20
5.8068099999999996
  0
SPLINE
  5
BA
  8
Layer_1
 62
1
420
16711680
370
-1
  6
ByLayer
100
AcDbEntity
100
AcDbSpline
 70
8
 71
3
 72
8
 73
4
 74
0
 40
0.0
 40
0.0
 40
0.0
 40
0.0
 40
1.0
 40
1.0
 40
1.0
 40
1.0
 10
60.629322999999999
 20
6.3424670000000001
 30
0.0
 10
61.465547000000001
 20
7.1789740000000002
 30
0.0
 10
61.300446999999998
 20
8.6998700000000007
 30
0.0
 10
60.458295999999997
 20
9.5425850000000008
 30
0.0
  0
LWPOLYLINE
  5
BB
  8
Layer_1
 62
1
420
16711680
370
-1
  6
ByLayer
100
AcDbEntity
100
AcDbPolyline
 90
2
 70
0
 10
60.099027
 20
5.8068099999999996
 10
60.629322999999999
 20
6.3424670000000001
  0
SPLINE
  5
BC
  8
Layer_1
 62
1
420
16711680
370
-1
  6
ByLayer
100
AcDbEntity
100
AcDbSpline
 70
8
 71
3
 72
8
 73
4
 74
0
 40
0.0
 40
0.0
 40
0.0
 40
0.0
 40
1.0
 40
1.0
 40
1.0
 40
1.0
 10
58.897042999999996
 20
9.1040120000000009
 30
0.0
 10
60.501759
 20
11.192456
 30
0.0
 10
61.457363000000001
 20
13.805552
 30
0.0
 10
61.457363000000001
 20
16.643295999999999
 30
0.0
  0
LWPOLYLINE
  5
BD
  8
Layer_1
 62
1
420
16711680
370
-1
  6
ByLayer
100
AcDbEntity
100
AcDbPolyline
 90
3
 70
0
 10
60.458295999999997
 20
9.5425850000000008
 10
59.217930000000003
 20
8.7831250000000001
 10
58.897042999999996
 20
9.1040120000000009
  0
SPLINE
  5
BE
  8
Layer_1
 62
1
420
16711680
370
-1
  6
ByLayer
100
AcDbEntity
100
AcDbSpline
 70
8
 71
3
 72
8
 73
4
 74
0
 40
0.0
 40
0.0
 40
0.0
 40
0.0
 40
1.0
 40
1.0
 40
1.0
 40
1.0
 10
107.981696
 20
16.643295999999999
 30
0.0
 10
109.252543
 20
16.643295999999999
 30
0.0
 10
110.28293600000001
 20
17.673690000000001
 30
0.0
 10
110.28293600000001
 20
18.944535999999999
 30
0.0
  0
LWPOLYLINE
  5
BF
  8
Layer_1
 62
1
420
16711680
370
-1
  6
ByLayer
100
AcDbEntity
100
AcDbPolyline
 90
2
 70
0
 10
61.457363000000001
 20
16.643295999999999
 10
107.981696
 20
16.643295999999999
  0
SPLINE
  5
C0
  8
Layer_1
 62
1
420
16711680
370
-1
  6
ByLayer
100
AcDbEntity
100
AcDbSpline
 70
8
 71
3
 72
8
 73
4
 74
0
 40
0.0
 40
0.0
 40
0.0
 40
0.0
 40
1.0
 40
1.0
 40
1.0
 40
1.0
 10
110.28293600000001
 20
19.131084999999999
 30
0.0
 10
110.28293600000001
 20
20.401931999999999
 30
0.0
 10
109.252543
 20
21.432324999999999
 30
0.0
 10
107.981696
 20
21.432324999999999
 30
0.0
  0
SPLINE
  5
C1
  8
Layer_1
 62
1
420
16711680
370
-1
  6
ByLayer
100
AcDbEntity
100
AcDbSpline
 70
8
 71
3
 72
8
 73
4
 74
0
 40
0.0
 40
0.0
 40
0.0
 40
0.0
 40
1.0
 40
1.0
 40
1.0
 40
1.0
 10
107.981696
 20
21.432324999999999
 30
0.0
 10
104.299543
 20
21.432324999999999
 30
0.0
 10
101.314761
 20
28.241219000000001
 30
0.0
 10
101.314761
 20
36.640433999999999
 30
0.0
  0
SPLINE
  5
C2
  8
Layer_1
 62
1
420
16711680
370
-1
  6
ByLayer
100
AcDbEntity
100
AcDbSpline
 70
8
 71
3
 72
8
 73
4
 74
0
 40
0.0
 40
0.0
 40
0.0
 40
0.0
 40
1.0
 40
1.0
 40
1.0
 40
1.0
 10
101.314761
 20
36.640433999999999
 30
0.0
 10
101.314761
 20
45.039366999999999
 30
0.0
 10
104.299543
 20
51.848542999999999
 30
0.0
 10
107.981696
 20
51.848542999999999
 30
0.0
  0
LWPOLYLINE
  5
C3
  8
Layer_1
 62
1
420
16711680
370
-1
  6
ByLayer
100
AcDbEntity
100
AcDbPolyline
 90
2
 70
0
 10
110.28293600000001
 20
18.944535999999999
 10
110.28293600000001
 20
19.131084999999999
  0
SPLINE
  5
C4
  8
Layer_1
 62
1
420
16711680
370
-1
  6
ByLayer
100
AcDbEntity
100
AcDbSpline
 70
8
 71
3
 72
8
 73
4
 74
0
 40
0.0
 40
0.0
 40
0.0
 40
0.0
 40
1.0
 40
1.0
 40
1.0
 40
1.0
 10
107.981696
 20
51.848542999999999
 30
0.0
 10
109.252543
 20
51.848542999999999
 30
0.0
 10
110.28293600000001
 20
52.878653999999997
 30
0.0
 10
110.28293600000001
 20
54.150064999999998
 30
0.0
  0
LWPOLYLINE
  5
C5
  8
Layer_1
 62
1
420
16711680
370
-1
  6
ByLayer
100
AcDbEntity
100
AcDbPolyline
 90
3
 70
0
 10
107.981696
 20
51.848542999999999
 10
107.981696
 20
51.854469999999999
 10
107.981696
 20
51.848542999999999
  0
SPLINE
  5
C6
  8
Layer_1
 62
1
420
16711680
370
-1
  6
ByLayer
100
AcDbEntity
100
AcDbSpline
 70
8
 71
3
 72
8
 73
4
 74
0
 40
0.0
 40
0.0
 40
0.0
 40
0.0
 40
1.0
 40
1.0
 40
1.0
 40
1.0
 10
110.28293600000001
 20
54.336331999999999
 30
0.0
 10
110.28293600000001
 20
55.607461000000001
 30
0.0
 10
109.252543
 20
56.637571999999999
 30
0.0
 10
107.981696
 20
56.637571999999999
 30
0.0
  0
LWPOLYLINE
  5
C7
  8
Layer_1
 62
1
420
16711680
370
-1
  6
ByLayer
100
AcDbEntity
100
AcDbPolyline
 90
2
 70
0
 10
110.28293600000001
 20
54.150064999999998
 10
110.28293600000001
 20
54.336331999999999
  0
SPLINE
  5
C8
  8
Layer_1
 62
1
420
16711680
370
-1
  6
ByLayer
100
AcDbEntity
100
AcDbSpline
 70
8
 71
3
 72
8
 73
4
 74
0
 40
0.0
 40
0.0
 40
0.0
 40
0.0
 40
1.0
 40
1.0
 40
1.0
 40
1.0
 10
61.457363000000001
 20
56.643498999999998
 30
0.0
 10
61.457363000000001
 20
59.480961000000001
 30
0.0
 10
60.501475999999997
 20
62.094056000000002
 30
0.0
 10
58.897042999999996
 20
64.182501000000002
 30
0.0
  0
LWPOLYLINE
  5
C9
  8
Layer_1
 62
1
420
16711680
370
-1
  6
ByLayer
100
AcDbEntity
100
AcDbPolyline
 90
3
 70
0
 10
107.981696
 20
56.637571999999999
 10
107.981696
 20
56.643498999999998
 10
61.457363000000001
 20
56.643498999999998
  0
SPLINE
  5
CA
  8
Layer_1
 62
1
420
16711680
370
-1
  6
ByLayer
100
AcDbEntity
100
AcDbSpline
 70
8
 71
3
 72
8
 73
4
 74
0
 40
0.0
 40
0.0
 40
0.0
 40
0.0
 40
1.0
 40
1.0
 40
1.0
 40
1.0
 10
60.458295999999997
 20
63.744210000000002
 30
0.0
 10
61.300446999999998
 20
64.586924999999994
 30
0.0
 10
61.465547000000001
 20
66.107821000000001
 30
0.0
 10
60.629322999999999
 20
66.944327000000001
 30
0.0
  0
LWPOLYLINE
  5
CB
  8
Layer_1
 62
1
420
16711680
370
-1
  6
ByLayer
100
AcDbEntity
100
AcDbPolyline
 90
3
 70
0
 10
58.897042999999996
 20
64.182501000000002
 10
59.217930000000003
 20
64.50367
 10
60.458295999999997
 20
63.744210000000002
  0
SPLINE
  5
CC
  8
Layer_1
 62
1
420
16711680
370
-1
  6
ByLayer
100
AcDbEntity
100
AcDbSpline
 70
8
 71
3
 72
8
 73
4
 74
0
 40
0.0
 40
0.0
 40
0.0
 40
0.0
 40
1.0
 40
1.0
 40
1.0
 40
1.0
 10
60.099027
 20
67.479984999999999
 30
0.0
 10
60.046252000000003
 20
67.533043000000006
 30
0.0
 10
59.988961000000003
 20
67.579044999999994
 30
0.0
 10
59.929411999999999
 20
67.618555999999998
 30
0.0
  0
SPLINE
  5
CD
  8
Layer_1
 62
1
420
16711680
370
-1
  6
ByLayer
100
AcDbEntity
100
AcDbSpline
 70
8
 71
3
 72
8
 73
4
 74
0
 40
0.0
 40
0.0
 40
0.0
 40
0.0
 40
1.0
 40
1.0
 40
1.0
 40
1.0
 10
59.929411999999999
 20
67.618555999999998
 30
0.0
 10
59.349162999999997
 20
68.048098999999993
 30
0.0
 10
58.529307000000003
 20
68.005764999999997
 30
0.0
 10
58.003526999999998
 20
67.479984999999999
 30
0.0
  0
LWPOLYLINE
  5
CE
  8
Layer_1
 62
1
420
16711680
370
-1
  6
ByLayer
100
AcDbEntity
100
AcDbPolyline
 90
2
 70
0
 10
60.629322999999999
 20
66.944327000000001
 10
60.099027
 20
67.479984999999999
  0
SPLINE
  5
CF
  8
Layer_1
 62
1
420
16711680
370
-1
  6
ByLayer
100
AcDbEntity
100
AcDbSpline
 70
8
 71
3
 72
8
 73
4
 74
0
 40
0.0
 40
0.0
 40
0.0
 40
0.0
 40
1.0
 40
1.0
 40
1.0
 40
1.0
 10
56.824967000000001
 20
66.301142999999996
 30
0.0
 10
54.701810000000002
 20
68.008587000000006
 30
0.0
 10
52.004612000000002
 20
69.673134000000005
 30
0.0
 10
49.067242999999998
 20
69.673134000000005
 30
0.0
  0
LWPOLYLINE
  5
D0
  8
Layer_1
 62
1
420
16711680
370
-1
  6
ByLayer
100
AcDbEntity
100
AcDbPolyline
 90
2
 70
0
 10
58.003526999999998
 20
67.479984999999999
 10
56.824967000000001
 20
66.301142999999996
  0
SPLINE
  5
D1
  8
Layer_1
 62
1
420
16711680
370
-1
  6
ByLayer
100
AcDbEntity
100
AcDbSpline
 70
8
 71
3
 72
8
 73
4
 74
0
 40
0.0
 40
0.0
 40
0.0
 40
0.0
 40
1.0
 40
1.0
 40
1.0
 40
1.0
 10
48.396965000000002
 20
70.481136000000006
 30
0.0
 10
48.396965000000002
 20
71.672679000000002
 30
0.0
 10
47.438256000000003
 20
71.998080999999999
 30
0.0
 10
46.255462999999999
 20
71.998080999999999
 30
0.0
  0
LWPOLYLINE
  5
D2
  8
Layer_1
 62
1
420
16711680
370
-1
  6
ByLayer
100
AcDbEntity
100
AcDbPolyline
 90
4
 70
0
 10
49.067242999999998
 20
69.673134000000005
 10
46.889899
 20
69.673134000000005
 10
46.889899
 20
70.240683000000004
 10
48.396965000000002
 20
70.481136000000006
  0
SPLINE
  5
D3
  8
Layer_1
 62
1
420
16711680
370
-1
  6
ByLayer
100
AcDbEntity
100
AcDbSpline
 70
8
 71
3
 72
8
 73
4
 74
0
 40
0.0
 40
0.0
 40
0.0
 40
0.0
 40
1.0
 40
1.0
 40
1.0
 40
1.0
 10
45.501365
 20
72.002032
 30
0.0
 10
45.485278999999998
 20
72.002032
 30
0.0
 10
45.470602999999997
 20
71.998080999999999
 30
0.0
 10
45.455081
 20
71.997516000000005
 30
0.0
  0
SPLINE
  5
D4
  8
Layer_1
 62
1
420
16711680
370
-1
  6
ByLayer
100
AcDbEntity
100
AcDbSpline
 70
8
 71
3
 72
8
 73
4
 74
0
 40
0.0
 40
0.0
 40
0.0
 40
0.0
 40
1.0
 40
1.0
 40
1.0
 40
1.0
 10
45.455081
 20
71.997516000000005
 30
0.0
 10
45.438994000000001
 20
71.997516000000005
 30
0.0
 10
45.424318999999997
 20
72.002032
 30
0.0
 10
45.408231999999998
 20
72.002032
 30
0.0
  0
SPLINE
  5
D5
  8
Layer_1
 62
1
420
16711680
370
-1
  6
ByLayer
100
AcDbEntity
100
AcDbSpline
 70
8
 71
3
 72
8
 73
4
 74
0
 40
0.0
 40
0.0
 40
0.0
 40
0.0
 40
1.0
 40
1.0
 40
1.0
 40
1.0
 10
45.408231999999998
 20
72.002032
 30
0.0
 10
44.590352000000003
 20
72.002032
 30
0.0
 10
43.926564999999997
 20
71.979172000000005
 30
0.0
 10
43.926564999999997
 20
71.161292000000003
 30
0.0
  0
LWPOLYLINE
  5
D6
  8
Layer_1
 62
1
420
16711680
370
-1
  6
ByLayer
100
AcDbEntity
100
AcDbPolyline
 90
2
 70
0
 10
46.255462999999999
 20
71.998080999999999
 10
45.501365
 20
72.002032
  0
SPLINE
  5
D7
  8
Layer_1
 62
1
420
16711680
370
-1
  6
ByLayer
100
AcDbEntity
100
AcDbSpline
 70
8
 71
3
 72
8
 73
4
 74
0
 40
0.0
 40
0.0
 40
0.0
 40
0.0
 40
1.0
 40
1.0
 40
1.0
 40
1.0
 10
34.694229999999997
 20
70.483958999999999
 30
0.0
 10
34.694229999999997
 20
71.675500999999997
 30
0.0
 10
33.735239
 20
71.920751999999993
 30
0.0
 10
32.552726999999997
 20
71.920751999999993
 30
0.0
  0
LWPOLYLINE
  5
D8
  8
Layer_1
 62
1
420
16711680
370
-1
  6
ByLayer
100
AcDbEntity
100
AcDbPolyline
 90
6
 70
0
 10
43.926564999999997
 20
71.161292000000003
 10
43.926564999999997
 20
69.673134000000005
 10
33.290739000000002
 20
69.673134000000005
 10
33.290739000000002
 20
70.240683000000004
 10
34.704672000000002
 20
70.481136000000006
 10
34.694229999999997
 20
70.483958999999999
  0
SPLINE
  5
D9
  8
Layer_1
 62
1
420
16711680
370
-1
  6
ByLayer
100
AcDbEntity
100
AcDbSpline
 70
8
 71
3
 72
8
 73
4
 74
0
 40
0.0
 40
0.0
 40
0.0
 40
0.0
 40
1.0
 40
1.0
 40
1.0
 40
1.0
 10
31.809072
 20
71.923574000000002
 30
0.0
 10
31.734000999999999
 20
71.923574000000002
 30
0.0
 10
31.661470000000001
 20
71.916235999999998
 30
0.0
 10
31.590914000000001
 20
71.901561000000001
 30
0.0
  0
SPLINE
  5
DA
  8
Layer_1
 62
1
420
16711680
370
-1
  6
ByLayer
100
AcDbEntity
100
AcDbSpline
 70
8
 71
3
 72
8
 73
4
 74
0
 40
0.0
 40
0.0
 40
0.0
 40
0.0
 40
1.0
 40
1.0
 40
1.0
 40
1.0
 10
31.590914000000001
 20
71.901561000000001
 30
0.0
 10
30.877174
 20
71.795445000000001
 30
0.0
 10
30.327404999999999
 20
71.906075999999999
 30
0.0
 10
30.327404999999999
 20
71.162702999999993
 30
0.0
  0
LWPOLYLINE
  5
DB
  8
Layer_1
 62
1
420
16711680
370
-1
  6
ByLayer
100
AcDbEntity
100
AcDbPolyline
 90
2
 70
0
 10
32.552726999999997
 20
71.920751999999993
 10
31.809072
 20
71.923574000000002
  0
SPLINE
  5
DC
  8
Layer_1
 62
1
420
16711680
370
-1
  6
ByLayer
100
AcDbEntity
100
AcDbSpline
 70
8
 71
3
 72
8
 73
4
 74
0
 40
0.0
 40
0.0
 40
0.0
 40
0.0
 40
1.0
 40
1.0
 40
1.0
 40
1.0
 10
13.456725
 20
62.261696000000001
 30
0.0
 10
13.456725
 20
59.159509999999997
 30
0.0
 10
15.971325
 20
56.644910000000003
 30
0.0
 10
19.073512000000001
 20
56.644910000000003
 30
0.0
  0
LWPOLYLINE
  5
DD
  8
Layer_1
 62
1
420
16711680
370
-1
  6
ByLayer
100
AcDbEntity
100
AcDbPolyline
 90
5
 70
0
 10
30.327404999999999
 20
71.162702999999993
 10
30.327404999999999
 20
70.474926999999994
 10
20.327425000000002
 20
70.536451999999997
 10
13.456725
 20
69.148201
 10
13.456725
 20
62.261696000000001
  0
LWPOLYLINE
  5
DE
  8
Layer_1
 62
1
420
16711680
370
-1
  6
ByLayer
100
AcDbEntity
100
AcDbPolyline
 90
4
 70
0
 10
21.456879000000001
 20
56.644910000000003
 10
1.2822229999999999
 20
56.644910000000003
 10
1.2822229999999999
 20
16.644707
 10
21.456879000000001
 20
16.644707
  0
LWPOLYLINE
  5
DF
  8
Layer_1
 62
1
420
16711680
370
-1
  6
ByLayer
100
AcDbEntity
100
AcDbPolyline
 90
6
 70
0
 10
96.660070000000005
 20
18.644815999999999
 10
102.260205
 20
18.644815999999999
 10
102.260205
 20
19.204744999999999
 10
96.660070000000005
 20
19.204744999999999
 10
96.660070000000005
 20
18.644815999999999
 10
96.660070000000005
 20
18.644815999999999
  0
LWPOLYLINE
  5
E0
  8
Layer_1
 62
1
420
16711680
370
-1
  6
ByLayer
100
AcDbEntity
100
AcDbPolyline
 90
6
 70
0
 10
83.618015999999997
 20
18.644815999999999
 10
89.217870000000005
 20
18.644815999999999
 10
89.217870000000005
 20
19.204744999999999
 10
83.618015999999997
 20
19.204744999999999
 10
83.618015999999997
 20
18.644815999999999
 10
83.618015999999997
 20
18.644815999999999
  0
LWPOLYLINE
  5
E1
  8
Layer_1
 62
1
420
16711680
370
-1
  6
ByLayer
100
AcDbEntity
100
AcDbPolyline
 90
6
 70
0
 10
69.216780999999997
 20
18.644815999999999
 10
74.816633999999993
 20
18.644815999999999
 10
74.816633999999993
 20
19.204744999999999
 10
69.216780999999997
 20
19.204744999999999
 10
69.216780999999997
 20
18.644815999999999
 10
69.216780999999997
 20
18.644815999999999
  0
LWPOLYLINE
  5
E2
  8
Layer_1
 62
1
420
16711680
370
-1
  6
ByLayer
100
AcDbEntity
100
AcDbPolyline
 90
6
 70
0
 10
96.660070000000005
 20
54.644801000000001
 10
102.260205
 20
54.644801000000001
 10
102.260205
 20
54.084589999999999
 10
96.660070000000005
 20
54.084589999999999
 10
96.660070000000005
 20
54.644801000000001
 10
96.660070000000005
 20
54.644801000000001
  0
LWPOLYLINE
  5
E3
  8
Layer_1
 62
1
420
16711680
370
-1
  6
ByLayer
100
AcDbEntity
100
AcDbPolyline
 90
6
 70
0
 10
83.618015999999997
 20
54.644801000000001
 10
89.217870000000005
 20
54.644801000000001
 10
89.217870000000005
 20
54.084589999999999
 10
83.618015999999997
 20
54.084589999999999
 10
83.618015999999997
 20
54.644801000000001
 10
83.618015999999997
 20
54.644801000000001
  0
LWPOLYLINE
  5
E4
  8
Layer_1
 62
1
420
16711680
370
-1
  6
ByLayer
100
AcDbEntity
100
AcDbPolyline
 90
6
 70
0
 10
69.217344999999995
 20
54.644801000000001
 10
74.817199000000002
 20
54.644801000000001
 10
74.817199000000002
 20
54.084589999999999
 10
69.217344999999995
 20
54.084589999999999
 10
69.217344999999995
 20
54.644801000000001
 10
69.217344999999995
 20
54.644801000000001
  0
LWPOLYLINE
  5
E5
  8
Layer_1
 62
1
420
16711680
370
-1
  6
ByLayer
100
AcDbEntity
100
AcDbPolyline
 90
2
 70
0
 10
13.456443
 20
18.866078999999999
 10
13.456443
 20
17.549230000000001
  0
LWPOLYLINE
  5
E6
  8
Layer_1
 62
1
420
16711680
370
-1
  6
ByLayer
100
AcDbEntity
100
AcDbPolyline
 90
2
 70
0
 10
13.456443
 20
21.170705000000002
 10
13.456443
 20
19.853856
  0
LWPOLYLINE
  5
E7
  8
Layer_1
 62
1
420
16711680
370
-1
  6
ByLayer
100
AcDbEntity
100
AcDbPolyline
 90
2
 70
0
 10
13.456443
 20
23.475332000000002
 10
13.456443
 20
22.158483
  0
LWPOLYLINE
  5
E8
  8
Layer_1
 62
1
420
16711680
370
-1
  6
ByLayer
100
AcDbEntity
100
AcDbPolyline
 90
2
 70
0
 10
13.456443
 20
25.779959000000002
 10
13.456443
 20
24.46311
  0
LWPOLYLINE
  5
E9
  8
Layer_1
 62
1
420
16711680
370
-1
  6
ByLayer
100
AcDbEntity
100
AcDbPolyline
 90
2
 70
0
 10
13.456443
 20
28.084585000000001
 10
13.456443
 20
26.767735999999999
  0
LWPOLYLINE
  5
EA
  8
Layer_1
 62
1
420
16711680
370
-1
  6
ByLayer
100
AcDbEntity
100
AcDbPolyline
 90
2
 70
0
 10
13.456443
 20
30.389212000000001
 10
13.456443
 20
29.072362999999999
  0
LWPOLYLINE
  5
EB
  8
Layer_1
 62
1
420
16711680
370
-1
  6
ByLayer
100
AcDbEntity
100
AcDbPolyline
 90
2
 70
0
 10
13.456443
 20
32.693838999999997
 10
13.456443
 20
31.376989999999999
  0
LWPOLYLINE
  5
EC
  8
Layer_1
 62
1
420
16711680
370
-1
  6
ByLayer
100
AcDbEntity
100
AcDbPolyline
 90
2
 70
0
 10
13.456443
 20
34.998465000000003
 10
13.456443
 20
33.681615999999998
  0
LWPOLYLINE
  5
ED
  8
Layer_1
 62
1
420
16711680
370
-1
  6
ByLayer
100
AcDbEntity
100
AcDbPolyline
 90
2
 70
0
 10
13.456443
 20
37.303091999999999
 10
13.456443
 20
35.986243000000002
  0
LWPOLYLINE
  5
EE
  8
Layer_1
 62
1
420
16711680
370
-1
  6
ByLayer
100
AcDbEntity
100
AcDbPolyline
 90
2
 70
0
 10
13.456443
 20
39.607436
 10
13.456443
 20
38.290587000000002
  0
LWPOLYLINE
  5
EF
  8
Layer_1
 62
1
420
16711680
370
-1
  6
ByLayer
100
AcDbEntity
100
AcDbPolyline
 90
2
 70
0
 10
13.456443
 20
41.912063000000003
 10
13.456443
 20
40.595213999999999
  0
LWPOLYLINE
  5
F0
  8
Layer_1
 62
1
420
16711680
370
-1
  6
ByLayer
100
AcDbEntity
100
AcDbPolyline
 90
2
 70
0
 10
13.456443
 20
44.21669
 10
13.456443
 20
42.899841000000002
  0
LWPOLYLINE
  5
F1
  8
Layer_1
 62
1
420
16711680
370
-1
  6
ByLayer
100
AcDbEntity
100
AcDbPolyline
 90
2
 70
0
 10
13.456443
 20
46.521315999999999
 10
13.456443
 20
45.204467000000001
  0
LWPOLYLINE
  5
F2
  8
Layer_1
 62
1
420
16711680
370
-1
  6
ByLayer
100
AcDbEntity
100
AcDbPolyline
 90
2
 70
0
 10
13.456443
 20
48.825943000000002
 10
13.456443
 20
47.509093999999997
  0
LWPOLYLINE
  5
F3
  8
Layer_1
 62
1
420
16711680
370
-1
  6
ByLayer
100
AcDbEntity
100
AcDbPolyline
 90
2
 70
0
 10
13.456443
 20
51.130569999999999
 10
13.456443
 20
49.813721000000001
  0
LWPOLYLINE
  5
F4
  8
Layer_1
 62
1
420
16711680
370
-1
  6
ByLayer
100
AcDbEntity
100
AcDbPolyline
 90
2
 70
0
 10
13.456443
 20
53.435195999999998
 10
13.456443
 20
52.118347
  0
LWPOLYLINE
  5
F5
  8
Layer_1
 62
1
420
16711680
370
-1
  6
ByLayer
100
AcDbEntity
100
AcDbPolyline
 90
2
 70
0
 10
13.456443
 20
55.739823000000001
 10
13.456443
 20
54.422974000000004
  0
LWPOLYLINE
  5
F6
  8
Layer_1
 62
1
420
16711680
370
-1
  6
ByLayer
100
AcDbEntity
100
AcDbPolyline
 90
2
 70
0
 10
21.456879000000001
 20
18.866078999999999
 10
21.456879000000001
 20
17.549230000000001
  0
LWPOLYLINE
  5
F7
  8
Layer_1
 62
1
420
16711680
370
-1
  6
ByLayer
100
AcDbEntity
100
AcDbPolyline
 90
2
 70
0
 10
21.456879000000001
 20
21.170705000000002
 10
21.456879000000001
 20
19.853856
  0
LWPOLYLINE
  5
F8
  8
Layer_1
 62
1
420
16711680
370
-1
  6
ByLayer
100
AcDbEntity
100
AcDbPolyline
 90
2
 70
0
 10
21.456879000000001
 20
23.475332000000002
 10
21.456879000000001
 20
22.158483
  0
LWPOLYLINE
  5
F9
  8
Layer_1
 62
1
420
16711680
370
-1
  6
ByLayer
100
AcDbEntity
100
AcDbPolyline
 90
2
 70
0
 10
21.456879000000001
 20
25.779959000000002
 10
21.456879000000001
 20
24.46311
  0
LWPOLYLINE
  5
FA
  8
Layer_1
 62
1
420
16711680
370
-1
  6
ByLayer
100
AcDbEntity
100
AcDbPolyline
 90
2
 70
0
 10
21.456879000000001
 20
28.084585000000001
 10
21.456879000000001
 20
26.767735999999999
  0
LWPOLYLINE
  5
FB
  8
Layer_1
 62
1
420
16711680
370
-1
  6
ByLayer
100
AcDbEntity
100
AcDbPolyline
 90
2
 70
0
 10
21.456879000000001
 20
30.389212000000001
 10
21.456879000000001
 20
29.072362999999999
  0
LWPOLYLINE
  5
FC
  8
Layer_1
 62
1
420
16711680
370
-1
  6
ByLayer
100
AcDbEntity
100
AcDbPolyline
 90
2
 70
0
 10
21.456879000000001
 20
32.693838999999997
 10
21.456879000000001
 20
31.376989999999999
  0
LWPOLYLINE
  5
FD
  8
Layer_1
 62
1
420
16711680
370
-1
  6
ByLayer
100
AcDbEntity
100
AcDbPolyline
 90
2
 70
0
 10
21.456879000000001
 20
34.998465000000003
 10
21.456879000000001
 20
33.681615999999998
  0
LWPOLYLINE
  5
FE
  8
Layer_1
 62
1
420
16711680
370
-1
  6
ByLayer
100
AcDbEntity
100
AcDbPolyline
 90
2
 70
0
 10
21.456879000000001
 20
37.303091999999999
 10
21.456879000000001
 20
35.986243000000002
  0
LWPOLYLINE
  5
FF
  8
Layer_1
 62
1
420
16711680
370
-1
  6
ByLayer
100
AcDbEntity
100
AcDbPolyline
 90
2
 70
0
 10
21.456879000000001
 20
39.607436
 10
21.456879000000001
 20
38.290587000000002
  0
LWPOLYLINE
  5
100
  8
Layer_1
 62
1
420
16711680
370
-1
  6
ByLayer
100
AcDbEntity
100
AcDbPolyline
 90
2
 70
0
 10
21.456879000000001
 20
41.912063000000003
 10
21.456879000000001
 20
40.595213999999999
  0
LWPOLYLINE
  5
101
  8
Layer_1
 62
1
420
16711680
370
-1
  6
ByLayer
100
AcDbEntity
100
AcDbPolyline
 90
2
 70
0
 10
21.456879000000001
 20
44.21669
 10
21.456879000000001
 20
42.899841000000002
  0
LWPOLYLINE
  5
102
  8
Layer_1
 62
1
420
16711680
370
-1
  6
ByLayer
100
AcDbEntity
100
AcDbPolyline
 90
2
 70
0
 10
21.456879000000001
 20
46.521315999999999
 10
21.456879000000001
 20
45.204467000000001
  0
LWPOLYLINE
  5
103
  8
Layer_1
 62
1
420
16711680
370
-1
  6
ByLayer
100
AcDbEntity
100
AcDbPolyline
 90
2
 70
0
 10
21.456879000000001
 20
48.825943000000002
 10
21.456879000000001
 20
47.509093999999997
  0
LWPOLYLINE
  5
104
  8
Layer_1
 62
1
420
16711680
370
-1
  6
ByLayer
100
AcDbEntity
100
AcDbPolyline
 90
2
 70
0
 10
21.456879000000001
 20
51.130569999999999
 10
21.456879000000001
 20
49.813721000000001
  0
LWPOLYLINE
  5
105
  8
Layer_1
 62
1
420
16711680
370
-1
  6
ByLayer
100
AcDbEntity
100
AcDbPolyline
 90
2
 70
0
 10
21.456879000000001
 20
53.435195999999998
 10
21.456879000000001
 20
52.118347
  0
LWPOLYLINE
  5
106
  8
Layer_1
 62
1
420
16711680
370
-1
  6
ByLayer
100
AcDbEntity
100
AcDbPolyline
 90
2
 70
0
 10
21.456879000000001
 20
55.739823000000001
 10
21.456879000000001
 20
54.422974000000004
  0
LWPOLYLINE
  5
107
  8
Layer_1
 62
1
420
16711680
370
-1
  6
ByLayer
100
AcDbEntity
100
AcDbPolyline
 90
2
 70
0
 10
59.235427000000001
 20
16.644707
 10
60.552275999999999
 20
16.644707
  0
LWPOLYLINE
  5
108
  8
Layer_1
 62
1
420
16711680
370
-1
  6
ByLayer
100
AcDbEntity
100
AcDbPolyline
 90
2
 70
0
 10
56.930801000000002
 20
16.644707
 10
58.24765
 20
16.644707
  0
LWPOLYLINE
  5
109
  8
Layer_1
 62
5
420
255
370
-1
  6
ByLayer
100
AcDbEntity
100
AcDbPolyline
 90
4
 70
0
 10
66.431359999999998
 20
96.968058999999997
 10
86.128157000000002
 20
86.925661000000005
 10
96.642910999999998
 20
74.345916000000003
 10
96.587905000000006
 20
74.411475999999993
  0
LWPOLYLINE
  5
10A
  8
Layer_1
 62
1
420
16711680
370
-1
  6
ByLayer
100
AcDbEntity
100
AcDbPolyline
 90
2
 70
0
 10
75.791825000000003
 20
96.734774000000002
 10
90.417455000000004
 20
89.200682
  0
LWPOLYLINE
  5
10B
  8
Layer_1
 62
1
420
16711680
370
-1
  6
ByLayer
100
AcDbEntity
100
AcDbPolyline
 90
2
 70
0
 10
86.128157000000002
 20
86.925661000000005
 10
92.865733000000006
 20
90.498875999999996
  0
LINE
  5
10C
100
AcDbEntity
100
AcDbLine
  8
laser cut size
 62
256
370
-1
  6
ByLayer
 10
0.0
 20
0.0
 30
0.0
 11
115.71088263693821
 21
0.0
 31
0.0
  0
LINE
  5
10D
100
AcDbEntity
100
AcDbLine
  8
laser cut size
 62
256
370
-1
  6
ByLayer
 10
115.71088263693821
 20
0.0
 30
0.0
 11
115.71088263693821
 21
123.46803678019664
 31
0.0
  0
LINE
  5
10E
100
AcDbEntity
100
AcDbLine
  8
laser cut size
 62
256
370
-1
  6
ByLayer
 10
115.71088263693821
 20
123.46803678019664
 30
0.0
 11
0.0
 21
123.46803678019664
 31
0.0
  0
LINE
  5
10F
100
AcDbEntity
100
AcDbLine
  8
laser cut size
 62
256
370
-1
  6
ByLayer
 10
0.0
 20
123.46803678019664
 30
0.0
 11
0.0
 21
0.0
 31
0.0
  0
ENDSEC
  0
SECTION
  2
OBJECTS
  0
DICTIONARY
  5
C
100
AcDbDictionary
280
0
281
1
  3
ACAD_GROUP
350
D
  3
ACAD_LAYOUT
350
1A
  3
ACAD_MLINESTYLE
350
17
  3
ACAD_PLOTSETTINGS
350
19
  3
ACAD_PLOTSTYLENAME
350
E
  3
AcDbVariableDictionary
350
110
  0
DICTIONARY
  5
D
100
AcDbDictionary
280
0
281
1
  0
ACDBDICTIONARYWDFLT
  5
E
100
AcDbDictionary
281
1
  3
Normal
350
F
100
AcDbDictionaryWithDefault
340
F
  0
ACDBPLACEHOLDER
  5
F
  0
DICTIONARY
  5
17
100
AcDbDictionary
280
0
281
1
  3
Standard
350
18
  0
MLINESTYLE
  5
18
100
AcDbMlineStyle
  2
STANDARD
 70
0
  3

 62
256
 51
90.0
 52
90.0
 71
2
 49
0.5
 62
256
  6
BYLAYER
 49
-0.5
 62
256
  6
BYLAYER
  0
DICTIONARY
  5
19
100
AcDbDictionary
280
0
281
1
  0
DICTIONARY
  5
1A
100
AcDbDictionary
281
1
  3
Layout1
350
1E
  3
Layout2
350
26
  3
Model
350
22
  0
LAYOUT
  5
1E
100
AcDbPlotSettings
  1

  2
C:\Program Files\AutoCAD 2002\plotters\DWF ePlot (optimized for plotting).pc3
  4

  6

 40
0.0
 41
0.0
 42
0.0
 43
0.0
 44
0.0
 45
0.0
 46
0.0
 47
0.0
 48
0.0
 49
0.0
140
0.0
141
0.0
142
1.0
143
1.0
 70
688
 72
0
 73
0
 74
5
  7

 75
16
147
1.0
148
0.0
149
0.0
100
AcDbLayout
  1
Layout1
 70
1
 71
1
 10
0.0
 20
0.0
 11
420.0
 21
297.0
 12
0.0
 22
0.0
 32
0.0
 14
100000000000000000000.0
 24
100000000000000000000.0
 34
100000000000000000000.0
 15
-100000000000000000000.0
 25
-100000000000000000000.0
 35
-100000000000000000000.0
146
0.0
 13
0.0
 23
0.0
 33
0.0
 16
1.0
 26
0.0
 36
0.0
 17
0.0
 27
1.0
 37
0.0
 76
0
330
1B
  0
LAYOUT
  5
22
100
AcDbPlotSettings
  1

  2
C:\Program Files\AutoCAD 2002\plotters\DWF ePlot (optimized for plotting).pc3
  4

  6

 40
0.0
 41
0.0
 42
0.0
 43
0.0
 44
0.0
 45
0.0
 46
0.0
 47
0.0
 48
0.0
 49
0.0
140
0.0
141
0.0
142
1.0
143
1.0
 70
1712
 72
0
 73
0
 74
0
  7

 75
0
147
1.0
148
0.0
149
0.0
100
AcDbLayout
  1
Model
 70
1
 71
0
 10
0.0
 20
0.0
 11
12.0
 21
9.0
 12
0.0
 22
0.0
 32
0.0
 14
0.0
 24
0.0
 34
0.0
 15
0.0
 25
0.0
 35
0.0
146
0.0
 13
0.0
 23
0.0
 33
0.0
 16
1.0
 26
0.0
 36
0.0
 17
0.0
 27
1.0
 37
0.0
 76
0
330
1F
  0
LAYOUT
  5
26
100
AcDbPlotSettings
  1

  2
C:\Program Files\AutoCAD 2002\plotters\DWF ePlot (optimized for plotting).pc3
  4

  6

 40
0.0
 41
0.0
 42
0.0
 43
0.0
 44
0.0
 45
0.0
 46
0.0
 47
0.0
 48
0.0
 49
0.0
140
0.0
141
0.0
142
1.0
143
1.0
 70
688
 72
0
 73
0
 74
5
  7

 75
16
147
1.0
148
0.0
149
0.0
100
AcDbLayout
  1
Layout2
 70
1
 71
2
 10
0.0
 20
0.0
 11
12.0
 21
9.0
 12
0.0
 22
0.0
 32
0.0
 14
0.0
 24
0.0
 34
0.0
 15
0.0
 25
0.0
 35
0.0
146
0.0
 13
0.0
 23
0.0
 33
0.0
 16
1.0
 26
0.0
 36
0.0
 17
0.0
 27
1.0
 37
0.0
 76
0
330
23
  0
DICTIONARY
  5
110
100
AcDbDictionary
281
1
  3
DIMASSOC
350
112
  3
HIDETEXT
350
111
  0
DICTIONARYVAR
  5
111
100
DictionaryVariables
280
0
  1
2
  0
DICTIONARYVAR
  5
112
100
DictionaryVariables
280
0
  1
1
  0
ENDSEC
  0
EOF
