  0
SECTION
  2
HEADER
  9
$ACADVER
  1
AC1024
  9
$ACADMAINTVER
 70
     6
  9
$DWGCODEPAGE
  3
ASCII
  9
$INSBASE
 10
0.0
 20
0.0
 30
0.0
  9
$EXTMIN
 10
1.000000000000000E+20
 20
1.000000000000000E+20
 30
1.000000000000000E+20
  9
$EXTMAX
 10
-1.000000000000000E+20
 20
-1.000000000000000E+20
 30
-1.000000000000000E+20
  9
$LIMMIN
 10
0.0
 20
0.0
  9
$LIMMAX
 10
12.0
 20
9.0
  9
$ORTHOMODE
 70
     0
  9
$REGENMODE
 70
     1
  9
$FILLMODE
 70
     1
  9
$QTEXTMODE
 70
     0
  9
$MIRRTEXT
 70
     1
  9
$LTSCALE
 40
1.0
  9
$ATTMODE
 70
     1
  9
$TEXTSIZE
 40
0.2
  9
$TRACEWID
 40
0.05
  9
$TEXTSTYLE
  7
Standard
  9
$CLAYER
  8
0
  9
$CELTYPE
  6
ByLayer
  9
$CECOLOR
 62
    18
  9
$CELTSCALE
 40
1.0
  9
$DISPSILH
 70
     0
  9
$DIMSCALE
 40
1.0
  9
$DIMASZ
 40
2.5
  9
$DIMEXO
 40
0.625
  9
$DIMDLI
 40
0.38
  9
$DIMRND
 40
0.0
  9
$DIMDLE
 40
0.0
  9
$DIMEXE
 40
1.25
  9
$DIMTP
 40
0.0
  9
$DIMTM
 40
0.0
  9
$DIMTXT
 40
2.5
  9
$DIMCEN
 40
0.09
  9
$DIMTSZ
 40
0.0
  9
$DIMTOL
 70
     0
  9
$DIMLIM
 70
     0
  9
$DIMTIH
 70
     1
  9
$DIMTOH
 70
     1
  9
$DIMSE1
 70
     0
  9
$DIMSE2
 70
     0
  9
$DIMTAD
 70
     0
  9
$DIMZIN
 70
     8
  9
$DIMBLK
  1

  9
$DIMASO
 70
     1
  9
$DIMSHO
 70
     1
  9
$DIMPOST
  1

  9
$DIMAPOST
  1

  9
$DIMALT
 70
     0
  9
$DIMALTD
 70
     2
  9
$DIMALTF
 40
25.4
  9
$DIMLFAC
 40
1.0
  9
$DIMTOFL
 70
     0
  9
$DIMTVP
 40
0.0
  9
$DIMTIX
 70
     0
  9
$DIMSOXD
 70
     0
  9
$DIMSAH
 70
     0
  9
$DIMBLK1
  1

  9
$DIMBLK2
  1

  9
$DIMSTYLE
  2
Standard
  9
$DIMCLRD
 70
    18
  9
$DIMCLRE
 70
    18
  9
$DIMCLRT
 70
    18
  9
$DIMTFAC
 40
1.0
  9
$DIMGAP
 40
0.625
  9
$DIMJUST
 70
     0
  9
$DIMSD1
 70
     0
  9
$DIMSD2
 70
     0
  9
$DIMTOLJ
 70
     1
  9
$DIMTZIN
 70
     0
  9
$DIMALTZ
 70
     0
  9
$DIMALTTZ
 70
     0
  9
$DIMUPT
 70
     0
  9
$DIMDEC
 70
     4
  9
$DIMTDEC
 70
     4
  9
$DIMALTU
 70
     2
  9
$DIMALTTD
 70
     2
  9
$DIMTXSTY
  7
Standard
  9
$DIMAUNIT
 70
     0
  9
$DIMADEC
 70
     0
  9
$DIMALTRND
 40
0.0
  9
$DIMAZIN
 70
     2
  9
$DIMDSEP
 70
    46
  9
$DIMATFIT
 70
     3
  9
$DIMFRAC
 70
     0
  9
$DIMLDRBLK
  1

  9
$DIMLUNIT
 70
     2
  9
$DIMLWD
 70
    -2
  9
$DIMLWE
 70
    -2
  9
$DIMTMOVE
 70
     0
  9
$DIMFXL
 40
1.0
  9
$DIMFXLON
 70
     0
  9
$DIMJOGANG
 40
0.7853981633974483
  9
$DIMTFILL
 70
     0
  9
$DIMTFILLCLR
 70
     0
  9
$DIMARCSYM
 70
     0
  9
$DIMLTYPE
  6

  9
$DIMLTEX1
  6

  9
$DIMLTEX2
  6

  9
$DIMTXTDIRECTION
 70
     0
  9
$LUNITS
 70
     2
  9
$LUPREC
 70
     4
  9
$SKETCHINC
 40
0.1
  9
$FILLETRAD
 40
0.5
  9
$AUNITS
 70
     0
  9
$AUPREC
 70
     0
  9
$MENU
  1
.
  9
$ELEVATION
 40
0.0
  9
$PELEVATION
 40
0.0
  9
$THICKNESS
 40
0.0
  9
$LIMCHECK
 70
     0
  9
$CHAMFERA
 40
0.5
  9
$CHAMFERB
 40
0.5
  9
$CHAMFERC
 40
1.0
  9
$CHAMFERD
 40
0.0
  9
$SKPOLY
 70
     0
  9
$TDCREATE
 40
2455938.523843877
  9
$TDUCREATE
 40
2455938.732177211
  9
$TDUPDATE
 40
2455938.523844062
  9
$TDUUPDATE
 40
2455938.732177396
  9
$TDINDWG
 40
0.0000000116
  9
$TDUSRTIMER
 40
0.0000000116
  9
$USRTIMER
 70
     1
  9
$ANGBASE
 50
0.0
  9
$ANGDIR
 70
     0
  9
$PDMODE
 70
     0
  9
$PDSIZE
 40
0.0
  9
$PLINEWID
 40
0.0
  9
$SPLFRAME
 70
     0
  9
$SPLINETYPE
 70
     6
  9
$SPLINESEGS
 70
     8
  9
$HANDSEED
  5
324D
  9
$SURFTAB1
 70
     6
  9
$SURFTAB2
 70
     6
  9
$SURFTYPE
 70
     6
  9
$SURFU
 70
     6
  9
$SURFV
 70
     6
  9
$UCSBASE
  2

  9
$UCSNAME
  2

  9
$UCSORG
 10
0.0
 20
0.0
 30
0.0
  9
$UCSXDIR
 10
1.0
 20
0.0
 30
0.0
  9
$UCSYDIR
 10
0.0
 20
1.0
 30
0.0
  9
$UCSORTHOREF
  2

  9
$UCSORTHOVIEW
 70
     0
  9
$UCSORGTOP
 10
0.0
 20
0.0
 30
0.0
  9
$UCSORGBOTTOM
 10
0.0
 20
0.0
 30
0.0
  9
$UCSORGLEFT
 10
0.0
 20
0.0
 30
0.0
  9
$UCSORGRIGHT
 10
0.0
 20
0.0
 30
0.0
  9
$UCSORGFRONT
 10
0.0
 20
0.0
 30
0.0
  9
$UCSORGBACK
 10
0.0
 20
0.0
 30
0.0
  9
$PUCSBASE
  2

  9
$PUCSNAME
  2

  9
$PUCSORG
 10
0.0
 20
0.0
 30
0.0
  9
$PUCSXDIR
 10
1.0
 20
0.0
 30
0.0
  9
$PUCSYDIR
 10
0.0
 20
1.0
 30
0.0
  9
$PUCSORTHOREF
  2

  9
$PUCSORTHOVIEW
 70
     0
  9
$PUCSORGTOP
 10
0.0
 20
0.0
 30
0.0
  9
$PUCSORGBOTTOM
 10
0.0
 20
0.0
 30
0.0
  9
$PUCSORGLEFT
 10
0.0
 20
0.0
 30
0.0
  9
$PUCSORGRIGHT
 10
0.0
 20
0.0
 30
0.0
  9
$PUCSORGFRONT
 10
0.0
 20
0.0
 30
0.0
  9
$PUCSORGBACK
 10
0.0
 20
0.0
 30
0.0
  9
$USERI1
 70
     0
  9
$USERI2
 70
     0
  9
$USERI3
 70
     0
  9
$USERI4
 70
     0
  9
$USERI5
 70
     0
  9
$USERR1
 40
0.0
  9
$USERR2
 40
0.0
  9
$USERR3
 40
0.0
  9
$USERR4
 40
0.0
  9
$USERR5
 40
0.0
  9
$WORLDVIEW
 70
     1
  9
$SHADEDGE
 70
     3
  9
$SHADEDIF
 70
    70
  9
$TILEMODE
 70
     1
  9
$MAXACTVP
 70
    64
  9
$PINSBASE
 10
0.0
 20
0.0
 30
0.0
  9
$PLIMCHECK
 70
     0
  9
$PEXTMIN
 10
1.000000000000000E+20
 20
1.000000000000000E+20
 30
1.000000000000000E+20
  9
$PEXTMAX
 10
-1.000000000000000E+20
 20
-1.000000000000000E+20
 30
-1.000000000000000E+20
  9
$PLIMMIN
 10
0.0
 20
0.0
  9
$PLIMMAX
 10
12.0
 20
9.0
  9
$UNITMODE
 70
     0
  9
$VISRETAIN
 70
     1
  9
$PLINEGEN
 70
     0
  9
$PSLTSCALE
 70
     1
  9
$TREEDEPTH
 70
  3020
  9
$CMLSTYLE
  2
Standard
  9
$CMLJUST
 70
     0
  9
$CMLSCALE
 40
1.0
  9
$PROXYGRAPHICS
 70
     1
  9
$MEASUREMENT
 70
     1
  9
$CELWEIGHT
370
    -1
  9
$ENDCAPS
280
     0
  9
$JOINSTYLE
280
     0
  9
$LWDISPLAY
290
     0
  9
$INSUNITS
 70
     0
  9
$HYPERLINKBASE
  1

  9
$STYLESHEET
  1

  9
$XEDIT
290
     1
  9
$CEPSNTYPE
380
     0
  9
$PSTYLEMODE
290
     1
  9
$FINGERPRINTGUID
  2
{3FFB2A0F-77F7-4A18-AEBB-10A336569D10}
  9
$VERSIONGUID
  2
{FAEB1C32-E019-11D5-929B-00C0DF256EC4}
  9
$EXTNAMES
290
     1
  9
$PSVPSCALE
 40
0.0
  9
$OLESTARTUP
290
     0
  9
$SORTENTS
280
   127
  9
$INDEXCTL
280
     0
  9
$HIDETEXT
280
     1
  9
$XCLIPFRAME
280
     2
  9
$HALOGAP
280
     0
  9
$OBSCOLOR
 70
   257
  9
$OBSLTYPE
280
     0
  9
$INTERSECTIONDISPLAY
280
     0
  9
$INTERSECTIONCOLOR
 70
   257
  9
$DIMASSOC
280
     2
  9
$PROJECTNAME
  1

  9
$CAMERADISPLAY
290
     0
  9
$LENSLENGTH
 40
50.0
  9
$CAMERAHEIGHT
 40
0.0
  9
$STEPSPERSEC
 40
2.0
  9
$STEPSIZE
 40
6.0
  9
$3DDWFPREC
 40
2.0
  9
$PSOLWIDTH
 40
0.25
  9
$PSOLHEIGHT
 40
4.0
  9
$LOFTANG1
 40
1.570796326794897
  9
$LOFTANG2
 40
1.570796326794897
  9
$LOFTMAG1
 40
0.0
  9
$LOFTMAG2
 40
0.0
  9
$LOFTPARAM
 70
     7
  9
$LOFTNORMALS
280
     1
  9
$LATITUDE
 40
37.795
  9
$LONGITUDE
 40
-122.394
  9
$NORTHDIRECTION
 40
0.0
  9
$TIMEZONE
 70
 -8000
  9
$LIGHTGLYPHDISPLAY
280
     1
  9
$TILEMODELIGHTSYNCH
280
     1
  9
$SOLIDHIST
280
     1
  9
$SHOWHIST
280
     1
  9
$DWFFRAME
280
     2
  9
$DGNFRAME
280
     2
  9
$REALWORLDSCALE
290
     1
  9
$INTERFERECOLOR
 62
   256
  9
$CSHADOW
280
     0
  9
$SHADOWPLANELOCATION
 40
0.0
  0
ENDSEC
  0
SECTION
  2
CLASSES
  0
CLASS
  1
ACDBDICTIONARYWDFLT
  2
AcDbDictionaryWithDefault
  3
ObjectDBX Classes
 90
        0
 91
        4
280
     0
281
     0
  0
CLASS
  1
VISUALSTYLE
  2
AcDbVisualStyle
  3
ObjectDBX Classes
 90
     4095
 91
        4
280
     0
281
     0
  0
CLASS
  1
MATERIAL
  2
AcDbMaterial
  3
ObjectDBX Classes
 90
     1153
 91
        4
280
     0
281
     0
  0
ENDSEC
  0
SECTION
  2
TABLES
  0
TABLE
  2
VPORT
  5
31EB
330
0
100
AcDbSymbolTable
 70
     1
  0
VPORT
  5
320B
330
31EB
100
AcDbSymbolTableRecord
100
AcDbViewportTableRecord
  2
*Active
 70
     0
 10
0.0
 20
0.0
 11
1.0
 21
1.0
 12
10.42990654205607
 22
4.5
 13
0.0
 23
0.0
 14
0.5
 24
0.5
 15
0.5
 25
0.5
 16
0.0
 26
0.0
 36
1.0
 17
0.0
 27
0.0
 37
0.0
 40
9.0
 41
1.972972972850329
 42
50.0
 43
0.0
 44
0.0
 50
0.0
 51
0.0
 71
     0
 72
   100
 73
     1
 74
     3
 75
     0
 76
     0
 77
     0
 78
     0
281
     0
 65
     1
110
0.0
120
0.0
130
0.0
111
1.0
121
0.0
131
0.0
112
0.0
122
1.0
132
0.0
 79
     0
146
0.0
 60
     3
 61
     5
292
     1
282
     1
141
0.0
142
0.0
 63
   250
  0
ENDTAB
  0
TABLE
  2
LTYPE
  5
31E8
330
0
100
AcDbSymbolTable
 70
    19
  0
LTYPE
  5
31F6
330
31E8
100
AcDbSymbolTableRecord
100
AcDbLinetypeTableRecord
  2
ByBlock
 70
     0
  3

 72
    65
 73
     0
 40
0.0
  0
LTYPE
  5
31F7
330
31E8
100
AcDbSymbolTableRecord
100
AcDbLinetypeTableRecord
  2
ByLayer
 70
     0
  3

 72
    65
 73
     0
 40
0.0
  0
LTYPE
  5
31F8
330
31E8
100
AcDbSymbolTableRecord
100
AcDbLinetypeTableRecord
  2
Continuous
 70
     0
  3
Solid line
 72
    65
 73
     0
 40
0.0
  0
LTYPE
  5
3237
330
31E8
100
AcDbSymbolTableRecord
100
AcDbLinetypeTableRecord
  2
BORDER
 70
     0
  3

 72
    65
 73
     6
 40
42.00000000000001
 49
12.0
 74
     0
 49
-6.0
 74
     0
 49
12.0
 74
     0
 49
-5.95
 74
     0
 49
0.1
 74
     0
 49
-5.95
 74
     0
  0
LTYPE
  5
3238
330
31E8
100
AcDbSymbolTableRecord
100
AcDbLinetypeTableRecord
  2
BORDER2
 70
     0
  3

 72
    65
 73
     6
 40
21.0
 49
6.0
 74
     0
 49
-3.0
 74
     0
 49
6.0
 74
     0
 49
-2.95
 74
     0
 49
0.1
 74
     0
 49
-2.95
 74
     0
  0
LTYPE
  5
3239
330
31E8
100
AcDbSymbolTableRecord
100
AcDbLinetypeTableRecord
  2
BORDERX2
 70
     0
  3

 72
    65
 73
     6
 40
84.0
 49
24.0
 74
     0
 49
-12.0
 74
     0
 49
24.0
 74
     0
 49
-11.95
 74
     0
 49
0.1
 74
     0
 49
-11.95
 74
     0
  0
LTYPE
  5
323A
330
31E8
100
AcDbSymbolTableRecord
100
AcDbLinetypeTableRecord
  2
CENTER
 70
     0
  3

 72
    65
 73
     4
 40
50.0
 49
32.0
 74
     0
 49
-6.0
 74
     0
 49
6.0
 74
     0
 49
-6.0
 74
     0
  0
LTYPE
  5
323B
330
31E8
100
AcDbSymbolTableRecord
100
AcDbLinetypeTableRecord
  2
CENTER2
 70
     0
  3

 72
    65
 73
     4
 40
25.0
 49
16.0
 74
     0
 49
-3.0
 74
     0
 49
3.0
 74
     0
 49
-3.0
 74
     0
  0
LTYPE
  5
323C
330
31E8
100
AcDbSymbolTableRecord
100
AcDbLinetypeTableRecord
  2
CENTERX2
 70
     0
  3

 72
    65
 73
     4
 40
100.0
 49
64.0
 74
     0
 49
-12.0
 74
     0
 49
12.0
 74
     0
 49
-12.0
 74
     0
  0
LTYPE
  5
323D
330
31E8
100
AcDbSymbolTableRecord
100
AcDbLinetypeTableRecord
  2
DASHDOT
 70
     0
  3

 72
    65
 73
     4
 40
24.0
 49
12.0
 74
     0
 49
-5.95
 74
     0
 49
0.1
 74
     0
 49
-5.95
 74
     0
  0
LTYPE
  5
323E
330
31E8
100
AcDbSymbolTableRecord
100
AcDbLinetypeTableRecord
  2
DASHDOT2
 70
     0
  3

 72
    65
 73
     4
 40
12.0
 49
6.0
 74
     0
 49
-2.95
 74
     0
 49
0.1
 74
     0
 49
-2.95
 74
     0
  0
LTYPE
  5
323F
330
31E8
100
AcDbSymbolTableRecord
100
AcDbLinetypeTableRecord
  2
DASHDOTX2
 70
     0
  3

 72
    65
 73
     4
 40
48.0
 49
24.0
 74
     0
 49
-11.95
 74
     0
 49
0.1
 74
     0
 49
-11.95
 74
     0
  0
LTYPE
  5
3240
330
31E8
100
AcDbSymbolTableRecord
100
AcDbLinetypeTableRecord
  2
DASHED
 70
     0
  3

 72
    65
 73
     2
 40
18.0
 49
12.0
 74
     0
 49
-6.0
 74
     0
  0
LTYPE
  5
3241
330
31E8
100
AcDbSymbolTableRecord
100
AcDbLinetypeTableRecord
  2
DASHED2
 70
     0
  3

 72
    65
 73
     2
 40
9.0
 49
6.0
 74
     0
 49
-3.0
 74
     0
  0
LTYPE
  5
3242
330
31E8
100
AcDbSymbolTableRecord
100
AcDbLinetypeTableRecord
  2
DASHEDX2
 70
     0
  3

 72
    65
 73
     2
 40
36.0
 49
24.0
 74
     0
 49
-12.0
 74
     0
  0
LTYPE
  5
3243
330
31E8
100
AcDbSymbolTableRecord
100
AcDbLinetypeTableRecord
  2
DIVIDE
 70
     0
  3

 72
    65
 73
     6
 40
29.99999999999999
 49
12.0
 74
     0
 49
-5.9
 74
     0
 49
0.15
 74
     0
 49
-5.9
 74
     0
 49
0.15
 74
     0
 49
-5.9
 74
     0
  0
LTYPE
  5
3244
330
31E8
100
AcDbSymbolTableRecord
100
AcDbLinetypeTableRecord
  2
DIVIDE2
 70
     0
  3

 72
    65
 73
     6
 40
15.0
 49
6.0
 74
     0
 49
-2.9
 74
     0
 49
0.15
 74
     0
 49
-2.9
 74
     0
 49
0.15
 74
     0
 49
-2.9
 74
     0
  0
LTYPE
  5
3245
330
31E8
100
AcDbSymbolTableRecord
100
AcDbLinetypeTableRecord
  2
DIVIDEX2
 70
     0
  3

 72
    65
 73
     6
 40
59.99999999999999
 49
24.0
 74
     0
 49
-11.9
 74
     0
 49
0.15
 74
     0
 49
-11.9
 74
     0
 49
0.15
 74
     0
 49
-11.9
 74
     0
  0
LTYPE
  5
3246
330
31E8
100
AcDbSymbolTableRecord
100
AcDbLinetypeTableRecord
  2
DOT
 70
     0
  3

 72
    65
 73
     2
 40
6.3
 49
0.1
 74
     0
 49
-6.2
 74
     0
  0
LTYPE
  5
3247
330
31E8
100
AcDbSymbolTableRecord
100
AcDbLinetypeTableRecord
  2
DOT2
 70
     0
  3

 72
    65
 73
     2
 40
3.2
 49
0.1
 74
     0
 49
-3.1
 74
     0
  0
LTYPE
  5
3248
330
31E8
100
AcDbSymbolTableRecord
100
AcDbLinetypeTableRecord
  2
DOTX2
 70
     0
  3

 72
    65
 73
     2
 40
12.5
 49
0.1
 74
     0
 49
-12.4
 74
     0
  0
ENDTAB
  0
TABLE
  2
LAYER
  5
31E5
330
0
100
AcDbSymbolTable
 70
     3
  0
LAYER
  5
31F3
330
31E5
100
AcDbSymbolTableRecord
100
AcDbLayerTableRecord
  2
0
 70
     0
 62
     7
420
 16777215
  6
Continuous
370
    25
390
31F2
347
3220
  0
LAYER
  5
3249
330
31E5
100
AcDbSymbolTableRecord
100
AcDbLayerTableRecord
  2
TEXT
 70
     0
 62
     5
420
      255
  6
Continuous
370
    -3
390
31F2
347
3220
  0
LAYER
  5
324A
330
31E5
100
AcDbSymbolTableRecord
100
AcDbLayerTableRecord
  2
laser bed referance
 70
     0
 62
     3
420
    65280
  6
Continuous
370
    25
390
31F2
347
3220
  0
ENDTAB
  0
TABLE
  2
STYLE
  5
31E6
330
0
100
AcDbSymbolTable
 70
     1
  0
STYLE
  5
31F4
330
31E6
100
AcDbSymbolTableRecord
100
AcDbTextStyleTableRecord
  2
Standard
 70
     0
 40
0.0
 41
1.0
 50
0.0
 71
     0
 42
0.2
  3
txt
  4

  0
ENDTAB
  0
TABLE
  2
VIEW
  5
31E9
330
0
100
AcDbSymbolTable
 70
     0
  0
ENDTAB
  0
TABLE
  2
UCS
  5
31EA
330
0
100
AcDbSymbolTable
 70
     0
  0
ENDTAB
  0
TABLE
  2
APPID
  5
31EC
330
0
100
AcDbSymbolTable
 70
     2
  0
APPID
  5
31F5
330
31EC
100
AcDbSymbolTableRecord
100
AcDbRegAppTableRecord
  2
ACAD
 70
     0
  0
APPID
  5
3221
330
31EC
100
AcDbSymbolTableRecord
100
AcDbRegAppTableRecord
  2
QCAD
 70
     0
  0
ENDTAB
  0
TABLE
  2
DIMSTYLE
  5
31ED
330
0
100
AcDbSymbolTable
 70
     2
100
AcDbDimStyleTable
  0
DIMSTYLE
105
3209
330
31ED
100
AcDbSymbolTableRecord
100
AcDbDimStyleTableRecord
  2
Standard
 70
     0
178
     0
340
31F4
  0
DIMSTYLE
105
3236
330
31ED
100
AcDbSymbolTableRecord
100
AcDbDimStyleTableRecord
  2
QCADDimStyle
 70
     0
 41
2.5
 42
0.625
 44
1.25
 73
     0
 77
     1
140
2.5
147
0.625
178
     0
340
31F4
  0
ENDTAB
  0
TABLE
  2
BLOCK_RECORD
  5
31E4
330
0
100
AcDbSymbolTable
 70
     1
  0
BLOCK_RECORD
  5
3201
330
31E4
100
AcDbSymbolTableRecord
100
AcDbBlockTableRecord
  2
*Model_Space
340
3204
 70
     0
280
     1
281
     0
  0
BLOCK_RECORD
  5
31FD
330
31E4
100
AcDbSymbolTableRecord
100
AcDbBlockTableRecord
  2
*Paper_Space
340
3200
 70
     0
280
     1
281
     0
  0
BLOCK_RECORD
  5
3205
330
31E4
100
AcDbSymbolTableRecord
100
AcDbBlockTableRecord
  2
*Paper_Space0
340
3208
 70
     0
280
     1
281
     0
  0
ENDTAB
  0
ENDSEC
  0
SECTION
  2
BLOCKS
  0
BLOCK
  5
3202
330
3201
100
AcDbEntity
  8
0
100
AcDbBlockBegin
  2
*Model_Space
 70
     0
 10
0.0
 20
0.0
 30
0.0
  3
*Model_Space
  1

  0
ENDBLK
  5
3203
330
3201
100
AcDbEntity
  8
0
100
AcDbBlockEnd
  0
BLOCK
  5
31FE
330
31FD
100
AcDbEntity
 67
     1
  8
0
100
AcDbBlockBegin
  2
*Paper_Space
 70
     0
 10
0.0
 20
0.0
 30
0.0
  3
*Paper_Space
  1

  0
ENDBLK
  5
31FF
330
31FD
100
AcDbEntity
 67
     1
  8
0
100
AcDbBlockEnd
  0
BLOCK
  5
3206
330
3205
100
AcDbEntity
  8
0
100
AcDbBlockBegin
  2
*Paper_Space0
 70
     0
 10
0.0
 20
0.0
 30
0.0
  3
*Paper_Space0
  1

  0
ENDBLK
  5
3207
330
3205
100
AcDbEntity
  8
0
100
AcDbBlockEnd
  0
ENDSEC
  0
SECTION
  2
ENTITIES
  0
LWPOLYLINE
  5
A6A
330
3201
100
AcDbEntity
  8
TEXT
 62
     5
420
      255
370
    25
100
AcDbPolyline
 90
       14
 70
     0
 43
0.0
 10
383.60143875
 20
141.43667125
 10
404.4008637499999
 20
135.8292687500001
 10
418.8001937499999
 20
137.8612687499999
 10
427.4397212499999
 20
144.4366937499999
 10
495.6313137499999
 20
144.36755
 10
577.9996325
 20
128.8305100000003
 10
577.9996325
 20
84.44965500000026
 10
505.51791
 20
84.24716000000026
 10
470.6370075
 20
78.07601875000015
 10
393.20158
 20
78.07601875000015
 10
368.0813325
 20
89.11302500000025
 10
368.0813325
 20
98.14590000000013
 10
380.4663025
 20
134.2858662500003
 10
383.60143875
 20
141.43667125
  0
SPLINE
  5
E64
330
3201
100
AcDbEntity
  8
TEXT
 62
     5
420
      255
370
    25
100
AcDbSpline
210
0.0
220
0.0
230
1.0
 70
     8
 71
     3
 72
     8
 73
     4
 74
     0
 42
0.000000001
 43
0.001
 12
1.0
 22
0.0
 32
0.0
 13
1.0
 23
0.0
 33
0.0
 40
0.0
 40
0.0
 40
0.0
 40
0.0
 40
1.0
 40
1.0
 40
1.0
 40
1.0
 10
264.9298304986246
 20
42.80024189850803
 30
0.0
 10
265.3873829986246
 20
42.91454189850822
 30
0.0
 10
265.6918304986245
 20
43.1558418985079
 30
0.0
 10
265.8696304986245
 20
43.36327564850819
 30
0.0
  0
SPLINE
  5
E65
330
3201
100
AcDbEntity
  8
TEXT
 62
     5
420
      255
370
    25
100
AcDbSpline
210
0.0
220
0.0
230
1.0
 70
     8
 71
     3
 72
     8
 73
     4
 74
     0
 42
0.000000001
 43
0.001
 12
1.0
 22
0.0
 32
0.0
 13
1.0
 23
0.0
 33
0.0
 40
0.0
 40
0.0
 40
0.0
 40
0.0
 40
1.0
 40
1.0
 40
1.0
 40
1.0
 10
267.4299667486246
 20
42.80024189850803
 30
0.0
 10
267.8875192486246
 20
42.91454189850822
 30
0.0
 10
268.1919667486245
 20
43.1558418985079
 30
0.0
 10
268.3697667486244
 20
43.36327564850819
 30
0.0
  0
LWPOLYLINE
  5
E66
330
3201
100
AcDbEntity
  8
TEXT
 62
     5
420
      255
370
    25
100
AcDbPolyline
 90
        3
 70
     0
 43
0.0
 10
265.8696304986245
 20
43.36327564850819
 10
265.9793442486246
 20
43.36327564850819
 10
265.9793442486246
 20
40.38477314850809
  0
SPLINE
  5
E67
330
3201
100
AcDbEntity
  8
TEXT
 62
     5
420
      255
370
    25
100
AcDbSpline
210
0.0
220
0.0
230
1.0
 70
     8
 71
     3
 72
     8
 73
     4
 74
     0
 42
0.000000001
 43
0.001
 12
1.0
 22
0.0
 32
0.0
 13
1.0
 23
0.0
 33
0.0
 40
0.0
 40
0.0
 40
0.0
 40
0.0
 40
1.0
 40
1.0
 40
1.0
 40
1.0
 10
272.8729742486246
 20
41.50978064850813
 30
0.0
 10
272.7840742486246
 20
40.70156689850808
 30
0.0
 10
272.0566467486246
 20
40.29587314850812
 30
0.0
 10
271.3584992486246
 20
40.29587314850812
 30
0.0
  0
SPLINE
  5
E68
330
3201
100
AcDbEntity
  8
TEXT
 62
     5
420
      255
370
    25
100
AcDbSpline
210
0.0
220
0.0
230
1.0
 70
     8
 71
     3
 72
     8
 73
     4
 74
     0
 42
0.000000001
 43
0.001
 12
1.0
 22
0.0
 32
0.0
 13
1.0
 23
0.0
 33
0.0
 40
0.0
 40
0.0
 40
0.0
 40
0.0
 40
1.0
 40
1.0
 40
1.0
 40
1.0
 10
271.3584992486246
 20
40.29587314850812
 30
0.0
 10
270.4952529986244
 20
40.29587314850812
 30
0.0
 10
269.7928717486245
 20
40.87548689850803
 30
0.0
 10
269.7928717486245
 20
41.87384814850805
 30
0.0
  0
SPLINE
  5
E69
330
3201
100
AcDbEntity
  8
TEXT
 62
     5
420
      255
370
    25
100
AcDbSpline
210
0.0
220
0.0
230
1.0
 70
     8
 71
     3
 72
     8
 73
     4
 74
     0
 42
0.000000001
 43
0.001
 12
1.0
 22
0.0
 32
0.0
 13
1.0
 23
0.0
 33
0.0
 40
0.0
 40
0.0
 40
0.0
 40
0.0
 40
1.0
 40
1.0
 40
1.0
 40
1.0
 10
269.7928717486245
 20
41.87384814850805
 30
0.0
 10
269.7928717486245
 20
42.87220939850806
 30
0.0
 10
270.4948992486245
 20
43.4518231485082
 30
0.0
 10
271.3584992486246
 20
43.4518231485082
 30
0.0
  0
SPLINE
  5
E6A
330
3201
100
AcDbEntity
  8
TEXT
 62
     5
420
      255
370
    25
100
AcDbSpline
210
0.0
220
0.0
230
1.0
 70
     8
 71
     3
 72
     8
 73
     4
 74
     0
 42
0.000000001
 43
0.001
 12
1.0
 22
0.0
 32
0.0
 13
1.0
 23
0.0
 33
0.0
 40
0.0
 40
0.0
 40
0.0
 40
0.0
 40
1.0
 40
1.0
 40
1.0
 40
1.0
 10
271.3584992486246
 20
43.4518231485082
 30
0.0
 10
272.0735804986246
 20
43.4518231485082
 30
0.0
 10
272.6404942486245
 20
43.160428148508
 30
0.0
 10
272.8013604986245
 20
42.50426189850816
 30
0.0
  0
LWPOLYLINE
  5
E6B
330
3201
100
AcDbEntity
  8
TEXT
 62
     5
420
      255
370
    25
100
AcDbPolyline
 90
        3
 70
     0
 43
0.0
 10
268.3697667486244
 20
43.36327564850819
 10
268.4794804986245
 20
43.36327564850819
 10
268.4794804986245
 20
40.38477314850809
  0
SPLINE
  5
E8A
330
3201
100
AcDbEntity
  8
TEXT
 62
     5
420
      255
370
    25
100
AcDbSpline
210
0.0
220
0.0
230
1.0
 70
     8
 71
     3
 72
     8
 73
     4
 74
     0
 42
0.000000001
 43
0.001
 12
1.0
 22
0.0
 32
0.0
 13
1.0
 23
0.0
 33
0.0
 40
0.0
 40
0.0
 40
0.0
 40
0.0
 40
1.0
 40
1.0
 40
1.0
 40
1.0
 10
158.5606279986246
 20
42.80024189850803
 30
0.0
 10
159.0181804986246
 20
42.91454189850822
 30
0.0
 10
159.3226279986245
 20
43.1558418985079
 30
0.0
 10
159.5004279986244
 20
43.36327564850819
 30
0.0
  0
SPLINE
  5
E8D
330
3201
100
AcDbEntity
  8
TEXT
 62
     5
420
      255
370
    25
100
AcDbSpline
210
0.0
220
0.0
230
1.0
 70
     8
 71
     3
 72
     8
 73
     4
 74
     0
 42
0.000000001
 43
0.001
 12
1.0
 22
0.0
 32
0.0
 13
1.0
 23
0.0
 33
0.0
 40
0.0
 40
0.0
 40
0.0
 40
0.0
 40
1.0
 40
1.0
 40
1.0
 40
1.0
 10
161.0607629986246
 20
42.80024189850803
 30
0.0
 10
161.5183167486246
 20
42.91454189850822
 30
0.0
 10
161.8227629986245
 20
43.1558418985079
 30
0.0
 10
162.0005629986244
 20
43.36327564850819
 30
0.0
  0
LWPOLYLINE
  5
E8F
330
3201
100
AcDbEntity
  8
TEXT
 62
     5
420
      255
370
    25
100
AcDbPolyline
 90
        3
 70
     0
 43
0.0
 10
159.5004279986244
 20
43.36327564850819
 10
159.6101417486245
 20
43.36327564850819
 10
159.6101417486245
 20
40.38477314850809
  0
SPLINE
  5
E91
330
3201
100
AcDbEntity
  8
TEXT
 62
     5
420
      255
370
    25
100
AcDbSpline
210
0.0
220
0.0
230
1.0
 70
     8
 71
     3
 72
     8
 73
     4
 74
     0
 42
0.000000001
 43
0.001
 12
1.0
 22
0.0
 32
0.0
 13
1.0
 23
0.0
 33
0.0
 40
0.0
 40
0.0
 40
0.0
 40
0.0
 40
1.0
 40
1.0
 40
1.0
 40
1.0
 10
166.5037717486246
 20
41.50978064850813
 30
0.0
 10
166.4148717486246
 20
40.70156689850808
 30
0.0
 10
165.6870917486244
 20
40.29587314850812
 30
0.0
 10
164.9892967486246
 20
40.29587314850812
 30
0.0
  0
SPLINE
  5
E93
330
3201
100
AcDbEntity
  8
TEXT
 62
     5
420
      255
370
    25
100
AcDbSpline
210
0.0
220
0.0
230
1.0
 70
     8
 71
     3
 72
     8
 73
     4
 74
     0
 42
0.000000001
 43
0.001
 12
1.0
 22
0.0
 32
0.0
 13
1.0
 23
0.0
 33
0.0
 40
0.0
 40
0.0
 40
0.0
 40
0.0
 40
1.0
 40
1.0
 40
1.0
 40
1.0
 10
164.9892967486246
 20
40.29587314850812
 30
0.0
 10
164.1260492486244
 20
40.29587314850812
 30
0.0
 10
163.4236692486245
 20
40.87548689850803
 30
0.0
 10
163.4236692486245
 20
41.87384814850805
 30
0.0
  0
SPLINE
  5
E95
330
3201
100
AcDbEntity
  8
TEXT
 62
     5
420
      255
370
    25
100
AcDbSpline
210
0.0
220
0.0
230
1.0
 70
     8
 71
     3
 72
     8
 73
     4
 74
     0
 42
0.000000001
 43
0.001
 12
1.0
 22
0.0
 32
0.0
 13
1.0
 23
0.0
 33
0.0
 40
0.0
 40
0.0
 40
0.0
 40
0.0
 40
1.0
 40
1.0
 40
1.0
 40
1.0
 10
163.4236692486245
 20
41.87384814850805
 30
0.0
 10
163.4236692486245
 20
42.87220939850806
 30
0.0
 10
164.1260492486244
 20
43.4518231485082
 30
0.0
 10
164.9892967486246
 20
43.4518231485082
 30
0.0
  0
SPLINE
  5
E97
330
3201
100
AcDbEntity
  8
TEXT
 62
     5
420
      255
370
    25
100
AcDbSpline
210
0.0
220
0.0
230
1.0
 70
     8
 71
     3
 72
     8
 73
     4
 74
     0
 42
0.000000001
 43
0.001
 12
1.0
 22
0.0
 32
0.0
 13
1.0
 23
0.0
 33
0.0
 40
0.0
 40
0.0
 40
0.0
 40
0.0
 40
1.0
 40
1.0
 40
1.0
 40
1.0
 10
164.9892967486246
 20
43.4518231485082
 30
0.0
 10
165.7043779986245
 20
43.4518231485082
 30
0.0
 10
166.2712917486244
 20
43.160428148508
 30
0.0
 10
166.4321579986245
 20
42.50426189850816
 30
0.0
  0
LWPOLYLINE
  5
E99
330
3201
100
AcDbEntity
  8
TEXT
 62
     5
420
      255
370
    25
100
AcDbPolyline
 90
        3
 70
     0
 43
0.0
 10
162.0005629986244
 20
43.36327564850819
 10
162.1102779986245
 20
43.36327564850819
 10
162.1102779986245
 20
40.38477314850809
  0
SPLINE
  5
EA2
330
3201
100
AcDbEntity
  8
TEXT
 62
     5
420
      255
370
    25
100
AcDbSpline
210
0.0
220
0.0
230
1.0
 70
     8
 71
     3
 72
     8
 73
     4
 74
     0
 42
0.000000001
 43
0.001
 12
1.0
 22
0.0
 32
0.0
 13
1.0
 23
0.0
 33
0.0
 40
0.0
 40
0.0
 40
0.0
 40
0.0
 40
1.0
 40
1.0
 40
1.0
 40
1.0
 10
106.5844667486244
 20
42.80024189850803
 30
0.0
 10
107.0420192486245
 20
42.91454189850822
 30
0.0
 10
107.3464667486246
 20
43.1558418985079
 30
0.0
 10
107.5242667486245
 20
43.36327564850819
 30
0.0
  0
SPLINE
  5
EA5
330
3201
100
AcDbEntity
  8
TEXT
 62
     5
420
      255
370
    25
100
AcDbSpline
210
0.0
220
0.0
230
1.0
 70
     8
 71
     3
 72
     8
 73
     4
 74
     0
 42
0.000000001
 43
0.001
 12
1.0
 22
0.0
 32
0.0
 13
1.0
 23
0.0
 33
0.0
 40
0.0
 40
0.0
 40
0.0
 40
0.0
 40
1.0
 40
1.0
 40
1.0
 40
1.0
 10
109.0846029986246
 20
42.80024189850803
 30
0.0
 10
109.5421554986244
 20
42.91454189850822
 30
0.0
 10
109.8466029986246
 20
43.1558418985079
 30
0.0
 10
110.0244029986245
 20
43.36327564850819
 30
0.0
  0
LWPOLYLINE
  5
EA7
330
3201
100
AcDbEntity
  8
TEXT
 62
     5
420
      255
370
    25
100
AcDbPolyline
 90
        3
 70
     0
 43
0.0
 10
107.5242667486245
 20
43.36327564850819
 10
107.6339804986246
 20
43.36327564850819
 10
107.6339804986246
 20
40.38477314850809
  0
SPLINE
  5
EA9
330
3201
100
AcDbEntity
  8
TEXT
 62
     5
420
      255
370
    25
100
AcDbSpline
210
0.0
220
0.0
230
1.0
 70
     8
 71
     3
 72
     8
 73
     4
 74
     0
 42
0.000000001
 43
0.001
 12
1.0
 22
0.0
 32
0.0
 13
1.0
 23
0.0
 33
0.0
 40
0.0
 40
0.0
 40
0.0
 40
0.0
 40
1.0
 40
1.0
 40
1.0
 40
1.0
 10
114.5272579986245
 20
41.50978064850813
 30
0.0
 10
114.4383579986245
 20
40.70156689850808
 30
0.0
 10
113.7109304986245
 20
40.29587314850812
 30
0.0
 10
113.0127829986245
 20
40.29587314850812
 30
0.0
  0
SPLINE
  5
EAB
330
3201
100
AcDbEntity
  8
TEXT
 62
     5
420
      255
370
    25
100
AcDbSpline
210
0.0
220
0.0
230
1.0
 70
     8
 71
     3
 72
     8
 73
     4
 74
     0
 42
0.000000001
 43
0.001
 12
1.0
 22
0.0
 32
0.0
 13
1.0
 23
0.0
 33
0.0
 40
0.0
 40
0.0
 40
0.0
 40
0.0
 40
1.0
 40
1.0
 40
1.0
 40
1.0
 10
113.0127829986245
 20
40.29587314850812
 30
0.0
 10
112.1495354986246
 20
40.29587314850812
 30
0.0
 10
111.4471554986246
 20
40.87548689850803
 30
0.0
 10
111.4471554986246
 20
41.87384814850805
 30
0.0
  0
SPLINE
  5
EAD
330
3201
100
AcDbEntity
  8
TEXT
 62
     5
420
      255
370
    25
100
AcDbSpline
210
0.0
220
0.0
230
1.0
 70
     8
 71
     3
 72
     8
 73
     4
 74
     0
 42
0.000000001
 43
0.001
 12
1.0
 22
0.0
 32
0.0
 13
1.0
 23
0.0
 33
0.0
 40
0.0
 40
0.0
 40
0.0
 40
0.0
 40
1.0
 40
1.0
 40
1.0
 40
1.0
 10
111.4471554986246
 20
41.87384814850805
 30
0.0
 10
111.4471554986246
 20
42.87220939850806
 30
0.0
 10
112.1491829986246
 20
43.4518231485082
 30
0.0
 10
113.0127829986245
 20
43.4518231485082
 30
0.0
  0
SPLINE
  5
EAF
330
3201
100
AcDbEntity
  8
TEXT
 62
     5
420
      255
370
    25
100
AcDbSpline
210
0.0
220
0.0
230
1.0
 70
     8
 71
     3
 72
     8
 73
     4
 74
     0
 42
0.000000001
 43
0.001
 12
1.0
 22
0.0
 32
0.0
 13
1.0
 23
0.0
 33
0.0
 40
0.0
 40
0.0
 40
0.0
 40
0.0
 40
1.0
 40
1.0
 40
1.0
 40
1.0
 10
113.0127829986245
 20
43.4518231485082
 30
0.0
 10
113.7278629986245
 20
43.4518231485082
 30
0.0
 10
114.2947779986246
 20
43.160428148508
 30
0.0
 10
114.4556442486246
 20
42.50426189850816
 30
0.0
  0
LWPOLYLINE
  5
EB1
330
3201
100
AcDbEntity
  8
TEXT
 62
     5
420
      255
370
    25
100
AcDbPolyline
 90
        3
 70
     0
 43
0.0
 10
110.0244029986245
 20
43.36327564850819
 10
110.1341167486246
 20
43.36327564850819
 10
110.1341167486246
 20
40.38477314850809
  0
SPLINE
  5
EBA
330
3201
100
AcDbEntity
  8
TEXT
 62
     5
420
      255
370
    25
100
AcDbSpline
210
0.0
220
0.0
230
1.0
 70
     8
 71
     3
 72
     8
 73
     4
 74
     0
 42
0.000000001
 43
0.001
 12
1.0
 22
0.0
 32
0.0
 13
1.0
 23
0.0
 33
0.0
 40
0.0
 40
0.0
 40
0.0
 40
0.0
 40
1.0
 40
1.0
 40
1.0
 40
1.0
 10
210.9442467486244
 20
41.98638439850822
 30
0.0
 10
211.4017992486245
 20
42.10068439850795
 30
0.0
 10
211.7062467486246
 20
42.34198439850809
 30
0.0
 10
211.8840467486245
 20
42.54941689850796
 30
0.0
  0
SPLINE
  5
EBB
330
3201
100
AcDbEntity
  8
TEXT
 62
     5
420
      255
370
    25
100
AcDbSpline
210
0.0
220
0.0
230
1.0
 70
     8
 71
     3
 72
     8
 73
     4
 74
     0
 42
0.000000001
 43
0.001
 12
1.0
 22
0.0
 32
0.0
 13
1.0
 23
0.0
 33
0.0
 40
0.0
 40
0.0
 40
0.0
 40
0.0
 40
1.0
 40
1.0
 40
1.0
 40
1.0
 10
213.4443829986246
 20
41.98638439850822
 30
0.0
 10
213.9019354986244
 20
42.10068439850795
 30
0.0
 10
214.2063829986246
 20
42.34198439850809
 30
0.0
 10
214.3841829986245
 20
42.54941689850796
 30
0.0
  0
LWPOLYLINE
  5
EBC
330
3201
100
AcDbEntity
  8
TEXT
 62
     5
420
      255
370
    25
100
AcDbPolyline
 90
        3
 70
     0
 43
0.0
 10
211.8840467486245
 20
42.54941689850796
 10
211.9937604986246
 20
42.54941689850796
 10
211.9937604986246
 20
39.57091439850808
  0
SPLINE
  5
EBD
330
3201
100
AcDbEntity
  8
TEXT
 62
     5
420
      255
370
    25
100
AcDbSpline
210
0.0
220
0.0
230
1.0
 70
     8
 71
     3
 72
     8
 73
     4
 74
     0
 42
0.000000001
 43
0.001
 12
1.0
 22
0.0
 32
0.0
 13
1.0
 23
0.0
 33
0.0
 40
0.0
 40
0.0
 40
0.0
 40
0.0
 40
1.0
 40
1.0
 40
1.0
 40
1.0
 10
218.8873917486246
 20
40.69662814850801
 30
0.0
 10
218.7984917486244
 20
39.88770939850804
 30
0.0
 10
218.0710629986245
 20
39.48201439850811
 30
0.0
 10
217.3729167486244
 20
39.48201439850811
 30
0.0
  0
SPLINE
  5
EBE
330
3201
100
AcDbEntity
  8
TEXT
 62
     5
420
      255
370
    25
100
AcDbSpline
210
0.0
220
0.0
230
1.0
 70
     8
 71
     3
 72
     8
 73
     4
 74
     0
 42
0.000000001
 43
0.001
 12
1.0
 22
0.0
 32
0.0
 13
1.0
 23
0.0
 33
0.0
 40
0.0
 40
0.0
 40
0.0
 40
0.0
 40
1.0
 40
1.0
 40
1.0
 40
1.0
 10
217.3729167486244
 20
39.48201439850811
 30
0.0
 10
216.5096692486245
 20
39.48201439850811
 30
0.0
 10
215.8072879986246
 20
40.06233439850814
 30
0.0
 10
215.8072879986246
 20
41.06069439850819
 30
0.0
  0
SPLINE
  5
EBF
330
3201
100
AcDbEntity
  8
TEXT
 62
     5
420
      255
370
    25
100
AcDbSpline
210
0.0
220
0.0
230
1.0
 70
     8
 71
     3
 72
     8
 73
     4
 74
     0
 42
0.000000001
 43
0.001
 12
1.0
 22
0.0
 32
0.0
 13
1.0
 23
0.0
 33
0.0
 40
0.0
 40
0.0
 40
0.0
 40
0.0
 40
1.0
 40
1.0
 40
1.0
 40
1.0
 10
215.8072879986246
 20
41.06069439850819
 30
0.0
 10
215.8072879986246
 20
42.05905564850821
 30
0.0
 10
216.5093167486245
 20
42.63866939850811
 30
0.0
 10
217.3729167486244
 20
42.63866939850811
 30
0.0
  0
SPLINE
  5
EC0
330
3201
100
AcDbEntity
  8
TEXT
 62
     5
420
      255
370
    25
100
AcDbSpline
210
0.0
220
0.0
230
1.0
 70
     8
 71
     3
 72
     8
 73
     4
 74
     0
 42
0.000000001
 43
0.001
 12
1.0
 22
0.0
 32
0.0
 13
1.0
 23
0.0
 33
0.0
 40
0.0
 40
0.0
 40
0.0
 40
0.0
 40
1.0
 40
1.0
 40
1.0
 40
1.0
 10
217.3729167486244
 20
42.63866939850811
 30
0.0
 10
218.0879967486246
 20
42.63866939850811
 30
0.0
 10
218.6549104986245
 20
42.34727564850812
 30
0.0
 10
218.8157779986245
 20
41.69110939850805
 30
0.0
  0
LWPOLYLINE
  5
EC1
330
3201
100
AcDbEntity
  8
TEXT
 62
     5
420
      255
370
    25
100
AcDbPolyline
 90
        3
 70
     0
 43
0.0
 10
214.3841829986245
 20
42.54941689850796
 10
214.4938967486246
 20
42.54941689850796
 10
214.4938967486246
 20
39.57091439850808
  0
LWPOLYLINE
  5
11E3
330
3201
100
AcDbEntity
  8
TEXT
 62
     5
420
      255
370
    25
100
AcDbPolyline
 90
        4
 70
     0
 43
0.0
 10
253.2409118749993
 20
109.5268785937498
 10
251.8534368749993
 20
106.50533734375
 10
251.7430168749993
 20
106.50533734375
 10
250.3551893750005
 20
109.5268785937498
  0
LWPOLYLINE
  5
11E8
330
3201
100
AcDbEntity
  8
TEXT
 62
     5
420
      255
370
    25
100
AcDbPolyline
 90
        2
 70
     0
 43
0.0
 10
250.8148593749993
 20
108.5281648437499
 10
252.7897093749994
 20
108.5281648437499
  0
SPLINE
  5
11EE
330
3201
100
AcDbEntity
  8
TEXT
 62
     5
420
      255
370
    25
100
AcDbSpline
210
0.0
220
0.0
230
1.0
 70
     8
 71
     3
 72
     8
 73
     4
 74
     0
 42
0.000000001
 43
0.001
 12
1.0
 22
0.0
 32
0.0
 13
1.0
 23
0.0
 33
0.0
 40
0.0
 40
0.0
 40
0.0
 40
0.0
 40
1.0
 40
1.0
 40
1.0
 40
1.0
 10
255.4136706250006
 20
107.1449235937501
 30
0.0
 10
254.9564706249994
 20
107.0302710937499
 30
0.0
 10
254.6516706250005
 20
106.78897109375
 30
0.0
 10
254.4738706250005
 20
106.5818898437499
 30
0.0
  0
SPLINE
  5
11EF
330
3201
100
AcDbEntity
  8
TEXT
 62
     5
420
      255
370
    25
100
AcDbSpline
210
0.0
220
0.0
230
1.0
 70
     8
 71
     3
 72
     8
 73
     4
 74
     0
 42
0.000000001
 43
0.001
 12
1.0
 22
0.0
 32
0.0
 13
1.0
 23
0.0
 33
0.0
 40
0.0
 40
0.0
 40
0.0
 40
0.0
 40
1.0
 40
1.0
 40
1.0
 40
1.0
 10
257.9138056250004
 20
107.1449235937501
 30
0.0
 10
257.4562531249995
 20
107.0302710937499
 30
0.0
 10
257.1518056249993
 20
106.78897109375
 30
0.0
 10
256.9740056249994
 20
106.5818898437499
 30
0.0
  0
LWPOLYLINE
  5
11F0
330
3201
100
AcDbEntity
  8
TEXT
 62
     5
420
      255
370
    25
100
AcDbPolyline
 90
        3
 70
     0
 43
0.0
 10
254.4738706250005
 20
106.5818898437499
 10
254.3645093750006
 20
106.5818898437499
 10
254.3645093750006
 20
109.5596873437499
  0
LWPOLYLINE
  5
11F2
330
3201
100
AcDbEntity
  8
TEXT
 62
     5
420
      255
370
    25
100
AcDbPolyline
 90
        3
 70
     0
 43
0.0
 10
256.9740056249994
 20
106.5818898437499
 10
256.8646456249995
 20
106.5818898437499
 10
256.8646456249995
 20
109.5596873437499
  0
SPLINE
  5
16CE
330
3201
100
AcDbEntity
  8
TEXT
 62
     5
420
      255
370
    25
100
AcDbSpline
210
0.0
220
0.0
230
1.0
 70
     8
 71
     3
 72
     8
 73
     4
 74
     0
 42
0.000000001
 43
0.001
 12
1.0
 22
0.0
 32
0.0
 13
1.0
 23
0.0
 33
0.0
 40
0.0
 40
0.0
 40
0.0
 40
0.0
 40
1.0
 40
1.0
 40
1.0
 40
1.0
 10
208.8794392486241
 20
114.3899574999999
 30
0.0
 10
208.8794392486241
 20
113.91159125
 30
0.0
 10
208.6215579986251
 20
113.57751
 30
0.0
 10
208.130491748625
 20
113.57751
 30
0.0
  0
SPLINE
  5
16CF
330
3201
100
AcDbEntity
  8
TEXT
 62
     5
420
      255
370
    25
100
AcDbSpline
210
0.0
220
0.0
230
1.0
 70
     8
 71
     3
 72
     8
 73
     4
 74
     0
 42
0.000000001
 43
0.001
 12
1.0
 22
0.0
 32
0.0
 13
1.0
 23
0.0
 33
0.0
 40
0.0
 40
0.0
 40
0.0
 40
0.0
 40
1.0
 40
1.0
 40
1.0
 40
1.0
 10
208.130491748625
 20
113.57751
 30
0.0
 10
207.7748917486251
 20
113.57751
 30
0.0
 10
207.4365779986251
 20
113.8911299999999
 30
0.0
 10
207.445044248625
 20
114.2463775
 30
0.0
  0
LWPOLYLINE
  5
16D0
330
3201
100
AcDbEntity
  8
TEXT
 62
     5
420
      255
370
    25
100
AcDbPolyline
 90
        2
 70
     0
 43
0.0
 10
208.8794392486241
 20
116.031785
 10
208.8794392486241
 20
114.3899574999999
  0
SPLINE
  5
16D1
330
3201
100
AcDbEntity
  8
TEXT
 62
     5
420
      255
370
    25
100
AcDbSpline
210
0.0
220
0.0
230
1.0
 70
     8
 71
     3
 72
     8
 73
     4
 74
     0
 42
0.000000001
 43
0.001
 12
1.0
 22
0.0
 32
0.0
 13
1.0
 23
0.0
 33
0.0
 40
0.0
 40
0.0
 40
0.0
 40
0.0
 40
1.0
 40
1.0
 40
1.0
 40
1.0
 10
207.436930498624
 20
114.2463775
 30
0.0
 10
207.419996748624
 20
113.852325
 30
0.0
 10
207.2086829986251
 20
113.4843774999998
 30
0.0
 10
206.679869248625
 20
113.4843774999998
 30
0.0
  0
SPLINE
  5
16D2
330
3201
100
AcDbEntity
  8
TEXT
 62
     5
420
      255
370
    25
100
AcDbSpline
210
0.0
220
0.0
230
1.0
 70
     8
 71
     3
 72
     8
 73
     4
 74
     0
 42
0.000000001
 43
0.001
 12
1.0
 22
0.0
 32
0.0
 13
1.0
 23
0.0
 33
0.0
 40
0.0
 40
0.0
 40
0.0
 40
0.0
 40
1.0
 40
1.0
 40
1.0
 40
1.0
 10
206.679869248625
 20
113.4843774999998
 30
0.0
 10
206.328502998625
 20
113.4843774999998
 30
0.0
 10
205.8589554986249
 20
113.70909625
 30
0.0
 10
205.8589554986249
 20
114.5000249999999
 30
0.0
  0
LWPOLYLINE
  5
16D3
330
3201
100
AcDbEntity
  8
TEXT
 62
     5
420
      255
370
    25
100
AcDbPolyline
 90
        2
 70
     0
 43
0.0
 10
207.445044248625
 20
114.2463775
 10
207.436930498624
 20
114.2463775
  0
LWPOLYLINE
  5
16D4
330
3201
100
AcDbEntity
  8
TEXT
 62
     5
420
      255
370
    25
100
AcDbPolyline
 90
        4
 70
     0
 43
0.0
 10
205.8589554986249
 20
114.5000249999999
 10
205.8589554986249
 20
116.031785
 10
208.8794392486241
 20
116.031785
 10
208.8794392486241
 20
116.031785
  0
LWPOLYLINE
  5
16D5
330
3201
100
AcDbEntity
  8
TEXT
 62
     5
420
      255
370
    25
100
AcDbPolyline
 90
        2
 70
     0
 43
0.0
 10
207.4408104986251
 20
114.2463775
 10
207.4443392486251
 20
116.031785
  0
SPLINE
  5
16FB
330
3201
100
AcDbEntity
  8
TEXT
 62
     5
420
      255
370
    25
100
AcDbSpline
210
0.0
220
0.0
230
1.0
 70
     8
 71
     3
 72
     8
 73
     4
 74
     0
 42
0.000000001
 43
0.001
 12
1.0
 22
0.0
 32
0.0
 13
1.0
 23
0.0
 33
0.0
 40
0.0
 40
0.0
 40
0.0
 40
0.0
 40
1.0
 40
1.0
 40
1.0
 40
1.0
 10
81.76020049862404
 20
107.1654212500001
 30
0.0
 10
81.64625299862405
 20
107.6229750000001
 30
0.0
 10
81.40495299862505
 20
107.9274212499998
 30
0.0
 10
81.19716674862502
 20
108.10522125
 30
0.0
  0
SPLINE
  5
16FF
330
3201
100
AcDbEntity
  8
TEXT
 62
     5
420
      255
370
    25
100
AcDbSpline
210
0.0
220
0.0
230
1.0
 70
     8
 71
     3
 72
     8
 73
     4
 74
     0
 42
0.000000001
 43
0.001
 12
1.0
 22
0.0
 32
0.0
 13
1.0
 23
0.0
 33
0.0
 40
0.0
 40
0.0
 40
0.0
 40
0.0
 40
1.0
 40
1.0
 40
1.0
 40
1.0
 10
81.76020049862404
 20
109.6659100000001
 30
0.0
 10
81.64625299862405
 20
110.12346375
 30
0.0
 10
81.40495299862505
 20
110.4282637499999
 30
0.0
 10
81.19716674862502
 20
110.6060637499999
 30
0.0
  0
LWPOLYLINE
  5
1701
330
3201
100
AcDbEntity
  8
TEXT
 62
     5
420
      255
370
    25
100
AcDbPolyline
 90
        3
 70
     0
 43
0.0
 10
81.19716674862502
 20
108.10522125
 10
81.19716674862502
 20
108.2149349999999
 10
84.17566924862513
 20
108.2149349999999
  0
LWPOLYLINE
  5
1703
330
3201
100
AcDbEntity
  8
TEXT
 62
     5
420
      255
370
    25
100
AcDbPolyline
 90
        3
 70
     0
 43
0.0
 10
81.19716674862502
 20
110.6060637499999
 10
81.19716674862502
 20
110.7157774999999
 10
84.17566924862513
 20
110.7157774999999
  0
SPLINE
  5
1705
330
3201
100
AcDbEntity
  8
TEXT
 62
     5
420
      255
370
    25
100
AcDbSpline
210
0.0
220
0.0
230
1.0
 70
     8
 71
     3
 72
     8
 73
     4
 74
     0
 42
0.000000001
 43
0.001
 12
1.0
 22
0.0
 32
0.0
 13
1.0
 23
0.0
 33
0.0
 40
0.0
 40
0.0
 40
0.0
 40
0.0
 40
1.0
 40
1.0
 40
1.0
 40
1.0
 10
81.17600049862403
 20
113.7415525
 30
0.0
 10
81.17600049862403
 20
114.2199187499999
 30
0.0
 10
81.43388049862506
 20
114.554
 30
0.0
 10
81.92494674862405
 20
114.554
 30
0.0
  0
SPLINE
  5
1707
330
3201
100
AcDbEntity
  8
TEXT
 62
     5
420
      255
370
    25
100
AcDbSpline
210
0.0
220
0.0
230
1.0
 70
     8
 71
     3
 72
     8
 73
     4
 74
     0
 42
0.000000001
 43
0.001
 12
1.0
 22
0.0
 32
0.0
 13
1.0
 23
0.0
 33
0.0
 40
0.0
 40
0.0
 40
0.0
 40
0.0
 40
1.0
 40
1.0
 40
1.0
 40
1.0
 10
81.92494674862405
 20
114.554
 30
0.0
 10
82.28019424862396
 20
114.554
 30
0.0
 10
82.61850799862395
 20
114.2403800000001
 30
0.0
 10
82.61039424862406
 20
113.8851324999999
 30
0.0
  0
LWPOLYLINE
  5
1709
330
3201
100
AcDbEntity
  8
TEXT
 62
     5
420
      255
370
    25
100
AcDbPolyline
 90
        2
 70
     0
 43
0.0
 10
81.17600049862403
 20
112.0997249999999
 10
81.17600049862403
 20
113.7415525
  0
SPLINE
  5
170A
330
3201
100
AcDbEntity
  8
TEXT
 62
     5
420
      255
370
    25
100
AcDbSpline
210
0.0
220
0.0
230
1.0
 70
     8
 71
     3
 72
     8
 73
     4
 74
     0
 42
0.000000001
 43
0.001
 12
1.0
 22
0.0
 32
0.0
 13
1.0
 23
0.0
 33
0.0
 40
0.0
 40
0.0
 40
0.0
 40
0.0
 40
1.0
 40
1.0
 40
1.0
 40
1.0
 10
82.61850799862395
 20
113.8851324999999
 30
0.0
 10
82.635441748625
 20
114.279185
 30
0.0
 10
82.8471079986241
 20
114.6471325000001
 30
0.0
 10
83.37592174862402
 20
114.6471325000001
 30
0.0
  0
SPLINE
  5
170B
330
3201
100
AcDbEntity
  8
TEXT
 62
     5
420
      255
370
    25
100
AcDbSpline
210
0.0
220
0.0
230
1.0
 70
     8
 71
     3
 72
     8
 73
     4
 74
     0
 42
0.000000001
 43
0.001
 12
1.0
 22
0.0
 32
0.0
 13
1.0
 23
0.0
 33
0.0
 40
0.0
 40
0.0
 40
0.0
 40
0.0
 40
1.0
 40
1.0
 40
1.0
 40
1.0
 10
83.37592174862402
 20
114.6471325000001
 30
0.0
 10
83.72728924862395
 20
114.6471325000001
 30
0.0
 10
84.19683549862407
 20
114.4224137499999
 30
0.0
 10
84.19683549862407
 20
113.6318387499999
 30
0.0
  0
LWPOLYLINE
  5
170C
330
3201
100
AcDbEntity
  8
TEXT
 62
     5
420
      255
370
    25
100
AcDbPolyline
 90
        2
 70
     0
 43
0.0
 10
82.61039424862406
 20
113.8851324999999
 10
82.61850799862395
 20
113.8851324999999
  0
LWPOLYLINE
  5
170D
330
3201
100
AcDbEntity
  8
TEXT
 62
     5
420
      255
370
    25
100
AcDbPolyline
 90
        4
 70
     0
 43
0.0
 10
84.19683549862407
 20
113.6318387499999
 10
84.19683549862407
 20
112.1000775000001
 10
81.17600049862403
 20
112.1000775000001
 10
81.17600049862403
 20
112.0997249999999
  0
LWPOLYLINE
  5
170E
330
3201
100
AcDbEntity
  8
TEXT
 62
     5
420
      255
370
    25
100
AcDbPolyline
 90
        2
 70
     0
 43
0.0
 10
82.61462799862397
 20
113.88478
 10
82.61110049862395
 20
112.0993712499998
  0
SPLINE
  5
175E
330
3201
100
AcDbEntity
  8
TEXT
 62
     5
420
      255
370
    25
100
AcDbSpline
210
0.0
220
0.0
230
1.0
 70
     8
 71
     3
 72
     8
 73
     4
 74
     0
 42
0.000000001
 43
0.001
 12
1.0
 22
0.0
 32
0.0
 13
1.0
 23
0.0
 33
0.0
 40
0.0
 40
0.0
 40
0.0
 40
0.0
 40
1.0
 40
1.0
 40
1.0
 40
1.0
 10
208.295591748624
 20
120.9660887499998
 30
0.0
 10
208.4095392486249
 20
120.5081825000001
 30
0.0
 10
208.6508392486251
 20
120.2037349999999
 30
0.0
 10
208.8586254986251
 20
120.025935
 30
0.0
  0
SPLINE
  5
1760
330
3201
100
AcDbEntity
  8
TEXT
 62
     5
420
      255
370
    25
100
AcDbSpline
210
0.0
220
0.0
230
1.0
 70
     8
 71
     3
 72
     8
 73
     4
 74
     0
 42
0.000000001
 43
0.001
 12
1.0
 22
0.0
 32
0.0
 13
1.0
 23
0.0
 33
0.0
 40
0.0
 40
0.0
 40
0.0
 40
0.0
 40
1.0
 40
1.0
 40
1.0
 40
1.0
 10
208.295591748624
 20
118.4655999999999
 30
0.0
 10
208.4095392486249
 20
118.0080462499999
 30
0.0
 10
208.6508392486251
 20
117.70324625
 30
0.0
 10
208.8586254986251
 20
117.5258
 30
0.0
  0
LWPOLYLINE
  5
1761
330
3201
100
AcDbEntity
  8
TEXT
 62
     5
420
      255
370
    25
100
AcDbPolyline
 90
        3
 70
     0
 43
0.0
 10
208.8586254986251
 20
120.025935
 10
208.8586254986251
 20
119.9165750000001
 10
205.880121748625
 20
119.9165750000001
  0
LWPOLYLINE
  5
1762
330
3201
100
AcDbEntity
  8
TEXT
 62
     5
420
      255
370
    25
100
AcDbPolyline
 90
        3
 70
     0
 43
0.0
 10
208.8586254986251
 20
117.5258
 10
208.8586254986251
 20
117.4157325
 10
205.880121748625
 20
117.4157325
  0
LWPOLYLINE
  5
19B7
330
3201
100
AcDbEntity
  8
TEXT
 62
     5
420
      255
370
    25
100
AcDbPolyline
 90
        4
 70
     0
 43
0.0
 10
209.4840408188817
 20
220.6639779989797
 10
211.8617633188816
 20
220.6639779989797
 10
211.8617633188816
 20
217.6427892489796
 10
209.5094408188817
 20
217.6427892489796
  0
LWPOLYLINE
  5
19B9
330
3201
100
AcDbEntity
  8
TEXT
 62
     5
420
      255
370
    25
100
AcDbPolyline
 90
        2
 70
     0
 43
0.0
 10
233.6789520688816
 20
215.1772254989796
 10
232.9772770688816
 20
215.1772254989796
  0
LWPOLYLINE
  5
19BB
330
3201
100
AcDbEntity
  8
TEXT
 62
     5
420
      255
370
    25
100
AcDbPolyline
 90
        2
 70
     0
 43
0.0
 10
225.2807233188815
 20
216.4278229989798
 10
225.2807233188815
 20
213.8102117489798
  0
LWPOLYLINE
  5
19BD
330
3201
100
AcDbEntity
  8
TEXT
 62
     5
420
      255
370
    25
100
AcDbPolyline
 90
        2
 70
     0
 43
0.0
 10
226.4166683188815
 20
213.8102117489798
 10
224.1578320688815
 20
213.8102117489798
  0
SPLINE
  5
19BF
330
3201
100
AcDbEntity
  8
TEXT
 62
     5
420
      255
370
    25
100
AcDbSpline
210
0.0
220
0.0
230
1.0
 70
     8
 71
     3
 72
     8
 73
     4
 74
     0
 42
0.000000001
 43
0.001
 12
1.0
 22
0.0
 32
0.0
 13
1.0
 23
0.0
 33
0.0
 40
0.0
 40
0.0
 40
0.0
 40
0.0
 40
1.0
 40
1.0
 40
1.0
 40
1.0
 10
219.7085983188816
 20
213.8102117489798
 30
0.0
 10
219.1843708188816
 20
213.8102117489798
 30
0.0
 10
218.9864633188816
 20
214.0592729989796
 30
0.0
 10
218.9864633188816
 20
214.5249392489798
 30
0.0
  0
SPLINE
  5
19C0
330
3201
100
AcDbEntity
  8
TEXT
 62
     5
420
      255
370
    25
100
AcDbSpline
210
0.0
220
0.0
230
1.0
 70
     8
 71
     3
 72
     8
 73
     4
 74
     0
 42
0.000000001
 43
0.001
 12
1.0
 22
0.0
 32
0.0
 13
1.0
 23
0.0
 33
0.0
 40
0.0
 40
0.0
 40
0.0
 40
0.0
 40
1.0
 40
1.0
 40
1.0
 40
1.0
 10
218.9864633188816
 20
214.5249392489798
 30
0.0
 10
218.9864633188816
 20
214.7740004989797
 30
0.0
 10
219.1554433188816
 20
215.1225454989798
 30
0.0
 10
219.6094683188816
 20
215.1482979989797
 30
0.0
  0
LWPOLYLINE
  5
19C1
330
3201
100
AcDbEntity
  8
TEXT
 62
     5
420
      255
370
    25
100
AcDbPolyline
 90
        3
 70
     0
 43
0.0
 10
221.1489908188815
 20
216.4278229989798
 10
221.1489908188815
 20
213.8102117489798
 10
219.7085983188816
 20
213.8102117489798
  0
SPLINE
  5
19C2
330
3201
100
AcDbEntity
  8
TEXT
 62
     5
420
      255
370
    25
100
AcDbSpline
210
0.0
220
0.0
230
1.0
 70
     8
 71
     3
 72
     8
 73
     4
 74
     0
 42
0.000000001
 43
0.001
 12
1.0
 22
0.0
 32
0.0
 13
1.0
 23
0.0
 33
0.0
 40
0.0
 40
0.0
 40
0.0
 40
0.0
 40
1.0
 40
1.0
 40
1.0
 40
1.0
 10
219.6129958188816
 20
215.1557054989797
 30
0.0
 10
219.2104770688817
 20
215.1595867489797
 30
0.0
 10
219.0340883188816
 20
215.3462054989798
 30
0.0
 10
219.0340883188816
 20
215.7056867489797
 30
0.0
  0
SPLINE
  5
19C3
330
3201
100
AcDbEntity
  8
TEXT
 62
     5
420
      255
370
    25
100
AcDbSpline
210
0.0
220
0.0
230
1.0
 70
     8
 71
     3
 72
     8
 73
     4
 74
     0
 42
0.000000001
 43
0.001
 12
1.0
 22
0.0
 32
0.0
 13
1.0
 23
0.0
 33
0.0
 40
0.0
 40
0.0
 40
0.0
 40
0.0
 40
1.0
 40
1.0
 40
1.0
 40
1.0
 10
219.0340883188816
 20
215.7056867489797
 30
0.0
 10
219.0340883188816
 20
215.8012892489796
 30
0.0
 10
219.0270320688816
 20
216.3216367489797
 30
0.0
 10
218.9755270688817
 20
216.4281754989797
 30
0.0
  0
SPLINE
  5
19C4
330
3201
100
AcDbEntity
  8
TEXT
 62
     5
420
      255
370
    25
100
AcDbSpline
210
0.0
220
0.0
230
1.0
 70
     8
 71
     3
 72
     8
 73
     4
 74
     0
 42
0.000000001
 43
0.001
 12
1.0
 22
0.0
 32
0.0
 13
1.0
 23
0.0
 33
0.0
 40
0.0
 40
0.0
 40
0.0
 40
0.0
 40
1.0
 40
1.0
 40
1.0
 40
1.0
 10
222.8454983188816
 20
213.8102117489798
 30
0.0
 10
222.0976095688815
 20
213.8102117489798
 30
0.0
 10
221.4887158188816
 20
214.3122142489797
 30
0.0
 10
221.4887158188816
 20
215.1772254989796
 30
0.0
  0
SPLINE
  5
19C5
330
3201
100
AcDbEntity
  8
TEXT
 62
     5
420
      255
370
    25
100
AcDbSpline
210
0.0
220
0.0
230
1.0
 70
     8
 71
     3
 72
     8
 73
     4
 74
     0
 42
0.000000001
 43
0.001
 12
1.0
 22
0.0
 32
0.0
 13
1.0
 23
0.0
 33
0.0
 40
0.0
 40
0.0
 40
0.0
 40
0.0
 40
1.0
 40
1.0
 40
1.0
 40
1.0
 10
221.4887158188816
 20
215.1772254989796
 30
0.0
 10
221.4887158188816
 20
216.0422367489797
 30
0.0
 10
222.0976095688815
 20
216.5442392489797
 30
0.0
 10
222.8454983188816
 20
216.5442392489797
 30
0.0
  0
SPLINE
  5
19C6
330
3201
100
AcDbEntity
  8
TEXT
 62
     5
420
      255
370
    25
100
AcDbSpline
210
0.0
220
0.0
230
1.0
 70
     8
 71
     3
 72
     8
 73
     4
 74
     0
 42
0.000000001
 43
0.001
 12
1.0
 22
0.0
 32
0.0
 13
1.0
 23
0.0
 33
0.0
 40
0.0
 40
0.0
 40
0.0
 40
0.0
 40
1.0
 40
1.0
 40
1.0
 40
1.0
 10
222.8454983188816
 20
216.5442392489797
 30
0.0
 10
223.5930345688815
 20
216.5442392489797
 30
0.0
 10
224.2015770688816
 20
216.0422367489797
 30
0.0
 10
224.2015770688816
 20
215.1772254989796
 30
0.0
  0
SPLINE
  5
19C7
330
3201
100
AcDbEntity
  8
TEXT
 62
     5
420
      255
370
    25
100
AcDbSpline
210
0.0
220
0.0
230
1.0
 70
     8
 71
     3
 72
     8
 73
     4
 74
     0
 42
0.000000001
 43
0.001
 12
1.0
 22
0.0
 32
0.0
 13
1.0
 23
0.0
 33
0.0
 40
0.0
 40
0.0
 40
0.0
 40
0.0
 40
1.0
 40
1.0
 40
1.0
 40
1.0
 10
224.2015770688816
 20
215.1772254989796
 30
0.0
 10
224.2015770688816
 20
214.3122142489797
 30
0.0
 10
223.5930345688815
 20
213.8102117489798
 30
0.0
 10
222.8454983188816
 20
213.8102117489798
 30
0.0
  0
LWPOLYLINE
  5
19C8
330
3201
100
AcDbEntity
  8
TEXT
 62
     5
420
      255
370
    25
100
AcDbPolyline
 90
        3
 70
     0
 43
0.0
 10
219.6094683188816
 20
215.1482979989797
 10
219.6129958188816
 20
215.1557054989797
 10
221.1489908188815
 20
215.1602917489797
  0
SPLINE
  5
19C9
330
3201
100
AcDbEntity
  8
TEXT
 62
     5
420
      255
370
    25
100
AcDbSpline
210
0.0
220
0.0
230
1.0
 70
     8
 71
     3
 72
     8
 73
     4
 74
     0
 42
0.000000001
 43
0.001
 12
1.0
 22
0.0
 32
0.0
 13
1.0
 23
0.0
 33
0.0
 40
0.0
 40
0.0
 40
0.0
 40
0.0
 40
1.0
 40
1.0
 40
1.0
 40
1.0
 10
227.7730983188816
 20
213.8102117489798
 30
0.0
 10
227.0252095688817
 20
213.8102117489798
 30
0.0
 10
226.4166683188815
 20
214.3122142489797
 30
0.0
 10
226.4166683188815
 20
215.1772254989796
 30
0.0
  0
SPLINE
  5
19CA
330
3201
100
AcDbEntity
  8
TEXT
 62
     5
420
      255
370
    25
100
AcDbSpline
210
0.0
220
0.0
230
1.0
 70
     8
 71
     3
 72
     8
 73
     4
 74
     0
 42
0.000000001
 43
0.001
 12
1.0
 22
0.0
 32
0.0
 13
1.0
 23
0.0
 33
0.0
 40
0.0
 40
0.0
 40
0.0
 40
0.0
 40
1.0
 40
1.0
 40
1.0
 40
1.0
 10
226.4166683188815
 20
215.1772254989796
 30
0.0
 10
226.4166683188815
 20
216.0422367489797
 30
0.0
 10
227.0252095688817
 20
216.5445917489797
 30
0.0
 10
227.7730983188816
 20
216.5445917489797
 30
0.0
  0
SPLINE
  5
19CB
330
3201
100
AcDbEntity
  8
TEXT
 62
     5
420
      255
370
    25
100
AcDbSpline
210
0.0
220
0.0
230
1.0
 70
     8
 71
     3
 72
     8
 73
     4
 74
     0
 42
0.000000001
 43
0.001
 12
1.0
 22
0.0
 32
0.0
 13
1.0
 23
0.0
 33
0.0
 40
0.0
 40
0.0
 40
0.0
 40
0.0
 40
1.0
 40
1.0
 40
1.0
 40
1.0
 10
227.7730983188816
 20
216.5445917489797
 30
0.0
 10
228.5209883188817
 20
216.5445917489797
 30
0.0
 10
229.1291770688816
 20
216.0422367489797
 30
0.0
 10
229.1291770688816
 20
215.1772254989796
 30
0.0
  0
SPLINE
  5
19CC
330
3201
100
AcDbEntity
  8
TEXT
 62
     5
420
      255
370
    25
100
AcDbSpline
210
0.0
220
0.0
230
1.0
 70
     8
 71
     3
 72
     8
 73
     4
 74
     0
 42
0.000000001
 43
0.001
 12
1.0
 22
0.0
 32
0.0
 13
1.0
 23
0.0
 33
0.0
 40
0.0
 40
0.0
 40
0.0
 40
0.0
 40
1.0
 40
1.0
 40
1.0
 40
1.0
 10
229.1291770688816
 20
215.1772254989796
 30
0.0
 10
229.1291770688816
 20
214.3122142489797
 30
0.0
 10
228.5209883188817
 20
213.8102117489798
 30
0.0
 10
227.7730983188816
 20
213.8102117489798
 30
0.0
  0
LWPOLYLINE
  5
19CD
330
3201
100
AcDbEntity
  8
TEXT
 62
     5
420
      255
370
    25
100
AcDbPolyline
 90
        8
 70
     0
 43
0.0
 10
232.4438770688815
 20
216.4278229989798
 10
232.4438770688815
 20
213.8102117489798
 10
232.3225208188816
 20
213.8102117489798
 10
230.9480983188815
 20
216.3540917489797
 10
230.9406908188815
 20
216.3540917489797
 10
229.5733233188815
 20
213.8102117489798
 10
229.4526733188815
 20
213.8102117489798
 10
229.4526733188815
 20
216.4278229989798
  0
LWPOLYLINE
  5
19CE
330
3201
100
AcDbEntity
  8
TEXT
 62
     5
420
      255
370
    25
100
AcDbPolyline
 90
        2
 70
     0
 43
0.0
 10
236.2080158188816
 20
215.0234142489796
 10
234.1664908188815
 20
215.0234142489796
  0
SPLINE
  5
19CF
330
3201
100
AcDbEntity
  8
TEXT
 62
     5
420
      255
370
    25
100
AcDbSpline
210
0.0
220
0.0
230
1.0
 70
     8
 71
     3
 72
     8
 73
     4
 74
     0
 42
0.000000001
 43
0.001
 12
1.0
 22
0.0
 32
0.0
 13
1.0
 23
0.0
 33
0.0
 40
0.0
 40
0.0
 40
0.0
 40
0.0
 40
1.0
 40
1.0
 40
1.0
 40
1.0
 10
234.2208183188815
 20
202.6469117489796
 30
0.0
 10
233.7632658188817
 20
202.5326117489798
 30
0.0
 10
233.4588183188806
 20
202.2913117489798
 30
0.0
 10
233.2810183188816
 20
202.0838779989797
 30
0.0
  0
LWPOLYLINE
  5
19D0
330
3201
100
AcDbEntity
  8
TEXT
 62
     5
420
      255
370
    25
100
AcDbPolyline
 90
        4
 70
     0
 43
0.0
 10
234.0557183188815
 20
216.4860304989798
 10
236.2080158188816
 20
216.4860304989798
 10
236.2080158188816
 20
213.7516504989796
 10
234.0782958188817
 20
213.7516504989796
  0
SPLINE
  5
19D1
330
3201
100
AcDbEntity
  8
TEXT
 62
     5
420
      255
370
    25
100
AcDbSpline
210
0.0
220
0.0
230
1.0
 70
     8
 71
     3
 72
     8
 73
     4
 74
     0
 42
0.000000001
 43
0.001
 12
1.0
 22
0.0
 32
0.0
 13
1.0
 23
0.0
 33
0.0
 40
0.0
 40
0.0
 40
0.0
 40
0.0
 40
1.0
 40
1.0
 40
1.0
 40
1.0
 10
231.2317320688816
 20
202.0161454989798
 30
0.0
 10
230.3007520688815
 20
202.0161454989798
 30
0.0
 10
229.9666708188817
 20
202.7354592489796
 30
0.0
 10
229.9666708188817
 20
203.5733054989797
 30
0.0
  0
SPLINE
  5
19D2
330
3201
100
AcDbEntity
  8
TEXT
 62
     5
420
      255
370
    25
100
AcDbSpline
210
0.0
220
0.0
230
1.0
 70
     8
 71
     3
 72
     8
 73
     4
 74
     0
 42
0.000000001
 43
0.001
 12
1.0
 22
0.0
 32
0.0
 13
1.0
 23
0.0
 33
0.0
 40
0.0
 40
0.0
 40
0.0
 40
0.0
 40
1.0
 40
1.0
 40
1.0
 40
1.0
 10
229.9666708188817
 20
203.5733054989797
 30
0.0
 10
229.9666708188817
 20
204.4111529989797
 30
0.0
 10
230.3007520688815
 20
205.1297617489797
 30
0.0
 10
231.2317320688816
 20
205.1297617489797
 30
0.0
  0
SPLINE
  5
19D4
330
3201
100
AcDbEntity
  8
TEXT
 62
     5
420
      255
370
    25
100
AcDbSpline
210
0.0
220
0.0
230
1.0
 70
     8
 71
     3
 72
     8
 73
     4
 74
     0
 42
0.000000001
 43
0.001
 12
1.0
 22
0.0
 32
0.0
 13
1.0
 23
0.0
 33
0.0
 40
0.0
 40
0.0
 40
0.0
 40
0.0
 40
1.0
 40
1.0
 40
1.0
 40
1.0
 10
231.2317320688816
 20
205.1297617489797
 30
0.0
 10
232.1627133188816
 20
205.1297617489797
 30
0.0
 10
232.4967933188815
 20
204.4111529989797
 30
0.0
 10
232.4967933188815
 20
203.5733054989797
 30
0.0
  0
SPLINE
  5
19D5
330
3201
100
AcDbEntity
  8
TEXT
 62
     5
420
      255
370
    25
100
AcDbSpline
210
0.0
220
0.0
230
1.0
 70
     8
 71
     3
 72
     8
 73
     4
 74
     0
 42
0.000000001
 43
0.001
 12
1.0
 22
0.0
 32
0.0
 13
1.0
 23
0.0
 33
0.0
 40
0.0
 40
0.0
 40
0.0
 40
0.0
 40
1.0
 40
1.0
 40
1.0
 40
1.0
 10
232.4967933188815
 20
203.5733054989797
 30
0.0
 10
232.4967933188815
 20
202.7354592489796
 30
0.0
 10
232.1627133188816
 20
202.0161454989798
 30
0.0
 10
231.2317320688816
 20
202.0161454989798
 30
0.0
  0
LWPOLYLINE
  5
19D6
330
3201
100
AcDbEntity
  8
TEXT
 62
     5
420
      255
370
    25
100
AcDbPolyline
 90
        3
 70
     0
 43
0.0
 10
233.2810183188816
 20
202.0838779989797
 10
233.1713045688815
 20
202.0838779989797
 10
233.1713045688815
 20
205.0623804989797
  0
SPLINE
  5
19D7
330
3201
100
AcDbEntity
  8
TEXT
 62
     5
420
      255
370
    25
100
AcDbSpline
210
0.0
220
0.0
230
1.0
 70
     8
 71
     3
 72
     8
 73
     4
 74
     0
 42
0.000000001
 43
0.001
 12
1.0
 22
0.0
 32
0.0
 13
1.0
 23
0.0
 33
0.0
 40
0.0
 40
0.0
 40
0.0
 40
0.0
 40
1.0
 40
1.0
 40
1.0
 40
1.0
 10
96.74014331888122
 20
235.4312554989797
 30
0.0
 10
96.82904331888119
 20
236.2394704989797
 30
0.0
 10
97.55647081888128
 20
236.6451642489797
 30
0.0
 10
98.25461831888117
 20
236.6451642489797
 30
0.0
  0
SPLINE
  5
19D8
330
3201
100
AcDbEntity
  8
TEXT
 62
     5
420
      255
370
    25
100
AcDbSpline
210
0.0
220
0.0
230
1.0
 70
     8
 71
     3
 72
     8
 73
     4
 74
     0
 42
0.000000001
 43
0.001
 12
1.0
 22
0.0
 32
0.0
 13
1.0
 23
0.0
 33
0.0
 40
0.0
 40
0.0
 40
0.0
 40
0.0
 40
1.0
 40
1.0
 40
1.0
 40
1.0
 10
98.25461831888117
 20
236.6451642489797
 30
0.0
 10
99.11786581888111
 20
236.6451642489797
 30
0.0
 10
99.8198933188811
 20
236.0655504989797
 30
0.0
 10
99.8198933188811
 20
235.0671892489797
 30
0.0
  0
SPLINE
  5
19D9
330
3201
100
AcDbEntity
  8
TEXT
 62
     5
420
      255
370
    25
100
AcDbSpline
210
0.0
220
0.0
230
1.0
 70
     8
 71
     3
 72
     8
 73
     4
 74
     0
 42
0.000000001
 43
0.001
 12
1.0
 22
0.0
 32
0.0
 13
1.0
 23
0.0
 33
0.0
 40
0.0
 40
0.0
 40
0.0
 40
0.0
 40
1.0
 40
1.0
 40
1.0
 40
1.0
 10
99.8198933188811
 20
235.0671892489797
 30
0.0
 10
99.8198933188811
 20
234.0691804989797
 30
0.0
 10
99.11786581888111
 20
233.4892142489797
 30
0.0
 10
98.25461831888117
 20
233.4892142489797
 30
0.0
  0
SPLINE
  5
19DA
330
3201
100
AcDbEntity
  8
TEXT
 62
     5
420
      255
370
    25
100
AcDbSpline
210
0.0
220
0.0
230
1.0
 70
     8
 71
     3
 72
     8
 73
     4
 74
     0
 42
0.000000001
 43
0.001
 12
1.0
 22
0.0
 32
0.0
 13
1.0
 23
0.0
 33
0.0
 40
0.0
 40
0.0
 40
0.0
 40
0.0
 40
1.0
 40
1.0
 40
1.0
 40
1.0
 10
98.25461831888117
 20
233.4892142489797
 30
0.0
 10
97.53918456888141
 20
233.4892142489797
 30
0.0
 10
96.97262331888135
 20
233.7806092489798
 30
0.0
 10
96.81175706888132
 20
234.4371279989797
 30
0.0
  0
SPLINE
  5
19DB
330
3201
100
AcDbEntity
  8
TEXT
 62
     5
420
      255
370
    25
100
AcDbSpline
210
0.0
220
0.0
230
1.0
 70
     8
 71
     3
 72
     8
 73
     4
 74
     0
 42
0.000000001
 43
0.001
 12
1.0
 22
0.0
 32
0.0
 13
1.0
 23
0.0
 33
0.0
 40
0.0
 40
0.0
 40
0.0
 40
0.0
 40
1.0
 40
1.0
 40
1.0
 40
1.0
 10
104.8289845688813
 20
234.2296954989797
 30
0.0
 10
104.3714320688813
 20
234.1150417489797
 30
0.0
 10
104.0669845688811
 20
233.8740954989797
 30
0.0
 10
103.8891845688812
 20
233.6666617489798
 30
0.0
  0
SPLINE
  5
19DC
330
3201
100
AcDbEntity
  8
TEXT
 62
     5
420
      255
370
    25
100
AcDbSpline
210
0.0
220
0.0
230
1.0
 70
     8
 71
     3
 72
     8
 73
     4
 74
     0
 42
0.000000001
 43
0.001
 12
1.0
 22
0.0
 32
0.0
 13
1.0
 23
0.0
 33
0.0
 40
0.0
 40
0.0
 40
0.0
 40
0.0
 40
1.0
 40
1.0
 40
1.0
 40
1.0
 10
101.8398983188812
 20
233.5996342489798
 30
0.0
 10
100.9089183188813
 20
233.5996342489798
 30
0.0
 10
100.5748383188812
 20
234.3185954989797
 30
0.0
 10
100.5748383188812
 20
235.1564417489797
 30
0.0
  0
SPLINE
  5
19DD
330
3201
100
AcDbEntity
  8
TEXT
 62
     5
420
      255
370
    25
100
AcDbSpline
210
0.0
220
0.0
230
1.0
 70
     8
 71
     3
 72
     8
 73
     4
 74
     0
 42
0.000000001
 43
0.001
 12
1.0
 22
0.0
 32
0.0
 13
1.0
 23
0.0
 33
0.0
 40
0.0
 40
0.0
 40
0.0
 40
0.0
 40
1.0
 40
1.0
 40
1.0
 40
1.0
 10
100.5748383188812
 20
235.1564417489797
 30
0.0
 10
100.5748383188812
 20
235.9942892489797
 30
0.0
 10
100.9089183188813
 20
236.7128979989798
 30
0.0
 10
101.8398983188812
 20
236.7128979989798
 30
0.0
  0
SPLINE
  5
19DE
330
3201
100
AcDbEntity
  8
TEXT
 62
     5
420
      255
370
    25
100
AcDbSpline
210
0.0
220
0.0
230
1.0
 70
     8
 71
     3
 72
     8
 73
     4
 74
     0
 42
0.000000001
 43
0.001
 12
1.0
 22
0.0
 32
0.0
 13
1.0
 23
0.0
 33
0.0
 40
0.0
 40
0.0
 40
0.0
 40
0.0
 40
1.0
 40
1.0
 40
1.0
 40
1.0
 10
101.8398983188812
 20
236.7128979989798
 30
0.0
 10
102.7708795688812
 20
236.7128979989798
 30
0.0
 10
103.1049595688811
 20
235.9942892489797
 30
0.0
 10
103.1049595688811
 20
235.1564417489797
 30
0.0
  0
SPLINE
  5
19DF
330
3201
100
AcDbEntity
  8
TEXT
 62
     5
420
      255
370
    25
100
AcDbSpline
210
0.0
220
0.0
230
1.0
 70
     8
 71
     3
 72
     8
 73
     4
 74
     0
 42
0.000000001
 43
0.001
 12
1.0
 22
0.0
 32
0.0
 13
1.0
 23
0.0
 33
0.0
 40
0.0
 40
0.0
 40
0.0
 40
0.0
 40
1.0
 40
1.0
 40
1.0
 40
1.0
 10
103.1049595688811
 20
235.1564417489797
 30
0.0
 10
103.1049595688811
 20
234.3185954989797
 30
0.0
 10
102.7708795688812
 20
233.5996342489798
 30
0.0
 10
101.8398983188812
 20
233.5996342489798
 30
0.0
  0
LWPOLYLINE
  5
19E0
330
3201
100
AcDbEntity
  8
TEXT
 62
     5
420
      255
370
    25
100
AcDbPolyline
 90
        3
 70
     0
 43
0.0
 10
103.8891845688812
 20
233.6666617489798
 10
103.7794708188811
 20
233.6666617489798
 10
103.7794708188811
 20
236.6451642489797
  0
SPLINE
  5
19E1
330
3201
100
AcDbEntity
  8
TEXT
 62
     5
420
      255
370
    25
100
AcDbSpline
210
0.0
220
0.0
230
1.0
 70
     8
 71
     3
 72
     8
 73
     4
 74
     0
 42
0.000000001
 43
0.001
 12
1.0
 22
0.0
 32
0.0
 13
1.0
 23
0.0
 33
0.0
 40
0.0
 40
0.0
 40
0.0
 40
0.0
 40
1.0
 40
1.0
 40
1.0
 40
1.0
 10
143.7583658188815
 20
204.3494167489797
 30
0.0
 10
143.8472658188806
 20
205.1576304989796
 30
0.0
 10
144.5746933188815
 20
205.5636779989798
 30
0.0
 10
145.2728408188815
 20
205.5636779989798
 30
0.0
  0
SPLINE
  5
19E2
330
3201
100
AcDbEntity
  8
TEXT
 62
     5
420
      255
370
    25
100
AcDbSpline
210
0.0
220
0.0
230
1.0
 70
     8
 71
     3
 72
     8
 73
     4
 74
     0
 42
0.000000001
 43
0.001
 12
1.0
 22
0.0
 32
0.0
 13
1.0
 23
0.0
 33
0.0
 40
0.0
 40
0.0
 40
0.0
 40
0.0
 40
1.0
 40
1.0
 40
1.0
 40
1.0
 10
145.2728408188815
 20
205.5636779989798
 30
0.0
 10
146.1360883188817
 20
205.5636779989798
 30
0.0
 10
146.8381158188816
 20
204.9840642489796
 30
0.0
 10
146.8381158188816
 20
203.9857029989797
 30
0.0
  0
SPLINE
  5
19E3
330
3201
100
AcDbEntity
  8
TEXT
 62
     5
420
      255
370
    25
100
AcDbSpline
210
0.0
220
0.0
230
1.0
 70
     8
 71
     3
 72
     8
 73
     4
 74
     0
 42
0.000000001
 43
0.001
 12
1.0
 22
0.0
 32
0.0
 13
1.0
 23
0.0
 33
0.0
 40
0.0
 40
0.0
 40
0.0
 40
0.0
 40
1.0
 40
1.0
 40
1.0
 40
1.0
 10
146.8381158188816
 20
203.9857029989797
 30
0.0
 10
146.8381158188816
 20
202.9873417489797
 30
0.0
 10
146.1360883188817
 20
202.4080804989796
 30
0.0
 10
145.2728408188815
 20
202.4080804989796
 30
0.0
  0
SPLINE
  5
19E4
330
3201
100
AcDbEntity
  8
TEXT
 62
     5
420
      255
370
    25
100
AcDbSpline
210
0.0
220
0.0
230
1.0
 70
     8
 71
     3
 72
     8
 73
     4
 74
     0
 42
0.000000001
 43
0.001
 12
1.0
 22
0.0
 32
0.0
 13
1.0
 23
0.0
 33
0.0
 40
0.0
 40
0.0
 40
0.0
 40
0.0
 40
1.0
 40
1.0
 40
1.0
 40
1.0
 10
145.2728408188815
 20
202.4080804989796
 30
0.0
 10
144.5574070688816
 20
202.4080804989796
 30
0.0
 10
143.9908458188817
 20
202.6991229989797
 30
0.0
 10
143.8299795688816
 20
203.3552892489797
 30
0.0
  0
SPLINE
  5
19E5
330
3201
100
AcDbEntity
  8
TEXT
 62
     5
420
      255
370
    25
100
AcDbSpline
210
0.0
220
0.0
230
1.0
 70
     8
 71
     3
 72
     8
 73
     4
 74
     0
 42
0.000000001
 43
0.001
 12
1.0
 22
0.0
 32
0.0
 13
1.0
 23
0.0
 33
0.0
 40
0.0
 40
0.0
 40
0.0
 40
0.0
 40
1.0
 40
1.0
 40
1.0
 40
1.0
 10
151.8468545688817
 20
203.1478554989799
 30
0.0
 10
151.3893020688816
 20
203.0335554989797
 30
0.0
 10
151.0848545688815
 20
202.7922554989798
 30
0.0
 10
150.9070545688816
 20
202.5844704989797
 30
0.0
  0
SPLINE
  5
19E6
330
3201
100
AcDbEntity
  8
TEXT
 62
     5
420
      255
370
    25
100
AcDbSpline
210
0.0
220
0.0
230
1.0
 70
     8
 71
     3
 72
     8
 73
     4
 74
     0
 42
0.000000001
 43
0.001
 12
1.0
 22
0.0
 32
0.0
 13
1.0
 23
0.0
 33
0.0
 40
0.0
 40
0.0
 40
0.0
 40
0.0
 40
1.0
 40
1.0
 40
1.0
 40
1.0
 10
148.8581208188815
 20
202.5174417489798
 30
0.0
 10
147.9271408188816
 20
202.5174417489798
 30
0.0
 10
147.5930595688816
 20
203.2367554989796
 30
0.0
 10
147.5930595688816
 20
204.0746029989797
 30
0.0
  0
SPLINE
  5
19E7
330
3201
100
AcDbEntity
  8
TEXT
 62
     5
420
      255
370
    25
100
AcDbSpline
210
0.0
220
0.0
230
1.0
 70
     8
 71
     3
 72
     8
 73
     4
 74
     0
 42
0.000000001
 43
0.001
 12
1.0
 22
0.0
 32
0.0
 13
1.0
 23
0.0
 33
0.0
 40
0.0
 40
0.0
 40
0.0
 40
0.0
 40
1.0
 40
1.0
 40
1.0
 40
1.0
 10
147.5930595688816
 20
204.0746029989797
 30
0.0
 10
147.5930595688816
 20
204.9124504989798
 30
0.0
 10
147.9271408188816
 20
205.6310592489797
 30
0.0
 10
148.8581208188815
 20
205.6310592489797
 30
0.0
  0
SPLINE
  5
19E8
330
3201
100
AcDbEntity
  8
TEXT
 62
     5
420
      255
370
    25
100
AcDbSpline
210
0.0
220
0.0
230
1.0
 70
     8
 71
     3
 72
     8
 73
     4
 74
     0
 42
0.000000001
 43
0.001
 12
1.0
 22
0.0
 32
0.0
 13
1.0
 23
0.0
 33
0.0
 40
0.0
 40
0.0
 40
0.0
 40
0.0
 40
1.0
 40
1.0
 40
1.0
 40
1.0
 10
148.8581208188815
 20
205.6310592489797
 30
0.0
 10
149.7887483188816
 20
205.6310592489797
 30
0.0
 10
150.1231820688816
 20
204.9124504989798
 30
0.0
 10
150.1231820688816
 20
204.0746029989797
 30
0.0
  0
SPLINE
  5
19E9
330
3201
100
AcDbEntity
  8
TEXT
 62
     5
420
      255
370
    25
100
AcDbSpline
210
0.0
220
0.0
230
1.0
 70
     8
 71
     3
 72
     8
 73
     4
 74
     0
 42
0.000000001
 43
0.001
 12
1.0
 22
0.0
 32
0.0
 13
1.0
 23
0.0
 33
0.0
 40
0.0
 40
0.0
 40
0.0
 40
0.0
 40
1.0
 40
1.0
 40
1.0
 40
1.0
 10
150.1231820688816
 20
204.0746029989797
 30
0.0
 10
150.1231820688816
 20
203.2367554989796
 30
0.0
 10
149.7887483188816
 20
202.5174417489798
 30
0.0
 10
148.8581208188815
 20
202.5174417489798
 30
0.0
  0
LWPOLYLINE
  5
19EA
330
3201
100
AcDbEntity
  8
TEXT
 62
     5
420
      255
370
    25
100
AcDbPolyline
 90
        3
 70
     0
 43
0.0
 10
150.9070545688816
 20
202.5844704989797
 10
150.7976933188817
 20
202.5844704989797
 10
150.7976933188817
 20
205.5633254989797
  0
LWPOLYLINE
  5
19ED
330
3201
100
AcDbEntity
  8
TEXT
 62
     5
420
      255
370
    25
100
AcDbPolyline
 90
        4
 70
     0
 43
0.0
 10
287.9135958188816
 20
236.9058667489796
 10
286.5173020688816
 20
233.8885592489796
 10
286.4075883188815
 20
233.8885592489796
 10
285.0282270688816
 20
236.9132754989797
  0
SPLINE
  5
19EE
330
3201
100
AcDbEntity
  8
TEXT
 62
     5
420
      255
370
    25
100
AcDbSpline
210
0.0
220
0.0
230
1.0
 70
     8
 71
     3
 72
     8
 73
     4
 74
     0
 42
0.000000001
 43
0.001
 12
1.0
 22
0.0
 32
0.0
 13
1.0
 23
0.0
 33
0.0
 40
0.0
 40
0.0
 40
0.0
 40
0.0
 40
1.0
 40
1.0
 40
1.0
 40
1.0
 10
292.3864658188817
 20
234.4741704989797
 30
0.0
 10
291.9289133188817
 20
234.3598704989797
 30
0.0
 10
291.6244658188815
 20
234.1185704989797
 30
0.0
 10
291.4466658188816
 20
233.9111367489797
 30
0.0
  0
LWPOLYLINE
  5
19EF
330
3201
100
AcDbEntity
  8
TEXT
 62
     5
420
      255
370
    25
100
AcDbPolyline
 90
        2
 70
     0
 43
0.0
 10
285.4847208188816
 20
235.9135029989798
 10
287.4595708188816
 20
235.9075054989796
  0
SPLINE
  5
19F0
330
3201
100
AcDbEntity
  8
TEXT
 62
     5
420
      255
370
    25
100
AcDbSpline
210
0.0
220
0.0
230
1.0
 70
     8
 71
     3
 72
     8
 73
     4
 74
     0
 42
0.000000001
 43
0.001
 12
1.0
 22
0.0
 32
0.0
 13
1.0
 23
0.0
 33
0.0
 40
0.0
 40
0.0
 40
0.0
 40
0.0
 40
1.0
 40
1.0
 40
1.0
 40
1.0
 10
289.3973795688815
 20
233.8437554989797
 30
0.0
 10
288.4663983188815
 20
233.8437554989797
 30
0.0
 10
288.1323183188816
 20
234.5630704989796
 30
0.0
 10
288.1323183188816
 20
235.4009167489796
 30
0.0
  0
SPLINE
  5
19F1
330
3201
100
AcDbEntity
  8
TEXT
 62
     5
420
      255
370
    25
100
AcDbSpline
210
0.0
220
0.0
230
1.0
 70
     8
 71
     3
 72
     8
 73
     4
 74
     0
 42
0.000000001
 43
0.001
 12
1.0
 22
0.0
 32
0.0
 13
1.0
 23
0.0
 33
0.0
 40
0.0
 40
0.0
 40
0.0
 40
0.0
 40
1.0
 40
1.0
 40
1.0
 40
1.0
 10
288.1323183188816
 20
235.4009167489796
 30
0.0
 10
288.1323183188816
 20
236.2387642489797
 30
0.0
 10
288.4663983188815
 20
236.9573729989797
 30
0.0
 10
289.3973795688815
 20
236.9573729989797
 30
0.0
  0
SPLINE
  5
19F2
330
3201
100
AcDbEntity
  8
TEXT
 62
     5
420
      255
370
    25
100
AcDbSpline
210
0.0
220
0.0
230
1.0
 70
     8
 71
     3
 72
     8
 73
     4
 74
     0
 42
0.000000001
 43
0.001
 12
1.0
 22
0.0
 32
0.0
 13
1.0
 23
0.0
 33
0.0
 40
0.0
 40
0.0
 40
0.0
 40
0.0
 40
1.0
 40
1.0
 40
1.0
 40
1.0
 10
289.3973795688815
 20
236.9573729989797
 30
0.0
 10
290.3283595688816
 20
236.9573729989797
 30
0.0
 10
290.6624408188815
 20
236.2387642489797
 30
0.0
 10
290.6624408188815
 20
235.4009167489796
 30
0.0
  0
SPLINE
  5
19F3
330
3201
100
AcDbEntity
  8
TEXT
 62
     5
420
      255
370
    25
100
AcDbSpline
210
0.0
220
0.0
230
1.0
 70
     8
 71
     3
 72
     8
 73
     4
 74
     0
 42
0.000000001
 43
0.001
 12
1.0
 22
0.0
 32
0.0
 13
1.0
 23
0.0
 33
0.0
 40
0.0
 40
0.0
 40
0.0
 40
0.0
 40
1.0
 40
1.0
 40
1.0
 40
1.0
 10
290.6624408188815
 20
235.4009167489796
 30
0.0
 10
290.6624408188815
 20
234.5630704989796
 30
0.0
 10
290.3283595688816
 20
233.8437554989797
 30
0.0
 10
289.3973795688815
 20
233.8437554989797
 30
0.0
  0
LWPOLYLINE
  5
19F4
330
3201
100
AcDbEntity
  8
TEXT
 62
     5
420
      255
370
    25
100
AcDbPolyline
 90
        3
 70
     0
 43
0.0
 10
291.4466658188816
 20
233.9111367489797
 10
291.3369520688815
 20
233.9111367489797
 10
291.3369520688815
 20
236.8896392489796
  0
LWPOLYLINE
  5
1AF4
330
3201
100
AcDbEntity
  8
TEXT
 62
     5
420
      255
370
    25
100
AcDbPolyline
 90
        4
 70
     0
 43
0.0
 10
229.7483020688816
 20
205.0779029989799
 10
228.3520070688816
 20
202.0605954989796
 10
228.2419408188815
 20
202.0605954989796
 10
226.8625795688816
 20
205.0853117489796
  0
LWPOLYLINE
  5
1AF6
330
3201
100
AcDbEntity
  8
TEXT
 62
     5
420
      255
370
    25
100
AcDbPolyline
 90
        2
 70
     0
 43
0.0
 10
227.3190733188816
 20
204.0862454989797
 10
229.2939233188816
 20
204.0806004989797
  0
SPLINE
  5
1AF8
330
3201
100
AcDbEntity
  8
TEXT
 62
     5
420
      255
370
    25
100
AcDbSpline
210
0.0
220
0.0
230
1.0
 70
     8
 71
     3
 72
     8
 73
     4
 74
     0
 42
0.000000001
 43
0.001
 12
1.0
 22
0.0
 32
0.0
 13
1.0
 23
0.0
 33
0.0
 40
0.0
 40
0.0
 40
0.0
 40
0.0
 40
1.0
 40
1.0
 40
1.0
 40
1.0
 10
244.3772908188815
 20
217.5429529989797
 30
0.0
 10
243.7345295688816
 20
217.5429529989797
 30
0.0
 10
243.5394433188816
 20
217.9151342489797
 30
0.0
 10
243.5394433188816
 20
218.3677479989798
 30
0.0
  0
SPLINE
  5
1AFA
330
3201
100
AcDbEntity
  8
TEXT
 62
     5
420
      255
370
    25
100
AcDbSpline
210
0.0
220
0.0
230
1.0
 70
     8
 71
     3
 72
     8
 73
     4
 74
     0
 42
0.000000001
 43
0.001
 12
1.0
 22
0.0
 32
0.0
 13
1.0
 23
0.0
 33
0.0
 40
0.0
 40
0.0
 40
0.0
 40
0.0
 40
1.0
 40
1.0
 40
1.0
 40
1.0
 10
243.5394433188816
 20
218.3677479989798
 30
0.0
 10
243.5394433188816
 20
218.7741479989797
 30
0.0
 10
243.7468770688816
 20
219.1890142489797
 30
0.0
 10
244.4958233188817
 20
219.1890142489797
 30
0.0
  0
LWPOLYLINE
  5
1AFC
330
3201
100
AcDbEntity
  8
TEXT
 62
     5
420
      255
370
    25
100
AcDbPolyline
 90
        3
 70
     0
 43
0.0
 10
245.9937183188816
 20
220.5634367489797
 10
245.9937183188816
 20
217.5429529989797
 10
244.3772908188815
 20
217.5429529989797
  0
LWPOLYLINE
  5
1AFE
330
3201
100
AcDbEntity
  8
TEXT
 62
     5
420
      255
370
    25
100
AcDbPolyline
 90
        2
 70
     0
 43
0.0
 10
244.4958233188817
 20
219.1890142489797
 10
245.9937183188816
 20
219.1890142489797
  0
LWPOLYLINE
  5
1B00
330
3201
100
AcDbEntity
  8
TEXT
 62
     5
420
      255
370
    25
100
AcDbPolyline
 90
        3
 70
     0
 43
0.0
 10
241.1172708188816
 20
220.5634367489797
 10
243.2367595688817
 20
220.5634367489797
 10
243.2367595688817
 20
217.5429529989797
  0
LWPOLYLINE
  5
1B02
330
3201
100
AcDbEntity
  8
TEXT
 62
     5
420
      255
370
    25
100
AcDbPolyline
 90
        2
 70
     0
 43
0.0
 10
234.8208933188815
 20
218.9477142489798
 10
232.5659383188816
 20
218.9477142489798
  0
SPLINE
  5
1B04
330
3201
100
AcDbEntity
  8
TEXT
 62
     5
420
      255
370
    25
100
AcDbSpline
210
0.0
220
0.0
230
1.0
 70
     8
 71
     3
 72
     8
 73
     4
 74
     0
 42
0.000000001
 43
0.001
 12
1.0
 22
0.0
 32
0.0
 13
1.0
 23
0.0
 33
0.0
 40
0.0
 40
0.0
 40
0.0
 40
0.0
 40
1.0
 40
1.0
 40
1.0
 40
1.0
 10
235.2911458188815
 20
219.4169092489798
 30
0.0
 10
235.3800458188806
 20
220.2251229989797
 30
0.0
 10
236.1078270688816
 20
220.6308167489797
 30
0.0
 10
236.8059733188817
 20
220.6308167489797
 30
0.0
  0
SPLINE
  5
1B06
330
3201
100
AcDbEntity
  8
TEXT
 62
     5
420
      255
370
    25
100
AcDbSpline
210
0.0
220
0.0
230
1.0
 70
     8
 71
     3
 72
     8
 73
     4
 74
     0
 42
0.000000001
 43
0.001
 12
1.0
 22
0.0
 32
0.0
 13
1.0
 23
0.0
 33
0.0
 40
0.0
 40
0.0
 40
0.0
 40
0.0
 40
1.0
 40
1.0
 40
1.0
 40
1.0
 10
236.8059733188817
 20
220.6308167489797
 30
0.0
 10
237.6692208188816
 20
220.6308167489797
 30
0.0
 10
238.3712483188816
 20
220.0512029989798
 30
0.0
 10
238.3712483188816
 20
219.0528417489798
 30
0.0
  0
SPLINE
  5
1B08
330
3201
100
AcDbEntity
  8
TEXT
 62
     5
420
      255
370
    25
100
AcDbSpline
210
0.0
220
0.0
230
1.0
 70
     8
 71
     3
 72
     8
 73
     4
 74
     0
 42
0.000000001
 43
0.001
 12
1.0
 22
0.0
 32
0.0
 13
1.0
 23
0.0
 33
0.0
 40
0.0
 40
0.0
 40
0.0
 40
0.0
 40
1.0
 40
1.0
 40
1.0
 40
1.0
 10
238.3712483188816
 20
219.0528417489798
 30
0.0
 10
238.3712483188816
 20
218.0544804989797
 30
0.0
 10
237.6692208188816
 20
217.4748667489797
 30
0.0
 10
236.8059733188817
 20
217.4748667489797
 30
0.0
  0
SPLINE
  5
1B0A
330
3201
100
AcDbEntity
  8
TEXT
 62
     5
420
      255
370
    25
100
AcDbSpline
210
0.0
220
0.0
230
1.0
 70
     8
 71
     3
 72
     8
 73
     4
 74
     0
 42
0.000000001
 43
0.001
 12
1.0
 22
0.0
 32
0.0
 13
1.0
 23
0.0
 33
0.0
 40
0.0
 40
0.0
 40
0.0
 40
0.0
 40
1.0
 40
1.0
 40
1.0
 40
1.0
 10
236.8059733188817
 20
217.4748667489797
 30
0.0
 10
236.0908933188815
 20
217.4748667489797
 30
0.0
 10
235.5239795688816
 20
217.7662617489797
 30
0.0
 10
235.3631133188816
 20
218.4224279989796
 30
0.0
  0
LWPOLYLINE
  5
1B0C
330
3201
100
AcDbEntity
  8
TEXT
 62
     5
420
      255
370
    25
100
AcDbPolyline
 90
        4
 70
     0
 43
0.0
 10
232.4431708188816
 20
220.5634367489797
 10
234.8208933188815
 20
220.5634367489797
 10
234.8208933188815
 20
217.5429529989797
 10
232.4685708188816
 20
217.5429529989797
  0
LWPOLYLINE
  5
1B0E
330
3201
100
AcDbEntity
  8
TEXT
 62
     5
420
      255
370
    25
100
AcDbPolyline
 90
        4
 70
     0
 43
0.0
 10
241.2612045688817
 20
220.5634367489797
 10
239.8730233188816
 20
217.5429529989797
 10
239.7629570688815
 20
217.5429529989797
 10
238.3751295688816
 20
220.5634367489797
  0
LWPOLYLINE
  5
1B10
330
3201
100
AcDbEntity
  8
TEXT
 62
     5
420
      255
370
    25
100
AcDbPolyline
 90
        2
 70
     0
 43
0.0
 10
238.8347983188816
 20
219.5650754989797
 10
240.8100020688815
 20
219.5650754989797
  0
SPLINE
  5
1B12
330
3201
100
AcDbEntity
  8
TEXT
 62
     5
420
      255
370
    25
100
AcDbSpline
210
0.0
220
0.0
230
1.0
 70
     8
 71
     3
 72
     8
 73
     4
 74
     0
 42
0.000000001
 43
0.001
 12
1.0
 22
0.0
 32
0.0
 13
1.0
 23
0.0
 33
0.0
 40
0.0
 40
0.0
 40
0.0
 40
0.0
 40
1.0
 40
1.0
 40
1.0
 40
1.0
 10
213.0957795688815
 20
217.6427892489796
 30
0.0
 10
212.4911183188816
 20
217.6427892489796
 30
0.0
 10
212.2618133188815
 20
217.9306554989797
 30
0.0
 10
212.2618133188815
 20
218.4679367489797
 30
0.0
  0
SPLINE
  5
1B14
330
3201
100
AcDbEntity
  8
TEXT
 62
     5
420
      255
370
    25
100
AcDbSpline
210
0.0
220
0.0
230
1.0
 70
     8
 71
     3
 72
     8
 73
     4
 74
     0
 42
0.000000001
 43
0.001
 12
1.0
 22
0.0
 32
0.0
 13
1.0
 23
0.0
 33
0.0
 40
0.0
 40
0.0
 40
0.0
 40
0.0
 40
1.0
 40
1.0
 40
1.0
 40
1.0
 10
212.2618133188815
 20
218.4679367489797
 30
0.0
 10
212.2618133188815
 20
218.7554504989797
 30
0.0
 10
212.4568983188816
 20
219.1576167489798
 30
0.0
 10
212.9818320688815
 20
219.1872504989798
 30
0.0
  0
LWPOLYLINE
  5
1B16
330
3201
100
AcDbEntity
  8
TEXT
 62
     5
420
      255
370
    25
100
AcDbPolyline
 90
        3
 70
     0
 43
0.0
 10
214.7587733188815
 20
220.6639779989797
 10
214.7587733188815
 20
217.6427892489796
 10
213.0957795688815
 20
217.6427892489796
  0
SPLINE
  5
1B18
330
3201
100
AcDbEntity
  8
TEXT
 62
     5
420
      255
370
    25
100
AcDbSpline
210
0.0
220
0.0
230
1.0
 70
     8
 71
     3
 72
     8
 73
     4
 74
     0
 42
0.000000001
 43
0.001
 12
1.0
 22
0.0
 32
0.0
 13
1.0
 23
0.0
 33
0.0
 40
0.0
 40
0.0
 40
0.0
 40
0.0
 40
1.0
 40
1.0
 40
1.0
 40
1.0
 10
212.9857133188815
 20
219.1950117489797
 30
0.0
 10
212.5203983188816
 20
219.1999504989798
 30
0.0
 10
212.3168458188815
 20
219.4154979989796
 30
0.0
 10
212.3168458188815
 20
219.8303642489798
 30
0.0
  0
SPLINE
  5
1B1A
330
3201
100
AcDbEntity
  8
TEXT
 62
     5
420
      255
370
    25
100
AcDbSpline
210
0.0
220
0.0
230
1.0
 70
     8
 71
     3
 72
     8
 73
     4
 74
     0
 42
0.000000001
 43
0.001
 12
1.0
 22
0.0
 32
0.0
 13
1.0
 23
0.0
 33
0.0
 40
0.0
 40
0.0
 40
0.0
 40
0.0
 40
1.0
 40
1.0
 40
1.0
 40
1.0
 10
212.3168458188815
 20
219.8303642489798
 30
0.0
 10
212.3168458188815
 20
219.9404304989797
 30
0.0
 10
212.3083795688816
 20
220.5412117489798
 30
0.0
 10
212.2491133188815
 20
220.6639779989797
 30
0.0
  0
LWPOLYLINE
  5
1B1C
330
3201
100
AcDbEntity
  8
TEXT
 62
     5
420
      255
370
    25
100
AcDbPolyline
 90
        3
 70
     0
 43
0.0
 10
212.9818320688815
 20
219.1872504989798
 10
212.9857133188815
 20
219.1950117489797
 10
214.7587733188815
 20
219.2010092489798
  0
LWPOLYLINE
  5
1B1E
330
3201
100
AcDbEntity
  8
TEXT
 62
     5
420
      255
370
    25
100
AcDbPolyline
 90
        2
 70
     0
 43
0.0
 10
220.4621320688815
 20
220.6639779989797
 10
220.4621320688815
 20
217.6427892489796
  0
LWPOLYLINE
  5
1B20
330
3201
100
AcDbEntity
  8
TEXT
 62
     5
420
      255
370
    25
100
AcDbPolyline
 90
        2
 70
     0
 43
0.0
 10
220.4621320688815
 20
219.0475504989797
 10
217.8727433188816
 20
219.0475504989797
  0
LWPOLYLINE
  5
1B22
330
3201
100
AcDbEntity
  8
TEXT
 62
     5
420
      255
370
    25
100
AcDbPolyline
 90
        2
 70
     0
 43
0.0
 10
217.8727433188816
 20
217.6424367489798
 10
217.8727433188816
 20
220.6636254989796
  0
LWPOLYLINE
  5
1B24
330
3201
100
AcDbEntity
  8
TEXT
 62
     5
420
      255
370
    25
100
AcDbPolyline
 90
        2
 70
     0
 43
0.0
 10
217.4384733188816
 20
219.0475504989797
 10
215.1835183188815
 20
219.0475504989797
  0
LWPOLYLINE
  5
1B26
330
3201
100
AcDbEntity
  8
TEXT
 62
     5
420
      255
370
    25
100
AcDbPolyline
 90
        4
 70
     0
 43
0.0
 10
215.0607520688815
 20
220.6639779989797
 10
217.4384733188816
 20
220.6639779989797
 10
217.4384733188816
 20
217.6427892489796
 10
215.0865045688817
 20
217.6427892489796
  0
LWPOLYLINE
  5
1B28
330
3201
100
AcDbEntity
  8
TEXT
 62
     5
420
      255
370
    25
100
AcDbPolyline
 90
        2
 70
     0
 43
0.0
 10
211.8617633188816
 20
219.0475504989797
 10
209.6064545688815
 20
219.0475504989797
  0
LINE
  5
2FA1
330
3201
100
AcDbEntity
  8
laser bed referance
100
AcDbLine
 10
0.0
 20
304.8000000000001
 30
0.0
 11
609.5999999999999
 21
304.8000000000001
 31
0.0
  0
LINE
  5
2FA2
330
3201
100
AcDbEntity
  8
laser bed referance
100
AcDbLine
 10
0.0
 20
0.0000000000000142
 30
0.0
 11
0.0
 21
304.8000000000001
 31
0.0
  0
LINE
  5
2FA3
330
3201
100
AcDbEntity
  8
laser bed referance
100
AcDbLine
 10
609.5999999999999
 20
0.0000000000000142
 30
0.0
 11
609.5999999999999
 21
304.8000000000001
 31
0.0
  0
LINE
  5
2FA4
330
3201
100
AcDbEntity
  8
laser bed referance
100
AcDbLine
 10
0.0
 20
0.0000000000000142
 30
0.0
 11
609.5999999999999
 21
0.0000000000000142
 31
0.0
  0
SPLINE
  5
2FBD
330
3201
100
AcDbEntity
  8
TEXT
 62
     5
420
      255
370
    25
100
AcDbSpline
210
0.0
220
0.0
230
1.0
 70
     8
 71
     3
 72
     8
 73
     4
 74
     0
 42
0.000000001
 43
0.001
 12
1.0
 22
0.0
 32
0.0
 13
1.0
 23
0.0
 33
0.0
 40
0.0
 40
0.0
 40
0.0
 40
0.0
 40
1.0
 40
1.0
 40
1.0
 40
1.0
 10
343.6748862500082
 20
234.9407825
 30
0.0
 10
343.7637862500082
 20
235.7489975
 30
0.0
 10
344.4912137500083
 20
236.1546912499999
 30
0.0
 10
345.1893612500082
 20
236.1546912499999
 30
0.0
  0
SPLINE
  5
2FBE
330
3201
100
AcDbEntity
  8
TEXT
 62
     5
420
      255
370
    25
100
AcDbSpline
210
0.0
220
0.0
230
1.0
 70
     8
 71
     3
 72
     8
 73
     4
 74
     0
 42
0.000000001
 43
0.001
 12
1.0
 22
0.0
 32
0.0
 13
1.0
 23
0.0
 33
0.0
 40
0.0
 40
0.0
 40
0.0
 40
0.0
 40
1.0
 40
1.0
 40
1.0
 40
1.0
 10
345.1893612500082
 20
236.1546912499999
 30
0.0
 10
346.0526087500081
 20
236.1546912499999
 30
0.0
 10
346.7546362500081
 20
235.5750775
 30
0.0
 10
346.7546362500081
 20
234.57671625
 30
0.0
  0
SPLINE
  5
2FBF
330
3201
100
AcDbEntity
  8
TEXT
 62
     5
420
      255
370
    25
100
AcDbSpline
210
0.0
220
0.0
230
1.0
 70
     8
 71
     3
 72
     8
 73
     4
 74
     0
 42
0.000000001
 43
0.001
 12
1.0
 22
0.0
 32
0.0
 13
1.0
 23
0.0
 33
0.0
 40
0.0
 40
0.0
 40
0.0
 40
0.0
 40
1.0
 40
1.0
 40
1.0
 40
1.0
 10
346.7546362500081
 20
234.57671625
 30
0.0
 10
346.7546362500081
 20
233.5787075
 30
0.0
 10
346.0526087500081
 20
232.99874125
 30
0.0
 10
345.1893612500082
 20
232.99874125
 30
0.0
  0
SPLINE
  5
2FC0
330
3201
100
AcDbEntity
  8
TEXT
 62
     5
420
      255
370
    25
100
AcDbSpline
210
0.0
220
0.0
230
1.0
 70
     8
 71
     3
 72
     8
 73
     4
 74
     0
 42
0.000000001
 43
0.001
 12
1.0
 22
0.0
 32
0.0
 13
1.0
 23
0.0
 33
0.0
 40
0.0
 40
0.0
 40
0.0
 40
0.0
 40
1.0
 40
1.0
 40
1.0
 40
1.0
 10
345.1893612500082
 20
232.99874125
 30
0.0
 10
344.4739275000084
 20
232.99874125
 30
0.0
 10
343.9073662500084
 20
233.29013625
 30
0.0
 10
343.7465000000083
 20
233.946655
 30
0.0
  0
SPLINE
  5
2FC1
330
3201
100
AcDbEntity
  8
TEXT
 62
     5
420
      255
370
    25
100
AcDbSpline
210
0.0
220
0.0
230
1.0
 70
     8
 71
     3
 72
     8
 73
     4
 74
     0
 42
0.000000001
 43
0.001
 12
1.0
 22
0.0
 32
0.0
 13
1.0
 23
0.0
 33
0.0
 40
0.0
 40
0.0
 40
0.0
 40
0.0
 40
1.0
 40
1.0
 40
1.0
 40
1.0
 10
351.7637275000083
 20
233.7392225
 30
0.0
 10
351.3061750000083
 20
233.62456875
 30
0.0
 10
351.0017275000081
 20
233.3836225
 30
0.0
 10
350.8239275000082
 20
233.1761887500001
 30
0.0
  0
SPLINE
  5
2FC2
330
3201
100
AcDbEntity
  8
TEXT
 62
     5
420
      255
370
    25
100
AcDbSpline
210
0.0
220
0.0
230
1.0
 70
     8
 71
     3
 72
     8
 73
     4
 74
     0
 42
0.000000001
 43
0.001
 12
1.0
 22
0.0
 32
0.0
 13
1.0
 23
0.0
 33
0.0
 40
0.0
 40
0.0
 40
0.0
 40
0.0
 40
1.0
 40
1.0
 40
1.0
 40
1.0
 10
348.7746412500082
 20
233.1091612500001
 30
0.0
 10
347.8436612500083
 20
233.1091612500001
 30
0.0
 10
347.5095812500082
 20
233.8281224999999
 30
0.0
 10
347.5095812500082
 20
234.6659687499999
 30
0.0
  0
SPLINE
  5
2FC3
330
3201
100
AcDbEntity
  8
TEXT
 62
     5
420
      255
370
    25
100
AcDbSpline
210
0.0
220
0.0
230
1.0
 70
     8
 71
     3
 72
     8
 73
     4
 74
     0
 42
0.000000001
 43
0.001
 12
1.0
 22
0.0
 32
0.0
 13
1.0
 23
0.0
 33
0.0
 40
0.0
 40
0.0
 40
0.0
 40
0.0
 40
1.0
 40
1.0
 40
1.0
 40
1.0
 10
347.5095812500082
 20
234.6659687499999
 30
0.0
 10
347.5095812500082
 20
235.50381625
 30
0.0
 10
347.8436612500083
 20
236.222425
 30
0.0
 10
348.7746412500082
 20
236.222425
 30
0.0
  0
SPLINE
  5
2FC4
330
3201
100
AcDbEntity
  8
TEXT
 62
     5
420
      255
370
    25
100
AcDbSpline
210
0.0
220
0.0
230
1.0
 70
     8
 71
     3
 72
     8
 73
     4
 74
     0
 42
0.000000001
 43
0.001
 12
1.0
 22
0.0
 32
0.0
 13
1.0
 23
0.0
 33
0.0
 40
0.0
 40
0.0
 40
0.0
 40
0.0
 40
1.0
 40
1.0
 40
1.0
 40
1.0
 10
348.7746412500082
 20
236.222425
 30
0.0
 10
349.7056225000082
 20
236.222425
 30
0.0
 10
350.0397025000081
 20
235.50381625
 30
0.0
 10
350.0397025000081
 20
234.6659687499999
 30
0.0
  0
SPLINE
  5
2FC5
330
3201
100
AcDbEntity
  8
TEXT
 62
     5
420
      255
370
    25
100
AcDbSpline
210
0.0
220
0.0
230
1.0
 70
     8
 71
     3
 72
     8
 73
     4
 74
     0
 42
0.000000001
 43
0.001
 12
1.0
 22
0.0
 32
0.0
 13
1.0
 23
0.0
 33
0.0
 40
0.0
 40
0.0
 40
0.0
 40
0.0
 40
1.0
 40
1.0
 40
1.0
 40
1.0
 10
350.0397025000081
 20
234.6659687499999
 30
0.0
 10
350.0397025000081
 20
233.8281224999999
 30
0.0
 10
349.7056225000082
 20
233.1091612500001
 30
0.0
 10
348.7746412500082
 20
233.1091612500001
 30
0.0
  0
LWPOLYLINE
  5
2FC6
330
3201
100
AcDbEntity
  8
TEXT
 62
     5
420
      255
370
    25
100
AcDbPolyline
 90
        3
 70
     0
 43
0.0
 10
350.8239275000082
 20
233.1761887500001
 10
350.7142137500081
 20
233.1761887500001
 10
350.7142137500081
 20
236.1546912499999
  0
SPLINE
  5
2FC7
330
3201
100
AcDbEntity
  8
TEXT
 62
     5
420
      255
370
    25
100
AcDbSpline
210
0.0
220
0.0
230
1.0
 70
     8
 71
     3
 72
     8
 73
     4
 74
     0
 42
0.000000001
 43
0.001
 12
1.0
 22
0.0
 32
0.0
 13
1.0
 23
0.0
 33
0.0
 40
0.0
 40
0.0
 40
0.0
 40
0.0
 40
1.0
 40
1.0
 40
1.0
 40
1.0
 10
390.6931087500085
 20
203.85894375
 30
0.0
 10
390.7820087500076
 20
204.6671574999999
 30
0.0
 10
391.5094362500085
 20
205.0732050000001
 30
0.0
 10
392.2075837500085
 20
205.0732050000001
 30
0.0
  0
SPLINE
  5
2FC8
330
3201
100
AcDbEntity
  8
TEXT
 62
     5
420
      255
370
    25
100
AcDbSpline
210
0.0
220
0.0
230
1.0
 70
     8
 71
     3
 72
     8
 73
     4
 74
     0
 42
0.000000001
 43
0.001
 12
1.0
 22
0.0
 32
0.0
 13
1.0
 23
0.0
 33
0.0
 40
0.0
 40
0.0
 40
0.0
 40
0.0
 40
1.0
 40
1.0
 40
1.0
 40
1.0
 10
392.2075837500085
 20
205.0732050000001
 30
0.0
 10
393.0708312500087
 20
205.0732050000001
 30
0.0
 10
393.7728587500087
 20
204.4935912499999
 30
0.0
 10
393.7728587500087
 20
203.49523
 30
0.0
  0
SPLINE
  5
2FC9
330
3201
100
AcDbEntity
  8
TEXT
 62
     5
420
      255
370
    25
100
AcDbSpline
210
0.0
220
0.0
230
1.0
 70
     8
 71
     3
 72
     8
 73
     4
 74
     0
 42
0.000000001
 43
0.001
 12
1.0
 22
0.0
 32
0.0
 13
1.0
 23
0.0
 33
0.0
 40
0.0
 40
0.0
 40
0.0
 40
0.0
 40
1.0
 40
1.0
 40
1.0
 40
1.0
 10
393.7728587500087
 20
203.49523
 30
0.0
 10
393.7728587500087
 20
202.49686875
 30
0.0
 10
393.0708312500087
 20
201.9176074999999
 30
0.0
 10
392.2075837500085
 20
201.9176074999999
 30
0.0
  0
SPLINE
  5
2FCA
330
3201
100
AcDbEntity
  8
TEXT
 62
     5
420
      255
370
    25
100
AcDbSpline
210
0.0
220
0.0
230
1.0
 70
     8
 71
     3
 72
     8
 73
     4
 74
     0
 42
0.000000001
 43
0.001
 12
1.0
 22
0.0
 32
0.0
 13
1.0
 23
0.0
 33
0.0
 40
0.0
 40
0.0
 40
0.0
 40
0.0
 40
1.0
 40
1.0
 40
1.0
 40
1.0
 10
392.2075837500085
 20
201.9176074999999
 30
0.0
 10
391.4921500000086
 20
201.9176074999999
 30
0.0
 10
390.9255887500087
 20
202.20865
 30
0.0
 10
390.7647225000086
 20
202.86481625
 30
0.0
  0
SPLINE
  5
2FCB
330
3201
100
AcDbEntity
  8
TEXT
 62
     5
420
      255
370
    25
100
AcDbSpline
210
0.0
220
0.0
230
1.0
 70
     8
 71
     3
 72
     8
 73
     4
 74
     0
 42
0.000000001
 43
0.001
 12
1.0
 22
0.0
 32
0.0
 13
1.0
 23
0.0
 33
0.0
 40
0.0
 40
0.0
 40
0.0
 40
0.0
 40
1.0
 40
1.0
 40
1.0
 40
1.0
 10
398.7815975000087
 20
202.6573825000002
 30
0.0
 10
398.3240450000087
 20
202.5430825
 30
0.0
 10
398.0195975000085
 20
202.3017825000001
 30
0.0
 10
397.8417975000086
 20
202.0939975
 30
0.0
  0
SPLINE
  5
2FCC
330
3201
100
AcDbEntity
  8
TEXT
 62
     5
420
      255
370
    25
100
AcDbSpline
210
0.0
220
0.0
230
1.0
 70
     8
 71
     3
 72
     8
 73
     4
 74
     0
 42
0.000000001
 43
0.001
 12
1.0
 22
0.0
 32
0.0
 13
1.0
 23
0.0
 33
0.0
 40
0.0
 40
0.0
 40
0.0
 40
0.0
 40
1.0
 40
1.0
 40
1.0
 40
1.0
 10
395.7928637500085
 20
202.0269687500001
 30
0.0
 10
394.8618837500086
 20
202.0269687500001
 30
0.0
 10
394.5278025000086
 20
202.7462824999999
 30
0.0
 10
394.5278025000086
 20
203.58413
 30
0.0
  0
SPLINE
  5
2FCD
330
3201
100
AcDbEntity
  8
TEXT
 62
     5
420
      255
370
    25
100
AcDbSpline
210
0.0
220
0.0
230
1.0
 70
     8
 71
     3
 72
     8
 73
     4
 74
     0
 42
0.000000001
 43
0.001
 12
1.0
 22
0.0
 32
0.0
 13
1.0
 23
0.0
 33
0.0
 40
0.0
 40
0.0
 40
0.0
 40
0.0
 40
1.0
 40
1.0
 40
1.0
 40
1.0
 10
394.5278025000086
 20
203.58413
 30
0.0
 10
394.5278025000086
 20
204.4219775000001
 30
0.0
 10
394.8618837500086
 20
205.14058625
 30
0.0
 10
395.7928637500085
 20
205.14058625
 30
0.0
  0
SPLINE
  5
2FCE
330
3201
100
AcDbEntity
  8
TEXT
 62
     5
420
      255
370
    25
100
AcDbSpline
210
0.0
220
0.0
230
1.0
 70
     8
 71
     3
 72
     8
 73
     4
 74
     0
 42
0.000000001
 43
0.001
 12
1.0
 22
0.0
 32
0.0
 13
1.0
 23
0.0
 33
0.0
 40
0.0
 40
0.0
 40
0.0
 40
0.0
 40
1.0
 40
1.0
 40
1.0
 40
1.0
 10
395.7928637500085
 20
205.14058625
 30
0.0
 10
396.7234912500086
 20
205.14058625
 30
0.0
 10
397.0579250000087
 20
204.4219775000001
 30
0.0
 10
397.0579250000087
 20
203.58413
 30
0.0
  0
SPLINE
  5
2FCF
330
3201
100
AcDbEntity
  8
TEXT
 62
     5
420
      255
370
    25
100
AcDbSpline
210
0.0
220
0.0
230
1.0
 70
     8
 71
     3
 72
     8
 73
     4
 74
     0
 42
0.000000001
 43
0.001
 12
1.0
 22
0.0
 32
0.0
 13
1.0
 23
0.0
 33
0.0
 40
0.0
 40
0.0
 40
0.0
 40
0.0
 40
1.0
 40
1.0
 40
1.0
 40
1.0
 10
397.0579250000087
 20
203.58413
 30
0.0
 10
397.0579250000087
 20
202.7462824999999
 30
0.0
 10
396.7234912500086
 20
202.0269687500001
 30
0.0
 10
395.7928637500085
 20
202.0269687500001
 30
0.0
  0
LWPOLYLINE
  5
2FD0
330
3201
100
AcDbEntity
  8
TEXT
 62
     5
420
      255
370
    25
100
AcDbPolyline
 90
        3
 70
     0
 43
0.0
 10
397.8417975000086
 20
202.0939975
 10
397.7324362500087
 20
202.0939975
 10
397.7324362500087
 20
205.0728525
  0
LWPOLYLINE
  5
2FD3
330
3201
100
AcDbEntity
  8
TEXT
 62
     5
420
      255
370
    25
100
AcDbPolyline
 90
        4
 70
     0
 43
0.0
 10
534.8483387500087
 20
236.4153937499999
 10
533.4520450000086
 20
233.3980862499999
 10
533.3423312500086
 20
233.3980862499999
 10
531.9629700000087
 20
236.4228025
  0
SPLINE
  5
2FD4
330
3201
100
AcDbEntity
  8
TEXT
 62
     5
420
      255
370
    25
100
AcDbSpline
210
0.0
220
0.0
230
1.0
 70
     8
 71
     3
 72
     8
 73
     4
 74
     0
 42
0.000000001
 43
0.001
 12
1.0
 22
0.0
 32
0.0
 13
1.0
 23
0.0
 33
0.0
 40
0.0
 40
0.0
 40
0.0
 40
0.0
 40
1.0
 40
1.0
 40
1.0
 40
1.0
 10
539.3212087500087
 20
233.9836974999999
 30
0.0
 10
538.8636562500087
 20
233.8693975
 30
0.0
 10
538.5592087500086
 20
233.6280975
 30
0.0
 10
538.3814087500086
 20
233.42066375
 30
0.0
  0
LWPOLYLINE
  5
2FD5
330
3201
100
AcDbEntity
  8
TEXT
 62
     5
420
      255
370
    25
100
AcDbPolyline
 90
        2
 70
     0
 43
0.0
 10
532.4194637500086
 20
235.42303
 10
534.3943137500087
 20
235.4170324999999
  0
SPLINE
  5
2FD6
330
3201
100
AcDbEntity
  8
TEXT
 62
     5
420
      255
370
    25
100
AcDbSpline
210
0.0
220
0.0
230
1.0
 70
     8
 71
     3
 72
     8
 73
     4
 74
     0
 42
0.000000001
 43
0.001
 12
1.0
 22
0.0
 32
0.0
 13
1.0
 23
0.0
 33
0.0
 40
0.0
 40
0.0
 40
0.0
 40
0.0
 40
1.0
 40
1.0
 40
1.0
 40
1.0
 10
536.3321225000086
 20
233.3532825
 30
0.0
 10
535.4011412500085
 20
233.3532825
 30
0.0
 10
535.0670612500087
 20
234.0725974999999
 30
0.0
 10
535.0670612500087
 20
234.9104437499999
 30
0.0
  0
SPLINE
  5
2FD7
330
3201
100
AcDbEntity
  8
TEXT
 62
     5
420
      255
370
    25
100
AcDbSpline
210
0.0
220
0.0
230
1.0
 70
     8
 71
     3
 72
     8
 73
     4
 74
     0
 42
0.000000001
 43
0.001
 12
1.0
 22
0.0
 32
0.0
 13
1.0
 23
0.0
 33
0.0
 40
0.0
 40
0.0
 40
0.0
 40
0.0
 40
1.0
 40
1.0
 40
1.0
 40
1.0
 10
535.0670612500087
 20
234.9104437499999
 30
0.0
 10
535.0670612500087
 20
235.74829125
 30
0.0
 10
535.4011412500085
 20
236.4669
 30
0.0
 10
536.3321225000086
 20
236.4669
 30
0.0
  0
SPLINE
  5
2FD8
330
3201
100
AcDbEntity
  8
TEXT
 62
     5
420
      255
370
    25
100
AcDbSpline
210
0.0
220
0.0
230
1.0
 70
     8
 71
     3
 72
     8
 73
     4
 74
     0
 42
0.000000001
 43
0.001
 12
1.0
 22
0.0
 32
0.0
 13
1.0
 23
0.0
 33
0.0
 40
0.0
 40
0.0
 40
0.0
 40
0.0
 40
1.0
 40
1.0
 40
1.0
 40
1.0
 10
536.3321225000086
 20
236.4669
 30
0.0
 10
537.2631025000087
 20
236.4669
 30
0.0
 10
537.5971837500085
 20
235.74829125
 30
0.0
 10
537.5971837500085
 20
234.9104437499999
 30
0.0
  0
SPLINE
  5
2FD9
330
3201
100
AcDbEntity
  8
TEXT
 62
     5
420
      255
370
    25
100
AcDbSpline
210
0.0
220
0.0
230
1.0
 70
     8
 71
     3
 72
     8
 73
     4
 74
     0
 42
0.000000001
 43
0.001
 12
1.0
 22
0.0
 32
0.0
 13
1.0
 23
0.0
 33
0.0
 40
0.0
 40
0.0
 40
0.0
 40
0.0
 40
1.0
 40
1.0
 40
1.0
 40
1.0
 10
537.5971837500085
 20
234.9104437499999
 30
0.0
 10
537.5971837500085
 20
234.0725974999999
 30
0.0
 10
537.2631025000087
 20
233.3532825
 30
0.0
 10
536.3321225000086
 20
233.3532825
 30
0.0
  0
LWPOLYLINE
  5
2FDA
330
3201
100
AcDbEntity
  8
TEXT
 62
     5
420
      255
370
    25
100
AcDbPolyline
 90
        3
 70
     0
 43
0.0
 10
538.3814087500086
 20
233.42066375
 10
538.2716950000085
 20
233.42066375
 10
538.2716950000085
 20
236.3991662499999
  0
LWPOLYLINE
  5
30D1
330
3201
100
AcDbEntity
  8
TEXT
 62
     5
420
      255
370
    25
100
AcDbPolyline
 90
        4
 70
     0
 43
0.0
 10
476.6830450000086
 20
204.5874300000002
 10
475.2867500000086
 20
201.5701224999999
 10
475.1766837500085
 20
201.5701224999999
 10
473.7973225000086
 20
204.5948387499999
  0
LWPOLYLINE
  5
30D4
330
3201
100
AcDbEntity
  8
TEXT
 62
     5
420
      255
370
    25
100
AcDbPolyline
 90
        2
 70
     0
 43
0.0
 10
474.2538162500086
 20
203.5957725
 10
476.2286662500086
 20
203.5901275
  0
SPLINE
  5
30D8
330
3201
100
AcDbEntity
  8
TEXT
 62
     5
420
      255
370
    25
100
AcDbSpline
210
0.0
220
0.0
230
1.0
 70
     8
 71
     3
 72
     8
 73
     4
 74
     0
 42
0.000000001
 43
0.001
 12
1.0
 22
0.0
 32
0.0
 13
1.0
 23
0.0
 33
0.0
 40
0.0
 40
0.0
 40
0.0
 40
0.0
 40
1.0
 40
1.0
 40
1.0
 40
1.0
 10
491.3120337500085
 20
217.05248
 30
0.0
 10
490.6692725000086
 20
217.05248
 30
0.0
 10
490.4741862500086
 20
217.42466125
 30
0.0
 10
490.4741862500086
 20
217.8772750000001
 30
0.0
  0
SPLINE
  5
30DC
330
3201
100
AcDbEntity
  8
TEXT
 62
     5
420
      255
370
    25
100
AcDbSpline
210
0.0
220
0.0
230
1.0
 70
     8
 71
     3
 72
     8
 73
     4
 74
     0
 42
0.000000001
 43
0.001
 12
1.0
 22
0.0
 32
0.0
 13
1.0
 23
0.0
 33
0.0
 40
0.0
 40
0.0
 40
0.0
 40
0.0
 40
1.0
 40
1.0
 40
1.0
 40
1.0
 10
490.4741862500086
 20
217.8772750000001
 30
0.0
 10
490.4741862500086
 20
218.283675
 30
0.0
 10
490.6816200000086
 20
218.6985412499999
 30
0.0
 10
491.4305662500087
 20
218.6985412499999
 30
0.0
  0
LWPOLYLINE
  5
30E0
330
3201
100
AcDbEntity
  8
TEXT
 62
     5
420
      255
370
    25
100
AcDbPolyline
 90
        3
 70
     0
 43
0.0
 10
492.9284612500086
 20
220.07296375
 10
492.9284612500086
 20
217.05248
 10
491.3120337500085
 20
217.05248
  0
LWPOLYLINE
  5
30E3
330
3201
100
AcDbEntity
  8
TEXT
 62
     5
420
      255
370
    25
100
AcDbPolyline
 90
        2
 70
     0
 43
0.0
 10
491.4305662500087
 20
218.6985412499999
 10
492.9284612500086
 20
218.6985412499999
  0
LWPOLYLINE
  5
30E7
330
3201
100
AcDbEntity
  8
TEXT
 62
     5
420
      255
370
    25
100
AcDbPolyline
 90
        3
 70
     0
 43
0.0
 10
488.0520137500086
 20
220.07296375
 10
490.1715025000087
 20
220.07296375
 10
490.1715025000087
 20
217.05248
  0
LWPOLYLINE
  5
30EB
330
3201
100
AcDbEntity
  8
TEXT
 62
     5
420
      255
370
    25
100
AcDbPolyline
 90
        2
 70
     0
 43
0.0
 10
481.7556362500085
 20
218.4572412500001
 10
479.5006812500087
 20
218.4572412500001
  0
SPLINE
  5
30EF
330
3201
100
AcDbEntity
  8
TEXT
 62
     5
420
      255
370
    25
100
AcDbSpline
210
0.0
220
0.0
230
1.0
 70
     8
 71
     3
 72
     8
 73
     4
 74
     0
 42
0.000000001
 43
0.001
 12
1.0
 22
0.0
 32
0.0
 13
1.0
 23
0.0
 33
0.0
 40
0.0
 40
0.0
 40
0.0
 40
0.0
 40
1.0
 40
1.0
 40
1.0
 40
1.0
 10
482.2258887500086
 20
218.9264362500001
 30
0.0
 10
482.3147887500076
 20
219.73465
 30
0.0
 10
483.0425700000087
 20
220.14034375
 30
0.0
 10
483.7407162500087
 20
220.14034375
 30
0.0
  0
SPLINE
  5
30F3
330
3201
100
AcDbEntity
  8
TEXT
 62
     5
420
      255
370
    25
100
AcDbSpline
210
0.0
220
0.0
230
1.0
 70
     8
 71
     3
 72
     8
 73
     4
 74
     0
 42
0.000000001
 43
0.001
 12
1.0
 22
0.0
 32
0.0
 13
1.0
 23
0.0
 33
0.0
 40
0.0
 40
0.0
 40
0.0
 40
0.0
 40
1.0
 40
1.0
 40
1.0
 40
1.0
 10
483.7407162500087
 20
220.14034375
 30
0.0
 10
484.6039637500086
 20
220.14034375
 30
0.0
 10
485.3059912500086
 20
219.5607300000001
 30
0.0
 10
485.3059912500086
 20
218.5623687500001
 30
0.0
  0
SPLINE
  5
30F5
330
3201
100
AcDbEntity
  8
TEXT
 62
     5
420
      255
370
    25
100
AcDbSpline
210
0.0
220
0.0
230
1.0
 70
     8
 71
     3
 72
     8
 73
     4
 74
     0
 42
0.000000001
 43
0.001
 12
1.0
 22
0.0
 32
0.0
 13
1.0
 23
0.0
 33
0.0
 40
0.0
 40
0.0
 40
0.0
 40
0.0
 40
1.0
 40
1.0
 40
1.0
 40
1.0
 10
485.3059912500086
 20
218.5623687500001
 30
0.0
 10
485.3059912500086
 20
217.5640075
 30
0.0
 10
484.6039637500086
 20
216.98439375
 30
0.0
 10
483.7407162500087
 20
216.98439375
 30
0.0
  0
SPLINE
  5
30F7
330
3201
100
AcDbEntity
  8
TEXT
 62
     5
420
      255
370
    25
100
AcDbSpline
210
0.0
220
0.0
230
1.0
 70
     8
 71
     3
 72
     8
 73
     4
 74
     0
 42
0.000000001
 43
0.001
 12
1.0
 22
0.0
 32
0.0
 13
1.0
 23
0.0
 33
0.0
 40
0.0
 40
0.0
 40
0.0
 40
0.0
 40
1.0
 40
1.0
 40
1.0
 40
1.0
 10
483.7407162500087
 20
216.98439375
 30
0.0
 10
483.0256362500085
 20
216.98439375
 30
0.0
 10
482.4587225000086
 20
217.2757887499999
 30
0.0
 10
482.2978562500086
 20
217.9319549999999
 30
0.0
  0
LWPOLYLINE
  5
30F9
330
3201
100
AcDbEntity
  8
TEXT
 62
     5
420
      255
370
    25
100
AcDbPolyline
 90
        4
 70
     0
 43
0.0
 10
479.3779137500086
 20
220.07296375
 10
481.7556362500085
 20
220.07296375
 10
481.7556362500085
 20
217.05248
 10
479.4033137500086
 20
217.05248
  0
LWPOLYLINE
  5
30FB
330
3201
100
AcDbEntity
  8
TEXT
 62
     5
420
      255
370
    25
100
AcDbPolyline
 90
        4
 70
     0
 43
0.0
 10
488.1959475000087
 20
220.07296375
 10
486.8077662500086
 20
217.05248
 10
486.6977000000085
 20
217.05248
 10
485.3098725000086
 20
220.07296375
  0
LWPOLYLINE
  5
30FD
330
3201
100
AcDbEntity
  8
TEXT
 62
     5
420
      255
370
    25
100
AcDbPolyline
 90
        2
 70
     0
 43
0.0
 10
485.7695412500086
 20
219.0746025
 10
487.7447450000085
 20
219.0746025
  0
SPLINE
  5
30FF
330
3201
100
AcDbEntity
  8
TEXT
 62
     5
420
      255
370
    25
100
AcDbSpline
210
0.0
220
0.0
230
1.0
 70
     8
 71
     3
 72
     8
 73
     4
 74
     0
 42
0.000000001
 43
0.001
 12
1.0
 22
0.0
 32
0.0
 13
1.0
 23
0.0
 33
0.0
 40
0.0
 40
0.0
 40
0.0
 40
0.0
 40
1.0
 40
1.0
 40
1.0
 40
1.0
 10
460.0305225000085
 20
217.1523162499999
 30
0.0
 10
459.4258612500086
 20
217.1523162499999
 30
0.0
 10
459.1965562500085
 20
217.4401825
 30
0.0
 10
459.1965562500085
 20
217.97746375
 30
0.0
  0
SPLINE
  5
3101
330
3201
100
AcDbEntity
  8
TEXT
 62
     5
420
      255
370
    25
100
AcDbSpline
210
0.0
220
0.0
230
1.0
 70
     8
 71
     3
 72
     8
 73
     4
 74
     0
 42
0.000000001
 43
0.001
 12
1.0
 22
0.0
 32
0.0
 13
1.0
 23
0.0
 33
0.0
 40
0.0
 40
0.0
 40
0.0
 40
0.0
 40
1.0
 40
1.0
 40
1.0
 40
1.0
 10
459.1965562500085
 20
217.97746375
 30
0.0
 10
459.1965562500085
 20
218.2649775
 30
0.0
 10
459.3916412500086
 20
218.6671437500001
 30
0.0
 10
459.9165750000085
 20
218.6967775000001
 30
0.0
  0
LWPOLYLINE
  5
3103
330
3201
100
AcDbEntity
  8
TEXT
 62
     5
420
      255
370
    25
100
AcDbPolyline
 90
        3
 70
     0
 43
0.0
 10
461.6935162500085
 20
220.173505
 10
461.6935162500085
 20
217.1523162499999
 10
460.0305225000085
 20
217.1523162499999
  0
SPLINE
  5
3105
330
3201
100
AcDbEntity
  8
TEXT
 62
     5
420
      255
370
    25
100
AcDbSpline
210
0.0
220
0.0
230
1.0
 70
     8
 71
     3
 72
     8
 73
     4
 74
     0
 42
0.000000001
 43
0.001
 12
1.0
 22
0.0
 32
0.0
 13
1.0
 23
0.0
 33
0.0
 40
0.0
 40
0.0
 40
0.0
 40
0.0
 40
1.0
 40
1.0
 40
1.0
 40
1.0
 10
459.9204562500085
 20
218.70453875
 30
0.0
 10
459.4551412500086
 20
218.7094775
 30
0.0
 10
459.2515887500085
 20
218.9250249999999
 30
0.0
 10
459.2515887500085
 20
219.3398912500001
 30
0.0
  0
SPLINE
  5
3107
330
3201
100
AcDbEntity
  8
TEXT
 62
     5
420
      255
370
    25
100
AcDbSpline
210
0.0
220
0.0
230
1.0
 70
     8
 71
     3
 72
     8
 73
     4
 74
     0
 42
0.000000001
 43
0.001
 12
1.0
 22
0.0
 32
0.0
 13
1.0
 23
0.0
 33
0.0
 40
0.0
 40
0.0
 40
0.0
 40
0.0
 40
1.0
 40
1.0
 40
1.0
 40
1.0
 10
459.2515887500085
 20
219.3398912500001
 30
0.0
 10
459.2515887500085
 20
219.4499575
 30
0.0
 10
459.2431225000086
 20
220.0507387500001
 30
0.0
 10
459.1838562500085
 20
220.173505
 30
0.0
  0
LWPOLYLINE
  5
3109
330
3201
100
AcDbEntity
  8
TEXT
 62
     5
420
      255
370
    25
100
AcDbPolyline
 90
        3
 70
     0
 43
0.0
 10
459.9165750000085
 20
218.6967775000001
 10
459.9204562500085
 20
218.70453875
 10
461.6935162500085
 20
218.7105362500001
  0
LWPOLYLINE
  5
310B
330
3201
100
AcDbEntity
  8
TEXT
 62
     5
420
      255
370
    25
100
AcDbPolyline
 90
        2
 70
     0
 43
0.0
 10
467.3968750000085
 20
220.173505
 10
467.3968750000085
 20
217.1523162499999
  0
LWPOLYLINE
  5
310D
330
3201
100
AcDbEntity
  8
TEXT
 62
     5
420
      255
370
    25
100
AcDbPolyline
 90
        2
 70
     0
 43
0.0
 10
467.3968750000085
 20
218.5570775
 10
464.8074862500086
 20
218.5570775
  0
LWPOLYLINE
  5
310F
330
3201
100
AcDbEntity
  8
TEXT
 62
     5
420
      255
370
    25
100
AcDbPolyline
 90
        2
 70
     0
 43
0.0
 10
464.8074862500086
 20
217.15196375
 10
464.8074862500086
 20
220.1731524999999
  0
LWPOLYLINE
  5
3111
330
3201
100
AcDbEntity
  8
TEXT
 62
     5
420
      255
370
    25
100
AcDbPolyline
 90
        2
 70
     0
 43
0.0
 10
464.3732162500086
 20
218.5570775
 10
462.1182612500085
 20
218.5570775
  0
LWPOLYLINE
  5
3113
330
3201
100
AcDbEntity
  8
TEXT
 62
     5
420
      255
370
    25
100
AcDbPolyline
 90
        4
 70
     0
 43
0.0
 10
461.9954950000085
 20
220.173505
 10
464.3732162500086
 20
220.173505
 10
464.3732162500086
 20
217.1523162499999
 10
462.0212475000087
 20
217.1523162499999
  0
LWPOLYLINE
  5
3115
330
3201
100
AcDbEntity
  8
TEXT
 62
     5
420
      255
370
    25
100
AcDbPolyline
 90
        2
 70
     0
 43
0.0
 10
458.7965062500086
 20
218.5570775
 10
456.5411975000085
 20
218.5570775
  0
LWPOLYLINE
  5
3117
330
3201
100
AcDbEntity
  8
TEXT
 62
     5
420
      255
370
    25
100
AcDbPolyline
 90
        4
 70
     0
 43
0.0
 10
456.4187837500087
 20
220.173505
 10
458.7965062500086
 20
220.173505
 10
458.7965062500086
 20
217.1523162499999
 10
456.4441837500087
 20
217.1523162499999
  0
LWPOLYLINE
  5
3119
330
3201
100
AcDbEntity
  8
TEXT
 62
     5
420
      255
370
    25
100
AcDbPolyline
 90
        2
 70
     0
 43
0.0
 10
480.6136950000086
 20
214.6867524999999
 10
479.9120200000086
 20
214.6867524999999
  0
LWPOLYLINE
  5
311B
330
3201
100
AcDbEntity
  8
TEXT
 62
     5
420
      255
370
    25
100
AcDbPolyline
 90
        2
 70
     0
 43
0.0
 10
472.2154662500085
 20
215.9373500000001
 10
472.2154662500085
 20
213.3197387500001
  0
LWPOLYLINE
  5
311D
330
3201
100
AcDbEntity
  8
TEXT
 62
     5
420
      255
370
    25
100
AcDbPolyline
 90
        2
 70
     0
 43
0.0
 10
473.3514112500085
 20
213.3197387500001
 10
471.0925750000085
 20
213.3197387500001
  0
SPLINE
  5
311F
330
3201
100
AcDbEntity
  8
TEXT
 62
     5
420
      255
370
    25
100
AcDbSpline
210
0.0
220
0.0
230
1.0
 70
     8
 71
     3
 72
     8
 73
     4
 74
     0
 42
0.000000001
 43
0.001
 12
1.0
 22
0.0
 32
0.0
 13
1.0
 23
0.0
 33
0.0
 40
0.0
 40
0.0
 40
0.0
 40
0.0
 40
1.0
 40
1.0
 40
1.0
 40
1.0
 10
466.6433412500086
 20
213.3197387500001
 30
0.0
 10
466.1191137500086
 20
213.3197387500001
 30
0.0
 10
465.9212062500087
 20
213.5687999999999
 30
0.0
 10
465.9212062500087
 20
214.0344662500001
 30
0.0
  0
SPLINE
  5
3120
330
3201
100
AcDbEntity
  8
TEXT
 62
     5
420
      255
370
    25
100
AcDbSpline
210
0.0
220
0.0
230
1.0
 70
     8
 71
     3
 72
     8
 73
     4
 74
     0
 42
0.000000001
 43
0.001
 12
1.0
 22
0.0
 32
0.0
 13
1.0
 23
0.0
 33
0.0
 40
0.0
 40
0.0
 40
0.0
 40
0.0
 40
1.0
 40
1.0
 40
1.0
 40
1.0
 10
465.9212062500087
 20
214.0344662500001
 30
0.0
 10
465.9212062500087
 20
214.2835275
 30
0.0
 10
466.0901862500086
 20
214.6320725
 30
0.0
 10
466.5442112500086
 20
214.657825
 30
0.0
  0
LWPOLYLINE
  5
3121
330
3201
100
AcDbEntity
  8
TEXT
 62
     5
420
      255
370
    25
100
AcDbPolyline
 90
        3
 70
     0
 43
0.0
 10
468.0837337500085
 20
215.9373500000001
 10
468.0837337500085
 20
213.3197387500001
 10
466.6433412500086
 20
213.3197387500001
  0
SPLINE
  5
3122
330
3201
100
AcDbEntity
  8
TEXT
 62
     5
420
      255
370
    25
100
AcDbSpline
210
0.0
220
0.0
230
1.0
 70
     8
 71
     3
 72
     8
 73
     4
 74
     0
 42
0.000000001
 43
0.001
 12
1.0
 22
0.0
 32
0.0
 13
1.0
 23
0.0
 33
0.0
 40
0.0
 40
0.0
 40
0.0
 40
0.0
 40
1.0
 40
1.0
 40
1.0
 40
1.0
 10
466.5477387500086
 20
214.6652325
 30
0.0
 10
466.1452200000087
 20
214.66911375
 30
0.0
 10
465.9688312500086
 20
214.8557325000001
 30
0.0
 10
465.9688312500086
 20
215.21521375
 30
0.0
  0
SPLINE
  5
3123
330
3201
100
AcDbEntity
  8
TEXT
 62
     5
420
      255
370
    25
100
AcDbSpline
210
0.0
220
0.0
230
1.0
 70
     8
 71
     3
 72
     8
 73
     4
 74
     0
 42
0.000000001
 43
0.001
 12
1.0
 22
0.0
 32
0.0
 13
1.0
 23
0.0
 33
0.0
 40
0.0
 40
0.0
 40
0.0
 40
0.0
 40
1.0
 40
1.0
 40
1.0
 40
1.0
 10
465.9688312500086
 20
215.21521375
 30
0.0
 10
465.9688312500086
 20
215.3108162499999
 30
0.0
 10
465.9617750000086
 20
215.83116375
 30
0.0
 10
465.9102700000087
 20
215.9377025
 30
0.0
  0
SPLINE
  5
3124
330
3201
100
AcDbEntity
  8
TEXT
 62
     5
420
      255
370
    25
100
AcDbSpline
210
0.0
220
0.0
230
1.0
 70
     8
 71
     3
 72
     8
 73
     4
 74
     0
 42
0.000000001
 43
0.001
 12
1.0
 22
0.0
 32
0.0
 13
1.0
 23
0.0
 33
0.0
 40
0.0
 40
0.0
 40
0.0
 40
0.0
 40
1.0
 40
1.0
 40
1.0
 40
1.0
 10
469.7802412500086
 20
213.3197387500001
 30
0.0
 10
469.0323525000085
 20
213.3197387500001
 30
0.0
 10
468.4234587500086
 20
213.82174125
 30
0.0
 10
468.4234587500086
 20
214.6867524999999
 30
0.0
  0
SPLINE
  5
3125
330
3201
100
AcDbEntity
  8
TEXT
 62
     5
420
      255
370
    25
100
AcDbSpline
210
0.0
220
0.0
230
1.0
 70
     8
 71
     3
 72
     8
 73
     4
 74
     0
 42
0.000000001
 43
0.001
 12
1.0
 22
0.0
 32
0.0
 13
1.0
 23
0.0
 33
0.0
 40
0.0
 40
0.0
 40
0.0
 40
0.0
 40
1.0
 40
1.0
 40
1.0
 40
1.0
 10
468.4234587500086
 20
214.6867524999999
 30
0.0
 10
468.4234587500086
 20
215.55176375
 30
0.0
 10
469.0323525000085
 20
216.05376625
 30
0.0
 10
469.7802412500086
 20
216.05376625
 30
0.0
  0
SPLINE
  5
3126
330
3201
100
AcDbEntity
  8
TEXT
 62
     5
420
      255
370
    25
100
AcDbSpline
210
0.0
220
0.0
230
1.0
 70
     8
 71
     3
 72
     8
 73
     4
 74
     0
 42
0.000000001
 43
0.001
 12
1.0
 22
0.0
 32
0.0
 13
1.0
 23
0.0
 33
0.0
 40
0.0
 40
0.0
 40
0.0
 40
0.0
 40
1.0
 40
1.0
 40
1.0
 40
1.0
 10
469.7802412500086
 20
216.05376625
 30
0.0
 10
470.5277775000085
 20
216.05376625
 30
0.0
 10
471.1363200000087
 20
215.55176375
 30
0.0
 10
471.1363200000087
 20
214.6867524999999
 30
0.0
  0
SPLINE
  5
3127
330
3201
100
AcDbEntity
  8
TEXT
 62
     5
420
      255
370
    25
100
AcDbSpline
210
0.0
220
0.0
230
1.0
 70
     8
 71
     3
 72
     8
 73
     4
 74
     0
 42
0.000000001
 43
0.001
 12
1.0
 22
0.0
 32
0.0
 13
1.0
 23
0.0
 33
0.0
 40
0.0
 40
0.0
 40
0.0
 40
0.0
 40
1.0
 40
1.0
 40
1.0
 40
1.0
 10
471.1363200000087
 20
214.6867524999999
 30
0.0
 10
471.1363200000087
 20
213.82174125
 30
0.0
 10
470.5277775000085
 20
213.3197387500001
 30
0.0
 10
469.7802412500086
 20
213.3197387500001
 30
0.0
  0
LWPOLYLINE
  5
3128
330
3201
100
AcDbEntity
  8
TEXT
 62
     5
420
      255
370
    25
100
AcDbPolyline
 90
        3
 70
     0
 43
0.0
 10
466.5442112500086
 20
214.657825
 10
466.5477387500086
 20
214.6652325
 10
468.0837337500085
 20
214.66981875
  0
SPLINE
  5
3129
330
3201
100
AcDbEntity
  8
TEXT
 62
     5
420
      255
370
    25
100
AcDbSpline
210
0.0
220
0.0
230
1.0
 70
     8
 71
     3
 72
     8
 73
     4
 74
     0
 42
0.000000001
 43
0.001
 12
1.0
 22
0.0
 32
0.0
 13
1.0
 23
0.0
 33
0.0
 40
0.0
 40
0.0
 40
0.0
 40
0.0
 40
1.0
 40
1.0
 40
1.0
 40
1.0
 10
474.7078412500086
 20
213.3197387500001
 30
0.0
 10
473.9599525000087
 20
213.3197387500001
 30
0.0
 10
473.3514112500085
 20
213.82174125
 30
0.0
 10
473.3514112500085
 20
214.6867524999999
 30
0.0
  0
SPLINE
  5
312A
330
3201
100
AcDbEntity
  8
TEXT
 62
     5
420
      255
370
    25
100
AcDbSpline
210
0.0
220
0.0
230
1.0
 70
     8
 71
     3
 72
     8
 73
     4
 74
     0
 42
0.000000001
 43
0.001
 12
1.0
 22
0.0
 32
0.0
 13
1.0
 23
0.0
 33
0.0
 40
0.0
 40
0.0
 40
0.0
 40
0.0
 40
1.0
 40
1.0
 40
1.0
 40
1.0
 10
473.3514112500085
 20
214.6867524999999
 30
0.0
 10
473.3514112500085
 20
215.55176375
 30
0.0
 10
473.9599525000087
 20
216.05411875
 30
0.0
 10
474.7078412500086
 20
216.05411875
 30
0.0
  0
SPLINE
  5
312B
330
3201
100
AcDbEntity
  8
TEXT
 62
     5
420
      255
370
    25
100
AcDbSpline
210
0.0
220
0.0
230
1.0
 70
     8
 71
     3
 72
     8
 73
     4
 74
     0
 42
0.000000001
 43
0.001
 12
1.0
 22
0.0
 32
0.0
 13
1.0
 23
0.0
 33
0.0
 40
0.0
 40
0.0
 40
0.0
 40
0.0
 40
1.0
 40
1.0
 40
1.0
 40
1.0
 10
474.7078412500086
 20
216.05411875
 30
0.0
 10
475.4557312500087
 20
216.05411875
 30
0.0
 10
476.0639200000086
 20
215.55176375
 30
0.0
 10
476.0639200000086
 20
214.6867524999999
 30
0.0
  0
SPLINE
  5
312C
330
3201
100
AcDbEntity
  8
TEXT
 62
     5
420
      255
370
    25
100
AcDbSpline
210
0.0
220
0.0
230
1.0
 70
     8
 71
     3
 72
     8
 73
     4
 74
     0
 42
0.000000001
 43
0.001
 12
1.0
 22
0.0
 32
0.0
 13
1.0
 23
0.0
 33
0.0
 40
0.0
 40
0.0
 40
0.0
 40
0.0
 40
1.0
 40
1.0
 40
1.0
 40
1.0
 10
476.0639200000086
 20
214.6867524999999
 30
0.0
 10
476.0639200000086
 20
213.82174125
 30
0.0
 10
475.4557312500087
 20
213.3197387500001
 30
0.0
 10
474.7078412500086
 20
213.3197387500001
 30
0.0
  0
LWPOLYLINE
  5
312D
330
3201
100
AcDbEntity
  8
TEXT
 62
     5
420
      255
370
    25
100
AcDbPolyline
 90
        8
 70
     0
 43
0.0
 10
479.3786200000085
 20
215.9373500000001
 10
479.3786200000085
 20
213.3197387500001
 10
479.2572637500086
 20
213.3197387500001
 10
477.8828412500085
 20
215.86361875
 10
477.8754337500085
 20
215.86361875
 10
476.5080662500085
 20
213.3197387500001
 10
476.3874162500085
 20
213.3197387500001
 10
476.3874162500085
 20
215.9373500000001
  0
LWPOLYLINE
  5
312E
330
3201
100
AcDbEntity
  8
TEXT
 62
     5
420
      255
370
    25
100
AcDbPolyline
 90
        2
 70
     0
 43
0.0
 10
483.1427587500086
 20
214.5329412499999
 10
481.1012337500085
 20
214.5329412499999
  0
SPLINE
  5
312F
330
3201
100
AcDbEntity
  8
TEXT
 62
     5
420
      255
370
    25
100
AcDbSpline
210
0.0
220
0.0
230
1.0
 70
     8
 71
     3
 72
     8
 73
     4
 74
     0
 42
0.000000001
 43
0.001
 12
1.0
 22
0.0
 32
0.0
 13
1.0
 23
0.0
 33
0.0
 40
0.0
 40
0.0
 40
0.0
 40
0.0
 40
1.0
 40
1.0
 40
1.0
 40
1.0
 10
481.1555612500085
 20
202.1564387499999
 30
0.0
 10
480.6980087500087
 20
202.04213875
 30
0.0
 10
480.3935612500076
 20
201.8008387500001
 30
0.0
 10
480.2157612500086
 20
201.593405
 30
0.0
  0
LWPOLYLINE
  5
3130
330
3201
100
AcDbEntity
  8
TEXT
 62
     5
420
      255
370
    25
100
AcDbPolyline
 90
        4
 70
     0
 43
0.0
 10
480.9904612500085
 20
215.9955575000001
 10
483.1427587500086
 20
215.9955575000001
 10
483.1427587500086
 20
213.2611774999999
 10
481.0130387500087
 20
213.2611774999999
  0
SPLINE
  5
3131
330
3201
100
AcDbEntity
  8
TEXT
 62
     5
420
      255
370
    25
100
AcDbSpline
210
0.0
220
0.0
230
1.0
 70
     8
 71
     3
 72
     8
 73
     4
 74
     0
 42
0.000000001
 43
0.001
 12
1.0
 22
0.0
 32
0.0
 13
1.0
 23
0.0
 33
0.0
 40
0.0
 40
0.0
 40
0.0
 40
0.0
 40
1.0
 40
1.0
 40
1.0
 40
1.0
 10
478.1664750000086
 20
201.5256725000001
 30
0.0
 10
477.2354950000085
 20
201.5256725000001
 30
0.0
 10
476.9014137500087
 20
202.2449862499999
 30
0.0
 10
476.9014137500087
 20
203.0828325
 30
0.0
  0
SPLINE
  5
3132
330
3201
100
AcDbEntity
  8
TEXT
 62
     5
420
      255
370
    25
100
AcDbSpline
210
0.0
220
0.0
230
1.0
 70
     8
 71
     3
 72
     8
 73
     4
 74
     0
 42
0.000000001
 43
0.001
 12
1.0
 22
0.0
 32
0.0
 13
1.0
 23
0.0
 33
0.0
 40
0.0
 40
0.0
 40
0.0
 40
0.0
 40
1.0
 40
1.0
 40
1.0
 40
1.0
 10
476.9014137500087
 20
203.0828325
 30
0.0
 10
476.9014137500087
 20
203.9206799999999
 30
0.0
 10
477.2354950000085
 20
204.63928875
 30
0.0
 10
478.1664750000086
 20
204.63928875
 30
0.0
  0
SPLINE
  5
3134
330
3201
100
AcDbEntity
  8
TEXT
 62
     5
420
      255
370
    25
100
AcDbSpline
210
0.0
220
0.0
230
1.0
 70
     8
 71
     3
 72
     8
 73
     4
 74
     0
 42
0.000000001
 43
0.001
 12
1.0
 22
0.0
 32
0.0
 13
1.0
 23
0.0
 33
0.0
 40
0.0
 40
0.0
 40
0.0
 40
0.0
 40
1.0
 40
1.0
 40
1.0
 40
1.0
 10
478.1664750000086
 20
204.63928875
 30
0.0
 10
479.0974562500086
 20
204.63928875
 30
0.0
 10
479.4315362500085
 20
203.9206799999999
 30
0.0
 10
479.4315362500085
 20
203.0828325
 30
0.0
  0
SPLINE
  5
3135
330
3201
100
AcDbEntity
  8
TEXT
 62
     5
420
      255
370
    25
100
AcDbSpline
210
0.0
220
0.0
230
1.0
 70
     8
 71
     3
 72
     8
 73
     4
 74
     0
 42
0.000000001
 43
0.001
 12
1.0
 22
0.0
 32
0.0
 13
1.0
 23
0.0
 33
0.0
 40
0.0
 40
0.0
 40
0.0
 40
0.0
 40
1.0
 40
1.0
 40
1.0
 40
1.0
 10
479.4315362500085
 20
203.0828325
 30
0.0
 10
479.4315362500085
 20
202.2449862499999
 30
0.0
 10
479.0974562500086
 20
201.5256725000001
 30
0.0
 10
478.1664750000086
 20
201.5256725000001
 30
0.0
  0
LWPOLYLINE
  5
3136
330
3201
100
AcDbEntity
  8
TEXT
 62
     5
420
      255
370
    25
100
AcDbPolyline
 90
        3
 70
     0
 43
0.0
 10
480.2157612500086
 20
201.593405
 10
480.1060475000085
 20
201.593405
 10
480.1060475000085
 20
204.5719075
  0
ENDSEC
  0
SECTION
  2
OBJECTS
  0
DICTIONARY
  5
31EF
330
0
100
AcDbDictionary
281
     1
  3
ACAD_GROUP
350
31F0
  3
ACAD_LAYOUT
350
31FC
  3
ACAD_MATERIAL
350
321D
  3
ACAD_MLEADERSTYLE
350
324C
  3
ACAD_MLINESTYLE
350
31F9
  3
ACAD_PLOTSETTINGS
350
31FB
  3
ACAD_PLOTSTYLENAME
350
31F1
  3
ACAD_TABLESTYLE
350
324B
  3
ACAD_VISUALSTYLE
350
320C
  3
QCAD_OBJECTS
350
3222
  0
DICTIONARY
  5
31F0
102
{ACAD_REACTORS
330
31EF
102
}
330
31EF
100
AcDbDictionary
281
     1
  0
DICTIONARY
  5
31FC
102
{ACAD_REACTORS
330
31EF
102
}
330
31EF
100
AcDbDictionary
281
     1
  3
Layout1
350
3200
  3
Layout2
350
3208
  3
Model
350
3204
  0
DICTIONARY
  5
321D
102
{ACAD_REACTORS
330
31EF
102
}
330
31EF
100
AcDbDictionary
281
     1
  3
ByBlock
350
321F
  3
ByLayer
350
321E
  3
Global
350
3220
  0
DICTIONARY
  5
324C
102
{ACAD_REACTORS
330
31EF
102
}
330
31EF
100
AcDbDictionary
281
     1
  0
DICTIONARY
  5
31F9
102
{ACAD_REACTORS
330
31EF
102
}
330
31EF
100
AcDbDictionary
281
     1
  3
Standard
350
31FA
  0
DICTIONARY
  5
31FB
102
{ACAD_REACTORS
330
31EF
102
}
330
31EF
100
AcDbDictionary
281
     1
  0
ACDBDICTIONARYWDFLT
  5
31F1
102
{ACAD_REACTORS
330
31EF
102
}
330
31EF
100
AcDbDictionary
281
     1
  3
Normal
350
31F2
100
AcDbDictionaryWithDefault
340
31F2
  0
DICTIONARY
  5
324B
102
{ACAD_REACTORS
330
31EF
102
}
330
31EF
100
AcDbDictionary
281
     1
  0
DICTIONARY
  5
320C
102
{ACAD_REACTORS
330
31EF
102
}
330
31EF
100
AcDbDictionary
281
     1
  3
2dWireframe
350
3211
  3
3D Hidden
350
3213
  3
3dWireframe
350
3212
  3
Basic
350
3214
  3
Brighten
350
3218
  3
ColorChange
350
321C
  3
Conceptual
350
3216
  3
Dim
350
3217
  3
Facepattern
350
321B
  3
Flat
350
320D
  3
FlatWithEdges
350
320E
  3
Gouraud
350
320F
  3
GouraudWithEdges
350
3210
  3
Linepattern
350
321A
  3
Realistic
350
3215
  3
Thicken
350
3219
  0
DICTIONARY
  5
3222
102
{ACAD_REACTORS
330
31EF
102
}
330
31EF
100
AcDbDictionary
281
     1
  3
Grid/DisplayGrid
350
3231
  3
Grid/GridSpacingX
350
322A
  3
Grid/GridSpacingY
350
322C
  3
MultiPageSettings/Columns
350
3229
  3
MultiPageSettings/GlueMarginBottom
350
3226
  3
MultiPageSettings/GlueMarginsLeft
350
322D
  3
MultiPageSettings/GlueMarginsRight
350
3223
  3
MultiPageSettings/GlueMarginsTop
350
3235
  3
MultiPageSettings/PrintCropMarks
350
3225
  3
MultiPageSettings/Rows
350
322E
  3
PageSettings/OffsetX
350
3233
  3
PageSettings/OffsetY
350
3234
  3
PageSettings/PageOrientation
350
3224
  3
PageSettings/PaperHeight
350
3228
  3
PageSettings/PaperWidth
350
322F
  3
PageSettings/Scale
350
3227
  3
PageSettings/ShowBoundingBox
350
322B
  3
PageSettings/ShowPageBorders
350
3232
  3
UnitSettings/PaperUnit
350
3230
  0
LAYOUT
  5
3200
102
{ACAD_REACTORS
330
31FC
102
}
330
31FC
100
AcDbPlotSettings
  1

  2
none_device
  4

  6

 40
0.0
 41
0.0
 42
0.0
 43
0.0
 44
0.0
 45
0.0
 46
0.0
 47
0.0
 48
0.0
 49
0.0
140
0.0
141
0.0
142
1.0
143
1.0
 70
   688
 72
     0
 73
     0
 74
     5
  7

 75
    16
 76
     0
 77
     2
 78
   300
147
1.0
148
0.0
149
0.0
100
AcDbLayout
  1
Layout1
 70
     1
 71
     1
 10
0.0
 20
0.0
 11
12.0
 21
9.0
 12
0.0
 22
0.0
 32
0.0
 14
1.000000000000000E+20
 24
1.000000000000000E+20
 34
1.000000000000000E+20
 15
-1.000000000000000E+20
 25
-1.000000000000000E+20
 35
-1.000000000000000E+20
146
0.0
 13
0.0
 23
0.0
 33
0.0
 16
1.0
 26
0.0
 36
0.0
 17
0.0
 27
1.0
 37
0.0
 76
     0
330
31FD
  0
LAYOUT
  5
3208
102
{ACAD_REACTORS
330
31FC
102
}
330
31FC
100
AcDbPlotSettings
  1

  2
none_device
  4

  6

 40
0.0
 41
0.0
 42
0.0
 43
0.0
 44
0.0
 45
0.0
 46
0.0
 47
0.0
 48
0.0
 49
0.0
140
0.0
141
0.0
142
1.0
143
1.0
 70
   688
 72
     0
 73
     0
 74
     5
  7

 75
    16
 76
     0
 77
     2
 78
   300
147
1.0
148
0.0
149
0.0
100
AcDbLayout
  1
Layout2
 70
     1
 71
     2
 10
0.0
 20
0.0
 11
0.0
 21
0.0
 12
0.0
 22
0.0
 32
0.0
 14
0.0
 24
0.0
 34
0.0
 15
0.0
 25
0.0
 35
0.0
146
0.0
 13
0.0
 23
0.0
 33
0.0
 16
1.0
 26
0.0
 36
0.0
 17
0.0
 27
1.0
 37
0.0
 76
     0
330
3205
  0
LAYOUT
  5
3204
102
{ACAD_REACTORS
330
31FC
102
}
330
31FC
100
AcDbPlotSettings
  1

  2
none_device
  4

  6

 40
0.0
 41
0.0
 42
0.0
 43
0.0
 44
0.0
 45
0.0
 46
0.0
 47
0.0
 48
0.0
 49
0.0
140
0.0
141
0.0
142
1.0
143
1.0
 70
  1712
 72
     0
 73
     0
 74
     0
  7

 75
     0
 76
     0
 77
     2
 78
   300
147
1.0
148
0.0
149
0.0
100
AcDbLayout
  1
Model
 70
     1
 71
     0
 10
0.0
 20
0.0
 11
12.0
 21
9.0
 12
0.0
 22
0.0
 32
0.0
 14
1.000000000000000E+20
 24
1.000000000000000E+20
 34
1.000000000000000E+20
 15
-1.000000000000000E+20
 25
-1.000000000000000E+20
 35
-1.000000000000000E+20
146
0.0
 13
0.0
 23
0.0
 33
0.0
 16
1.0
 26
0.0
 36
0.0
 17
0.0
 27
1.0
 37
0.0
 76
     0
330
3201
331
320B
  0
MATERIAL
  5
321F
102
{ACAD_REACTORS
330
321D
102
}
330
321D
100
AcDbMaterial
  1
ByBlock
 72
     1
 94
      127
  0
MATERIAL
  5
321E
102
{ACAD_REACTORS
330
321D
102
}
330
321D
100
AcDbMaterial
  1
ByLayer
 72
     1
 94
      127
  0
MATERIAL
  5
3220
102
{ACAD_REACTORS
330
321D
102
}
330
321D
100
AcDbMaterial
  1
Global
 72
     1
 94
      127
  0
MLINESTYLE
  5
31FA
102
{ACAD_REACTORS
330
31F9
102
}
330
31F9
100
AcDbMlineStyle
  2
Standard
 70
     0
  3

 62
   256
 51
90.0
 52
90.0
 71
     2
 49
0.5
 62
   256
  6
BYLAYER
 49
-0.5
 62
   256
  6
BYLAYER
  0
ACDBPLACEHOLDER
  5
31F2
102
{ACAD_REACTORS
330
31F1
102
}
330
31F1
  0
VISUALSTYLE
  5
3211
102
{ACAD_REACTORS
330
320C
102
}
330
320C
100
AcDbVisualStyle
  2
2dWireframe
 70
     4
177
     2
291
     0
 71
     0
176
     1
 72
     2
176
     1
 73
     0
176
     1
 90
        0
176
     1
 40
-0.6
176
     1
 41
-30.0
176
     1
 62
     5
 63
     7
421
 16777215
176
     1
 74
     1
176
     1
 91
        4
176
     1
 64
     7
176
     1
 65
   257
176
     1
 75
     1
176
     1
175
     1
176
     1
 42
1.0
176
     1
 92
        0
176
     1
 66
   257
176
     1
 43
1.0
176
     1
 76
     1
176
     1
 77
     6
176
     1
 78
     2
176
     1
 67
     7
176
     1
 79
     5
176
     1
170
     0
176
     1
171
     0
176
     1
290
     0
176
     1
 93
        1
176
     1
 44
0.0
176
     1
173
     0
176
     1
  0
VISUALSTYLE
  5
3213
102
{ACAD_REACTORS
330
320C
102
}
330
320C
100
AcDbVisualStyle
  2
3D Hidden
 70
     6
177
     2
291
     0
 71
     1
176
     1
 72
     2
176
     1
 73
     2
176
     1
 90
        0
176
     1
 40
-0.6
176
     1
 41
-30.0
176
     1
 62
     5
 63
     7
421
 16777215
176
     1
 74
     2
176
     1
 91
        2
176
     1
 64
     7
176
     1
 65
   257
176
     1
 75
     2
176
     1
175
     1
176
     1
 42
40.0
176
     1
 92
        0
176
     1
 66
   257
176
     1
 43
1.0
176
     1
 76
     1
176
     1
 77
     6
176
     1
 78
     2
176
     1
 67
     7
176
     1
 79
     3
176
     1
170
     0
176
     1
171
     0
176
     1
290
     0
176
     1
 93
        1
176
     1
 44
0.0
176
     1
173
     0
176
     1
  0
VISUALSTYLE
  5
3212
102
{ACAD_REACTORS
330
320C
102
}
330
320C
100
AcDbVisualStyle
  2
3dWireframe
 70
     5
177
     2
291
     0
 71
     0
176
     1
 72
     2
176
     1
 73
     0
176
     1
 90
        0
176
     1
 40
-0.6
176
     1
 41
-30.0
176
     1
 62
     5
 63
     7
421
 16777215
176
     1
 74
     1
176
     1
 91
        4
176
     1
 64
     7
176
     1
 65
   257
176
     1
 75
     1
176
     1
175
     1
176
     1
 42
1.0
176
     1
 92
        0
176
     1
 66
   257
176
     1
 43
1.0
176
     1
 76
     1
176
     1
 77
     6
176
     1
 78
     2
176
     1
 67
     7
176
     1
 79
     5
176
     1
170
     0
176
     1
171
     0
176
     1
290
     0
176
     1
 93
        1
176
     1
 44
0.0
176
     1
173
     0
176
     1
  0
VISUALSTYLE
  5
3214
102
{ACAD_REACTORS
330
320C
102
}
330
320C
100
AcDbVisualStyle
  2
Basic
 70
     7
177
     2
291
     1
 71
     1
176
     1
 72
     0
176
     1
 73
     1
176
     1
 90
        0
176
     1
 40
-0.6
176
     1
 41
-30.0
176
     1
 62
     5
 63
     7
421
 16777215
176
     1
 74
     0
176
     1
 91
        4
176
     1
 64
     7
176
     1
 65
   257
176
     1
 75
     1
176
     1
175
     1
176
     1
 42
1.0
176
     1
 92
        8
176
     1
 66
     7
176
     1
 43
1.0
176
     1
 76
     1
176
     1
 77
     6
176
     1
 78
     2
176
     1
 67
     7
176
     1
 79
     5
176
     1
170
     0
176
     1
171
     0
176
     1
290
     0
176
     1
 93
        1
176
     1
 44
0.0
176
     1
173
     0
176
     1
  0
VISUALSTYLE
  5
3218
102
{ACAD_REACTORS
330
320C
102
}
330
320C
100
AcDbVisualStyle
  2
Brighten
 70
    12
177
     2
291
     1
 71
     2
176
     1
 72
     2
176
     1
 73
     0
176
     1
 90
        0
176
     1
 40
-0.6
176
     1
 41
-30.0
176
     1
 62
     5
 63
     7
421
 16777215
176
     1
 74
     1
176
     1
 91
        4
176
     1
 64
     7
176
     1
 65
   257
176
     1
 75
     1
176
     1
175
     1
176
     1
 42
1.0
176
     1
 92
        8
176
     1
 66
     7
176
     1
 43
1.0
176
     1
 76
     1
176
     1
 77
     6
176
     1
 78
     2
176
     1
 67
     7
176
     1
 79
     5
176
     1
170
     0
176
     1
171
     0
176
     1
290
     0
176
     1
 93
        1
176
     1
 44
50.0
176
     1
173
     0
176
     1
  0
VISUALSTYLE
  5
321C
102
{ACAD_REACTORS
330
320C
102
}
330
320C
100
AcDbVisualStyle
  2
ColorChange
 70
    16
177
     2
291
     1
 71
     2
176
     1
 72
     2
176
     1
 73
     3
176
     1
 90
        0
176
     1
 40
-0.6
176
     1
 41
-30.0
176
     1
 62
     5
 63
     8
421
  8421504
176
     1
 74
     1
176
     1
 91
        4
176
     1
 64
     7
176
     1
 65
   257
176
     1
 75
     1
176
     1
175
     1
176
     1
 42
1.0
176
     1
 92
        8
176
     1
 66
     8
424
  8421504
176
     1
 43
1.0
176
     1
 76
     1
176
     1
 77
     6
176
     1
 78
     2
176
     1
 67
     7
176
     1
 79
     5
176
     1
170
     0
176
     1
171
     0
176
     1
290
     0
176
     1
 93
        1
176
     1
 44
0.0
176
     1
173
     0
176
     1
  0
VISUALSTYLE
  5
3216
102
{ACAD_REACTORS
330
320C
102
}
330
320C
100
AcDbVisualStyle
  2
Conceptual
 70
     9
177
     2
291
     0
 71
     3
176
     1
 72
     2
176
     1
 73
     0
176
     1
 90
        0
176
     1
 40
-0.6
176
     1
 41
-30.0
176
     1
 62
     5
 63
     7
421
 16777215
176
     1
 74
     2
176
     1
 91
        2
176
     1
 64
     7
176
     1
 65
   257
176
     1
 75
     1
176
     1
175
     1
176
     1
 42
40.0
176
     1
 92
        8
176
     1
 66
     7
176
     1
 43
1.0
176
     1
 76
     1
176
     1
 77
     6
176
     1
 78
     2
176
     1
 67
     7
176
     1
 79
     3
176
     1
170
     0
176
     1
171
     0
176
     1
290
     0
176
     1
 93
        1
176
     1
 44
0.0
176
     1
173
     0
176
     1
  0
VISUALSTYLE
  5
3217
102
{ACAD_REACTORS
330
320C
102
}
330
320C
100
AcDbVisualStyle
  2
Dim
 70
    11
177
     2
291
     1
 71
     2
176
     1
 72
     2
176
     1
 73
     0
176
     1
 90
        0
176
     1
 40
-0.6
176
     1
 41
-30.0
176
     1
 62
     5
 63
     7
421
 16777215
176
     1
 74
     1
176
     1
 91
        4
176
     1
 64
     7
176
     1
 65
   257
176
     1
 75
     1
176
     1
175
     1
176
     1
 42
1.0
176
     1
 92
        8
176
     1
 66
     7
176
     1
 43
1.0
176
     1
 76
     1
176
     1
 77
     6
176
     1
 78
     2
176
     1
 67
     7
176
     1
 79
     5
176
     1
170
     0
176
     1
171
     0
176
     1
290
     0
176
     1
 93
        1
176
     1
 44
-50.0
176
     1
173
     0
176
     1
  0
VISUALSTYLE
  5
321B
102
{ACAD_REACTORS
330
320C
102
}
330
320C
100
AcDbVisualStyle
  2
Facepattern
 70
    15
177
     2
291
     1
 71
     2
176
     1
 72
     2
176
     1
 73
     0
176
     1
 90
        0
176
     1
 40
-0.6
176
     1
 41
-30.0
176
     1
 62
     5
 63
     7
421
 16777215
176
     1
 74
     1
176
     1
 91
        4
176
     1
 64
     7
176
     1
 65
   257
176
     1
 75
     1
176
     1
175
     1
176
     1
 42
1.0
176
     1
 92
        8
176
     1
 66
     7
176
     1
 43
1.0
176
     1
 76
     1
176
     1
 77
     6
176
     1
 78
     2
176
     1
 67
     7
176
     1
 79
     5
176
     1
170
     0
176
     1
171
     0
176
     1
290
     0
176
     1
 93
        1
176
     1
 44
0.0
176
     1
173
     0
176
     1
  0
VISUALSTYLE
  5
320D
102
{ACAD_REACTORS
330
320C
102
}
330
320C
100
AcDbVisualStyle
  2
Flat
 70
     0
177
     2
291
     1
 71
     2
176
     1
 72
     1
176
     1
 73
     1
176
     1
 90
        2
176
     1
 40
-0.6
176
     1
 41
30.0
176
     1
 62
     5
 63
     7
421
 16777215
176
     1
 74
     0
176
     1
 91
        4
176
     1
 64
     7
176
     1
 65
   257
176
     1
 75
     1
176
     1
175
     1
176
     1
 42
1.0
176
     1
 92
        8
176
     1
 66
     7
176
     1
 43
1.0
176
     1
 76
     1
176
     1
 77
     6
176
     1
 78
     2
176
     1
 67
     7
176
     1
 79
     5
176
     1
170
     0
176
     1
171
     0
176
     1
290
     0
176
     1
 93
       13
176
     1
 44
0.0
176
     1
173
     0
176
     1
  0
VISUALSTYLE
  5
320E
102
{ACAD_REACTORS
330
320C
102
}
330
320C
100
AcDbVisualStyle
  2
FlatWithEdges
 70
     1
177
     2
291
     1
 71
     2
176
     1
 72
     1
176
     1
 73
     1
176
     1
 90
        2
176
     1
 40
-0.6
176
     1
 41
30.0
176
     1
 62
     5
 63
     7
421
 16777215
176
     1
 74
     1
176
     1
 91
        4
176
     1
 64
     7
176
     1
 65
   257
176
     1
 75
     1
176
     1
175
     1
176
     1
 42
1.0
176
     1
 92
        0
176
     1
 66
   257
176
     1
 43
1.0
176
     1
 76
     1
176
     1
 77
     6
176
     1
 78
     2
176
     1
 67
     7
176
     1
 79
     5
176
     1
170
     0
176
     1
171
     0
176
     1
290
     0
176
     1
 93
       13
176
     1
 44
0.0
176
     1
173
     0
176
     1
  0
VISUALSTYLE
  5
320F
102
{ACAD_REACTORS
330
320C
102
}
330
320C
100
AcDbVisualStyle
  2
Gouraud
 70
     2
177
     2
291
     1
 71
     2
176
     1
 72
     2
176
     1
 73
     1
176
     1
 90
        2
176
     1
 40
-0.6
176
     1
 41
30.0
176
     1
 62
     5
 63
     7
421
 16777215
176
     1
 74
     0
176
     1
 91
        4
176
     1
 64
     7
176
     1
 65
   257
176
     1
 75
     1
176
     1
175
     1
176
     1
 42
1.0
176
     1
 92
        0
176
     1
 66
     7
176
     1
 43
1.0
176
     1
 76
     1
176
     1
 77
     6
176
     1
 78
     2
176
     1
 67
     7
176
     1
 79
     5
176
     1
170
     0
176
     1
171
     0
176
     1
290
     0
176
     1
 93
       13
176
     1
 44
0.0
176
     1
173
     0
176
     1
  0
VISUALSTYLE
  5
3210
102
{ACAD_REACTORS
330
320C
102
}
330
320C
100
AcDbVisualStyle
  2
GouraudWithEdges
 70
     3
177
     2
291
     1
 71
     2
176
     1
 72
     2
176
     1
 73
     1
176
     1
 90
        2
176
     1
 40
-0.6
176
     1
 41
30.0
176
     1
 62
     5
 63
     7
421
 16777215
176
     1
 74
     1
176
     1
 91
        4
176
     1
 64
     7
176
     1
 65
   257
176
     1
 75
     1
176
     1
175
     1
176
     1
 42
1.0
176
     1
 92
        0
176
     1
 66
   257
176
     1
 43
1.0
176
     1
 76
     1
176
     1
 77
     6
176
     1
 78
     2
176
     1
 67
     7
176
     1
 79
     5
176
     1
170
     0
176
     1
171
     0
176
     1
290
     0
176
     1
 93
       13
176
     1
 44
0.0
176
     1
173
     0
176
     1
  0
VISUALSTYLE
  5
321A
102
{ACAD_REACTORS
330
320C
102
}
330
320C
100
AcDbVisualStyle
  2
Linepattern
 70
    14
177
     2
291
     1
 71
     2
176
     1
 72
     2
176
     1
 73
     0
176
     1
 90
        0
176
     1
 40
-0.6
176
     1
 41
-30.0
176
     1
 62
     5
 63
     7
421
 16777215
176
     1
 74
     1
176
     1
 91
        4
176
     1
 64
     7
176
     1
 65
   257
176
     1
 75
     7
176
     1
175
     7
176
     1
 42
1.0
176
     1
 92
        8
176
     1
 66
     7
176
     1
 43
1.0
176
     1
 76
     1
176
     1
 77
     6
176
     1
 78
     2
176
     1
 67
     7
176
     1
 79
     5
176
     1
170
     0
176
     1
171
     0
176
     1
290
     0
176
     1
 93
        1
176
     1
 44
0.0
176
     1
173
     0
176
     1
  0
VISUALSTYLE
  5
3215
102
{ACAD_REACTORS
330
320C
102
}
330
320C
100
AcDbVisualStyle
  2
Realistic
 70
     8
177
     2
291
     0
 71
     2
176
     1
 72
     2
176
     1
 73
     0
176
     1
 90
        0
176
     1
 40
-0.6
176
     1
 41
-30.0
176
     1
 62
     5
 63
     7
421
 16777215
176
     1
 74
     1
176
     1
 91
        0
176
     1
 64
     7
176
     1
 65
   257
176
     1
 75
     1
176
     1
175
     1
176
     1
 42
1.0
176
     1
 92
        8
176
     1
 66
     8
424
  7895160
176
     1
 43
1.0
176
     1
 76
     1
176
     1
 77
     6
176
     1
 78
     2
176
     1
 67
     7
176
     1
 79
     5
176
     1
170
     0
176
     1
171
     0
176
     1
290
     0
176
     1
 93
       13
176
     1
 44
0.0
176
     1
173
     0
176
     1
  0
VISUALSTYLE
  5
3219
102
{ACAD_REACTORS
330
320C
102
}
330
320C
100
AcDbVisualStyle
  2
Thicken
 70
    13
177
     2
291
     1
 71
     2
176
     1
 72
     2
176
     1
 73
     0
176
     1
 90
        0
176
     1
 40
-0.6
176
     1
 41
-30.0
176
     1
 62
     5
 63
     7
421
 16777215
176
     1
 74
     1
176
     1
 91
        4
176
     1
 64
     7
176
     1
 65
   257
176
     1
 75
     1
176
     1
175
     1
176
     1
 42
1.0
176
     1
 92
       12
176
     1
 66
     7
176
     1
 43
1.0
176
     1
 76
     1
176
     1
 77
     6
176
     1
 78
     2
176
     1
 67
     7
176
     1
 79
     5
176
     1
170
     0
176
     1
171
     0
176
     1
290
     0
176
     1
 93
        1
176
     1
 44
0.0
176
     1
173
     0
176
     1
  0
XRECORD
  5
3231
102
{ACAD_REACTORS
330
3222
102
}
330
3222
100
AcDbXrecord
280
     1
290
     1
  0
XRECORD
  5
322A
102
{ACAD_REACTORS
330
3222
102
}
330
3222
100
AcDbXrecord
280
     1
1000
auto
  0
XRECORD
  5
322C
102
{ACAD_REACTORS
330
3222
102
}
330
3222
100
AcDbXrecord
280
     1
1000
auto
  0
XRECORD
  5
3229
102
{ACAD_REACTORS
330
3222
102
}
330
3222
100
AcDbXrecord
280
     1
 90
        1
  0
XRECORD
  5
3226
102
{ACAD_REACTORS
330
3222
102
}
330
3222
100
AcDbXrecord
280
     1
 40
10.0
  0
XRECORD
  5
322D
102
{ACAD_REACTORS
330
3222
102
}
330
3222
100
AcDbXrecord
280
     1
 40
10.0
  0
XRECORD
  5
3223
102
{ACAD_REACTORS
330
3222
102
}
330
3222
100
AcDbXrecord
280
     1
 40
10.0
  0
XRECORD
  5
3235
102
{ACAD_REACTORS
330
3222
102
}
330
3222
100
AcDbXrecord
280
     1
 40
10.0
  0
XRECORD
  5
3225
102
{ACAD_REACTORS
330
3222
102
}
330
3222
100
AcDbXrecord
280
     1
290
     0
  0
XRECORD
  5
322E
102
{ACAD_REACTORS
330
3222
102
}
330
3222
100
AcDbXrecord
280
     1
 90
        1
  0
XRECORD
  5
3233
102
{ACAD_REACTORS
330
3222
102
}
330
3222
100
AcDbXrecord
280
     1
 40
0.0
  0
XRECORD
  5
3234
102
{ACAD_REACTORS
330
3222
102
}
330
3222
100
AcDbXrecord
280
     1
 40
0.0
  0
XRECORD
  5
3224
102
{ACAD_REACTORS
330
3222
102
}
330
3222
100
AcDbXrecord
280
     1
1000
Portrait
  0
XRECORD
  5
3228
102
{ACAD_REACTORS
330
3222
102
}
330
3222
100
AcDbXrecord
280
     1
 40
297.0
  0
XRECORD
  5
322F
102
{ACAD_REACTORS
330
3222
102
}
330
3222
100
AcDbXrecord
280
     1
 40
210.0
  0
XRECORD
  5
3227
102
{ACAD_REACTORS
330
3222
102
}
330
3222
100
AcDbXrecord
280
     1
1000
1:1
  0
XRECORD
  5
322B
102
{ACAD_REACTORS
330
3222
102
}
330
3222
100
AcDbXrecord
280
     1
290
     0
  0
XRECORD
  5
3232
102
{ACAD_REACTORS
330
3222
102
}
330
3222
100
AcDbXrecord
280
     1
290
     1
  0
XRECORD
  5
3230
102
{ACAD_REACTORS
330
3222
102
}
330
3222
100
AcDbXrecord
280
     1
 90
        4
  0
ENDSEC
  0
EOF
