  0
SECTION
  2
HEADER
  9
$ACADVER
  1
AC1024
  9
$ACADMAINTVER
 70
     6
  9
$DWGCODEPAGE
  3
ASCII
  9
$INSBASE
 10
0.0
 20
0.0
 30
0.0
  9
$EXTMIN
 10
1.000000000000000E+20
 20
1.000000000000000E+20
 30
1.000000000000000E+20
  9
$EXTMAX
 10
-1.000000000000000E+20
 20
-1.000000000000000E+20
 30
-1.000000000000000E+20
  9
$LIMMIN
 10
0.0
 20
0.0
  9
$LIMMAX
 10
12.0
 20
9.0
  9
$ORTHOMODE
 70
     0
  9
$REGENMODE
 70
     1
  9
$FILLMODE
 70
     1
  9
$QTEXTMODE
 70
     0
  9
$MIRRTEXT
 70
     1
  9
$LTSCALE
 40
1.0
  9
$ATTMODE
 70
     1
  9
$TEXTSIZE
 40
0.2
  9
$TRACEWID
 40
0.05
  9
$TEXTSTYLE
  7
Standard
  9
$CLAYER
  8
0
  9
$CELTYPE
  6
ByLayer
  9
$CECOLOR
 62
    18
  9
$CELTSCALE
 40
1.0
  9
$DISPSILH
 70
     0
  9
$DIMSCALE
 40
1.0
  9
$DIMASZ
 40
2.5
  9
$DIMEXO
 40
0.625
  9
$DIMDLI
 40
0.38
  9
$DIMRND
 40
0.0
  9
$DIMDLE
 40
0.0
  9
$DIMEXE
 40
1.25
  9
$DIMTP
 40
0.0
  9
$DIMTM
 40
0.0
  9
$DIMTXT
 40
2.5
  9
$DIMCEN
 40
0.09
  9
$DIMTSZ
 40
0.0
  9
$DIMTOL
 70
     0
  9
$DIMLIM
 70
     0
  9
$DIMTIH
 70
     1
  9
$DIMTOH
 70
     1
  9
$DIMSE1
 70
     0
  9
$DIMSE2
 70
     0
  9
$DIMTAD
 70
     0
  9
$DIMZIN
 70
     8
  9
$DIMBLK
  1

  9
$DIMASO
 70
     1
  9
$DIMSHO
 70
     1
  9
$DIMPOST
  1

  9
$DIMAPOST
  1

  9
$DIMALT
 70
     0
  9
$DIMALTD
 70
     2
  9
$DIMALTF
 40
25.4
  9
$DIMLFAC
 40
1.0
  9
$DIMTOFL
 70
     0
  9
$DIMTVP
 40
0.0
  9
$DIMTIX
 70
     0
  9
$DIMSOXD
 70
     0
  9
$DIMSAH
 70
     0
  9
$DIMBLK1
  1

  9
$DIMBLK2
  1

  9
$DIMSTYLE
  2
Standard
  9
$DIMCLRD
 70
    18
  9
$DIMCLRE
 70
    18
  9
$DIMCLRT
 70
    18
  9
$DIMTFAC
 40
1.0
  9
$DIMGAP
 40
0.625
  9
$DIMJUST
 70
     0
  9
$DIMSD1
 70
     0
  9
$DIMSD2
 70
     0
  9
$DIMTOLJ
 70
     1
  9
$DIMTZIN
 70
     0
  9
$DIMALTZ
 70
     0
  9
$DIMALTTZ
 70
     0
  9
$DIMUPT
 70
     0
  9
$DIMDEC
 70
     4
  9
$DIMTDEC
 70
     4
  9
$DIMALTU
 70
     2
  9
$DIMALTTD
 70
     2
  9
$DIMTXSTY
  7
Standard
  9
$DIMAUNIT
 70
     0
  9
$DIMADEC
 70
     0
  9
$DIMALTRND
 40
0.0
  9
$DIMAZIN
 70
     2
  9
$DIMDSEP
 70
    46
  9
$DIMATFIT
 70
     3
  9
$DIMFRAC
 70
     0
  9
$DIMLDRBLK
  1

  9
$DIMLUNIT
 70
     2
  9
$DIMLWD
 70
    -2
  9
$DIMLWE
 70
    -2
  9
$DIMTMOVE
 70
     0
  9
$DIMFXL
 40
1.0
  9
$DIMFXLON
 70
     0
  9
$DIMJOGANG
 40
0.7853981633974483
  9
$DIMTFILL
 70
     0
  9
$DIMTFILLCLR
 70
     0
  9
$DIMARCSYM
 70
     0
  9
$DIMLTYPE
  6

  9
$DIMLTEX1
  6

  9
$DIMLTEX2
  6

  9
$DIMTXTDIRECTION
 70
     0
  9
$LUNITS
 70
     2
  9
$LUPREC
 70
     4
  9
$SKETCHINC
 40
0.1
  9
$FILLETRAD
 40
0.5
  9
$AUNITS
 70
     0
  9
$AUPREC
 70
     0
  9
$MENU
  1
.
  9
$ELEVATION
 40
0.0
  9
$PELEVATION
 40
0.0
  9
$THICKNESS
 40
0.0
  9
$LIMCHECK
 70
     0
  9
$CHAMFERA
 40
0.5
  9
$CHAMFERB
 40
0.5
  9
$CHAMFERC
 40
1.0
  9
$CHAMFERD
 40
0.0
  9
$SKPOLY
 70
     0
  9
$TDCREATE
 40
2455938.525056852
  9
$TDUCREATE
 40
2455938.733390185
  9
$TDUPDATE
 40
2455938.525056852
  9
$TDUUPDATE
 40
2455938.733390185
  9
$TDINDWG
 40
0.0000000116
  9
$TDUSRTIMER
 40
0.0000000116
  9
$USRTIMER
 70
     1
  9
$ANGBASE
 50
0.0
  9
$ANGDIR
 70
     0
  9
$PDMODE
 70
     0
  9
$PDSIZE
 40
0.0
  9
$PLINEWID
 40
0.0
  9
$SPLFRAME
 70
     0
  9
$SPLINETYPE
 70
     6
  9
$SPLINESEGS
 70
     8
  9
$HANDSEED
  5
2F77
  9
$SURFTAB1
 70
     6
  9
$SURFTAB2
 70
     6
  9
$SURFTYPE
 70
     6
  9
$SURFU
 70
     6
  9
$SURFV
 70
     6
  9
$UCSBASE
  2

  9
$UCSNAME
  2

  9
$UCSORG
 10
0.0
 20
0.0
 30
0.0
  9
$UCSXDIR
 10
1.0
 20
0.0
 30
0.0
  9
$UCSYDIR
 10
0.0
 20
1.0
 30
0.0
  9
$UCSORTHOREF
  2

  9
$UCSORTHOVIEW
 70
     0
  9
$UCSORGTOP
 10
0.0
 20
0.0
 30
0.0
  9
$UCSORGBOTTOM
 10
0.0
 20
0.0
 30
0.0
  9
$UCSORGLEFT
 10
0.0
 20
0.0
 30
0.0
  9
$UCSORGRIGHT
 10
0.0
 20
0.0
 30
0.0
  9
$UCSORGFRONT
 10
0.0
 20
0.0
 30
0.0
  9
$UCSORGBACK
 10
0.0
 20
0.0
 30
0.0
  9
$PUCSBASE
  2

  9
$PUCSNAME
  2

  9
$PUCSORG
 10
0.0
 20
0.0
 30
0.0
  9
$PUCSXDIR
 10
1.0
 20
0.0
 30
0.0
  9
$PUCSYDIR
 10
0.0
 20
1.0
 30
0.0
  9
$PUCSORTHOREF
  2

  9
$PUCSORTHOVIEW
 70
     0
  9
$PUCSORGTOP
 10
0.0
 20
0.0
 30
0.0
  9
$PUCSORGBOTTOM
 10
0.0
 20
0.0
 30
0.0
  9
$PUCSORGLEFT
 10
0.0
 20
0.0
 30
0.0
  9
$PUCSORGRIGHT
 10
0.0
 20
0.0
 30
0.0
  9
$PUCSORGFRONT
 10
0.0
 20
0.0
 30
0.0
  9
$PUCSORGBACK
 10
0.0
 20
0.0
 30
0.0
  9
$USERI1
 70
     0
  9
$USERI2
 70
     0
  9
$USERI3
 70
     0
  9
$USERI4
 70
     0
  9
$USERI5
 70
     0
  9
$USERR1
 40
0.0
  9
$USERR2
 40
0.0
  9
$USERR3
 40
0.0
  9
$USERR4
 40
0.0
  9
$USERR5
 40
0.0
  9
$WORLDVIEW
 70
     1
  9
$SHADEDGE
 70
     3
  9
$SHADEDIF
 70
    70
  9
$TILEMODE
 70
     1
  9
$MAXACTVP
 70
    64
  9
$PINSBASE
 10
0.0
 20
0.0
 30
0.0
  9
$PLIMCHECK
 70
     0
  9
$PEXTMIN
 10
1.000000000000000E+20
 20
1.000000000000000E+20
 30
1.000000000000000E+20
  9
$PEXTMAX
 10
-1.000000000000000E+20
 20
-1.000000000000000E+20
 30
-1.000000000000000E+20
  9
$PLIMMIN
 10
0.0
 20
0.0
  9
$PLIMMAX
 10
12.0
 20
9.0
  9
$UNITMODE
 70
     0
  9
$VISRETAIN
 70
     1
  9
$PLINEGEN
 70
     0
  9
$PSLTSCALE
 70
     1
  9
$TREEDEPTH
 70
  3020
  9
$CMLSTYLE
  2
Standard
  9
$CMLJUST
 70
     0
  9
$CMLSCALE
 40
1.0
  9
$PROXYGRAPHICS
 70
     1
  9
$MEASUREMENT
 70
     1
  9
$CELWEIGHT
370
    -1
  9
$ENDCAPS
280
     0
  9
$JOINSTYLE
280
     0
  9
$LWDISPLAY
290
     0
  9
$INSUNITS
 70
     4
  9
$HYPERLINKBASE
  1

  9
$STYLESHEET
  1

  9
$XEDIT
290
     1
  9
$CEPSNTYPE
380
     0
  9
$PSTYLEMODE
290
     1
  9
$FINGERPRINTGUID
  2
{2A454A9D-78A9-4962-B499-3EBB494D0F48}
  9
$VERSIONGUID
  2
{FAEB1C32-E019-11D5-929B-00C0DF256EC4}
  9
$EXTNAMES
290
     1
  9
$PSVPSCALE
 40
0.0
  9
$OLESTARTUP
290
     0
  9
$SORTENTS
280
   127
  9
$INDEXCTL
280
     0
  9
$HIDETEXT
280
     1
  9
$XCLIPFRAME
280
     2
  9
$HALOGAP
280
     0
  9
$OBSCOLOR
 70
   257
  9
$OBSLTYPE
280
     0
  9
$INTERSECTIONDISPLAY
280
     0
  9
$INTERSECTIONCOLOR
 70
   257
  9
$DIMASSOC
280
     2
  9
$PROJECTNAME
  1

  9
$CAMERADISPLAY
290
     0
  9
$LENSLENGTH
 40
50.0
  9
$CAMERAHEIGHT
 40
0.0
  9
$STEPSPERSEC
 40
2.0
  9
$STEPSIZE
 40
6.0
  9
$3DDWFPREC
 40
2.0
  9
$PSOLWIDTH
 40
0.25
  9
$PSOLHEIGHT
 40
4.0
  9
$LOFTANG1
 40
1.570796326794897
  9
$LOFTANG2
 40
1.570796326794897
  9
$LOFTMAG1
 40
0.0
  9
$LOFTMAG2
 40
0.0
  9
$LOFTPARAM
 70
     7
  9
$LOFTNORMALS
280
     1
  9
$LATITUDE
 40
37.795
  9
$LONGITUDE
 40
-122.394
  9
$NORTHDIRECTION
 40
0.0
  9
$TIMEZONE
 70
 -8000
  9
$LIGHTGLYPHDISPLAY
280
     1
  9
$TILEMODELIGHTSYNCH
280
     1
  9
$SOLIDHIST
280
     1
  9
$SHOWHIST
280
     1
  9
$DWFFRAME
280
     2
  9
$DGNFRAME
280
     2
  9
$REALWORLDSCALE
290
     1
  9
$INTERFERECOLOR
 62
   256
  9
$CSHADOW
280
     0
  9
$SHADOWPLANELOCATION
 40
0.0
  0
ENDSEC
  0
SECTION
  2
CLASSES
  0
CLASS
  1
ACDBDICTIONARYWDFLT
  2
AcDbDictionaryWithDefault
  3
ObjectDBX Classes
 90
        0
 91
        4
280
     0
281
     0
  0
CLASS
  1
VISUALSTYLE
  2
AcDbVisualStyle
  3
ObjectDBX Classes
 90
     4095
 91
        4
280
     0
281
     0
  0
CLASS
  1
MATERIAL
  2
AcDbMaterial
  3
ObjectDBX Classes
 90
     1153
 91
        4
280
     0
281
     0
  0
ENDSEC
  0
SECTION
  2
TABLES
  0
TABLE
  2
VPORT
  5
2F15
330
0
100
AcDbSymbolTable
 70
     1
  0
VPORT
  5
2F35
330
2F15
100
AcDbSymbolTableRecord
100
AcDbViewportTableRecord
  2
*Active
 70
     0
 10
0.0
 20
0.0
 11
1.0
 21
1.0
 12
10.42990654205607
 22
4.5
 13
0.0
 23
0.0
 14
0.5
 24
0.5
 15
0.5
 25
0.5
 16
0.0
 26
0.0
 36
1.0
 17
0.0
 27
0.0
 37
0.0
 40
9.0
 41
1.972972972850329
 42
50.0
 43
0.0
 44
0.0
 50
0.0
 51
0.0
 71
     0
 72
   100
 73
     1
 74
     3
 75
     0
 76
     0
 77
     0
 78
     0
281
     0
 65
     1
110
0.0
120
0.0
130
0.0
111
1.0
121
0.0
131
0.0
112
0.0
122
1.0
132
0.0
 79
     0
146
0.0
 60
     3
 61
     5
292
     1
282
     1
141
0.0
142
0.0
 63
   250
  0
ENDTAB
  0
TABLE
  2
LTYPE
  5
2F12
330
0
100
AcDbSymbolTable
 70
    19
  0
LTYPE
  5
2F20
330
2F12
100
AcDbSymbolTableRecord
100
AcDbLinetypeTableRecord
  2
ByBlock
 70
     0
  3

 72
    65
 73
     0
 40
0.0
  0
LTYPE
  5
2F21
330
2F12
100
AcDbSymbolTableRecord
100
AcDbLinetypeTableRecord
  2
ByLayer
 70
     0
  3

 72
    65
 73
     0
 40
0.0
  0
LTYPE
  5
2F22
330
2F12
100
AcDbSymbolTableRecord
100
AcDbLinetypeTableRecord
  2
Continuous
 70
     0
  3
Solid line
 72
    65
 73
     0
 40
0.0
  0
LTYPE
  5
2F61
330
2F12
100
AcDbSymbolTableRecord
100
AcDbLinetypeTableRecord
  2
BORDER
 70
     0
  3

 72
    65
 73
     6
 40
42.00000000000001
 49
12.0
 74
     0
 49
-6.0
 74
     0
 49
12.0
 74
     0
 49
-5.95
 74
     0
 49
0.1
 74
     0
 49
-5.95
 74
     0
  0
LTYPE
  5
2F62
330
2F12
100
AcDbSymbolTableRecord
100
AcDbLinetypeTableRecord
  2
BORDER2
 70
     0
  3

 72
    65
 73
     6
 40
21.0
 49
6.0
 74
     0
 49
-3.0
 74
     0
 49
6.0
 74
     0
 49
-2.95
 74
     0
 49
0.1
 74
     0
 49
-2.95
 74
     0
  0
LTYPE
  5
2F63
330
2F12
100
AcDbSymbolTableRecord
100
AcDbLinetypeTableRecord
  2
BORDERX2
 70
     0
  3

 72
    65
 73
     6
 40
84.0
 49
24.0
 74
     0
 49
-12.0
 74
     0
 49
24.0
 74
     0
 49
-11.95
 74
     0
 49
0.1
 74
     0
 49
-11.95
 74
     0
  0
LTYPE
  5
2F64
330
2F12
100
AcDbSymbolTableRecord
100
AcDbLinetypeTableRecord
  2
CENTER
 70
     0
  3

 72
    65
 73
     4
 40
50.0
 49
32.0
 74
     0
 49
-6.0
 74
     0
 49
6.0
 74
     0
 49
-6.0
 74
     0
  0
LTYPE
  5
2F65
330
2F12
100
AcDbSymbolTableRecord
100
AcDbLinetypeTableRecord
  2
CENTER2
 70
     0
  3

 72
    65
 73
     4
 40
25.0
 49
16.0
 74
     0
 49
-3.0
 74
     0
 49
3.0
 74
     0
 49
-3.0
 74
     0
  0
LTYPE
  5
2F66
330
2F12
100
AcDbSymbolTableRecord
100
AcDbLinetypeTableRecord
  2
CENTERX2
 70
     0
  3

 72
    65
 73
     4
 40
100.0
 49
64.0
 74
     0
 49
-12.0
 74
     0
 49
12.0
 74
     0
 49
-12.0
 74
     0
  0
LTYPE
  5
2F67
330
2F12
100
AcDbSymbolTableRecord
100
AcDbLinetypeTableRecord
  2
DASHDOT
 70
     0
  3

 72
    65
 73
     4
 40
24.0
 49
12.0
 74
     0
 49
-5.95
 74
     0
 49
0.1
 74
     0
 49
-5.95
 74
     0
  0
LTYPE
  5
2F68
330
2F12
100
AcDbSymbolTableRecord
100
AcDbLinetypeTableRecord
  2
DASHDOT2
 70
     0
  3

 72
    65
 73
     4
 40
12.0
 49
6.0
 74
     0
 49
-2.95
 74
     0
 49
0.1
 74
     0
 49
-2.95
 74
     0
  0
LTYPE
  5
2F69
330
2F12
100
AcDbSymbolTableRecord
100
AcDbLinetypeTableRecord
  2
DASHDOTX2
 70
     0
  3

 72
    65
 73
     4
 40
48.0
 49
24.0
 74
     0
 49
-11.95
 74
     0
 49
0.1
 74
     0
 49
-11.95
 74
     0
  0
LTYPE
  5
2F6A
330
2F12
100
AcDbSymbolTableRecord
100
AcDbLinetypeTableRecord
  2
DASHED
 70
     0
  3

 72
    65
 73
     2
 40
18.0
 49
12.0
 74
     0
 49
-6.0
 74
     0
  0
LTYPE
  5
2F6B
330
2F12
100
AcDbSymbolTableRecord
100
AcDbLinetypeTableRecord
  2
DASHED2
 70
     0
  3

 72
    65
 73
     2
 40
9.0
 49
6.0
 74
     0
 49
-3.0
 74
     0
  0
LTYPE
  5
2F6C
330
2F12
100
AcDbSymbolTableRecord
100
AcDbLinetypeTableRecord
  2
DASHEDX2
 70
     0
  3

 72
    65
 73
     2
 40
36.0
 49
24.0
 74
     0
 49
-12.0
 74
     0
  0
LTYPE
  5
2F6D
330
2F12
100
AcDbSymbolTableRecord
100
AcDbLinetypeTableRecord
  2
DIVIDE
 70
     0
  3

 72
    65
 73
     6
 40
29.99999999999999
 49
12.0
 74
     0
 49
-5.9
 74
     0
 49
0.15
 74
     0
 49
-5.9
 74
     0
 49
0.15
 74
     0
 49
-5.9
 74
     0
  0
LTYPE
  5
2F6E
330
2F12
100
AcDbSymbolTableRecord
100
AcDbLinetypeTableRecord
  2
DIVIDE2
 70
     0
  3

 72
    65
 73
     6
 40
15.0
 49
6.0
 74
     0
 49
-2.9
 74
     0
 49
0.15
 74
     0
 49
-2.9
 74
     0
 49
0.15
 74
     0
 49
-2.9
 74
     0
  0
LTYPE
  5
2F6F
330
2F12
100
AcDbSymbolTableRecord
100
AcDbLinetypeTableRecord
  2
DIVIDEX2
 70
     0
  3

 72
    65
 73
     6
 40
59.99999999999999
 49
24.0
 74
     0
 49
-11.9
 74
     0
 49
0.15
 74
     0
 49
-11.9
 74
     0
 49
0.15
 74
     0
 49
-11.9
 74
     0
  0
LTYPE
  5
2F70
330
2F12
100
AcDbSymbolTableRecord
100
AcDbLinetypeTableRecord
  2
DOT
 70
     0
  3

 72
    65
 73
     2
 40
6.3
 49
0.1
 74
     0
 49
-6.2
 74
     0
  0
LTYPE
  5
2F71
330
2F12
100
AcDbSymbolTableRecord
100
AcDbLinetypeTableRecord
  2
DOT2
 70
     0
  3

 72
    65
 73
     2
 40
3.2
 49
0.1
 74
     0
 49
-3.1
 74
     0
  0
LTYPE
  5
2F72
330
2F12
100
AcDbSymbolTableRecord
100
AcDbLinetypeTableRecord
  2
DOTX2
 70
     0
  3

 72
    65
 73
     2
 40
12.5
 49
0.1
 74
     0
 49
-12.4
 74
     0
  0
ENDTAB
  0
TABLE
  2
LAYER
  5
2F0F
330
0
100
AcDbSymbolTable
 70
     3
  0
LAYER
  5
2F1D
330
2F0F
100
AcDbSymbolTableRecord
100
AcDbLayerTableRecord
  2
0
 70
     0
 62
     7
420
 16777215
  6
Continuous
370
    25
390
2F1C
347
2F4A
  0
LAYER
  5
2F73
330
2F0F
100
AcDbSymbolTableRecord
100
AcDbLayerTableRecord
  2
laser bed referance
 70
     0
 62
     3
420
    65280
  6
Continuous
370
    25
390
2F1C
347
2F4A
  0
LAYER
  5
2F74
330
2F0F
100
AcDbSymbolTableRecord
100
AcDbLayerTableRecord
  2
TEXT
 70
     0
 62
     5
420
      255
  6
Continuous
370
    -3
390
2F1C
347
2F4A
  0
ENDTAB
  0
TABLE
  2
STYLE
  5
2F10
330
0
100
AcDbSymbolTable
 70
     1
  0
STYLE
  5
2F1E
330
2F10
100
AcDbSymbolTableRecord
100
AcDbTextStyleTableRecord
  2
Standard
 70
     0
 40
0.0
 41
1.0
 50
0.0
 71
     0
 42
0.2
  3
txt
  4

  0
ENDTAB
  0
TABLE
  2
VIEW
  5
2F13
330
0
100
AcDbSymbolTable
 70
     0
  0
ENDTAB
  0
TABLE
  2
UCS
  5
2F14
330
0
100
AcDbSymbolTable
 70
     0
  0
ENDTAB
  0
TABLE
  2
APPID
  5
2F16
330
0
100
AcDbSymbolTable
 70
     2
  0
APPID
  5
2F1F
330
2F16
100
AcDbSymbolTableRecord
100
AcDbRegAppTableRecord
  2
ACAD
 70
     0
  0
APPID
  5
2F4B
330
2F16
100
AcDbSymbolTableRecord
100
AcDbRegAppTableRecord
  2
QCAD
 70
     0
  0
ENDTAB
  0
TABLE
  2
DIMSTYLE
  5
2F17
330
0
100
AcDbSymbolTable
 70
     2
100
AcDbDimStyleTable
  0
DIMSTYLE
105
2F33
330
2F17
100
AcDbSymbolTableRecord
100
AcDbDimStyleTableRecord
  2
Standard
 70
     0
178
     0
340
2F1E
  0
DIMSTYLE
105
2F60
330
2F17
100
AcDbSymbolTableRecord
100
AcDbDimStyleTableRecord
  2
QCADDimStyle
 70
     0
 41
2.5
 42
0.625
 44
1.25
 73
     0
 77
     1
140
2.5
147
0.625
178
     0
340
2F1E
  0
ENDTAB
  0
TABLE
  2
BLOCK_RECORD
  5
2F0E
330
0
100
AcDbSymbolTable
 70
     1
  0
BLOCK_RECORD
  5
2F2B
330
2F0E
100
AcDbSymbolTableRecord
100
AcDbBlockTableRecord
  2
*Model_Space
340
2F2E
 70
     0
280
     1
281
     0
  0
BLOCK_RECORD
  5
2F27
330
2F0E
100
AcDbSymbolTableRecord
100
AcDbBlockTableRecord
  2
*Paper_Space
340
2F2A
 70
     0
280
     1
281
     0
  0
BLOCK_RECORD
  5
2F2F
330
2F0E
100
AcDbSymbolTableRecord
100
AcDbBlockTableRecord
  2
*Paper_Space0
340
2F32
 70
     0
280
     1
281
     0
  0
ENDTAB
  0
ENDSEC
  0
SECTION
  2
BLOCKS
  0
BLOCK
  5
2F2C
330
2F2B
100
AcDbEntity
  8
0
100
AcDbBlockBegin
  2
*Model_Space
 70
     0
 10
0.0
 20
0.0
 30
0.0
  3
*Model_Space
  1

  0
ENDBLK
  5
2F2D
330
2F2B
100
AcDbEntity
  8
0
100
AcDbBlockEnd
  0
BLOCK
  5
2F28
330
2F27
100
AcDbEntity
 67
     1
  8
0
100
AcDbBlockBegin
  2
*Paper_Space
 70
     0
 10
0.0
 20
0.0
 30
0.0
  3
*Paper_Space
  1

  0
ENDBLK
  5
2F29
330
2F27
100
AcDbEntity
 67
     1
  8
0
100
AcDbBlockEnd
  0
BLOCK
  5
2F30
330
2F2F
100
AcDbEntity
  8
0
100
AcDbBlockBegin
  2
*Paper_Space0
 70
     0
 10
0.0
 20
0.0
 30
0.0
  3
*Paper_Space0
  1

  0
ENDBLK
  5
2F31
330
2F2F
100
AcDbEntity
  8
0
100
AcDbBlockEnd
  0
ENDSEC
  0
SECTION
  2
ENTITIES
  0
LINE
  5
22
330
2F2B
100
AcDbEntity
  8
laser bed referance
100
AcDbLine
 10
-0.0000000000000187
 20
-304.8
 30
0.0
 11
0.0
 21
0.0
 31
0.0
  0
LINE
  5
2A
330
2F2B
100
AcDbEntity
  8
laser bed referance
100
AcDbLine
 10
0.0
 20
0.0
 30
0.0
 11
304.8
 21
0.0
 31
0.0
  0
LINE
  5
2B
330
2F2B
100
AcDbEntity
  8
laser bed referance
100
AcDbLine
 10
-0.0000000000000187
 20
-304.8
 30
0.0
 11
304.8
 21
-304.8
 31
0.0
  0
LINE
  5
2982
330
2F2B
100
AcDbEntity
  8
laser bed referance
100
AcDbLine
 10
0.0
 20
0.0
 30
0.0
 11
609.6
 21
0.0
 31
0.0
  0
LINE
  5
2983
330
2F2B
100
AcDbEntity
  8
laser bed referance
100
AcDbLine
 10
0.0
 20
-304.8
 30
0.0
 11
0.0
 21
0.0
 31
0.0
  0
LINE
  5
2984
330
2F2B
100
AcDbEntity
  8
laser bed referance
100
AcDbLine
 10
609.6
 20
-304.8
 30
0.0
 11
609.6
 21
0.0
 31
0.0
  0
LINE
  5
2985
330
2F2B
100
AcDbEntity
  8
laser bed referance
100
AcDbLine
 10
0.0
 20
-304.8
 30
0.0
 11
609.6
 21
-304.8
 31
0.0
  0
SPLINE
  5
2E95
330
2F2B
100
AcDbEntity
  8
TEXT
 62
     5
420
      255
100
AcDbSpline
210
0.0
220
0.0
230
1.0
 70
     8
 71
     3
 72
     8
 73
     4
 74
     0
 42
0.000000001
 43
0.001
 12
1.0
 22
0.0
 32
0.0
 13
1.0
 23
0.0
 33
0.0
 40
0.0
 40
0.0
 40
0.0
 40
0.0
 40
1.0
 40
1.0
 40
1.0
 40
1.0
 10
202.8821086991457
 20
-135.8349892972252
 30
0.0
 10
203.5509749491457
 20
-135.8349892972252
 30
0.0
 10
203.9192749491456
 20
-136.0886355472252
 30
0.0
 10
203.9192749491456
 20
-136.5793505472251
 30
0.0
  0
SPLINE
  5
2E96
330
2F2B
100
AcDbEntity
  8
TEXT
 62
     5
420
      255
100
AcDbSpline
210
0.0
220
0.0
230
1.0
 70
     8
 71
     3
 72
     8
 73
     4
 74
     0
 42
0.000000001
 43
0.001
 12
1.0
 22
0.0
 32
0.0
 13
1.0
 23
0.0
 33
0.0
 40
0.0
 40
0.0
 40
0.0
 40
0.0
 40
1.0
 40
1.0
 40
1.0
 40
1.0
 10
203.9192749491456
 20
-136.5793505472251
 30
0.0
 10
203.9192749491456
 20
-136.8291167972252
 30
0.0
 10
203.7622886991457
 20
-137.1928305472251
 30
0.0
 10
203.2253611991457
 20
-137.2309305472251
 30
0.0
  0
LWPOLYLINE
  5
2E97
330
2F2B
100
AcDbEntity
  8
TEXT
 62
     5
420
      255
100
AcDbPolyline
 90
        2
 70
     0
 43
0.0
 10
202.5399136991456
 20
-137.2393967972251
 10
202.5399136991456
 20
-137.2309305472251
  0
SPLINE
  5
2E98
330
2F2B
100
AcDbEntity
  8
TEXT
 62
     5
420
      255
100
AcDbSpline
210
0.0
220
0.0
230
1.0
 70
     8
 71
     3
 72
     8
 73
     4
 74
     0
 42
0.000000001
 43
0.001
 12
1.0
 22
0.0
 32
0.0
 13
1.0
 23
0.0
 33
0.0
 40
0.0
 40
0.0
 40
0.0
 40
0.0
 40
1.0
 40
1.0
 40
1.0
 40
1.0
 10
203.2253611991457
 20
-137.2393967972251
 30
0.0
 10
203.8261411991458
 20
-137.2986642972252
 30
0.0
 10
204.0752024491457
 20
-137.6161642972252
 30
0.0
 10
204.0752024491457
 20
-138.0938255472252
 30
0.0
  0
LWPOLYLINE
  5
2E99
330
2F2B
100
AcDbEntity
  8
TEXT
 62
     5
420
      255
100
AcDbPolyline
 90
        4
 70
     0
 43
0.0
 10
204.4117524491457
 20
-88.72680804722518
 10
205.7999336991457
 20
-85.70597179722506
 10
205.9099999491456
 20
-85.70597179722506
 10
207.2974749491457
 20
-88.72680804722518
  0
SPLINE
  5
2E9A
330
2F2B
100
AcDbEntity
  8
TEXT
 62
     5
420
      255
100
AcDbSpline
210
0.0
220
0.0
230
1.0
 70
     8
 71
     3
 72
     8
 73
     4
 74
     0
 42
0.000000001
 43
0.001
 12
1.0
 22
0.0
 32
0.0
 13
1.0
 23
0.0
 33
0.0
 40
0.0
 40
0.0
 40
0.0
 40
0.0
 40
1.0
 40
1.0
 40
1.0
 40
1.0
 10
204.0752024491457
 20
-138.0938255472252
 30
0.0
 10
204.0752024491457
 20
-138.5545530472251
 30
0.0
 10
203.7792224491456
 20
-138.9482530472251
 30
0.0
 10
202.8817549491457
 20
-138.9482530472251
 30
0.0
  0
LWPOLYLINE
  5
2E9B
330
2F2B
100
AcDbEntity
  8
TEXT
 62
     5
420
      255
100
AcDbPolyline
 90
        2
 70
     0
 43
0.0
 10
206.8381586991456
 20
-87.72915304722517
 10
204.8629549491456
 20
-87.72915304722517
  0
SPLINE
  5
2E9C
330
2F2B
100
AcDbEntity
  8
TEXT
 62
     5
420
      255
100
AcDbSpline
210
0.0
220
0.0
230
1.0
 70
     8
 71
     3
 72
     8
 73
     4
 74
     0
 42
0.000000001
 43
0.001
 12
1.0
 22
0.0
 32
0.0
 13
1.0
 23
0.0
 33
0.0
 40
0.0
 40
0.0
 40
0.0
 40
0.0
 40
1.0
 40
1.0
 40
1.0
 40
1.0
 10
202.8817549491457
 20
-138.9482530472251
 30
0.0
 10
201.9849936991456
 20
-138.9482530472251
 30
0.0
 10
201.6890136991457
 20
-138.5545530472251
 30
0.0
 10
201.6890136991457
 20
-138.0938255472252
 30
0.0
  0
LWPOLYLINE
  5
2E9D
330
2F2B
100
AcDbEntity
  8
TEXT
 62
     5
420
      255
100
AcDbPolyline
 90
        2
 70
     0
 43
0.0
 10
202.4266724491457
 20
-87.0641667972252
 10
203.1124724491456
 20
-87.0641667972252
  0
SPLINE
  5
2E9E
330
2F2B
100
AcDbEntity
  8
TEXT
 62
     5
420
      255
100
AcDbSpline
210
0.0
220
0.0
230
1.0
 70
     8
 71
     3
 72
     8
 73
     4
 74
     0
 42
0.000000001
 43
0.001
 12
1.0
 22
0.0
 32
0.0
 13
1.0
 23
0.0
 33
0.0
 40
0.0
 40
0.0
 40
0.0
 40
0.0
 40
1.0
 40
1.0
 40
1.0
 40
1.0
 10
201.6890136991457
 20
-138.0938255472252
 30
0.0
 10
201.6890136991457
 20
-137.6165167972251
 30
0.0
 10
201.9387799491457
 20
-137.2986642972252
 30
0.0
 10
202.5399136991456
 20
-137.2393967972251
 30
0.0
  0
SPLINE
  5
2E9F
330
2F2B
100
AcDbEntity
  8
TEXT
 62
     5
420
      255
100
AcDbSpline
210
0.0
220
0.0
230
1.0
 70
     8
 71
     3
 72
     8
 73
     4
 74
     0
 42
0.000000001
 43
0.001
 12
1.0
 22
0.0
 32
0.0
 13
1.0
 23
0.0
 33
0.0
 40
0.0
 40
0.0
 40
0.0
 40
0.0
 40
1.0
 40
1.0
 40
1.0
 40
1.0
 10
202.4266724491457
 20
-87.05534679722507
 30
0.0
 10
201.8893911991458
 20
-87.01760054722502
 30
0.0
 10
201.7327586991457
 20
-86.6535330472251
 30
0.0
 10
201.7327586991457
 20
-86.4037667972251
 30
0.0
  0
LWPOLYLINE
  5
2EA0
330
2F2B
100
AcDbEntity
  8
TEXT
 62
     5
420
      255
100
AcDbPolyline
 90
        2
 70
     0
 43
0.0
 10
203.2253611991457
 20
-137.2309305472251
 10
203.2253611991457
 20
-137.2393967972251
  0
SPLINE
  5
2EA1
330
2F2B
100
AcDbEntity
  8
TEXT
 62
     5
420
      255
100
AcDbSpline
210
0.0
220
0.0
230
1.0
 70
     8
 71
     3
 72
     8
 73
     4
 74
     0
 42
0.000000001
 43
0.001
 12
1.0
 22
0.0
 32
0.0
 13
1.0
 23
0.0
 33
0.0
 40
0.0
 40
0.0
 40
0.0
 40
0.0
 40
1.0
 40
1.0
 40
1.0
 40
1.0
 10
201.7327586991457
 20
-86.4037667972251
 30
0.0
 10
201.7327586991457
 20
-85.91305304722505
 30
0.0
 10
202.1007049491457
 20
-85.6594055472251
 30
0.0
 10
202.7692186991457
 20
-85.6594055472251
 30
0.0
  0
SPLINE
  5
2EA2
330
2F2B
100
AcDbEntity
  8
TEXT
 62
     5
420
      255
100
AcDbSpline
210
0.0
220
0.0
230
1.0
 70
     8
 71
     3
 72
     8
 73
     4
 74
     0
 42
0.000000001
 43
0.001
 12
1.0
 22
0.0
 32
0.0
 13
1.0
 23
0.0
 33
0.0
 40
0.0
 40
0.0
 40
0.0
 40
0.0
 40
1.0
 40
1.0
 40
1.0
 40
1.0
 10
202.7692186991457
 20
-85.6594055472251
 30
0.0
 10
203.4373799491457
 20
-85.6594055472251
 30
0.0
 10
203.8060336991458
 20
-85.91305304722505
 30
0.0
 10
203.8060336991458
 20
-86.4037667972251
 30
0.0
  0
SPLINE
  5
2EA3
330
2F2B
100
AcDbEntity
  8
TEXT
 62
     5
420
      255
100
AcDbSpline
210
0.0
220
0.0
230
1.0
 70
     8
 71
     3
 72
     8
 73
     4
 74
     0
 42
0.000000001
 43
0.001
 12
1.0
 22
0.0
 32
0.0
 13
1.0
 23
0.0
 33
0.0
 40
0.0
 40
0.0
 40
0.0
 40
0.0
 40
1.0
 40
1.0
 40
1.0
 40
1.0
 10
203.8060336991458
 20
-86.4037667972251
 30
0.0
 10
203.8060336991458
 20
-86.6535330472251
 30
0.0
 10
203.6490474491456
 20
-87.01760054722502
 30
0.0
 10
203.1124724491456
 20
-87.05534679722507
 30
0.0
  0
LWPOLYLINE
  5
2EA4
330
2F2B
100
AcDbEntity
  8
TEXT
 62
     5
420
      255
100
AcDbPolyline
 90
        2
 70
     0
 43
0.0
 10
202.4266724491457
 20
-87.0641667972252
 10
202.4266724491457
 20
-87.05534679722507
  0
SPLINE
  5
2EA5
330
2F2B
100
AcDbEntity
  8
TEXT
 62
     5
420
      255
100
AcDbSpline
210
0.0
220
0.0
230
1.0
 70
     8
 71
     3
 72
     8
 73
     4
 74
     0
 42
0.000000001
 43
0.001
 12
1.0
 22
0.0
 32
0.0
 13
1.0
 23
0.0
 33
0.0
 40
0.0
 40
0.0
 40
0.0
 40
0.0
 40
1.0
 40
1.0
 40
1.0
 40
1.0
 10
203.1124724491456
 20
-87.0641667972252
 30
0.0
 10
203.7132524491457
 20
-87.12343304722515
 30
0.0
 10
203.9626661991456
 20
-87.4402280472251
 30
0.0
 10
203.9626661991456
 20
-87.91859429722513
 30
0.0
  0
SPLINE
  5
2EA6
330
2F2B
100
AcDbEntity
  8
TEXT
 62
     5
420
      255
100
AcDbSpline
210
0.0
220
0.0
230
1.0
 70
     8
 71
     3
 72
     8
 73
     4
 74
     0
 42
0.000000001
 43
0.001
 12
1.0
 22
0.0
 32
0.0
 13
1.0
 23
0.0
 33
0.0
 40
0.0
 40
0.0
 40
0.0
 40
0.0
 40
1.0
 40
1.0
 40
1.0
 40
1.0
 10
203.9626661991456
 20
-87.91859429722513
 30
0.0
 10
203.9626661991456
 20
-88.37967554722502
 30
0.0
 10
203.6663336991457
 20
-88.77302179722517
 30
0.0
 10
202.7692186991457
 20
-88.77302179722517
 30
0.0
  0
SPLINE
  5
2EA7
330
2F2B
100
AcDbEntity
  8
TEXT
 62
     5
420
      255
100
AcDbSpline
210
0.0
220
0.0
230
1.0
 70
     8
 71
     3
 72
     8
 73
     4
 74
     0
 42
0.000000001
 43
0.001
 12
1.0
 22
0.0
 32
0.0
 13
1.0
 23
0.0
 33
0.0
 40
0.0
 40
0.0
 40
0.0
 40
0.0
 40
1.0
 40
1.0
 40
1.0
 40
1.0
 10
202.7692186991457
 20
-88.77302179722517
 30
0.0
 10
201.8721049491457
 20
-88.77302179722517
 30
0.0
 10
201.5764774491457
 20
-88.37967554722502
 30
0.0
 10
201.5764774491457
 20
-87.91859429722513
 30
0.0
  0
SPLINE
  5
2EA9
330
2F2B
100
AcDbEntity
  8
TEXT
 62
     5
420
      255
100
AcDbSpline
210
0.0
220
0.0
230
1.0
 70
     8
 71
     3
 72
     8
 73
     4
 74
     0
 42
0.000000001
 43
0.001
 12
1.0
 22
0.0
 32
0.0
 13
1.0
 23
0.0
 33
0.0
 40
0.0
 40
0.0
 40
0.0
 40
0.0
 40
1.0
 40
1.0
 40
1.0
 40
1.0
 10
201.5764774491457
 20
-87.91859429722513
 30
0.0
 10
201.5764774491457
 20
-87.4402280472251
 30
0.0
 10
201.8258911991458
 20
-87.12343304722515
 30
0.0
 10
202.4266724491457
 20
-87.0641667972252
 30
0.0
  0
LWPOLYLINE
  5
2EAB
330
2F2B
100
AcDbEntity
  8
TEXT
 62
     5
420
      255
100
AcDbPolyline
 90
        2
 70
     0
 43
0.0
 10
203.1124724491456
 20
-87.05534679722507
 10
203.1124724491456
 20
-87.0641667972252
  0
LWPOLYLINE
  5
2EAD
330
2F2B
100
AcDbEntity
  8
TEXT
 62
     5
420
      255
100
AcDbPolyline
 90
        2
 70
     0
 43
0.0
 10
207.8636836991456
 20
-112.775669297225
 10
210.2241186991457
 20
-110.974739297225
  0
LWPOLYLINE
  5
2EAE
330
2F2B
100
AcDbEntity
  8
TEXT
 62
     5
420
      255
100
AcDbPolyline
 90
        2
 70
     0
 43
0.0
 10
208.7350436991457
 20
-112.1113892972252
 10
210.4894086991457
 20
-113.8470555472251
  0
SPLINE
  5
2EAF
330
2F2B
100
AcDbEntity
  8
TEXT
 62
     5
420
      255
100
AcDbSpline
210
0.0
220
0.0
230
1.0
 70
     8
 71
     3
 72
     8
 73
     4
 74
     0
 42
0.000000001
 43
0.001
 12
1.0
 22
0.0
 32
0.0
 13
1.0
 23
0.0
 33
0.0
 40
0.0
 40
0.0
 40
0.0
 40
0.0
 40
1.0
 40
1.0
 40
1.0
 40
1.0
 10
207.3652086991456
 20
-112.8204717972251
 30
0.0
 10
207.2805411991457
 20
-113.5891755472252
 30
0.0
 10
206.5887436991456
 20
-113.9751142972251
 30
0.0
 10
205.9251686991457
 20
-113.9751142972251
 30
0.0
  0
SPLINE
  5
2EB0
330
2F2B
100
AcDbEntity
  8
TEXT
 62
     5
420
      255
100
AcDbSpline
210
0.0
220
0.0
230
1.0
 70
     8
 71
     3
 72
     8
 73
     4
 74
     0
 42
0.000000001
 43
0.001
 12
1.0
 22
0.0
 32
0.0
 13
1.0
 23
0.0
 33
0.0
 40
0.0
 40
0.0
 40
0.0
 40
0.0
 40
1.0
 40
1.0
 40
1.0
 40
1.0
 10
205.9251686991457
 20
-113.9751142972251
 30
0.0
 10
205.1046086991458
 20
-113.9751142972251
 30
0.0
 10
204.4367999491457
 20
-113.4244280472252
 30
0.0
 10
204.4367999491457
 20
-112.4747505472251
 30
0.0
  0
SPLINE
  5
2EB1
330
2F2B
100
AcDbEntity
  8
TEXT
 62
     5
420
      255
100
AcDbSpline
210
0.0
220
0.0
230
1.0
 70
     8
 71
     3
 72
     8
 73
     4
 74
     0
 42
0.000000001
 43
0.001
 12
1.0
 22
0.0
 32
0.0
 13
1.0
 23
0.0
 33
0.0
 40
0.0
 40
0.0
 40
0.0
 40
0.0
 40
1.0
 40
1.0
 40
1.0
 40
1.0
 10
204.4367999491457
 20
-112.4747505472251
 30
0.0
 10
204.4367999491457
 20
-111.5261305472252
 30
0.0
 10
205.1046086991458
 20
-110.974739297225
 30
0.0
 10
205.9251686991457
 20
-110.974739297225
 30
0.0
  0
SPLINE
  5
2EB2
330
2F2B
100
AcDbEntity
  8
TEXT
 62
     5
420
      255
100
AcDbSpline
210
0.0
220
0.0
230
1.0
 70
     8
 71
     3
 72
     8
 73
     4
 74
     0
 42
0.000000001
 43
0.001
 12
1.0
 22
0.0
 32
0.0
 13
1.0
 23
0.0
 33
0.0
 40
0.0
 40
0.0
 40
0.0
 40
0.0
 40
1.0
 40
1.0
 40
1.0
 40
1.0
 10
205.9251686991457
 20
-110.974739297225
 30
0.0
 10
206.6046186991456
 20
-110.974739297225
 30
0.0
 10
207.1440161991456
 20
-111.251669297225
 30
0.0
 10
207.2971224491458
 20
-111.876439297225
 30
0.0
  0
LWPOLYLINE
  5
2EB3
330
2F2B
100
AcDbEntity
  8
TEXT
 62
     5
420
      255
100
AcDbPolyline
 90
        2
 70
     0
 43
0.0
 10
207.8636836991456
 20
-113.8470555472251
 10
207.8636836991456
 20
-110.974739297225
  0
LWPOLYLINE
  5
2EB4
330
2F2B
100
AcDbEntity
  8
TEXT
 62
     5
420
      255
100
AcDbPolyline
 90
        2
 70
     0
 43
0.0
 10
200.9555886991456
 20
-112.3424580472251
 10
199.2583749491457
 20
-112.3389305472251
  0
SPLINE
  5
2EB5
330
2F2B
100
AcDbEntity
  8
TEXT
 62
     5
420
      255
100
AcDbSpline
210
0.0
220
0.0
230
1.0
 70
     8
 71
     3
 72
     8
 73
     4
 74
     0
 42
0.000000001
 43
0.001
 12
1.0
 22
0.0
 32
0.0
 13
1.0
 23
0.0
 33
0.0
 40
0.0
 40
0.0
 40
0.0
 40
0.0
 40
1.0
 40
1.0
 40
1.0
 40
1.0
 10
200.8190636991457
 20
-110.9743855472251
 30
0.0
 10
201.2737936991458
 20
-110.9743855472251
 30
0.0
 10
201.5905886991457
 20
-111.219919297225
 30
0.0
 10
201.5905886991457
 20
-111.6862917972251
 30
0.0
  0
SPLINE
  5
2EB6
330
2F2B
100
AcDbEntity
  8
TEXT
 62
     5
420
      255
100
AcDbSpline
210
0.0
220
0.0
230
1.0
 70
     8
 71
     3
 72
     8
 73
     4
 74
     0
 42
0.000000001
 43
0.001
 12
1.0
 22
0.0
 32
0.0
 13
1.0
 23
0.0
 33
0.0
 40
0.0
 40
0.0
 40
0.0
 40
0.0
 40
1.0
 40
1.0
 40
1.0
 40
1.0
 10
201.5905886991457
 20
-111.6862917972251
 30
0.0
 10
201.5905886991457
 20
-112.0246055472252
 30
0.0
 10
201.2935499491458
 20
-112.345985547225
 30
0.0
 10
200.9552361991456
 20
-112.337871797225
 30
0.0
  0
LWPOLYLINE
  5
2EB7
330
2F2B
100
AcDbEntity
  8
TEXT
 62
     5
420
      255
100
AcDbPolyline
 90
        2
 70
     0
 43
0.0
 10
199.2583749491457
 20
-110.9743855472251
 10
200.8190636991457
 20
-110.9743855472251
  0
SPLINE
  5
2EB8
330
2F2B
100
AcDbEntity
  8
TEXT
 62
     5
420
      255
100
AcDbSpline
210
0.0
220
0.0
230
1.0
 70
     8
 71
     3
 72
     8
 73
     4
 74
     0
 42
0.000000001
 43
0.001
 12
1.0
 22
0.0
 32
0.0
 13
1.0
 23
0.0
 33
0.0
 40
0.0
 40
0.0
 40
0.0
 40
0.0
 40
1.0
 40
1.0
 40
1.0
 40
1.0
 10
200.9552361991456
 20
-112.345985547225
 30
0.0
 10
201.3295336991457
 20
-112.3622142972251
 30
0.0
 10
201.6794886991456
 20
-112.5625917972251
 30
0.0
 10
201.6794886991456
 20
-113.0660055472251
 30
0.0
  0
SPLINE
  5
2EB9
330
2F2B
100
AcDbEntity
  8
TEXT
 62
     5
420
      255
100
AcDbSpline
210
0.0
220
0.0
230
1.0
 70
     8
 71
     3
 72
     8
 73
     4
 74
     0
 42
0.000000001
 43
0.001
 12
1.0
 22
0.0
 32
0.0
 13
1.0
 23
0.0
 33
0.0
 40
0.0
 40
0.0
 40
0.0
 40
0.0
 40
1.0
 40
1.0
 40
1.0
 40
1.0
 10
201.6794886991456
 20
-113.0660055472251
 30
0.0
 10
201.6794886991456
 20
-113.4000855472251
 30
0.0
 10
201.4667636991457
 20
-113.8467030472251
 30
0.0
 10
200.7142886991457
 20
-113.8467030472251
 30
0.0
  0
LWPOLYLINE
  5
2EBA
330
2F2B
100
AcDbEntity
  8
TEXT
 62
     5
420
      255
100
AcDbPolyline
 90
        2
 70
     0
 43
0.0
 10
200.9552361991456
 20
-112.337871797225
 10
200.9552361991456
 20
-112.345985547225
  0
LWPOLYLINE
  5
2EBB
330
2F2B
100
AcDbEntity
  8
TEXT
 62
     5
420
      255
100
AcDbPolyline
 90
        4
 70
     0
 43
0.0
 10
200.7142886991457
 20
-113.8467030472251
 10
199.2583749491457
 20
-113.8467030472251
 10
199.2583749491457
 20
-110.9743855472251
 10
199.2583749491457
 20
-110.9743855472251
  0
LWPOLYLINE
  5
2EBC
330
2F2B
100
AcDbEntity
  8
TEXT
 62
     5
420
      255
100
AcDbPolyline
 90
        4
 70
     0
 43
0.0
 10
201.6794886991456
 20
-113.8467030472251
 10
202.9988774491457
 20
-110.9743855472251
 10
203.1036524491457
 20
-110.9743855472251
 10
204.4223361991457
 20
-113.8467030472251
  0
LWPOLYLINE
  5
2EC1
330
2F2B
100
AcDbEntity
  8
TEXT
 62
     5
420
      255
100
AcDbPolyline
 90
        2
 70
     0
 43
0.0
 10
203.9863024491456
 20
-112.8966717972251
 10
202.1088186991457
 20
-112.8966717972251
  0
LWPOLYLINE
  5
2EC2
330
2F2B
100
AcDbEntity
  8
TEXT
 62
     5
420
      255
100
AcDbPolyline
 90
        2
 70
     0
 43
0.0
 10
206.3358024491457
 20
-137.2753805472252
 10
204.6385886991457
 20
-137.271853047225
  0
SPLINE
  5
2EC4
330
2F2B
100
AcDbEntity
  8
TEXT
 62
     5
420
      255
100
AcDbSpline
210
0.0
220
0.0
230
1.0
 70
     8
 71
     3
 72
     8
 73
     4
 74
     0
 42
0.000000001
 43
0.001
 12
1.0
 22
0.0
 32
0.0
 13
1.0
 23
0.0
 33
0.0
 40
0.0
 40
0.0
 40
0.0
 40
0.0
 40
1.0
 40
1.0
 40
1.0
 40
1.0
 10
206.1989249491457
 20
-135.9080142972251
 30
0.0
 10
206.6536549491457
 20
-135.9080142972251
 30
0.0
 10
206.9708024491457
 20
-136.1535467972251
 30
0.0
 10
206.9708024491457
 20
-136.6199192972251
 30
0.0
  0
SPLINE
  5
2EC6
330
2F2B
100
AcDbEntity
  8
TEXT
 62
     5
420
      255
100
AcDbSpline
210
0.0
220
0.0
230
1.0
 70
     8
 71
     3
 72
     8
 73
     4
 74
     0
 42
0.000000001
 43
0.001
 12
1.0
 22
0.0
 32
0.0
 13
1.0
 23
0.0
 33
0.0
 40
0.0
 40
0.0
 40
0.0
 40
0.0
 40
1.0
 40
1.0
 40
1.0
 40
1.0
 10
206.9708024491457
 20
-136.6199192972251
 30
0.0
 10
206.9708024491457
 20
-136.9575280472251
 30
0.0
 10
206.6737636991457
 20
-137.2796142972251
 30
0.0
 10
206.3354499491457
 20
-137.2715005472251
 30
0.0
  0
LWPOLYLINE
  5
2EC8
330
2F2B
100
AcDbEntity
  8
TEXT
 62
     5
420
      255
100
AcDbPolyline
 90
        2
 70
     0
 43
0.0
 10
204.6385886991457
 20
-135.9080142972251
 10
206.1989249491457
 20
-135.9080142972251
  0
SPLINE
  5
2ECA
330
2F2B
100
AcDbEntity
  8
TEXT
 62
     5
420
      255
100
AcDbSpline
210
0.0
220
0.0
230
1.0
 70
     8
 71
     3
 72
     8
 73
     4
 74
     0
 42
0.000000001
 43
0.001
 12
1.0
 22
0.0
 32
0.0
 13
1.0
 23
0.0
 33
0.0
 40
0.0
 40
0.0
 40
0.0
 40
0.0
 40
1.0
 40
1.0
 40
1.0
 40
1.0
 10
206.3354499491457
 20
-137.2796142972251
 30
0.0
 10
206.7093936991457
 20
-137.2954892972251
 30
0.0
 10
207.0597024491457
 20
-137.4965717972251
 30
0.0
 10
207.0597024491457
 20
-137.9992805472251
 30
0.0
  0
SPLINE
  5
2ECB
330
2F2B
100
AcDbEntity
  8
TEXT
 62
     5
420
      255
100
AcDbSpline
210
0.0
220
0.0
230
1.0
 70
     8
 71
     3
 72
     8
 73
     4
 74
     0
 42
0.000000001
 43
0.001
 12
1.0
 22
0.0
 32
0.0
 13
1.0
 23
0.0
 33
0.0
 40
0.0
 40
0.0
 40
0.0
 40
0.0
 40
1.0
 40
1.0
 40
1.0
 40
1.0
 10
207.0597024491457
 20
-137.9992805472251
 30
0.0
 10
207.0597024491457
 20
-138.333008047225
 30
0.0
 10
206.8466249491457
 20
-138.7796255472251
 30
0.0
 10
206.0945024491456
 20
-138.7796255472251
 30
0.0
  0
LWPOLYLINE
  5
2ECC
330
2F2B
100
AcDbEntity
  8
TEXT
 62
     5
420
      255
100
AcDbPolyline
 90
        2
 70
     0
 43
0.0
 10
206.3354499491457
 20
-137.2715005472251
 10
206.3354499491457
 20
-137.2796142972251
  0
LWPOLYLINE
  5
2ECD
330
2F2B
100
AcDbEntity
  8
TEXT
 62
     5
420
      255
100
AcDbPolyline
 90
        4
 70
     0
 43
0.0
 10
206.0945024491456
 20
-138.7796255472251
 10
204.6385886991457
 20
-138.7796255472251
 10
204.6385886991457
 20
-135.9080142972251
 10
204.6385886991457
 20
-135.9080142972251
  0
LWPOLYLINE
  5
2ECE
330
2F2B
100
AcDbEntity
  8
TEXT
 62
     5
420
      255
100
AcDbPolyline
 90
        2
 70
     0
 43
0.0
 10
202.5399136991456
 20
-137.2393967972251
 10
203.2253611991457
 20
-137.2393967972251
  0
SPLINE
  5
2ECF
330
2F2B
100
AcDbEntity
  8
TEXT
 62
     5
420
      255
100
AcDbSpline
210
0.0
220
0.0
230
1.0
 70
     8
 71
     3
 72
     8
 73
     4
 74
     0
 42
0.000000001
 43
0.001
 12
1.0
 22
0.0
 32
0.0
 13
1.0
 23
0.0
 33
0.0
 40
0.0
 40
0.0
 40
0.0
 40
0.0
 40
1.0
 40
1.0
 40
1.0
 40
1.0
 10
202.5399136991456
 20
-137.2309305472251
 30
0.0
 10
202.0022799491457
 20
-137.1931830472251
 30
0.0
 10
201.8459999491458
 20
-136.8291167972252
 30
0.0
 10
201.8459999491458
 20
-136.5793505472251
 30
0.0
  0
SPLINE
  5
2ED0
330
2F2B
100
AcDbEntity
  8
TEXT
 62
     5
420
      255
100
AcDbSpline
210
0.0
220
0.0
230
1.0
 70
     8
 71
     3
 72
     8
 73
     4
 74
     0
 42
0.000000001
 43
0.001
 12
1.0
 22
0.0
 32
0.0
 13
1.0
 23
0.0
 33
0.0
 40
0.0
 40
0.0
 40
0.0
 40
0.0
 40
1.0
 40
1.0
 40
1.0
 40
1.0
 10
201.8459999491458
 20
-136.5793505472251
 30
0.0
 10
201.8459999491458
 20
-136.0882830472252
 30
0.0
 10
202.2139474491457
 20
-135.8349892972252
 30
0.0
 10
202.8821086991457
 20
-135.8349892972252
 30
0.0
  0
SPLINE
  5
2ED1
330
2F2B
100
AcDbEntity
  8
TEXT
 62
     5
420
      255
100
AcDbSpline
210
0.0
220
0.0
230
1.0
 70
     8
 71
     3
 72
     8
 73
     4
 74
     0
 42
0.000000001
 43
0.001
 12
1.0
 22
0.0
 32
0.0
 13
1.0
 23
0.0
 33
0.0
 40
0.0
 40
0.0
 40
0.0
 40
0.0
 40
1.0
 40
1.0
 40
1.0
 40
1.0
 10
209.9789975198084
 20
-60.2364130033654
 30
0.0
 10
209.4413637698084
 20
-60.19866550336549
 30
0.0
 10
209.2850837698085
 20
-59.83459925336554
 30
0.0
 10
209.2850837698085
 20
-59.58483300336543
 30
0.0
  0
SPLINE
  5
2ED2
330
2F2B
100
AcDbEntity
  8
TEXT
 62
     5
420
      255
100
AcDbSpline
210
0.0
220
0.0
230
1.0
 70
     8
 71
     3
 72
     8
 73
     4
 74
     0
 42
0.000000001
 43
0.001
 12
1.0
 22
0.0
 32
0.0
 13
1.0
 23
0.0
 33
0.0
 40
0.0
 40
0.0
 40
0.0
 40
0.0
 40
1.0
 40
1.0
 40
1.0
 40
1.0
 10
209.2850837698085
 20
-59.58483300336543
 30
0.0
 10
209.2850837698085
 20
-59.09376550336556
 30
0.0
 10
209.6530312698084
 20
-58.84047175336555
 30
0.0
 10
210.3211925198084
 20
-58.84047175336555
 30
0.0
  0
SPLINE
  5
2ED3
330
2F2B
100
AcDbEntity
  8
TEXT
 62
     5
420
      255
100
AcDbSpline
210
0.0
220
0.0
230
1.0
 70
     8
 71
     3
 72
     8
 73
     4
 74
     0
 42
0.000000001
 43
0.001
 12
1.0
 22
0.0
 32
0.0
 13
1.0
 23
0.0
 33
0.0
 40
0.0
 40
0.0
 40
0.0
 40
0.0
 40
1.0
 40
1.0
 40
1.0
 40
1.0
 10
210.3211925198084
 20
-58.84047175336555
 30
0.0
 10
210.9900587698084
 20
-58.84047175336555
 30
0.0
 10
211.3583587698084
 20
-59.09411800336552
 30
0.0
 10
211.3583587698084
 20
-59.58483300336543
 30
0.0
  0
SPLINE
  5
2ED4
330
2F2B
100
AcDbEntity
  8
TEXT
 62
     5
420
      255
100
AcDbSpline
210
0.0
220
0.0
230
1.0
 70
     8
 71
     3
 72
     8
 73
     4
 74
     0
 42
0.000000001
 43
0.001
 12
1.0
 22
0.0
 32
0.0
 13
1.0
 23
0.0
 33
0.0
 40
0.0
 40
0.0
 40
0.0
 40
0.0
 40
1.0
 40
1.0
 40
1.0
 40
1.0
 10
211.3583587698084
 20
-59.58483300336543
 30
0.0
 10
211.3583587698084
 20
-59.83459925336554
 30
0.0
 10
211.2013725198084
 20
-60.19831300336541
 30
0.0
 10
210.6644450198084
 20
-60.2364130033654
 30
0.0
  0
LWPOLYLINE
  5
2ED5
330
2F2B
100
AcDbEntity
  8
TEXT
 62
     5
420
      255
100
AcDbPolyline
 90
        2
 70
     0
 43
0.0
 10
209.9789975198084
 20
-60.24487925336548
 10
209.9789975198084
 20
-60.2364130033654
  0
SPLINE
  5
2ED6
330
2F2B
100
AcDbEntity
  8
TEXT
 62
     5
420
      255
100
AcDbSpline
210
0.0
220
0.0
230
1.0
 70
     8
 71
     3
 72
     8
 73
     4
 74
     0
 42
0.000000001
 43
0.001
 12
1.0
 22
0.0
 32
0.0
 13
1.0
 23
0.0
 33
0.0
 40
0.0
 40
0.0
 40
0.0
 40
0.0
 40
1.0
 40
1.0
 40
1.0
 40
1.0
 10
210.6644450198084
 20
-60.24487925336548
 30
0.0
 10
211.2652250198085
 20
-60.30414675336552
 30
0.0
 10
211.5142862698085
 20
-60.62164675336551
 30
0.0
 10
211.5142862698085
 20
-61.09930800336549
 30
0.0
  0
LWPOLYLINE
  5
2ED7
330
2F2B
100
AcDbEntity
  8
TEXT
 62
     5
420
      255
100
AcDbPolyline
 90
        4
 70
     0
 43
0.0
 10
211.8508362698084
 20
-11.73229050336552
 10
213.2390175198084
 20
-8.711454253365403
 10
213.3490837698084
 20
-8.711454253365403
 10
214.7365587698085
 20
-11.73229050336552
  0
SPLINE
  5
2ED8
330
2F2B
100
AcDbEntity
  8
TEXT
 62
     5
420
      255
100
AcDbSpline
210
0.0
220
0.0
230
1.0
 70
     8
 71
     3
 72
     8
 73
     4
 74
     0
 42
0.000000001
 43
0.001
 12
1.0
 22
0.0
 32
0.0
 13
1.0
 23
0.0
 33
0.0
 40
0.0
 40
0.0
 40
0.0
 40
0.0
 40
1.0
 40
1.0
 40
1.0
 40
1.0
 10
211.5142862698085
 20
-61.09930800336549
 30
0.0
 10
211.5142862698085
 20
-61.56003550336546
 30
0.0
 10
211.2183062698084
 20
-61.95373550336542
 30
0.0
 10
210.3208387698084
 20
-61.95373550336542
 30
0.0
  0
LWPOLYLINE
  5
2ED9
330
2F2B
100
AcDbEntity
  8
TEXT
 62
     5
420
      255
100
AcDbPolyline
 90
        2
 70
     0
 43
0.0
 10
214.2772425198083
 20
-10.73463550336551
 10
212.3020387698083
 20
-10.73463550336551
  0
SPLINE
  5
2EDA
330
2F2B
100
AcDbEntity
  8
TEXT
 62
     5
420
      255
100
AcDbSpline
210
0.0
220
0.0
230
1.0
 70
     8
 71
     3
 72
     8
 73
     4
 74
     0
 42
0.000000001
 43
0.001
 12
1.0
 22
0.0
 32
0.0
 13
1.0
 23
0.0
 33
0.0
 40
0.0
 40
0.0
 40
0.0
 40
0.0
 40
1.0
 40
1.0
 40
1.0
 40
1.0
 10
210.3208387698084
 20
-61.95373550336542
 30
0.0
 10
209.4240775198083
 20
-61.95373550336542
 30
0.0
 10
209.1280975198085
 20
-61.56003550336546
 30
0.0
 10
209.1280975198085
 20
-61.09930800336549
 30
0.0
  0
LWPOLYLINE
  5
2EDB
330
2F2B
100
AcDbEntity
  8
TEXT
 62
     5
420
      255
100
AcDbPolyline
 90
        2
 70
     0
 43
0.0
 10
209.8657562698084
 20
-10.06964925336554
 10
210.5515562698084
 20
-10.06964925336554
  0
SPLINE
  5
2EDC
330
2F2B
100
AcDbEntity
  8
TEXT
 62
     5
420
      255
100
AcDbSpline
210
0.0
220
0.0
230
1.0
 70
     8
 71
     3
 72
     8
 73
     4
 74
     0
 42
0.000000001
 43
0.001
 12
1.0
 22
0.0
 32
0.0
 13
1.0
 23
0.0
 33
0.0
 40
0.0
 40
0.0
 40
0.0
 40
0.0
 40
1.0
 40
1.0
 40
1.0
 40
1.0
 10
209.1280975198085
 20
-61.09930800336549
 30
0.0
 10
209.1280975198085
 20
-60.62199925336547
 30
0.0
 10
209.3778637698085
 20
-60.30414675336552
 30
0.0
 10
209.9789975198084
 20
-60.24487925336548
 30
0.0
  0
SPLINE
  5
2EDD
330
2F2B
100
AcDbEntity
  8
TEXT
 62
     5
420
      255
100
AcDbSpline
210
0.0
220
0.0
230
1.0
 70
     8
 71
     3
 72
     8
 73
     4
 74
     0
 42
0.000000001
 43
0.001
 12
1.0
 22
0.0
 32
0.0
 13
1.0
 23
0.0
 33
0.0
 40
0.0
 40
0.0
 40
0.0
 40
0.0
 40
1.0
 40
1.0
 40
1.0
 40
1.0
 10
209.8657562698084
 20
-10.06082925336541
 30
0.0
 10
209.3284750198085
 20
-10.02308300336536
 30
0.0
 10
209.1718425198084
 20
-9.659015503365438
 30
0.0
 10
209.1718425198084
 20
-9.409249253365445
 30
0.0
  0
LWPOLYLINE
  5
2EDE
330
2F2B
100
AcDbEntity
  8
TEXT
 62
     5
420
      255
100
AcDbPolyline
 90
        2
 70
     0
 43
0.0
 10
210.6644450198084
 20
-60.2364130033654
 10
210.6644450198084
 20
-60.24487925336548
  0
SPLINE
  5
2EDF
330
2F2B
100
AcDbEntity
  8
TEXT
 62
     5
420
      255
100
AcDbSpline
210
0.0
220
0.0
230
1.0
 70
     8
 71
     3
 72
     8
 73
     4
 74
     0
 42
0.000000001
 43
0.001
 12
1.0
 22
0.0
 32
0.0
 13
1.0
 23
0.0
 33
0.0
 40
0.0
 40
0.0
 40
0.0
 40
0.0
 40
1.0
 40
1.0
 40
1.0
 40
1.0
 10
209.1718425198084
 20
-9.409249253365445
 30
0.0
 10
209.1718425198084
 20
-8.91853550336539
 30
0.0
 10
209.5397887698085
 20
-8.664888003365448
 30
0.0
 10
210.2083025198085
 20
-8.664888003365448
 30
0.0
  0
SPLINE
  5
2EE0
330
2F2B
100
AcDbEntity
  8
TEXT
 62
     5
420
      255
100
AcDbSpline
210
0.0
220
0.0
230
1.0
 70
     8
 71
     3
 72
     8
 73
     4
 74
     0
 42
0.000000001
 43
0.001
 12
1.0
 22
0.0
 32
0.0
 13
1.0
 23
0.0
 33
0.0
 40
0.0
 40
0.0
 40
0.0
 40
0.0
 40
1.0
 40
1.0
 40
1.0
 40
1.0
 10
210.2083025198085
 20
-8.664888003365448
 30
0.0
 10
210.8764637698085
 20
-8.664888003365448
 30
0.0
 10
211.2451175198085
 20
-8.91853550336539
 30
0.0
 10
211.2451175198085
 20
-9.409249253365445
 30
0.0
  0
SPLINE
  5
2EE1
330
2F2B
100
AcDbEntity
  8
TEXT
 62
     5
420
      255
100
AcDbSpline
210
0.0
220
0.0
230
1.0
 70
     8
 71
     3
 72
     8
 73
     4
 74
     0
 42
0.000000001
 43
0.001
 12
1.0
 22
0.0
 32
0.0
 13
1.0
 23
0.0
 33
0.0
 40
0.0
 40
0.0
 40
0.0
 40
0.0
 40
1.0
 40
1.0
 40
1.0
 40
1.0
 10
211.2451175198085
 20
-9.409249253365445
 30
0.0
 10
211.2451175198085
 20
-9.659015503365438
 30
0.0
 10
211.0881312698083
 20
-10.02308300336536
 30
0.0
 10
210.5515562698084
 20
-10.06082925336541
 30
0.0
  0
LWPOLYLINE
  5
2EE2
330
2F2B
100
AcDbEntity
  8
TEXT
 62
     5
420
      255
100
AcDbPolyline
 90
        2
 70
     0
 43
0.0
 10
209.8657562698084
 20
-10.06964925336554
 10
209.8657562698084
 20
-10.06082925336541
  0
SPLINE
  5
2EE3
330
2F2B
100
AcDbEntity
  8
TEXT
 62
     5
420
      255
100
AcDbSpline
210
0.0
220
0.0
230
1.0
 70
     8
 71
     3
 72
     8
 73
     4
 74
     0
 42
0.000000001
 43
0.001
 12
1.0
 22
0.0
 32
0.0
 13
1.0
 23
0.0
 33
0.0
 40
0.0
 40
0.0
 40
0.0
 40
0.0
 40
1.0
 40
1.0
 40
1.0
 40
1.0
 10
210.5515562698084
 20
-10.06964925336554
 30
0.0
 10
211.1523362698085
 20
-10.12891550336549
 30
0.0
 10
211.4017500198084
 20
-10.44571050336545
 30
0.0
 10
211.4017500198084
 20
-10.92407675336547
 30
0.0
  0
SPLINE
  5
2EE4
330
2F2B
100
AcDbEntity
  8
TEXT
 62
     5
420
      255
100
AcDbSpline
210
0.0
220
0.0
230
1.0
 70
     8
 71
     3
 72
     8
 73
     4
 74
     0
 42
0.000000001
 43
0.001
 12
1.0
 22
0.0
 32
0.0
 13
1.0
 23
0.0
 33
0.0
 40
0.0
 40
0.0
 40
0.0
 40
0.0
 40
1.0
 40
1.0
 40
1.0
 40
1.0
 10
211.4017500198084
 20
-10.92407675336547
 30
0.0
 10
211.4017500198084
 20
-11.38515800336536
 30
0.0
 10
211.1054175198084
 20
-11.77850425336551
 30
0.0
 10
210.2083025198085
 20
-11.77850425336551
 30
0.0
  0
SPLINE
  5
2EE5
330
2F2B
100
AcDbEntity
  8
TEXT
 62
     5
420
      255
100
AcDbSpline
210
0.0
220
0.0
230
1.0
 70
     8
 71
     3
 72
     8
 73
     4
 74
     0
 42
0.000000001
 43
0.001
 12
1.0
 22
0.0
 32
0.0
 13
1.0
 23
0.0
 33
0.0
 40
0.0
 40
0.0
 40
0.0
 40
0.0
 40
1.0
 40
1.0
 40
1.0
 40
1.0
 10
210.2083025198085
 20
-11.77850425336551
 30
0.0
 10
209.3111887698084
 20
-11.77850425336551
 30
0.0
 10
209.0155612698084
 20
-11.38515800336536
 30
0.0
 10
209.0155612698084
 20
-10.92407675336547
 30
0.0
  0
SPLINE
  5
2EE7
330
2F2B
100
AcDbEntity
  8
TEXT
 62
     5
420
      255
100
AcDbSpline
210
0.0
220
0.0
230
1.0
 70
     8
 71
     3
 72
     8
 73
     4
 74
     0
 42
0.000000001
 43
0.001
 12
1.0
 22
0.0
 32
0.0
 13
1.0
 23
0.0
 33
0.0
 40
0.0
 40
0.0
 40
0.0
 40
0.0
 40
1.0
 40
1.0
 40
1.0
 40
1.0
 10
209.0155612698084
 20
-10.92407675336547
 30
0.0
 10
209.0155612698084
 20
-10.44571050336545
 30
0.0
 10
209.2649750198086
 20
-10.12891550336549
 30
0.0
 10
209.8657562698084
 20
-10.06964925336554
 30
0.0
  0
LWPOLYLINE
  5
2EE9
330
2F2B
100
AcDbEntity
  8
TEXT
 62
     5
420
      255
100
AcDbPolyline
 90
        2
 70
     0
 43
0.0
 10
210.5515562698084
 20
-10.06082925336541
 10
210.5515562698084
 20
-10.06964925336554
  0
LWPOLYLINE
  5
2EEB
330
2F2B
100
AcDbEntity
  8
TEXT
 62
     5
420
      255
100
AcDbPolyline
 90
        2
 70
     0
 43
0.0
 10
215.3027675198084
 20
-35.78115175336536
 10
217.6632025198084
 20
-33.98022175336537
  0
LWPOLYLINE
  5
2EEC
330
2F2B
100
AcDbEntity
  8
TEXT
 62
     5
420
      255
100
AcDbPolyline
 90
        2
 70
     0
 43
0.0
 10
216.1741275198085
 20
-35.11687175336552
 10
217.9284925198085
 20
-36.85253800336541
  0
SPLINE
  5
2EED
330
2F2B
100
AcDbEntity
  8
TEXT
 62
     5
420
      255
100
AcDbSpline
210
0.0
220
0.0
230
1.0
 70
     8
 71
     3
 72
     8
 73
     4
 74
     0
 42
0.000000001
 43
0.001
 12
1.0
 22
0.0
 32
0.0
 13
1.0
 23
0.0
 33
0.0
 40
0.0
 40
0.0
 40
0.0
 40
0.0
 40
1.0
 40
1.0
 40
1.0
 40
1.0
 10
214.8042925198084
 20
-35.82595425336542
 30
0.0
 10
214.7196250198085
 20
-36.59465800336552
 30
0.0
 10
214.0278275198083
 20
-36.98059675336545
 30
0.0
 10
213.3642525198084
 20
-36.98059675336545
 30
0.0
  0
SPLINE
  5
2EEE
330
2F2B
100
AcDbEntity
  8
TEXT
 62
     5
420
      255
100
AcDbSpline
210
0.0
220
0.0
230
1.0
 70
     8
 71
     3
 72
     8
 73
     4
 74
     0
 42
0.000000001
 43
0.001
 12
1.0
 22
0.0
 32
0.0
 13
1.0
 23
0.0
 33
0.0
 40
0.0
 40
0.0
 40
0.0
 40
0.0
 40
1.0
 40
1.0
 40
1.0
 40
1.0
 10
213.3642525198084
 20
-36.98059675336545
 30
0.0
 10
212.5436925198085
 20
-36.98059675336545
 30
0.0
 10
211.8758837698085
 20
-36.42991050336555
 30
0.0
 10
211.8758837698085
 20
-35.48023300336543
 30
0.0
  0
SPLINE
  5
2EEF
330
2F2B
100
AcDbEntity
  8
TEXT
 62
     5
420
      255
100
AcDbSpline
210
0.0
220
0.0
230
1.0
 70
     8
 71
     3
 72
     8
 73
     4
 74
     0
 42
0.000000001
 43
0.001
 12
1.0
 22
0.0
 32
0.0
 13
1.0
 23
0.0
 33
0.0
 40
0.0
 40
0.0
 40
0.0
 40
0.0
 40
1.0
 40
1.0
 40
1.0
 40
1.0
 10
211.8758837698085
 20
-35.48023300336543
 30
0.0
 10
211.8758837698085
 20
-34.53161300336554
 30
0.0
 10
212.5436925198085
 20
-33.98022175336537
 30
0.0
 10
213.3642525198084
 20
-33.98022175336537
 30
0.0
  0
SPLINE
  5
2EF0
330
2F2B
100
AcDbEntity
  8
TEXT
 62
     5
420
      255
100
AcDbSpline
210
0.0
220
0.0
230
1.0
 70
     8
 71
     3
 72
     8
 73
     4
 74
     0
 42
0.000000001
 43
0.001
 12
1.0
 22
0.0
 32
0.0
 13
1.0
 23
0.0
 33
0.0
 40
0.0
 40
0.0
 40
0.0
 40
0.0
 40
1.0
 40
1.0
 40
1.0
 40
1.0
 10
213.3642525198084
 20
-33.98022175336537
 30
0.0
 10
214.0437025198084
 20
-33.98022175336537
 30
0.0
 10
214.5831000198083
 20
-34.25715175336536
 30
0.0
 10
214.7362062698085
 20
-34.88192175336538
 30
0.0
  0
LWPOLYLINE
  5
2EF1
330
2F2B
100
AcDbEntity
  8
TEXT
 62
     5
420
      255
100
AcDbPolyline
 90
        2
 70
     0
 43
0.0
 10
215.3027675198084
 20
-36.85253800336541
 10
215.3027675198084
 20
-33.98022175336537
  0
LWPOLYLINE
  5
2EF2
330
2F2B
100
AcDbEntity
  8
TEXT
 62
     5
420
      255
100
AcDbPolyline
 90
        2
 70
     0
 43
0.0
 10
208.3946725198084
 20
-35.34794050336548
 10
206.6974587698084
 20
-35.34441300336546
  0
SPLINE
  5
2EF3
330
2F2B
100
AcDbEntity
  8
TEXT
 62
     5
420
      255
100
AcDbSpline
210
0.0
220
0.0
230
1.0
 70
     8
 71
     3
 72
     8
 73
     4
 74
     0
 42
0.000000001
 43
0.001
 12
1.0
 22
0.0
 32
0.0
 13
1.0
 23
0.0
 33
0.0
 40
0.0
 40
0.0
 40
0.0
 40
0.0
 40
1.0
 40
1.0
 40
1.0
 40
1.0
 10
208.2581475198085
 20
-33.97986800336544
 30
0.0
 10
208.7128775198085
 20
-33.97986800336544
 30
0.0
 10
209.0296725198085
 20
-34.22540175336538
 30
0.0
 10
209.0296725198085
 20
-34.69177425336541
 30
0.0
  0
SPLINE
  5
2EF4
330
2F2B
100
AcDbEntity
  8
TEXT
 62
     5
420
      255
100
AcDbSpline
210
0.0
220
0.0
230
1.0
 70
     8
 71
     3
 72
     8
 73
     4
 74
     0
 42
0.000000001
 43
0.001
 12
1.0
 22
0.0
 32
0.0
 13
1.0
 23
0.0
 33
0.0
 40
0.0
 40
0.0
 40
0.0
 40
0.0
 40
1.0
 40
1.0
 40
1.0
 40
1.0
 10
209.0296725198085
 20
-34.69177425336541
 30
0.0
 10
209.0296725198085
 20
-35.03008800336552
 30
0.0
 10
208.7326337698085
 20
-35.35146800336538
 30
0.0
 10
208.3943200198084
 20
-35.34335425336538
 30
0.0
  0
LWPOLYLINE
  5
2EF5
330
2F2B
100
AcDbEntity
  8
TEXT
 62
     5
420
      255
100
AcDbPolyline
 90
        2
 70
     0
 43
0.0
 10
206.6974587698084
 20
-33.97986800336544
 10
208.2581475198085
 20
-33.97986800336544
  0
SPLINE
  5
2EF6
330
2F2B
100
AcDbEntity
  8
TEXT
 62
     5
420
      255
100
AcDbSpline
210
0.0
220
0.0
230
1.0
 70
     8
 71
     3
 72
     8
 73
     4
 74
     0
 42
0.000000001
 43
0.001
 12
1.0
 22
0.0
 32
0.0
 13
1.0
 23
0.0
 33
0.0
 40
0.0
 40
0.0
 40
0.0
 40
0.0
 40
1.0
 40
1.0
 40
1.0
 40
1.0
 10
208.3943200198084
 20
-35.35146800336538
 30
0.0
 10
208.7686175198084
 20
-35.36769675336548
 30
0.0
 10
209.1185725198083
 20
-35.56807425336542
 30
0.0
 10
209.1185725198083
 20
-36.07148800336547
 30
0.0
  0
SPLINE
  5
2EF7
330
2F2B
100
AcDbEntity
  8
TEXT
 62
     5
420
      255
100
AcDbSpline
210
0.0
220
0.0
230
1.0
 70
     8
 71
     3
 72
     8
 73
     4
 74
     0
 42
0.000000001
 43
0.001
 12
1.0
 22
0.0
 32
0.0
 13
1.0
 23
0.0
 33
0.0
 40
0.0
 40
0.0
 40
0.0
 40
0.0
 40
1.0
 40
1.0
 40
1.0
 40
1.0
 10
209.1185725198083
 20
-36.07148800336547
 30
0.0
 10
209.1185725198083
 20
-36.40556800336545
 30
0.0
 10
208.9058475198084
 20
-36.85218550336545
 30
0.0
 10
208.1533725198084
 20
-36.85218550336545
 30
0.0
  0
LWPOLYLINE
  5
2EF8
330
2F2B
100
AcDbEntity
  8
TEXT
 62
     5
420
      255
100
AcDbPolyline
 90
        2
 70
     0
 43
0.0
 10
208.3943200198084
 20
-35.34335425336538
 10
208.3943200198084
 20
-35.35146800336538
  0
LWPOLYLINE
  5
2EF9
330
2F2B
100
AcDbEntity
  8
TEXT
 62
     5
420
      255
100
AcDbPolyline
 90
        4
 70
     0
 43
0.0
 10
208.1533725198084
 20
-36.85218550336545
 10
206.6974587698084
 20
-36.85218550336545
 10
206.6974587698084
 20
-33.97986800336544
 10
206.6974587698084
 20
-33.97986800336544
  0
LWPOLYLINE
  5
2EFA
330
2F2B
100
AcDbEntity
  8
TEXT
 62
     5
420
      255
100
AcDbPolyline
 90
        4
 70
     0
 43
0.0
 10
209.1185725198083
 20
-36.85218550336545
 10
210.4379612698085
 20
-33.97986800336544
 10
210.5427362698085
 20
-33.97986800336544
 10
211.8614200198085
 20
-36.85218550336545
  0
LWPOLYLINE
  5
2EFF
330
2F2B
100
AcDbEntity
  8
TEXT
 62
     5
420
      255
100
AcDbPolyline
 90
        2
 70
     0
 43
0.0
 10
211.4253862698084
 20
-35.9021542533654
 10
209.5479025198085
 20
-35.9021542533654
  0
LWPOLYLINE
  5
2F00
330
2F2B
100
AcDbEntity
  8
TEXT
 62
     5
420
      255
100
AcDbPolyline
 90
        2
 70
     0
 43
0.0
 10
213.7748862698084
 20
-60.2808630033655
 10
212.0776725198085
 20
-60.27733550336536
  0
SPLINE
  5
2F02
330
2F2B
100
AcDbEntity
  8
TEXT
 62
     5
420
      255
100
AcDbSpline
210
0.0
220
0.0
230
1.0
 70
     8
 71
     3
 72
     8
 73
     4
 74
     0
 42
0.000000001
 43
0.001
 12
1.0
 22
0.0
 32
0.0
 13
1.0
 23
0.0
 33
0.0
 40
0.0
 40
0.0
 40
0.0
 40
0.0
 40
1.0
 40
1.0
 40
1.0
 40
1.0
 10
213.6380087698084
 20
-58.91349675336546
 30
0.0
 10
214.0927387698085
 20
-58.91349675336546
 30
0.0
 10
214.4098862698084
 20
-59.15902925336543
 30
0.0
 10
214.4098862698084
 20
-59.62540175336547
 30
0.0
  0
SPLINE
  5
2F04
330
2F2B
100
AcDbEntity
  8
TEXT
 62
     5
420
      255
100
AcDbSpline
210
0.0
220
0.0
230
1.0
 70
     8
 71
     3
 72
     8
 73
     4
 74
     0
 42
0.000000001
 43
0.001
 12
1.0
 22
0.0
 32
0.0
 13
1.0
 23
0.0
 33
0.0
 40
0.0
 40
0.0
 40
0.0
 40
0.0
 40
1.0
 40
1.0
 40
1.0
 40
1.0
 10
214.4098862698084
 20
-59.62540175336547
 30
0.0
 10
214.4098862698084
 20
-59.96301050336542
 30
0.0
 10
214.1128475198084
 20
-60.28509675336541
 30
0.0
 10
213.7745337698084
 20
-60.2769830033654
 30
0.0
  0
LWPOLYLINE
  5
2F06
330
2F2B
100
AcDbEntity
  8
TEXT
 62
     5
420
      255
100
AcDbPolyline
 90
        2
 70
     0
 43
0.0
 10
212.0776725198085
 20
-58.91349675336546
 10
213.6380087698084
 20
-58.91349675336546
  0
SPLINE
  5
2F08
330
2F2B
100
AcDbEntity
  8
TEXT
 62
     5
420
      255
100
AcDbSpline
210
0.0
220
0.0
230
1.0
 70
     8
 71
     3
 72
     8
 73
     4
 74
     0
 42
0.000000001
 43
0.001
 12
1.0
 22
0.0
 32
0.0
 13
1.0
 23
0.0
 33
0.0
 40
0.0
 40
0.0
 40
0.0
 40
0.0
 40
1.0
 40
1.0
 40
1.0
 40
1.0
 10
213.7745337698084
 20
-60.28509675336541
 30
0.0
 10
214.1484775198084
 20
-60.30097175336546
 30
0.0
 10
214.4987862698085
 20
-60.50205425336544
 30
0.0
 10
214.4987862698085
 20
-61.00476300336545
 30
0.0
  0
SPLINE
  5
2F09
330
2F2B
100
AcDbEntity
  8
TEXT
 62
     5
420
      255
100
AcDbSpline
210
0.0
220
0.0
230
1.0
 70
     8
 71
     3
 72
     8
 73
     4
 74
     0
 42
0.000000001
 43
0.001
 12
1.0
 22
0.0
 32
0.0
 13
1.0
 23
0.0
 33
0.0
 40
0.0
 40
0.0
 40
0.0
 40
0.0
 40
1.0
 40
1.0
 40
1.0
 40
1.0
 10
214.4987862698085
 20
-61.00476300336545
 30
0.0
 10
214.4987862698085
 20
-61.33849050336535
 30
0.0
 10
214.2857087698084
 20
-61.78510800336547
 30
0.0
 10
213.5335862698084
 20
-61.78510800336547
 30
0.0
  0
LWPOLYLINE
  5
2F0A
330
2F2B
100
AcDbEntity
  8
TEXT
 62
     5
420
      255
100
AcDbPolyline
 90
        2
 70
     0
 43
0.0
 10
213.7745337698084
 20
-60.2769830033654
 10
213.7745337698084
 20
-60.28509675336541
  0
LWPOLYLINE
  5
2F0B
330
2F2B
100
AcDbEntity
  8
TEXT
 62
     5
420
      255
100
AcDbPolyline
 90
        4
 70
     0
 43
0.0
 10
213.5335862698084
 20
-61.78510800336547
 10
212.0776725198085
 20
-61.78510800336547
 10
212.0776725198085
 20
-58.91349675336546
 10
212.0776725198085
 20
-58.91349675336546
  0
LWPOLYLINE
  5
2F0C
330
2F2B
100
AcDbEntity
  8
TEXT
 62
     5
420
      255
100
AcDbPolyline
 90
        2
 70
     0
 43
0.0
 10
209.9789975198084
 20
-60.24487925336548
 10
210.6644450198084
 20
-60.24487925336548
  0
ENDSEC
  0
SECTION
  2
OBJECTS
  0
DICTIONARY
  5
2F19
330
0
100
AcDbDictionary
281
     1
  3
ACAD_GROUP
350
2F1A
  3
ACAD_LAYOUT
350
2F26
  3
ACAD_MATERIAL
350
2F47
  3
ACAD_MLEADERSTYLE
350
2F76
  3
ACAD_MLINESTYLE
350
2F23
  3
ACAD_PLOTSETTINGS
350
2F25
  3
ACAD_PLOTSTYLENAME
350
2F1B
  3
ACAD_TABLESTYLE
350
2F75
  3
ACAD_VISUALSTYLE
350
2F36
  3
QCAD_OBJECTS
350
2F4C
  0
DICTIONARY
  5
2F1A
102
{ACAD_REACTORS
330
2F19
102
}
330
2F19
100
AcDbDictionary
281
     1
  0
DICTIONARY
  5
2F26
102
{ACAD_REACTORS
330
2F19
102
}
330
2F19
100
AcDbDictionary
281
     1
  3
Layout1
350
2F2A
  3
Layout2
350
2F32
  3
Model
350
2F2E
  0
DICTIONARY
  5
2F47
102
{ACAD_REACTORS
330
2F19
102
}
330
2F19
100
AcDbDictionary
281
     1
  3
ByBlock
350
2F49
  3
ByLayer
350
2F48
  3
Global
350
2F4A
  0
DICTIONARY
  5
2F76
102
{ACAD_REACTORS
330
2F19
102
}
330
2F19
100
AcDbDictionary
281
     1
  0
DICTIONARY
  5
2F23
102
{ACAD_REACTORS
330
2F19
102
}
330
2F19
100
AcDbDictionary
281
     1
  3
Standard
350
2F24
  0
DICTIONARY
  5
2F25
102
{ACAD_REACTORS
330
2F19
102
}
330
2F19
100
AcDbDictionary
281
     1
  0
ACDBDICTIONARYWDFLT
  5
2F1B
102
{ACAD_REACTORS
330
2F19
102
}
330
2F19
100
AcDbDictionary
281
     1
  3
Normal
350
2F1C
100
AcDbDictionaryWithDefault
340
2F1C
  0
DICTIONARY
  5
2F75
102
{ACAD_REACTORS
330
2F19
102
}
330
2F19
100
AcDbDictionary
281
     1
  0
DICTIONARY
  5
2F36
102
{ACAD_REACTORS
330
2F19
102
}
330
2F19
100
AcDbDictionary
281
     1
  3
2dWireframe
350
2F3B
  3
3D Hidden
350
2F3D
  3
3dWireframe
350
2F3C
  3
Basic
350
2F3E
  3
Brighten
350
2F42
  3
ColorChange
350
2F46
  3
Conceptual
350
2F40
  3
Dim
350
2F41
  3
Facepattern
350
2F45
  3
Flat
350
2F37
  3
FlatWithEdges
350
2F38
  3
Gouraud
350
2F39
  3
GouraudWithEdges
350
2F3A
  3
Linepattern
350
2F44
  3
Realistic
350
2F3F
  3
Thicken
350
2F43
  0
DICTIONARY
  5
2F4C
102
{ACAD_REACTORS
330
2F19
102
}
330
2F19
100
AcDbDictionary
281
     1
  3
Grid/DisplayGrid
350
2F5B
  3
Grid/GridSpacingX
350
2F54
  3
Grid/GridSpacingY
350
2F56
  3
MultiPageSettings/Columns
350
2F53
  3
MultiPageSettings/GlueMarginBottom
350
2F50
  3
MultiPageSettings/GlueMarginsLeft
350
2F57
  3
MultiPageSettings/GlueMarginsRight
350
2F4D
  3
MultiPageSettings/GlueMarginsTop
350
2F5F
  3
MultiPageSettings/PrintCropMarks
350
2F4F
  3
MultiPageSettings/Rows
350
2F58
  3
PageSettings/OffsetX
350
2F5D
  3
PageSettings/OffsetY
350
2F5E
  3
PageSettings/PageOrientation
350
2F4E
  3
PageSettings/PaperHeight
350
2F52
  3
PageSettings/PaperWidth
350
2F59
  3
PageSettings/Scale
350
2F51
  3
PageSettings/ShowBoundingBox
350
2F55
  3
PageSettings/ShowPageBorders
350
2F5C
  3
UnitSettings/PaperUnit
350
2F5A
  0
LAYOUT
  5
2F2A
102
{ACAD_REACTORS
330
2F26
102
}
330
2F26
100
AcDbPlotSettings
  1

  2
none_device
  4

  6

 40
0.0
 41
0.0
 42
0.0
 43
0.0
 44
0.0
 45
0.0
 46
0.0
 47
0.0
 48
0.0
 49
0.0
140
0.0
141
0.0
142
1.0
143
1.0
 70
   688
 72
     0
 73
     0
 74
     5
  7

 75
    16
 76
     0
 77
     2
 78
   300
147
1.0
148
0.0
149
0.0
100
AcDbLayout
  1
Layout1
 70
     1
 71
     1
 10
0.0
 20
0.0
 11
12.0
 21
9.0
 12
0.0
 22
0.0
 32
0.0
 14
1.000000000000000E+20
 24
1.000000000000000E+20
 34
1.000000000000000E+20
 15
-1.000000000000000E+20
 25
-1.000000000000000E+20
 35
-1.000000000000000E+20
146
0.0
 13
0.0
 23
0.0
 33
0.0
 16
1.0
 26
0.0
 36
0.0
 17
0.0
 27
1.0
 37
0.0
 76
     0
330
2F27
  0
LAYOUT
  5
2F32
102
{ACAD_REACTORS
330
2F26
102
}
330
2F26
100
AcDbPlotSettings
  1

  2
none_device
  4

  6

 40
0.0
 41
0.0
 42
0.0
 43
0.0
 44
0.0
 45
0.0
 46
0.0
 47
0.0
 48
0.0
 49
0.0
140
0.0
141
0.0
142
1.0
143
1.0
 70
   688
 72
     0
 73
     0
 74
     5
  7

 75
    16
 76
     0
 77
     2
 78
   300
147
1.0
148
0.0
149
0.0
100
AcDbLayout
  1
Layout2
 70
     1
 71
     2
 10
0.0
 20
0.0
 11
0.0
 21
0.0
 12
0.0
 22
0.0
 32
0.0
 14
0.0
 24
0.0
 34
0.0
 15
0.0
 25
0.0
 35
0.0
146
0.0
 13
0.0
 23
0.0
 33
0.0
 16
1.0
 26
0.0
 36
0.0
 17
0.0
 27
1.0
 37
0.0
 76
     0
330
2F2F
  0
LAYOUT
  5
2F2E
102
{ACAD_REACTORS
330
2F26
102
}
330
2F26
100
AcDbPlotSettings
  1

  2
none_device
  4

  6

 40
0.0
 41
0.0
 42
0.0
 43
0.0
 44
0.0
 45
0.0
 46
0.0
 47
0.0
 48
0.0
 49
0.0
140
0.0
141
0.0
142
1.0
143
1.0
 70
  1712
 72
     0
 73
     0
 74
     0
  7

 75
     0
 76
     0
 77
     2
 78
   300
147
1.0
148
0.0
149
0.0
100
AcDbLayout
  1
Model
 70
     1
 71
     0
 10
0.0
 20
0.0
 11
12.0
 21
9.0
 12
0.0
 22
0.0
 32
0.0
 14
1.000000000000000E+20
 24
1.000000000000000E+20
 34
1.000000000000000E+20
 15
-1.000000000000000E+20
 25
-1.000000000000000E+20
 35
-1.000000000000000E+20
146
0.0
 13
0.0
 23
0.0
 33
0.0
 16
1.0
 26
0.0
 36
0.0
 17
0.0
 27
1.0
 37
0.0
 76
     0
330
2F2B
331
2F35
  0
MATERIAL
  5
2F49
102
{ACAD_REACTORS
330
2F47
102
}
330
2F47
100
AcDbMaterial
  1
ByBlock
 72
     1
 94
      127
  0
MATERIAL
  5
2F48
102
{ACAD_REACTORS
330
2F47
102
}
330
2F47
100
AcDbMaterial
  1
ByLayer
 72
     1
 94
      127
  0
MATERIAL
  5
2F4A
102
{ACAD_REACTORS
330
2F47
102
}
330
2F47
100
AcDbMaterial
  1
Global
 72
     1
 94
      127
  0
MLINESTYLE
  5
2F24
102
{ACAD_REACTORS
330
2F23
102
}
330
2F23
100
AcDbMlineStyle
  2
Standard
 70
     0
  3

 62
   256
 51
90.0
 52
90.0
 71
     2
 49
0.5
 62
   256
  6
BYLAYER
 49
-0.5
 62
   256
  6
BYLAYER
  0
ACDBPLACEHOLDER
  5
2F1C
102
{ACAD_REACTORS
330
2F1B
102
}
330
2F1B
  0
VISUALSTYLE
  5
2F3B
102
{ACAD_REACTORS
330
2F36
102
}
330
2F36
100
AcDbVisualStyle
  2
2dWireframe
 70
     4
177
     2
291
     0
 71
     0
176
     1
 72
     2
176
     1
 73
     0
176
     1
 90
        0
176
     1
 40
-0.6
176
     1
 41
-30.0
176
     1
 62
     5
 63
     7
421
 16777215
176
     1
 74
     1
176
     1
 91
        4
176
     1
 64
     7
176
     1
 65
   257
176
     1
 75
     1
176
     1
175
     1
176
     1
 42
1.0
176
     1
 92
        0
176
     1
 66
   257
176
     1
 43
1.0
176
     1
 76
     1
176
     1
 77
     6
176
     1
 78
     2
176
     1
 67
     7
176
     1
 79
     5
176
     1
170
     0
176
     1
171
     0
176
     1
290
     0
176
     1
 93
        1
176
     1
 44
0.0
176
     1
173
     0
176
     1
  0
VISUALSTYLE
  5
2F3D
102
{ACAD_REACTORS
330
2F36
102
}
330
2F36
100
AcDbVisualStyle
  2
3D Hidden
 70
     6
177
     2
291
     0
 71
     1
176
     1
 72
     2
176
     1
 73
     2
176
     1
 90
        0
176
     1
 40
-0.6
176
     1
 41
-30.0
176
     1
 62
     5
 63
     7
421
 16777215
176
     1
 74
     2
176
     1
 91
        2
176
     1
 64
     7
176
     1
 65
   257
176
     1
 75
     2
176
     1
175
     1
176
     1
 42
40.0
176
     1
 92
        0
176
     1
 66
   257
176
     1
 43
1.0
176
     1
 76
     1
176
     1
 77
     6
176
     1
 78
     2
176
     1
 67
     7
176
     1
 79
     3
176
     1
170
     0
176
     1
171
     0
176
     1
290
     0
176
     1
 93
        1
176
     1
 44
0.0
176
     1
173
     0
176
     1
  0
VISUALSTYLE
  5
2F3C
102
{ACAD_REACTORS
330
2F36
102
}
330
2F36
100
AcDbVisualStyle
  2
3dWireframe
 70
     5
177
     2
291
     0
 71
     0
176
     1
 72
     2
176
     1
 73
     0
176
     1
 90
        0
176
     1
 40
-0.6
176
     1
 41
-30.0
176
     1
 62
     5
 63
     7
421
 16777215
176
     1
 74
     1
176
     1
 91
        4
176
     1
 64
     7
176
     1
 65
   257
176
     1
 75
     1
176
     1
175
     1
176
     1
 42
1.0
176
     1
 92
        0
176
     1
 66
   257
176
     1
 43
1.0
176
     1
 76
     1
176
     1
 77
     6
176
     1
 78
     2
176
     1
 67
     7
176
     1
 79
     5
176
     1
170
     0
176
     1
171
     0
176
     1
290
     0
176
     1
 93
        1
176
     1
 44
0.0
176
     1
173
     0
176
     1
  0
VISUALSTYLE
  5
2F3E
102
{ACAD_REACTORS
330
2F36
102
}
330
2F36
100
AcDbVisualStyle
  2
Basic
 70
     7
177
     2
291
     1
 71
     1
176
     1
 72
     0
176
     1
 73
     1
176
     1
 90
        0
176
     1
 40
-0.6
176
     1
 41
-30.0
176
     1
 62
     5
 63
     7
421
 16777215
176
     1
 74
     0
176
     1
 91
        4
176
     1
 64
     7
176
     1
 65
   257
176
     1
 75
     1
176
     1
175
     1
176
     1
 42
1.0
176
     1
 92
        8
176
     1
 66
     7
176
     1
 43
1.0
176
     1
 76
     1
176
     1
 77
     6
176
     1
 78
     2
176
     1
 67
     7
176
     1
 79
     5
176
     1
170
     0
176
     1
171
     0
176
     1
290
     0
176
     1
 93
        1
176
     1
 44
0.0
176
     1
173
     0
176
     1
  0
VISUALSTYLE
  5
2F42
102
{ACAD_REACTORS
330
2F36
102
}
330
2F36
100
AcDbVisualStyle
  2
Brighten
 70
    12
177
     2
291
     1
 71
     2
176
     1
 72
     2
176
     1
 73
     0
176
     1
 90
        0
176
     1
 40
-0.6
176
     1
 41
-30.0
176
     1
 62
     5
 63
     7
421
 16777215
176
     1
 74
     1
176
     1
 91
        4
176
     1
 64
     7
176
     1
 65
   257
176
     1
 75
     1
176
     1
175
     1
176
     1
 42
1.0
176
     1
 92
        8
176
     1
 66
     7
176
     1
 43
1.0
176
     1
 76
     1
176
     1
 77
     6
176
     1
 78
     2
176
     1
 67
     7
176
     1
 79
     5
176
     1
170
     0
176
     1
171
     0
176
     1
290
     0
176
     1
 93
        1
176
     1
 44
50.0
176
     1
173
     0
176
     1
  0
VISUALSTYLE
  5
2F46
102
{ACAD_REACTORS
330
2F36
102
}
330
2F36
100
AcDbVisualStyle
  2
ColorChange
 70
    16
177
     2
291
     1
 71
     2
176
     1
 72
     2
176
     1
 73
     3
176
     1
 90
        0
176
     1
 40
-0.6
176
     1
 41
-30.0
176
     1
 62
     5
 63
     8
421
  8421504
176
     1
 74
     1
176
     1
 91
        4
176
     1
 64
     7
176
     1
 65
   257
176
     1
 75
     1
176
     1
175
     1
176
     1
 42
1.0
176
     1
 92
        8
176
     1
 66
     8
424
  8421504
176
     1
 43
1.0
176
     1
 76
     1
176
     1
 77
     6
176
     1
 78
     2
176
     1
 67
     7
176
     1
 79
     5
176
     1
170
     0
176
     1
171
     0
176
     1
290
     0
176
     1
 93
        1
176
     1
 44
0.0
176
     1
173
     0
176
     1
  0
VISUALSTYLE
  5
2F40
102
{ACAD_REACTORS
330
2F36
102
}
330
2F36
100
AcDbVisualStyle
  2
Conceptual
 70
     9
177
     2
291
     0
 71
     3
176
     1
 72
     2
176
     1
 73
     0
176
     1
 90
        0
176
     1
 40
-0.6
176
     1
 41
-30.0
176
     1
 62
     5
 63
     7
421
 16777215
176
     1
 74
     2
176
     1
 91
        2
176
     1
 64
     7
176
     1
 65
   257
176
     1
 75
     1
176
     1
175
     1
176
     1
 42
40.0
176
     1
 92
        8
176
     1
 66
     7
176
     1
 43
1.0
176
     1
 76
     1
176
     1
 77
     6
176
     1
 78
     2
176
     1
 67
     7
176
     1
 79
     3
176
     1
170
     0
176
     1
171
     0
176
     1
290
     0
176
     1
 93
        1
176
     1
 44
0.0
176
     1
173
     0
176
     1
  0
VISUALSTYLE
  5
2F41
102
{ACAD_REACTORS
330
2F36
102
}
330
2F36
100
AcDbVisualStyle
  2
Dim
 70
    11
177
     2
291
     1
 71
     2
176
     1
 72
     2
176
     1
 73
     0
176
     1
 90
        0
176
     1
 40
-0.6
176
     1
 41
-30.0
176
     1
 62
     5
 63
     7
421
 16777215
176
     1
 74
     1
176
     1
 91
        4
176
     1
 64
     7
176
     1
 65
   257
176
     1
 75
     1
176
     1
175
     1
176
     1
 42
1.0
176
     1
 92
        8
176
     1
 66
     7
176
     1
 43
1.0
176
     1
 76
     1
176
     1
 77
     6
176
     1
 78
     2
176
     1
 67
     7
176
     1
 79
     5
176
     1
170
     0
176
     1
171
     0
176
     1
290
     0
176
     1
 93
        1
176
     1
 44
-50.0
176
     1
173
     0
176
     1
  0
VISUALSTYLE
  5
2F45
102
{ACAD_REACTORS
330
2F36
102
}
330
2F36
100
AcDbVisualStyle
  2
Facepattern
 70
    15
177
     2
291
     1
 71
     2
176
     1
 72
     2
176
     1
 73
     0
176
     1
 90
        0
176
     1
 40
-0.6
176
     1
 41
-30.0
176
     1
 62
     5
 63
     7
421
 16777215
176
     1
 74
     1
176
     1
 91
        4
176
     1
 64
     7
176
     1
 65
   257
176
     1
 75
     1
176
     1
175
     1
176
     1
 42
1.0
176
     1
 92
        8
176
     1
 66
     7
176
     1
 43
1.0
176
     1
 76
     1
176
     1
 77
     6
176
     1
 78
     2
176
     1
 67
     7
176
     1
 79
     5
176
     1
170
     0
176
     1
171
     0
176
     1
290
     0
176
     1
 93
        1
176
     1
 44
0.0
176
     1
173
     0
176
     1
  0
VISUALSTYLE
  5
2F37
102
{ACAD_REACTORS
330
2F36
102
}
330
2F36
100
AcDbVisualStyle
  2
Flat
 70
     0
177
     2
291
     1
 71
     2
176
     1
 72
     1
176
     1
 73
     1
176
     1
 90
        2
176
     1
 40
-0.6
176
     1
 41
30.0
176
     1
 62
     5
 63
     7
421
 16777215
176
     1
 74
     0
176
     1
 91
        4
176
     1
 64
     7
176
     1
 65
   257
176
     1
 75
     1
176
     1
175
     1
176
     1
 42
1.0
176
     1
 92
        8
176
     1
 66
     7
176
     1
 43
1.0
176
     1
 76
     1
176
     1
 77
     6
176
     1
 78
     2
176
     1
 67
     7
176
     1
 79
     5
176
     1
170
     0
176
     1
171
     0
176
     1
290
     0
176
     1
 93
       13
176
     1
 44
0.0
176
     1
173
     0
176
     1
  0
VISUALSTYLE
  5
2F38
102
{ACAD_REACTORS
330
2F36
102
}
330
2F36
100
AcDbVisualStyle
  2
FlatWithEdges
 70
     1
177
     2
291
     1
 71
     2
176
     1
 72
     1
176
     1
 73
     1
176
     1
 90
        2
176
     1
 40
-0.6
176
     1
 41
30.0
176
     1
 62
     5
 63
     7
421
 16777215
176
     1
 74
     1
176
     1
 91
        4
176
     1
 64
     7
176
     1
 65
   257
176
     1
 75
     1
176
     1
175
     1
176
     1
 42
1.0
176
     1
 92
        0
176
     1
 66
   257
176
     1
 43
1.0
176
     1
 76
     1
176
     1
 77
     6
176
     1
 78
     2
176
     1
 67
     7
176
     1
 79
     5
176
     1
170
     0
176
     1
171
     0
176
     1
290
     0
176
     1
 93
       13
176
     1
 44
0.0
176
     1
173
     0
176
     1
  0
VISUALSTYLE
  5
2F39
102
{ACAD_REACTORS
330
2F36
102
}
330
2F36
100
AcDbVisualStyle
  2
Gouraud
 70
     2
177
     2
291
     1
 71
     2
176
     1
 72
     2
176
     1
 73
     1
176
     1
 90
        2
176
     1
 40
-0.6
176
     1
 41
30.0
176
     1
 62
     5
 63
     7
421
 16777215
176
     1
 74
     0
176
     1
 91
        4
176
     1
 64
     7
176
     1
 65
   257
176
     1
 75
     1
176
     1
175
     1
176
     1
 42
1.0
176
     1
 92
        0
176
     1
 66
     7
176
     1
 43
1.0
176
     1
 76
     1
176
     1
 77
     6
176
     1
 78
     2
176
     1
 67
     7
176
     1
 79
     5
176
     1
170
     0
176
     1
171
     0
176
     1
290
     0
176
     1
 93
       13
176
     1
 44
0.0
176
     1
173
     0
176
     1
  0
VISUALSTYLE
  5
2F3A
102
{ACAD_REACTORS
330
2F36
102
}
330
2F36
100
AcDbVisualStyle
  2
GouraudWithEdges
 70
     3
177
     2
291
     1
 71
     2
176
     1
 72
     2
176
     1
 73
     1
176
     1
 90
        2
176
     1
 40
-0.6
176
     1
 41
30.0
176
     1
 62
     5
 63
     7
421
 16777215
176
     1
 74
     1
176
     1
 91
        4
176
     1
 64
     7
176
     1
 65
   257
176
     1
 75
     1
176
     1
175
     1
176
     1
 42
1.0
176
     1
 92
        0
176
     1
 66
   257
176
     1
 43
1.0
176
     1
 76
     1
176
     1
 77
     6
176
     1
 78
     2
176
     1
 67
     7
176
     1
 79
     5
176
     1
170
     0
176
     1
171
     0
176
     1
290
     0
176
     1
 93
       13
176
     1
 44
0.0
176
     1
173
     0
176
     1
  0
VISUALSTYLE
  5
2F44
102
{ACAD_REACTORS
330
2F36
102
}
330
2F36
100
AcDbVisualStyle
  2
Linepattern
 70
    14
177
     2
291
     1
 71
     2
176
     1
 72
     2
176
     1
 73
     0
176
     1
 90
        0
176
     1
 40
-0.6
176
     1
 41
-30.0
176
     1
 62
     5
 63
     7
421
 16777215
176
     1
 74
     1
176
     1
 91
        4
176
     1
 64
     7
176
     1
 65
   257
176
     1
 75
     7
176
     1
175
     7
176
     1
 42
1.0
176
     1
 92
        8
176
     1
 66
     7
176
     1
 43
1.0
176
     1
 76
     1
176
     1
 77
     6
176
     1
 78
     2
176
     1
 67
     7
176
     1
 79
     5
176
     1
170
     0
176
     1
171
     0
176
     1
290
     0
176
     1
 93
        1
176
     1
 44
0.0
176
     1
173
     0
176
     1
  0
VISUALSTYLE
  5
2F3F
102
{ACAD_REACTORS
330
2F36
102
}
330
2F36
100
AcDbVisualStyle
  2
Realistic
 70
     8
177
     2
291
     0
 71
     2
176
     1
 72
     2
176
     1
 73
     0
176
     1
 90
        0
176
     1
 40
-0.6
176
     1
 41
-30.0
176
     1
 62
     5
 63
     7
421
 16777215
176
     1
 74
     1
176
     1
 91
        0
176
     1
 64
     7
176
     1
 65
   257
176
     1
 75
     1
176
     1
175
     1
176
     1
 42
1.0
176
     1
 92
        8
176
     1
 66
     8
424
  7895160
176
     1
 43
1.0
176
     1
 76
     1
176
     1
 77
     6
176
     1
 78
     2
176
     1
 67
     7
176
     1
 79
     5
176
     1
170
     0
176
     1
171
     0
176
     1
290
     0
176
     1
 93
       13
176
     1
 44
0.0
176
     1
173
     0
176
     1
  0
VISUALSTYLE
  5
2F43
102
{ACAD_REACTORS
330
2F36
102
}
330
2F36
100
AcDbVisualStyle
  2
Thicken
 70
    13
177
     2
291
     1
 71
     2
176
     1
 72
     2
176
     1
 73
     0
176
     1
 90
        0
176
     1
 40
-0.6
176
     1
 41
-30.0
176
     1
 62
     5
 63
     7
421
 16777215
176
     1
 74
     1
176
     1
 91
        4
176
     1
 64
     7
176
     1
 65
   257
176
     1
 75
     1
176
     1
175
     1
176
     1
 42
1.0
176
     1
 92
       12
176
     1
 66
     7
176
     1
 43
1.0
176
     1
 76
     1
176
     1
 77
     6
176
     1
 78
     2
176
     1
 67
     7
176
     1
 79
     5
176
     1
170
     0
176
     1
171
     0
176
     1
290
     0
176
     1
 93
        1
176
     1
 44
0.0
176
     1
173
     0
176
     1
  0
XRECORD
  5
2F5B
102
{ACAD_REACTORS
330
2F4C
102
}
330
2F4C
100
AcDbXrecord
280
     1
290
     1
  0
XRECORD
  5
2F54
102
{ACAD_REACTORS
330
2F4C
102
}
330
2F4C
100
AcDbXrecord
280
     1
1000
auto
  0
XRECORD
  5
2F56
102
{ACAD_REACTORS
330
2F4C
102
}
330
2F4C
100
AcDbXrecord
280
     1
1000
auto
  0
XRECORD
  5
2F53
102
{ACAD_REACTORS
330
2F4C
102
}
330
2F4C
100
AcDbXrecord
280
     1
 90
        1
  0
XRECORD
  5
2F50
102
{ACAD_REACTORS
330
2F4C
102
}
330
2F4C
100
AcDbXrecord
280
     1
 40
10.0
  0
XRECORD
  5
2F57
102
{ACAD_REACTORS
330
2F4C
102
}
330
2F4C
100
AcDbXrecord
280
     1
 40
10.0
  0
XRECORD
  5
2F4D
102
{ACAD_REACTORS
330
2F4C
102
}
330
2F4C
100
AcDbXrecord
280
     1
 40
10.0
  0
XRECORD
  5
2F5F
102
{ACAD_REACTORS
330
2F4C
102
}
330
2F4C
100
AcDbXrecord
280
     1
 40
10.0
  0
XRECORD
  5
2F4F
102
{ACAD_REACTORS
330
2F4C
102
}
330
2F4C
100
AcDbXrecord
280
     1
290
     0
  0
XRECORD
  5
2F58
102
{ACAD_REACTORS
330
2F4C
102
}
330
2F4C
100
AcDbXrecord
280
     1
 90
        1
  0
XRECORD
  5
2F5D
102
{ACAD_REACTORS
330
2F4C
102
}
330
2F4C
100
AcDbXrecord
280
     1
 40
0.0
  0
XRECORD
  5
2F5E
102
{ACAD_REACTORS
330
2F4C
102
}
330
2F4C
100
AcDbXrecord
280
     1
 40
0.0
  0
XRECORD
  5
2F4E
102
{ACAD_REACTORS
330
2F4C
102
}
330
2F4C
100
AcDbXrecord
280
     1
1000
Portrait
  0
XRECORD
  5
2F52
102
{ACAD_REACTORS
330
2F4C
102
}
330
2F4C
100
AcDbXrecord
280
     1
 40
297.0
  0
XRECORD
  5
2F59
102
{ACAD_REACTORS
330
2F4C
102
}
330
2F4C
100
AcDbXrecord
280
     1
 40
210.0
  0
XRECORD
  5
2F51
102
{ACAD_REACTORS
330
2F4C
102
}
330
2F4C
100
AcDbXrecord
280
     1
1000
1:1
  0
XRECORD
  5
2F55
102
{ACAD_REACTORS
330
2F4C
102
}
330
2F4C
100
AcDbXrecord
280
     1
290
     0
  0
XRECORD
  5
2F5C
102
{ACAD_REACTORS
330
2F4C
102
}
330
2F4C
100
AcDbXrecord
280
     1
290
     1
  0
XRECORD
  5
2F5A
102
{ACAD_REACTORS
330
2F4C
102
}
330
2F4C
100
AcDbXrecord
280
     1
 90
        4
  0
ENDSEC
  0
EOF
