  0
SECTION
  2
HEADER
  9
$ACADVER
  1
AC1024
  9
$ACADMAINTVER
 70
     6
  9
$DWGCODEPAGE
  3
ASCII
  9
$INSBASE
 10
0.0
 20
0.0
 30
0.0
  9
$EXTMIN
 10
1.000000000000000E+20
 20
1.000000000000000E+20
 30
1.000000000000000E+20
  9
$EXTMAX
 10
-1.000000000000000E+20
 20
-1.000000000000000E+20
 30
-1.000000000000000E+20
  9
$LIMMIN
 10
0.0
 20
0.0
  9
$LIMMAX
 10
12.0
 20
9.0
  9
$ORTHOMODE
 70
     0
  9
$REGENMODE
 70
     1
  9
$FILLMODE
 70
     1
  9
$QTEXTMODE
 70
     0
  9
$MIRRTEXT
 70
     1
  9
$LTSCALE
 40
1.0
  9
$ATTMODE
 70
     1
  9
$TEXTSIZE
 40
0.2
  9
$TRACEWID
 40
0.05
  9
$TEXTSTYLE
  7
Standard
  9
$CLAYER
  8
0
  9
$CELTYPE
  6
ByLayer
  9
$CECOLOR
 62
    18
  9
$CELTSCALE
 40
1.0
  9
$DISPSILH
 70
     0
  9
$DIMSCALE
 40
1.0
  9
$DIMASZ
 40
2.5
  9
$DIMEXO
 40
0.625
  9
$DIMDLI
 40
0.38
  9
$DIMRND
 40
0.0
  9
$DIMDLE
 40
0.0
  9
$DIMEXE
 40
1.25
  9
$DIMTP
 40
0.0
  9
$DIMTM
 40
0.0
  9
$DIMTXT
 40
2.5
  9
$DIMCEN
 40
0.09
  9
$DIMTSZ
 40
0.0
  9
$DIMTOL
 70
     0
  9
$DIMLIM
 70
     0
  9
$DIMTIH
 70
     1
  9
$DIMTOH
 70
     1
  9
$DIMSE1
 70
     0
  9
$DIMSE2
 70
     0
  9
$DIMTAD
 70
     0
  9
$DIMZIN
 70
     8
  9
$DIMBLK
  1

  9
$DIMASO
 70
     1
  9
$DIMSHO
 70
     1
  9
$DIMPOST
  1

  9
$DIMAPOST
  1

  9
$DIMALT
 70
     0
  9
$DIMALTD
 70
     2
  9
$DIMALTF
 40
25.4
  9
$DIMLFAC
 40
1.0
  9
$DIMTOFL
 70
     0
  9
$DIMTVP
 40
0.0
  9
$DIMTIX
 70
     0
  9
$DIMSOXD
 70
     0
  9
$DIMSAH
 70
     0
  9
$DIMBLK1
  1

  9
$DIMBLK2
  1

  9
$DIMSTYLE
  2
Standard
  9
$DIMCLRD
 70
    18
  9
$DIMCLRE
 70
    18
  9
$DIMCLRT
 70
    18
  9
$DIMTFAC
 40
1.0
  9
$DIMGAP
 40
0.625
  9
$DIMJUST
 70
     0
  9
$DIMSD1
 70
     0
  9
$DIMSD2
 70
     0
  9
$DIMTOLJ
 70
     1
  9
$DIMTZIN
 70
     0
  9
$DIMALTZ
 70
     0
  9
$DIMALTTZ
 70
     0
  9
$DIMUPT
 70
     0
  9
$DIMDEC
 70
     4
  9
$DIMTDEC
 70
     4
  9
$DIMALTU
 70
     2
  9
$DIMALTTD
 70
     2
  9
$DIMTXSTY
  7
Standard
  9
$DIMAUNIT
 70
     0
  9
$DIMADEC
 70
     0
  9
$DIMALTRND
 40
0.0
  9
$DIMAZIN
 70
     2
  9
$DIMDSEP
 70
    46
  9
$DIMATFIT
 70
     3
  9
$DIMFRAC
 70
     0
  9
$DIMLDRBLK
  1

  9
$DIMLUNIT
 70
     2
  9
$DIMLWD
 70
    -2
  9
$DIMLWE
 70
    -2
  9
$DIMTMOVE
 70
     0
  9
$DIMFXL
 40
1.0
  9
$DIMFXLON
 70
     0
  9
$DIMJOGANG
 40
0.7853981633974483
  9
$DIMTFILL
 70
     0
  9
$DIMTFILLCLR
 70
     0
  9
$DIMARCSYM
 70
     0
  9
$DIMLTYPE
  6

  9
$DIMLTEX1
  6

  9
$DIMLTEX2
  6

  9
$DIMTXTDIRECTION
 70
     0
  9
$LUNITS
 70
     2
  9
$LUPREC
 70
     4
  9
$SKETCHINC
 40
0.1
  9
$FILLETRAD
 40
0.5
  9
$AUNITS
 70
     0
  9
$AUPREC
 70
     0
  9
$MENU
  1
.
  9
$ELEVATION
 40
0.0
  9
$PELEVATION
 40
0.0
  9
$THICKNESS
 40
0.0
  9
$LIMCHECK
 70
     0
  9
$CHAMFERA
 40
0.5
  9
$CHAMFERB
 40
0.5
  9
$CHAMFERC
 40
1.0
  9
$CHAMFERD
 40
0.0
  9
$SKPOLY
 70
     0
  9
$TDCREATE
 40
2455936.714130151
  9
$TDUCREATE
 40
2455936.922463484
  9
$TDUPDATE
 40
2455936.714131053
  9
$TDUUPDATE
 40
2455936.922464387
  9
$TDINDWG
 40
0.0000000116
  9
$TDUSRTIMER
 40
0.0000000116
  9
$USRTIMER
 70
     1
  9
$ANGBASE
 50
0.0
  9
$ANGDIR
 70
     0
  9
$PDMODE
 70
     0
  9
$PDSIZE
 40
0.0
  9
$PLINEWID
 40
0.0
  9
$SPLFRAME
 70
     0
  9
$SPLINETYPE
 70
     6
  9
$SPLINESEGS
 70
     8
  9
$HANDSEED
  5
3512
  9
$SURFTAB1
 70
     6
  9
$SURFTAB2
 70
     6
  9
$SURFTYPE
 70
     6
  9
$SURFU
 70
     6
  9
$SURFV
 70
     6
  9
$UCSBASE
  2

  9
$UCSNAME
  2

  9
$UCSORG
 10
0.0
 20
0.0
 30
0.0
  9
$UCSXDIR
 10
1.0
 20
0.0
 30
0.0
  9
$UCSYDIR
 10
0.0
 20
1.0
 30
0.0
  9
$UCSORTHOREF
  2

  9
$UCSORTHOVIEW
 70
     0
  9
$UCSORGTOP
 10
0.0
 20
0.0
 30
0.0
  9
$UCSORGBOTTOM
 10
0.0
 20
0.0
 30
0.0
  9
$UCSORGLEFT
 10
0.0
 20
0.0
 30
0.0
  9
$UCSORGRIGHT
 10
0.0
 20
0.0
 30
0.0
  9
$UCSORGFRONT
 10
0.0
 20
0.0
 30
0.0
  9
$UCSORGBACK
 10
0.0
 20
0.0
 30
0.0
  9
$PUCSBASE
  2

  9
$PUCSNAME
  2

  9
$PUCSORG
 10
0.0
 20
0.0
 30
0.0
  9
$PUCSXDIR
 10
1.0
 20
0.0
 30
0.0
  9
$PUCSYDIR
 10
0.0
 20
1.0
 30
0.0
  9
$PUCSORTHOREF
  2

  9
$PUCSORTHOVIEW
 70
     0
  9
$PUCSORGTOP
 10
0.0
 20
0.0
 30
0.0
  9
$PUCSORGBOTTOM
 10
0.0
 20
0.0
 30
0.0
  9
$PUCSORGLEFT
 10
0.0
 20
0.0
 30
0.0
  9
$PUCSORGRIGHT
 10
0.0
 20
0.0
 30
0.0
  9
$PUCSORGFRONT
 10
0.0
 20
0.0
 30
0.0
  9
$PUCSORGBACK
 10
0.0
 20
0.0
 30
0.0
  9
$USERI1
 70
     0
  9
$USERI2
 70
     0
  9
$USERI3
 70
     0
  9
$USERI4
 70
     0
  9
$USERI5
 70
     0
  9
$USERR1
 40
0.0
  9
$USERR2
 40
0.0
  9
$USERR3
 40
0.0
  9
$USERR4
 40
0.0
  9
$USERR5
 40
0.0
  9
$WORLDVIEW
 70
     1
  9
$SHADEDGE
 70
     3
  9
$SHADEDIF
 70
    70
  9
$TILEMODE
 70
     1
  9
$MAXACTVP
 70
    64
  9
$PINSBASE
 10
0.0
 20
0.0
 30
0.0
  9
$PLIMCHECK
 70
     0
  9
$PEXTMIN
 10
1.000000000000000E+20
 20
1.000000000000000E+20
 30
1.000000000000000E+20
  9
$PEXTMAX
 10
-1.000000000000000E+20
 20
-1.000000000000000E+20
 30
-1.000000000000000E+20
  9
$PLIMMIN
 10
0.0
 20
0.0
  9
$PLIMMAX
 10
12.0
 20
9.0
  9
$UNITMODE
 70
     0
  9
$VISRETAIN
 70
     1
  9
$PLINEGEN
 70
     0
  9
$PSLTSCALE
 70
     1
  9
$TREEDEPTH
 70
  3020
  9
$CMLSTYLE
  2
Standard
  9
$CMLJUST
 70
     0
  9
$CMLSCALE
 40
1.0
  9
$PROXYGRAPHICS
 70
     1
  9
$MEASUREMENT
 70
     1
  9
$CELWEIGHT
370
    -1
  9
$ENDCAPS
280
     0
  9
$JOINSTYLE
280
     0
  9
$LWDISPLAY
290
     0
  9
$INSUNITS
 70
     4
  9
$HYPERLINKBASE
  1

  9
$STYLESHEET
  1

  9
$XEDIT
290
     1
  9
$CEPSNTYPE
380
     0
  9
$PSTYLEMODE
290
     1
  9
$FINGERPRINTGUID
  2
{D1565866-5B40-4E3C-BB5A-A7E063B26FCE}
  9
$VERSIONGUID
  2
{FAEB1C32-E019-11D5-929B-00C0DF256EC4}
  9
$EXTNAMES
290
     1
  9
$PSVPSCALE
 40
0.0
  9
$OLESTARTUP
290
     0
  9
$SORTENTS
280
   127
  9
$INDEXCTL
280
     0
  9
$HIDETEXT
280
     1
  9
$XCLIPFRAME
280
     2
  9
$HALOGAP
280
     0
  9
$OBSCOLOR
 70
   257
  9
$OBSLTYPE
280
     0
  9
$INTERSECTIONDISPLAY
280
     0
  9
$INTERSECTIONCOLOR
 70
   257
  9
$DIMASSOC
280
     2
  9
$PROJECTNAME
  1

  9
$CAMERADISPLAY
290
     0
  9
$LENSLENGTH
 40
50.0
  9
$CAMERAHEIGHT
 40
0.0
  9
$STEPSPERSEC
 40
2.0
  9
$STEPSIZE
 40
6.0
  9
$3DDWFPREC
 40
2.0
  9
$PSOLWIDTH
 40
0.25
  9
$PSOLHEIGHT
 40
4.0
  9
$LOFTANG1
 40
1.570796326794897
  9
$LOFTANG2
 40
1.570796326794897
  9
$LOFTMAG1
 40
0.0
  9
$LOFTMAG2
 40
0.0
  9
$LOFTPARAM
 70
     7
  9
$LOFTNORMALS
280
     1
  9
$LATITUDE
 40
37.795
  9
$LONGITUDE
 40
-122.394
  9
$NORTHDIRECTION
 40
0.0
  9
$TIMEZONE
 70
 -8000
  9
$LIGHTGLYPHDISPLAY
280
     1
  9
$TILEMODELIGHTSYNCH
280
     1
  9
$SOLIDHIST
280
     1
  9
$SHOWHIST
280
     1
  9
$DWFFRAME
280
     2
  9
$DGNFRAME
280
     2
  9
$REALWORLDSCALE
290
     1
  9
$INTERFERECOLOR
 62
   256
  9
$CSHADOW
280
     0
  9
$SHADOWPLANELOCATION
 40
0.0
  0
ENDSEC
  0
SECTION
  2
CLASSES
  0
CLASS
  1
ACDBDICTIONARYWDFLT
  2
AcDbDictionaryWithDefault
  3
ObjectDBX Classes
 90
        0
 91
        4
280
     0
281
     0
  0
CLASS
  1
VISUALSTYLE
  2
AcDbVisualStyle
  3
ObjectDBX Classes
 90
     4095
 91
        4
280
     0
281
     0
  0
CLASS
  1
MATERIAL
  2
AcDbMaterial
  3
ObjectDBX Classes
 90
     1153
 91
        4
280
     0
281
     0
  0
ENDSEC
  0
SECTION
  2
TABLES
  0
TABLE
  2
VPORT
  5
34AF
330
0
100
AcDbSymbolTable
 70
     1
  0
VPORT
  5
34CF
330
34AF
100
AcDbSymbolTableRecord
100
AcDbViewportTableRecord
  2
*Active
 70
     0
 10
0.0
 20
0.0
 11
1.0
 21
1.0
 12
10.42990654205607
 22
4.5
 13
0.0
 23
0.0
 14
0.5
 24
0.5
 15
0.5
 25
0.5
 16
0.0
 26
0.0
 36
1.0
 17
0.0
 27
0.0
 37
0.0
 40
9.0
 41
1.972972972850329
 42
50.0
 43
0.0
 44
0.0
 50
0.0
 51
0.0
 71
     0
 72
   100
 73
     1
 74
     3
 75
     0
 76
     0
 77
     0
 78
     0
281
     0
 65
     1
110
0.0
120
0.0
130
0.0
111
1.0
121
0.0
131
0.0
112
0.0
122
1.0
132
0.0
 79
     0
146
0.0
 60
     3
 61
     5
292
     1
282
     1
141
0.0
142
0.0
 63
   250
  0
ENDTAB
  0
TABLE
  2
LTYPE
  5
34AC
330
0
100
AcDbSymbolTable
 70
    19
  0
LTYPE
  5
34BA
330
34AC
100
AcDbSymbolTableRecord
100
AcDbLinetypeTableRecord
  2
ByBlock
 70
     0
  3

 72
    65
 73
     0
 40
0.0
  0
LTYPE
  5
34BB
330
34AC
100
AcDbSymbolTableRecord
100
AcDbLinetypeTableRecord
  2
ByLayer
 70
     0
  3

 72
    65
 73
     0
 40
0.0
  0
LTYPE
  5
34BC
330
34AC
100
AcDbSymbolTableRecord
100
AcDbLinetypeTableRecord
  2
Continuous
 70
     0
  3
Solid line
 72
    65
 73
     0
 40
0.0
  0
LTYPE
  5
34FB
330
34AC
100
AcDbSymbolTableRecord
100
AcDbLinetypeTableRecord
  2
BORDER
 70
     0
  3

 72
    65
 73
     6
 40
42.00000000000001
 49
12.0
 74
     0
 49
-6.0
 74
     0
 49
12.0
 74
     0
 49
-5.95
 74
     0
 49
0.1
 74
     0
 49
-5.95
 74
     0
  0
LTYPE
  5
34FC
330
34AC
100
AcDbSymbolTableRecord
100
AcDbLinetypeTableRecord
  2
BORDER2
 70
     0
  3

 72
    65
 73
     6
 40
21.0
 49
6.0
 74
     0
 49
-3.0
 74
     0
 49
6.0
 74
     0
 49
-2.95
 74
     0
 49
0.1
 74
     0
 49
-2.95
 74
     0
  0
LTYPE
  5
34FD
330
34AC
100
AcDbSymbolTableRecord
100
AcDbLinetypeTableRecord
  2
BORDERX2
 70
     0
  3

 72
    65
 73
     6
 40
84.0
 49
24.0
 74
     0
 49
-12.0
 74
     0
 49
24.0
 74
     0
 49
-11.95
 74
     0
 49
0.1
 74
     0
 49
-11.95
 74
     0
  0
LTYPE
  5
34FE
330
34AC
100
AcDbSymbolTableRecord
100
AcDbLinetypeTableRecord
  2
CENTER
 70
     0
  3

 72
    65
 73
     4
 40
50.0
 49
32.0
 74
     0
 49
-6.0
 74
     0
 49
6.0
 74
     0
 49
-6.0
 74
     0
  0
LTYPE
  5
34FF
330
34AC
100
AcDbSymbolTableRecord
100
AcDbLinetypeTableRecord
  2
CENTER2
 70
     0
  3

 72
    65
 73
     4
 40
25.0
 49
16.0
 74
     0
 49
-3.0
 74
     0
 49
3.0
 74
     0
 49
-3.0
 74
     0
  0
LTYPE
  5
3500
330
34AC
100
AcDbSymbolTableRecord
100
AcDbLinetypeTableRecord
  2
CENTERX2
 70
     0
  3

 72
    65
 73
     4
 40
100.0
 49
64.0
 74
     0
 49
-12.0
 74
     0
 49
12.0
 74
     0
 49
-12.0
 74
     0
  0
LTYPE
  5
3501
330
34AC
100
AcDbSymbolTableRecord
100
AcDbLinetypeTableRecord
  2
DASHDOT
 70
     0
  3

 72
    65
 73
     4
 40
24.0
 49
12.0
 74
     0
 49
-5.95
 74
     0
 49
0.1
 74
     0
 49
-5.95
 74
     0
  0
LTYPE
  5
3502
330
34AC
100
AcDbSymbolTableRecord
100
AcDbLinetypeTableRecord
  2
DASHDOT2
 70
     0
  3

 72
    65
 73
     4
 40
12.0
 49
6.0
 74
     0
 49
-2.95
 74
     0
 49
0.1
 74
     0
 49
-2.95
 74
     0
  0
LTYPE
  5
3503
330
34AC
100
AcDbSymbolTableRecord
100
AcDbLinetypeTableRecord
  2
DASHDOTX2
 70
     0
  3

 72
    65
 73
     4
 40
48.0
 49
24.0
 74
     0
 49
-11.95
 74
     0
 49
0.1
 74
     0
 49
-11.95
 74
     0
  0
LTYPE
  5
3504
330
34AC
100
AcDbSymbolTableRecord
100
AcDbLinetypeTableRecord
  2
DASHED
 70
     0
  3

 72
    65
 73
     2
 40
18.0
 49
12.0
 74
     0
 49
-6.0
 74
     0
  0
LTYPE
  5
3505
330
34AC
100
AcDbSymbolTableRecord
100
AcDbLinetypeTableRecord
  2
DASHED2
 70
     0
  3

 72
    65
 73
     2
 40
9.0
 49
6.0
 74
     0
 49
-3.0
 74
     0
  0
LTYPE
  5
3506
330
34AC
100
AcDbSymbolTableRecord
100
AcDbLinetypeTableRecord
  2
DASHEDX2
 70
     0
  3

 72
    65
 73
     2
 40
36.0
 49
24.0
 74
     0
 49
-12.0
 74
     0
  0
LTYPE
  5
3507
330
34AC
100
AcDbSymbolTableRecord
100
AcDbLinetypeTableRecord
  2
DIVIDE
 70
     0
  3

 72
    65
 73
     6
 40
29.99999999999999
 49
12.0
 74
     0
 49
-5.9
 74
     0
 49
0.15
 74
     0
 49
-5.9
 74
     0
 49
0.15
 74
     0
 49
-5.9
 74
     0
  0
LTYPE
  5
3508
330
34AC
100
AcDbSymbolTableRecord
100
AcDbLinetypeTableRecord
  2
DIVIDE2
 70
     0
  3

 72
    65
 73
     6
 40
15.0
 49
6.0
 74
     0
 49
-2.9
 74
     0
 49
0.15
 74
     0
 49
-2.9
 74
     0
 49
0.15
 74
     0
 49
-2.9
 74
     0
  0
LTYPE
  5
3509
330
34AC
100
AcDbSymbolTableRecord
100
AcDbLinetypeTableRecord
  2
DIVIDEX2
 70
     0
  3

 72
    65
 73
     6
 40
59.99999999999999
 49
24.0
 74
     0
 49
-11.9
 74
     0
 49
0.15
 74
     0
 49
-11.9
 74
     0
 49
0.15
 74
     0
 49
-11.9
 74
     0
  0
LTYPE
  5
350A
330
34AC
100
AcDbSymbolTableRecord
100
AcDbLinetypeTableRecord
  2
DOT
 70
     0
  3

 72
    65
 73
     2
 40
6.3
 49
0.1
 74
     0
 49
-6.2
 74
     0
  0
LTYPE
  5
350B
330
34AC
100
AcDbSymbolTableRecord
100
AcDbLinetypeTableRecord
  2
DOT2
 70
     0
  3

 72
    65
 73
     2
 40
3.2
 49
0.1
 74
     0
 49
-3.1
 74
     0
  0
LTYPE
  5
350C
330
34AC
100
AcDbSymbolTableRecord
100
AcDbLinetypeTableRecord
  2
DOTX2
 70
     0
  3

 72
    65
 73
     2
 40
12.5
 49
0.1
 74
     0
 49
-12.4
 74
     0
  0
ENDTAB
  0
TABLE
  2
LAYER
  5
34A9
330
0
100
AcDbSymbolTable
 70
     4
  0
LAYER
  5
34B7
330
34A9
100
AcDbSymbolTableRecord
100
AcDbLayerTableRecord
  2
0
 70
     0
 62
     7
420
 16777215
  6
Continuous
370
    25
390
34B6
347
34E4
  0
LAYER
  5
350D
330
34A9
100
AcDbSymbolTableRecord
100
AcDbLayerTableRecord
  2
TEXT
 70
     0
 62
     5
420
      255
  6
Continuous
370
    -3
390
34B6
347
34E4
  0
LAYER
  5
350E
330
34A9
100
AcDbSymbolTableRecord
100
AcDbLayerTableRecord
  2
CUTS
 70
     0
 62
     1
420
 16711680
  6
Continuous
370
    -3
390
34B6
347
34E4
  0
LAYER
  5
350F
330
34A9
100
AcDbSymbolTableRecord
100
AcDbLayerTableRecord
  2
laser bed referance
 70
     0
 62
     3
420
    65280
  6
Continuous
370
    25
390
34B6
347
34E4
  0
ENDTAB
  0
TABLE
  2
STYLE
  5
34AA
330
0
100
AcDbSymbolTable
 70
     1
  0
STYLE
  5
34B8
330
34AA
100
AcDbSymbolTableRecord
100
AcDbTextStyleTableRecord
  2
Standard
 70
     0
 40
0.0
 41
1.0
 50
0.0
 71
     0
 42
0.2
  3
txt
  4

  0
ENDTAB
  0
TABLE
  2
VIEW
  5
34AD
330
0
100
AcDbSymbolTable
 70
     0
  0
ENDTAB
  0
TABLE
  2
UCS
  5
34AE
330
0
100
AcDbSymbolTable
 70
     0
  0
ENDTAB
  0
TABLE
  2
APPID
  5
34B0
330
0
100
AcDbSymbolTable
 70
     2
  0
APPID
  5
34B9
330
34B0
100
AcDbSymbolTableRecord
100
AcDbRegAppTableRecord
  2
ACAD
 70
     0
  0
APPID
  5
34E5
330
34B0
100
AcDbSymbolTableRecord
100
AcDbRegAppTableRecord
  2
QCAD
 70
     0
  0
ENDTAB
  0
TABLE
  2
DIMSTYLE
  5
34B1
330
0
100
AcDbSymbolTable
 70
     2
100
AcDbDimStyleTable
  0
DIMSTYLE
105
34CD
330
34B1
100
AcDbSymbolTableRecord
100
AcDbDimStyleTableRecord
  2
Standard
 70
     0
178
     0
340
34B8
  0
DIMSTYLE
105
34FA
330
34B1
100
AcDbSymbolTableRecord
100
AcDbDimStyleTableRecord
  2
QCADDimStyle
 70
     0
 41
2.5
 42
0.625
 44
1.25
 73
     0
 77
     1
140
2.5
147
0.625
178
     0
340
34B8
  0
ENDTAB
  0
TABLE
  2
BLOCK_RECORD
  5
34A8
330
0
100
AcDbSymbolTable
 70
     1
  0
BLOCK_RECORD
  5
34C5
330
34A8
100
AcDbSymbolTableRecord
100
AcDbBlockTableRecord
  2
*Model_Space
340
34C8
 70
     0
280
     1
281
     0
  0
BLOCK_RECORD
  5
34C1
330
34A8
100
AcDbSymbolTableRecord
100
AcDbBlockTableRecord
  2
*Paper_Space
340
34C4
 70
     0
280
     1
281
     0
  0
BLOCK_RECORD
  5
34C9
330
34A8
100
AcDbSymbolTableRecord
100
AcDbBlockTableRecord
  2
*Paper_Space0
340
34CC
 70
     0
280
     1
281
     0
  0
ENDTAB
  0
ENDSEC
  0
SECTION
  2
BLOCKS
  0
BLOCK
  5
34C6
330
34C5
100
AcDbEntity
  8
0
100
AcDbBlockBegin
  2
*Model_Space
 70
     0
 10
0.0
 20
0.0
 30
0.0
  3
*Model_Space
  1

  0
ENDBLK
  5
34C7
330
34C5
100
AcDbEntity
  8
0
100
AcDbBlockEnd
  0
BLOCK
  5
34C2
330
34C1
100
AcDbEntity
 67
     1
  8
0
100
AcDbBlockBegin
  2
*Paper_Space
 70
     0
 10
0.0
 20
0.0
 30
0.0
  3
*Paper_Space
  1

  0
ENDBLK
  5
34C3
330
34C1
100
AcDbEntity
 67
     1
  8
0
100
AcDbBlockEnd
  0
BLOCK
  5
34CA
330
34C9
100
AcDbEntity
  8
0
100
AcDbBlockBegin
  2
*Paper_Space0
 70
     0
 10
0.0
 20
0.0
 30
0.0
  3
*Paper_Space0
  1

  0
ENDBLK
  5
34CB
330
34C9
100
AcDbEntity
  8
0
100
AcDbBlockEnd
  0
ENDSEC
  0
SECTION
  2
ENTITIES
  0
LINE
  5
22
330
34C5
100
AcDbEntity
  8
laser bed referance
100
AcDbLine
 10
-0.0000000000000187
 20
-304.8
 30
0.0
 11
0.0
 21
0.0
 31
0.0
  0
LINE
  5
2B
330
34C5
100
AcDbEntity
  8
laser bed referance
100
AcDbLine
 10
-0.0000000000000187
 20
-304.8
 30
0.0
 11
304.8
 21
-304.8
 31
0.0
  0
SPLINE
  5
2FDB
330
34C5
100
AcDbEntity
  8
CUTS
 62
     1
420
 16711680
370
    25
100
AcDbSpline
210
0.0
220
0.0
230
1.0
 70
     8
 71
     3
 72
     8
 73
     4
 74
     0
 42
0.000000001
 43
0.001
 12
1.0
 22
0.0
 32
0.0
 13
1.0
 23
0.0
 33
0.0
 40
0.0
 40
0.0
 40
0.0
 40
0.0
 40
1.0
 40
1.0
 40
1.0
 40
1.0
 10
179.3983999695163
 20
-166.4255920645618
 30
0.0
 10
179.3983999695163
 20
-167.254019564562
 30
0.0
 10
178.7268174695164
 20
-167.925602064562
 30
0.0
 10
177.8983887195163
 20
-167.925602064562
 30
0.0
  0
SPLINE
  5
2FDE
330
34C5
100
AcDbEntity
  8
CUTS
 62
     1
420
 16711680
370
    25
100
AcDbSpline
210
0.0
220
0.0
230
1.0
 70
     8
 71
     3
 72
     8
 73
     4
 74
     0
 42
0.000000001
 43
0.001
 12
1.0
 22
0.0
 32
0.0
 13
1.0
 23
0.0
 33
0.0
 40
0.0
 40
0.0
 40
0.0
 40
0.0
 40
1.0
 40
1.0
 40
1.0
 40
1.0
 10
177.8983887195163
 20
-167.925602064562
 30
0.0
 10
177.0699262195164
 20
-167.925602064562
 30
0.0
 10
176.3983787195164
 20
-167.254019564562
 30
0.0
 10
176.3983787195164
 20
-166.4255920645618
 30
0.0
  0
SPLINE
  5
2FE0
330
34C5
100
AcDbEntity
  8
CUTS
 62
     1
420
 16711680
370
    25
100
AcDbSpline
210
0.0
220
0.0
230
1.0
 70
     8
 71
     3
 72
     8
 73
     4
 74
     0
 42
0.000000001
 43
0.001
 12
1.0
 22
0.0
 32
0.0
 13
1.0
 23
0.0
 33
0.0
 40
0.0
 40
0.0
 40
0.0
 40
0.0
 40
1.0
 40
1.0
 40
1.0
 40
1.0
 10
176.3983787195164
 20
-166.4255920645618
 30
0.0
 10
176.3983787195164
 20
-165.5971283145618
 30
0.0
 10
177.0699262195164
 20
-164.9255808145622
 30
0.0
 10
177.8983887195163
 20
-164.9255808145622
 30
0.0
  0
SPLINE
  5
2FE2
330
34C5
100
AcDbEntity
  8
CUTS
 62
     1
420
 16711680
370
    25
100
AcDbSpline
210
0.0
220
0.0
230
1.0
 70
     8
 71
     3
 72
     8
 73
     4
 74
     0
 42
0.000000001
 43
0.001
 12
1.0
 22
0.0
 32
0.0
 13
1.0
 23
0.0
 33
0.0
 40
0.0
 40
0.0
 40
0.0
 40
0.0
 40
1.0
 40
1.0
 40
1.0
 40
1.0
 10
177.8983887195163
 20
-164.9255808145622
 30
0.0
 10
178.7268174695164
 20
-164.9255808145622
 30
0.0
 10
179.3983999695163
 20
-165.5971283145618
 30
0.0
 10
179.3983999695163
 20
-166.4255920645618
 30
0.0
  0
SPLINE
  5
2FE5
330
34C5
100
AcDbEntity
  8
CUTS
 62
     1
420
 16711680
370
    25
100
AcDbSpline
210
0.0
220
0.0
230
1.0
 70
     8
 71
     3
 72
     8
 73
     4
 74
     0
 42
0.000000001
 43
0.001
 12
1.0
 22
0.0
 32
0.0
 13
1.0
 23
0.0
 33
0.0
 40
0.0
 40
0.0
 40
0.0
 40
0.0
 40
1.0
 40
1.0
 40
1.0
 40
1.0
 10
268.6691699695164
 20
-199.629035814562
 30
0.0
 10
268.6691699695164
 20
-200.4574645645619
 30
0.0
 10
267.9975862195163
 20
-201.1290470645619
 30
0.0
 10
267.1691587195164
 20
-201.1290470645619
 30
0.0
  0
SPLINE
  5
2FE8
330
34C5
100
AcDbEntity
  8
CUTS
 62
     1
420
 16711680
370
    25
100
AcDbSpline
210
0.0
220
0.0
230
1.0
 70
     8
 71
     3
 72
     8
 73
     4
 74
     0
 42
0.000000001
 43
0.001
 12
1.0
 22
0.0
 32
0.0
 13
1.0
 23
0.0
 33
0.0
 40
0.0
 40
0.0
 40
0.0
 40
0.0
 40
1.0
 40
1.0
 40
1.0
 40
1.0
 10
267.1691587195164
 20
-201.1290470645619
 30
0.0
 10
266.3407312195163
 20
-201.1290470645619
 30
0.0
 10
265.6691474695165
 20
-200.4574645645619
 30
0.0
 10
265.6691474695165
 20
-199.629035814562
 30
0.0
  0
SPLINE
  5
2FEA
330
34C5
100
AcDbEntity
  8
CUTS
 62
     1
420
 16711680
370
    25
100
AcDbSpline
210
0.0
220
0.0
230
1.0
 70
     8
 71
     3
 72
     8
 73
     4
 74
     0
 42
0.000000001
 43
0.001
 12
1.0
 22
0.0
 32
0.0
 13
1.0
 23
0.0
 33
0.0
 40
0.0
 40
0.0
 40
0.0
 40
0.0
 40
1.0
 40
1.0
 40
1.0
 40
1.0
 10
265.6691474695165
 20
-199.629035814562
 30
0.0
 10
265.6691474695165
 20
-198.8005720645618
 30
0.0
 10
266.3407312195163
 20
-198.1290245645619
 30
0.0
 10
267.1691587195164
 20
-198.1290245645619
 30
0.0
  0
SPLINE
  5
2FEC
330
34C5
100
AcDbEntity
  8
CUTS
 62
     1
420
 16711680
370
    25
100
AcDbSpline
210
0.0
220
0.0
230
1.0
 70
     8
 71
     3
 72
     8
 73
     4
 74
     0
 42
0.000000001
 43
0.001
 12
1.0
 22
0.0
 32
0.0
 13
1.0
 23
0.0
 33
0.0
 40
0.0
 40
0.0
 40
0.0
 40
0.0
 40
1.0
 40
1.0
 40
1.0
 40
1.0
 10
267.1691587195164
 20
-198.1290245645619
 30
0.0
 10
267.9975862195163
 20
-198.1290245645619
 30
0.0
 10
268.6691699695164
 20
-198.8005720645618
 30
0.0
 10
268.6691699695164
 20
-199.629035814562
 30
0.0
  0
SPLINE
  5
2FF1
330
34C5
100
AcDbEntity
  8
CUTS
 62
     1
420
 16711680
370
    25
100
AcDbSpline
210
0.0
220
0.0
230
1.0
 70
     8
 71
     3
 72
     8
 73
     4
 74
     0
 42
0.000000001
 43
0.001
 12
1.0
 22
0.0
 32
0.0
 13
1.0
 23
0.0
 33
0.0
 40
0.0
 40
0.0
 40
0.0
 40
0.0
 40
1.0
 40
1.0
 40
1.0
 40
1.0
 10
213.2872924695164
 20
-197.2153308145619
 30
0.0
 10
213.2872924695164
 20
-198.0437583145621
 30
0.0
 10
212.6157087195163
 20
-198.7153420645618
 30
0.0
 10
211.7872812195162
 20
-198.7153420645618
 30
0.0
  0
SPLINE
  5
2FF3
330
34C5
100
AcDbEntity
  8
CUTS
 62
     1
420
 16711680
370
    25
100
AcDbSpline
210
0.0
220
0.0
230
1.0
 70
     8
 71
     3
 72
     8
 73
     4
 74
     0
 42
0.000000001
 43
0.001
 12
1.0
 22
0.0
 32
0.0
 13
1.0
 23
0.0
 33
0.0
 40
0.0
 40
0.0
 40
0.0
 40
0.0
 40
1.0
 40
1.0
 40
1.0
 40
1.0
 10
211.7872812195162
 20
-198.7153420645618
 30
0.0
 10
210.9588174695164
 20
-198.7153420645618
 30
0.0
 10
210.2872699695163
 20
-198.0437583145621
 30
0.0
 10
210.2872699695163
 20
-197.2153308145619
 30
0.0
  0
SPLINE
  5
2FF6
330
34C5
100
AcDbEntity
  8
CUTS
 62
     1
420
 16711680
370
    25
100
AcDbSpline
210
0.0
220
0.0
230
1.0
 70
     8
 71
     3
 72
     8
 73
     4
 74
     0
 42
0.000000001
 43
0.001
 12
1.0
 22
0.0
 32
0.0
 13
1.0
 23
0.0
 33
0.0
 40
0.0
 40
0.0
 40
0.0
 40
0.0
 40
1.0
 40
1.0
 40
1.0
 40
1.0
 10
210.2872699695163
 20
-197.2153308145619
 30
0.0
 10
210.2872699695163
 20
-196.386902064562
 30
0.0
 10
210.9588174695164
 20
-195.7153195645619
 30
0.0
 10
211.7872812195162
 20
-195.7153195645619
 30
0.0
  0
SPLINE
  5
2FF8
330
34C5
100
AcDbEntity
  8
CUTS
 62
     1
420
 16711680
370
    25
100
AcDbSpline
210
0.0
220
0.0
230
1.0
 70
     8
 71
     3
 72
     8
 73
     4
 74
     0
 42
0.000000001
 43
0.001
 12
1.0
 22
0.0
 32
0.0
 13
1.0
 23
0.0
 33
0.0
 40
0.0
 40
0.0
 40
0.0
 40
0.0
 40
1.0
 40
1.0
 40
1.0
 40
1.0
 10
211.7872812195162
 20
-195.7153195645619
 30
0.0
 10
212.6157087195163
 20
-195.7153195645619
 30
0.0
 10
213.2872924695164
 20
-196.386902064562
 30
0.0
 10
213.2872924695164
 20
-197.2153308145619
 30
0.0
  0
SPLINE
  5
2FFD
330
34C5
100
AcDbEntity
  8
CUTS
 62
     1
420
 16711680
370
    25
100
AcDbSpline
210
0.0
220
0.0
230
1.0
 70
     8
 71
     3
 72
     8
 73
     4
 74
     0
 42
0.000000001
 43
0.001
 12
1.0
 22
0.0
 32
0.0
 13
1.0
 23
0.0
 33
0.0
 40
0.0
 40
0.0
 40
0.0
 40
0.0
 40
1.0
 40
1.0
 40
1.0
 40
1.0
 10
79.64762621951627
 20
-217.090477064562
 30
0.0
 10
79.64762621951627
 20
-217.9189058145618
 30
0.0
 10
78.97604371951616
 20
-218.5904883145619
 30
0.0
 10
78.14761496951633
 20
-218.5904883145619
 30
0.0
  0
SPLINE
  5
2FFF
330
34C5
100
AcDbEntity
  8
CUTS
 62
     1
420
 16711680
370
    25
100
AcDbSpline
210
0.0
220
0.0
230
1.0
 70
     8
 71
     3
 72
     8
 73
     4
 74
     0
 42
0.000000001
 43
0.001
 12
1.0
 22
0.0
 32
0.0
 13
1.0
 23
0.0
 33
0.0
 40
0.0
 40
0.0
 40
0.0
 40
0.0
 40
1.0
 40
1.0
 40
1.0
 40
1.0
 10
78.14761496951633
 20
-218.5904883145619
 30
0.0
 10
77.31918746951646
 20
-218.5904883145619
 30
0.0
 10
76.64760371951633
 20
-217.9189058145618
 30
0.0
 10
76.64760371951633
 20
-217.090477064562
 30
0.0
  0
SPLINE
  5
3001
330
34C5
100
AcDbEntity
  8
CUTS
 62
     1
420
 16711680
370
    25
100
AcDbSpline
210
0.0
220
0.0
230
1.0
 70
     8
 71
     3
 72
     8
 73
     4
 74
     0
 42
0.000000001
 43
0.001
 12
1.0
 22
0.0
 32
0.0
 13
1.0
 23
0.0
 33
0.0
 40
0.0
 40
0.0
 40
0.0
 40
0.0
 40
1.0
 40
1.0
 40
1.0
 40
1.0
 10
76.64760371951633
 20
-217.090477064562
 30
0.0
 10
76.64760371951633
 20
-216.2620495645619
 30
0.0
 10
77.31918746951646
 20
-215.5904670645618
 30
0.0
 10
78.14761496951633
 20
-215.5904670645618
 30
0.0
  0
SPLINE
  5
3004
330
34C5
100
AcDbEntity
  8
CUTS
 62
     1
420
 16711680
370
    25
100
AcDbSpline
210
0.0
220
0.0
230
1.0
 70
     8
 71
     3
 72
     8
 73
     4
 74
     0
 42
0.000000001
 43
0.001
 12
1.0
 22
0.0
 32
0.0
 13
1.0
 23
0.0
 33
0.0
 40
0.0
 40
0.0
 40
0.0
 40
0.0
 40
1.0
 40
1.0
 40
1.0
 40
1.0
 10
78.14761496951633
 20
-215.5904670645618
 30
0.0
 10
78.97604371951616
 20
-215.5904670645618
 30
0.0
 10
79.64762621951627
 20
-216.2620495645619
 30
0.0
 10
79.64762621951627
 20
-217.090477064562
 30
0.0
  0
SPLINE
  5
3008
330
34C5
100
AcDbEntity
  8
CUTS
 62
     1
420
 16711680
370
    25
100
AcDbSpline
210
0.0
220
0.0
230
1.0
 70
     8
 71
     3
 72
     8
 73
     4
 74
     0
 42
0.000000001
 43
0.001
 12
1.0
 22
0.0
 32
0.0
 13
1.0
 23
0.0
 33
0.0
 40
0.0
 40
0.0
 40
0.0
 40
0.0
 40
1.0
 40
1.0
 40
1.0
 40
1.0
 10
134.6844874695164
 20
-195.7153195645619
 30
0.0
 10
134.6844874695164
 20
-196.543747064562
 30
0.0
 10
134.0129037195163
 20
-197.2153308145619
 30
0.0
 10
133.1844762195162
 20
-197.2153308145619
 30
0.0
  0
SPLINE
  5
300B
330
34C5
100
AcDbEntity
  8
CUTS
 62
     1
420
 16711680
370
    25
100
AcDbSpline
210
0.0
220
0.0
230
1.0
 70
     8
 71
     3
 72
     8
 73
     4
 74
     0
 42
0.000000001
 43
0.001
 12
1.0
 22
0.0
 32
0.0
 13
1.0
 23
0.0
 33
0.0
 40
0.0
 40
0.0
 40
0.0
 40
0.0
 40
1.0
 40
1.0
 40
1.0
 40
1.0
 10
133.1844762195162
 20
-197.2153308145619
 30
0.0
 10
132.3560487195164
 20
-197.2153308145619
 30
0.0
 10
131.6844649695163
 20
-196.543747064562
 30
0.0
 10
131.6844649695163
 20
-195.7153195645619
 30
0.0
  0
SPLINE
  5
300E
330
34C5
100
AcDbEntity
  8
CUTS
 62
     1
420
 16711680
370
    25
100
AcDbSpline
210
0.0
220
0.0
230
1.0
 70
     8
 71
     3
 72
     8
 73
     4
 74
     0
 42
0.000000001
 43
0.001
 12
1.0
 22
0.0
 32
0.0
 13
1.0
 23
0.0
 33
0.0
 40
0.0
 40
0.0
 40
0.0
 40
0.0
 40
1.0
 40
1.0
 40
1.0
 40
1.0
 10
131.6844649695163
 20
-195.7153195645619
 30
0.0
 10
131.6844649695163
 20
-194.8868558145617
 30
0.0
 10
132.3560487195164
 20
-194.2153083145619
 30
0.0
 10
133.1844762195162
 20
-194.2153083145619
 30
0.0
  0
SPLINE
  5
3010
330
34C5
100
AcDbEntity
  8
CUTS
 62
     1
420
 16711680
370
    25
100
AcDbSpline
210
0.0
220
0.0
230
1.0
 70
     8
 71
     3
 72
     8
 73
     4
 74
     0
 42
0.000000001
 43
0.001
 12
1.0
 22
0.0
 32
0.0
 13
1.0
 23
0.0
 33
0.0
 40
0.0
 40
0.0
 40
0.0
 40
0.0
 40
1.0
 40
1.0
 40
1.0
 40
1.0
 10
133.1844762195162
 20
-194.2153083145619
 30
0.0
 10
134.0129037195163
 20
-194.2153083145619
 30
0.0
 10
134.6844874695164
 20
-194.8868558145617
 30
0.0
 10
134.6844874695164
 20
-195.7153195645619
 30
0.0
  0
LWPOLYLINE
  5
3044
330
34C5
100
AcDbEntity
  8
CUTS
 62
     1
420
 16711680
370
    25
100
AcDbPolyline
 90
       13
 70
     0
 43
0.0
 10
89.66722121951625
 20
-227.058919564562
 10
64.54732621951626
 20
-216.0222670645621
 10
64.54732621951626
 20
-206.9886858145618
 10
76.93229621951622
 20
-170.8483670645618
 10
80.06743121951627
 20
-163.6979133145618
 10
100.8668562195164
 20
-169.3056695645618
 10
115.2658349695164
 20
-167.273317064562
 10
123.9053624695164
 20
-160.697892064562
 10
192.0973062195164
 20
-160.7670358145618
 10
274.4656262195165
 20
-176.3044270645618
 10
274.4656262195165
 20
-220.6849308145619
 10
201.9839037195163
 20
-220.8877770645619
 10
167.1026487195163
 20
-227.058919564562
  0
LINE
  5
309A
330
34C5
100
AcDbEntity
  8
CUTS
 62
     1
420
 16711680
370
    25
100
AcDbLine
 10
89.66722121951625
 20
-227.058919564562
 30
0.0
 11
167.1026487195163
 21
-227.058919564562
 31
0.0
  0
LINE
  5
309B
330
34C5
100
AcDbEntity
  8
laser bed referance
100
AcDbLine
 10
0.0
 20
0.0
 30
0.0
 11
304.8
 21
0.0
 31
0.0
  0
LWPOLYLINE
  5
30C7
330
34C5
100
AcDbEntity
  8
CUTS
 62
     1
420
 16711680
370
    25
100
AcDbPolyline
 90
       13
 70
     0
 43
0.0
 10
96.09541473807855
 20
-297.7690482687472
 10
70.97551973807856
 20
-286.7323957687472
 10
70.97551973807856
 20
-277.698814518747
 10
83.36048973807851
 20
-241.558495768747
 10
86.49562473807856
 20
-234.408042018747
 10
107.2950497380787
 20
-240.015798268747
 10
121.6940284880787
 20
-237.9834457687471
 10
130.3335559880787
 20
-231.4080207687471
 10
198.5254997380787
 20
-231.477164518747
 10
280.8938197380788
 20
-247.014555768747
 10
280.8938197380788
 20
-291.3950595187471
 10
208.4120972380786
 20
-291.5979057687471
 10
173.5308422380786
 20
-297.7690482687472
  0
LINE
  5
311D
330
34C5
100
AcDbEntity
  8
CUTS
 62
     1
420
 16711680
370
    25
100
AcDbLine
 10
96.09541473807855
 20
-297.7690482687472
 30
0.0
 11
173.5308422380786
 21
-297.7690482687472
 31
0.0
  0
SPLINE
  5
3148
330
34C5
100
AcDbEntity
  8
CUTS
 62
     1
420
 16711680
370
    25
100
AcDbSpline
210
0.0
220
0.0
230
1.0
 70
     8
 71
     3
 72
     8
 73
     4
 74
     0
 42
0.000000001
 43
0.001
 12
1.0
 22
0.0
 32
0.0
 13
1.0
 23
0.0
 33
0.0
 40
0.0
 40
0.0
 40
0.0
 40
0.0
 40
1.0
 40
1.0
 40
1.0
 40
1.0
 10
185.8265934880786
 20
-237.135720768747
 30
0.0
 10
185.8265934880786
 20
-237.9641482687471
 30
0.0
 10
185.1550109880787
 20
-238.6357307687472
 30
0.0
 10
184.3265822380786
 20
-238.6357307687472
 30
0.0
  0
SPLINE
  5
314B
330
34C5
100
AcDbEntity
  8
CUTS
 62
     1
420
 16711680
370
    25
100
AcDbSpline
210
0.0
220
0.0
230
1.0
 70
     8
 71
     3
 72
     8
 73
     4
 74
     0
 42
0.000000001
 43
0.001
 12
1.0
 22
0.0
 32
0.0
 13
1.0
 23
0.0
 33
0.0
 40
0.0
 40
0.0
 40
0.0
 40
0.0
 40
1.0
 40
1.0
 40
1.0
 40
1.0
 10
184.3265822380786
 20
-238.6357307687472
 30
0.0
 10
183.4981197380787
 20
-238.6357307687472
 30
0.0
 10
182.8265722380787
 20
-237.9641482687471
 30
0.0
 10
182.8265722380787
 20
-237.135720768747
 30
0.0
  0
SPLINE
  5
314D
330
34C5
100
AcDbEntity
  8
CUTS
 62
     1
420
 16711680
370
    25
100
AcDbSpline
210
0.0
220
0.0
230
1.0
 70
     8
 71
     3
 72
     8
 73
     4
 74
     0
 42
0.000000001
 43
0.001
 12
1.0
 22
0.0
 32
0.0
 13
1.0
 23
0.0
 33
0.0
 40
0.0
 40
0.0
 40
0.0
 40
0.0
 40
1.0
 40
1.0
 40
1.0
 40
1.0
 10
182.8265722380787
 20
-237.135720768747
 30
0.0
 10
182.8265722380787
 20
-236.3072570187469
 30
0.0
 10
183.4981197380787
 20
-235.6357095187473
 30
0.0
 10
184.3265822380786
 20
-235.6357095187473
 30
0.0
  0
SPLINE
  5
314F
330
34C5
100
AcDbEntity
  8
CUTS
 62
     1
420
 16711680
370
    25
100
AcDbSpline
210
0.0
220
0.0
230
1.0
 70
     8
 71
     3
 72
     8
 73
     4
 74
     0
 42
0.000000001
 43
0.001
 12
1.0
 22
0.0
 32
0.0
 13
1.0
 23
0.0
 33
0.0
 40
0.0
 40
0.0
 40
0.0
 40
0.0
 40
1.0
 40
1.0
 40
1.0
 40
1.0
 10
184.3265822380786
 20
-235.6357095187473
 30
0.0
 10
185.1550109880787
 20
-235.6357095187473
 30
0.0
 10
185.8265934880786
 20
-236.3072570187469
 30
0.0
 10
185.8265934880786
 20
-237.135720768747
 30
0.0
  0
SPLINE
  5
3152
330
34C5
100
AcDbEntity
  8
CUTS
 62
     1
420
 16711680
370
    25
100
AcDbSpline
210
0.0
220
0.0
230
1.0
 70
     8
 71
     3
 72
     8
 73
     4
 74
     0
 42
0.000000001
 43
0.001
 12
1.0
 22
0.0
 32
0.0
 13
1.0
 23
0.0
 33
0.0
 40
0.0
 40
0.0
 40
0.0
 40
0.0
 40
1.0
 40
1.0
 40
1.0
 40
1.0
 10
275.0973634880787
 20
-270.3391645187471
 30
0.0
 10
275.0973634880787
 20
-271.1675932687471
 30
0.0
 10
274.4257797380786
 20
-271.8391757687471
 30
0.0
 10
273.5973522380787
 20
-271.8391757687471
 30
0.0
  0
SPLINE
  5
3155
330
34C5
100
AcDbEntity
  8
CUTS
 62
     1
420
 16711680
370
    25
100
AcDbSpline
210
0.0
220
0.0
230
1.0
 70
     8
 71
     3
 72
     8
 73
     4
 74
     0
 42
0.000000001
 43
0.001
 12
1.0
 22
0.0
 32
0.0
 13
1.0
 23
0.0
 33
0.0
 40
0.0
 40
0.0
 40
0.0
 40
0.0
 40
1.0
 40
1.0
 40
1.0
 40
1.0
 10
273.5973522380787
 20
-271.8391757687471
 30
0.0
 10
272.7689247380786
 20
-271.8391757687471
 30
0.0
 10
272.0973409880788
 20
-271.1675932687471
 30
0.0
 10
272.0973409880788
 20
-270.3391645187471
 30
0.0
  0
SPLINE
  5
3157
330
34C5
100
AcDbEntity
  8
CUTS
 62
     1
420
 16711680
370
    25
100
AcDbSpline
210
0.0
220
0.0
230
1.0
 70
     8
 71
     3
 72
     8
 73
     4
 74
     0
 42
0.000000001
 43
0.001
 12
1.0
 22
0.0
 32
0.0
 13
1.0
 23
0.0
 33
0.0
 40
0.0
 40
0.0
 40
0.0
 40
0.0
 40
1.0
 40
1.0
 40
1.0
 40
1.0
 10
272.0973409880788
 20
-270.3391645187471
 30
0.0
 10
272.0973409880788
 20
-269.510700768747
 30
0.0
 10
272.7689247380786
 20
-268.8391532687471
 30
0.0
 10
273.5973522380787
 20
-268.8391532687471
 30
0.0
  0
SPLINE
  5
3159
330
34C5
100
AcDbEntity
  8
CUTS
 62
     1
420
 16711680
370
    25
100
AcDbSpline
210
0.0
220
0.0
230
1.0
 70
     8
 71
     3
 72
     8
 73
     4
 74
     0
 42
0.000000001
 43
0.001
 12
1.0
 22
0.0
 32
0.0
 13
1.0
 23
0.0
 33
0.0
 40
0.0
 40
0.0
 40
0.0
 40
0.0
 40
1.0
 40
1.0
 40
1.0
 40
1.0
 10
273.5973522380787
 20
-268.8391532687471
 30
0.0
 10
274.4257797380786
 20
-268.8391532687471
 30
0.0
 10
275.0973634880787
 20
-269.510700768747
 30
0.0
 10
275.0973634880787
 20
-270.3391645187471
 30
0.0
  0
SPLINE
  5
315E
330
34C5
100
AcDbEntity
  8
CUTS
 62
     1
420
 16711680
370
    25
100
AcDbSpline
210
0.0
220
0.0
230
1.0
 70
     8
 71
     3
 72
     8
 73
     4
 74
     0
 42
0.000000001
 43
0.001
 12
1.0
 22
0.0
 32
0.0
 13
1.0
 23
0.0
 33
0.0
 40
0.0
 40
0.0
 40
0.0
 40
0.0
 40
1.0
 40
1.0
 40
1.0
 40
1.0
 10
219.7154859880787
 20
-267.9254595187471
 30
0.0
 10
219.7154859880787
 20
-268.7538870187473
 30
0.0
 10
219.0439022380786
 20
-269.4254707687469
 30
0.0
 10
218.2154747380785
 20
-269.4254707687469
 30
0.0
  0
SPLINE
  5
3160
330
34C5
100
AcDbEntity
  8
CUTS
 62
     1
420
 16711680
370
    25
100
AcDbSpline
210
0.0
220
0.0
230
1.0
 70
     8
 71
     3
 72
     8
 73
     4
 74
     0
 42
0.000000001
 43
0.001
 12
1.0
 22
0.0
 32
0.0
 13
1.0
 23
0.0
 33
0.0
 40
0.0
 40
0.0
 40
0.0
 40
0.0
 40
1.0
 40
1.0
 40
1.0
 40
1.0
 10
218.2154747380785
 20
-269.4254707687469
 30
0.0
 10
217.3870109880787
 20
-269.4254707687469
 30
0.0
 10
216.7154634880786
 20
-268.7538870187473
 30
0.0
 10
216.7154634880786
 20
-267.9254595187471
 30
0.0
  0
SPLINE
  5
3163
330
34C5
100
AcDbEntity
  8
CUTS
 62
     1
420
 16711680
370
    25
100
AcDbSpline
210
0.0
220
0.0
230
1.0
 70
     8
 71
     3
 72
     8
 73
     4
 74
     0
 42
0.000000001
 43
0.001
 12
1.0
 22
0.0
 32
0.0
 13
1.0
 23
0.0
 33
0.0
 40
0.0
 40
0.0
 40
0.0
 40
0.0
 40
1.0
 40
1.0
 40
1.0
 40
1.0
 10
216.7154634880786
 20
-267.9254595187471
 30
0.0
 10
216.7154634880786
 20
-267.0970307687471
 30
0.0
 10
217.3870109880787
 20
-266.425448268747
 30
0.0
 10
218.2154747380785
 20
-266.425448268747
 30
0.0
  0
SPLINE
  5
3165
330
34C5
100
AcDbEntity
  8
CUTS
 62
     1
420
 16711680
370
    25
100
AcDbSpline
210
0.0
220
0.0
230
1.0
 70
     8
 71
     3
 72
     8
 73
     4
 74
     0
 42
0.000000001
 43
0.001
 12
1.0
 22
0.0
 32
0.0
 13
1.0
 23
0.0
 33
0.0
 40
0.0
 40
0.0
 40
0.0
 40
0.0
 40
1.0
 40
1.0
 40
1.0
 40
1.0
 10
218.2154747380785
 20
-266.425448268747
 30
0.0
 10
219.0439022380786
 20
-266.425448268747
 30
0.0
 10
219.7154859880787
 20
-267.0970307687471
 30
0.0
 10
219.7154859880787
 20
-267.9254595187471
 30
0.0
  0
SPLINE
  5
316A
330
34C5
100
AcDbEntity
  8
CUTS
 62
     1
420
 16711680
370
    25
100
AcDbSpline
210
0.0
220
0.0
230
1.0
 70
     8
 71
     3
 72
     8
 73
     4
 74
     0
 42
0.000000001
 43
0.001
 12
1.0
 22
0.0
 32
0.0
 13
1.0
 23
0.0
 33
0.0
 40
0.0
 40
0.0
 40
0.0
 40
0.0
 40
1.0
 40
1.0
 40
1.0
 40
1.0
 10
86.07581973807856
 20
-287.8006057687471
 30
0.0
 10
86.07581973807856
 20
-288.6290345187469
 30
0.0
 10
85.40423723807845
 20
-289.3006170187471
 30
0.0
 10
84.57580848807862
 20
-289.3006170187471
 30
0.0
  0
SPLINE
  5
316C
330
34C5
100
AcDbEntity
  8
CUTS
 62
     1
420
 16711680
370
    25
100
AcDbSpline
210
0.0
220
0.0
230
1.0
 70
     8
 71
     3
 72
     8
 73
     4
 74
     0
 42
0.000000001
 43
0.001
 12
1.0
 22
0.0
 32
0.0
 13
1.0
 23
0.0
 33
0.0
 40
0.0
 40
0.0
 40
0.0
 40
0.0
 40
1.0
 40
1.0
 40
1.0
 40
1.0
 10
84.57580848807862
 20
-289.3006170187471
 30
0.0
 10
83.74738098807876
 20
-289.3006170187471
 30
0.0
 10
83.07579723807862
 20
-288.6290345187469
 30
0.0
 10
83.07579723807862
 20
-287.8006057687471
 30
0.0
  0
SPLINE
  5
316E
330
34C5
100
AcDbEntity
  8
CUTS
 62
     1
420
 16711680
370
    25
100
AcDbSpline
210
0.0
220
0.0
230
1.0
 70
     8
 71
     3
 72
     8
 73
     4
 74
     0
 42
0.000000001
 43
0.001
 12
1.0
 22
0.0
 32
0.0
 13
1.0
 23
0.0
 33
0.0
 40
0.0
 40
0.0
 40
0.0
 40
0.0
 40
1.0
 40
1.0
 40
1.0
 40
1.0
 10
83.07579723807862
 20
-287.8006057687471
 30
0.0
 10
83.07579723807862
 20
-286.972178268747
 30
0.0
 10
83.74738098807876
 20
-286.3005957687469
 30
0.0
 10
84.57580848807862
 20
-286.3005957687469
 30
0.0
  0
SPLINE
  5
3171
330
34C5
100
AcDbEntity
  8
CUTS
 62
     1
420
 16711680
370
    25
100
AcDbSpline
210
0.0
220
0.0
230
1.0
 70
     8
 71
     3
 72
     8
 73
     4
 74
     0
 42
0.000000001
 43
0.001
 12
1.0
 22
0.0
 32
0.0
 13
1.0
 23
0.0
 33
0.0
 40
0.0
 40
0.0
 40
0.0
 40
0.0
 40
1.0
 40
1.0
 40
1.0
 40
1.0
 10
84.57580848807862
 20
-286.3005957687469
 30
0.0
 10
85.40423723807845
 20
-286.3005957687469
 30
0.0
 10
86.07581973807856
 20
-286.972178268747
 30
0.0
 10
86.07581973807856
 20
-287.8006057687471
 30
0.0
  0
SPLINE
  5
3175
330
34C5
100
AcDbEntity
  8
CUTS
 62
     1
420
 16711680
370
    25
100
AcDbSpline
210
0.0
220
0.0
230
1.0
 70
     8
 71
     3
 72
     8
 73
     4
 74
     0
 42
0.000000001
 43
0.001
 12
1.0
 22
0.0
 32
0.0
 13
1.0
 23
0.0
 33
0.0
 40
0.0
 40
0.0
 40
0.0
 40
0.0
 40
1.0
 40
1.0
 40
1.0
 40
1.0
 10
141.1126809880787
 20
-266.425448268747
 30
0.0
 10
141.1126809880787
 20
-267.2538757687471
 30
0.0
 10
140.4410972380786
 20
-267.9254595187471
 30
0.0
 10
139.6126697380785
 20
-267.9254595187471
 30
0.0
  0
SPLINE
  5
3178
330
34C5
100
AcDbEntity
  8
CUTS
 62
     1
420
 16711680
370
    25
100
AcDbSpline
210
0.0
220
0.0
230
1.0
 70
     8
 71
     3
 72
     8
 73
     4
 74
     0
 42
0.000000001
 43
0.001
 12
1.0
 22
0.0
 32
0.0
 13
1.0
 23
0.0
 33
0.0
 40
0.0
 40
0.0
 40
0.0
 40
0.0
 40
1.0
 40
1.0
 40
1.0
 40
1.0
 10
139.6126697380785
 20
-267.9254595187471
 30
0.0
 10
138.7842422380787
 20
-267.9254595187471
 30
0.0
 10
138.1126584880786
 20
-267.2538757687471
 30
0.0
 10
138.1126584880786
 20
-266.425448268747
 30
0.0
  0
SPLINE
  5
317A
330
34C5
100
AcDbEntity
  8
CUTS
 62
     1
420
 16711680
370
    25
100
AcDbSpline
210
0.0
220
0.0
230
1.0
 70
     8
 71
     3
 72
     8
 73
     4
 74
     0
 42
0.000000001
 43
0.001
 12
1.0
 22
0.0
 32
0.0
 13
1.0
 23
0.0
 33
0.0
 40
0.0
 40
0.0
 40
0.0
 40
0.0
 40
1.0
 40
1.0
 40
1.0
 40
1.0
 10
138.1126584880786
 20
-266.425448268747
 30
0.0
 10
138.1126584880786
 20
-265.5969845187469
 30
0.0
 10
138.7842422380787
 20
-264.9254370187471
 30
0.0
 10
139.6126697380785
 20
-264.9254370187471
 30
0.0
  0
SPLINE
  5
317C
330
34C5
100
AcDbEntity
  8
CUTS
 62
     1
420
 16711680
370
    25
100
AcDbSpline
210
0.0
220
0.0
230
1.0
 70
     8
 71
     3
 72
     8
 73
     4
 74
     0
 42
0.000000001
 43
0.001
 12
1.0
 22
0.0
 32
0.0
 13
1.0
 23
0.0
 33
0.0
 40
0.0
 40
0.0
 40
0.0
 40
0.0
 40
1.0
 40
1.0
 40
1.0
 40
1.0
 10
139.6126697380785
 20
-264.9254370187471
 30
0.0
 10
140.4410972380786
 20
-264.9254370187471
 30
0.0
 10
141.1126809880787
 20
-265.5969845187469
 30
0.0
 10
141.1126809880787
 20
-266.425448268747
 30
0.0
  0
LINE
  5
3188
330
34C5
100
AcDbEntity
  8
CUTS
 62
     1
420
 16711680
370
    25
100
AcDbLine
 10
84.52466640466645
 20
-155.0631521566643
 30
0.0
 11
161.9600939046665
 21
-155.0631521566643
 31
0.0
  0
SPLINE
  5
31B3
330
34C5
100
AcDbEntity
  8
CUTS
 62
     1
420
 16711680
370
    25
100
AcDbSpline
210
0.0
220
0.0
230
1.0
 70
     8
 71
     3
 72
     8
 73
     4
 74
     0
 42
0.000000001
 43
0.001
 12
1.0
 22
0.0
 32
0.0
 13
1.0
 23
0.0
 33
0.0
 40
0.0
 40
0.0
 40
0.0
 40
0.0
 40
1.0
 40
1.0
 40
1.0
 40
1.0
 10
174.2558451546665
 20
-94.42982465666418
 30
0.0
 10
174.2558451546665
 20
-95.2582521566643
 30
0.0
 10
173.5842626546666
 20
-95.92983465666438
 30
0.0
 10
172.7558339046665
 20
-95.92983465666438
 30
0.0
  0
SPLINE
  5
31B6
330
34C5
100
AcDbEntity
  8
CUTS
 62
     1
420
 16711680
370
    25
100
AcDbSpline
210
0.0
220
0.0
230
1.0
 70
     8
 71
     3
 72
     8
 73
     4
 74
     0
 42
0.000000001
 43
0.001
 12
1.0
 22
0.0
 32
0.0
 13
1.0
 23
0.0
 33
0.0
 40
0.0
 40
0.0
 40
0.0
 40
0.0
 40
1.0
 40
1.0
 40
1.0
 40
1.0
 10
172.7558339046665
 20
-95.92983465666438
 30
0.0
 10
171.9273714046666
 20
-95.92983465666438
 30
0.0
 10
171.2558239046666
 20
-95.2582521566643
 30
0.0
 10
171.2558239046666
 20
-94.42982465666418
 30
0.0
  0
SPLINE
  5
31B8
330
34C5
100
AcDbEntity
  8
CUTS
 62
     1
420
 16711680
370
    25
100
AcDbSpline
210
0.0
220
0.0
230
1.0
 70
     8
 71
     3
 72
     8
 73
     4
 74
     0
 42
0.000000001
 43
0.001
 12
1.0
 22
0.0
 32
0.0
 13
1.0
 23
0.0
 33
0.0
 40
0.0
 40
0.0
 40
0.0
 40
0.0
 40
1.0
 40
1.0
 40
1.0
 40
1.0
 10
171.2558239046666
 20
-94.42982465666418
 30
0.0
 10
171.2558239046666
 20
-93.6013609066641
 30
0.0
 10
171.9273714046666
 20
-92.9298134066645
 30
0.0
 10
172.7558339046665
 20
-92.9298134066645
 30
0.0
  0
SPLINE
  5
31BA
330
34C5
100
AcDbEntity
  8
CUTS
 62
     1
420
 16711680
370
    25
100
AcDbSpline
210
0.0
220
0.0
230
1.0
 70
     8
 71
     3
 72
     8
 73
     4
 74
     0
 42
0.000000001
 43
0.001
 12
1.0
 22
0.0
 32
0.0
 13
1.0
 23
0.0
 33
0.0
 40
0.0
 40
0.0
 40
0.0
 40
0.0
 40
1.0
 40
1.0
 40
1.0
 40
1.0
 10
172.7558339046665
 20
-92.9298134066645
 30
0.0
 10
173.5842626546666
 20
-92.9298134066645
 30
0.0
 10
174.2558451546665
 20
-93.6013609066641
 30
0.0
 10
174.2558451546665
 20
-94.42982465666418
 30
0.0
  0
SPLINE
  5
31BD
330
34C5
100
AcDbEntity
  8
CUTS
 62
     1
420
 16711680
370
    25
100
AcDbSpline
210
0.0
220
0.0
230
1.0
 70
     8
 71
     3
 72
     8
 73
     4
 74
     0
 42
0.000000001
 43
0.001
 12
1.0
 22
0.0
 32
0.0
 13
1.0
 23
0.0
 33
0.0
 40
0.0
 40
0.0
 40
0.0
 40
0.0
 40
1.0
 40
1.0
 40
1.0
 40
1.0
 10
263.5266151546666
 20
-127.6332684066643
 30
0.0
 10
263.5266151546666
 20
-128.4616971566642
 30
0.0
 10
262.8550314046665
 20
-129.1332796566642
 30
0.0
 10
262.0266039046666
 20
-129.1332796566642
 30
0.0
  0
SPLINE
  5
31C0
330
34C5
100
AcDbEntity
  8
CUTS
 62
     1
420
 16711680
370
    25
100
AcDbSpline
210
0.0
220
0.0
230
1.0
 70
     8
 71
     3
 72
     8
 73
     4
 74
     0
 42
0.000000001
 43
0.001
 12
1.0
 22
0.0
 32
0.0
 13
1.0
 23
0.0
 33
0.0
 40
0.0
 40
0.0
 40
0.0
 40
0.0
 40
1.0
 40
1.0
 40
1.0
 40
1.0
 10
262.0266039046666
 20
-129.1332796566642
 30
0.0
 10
261.1981764046665
 20
-129.1332796566642
 30
0.0
 10
260.5265926546667
 20
-128.4616971566642
 30
0.0
 10
260.5265926546667
 20
-127.6332684066643
 30
0.0
  0
SPLINE
  5
31C2
330
34C5
100
AcDbEntity
  8
CUTS
 62
     1
420
 16711680
370
    25
100
AcDbSpline
210
0.0
220
0.0
230
1.0
 70
     8
 71
     3
 72
     8
 73
     4
 74
     0
 42
0.000000001
 43
0.001
 12
1.0
 22
0.0
 32
0.0
 13
1.0
 23
0.0
 33
0.0
 40
0.0
 40
0.0
 40
0.0
 40
0.0
 40
1.0
 40
1.0
 40
1.0
 40
1.0
 10
260.5265926546667
 20
-127.6332684066643
 30
0.0
 10
260.5265926546667
 20
-126.8048046566642
 30
0.0
 10
261.1981764046665
 20
-126.1332571566642
 30
0.0
 10
262.0266039046666
 20
-126.1332571566642
 30
0.0
  0
SPLINE
  5
31C4
330
34C5
100
AcDbEntity
  8
CUTS
 62
     1
420
 16711680
370
    25
100
AcDbSpline
210
0.0
220
0.0
230
1.0
 70
     8
 71
     3
 72
     8
 73
     4
 74
     0
 42
0.000000001
 43
0.001
 12
1.0
 22
0.0
 32
0.0
 13
1.0
 23
0.0
 33
0.0
 40
0.0
 40
0.0
 40
0.0
 40
0.0
 40
1.0
 40
1.0
 40
1.0
 40
1.0
 10
262.0266039046666
 20
-126.1332571566642
 30
0.0
 10
262.8550314046665
 20
-126.1332571566642
 30
0.0
 10
263.5266151546666
 20
-126.8048046566642
 30
0.0
 10
263.5266151546666
 20
-127.6332684066643
 30
0.0
  0
SPLINE
  5
31C9
330
34C5
100
AcDbEntity
  8
CUTS
 62
     1
420
 16711680
370
    25
100
AcDbSpline
210
0.0
220
0.0
230
1.0
 70
     8
 71
     3
 72
     8
 73
     4
 74
     0
 42
0.000000001
 43
0.001
 12
1.0
 22
0.0
 32
0.0
 13
1.0
 23
0.0
 33
0.0
 40
0.0
 40
0.0
 40
0.0
 40
0.0
 40
1.0
 40
1.0
 40
1.0
 40
1.0
 10
208.1447376546666
 20
-125.2195634066642
 30
0.0
 10
208.1447376546666
 20
-126.0479909066644
 30
0.0
 10
207.4731539046665
 20
-126.7195746566641
 30
0.0
 10
206.6447264046664
 20
-126.7195746566641
 30
0.0
  0
SPLINE
  5
31CB
330
34C5
100
AcDbEntity
  8
CUTS
 62
     1
420
 16711680
370
    25
100
AcDbSpline
210
0.0
220
0.0
230
1.0
 70
     8
 71
     3
 72
     8
 73
     4
 74
     0
 42
0.000000001
 43
0.001
 12
1.0
 22
0.0
 32
0.0
 13
1.0
 23
0.0
 33
0.0
 40
0.0
 40
0.0
 40
0.0
 40
0.0
 40
1.0
 40
1.0
 40
1.0
 40
1.0
 10
206.6447264046664
 20
-126.7195746566641
 30
0.0
 10
205.8162626546666
 20
-126.7195746566641
 30
0.0
 10
205.1447151546665
 20
-126.0479909066644
 30
0.0
 10
205.1447151546665
 20
-125.2195634066642
 30
0.0
  0
SPLINE
  5
31CE
330
34C5
100
AcDbEntity
  8
CUTS
 62
     1
420
 16711680
370
    25
100
AcDbSpline
210
0.0
220
0.0
230
1.0
 70
     8
 71
     3
 72
     8
 73
     4
 74
     0
 42
0.000000001
 43
0.001
 12
1.0
 22
0.0
 32
0.0
 13
1.0
 23
0.0
 33
0.0
 40
0.0
 40
0.0
 40
0.0
 40
0.0
 40
1.0
 40
1.0
 40
1.0
 40
1.0
 10
205.1447151546665
 20
-125.2195634066642
 30
0.0
 10
205.1447151546665
 20
-124.3911346566643
 30
0.0
 10
205.8162626546666
 20
-123.7195521566642
 30
0.0
 10
206.6447264046664
 20
-123.7195521566642
 30
0.0
  0
SPLINE
  5
31D0
330
34C5
100
AcDbEntity
  8
CUTS
 62
     1
420
 16711680
370
    25
100
AcDbSpline
210
0.0
220
0.0
230
1.0
 70
     8
 71
     3
 72
     8
 73
     4
 74
     0
 42
0.000000001
 43
0.001
 12
1.0
 22
0.0
 32
0.0
 13
1.0
 23
0.0
 33
0.0
 40
0.0
 40
0.0
 40
0.0
 40
0.0
 40
1.0
 40
1.0
 40
1.0
 40
1.0
 10
206.6447264046664
 20
-123.7195521566642
 30
0.0
 10
207.4731539046665
 20
-123.7195521566642
 30
0.0
 10
208.1447376546666
 20
-124.3911346566643
 30
0.0
 10
208.1447376546666
 20
-125.2195634066642
 30
0.0
  0
SPLINE
  5
31D5
330
34C5
100
AcDbEntity
  8
CUTS
 62
     1
420
 16711680
370
    25
100
AcDbSpline
210
0.0
220
0.0
230
1.0
 70
     8
 71
     3
 72
     8
 73
     4
 74
     0
 42
0.000000001
 43
0.001
 12
1.0
 22
0.0
 32
0.0
 13
1.0
 23
0.0
 33
0.0
 40
0.0
 40
0.0
 40
0.0
 40
0.0
 40
1.0
 40
1.0
 40
1.0
 40
1.0
 10
74.50507140466647
 20
-145.0947096566643
 30
0.0
 10
74.50507140466647
 20
-145.9231384066641
 30
0.0
 10
73.83348890466635
 20
-146.5947209066642
 30
0.0
 10
73.00506015466652
 20
-146.5947209066642
 30
0.0
  0
SPLINE
  5
31D7
330
34C5
100
AcDbEntity
  8
CUTS
 62
     1
420
 16711680
370
    25
100
AcDbSpline
210
0.0
220
0.0
230
1.0
 70
     8
 71
     3
 72
     8
 73
     4
 74
     0
 42
0.000000001
 43
0.001
 12
1.0
 22
0.0
 32
0.0
 13
1.0
 23
0.0
 33
0.0
 40
0.0
 40
0.0
 40
0.0
 40
0.0
 40
1.0
 40
1.0
 40
1.0
 40
1.0
 10
73.00506015466652
 20
-146.5947209066642
 30
0.0
 10
72.17663265466666
 20
-146.5947209066642
 30
0.0
 10
71.50504890466652
 20
-145.9231384066641
 30
0.0
 10
71.50504890466652
 20
-145.0947096566643
 30
0.0
  0
SPLINE
  5
31D9
330
34C5
100
AcDbEntity
  8
CUTS
 62
     1
420
 16711680
370
    25
100
AcDbSpline
210
0.0
220
0.0
230
1.0
 70
     8
 71
     3
 72
     8
 73
     4
 74
     0
 42
0.000000001
 43
0.001
 12
1.0
 22
0.0
 32
0.0
 13
1.0
 23
0.0
 33
0.0
 40
0.0
 40
0.0
 40
0.0
 40
0.0
 40
1.0
 40
1.0
 40
1.0
 40
1.0
 10
71.50504890466652
 20
-145.0947096566643
 30
0.0
 10
71.50504890466652
 20
-144.2662821566642
 30
0.0
 10
72.17663265466666
 20
-143.5946996566641
 30
0.0
 10
73.00506015466652
 20
-143.5946996566641
 30
0.0
  0
SPLINE
  5
31DC
330
34C5
100
AcDbEntity
  8
CUTS
 62
     1
420
 16711680
370
    25
100
AcDbSpline
210
0.0
220
0.0
230
1.0
 70
     8
 71
     3
 72
     8
 73
     4
 74
     0
 42
0.000000001
 43
0.001
 12
1.0
 22
0.0
 32
0.0
 13
1.0
 23
0.0
 33
0.0
 40
0.0
 40
0.0
 40
0.0
 40
0.0
 40
1.0
 40
1.0
 40
1.0
 40
1.0
 10
73.00506015466652
 20
-143.5946996566641
 30
0.0
 10
73.83348890466635
 20
-143.5946996566641
 30
0.0
 10
74.50507140466647
 20
-144.2662821566642
 30
0.0
 10
74.50507140466647
 20
-145.0947096566643
 30
0.0
  0
SPLINE
  5
31E0
330
34C5
100
AcDbEntity
  8
CUTS
 62
     1
420
 16711680
370
    25
100
AcDbSpline
210
0.0
220
0.0
230
1.0
 70
     8
 71
     3
 72
     8
 73
     4
 74
     0
 42
0.000000001
 43
0.001
 12
1.0
 22
0.0
 32
0.0
 13
1.0
 23
0.0
 33
0.0
 40
0.0
 40
0.0
 40
0.0
 40
0.0
 40
1.0
 40
1.0
 40
1.0
 40
1.0
 10
129.5419326546666
 20
-123.7195521566642
 30
0.0
 10
129.5419326546666
 20
-124.5479796566643
 30
0.0
 10
128.8703489046665
 20
-125.2195634066642
 30
0.0
 10
128.0419214046664
 20
-125.2195634066642
 30
0.0
  0
SPLINE
  5
31E3
330
34C5
100
AcDbEntity
  8
CUTS
 62
     1
420
 16711680
370
    25
100
AcDbSpline
210
0.0
220
0.0
230
1.0
 70
     8
 71
     3
 72
     8
 73
     4
 74
     0
 42
0.000000001
 43
0.001
 12
1.0
 22
0.0
 32
0.0
 13
1.0
 23
0.0
 33
0.0
 40
0.0
 40
0.0
 40
0.0
 40
0.0
 40
1.0
 40
1.0
 40
1.0
 40
1.0
 10
128.0419214046664
 20
-125.2195634066642
 30
0.0
 10
127.2134939046666
 20
-125.2195634066642
 30
0.0
 10
126.5419101546665
 20
-124.5479796566643
 30
0.0
 10
126.5419101546665
 20
-123.7195521566642
 30
0.0
  0
SPLINE
  5
31E5
330
34C5
100
AcDbEntity
  8
CUTS
 62
     1
420
 16711680
370
    25
100
AcDbSpline
210
0.0
220
0.0
230
1.0
 70
     8
 71
     3
 72
     8
 73
     4
 74
     0
 42
0.000000001
 43
0.001
 12
1.0
 22
0.0
 32
0.0
 13
1.0
 23
0.0
 33
0.0
 40
0.0
 40
0.0
 40
0.0
 40
0.0
 40
1.0
 40
1.0
 40
1.0
 40
1.0
 10
126.5419101546665
 20
-123.7195521566642
 30
0.0
 10
126.5419101546665
 20
-122.8910884066641
 30
0.0
 10
127.2134939046666
 20
-122.2195409066642
 30
0.0
 10
128.0419214046664
 20
-122.2195409066642
 30
0.0
  0
SPLINE
  5
31E7
330
34C5
100
AcDbEntity
  8
CUTS
 62
     1
420
 16711680
370
    25
100
AcDbSpline
210
0.0
220
0.0
230
1.0
 70
     8
 71
     3
 72
     8
 73
     4
 74
     0
 42
0.000000001
 43
0.001
 12
1.0
 22
0.0
 32
0.0
 13
1.0
 23
0.0
 33
0.0
 40
0.0
 40
0.0
 40
0.0
 40
0.0
 40
1.0
 40
1.0
 40
1.0
 40
1.0
 10
128.0419214046664
 20
-122.2195409066642
 30
0.0
 10
128.8703489046665
 20
-122.2195409066642
 30
0.0
 10
129.5419326546666
 20
-122.8910884066641
 30
0.0
 10
129.5419326546666
 20
-123.7195521566642
 30
0.0
  0
LWPOLYLINE
  5
321B
330
34C5
100
AcDbEntity
  8
CUTS
 62
     1
420
 16711680
370
    25
100
AcDbPolyline
 90
       13
 70
     0
 43
0.0
 10
84.52466640466645
 20
-155.0631521566643
 10
59.40477140466646
 20
-144.0264996566644
 10
59.40477140466646
 20
-134.9929184066642
 10
71.78974140466642
 20
-98.85259965666418
 10
74.92487640466646
 20
-91.70214590666419
 10
95.72430140466662
 20
-97.30990215666418
 10
110.1232801546666
 20
-95.27754965666429
 10
118.7628076546666
 20
-88.7021246566643
 10
186.9547514046666
 20
-88.77126840666418
 10
269.3230714046667
 20
-104.3086596566642
 10
269.3230714046667
 20
-148.6891634066642
 10
196.8413489046665
 20
-148.8920096566642
 10
161.9600939046665
 20
-155.0631521566643
  0
LWPOLYLINE
  5
326E
330
34C5
100
AcDbEntity
  8
CUTS
 62
     1
420
 16711680
370
    25
100
AcDbPolyline
 90
       13
 70
     0
 43
0.0
 10
84.52466640466639
 20
-74.06791382277937
 10
59.40477140466641
 20
-63.03126132277943
 10
59.40477140466641
 20
-53.9976800727792
 10
71.78974140466636
 20
-17.85736132277923
 10
74.9248764046664
 20
-10.70690757277923
 10
95.72430140466656
 20
-16.31466382277922
 10
110.1232801546665
 20
-14.28231132277934
 10
118.7628076546665
 20
-7.70688632277934
 10
186.9547514046666
 20
-7.776030072779221
 10
269.3230714046666
 20
-23.31342132277923
 10
269.3230714046666
 20
-67.6939250727793
 10
196.8413489046665
 20
-67.89677132277929
 10
161.9600939046665
 20
-74.06791382277937
  0
LINE
  5
32C4
330
34C5
100
AcDbEntity
  8
CUTS
 62
     1
420
 16711680
370
    25
100
AcDbLine
 10
84.52466640466639
 20
-74.06791382277937
 30
0.0
 11
161.9600939046665
 21
-74.06791382277937
 31
0.0
  0
SPLINE
  5
32EF
330
34C5
100
AcDbEntity
  8
CUTS
 62
     1
420
 16711680
370
    25
100
AcDbSpline
210
0.0
220
0.0
230
1.0
 70
     8
 71
     3
 72
     8
 73
     4
 74
     0
 42
0.000000001
 43
0.001
 12
1.0
 22
0.0
 32
0.0
 13
1.0
 23
0.0
 33
0.0
 40
0.0
 40
0.0
 40
0.0
 40
0.0
 40
1.0
 40
1.0
 40
1.0
 40
1.0
 10
174.2558451546664
 20
-13.43458632277923
 30
0.0
 10
174.2558451546664
 20
-14.26301382277934
 30
0.0
 10
173.5842626546665
 20
-14.93459632277943
 30
0.0
 10
172.7558339046665
 20
-14.93459632277943
 30
0.0
  0
SPLINE
  5
32F2
330
34C5
100
AcDbEntity
  8
CUTS
 62
     1
420
 16711680
370
    25
100
AcDbSpline
210
0.0
220
0.0
230
1.0
 70
     8
 71
     3
 72
     8
 73
     4
 74
     0
 42
0.000000001
 43
0.001
 12
1.0
 22
0.0
 32
0.0
 13
1.0
 23
0.0
 33
0.0
 40
0.0
 40
0.0
 40
0.0
 40
0.0
 40
1.0
 40
1.0
 40
1.0
 40
1.0
 10
172.7558339046665
 20
-14.93459632277943
 30
0.0
 10
171.9273714046666
 20
-14.93459632277943
 30
0.0
 10
171.2558239046665
 20
-14.26301382277934
 30
0.0
 10
171.2558239046665
 20
-13.43458632277923
 30
0.0
  0
SPLINE
  5
32F4
330
34C5
100
AcDbEntity
  8
CUTS
 62
     1
420
 16711680
370
    25
100
AcDbSpline
210
0.0
220
0.0
230
1.0
 70
     8
 71
     3
 72
     8
 73
     4
 74
     0
 42
0.000000001
 43
0.001
 12
1.0
 22
0.0
 32
0.0
 13
1.0
 23
0.0
 33
0.0
 40
0.0
 40
0.0
 40
0.0
 40
0.0
 40
1.0
 40
1.0
 40
1.0
 40
1.0
 10
171.2558239046665
 20
-13.43458632277923
 30
0.0
 10
171.2558239046665
 20
-12.60612257277914
 30
0.0
 10
171.9273714046666
 20
-11.93457507277954
 30
0.0
 10
172.7558339046665
 20
-11.93457507277954
 30
0.0
  0
SPLINE
  5
32F6
330
34C5
100
AcDbEntity
  8
CUTS
 62
     1
420
 16711680
370
    25
100
AcDbSpline
210
0.0
220
0.0
230
1.0
 70
     8
 71
     3
 72
     8
 73
     4
 74
     0
 42
0.000000001
 43
0.001
 12
1.0
 22
0.0
 32
0.0
 13
1.0
 23
0.0
 33
0.0
 40
0.0
 40
0.0
 40
0.0
 40
0.0
 40
1.0
 40
1.0
 40
1.0
 40
1.0
 10
172.7558339046665
 20
-11.93457507277954
 30
0.0
 10
173.5842626546665
 20
-11.93457507277954
 30
0.0
 10
174.2558451546664
 20
-12.60612257277914
 30
0.0
 10
174.2558451546664
 20
-13.43458632277923
 30
0.0
  0
SPLINE
  5
32F9
330
34C5
100
AcDbEntity
  8
CUTS
 62
     1
420
 16711680
370
    25
100
AcDbSpline
210
0.0
220
0.0
230
1.0
 70
     8
 71
     3
 72
     8
 73
     4
 74
     0
 42
0.000000001
 43
0.001
 12
1.0
 22
0.0
 32
0.0
 13
1.0
 23
0.0
 33
0.0
 40
0.0
 40
0.0
 40
0.0
 40
0.0
 40
1.0
 40
1.0
 40
1.0
 40
1.0
 10
263.5266151546665
 20
-46.63803007277933
 30
0.0
 10
263.5266151546665
 20
-47.46645882277927
 30
0.0
 10
262.8550314046664
 20
-48.13804132277927
 30
0.0
 10
262.0266039046666
 20
-48.13804132277927
 30
0.0
  0
SPLINE
  5
32FC
330
34C5
100
AcDbEntity
  8
CUTS
 62
     1
420
 16711680
370
    25
100
AcDbSpline
210
0.0
220
0.0
230
1.0
 70
     8
 71
     3
 72
     8
 73
     4
 74
     0
 42
0.000000001
 43
0.001
 12
1.0
 22
0.0
 32
0.0
 13
1.0
 23
0.0
 33
0.0
 40
0.0
 40
0.0
 40
0.0
 40
0.0
 40
1.0
 40
1.0
 40
1.0
 40
1.0
 10
262.0266039046666
 20
-48.13804132277927
 30
0.0
 10
261.1981764046665
 20
-48.13804132277927
 30
0.0
 10
260.5265926546666
 20
-47.46645882277927
 30
0.0
 10
260.5265926546666
 20
-46.63803007277933
 30
0.0
  0
SPLINE
  5
32FE
330
34C5
100
AcDbEntity
  8
CUTS
 62
     1
420
 16711680
370
    25
100
AcDbSpline
210
0.0
220
0.0
230
1.0
 70
     8
 71
     3
 72
     8
 73
     4
 74
     0
 42
0.000000001
 43
0.001
 12
1.0
 22
0.0
 32
0.0
 13
1.0
 23
0.0
 33
0.0
 40
0.0
 40
0.0
 40
0.0
 40
0.0
 40
1.0
 40
1.0
 40
1.0
 40
1.0
 10
260.5265926546666
 20
-46.63803007277933
 30
0.0
 10
260.5265926546666
 20
-45.80956632277925
 30
0.0
 10
261.1981764046665
 20
-45.13801882277927
 30
0.0
 10
262.0266039046666
 20
-45.13801882277927
 30
0.0
  0
SPLINE
  5
3300
330
34C5
100
AcDbEntity
  8
CUTS
 62
     1
420
 16711680
370
    25
100
AcDbSpline
210
0.0
220
0.0
230
1.0
 70
     8
 71
     3
 72
     8
 73
     4
 74
     0
 42
0.000000001
 43
0.001
 12
1.0
 22
0.0
 32
0.0
 13
1.0
 23
0.0
 33
0.0
 40
0.0
 40
0.0
 40
0.0
 40
0.0
 40
1.0
 40
1.0
 40
1.0
 40
1.0
 10
262.0266039046666
 20
-45.13801882277927
 30
0.0
 10
262.8550314046664
 20
-45.13801882277927
 30
0.0
 10
263.5266151546665
 20
-45.80956632277925
 30
0.0
 10
263.5266151546665
 20
-46.63803007277933
 30
0.0
  0
SPLINE
  5
3305
330
34C5
100
AcDbEntity
  8
CUTS
 62
     1
420
 16711680
370
    25
100
AcDbSpline
210
0.0
220
0.0
230
1.0
 70
     8
 71
     3
 72
     8
 73
     4
 74
     0
 42
0.000000001
 43
0.001
 12
1.0
 22
0.0
 32
0.0
 13
1.0
 23
0.0
 33
0.0
 40
0.0
 40
0.0
 40
0.0
 40
0.0
 40
1.0
 40
1.0
 40
1.0
 40
1.0
 10
208.1447376546665
 20
-44.22432507277928
 30
0.0
 10
208.1447376546665
 20
-45.05275257277948
 30
0.0
 10
207.4731539046664
 20
-45.72433632277911
 30
0.0
 10
206.6447264046664
 20
-45.72433632277911
 30
0.0
  0
SPLINE
  5
3307
330
34C5
100
AcDbEntity
  8
CUTS
 62
     1
420
 16711680
370
    25
100
AcDbSpline
210
0.0
220
0.0
230
1.0
 70
     8
 71
     3
 72
     8
 73
     4
 74
     0
 42
0.000000001
 43
0.001
 12
1.0
 22
0.0
 32
0.0
 13
1.0
 23
0.0
 33
0.0
 40
0.0
 40
0.0
 40
0.0
 40
0.0
 40
1.0
 40
1.0
 40
1.0
 40
1.0
 10
206.6447264046664
 20
-45.72433632277911
 30
0.0
 10
205.8162626546665
 20
-45.72433632277911
 30
0.0
 10
205.1447151546664
 20
-45.05275257277948
 30
0.0
 10
205.1447151546664
 20
-44.22432507277928
 30
0.0
  0
SPLINE
  5
330A
330
34C5
100
AcDbEntity
  8
CUTS
 62
     1
420
 16711680
370
    25
100
AcDbSpline
210
0.0
220
0.0
230
1.0
 70
     8
 71
     3
 72
     8
 73
     4
 74
     0
 42
0.000000001
 43
0.001
 12
1.0
 22
0.0
 32
0.0
 13
1.0
 23
0.0
 33
0.0
 40
0.0
 40
0.0
 40
0.0
 40
0.0
 40
1.0
 40
1.0
 40
1.0
 40
1.0
 10
205.1447151546664
 20
-44.22432507277928
 30
0.0
 10
205.1447151546664
 20
-43.39589632277934
 30
0.0
 10
205.8162626546665
 20
-42.72431382277922
 30
0.0
 10
206.6447264046664
 20
-42.72431382277922
 30
0.0
  0
SPLINE
  5
330C
330
34C5
100
AcDbEntity
  8
CUTS
 62
     1
420
 16711680
370
    25
100
AcDbSpline
210
0.0
220
0.0
230
1.0
 70
     8
 71
     3
 72
     8
 73
     4
 74
     0
 42
0.000000001
 43
0.001
 12
1.0
 22
0.0
 32
0.0
 13
1.0
 23
0.0
 33
0.0
 40
0.0
 40
0.0
 40
0.0
 40
0.0
 40
1.0
 40
1.0
 40
1.0
 40
1.0
 10
206.6447264046664
 20
-42.72431382277922
 30
0.0
 10
207.4731539046664
 20
-42.72431382277922
 30
0.0
 10
208.1447376546665
 20
-43.39589632277934
 30
0.0
 10
208.1447376546665
 20
-44.22432507277928
 30
0.0
  0
SPLINE
  5
3311
330
34C5
100
AcDbEntity
  8
CUTS
 62
     1
420
 16711680
370
    25
100
AcDbSpline
210
0.0
220
0.0
230
1.0
 70
     8
 71
     3
 72
     8
 73
     4
 74
     0
 42
0.000000001
 43
0.001
 12
1.0
 22
0.0
 32
0.0
 13
1.0
 23
0.0
 33
0.0
 40
0.0
 40
0.0
 40
0.0
 40
0.0
 40
1.0
 40
1.0
 40
1.0
 40
1.0
 10
74.50507140466641
 20
-64.09947132277934
 30
0.0
 10
74.50507140466641
 20
-64.92790007277917
 30
0.0
 10
73.8334889046663
 20
-65.59948257277928
 30
0.0
 10
73.00506015466647
 20
-65.59948257277928
 30
0.0
  0
SPLINE
  5
3313
330
34C5
100
AcDbEntity
  8
CUTS
 62
     1
420
 16711680
370
    25
100
AcDbSpline
210
0.0
220
0.0
230
1.0
 70
     8
 71
     3
 72
     8
 73
     4
 74
     0
 42
0.000000001
 43
0.001
 12
1.0
 22
0.0
 32
0.0
 13
1.0
 23
0.0
 33
0.0
 40
0.0
 40
0.0
 40
0.0
 40
0.0
 40
1.0
 40
1.0
 40
1.0
 40
1.0
 10
73.00506015466647
 20
-65.59948257277928
 30
0.0
 10
72.1766326546666
 20
-65.59948257277928
 30
0.0
 10
71.50504890466647
 20
-64.92790007277917
 30
0.0
 10
71.50504890466647
 20
-64.09947132277934
 30
0.0
  0
SPLINE
  5
3315
330
34C5
100
AcDbEntity
  8
CUTS
 62
     1
420
 16711680
370
    25
100
AcDbSpline
210
0.0
220
0.0
230
1.0
 70
     8
 71
     3
 72
     8
 73
     4
 74
     0
 42
0.000000001
 43
0.001
 12
1.0
 22
0.0
 32
0.0
 13
1.0
 23
0.0
 33
0.0
 40
0.0
 40
0.0
 40
0.0
 40
0.0
 40
1.0
 40
1.0
 40
1.0
 40
1.0
 10
71.50504890466647
 20
-64.09947132277934
 30
0.0
 10
71.50504890466647
 20
-63.27104382277925
 30
0.0
 10
72.1766326546666
 20
-62.59946132277913
 30
0.0
 10
73.00506015466647
 20
-62.59946132277913
 30
0.0
  0
SPLINE
  5
3318
330
34C5
100
AcDbEntity
  8
CUTS
 62
     1
420
 16711680
370
    25
100
AcDbSpline
210
0.0
220
0.0
230
1.0
 70
     8
 71
     3
 72
     8
 73
     4
 74
     0
 42
0.000000001
 43
0.001
 12
1.0
 22
0.0
 32
0.0
 13
1.0
 23
0.0
 33
0.0
 40
0.0
 40
0.0
 40
0.0
 40
0.0
 40
1.0
 40
1.0
 40
1.0
 40
1.0
 10
73.00506015466647
 20
-62.59946132277913
 30
0.0
 10
73.8334889046663
 20
-62.59946132277913
 30
0.0
 10
74.50507140466641
 20
-63.27104382277925
 30
0.0
 10
74.50507140466641
 20
-64.09947132277934
 30
0.0
  0
SPLINE
  5
331C
330
34C5
100
AcDbEntity
  8
CUTS
 62
     1
420
 16711680
370
    25
100
AcDbSpline
210
0.0
220
0.0
230
1.0
 70
     8
 71
     3
 72
     8
 73
     4
 74
     0
 42
0.000000001
 43
0.001
 12
1.0
 22
0.0
 32
0.0
 13
1.0
 23
0.0
 33
0.0
 40
0.0
 40
0.0
 40
0.0
 40
0.0
 40
1.0
 40
1.0
 40
1.0
 40
1.0
 10
129.5419326546665
 20
-42.72431382277922
 30
0.0
 10
129.5419326546665
 20
-43.55274132277931
 30
0.0
 10
128.8703489046665
 20
-44.22432507277928
 30
0.0
 10
128.0419214046664
 20
-44.22432507277928
 30
0.0
  0
SPLINE
  5
331F
330
34C5
100
AcDbEntity
  8
CUTS
 62
     1
420
 16711680
370
    25
100
AcDbSpline
210
0.0
220
0.0
230
1.0
 70
     8
 71
     3
 72
     8
 73
     4
 74
     0
 42
0.000000001
 43
0.001
 12
1.0
 22
0.0
 32
0.0
 13
1.0
 23
0.0
 33
0.0
 40
0.0
 40
0.0
 40
0.0
 40
0.0
 40
1.0
 40
1.0
 40
1.0
 40
1.0
 10
128.0419214046664
 20
-44.22432507277928
 30
0.0
 10
127.2134939046665
 20
-44.22432507277928
 30
0.0
 10
126.5419101546664
 20
-43.55274132277931
 30
0.0
 10
126.5419101546664
 20
-42.72431382277922
 30
0.0
  0
SPLINE
  5
3321
330
34C5
100
AcDbEntity
  8
CUTS
 62
     1
420
 16711680
370
    25
100
AcDbSpline
210
0.0
220
0.0
230
1.0
 70
     8
 71
     3
 72
     8
 73
     4
 74
     0
 42
0.000000001
 43
0.001
 12
1.0
 22
0.0
 32
0.0
 13
1.0
 23
0.0
 33
0.0
 40
0.0
 40
0.0
 40
0.0
 40
0.0
 40
1.0
 40
1.0
 40
1.0
 40
1.0
 10
126.5419101546664
 20
-42.72431382277922
 30
0.0
 10
126.5419101546664
 20
-41.89585007277914
 30
0.0
 10
127.2134939046665
 20
-41.22430257277928
 30
0.0
 10
128.0419214046664
 20
-41.22430257277928
 30
0.0
  0
SPLINE
  5
3323
330
34C5
100
AcDbEntity
  8
CUTS
 62
     1
420
 16711680
370
    25
100
AcDbSpline
210
0.0
220
0.0
230
1.0
 70
     8
 71
     3
 72
     8
 73
     4
 74
     0
 42
0.000000001
 43
0.001
 12
1.0
 22
0.0
 32
0.0
 13
1.0
 23
0.0
 33
0.0
 40
0.0
 40
0.0
 40
0.0
 40
0.0
 40
1.0
 40
1.0
 40
1.0
 40
1.0
 10
128.0419214046664
 20
-41.22430257277928
 30
0.0
 10
128.8703489046665
 20
-41.22430257277928
 30
0.0
 10
129.5419326546665
 20
-41.89585007277914
 30
0.0
 10
129.5419326546665
 20
-42.72431382277922
 30
0.0
  0
LINE
  5
3357
330
34C5
100
AcDbEntity
  8
laser bed referance
100
AcDbLine
 10
0.0
 20
0.0
 30
0.0
 11
609.6
 21
0.0
 31
0.0
  0
LINE
  5
3358
330
34C5
100
AcDbEntity
  8
laser bed referance
100
AcDbLine
 10
0.0
 20
-304.8
 30
0.0
 11
0.0
 21
0.0
 31
0.0
  0
LINE
  5
3359
330
34C5
100
AcDbEntity
  8
laser bed referance
100
AcDbLine
 10
609.6
 20
-304.8
 30
0.0
 11
609.6
 21
0.0
 31
0.0
  0
LINE
  5
335A
330
34C5
100
AcDbEntity
  8
laser bed referance
100
AcDbLine
 10
0.0
 20
-304.8
 30
0.0
 11
609.6
 21
-304.8
 31
0.0
  0
SPLINE
  5
33BA
330
34C5
100
AcDbEntity
  8
CUTS
 62
     1
420
 16711680
370
    25
100
AcDbSpline
210
0.0
220
0.0
230
1.0
 70
     8
 71
     3
 72
     8
 73
     4
 74
     0
 42
0.000000001
 43
0.001
 12
1.0
 22
0.0
 32
0.0
 13
1.0
 23
0.0
 33
0.0
 40
0.0
 40
0.0
 40
0.0
 40
0.0
 40
1.0
 40
1.0
 40
1.0
 40
1.0
 10
48.49156893231628
 20
-43.17914471594126
 30
0.0
 10
48.49156893231628
 20
-42.35046971594139
 30
0.0
 10
49.16361018231629
 20
-41.6791334659412
 30
0.0
 10
49.99158018231634
 20
-41.6791334659412
 30
0.0
  0
SPLINE
  5
33BB
330
34C5
100
AcDbEntity
  8
CUTS
 62
     1
420
 16711680
370
    25
100
AcDbSpline
210
0.0
220
0.0
230
1.0
 70
     8
 71
     3
 72
     8
 73
     4
 74
     0
 42
0.000000001
 43
0.001
 12
1.0
 22
0.0
 32
0.0
 13
1.0
 23
0.0
 33
0.0
 40
0.0
 40
0.0
 40
0.0
 40
0.0
 40
1.0
 40
1.0
 40
1.0
 40
1.0
 10
49.99158018231634
 20
-41.6791334659412
 30
0.0
 10
50.81990143231627
 20
-41.67913346594119
 30
0.0
 10
51.49159143231628
 20
-42.3504697159414
 30
0.0
 10
51.49159143231628
 20
-43.17914471594126
 30
0.0
  0
SPLINE
  5
33BC
330
34C5
100
AcDbEntity
  8
CUTS
 62
     1
420
 16711680
370
    25
100
AcDbSpline
210
0.0
220
0.0
230
1.0
 70
     8
 71
     3
 72
     8
 73
     4
 74
     0
 42
0.000000001
 43
0.001
 12
1.0
 22
0.0
 32
0.0
 13
1.0
 23
0.0
 33
0.0
 40
0.0
 40
0.0
 40
0.0
 40
0.0
 40
1.0
 40
1.0
 40
1.0
 40
1.0
 10
51.49159143231628
 20
-43.17914471594126
 30
0.0
 10
51.49159143231628
 20
-44.00781971594134
 30
0.0
 10
50.81990143231627
 20
-44.67915596594131
 30
0.0
 10
49.99158018231634
 20
-44.67915596594131
 30
0.0
  0
SPLINE
  5
33BD
330
34C5
100
AcDbEntity
  8
CUTS
 62
     1
420
 16711680
370
    25
100
AcDbSpline
210
0.0
220
0.0
230
1.0
 70
     8
 71
     3
 72
     8
 73
     4
 74
     0
 42
0.000000001
 43
0.001
 12
1.0
 22
0.0
 32
0.0
 13
1.0
 23
0.0
 33
0.0
 40
0.0
 40
0.0
 40
0.0
 40
0.0
 40
1.0
 40
1.0
 40
1.0
 40
1.0
 10
49.99158018231634
 20
-44.67915596594131
 30
0.0
 10
49.16361018231629
 20
-44.67915596594131
 30
0.0
 10
48.49156893231628
 20
-44.00781971594134
 30
0.0
 10
48.49156893231628
 20
-43.17914471594126
 30
0.0
  0
LWPOLYLINE
  5
33BE
330
34C5
100
AcDbEntity
  8
CUTS
 62
     1
420
 16711680
370
    25
100
AcDbPolyline
 90
        3
 70
     0
 43
0.0
 10
32.59504893231627
 20
-48.92906971594132
 10
33.47840518231629
 20
-48.04571471594139
 10
34.36105518231631
 20
-48.92906971594132
  0
SPLINE
  5
33BF
330
34C5
100
AcDbEntity
  8
CUTS
 62
     1
420
 16711680
370
    25
100
AcDbSpline
210
0.0
220
0.0
230
1.0
 70
     8
 71
     3
 72
     8
 73
     4
 74
     0
 42
0.000000001
 43
0.001
 12
1.0
 22
0.0
 32
0.0
 13
1.0
 23
0.0
 33
0.0
 40
0.0
 40
0.0
 40
0.0
 40
0.0
 40
1.0
 40
1.0
 40
1.0
 40
1.0
 10
17.49157393231627
 20
-43.17914471594125
 30
0.0
 10
17.49157393231627
 20
-42.35046971594139
 30
0.0
 10
18.16291018231624
 20
-41.67913346594119
 30
0.0
 10
18.99158518231633
 20
-41.67913346594119
 30
0.0
  0
SPLINE
  5
33C0
330
34C5
100
AcDbEntity
  8
CUTS
 62
     1
420
 16711680
370
    25
100
AcDbSpline
210
0.0
220
0.0
230
1.0
 70
     8
 71
     3
 72
     8
 73
     4
 74
     0
 42
0.000000001
 43
0.001
 12
1.0
 22
0.0
 32
0.0
 13
1.0
 23
0.0
 33
0.0
 40
0.0
 40
0.0
 40
0.0
 40
0.0
 40
1.0
 40
1.0
 40
1.0
 40
1.0
 10
18.99158518231633
 20
-41.67913346594119
 30
0.0
 10
19.81990768231634
 20
-41.67913346594119
 30
0.0
 10
20.49124393231631
 20
-42.35046971594139
 30
0.0
 10
20.49124393231631
 20
-43.17914471594125
 30
0.0
  0
SPLINE
  5
33C1
330
34C5
100
AcDbEntity
  8
CUTS
 62
     1
420
 16711680
370
    25
100
AcDbSpline
210
0.0
220
0.0
230
1.0
 70
     8
 71
     3
 72
     8
 73
     4
 74
     0
 42
0.000000001
 43
0.001
 12
1.0
 22
0.0
 32
0.0
 13
1.0
 23
0.0
 33
0.0
 40
0.0
 40
0.0
 40
0.0
 40
0.0
 40
1.0
 40
1.0
 40
1.0
 40
1.0
 10
20.49124393231631
 20
-43.17914471594125
 30
0.0
 10
20.49124393231631
 20
-44.00781971594133
 30
0.0
 10
19.81990768231634
 20
-44.6791559659413
 30
0.0
 10
18.99158518231633
 20
-44.67915596594131
 30
0.0
  0
SPLINE
  5
33C2
330
34C5
100
AcDbEntity
  8
CUTS
 62
     1
420
 16711680
370
    25
100
AcDbSpline
210
0.0
220
0.0
230
1.0
 70
     8
 71
     3
 72
     8
 73
     4
 74
     0
 42
0.000000001
 43
0.001
 12
1.0
 22
0.0
 32
0.0
 13
1.0
 23
0.0
 33
0.0
 40
0.0
 40
0.0
 40
0.0
 40
0.0
 40
1.0
 40
1.0
 40
1.0
 40
1.0
 10
18.99158518231633
 20
-44.67915596594131
 30
0.0
 10
18.16326268231643
 20
-44.67915596594131
 30
0.0
 10
17.49157393231627
 20
-44.00781971594133
 30
0.0
 10
17.49157393231627
 20
-43.17914471594125
 30
0.0
  0
SPLINE
  5
33C3
330
34C5
100
AcDbEntity
  8
CUTS
 62
     1
420
 16711680
370
    25
100
AcDbSpline
210
0.0
220
0.0
230
1.0
 70
     8
 71
     3
 72
     8
 73
     4
 74
     0
 42
0.000000001
 43
0.001
 12
1.0
 22
0.0
 32
0.0
 13
1.0
 23
0.0
 33
0.0
 40
0.0
 40
0.0
 40
0.0
 40
0.0
 40
1.0
 40
1.0
 40
1.0
 40
1.0
 10
48.49156893231628
 20
-12.17914971594135
 30
0.0
 10
48.49156893231628
 20
-11.35047471594126
 30
0.0
 10
49.16361018231629
 20
-10.67913971594127
 30
0.0
 10
49.99158018231634
 20
-10.67913971594127
 30
0.0
  0
SPLINE
  5
33C4
330
34C5
100
AcDbEntity
  8
CUTS
 62
     1
420
 16711680
370
    25
100
AcDbSpline
210
0.0
220
0.0
230
1.0
 70
     8
 71
     3
 72
     8
 73
     4
 74
     0
 42
0.000000001
 43
0.001
 12
1.0
 22
0.0
 32
0.0
 13
1.0
 23
0.0
 33
0.0
 40
0.0
 40
0.0
 40
0.0
 40
0.0
 40
1.0
 40
1.0
 40
1.0
 40
1.0
 10
49.99158018231634
 20
-10.67913971594127
 30
0.0
 10
50.81990143231633
 20
-10.67913971594127
 30
0.0
 10
51.49159143231634
 20
-11.35047471594127
 30
0.0
 10
51.49159143231628
 20
-12.17914971594135
 30
0.0
  0
SPLINE
  5
33C5
330
34C5
100
AcDbEntity
  8
CUTS
 62
     1
420
 16711680
370
    25
100
AcDbSpline
210
0.0
220
0.0
230
1.0
 70
     8
 71
     3
 72
     8
 73
     4
 74
     0
 42
0.000000001
 43
0.001
 12
1.0
 22
0.0
 32
0.0
 13
1.0
 23
0.0
 33
0.0
 40
0.0
 40
0.0
 40
0.0
 40
0.0
 40
1.0
 40
1.0
 40
1.0
 40
1.0
 10
51.49159143231628
 20
-12.17914971594135
 30
0.0
 10
51.49159143231634
 20
-13.00747221594126
 30
0.0
 10
50.81990143231627
 20
-13.67916096594142
 30
0.0
 10
49.99158018231634
 20
-13.67916096594141
 30
0.0
  0
SPLINE
  5
33C6
330
34C5
100
AcDbEntity
  8
CUTS
 62
     1
420
 16711680
370
    25
100
AcDbSpline
210
0.0
220
0.0
230
1.0
 70
     8
 71
     3
 72
     8
 73
     4
 74
     0
 42
0.000000001
 43
0.001
 12
1.0
 22
0.0
 32
0.0
 13
1.0
 23
0.0
 33
0.0
 40
0.0
 40
0.0
 40
0.0
 40
0.0
 40
1.0
 40
1.0
 40
1.0
 40
1.0
 10
49.99158018231634
 20
-13.67916096594141
 30
0.0
 10
49.16361018231635
 20
-13.67916096594142
 30
0.0
 10
48.49156893231628
 20
-13.00747221594126
 30
0.0
 10
48.49156893231628
 20
-12.17914971594135
 30
0.0
  0
SPLINE
  5
33C7
330
34C5
100
AcDbEntity
  8
CUTS
 62
     1
420
 16711680
370
    25
100
AcDbSpline
210
0.0
220
0.0
230
1.0
 70
     8
 71
     3
 72
     8
 73
     4
 74
     0
 42
0.000000001
 43
0.001
 12
1.0
 22
0.0
 32
0.0
 13
1.0
 23
0.0
 33
0.0
 40
0.0
 40
0.0
 40
0.0
 40
0.0
 40
1.0
 40
1.0
 40
1.0
 40
1.0
 10
17.49157393231627
 20
-12.17914971594135
 30
0.0
 10
17.49157393231627
 20
-11.35047471594126
 30
0.0
 10
18.16291018231624
 20
-10.67913971594126
 30
0.0
 10
18.99158518231633
 20
-10.67913971594126
 30
0.0
  0
SPLINE
  5
33C8
330
34C5
100
AcDbEntity
  8
CUTS
 62
     1
420
 16711680
370
    25
100
AcDbSpline
210
0.0
220
0.0
230
1.0
 70
     8
 71
     3
 72
     8
 73
     4
 74
     0
 42
0.000000001
 43
0.001
 12
1.0
 22
0.0
 32
0.0
 13
1.0
 23
0.0
 33
0.0
 40
0.0
 40
0.0
 40
0.0
 40
0.0
 40
1.0
 40
1.0
 40
1.0
 40
1.0
 10
18.99158518231633
 20
-10.67913971594126
 30
0.0
 10
19.81990768231634
 20
-10.67913971594126
 30
0.0
 10
20.49124393231631
 20
-11.35047471594126
 30
0.0
 10
20.49124393231631
 20
-12.17914971594135
 30
0.0
  0
SPLINE
  5
33C9
330
34C5
100
AcDbEntity
  8
CUTS
 62
     1
420
 16711680
370
    25
100
AcDbSpline
210
0.0
220
0.0
230
1.0
 70
     8
 71
     3
 72
     8
 73
     4
 74
     0
 42
0.000000001
 43
0.001
 12
1.0
 22
0.0
 32
0.0
 13
1.0
 23
0.0
 33
0.0
 40
0.0
 40
0.0
 40
0.0
 40
0.0
 40
1.0
 40
1.0
 40
1.0
 40
1.0
 10
20.49124393231631
 20
-12.17914971594135
 30
0.0
 10
20.49124393231631
 20
-13.00747221594125
 30
0.0
 10
19.81990768231634
 20
-13.67916096594141
 30
0.0
 10
18.99158518231633
 20
-13.67916096594141
 30
0.0
  0
SPLINE
  5
33CA
330
34C5
100
AcDbEntity
  8
CUTS
 62
     1
420
 16711680
370
    25
100
AcDbSpline
210
0.0
220
0.0
230
1.0
 70
     8
 71
     3
 72
     8
 73
     4
 74
     0
 42
0.000000001
 43
0.001
 12
1.0
 22
0.0
 32
0.0
 13
1.0
 23
0.0
 33
0.0
 40
0.0
 40
0.0
 40
0.0
 40
0.0
 40
1.0
 40
1.0
 40
1.0
 40
1.0
 10
18.99158518231633
 20
-13.67916096594141
 30
0.0
 10
18.16326268231643
 20
-13.67916096594141
 30
0.0
 10
17.49157393231627
 20
-13.00747221594125
 30
0.0
 10
17.49157393231627
 20
-12.17914971594135
 30
0.0
  0
SPLINE
  5
33CB
330
34C5
100
AcDbEntity
  8
CUTS
 62
     1
420
 16711680
370
    25
100
AcDbSpline
210
0.0
220
0.0
230
1.0
 70
     8
 71
     3
 72
     8
 73
     4
 74
     0
 42
0.000000001
 43
0.001
 12
1.0
 22
0.0
 32
0.0
 13
1.0
 23
0.0
 33
0.0
 40
0.0
 40
0.0
 40
0.0
 40
0.0
 40
1.0
 40
1.0
 40
1.0
 40
1.0
 10
48.49156893231628
 20
-84.1796834659413
 30
0.0
 10
48.49156893231628
 20
-83.35100846594143
 30
0.0
 10
49.16361018231629
 20
-82.67967221594124
 30
0.0
 10
49.99158018231634
 20
-82.67967221594122
 30
0.0
  0
SPLINE
  5
33CC
330
34C5
100
AcDbEntity
  8
CUTS
 62
     1
420
 16711680
370
    25
100
AcDbSpline
210
0.0
220
0.0
230
1.0
 70
     8
 71
     3
 72
     8
 73
     4
 74
     0
 42
0.000000001
 43
0.001
 12
1.0
 22
0.0
 32
0.0
 13
1.0
 23
0.0
 33
0.0
 40
0.0
 40
0.0
 40
0.0
 40
0.0
 40
1.0
 40
1.0
 40
1.0
 40
1.0
 10
49.99158018231634
 20
-82.67967221594122
 30
0.0
 10
50.81990143231627
 20
-82.67967221594124
 30
0.0
 10
51.49159143231628
 20
-83.35100846594143
 30
0.0
 10
51.49159143231628
 20
-84.1796834659413
 30
0.0
  0
SPLINE
  5
33CD
330
34C5
100
AcDbEntity
  8
CUTS
 62
     1
420
 16711680
370
    25
100
AcDbSpline
210
0.0
220
0.0
230
1.0
 70
     8
 71
     3
 72
     8
 73
     4
 74
     0
 42
0.000000001
 43
0.001
 12
1.0
 22
0.0
 32
0.0
 13
1.0
 23
0.0
 33
0.0
 40
0.0
 40
0.0
 40
0.0
 40
0.0
 40
1.0
 40
1.0
 40
1.0
 40
1.0
 10
51.49159143231628
 20
-84.1796834659413
 30
0.0
 10
51.49159143231628
 20
-85.00800596594144
 30
0.0
 10
50.81990143231627
 20
-85.67969471594135
 30
0.0
 10
49.99158018231634
 20
-85.67969471594135
 30
0.0
  0
SPLINE
  5
33CE
330
34C5
100
AcDbEntity
  8
CUTS
 62
     1
420
 16711680
370
    25
100
AcDbSpline
210
0.0
220
0.0
230
1.0
 70
     8
 71
     3
 72
     8
 73
     4
 74
     0
 42
0.000000001
 43
0.001
 12
1.0
 22
0.0
 32
0.0
 13
1.0
 23
0.0
 33
0.0
 40
0.0
 40
0.0
 40
0.0
 40
0.0
 40
1.0
 40
1.0
 40
1.0
 40
1.0
 10
49.99158018231634
 20
-85.67969471594135
 30
0.0
 10
49.16361018231629
 20
-85.67969471594135
 30
0.0
 10
48.49156893231628
 20
-85.00800596594142
 30
0.0
 10
48.49156893231628
 20
-84.1796834659413
 30
0.0
  0
LWPOLYLINE
  5
33CF
330
34C5
100
AcDbEntity
  8
CUTS
 62
     1
420
 16711680
370
    25
100
AcDbPolyline
 90
        3
 70
     0
 43
0.0
 10
32.59504893231627
 20
-89.92960846594137
 10
33.47840518231624
 20
-89.04625346594132
 10
34.36105518204579
 20
-89.92960846594137
  0
SPLINE
  5
33D0
330
34C5
100
AcDbEntity
  8
CUTS
 62
     1
420
 16711680
370
    25
100
AcDbSpline
210
0.0
220
0.0
230
1.0
 70
     8
 71
     3
 72
     8
 73
     4
 74
     0
 42
0.000000001
 43
0.001
 12
1.0
 22
0.0
 32
0.0
 13
1.0
 23
0.0
 33
0.0
 40
0.0
 40
0.0
 40
0.0
 40
0.0
 40
1.0
 40
1.0
 40
1.0
 40
1.0
 10
17.49157393231627
 20
-84.17968346594127
 30
0.0
 10
17.49157393231627
 20
-83.35100846594142
 30
0.0
 10
18.16291018231624
 20
-82.67967221594124
 30
0.0
 10
18.99158518231633
 20
-82.67967221594124
 30
0.0
  0
SPLINE
  5
33D1
330
34C5
100
AcDbEntity
  8
CUTS
 62
     1
420
 16711680
370
    25
100
AcDbSpline
210
0.0
220
0.0
230
1.0
 70
     8
 71
     3
 72
     8
 73
     4
 74
     0
 42
0.000000001
 43
0.001
 12
1.0
 22
0.0
 32
0.0
 13
1.0
 23
0.0
 33
0.0
 40
0.0
 40
0.0
 40
0.0
 40
0.0
 40
1.0
 40
1.0
 40
1.0
 40
1.0
 10
18.99158518231633
 20
-82.67967221594124
 30
0.0
 10
19.81990768231634
 20
-82.67967221594122
 30
0.0
 10
20.49124393231631
 20
-83.35100846594143
 30
0.0
 10
20.49124393231631
 20
-84.17968346594128
 30
0.0
  0
SPLINE
  5
33D2
330
34C5
100
AcDbEntity
  8
CUTS
 62
     1
420
 16711680
370
    25
100
AcDbSpline
210
0.0
220
0.0
230
1.0
 70
     8
 71
     3
 72
     8
 73
     4
 74
     0
 42
0.000000001
 43
0.001
 12
1.0
 22
0.0
 32
0.0
 13
1.0
 23
0.0
 33
0.0
 40
0.0
 40
0.0
 40
0.0
 40
0.0
 40
1.0
 40
1.0
 40
1.0
 40
1.0
 10
20.49124393231631
 20
-84.17968346594128
 30
0.0
 10
20.49124393231631
 20
-85.00800596594142
 30
0.0
 10
19.81990768231634
 20
-85.67969471594135
 30
0.0
 10
18.99158518231633
 20
-85.67969471594134
 30
0.0
  0
SPLINE
  5
33D3
330
34C5
100
AcDbEntity
  8
CUTS
 62
     1
420
 16711680
370
    25
100
AcDbSpline
210
0.0
220
0.0
230
1.0
 70
     8
 71
     3
 72
     8
 73
     4
 74
     0
 42
0.000000001
 43
0.001
 12
1.0
 22
0.0
 32
0.0
 13
1.0
 23
0.0
 33
0.0
 40
0.0
 40
0.0
 40
0.0
 40
0.0
 40
1.0
 40
1.0
 40
1.0
 40
1.0
 10
18.99158518231633
 20
-85.67969471594134
 30
0.0
 10
18.16326268231643
 20
-85.67969471594134
 30
0.0
 10
17.49157393231627
 20
-85.00800596594141
 30
0.0
 10
17.49157393231627
 20
-84.17968346594127
 30
0.0
  0
SPLINE
  5
33D4
330
34C5
100
AcDbEntity
  8
CUTS
 62
     1
420
 16711680
370
    25
100
AcDbSpline
210
0.0
220
0.0
230
1.0
 70
     8
 71
     3
 72
     8
 73
     4
 74
     0
 42
0.000000001
 43
0.001
 12
1.0
 22
0.0
 32
0.0
 13
1.0
 23
0.0
 33
0.0
 40
0.0
 40
0.0
 40
0.0
 40
0.0
 40
1.0
 40
1.0
 40
1.0
 40
1.0
 10
48.49156893231628
 20
-53.17968971594136
 30
0.0
 10
48.49156893231628
 20
-52.35101471594126
 30
0.0
 10
49.16361018231629
 20
-51.67967846594129
 30
0.0
 10
49.99158018231634
 20
-51.6796784659413
 30
0.0
  0
SPLINE
  5
33D5
330
34C5
100
AcDbEntity
  8
CUTS
 62
     1
420
 16711680
370
    25
100
AcDbSpline
210
0.0
220
0.0
230
1.0
 70
     8
 71
     3
 72
     8
 73
     4
 74
     0
 42
0.000000001
 43
0.001
 12
1.0
 22
0.0
 32
0.0
 13
1.0
 23
0.0
 33
0.0
 40
0.0
 40
0.0
 40
0.0
 40
0.0
 40
1.0
 40
1.0
 40
1.0
 40
1.0
 10
49.99158018231634
 20
-51.6796784659413
 30
0.0
 10
50.81990143231627
 20
-51.6796784659413
 30
0.0
 10
51.49159143231628
 20
-52.35101471594126
 30
0.0
 10
51.49159143231628
 20
-53.17968971594136
 30
0.0
  0
SPLINE
  5
33D6
330
34C5
100
AcDbEntity
  8
CUTS
 62
     1
420
 16711680
370
    25
100
AcDbSpline
210
0.0
220
0.0
230
1.0
 70
     8
 71
     3
 72
     8
 73
     4
 74
     0
 42
0.000000001
 43
0.001
 12
1.0
 22
0.0
 32
0.0
 13
1.0
 23
0.0
 33
0.0
 40
0.0
 40
0.0
 40
0.0
 40
0.0
 40
1.0
 40
1.0
 40
1.0
 40
1.0
 10
51.49159143231628
 20
-53.17968971594136
 30
0.0
 10
51.49159143231628
 20
-54.00765846594133
 30
0.0
 10
50.81990143231627
 20
-54.67969971594133
 30
0.0
 10
49.99158018231634
 20
-54.67969971594133
 30
0.0
  0
SPLINE
  5
33D7
330
34C5
100
AcDbEntity
  8
CUTS
 62
     1
420
 16711680
370
    25
100
AcDbSpline
210
0.0
220
0.0
230
1.0
 70
     8
 71
     3
 72
     8
 73
     4
 74
     0
 42
0.000000001
 43
0.001
 12
1.0
 22
0.0
 32
0.0
 13
1.0
 23
0.0
 33
0.0
 40
0.0
 40
0.0
 40
0.0
 40
0.0
 40
1.0
 40
1.0
 40
1.0
 40
1.0
 10
49.99158018231634
 20
-54.67969971594133
 30
0.0
 10
49.16361018231629
 20
-54.67969971594133
 30
0.0
 10
48.49156893231628
 20
-54.00765846594133
 30
0.0
 10
48.49156893231628
 20
-53.17968971594136
 30
0.0
  0
SPLINE
  5
33D8
330
34C5
100
AcDbEntity
  8
CUTS
 62
     1
420
 16711680
370
    25
100
AcDbSpline
210
0.0
220
0.0
230
1.0
 70
     8
 71
     3
 72
     8
 73
     4
 74
     0
 42
0.000000001
 43
0.001
 12
1.0
 22
0.0
 32
0.0
 13
1.0
 23
0.0
 33
0.0
 40
0.0
 40
0.0
 40
0.0
 40
0.0
 40
1.0
 40
1.0
 40
1.0
 40
1.0
 10
17.49157393231627
 20
-53.17968971594135
 30
0.0
 10
17.49157393231627
 20
-52.35101471594126
 30
0.0
 10
18.16291018231624
 20
-51.67967846594129
 30
0.0
 10
18.99158518231633
 20
-51.67967846594129
 30
0.0
  0
SPLINE
  5
33D9
330
34C5
100
AcDbEntity
  8
CUTS
 62
     1
420
 16711680
370
    25
100
AcDbSpline
210
0.0
220
0.0
230
1.0
 70
     8
 71
     3
 72
     8
 73
     4
 74
     0
 42
0.000000001
 43
0.001
 12
1.0
 22
0.0
 32
0.0
 13
1.0
 23
0.0
 33
0.0
 40
0.0
 40
0.0
 40
0.0
 40
0.0
 40
1.0
 40
1.0
 40
1.0
 40
1.0
 10
18.99158518231633
 20
-51.67967846594129
 30
0.0
 10
19.81990768231634
 20
-51.6796784659413
 30
0.0
 10
20.49124393231631
 20
-52.35101471594127
 30
0.0
 10
20.49124393231631
 20
-53.17968971594134
 30
0.0
  0
SPLINE
  5
33DA
330
34C5
100
AcDbEntity
  8
CUTS
 62
     1
420
 16711680
370
    25
100
AcDbSpline
210
0.0
220
0.0
230
1.0
 70
     8
 71
     3
 72
     8
 73
     4
 74
     0
 42
0.000000001
 43
0.001
 12
1.0
 22
0.0
 32
0.0
 13
1.0
 23
0.0
 33
0.0
 40
0.0
 40
0.0
 40
0.0
 40
0.0
 40
1.0
 40
1.0
 40
1.0
 40
1.0
 10
20.49124393231631
 20
-53.17968971594134
 30
0.0
 10
20.49124393231631
 20
-54.00765846594132
 30
0.0
 10
19.81990768231634
 20
-54.67969971594133
 30
0.0
 10
18.99158518231633
 20
-54.67969971594133
 30
0.0
  0
SPLINE
  5
33DB
330
34C5
100
AcDbEntity
  8
CUTS
 62
     1
420
 16711680
370
    25
100
AcDbSpline
210
0.0
220
0.0
230
1.0
 70
     8
 71
     3
 72
     8
 73
     4
 74
     0
 42
0.000000001
 43
0.001
 12
1.0
 22
0.0
 32
0.0
 13
1.0
 23
0.0
 33
0.0
 40
0.0
 40
0.0
 40
0.0
 40
0.0
 40
1.0
 40
1.0
 40
1.0
 40
1.0
 10
18.99158518231633
 20
-54.67969971594133
 30
0.0
 10
18.16326268231643
 20
-54.67969971594133
 30
0.0
 10
17.49157393231627
 20
-54.00765846594132
 30
0.0
 10
17.49157393231627
 20
-53.17968971594135
 30
0.0
  0
SPLINE
  5
33DC
330
34C5
100
AcDbEntity
  8
CUTS
 62
     1
420
 16711680
370
    25
100
AcDbSpline
210
0.0
220
0.0
230
1.0
 70
     8
 71
     3
 72
     8
 73
     4
 74
     0
 42
0.000000001
 43
0.001
 12
1.0
 22
0.0
 32
0.0
 13
1.0
 23
0.0
 33
0.0
 40
0.0
 40
0.0
 40
0.0
 40
0.0
 40
1.0
 40
1.0
 40
1.0
 40
1.0
 10
51.74135768231628
 20
-48.92906971594134
 30
0.0
 10
53.95045143231636
 20
-48.92906971594132
 30
0.0
 10
55.74115143231626
 20
-47.1383697159412
 30
0.0
 10
55.74115143231626
 20
-44.92892221594141
 30
0.0
  0
SPLINE
  5
33DD
330
34C5
100
AcDbEntity
  8
CUTS
 62
     1
420
 16711680
370
    25
100
AcDbSpline
210
0.0
220
0.0
230
1.0
 70
     8
 71
     3
 72
     8
 73
     4
 74
     0
 42
0.000000001
 43
0.001
 12
1.0
 22
0.0
 32
0.0
 13
1.0
 23
0.0
 33
0.0
 40
0.0
 40
0.0
 40
0.0
 40
0.0
 40
1.0
 40
1.0
 40
1.0
 40
1.0
 10
55.74115143231626
 20
-11.92867846594132
 30
0.0
 10
55.74115143231626
 20
-9.719583465941279
 30
0.0
 10
53.95045143231636
 20
-7.928530965941421
 30
0.0
 10
51.74135768231628
 20
-7.928530965941407
 30
0.0
  0
LWPOLYLINE
  5
33DE
330
34C5
100
AcDbEntity
  8
CUTS
 62
     1
420
 16711680
370
    25
100
AcDbPolyline
 90
        2
 70
     0
 43
0.0
 10
55.74115143231626
 20
-44.92892221594141
 10
55.74115143231626
 20
-11.92867846594132
  0
SPLINE
  5
33DF
330
34C5
100
AcDbEntity
  8
CUTS
 62
     1
420
 16711680
370
    25
100
AcDbSpline
210
0.0
220
0.0
230
1.0
 70
     8
 71
     3
 72
     8
 73
     4
 74
     0
 42
0.000000001
 43
0.001
 12
1.0
 22
0.0
 32
0.0
 13
1.0
 23
0.0
 33
0.0
 40
0.0
 40
0.0
 40
0.0
 40
0.0
 40
1.0
 40
1.0
 40
1.0
 40
1.0
 10
17.24110143231638
 20
-7.928530965941407
 30
0.0
 10
15.07575143231639
 20
-7.928530965941407
 30
0.0
 10
13.31680143231625
 20
-9.650439715941305
 30
0.0
 10
13.24801018231625
 20
-11.79920846594134
 30
0.0
  0
SPLINE
  5
33E0
330
34C5
100
AcDbEntity
  8
CUTS
 62
     1
420
 16711680
370
    25
100
AcDbSpline
210
0.0
220
0.0
230
1.0
 70
     8
 71
     3
 72
     8
 73
     4
 74
     0
 42
0.000000001
 43
0.001
 12
1.0
 22
0.0
 32
0.0
 13
1.0
 23
0.0
 33
0.0
 40
0.0
 40
0.0
 40
0.0
 40
0.0
 40
1.0
 40
1.0
 40
1.0
 40
1.0
 10
13.24801018231625
 20
-11.79920846594134
 30
0.0
 10
13.26423768231626
 20
-12.39011096594131
 30
0.0
 10
13.40746643231631
 20
-12.94891096594134
 30
0.0
 10
13.65299893231628
 20
-13.44879721594126
 30
0.0
  0
LWPOLYLINE
  5
33E1
330
34C5
100
AcDbEntity
  8
CUTS
 62
     1
420
 16711680
370
    25
100
AcDbPolyline
 90
        2
 70
     0
 43
0.0
 10
51.74135768231628
 20
-7.928530965941407
 10
17.24110143231638
 20
-7.928530965941407
  0
SPLINE
  5
33E2
330
34C5
100
AcDbEntity
  8
CUTS
 62
     1
420
 16711680
370
    25
100
AcDbSpline
210
0.0
220
0.0
230
1.0
 70
     8
 71
     3
 72
     8
 73
     4
 74
     0
 42
0.000000001
 43
0.001
 12
1.0
 22
0.0
 32
0.0
 13
1.0
 23
0.0
 33
0.0
 40
0.0
 40
0.0
 40
0.0
 40
0.0
 40
1.0
 40
1.0
 40
1.0
 40
1.0
 10
33.49039893231645
 20
-15.67905846594138
 30
0.0
 10
40.11838768231638
 20
-15.67905846594138
 30
0.0
 10
45.49119393231632
 20
-21.05151096594128
 30
0.0
 10
45.49119393231632
 20
-27.6791472159413
 30
0.0
  0
SPLINE
  5
33E3
330
34C5
100
AcDbEntity
  8
CUTS
 62
     1
420
 16711680
370
    25
100
AcDbSpline
210
0.0
220
0.0
230
1.0
 70
     8
 71
     3
 72
     8
 73
     4
 74
     0
 42
0.000000001
 43
0.001
 12
1.0
 22
0.0
 32
0.0
 13
1.0
 23
0.0
 33
0.0
 40
0.0
 40
0.0
 40
0.0
 40
0.0
 40
1.0
 40
1.0
 40
1.0
 40
1.0
 10
45.49119393231632
 20
-27.6791472159413
 30
0.0
 10
45.49119393231632
 20
-34.30643096594137
 30
0.0
 10
40.11838768231638
 20
-39.67888346594125
 30
0.0
 10
33.4903989323164
 20
-39.67888346594125
 30
0.0
  0
LWPOLYLINE
  5
33E4
330
34C5
100
AcDbEntity
  8
CUTS
 62
     1
420
 16711680
370
    25
100
AcDbPolyline
 90
        3
 70
     0
 43
0.0
 10
13.65299893231628
 20
-13.44879721594126
 10
25.27949643231631
 20
-15.68399721594133
 10
33.49039893231645
 20
-15.67905846594138
  0
SPLINE
  5
33E5
330
34C5
100
AcDbEntity
  8
CUTS
 62
     1
420
 16711680
370
    25
100
AcDbSpline
210
0.0
220
0.0
230
1.0
 70
     8
 71
     3
 72
     8
 73
     4
 74
     0
 42
0.000000001
 43
0.001
 12
1.0
 22
0.0
 32
0.0
 13
1.0
 23
0.0
 33
0.0
 40
0.0
 40
0.0
 40
0.0
 40
0.0
 40
1.0
 40
1.0
 40
1.0
 40
1.0
 10
13.6554689323163
 20
-41.90808596594129
 30
0.0
 10
13.39264893231638
 20
-42.44113346594124
 30
0.0
 10
13.24130768231629
 20
-43.03873971594138
 30
0.0
 10
13.24130768231629
 20
-43.6726809659414
 30
0.0
  0
LWPOLYLINE
  5
33E6
330
34C5
100
AcDbEntity
  8
CUTS
 62
     1
420
 16711680
370
    25
100
AcDbPolyline
 90
        3
 70
     0
 43
0.0
 10
33.4903989323164
 20
-39.67888346594125
 10
25.26926643231633
 20
-39.67535596594135
 10
13.6554689323163
 20
-41.90808596594129
  0
SPLINE
  5
33E7
330
34C5
100
AcDbEntity
  8
CUTS
 62
     1
420
 16711680
370
    25
100
AcDbSpline
210
0.0
220
0.0
230
1.0
 70
     8
 71
     3
 72
     8
 73
     4
 74
     0
 42
0.000000001
 43
0.001
 12
1.0
 22
0.0
 32
0.0
 13
1.0
 23
0.0
 33
0.0
 40
0.0
 40
0.0
 40
0.0
 40
0.0
 40
1.0
 40
1.0
 40
1.0
 40
1.0
 10
13.24130768231629
 20
-44.92821721594137
 30
0.0
 10
13.24130768231629
 20
-47.13766471594126
 30
0.0
 10
15.0313014323163
 20
-48.92836471594129
 30
0.0
 10
17.24110143231638
 20
-48.92836471594128
 30
0.0
  0
SPLINE
  5
33E8
330
34C5
100
AcDbEntity
  8
CUTS
 62
     1
420
 16711680
370
    25
100
AcDbSpline
210
0.0
220
0.0
230
1.0
 70
     8
 71
     3
 72
     8
 73
     4
 74
     0
 42
0.000000001
 43
0.001
 12
1.0
 22
0.0
 32
0.0
 13
1.0
 23
0.0
 33
0.0
 40
0.0
 40
0.0
 40
0.0
 40
0.0
 40
1.0
 40
1.0
 40
1.0
 40
1.0
 10
51.74135768231628
 20
-89.92890346594133
 30
0.0
 10
53.95045143231636
 20
-89.92890346594133
 30
0.0
 10
55.74115143231626
 20
-88.13784971594139
 30
0.0
 10
55.74115143231626
 20
-85.9287559659413
 30
0.0
  0
LWPOLYLINE
  5
33E9
330
34C5
100
AcDbEntity
  8
CUTS
 62
     1
420
 16711680
370
    25
100
AcDbPolyline
 90
        2
 70
     0
 43
0.0
 10
13.24130768231629
 20
-43.6726809659414
 10
13.24130768231629
 20
-44.92821721594137
  0
SPLINE
  5
33EA
330
34C5
100
AcDbEntity
  8
CUTS
 62
     1
420
 16711680
370
    25
100
AcDbSpline
210
0.0
220
0.0
230
1.0
 70
     8
 71
     3
 72
     8
 73
     4
 74
     0
 42
0.000000001
 43
0.001
 12
1.0
 22
0.0
 32
0.0
 13
1.0
 23
0.0
 33
0.0
 40
0.0
 40
0.0
 40
0.0
 40
0.0
 40
1.0
 40
1.0
 40
1.0
 40
1.0
 10
55.74115143231626
 20
-52.92851096594124
 30
0.0
 10
55.74115143231626
 20
-50.71941721594137
 30
0.0
 10
53.95045143231636
 20
-48.92836471594129
 30
0.0
 10
51.74135768231628
 20
-48.92836471594129
 30
0.0
  0
LWPOLYLINE
  5
33EB
330
34C5
100
AcDbEntity
  8
CUTS
 62
     1
420
 16711680
370
    25
100
AcDbPolyline
 90
        2
 70
     0
 43
0.0
 10
55.74115143231626
 20
-85.9287559659413
 10
55.74115143231626
 20
-52.92851096594124
  0
SPLINE
  5
33EC
330
34C5
100
AcDbEntity
  8
CUTS
 62
     1
420
 16711680
370
    25
100
AcDbSpline
210
0.0
220
0.0
230
1.0
 70
     8
 71
     3
 72
     8
 73
     4
 74
     0
 42
0.000000001
 43
0.001
 12
1.0
 22
0.0
 32
0.0
 13
1.0
 23
0.0
 33
0.0
 40
0.0
 40
0.0
 40
0.0
 40
0.0
 40
1.0
 40
1.0
 40
1.0
 40
1.0
 10
17.24110143231638
 20
-48.92836471594128
 30
0.0
 10
15.07575143231639
 20
-48.92836471594129
 30
0.0
 10
13.31680143231625
 20
-50.65027221594133
 30
0.0
 10
13.24801018231625
 20
-52.79904221594134
 30
0.0
  0
SPLINE
  5
33ED
330
34C5
100
AcDbEntity
  8
CUTS
 62
     1
420
 16711680
370
    25
100
AcDbSpline
210
0.0
220
0.0
230
1.0
 70
     8
 71
     3
 72
     8
 73
     4
 74
     0
 42
0.000000001
 43
0.001
 12
1.0
 22
0.0
 32
0.0
 13
1.0
 23
0.0
 33
0.0
 40
0.0
 40
0.0
 40
0.0
 40
0.0
 40
1.0
 40
1.0
 40
1.0
 40
1.0
 10
13.24801018231625
 20
-52.79904221594134
 30
0.0
 10
13.26423768231626
 20
-53.38959221594124
 30
0.0
 10
13.40746643231631
 20
-53.94839221594125
 30
0.0
 10
13.65299893231628
 20
-54.44827846594129
 30
0.0
  0
LWPOLYLINE
  5
33EE
330
34C5
100
AcDbEntity
  8
CUTS
 62
     1
420
 16711680
370
    25
100
AcDbPolyline
 90
        2
 70
     0
 43
0.0
 10
51.74135768231628
 20
-48.92836471594129
 10
17.24110143231638
 20
-48.92836471594128
  0
SPLINE
  5
33EF
330
34C5
100
AcDbEntity
  8
CUTS
 62
     1
420
 16711680
370
    25
100
AcDbSpline
210
0.0
220
0.0
230
1.0
 70
     8
 71
     3
 72
     8
 73
     4
 74
     0
 42
0.000000001
 43
0.001
 12
1.0
 22
0.0
 32
0.0
 13
1.0
 23
0.0
 33
0.0
 40
0.0
 40
0.0
 40
0.0
 40
0.0
 40
1.0
 40
1.0
 40
1.0
 40
1.0
 10
33.4903989323164
 20
-56.6785397159413
 30
0.0
 10
40.11838768231638
 20
-56.6785397159413
 30
0.0
 10
45.49119393231632
 20
-62.05099221594131
 30
0.0
 10
45.49119393231632
 20
-68.67862846594123
 30
0.0
  0
SPLINE
  5
33F0
330
34C5
100
AcDbEntity
  8
CUTS
 62
     1
420
 16711680
370
    25
100
AcDbSpline
210
0.0
220
0.0
230
1.0
 70
     8
 71
     3
 72
     8
 73
     4
 74
     0
 42
0.000000001
 43
0.001
 12
1.0
 22
0.0
 32
0.0
 13
1.0
 23
0.0
 33
0.0
 40
0.0
 40
0.0
 40
0.0
 40
0.0
 40
1.0
 40
1.0
 40
1.0
 40
1.0
 10
45.49119393231632
 20
-68.67862846594123
 30
0.0
 10
45.49119393231632
 20
-75.30591096594131
 30
0.0
 10
40.11838768231638
 20
-80.67871721594138
 30
0.0
 10
33.49039893231651
 20
-80.67871721594138
 30
0.0
  0
LWPOLYLINE
  5
33F1
330
34C5
100
AcDbEntity
  8
CUTS
 62
     1
420
 16711680
370
    25
100
AcDbPolyline
 90
        3
 70
     0
 43
0.0
 10
13.65299893231628
 20
-54.44827846594129
 10
25.27949643231631
 20
-56.68347846594136
 10
33.4903989323164
 20
-56.6785397159413
  0
SPLINE
  5
33F2
330
34C5
100
AcDbEntity
  8
CUTS
 62
     1
420
 16711680
370
    25
100
AcDbSpline
210
0.0
220
0.0
230
1.0
 70
     8
 71
     3
 72
     8
 73
     4
 74
     0
 42
0.000000001
 43
0.001
 12
1.0
 22
0.0
 32
0.0
 13
1.0
 23
0.0
 33
0.0
 40
0.0
 40
0.0
 40
0.0
 40
0.0
 40
1.0
 40
1.0
 40
1.0
 40
1.0
 10
13.65546893231635
 20
-82.90791971594142
 30
0.0
 10
13.39264893231638
 20
-83.44096721594137
 30
0.0
 10
13.24130768231629
 20
-84.03821971594132
 30
0.0
 10
13.24130768231629
 20
-84.67251471594129
 30
0.0
  0
LWPOLYLINE
  5
33F3
330
34C5
100
AcDbEntity
  8
CUTS
 62
     1
420
 16711680
370
    25
100
AcDbPolyline
 90
        3
 70
     0
 43
0.0
 10
33.49039893231651
 20
-80.67871721594138
 10
25.26926643231633
 20
-80.67518971594136
 10
13.65546893231635
 20
-82.90791971594142
  0
SPLINE
  5
33F4
330
34C5
100
AcDbEntity
  8
CUTS
 62
     1
420
 16711680
370
    25
100
AcDbSpline
210
0.0
220
0.0
230
1.0
 70
     8
 71
     3
 72
     8
 73
     4
 74
     0
 42
0.000000001
 43
0.001
 12
1.0
 22
0.0
 32
0.0
 13
1.0
 23
0.0
 33
0.0
 40
0.0
 40
0.0
 40
0.0
 40
0.0
 40
1.0
 40
1.0
 40
1.0
 40
1.0
 10
13.24130768231629
 20
-85.9280497159413
 30
0.0
 10
13.24130768231629
 20
-88.13714471594132
 30
0.0
 10
15.0313014323163
 20
-89.92819721594144
 30
0.0
 10
17.24110143231638
 20
-89.92819721594144
 30
0.0
  0
LWPOLYLINE
  5
33F5
330
34C5
100
AcDbEntity
  8
CUTS
 62
     1
420
 16711680
370
    25
100
AcDbPolyline
 90
        2
 70
     0
 43
0.0
 10
13.24130768231629
 20
-84.67251471594129
 10
13.24130768231629
 20
-85.9280497159413
  0
LINE
  5
33FA
330
34C5
100
AcDbEntity
  8
CUTS
100
AcDbLine
 10
34.36105518204579
 20
-89.92960846594137
 30
0.0
 11
51.74135768231628
 21
-89.92890346594133
 31
0.0
  0
LINE
  5
33FB
330
34C5
100
AcDbEntity
  8
CUTS
100
AcDbLine
 10
32.59504893231627
 20
-89.92960846594137
 30
0.0
 11
17.24110143231638
 21
-89.92819721594144
 31
0.0
  0
SPLINE
  5
3403
330
34C5
100
AcDbEntity
  8
CUTS
 62
     1
420
 16711680
370
    25
100
AcDbSpline
210
0.0
220
0.0
230
1.0
 70
     8
 71
     3
 72
     8
 73
     4
 74
     0
 42
0.000000001
 43
0.001
 12
1.0
 22
0.0
 32
0.0
 13
1.0
 23
0.0
 33
0.0
 40
0.0
 40
0.0
 40
0.0
 40
0.0
 40
1.0
 40
1.0
 40
1.0
 40
1.0
 10
13.24130768231797
 20
-126.9285897159413
 30
0.0
 10
13.24130768231797
 20
-129.1380372159412
 30
0.0
 10
15.03130143231798
 20
-130.9287372159412
 30
0.0
 10
17.24110143231807
 20
-130.9287372159412
 30
0.0
  0
SPLINE
  5
3404
330
34C5
100
AcDbEntity
  8
CUTS
 62
     1
420
 16711680
370
    25
100
AcDbSpline
210
0.0
220
0.0
230
1.0
 70
     8
 71
     3
 72
     8
 73
     4
 74
     0
 42
0.000000001
 43
0.001
 12
1.0
 22
0.0
 32
0.0
 13
1.0
 23
0.0
 33
0.0
 40
0.0
 40
0.0
 40
0.0
 40
0.0
 40
1.0
 40
1.0
 40
1.0
 40
1.0
 10
51.74135768231796
 20
-171.9292759659413
 30
0.0
 10
53.95045143231804
 20
-171.9292759659413
 30
0.0
 10
55.74115143231794
 20
-170.1382222159413
 30
0.0
 10
55.74115143231794
 20
-167.9291284659412
 30
0.0
  0
LWPOLYLINE
  5
3405
330
34C5
100
AcDbEntity
  8
CUTS
 62
     1
420
 16711680
370
    25
100
AcDbPolyline
 90
        2
 70
     0
 43
0.0
 10
13.24130768231797
 20
-125.6730534659413
 10
13.24130768231797
 20
-126.9285897159413
  0
SPLINE
  5
3406
330
34C5
100
AcDbEntity
  8
CUTS
 62
     1
420
 16711680
370
    25
100
AcDbSpline
210
0.0
220
0.0
230
1.0
 70
     8
 71
     3
 72
     8
 73
     4
 74
     0
 42
0.000000001
 43
0.001
 12
1.0
 22
0.0
 32
0.0
 13
1.0
 23
0.0
 33
0.0
 40
0.0
 40
0.0
 40
0.0
 40
0.0
 40
1.0
 40
1.0
 40
1.0
 40
1.0
 10
55.74115143231794
 20
-134.9288834659411
 30
0.0
 10
55.74115143231794
 20
-132.7197897159413
 30
0.0
 10
53.95045143231804
 20
-130.9287372159412
 30
0.0
 10
51.74135768231796
 20
-130.9287372159412
 30
0.0
  0
LWPOLYLINE
  5
3407
330
34C5
100
AcDbEntity
  8
CUTS
 62
     1
420
 16711680
370
    25
100
AcDbPolyline
 90
        2
 70
     0
 43
0.0
 10
55.74115143231794
 20
-167.9291284659412
 10
55.74115143231794
 20
-134.9288834659411
  0
SPLINE
  5
3408
330
34C5
100
AcDbEntity
  8
CUTS
 62
     1
420
 16711680
370
    25
100
AcDbSpline
210
0.0
220
0.0
230
1.0
 70
     8
 71
     3
 72
     8
 73
     4
 74
     0
 42
0.000000001
 43
0.001
 12
1.0
 22
0.0
 32
0.0
 13
1.0
 23
0.0
 33
0.0
 40
0.0
 40
0.0
 40
0.0
 40
0.0
 40
1.0
 40
1.0
 40
1.0
 40
1.0
 10
17.24110143231807
 20
-130.9287372159412
 30
0.0
 10
15.07575143231808
 20
-130.9287372159412
 30
0.0
 10
13.31680143231794
 20
-132.6506447159412
 30
0.0
 10
13.24801018231793
 20
-134.7994147159413
 30
0.0
  0
SPLINE
  5
3409
330
34C5
100
AcDbEntity
  8
CUTS
 62
     1
420
 16711680
370
    25
100
AcDbSpline
210
0.0
220
0.0
230
1.0
 70
     8
 71
     3
 72
     8
 73
     4
 74
     0
 42
0.000000001
 43
0.001
 12
1.0
 22
0.0
 32
0.0
 13
1.0
 23
0.0
 33
0.0
 40
0.0
 40
0.0
 40
0.0
 40
0.0
 40
1.0
 40
1.0
 40
1.0
 40
1.0
 10
13.24801018231793
 20
-134.7994147159413
 30
0.0
 10
13.26423768231795
 20
-135.3899647159411
 30
0.0
 10
13.407466432318
 20
-135.9487647159412
 30
0.0
 10
13.65299893231796
 20
-136.4486509659412
 30
0.0
  0
LWPOLYLINE
  5
340A
330
34C5
100
AcDbEntity
  8
CUTS
 62
     1
420
 16711680
370
    25
100
AcDbPolyline
 90
        2
 70
     0
 43
0.0
 10
51.74135768231796
 20
-130.9287372159412
 10
17.24110143231807
 20
-130.9287372159412
  0
SPLINE
  5
340B
330
34C5
100
AcDbEntity
  8
CUTS
 62
     1
420
 16711680
370
    25
100
AcDbSpline
210
0.0
220
0.0
230
1.0
 70
     8
 71
     3
 72
     8
 73
     4
 74
     0
 42
0.000000001
 43
0.001
 12
1.0
 22
0.0
 32
0.0
 13
1.0
 23
0.0
 33
0.0
 40
0.0
 40
0.0
 40
0.0
 40
0.0
 40
1.0
 40
1.0
 40
1.0
 40
1.0
 10
33.49039893231808
 20
-138.6789122159412
 30
0.0
 10
40.11838768231807
 20
-138.6789122159412
 30
0.0
 10
45.49119393231801
 20
-144.0513647159412
 30
0.0
 10
45.49119393231801
 20
-150.6790009659412
 30
0.0
  0
SPLINE
  5
340C
330
34C5
100
AcDbEntity
  8
CUTS
 62
     1
420
 16711680
370
    25
100
AcDbSpline
210
0.0
220
0.0
230
1.0
 70
     8
 71
     3
 72
     8
 73
     4
 74
     0
 42
0.000000001
 43
0.001
 12
1.0
 22
0.0
 32
0.0
 13
1.0
 23
0.0
 33
0.0
 40
0.0
 40
0.0
 40
0.0
 40
0.0
 40
1.0
 40
1.0
 40
1.0
 40
1.0
 10
45.49119393231801
 20
-150.6790009659412
 30
0.0
 10
45.49119393231801
 20
-157.3062834659412
 30
0.0
 10
40.11838768231807
 20
-162.6790897159413
 30
0.0
 10
33.49039893231819
 20
-162.6790897159413
 30
0.0
  0
LWPOLYLINE
  5
340D
330
34C5
100
AcDbEntity
  8
CUTS
 62
     1
420
 16711680
370
    25
100
AcDbPolyline
 90
        3
 70
     0
 43
0.0
 10
13.65299893231796
 20
-136.4486509659412
 10
25.27949643231799
 20
-138.6838509659413
 10
33.49039893231808
 20
-138.6789122159412
  0
SPLINE
  5
340E
330
34C5
100
AcDbEntity
  8
CUTS
 62
     1
420
 16711680
370
    25
100
AcDbSpline
210
0.0
220
0.0
230
1.0
 70
     8
 71
     3
 72
     8
 73
     4
 74
     0
 42
0.000000001
 43
0.001
 12
1.0
 22
0.0
 32
0.0
 13
1.0
 23
0.0
 33
0.0
 40
0.0
 40
0.0
 40
0.0
 40
0.0
 40
1.0
 40
1.0
 40
1.0
 40
1.0
 10
13.65546893231804
 20
-164.9082922159413
 30
0.0
 10
13.39264893231806
 20
-165.4413397159413
 30
0.0
 10
13.24130768231797
 20
-166.0385922159412
 30
0.0
 10
13.24130768231797
 20
-166.6728872159412
 30
0.0
  0
LWPOLYLINE
  5
340F
330
34C5
100
AcDbEntity
  8
CUTS
 62
     1
420
 16711680
370
    25
100
AcDbPolyline
 90
        3
 70
     0
 43
0.0
 10
33.49039893231819
 20
-162.6790897159413
 10
25.26926643231801
 20
-162.6755622159413
 10
13.65546893231804
 20
-164.9082922159413
  0
SPLINE
  5
3410
330
34C5
100
AcDbEntity
  8
CUTS
 62
     1
420
 16711680
370
    25
100
AcDbSpline
210
0.0
220
0.0
230
1.0
 70
     8
 71
     3
 72
     8
 73
     4
 74
     0
 42
0.000000001
 43
0.001
 12
1.0
 22
0.0
 32
0.0
 13
1.0
 23
0.0
 33
0.0
 40
0.0
 40
0.0
 40
0.0
 40
0.0
 40
1.0
 40
1.0
 40
1.0
 40
1.0
 10
13.24130768231797
 20
-167.9284222159412
 30
0.0
 10
13.24130768231797
 20
-170.1375172159412
 30
0.0
 10
15.03130143231798
 20
-171.9285697159414
 30
0.0
 10
17.24110143231807
 20
-171.9285697159414
 30
0.0
  0
LWPOLYLINE
  5
3411
330
34C5
100
AcDbEntity
  8
CUTS
 62
     1
420
 16711680
370
    25
100
AcDbPolyline
 90
        2
 70
     0
 43
0.0
 10
13.24130768231797
 20
-166.6728872159412
 10
13.24130768231797
 20
-167.9284222159412
  0
LINE
  5
3416
330
34C5
100
AcDbEntity
  8
CUTS
100
AcDbLine
 10
34.36105518204747
 20
-171.9299809659413
 30
0.0
 11
51.74135768231796
 21
-171.9292759659413
 31
0.0
  0
LINE
  5
3417
330
34C5
100
AcDbEntity
  8
CUTS
100
AcDbLine
 10
32.59504893231796
 20
-171.9299809659413
 30
0.0
 11
17.24110143231807
 21
-171.9285697159414
 31
0.0
  0
SPLINE
  5
3428
330
34C5
100
AcDbEntity
  8
CUTS
 62
     1
420
 16711680
370
    25
100
AcDbSpline
210
0.0
220
0.0
230
1.0
 70
     8
 71
     3
 72
     8
 73
     4
 74
     0
 42
0.000000001
 43
0.001
 12
1.0
 22
0.0
 32
0.0
 13
1.0
 23
0.0
 33
0.0
 40
0.0
 40
0.0
 40
0.0
 40
0.0
 40
1.0
 40
1.0
 40
1.0
 40
1.0
 10
48.49156893231797
 20
-125.1795172159412
 30
0.0
 10
48.49156893231797
 20
-124.3508422159413
 30
0.0
 10
49.16361018231797
 20
-123.6795059659411
 30
0.0
 10
49.99158018231802
 20
-123.6795059659411
 30
0.0
  0
SPLINE
  5
3429
330
34C5
100
AcDbEntity
  8
CUTS
 62
     1
420
 16711680
370
    25
100
AcDbSpline
210
0.0
220
0.0
230
1.0
 70
     8
 71
     3
 72
     8
 73
     4
 74
     0
 42
0.000000001
 43
0.001
 12
1.0
 22
0.0
 32
0.0
 13
1.0
 23
0.0
 33
0.0
 40
0.0
 40
0.0
 40
0.0
 40
0.0
 40
1.0
 40
1.0
 40
1.0
 40
1.0
 10
49.99158018231802
 20
-123.6795059659411
 30
0.0
 10
50.81990143231796
 20
-123.6795059659411
 30
0.0
 10
51.49159143231797
 20
-124.3508422159413
 30
0.0
 10
51.49159143231797
 20
-125.1795172159412
 30
0.0
  0
SPLINE
  5
342A
330
34C5
100
AcDbEntity
  8
CUTS
 62
     1
420
 16711680
370
    25
100
AcDbSpline
210
0.0
220
0.0
230
1.0
 70
     8
 71
     3
 72
     8
 73
     4
 74
     0
 42
0.000000001
 43
0.001
 12
1.0
 22
0.0
 32
0.0
 13
1.0
 23
0.0
 33
0.0
 40
0.0
 40
0.0
 40
0.0
 40
0.0
 40
1.0
 40
1.0
 40
1.0
 40
1.0
 10
51.49159143231797
 20
-125.1795172159412
 30
0.0
 10
51.49159143231797
 20
-126.0081922159412
 30
0.0
 10
50.81990143231796
 20
-126.6795284659412
 30
0.0
 10
49.99158018231802
 20
-126.6795284659412
 30
0.0
  0
SPLINE
  5
342B
330
34C5
100
AcDbEntity
  8
CUTS
 62
     1
420
 16711680
370
    25
100
AcDbSpline
210
0.0
220
0.0
230
1.0
 70
     8
 71
     3
 72
     8
 73
     4
 74
     0
 42
0.000000001
 43
0.001
 12
1.0
 22
0.0
 32
0.0
 13
1.0
 23
0.0
 33
0.0
 40
0.0
 40
0.0
 40
0.0
 40
0.0
 40
1.0
 40
1.0
 40
1.0
 40
1.0
 10
49.99158018231802
 20
-126.6795284659412
 30
0.0
 10
49.16361018231797
 20
-126.6795284659412
 30
0.0
 10
48.49156893231797
 20
-126.0081922159412
 30
0.0
 10
48.49156893231797
 20
-125.1795172159412
 30
0.0
  0
LWPOLYLINE
  5
342C
330
34C5
100
AcDbEntity
  8
CUTS
 62
     1
420
 16711680
370
    25
100
AcDbPolyline
 90
        3
 70
     0
 43
0.0
 10
32.59504893231796
 20
-130.9294422159412
 10
33.47840518231798
 20
-130.0460872159413
 10
34.36105518231799
 20
-130.9294422159412
  0
SPLINE
  5
342D
330
34C5
100
AcDbEntity
  8
CUTS
 62
     1
420
 16711680
370
    25
100
AcDbSpline
210
0.0
220
0.0
230
1.0
 70
     8
 71
     3
 72
     8
 73
     4
 74
     0
 42
0.000000001
 43
0.001
 12
1.0
 22
0.0
 32
0.0
 13
1.0
 23
0.0
 33
0.0
 40
0.0
 40
0.0
 40
0.0
 40
0.0
 40
1.0
 40
1.0
 40
1.0
 40
1.0
 10
17.49157393231796
 20
-125.1795172159412
 30
0.0
 10
17.49157393231796
 20
-124.3508422159413
 30
0.0
 10
18.16291018231792
 20
-123.6795059659411
 30
0.0
 10
18.99158518231801
 20
-123.6795059659411
 30
0.0
  0
SPLINE
  5
342E
330
34C5
100
AcDbEntity
  8
CUTS
 62
     1
420
 16711680
370
    25
100
AcDbSpline
210
0.0
220
0.0
230
1.0
 70
     8
 71
     3
 72
     8
 73
     4
 74
     0
 42
0.000000001
 43
0.001
 12
1.0
 22
0.0
 32
0.0
 13
1.0
 23
0.0
 33
0.0
 40
0.0
 40
0.0
 40
0.0
 40
0.0
 40
1.0
 40
1.0
 40
1.0
 40
1.0
 10
18.99158518231801
 20
-123.6795059659411
 30
0.0
 10
19.81990768231802
 20
-123.6795059659411
 30
0.0
 10
20.49124393231799
 20
-124.3508422159413
 30
0.0
 10
20.49124393231799
 20
-125.1795172159412
 30
0.0
  0
SPLINE
  5
342F
330
34C5
100
AcDbEntity
  8
CUTS
 62
     1
420
 16711680
370
    25
100
AcDbSpline
210
0.0
220
0.0
230
1.0
 70
     8
 71
     3
 72
     8
 73
     4
 74
     0
 42
0.000000001
 43
0.001
 12
1.0
 22
0.0
 32
0.0
 13
1.0
 23
0.0
 33
0.0
 40
0.0
 40
0.0
 40
0.0
 40
0.0
 40
1.0
 40
1.0
 40
1.0
 40
1.0
 10
20.49124393231799
 20
-125.1795172159412
 30
0.0
 10
20.49124393231799
 20
-126.0081922159412
 30
0.0
 10
19.81990768231802
 20
-126.6795284659412
 30
0.0
 10
18.99158518231801
 20
-126.6795284659412
 30
0.0
  0
SPLINE
  5
3430
330
34C5
100
AcDbEntity
  8
CUTS
 62
     1
420
 16711680
370
    25
100
AcDbSpline
210
0.0
220
0.0
230
1.0
 70
     8
 71
     3
 72
     8
 73
     4
 74
     0
 42
0.000000001
 43
0.001
 12
1.0
 22
0.0
 32
0.0
 13
1.0
 23
0.0
 33
0.0
 40
0.0
 40
0.0
 40
0.0
 40
0.0
 40
1.0
 40
1.0
 40
1.0
 40
1.0
 10
18.99158518231801
 20
-126.6795284659412
 30
0.0
 10
18.16326268231811
 20
-126.6795284659412
 30
0.0
 10
17.49157393231796
 20
-126.0081922159412
 30
0.0
 10
17.49157393231796
 20
-125.1795172159412
 30
0.0
  0
SPLINE
  5
3431
330
34C5
100
AcDbEntity
  8
CUTS
 62
     1
420
 16711680
370
    25
100
AcDbSpline
210
0.0
220
0.0
230
1.0
 70
     8
 71
     3
 72
     8
 73
     4
 74
     0
 42
0.000000001
 43
0.001
 12
1.0
 22
0.0
 32
0.0
 13
1.0
 23
0.0
 33
0.0
 40
0.0
 40
0.0
 40
0.0
 40
0.0
 40
1.0
 40
1.0
 40
1.0
 40
1.0
 10
48.49156893231797
 20
-94.17952221594126
 30
0.0
 10
48.49156893231797
 20
-93.35084721594117
 30
0.0
 10
49.16361018231797
 20
-92.67951221594119
 30
0.0
 10
49.99158018231802
 20
-92.67951221594119
 30
0.0
  0
SPLINE
  5
3432
330
34C5
100
AcDbEntity
  8
CUTS
 62
     1
420
 16711680
370
    25
100
AcDbSpline
210
0.0
220
0.0
230
1.0
 70
     8
 71
     3
 72
     8
 73
     4
 74
     0
 42
0.000000001
 43
0.001
 12
1.0
 22
0.0
 32
0.0
 13
1.0
 23
0.0
 33
0.0
 40
0.0
 40
0.0
 40
0.0
 40
0.0
 40
1.0
 40
1.0
 40
1.0
 40
1.0
 10
49.99158018231802
 20
-92.67951221594119
 30
0.0
 10
50.81990143231801
 20
-92.67951221594119
 30
0.0
 10
51.49159143231802
 20
-93.35084721594119
 30
0.0
 10
51.49159143231797
 20
-94.17952221594126
 30
0.0
  0
SPLINE
  5
3433
330
34C5
100
AcDbEntity
  8
CUTS
 62
     1
420
 16711680
370
    25
100
AcDbSpline
210
0.0
220
0.0
230
1.0
 70
     8
 71
     3
 72
     8
 73
     4
 74
     0
 42
0.000000001
 43
0.001
 12
1.0
 22
0.0
 32
0.0
 13
1.0
 23
0.0
 33
0.0
 40
0.0
 40
0.0
 40
0.0
 40
0.0
 40
1.0
 40
1.0
 40
1.0
 40
1.0
 10
51.49159143231797
 20
-94.17952221594126
 30
0.0
 10
51.49159143231802
 20
-95.00784471594118
 30
0.0
 10
50.81990143231796
 20
-95.67953346594133
 30
0.0
 10
49.99158018231802
 20
-95.67953346594132
 30
0.0
  0
SPLINE
  5
3434
330
34C5
100
AcDbEntity
  8
CUTS
 62
     1
420
 16711680
370
    25
100
AcDbSpline
210
0.0
220
0.0
230
1.0
 70
     8
 71
     3
 72
     8
 73
     4
 74
     0
 42
0.000000001
 43
0.001
 12
1.0
 22
0.0
 32
0.0
 13
1.0
 23
0.0
 33
0.0
 40
0.0
 40
0.0
 40
0.0
 40
0.0
 40
1.0
 40
1.0
 40
1.0
 40
1.0
 10
49.99158018231802
 20
-95.67953346594132
 30
0.0
 10
49.16361018231803
 20
-95.67953346594133
 30
0.0
 10
48.49156893231797
 20
-95.00784471594118
 30
0.0
 10
48.49156893231797
 20
-94.17952221594126
 30
0.0
  0
SPLINE
  5
3435
330
34C5
100
AcDbEntity
  8
CUTS
 62
     1
420
 16711680
370
    25
100
AcDbSpline
210
0.0
220
0.0
230
1.0
 70
     8
 71
     3
 72
     8
 73
     4
 74
     0
 42
0.000000001
 43
0.001
 12
1.0
 22
0.0
 32
0.0
 13
1.0
 23
0.0
 33
0.0
 40
0.0
 40
0.0
 40
0.0
 40
0.0
 40
1.0
 40
1.0
 40
1.0
 40
1.0
 10
17.49157393231796
 20
-94.17952221594126
 30
0.0
 10
17.49157393231796
 20
-93.35084721594117
 30
0.0
 10
18.16291018231792
 20
-92.67951221594117
 30
0.0
 10
18.99158518231801
 20
-92.67951221594117
 30
0.0
  0
SPLINE
  5
3436
330
34C5
100
AcDbEntity
  8
CUTS
 62
     1
420
 16711680
370
    25
100
AcDbSpline
210
0.0
220
0.0
230
1.0
 70
     8
 71
     3
 72
     8
 73
     4
 74
     0
 42
0.000000001
 43
0.001
 12
1.0
 22
0.0
 32
0.0
 13
1.0
 23
0.0
 33
0.0
 40
0.0
 40
0.0
 40
0.0
 40
0.0
 40
1.0
 40
1.0
 40
1.0
 40
1.0
 10
18.99158518231801
 20
-92.67951221594117
 30
0.0
 10
19.81990768231802
 20
-92.67951221594117
 30
0.0
 10
20.49124393231799
 20
-93.35084721594117
 30
0.0
 10
20.49124393231799
 20
-94.17952221594126
 30
0.0
  0
SPLINE
  5
3437
330
34C5
100
AcDbEntity
  8
CUTS
 62
     1
420
 16711680
370
    25
100
AcDbSpline
210
0.0
220
0.0
230
1.0
 70
     8
 71
     3
 72
     8
 73
     4
 74
     0
 42
0.000000001
 43
0.001
 12
1.0
 22
0.0
 32
0.0
 13
1.0
 23
0.0
 33
0.0
 40
0.0
 40
0.0
 40
0.0
 40
0.0
 40
1.0
 40
1.0
 40
1.0
 40
1.0
 10
20.49124393231799
 20
-94.17952221594126
 30
0.0
 10
20.49124393231799
 20
-95.00784471594116
 30
0.0
 10
19.81990768231802
 20
-95.67953346594132
 30
0.0
 10
18.99158518231801
 20
-95.67953346594132
 30
0.0
  0
SPLINE
  5
3438
330
34C5
100
AcDbEntity
  8
CUTS
 62
     1
420
 16711680
370
    25
100
AcDbSpline
210
0.0
220
0.0
230
1.0
 70
     8
 71
     3
 72
     8
 73
     4
 74
     0
 42
0.000000001
 43
0.001
 12
1.0
 22
0.0
 32
0.0
 13
1.0
 23
0.0
 33
0.0
 40
0.0
 40
0.0
 40
0.0
 40
0.0
 40
1.0
 40
1.0
 40
1.0
 40
1.0
 10
18.99158518231801
 20
-95.67953346594132
 30
0.0
 10
18.16326268231811
 20
-95.67953346594132
 30
0.0
 10
17.49157393231796
 20
-95.00784471594116
 30
0.0
 10
17.49157393231796
 20
-94.17952221594126
 30
0.0
  0
SPLINE
  5
3439
330
34C5
100
AcDbEntity
  8
CUTS
 62
     1
420
 16711680
370
    25
100
AcDbSpline
210
0.0
220
0.0
230
1.0
 70
     8
 71
     3
 72
     8
 73
     4
 74
     0
 42
0.000000001
 43
0.001
 12
1.0
 22
0.0
 32
0.0
 13
1.0
 23
0.0
 33
0.0
 40
0.0
 40
0.0
 40
0.0
 40
0.0
 40
1.0
 40
1.0
 40
1.0
 40
1.0
 10
48.49156893231797
 20
-166.1800559659412
 30
0.0
 10
48.49156893231797
 20
-165.3513809659414
 30
0.0
 10
49.16361018231797
 20
-164.6800447159412
 30
0.0
 10
49.99158018231802
 20
-164.6800447159411
 30
0.0
  0
SPLINE
  5
343A
330
34C5
100
AcDbEntity
  8
CUTS
 62
     1
420
 16711680
370
    25
100
AcDbSpline
210
0.0
220
0.0
230
1.0
 70
     8
 71
     3
 72
     8
 73
     4
 74
     0
 42
0.000000001
 43
0.001
 12
1.0
 22
0.0
 32
0.0
 13
1.0
 23
0.0
 33
0.0
 40
0.0
 40
0.0
 40
0.0
 40
0.0
 40
1.0
 40
1.0
 40
1.0
 40
1.0
 10
49.99158018231802
 20
-164.6800447159411
 30
0.0
 10
50.81990143231796
 20
-164.6800447159412
 30
0.0
 10
51.49159143231797
 20
-165.3513809659414
 30
0.0
 10
51.49159143231797
 20
-166.1800559659412
 30
0.0
  0
SPLINE
  5
343B
330
34C5
100
AcDbEntity
  8
CUTS
 62
     1
420
 16711680
370
    25
100
AcDbSpline
210
0.0
220
0.0
230
1.0
 70
     8
 71
     3
 72
     8
 73
     4
 74
     0
 42
0.000000001
 43
0.001
 12
1.0
 22
0.0
 32
0.0
 13
1.0
 23
0.0
 33
0.0
 40
0.0
 40
0.0
 40
0.0
 40
0.0
 40
1.0
 40
1.0
 40
1.0
 40
1.0
 10
51.49159143231797
 20
-166.1800559659412
 30
0.0
 10
51.49159143231797
 20
-167.0083784659413
 30
0.0
 10
50.81990143231796
 20
-167.6800672159413
 30
0.0
 10
49.99158018231802
 20
-167.6800672159413
 30
0.0
  0
SPLINE
  5
343C
330
34C5
100
AcDbEntity
  8
CUTS
 62
     1
420
 16711680
370
    25
100
AcDbSpline
210
0.0
220
0.0
230
1.0
 70
     8
 71
     3
 72
     8
 73
     4
 74
     0
 42
0.000000001
 43
0.001
 12
1.0
 22
0.0
 32
0.0
 13
1.0
 23
0.0
 33
0.0
 40
0.0
 40
0.0
 40
0.0
 40
0.0
 40
1.0
 40
1.0
 40
1.0
 40
1.0
 10
49.99158018231802
 20
-167.6800672159413
 30
0.0
 10
49.16361018231797
 20
-167.6800672159413
 30
0.0
 10
48.49156893231797
 20
-167.0083784659413
 30
0.0
 10
48.49156893231797
 20
-166.1800559659412
 30
0.0
  0
LWPOLYLINE
  5
343D
330
34C5
100
AcDbEntity
  8
CUTS
 62
     1
420
 16711680
370
    25
100
AcDbPolyline
 90
        3
 70
     0
 43
0.0
 10
32.59504893231796
 20
-171.9299809659413
 10
33.47840518231792
 20
-171.0466259659412
 10
34.36105518204747
 20
-171.9299809659413
  0
SPLINE
  5
343E
330
34C5
100
AcDbEntity
  8
CUTS
 62
     1
420
 16711680
370
    25
100
AcDbSpline
210
0.0
220
0.0
230
1.0
 70
     8
 71
     3
 72
     8
 73
     4
 74
     0
 42
0.000000001
 43
0.001
 12
1.0
 22
0.0
 32
0.0
 13
1.0
 23
0.0
 33
0.0
 40
0.0
 40
0.0
 40
0.0
 40
0.0
 40
1.0
 40
1.0
 40
1.0
 40
1.0
 10
17.49157393231796
 20
-166.1800559659412
 30
0.0
 10
17.49157393231796
 20
-165.3513809659413
 30
0.0
 10
18.16291018231792
 20
-164.6800447159412
 30
0.0
 10
18.99158518231801
 20
-164.6800447159412
 30
0.0
  0
SPLINE
  5
343F
330
34C5
100
AcDbEntity
  8
CUTS
 62
     1
420
 16711680
370
    25
100
AcDbSpline
210
0.0
220
0.0
230
1.0
 70
     8
 71
     3
 72
     8
 73
     4
 74
     0
 42
0.000000001
 43
0.001
 12
1.0
 22
0.0
 32
0.0
 13
1.0
 23
0.0
 33
0.0
 40
0.0
 40
0.0
 40
0.0
 40
0.0
 40
1.0
 40
1.0
 40
1.0
 40
1.0
 10
18.99158518231801
 20
-164.6800447159412
 30
0.0
 10
19.81990768231802
 20
-164.6800447159411
 30
0.0
 10
20.49124393231799
 20
-165.3513809659414
 30
0.0
 10
20.49124393231799
 20
-166.1800559659412
 30
0.0
  0
SPLINE
  5
3440
330
34C5
100
AcDbEntity
  8
CUTS
 62
     1
420
 16711680
370
    25
100
AcDbSpline
210
0.0
220
0.0
230
1.0
 70
     8
 71
     3
 72
     8
 73
     4
 74
     0
 42
0.000000001
 43
0.001
 12
1.0
 22
0.0
 32
0.0
 13
1.0
 23
0.0
 33
0.0
 40
0.0
 40
0.0
 40
0.0
 40
0.0
 40
1.0
 40
1.0
 40
1.0
 40
1.0
 10
20.49124393231799
 20
-166.1800559659412
 30
0.0
 10
20.49124393231799
 20
-167.0083784659413
 30
0.0
 10
19.81990768231802
 20
-167.6800672159413
 30
0.0
 10
18.99158518231801
 20
-167.6800672159412
 30
0.0
  0
SPLINE
  5
3441
330
34C5
100
AcDbEntity
  8
CUTS
 62
     1
420
 16711680
370
    25
100
AcDbSpline
210
0.0
220
0.0
230
1.0
 70
     8
 71
     3
 72
     8
 73
     4
 74
     0
 42
0.000000001
 43
0.001
 12
1.0
 22
0.0
 32
0.0
 13
1.0
 23
0.0
 33
0.0
 40
0.0
 40
0.0
 40
0.0
 40
0.0
 40
1.0
 40
1.0
 40
1.0
 40
1.0
 10
18.99158518231801
 20
-167.6800672159412
 30
0.0
 10
18.16326268231811
 20
-167.6800672159412
 30
0.0
 10
17.49157393231796
 20
-167.0083784659413
 30
0.0
 10
17.49157393231796
 20
-166.1800559659412
 30
0.0
  0
SPLINE
  5
3442
330
34C5
100
AcDbEntity
  8
CUTS
 62
     1
420
 16711680
370
    25
100
AcDbSpline
210
0.0
220
0.0
230
1.0
 70
     8
 71
     3
 72
     8
 73
     4
 74
     0
 42
0.000000001
 43
0.001
 12
1.0
 22
0.0
 32
0.0
 13
1.0
 23
0.0
 33
0.0
 40
0.0
 40
0.0
 40
0.0
 40
0.0
 40
1.0
 40
1.0
 40
1.0
 40
1.0
 10
48.49156893231797
 20
-135.1800622159413
 30
0.0
 10
48.49156893231797
 20
-134.3513872159412
 30
0.0
 10
49.16361018231797
 20
-133.6800509659412
 30
0.0
 10
49.99158018231802
 20
-133.6800509659412
 30
0.0
  0
SPLINE
  5
3443
330
34C5
100
AcDbEntity
  8
CUTS
 62
     1
420
 16711680
370
    25
100
AcDbSpline
210
0.0
220
0.0
230
1.0
 70
     8
 71
     3
 72
     8
 73
     4
 74
     0
 42
0.000000001
 43
0.001
 12
1.0
 22
0.0
 32
0.0
 13
1.0
 23
0.0
 33
0.0
 40
0.0
 40
0.0
 40
0.0
 40
0.0
 40
1.0
 40
1.0
 40
1.0
 40
1.0
 10
49.99158018231802
 20
-133.6800509659412
 30
0.0
 10
50.81990143231796
 20
-133.6800509659412
 30
0.0
 10
51.49159143231797
 20
-134.3513872159412
 30
0.0
 10
51.49159143231797
 20
-135.1800622159413
 30
0.0
  0
SPLINE
  5
3444
330
34C5
100
AcDbEntity
  8
CUTS
 62
     1
420
 16711680
370
    25
100
AcDbSpline
210
0.0
220
0.0
230
1.0
 70
     8
 71
     3
 72
     8
 73
     4
 74
     0
 42
0.000000001
 43
0.001
 12
1.0
 22
0.0
 32
0.0
 13
1.0
 23
0.0
 33
0.0
 40
0.0
 40
0.0
 40
0.0
 40
0.0
 40
1.0
 40
1.0
 40
1.0
 40
1.0
 10
51.49159143231797
 20
-135.1800622159413
 30
0.0
 10
51.49159143231797
 20
-136.0080309659412
 30
0.0
 10
50.81990143231796
 20
-136.6800722159412
 30
0.0
 10
49.99158018231802
 20
-136.6800722159412
 30
0.0
  0
SPLINE
  5
3445
330
34C5
100
AcDbEntity
  8
CUTS
 62
     1
420
 16711680
370
    25
100
AcDbSpline
210
0.0
220
0.0
230
1.0
 70
     8
 71
     3
 72
     8
 73
     4
 74
     0
 42
0.000000001
 43
0.001
 12
1.0
 22
0.0
 32
0.0
 13
1.0
 23
0.0
 33
0.0
 40
0.0
 40
0.0
 40
0.0
 40
0.0
 40
1.0
 40
1.0
 40
1.0
 40
1.0
 10
49.99158018231802
 20
-136.6800722159412
 30
0.0
 10
49.16361018231797
 20
-136.6800722159412
 30
0.0
 10
48.49156893231797
 20
-136.0080309659412
 30
0.0
 10
48.49156893231797
 20
-135.1800622159413
 30
0.0
  0
SPLINE
  5
3446
330
34C5
100
AcDbEntity
  8
CUTS
 62
     1
420
 16711680
370
    25
100
AcDbSpline
210
0.0
220
0.0
230
1.0
 70
     8
 71
     3
 72
     8
 73
     4
 74
     0
 42
0.000000001
 43
0.001
 12
1.0
 22
0.0
 32
0.0
 13
1.0
 23
0.0
 33
0.0
 40
0.0
 40
0.0
 40
0.0
 40
0.0
 40
1.0
 40
1.0
 40
1.0
 40
1.0
 10
17.49157393231796
 20
-135.1800622159413
 30
0.0
 10
17.49157393231796
 20
-134.3513872159412
 30
0.0
 10
18.16291018231792
 20
-133.6800509659412
 30
0.0
 10
18.99158518231801
 20
-133.6800509659412
 30
0.0
  0
SPLINE
  5
3447
330
34C5
100
AcDbEntity
  8
CUTS
 62
     1
420
 16711680
370
    25
100
AcDbSpline
210
0.0
220
0.0
230
1.0
 70
     8
 71
     3
 72
     8
 73
     4
 74
     0
 42
0.000000001
 43
0.001
 12
1.0
 22
0.0
 32
0.0
 13
1.0
 23
0.0
 33
0.0
 40
0.0
 40
0.0
 40
0.0
 40
0.0
 40
1.0
 40
1.0
 40
1.0
 40
1.0
 10
18.99158518231801
 20
-133.6800509659412
 30
0.0
 10
19.81990768231802
 20
-133.6800509659412
 30
0.0
 10
20.49124393231799
 20
-134.3513872159412
 30
0.0
 10
20.49124393231799
 20
-135.1800622159413
 30
0.0
  0
SPLINE
  5
3448
330
34C5
100
AcDbEntity
  8
CUTS
 62
     1
420
 16711680
370
    25
100
AcDbSpline
210
0.0
220
0.0
230
1.0
 70
     8
 71
     3
 72
     8
 73
     4
 74
     0
 42
0.000000001
 43
0.001
 12
1.0
 22
0.0
 32
0.0
 13
1.0
 23
0.0
 33
0.0
 40
0.0
 40
0.0
 40
0.0
 40
0.0
 40
1.0
 40
1.0
 40
1.0
 40
1.0
 10
20.49124393231799
 20
-135.1800622159413
 30
0.0
 10
20.49124393231799
 20
-136.0080309659412
 30
0.0
 10
19.81990768231802
 20
-136.6800722159412
 30
0.0
 10
18.99158518231801
 20
-136.6800722159412
 30
0.0
  0
SPLINE
  5
3449
330
34C5
100
AcDbEntity
  8
CUTS
 62
     1
420
 16711680
370
    25
100
AcDbSpline
210
0.0
220
0.0
230
1.0
 70
     8
 71
     3
 72
     8
 73
     4
 74
     0
 42
0.000000001
 43
0.001
 12
1.0
 22
0.0
 32
0.0
 13
1.0
 23
0.0
 33
0.0
 40
0.0
 40
0.0
 40
0.0
 40
0.0
 40
1.0
 40
1.0
 40
1.0
 40
1.0
 10
18.99158518231801
 20
-136.6800722159412
 30
0.0
 10
18.16326268231811
 20
-136.6800722159412
 30
0.0
 10
17.49157393231796
 20
-136.0080309659412
 30
0.0
 10
17.49157393231796
 20
-135.1800622159413
 30
0.0
  0
SPLINE
  5
344A
330
34C5
100
AcDbEntity
  8
CUTS
 62
     1
420
 16711680
370
    25
100
AcDbSpline
210
0.0
220
0.0
230
1.0
 70
     8
 71
     3
 72
     8
 73
     4
 74
     0
 42
0.000000001
 43
0.001
 12
1.0
 22
0.0
 32
0.0
 13
1.0
 23
0.0
 33
0.0
 40
0.0
 40
0.0
 40
0.0
 40
0.0
 40
1.0
 40
1.0
 40
1.0
 40
1.0
 10
51.74135768231796
 20
-130.9294422159413
 30
0.0
 10
53.95045143231804
 20
-130.9294422159412
 30
0.0
 10
55.74115143231794
 20
-129.1387422159411
 30
0.0
 10
55.74115143231794
 20
-126.9292947159413
 30
0.0
  0
SPLINE
  5
344B
330
34C5
100
AcDbEntity
  8
CUTS
 62
     1
420
 16711680
370
    25
100
AcDbSpline
210
0.0
220
0.0
230
1.0
 70
     8
 71
     3
 72
     8
 73
     4
 74
     0
 42
0.000000001
 43
0.001
 12
1.0
 22
0.0
 32
0.0
 13
1.0
 23
0.0
 33
0.0
 40
0.0
 40
0.0
 40
0.0
 40
0.0
 40
1.0
 40
1.0
 40
1.0
 40
1.0
 10
55.74115143231794
 20
-93.92905096594123
 30
0.0
 10
55.74115143231794
 20
-91.7199559659412
 30
0.0
 10
53.95045143231804
 20
-89.92890346594133
 30
0.0
 10
51.74135768231796
 20
-89.92890346594132
 30
0.0
  0
LWPOLYLINE
  5
344C
330
34C5
100
AcDbEntity
  8
CUTS
 62
     1
420
 16711680
370
    25
100
AcDbPolyline
 90
        2
 70
     0
 43
0.0
 10
55.74115143231794
 20
-126.9292947159413
 10
55.74115143231794
 20
-93.92905096594123
  0
SPLINE
  5
344D
330
34C5
100
AcDbEntity
  8
CUTS
 62
     1
420
 16711680
370
    25
100
AcDbSpline
210
0.0
220
0.0
230
1.0
 70
     8
 71
     3
 72
     8
 73
     4
 74
     0
 42
0.000000001
 43
0.001
 12
1.0
 22
0.0
 32
0.0
 13
1.0
 23
0.0
 33
0.0
 40
0.0
 40
0.0
 40
0.0
 40
0.0
 40
1.0
 40
1.0
 40
1.0
 40
1.0
 10
17.24110143231807
 20
-89.92890346594132
 30
0.0
 10
15.07575143231808
 20
-89.92890346594132
 30
0.0
 10
13.31680143231794
 20
-91.65081221594122
 30
0.0
 10
13.24801018231793
 20
-93.79958096594126
 30
0.0
  0
SPLINE
  5
344E
330
34C5
100
AcDbEntity
  8
CUTS
 62
     1
420
 16711680
370
    25
100
AcDbSpline
210
0.0
220
0.0
230
1.0
 70
     8
 71
     3
 72
     8
 73
     4
 74
     0
 42
0.000000001
 43
0.001
 12
1.0
 22
0.0
 32
0.0
 13
1.0
 23
0.0
 33
0.0
 40
0.0
 40
0.0
 40
0.0
 40
0.0
 40
1.0
 40
1.0
 40
1.0
 40
1.0
 10
13.24801018231793
 20
-93.79958096594126
 30
0.0
 10
13.26423768231795
 20
-94.39048346594123
 30
0.0
 10
13.407466432318
 20
-94.94928346594125
 30
0.0
 10
13.65299893231796
 20
-95.44916971594117
 30
0.0
  0
LWPOLYLINE
  5
344F
330
34C5
100
AcDbEntity
  8
CUTS
 62
     1
420
 16711680
370
    25
100
AcDbPolyline
 90
        2
 70
     0
 43
0.0
 10
51.74135768231796
 20
-89.92890346594132
 10
17.24110143231807
 20
-89.92890346594132
  0
SPLINE
  5
3450
330
34C5
100
AcDbEntity
  8
CUTS
 62
     1
420
 16711680
370
    25
100
AcDbSpline
210
0.0
220
0.0
230
1.0
 70
     8
 71
     3
 72
     8
 73
     4
 74
     0
 42
0.000000001
 43
0.001
 12
1.0
 22
0.0
 32
0.0
 13
1.0
 23
0.0
 33
0.0
 40
0.0
 40
0.0
 40
0.0
 40
0.0
 40
1.0
 40
1.0
 40
1.0
 40
1.0
 10
33.49039893231814
 20
-97.6794309659413
 30
0.0
 10
40.11838768231807
 20
-97.6794309659413
 30
0.0
 10
45.49119393231801
 20
-103.0518834659412
 30
0.0
 10
45.49119393231801
 20
-109.6795197159412
 30
0.0
  0
SPLINE
  5
3451
330
34C5
100
AcDbEntity
  8
CUTS
 62
     1
420
 16711680
370
    25
100
AcDbSpline
210
0.0
220
0.0
230
1.0
 70
     8
 71
     3
 72
     8
 73
     4
 74
     0
 42
0.000000001
 43
0.001
 12
1.0
 22
0.0
 32
0.0
 13
1.0
 23
0.0
 33
0.0
 40
0.0
 40
0.0
 40
0.0
 40
0.0
 40
1.0
 40
1.0
 40
1.0
 40
1.0
 10
45.49119393231801
 20
-109.6795197159412
 30
0.0
 10
45.49119393231801
 20
-116.3068034659413
 30
0.0
 10
40.11838768231807
 20
-121.6792559659412
 30
0.0
 10
33.49039893231808
 20
-121.6792559659412
 30
0.0
  0
LWPOLYLINE
  5
3452
330
34C5
100
AcDbEntity
  8
CUTS
 62
     1
420
 16711680
370
    25
100
AcDbPolyline
 90
        3
 70
     0
 43
0.0
 10
13.65299893231796
 20
-95.44916971594117
 10
25.27949643231799
 20
-97.68436971594124
 10
33.49039893231814
 20
-97.6794309659413
  0
SPLINE
  5
3453
330
34C5
100
AcDbEntity
  8
CUTS
 62
     1
420
 16711680
370
    25
100
AcDbSpline
210
0.0
220
0.0
230
1.0
 70
     8
 71
     3
 72
     8
 73
     4
 74
     0
 42
0.000000001
 43
0.001
 12
1.0
 22
0.0
 32
0.0
 13
1.0
 23
0.0
 33
0.0
 40
0.0
 40
0.0
 40
0.0
 40
0.0
 40
1.0
 40
1.0
 40
1.0
 40
1.0
 10
13.65546893231798
 20
-123.9084584659412
 30
0.0
 10
13.39264893231806
 20
-124.4415059659412
 30
0.0
 10
13.24130768231797
 20
-125.0391122159413
 30
0.0
 10
13.24130768231797
 20
-125.6730534659413
 30
0.0
  0
LWPOLYLINE
  5
3454
330
34C5
100
AcDbEntity
  8
CUTS
 62
     1
420
 16711680
370
    25
100
AcDbPolyline
 90
        3
 70
     0
 43
0.0
 10
33.49039893231808
 20
-121.6792559659412
 10
25.26926643231801
 20
-121.6757284659413
 10
13.65546893231798
 20
-123.9084584659412
  0
SPLINE
  5
3455
330
34C5
100
AcDbEntity
  8
CUTS
 62
     1
420
 16711680
370
    25
100
AcDbSpline
210
0.0
220
0.0
230
1.0
 70
     8
 71
     3
 72
     8
 73
     4
 74
     0
 42
0.000000001
 43
0.001
 12
1.0
 22
0.0
 32
0.0
 13
1.0
 23
0.0
 33
0.0
 40
0.0
 40
0.0
 40
0.0
 40
0.0
 40
1.0
 40
1.0
 40
1.0
 40
1.0
 10
13.24130768231798
 20
-208.9289622159412
 30
0.0
 10
13.24130768231798
 20
-211.1384097159411
 30
0.0
 10
15.03130143231799
 20
-212.9291097159411
 30
0.0
 10
17.24110143231808
 20
-212.9291097159411
 30
0.0
  0
SPLINE
  5
3456
330
34C5
100
AcDbEntity
  8
CUTS
 62
     1
420
 16711680
370
    25
100
AcDbSpline
210
0.0
220
0.0
230
1.0
 70
     8
 71
     3
 72
     8
 73
     4
 74
     0
 42
0.000000001
 43
0.001
 12
1.0
 22
0.0
 32
0.0
 13
1.0
 23
0.0
 33
0.0
 40
0.0
 40
0.0
 40
0.0
 40
0.0
 40
1.0
 40
1.0
 40
1.0
 40
1.0
 10
51.74135768231797
 20
-253.9296484659412
 30
0.0
 10
53.95045143231805
 20
-253.9296484659412
 30
0.0
 10
55.74115143231795
 20
-252.1385947159412
 30
0.0
 10
55.74115143231795
 20
-249.9295009659411
 30
0.0
  0
LWPOLYLINE
  5
3457
330
34C5
100
AcDbEntity
  8
CUTS
 62
     1
420
 16711680
370
    25
100
AcDbPolyline
 90
        2
 70
     0
 43
0.0
 10
13.24130768231798
 20
-207.6734259659412
 10
13.24130768231798
 20
-208.9289622159412
  0
SPLINE
  5
3458
330
34C5
100
AcDbEntity
  8
CUTS
 62
     1
420
 16711680
370
    25
100
AcDbSpline
210
0.0
220
0.0
230
1.0
 70
     8
 71
     3
 72
     8
 73
     4
 74
     0
 42
0.000000001
 43
0.001
 12
1.0
 22
0.0
 32
0.0
 13
1.0
 23
0.0
 33
0.0
 40
0.0
 40
0.0
 40
0.0
 40
0.0
 40
1.0
 40
1.0
 40
1.0
 40
1.0
 10
55.74115143231795
 20
-216.9292559659411
 30
0.0
 10
55.74115143231795
 20
-214.7201622159412
 30
0.0
 10
53.95045143231805
 20
-212.9291097159411
 30
0.0
 10
51.74135768231797
 20
-212.9291097159411
 30
0.0
  0
LWPOLYLINE
  5
3459
330
34C5
100
AcDbEntity
  8
CUTS
 62
     1
420
 16711680
370
    25
100
AcDbPolyline
 90
        2
 70
     0
 43
0.0
 10
55.74115143231795
 20
-249.9295009659411
 10
55.74115143231795
 20
-216.9292559659411
  0
SPLINE
  5
345A
330
34C5
100
AcDbEntity
  8
CUTS
 62
     1
420
 16711680
370
    25
100
AcDbSpline
210
0.0
220
0.0
230
1.0
 70
     8
 71
     3
 72
     8
 73
     4
 74
     0
 42
0.000000001
 43
0.001
 12
1.0
 22
0.0
 32
0.0
 13
1.0
 23
0.0
 33
0.0
 40
0.0
 40
0.0
 40
0.0
 40
0.0
 40
1.0
 40
1.0
 40
1.0
 40
1.0
 10
17.24110143231808
 20
-212.9291097159411
 30
0.0
 10
15.07575143231809
 20
-212.9291097159411
 30
0.0
 10
13.31680143231794
 20
-214.6510172159412
 30
0.0
 10
13.24801018231794
 20
-216.7997872159412
 30
0.0
  0
SPLINE
  5
345B
330
34C5
100
AcDbEntity
  8
CUTS
 62
     1
420
 16711680
370
    25
100
AcDbSpline
210
0.0
220
0.0
230
1.0
 70
     8
 71
     3
 72
     8
 73
     4
 74
     0
 42
0.000000001
 43
0.001
 12
1.0
 22
0.0
 32
0.0
 13
1.0
 23
0.0
 33
0.0
 40
0.0
 40
0.0
 40
0.0
 40
0.0
 40
1.0
 40
1.0
 40
1.0
 40
1.0
 10
13.24801018231794
 20
-216.7997872159412
 30
0.0
 10
13.26423768231795
 20
-217.3903372159411
 30
0.0
 10
13.407466432318
 20
-217.9491372159411
 30
0.0
 10
13.65299893231797
 20
-218.4490234659411
 30
0.0
  0
LWPOLYLINE
  5
345C
330
34C5
100
AcDbEntity
  8
CUTS
 62
     1
420
 16711680
370
    25
100
AcDbPolyline
 90
        2
 70
     0
 43
0.0
 10
51.74135768231797
 20
-212.9291097159411
 10
17.24110143231808
 20
-212.9291097159411
  0
SPLINE
  5
345D
330
34C5
100
AcDbEntity
  8
CUTS
 62
     1
420
 16711680
370
    25
100
AcDbSpline
210
0.0
220
0.0
230
1.0
 70
     8
 71
     3
 72
     8
 73
     4
 74
     0
 42
0.000000001
 43
0.001
 12
1.0
 22
0.0
 32
0.0
 13
1.0
 23
0.0
 33
0.0
 40
0.0
 40
0.0
 40
0.0
 40
0.0
 40
1.0
 40
1.0
 40
1.0
 40
1.0
 10
33.49039893231809
 20
-220.6792847159411
 30
0.0
 10
40.11838768231807
 20
-220.6792847159411
 30
0.0
 10
45.49119393231801
 20
-226.0517372159411
 30
0.0
 10
45.49119393231801
 20
-232.6793734659411
 30
0.0
  0
SPLINE
  5
345E
330
34C5
100
AcDbEntity
  8
CUTS
 62
     1
420
 16711680
370
    25
100
AcDbSpline
210
0.0
220
0.0
230
1.0
 70
     8
 71
     3
 72
     8
 73
     4
 74
     0
 42
0.000000001
 43
0.001
 12
1.0
 22
0.0
 32
0.0
 13
1.0
 23
0.0
 33
0.0
 40
0.0
 40
0.0
 40
0.0
 40
0.0
 40
1.0
 40
1.0
 40
1.0
 40
1.0
 10
45.49119393231801
 20
-232.6793734659411
 30
0.0
 10
45.49119393231801
 20
-239.3066559659411
 30
0.0
 10
40.11838768231807
 20
-244.6794622159412
 30
0.0
 10
33.4903989323182
 20
-244.6794622159412
 30
0.0
  0
LWPOLYLINE
  5
345F
330
34C5
100
AcDbEntity
  8
CUTS
 62
     1
420
 16711680
370
    25
100
AcDbPolyline
 90
        3
 70
     0
 43
0.0
 10
13.65299893231797
 20
-218.4490234659411
 10
25.279496432318
 20
-220.6842234659412
 10
33.49039893231809
 20
-220.6792847159411
  0
SPLINE
  5
3460
330
34C5
100
AcDbEntity
  8
CUTS
 62
     1
420
 16711680
370
    25
100
AcDbSpline
210
0.0
220
0.0
230
1.0
 70
     8
 71
     3
 72
     8
 73
     4
 74
     0
 42
0.000000001
 43
0.001
 12
1.0
 22
0.0
 32
0.0
 13
1.0
 23
0.0
 33
0.0
 40
0.0
 40
0.0
 40
0.0
 40
0.0
 40
1.0
 40
1.0
 40
1.0
 40
1.0
 10
13.65546893231804
 20
-246.9086647159413
 30
0.0
 10
13.39264893231807
 20
-247.4417122159412
 30
0.0
 10
13.24130768231798
 20
-248.0389647159411
 30
0.0
 10
13.24130768231798
 20
-248.6732597159411
 30
0.0
  0
LWPOLYLINE
  5
3461
330
34C5
100
AcDbEntity
  8
CUTS
 62
     1
420
 16711680
370
    25
100
AcDbPolyline
 90
        3
 70
     0
 43
0.0
 10
33.4903989323182
 20
-244.6794622159412
 10
25.26926643231802
 20
-244.6759347159412
 10
13.65546893231804
 20
-246.9086647159413
  0
SPLINE
  5
3462
330
34C5
100
AcDbEntity
  8
CUTS
 62
     1
420
 16711680
370
    25
100
AcDbSpline
210
0.0
220
0.0
230
1.0
 70
     8
 71
     3
 72
     8
 73
     4
 74
     0
 42
0.000000001
 43
0.001
 12
1.0
 22
0.0
 32
0.0
 13
1.0
 23
0.0
 33
0.0
 40
0.0
 40
0.0
 40
0.0
 40
0.0
 40
1.0
 40
1.0
 40
1.0
 40
1.0
 10
13.24130768231798
 20
-249.9287947159411
 30
0.0
 10
13.24130768231798
 20
-252.1378897159411
 30
0.0
 10
15.03130143231799
 20
-253.9289422159413
 30
0.0
 10
17.24110143231808
 20
-253.9289422159413
 30
0.0
  0
LWPOLYLINE
  5
3463
330
34C5
100
AcDbEntity
  8
CUTS
 62
     1
420
 16711680
370
    25
100
AcDbPolyline
 90
        2
 70
     0
 43
0.0
 10
13.24130768231798
 20
-248.6732597159411
 10
13.24130768231798
 20
-249.9287947159411
  0
LINE
  5
3468
330
34C5
100
AcDbEntity
  8
CUTS
100
AcDbLine
 10
34.36105518204748
 20
-253.9303534659412
 30
0.0
 11
51.74135768231797
 21
-253.9296484659412
 31
0.0
  0
LINE
  5
3469
330
34C5
100
AcDbEntity
  8
CUTS
100
AcDbLine
 10
32.59504893231797
 20
-253.9303534659412
 30
0.0
 11
17.24110143231808
 21
-253.9289422159413
 31
0.0
  0
SPLINE
  5
347A
330
34C5
100
AcDbEntity
  8
CUTS
 62
     1
420
 16711680
370
    25
100
AcDbSpline
210
0.0
220
0.0
230
1.0
 70
     8
 71
     3
 72
     8
 73
     4
 74
     0
 42
0.000000001
 43
0.001
 12
1.0
 22
0.0
 32
0.0
 13
1.0
 23
0.0
 33
0.0
 40
0.0
 40
0.0
 40
0.0
 40
0.0
 40
1.0
 40
1.0
 40
1.0
 40
1.0
 10
48.49156893231797
 20
-207.1798897159411
 30
0.0
 10
48.49156893231797
 20
-206.3512147159412
 30
0.0
 10
49.16361018231798
 20
-205.679878465941
 30
0.0
 10
49.99158018231803
 20
-205.679878465941
 30
0.0
  0
SPLINE
  5
347B
330
34C5
100
AcDbEntity
  8
CUTS
 62
     1
420
 16711680
370
    25
100
AcDbSpline
210
0.0
220
0.0
230
1.0
 70
     8
 71
     3
 72
     8
 73
     4
 74
     0
 42
0.000000001
 43
0.001
 12
1.0
 22
0.0
 32
0.0
 13
1.0
 23
0.0
 33
0.0
 40
0.0
 40
0.0
 40
0.0
 40
0.0
 40
1.0
 40
1.0
 40
1.0
 40
1.0
 10
49.99158018231803
 20
-205.679878465941
 30
0.0
 10
50.81990143231796
 20
-205.679878465941
 30
0.0
 10
51.49159143231797
 20
-206.3512147159412
 30
0.0
 10
51.49159143231797
 20
-207.1798897159411
 30
0.0
  0
SPLINE
  5
347C
330
34C5
100
AcDbEntity
  8
CUTS
 62
     1
420
 16711680
370
    25
100
AcDbSpline
210
0.0
220
0.0
230
1.0
 70
     8
 71
     3
 72
     8
 73
     4
 74
     0
 42
0.000000001
 43
0.001
 12
1.0
 22
0.0
 32
0.0
 13
1.0
 23
0.0
 33
0.0
 40
0.0
 40
0.0
 40
0.0
 40
0.0
 40
1.0
 40
1.0
 40
1.0
 40
1.0
 10
51.49159143231797
 20
-207.1798897159411
 30
0.0
 10
51.49159143231797
 20
-208.0085647159412
 30
0.0
 10
50.81990143231796
 20
-208.6799009659411
 30
0.0
 10
49.99158018231803
 20
-208.6799009659411
 30
0.0
  0
SPLINE
  5
347D
330
34C5
100
AcDbEntity
  8
CUTS
 62
     1
420
 16711680
370
    25
100
AcDbSpline
210
0.0
220
0.0
230
1.0
 70
     8
 71
     3
 72
     8
 73
     4
 74
     0
 42
0.000000001
 43
0.001
 12
1.0
 22
0.0
 32
0.0
 13
1.0
 23
0.0
 33
0.0
 40
0.0
 40
0.0
 40
0.0
 40
0.0
 40
1.0
 40
1.0
 40
1.0
 40
1.0
 10
49.99158018231803
 20
-208.6799009659411
 30
0.0
 10
49.16361018231798
 20
-208.6799009659411
 30
0.0
 10
48.49156893231797
 20
-208.0085647159412
 30
0.0
 10
48.49156893231797
 20
-207.1798897159411
 30
0.0
  0
LWPOLYLINE
  5
347E
330
34C5
100
AcDbEntity
  8
CUTS
 62
     1
420
 16711680
370
    25
100
AcDbPolyline
 90
        3
 70
     0
 43
0.0
 10
32.59504893231797
 20
-212.9298147159411
 10
33.47840518231799
 20
-212.0464597159412
 10
34.361055182318
 20
-212.9298147159411
  0
SPLINE
  5
347F
330
34C5
100
AcDbEntity
  8
CUTS
 62
     1
420
 16711680
370
    25
100
AcDbSpline
210
0.0
220
0.0
230
1.0
 70
     8
 71
     3
 72
     8
 73
     4
 74
     0
 42
0.000000001
 43
0.001
 12
1.0
 22
0.0
 32
0.0
 13
1.0
 23
0.0
 33
0.0
 40
0.0
 40
0.0
 40
0.0
 40
0.0
 40
1.0
 40
1.0
 40
1.0
 40
1.0
 10
17.49157393231796
 20
-207.1798897159411
 30
0.0
 10
17.49157393231796
 20
-206.3512147159412
 30
0.0
 10
18.16291018231793
 20
-205.679878465941
 30
0.0
 10
18.99158518231802
 20
-205.679878465941
 30
0.0
  0
SPLINE
  5
3480
330
34C5
100
AcDbEntity
  8
CUTS
 62
     1
420
 16711680
370
    25
100
AcDbSpline
210
0.0
220
0.0
230
1.0
 70
     8
 71
     3
 72
     8
 73
     4
 74
     0
 42
0.000000001
 43
0.001
 12
1.0
 22
0.0
 32
0.0
 13
1.0
 23
0.0
 33
0.0
 40
0.0
 40
0.0
 40
0.0
 40
0.0
 40
1.0
 40
1.0
 40
1.0
 40
1.0
 10
18.99158518231802
 20
-205.679878465941
 30
0.0
 10
19.81990768231803
 20
-205.679878465941
 30
0.0
 10
20.491243932318
 20
-206.3512147159412
 30
0.0
 10
20.491243932318
 20
-207.1798897159411
 30
0.0
  0
SPLINE
  5
3481
330
34C5
100
AcDbEntity
  8
CUTS
 62
     1
420
 16711680
370
    25
100
AcDbSpline
210
0.0
220
0.0
230
1.0
 70
     8
 71
     3
 72
     8
 73
     4
 74
     0
 42
0.000000001
 43
0.001
 12
1.0
 22
0.0
 32
0.0
 13
1.0
 23
0.0
 33
0.0
 40
0.0
 40
0.0
 40
0.0
 40
0.0
 40
1.0
 40
1.0
 40
1.0
 40
1.0
 10
20.491243932318
 20
-207.1798897159411
 30
0.0
 10
20.491243932318
 20
-208.0085647159412
 30
0.0
 10
19.81990768231803
 20
-208.6799009659411
 30
0.0
 10
18.99158518231802
 20
-208.6799009659411
 30
0.0
  0
SPLINE
  5
3482
330
34C5
100
AcDbEntity
  8
CUTS
 62
     1
420
 16711680
370
    25
100
AcDbSpline
210
0.0
220
0.0
230
1.0
 70
     8
 71
     3
 72
     8
 73
     4
 74
     0
 42
0.000000001
 43
0.001
 12
1.0
 22
0.0
 32
0.0
 13
1.0
 23
0.0
 33
0.0
 40
0.0
 40
0.0
 40
0.0
 40
0.0
 40
1.0
 40
1.0
 40
1.0
 40
1.0
 10
18.99158518231802
 20
-208.6799009659411
 30
0.0
 10
18.16326268231812
 20
-208.6799009659411
 30
0.0
 10
17.49157393231796
 20
-208.0085647159412
 30
0.0
 10
17.49157393231796
 20
-207.1798897159411
 30
0.0
  0
SPLINE
  5
3483
330
34C5
100
AcDbEntity
  8
CUTS
 62
     1
420
 16711680
370
    25
100
AcDbSpline
210
0.0
220
0.0
230
1.0
 70
     8
 71
     3
 72
     8
 73
     4
 74
     0
 42
0.000000001
 43
0.001
 12
1.0
 22
0.0
 32
0.0
 13
1.0
 23
0.0
 33
0.0
 40
0.0
 40
0.0
 40
0.0
 40
0.0
 40
1.0
 40
1.0
 40
1.0
 40
1.0
 10
48.49156893231797
 20
-176.1798947159412
 30
0.0
 10
48.49156893231797
 20
-175.3512197159411
 30
0.0
 10
49.16361018231798
 20
-174.6798847159411
 30
0.0
 10
49.99158018231803
 20
-174.6798847159411
 30
0.0
  0
SPLINE
  5
3484
330
34C5
100
AcDbEntity
  8
CUTS
 62
     1
420
 16711680
370
    25
100
AcDbSpline
210
0.0
220
0.0
230
1.0
 70
     8
 71
     3
 72
     8
 73
     4
 74
     0
 42
0.000000001
 43
0.001
 12
1.0
 22
0.0
 32
0.0
 13
1.0
 23
0.0
 33
0.0
 40
0.0
 40
0.0
 40
0.0
 40
0.0
 40
1.0
 40
1.0
 40
1.0
 40
1.0
 10
49.99158018231803
 20
-174.6798847159411
 30
0.0
 10
50.81990143231802
 20
-174.6798847159411
 30
0.0
 10
51.49159143231803
 20
-175.3512197159411
 30
0.0
 10
51.49159143231797
 20
-176.1798947159412
 30
0.0
  0
SPLINE
  5
3485
330
34C5
100
AcDbEntity
  8
CUTS
 62
     1
420
 16711680
370
    25
100
AcDbSpline
210
0.0
220
0.0
230
1.0
 70
     8
 71
     3
 72
     8
 73
     4
 74
     0
 42
0.000000001
 43
0.001
 12
1.0
 22
0.0
 32
0.0
 13
1.0
 23
0.0
 33
0.0
 40
0.0
 40
0.0
 40
0.0
 40
0.0
 40
1.0
 40
1.0
 40
1.0
 40
1.0
 10
51.49159143231797
 20
-176.1798947159412
 30
0.0
 10
51.49159143231803
 20
-177.0082172159411
 30
0.0
 10
50.81990143231796
 20
-177.6799059659413
 30
0.0
 10
49.99158018231803
 20
-177.6799059659412
 30
0.0
  0
SPLINE
  5
3486
330
34C5
100
AcDbEntity
  8
CUTS
 62
     1
420
 16711680
370
    25
100
AcDbSpline
210
0.0
220
0.0
230
1.0
 70
     8
 71
     3
 72
     8
 73
     4
 74
     0
 42
0.000000001
 43
0.001
 12
1.0
 22
0.0
 32
0.0
 13
1.0
 23
0.0
 33
0.0
 40
0.0
 40
0.0
 40
0.0
 40
0.0
 40
1.0
 40
1.0
 40
1.0
 40
1.0
 10
49.99158018231803
 20
-177.6799059659412
 30
0.0
 10
49.16361018231804
 20
-177.6799059659413
 30
0.0
 10
48.49156893231797
 20
-177.0082172159411
 30
0.0
 10
48.49156893231797
 20
-176.1798947159412
 30
0.0
  0
SPLINE
  5
3487
330
34C5
100
AcDbEntity
  8
CUTS
 62
     1
420
 16711680
370
    25
100
AcDbSpline
210
0.0
220
0.0
230
1.0
 70
     8
 71
     3
 72
     8
 73
     4
 74
     0
 42
0.000000001
 43
0.001
 12
1.0
 22
0.0
 32
0.0
 13
1.0
 23
0.0
 33
0.0
 40
0.0
 40
0.0
 40
0.0
 40
0.0
 40
1.0
 40
1.0
 40
1.0
 40
1.0
 10
17.49157393231796
 20
-176.1798947159412
 30
0.0
 10
17.49157393231796
 20
-175.3512197159411
 30
0.0
 10
18.16291018231793
 20
-174.6798847159411
 30
0.0
 10
18.99158518231802
 20
-174.6798847159411
 30
0.0
  0
SPLINE
  5
3488
330
34C5
100
AcDbEntity
  8
CUTS
 62
     1
420
 16711680
370
    25
100
AcDbSpline
210
0.0
220
0.0
230
1.0
 70
     8
 71
     3
 72
     8
 73
     4
 74
     0
 42
0.000000001
 43
0.001
 12
1.0
 22
0.0
 32
0.0
 13
1.0
 23
0.0
 33
0.0
 40
0.0
 40
0.0
 40
0.0
 40
0.0
 40
1.0
 40
1.0
 40
1.0
 40
1.0
 10
18.99158518231802
 20
-174.6798847159411
 30
0.0
 10
19.81990768231803
 20
-174.6798847159411
 30
0.0
 10
20.491243932318
 20
-175.3512197159411
 30
0.0
 10
20.491243932318
 20
-176.1798947159412
 30
0.0
  0
SPLINE
  5
3489
330
34C5
100
AcDbEntity
  8
CUTS
 62
     1
420
 16711680
370
    25
100
AcDbSpline
210
0.0
220
0.0
230
1.0
 70
     8
 71
     3
 72
     8
 73
     4
 74
     0
 42
0.000000001
 43
0.001
 12
1.0
 22
0.0
 32
0.0
 13
1.0
 23
0.0
 33
0.0
 40
0.0
 40
0.0
 40
0.0
 40
0.0
 40
1.0
 40
1.0
 40
1.0
 40
1.0
 10
20.491243932318
 20
-176.1798947159412
 30
0.0
 10
20.491243932318
 20
-177.0082172159411
 30
0.0
 10
19.81990768231803
 20
-177.6799059659412
 30
0.0
 10
18.99158518231802
 20
-177.6799059659412
 30
0.0
  0
SPLINE
  5
348A
330
34C5
100
AcDbEntity
  8
CUTS
 62
     1
420
 16711680
370
    25
100
AcDbSpline
210
0.0
220
0.0
230
1.0
 70
     8
 71
     3
 72
     8
 73
     4
 74
     0
 42
0.000000001
 43
0.001
 12
1.0
 22
0.0
 32
0.0
 13
1.0
 23
0.0
 33
0.0
 40
0.0
 40
0.0
 40
0.0
 40
0.0
 40
1.0
 40
1.0
 40
1.0
 40
1.0
 10
18.99158518231802
 20
-177.6799059659412
 30
0.0
 10
18.16326268231812
 20
-177.6799059659412
 30
0.0
 10
17.49157393231796
 20
-177.0082172159411
 30
0.0
 10
17.49157393231796
 20
-176.1798947159412
 30
0.0
  0
SPLINE
  5
348B
330
34C5
100
AcDbEntity
  8
CUTS
 62
     1
420
 16711680
370
    25
100
AcDbSpline
210
0.0
220
0.0
230
1.0
 70
     8
 71
     3
 72
     8
 73
     4
 74
     0
 42
0.000000001
 43
0.001
 12
1.0
 22
0.0
 32
0.0
 13
1.0
 23
0.0
 33
0.0
 40
0.0
 40
0.0
 40
0.0
 40
0.0
 40
1.0
 40
1.0
 40
1.0
 40
1.0
 10
48.49156893231797
 20
-248.1804284659411
 30
0.0
 10
48.49156893231797
 20
-247.3517534659413
 30
0.0
 10
49.16361018231798
 20
-246.6804172159411
 30
0.0
 10
49.99158018231803
 20
-246.680417215941
 30
0.0
  0
SPLINE
  5
348C
330
34C5
100
AcDbEntity
  8
CUTS
 62
     1
420
 16711680
370
    25
100
AcDbSpline
210
0.0
220
0.0
230
1.0
 70
     8
 71
     3
 72
     8
 73
     4
 74
     0
 42
0.000000001
 43
0.001
 12
1.0
 22
0.0
 32
0.0
 13
1.0
 23
0.0
 33
0.0
 40
0.0
 40
0.0
 40
0.0
 40
0.0
 40
1.0
 40
1.0
 40
1.0
 40
1.0
 10
49.99158018231803
 20
-246.680417215941
 30
0.0
 10
50.81990143231796
 20
-246.6804172159411
 30
0.0
 10
51.49159143231797
 20
-247.3517534659413
 30
0.0
 10
51.49159143231797
 20
-248.1804284659411
 30
0.0
  0
SPLINE
  5
348D
330
34C5
100
AcDbEntity
  8
CUTS
 62
     1
420
 16711680
370
    25
100
AcDbSpline
210
0.0
220
0.0
230
1.0
 70
     8
 71
     3
 72
     8
 73
     4
 74
     0
 42
0.000000001
 43
0.001
 12
1.0
 22
0.0
 32
0.0
 13
1.0
 23
0.0
 33
0.0
 40
0.0
 40
0.0
 40
0.0
 40
0.0
 40
1.0
 40
1.0
 40
1.0
 40
1.0
 10
51.49159143231797
 20
-248.1804284659411
 30
0.0
 10
51.49159143231797
 20
-249.0087509659413
 30
0.0
 10
50.81990143231796
 20
-249.6804397159412
 30
0.0
 10
49.99158018231803
 20
-249.6804397159412
 30
0.0
  0
SPLINE
  5
348E
330
34C5
100
AcDbEntity
  8
CUTS
 62
     1
420
 16711680
370
    25
100
AcDbSpline
210
0.0
220
0.0
230
1.0
 70
     8
 71
     3
 72
     8
 73
     4
 74
     0
 42
0.000000001
 43
0.001
 12
1.0
 22
0.0
 32
0.0
 13
1.0
 23
0.0
 33
0.0
 40
0.0
 40
0.0
 40
0.0
 40
0.0
 40
1.0
 40
1.0
 40
1.0
 40
1.0
 10
49.99158018231803
 20
-249.6804397159412
 30
0.0
 10
49.16361018231798
 20
-249.6804397159412
 30
0.0
 10
48.49156893231797
 20
-249.0087509659413
 30
0.0
 10
48.49156893231797
 20
-248.1804284659411
 30
0.0
  0
LWPOLYLINE
  5
348F
330
34C5
100
AcDbEntity
  8
CUTS
 62
     1
420
 16711680
370
    25
100
AcDbPolyline
 90
        3
 70
     0
 43
0.0
 10
32.59504893231797
 20
-253.9303534659412
 10
33.47840518231793
 20
-253.0469984659412
 10
34.36105518204748
 20
-253.9303534659412
  0
SPLINE
  5
3490
330
34C5
100
AcDbEntity
  8
CUTS
 62
     1
420
 16711680
370
    25
100
AcDbSpline
210
0.0
220
0.0
230
1.0
 70
     8
 71
     3
 72
     8
 73
     4
 74
     0
 42
0.000000001
 43
0.001
 12
1.0
 22
0.0
 32
0.0
 13
1.0
 23
0.0
 33
0.0
 40
0.0
 40
0.0
 40
0.0
 40
0.0
 40
1.0
 40
1.0
 40
1.0
 40
1.0
 10
17.49157393231796
 20
-248.1804284659411
 30
0.0
 10
17.49157393231796
 20
-247.3517534659412
 30
0.0
 10
18.16291018231793
 20
-246.6804172159411
 30
0.0
 10
18.99158518231802
 20
-246.6804172159411
 30
0.0
  0
SPLINE
  5
3491
330
34C5
100
AcDbEntity
  8
CUTS
 62
     1
420
 16711680
370
    25
100
AcDbSpline
210
0.0
220
0.0
230
1.0
 70
     8
 71
     3
 72
     8
 73
     4
 74
     0
 42
0.000000001
 43
0.001
 12
1.0
 22
0.0
 32
0.0
 13
1.0
 23
0.0
 33
0.0
 40
0.0
 40
0.0
 40
0.0
 40
0.0
 40
1.0
 40
1.0
 40
1.0
 40
1.0
 10
18.99158518231802
 20
-246.6804172159411
 30
0.0
 10
19.81990768231803
 20
-246.680417215941
 30
0.0
 10
20.491243932318
 20
-247.3517534659413
 30
0.0
 10
20.491243932318
 20
-248.1804284659411
 30
0.0
  0
SPLINE
  5
3492
330
34C5
100
AcDbEntity
  8
CUTS
 62
     1
420
 16711680
370
    25
100
AcDbSpline
210
0.0
220
0.0
230
1.0
 70
     8
 71
     3
 72
     8
 73
     4
 74
     0
 42
0.000000001
 43
0.001
 12
1.0
 22
0.0
 32
0.0
 13
1.0
 23
0.0
 33
0.0
 40
0.0
 40
0.0
 40
0.0
 40
0.0
 40
1.0
 40
1.0
 40
1.0
 40
1.0
 10
20.491243932318
 20
-248.1804284659411
 30
0.0
 10
20.491243932318
 20
-249.0087509659413
 30
0.0
 10
19.81990768231803
 20
-249.6804397159412
 30
0.0
 10
18.99158518231802
 20
-249.6804397159412
 30
0.0
  0
SPLINE
  5
3493
330
34C5
100
AcDbEntity
  8
CUTS
 62
     1
420
 16711680
370
    25
100
AcDbSpline
210
0.0
220
0.0
230
1.0
 70
     8
 71
     3
 72
     8
 73
     4
 74
     0
 42
0.000000001
 43
0.001
 12
1.0
 22
0.0
 32
0.0
 13
1.0
 23
0.0
 33
0.0
 40
0.0
 40
0.0
 40
0.0
 40
0.0
 40
1.0
 40
1.0
 40
1.0
 40
1.0
 10
18.99158518231802
 20
-249.6804397159412
 30
0.0
 10
18.16326268231812
 20
-249.6804397159412
 30
0.0
 10
17.49157393231796
 20
-249.0087509659412
 30
0.0
 10
17.49157393231796
 20
-248.1804284659411
 30
0.0
  0
SPLINE
  5
3494
330
34C5
100
AcDbEntity
  8
CUTS
 62
     1
420
 16711680
370
    25
100
AcDbSpline
210
0.0
220
0.0
230
1.0
 70
     8
 71
     3
 72
     8
 73
     4
 74
     0
 42
0.000000001
 43
0.001
 12
1.0
 22
0.0
 32
0.0
 13
1.0
 23
0.0
 33
0.0
 40
0.0
 40
0.0
 40
0.0
 40
0.0
 40
1.0
 40
1.0
 40
1.0
 40
1.0
 10
48.49156893231797
 20
-217.1804347159412
 30
0.0
 10
48.49156893231797
 20
-216.3517597159411
 30
0.0
 10
49.16361018231798
 20
-215.6804234659411
 30
0.0
 10
49.99158018231803
 20
-215.6804234659411
 30
0.0
  0
SPLINE
  5
3495
330
34C5
100
AcDbEntity
  8
CUTS
 62
     1
420
 16711680
370
    25
100
AcDbSpline
210
0.0
220
0.0
230
1.0
 70
     8
 71
     3
 72
     8
 73
     4
 74
     0
 42
0.000000001
 43
0.001
 12
1.0
 22
0.0
 32
0.0
 13
1.0
 23
0.0
 33
0.0
 40
0.0
 40
0.0
 40
0.0
 40
0.0
 40
1.0
 40
1.0
 40
1.0
 40
1.0
 10
49.99158018231803
 20
-215.6804234659411
 30
0.0
 10
50.81990143231796
 20
-215.6804234659411
 30
0.0
 10
51.49159143231797
 20
-216.3517597159411
 30
0.0
 10
51.49159143231797
 20
-217.1804347159412
 30
0.0
  0
SPLINE
  5
3496
330
34C5
100
AcDbEntity
  8
CUTS
 62
     1
420
 16711680
370
    25
100
AcDbSpline
210
0.0
220
0.0
230
1.0
 70
     8
 71
     3
 72
     8
 73
     4
 74
     0
 42
0.000000001
 43
0.001
 12
1.0
 22
0.0
 32
0.0
 13
1.0
 23
0.0
 33
0.0
 40
0.0
 40
0.0
 40
0.0
 40
0.0
 40
1.0
 40
1.0
 40
1.0
 40
1.0
 10
51.49159143231797
 20
-217.1804347159412
 30
0.0
 10
51.49159143231797
 20
-218.0084034659411
 30
0.0
 10
50.81990143231796
 20
-218.6804447159411
 30
0.0
 10
49.99158018231803
 20
-218.6804447159411
 30
0.0
  0
SPLINE
  5
3497
330
34C5
100
AcDbEntity
  8
CUTS
 62
     1
420
 16711680
370
    25
100
AcDbSpline
210
0.0
220
0.0
230
1.0
 70
     8
 71
     3
 72
     8
 73
     4
 74
     0
 42
0.000000001
 43
0.001
 12
1.0
 22
0.0
 32
0.0
 13
1.0
 23
0.0
 33
0.0
 40
0.0
 40
0.0
 40
0.0
 40
0.0
 40
1.0
 40
1.0
 40
1.0
 40
1.0
 10
49.99158018231803
 20
-218.6804447159411
 30
0.0
 10
49.16361018231798
 20
-218.6804447159411
 30
0.0
 10
48.49156893231797
 20
-218.0084034659411
 30
0.0
 10
48.49156893231797
 20
-217.1804347159412
 30
0.0
  0
SPLINE
  5
3498
330
34C5
100
AcDbEntity
  8
CUTS
 62
     1
420
 16711680
370
    25
100
AcDbSpline
210
0.0
220
0.0
230
1.0
 70
     8
 71
     3
 72
     8
 73
     4
 74
     0
 42
0.000000001
 43
0.001
 12
1.0
 22
0.0
 32
0.0
 13
1.0
 23
0.0
 33
0.0
 40
0.0
 40
0.0
 40
0.0
 40
0.0
 40
1.0
 40
1.0
 40
1.0
 40
1.0
 10
17.49157393231796
 20
-217.1804347159412
 30
0.0
 10
17.49157393231796
 20
-216.3517597159411
 30
0.0
 10
18.16291018231793
 20
-215.6804234659411
 30
0.0
 10
18.99158518231802
 20
-215.6804234659411
 30
0.0
  0
SPLINE
  5
3499
330
34C5
100
AcDbEntity
  8
CUTS
 62
     1
420
 16711680
370
    25
100
AcDbSpline
210
0.0
220
0.0
230
1.0
 70
     8
 71
     3
 72
     8
 73
     4
 74
     0
 42
0.000000001
 43
0.001
 12
1.0
 22
0.0
 32
0.0
 13
1.0
 23
0.0
 33
0.0
 40
0.0
 40
0.0
 40
0.0
 40
0.0
 40
1.0
 40
1.0
 40
1.0
 40
1.0
 10
18.99158518231802
 20
-215.6804234659411
 30
0.0
 10
19.81990768231803
 20
-215.6804234659411
 30
0.0
 10
20.491243932318
 20
-216.3517597159411
 30
0.0
 10
20.491243932318
 20
-217.1804347159412
 30
0.0
  0
SPLINE
  5
349A
330
34C5
100
AcDbEntity
  8
CUTS
 62
     1
420
 16711680
370
    25
100
AcDbSpline
210
0.0
220
0.0
230
1.0
 70
     8
 71
     3
 72
     8
 73
     4
 74
     0
 42
0.000000001
 43
0.001
 12
1.0
 22
0.0
 32
0.0
 13
1.0
 23
0.0
 33
0.0
 40
0.0
 40
0.0
 40
0.0
 40
0.0
 40
1.0
 40
1.0
 40
1.0
 40
1.0
 10
20.491243932318
 20
-217.1804347159412
 30
0.0
 10
20.491243932318
 20
-218.0084034659411
 30
0.0
 10
19.81990768231803
 20
-218.6804447159411
 30
0.0
 10
18.99158518231802
 20
-218.6804447159411
 30
0.0
  0
SPLINE
  5
349B
330
34C5
100
AcDbEntity
  8
CUTS
 62
     1
420
 16711680
370
    25
100
AcDbSpline
210
0.0
220
0.0
230
1.0
 70
     8
 71
     3
 72
     8
 73
     4
 74
     0
 42
0.000000001
 43
0.001
 12
1.0
 22
0.0
 32
0.0
 13
1.0
 23
0.0
 33
0.0
 40
0.0
 40
0.0
 40
0.0
 40
0.0
 40
1.0
 40
1.0
 40
1.0
 40
1.0
 10
18.99158518231802
 20
-218.6804447159411
 30
0.0
 10
18.16326268231812
 20
-218.6804447159411
 30
0.0
 10
17.49157393231796
 20
-218.0084034659411
 30
0.0
 10
17.49157393231796
 20
-217.1804347159412
 30
0.0
  0
SPLINE
  5
349C
330
34C5
100
AcDbEntity
  8
CUTS
 62
     1
420
 16711680
370
    25
100
AcDbSpline
210
0.0
220
0.0
230
1.0
 70
     8
 71
     3
 72
     8
 73
     4
 74
     0
 42
0.000000001
 43
0.001
 12
1.0
 22
0.0
 32
0.0
 13
1.0
 23
0.0
 33
0.0
 40
0.0
 40
0.0
 40
0.0
 40
0.0
 40
1.0
 40
1.0
 40
1.0
 40
1.0
 10
51.74135768231797
 20
-212.9298147159412
 30
0.0
 10
53.95045143231805
 20
-212.9298147159411
 30
0.0
 10
55.74115143231795
 20
-211.139114715941
 30
0.0
 10
55.74115143231795
 20
-208.9296672159412
 30
0.0
  0
SPLINE
  5
349D
330
34C5
100
AcDbEntity
  8
CUTS
 62
     1
420
 16711680
370
    25
100
AcDbSpline
210
0.0
220
0.0
230
1.0
 70
     8
 71
     3
 72
     8
 73
     4
 74
     0
 42
0.000000001
 43
0.001
 12
1.0
 22
0.0
 32
0.0
 13
1.0
 23
0.0
 33
0.0
 40
0.0
 40
0.0
 40
0.0
 40
0.0
 40
1.0
 40
1.0
 40
1.0
 40
1.0
 10
55.74115143231795
 20
-175.9294234659411
 30
0.0
 10
55.74115143231795
 20
-173.7203284659411
 30
0.0
 10
53.95045143231805
 20
-171.9292759659413
 30
0.0
 10
51.74135768231797
 20
-171.9292759659412
 30
0.0
  0
LWPOLYLINE
  5
349E
330
34C5
100
AcDbEntity
  8
CUTS
 62
     1
420
 16711680
370
    25
100
AcDbPolyline
 90
        2
 70
     0
 43
0.0
 10
55.74115143231795
 20
-208.9296672159412
 10
55.74115143231795
 20
-175.9294234659411
  0
SPLINE
  5
349F
330
34C5
100
AcDbEntity
  8
CUTS
 62
     1
420
 16711680
370
    25
100
AcDbSpline
210
0.0
220
0.0
230
1.0
 70
     8
 71
     3
 72
     8
 73
     4
 74
     0
 42
0.000000001
 43
0.001
 12
1.0
 22
0.0
 32
0.0
 13
1.0
 23
0.0
 33
0.0
 40
0.0
 40
0.0
 40
0.0
 40
0.0
 40
1.0
 40
1.0
 40
1.0
 40
1.0
 10
17.24110143231808
 20
-171.9292759659412
 30
0.0
 10
15.07575143231809
 20
-171.9292759659412
 30
0.0
 10
13.31680143231794
 20
-173.6511847159411
 30
0.0
 10
13.24801018231794
 20
-175.7999534659412
 30
0.0
  0
SPLINE
  5
34A0
330
34C5
100
AcDbEntity
  8
CUTS
 62
     1
420
 16711680
370
    25
100
AcDbSpline
210
0.0
220
0.0
230
1.0
 70
     8
 71
     3
 72
     8
 73
     4
 74
     0
 42
0.000000001
 43
0.001
 12
1.0
 22
0.0
 32
0.0
 13
1.0
 23
0.0
 33
0.0
 40
0.0
 40
0.0
 40
0.0
 40
0.0
 40
1.0
 40
1.0
 40
1.0
 40
1.0
 10
13.24801018231794
 20
-175.7999534659412
 30
0.0
 10
13.26423768231795
 20
-176.3908559659411
 30
0.0
 10
13.407466432318
 20
-176.9496559659412
 30
0.0
 10
13.65299893231797
 20
-177.4495422159411
 30
0.0
  0
LWPOLYLINE
  5
34A1
330
34C5
100
AcDbEntity
  8
CUTS
 62
     1
420
 16711680
370
    25
100
AcDbPolyline
 90
        2
 70
     0
 43
0.0
 10
51.74135768231797
 20
-171.9292759659412
 10
17.24110143231808
 20
-171.9292759659412
  0
SPLINE
  5
34A2
330
34C5
100
AcDbEntity
  8
CUTS
 62
     1
420
 16711680
370
    25
100
AcDbSpline
210
0.0
220
0.0
230
1.0
 70
     8
 71
     3
 72
     8
 73
     4
 74
     0
 42
0.000000001
 43
0.001
 12
1.0
 22
0.0
 32
0.0
 13
1.0
 23
0.0
 33
0.0
 40
0.0
 40
0.0
 40
0.0
 40
0.0
 40
1.0
 40
1.0
 40
1.0
 40
1.0
 10
33.49039893231814
 20
-179.6798034659412
 30
0.0
 10
40.11838768231807
 20
-179.6798034659412
 30
0.0
 10
45.49119393231801
 20
-185.0522559659411
 30
0.0
 10
45.49119393231801
 20
-191.6798922159411
 30
0.0
  0
SPLINE
  5
34A3
330
34C5
100
AcDbEntity
  8
CUTS
 62
     1
420
 16711680
370
    25
100
AcDbSpline
210
0.0
220
0.0
230
1.0
 70
     8
 71
     3
 72
     8
 73
     4
 74
     0
 42
0.000000001
 43
0.001
 12
1.0
 22
0.0
 32
0.0
 13
1.0
 23
0.0
 33
0.0
 40
0.0
 40
0.0
 40
0.0
 40
0.0
 40
1.0
 40
1.0
 40
1.0
 40
1.0
 10
45.49119393231801
 20
-191.6798922159411
 30
0.0
 10
45.49119393231801
 20
-198.3071759659412
 30
0.0
 10
40.11838768231807
 20
-203.6796284659411
 30
0.0
 10
33.49039893231809
 20
-203.6796284659411
 30
0.0
  0
LWPOLYLINE
  5
34A4
330
34C5
100
AcDbEntity
  8
CUTS
 62
     1
420
 16711680
370
    25
100
AcDbPolyline
 90
        3
 70
     0
 43
0.0
 10
13.65299893231797
 20
-177.4495422159411
 10
25.279496432318
 20
-179.6847422159412
 10
33.49039893231814
 20
-179.6798034659412
  0
SPLINE
  5
34A5
330
34C5
100
AcDbEntity
  8
CUTS
 62
     1
420
 16711680
370
    25
100
AcDbSpline
210
0.0
220
0.0
230
1.0
 70
     8
 71
     3
 72
     8
 73
     4
 74
     0
 42
0.000000001
 43
0.001
 12
1.0
 22
0.0
 32
0.0
 13
1.0
 23
0.0
 33
0.0
 40
0.0
 40
0.0
 40
0.0
 40
0.0
 40
1.0
 40
1.0
 40
1.0
 40
1.0
 10
13.65546893231799
 20
-205.9088309659411
 30
0.0
 10
13.39264893231807
 20
-206.4418784659411
 30
0.0
 10
13.24130768231798
 20
-207.0394847159412
 30
0.0
 10
13.24130768231798
 20
-207.6734259659412
 30
0.0
  0
LWPOLYLINE
  5
34A6
330
34C5
100
AcDbEntity
  8
CUTS
 62
     1
420
 16711680
370
    25
100
AcDbPolyline
 90
        3
 70
     0
 43
0.0
 10
33.49039893231809
 20
-203.6796284659411
 10
25.26926643231802
 20
-203.6761009659412
 10
13.65546893231799
 20
-205.9088309659411
  0
ENDSEC
  0
SECTION
  2
OBJECTS
  0
DICTIONARY
  5
34B3
330
0
100
AcDbDictionary
281
     1
  3
ACAD_GROUP
350
34B4
  3
ACAD_LAYOUT
350
34C0
  3
ACAD_MATERIAL
350
34E1
  3
ACAD_MLEADERSTYLE
350
3511
  3
ACAD_MLINESTYLE
350
34BD
  3
ACAD_PLOTSETTINGS
350
34BF
  3
ACAD_PLOTSTYLENAME
350
34B5
  3
ACAD_TABLESTYLE
350
3510
  3
ACAD_VISUALSTYLE
350
34D0
  3
QCAD_OBJECTS
350
34E6
  0
DICTIONARY
  5
34B4
102
{ACAD_REACTORS
330
34B3
102
}
330
34B3
100
AcDbDictionary
281
     1
  0
DICTIONARY
  5
34C0
102
{ACAD_REACTORS
330
34B3
102
}
330
34B3
100
AcDbDictionary
281
     1
  3
Layout1
350
34C4
  3
Layout2
350
34CC
  3
Model
350
34C8
  0
DICTIONARY
  5
34E1
102
{ACAD_REACTORS
330
34B3
102
}
330
34B3
100
AcDbDictionary
281
     1
  3
ByBlock
350
34E3
  3
ByLayer
350
34E2
  3
Global
350
34E4
  0
DICTIONARY
  5
3511
102
{ACAD_REACTORS
330
34B3
102
}
330
34B3
100
AcDbDictionary
281
     1
  0
DICTIONARY
  5
34BD
102
{ACAD_REACTORS
330
34B3
102
}
330
34B3
100
AcDbDictionary
281
     1
  3
Standard
350
34BE
  0
DICTIONARY
  5
34BF
102
{ACAD_REACTORS
330
34B3
102
}
330
34B3
100
AcDbDictionary
281
     1
  0
ACDBDICTIONARYWDFLT
  5
34B5
102
{ACAD_REACTORS
330
34B3
102
}
330
34B3
100
AcDbDictionary
281
     1
  3
Normal
350
34B6
100
AcDbDictionaryWithDefault
340
34B6
  0
DICTIONARY
  5
3510
102
{ACAD_REACTORS
330
34B3
102
}
330
34B3
100
AcDbDictionary
281
     1
  0
DICTIONARY
  5
34D0
102
{ACAD_REACTORS
330
34B3
102
}
330
34B3
100
AcDbDictionary
281
     1
  3
2dWireframe
350
34D5
  3
3D Hidden
350
34D7
  3
3dWireframe
350
34D6
  3
Basic
350
34D8
  3
Brighten
350
34DC
  3
ColorChange
350
34E0
  3
Conceptual
350
34DA
  3
Dim
350
34DB
  3
Facepattern
350
34DF
  3
Flat
350
34D1
  3
FlatWithEdges
350
34D2
  3
Gouraud
350
34D3
  3
GouraudWithEdges
350
34D4
  3
Linepattern
350
34DE
  3
Realistic
350
34D9
  3
Thicken
350
34DD
  0
DICTIONARY
  5
34E6
102
{ACAD_REACTORS
330
34B3
102
}
330
34B3
100
AcDbDictionary
281
     1
  3
Grid/DisplayGrid
350
34F5
  3
Grid/GridSpacingX
350
34EE
  3
Grid/GridSpacingY
350
34F0
  3
MultiPageSettings/Columns
350
34ED
  3
MultiPageSettings/GlueMarginBottom
350
34EA
  3
MultiPageSettings/GlueMarginsLeft
350
34F1
  3
MultiPageSettings/GlueMarginsRight
350
34E7
  3
MultiPageSettings/GlueMarginsTop
350
34F9
  3
MultiPageSettings/PrintCropMarks
350
34E9
  3
MultiPageSettings/Rows
350
34F2
  3
PageSettings/OffsetX
350
34F7
  3
PageSettings/OffsetY
350
34F8
  3
PageSettings/PageOrientation
350
34E8
  3
PageSettings/PaperHeight
350
34EC
  3
PageSettings/PaperWidth
350
34F3
  3
PageSettings/Scale
350
34EB
  3
PageSettings/ShowBoundingBox
350
34EF
  3
PageSettings/ShowPageBorders
350
34F6
  3
UnitSettings/PaperUnit
350
34F4
  0
LAYOUT
  5
34C4
102
{ACAD_REACTORS
330
34C0
102
}
330
34C0
100
AcDbPlotSettings
  1

  2
none_device
  4

  6

 40
0.0
 41
0.0
 42
0.0
 43
0.0
 44
0.0
 45
0.0
 46
0.0
 47
0.0
 48
0.0
 49
0.0
140
0.0
141
0.0
142
1.0
143
1.0
 70
   688
 72
     0
 73
     0
 74
     5
  7

 75
    16
 76
     0
 77
     2
 78
   300
147
1.0
148
0.0
149
0.0
100
AcDbLayout
  1
Layout1
 70
     1
 71
     1
 10
0.0
 20
0.0
 11
12.0
 21
9.0
 12
0.0
 22
0.0
 32
0.0
 14
1.000000000000000E+20
 24
1.000000000000000E+20
 34
1.000000000000000E+20
 15
-1.000000000000000E+20
 25
-1.000000000000000E+20
 35
-1.000000000000000E+20
146
0.0
 13
0.0
 23
0.0
 33
0.0
 16
1.0
 26
0.0
 36
0.0
 17
0.0
 27
1.0
 37
0.0
 76
     0
330
34C1
  0
LAYOUT
  5
34CC
102
{ACAD_REACTORS
330
34C0
102
}
330
34C0
100
AcDbPlotSettings
  1

  2
none_device
  4

  6

 40
0.0
 41
0.0
 42
0.0
 43
0.0
 44
0.0
 45
0.0
 46
0.0
 47
0.0
 48
0.0
 49
0.0
140
0.0
141
0.0
142
1.0
143
1.0
 70
   688
 72
     0
 73
     0
 74
     5
  7

 75
    16
 76
     0
 77
     2
 78
   300
147
1.0
148
0.0
149
0.0
100
AcDbLayout
  1
Layout2
 70
     1
 71
     2
 10
0.0
 20
0.0
 11
0.0
 21
0.0
 12
0.0
 22
0.0
 32
0.0
 14
0.0
 24
0.0
 34
0.0
 15
0.0
 25
0.0
 35
0.0
146
0.0
 13
0.0
 23
0.0
 33
0.0
 16
1.0
 26
0.0
 36
0.0
 17
0.0
 27
1.0
 37
0.0
 76
     0
330
34C9
  0
LAYOUT
  5
34C8
102
{ACAD_REACTORS
330
34C0
102
}
330
34C0
100
AcDbPlotSettings
  1

  2
none_device
  4

  6

 40
0.0
 41
0.0
 42
0.0
 43
0.0
 44
0.0
 45
0.0
 46
0.0
 47
0.0
 48
0.0
 49
0.0
140
0.0
141
0.0
142
1.0
143
1.0
 70
  1712
 72
     0
 73
     0
 74
     0
  7

 75
     0
 76
     0
 77
     2
 78
   300
147
1.0
148
0.0
149
0.0
100
AcDbLayout
  1
Model
 70
     1
 71
     0
 10
0.0
 20
0.0
 11
12.0
 21
9.0
 12
0.0
 22
0.0
 32
0.0
 14
1.000000000000000E+20
 24
1.000000000000000E+20
 34
1.000000000000000E+20
 15
-1.000000000000000E+20
 25
-1.000000000000000E+20
 35
-1.000000000000000E+20
146
0.0
 13
0.0
 23
0.0
 33
0.0
 16
1.0
 26
0.0
 36
0.0
 17
0.0
 27
1.0
 37
0.0
 76
     0
330
34C5
331
34CF
  0
MATERIAL
  5
34E3
102
{ACAD_REACTORS
330
34E1
102
}
330
34E1
100
AcDbMaterial
  1
ByBlock
 72
     1
 94
      127
  0
MATERIAL
  5
34E2
102
{ACAD_REACTORS
330
34E1
102
}
330
34E1
100
AcDbMaterial
  1
ByLayer
 72
     1
 94
      127
  0
MATERIAL
  5
34E4
102
{ACAD_REACTORS
330
34E1
102
}
330
34E1
100
AcDbMaterial
  1
Global
 72
     1
 94
      127
  0
MLINESTYLE
  5
34BE
102
{ACAD_REACTORS
330
34BD
102
}
330
34BD
100
AcDbMlineStyle
  2
Standard
 70
     0
  3

 62
   256
 51
90.0
 52
90.0
 71
     2
 49
0.5
 62
   256
  6
BYLAYER
 49
-0.5
 62
   256
  6
BYLAYER
  0
ACDBPLACEHOLDER
  5
34B6
102
{ACAD_REACTORS
330
34B5
102
}
330
34B5
  0
VISUALSTYLE
  5
34D5
102
{ACAD_REACTORS
330
34D0
102
}
330
34D0
100
AcDbVisualStyle
  2
2dWireframe
 70
     4
177
     2
291
     0
 71
     0
176
     1
 72
     2
176
     1
 73
     0
176
     1
 90
        0
176
     1
 40
-0.6
176
     1
 41
-30.0
176
     1
 62
     5
 63
     7
421
 16777215
176
     1
 74
     1
176
     1
 91
        4
176
     1
 64
     7
176
     1
 65
   257
176
     1
 75
     1
176
     1
175
     1
176
     1
 42
1.0
176
     1
 92
        0
176
     1
 66
   257
176
     1
 43
1.0
176
     1
 76
     1
176
     1
 77
     6
176
     1
 78
     2
176
     1
 67
     7
176
     1
 79
     5
176
     1
170
     0
176
     1
171
     0
176
     1
290
     0
176
     1
 93
        1
176
     1
 44
0.0
176
     1
173
     0
176
     1
  0
VISUALSTYLE
  5
34D7
102
{ACAD_REACTORS
330
34D0
102
}
330
34D0
100
AcDbVisualStyle
  2
3D Hidden
 70
     6
177
     2
291
     0
 71
     1
176
     1
 72
     2
176
     1
 73
     2
176
     1
 90
        0
176
     1
 40
-0.6
176
     1
 41
-30.0
176
     1
 62
     5
 63
     7
421
 16777215
176
     1
 74
     2
176
     1
 91
        2
176
     1
 64
     7
176
     1
 65
   257
176
     1
 75
     2
176
     1
175
     1
176
     1
 42
40.0
176
     1
 92
        0
176
     1
 66
   257
176
     1
 43
1.0
176
     1
 76
     1
176
     1
 77
     6
176
     1
 78
     2
176
     1
 67
     7
176
     1
 79
     3
176
     1
170
     0
176
     1
171
     0
176
     1
290
     0
176
     1
 93
        1
176
     1
 44
0.0
176
     1
173
     0
176
     1
  0
VISUALSTYLE
  5
34D6
102
{ACAD_REACTORS
330
34D0
102
}
330
34D0
100
AcDbVisualStyle
  2
3dWireframe
 70
     5
177
     2
291
     0
 71
     0
176
     1
 72
     2
176
     1
 73
     0
176
     1
 90
        0
176
     1
 40
-0.6
176
     1
 41
-30.0
176
     1
 62
     5
 63
     7
421
 16777215
176
     1
 74
     1
176
     1
 91
        4
176
     1
 64
     7
176
     1
 65
   257
176
     1
 75
     1
176
     1
175
     1
176
     1
 42
1.0
176
     1
 92
        0
176
     1
 66
   257
176
     1
 43
1.0
176
     1
 76
     1
176
     1
 77
     6
176
     1
 78
     2
176
     1
 67
     7
176
     1
 79
     5
176
     1
170
     0
176
     1
171
     0
176
     1
290
     0
176
     1
 93
        1
176
     1
 44
0.0
176
     1
173
     0
176
     1
  0
VISUALSTYLE
  5
34D8
102
{ACAD_REACTORS
330
34D0
102
}
330
34D0
100
AcDbVisualStyle
  2
Basic
 70
     7
177
     2
291
     1
 71
     1
176
     1
 72
     0
176
     1
 73
     1
176
     1
 90
        0
176
     1
 40
-0.6
176
     1
 41
-30.0
176
     1
 62
     5
 63
     7
421
 16777215
176
     1
 74
     0
176
     1
 91
        4
176
     1
 64
     7
176
     1
 65
   257
176
     1
 75
     1
176
     1
175
     1
176
     1
 42
1.0
176
     1
 92
        8
176
     1
 66
     7
176
     1
 43
1.0
176
     1
 76
     1
176
     1
 77
     6
176
     1
 78
     2
176
     1
 67
     7
176
     1
 79
     5
176
     1
170
     0
176
     1
171
     0
176
     1
290
     0
176
     1
 93
        1
176
     1
 44
0.0
176
     1
173
     0
176
     1
  0
VISUALSTYLE
  5
34DC
102
{ACAD_REACTORS
330
34D0
102
}
330
34D0
100
AcDbVisualStyle
  2
Brighten
 70
    12
177
     2
291
     1
 71
     2
176
     1
 72
     2
176
     1
 73
     0
176
     1
 90
        0
176
     1
 40
-0.6
176
     1
 41
-30.0
176
     1
 62
     5
 63
     7
421
 16777215
176
     1
 74
     1
176
     1
 91
        4
176
     1
 64
     7
176
     1
 65
   257
176
     1
 75
     1
176
     1
175
     1
176
     1
 42
1.0
176
     1
 92
        8
176
     1
 66
     7
176
     1
 43
1.0
176
     1
 76
     1
176
     1
 77
     6
176
     1
 78
     2
176
     1
 67
     7
176
     1
 79
     5
176
     1
170
     0
176
     1
171
     0
176
     1
290
     0
176
     1
 93
        1
176
     1
 44
50.0
176
     1
173
     0
176
     1
  0
VISUALSTYLE
  5
34E0
102
{ACAD_REACTORS
330
34D0
102
}
330
34D0
100
AcDbVisualStyle
  2
ColorChange
 70
    16
177
     2
291
     1
 71
     2
176
     1
 72
     2
176
     1
 73
     3
176
     1
 90
        0
176
     1
 40
-0.6
176
     1
 41
-30.0
176
     1
 62
     5
 63
     8
421
  8421504
176
     1
 74
     1
176
     1
 91
        4
176
     1
 64
     7
176
     1
 65
   257
176
     1
 75
     1
176
     1
175
     1
176
     1
 42
1.0
176
     1
 92
        8
176
     1
 66
     8
424
  8421504
176
     1
 43
1.0
176
     1
 76
     1
176
     1
 77
     6
176
     1
 78
     2
176
     1
 67
     7
176
     1
 79
     5
176
     1
170
     0
176
     1
171
     0
176
     1
290
     0
176
     1
 93
        1
176
     1
 44
0.0
176
     1
173
     0
176
     1
  0
VISUALSTYLE
  5
34DA
102
{ACAD_REACTORS
330
34D0
102
}
330
34D0
100
AcDbVisualStyle
  2
Conceptual
 70
     9
177
     2
291
     0
 71
     3
176
     1
 72
     2
176
     1
 73
     0
176
     1
 90
        0
176
     1
 40
-0.6
176
     1
 41
-30.0
176
     1
 62
     5
 63
     7
421
 16777215
176
     1
 74
     2
176
     1
 91
        2
176
     1
 64
     7
176
     1
 65
   257
176
     1
 75
     1
176
     1
175
     1
176
     1
 42
40.0
176
     1
 92
        8
176
     1
 66
     7
176
     1
 43
1.0
176
     1
 76
     1
176
     1
 77
     6
176
     1
 78
     2
176
     1
 67
     7
176
     1
 79
     3
176
     1
170
     0
176
     1
171
     0
176
     1
290
     0
176
     1
 93
        1
176
     1
 44
0.0
176
     1
173
     0
176
     1
  0
VISUALSTYLE
  5
34DB
102
{ACAD_REACTORS
330
34D0
102
}
330
34D0
100
AcDbVisualStyle
  2
Dim
 70
    11
177
     2
291
     1
 71
     2
176
     1
 72
     2
176
     1
 73
     0
176
     1
 90
        0
176
     1
 40
-0.6
176
     1
 41
-30.0
176
     1
 62
     5
 63
     7
421
 16777215
176
     1
 74
     1
176
     1
 91
        4
176
     1
 64
     7
176
     1
 65
   257
176
     1
 75
     1
176
     1
175
     1
176
     1
 42
1.0
176
     1
 92
        8
176
     1
 66
     7
176
     1
 43
1.0
176
     1
 76
     1
176
     1
 77
     6
176
     1
 78
     2
176
     1
 67
     7
176
     1
 79
     5
176
     1
170
     0
176
     1
171
     0
176
     1
290
     0
176
     1
 93
        1
176
     1
 44
-50.0
176
     1
173
     0
176
     1
  0
VISUALSTYLE
  5
34DF
102
{ACAD_REACTORS
330
34D0
102
}
330
34D0
100
AcDbVisualStyle
  2
Facepattern
 70
    15
177
     2
291
     1
 71
     2
176
     1
 72
     2
176
     1
 73
     0
176
     1
 90
        0
176
     1
 40
-0.6
176
     1
 41
-30.0
176
     1
 62
     5
 63
     7
421
 16777215
176
     1
 74
     1
176
     1
 91
        4
176
     1
 64
     7
176
     1
 65
   257
176
     1
 75
     1
176
     1
175
     1
176
     1
 42
1.0
176
     1
 92
        8
176
     1
 66
     7
176
     1
 43
1.0
176
     1
 76
     1
176
     1
 77
     6
176
     1
 78
     2
176
     1
 67
     7
176
     1
 79
     5
176
     1
170
     0
176
     1
171
     0
176
     1
290
     0
176
     1
 93
        1
176
     1
 44
0.0
176
     1
173
     0
176
     1
  0
VISUALSTYLE
  5
34D1
102
{ACAD_REACTORS
330
34D0
102
}
330
34D0
100
AcDbVisualStyle
  2
Flat
 70
     0
177
     2
291
     1
 71
     2
176
     1
 72
     1
176
     1
 73
     1
176
     1
 90
        2
176
     1
 40
-0.6
176
     1
 41
30.0
176
     1
 62
     5
 63
     7
421
 16777215
176
     1
 74
     0
176
     1
 91
        4
176
     1
 64
     7
176
     1
 65
   257
176
     1
 75
     1
176
     1
175
     1
176
     1
 42
1.0
176
     1
 92
        8
176
     1
 66
     7
176
     1
 43
1.0
176
     1
 76
     1
176
     1
 77
     6
176
     1
 78
     2
176
     1
 67
     7
176
     1
 79
     5
176
     1
170
     0
176
     1
171
     0
176
     1
290
     0
176
     1
 93
       13
176
     1
 44
0.0
176
     1
173
     0
176
     1
  0
VISUALSTYLE
  5
34D2
102
{ACAD_REACTORS
330
34D0
102
}
330
34D0
100
AcDbVisualStyle
  2
FlatWithEdges
 70
     1
177
     2
291
     1
 71
     2
176
     1
 72
     1
176
     1
 73
     1
176
     1
 90
        2
176
     1
 40
-0.6
176
     1
 41
30.0
176
     1
 62
     5
 63
     7
421
 16777215
176
     1
 74
     1
176
     1
 91
        4
176
     1
 64
     7
176
     1
 65
   257
176
     1
 75
     1
176
     1
175
     1
176
     1
 42
1.0
176
     1
 92
        0
176
     1
 66
   257
176
     1
 43
1.0
176
     1
 76
     1
176
     1
 77
     6
176
     1
 78
     2
176
     1
 67
     7
176
     1
 79
     5
176
     1
170
     0
176
     1
171
     0
176
     1
290
     0
176
     1
 93
       13
176
     1
 44
0.0
176
     1
173
     0
176
     1
  0
VISUALSTYLE
  5
34D3
102
{ACAD_REACTORS
330
34D0
102
}
330
34D0
100
AcDbVisualStyle
  2
Gouraud
 70
     2
177
     2
291
     1
 71
     2
176
     1
 72
     2
176
     1
 73
     1
176
     1
 90
        2
176
     1
 40
-0.6
176
     1
 41
30.0
176
     1
 62
     5
 63
     7
421
 16777215
176
     1
 74
     0
176
     1
 91
        4
176
     1
 64
     7
176
     1
 65
   257
176
     1
 75
     1
176
     1
175
     1
176
     1
 42
1.0
176
     1
 92
        0
176
     1
 66
     7
176
     1
 43
1.0
176
     1
 76
     1
176
     1
 77
     6
176
     1
 78
     2
176
     1
 67
     7
176
     1
 79
     5
176
     1
170
     0
176
     1
171
     0
176
     1
290
     0
176
     1
 93
       13
176
     1
 44
0.0
176
     1
173
     0
176
     1
  0
VISUALSTYLE
  5
34D4
102
{ACAD_REACTORS
330
34D0
102
}
330
34D0
100
AcDbVisualStyle
  2
GouraudWithEdges
 70
     3
177
     2
291
     1
 71
     2
176
     1
 72
     2
176
     1
 73
     1
176
     1
 90
        2
176
     1
 40
-0.6
176
     1
 41
30.0
176
     1
 62
     5
 63
     7
421
 16777215
176
     1
 74
     1
176
     1
 91
        4
176
     1
 64
     7
176
     1
 65
   257
176
     1
 75
     1
176
     1
175
     1
176
     1
 42
1.0
176
     1
 92
        0
176
     1
 66
   257
176
     1
 43
1.0
176
     1
 76
     1
176
     1
 77
     6
176
     1
 78
     2
176
     1
 67
     7
176
     1
 79
     5
176
     1
170
     0
176
     1
171
     0
176
     1
290
     0
176
     1
 93
       13
176
     1
 44
0.0
176
     1
173
     0
176
     1
  0
VISUALSTYLE
  5
34DE
102
{ACAD_REACTORS
330
34D0
102
}
330
34D0
100
AcDbVisualStyle
  2
Linepattern
 70
    14
177
     2
291
     1
 71
     2
176
     1
 72
     2
176
     1
 73
     0
176
     1
 90
        0
176
     1
 40
-0.6
176
     1
 41
-30.0
176
     1
 62
     5
 63
     7
421
 16777215
176
     1
 74
     1
176
     1
 91
        4
176
     1
 64
     7
176
     1
 65
   257
176
     1
 75
     7
176
     1
175
     7
176
     1
 42
1.0
176
     1
 92
        8
176
     1
 66
     7
176
     1
 43
1.0
176
     1
 76
     1
176
     1
 77
     6
176
     1
 78
     2
176
     1
 67
     7
176
     1
 79
     5
176
     1
170
     0
176
     1
171
     0
176
     1
290
     0
176
     1
 93
        1
176
     1
 44
0.0
176
     1
173
     0
176
     1
  0
VISUALSTYLE
  5
34D9
102
{ACAD_REACTORS
330
34D0
102
}
330
34D0
100
AcDbVisualStyle
  2
Realistic
 70
     8
177
     2
291
     0
 71
     2
176
     1
 72
     2
176
     1
 73
     0
176
     1
 90
        0
176
     1
 40
-0.6
176
     1
 41
-30.0
176
     1
 62
     5
 63
     7
421
 16777215
176
     1
 74
     1
176
     1
 91
        0
176
     1
 64
     7
176
     1
 65
   257
176
     1
 75
     1
176
     1
175
     1
176
     1
 42
1.0
176
     1
 92
        8
176
     1
 66
     8
424
  7895160
176
     1
 43
1.0
176
     1
 76
     1
176
     1
 77
     6
176
     1
 78
     2
176
     1
 67
     7
176
     1
 79
     5
176
     1
170
     0
176
     1
171
     0
176
     1
290
     0
176
     1
 93
       13
176
     1
 44
0.0
176
     1
173
     0
176
     1
  0
VISUALSTYLE
  5
34DD
102
{ACAD_REACTORS
330
34D0
102
}
330
34D0
100
AcDbVisualStyle
  2
Thicken
 70
    13
177
     2
291
     1
 71
     2
176
     1
 72
     2
176
     1
 73
     0
176
     1
 90
        0
176
     1
 40
-0.6
176
     1
 41
-30.0
176
     1
 62
     5
 63
     7
421
 16777215
176
     1
 74
     1
176
     1
 91
        4
176
     1
 64
     7
176
     1
 65
   257
176
     1
 75
     1
176
     1
175
     1
176
     1
 42
1.0
176
     1
 92
       12
176
     1
 66
     7
176
     1
 43
1.0
176
     1
 76
     1
176
     1
 77
     6
176
     1
 78
     2
176
     1
 67
     7
176
     1
 79
     5
176
     1
170
     0
176
     1
171
     0
176
     1
290
     0
176
     1
 93
        1
176
     1
 44
0.0
176
     1
173
     0
176
     1
  0
XRECORD
  5
34F5
102
{ACAD_REACTORS
330
34E6
102
}
330
34E6
100
AcDbXrecord
280
     1
290
     1
  0
XRECORD
  5
34EE
102
{ACAD_REACTORS
330
34E6
102
}
330
34E6
100
AcDbXrecord
280
     1
1000
auto
  0
XRECORD
  5
34F0
102
{ACAD_REACTORS
330
34E6
102
}
330
34E6
100
AcDbXrecord
280
     1
1000
auto
  0
XRECORD
  5
34ED
102
{ACAD_REACTORS
330
34E6
102
}
330
34E6
100
AcDbXrecord
280
     1
 90
        1
  0
XRECORD
  5
34EA
102
{ACAD_REACTORS
330
34E6
102
}
330
34E6
100
AcDbXrecord
280
     1
 40
10.0
  0
XRECORD
  5
34F1
102
{ACAD_REACTORS
330
34E6
102
}
330
34E6
100
AcDbXrecord
280
     1
 40
10.0
  0
XRECORD
  5
34E7
102
{ACAD_REACTORS
330
34E6
102
}
330
34E6
100
AcDbXrecord
280
     1
 40
10.0
  0
XRECORD
  5
34F9
102
{ACAD_REACTORS
330
34E6
102
}
330
34E6
100
AcDbXrecord
280
     1
 40
10.0
  0
XRECORD
  5
34E9
102
{ACAD_REACTORS
330
34E6
102
}
330
34E6
100
AcDbXrecord
280
     1
290
     0
  0
XRECORD
  5
34F2
102
{ACAD_REACTORS
330
34E6
102
}
330
34E6
100
AcDbXrecord
280
     1
 90
        1
  0
XRECORD
  5
34F7
102
{ACAD_REACTORS
330
34E6
102
}
330
34E6
100
AcDbXrecord
280
     1
 40
0.0
  0
XRECORD
  5
34F8
102
{ACAD_REACTORS
330
34E6
102
}
330
34E6
100
AcDbXrecord
280
     1
 40
0.0
  0
XRECORD
  5
34E8
102
{ACAD_REACTORS
330
34E6
102
}
330
34E6
100
AcDbXrecord
280
     1
1000
Portrait
  0
XRECORD
  5
34EC
102
{ACAD_REACTORS
330
34E6
102
}
330
34E6
100
AcDbXrecord
280
     1
 40
297.0
  0
XRECORD
  5
34F3
102
{ACAD_REACTORS
330
34E6
102
}
330
34E6
100
AcDbXrecord
280
     1
 40
210.0
  0
XRECORD
  5
34EB
102
{ACAD_REACTORS
330
34E6
102
}
330
34E6
100
AcDbXrecord
280
     1
1000
1:1
  0
XRECORD
  5
34EF
102
{ACAD_REACTORS
330
34E6
102
}
330
34E6
100
AcDbXrecord
280
     1
290
     0
  0
XRECORD
  5
34F6
102
{ACAD_REACTORS
330
34E6
102
}
330
34E6
100
AcDbXrecord
280
     1
290
     1
  0
XRECORD
  5
34F4
102
{ACAD_REACTORS
330
34E6
102
}
330
34E6
100
AcDbXrecord
280
     1
 90
        4
  0
ENDSEC
  0
EOF
