  0
SECTION
  2
HEADER
  9
$ACADVER
  1
AC1024
  9
$ACADMAINTVER
 70
     6
  9
$DWGCODEPAGE
  3
ASCII
  9
$INSBASE
 10
0.0
 20
0.0
 30
0.0
  9
$EXTMIN
 10
1.000000000000000E+20
 20
1.000000000000000E+20
 30
1.000000000000000E+20
  9
$EXTMAX
 10
-1.000000000000000E+20
 20
-1.000000000000000E+20
 30
-1.000000000000000E+20
  9
$LIMMIN
 10
0.0
 20
0.0
  9
$LIMMAX
 10
12.0
 20
9.0
  9
$ORTHOMODE
 70
     0
  9
$REGENMODE
 70
     1
  9
$FILLMODE
 70
     1
  9
$QTEXTMODE
 70
     0
  9
$MIRRTEXT
 70
     1
  9
$LTSCALE
 40
1.0
  9
$ATTMODE
 70
     1
  9
$TEXTSIZE
 40
0.2
  9
$TRACEWID
 40
0.05
  9
$TEXTSTYLE
  7
Standard
  9
$CLAYER
  8
0
  9
$CELTYPE
  6
ByLayer
  9
$CECOLOR
 62
    18
  9
$CELTSCALE
 40
1.0
  9
$DISPSILH
 70
     0
  9
$DIMSCALE
 40
1.0
  9
$DIMASZ
 40
2.5
  9
$DIMEXO
 40
0.625
  9
$DIMDLI
 40
0.38
  9
$DIMRND
 40
0.0
  9
$DIMDLE
 40
0.0
  9
$DIMEXE
 40
1.25
  9
$DIMTP
 40
0.0
  9
$DIMTM
 40
0.0
  9
$DIMTXT
 40
2.5
  9
$DIMCEN
 40
0.09
  9
$DIMTSZ
 40
0.0
  9
$DIMTOL
 70
     0
  9
$DIMLIM
 70
     0
  9
$DIMTIH
 70
     1
  9
$DIMTOH
 70
     1
  9
$DIMSE1
 70
     0
  9
$DIMSE2
 70
     0
  9
$DIMTAD
 70
     0
  9
$DIMZIN
 70
     8
  9
$DIMBLK
  1

  9
$DIMASO
 70
     1
  9
$DIMSHO
 70
     1
  9
$DIMPOST
  1

  9
$DIMAPOST
  1

  9
$DIMALT
 70
     0
  9
$DIMALTD
 70
     2
  9
$DIMALTF
 40
25.4
  9
$DIMLFAC
 40
1.0
  9
$DIMTOFL
 70
     0
  9
$DIMTVP
 40
0.0
  9
$DIMTIX
 70
     0
  9
$DIMSOXD
 70
     0
  9
$DIMSAH
 70
     0
  9
$DIMBLK1
  1

  9
$DIMBLK2
  1

  9
$DIMSTYLE
  2
Standard
  9
$DIMCLRD
 70
    18
  9
$DIMCLRE
 70
    18
  9
$DIMCLRT
 70
    18
  9
$DIMTFAC
 40
1.0
  9
$DIMGAP
 40
0.625
  9
$DIMJUST
 70
     0
  9
$DIMSD1
 70
     0
  9
$DIMSD2
 70
     0
  9
$DIMTOLJ
 70
     1
  9
$DIMTZIN
 70
     0
  9
$DIMALTZ
 70
     0
  9
$DIMALTTZ
 70
     0
  9
$DIMUPT
 70
     0
  9
$DIMDEC
 70
     4
  9
$DIMTDEC
 70
     4
  9
$DIMALTU
 70
     2
  9
$DIMALTTD
 70
     2
  9
$DIMTXSTY
  7
Standard
  9
$DIMAUNIT
 70
     0
  9
$DIMADEC
 70
     0
  9
$DIMALTRND
 40
0.0
  9
$DIMAZIN
 70
     2
  9
$DIMDSEP
 70
    46
  9
$DIMATFIT
 70
     3
  9
$DIMFRAC
 70
     0
  9
$DIMLDRBLK
  1

  9
$DIMLUNIT
 70
     2
  9
$DIMLWD
 70
    -2
  9
$DIMLWE
 70
    -2
  9
$DIMTMOVE
 70
     0
  9
$DIMFXL
 40
1.0
  9
$DIMFXLON
 70
     0
  9
$DIMJOGANG
 40
0.7853981633974483
  9
$DIMTFILL
 70
     0
  9
$DIMTFILLCLR
 70
     0
  9
$DIMARCSYM
 70
     0
  9
$DIMLTYPE
  6

  9
$DIMLTEX1
  6

  9
$DIMLTEX2
  6

  9
$DIMTXTDIRECTION
 70
     0
  9
$LUNITS
 70
     2
  9
$LUPREC
 70
     4
  9
$SKETCHINC
 40
0.1
  9
$FILLETRAD
 40
0.5
  9
$AUNITS
 70
     0
  9
$AUPREC
 70
     0
  9
$MENU
  1
.
  9
$ELEVATION
 40
0.0
  9
$PELEVATION
 40
0.0
  9
$THICKNESS
 40
0.0
  9
$LIMCHECK
 70
     0
  9
$CHAMFERA
 40
0.5
  9
$CHAMFERB
 40
0.5
  9
$CHAMFERC
 40
1.0
  9
$CHAMFERD
 40
0.0
  9
$SKPOLY
 70
     0
  9
$TDCREATE
 40
2455889.569125533
  9
$TDUCREATE
 40
2455889.777458866
  9
$TDUPDATE
 40
2455889.569125718
  9
$TDUUPDATE
 40
2455889.777459051
  9
$TDINDWG
 40
0.0000000116
  9
$TDUSRTIMER
 40
0.0000000116
  9
$USRTIMER
 70
     1
  9
$ANGBASE
 50
0.0
  9
$ANGDIR
 70
     0
  9
$PDMODE
 70
     0
  9
$PDSIZE
 40
0.0
  9
$PLINEWID
 40
0.0
  9
$SPLFRAME
 70
     0
  9
$SPLINETYPE
 70
     6
  9
$SPLINESEGS
 70
     8
  9
$HANDSEED
  5
3014
  9
$SURFTAB1
 70
     6
  9
$SURFTAB2
 70
     6
  9
$SURFTYPE
 70
     6
  9
$SURFU
 70
     6
  9
$SURFV
 70
     6
  9
$UCSBASE
  2

  9
$UCSNAME
  2

  9
$UCSORG
 10
0.0
 20
0.0
 30
0.0
  9
$UCSXDIR
 10
1.0
 20
0.0
 30
0.0
  9
$UCSYDIR
 10
0.0
 20
1.0
 30
0.0
  9
$UCSORTHOREF
  2

  9
$UCSORTHOVIEW
 70
     0
  9
$UCSORGTOP
 10
0.0
 20
0.0
 30
0.0
  9
$UCSORGBOTTOM
 10
0.0
 20
0.0
 30
0.0
  9
$UCSORGLEFT
 10
0.0
 20
0.0
 30
0.0
  9
$UCSORGRIGHT
 10
0.0
 20
0.0
 30
0.0
  9
$UCSORGFRONT
 10
0.0
 20
0.0
 30
0.0
  9
$UCSORGBACK
 10
0.0
 20
0.0
 30
0.0
  9
$PUCSBASE
  2

  9
$PUCSNAME
  2

  9
$PUCSORG
 10
0.0
 20
0.0
 30
0.0
  9
$PUCSXDIR
 10
1.0
 20
0.0
 30
0.0
  9
$PUCSYDIR
 10
0.0
 20
1.0
 30
0.0
  9
$PUCSORTHOREF
  2

  9
$PUCSORTHOVIEW
 70
     0
  9
$PUCSORGTOP
 10
0.0
 20
0.0
 30
0.0
  9
$PUCSORGBOTTOM
 10
0.0
 20
0.0
 30
0.0
  9
$PUCSORGLEFT
 10
0.0
 20
0.0
 30
0.0
  9
$PUCSORGRIGHT
 10
0.0
 20
0.0
 30
0.0
  9
$PUCSORGFRONT
 10
0.0
 20
0.0
 30
0.0
  9
$PUCSORGBACK
 10
0.0
 20
0.0
 30
0.0
  9
$USERI1
 70
     0
  9
$USERI2
 70
     0
  9
$USERI3
 70
     0
  9
$USERI4
 70
     0
  9
$USERI5
 70
     0
  9
$USERR1
 40
0.0
  9
$USERR2
 40
0.0
  9
$USERR3
 40
0.0
  9
$USERR4
 40
0.0
  9
$USERR5
 40
0.0
  9
$WORLDVIEW
 70
     1
  9
$SHADEDGE
 70
     3
  9
$SHADEDIF
 70
    70
  9
$TILEMODE
 70
     1
  9
$MAXACTVP
 70
    64
  9
$PINSBASE
 10
0.0
 20
0.0
 30
0.0
  9
$PLIMCHECK
 70
     0
  9
$PEXTMIN
 10
1.000000000000000E+20
 20
1.000000000000000E+20
 30
1.000000000000000E+20
  9
$PEXTMAX
 10
-1.000000000000000E+20
 20
-1.000000000000000E+20
 30
-1.000000000000000E+20
  9
$PLIMMIN
 10
0.0
 20
0.0
  9
$PLIMMAX
 10
12.0
 20
9.0
  9
$UNITMODE
 70
     0
  9
$VISRETAIN
 70
     1
  9
$PLINEGEN
 70
     0
  9
$PSLTSCALE
 70
     1
  9
$TREEDEPTH
 70
  3020
  9
$CMLSTYLE
  2
Standard
  9
$CMLJUST
 70
     0
  9
$CMLSCALE
 40
1.0
  9
$PROXYGRAPHICS
 70
     1
  9
$MEASUREMENT
 70
     1
  9
$CELWEIGHT
370
    -1
  9
$ENDCAPS
280
     0
  9
$JOINSTYLE
280
     0
  9
$LWDISPLAY
290
     0
  9
$INSUNITS
 70
     0
  9
$HYPERLINKBASE
  1

  9
$STYLESHEET
  1

  9
$XEDIT
290
     1
  9
$CEPSNTYPE
380
     0
  9
$PSTYLEMODE
290
     1
  9
$FINGERPRINTGUID
  2
{2BAEABDF-BB23-4561-905B-E490DDC2A750}
  9
$VERSIONGUID
  2
{FAEB1C32-E019-11D5-929B-00C0DF256EC4}
  9
$EXTNAMES
290
     1
  9
$PSVPSCALE
 40
0.0
  9
$OLESTARTUP
290
     0
  9
$SORTENTS
280
   127
  9
$INDEXCTL
280
     0
  9
$HIDETEXT
280
     1
  9
$XCLIPFRAME
280
     2
  9
$HALOGAP
280
     0
  9
$OBSCOLOR
 70
   257
  9
$OBSLTYPE
280
     0
  9
$INTERSECTIONDISPLAY
280
     0
  9
$INTERSECTIONCOLOR
 70
   257
  9
$DIMASSOC
280
     2
  9
$PROJECTNAME
  1

  9
$CAMERADISPLAY
290
     0
  9
$LENSLENGTH
 40
50.0
  9
$CAMERAHEIGHT
 40
0.0
  9
$STEPSPERSEC
 40
2.0
  9
$STEPSIZE
 40
6.0
  9
$3DDWFPREC
 40
2.0
  9
$PSOLWIDTH
 40
0.25
  9
$PSOLHEIGHT
 40
4.0
  9
$LOFTANG1
 40
1.570796326794897
  9
$LOFTANG2
 40
1.570796326794897
  9
$LOFTMAG1
 40
0.0
  9
$LOFTMAG2
 40
0.0
  9
$LOFTPARAM
 70
     7
  9
$LOFTNORMALS
280
     1
  9
$LATITUDE
 40
37.795
  9
$LONGITUDE
 40
-122.394
  9
$NORTHDIRECTION
 40
0.0
  9
$TIMEZONE
 70
 -8000
  9
$LIGHTGLYPHDISPLAY
280
     1
  9
$TILEMODELIGHTSYNCH
280
     1
  9
$SOLIDHIST
280
     1
  9
$SHOWHIST
280
     1
  9
$DWFFRAME
280
     2
  9
$DGNFRAME
280
     2
  9
$REALWORLDSCALE
290
     1
  9
$INTERFERECOLOR
 62
   256
  9
$CSHADOW
280
     0
  9
$SHADOWPLANELOCATION
 40
0.0
  0
ENDSEC
  0
SECTION
  2
CLASSES
  0
CLASS
  1
ACDBDICTIONARYWDFLT
  2
AcDbDictionaryWithDefault
  3
ObjectDBX Classes
 90
        0
 91
        4
280
     0
281
     0
  0
CLASS
  1
VISUALSTYLE
  2
AcDbVisualStyle
  3
ObjectDBX Classes
 90
     4095
 91
        4
280
     0
281
     0
  0
CLASS
  1
MATERIAL
  2
AcDbMaterial
  3
ObjectDBX Classes
 90
     1153
 91
        4
280
     0
281
     0
  0
ENDSEC
  0
SECTION
  2
TABLES
  0
TABLE
  2
VPORT
  5
2FB0
330
0
100
AcDbSymbolTable
 70
     1
  0
VPORT
  5
2FD0
330
2FB0
100
AcDbSymbolTableRecord
100
AcDbViewportTableRecord
  2
*Active
 70
     0
 10
0.0
 20
0.0
 11
1.0
 21
1.0
 12
10.42990654205607
 22
4.5
 13
0.0
 23
0.0
 14
0.5
 24
0.5
 15
0.5
 25
0.5
 16
0.0
 26
0.0
 36
1.0
 17
0.0
 27
0.0
 37
0.0
 40
9.0
 41
1.972972972850329
 42
50.0
 43
0.0
 44
0.0
 50
0.0
 51
0.0
 71
     0
 72
   100
 73
     1
 74
     3
 75
     0
 76
     0
 77
     0
 78
     0
281
     0
 65
     1
110
0.0
120
0.0
130
0.0
111
1.0
121
0.0
131
0.0
112
0.0
122
1.0
132
0.0
 79
     0
146
0.0
 60
     3
 61
     5
292
     1
282
     1
141
0.0
142
0.0
 63
   250
  0
ENDTAB
  0
TABLE
  2
LTYPE
  5
2FAD
330
0
100
AcDbSymbolTable
 70
    19
  0
LTYPE
  5
2FBB
330
2FAD
100
AcDbSymbolTableRecord
100
AcDbLinetypeTableRecord
  2
ByBlock
 70
     0
  3

 72
    65
 73
     0
 40
0.0
  0
LTYPE
  5
2FBC
330
2FAD
100
AcDbSymbolTableRecord
100
AcDbLinetypeTableRecord
  2
ByLayer
 70
     0
  3

 72
    65
 73
     0
 40
0.0
  0
LTYPE
  5
2FBD
330
2FAD
100
AcDbSymbolTableRecord
100
AcDbLinetypeTableRecord
  2
Continuous
 70
     0
  3
Solid line
 72
    65
 73
     0
 40
0.0
  0
LTYPE
  5
2FFC
330
2FAD
100
AcDbSymbolTableRecord
100
AcDbLinetypeTableRecord
  2
BORDER
 70
     0
  3

 72
    65
 73
     6
 40
42.00000000000001
 49
12.0
 74
     0
 49
-6.0
 74
     0
 49
12.0
 74
     0
 49
-5.95
 74
     0
 49
0.1
 74
     0
 49
-5.95
 74
     0
  0
LTYPE
  5
2FFD
330
2FAD
100
AcDbSymbolTableRecord
100
AcDbLinetypeTableRecord
  2
BORDER2
 70
     0
  3

 72
    65
 73
     6
 40
21.0
 49
6.0
 74
     0
 49
-3.0
 74
     0
 49
6.0
 74
     0
 49
-2.95
 74
     0
 49
0.1
 74
     0
 49
-2.95
 74
     0
  0
LTYPE
  5
2FFE
330
2FAD
100
AcDbSymbolTableRecord
100
AcDbLinetypeTableRecord
  2
BORDERX2
 70
     0
  3

 72
    65
 73
     6
 40
84.0
 49
24.0
 74
     0
 49
-12.0
 74
     0
 49
24.0
 74
     0
 49
-11.95
 74
     0
 49
0.1
 74
     0
 49
-11.95
 74
     0
  0
LTYPE
  5
2FFF
330
2FAD
100
AcDbSymbolTableRecord
100
AcDbLinetypeTableRecord
  2
CENTER
 70
     0
  3

 72
    65
 73
     4
 40
50.0
 49
32.0
 74
     0
 49
-6.0
 74
     0
 49
6.0
 74
     0
 49
-6.0
 74
     0
  0
LTYPE
  5
3000
330
2FAD
100
AcDbSymbolTableRecord
100
AcDbLinetypeTableRecord
  2
CENTER2
 70
     0
  3

 72
    65
 73
     4
 40
25.0
 49
16.0
 74
     0
 49
-3.0
 74
     0
 49
3.0
 74
     0
 49
-3.0
 74
     0
  0
LTYPE
  5
3001
330
2FAD
100
AcDbSymbolTableRecord
100
AcDbLinetypeTableRecord
  2
CENTERX2
 70
     0
  3

 72
    65
 73
     4
 40
100.0
 49
64.0
 74
     0
 49
-12.0
 74
     0
 49
12.0
 74
     0
 49
-12.0
 74
     0
  0
LTYPE
  5
3002
330
2FAD
100
AcDbSymbolTableRecord
100
AcDbLinetypeTableRecord
  2
DASHDOT
 70
     0
  3

 72
    65
 73
     4
 40
24.0
 49
12.0
 74
     0
 49
-5.95
 74
     0
 49
0.1
 74
     0
 49
-5.95
 74
     0
  0
LTYPE
  5
3003
330
2FAD
100
AcDbSymbolTableRecord
100
AcDbLinetypeTableRecord
  2
DASHDOT2
 70
     0
  3

 72
    65
 73
     4
 40
12.0
 49
6.0
 74
     0
 49
-2.95
 74
     0
 49
0.1
 74
     0
 49
-2.95
 74
     0
  0
LTYPE
  5
3004
330
2FAD
100
AcDbSymbolTableRecord
100
AcDbLinetypeTableRecord
  2
DASHDOTX2
 70
     0
  3

 72
    65
 73
     4
 40
48.0
 49
24.0
 74
     0
 49
-11.95
 74
     0
 49
0.1
 74
     0
 49
-11.95
 74
     0
  0
LTYPE
  5
3005
330
2FAD
100
AcDbSymbolTableRecord
100
AcDbLinetypeTableRecord
  2
DASHED
 70
     0
  3

 72
    65
 73
     2
 40
18.0
 49
12.0
 74
     0
 49
-6.0
 74
     0
  0
LTYPE
  5
3006
330
2FAD
100
AcDbSymbolTableRecord
100
AcDbLinetypeTableRecord
  2
DASHED2
 70
     0
  3

 72
    65
 73
     2
 40
9.0
 49
6.0
 74
     0
 49
-3.0
 74
     0
  0
LTYPE
  5
3007
330
2FAD
100
AcDbSymbolTableRecord
100
AcDbLinetypeTableRecord
  2
DASHEDX2
 70
     0
  3

 72
    65
 73
     2
 40
36.0
 49
24.0
 74
     0
 49
-12.0
 74
     0
  0
LTYPE
  5
3008
330
2FAD
100
AcDbSymbolTableRecord
100
AcDbLinetypeTableRecord
  2
DIVIDE
 70
     0
  3

 72
    65
 73
     6
 40
29.99999999999999
 49
12.0
 74
     0
 49
-5.9
 74
     0
 49
0.15
 74
     0
 49
-5.9
 74
     0
 49
0.15
 74
     0
 49
-5.9
 74
     0
  0
LTYPE
  5
3009
330
2FAD
100
AcDbSymbolTableRecord
100
AcDbLinetypeTableRecord
  2
DIVIDE2
 70
     0
  3

 72
    65
 73
     6
 40
15.0
 49
6.0
 74
     0
 49
-2.9
 74
     0
 49
0.15
 74
     0
 49
-2.9
 74
     0
 49
0.15
 74
     0
 49
-2.9
 74
     0
  0
LTYPE
  5
300A
330
2FAD
100
AcDbSymbolTableRecord
100
AcDbLinetypeTableRecord
  2
DIVIDEX2
 70
     0
  3

 72
    65
 73
     6
 40
59.99999999999999
 49
24.0
 74
     0
 49
-11.9
 74
     0
 49
0.15
 74
     0
 49
-11.9
 74
     0
 49
0.15
 74
     0
 49
-11.9
 74
     0
  0
LTYPE
  5
300B
330
2FAD
100
AcDbSymbolTableRecord
100
AcDbLinetypeTableRecord
  2
DOT
 70
     0
  3

 72
    65
 73
     2
 40
6.3
 49
0.1
 74
     0
 49
-6.2
 74
     0
  0
LTYPE
  5
300C
330
2FAD
100
AcDbSymbolTableRecord
100
AcDbLinetypeTableRecord
  2
DOT2
 70
     0
  3

 72
    65
 73
     2
 40
3.2
 49
0.1
 74
     0
 49
-3.1
 74
     0
  0
LTYPE
  5
300D
330
2FAD
100
AcDbSymbolTableRecord
100
AcDbLinetypeTableRecord
  2
DOTX2
 70
     0
  3

 72
    65
 73
     2
 40
12.5
 49
0.1
 74
     0
 49
-12.4
 74
     0
  0
ENDTAB
  0
TABLE
  2
LAYER
  5
2FAA
330
0
100
AcDbSymbolTable
 70
     5
  0
LAYER
  5
2FB8
330
2FAA
100
AcDbSymbolTableRecord
100
AcDbLayerTableRecord
  2
0
 70
     0
 62
     7
420
 16777215
  6
Continuous
370
    25
390
2FB7
347
2FE5
  0
LAYER
  5
300E
330
2FAA
100
AcDbSymbolTableRecord
100
AcDbLayerTableRecord
  2
TEXT
 70
     0
 62
     5
420
      255
  6
Continuous
370
    -3
390
2FB7
347
2FE5
  0
LAYER
  5
300F
330
2FAA
100
AcDbSymbolTableRecord
100
AcDbLayerTableRecord
  2
CUTS
 70
     0
 62
     1
420
 16711680
  6
Continuous
370
    -3
390
2FB7
347
2FE5
  0
LAYER
  5
3010
330
2FAA
100
AcDbSymbolTableRecord
100
AcDbLayerTableRecord
  2
laser bed referance
 70
     0
 62
     3
420
    65280
  6
Continuous
370
    25
390
2FB7
347
2FE5
  0
LAYER
  5
3011
330
2FAA
100
AcDbSymbolTableRecord
100
AcDbLayerTableRecord
  2
Referance lines
 70
     0
 62
     2
420
 16776960
  6
Continuous
370
    25
390
2FB7
347
2FE5
  0
ENDTAB
  0
TABLE
  2
STYLE
  5
2FAB
330
0
100
AcDbSymbolTable
 70
     1
  0
STYLE
  5
2FB9
330
2FAB
100
AcDbSymbolTableRecord
100
AcDbTextStyleTableRecord
  2
Standard
 70
     0
 40
0.0
 41
1.0
 50
0.0
 71
     0
 42
0.2
  3
txt
  4

  0
ENDTAB
  0
TABLE
  2
VIEW
  5
2FAE
330
0
100
AcDbSymbolTable
 70
     0
  0
ENDTAB
  0
TABLE
  2
UCS
  5
2FAF
330
0
100
AcDbSymbolTable
 70
     0
  0
ENDTAB
  0
TABLE
  2
APPID
  5
2FB1
330
0
100
AcDbSymbolTable
 70
     2
  0
APPID
  5
2FBA
330
2FB1
100
AcDbSymbolTableRecord
100
AcDbRegAppTableRecord
  2
ACAD
 70
     0
  0
APPID
  5
2FE6
330
2FB1
100
AcDbSymbolTableRecord
100
AcDbRegAppTableRecord
  2
QCAD
 70
     0
  0
ENDTAB
  0
TABLE
  2
DIMSTYLE
  5
2FB2
330
0
100
AcDbSymbolTable
 70
     2
100
AcDbDimStyleTable
  0
DIMSTYLE
105
2FCE
330
2FB2
100
AcDbSymbolTableRecord
100
AcDbDimStyleTableRecord
  2
Standard
 70
     0
178
     0
340
2FB9
  0
DIMSTYLE
105
2FFB
330
2FB2
100
AcDbSymbolTableRecord
100
AcDbDimStyleTableRecord
  2
QCADDimStyle
 70
     0
 41
2.5
 42
0.625
 44
1.25
 73
     0
 77
     1
140
2.5
147
0.625
178
     0
340
2FB9
  0
ENDTAB
  0
TABLE
  2
BLOCK_RECORD
  5
2FA9
330
0
100
AcDbSymbolTable
 70
     1
  0
BLOCK_RECORD
  5
2FC6
330
2FA9
100
AcDbSymbolTableRecord
100
AcDbBlockTableRecord
  2
*Model_Space
340
2FC9
 70
     0
280
     1
281
     0
  0
BLOCK_RECORD
  5
2FC2
330
2FA9
100
AcDbSymbolTableRecord
100
AcDbBlockTableRecord
  2
*Paper_Space
340
2FC5
 70
     0
280
     1
281
     0
  0
BLOCK_RECORD
  5
2FCA
330
2FA9
100
AcDbSymbolTableRecord
100
AcDbBlockTableRecord
  2
*Paper_Space0
340
2FCD
 70
     0
280
     1
281
     0
  0
ENDTAB
  0
ENDSEC
  0
SECTION
  2
BLOCKS
  0
BLOCK
  5
2FC7
330
2FC6
100
AcDbEntity
  8
0
100
AcDbBlockBegin
  2
*Model_Space
 70
     0
 10
0.0
 20
0.0
 30
0.0
  3
*Model_Space
  1

  0
ENDBLK
  5
2FC8
330
2FC6
100
AcDbEntity
  8
0
100
AcDbBlockEnd
  0
BLOCK
  5
2FC3
330
2FC2
100
AcDbEntity
 67
     1
  8
0
100
AcDbBlockBegin
  2
*Paper_Space
 70
     0
 10
0.0
 20
0.0
 30
0.0
  3
*Paper_Space
  1

  0
ENDBLK
  5
2FC4
330
2FC2
100
AcDbEntity
 67
     1
  8
0
100
AcDbBlockEnd
  0
BLOCK
  5
2FCB
330
2FCA
100
AcDbEntity
  8
0
100
AcDbBlockBegin
  2
*Paper_Space0
 70
     0
 10
0.0
 20
0.0
 30
0.0
  3
*Paper_Space0
  1

  0
ENDBLK
  5
2FCC
330
2FCA
100
AcDbEntity
  8
0
100
AcDbBlockEnd
  0
ENDSEC
  0
SECTION
  2
ENTITIES
  0
SPLINE
  5
AF0
330
2FC6
100
AcDbEntity
  8
CUTS
 62
     1
420
 16711680
370
    25
100
AcDbSpline
210
0.0
220
0.0
230
1.0
 70
     8
 71
     3
 72
     8
 73
     4
 74
     0
 42
0.000000001
 43
0.001
 12
1.0
 22
0.0
 32
0.0
 13
1.0
 23
0.0
 33
0.0
 40
0.0
 40
0.0
 40
0.0
 40
0.0
 40
1.0
 40
1.0
 40
1.0
 40
1.0
 10
425.7404910219311
 20
171.4029015704316
 30
0.0
 10
426.292869771931
 20
171.4029015704316
 30
0.0
 10
426.7406160219311
 20
170.9551215704316
 30
0.0
 10
426.7406160219311
 20
170.4027765704316
 30
0.0
  0
SPLINE
  5
AF3
330
2FC6
100
AcDbEntity
  8
CUTS
 62
     1
420
 16711680
370
    25
100
AcDbSpline
210
0.0
220
0.0
230
1.0
 70
     8
 71
     3
 72
     8
 73
     4
 74
     0
 42
0.000000001
 43
0.001
 12
1.0
 22
0.0
 32
0.0
 13
1.0
 23
0.0
 33
0.0
 40
0.0
 40
0.0
 40
0.0
 40
0.0
 40
1.0
 40
1.0
 40
1.0
 40
1.0
 10
448.3380947719311
 20
148.7450440704317
 30
0.0
 10
448.3380947719311
 20
148.1928753204315
 30
0.0
 10
447.890489771931
 20
147.7452715704314
 30
0.0
 10
447.338322271931
 20
147.7452715704314
 30
0.0
  0
SPLINE
  5
AF4
330
2FC6
100
AcDbEntity
  8
CUTS
 62
     1
420
 16711680
370
    25
100
AcDbSpline
210
0.0
220
0.0
230
1.0
 70
     8
 71
     3
 72
     8
 73
     4
 74
     0
 42
0.000000001
 43
0.001
 12
1.0
 22
0.0
 32
0.0
 13
1.0
 23
0.0
 33
0.0
 40
0.0
 40
0.0
 40
0.0
 40
0.0
 40
1.0
 40
1.0
 40
1.0
 40
1.0
 10
447.338322271931
 20
147.7452715704314
 30
0.0
 10
446.786154771931
 20
147.7452715704314
 30
0.0
 10
446.3385497719312
 20
148.1928753204315
 30
0.0
 10
446.3385497719312
 20
148.7450440704317
 30
0.0
  0
SPLINE
  5
AF5
330
2FC6
100
AcDbEntity
  8
CUTS
 62
     1
420
 16711680
370
    25
100
AcDbSpline
210
0.0
220
0.0
230
1.0
 70
     8
 71
     3
 72
     8
 73
     4
 74
     0
 42
0.000000001
 43
0.001
 12
1.0
 22
0.0
 32
0.0
 13
1.0
 23
0.0
 33
0.0
 40
0.0
 40
0.0
 40
0.0
 40
0.0
 40
1.0
 40
1.0
 40
1.0
 40
1.0
 10
446.3385497719312
 20
148.7450440704317
 30
0.0
 10
446.3385497719312
 20
149.2972115704317
 30
0.0
 10
446.786154771931
 20
149.7448153204316
 30
0.0
 10
447.338322271931
 20
149.7448153204316
 30
0.0
  0
SPLINE
  5
AF6
330
2FC6
100
AcDbEntity
  8
CUTS
 62
     1
420
 16711680
370
    25
100
AcDbSpline
210
0.0
220
0.0
230
1.0
 70
     8
 71
     3
 72
     8
 73
     4
 74
     0
 42
0.000000001
 43
0.001
 12
1.0
 22
0.0
 32
0.0
 13
1.0
 23
0.0
 33
0.0
 40
0.0
 40
0.0
 40
0.0
 40
0.0
 40
1.0
 40
1.0
 40
1.0
 40
1.0
 10
447.338322271931
 20
149.7448153204316
 30
0.0
 10
447.890489771931
 20
149.7448153204316
 30
0.0
 10
448.3380947719311
 20
149.2972115704317
 30
0.0
 10
448.3380947719311
 20
148.7450440704317
 30
0.0
  0
SPLINE
  5
AF8
330
2FC6
100
AcDbEntity
  8
CUTS
 62
     1
420
 16711680
370
    25
100
AcDbSpline
210
0.0
220
0.0
230
1.0
 70
     8
 71
     3
 72
     8
 73
     4
 74
     0
 42
0.000000001
 43
0.001
 12
1.0
 22
0.0
 32
0.0
 13
1.0
 23
0.0
 33
0.0
 40
0.0
 40
0.0
 40
0.0
 40
0.0
 40
1.0
 40
1.0
 40
1.0
 40
1.0
 10
448.3380947719311
 20
170.4031303204317
 30
0.0
 10
448.3380947719311
 20
169.8509615704315
 30
0.0
 10
447.890489771931
 20
169.4033578204314
 30
0.0
 10
447.338322271931
 20
169.4033578204314
 30
0.0
  0
SPLINE
  5
AF9
330
2FC6
100
AcDbEntity
  8
CUTS
 62
     1
420
 16711680
370
    25
100
AcDbSpline
210
0.0
220
0.0
230
1.0
 70
     8
 71
     3
 72
     8
 73
     4
 74
     0
 42
0.000000001
 43
0.001
 12
1.0
 22
0.0
 32
0.0
 13
1.0
 23
0.0
 33
0.0
 40
0.0
 40
0.0
 40
0.0
 40
0.0
 40
1.0
 40
1.0
 40
1.0
 40
1.0
 10
447.338322271931
 20
169.4033578204314
 30
0.0
 10
446.786154771931
 20
169.4033578204314
 30
0.0
 10
446.3385497719312
 20
169.8509615704315
 30
0.0
 10
446.3385497719312
 20
170.4031303204317
 30
0.0
  0
SPLINE
  5
AFA
330
2FC6
100
AcDbEntity
  8
CUTS
 62
     1
420
 16711680
370
    25
100
AcDbSpline
210
0.0
220
0.0
230
1.0
 70
     8
 71
     3
 72
     8
 73
     4
 74
     0
 42
0.000000001
 43
0.001
 12
1.0
 22
0.0
 32
0.0
 13
1.0
 23
0.0
 33
0.0
 40
0.0
 40
0.0
 40
0.0
 40
0.0
 40
1.0
 40
1.0
 40
1.0
 40
1.0
 10
446.3385497719312
 20
170.4031303204317
 30
0.0
 10
446.3385497719312
 20
170.9552628204317
 30
0.0
 10
446.786154771931
 20
171.4029015704316
 30
0.0
 10
447.338322271931
 20
171.4029015704316
 30
0.0
  0
SPLINE
  5
AFB
330
2FC6
100
AcDbEntity
  8
CUTS
 62
     1
420
 16711680
370
    25
100
AcDbSpline
210
0.0
220
0.0
230
1.0
 70
     8
 71
     3
 72
     8
 73
     4
 74
     0
 42
0.000000001
 43
0.001
 12
1.0
 22
0.0
 32
0.0
 13
1.0
 23
0.0
 33
0.0
 40
0.0
 40
0.0
 40
0.0
 40
0.0
 40
1.0
 40
1.0
 40
1.0
 40
1.0
 10
447.338322271931
 20
171.4029015704316
 30
0.0
 10
447.890489771931
 20
171.4029015704316
 30
0.0
 10
448.3380947719311
 20
170.9552628204317
 30
0.0
 10
448.3380947719311
 20
170.4031303204317
 30
0.0
  0
SPLINE
  5
AFD
330
2FC6
100
AcDbEntity
  8
CUTS
 62
     1
420
 16711680
370
    25
100
AcDbSpline
210
0.0
220
0.0
230
1.0
 70
     8
 71
     3
 72
     8
 73
     4
 74
     0
 42
0.000000001
 43
0.001
 12
1.0
 22
0.0
 32
0.0
 13
1.0
 23
0.0
 33
0.0
 40
0.0
 40
0.0
 40
0.0
 40
0.0
 40
1.0
 40
1.0
 40
1.0
 40
1.0
 10
426.6793035219312
 20
148.7450440704317
 30
0.0
 10
426.6793035219312
 20
148.1928753204315
 30
0.0
 10
426.2316985219311
 20
147.7452715704314
 30
0.0
 10
425.6795310219311
 20
147.7452715704314
 30
0.0
  0
SPLINE
  5
AFE
330
2FC6
100
AcDbEntity
  8
CUTS
 62
     1
420
 16711680
370
    25
100
AcDbSpline
210
0.0
220
0.0
230
1.0
 70
     8
 71
     3
 72
     8
 73
     4
 74
     0
 42
0.000000001
 43
0.001
 12
1.0
 22
0.0
 32
0.0
 13
1.0
 23
0.0
 33
0.0
 40
0.0
 40
0.0
 40
0.0
 40
0.0
 40
1.0
 40
1.0
 40
1.0
 40
1.0
 10
425.6795310219311
 20
147.7452715704314
 30
0.0
 10
425.1273635219311
 20
147.7452715704314
 30
0.0
 10
424.679758521931
 20
148.1928753204315
 30
0.0
 10
424.679758521931
 20
148.7450440704317
 30
0.0
  0
SPLINE
  5
AFF
330
2FC6
100
AcDbEntity
  8
CUTS
 62
     1
420
 16711680
370
    25
100
AcDbSpline
210
0.0
220
0.0
230
1.0
 70
     8
 71
     3
 72
     8
 73
     4
 74
     0
 42
0.000000001
 43
0.001
 12
1.0
 22
0.0
 32
0.0
 13
1.0
 23
0.0
 33
0.0
 40
0.0
 40
0.0
 40
0.0
 40
0.0
 40
1.0
 40
1.0
 40
1.0
 40
1.0
 10
424.679758521931
 20
148.7450440704317
 30
0.0
 10
424.679758521931
 20
149.2972115704317
 30
0.0
 10
425.1273635219311
 20
149.7448153204316
 30
0.0
 10
425.6795310219311
 20
149.7448153204316
 30
0.0
  0
SPLINE
  5
B00
330
2FC6
100
AcDbEntity
  8
CUTS
 62
     1
420
 16711680
370
    25
100
AcDbSpline
210
0.0
220
0.0
230
1.0
 70
     8
 71
     3
 72
     8
 73
     4
 74
     0
 42
0.000000001
 43
0.001
 12
1.0
 22
0.0
 32
0.0
 13
1.0
 23
0.0
 33
0.0
 40
0.0
 40
0.0
 40
0.0
 40
0.0
 40
1.0
 40
1.0
 40
1.0
 40
1.0
 10
425.6795310219311
 20
149.7448153204316
 30
0.0
 10
426.2316985219311
 20
149.7448153204316
 30
0.0
 10
426.6793035219312
 20
149.2972115704317
 30
0.0
 10
426.6793035219312
 20
148.7450440704317
 30
0.0
  0
SPLINE
  5
B03
330
2FC6
100
AcDbEntity
  8
CUTS
 62
     1
420
 16711680
370
    25
100
AcDbSpline
210
0.0
220
0.0
230
1.0
 70
     8
 71
     3
 72
     8
 73
     4
 74
     0
 42
0.000000001
 43
0.001
 12
1.0
 22
0.0
 32
0.0
 13
1.0
 23
0.0
 33
0.0
 40
0.0
 40
0.0
 40
0.0
 40
0.0
 40
1.0
 40
1.0
 40
1.0
 40
1.0
 10
318.093209771931
 20
207.0179353204314
 30
0.0
 10
318.093209771931
 20
205.3616440704315
 30
0.0
 10
319.4369397719313
 20
204.0179128204314
 30
0.0
 10
321.0932310219312
 20
204.0179128204314
 30
0.0
  0
SPLINE
  5
B04
330
2FC6
100
AcDbEntity
  8
CUTS
 62
     1
420
 16711680
370
    25
100
AcDbSpline
210
0.0
220
0.0
230
1.0
 70
     8
 71
     3
 72
     8
 73
     4
 74
     0
 42
0.000000001
 43
0.001
 12
1.0
 22
0.0
 32
0.0
 13
1.0
 23
0.0
 33
0.0
 40
0.0
 40
0.0
 40
0.0
 40
0.0
 40
1.0
 40
1.0
 40
1.0
 40
1.0
 10
321.0932310219312
 20
204.0179128204314
 30
0.0
 10
322.749523521931
 20
204.0179128204314
 30
0.0
 10
324.093253521931
 20
205.3619965704324
 30
0.0
 10
324.093253521931
 20
207.0179353204314
 30
0.0
  0
SPLINE
  5
B05
330
2FC6
100
AcDbEntity
  8
CUTS
 62
     1
420
 16711680
370
    25
100
AcDbSpline
210
0.0
220
0.0
230
1.0
 70
     8
 71
     3
 72
     8
 73
     4
 74
     0
 42
0.000000001
 43
0.001
 12
1.0
 22
0.0
 32
0.0
 13
1.0
 23
0.0
 33
0.0
 40
0.0
 40
0.0
 40
0.0
 40
0.0
 40
1.0
 40
1.0
 40
1.0
 40
1.0
 10
324.093253521931
 20
207.0179353204314
 30
0.0
 10
324.093253521931
 20
208.1277740704314
 30
0.0
 10
323.3884035219312
 20
209.0947378204324
 30
0.0
 10
322.4927010219312
 20
209.6136740704325
 30
0.0
  0
SPLINE
  5
B07
330
2FC6
100
AcDbEntity
  8
CUTS
 62
     1
420
 16711680
370
    25
100
AcDbSpline
210
0.0
220
0.0
230
1.0
 70
     8
 71
     3
 72
     8
 73
     4
 74
     0
 42
0.000000001
 43
0.001
 12
1.0
 22
0.0
 32
0.0
 13
1.0
 23
0.0
 33
0.0
 40
0.0
 40
0.0
 40
0.0
 40
0.0
 40
1.0
 40
1.0
 40
1.0
 40
1.0
 10
322.4927010219312
 20
213.6145265704315
 30
0.0
 10
322.4927010219312
 20
214.4424965704325
 30
0.0
 10
321.9222597719311
 20
215.1141853204315
 30
0.0
 10
321.0932310219312
 20
215.1141853204315
 30
0.0
  0
SPLINE
  5
B08
330
2FC6
100
AcDbEntity
  8
CUTS
 62
     1
420
 16711680
370
    25
100
AcDbSpline
210
0.0
220
0.0
230
1.0
 70
     8
 71
     3
 72
     8
 73
     4
 74
     0
 42
0.000000001
 43
0.001
 12
1.0
 22
0.0
 32
0.0
 13
1.0
 23
0.0
 33
0.0
 40
0.0
 40
0.0
 40
0.0
 40
0.0
 40
1.0
 40
1.0
 40
1.0
 40
1.0
 10
321.0932310219312
 20
215.1141853204315
 30
0.0
 10
320.2649097719311
 20
215.1141853204315
 30
0.0
 10
319.6930560219312
 20
214.4424965704325
 30
0.0
 10
319.6930560219312
 20
213.6145265704315
 30
0.0
  0
LWPOLYLINE
  5
B09
330
2FC6
100
AcDbEntity
  8
CUTS
 62
     1
420
 16711680
370
    25
100
AcDbPolyline
 90
        2
 70
     0
 43
0.0
 10
322.4927010219312
 20
209.6136740704325
 10
322.4927010219312
 20
213.6145265704315
  0
SPLINE
  5
B0A
330
2FC6
100
AcDbEntity
  8
CUTS
 62
     1
420
 16711680
370
    25
100
AcDbSpline
210
0.0
220
0.0
230
1.0
 70
     8
 71
     3
 72
     8
 73
     4
 74
     0
 42
0.000000001
 43
0.001
 12
1.0
 22
0.0
 32
0.0
 13
1.0
 23
0.0
 33
0.0
 40
0.0
 40
0.0
 40
0.0
 40
0.0
 40
1.0
 40
1.0
 40
1.0
 40
1.0
 10
319.6930560219312
 20
209.6136740704325
 30
0.0
 10
318.7973535219312
 20
209.0950903204315
 30
0.0
 10
318.093209771931
 20
208.1281265704325
 30
0.0
 10
318.093209771931
 20
207.0179353204314
 30
0.0
  0
LWPOLYLINE
  5
B0B
330
2FC6
100
AcDbEntity
  8
CUTS
 62
     1
420
 16711680
370
    25
100
AcDbPolyline
 90
        2
 70
     0
 43
0.0
 10
319.6930560219312
 20
213.6145265704315
 10
319.6930560219312
 20
209.6136740704325
  0
SPLINE
  5
B0D
330
2FC6
100
AcDbEntity
  8
CUTS
 62
     1
420
 16711680
370
    25
100
AcDbSpline
210
0.0
220
0.0
230
1.0
 70
     8
 71
     3
 72
     8
 73
     4
 74
     0
 42
0.000000001
 43
0.001
 12
1.0
 22
0.0
 32
0.0
 13
1.0
 23
0.0
 33
0.0
 40
0.0
 40
0.0
 40
0.0
 40
0.0
 40
1.0
 40
1.0
 40
1.0
 40
1.0
 10
318.093209771931
 20
100.2857240704318
 30
0.0
 10
318.093209771931
 20
98.62943282043148
 30
0.0
 10
319.4369397719313
 20
97.28605532043161
 30
0.0
 10
321.0932310219312
 20
97.28605532043161
 30
0.0
  0
SPLINE
  5
B0E
330
2FC6
100
AcDbEntity
  8
CUTS
 62
     1
420
 16711680
370
    25
100
AcDbSpline
210
0.0
220
0.0
230
1.0
 70
     8
 71
     3
 72
     8
 73
     4
 74
     0
 42
0.000000001
 43
0.001
 12
1.0
 22
0.0
 32
0.0
 13
1.0
 23
0.0
 33
0.0
 40
0.0
 40
0.0
 40
0.0
 40
0.0
 40
1.0
 40
1.0
 40
1.0
 40
1.0
 10
321.0932310219312
 20
97.28605532043161
 30
0.0
 10
322.749523521931
 20
97.28605532043161
 30
0.0
 10
324.093253521931
 20
98.62943282043148
 30
0.0
 10
324.093253521931
 20
100.2857240704318
 30
0.0
  0
SPLINE
  5
B0F
330
2FC6
100
AcDbEntity
  8
CUTS
 62
     1
420
 16711680
370
    25
100
AcDbSpline
210
0.0
220
0.0
230
1.0
 70
     8
 71
     3
 72
     8
 73
     4
 74
     0
 42
0.000000001
 43
0.001
 12
1.0
 22
0.0
 32
0.0
 13
1.0
 23
0.0
 33
0.0
 40
0.0
 40
0.0
 40
0.0
 40
0.0
 40
1.0
 40
1.0
 40
1.0
 40
1.0
 10
324.093253521931
 20
100.2857240704318
 30
0.0
 10
324.093253521931
 20
101.3959153204316
 30
0.0
 10
323.3884035219312
 20
102.3625265704316
 30
0.0
 10
322.4927010219312
 20
102.8814628204316
 30
0.0
  0
SPLINE
  5
B11
330
2FC6
100
AcDbEntity
  8
CUTS
 62
     1
420
 16711680
370
    25
100
AcDbSpline
210
0.0
220
0.0
230
1.0
 70
     8
 71
     3
 72
     8
 73
     4
 74
     0
 42
0.000000001
 43
0.001
 12
1.0
 22
0.0
 32
0.0
 13
1.0
 23
0.0
 33
0.0
 40
0.0
 40
0.0
 40
0.0
 40
0.0
 40
1.0
 40
1.0
 40
1.0
 40
1.0
 10
322.4927010219312
 20
106.8826690704316
 30
0.0
 10
322.4927010219312
 20
107.7109903204316
 30
0.0
 10
321.9222597719311
 20
108.3826803204315
 30
0.0
 10
321.0932310219312
 20
108.3826803204315
 30
0.0
  0
SPLINE
  5
B12
330
2FC6
100
AcDbEntity
  8
CUTS
 62
     1
420
 16711680
370
    25
100
AcDbSpline
210
0.0
220
0.0
230
1.0
 70
     8
 71
     3
 72
     8
 73
     4
 74
     0
 42
0.000000001
 43
0.001
 12
1.0
 22
0.0
 32
0.0
 13
1.0
 23
0.0
 33
0.0
 40
0.0
 40
0.0
 40
0.0
 40
0.0
 40
1.0
 40
1.0
 40
1.0
 40
1.0
 10
321.0932310219312
 20
108.3826803204315
 30
0.0
 10
320.2649097719311
 20
108.3826803204315
 30
0.0
 10
319.6930560219312
 20
107.7106378204317
 30
0.0
 10
319.6930560219312
 20
106.8826690704316
 30
0.0
  0
LWPOLYLINE
  5
B13
330
2FC6
100
AcDbEntity
  8
CUTS
 62
     1
420
 16711680
370
    25
100
AcDbPolyline
 90
        2
 70
     0
 43
0.0
 10
322.4927010219312
 20
102.8814628204316
 10
322.4927010219312
 20
106.8826690704316
  0
SPLINE
  5
B14
330
2FC6
100
AcDbEntity
  8
CUTS
 62
     1
420
 16711680
370
    25
100
AcDbSpline
210
0.0
220
0.0
230
1.0
 70
     8
 71
     3
 72
     8
 73
     4
 74
     0
 42
0.000000001
 43
0.001
 12
1.0
 22
0.0
 32
0.0
 13
1.0
 23
0.0
 33
0.0
 40
0.0
 40
0.0
 40
0.0
 40
0.0
 40
1.0
 40
1.0
 40
1.0
 40
1.0
 10
319.6930560219312
 20
102.8814628204316
 30
0.0
 10
318.7973535219312
 20
102.3625265704316
 30
0.0
 10
318.093209771931
 20
101.3959153204316
 30
0.0
 10
318.093209771931
 20
100.2857240704318
 30
0.0
  0
LWPOLYLINE
  5
B15
330
2FC6
100
AcDbEntity
  8
CUTS
 62
     1
420
 16711680
370
    25
100
AcDbPolyline
 90
        2
 70
     0
 43
0.0
 10
319.6930560219312
 20
106.8826690704316
 10
319.6930560219312
 20
102.8814628204316
  0
SPLINE
  5
B17
330
2FC6
100
AcDbEntity
  8
CUTS
 62
     1
420
 16711680
370
    25
100
AcDbSpline
210
0.0
220
0.0
230
1.0
 70
     8
 71
     3
 72
     8
 73
     4
 74
     0
 42
0.000000001
 43
0.001
 12
1.0
 22
0.0
 32
0.0
 13
1.0
 23
0.0
 33
0.0
 40
0.0
 40
0.0
 40
0.0
 40
0.0
 40
1.0
 40
1.0
 40
1.0
 40
1.0
 10
548.9164147719312
 20
207.1615153204325
 30
0.0
 10
548.9164147719312
 20
205.5052240704315
 30
0.0
 10
550.2601460219312
 20
204.1614940704314
 30
0.0
 10
551.916437271931
 20
204.1614940704314
 30
0.0
  0
SPLINE
  5
B18
330
2FC6
100
AcDbEntity
  8
CUTS
 62
     1
420
 16711680
370
    25
100
AcDbSpline
210
0.0
220
0.0
230
1.0
 70
     8
 71
     3
 72
     8
 73
     4
 74
     0
 42
0.000000001
 43
0.001
 12
1.0
 22
0.0
 32
0.0
 13
1.0
 23
0.0
 33
0.0
 40
0.0
 40
0.0
 40
0.0
 40
0.0
 40
1.0
 40
1.0
 40
1.0
 40
1.0
 10
551.916437271931
 20
204.1614940704314
 30
0.0
 10
553.5727285219311
 20
204.1614940704314
 30
0.0
 10
554.9164597719312
 20
205.5052240704315
 30
0.0
 10
554.9164597719312
 20
207.1615153204325
 30
0.0
  0
SPLINE
  5
B19
330
2FC6
100
AcDbEntity
  8
CUTS
 62
     1
420
 16711680
370
    25
100
AcDbSpline
210
0.0
220
0.0
230
1.0
 70
     8
 71
     3
 72
     8
 73
     4
 74
     0
 42
0.000000001
 43
0.001
 12
1.0
 22
0.0
 32
0.0
 13
1.0
 23
0.0
 33
0.0
 40
0.0
 40
0.0
 40
0.0
 40
0.0
 40
1.0
 40
1.0
 40
1.0
 40
1.0
 10
554.9164597719312
 20
207.1615153204325
 30
0.0
 10
554.9164597719312
 20
208.2713553204314
 30
0.0
 10
554.2116097719311
 20
209.2379653204315
 30
0.0
 10
553.3159060219311
 20
209.7569015704315
 30
0.0
  0
SPLINE
  5
B1B
330
2FC6
100
AcDbEntity
  8
CUTS
 62
     1
420
 16711680
370
    25
100
AcDbSpline
210
0.0
220
0.0
230
1.0
 70
     8
 71
     3
 72
     8
 73
     4
 74
     0
 42
0.000000001
 43
0.001
 12
1.0
 22
0.0
 32
0.0
 13
1.0
 23
0.0
 33
0.0
 40
0.0
 40
0.0
 40
0.0
 40
0.0
 40
1.0
 40
1.0
 40
1.0
 40
1.0
 10
553.3159060219311
 20
213.7577553204325
 30
0.0
 10
553.3159060219311
 20
214.5857240704315
 30
0.0
 10
552.745464771931
 20
215.2577653204314
 30
0.0
 10
551.916437271931
 20
215.2577653204314
 30
0.0
  0
SPLINE
  5
B1C
330
2FC6
100
AcDbEntity
  8
CUTS
 62
     1
420
 16711680
370
    25
100
AcDbSpline
210
0.0
220
0.0
230
1.0
 70
     8
 71
     3
 72
     8
 73
     4
 74
     0
 42
0.000000001
 43
0.001
 12
1.0
 22
0.0
 32
0.0
 13
1.0
 23
0.0
 33
0.0
 40
0.0
 40
0.0
 40
0.0
 40
0.0
 40
1.0
 40
1.0
 40
1.0
 40
1.0
 10
551.916437271931
 20
215.2577653204314
 30
0.0
 10
551.088114771931
 20
215.2577653204314
 30
0.0
 10
550.516262271931
 20
214.5857240704315
 30
0.0
 10
550.516262271931
 20
213.7577553204325
 30
0.0
  0
LWPOLYLINE
  5
B1D
330
2FC6
100
AcDbEntity
  8
CUTS
 62
     1
420
 16711680
370
    25
100
AcDbPolyline
 90
        2
 70
     0
 43
0.0
 10
553.3159060219311
 20
209.7569015704315
 10
553.3159060219311
 20
213.7577553204325
  0
SPLINE
  5
B1E
330
2FC6
100
AcDbEntity
  8
CUTS
 62
     1
420
 16711680
370
    25
100
AcDbSpline
210
0.0
220
0.0
230
1.0
 70
     8
 71
     3
 72
     8
 73
     4
 74
     0
 42
0.000000001
 43
0.001
 12
1.0
 22
0.0
 32
0.0
 13
1.0
 23
0.0
 33
0.0
 40
0.0
 40
0.0
 40
0.0
 40
0.0
 40
1.0
 40
1.0
 40
1.0
 40
1.0
 10
550.516262271931
 20
209.7569015704315
 30
0.0
 10
549.6205597719311
 20
209.2379653204315
 30
0.0
 10
548.9164147719312
 20
208.2717078204324
 30
0.0
 10
548.9164147719312
 20
207.1615153204325
 30
0.0
  0
LWPOLYLINE
  5
B1F
330
2FC6
100
AcDbEntity
  8
CUTS
 62
     1
420
 16711680
370
    25
100
AcDbPolyline
 90
        2
 70
     0
 43
0.0
 10
550.516262271931
 20
213.7577553204325
 10
550.516262271931
 20
209.7569015704315
  0
SPLINE
  5
B21
330
2FC6
100
AcDbEntity
  8
CUTS
 62
     1
420
 16711680
370
    25
100
AcDbSpline
210
0.0
220
0.0
230
1.0
 70
     8
 71
     3
 72
     8
 73
     4
 74
     0
 42
0.000000001
 43
0.001
 12
1.0
 22
0.0
 32
0.0
 13
1.0
 23
0.0
 33
0.0
 40
0.0
 40
0.0
 40
0.0
 40
0.0
 40
1.0
 40
1.0
 40
1.0
 40
1.0
 10
548.9164147719312
 20
100.3873240704318
 30
0.0
 10
548.9164147719312
 20
98.73103282043144
 30
0.0
 10
550.2601460219312
 20
97.38694907043168
 30
0.0
 10
551.916437271931
 20
97.38694907043168
 30
0.0
  0
SPLINE
  5
B22
330
2FC6
100
AcDbEntity
  8
CUTS
 62
     1
420
 16711680
370
    25
100
AcDbSpline
210
0.0
220
0.0
230
1.0
 70
     8
 71
     3
 72
     8
 73
     4
 74
     0
 42
0.000000001
 43
0.001
 12
1.0
 22
0.0
 32
0.0
 13
1.0
 23
0.0
 33
0.0
 40
0.0
 40
0.0
 40
0.0
 40
0.0
 40
1.0
 40
1.0
 40
1.0
 40
1.0
 10
551.916437271931
 20
97.38694907043168
 30
0.0
 10
553.5727285219311
 20
97.38694907043168
 30
0.0
 10
554.9164597719312
 20
98.73103282043144
 30
0.0
 10
554.9164597719312
 20
100.3873240704318
 30
0.0
  0
SPLINE
  5
B23
330
2FC6
100
AcDbEntity
  8
CUTS
 62
     1
420
 16711680
370
    25
100
AcDbSpline
210
0.0
220
0.0
230
1.0
 70
     8
 71
     3
 72
     8
 73
     4
 74
     0
 42
0.000000001
 43
0.001
 12
1.0
 22
0.0
 32
0.0
 13
1.0
 23
0.0
 33
0.0
 40
0.0
 40
0.0
 40
0.0
 40
0.0
 40
1.0
 40
1.0
 40
1.0
 40
1.0
 10
554.9164597719312
 20
100.3873240704318
 30
0.0
 10
554.9164597719312
 20
101.4971628204316
 30
0.0
 10
554.2116097719311
 20
102.4641265704315
 30
0.0
 10
553.3159060219311
 20
102.9827103204316
 30
0.0
  0
SPLINE
  5
B25
330
2FC6
100
AcDbEntity
  8
CUTS
 62
     1
420
 16711680
370
    25
100
AcDbSpline
210
0.0
220
0.0
230
1.0
 70
     8
 71
     3
 72
     8
 73
     4
 74
     0
 42
0.000000001
 43
0.001
 12
1.0
 22
0.0
 32
0.0
 13
1.0
 23
0.0
 33
0.0
 40
0.0
 40
0.0
 40
0.0
 40
0.0
 40
1.0
 40
1.0
 40
1.0
 40
1.0
 10
553.3159060219311
 20
106.9832103204315
 30
0.0
 10
553.3159060219311
 20
107.8115328204315
 30
0.0
 10
552.745464771931
 20
108.4832215704316
 30
0.0
 10
551.916437271931
 20
108.4832215704316
 30
0.0
  0
SPLINE
  5
B26
330
2FC6
100
AcDbEntity
  8
CUTS
 62
     1
420
 16711680
370
    25
100
AcDbSpline
210
0.0
220
0.0
230
1.0
 70
     8
 71
     3
 72
     8
 73
     4
 74
     0
 42
0.000000001
 43
0.001
 12
1.0
 22
0.0
 32
0.0
 13
1.0
 23
0.0
 33
0.0
 40
0.0
 40
0.0
 40
0.0
 40
0.0
 40
1.0
 40
1.0
 40
1.0
 40
1.0
 10
551.916437271931
 20
108.4832215704316
 30
0.0
 10
551.088114771931
 20
108.4832215704316
 30
0.0
 10
550.516262271931
 20
107.8111803204317
 30
0.0
 10
550.516262271931
 20
106.9832103204315
 30
0.0
  0
LWPOLYLINE
  5
B27
330
2FC6
100
AcDbEntity
  8
CUTS
 62
     1
420
 16711680
370
    25
100
AcDbPolyline
 90
        2
 70
     0
 43
0.0
 10
553.3159060219311
 20
102.9827103204316
 10
553.3159060219311
 20
106.9832103204315
  0
SPLINE
  5
B28
330
2FC6
100
AcDbEntity
  8
CUTS
 62
     1
420
 16711680
370
    25
100
AcDbSpline
210
0.0
220
0.0
230
1.0
 70
     8
 71
     3
 72
     8
 73
     4
 74
     0
 42
0.000000001
 43
0.001
 12
1.0
 22
0.0
 32
0.0
 13
1.0
 23
0.0
 33
0.0
 40
0.0
 40
0.0
 40
0.0
 40
0.0
 40
1.0
 40
1.0
 40
1.0
 40
1.0
 10
550.516262271931
 20
102.9827103204316
 30
0.0
 10
549.6205597719311
 20
102.4641265704315
 30
0.0
 10
548.9164147719312
 20
101.4975153204316
 30
0.0
 10
548.9164147719312
 20
100.3873240704318
 30
0.0
  0
LWPOLYLINE
  5
B29
330
2FC6
100
AcDbEntity
  8
CUTS
 62
     1
420
 16711680
370
    25
100
AcDbPolyline
 90
        2
 70
     0
 43
0.0
 10
550.516262271931
 20
106.9832103204315
 10
550.516262271931
 20
102.9827103204316
  0
SPLINE
  5
B2B
330
2FC6
100
AcDbEntity
  8
CUTS
 62
     1
420
 16711680
370
    25
100
AcDbSpline
210
0.0
220
0.0
230
1.0
 70
     8
 71
     3
 72
     8
 73
     4
 74
     0
 42
0.000000001
 43
0.001
 12
1.0
 22
0.0
 32
0.0
 13
1.0
 23
0.0
 33
0.0
 40
0.0
 40
0.0
 40
0.0
 40
0.0
 40
1.0
 40
1.0
 40
1.0
 40
1.0
 10
321.5070397719312
 20
38.55631532043139
 30
0.0
 10
318.1923397719313
 20
38.55631532043139
 30
0.0
 10
315.5062897719311
 20
41.24236532043165
 30
0.0
 10
315.5062897719311
 20
44.55636032043162
 30
0.0
  0
SPLINE
  5
B2C
330
2FC6
100
AcDbEntity
  8
CUTS
 62
     1
420
 16711680
370
    25
100
AcDbSpline
210
0.0
220
0.0
230
1.0
 70
     8
 71
     3
 72
     8
 73
     4
 74
     0
 42
0.000000001
 43
0.001
 12
1.0
 22
0.0
 32
0.0
 13
1.0
 23
0.0
 33
0.0
 40
0.0
 40
0.0
 40
0.0
 40
0.0
 40
1.0
 40
1.0
 40
1.0
 40
1.0
 10
315.5062897719311
 20
274.5568878204315
 30
0.0
 10
315.5062897719311
 20
277.8705303204324
 30
0.0
 10
318.1919872719311
 20
280.5569328204324
 30
0.0
 10
321.5070397719312
 20
280.5569328204324
 30
0.0
  0
LWPOLYLINE
  5
B2D
330
2FC6
100
AcDbEntity
  8
CUTS
 62
     1
420
 16711680
370
    25
100
AcDbPolyline
 90
        2
 70
     0
 43
0.0
 10
315.5062897719311
 20
44.55636032043162
 10
315.5062897719311
 20
274.5568878204315
  0
SPLINE
  5
B2E
330
2FC6
100
AcDbEntity
  8
CUTS
 62
     1
420
 16711680
370
    25
100
AcDbSpline
210
0.0
220
0.0
230
1.0
 70
     8
 71
     3
 72
     8
 73
     4
 74
     0
 42
0.000000001
 43
0.001
 12
1.0
 22
0.0
 32
0.0
 13
1.0
 23
0.0
 33
0.0
 40
0.0
 40
0.0
 40
0.0
 40
0.0
 40
1.0
 40
1.0
 40
1.0
 40
1.0
 10
551.5082735219312
 20
280.5569328204324
 30
0.0
 10
554.8226210219311
 20
280.5569328204324
 30
0.0
 10
557.5090235219311
 20
277.8705303204324
 30
0.0
 10
557.5090235219311
 20
274.5568878204315
 30
0.0
  0
LWPOLYLINE
  5
B2F
330
2FC6
100
AcDbEntity
  8
CUTS
 62
     1
420
 16711680
370
    25
100
AcDbPolyline
 90
        2
 70
     0
 43
0.0
 10
321.5070397719312
 20
280.5569328204324
 10
551.5082735219312
 20
280.5569328204324
  0
SPLINE
  5
B30
330
2FC6
100
AcDbEntity
  8
CUTS
 62
     1
420
 16711680
370
    25
100
AcDbSpline
210
0.0
220
0.0
230
1.0
 70
     8
 71
     3
 72
     8
 73
     4
 74
     0
 42
0.000000001
 43
0.001
 12
1.0
 22
0.0
 32
0.0
 13
1.0
 23
0.0
 33
0.0
 40
0.0
 40
0.0
 40
0.0
 40
0.0
 40
1.0
 40
1.0
 40
1.0
 40
1.0
 10
557.5090235219311
 20
44.55636032043162
 30
0.0
 10
557.5090235219311
 20
41.24236532043165
 30
0.0
 10
554.8226210219311
 20
38.55631532043139
 30
0.0
 10
551.5082735219312
 20
38.55631532043139
 30
0.0
  0
LWPOLYLINE
  5
B31
330
2FC6
100
AcDbEntity
  8
CUTS
 62
     1
420
 16711680
370
    25
100
AcDbPolyline
 90
        2
 70
     0
 43
0.0
 10
557.5090235219311
 20
274.5568878204315
 10
557.5090235219311
 20
44.55636032043162
  0
LWPOLYLINE
  5
B32
330
2FC6
100
AcDbEntity
  8
CUTS
 62
     1
420
 16711680
370
    25
100
AcDbPolyline
 90
        3
 70
     0
 43
0.0
 10
551.5082735219312
 20
38.55631532043139
 10
321.5070397719312
 20
38.55631532043139
 10
321.5070397719312
 20
38.55631532043139
  0
LWPOLYLINE
  5
B33
330
2FC6
100
AcDbEntity
  8
TEXT
 62
     5
420
      255
370
    25
100
AcDbPolyline
 90
        3
 70
     0
 43
0.0
 10
322.4461347719312
 20
49.55486907043155
 10
326.5051960219312
 20
49.55486907043155
 10
550.567062271931
 20
49.55486907043155
  0
LWPOLYLINE
  5
B34
330
2FC6
100
AcDbEntity
  8
TEXT
 62
     5
420
      255
370
    25
100
AcDbPolyline
 90
        2
 70
     0
 43
0.0
 10
550.567062271931
 20
59.55541282043168
 10
546.5083185219312
 20
59.55541282043168
  0
LWPOLYLINE
  5
B35
330
2FC6
100
AcDbEntity
  8
TEXT
 62
     5
420
      255
370
    25
100
AcDbPolyline
 90
        2
 70
     0
 43
0.0
 10
322.4460985219312
 20
59.55541282043168
 10
326.5052310219312
 20
59.55541282043168
  0
LWPOLYLINE
  5
B36
330
2FC6
100
AcDbEntity
  8
TEXT
 62
     5
420
      255
370
    25
100
AcDbPolyline
 90
        2
 70
     0
 43
0.0
 10
550.567062271931
 20
69.55486407043168
 10
546.5083185219312
 20
69.55486407043168
  0
LWPOLYLINE
  5
B37
330
2FC6
100
AcDbEntity
  8
TEXT
 62
     5
420
      255
370
    25
100
AcDbPolyline
 90
        2
 70
     0
 43
0.0
 10
322.4460985219312
 20
69.55486407043168
 10
326.5052310219312
 20
69.55486407043168
  0
LWPOLYLINE
  5
B38
330
2FC6
100
AcDbEntity
  8
TEXT
 62
     5
420
      255
370
    25
100
AcDbPolyline
 90
        2
 70
     0
 43
0.0
 10
322.4460985219312
 20
79.55544407043158
 10
326.5052310219312
 20
79.55544407043158
  0
LWPOLYLINE
  5
B39
330
2FC6
100
AcDbEntity
  8
TEXT
 62
     5
420
      255
370
    25
100
AcDbPolyline
 90
        2
 70
     0
 43
0.0
 10
550.567062271931
 20
79.55544407043158
 10
546.5083185219312
 20
79.55544407043158
  0
LWPOLYLINE
  5
B3A
330
2FC6
100
AcDbEntity
  8
TEXT
 62
     5
420
      255
370
    25
100
AcDbPolyline
 90
        2
 70
     0
 43
0.0
 10
550.567062271931
 20
89.55528282043156
 10
546.5083185219312
 20
89.55528282043156
  0
LWPOLYLINE
  5
B3B
330
2FC6
100
AcDbEntity
  8
TEXT
 62
     5
420
      255
370
    25
100
AcDbPolyline
 90
        2
 70
     0
 43
0.0
 10
322.4460985219312
 20
89.55528282043156
 10
326.5052310219312
 20
89.55528282043156
  0
LWPOLYLINE
  5
B3C
330
2FC6
100
AcDbEntity
  8
TEXT
 62
     5
420
      255
370
    25
100
AcDbPolyline
 90
        2
 70
     0
 43
0.0
 10
550.567062271931
 20
99.55579157043144
 10
546.5083185219312
 20
99.55579157043144
  0
LWPOLYLINE
  5
B3D
330
2FC6
100
AcDbEntity
  8
TEXT
 62
     5
420
      255
370
    25
100
AcDbPolyline
 90
        2
 70
     0
 43
0.0
 10
322.4460985219312
 20
99.55579157043144
 10
326.5052310219312
 20
99.55579157043144
  0
LWPOLYLINE
  5
B3E
330
2FC6
100
AcDbEntity
  8
TEXT
 62
     5
420
      255
370
    25
100
AcDbPolyline
 90
        2
 70
     0
 43
0.0
 10
322.4460985219312
 20
109.5553128204317
 10
326.5052310219312
 20
109.5553128204317
  0
LWPOLYLINE
  5
B3F
330
2FC6
100
AcDbEntity
  8
TEXT
 62
     5
420
      255
370
    25
100
AcDbPolyline
 90
        2
 70
     0
 43
0.0
 10
550.567062271931
 20
109.5553128204317
 10
546.5083185219312
 20
109.5553128204317
  0
LWPOLYLINE
  5
B40
330
2FC6
100
AcDbEntity
  8
TEXT
 62
     5
420
      255
370
    25
100
AcDbPolyline
 90
        2
 70
     0
 43
0.0
 10
550.567062271931
 20
119.5558928204316
 10
546.5083185219312
 20
119.5558928204316
  0
LWPOLYLINE
  5
B41
330
2FC6
100
AcDbEntity
  8
TEXT
 62
     5
420
      255
370
    25
100
AcDbPolyline
 90
        2
 70
     0
 43
0.0
 10
322.4460985219312
 20
119.5558928204316
 10
326.5052310219312
 20
119.5558928204316
  0
LWPOLYLINE
  5
B42
330
2FC6
100
AcDbEntity
  8
TEXT
 62
     5
420
      255
370
    25
100
AcDbPolyline
 90
        2
 70
     0
 43
0.0
 10
550.567062271931
 20
129.5553440704314
 10
546.5083185219312
 20
129.5553440704314
  0
LWPOLYLINE
  5
B43
330
2FC6
100
AcDbEntity
  8
TEXT
 62
     5
420
      255
370
    25
100
AcDbPolyline
 90
        2
 70
     0
 43
0.0
 10
322.4460985219312
 20
129.5553440704314
 10
326.5052310219312
 20
129.5553440704314
  0
LWPOLYLINE
  5
B44
330
2FC6
100
AcDbEntity
  8
TEXT
 62
     5
420
      255
370
    25
100
AcDbPolyline
 90
        2
 70
     0
 43
0.0
 10
322.4460985219312
 20
139.5558878204317
 10
326.5052310219312
 20
139.5558878204317
  0
LWPOLYLINE
  5
B45
330
2FC6
100
AcDbEntity
  8
TEXT
 62
     5
420
      255
370
    25
100
AcDbPolyline
 90
        2
 70
     0
 43
0.0
 10
550.567062271931
 20
139.5558878204317
 10
546.5083185219312
 20
139.5558878204317
  0
LWPOLYLINE
  5
B46
330
2FC6
100
AcDbEntity
  8
TEXT
 62
     5
420
      255
370
    25
100
AcDbPolyline
 90
        2
 70
     0
 43
0.0
 10
550.567062271931
 20
149.5557265704317
 10
546.5083185219312
 20
149.5557265704317
  0
LWPOLYLINE
  5
B47
330
2FC6
100
AcDbEntity
  8
TEXT
 62
     5
420
      255
370
    25
100
AcDbPolyline
 90
        2
 70
     0
 43
0.0
 10
322.4460985219312
 20
149.5557265704317
 10
326.5052310219312
 20
149.5557265704317
  0
LWPOLYLINE
  5
B48
330
2FC6
100
AcDbEntity
  8
TEXT
 62
     5
420
      255
370
    25
100
AcDbPolyline
 90
        2
 70
     0
 43
0.0
 10
550.567062271931
 20
159.5562715704316
 10
546.5083185219312
 20
159.5562715704316
  0
LWPOLYLINE
  5
B49
330
2FC6
100
AcDbEntity
  8
TEXT
 62
     5
420
      255
370
    25
100
AcDbPolyline
 90
        2
 70
     0
 43
0.0
 10
322.4460985219312
 20
159.5562715704316
 10
326.5052310219312
 20
159.5562715704316
  0
LWPOLYLINE
  5
B4A
330
2FC6
100
AcDbEntity
  8
TEXT
 62
     5
420
      255
370
    25
100
AcDbPolyline
 90
        2
 70
     0
 43
0.0
 10
550.567062271931
 20
169.5561103204316
 10
546.5083185219312
 20
169.5561103204316
  0
LWPOLYLINE
  5
B4B
330
2FC6
100
AcDbEntity
  8
TEXT
 62
     5
420
      255
370
    25
100
AcDbPolyline
 90
        2
 70
     0
 43
0.0
 10
322.4460985219312
 20
169.5561103204316
 10
326.5052310219312
 20
169.5561103204316
  0
LWPOLYLINE
  5
B4C
330
2FC6
100
AcDbEntity
  8
TEXT
 62
     5
420
      255
370
    25
100
AcDbPolyline
 90
        2
 70
     0
 43
0.0
 10
322.4460985219312
 20
179.5566553204317
 10
326.5052310219312
 20
179.5566553204317
  0
LWPOLYLINE
  5
B4D
330
2FC6
100
AcDbEntity
  8
TEXT
 62
     5
420
      255
370
    25
100
AcDbPolyline
 90
        2
 70
     0
 43
0.0
 10
550.567062271931
 20
179.5566553204317
 10
546.5083185219312
 20
179.5566553204317
  0
LWPOLYLINE
  5
B4E
330
2FC6
100
AcDbEntity
  8
TEXT
 62
     5
420
      255
370
    25
100
AcDbPolyline
 90
        2
 70
     0
 43
0.0
 10
550.567062271931
 20
189.5565290704315
 10
546.5083185219312
 20
189.5565290704315
  0
LWPOLYLINE
  5
B4F
330
2FC6
100
AcDbEntity
  8
TEXT
 62
     5
420
      255
370
    25
100
AcDbPolyline
 90
        2
 70
     0
 43
0.0
 10
322.4460985219312
 20
189.5565290704315
 10
326.5052310219312
 20
189.5565290704315
  0
LWPOLYLINE
  5
B50
330
2FC6
100
AcDbEntity
  8
TEXT
 62
     5
420
      255
370
    25
100
AcDbPolyline
 90
        2
 70
     0
 43
0.0
 10
550.567062271931
 20
199.5566853204316
 10
546.5083185219312
 20
199.5566853204316
  0
LWPOLYLINE
  5
B51
330
2FC6
100
AcDbEntity
  8
TEXT
 62
     5
420
      255
370
    25
100
AcDbPolyline
 90
        2
 70
     0
 43
0.0
 10
322.4460985219312
 20
199.5566853204316
 10
326.5052310219312
 20
199.5566853204316
  0
LWPOLYLINE
  5
B52
330
2FC6
100
AcDbEntity
  8
TEXT
 62
     5
420
      255
370
    25
100
AcDbPolyline
 90
        2
 70
     0
 43
0.0
 10
322.4460985219312
 20
209.5565240704315
 10
326.5052310219312
 20
209.5565240704315
  0
LWPOLYLINE
  5
B53
330
2FC6
100
AcDbEntity
  8
TEXT
 62
     5
420
      255
370
    25
100
AcDbPolyline
 90
        2
 70
     0
 43
0.0
 10
550.567062271931
 20
209.5565240704315
 10
546.5083185219312
 20
209.5565240704315
  0
LWPOLYLINE
  5
B54
330
2FC6
100
AcDbEntity
  8
TEXT
 62
     5
420
      255
370
    25
100
AcDbPolyline
 90
        2
 70
     0
 43
0.0
 10
322.4460985219312
 20
219.5570690704315
 10
326.5052310219312
 20
219.5570690704315
  0
LWPOLYLINE
  5
B55
330
2FC6
100
AcDbEntity
  8
TEXT
 62
     5
420
      255
370
    25
100
AcDbPolyline
 90
        2
 70
     0
 43
0.0
 10
550.567062271931
 20
219.5570690704315
 10
546.5083185219312
 20
219.5570690704315
  0
LWPOLYLINE
  5
B56
330
2FC6
100
AcDbEntity
  8
TEXT
 62
     5
420
      255
370
    25
100
AcDbPolyline
 90
        2
 70
     0
 43
0.0
 10
550.567062271931
 20
229.5569078204314
 10
546.5083185219312
 20
229.5569078204314
  0
LWPOLYLINE
  5
B57
330
2FC6
100
AcDbEntity
  8
TEXT
 62
     5
420
      255
370
    25
100
AcDbPolyline
 90
        2
 70
     0
 43
0.0
 10
322.4460985219312
 20
229.5569078204314
 10
326.5052310219312
 20
229.5569078204314
  0
LWPOLYLINE
  5
B58
330
2FC6
100
AcDbEntity
  8
TEXT
 62
     5
420
      255
370
    25
100
AcDbPolyline
 90
        2
 70
     0
 43
0.0
 10
322.4460985219312
 20
239.5570640704316
 10
326.5052310219312
 20
239.5570640704316
  0
LWPOLYLINE
  5
B59
330
2FC6
100
AcDbEntity
  8
TEXT
 62
     5
420
      255
370
    25
100
AcDbPolyline
 90
        2
 70
     0
 43
0.0
 10
550.567062271931
 20
239.5570640704316
 10
546.5083185219312
 20
239.5570640704316
  0
LWPOLYLINE
  5
B5A
330
2FC6
100
AcDbEntity
  8
TEXT
 62
     5
420
      255
370
    25
100
AcDbPolyline
 90
        2
 70
     0
 43
0.0
 10
550.567062271931
 20
249.5569378204316
 10
546.5083185219312
 20
249.5569378204316
  0
LWPOLYLINE
  5
B5B
330
2FC6
100
AcDbEntity
  8
TEXT
 62
     5
420
      255
370
    25
100
AcDbPolyline
 90
        2
 70
     0
 43
0.0
 10
322.4460985219312
 20
249.5569378204316
 10
326.5052310219312
 20
249.5569378204316
  0
LWPOLYLINE
  5
B5C
330
2FC6
100
AcDbEntity
  8
TEXT
 62
     5
420
      255
370
    25
100
AcDbPolyline
 90
        2
 70
     0
 43
0.0
 10
322.4460985219312
 20
259.5574828204315
 10
326.5052310219312
 20
259.5574828204315
  0
LWPOLYLINE
  5
B5D
330
2FC6
100
AcDbEntity
  8
TEXT
 62
     5
420
      255
370
    25
100
AcDbPolyline
 90
        2
 70
     0
 43
0.0
 10
550.567062271931
 20
259.5574828204315
 10
546.5083185219312
 20
259.5574828204315
  0
LWPOLYLINE
  5
B5E
330
2FC6
100
AcDbEntity
  8
TEXT
 62
     5
420
      255
370
    25
100
AcDbPolyline
 90
        3
 70
     0
 43
0.0
 10
550.567062271931
 20
269.5566153204315
 10
546.508353521931
 20
269.5566153204315
 10
322.4461347719312
 20
269.5566153204315
  0
LWPOLYLINE
  5
B5F
330
2FC6
100
AcDbEntity
  8
TEXT
 62
     5
420
      255
370
    25
100
AcDbPolyline
 90
        3
 70
     0
 43
0.0
 10
326.5051960219312
 20
45.70394657043175
 10
326.5051960219312
 20
49.55486907043155
 10
326.5051960219312
 20
273.4085965704314
  0
LWPOLYLINE
  5
B60
330
2FC6
100
AcDbEntity
  8
TEXT
 62
     5
420
      255
370
    25
100
AcDbPolyline
 90
        2
 70
     0
 43
0.0
 10
336.5050347719312
 20
269.5566153204315
 10
336.5050347719312
 20
273.4085965704314
  0
LWPOLYLINE
  5
B61
330
2FC6
100
AcDbEntity
  8
TEXT
 62
     5
420
      255
370
    25
100
AcDbPolyline
 90
        2
 70
     0
 43
0.0
 10
336.5050347719312
 20
49.55486907043155
 10
336.5050347719312
 20
45.70398157043178
  0
LWPOLYLINE
  5
B62
330
2FC6
100
AcDbEntity
  8
TEXT
 62
     5
420
      255
370
    25
100
AcDbPolyline
 90
        2
 70
     0
 43
0.0
 10
346.5048385219311
 20
273.4085965704314
 10
346.5048385219311
 20
269.5566153204315
  0
LWPOLYLINE
  5
B63
330
2FC6
100
AcDbEntity
  8
TEXT
 62
     5
420
      255
370
    25
100
AcDbPolyline
 90
        2
 70
     0
 43
0.0
 10
346.5048385219311
 20
45.70398157043178
 10
346.5048385219311
 20
49.55486907043155
  0
LWPOLYLINE
  5
B64
330
2FC6
100
AcDbEntity
  8
TEXT
 62
     5
420
      255
370
    25
100
AcDbPolyline
 90
        2
 70
     0
 43
0.0
 10
356.5050997719311
 20
269.5566153204315
 10
356.5050997719311
 20
273.4085965704314
  0
LWPOLYLINE
  5
B65
330
2FC6
100
AcDbEntity
  8
TEXT
 62
     5
420
      255
370
    25
100
AcDbPolyline
 90
        2
 70
     0
 43
0.0
 10
356.5050997719311
 20
49.55486907043155
 10
356.5050997719311
 20
45.70398157043178
  0
LWPOLYLINE
  5
B66
330
2FC6
100
AcDbEntity
  8
TEXT
 62
     5
420
      255
370
    25
100
AcDbPolyline
 90
        2
 70
     0
 43
0.0
 10
366.5056097719312
 20
45.70398157043178
 10
366.5056097719312
 20
49.55486907043155
  0
LWPOLYLINE
  5
B67
330
2FC6
100
AcDbEntity
  8
TEXT
 62
     5
420
      255
370
    25
100
AcDbPolyline
 90
        2
 70
     0
 43
0.0
 10
366.5056097719312
 20
273.4085965704314
 10
366.5056097719312
 20
269.5566153204315
  0
LWPOLYLINE
  5
B68
330
2FC6
100
AcDbEntity
  8
TEXT
 62
     5
420
      255
370
    25
100
AcDbPolyline
 90
        2
 70
     0
 43
0.0
 10
376.5079172719311
 20
49.55486907043155
 10
376.5079172719311
 20
45.70398157043178
  0
LWPOLYLINE
  5
B69
330
2FC6
100
AcDbEntity
  8
TEXT
 62
     5
420
      255
370
    25
100
AcDbPolyline
 90
        2
 70
     0
 43
0.0
 10
376.5079172719311
 20
269.5566153204315
 10
376.5079172719311
 20
273.4085965704314
  0
LWPOLYLINE
  5
B6A
330
2FC6
100
AcDbEntity
  8
TEXT
 62
     5
420
      255
370
    25
100
AcDbPolyline
 90
        2
 70
     0
 43
0.0
 10
386.5074035219311
 20
45.70398157043178
 10
386.5074035219311
 20
49.55486907043155
  0
LWPOLYLINE
  5
B6B
330
2FC6
100
AcDbEntity
  8
TEXT
 62
     5
420
      255
370
    25
100
AcDbPolyline
 90
        2
 70
     0
 43
0.0
 10
386.5074035219311
 20
273.4085965704314
 10
386.5074035219311
 20
269.5566153204315
  0
LWPOLYLINE
  5
B6C
330
2FC6
100
AcDbEntity
  8
TEXT
 62
     5
420
      255
370
    25
100
AcDbPolyline
 90
        2
 70
     0
 43
0.0
 10
396.507913521931
 20
49.55486907043155
 10
396.507913521931
 20
45.70398157043178
  0
LWPOLYLINE
  5
B6D
330
2FC6
100
AcDbEntity
  8
TEXT
 62
     5
420
      255
370
    25
100
AcDbPolyline
 90
        2
 70
     0
 43
0.0
 10
396.507913521931
 20
269.5566153204315
 10
396.507913521931
 20
273.4085965704314
  0
LWPOLYLINE
  5
B6E
330
2FC6
100
AcDbEntity
  8
TEXT
 62
     5
420
      255
370
    25
100
AcDbPolyline
 90
        2
 70
     0
 43
0.0
 10
406.507822271931
 20
45.70398157043178
 10
406.507822271931
 20
49.55486907043155
  0
LWPOLYLINE
  5
B6F
330
2FC6
100
AcDbEntity
  8
TEXT
 62
     5
420
      255
370
    25
100
AcDbPolyline
 90
        2
 70
     0
 43
0.0
 10
406.507822271931
 20
273.4085965704314
 10
406.507822271931
 20
269.5566153204315
  0
LWPOLYLINE
  5
B70
330
2FC6
100
AcDbEntity
  8
TEXT
 62
     5
420
      255
370
    25
100
AcDbPolyline
 90
        2
 70
     0
 43
0.0
 10
416.5079785219311
 20
269.5566153204315
 10
416.5079785219311
 20
273.4085965704314
  0
LWPOLYLINE
  5
B71
330
2FC6
100
AcDbEntity
  8
TEXT
 62
     5
420
      255
370
    25
100
AcDbPolyline
 90
        2
 70
     0
 43
0.0
 10
416.5079785219311
 20
49.55486907043155
 10
416.5079785219311
 20
45.70398157043178
  0
LWPOLYLINE
  5
B72
330
2FC6
100
AcDbEntity
  8
TEXT
 62
     5
420
      255
370
    25
100
AcDbPolyline
 90
        2
 70
     0
 43
0.0
 10
426.508171021931
 20
45.70398157043178
 10
426.508171021931
 20
49.55486907043155
  0
LWPOLYLINE
  5
B73
330
2FC6
100
AcDbEntity
  8
TEXT
 62
     5
420
      255
370
    25
100
AcDbPolyline
 90
        2
 70
     0
 43
0.0
 10
426.508171021931
 20
273.4085965704314
 10
426.508171021931
 20
269.5566153204315
  0
LWPOLYLINE
  5
B74
330
2FC6
100
AcDbEntity
  8
TEXT
 62
     5
420
      255
370
    25
100
AcDbPolyline
 90
        2
 70
     0
 43
0.0
 10
436.508397271931
 20
269.5566153204315
 10
436.508397271931
 20
273.4085965704314
  0
LWPOLYLINE
  5
B75
330
2FC6
100
AcDbEntity
  8
TEXT
 62
     5
420
      255
370
    25
100
AcDbPolyline
 90
        2
 70
     0
 43
0.0
 10
436.508397271931
 20
49.55486907043155
 10
436.508397271931
 20
45.70398157043178
  0
LWPOLYLINE
  5
B76
330
2FC6
100
AcDbEntity
  8
TEXT
 62
     5
420
      255
370
    25
100
AcDbPolyline
 90
        2
 70
     0
 43
0.0
 10
446.507883521931
 20
45.70398157043178
 10
446.507883521931
 20
49.55486907043155
  0
LWPOLYLINE
  5
B77
330
2FC6
100
AcDbEntity
  8
TEXT
 62
     5
420
      255
370
    25
100
AcDbPolyline
 90
        2
 70
     0
 43
0.0
 10
446.507883521931
 20
273.4085965704314
 10
446.507883521931
 20
269.5566153204315
  0
LWPOLYLINE
  5
B78
330
2FC6
100
AcDbEntity
  8
TEXT
 62
     5
420
      255
370
    25
100
AcDbPolyline
 90
        2
 70
     0
 43
0.0
 10
456.5083922719311
 20
269.5566153204315
 10
456.5083922719311
 20
273.4085965704314
  0
LWPOLYLINE
  5
B79
330
2FC6
100
AcDbEntity
  8
TEXT
 62
     5
420
      255
370
    25
100
AcDbPolyline
 90
        2
 70
     0
 43
0.0
 10
456.5083922719311
 20
49.55486907043155
 10
456.5083922719311
 20
45.70398157043178
  0
LWPOLYLINE
  5
B7A
330
2FC6
100
AcDbEntity
  8
TEXT
 62
     5
420
      255
370
    25
100
AcDbPolyline
 90
        2
 70
     0
 43
0.0
 10
466.5081960219311
 20
45.70398157043178
 10
466.5081960219311
 20
49.55486907043155
  0
LWPOLYLINE
  5
B7B
330
2FC6
100
AcDbEntity
  8
TEXT
 62
     5
420
      255
370
    25
100
AcDbPolyline
 90
        2
 70
     0
 43
0.0
 10
466.5081960219311
 20
273.4085965704314
 10
466.5081960219311
 20
269.5566153204315
  0
LWPOLYLINE
  5
B7C
330
2FC6
100
AcDbEntity
  8
TEXT
 62
     5
420
      255
370
    25
100
AcDbPolyline
 90
        2
 70
     0
 43
0.0
 10
476.508811021931
 20
269.5566153204315
 10
476.508811021931
 20
273.4085965704314
  0
LWPOLYLINE
  5
B7D
330
2FC6
100
AcDbEntity
  8
TEXT
 62
     5
420
      255
370
    25
100
AcDbPolyline
 90
        2
 70
     0
 43
0.0
 10
476.508811021931
 20
49.55486907043155
 10
476.508811021931
 20
45.70398157043178
  0
LWPOLYLINE
  5
B7E
330
2FC6
100
AcDbEntity
  8
TEXT
 62
     5
420
      255
370
    25
100
AcDbPolyline
 90
        2
 70
     0
 43
0.0
 10
486.508297271931
 20
273.4085965704314
 10
486.508297271931
 20
269.5566153204315
  0
LWPOLYLINE
  5
B7F
330
2FC6
100
AcDbEntity
  8
TEXT
 62
     5
420
      255
370
    25
100
AcDbPolyline
 90
        2
 70
     0
 43
0.0
 10
486.508297271931
 20
45.70398157043178
 10
486.508297271931
 20
49.55486907043155
  0
LWPOLYLINE
  5
B80
330
2FC6
100
AcDbEntity
  8
TEXT
 62
     5
420
      255
370
    25
100
AcDbPolyline
 90
        2
 70
     0
 43
0.0
 10
496.5088060219312
 20
269.5566153204315
 10
496.5088060219312
 20
273.4085965704314
  0
LWPOLYLINE
  5
B81
330
2FC6
100
AcDbEntity
  8
TEXT
 62
     5
420
      255
370
    25
100
AcDbPolyline
 90
        2
 70
     0
 43
0.0
 10
496.5088060219312
 20
49.55486907043155
 10
496.5088060219312
 20
45.70398157043178
  0
LWPOLYLINE
  5
B82
330
2FC6
100
AcDbEntity
  8
TEXT
 62
     5
420
      255
370
    25
100
AcDbPolyline
 90
        2
 70
     0
 43
0.0
 10
506.5082572719311
 20
45.70398157043178
 10
506.5082572719311
 20
49.55486907043155
  0
LWPOLYLINE
  5
B83
330
2FC6
100
AcDbEntity
  8
TEXT
 62
     5
420
      255
370
    25
100
AcDbPolyline
 90
        2
 70
     0
 43
0.0
 10
506.5082572719311
 20
273.4085965704314
 10
506.5082572719311
 20
269.5566153204315
  0
LWPOLYLINE
  5
B84
330
2FC6
100
AcDbEntity
  8
TEXT
 62
     5
420
      255
370
    25
100
AcDbPolyline
 90
        2
 70
     0
 43
0.0
 10
516.5088722719311
 20
269.5566153204315
 10
516.5088722719311
 20
273.4085965704314
  0
LWPOLYLINE
  5
B85
330
2FC6
100
AcDbEntity
  8
TEXT
 62
     5
420
      255
370
    25
100
AcDbPolyline
 90
        2
 70
     0
 43
0.0
 10
516.5088722719311
 20
49.55486907043155
 10
516.5088722719311
 20
45.70398157043178
  0
LWPOLYLINE
  5
B86
330
2FC6
100
AcDbEntity
  8
TEXT
 62
     5
420
      255
370
    25
100
AcDbPolyline
 90
        2
 70
     0
 43
0.0
 10
526.508676021931
 20
45.70398157043178
 10
526.508676021931
 20
49.55486907043155
  0
LWPOLYLINE
  5
B87
330
2FC6
100
AcDbEntity
  8
TEXT
 62
     5
420
      255
370
    25
100
AcDbPolyline
 90
        2
 70
     0
 43
0.0
 10
526.508676021931
 20
273.4085965704314
 10
526.508676021931
 20
269.5566153204315
  0
LWPOLYLINE
  5
B88
330
2FC6
100
AcDbEntity
  8
TEXT
 62
     5
420
      255
370
    25
100
AcDbPolyline
 90
        2
 70
     0
 43
0.0
 10
536.5088322719312
 20
49.55486907043155
 10
536.5088322719312
 20
45.70398157043178
  0
LWPOLYLINE
  5
B89
330
2FC6
100
AcDbEntity
  8
TEXT
 62
     5
420
      255
370
    25
100
AcDbPolyline
 90
        2
 70
     0
 43
0.0
 10
536.5088322719312
 20
269.5566153204315
 10
536.5088322719312
 20
273.4085965704314
  0
SPLINE
  5
B8A
330
2FC6
100
AcDbEntity
  8
TEXT
 62
     5
420
      255
370
    25
100
AcDbSpline
210
0.0
220
0.0
230
1.0
 70
     8
 71
     3
 72
     8
 73
     4
 74
     0
 42
0.000000001
 43
0.001
 12
1.0
 22
0.0
 32
0.0
 13
1.0
 23
0.0
 33
0.0
 40
0.0
 40
0.0
 40
0.0
 40
0.0
 40
1.0
 40
1.0
 40
1.0
 40
1.0
 10
406.878203521931
 20
41.83679657043172
 30
0.0
 10
406.881731021931
 20
42.04281907043173
 30
0.0
 10
406.7229810219312
 20
42.15464907043156
 30
0.0
 10
406.484151021931
 20
42.21779657043157
 30
0.0
  0
SPLINE
  5
B8B
330
2FC6
100
AcDbEntity
  8
TEXT
 62
     5
420
      255
370
    25
100
AcDbSpline
210
0.0
220
0.0
230
1.0
 70
     8
 71
     3
 72
     8
 73
     4
 74
     0
 42
0.000000001
 43
0.001
 12
1.0
 22
0.0
 32
0.0
 13
1.0
 23
0.0
 33
0.0
 40
0.0
 40
0.0
 40
0.0
 40
0.0
 40
1.0
 40
1.0
 40
1.0
 40
1.0
 10
406.484151021931
 20
42.21779657043157
 30
0.0
 10
406.306703521931
 20
42.15782407043162
 30
0.0
 10
406.1701785219311
 20
42.0304715704317
 30
0.0
 10
406.1701785219311
 20
41.84314657043137
 30
0.0
  0
SPLINE
  5
B8C
330
2FC6
100
AcDbEntity
  8
TEXT
 62
     5
420
      255
370
    25
100
AcDbSpline
210
0.0
220
0.0
230
1.0
 70
     8
 71
     3
 72
     8
 73
     4
 74
     0
 42
0.000000001
 43
0.001
 12
1.0
 22
0.0
 32
0.0
 13
1.0
 23
0.0
 33
0.0
 40
0.0
 40
0.0
 40
0.0
 40
0.0
 40
1.0
 40
1.0
 40
1.0
 40
1.0
 10
406.1701785219311
 20
41.84314657043137
 30
0.0
 10
406.1701785219311
 20
41.67769407043147
 30
0.0
 10
406.2682510219311
 20
41.50624407043165
 30
0.0
 10
406.5190760219309
 20
41.50624407043165
 30
0.0
  0
SPLINE
  5
B8D
330
2FC6
100
AcDbEntity
  8
TEXT
 62
     5
420
      255
370
    25
100
AcDbSpline
210
0.0
220
0.0
230
1.0
 70
     8
 71
     3
 72
     8
 73
     4
 74
     0
 42
0.000000001
 43
0.001
 12
1.0
 22
0.0
 32
0.0
 13
1.0
 23
0.0
 33
0.0
 40
0.0
 40
0.0
 40
0.0
 40
0.0
 40
1.0
 40
1.0
 40
1.0
 40
1.0
 10
406.5190760219309
 20
41.50624407043165
 30
0.0
 10
406.7508510219311
 20
41.50659657043161
 30
0.0
 10
406.878203521931
 20
41.65899657043178
 30
0.0
 10
406.878203521931
 20
41.83679657043172
 30
0.0
  0
LWPOLYLINE
  5
B8E
330
2FC6
100
AcDbEntity
  8
TEXT
 62
     5
420
      255
370
    25
100
AcDbPolyline
 90
        3
 70
     0
 43
0.0
 10
546.508353521931
 20
45.70394657043175
 10
546.508353521931
 20
49.55486907043155
 10
546.508353521931
 20
273.4085965704314
  0
SPLINE
  5
B8F
330
2FC6
100
AcDbEntity
  8
TEXT
 62
     5
420
      255
370
    25
100
AcDbSpline
210
0.0
220
0.0
230
1.0
 70
     8
 71
     3
 72
     8
 73
     4
 74
     0
 42
0.000000001
 43
0.001
 12
1.0
 22
0.0
 32
0.0
 13
1.0
 23
0.0
 33
0.0
 40
0.0
 40
0.0
 40
0.0
 40
0.0
 40
1.0
 40
1.0
 40
1.0
 40
1.0
 10
416.9323710219312
 20
42.02482657043151
 30
0.0
 10
416.9323710219312
 20
42.28164907043151
 30
0.0
 10
416.7771485219312
 20
42.46297657043169
 30
0.0
 10
416.535848521931
 20
42.46297657043169
 30
0.0
  0
SPLINE
  5
B90
330
2FC6
100
AcDbEntity
  8
TEXT
 62
     5
420
      255
370
    25
100
AcDbSpline
210
0.0
220
0.0
230
1.0
 70
     8
 71
     3
 72
     8
 73
     4
 74
     0
 42
0.000000001
 43
0.001
 12
1.0
 22
0.0
 32
0.0
 13
1.0
 23
0.0
 33
0.0
 40
0.0
 40
0.0
 40
0.0
 40
0.0
 40
1.0
 40
1.0
 40
1.0
 40
1.0
 10
416.535848521931
 20
42.46297657043169
 30
0.0
 10
416.347817271931
 20
42.46297657043169
 30
0.0
 10
416.2021210219311
 20
42.37054907043171
 30
0.0
 10
416.129096021931
 20
42.24672407043158
 30
0.0
  0
SPLINE
  5
B91
330
2FC6
100
AcDbEntity
  8
TEXT
 62
     5
420
      255
370
    25
100
AcDbSpline
210
0.0
220
0.0
230
1.0
 70
     8
 71
     3
 72
     8
 73
     4
 74
     0
 42
0.000000001
 43
0.001
 12
1.0
 22
0.0
 32
0.0
 13
1.0
 23
0.0
 33
0.0
 40
0.0
 40
0.0
 40
0.0
 40
0.0
 40
1.0
 40
1.0
 40
1.0
 40
1.0
 10
416.129096021931
 20
42.24672407043158
 30
0.0
 10
416.112867271931
 20
42.21814907043176
 30
0.0
 10
416.103696021931
 20
42.18957407043149
 30
0.0
 10
416.103696021931
 20
42.14230157043153
 30
0.0
  0
SPLINE
  5
B92
330
2FC6
100
AcDbEntity
  8
TEXT
 62
     5
420
      255
370
    25
100
AcDbSpline
210
0.0
220
0.0
230
1.0
 70
     8
 71
     3
 72
     8
 73
     4
 74
     0
 42
0.000000001
 43
0.001
 12
1.0
 22
0.0
 32
0.0
 13
1.0
 23
0.0
 33
0.0
 40
0.0
 40
0.0
 40
0.0
 40
0.0
 40
1.0
 40
1.0
 40
1.0
 40
1.0
 10
416.103696021931
 20
42.14230157043153
 30
0.0
 10
416.103696021931
 20
41.79023032043165
 30
0.0
 10
416.233871021931
 20
41.52000157043153
 30
0.0
 10
416.5294985219311
 20
41.52000157043153
 30
0.0
  0
SPLINE
  5
B93
330
2FC6
100
AcDbEntity
  8
TEXT
 62
     5
420
      255
370
    25
100
AcDbSpline
210
0.0
220
0.0
230
1.0
 70
     8
 71
     3
 72
     8
 73
     4
 74
     0
 42
0.000000001
 43
0.001
 12
1.0
 22
0.0
 32
0.0
 13
1.0
 23
0.0
 33
0.0
 40
0.0
 40
0.0
 40
0.0
 40
0.0
 40
1.0
 40
1.0
 40
1.0
 40
1.0
 10
416.5294985219311
 20
41.52000157043153
 30
0.0
 10
416.7644485219309
 20
41.51964907043157
 30
0.0
 10
416.9323710219312
 20
41.7291990704316
 30
0.0
 10
416.9323710219312
 20
42.02482657043151
 30
0.0
  0
SPLINE
  5
B95
330
2FC6
100
AcDbEntity
  8
TEXT
 62
     5
420
      255
370
    25
100
AcDbSpline
210
0.0
220
0.0
230
1.0
 70
     8
 71
     3
 72
     8
 73
     4
 74
     0
 42
0.000000001
 43
0.001
 12
1.0
 22
0.0
 32
0.0
 13
1.0
 23
0.0
 33
0.0
 40
0.0
 40
0.0
 40
0.0
 40
0.0
 40
1.0
 40
1.0
 40
1.0
 40
1.0
 10
506.064146021931
 20
41.83679657043172
 30
0.0
 10
506.0676735219311
 20
42.04281907043173
 30
0.0
 10
505.908571021931
 20
42.15464907043156
 30
0.0
 10
505.670092271931
 20
42.21779657043157
 30
0.0
  0
SPLINE
  5
B96
330
2FC6
100
AcDbEntity
  8
TEXT
 62
     5
420
      255
370
    25
100
AcDbSpline
210
0.0
220
0.0
230
1.0
 70
     8
 71
     3
 72
     8
 73
     4
 74
     0
 42
0.000000001
 43
0.001
 12
1.0
 22
0.0
 32
0.0
 13
1.0
 23
0.0
 33
0.0
 40
0.0
 40
0.0
 40
0.0
 40
0.0
 40
1.0
 40
1.0
 40
1.0
 40
1.0
 10
505.670092271931
 20
42.21779657043157
 30
0.0
 10
505.4922922719311
 20
42.15782407043162
 30
0.0
 10
505.355767271931
 20
42.0304715704317
 30
0.0
 10
505.355767271931
 20
41.84314657043137
 30
0.0
  0
SPLINE
  5
B97
330
2FC6
100
AcDbEntity
  8
TEXT
 62
     5
420
      255
370
    25
100
AcDbSpline
210
0.0
220
0.0
230
1.0
 70
     8
 71
     3
 72
     8
 73
     4
 74
     0
 42
0.000000001
 43
0.001
 12
1.0
 22
0.0
 32
0.0
 13
1.0
 23
0.0
 33
0.0
 40
0.0
 40
0.0
 40
0.0
 40
0.0
 40
1.0
 40
1.0
 40
1.0
 40
1.0
 10
505.355767271931
 20
41.84314657043137
 30
0.0
 10
505.355767271931
 20
41.67769407043147
 30
0.0
 10
505.4538397719311
 20
41.50624407043165
 30
0.0
 10
505.7050172719312
 20
41.50624407043165
 30
0.0
  0
SPLINE
  5
B98
330
2FC6
100
AcDbEntity
  8
TEXT
 62
     5
420
      255
370
    25
100
AcDbSpline
210
0.0
220
0.0
230
1.0
 70
     8
 71
     3
 72
     8
 73
     4
 74
     0
 42
0.000000001
 43
0.001
 12
1.0
 22
0.0
 32
0.0
 13
1.0
 23
0.0
 33
0.0
 40
0.0
 40
0.0
 40
0.0
 40
0.0
 40
1.0
 40
1.0
 40
1.0
 40
1.0
 10
505.7050172719312
 20
41.50624407043165
 30
0.0
 10
505.9367922719312
 20
41.50659657043161
 30
0.0
 10
506.064146021931
 20
41.65899657043178
 30
0.0
 10
506.064146021931
 20
41.83679657043172
 30
0.0
  0
SPLINE
  5
B9A
330
2FC6
100
AcDbEntity
  8
TEXT
 62
     5
420
      255
370
    25
100
AcDbSpline
210
0.0
220
0.0
230
1.0
 70
     8
 71
     3
 72
     8
 73
     4
 74
     0
 42
0.000000001
 43
0.001
 12
1.0
 22
0.0
 32
0.0
 13
1.0
 23
0.0
 33
0.0
 40
0.0
 40
0.0
 40
0.0
 40
0.0
 40
1.0
 40
1.0
 40
1.0
 40
1.0
 10
516.116901021931
 20
42.02482657043151
 30
0.0
 10
516.116901021931
 20
42.28164907043151
 30
0.0
 10
515.9616785219312
 20
42.46297657043169
 30
0.0
 10
515.720378521931
 20
42.46297657043169
 30
0.0
  0
SPLINE
  5
B9B
330
2FC6
100
AcDbEntity
  8
TEXT
 62
     5
420
      255
370
    25
100
AcDbSpline
210
0.0
220
0.0
230
1.0
 70
     8
 71
     3
 72
     8
 73
     4
 74
     0
 42
0.000000001
 43
0.001
 12
1.0
 22
0.0
 32
0.0
 13
1.0
 23
0.0
 33
0.0
 40
0.0
 40
0.0
 40
0.0
 40
0.0
 40
1.0
 40
1.0
 40
1.0
 40
1.0
 10
515.720378521931
 20
42.46297657043169
 30
0.0
 10
515.5330535219312
 20
42.46297657043169
 30
0.0
 10
515.3866510219311
 20
42.37054907043171
 30
0.0
 10
515.3139785219312
 20
42.24672407043158
 30
0.0
  0
SPLINE
  5
B9C
330
2FC6
100
AcDbEntity
  8
TEXT
 62
     5
420
      255
370
    25
100
AcDbSpline
210
0.0
220
0.0
230
1.0
 70
     8
 71
     3
 72
     8
 73
     4
 74
     0
 42
0.000000001
 43
0.001
 12
1.0
 22
0.0
 32
0.0
 13
1.0
 23
0.0
 33
0.0
 40
0.0
 40
0.0
 40
0.0
 40
0.0
 40
1.0
 40
1.0
 40
1.0
 40
1.0
 10
515.3139785219312
 20
42.24672407043158
 30
0.0
 10
515.2977510219312
 20
42.21814907043176
 30
0.0
 10
515.287873521931
 20
42.18957407043149
 30
0.0
 10
515.287873521931
 20
42.14230157043153
 30
0.0
  0
SPLINE
  5
B9D
330
2FC6
100
AcDbEntity
  8
TEXT
 62
     5
420
      255
370
    25
100
AcDbSpline
210
0.0
220
0.0
230
1.0
 70
     8
 71
     3
 72
     8
 73
     4
 74
     0
 42
0.000000001
 43
0.001
 12
1.0
 22
0.0
 32
0.0
 13
1.0
 23
0.0
 33
0.0
 40
0.0
 40
0.0
 40
0.0
 40
0.0
 40
1.0
 40
1.0
 40
1.0
 40
1.0
 10
515.287873521931
 20
42.14230157043153
 30
0.0
 10
515.287873521931
 20
41.79023032043165
 30
0.0
 10
515.418401021931
 20
41.52000157043153
 30
0.0
 10
515.713323521931
 20
41.52000157043153
 30
0.0
  0
SPLINE
  5
B9E
330
2FC6
100
AcDbEntity
  8
TEXT
 62
     5
420
      255
370
    25
100
AcDbSpline
210
0.0
220
0.0
230
1.0
 70
     8
 71
     3
 72
     8
 73
     4
 74
     0
 42
0.000000001
 43
0.001
 12
1.0
 22
0.0
 32
0.0
 13
1.0
 23
0.0
 33
0.0
 40
0.0
 40
0.0
 40
0.0
 40
0.0
 40
1.0
 40
1.0
 40
1.0
 40
1.0
 10
515.713323521931
 20
41.52000157043153
 30
0.0
 10
515.9489785219312
 20
41.51964907043157
 30
0.0
 10
516.116901021931
 20
41.7291990704316
 30
0.0
 10
516.116901021931
 20
42.02482657043151
 30
0.0
  0
SPLINE
  5
BA0
330
2FC6
100
AcDbEntity
  8
CUTS
 62
     1
420
 16711680
370
    25
100
AcDbSpline
210
0.0
220
0.0
230
1.0
 70
     8
 71
     3
 72
     8
 73
     4
 74
     0
 42
0.000000001
 43
0.001
 12
1.0
 22
0.0
 32
0.0
 13
1.0
 23
0.0
 33
0.0
 40
0.0
 40
0.0
 40
0.0
 40
0.0
 40
1.0
 40
1.0
 40
1.0
 40
1.0
 10
426.7406160219311
 20
170.4027765704316
 30
0.0
 10
426.7406160219311
 20
169.8504328204315
 30
0.0
 10
426.292869771931
 20
169.4026515704315
 30
0.0
 10
425.7404910219311
 20
169.4026515704315
 30
0.0
  0
SPLINE
  5
BA1
330
2FC6
100
AcDbEntity
  8
CUTS
 62
     1
420
 16711680
370
    25
100
AcDbSpline
210
0.0
220
0.0
230
1.0
 70
     8
 71
     3
 72
     8
 73
     4
 74
     0
 42
0.000000001
 43
0.001
 12
1.0
 22
0.0
 32
0.0
 13
1.0
 23
0.0
 33
0.0
 40
0.0
 40
0.0
 40
0.0
 40
0.0
 40
1.0
 40
1.0
 40
1.0
 40
1.0
 10
425.7404910219311
 20
169.4026515704315
 30
0.0
 10
425.1881460219311
 20
169.4026515704315
 30
0.0
 10
424.7403660219311
 20
169.8504328204315
 30
0.0
 10
424.7403660219311
 20
170.4027765704316
 30
0.0
  0
SPLINE
  5
BA2
330
2FC6
100
AcDbEntity
  8
CUTS
 62
     1
420
 16711680
370
    25
100
AcDbSpline
210
0.0
220
0.0
230
1.0
 70
     8
 71
     3
 72
     8
 73
     4
 74
     0
 42
0.000000001
 43
0.001
 12
1.0
 22
0.0
 32
0.0
 13
1.0
 23
0.0
 33
0.0
 40
0.0
 40
0.0
 40
0.0
 40
0.0
 40
1.0
 40
1.0
 40
1.0
 40
1.0
 10
424.7403660219311
 20
170.4027765704316
 30
0.0
 10
424.7403660219311
 20
170.9551215704316
 30
0.0
 10
425.1881460219311
 20
171.4029015704316
 30
0.0
 10
425.7404910219311
 20
171.4029015704316
 30
0.0
  0
SPLINE
  5
1404
330
2FC6
100
AcDbEntity
  8
CUTS
 62
     1
420
 16711680
370
    25
100
AcDbSpline
210
0.0
220
0.0
230
1.0
 70
     8
 71
     3
 72
     8
 73
     4
 74
     0
 42
0.000000001
 43
0.001
 12
1.0
 22
0.0
 32
0.0
 13
1.0
 23
0.0
 33
0.0
 40
0.0
 40
0.0
 40
0.0
 40
0.0
 40
1.0
 40
1.0
 40
1.0
 40
1.0
 10
156.2038588741132
 20
140.5415261171972
 30
0.0
 10
155.6516913741132
 20
140.5415261171972
 30
0.0
 10
155.2040863741133
 20
140.9891298671973
 30
0.0
 10
155.2040863741133
 20
141.5412986171975
 30
0.0
  0
SPLINE
  5
1405
330
2FC6
100
AcDbEntity
  8
CUTS
 62
     1
420
 16711680
370
    25
100
AcDbSpline
210
0.0
220
0.0
230
1.0
 70
     8
 71
     3
 72
     8
 73
     4
 74
     0
 42
0.000000001
 43
0.001
 12
1.0
 22
0.0
 32
0.0
 13
1.0
 23
0.0
 33
0.0
 40
0.0
 40
0.0
 40
0.0
 40
0.0
 40
1.0
 40
1.0
 40
1.0
 40
1.0
 10
155.2040863741133
 20
141.5412986171975
 30
0.0
 10
155.2040863741133
 20
142.0934661171975
 30
0.0
 10
155.6516913741132
 20
142.5410698671974
 30
0.0
 10
156.2038588741132
 20
142.5410698671974
 30
0.0
  0
SPLINE
  5
1406
330
2FC6
100
AcDbEntity
  8
CUTS
 62
     1
420
 16711680
370
    25
100
AcDbSpline
210
0.0
220
0.0
230
1.0
 70
     8
 71
     3
 72
     8
 73
     4
 74
     0
 42
0.000000001
 43
0.001
 12
1.0
 22
0.0
 32
0.0
 13
1.0
 23
0.0
 33
0.0
 40
0.0
 40
0.0
 40
0.0
 40
0.0
 40
1.0
 40
1.0
 40
1.0
 40
1.0
 10
156.2038588741132
 20
142.5410698671974
 30
0.0
 10
156.7560263741132
 20
142.5410698671974
 30
0.0
 10
157.2036313741132
 20
142.0934661171975
 30
0.0
 10
157.2036313741132
 20
141.5412986171975
 30
0.0
  0
SPLINE
  5
1408
330
2FC6
100
AcDbEntity
  8
CUTS
 62
     1
420
 16711680
370
    25
100
AcDbSpline
210
0.0
220
0.0
230
1.0
 70
     8
 71
     3
 72
     8
 73
     4
 74
     0
 42
0.000000001
 43
0.001
 12
1.0
 22
0.0
 32
0.0
 13
1.0
 23
0.0
 33
0.0
 40
0.0
 40
0.0
 40
0.0
 40
0.0
 40
1.0
 40
1.0
 40
1.0
 40
1.0
 10
157.2036313741132
 20
163.1993848671975
 30
0.0
 10
157.2036313741132
 20
162.6472161171973
 30
0.0
 10
156.7560263741132
 20
162.1996123671972
 30
0.0
 10
156.2038588741132
 20
162.1996123671972
 30
0.0
  0
SPLINE
  5
1409
330
2FC6
100
AcDbEntity
  8
CUTS
 62
     1
420
 16711680
370
    25
100
AcDbSpline
210
0.0
220
0.0
230
1.0
 70
     8
 71
     3
 72
     8
 73
     4
 74
     0
 42
0.000000001
 43
0.001
 12
1.0
 22
0.0
 32
0.0
 13
1.0
 23
0.0
 33
0.0
 40
0.0
 40
0.0
 40
0.0
 40
0.0
 40
1.0
 40
1.0
 40
1.0
 40
1.0
 10
156.2038588741132
 20
162.1996123671972
 30
0.0
 10
155.6516913741132
 20
162.1996123671972
 30
0.0
 10
155.2040863741133
 20
162.6472161171973
 30
0.0
 10
155.2040863741133
 20
163.1993848671975
 30
0.0
  0
SPLINE
  5
140A
330
2FC6
100
AcDbEntity
  8
CUTS
 62
     1
420
 16711680
370
    25
100
AcDbSpline
210
0.0
220
0.0
230
1.0
 70
     8
 71
     3
 72
     8
 73
     4
 74
     0
 42
0.000000001
 43
0.001
 12
1.0
 22
0.0
 32
0.0
 13
1.0
 23
0.0
 33
0.0
 40
0.0
 40
0.0
 40
0.0
 40
0.0
 40
1.0
 40
1.0
 40
1.0
 40
1.0
 10
155.2040863741133
 20
163.1993848671975
 30
0.0
 10
155.2040863741133
 20
163.7515173671975
 30
0.0
 10
155.6516913741132
 20
164.1991561171974
 30
0.0
 10
156.2038588741132
 20
164.1991561171974
 30
0.0
  0
SPLINE
  5
140B
330
2FC6
100
AcDbEntity
  8
CUTS
 62
     1
420
 16711680
370
    25
100
AcDbSpline
210
0.0
220
0.0
230
1.0
 70
     8
 71
     3
 72
     8
 73
     4
 74
     0
 42
0.000000001
 43
0.001
 12
1.0
 22
0.0
 32
0.0
 13
1.0
 23
0.0
 33
0.0
 40
0.0
 40
0.0
 40
0.0
 40
0.0
 40
1.0
 40
1.0
 40
1.0
 40
1.0
 10
156.2038588741132
 20
164.1991561171974
 30
0.0
 10
156.7560263741132
 20
164.1991561171974
 30
0.0
 10
157.2036313741132
 20
163.7515173671975
 30
0.0
 10
157.2036313741132
 20
163.1993848671975
 30
0.0
  0
SPLINE
  5
140D
330
2FC6
100
AcDbEntity
  8
CUTS
 62
     1
420
 16711680
370
    25
100
AcDbSpline
210
0.0
220
0.0
230
1.0
 70
     8
 71
     3
 72
     8
 73
     4
 74
     0
 42
0.000000001
 43
0.001
 12
1.0
 22
0.0
 32
0.0
 13
1.0
 23
0.0
 33
0.0
 40
0.0
 40
0.0
 40
0.0
 40
0.0
 40
1.0
 40
1.0
 40
1.0
 40
1.0
 10
135.5448401241133
 20
141.5412986171975
 30
0.0
 10
135.5448401241133
 20
140.9891298671973
 30
0.0
 10
135.0972351241132
 20
140.5415261171972
 30
0.0
 10
134.5450676241132
 20
140.5415261171972
 30
0.0
  0
SPLINE
  5
140E
330
2FC6
100
AcDbEntity
  8
CUTS
 62
     1
420
 16711680
370
    25
100
AcDbSpline
210
0.0
220
0.0
230
1.0
 70
     8
 71
     3
 72
     8
 73
     4
 74
     0
 42
0.000000001
 43
0.001
 12
1.0
 22
0.0
 32
0.0
 13
1.0
 23
0.0
 33
0.0
 40
0.0
 40
0.0
 40
0.0
 40
0.0
 40
1.0
 40
1.0
 40
1.0
 40
1.0
 10
134.5450676241132
 20
140.5415261171972
 30
0.0
 10
133.9929001241132
 20
140.5415261171972
 30
0.0
 10
133.5452951241132
 20
140.9891298671973
 30
0.0
 10
133.5452951241132
 20
141.5412986171975
 30
0.0
  0
SPLINE
  5
140F
330
2FC6
100
AcDbEntity
  8
CUTS
 62
     1
420
 16711680
370
    25
100
AcDbSpline
210
0.0
220
0.0
230
1.0
 70
     8
 71
     3
 72
     8
 73
     4
 74
     0
 42
0.000000001
 43
0.001
 12
1.0
 22
0.0
 32
0.0
 13
1.0
 23
0.0
 33
0.0
 40
0.0
 40
0.0
 40
0.0
 40
0.0
 40
1.0
 40
1.0
 40
1.0
 40
1.0
 10
133.5452951241132
 20
141.5412986171975
 30
0.0
 10
133.5452951241132
 20
142.0934661171975
 30
0.0
 10
133.9929001241132
 20
142.5410698671974
 30
0.0
 10
134.5450676241132
 20
142.5410698671974
 30
0.0
  0
SPLINE
  5
1410
330
2FC6
100
AcDbEntity
  8
CUTS
 62
     1
420
 16711680
370
    25
100
AcDbSpline
210
0.0
220
0.0
230
1.0
 70
     8
 71
     3
 72
     8
 73
     4
 74
     0
 42
0.000000001
 43
0.001
 12
1.0
 22
0.0
 32
0.0
 13
1.0
 23
0.0
 33
0.0
 40
0.0
 40
0.0
 40
0.0
 40
0.0
 40
1.0
 40
1.0
 40
1.0
 40
1.0
 10
134.5450676241132
 20
142.5410698671974
 30
0.0
 10
135.0972351241132
 20
142.5410698671974
 30
0.0
 10
135.5448401241133
 20
142.0934661171975
 30
0.0
 10
135.5448401241133
 20
141.5412986171975
 30
0.0
  0
SPLINE
  5
1413
330
2FC6
100
AcDbEntity
  8
CUTS
 62
     1
420
 16711680
370
    25
100
AcDbSpline
210
0.0
220
0.0
230
1.0
 70
     8
 71
     3
 72
     8
 73
     4
 74
     0
 42
0.000000001
 43
0.001
 12
1.0
 22
0.0
 32
0.0
 13
1.0
 23
0.0
 33
0.0
 40
0.0
 40
0.0
 40
0.0
 40
0.0
 40
1.0
 40
1.0
 40
1.0
 40
1.0
 10
26.95874637411316
 20
199.8141898671972
 30
0.0
 10
26.95874637411316
 20
198.1578986171971
 30
0.0
 10
28.30247637411344
 20
196.8141673671971
 30
0.0
 10
29.95876762411331
 20
196.8141673671971
 30
0.0
  0
SPLINE
  5
1414
330
2FC6
100
AcDbEntity
  8
CUTS
 62
     1
420
 16711680
370
    25
100
AcDbSpline
210
0.0
220
0.0
230
1.0
 70
     8
 71
     3
 72
     8
 73
     4
 74
     0
 42
0.000000001
 43
0.001
 12
1.0
 22
0.0
 32
0.0
 13
1.0
 23
0.0
 33
0.0
 40
0.0
 40
0.0
 40
0.0
 40
0.0
 40
1.0
 40
1.0
 40
1.0
 40
1.0
 10
29.95876762411331
 20
196.8141673671971
 30
0.0
 10
31.61506012411314
 20
196.8141673671971
 30
0.0
 10
32.95879012411319
 20
198.1582511171982
 30
0.0
 10
32.95879012411319
 20
199.8141898671972
 30
0.0
  0
SPLINE
  5
1415
330
2FC6
100
AcDbEntity
  8
CUTS
 62
     1
420
 16711680
370
    25
100
AcDbSpline
210
0.0
220
0.0
230
1.0
 70
     8
 71
     3
 72
     8
 73
     4
 74
     0
 42
0.000000001
 43
0.001
 12
1.0
 22
0.0
 32
0.0
 13
1.0
 23
0.0
 33
0.0
 40
0.0
 40
0.0
 40
0.0
 40
0.0
 40
1.0
 40
1.0
 40
1.0
 40
1.0
 10
32.95879012411319
 20
199.8141898671972
 30
0.0
 10
32.95879012411319
 20
200.9240286171971
 30
0.0
 10
32.25394012411334
 20
201.8909923671981
 30
0.0
 10
31.35823762411337
 20
202.4099286171981
 30
0.0
  0
SPLINE
  5
1417
330
2FC6
100
AcDbEntity
  8
CUTS
 62
     1
420
 16711680
370
    25
100
AcDbSpline
210
0.0
220
0.0
230
1.0
 70
     8
 71
     3
 72
     8
 73
     4
 74
     0
 42
0.000000001
 43
0.001
 12
1.0
 22
0.0
 32
0.0
 13
1.0
 23
0.0
 33
0.0
 40
0.0
 40
0.0
 40
0.0
 40
0.0
 40
1.0
 40
1.0
 40
1.0
 40
1.0
 10
31.35823762411337
 20
206.4107811171973
 30
0.0
 10
31.35823762411337
 20
207.2387511171983
 30
0.0
 10
30.78779637411321
 20
207.9104398671973
 30
0.0
 10
29.95876762411331
 20
207.9104398671973
 30
0.0
  0
SPLINE
  5
1418
330
2FC6
100
AcDbEntity
  8
CUTS
 62
     1
420
 16711680
370
    25
100
AcDbSpline
210
0.0
220
0.0
230
1.0
 70
     8
 71
     3
 72
     8
 73
     4
 74
     0
 42
0.000000001
 43
0.001
 12
1.0
 22
0.0
 32
0.0
 13
1.0
 23
0.0
 33
0.0
 40
0.0
 40
0.0
 40
0.0
 40
0.0
 40
1.0
 40
1.0
 40
1.0
 40
1.0
 10
29.95876762411331
 20
207.9104398671973
 30
0.0
 10
29.13044637411326
 20
207.9104398671973
 30
0.0
 10
28.55859262411332
 20
207.2387511171983
 30
0.0
 10
28.55859262411332
 20
206.4107811171973
 30
0.0
  0
LWPOLYLINE
  5
1419
330
2FC6
100
AcDbEntity
  8
CUTS
 62
     1
420
 16711680
370
    25
100
AcDbPolyline
 90
        2
 70
     0
 43
0.0
 10
31.35823762411337
 20
202.4099286171981
 10
31.35823762411337
 20
206.4107811171973
  0
SPLINE
  5
141A
330
2FC6
100
AcDbEntity
  8
CUTS
 62
     1
420
 16711680
370
    25
100
AcDbSpline
210
0.0
220
0.0
230
1.0
 70
     8
 71
     3
 72
     8
 73
     4
 74
     0
 42
0.000000001
 43
0.001
 12
1.0
 22
0.0
 32
0.0
 13
1.0
 23
0.0
 33
0.0
 40
0.0
 40
0.0
 40
0.0
 40
0.0
 40
1.0
 40
1.0
 40
1.0
 40
1.0
 10
28.55859262411332
 20
202.4099286171981
 30
0.0
 10
27.66289012411335
 20
201.8913448671972
 30
0.0
 10
26.95874637411316
 20
200.9243811171982
 30
0.0
 10
26.95874637411316
 20
199.8141898671972
 30
0.0
  0
LWPOLYLINE
  5
141B
330
2FC6
100
AcDbEntity
  8
CUTS
 62
     1
420
 16711680
370
    25
100
AcDbPolyline
 90
        2
 70
     0
 43
0.0
 10
28.55859262411332
 20
206.4107811171973
 10
28.55859262411332
 20
202.4099286171981
  0
SPLINE
  5
141D
330
2FC6
100
AcDbEntity
  8
CUTS
 62
     1
420
 16711680
370
    25
100
AcDbSpline
210
0.0
220
0.0
230
1.0
 70
     8
 71
     3
 72
     8
 73
     4
 74
     0
 42
0.000000001
 43
0.001
 12
1.0
 22
0.0
 32
0.0
 13
1.0
 23
0.0
 33
0.0
 40
0.0
 40
0.0
 40
0.0
 40
0.0
 40
1.0
 40
1.0
 40
1.0
 40
1.0
 10
26.95874637411316
 20
93.08197861719748
 30
0.0
 10
26.95874637411316
 20
91.42568736719727
 30
0.0
 10
28.30247637411344
 20
90.0823098671973
 30
0.0
 10
29.95876762411331
 20
90.0823098671973
 30
0.0
  0
SPLINE
  5
141E
330
2FC6
100
AcDbEntity
  8
CUTS
 62
     1
420
 16711680
370
    25
100
AcDbSpline
210
0.0
220
0.0
230
1.0
 70
     8
 71
     3
 72
     8
 73
     4
 74
     0
 42
0.000000001
 43
0.001
 12
1.0
 22
0.0
 32
0.0
 13
1.0
 23
0.0
 33
0.0
 40
0.0
 40
0.0
 40
0.0
 40
0.0
 40
1.0
 40
1.0
 40
1.0
 40
1.0
 10
29.95876762411331
 20
90.0823098671973
 30
0.0
 10
31.61506012411314
 20
90.0823098671973
 30
0.0
 10
32.95879012411319
 20
91.42568736719727
 30
0.0
 10
32.95879012411319
 20
93.08197861719748
 30
0.0
  0
SPLINE
  5
141F
330
2FC6
100
AcDbEntity
  8
CUTS
 62
     1
420
 16711680
370
    25
100
AcDbSpline
210
0.0
220
0.0
230
1.0
 70
     8
 71
     3
 72
     8
 73
     4
 74
     0
 42
0.000000001
 43
0.001
 12
1.0
 22
0.0
 32
0.0
 13
1.0
 23
0.0
 33
0.0
 40
0.0
 40
0.0
 40
0.0
 40
0.0
 40
1.0
 40
1.0
 40
1.0
 40
1.0
 10
32.95879012411319
 20
93.08197861719748
 30
0.0
 10
32.95879012411319
 20
94.19216986719744
 30
0.0
 10
32.25394012411334
 20
95.15878111719735
 30
0.0
 10
31.35823762411337
 20
95.67771736719737
 30
0.0
  0
SPLINE
  5
1421
330
2FC6
100
AcDbEntity
  8
CUTS
 62
     1
420
 16711680
370
    25
100
AcDbSpline
210
0.0
220
0.0
230
1.0
 70
     8
 71
     3
 72
     8
 73
     4
 74
     0
 42
0.000000001
 43
0.001
 12
1.0
 22
0.0
 32
0.0
 13
1.0
 23
0.0
 33
0.0
 40
0.0
 40
0.0
 40
0.0
 40
0.0
 40
1.0
 40
1.0
 40
1.0
 40
1.0
 10
31.35823762411337
 20
99.67892361719737
 30
0.0
 10
31.35823762411337
 20
100.5072448671974
 30
0.0
 10
30.78779637411321
 20
101.1789348671973
 30
0.0
 10
29.95876762411331
 20
101.1789348671973
 30
0.0
  0
SPLINE
  5
1422
330
2FC6
100
AcDbEntity
  8
CUTS
 62
     1
420
 16711680
370
    25
100
AcDbSpline
210
0.0
220
0.0
230
1.0
 70
     8
 71
     3
 72
     8
 73
     4
 74
     0
 42
0.000000001
 43
0.001
 12
1.0
 22
0.0
 32
0.0
 13
1.0
 23
0.0
 33
0.0
 40
0.0
 40
0.0
 40
0.0
 40
0.0
 40
1.0
 40
1.0
 40
1.0
 40
1.0
 10
29.95876762411331
 20
101.1789348671973
 30
0.0
 10
29.13044637411326
 20
101.1789348671973
 30
0.0
 10
28.55859262411332
 20
100.5068923671975
 30
0.0
 10
28.55859262411332
 20
99.67892361719737
 30
0.0
  0
LWPOLYLINE
  5
1423
330
2FC6
100
AcDbEntity
  8
CUTS
 62
     1
420
 16711680
370
    25
100
AcDbPolyline
 90
        2
 70
     0
 43
0.0
 10
31.35823762411337
 20
95.67771736719737
 10
31.35823762411337
 20
99.67892361719737
  0
SPLINE
  5
1424
330
2FC6
100
AcDbEntity
  8
CUTS
 62
     1
420
 16711680
370
    25
100
AcDbSpline
210
0.0
220
0.0
230
1.0
 70
     8
 71
     3
 72
     8
 73
     4
 74
     0
 42
0.000000001
 43
0.001
 12
1.0
 22
0.0
 32
0.0
 13
1.0
 23
0.0
 33
0.0
 40
0.0
 40
0.0
 40
0.0
 40
0.0
 40
1.0
 40
1.0
 40
1.0
 40
1.0
 10
28.55859262411332
 20
95.67771736719737
 30
0.0
 10
27.66289012411335
 20
95.15878111719735
 30
0.0
 10
26.95874637411316
 20
94.19216986719744
 30
0.0
 10
26.95874637411316
 20
93.08197861719748
 30
0.0
  0
LWPOLYLINE
  5
1425
330
2FC6
100
AcDbEntity
  8
CUTS
 62
     1
420
 16711680
370
    25
100
AcDbPolyline
 90
        2
 70
     0
 43
0.0
 10
28.55859262411332
 20
99.67892361719737
 10
28.55859262411332
 20
95.67771736719737
  0
SPLINE
  5
1427
330
2FC6
100
AcDbEntity
  8
CUTS
 62
     1
420
 16711680
370
    25
100
AcDbSpline
210
0.0
220
0.0
230
1.0
 70
     8
 71
     3
 72
     8
 73
     4
 74
     0
 42
0.000000001
 43
0.001
 12
1.0
 22
0.0
 32
0.0
 13
1.0
 23
0.0
 33
0.0
 40
0.0
 40
0.0
 40
0.0
 40
0.0
 40
1.0
 40
1.0
 40
1.0
 40
1.0
 10
257.7819513741133
 20
199.9577698671983
 30
0.0
 10
257.7819513741133
 20
198.3014786171973
 30
0.0
 10
259.1256826241133
 20
196.9577486171972
 30
0.0
 10
260.7819738741132
 20
196.9577486171972
 30
0.0
  0
SPLINE
  5
1428
330
2FC6
100
AcDbEntity
  8
CUTS
 62
     1
420
 16711680
370
    25
100
AcDbSpline
210
0.0
220
0.0
230
1.0
 70
     8
 71
     3
 72
     8
 73
     4
 74
     0
 42
0.000000001
 43
0.001
 12
1.0
 22
0.0
 32
0.0
 13
1.0
 23
0.0
 33
0.0
 40
0.0
 40
0.0
 40
0.0
 40
0.0
 40
1.0
 40
1.0
 40
1.0
 40
1.0
 10
260.7819738741132
 20
196.9577486171972
 30
0.0
 10
262.4382651241133
 20
196.9577486171972
 30
0.0
 10
263.7819963741133
 20
198.3014786171973
 30
0.0
 10
263.7819963741133
 20
199.9577698671983
 30
0.0
  0
SPLINE
  5
1429
330
2FC6
100
AcDbEntity
  8
CUTS
 62
     1
420
 16711680
370
    25
100
AcDbSpline
210
0.0
220
0.0
230
1.0
 70
     8
 71
     3
 72
     8
 73
     4
 74
     0
 42
0.000000001
 43
0.001
 12
1.0
 22
0.0
 32
0.0
 13
1.0
 23
0.0
 33
0.0
 40
0.0
 40
0.0
 40
0.0
 40
0.0
 40
1.0
 40
1.0
 40
1.0
 40
1.0
 10
263.7819963741133
 20
199.9577698671983
 30
0.0
 10
263.7819963741133
 20
201.0676098671972
 30
0.0
 10
263.0771463741132
 20
202.0342198671972
 30
0.0
 10
262.1814426241133
 20
202.5531561171972
 30
0.0
  0
SPLINE
  5
142B
330
2FC6
100
AcDbEntity
  8
CUTS
 62
     1
420
 16711680
370
    25
100
AcDbSpline
210
0.0
220
0.0
230
1.0
 70
     8
 71
     3
 72
     8
 73
     4
 74
     0
 42
0.000000001
 43
0.001
 12
1.0
 22
0.0
 32
0.0
 13
1.0
 23
0.0
 33
0.0
 40
0.0
 40
0.0
 40
0.0
 40
0.0
 40
1.0
 40
1.0
 40
1.0
 40
1.0
 10
262.1814426241133
 20
206.5540098671981
 30
0.0
 10
262.1814426241133
 20
207.3819786171973
 30
0.0
 10
261.6110013741131
 20
208.0540198671972
 30
0.0
 10
260.7819738741132
 20
208.0540198671972
 30
0.0
  0
SPLINE
  5
142C
330
2FC6
100
AcDbEntity
  8
CUTS
 62
     1
420
 16711680
370
    25
100
AcDbSpline
210
0.0
220
0.0
230
1.0
 70
     8
 71
     3
 72
     8
 73
     4
 74
     0
 42
0.000000001
 43
0.001
 12
1.0
 22
0.0
 32
0.0
 13
1.0
 23
0.0
 33
0.0
 40
0.0
 40
0.0
 40
0.0
 40
0.0
 40
1.0
 40
1.0
 40
1.0
 40
1.0
 10
260.7819738741132
 20
208.0540198671972
 30
0.0
 10
259.9536513741132
 20
208.0540198671972
 30
0.0
 10
259.3817988741132
 20
207.3819786171973
 30
0.0
 10
259.3817988741132
 20
206.5540098671981
 30
0.0
  0
LWPOLYLINE
  5
142D
330
2FC6
100
AcDbEntity
  8
CUTS
 62
     1
420
 16711680
370
    25
100
AcDbPolyline
 90
        2
 70
     0
 43
0.0
 10
262.1814426241133
 20
202.5531561171972
 10
262.1814426241133
 20
206.5540098671981
  0
SPLINE
  5
142E
330
2FC6
100
AcDbEntity
  8
CUTS
 62
     1
420
 16711680
370
    25
100
AcDbSpline
210
0.0
220
0.0
230
1.0
 70
     8
 71
     3
 72
     8
 73
     4
 74
     0
 42
0.000000001
 43
0.001
 12
1.0
 22
0.0
 32
0.0
 13
1.0
 23
0.0
 33
0.0
 40
0.0
 40
0.0
 40
0.0
 40
0.0
 40
1.0
 40
1.0
 40
1.0
 40
1.0
 10
259.3817988741132
 20
202.5531561171972
 30
0.0
 10
258.4860963741132
 20
202.0342198671972
 30
0.0
 10
257.7819513741133
 20
201.0679623671981
 30
0.0
 10
257.7819513741133
 20
199.9577698671983
 30
0.0
  0
LWPOLYLINE
  5
142F
330
2FC6
100
AcDbEntity
  8
CUTS
 62
     1
420
 16711680
370
    25
100
AcDbPolyline
 90
        2
 70
     0
 43
0.0
 10
259.3817988741132
 20
206.5540098671981
 10
259.3817988741132
 20
202.5531561171972
  0
SPLINE
  5
1431
330
2FC6
100
AcDbEntity
  8
CUTS
 62
     1
420
 16711680
370
    25
100
AcDbSpline
210
0.0
220
0.0
230
1.0
 70
     8
 71
     3
 72
     8
 73
     4
 74
     0
 42
0.000000001
 43
0.001
 12
1.0
 22
0.0
 32
0.0
 13
1.0
 23
0.0
 33
0.0
 40
0.0
 40
0.0
 40
0.0
 40
0.0
 40
1.0
 40
1.0
 40
1.0
 40
1.0
 10
257.7819513741133
 20
93.18357861719755
 30
0.0
 10
257.7819513741133
 20
91.52728736719712
 30
0.0
 10
259.1256826241133
 20
90.18320361719748
 30
0.0
 10
260.7819738741132
 20
90.18320361719748
 30
0.0
  0
SPLINE
  5
1432
330
2FC6
100
AcDbEntity
  8
CUTS
 62
     1
420
 16711680
370
    25
100
AcDbSpline
210
0.0
220
0.0
230
1.0
 70
     8
 71
     3
 72
     8
 73
     4
 74
     0
 42
0.000000001
 43
0.001
 12
1.0
 22
0.0
 32
0.0
 13
1.0
 23
0.0
 33
0.0
 40
0.0
 40
0.0
 40
0.0
 40
0.0
 40
1.0
 40
1.0
 40
1.0
 40
1.0
 10
260.7819738741132
 20
90.18320361719748
 30
0.0
 10
262.4382651241133
 20
90.18320361719748
 30
0.0
 10
263.7819963741133
 20
91.52728736719712
 30
0.0
 10
263.7819963741133
 20
93.18357861719755
 30
0.0
  0
SPLINE
  5
1433
330
2FC6
100
AcDbEntity
  8
CUTS
 62
     1
420
 16711680
370
    25
100
AcDbSpline
210
0.0
220
0.0
230
1.0
 70
     8
 71
     3
 72
     8
 73
     4
 74
     0
 42
0.000000001
 43
0.001
 12
1.0
 22
0.0
 32
0.0
 13
1.0
 23
0.0
 33
0.0
 40
0.0
 40
0.0
 40
0.0
 40
0.0
 40
1.0
 40
1.0
 40
1.0
 40
1.0
 10
263.7819963741133
 20
93.18357861719755
 30
0.0
 10
263.7819963741133
 20
94.29341736719743
 30
0.0
 10
263.0771463741132
 20
95.2603811171972
 30
0.0
 10
262.1814426241133
 20
95.77896486719737
 30
0.0
  0
SPLINE
  5
1435
330
2FC6
100
AcDbEntity
  8
CUTS
 62
     1
420
 16711680
370
    25
100
AcDbSpline
210
0.0
220
0.0
230
1.0
 70
     8
 71
     3
 72
     8
 73
     4
 74
     0
 42
0.000000001
 43
0.001
 12
1.0
 22
0.0
 32
0.0
 13
1.0
 23
0.0
 33
0.0
 40
0.0
 40
0.0
 40
0.0
 40
0.0
 40
1.0
 40
1.0
 40
1.0
 40
1.0
 10
262.1814426241133
 20
99.77946486719725
 30
0.0
 10
262.1814426241133
 20
100.6077873671973
 30
0.0
 10
261.6110013741131
 20
101.2794761171974
 30
0.0
 10
260.7819738741132
 20
101.2794761171974
 30
0.0
  0
SPLINE
  5
1436
330
2FC6
100
AcDbEntity
  8
CUTS
 62
     1
420
 16711680
370
    25
100
AcDbSpline
210
0.0
220
0.0
230
1.0
 70
     8
 71
     3
 72
     8
 73
     4
 74
     0
 42
0.000000001
 43
0.001
 12
1.0
 22
0.0
 32
0.0
 13
1.0
 23
0.0
 33
0.0
 40
0.0
 40
0.0
 40
0.0
 40
0.0
 40
1.0
 40
1.0
 40
1.0
 40
1.0
 10
260.7819738741132
 20
101.2794761171974
 30
0.0
 10
259.9536513741132
 20
101.2794761171974
 30
0.0
 10
259.3817988741132
 20
100.6074348671975
 30
0.0
 10
259.3817988741132
 20
99.77946486719725
 30
0.0
  0
LWPOLYLINE
  5
1437
330
2FC6
100
AcDbEntity
  8
CUTS
 62
     1
420
 16711680
370
    25
100
AcDbPolyline
 90
        2
 70
     0
 43
0.0
 10
262.1814426241133
 20
95.77896486719737
 10
262.1814426241133
 20
99.77946486719725
  0
SPLINE
  5
1438
330
2FC6
100
AcDbEntity
  8
CUTS
 62
     1
420
 16711680
370
    25
100
AcDbSpline
210
0.0
220
0.0
230
1.0
 70
     8
 71
     3
 72
     8
 73
     4
 74
     0
 42
0.000000001
 43
0.001
 12
1.0
 22
0.0
 32
0.0
 13
1.0
 23
0.0
 33
0.0
 40
0.0
 40
0.0
 40
0.0
 40
0.0
 40
1.0
 40
1.0
 40
1.0
 40
1.0
 10
259.3817988741132
 20
95.77896486719737
 30
0.0
 10
258.4860963741132
 20
95.2603811171972
 30
0.0
 10
257.7819513741133
 20
94.29376986719728
 30
0.0
 10
257.7819513741133
 20
93.18357861719755
 30
0.0
  0
LWPOLYLINE
  5
1439
330
2FC6
100
AcDbEntity
  8
CUTS
 62
     1
420
 16711680
370
    25
100
AcDbPolyline
 90
        2
 70
     0
 43
0.0
 10
259.3817988741132
 20
99.77946486719725
 10
259.3817988741132
 20
95.77896486719737
  0
SPLINE
  5
143B
330
2FC6
100
AcDbEntity
  8
CUTS
 62
     1
420
 16711680
370
    25
100
AcDbSpline
210
0.0
220
0.0
230
1.0
 70
     8
 71
     3
 72
     8
 73
     4
 74
     0
 42
0.000000001
 43
0.001
 12
1.0
 22
0.0
 32
0.0
 13
1.0
 23
0.0
 33
0.0
 40
0.0
 40
0.0
 40
0.0
 40
0.0
 40
1.0
 40
1.0
 40
1.0
 40
1.0
 10
30.37257637411335
 20
31.35256986719719
 30
0.0
 10
27.05787637411345
 20
31.35256986719719
 30
0.0
 10
24.3718263741132
 20
34.03861986719744
 30
0.0
 10
24.3718263741132
 20
37.3526148671973
 30
0.0
  0
SPLINE
  5
143C
330
2FC6
100
AcDbEntity
  8
CUTS
 62
     1
420
 16711680
370
    25
100
AcDbSpline
210
0.0
220
0.0
230
1.0
 70
     8
 71
     3
 72
     8
 73
     4
 74
     0
 42
0.000000001
 43
0.001
 12
1.0
 22
0.0
 32
0.0
 13
1.0
 23
0.0
 33
0.0
 40
0.0
 40
0.0
 40
0.0
 40
0.0
 40
1.0
 40
1.0
 40
1.0
 40
1.0
 10
24.3718263741132
 20
267.3531423671973
 30
0.0
 10
24.3718263741132
 20
270.6667848671982
 30
0.0
 10
27.05752387411326
 20
273.3531873671982
 30
0.0
 10
30.37257637411335
 20
273.3531873671982
 30
0.0
  0
LWPOLYLINE
  5
143D
330
2FC6
100
AcDbEntity
  8
CUTS
 62
     1
420
 16711680
370
    25
100
AcDbPolyline
 90
        2
 70
     0
 43
0.0
 10
24.3718263741132
 20
37.3526148671973
 10
24.3718263741132
 20
267.3531423671973
  0
SPLINE
  5
143E
330
2FC6
100
AcDbEntity
  8
CUTS
 62
     1
420
 16711680
370
    25
100
AcDbSpline
210
0.0
220
0.0
230
1.0
 70
     8
 71
     3
 72
     8
 73
     4
 74
     0
 42
0.000000001
 43
0.001
 12
1.0
 22
0.0
 32
0.0
 13
1.0
 23
0.0
 33
0.0
 40
0.0
 40
0.0
 40
0.0
 40
0.0
 40
1.0
 40
1.0
 40
1.0
 40
1.0
 10
260.3738101241133
 20
273.3531873671982
 30
0.0
 10
263.6881576241133
 20
273.3531873671982
 30
0.0
 10
266.3745601241133
 20
270.6667848671982
 30
0.0
 10
266.3745601241133
 20
267.3531423671973
 30
0.0
  0
LWPOLYLINE
  5
143F
330
2FC6
100
AcDbEntity
  8
CUTS
 62
     1
420
 16711680
370
    25
100
AcDbPolyline
 90
        2
 70
     0
 43
0.0
 10
30.37257637411335
 20
273.3531873671982
 10
260.3738101241133
 20
273.3531873671982
  0
SPLINE
  5
1440
330
2FC6
100
AcDbEntity
  8
CUTS
 62
     1
420
 16711680
370
    25
100
AcDbSpline
210
0.0
220
0.0
230
1.0
 70
     8
 71
     3
 72
     8
 73
     4
 74
     0
 42
0.000000001
 43
0.001
 12
1.0
 22
0.0
 32
0.0
 13
1.0
 23
0.0
 33
0.0
 40
0.0
 40
0.0
 40
0.0
 40
0.0
 40
1.0
 40
1.0
 40
1.0
 40
1.0
 10
266.3745601241133
 20
37.3526148671973
 30
0.0
 10
266.3745601241133
 20
34.03861986719744
 30
0.0
 10
263.6881576241133
 20
31.35256986719719
 30
0.0
 10
260.3738101241133
 20
31.35256986719719
 30
0.0
  0
LWPOLYLINE
  5
1441
330
2FC6
100
AcDbEntity
  8
CUTS
 62
     1
420
 16711680
370
    25
100
AcDbPolyline
 90
        2
 70
     0
 43
0.0
 10
266.3745601241133
 20
267.3531423671973
 10
266.3745601241133
 20
37.3526148671973
  0
LWPOLYLINE
  5
1442
330
2FC6
100
AcDbEntity
  8
CUTS
 62
     1
420
 16711680
370
    25
100
AcDbPolyline
 90
        3
 70
     0
 43
0.0
 10
260.3738101241133
 20
31.35256986719719
 10
30.37257637411335
 20
31.35256986719719
 10
30.37257637411335
 20
31.35256986719719
  0
LWPOLYLINE
  5
1443
330
2FC6
100
AcDbEntity
  8
TEXT
 62
     5
420
      255
370
    25
100
AcDbPolyline
 90
        3
 70
     0
 43
0.0
 10
31.3116713741133
 20
42.35112361719735
 10
35.37073262411332
 20
42.35112361719735
 10
259.4325988741132
 20
42.35112361719735
  0
LWPOLYLINE
  5
1444
330
2FC6
100
AcDbEntity
  8
TEXT
 62
     5
420
      255
370
    25
100
AcDbPolyline
 90
        2
 70
     0
 43
0.0
 10
259.4325988741132
 20
52.35166736719748
 10
255.3738551241133
 20
52.35166736719748
  0
LWPOLYLINE
  5
1445
330
2FC6
100
AcDbEntity
  8
TEXT
 62
     5
420
      255
370
    25
100
AcDbPolyline
 90
        2
 70
     0
 43
0.0
 10
31.31163512411331
 20
52.35166736719748
 10
35.37076762411334
 20
52.35166736719748
  0
LWPOLYLINE
  5
1446
330
2FC6
100
AcDbEntity
  8
TEXT
 62
     5
420
      255
370
    25
100
AcDbPolyline
 90
        2
 70
     0
 43
0.0
 10
259.4325988741132
 20
62.35111861719747
 10
255.3738551241133
 20
62.35111861719747
  0
LWPOLYLINE
  5
1447
330
2FC6
100
AcDbEntity
  8
TEXT
 62
     5
420
      255
370
    25
100
AcDbPolyline
 90
        2
 70
     0
 43
0.0
 10
31.31163512411331
 20
62.35111861719747
 10
35.37076762411334
 20
62.35111861719747
  0
LWPOLYLINE
  5
1448
330
2FC6
100
AcDbEntity
  8
TEXT
 62
     5
420
      255
370
    25
100
AcDbPolyline
 90
        2
 70
     0
 43
0.0
 10
31.31163512411331
 20
72.35169861719737
 10
35.37076762411334
 20
72.35169861719737
  0
LWPOLYLINE
  5
1449
330
2FC6
100
AcDbEntity
  8
TEXT
 62
     5
420
      255
370
    25
100
AcDbPolyline
 90
        2
 70
     0
 43
0.0
 10
259.4325988741132
 20
72.35169861719737
 10
255.3738551241133
 20
72.35169861719737
  0
LWPOLYLINE
  5
144A
330
2FC6
100
AcDbEntity
  8
TEXT
 62
     5
420
      255
370
    25
100
AcDbPolyline
 90
        2
 70
     0
 43
0.0
 10
259.4325988741132
 20
82.35153736719735
 10
255.3738551241133
 20
82.35153736719735
  0
LWPOLYLINE
  5
144B
330
2FC6
100
AcDbEntity
  8
TEXT
 62
     5
420
      255
370
    25
100
AcDbPolyline
 90
        2
 70
     0
 43
0.0
 10
31.31163512411331
 20
82.35153736719735
 10
35.37076762411334
 20
82.35153736719735
  0
LWPOLYLINE
  5
144C
330
2FC6
100
AcDbEntity
  8
TEXT
 62
     5
420
      255
370
    25
100
AcDbPolyline
 90
        2
 70
     0
 43
0.0
 10
259.4325988741132
 20
92.35204611719712
 10
255.3738551241133
 20
92.35204611719712
  0
LWPOLYLINE
  5
144D
330
2FC6
100
AcDbEntity
  8
TEXT
 62
     5
420
      255
370
    25
100
AcDbPolyline
 90
        2
 70
     0
 43
0.0
 10
31.31163512411331
 20
92.35204611719712
 10
35.37076762411334
 20
92.35204611719712
  0
LWPOLYLINE
  5
144E
330
2FC6
100
AcDbEntity
  8
TEXT
 62
     5
420
      255
370
    25
100
AcDbPolyline
 90
        2
 70
     0
 43
0.0
 10
31.31163512411331
 20
102.3515673671975
 10
35.37076762411334
 20
102.3515673671975
  0
LWPOLYLINE
  5
144F
330
2FC6
100
AcDbEntity
  8
TEXT
 62
     5
420
      255
370
    25
100
AcDbPolyline
 90
        2
 70
     0
 43
0.0
 10
259.4325988741132
 20
102.3515673671975
 10
255.3738551241133
 20
102.3515673671975
  0
LWPOLYLINE
  5
1450
330
2FC6
100
AcDbEntity
  8
TEXT
 62
     5
420
      255
370
    25
100
AcDbPolyline
 90
        2
 70
     0
 43
0.0
 10
259.4325988741132
 20
112.3521473671974
 10
255.3738551241133
 20
112.3521473671974
  0
LWPOLYLINE
  5
1451
330
2FC6
100
AcDbEntity
  8
TEXT
 62
     5
420
      255
370
    25
100
AcDbPolyline
 90
        2
 70
     0
 43
0.0
 10
31.31163512411331
 20
112.3521473671974
 10
35.37076762411334
 20
112.3521473671974
  0
LWPOLYLINE
  5
1452
330
2FC6
100
AcDbEntity
  8
TEXT
 62
     5
420
      255
370
    25
100
AcDbPolyline
 90
        2
 70
     0
 43
0.0
 10
259.4325988741132
 20
122.3515986171972
 10
255.3738551241133
 20
122.3515986171972
  0
LWPOLYLINE
  5
1453
330
2FC6
100
AcDbEntity
  8
TEXT
 62
     5
420
      255
370
    25
100
AcDbPolyline
 90
        2
 70
     0
 43
0.0
 10
31.31163512411331
 20
122.3515986171972
 10
35.37076762411334
 20
122.3515986171972
  0
LWPOLYLINE
  5
1454
330
2FC6
100
AcDbEntity
  8
TEXT
 62
     5
420
      255
370
    25
100
AcDbPolyline
 90
        2
 70
     0
 43
0.0
 10
31.31163512411331
 20
132.3521423671975
 10
35.37076762411334
 20
132.3521423671975
  0
LWPOLYLINE
  5
1455
330
2FC6
100
AcDbEntity
  8
TEXT
 62
     5
420
      255
370
    25
100
AcDbPolyline
 90
        2
 70
     0
 43
0.0
 10
259.4325988741132
 20
132.3521423671975
 10
255.3738551241133
 20
132.3521423671975
  0
LWPOLYLINE
  5
1456
330
2FC6
100
AcDbEntity
  8
TEXT
 62
     5
420
      255
370
    25
100
AcDbPolyline
 90
        2
 70
     0
 43
0.0
 10
259.4325988741132
 20
142.3519811171975
 10
255.3738551241133
 20
142.3519811171975
  0
LWPOLYLINE
  5
1457
330
2FC6
100
AcDbEntity
  8
TEXT
 62
     5
420
      255
370
    25
100
AcDbPolyline
 90
        2
 70
     0
 43
0.0
 10
31.31163512411331
 20
142.3519811171975
 10
35.37076762411334
 20
142.3519811171975
  0
LWPOLYLINE
  5
1458
330
2FC6
100
AcDbEntity
  8
TEXT
 62
     5
420
      255
370
    25
100
AcDbPolyline
 90
        2
 70
     0
 43
0.0
 10
259.4325988741132
 20
152.3525261171974
 10
255.3738551241133
 20
152.3525261171974
  0
LWPOLYLINE
  5
1459
330
2FC6
100
AcDbEntity
  8
TEXT
 62
     5
420
      255
370
    25
100
AcDbPolyline
 90
        2
 70
     0
 43
0.0
 10
31.31163512411331
 20
152.3525261171974
 10
35.37076762411334
 20
152.3525261171974
  0
LWPOLYLINE
  5
145A
330
2FC6
100
AcDbEntity
  8
TEXT
 62
     5
420
      255
370
    25
100
AcDbPolyline
 90
        2
 70
     0
 43
0.0
 10
259.4325988741132
 20
162.3523648671974
 10
255.3738551241133
 20
162.3523648671974
  0
LWPOLYLINE
  5
145B
330
2FC6
100
AcDbEntity
  8
TEXT
 62
     5
420
      255
370
    25
100
AcDbPolyline
 90
        2
 70
     0
 43
0.0
 10
31.31163512411331
 20
162.3523648671974
 10
35.37076762411334
 20
162.3523648671974
  0
LWPOLYLINE
  5
145C
330
2FC6
100
AcDbEntity
  8
TEXT
 62
     5
420
      255
370
    25
100
AcDbPolyline
 90
        2
 70
     0
 43
0.0
 10
31.31163512411331
 20
172.3529098671974
 10
35.37076762411334
 20
172.3529098671974
  0
LWPOLYLINE
  5
145D
330
2FC6
100
AcDbEntity
  8
TEXT
 62
     5
420
      255
370
    25
100
AcDbPolyline
 90
        2
 70
     0
 43
0.0
 10
259.4325988741132
 20
172.3529098671974
 10
255.3738551241133
 20
172.3529098671974
  0
LWPOLYLINE
  5
145E
330
2FC6
100
AcDbEntity
  8
TEXT
 62
     5
420
      255
370
    25
100
AcDbPolyline
 90
        2
 70
     0
 43
0.0
 10
259.4325988741132
 20
182.3527836171971
 10
255.3738551241133
 20
182.3527836171971
  0
LWPOLYLINE
  5
145F
330
2FC6
100
AcDbEntity
  8
TEXT
 62
     5
420
      255
370
    25
100
AcDbPolyline
 90
        2
 70
     0
 43
0.0
 10
31.31163512411331
 20
182.3527836171971
 10
35.37076762411334
 20
182.3527836171971
  0
LWPOLYLINE
  5
1460
330
2FC6
100
AcDbEntity
  8
TEXT
 62
     5
420
      255
370
    25
100
AcDbPolyline
 90
        2
 70
     0
 43
0.0
 10
259.4325988741132
 20
192.3529398671974
 10
255.3738551241133
 20
192.3529398671974
  0
LWPOLYLINE
  5
1461
330
2FC6
100
AcDbEntity
  8
TEXT
 62
     5
420
      255
370
    25
100
AcDbPolyline
 90
        2
 70
     0
 43
0.0
 10
31.31163512411331
 20
192.3529398671974
 10
35.37076762411334
 20
192.3529398671974
  0
LWPOLYLINE
  5
1462
330
2FC6
100
AcDbEntity
  8
TEXT
 62
     5
420
      255
370
    25
100
AcDbPolyline
 90
        2
 70
     0
 43
0.0
 10
31.31163512411331
 20
202.3527786171971
 10
35.37076762411334
 20
202.3527786171971
  0
LWPOLYLINE
  5
1463
330
2FC6
100
AcDbEntity
  8
TEXT
 62
     5
420
      255
370
    25
100
AcDbPolyline
 90
        2
 70
     0
 43
0.0
 10
259.4325988741132
 20
202.3527786171971
 10
255.3738551241133
 20
202.3527786171971
  0
LWPOLYLINE
  5
1464
330
2FC6
100
AcDbEntity
  8
TEXT
 62
     5
420
      255
370
    25
100
AcDbPolyline
 90
        2
 70
     0
 43
0.0
 10
31.31163512411331
 20
212.3533236171972
 10
35.37076762411334
 20
212.3533236171972
  0
LWPOLYLINE
  5
1465
330
2FC6
100
AcDbEntity
  8
TEXT
 62
     5
420
      255
370
    25
100
AcDbPolyline
 90
        2
 70
     0
 43
0.0
 10
259.4325988741132
 20
212.3533236171972
 10
255.3738551241133
 20
212.3533236171972
  0
LWPOLYLINE
  5
1466
330
2FC6
100
AcDbEntity
  8
TEXT
 62
     5
420
      255
370
    25
100
AcDbPolyline
 90
        2
 70
     0
 43
0.0
 10
259.4325988741132
 20
222.3531623671972
 10
255.3738551241133
 20
222.3531623671972
  0
LWPOLYLINE
  5
1467
330
2FC6
100
AcDbEntity
  8
TEXT
 62
     5
420
      255
370
    25
100
AcDbPolyline
 90
        2
 70
     0
 43
0.0
 10
31.31163512411331
 20
222.3531623671972
 10
35.37076762411334
 20
222.3531623671972
  0
LWPOLYLINE
  5
1468
330
2FC6
100
AcDbEntity
  8
TEXT
 62
     5
420
      255
370
    25
100
AcDbPolyline
 90
        2
 70
     0
 43
0.0
 10
31.31163512411331
 20
232.3533186171974
 10
35.37076762411334
 20
232.3533186171974
  0
LWPOLYLINE
  5
1469
330
2FC6
100
AcDbEntity
  8
TEXT
 62
     5
420
      255
370
    25
100
AcDbPolyline
 90
        2
 70
     0
 43
0.0
 10
259.4325988741132
 20
232.3533186171974
 10
255.3738551241133
 20
232.3533186171974
  0
LWPOLYLINE
  5
146A
330
2FC6
100
AcDbEntity
  8
TEXT
 62
     5
420
      255
370
    25
100
AcDbPolyline
 90
        2
 70
     0
 43
0.0
 10
259.4325988741132
 20
242.3531923671974
 10
255.3738551241133
 20
242.3531923671974
  0
LWPOLYLINE
  5
146B
330
2FC6
100
AcDbEntity
  8
TEXT
 62
     5
420
      255
370
    25
100
AcDbPolyline
 90
        2
 70
     0
 43
0.0
 10
31.31163512411331
 20
242.3531923671974
 10
35.37076762411334
 20
242.3531923671974
  0
LWPOLYLINE
  5
146C
330
2FC6
100
AcDbEntity
  8
TEXT
 62
     5
420
      255
370
    25
100
AcDbPolyline
 90
        2
 70
     0
 43
0.0
 10
31.31163512411331
 20
252.3537373671973
 10
35.37076762411334
 20
252.3537373671973
  0
LWPOLYLINE
  5
146D
330
2FC6
100
AcDbEntity
  8
TEXT
 62
     5
420
      255
370
    25
100
AcDbPolyline
 90
        2
 70
     0
 43
0.0
 10
259.4325988741132
 20
252.3537373671973
 10
255.3738551241133
 20
252.3537373671973
  0
LWPOLYLINE
  5
146E
330
2FC6
100
AcDbEntity
  8
TEXT
 62
     5
420
      255
370
    25
100
AcDbPolyline
 90
        3
 70
     0
 43
0.0
 10
259.4325988741132
 20
262.3528698671973
 10
255.3738901241131
 20
262.3528698671973
 10
31.3116713741133
 20
262.3528698671973
  0
LWPOLYLINE
  5
146F
330
2FC6
100
AcDbEntity
  8
TEXT
 62
     5
420
      255
370
    25
100
AcDbPolyline
 90
        3
 70
     0
 43
0.0
 10
35.37073262411332
 20
38.50020111719755
 10
35.37073262411332
 20
42.35112361719735
 10
35.37073262411332
 20
266.2048511171972
  0
LWPOLYLINE
  5
1470
330
2FC6
100
AcDbEntity
  8
TEXT
 62
     5
420
      255
370
    25
100
AcDbPolyline
 90
        2
 70
     0
 43
0.0
 10
45.3705713741133
 20
262.3528698671973
 10
45.3705713741133
 20
266.2048511171972
  0
LWPOLYLINE
  5
1471
330
2FC6
100
AcDbEntity
  8
TEXT
 62
     5
420
      255
370
    25
100
AcDbPolyline
 90
        2
 70
     0
 43
0.0
 10
45.3705713741133
 20
42.35112361719735
 10
45.3705713741133
 20
38.50023611719757
  0
LWPOLYLINE
  5
1472
330
2FC6
100
AcDbEntity
  8
TEXT
 62
     5
420
      255
370
    25
100
AcDbPolyline
 90
        2
 70
     0
 43
0.0
 10
55.37037512411325
 20
266.2048511171972
 10
55.37037512411325
 20
262.3528698671973
  0
LWPOLYLINE
  5
1473
330
2FC6
100
AcDbEntity
  8
TEXT
 62
     5
420
      255
370
    25
100
AcDbPolyline
 90
        2
 70
     0
 43
0.0
 10
55.37037512411325
 20
38.50023611719757
 10
55.37037512411325
 20
42.35112361719735
  0
LWPOLYLINE
  5
1474
330
2FC6
100
AcDbEntity
  8
TEXT
 62
     5
420
      255
370
    25
100
AcDbPolyline
 90
        2
 70
     0
 43
0.0
 10
65.37063637411325
 20
262.3528698671973
 10
65.37063637411325
 20
266.2048511171972
  0
LWPOLYLINE
  5
1475
330
2FC6
100
AcDbEntity
  8
TEXT
 62
     5
420
      255
370
    25
100
AcDbPolyline
 90
        2
 70
     0
 43
0.0
 10
65.37063637411325
 20
42.35112361719735
 10
65.37063637411325
 20
38.50023611719757
  0
LWPOLYLINE
  5
1476
330
2FC6
100
AcDbEntity
  8
TEXT
 62
     5
420
      255
370
    25
100
AcDbPolyline
 90
        2
 70
     0
 43
0.0
 10
75.37114637411332
 20
38.50023611719757
 10
75.37114637411332
 20
42.35112361719735
  0
LWPOLYLINE
  5
1477
330
2FC6
100
AcDbEntity
  8
TEXT
 62
     5
420
      255
370
    25
100
AcDbPolyline
 90
        2
 70
     0
 43
0.0
 10
75.37114637411332
 20
266.2048511171972
 10
75.37114637411332
 20
262.3528698671973
  0
LWPOLYLINE
  5
1478
330
2FC6
100
AcDbEntity
  8
TEXT
 62
     5
420
      255
370
    25
100
AcDbPolyline
 90
        2
 70
     0
 43
0.0
 10
85.37345387411324
 20
42.35112361719735
 10
85.37345387411324
 20
38.50023611719757
  0
LWPOLYLINE
  5
1479
330
2FC6
100
AcDbEntity
  8
TEXT
 62
     5
420
      255
370
    25
100
AcDbPolyline
 90
        2
 70
     0
 43
0.0
 10
85.37345387411324
 20
262.3528698671973
 10
85.37345387411324
 20
266.2048511171972
  0
LWPOLYLINE
  5
147A
330
2FC6
100
AcDbEntity
  8
TEXT
 62
     5
420
      255
370
    25
100
AcDbPolyline
 90
        2
 70
     0
 43
0.0
 10
95.37294012411326
 20
38.50023611719757
 10
95.37294012411326
 20
42.35112361719735
  0
LWPOLYLINE
  5
147B
330
2FC6
100
AcDbEntity
  8
TEXT
 62
     5
420
      255
370
    25
100
AcDbPolyline
 90
        2
 70
     0
 43
0.0
 10
95.37294012411326
 20
266.2048511171972
 10
95.37294012411326
 20
262.3528698671973
  0
LWPOLYLINE
  5
147C
330
2FC6
100
AcDbEntity
  8
TEXT
 62
     5
420
      255
370
    25
100
AcDbPolyline
 90
        2
 70
     0
 43
0.0
 10
105.3734501241132
 20
42.35112361719735
 10
105.3734501241132
 20
38.50023611719757
  0
LWPOLYLINE
  5
147D
330
2FC6
100
AcDbEntity
  8
TEXT
 62
     5
420
      255
370
    25
100
AcDbPolyline
 90
        2
 70
     0
 43
0.0
 10
105.3734501241132
 20
262.3528698671973
 10
105.3734501241132
 20
266.2048511171972
  0
LWPOLYLINE
  5
147E
330
2FC6
100
AcDbEntity
  8
TEXT
 62
     5
420
      255
370
    25
100
AcDbPolyline
 90
        2
 70
     0
 43
0.0
 10
115.3733588741133
 20
38.50023611719757
 10
115.3733588741133
 20
42.35112361719735
  0
LWPOLYLINE
  5
147F
330
2FC6
100
AcDbEntity
  8
TEXT
 62
     5
420
      255
370
    25
100
AcDbPolyline
 90
        2
 70
     0
 43
0.0
 10
115.3733588741133
 20
266.2048511171972
 10
115.3733588741133
 20
262.3528698671973
  0
LWPOLYLINE
  5
1480
330
2FC6
100
AcDbEntity
  8
TEXT
 62
     5
420
      255
370
    25
100
AcDbPolyline
 90
        2
 70
     0
 43
0.0
 10
125.3735151241133
 20
262.3528698671973
 10
125.3735151241133
 20
266.2048511171972
  0
LWPOLYLINE
  5
1481
330
2FC6
100
AcDbEntity
  8
TEXT
 62
     5
420
      255
370
    25
100
AcDbPolyline
 90
        2
 70
     0
 43
0.0
 10
125.3735151241133
 20
42.35112361719735
 10
125.3735151241133
 20
38.50023611719757
  0
LWPOLYLINE
  5
1482
330
2FC6
100
AcDbEntity
  8
TEXT
 62
     5
420
      255
370
    25
100
AcDbPolyline
 90
        2
 70
     0
 43
0.0
 10
135.3737076241132
 20
38.50023611719757
 10
135.3737076241132
 20
42.35112361719735
  0
LWPOLYLINE
  5
1483
330
2FC6
100
AcDbEntity
  8
TEXT
 62
     5
420
      255
370
    25
100
AcDbPolyline
 90
        2
 70
     0
 43
0.0
 10
135.3737076241132
 20
266.2048511171972
 10
135.3737076241132
 20
262.3528698671973
  0
LWPOLYLINE
  5
1484
330
2FC6
100
AcDbEntity
  8
TEXT
 62
     5
420
      255
370
    25
100
AcDbPolyline
 90
        2
 70
     0
 43
0.0
 10
145.3739338741132
 20
262.3528698671973
 10
145.3739338741132
 20
266.2048511171972
  0
LWPOLYLINE
  5
1485
330
2FC6
100
AcDbEntity
  8
TEXT
 62
     5
420
      255
370
    25
100
AcDbPolyline
 90
        2
 70
     0
 43
0.0
 10
145.3739338741132
 20
42.35112361719735
 10
145.3739338741132
 20
38.50023611719757
  0
LWPOLYLINE
  5
1486
330
2FC6
100
AcDbEntity
  8
TEXT
 62
     5
420
      255
370
    25
100
AcDbPolyline
 90
        2
 70
     0
 43
0.0
 10
155.3734201241132
 20
38.50023611719757
 10
155.3734201241132
 20
42.35112361719735
  0
LWPOLYLINE
  5
1487
330
2FC6
100
AcDbEntity
  8
TEXT
 62
     5
420
      255
370
    25
100
AcDbPolyline
 90
        2
 70
     0
 43
0.0
 10
155.3734201241132
 20
266.2048511171972
 10
155.3734201241132
 20
262.3528698671973
  0
LWPOLYLINE
  5
1488
330
2FC6
100
AcDbEntity
  8
TEXT
 62
     5
420
      255
370
    25
100
AcDbPolyline
 90
        2
 70
     0
 43
0.0
 10
165.3739288741133
 20
262.3528698671973
 10
165.3739288741133
 20
266.2048511171972
  0
LWPOLYLINE
  5
1489
330
2FC6
100
AcDbEntity
  8
TEXT
 62
     5
420
      255
370
    25
100
AcDbPolyline
 90
        2
 70
     0
 43
0.0
 10
165.3739288741133
 20
42.35112361719735
 10
165.3739288741133
 20
38.50023611719757
  0
LWPOLYLINE
  5
148A
330
2FC6
100
AcDbEntity
  8
TEXT
 62
     5
420
      255
370
    25
100
AcDbPolyline
 90
        2
 70
     0
 43
0.0
 10
175.3737326241132
 20
38.50023611719757
 10
175.3737326241132
 20
42.35112361719735
  0
LWPOLYLINE
  5
148B
330
2FC6
100
AcDbEntity
  8
TEXT
 62
     5
420
      255
370
    25
100
AcDbPolyline
 90
        2
 70
     0
 43
0.0
 10
175.3737326241132
 20
266.2048511171972
 10
175.3737326241132
 20
262.3528698671973
  0
LWPOLYLINE
  5
148C
330
2FC6
100
AcDbEntity
  8
TEXT
 62
     5
420
      255
370
    25
100
AcDbPolyline
 90
        2
 70
     0
 43
0.0
 10
185.3743476241132
 20
262.3528698671973
 10
185.3743476241132
 20
266.2048511171972
  0
LWPOLYLINE
  5
148D
330
2FC6
100
AcDbEntity
  8
TEXT
 62
     5
420
      255
370
    25
100
AcDbPolyline
 90
        2
 70
     0
 43
0.0
 10
185.3743476241132
 20
42.35112361719735
 10
185.3743476241132
 20
38.50023611719757
  0
LWPOLYLINE
  5
148E
330
2FC6
100
AcDbEntity
  8
TEXT
 62
     5
420
      255
370
    25
100
AcDbPolyline
 90
        2
 70
     0
 43
0.0
 10
195.3738338741132
 20
266.2048511171972
 10
195.3738338741132
 20
262.3528698671973
  0
LWPOLYLINE
  5
148F
330
2FC6
100
AcDbEntity
  8
TEXT
 62
     5
420
      255
370
    25
100
AcDbPolyline
 90
        2
 70
     0
 43
0.0
 10
195.3738338741132
 20
38.50023611719757
 10
195.3738338741132
 20
42.35112361719735
  0
LWPOLYLINE
  5
1490
330
2FC6
100
AcDbEntity
  8
TEXT
 62
     5
420
      255
370
    25
100
AcDbPolyline
 90
        2
 70
     0
 43
0.0
 10
205.3743426241133
 20
262.3528698671973
 10
205.3743426241133
 20
266.2048511171972
  0
LWPOLYLINE
  5
1491
330
2FC6
100
AcDbEntity
  8
TEXT
 62
     5
420
      255
370
    25
100
AcDbPolyline
 90
        2
 70
     0
 43
0.0
 10
205.3743426241133
 20
42.35112361719735
 10
205.3743426241133
 20
38.50023611719757
  0
LWPOLYLINE
  5
1492
330
2FC6
100
AcDbEntity
  8
TEXT
 62
     5
420
      255
370
    25
100
AcDbPolyline
 90
        2
 70
     0
 43
0.0
 10
215.3737938741133
 20
38.50023611719757
 10
215.3737938741133
 20
42.35112361719735
  0
LWPOLYLINE
  5
1493
330
2FC6
100
AcDbEntity
  8
TEXT
 62
     5
420
      255
370
    25
100
AcDbPolyline
 90
        2
 70
     0
 43
0.0
 10
215.3737938741133
 20
266.2048511171972
 10
215.3737938741133
 20
262.3528698671973
  0
LWPOLYLINE
  5
1494
330
2FC6
100
AcDbEntity
  8
TEXT
 62
     5
420
      255
370
    25
100
AcDbPolyline
 90
        2
 70
     0
 43
0.0
 10
225.3744088741132
 20
262.3528698671973
 10
225.3744088741132
 20
266.2048511171972
  0
LWPOLYLINE
  5
1495
330
2FC6
100
AcDbEntity
  8
TEXT
 62
     5
420
      255
370
    25
100
AcDbPolyline
 90
        2
 70
     0
 43
0.0
 10
225.3744088741132
 20
42.35112361719735
 10
225.3744088741132
 20
38.50023611719757
  0
LWPOLYLINE
  5
1496
330
2FC6
100
AcDbEntity
  8
TEXT
 62
     5
420
      255
370
    25
100
AcDbPolyline
 90
        2
 70
     0
 43
0.0
 10
235.3742126241132
 20
38.50023611719757
 10
235.3742126241132
 20
42.35112361719735
  0
LWPOLYLINE
  5
1497
330
2FC6
100
AcDbEntity
  8
TEXT
 62
     5
420
      255
370
    25
100
AcDbPolyline
 90
        2
 70
     0
 43
0.0
 10
235.3742126241132
 20
266.2048511171972
 10
235.3742126241132
 20
262.3528698671973
  0
LWPOLYLINE
  5
1498
330
2FC6
100
AcDbEntity
  8
TEXT
 62
     5
420
      255
370
    25
100
AcDbPolyline
 90
        2
 70
     0
 43
0.0
 10
245.3743688741133
 20
42.35112361719735
 10
245.3743688741133
 20
38.50023611719757
  0
LWPOLYLINE
  5
1499
330
2FC6
100
AcDbEntity
  8
TEXT
 62
     5
420
      255
370
    25
100
AcDbPolyline
 90
        2
 70
     0
 43
0.0
 10
245.3743688741133
 20
262.3528698671973
 10
245.3743688741133
 20
266.2048511171972
  0
SPLINE
  5
149A
330
2FC6
100
AcDbEntity
  8
TEXT
 62
     5
420
      255
370
    25
100
AcDbSpline
210
0.0
220
0.0
230
1.0
 70
     8
 71
     3
 72
     8
 73
     4
 74
     0
 42
0.000000001
 43
0.001
 12
1.0
 22
0.0
 32
0.0
 13
1.0
 23
0.0
 33
0.0
 40
0.0
 40
0.0
 40
0.0
 40
0.0
 40
1.0
 40
1.0
 40
1.0
 40
1.0
 10
115.7437401241132
 20
34.6330511171974
 30
0.0
 10
115.7472676241132
 20
34.83907361719741
 30
0.0
 10
115.5885176241133
 20
34.95090361719735
 30
0.0
 10
115.3496876241132
 20
35.01405111719737
 30
0.0
  0
SPLINE
  5
149B
330
2FC6
100
AcDbEntity
  8
TEXT
 62
     5
420
      255
370
    25
100
AcDbSpline
210
0.0
220
0.0
230
1.0
 70
     8
 71
     3
 72
     8
 73
     4
 74
     0
 42
0.000000001
 43
0.001
 12
1.0
 22
0.0
 32
0.0
 13
1.0
 23
0.0
 33
0.0
 40
0.0
 40
0.0
 40
0.0
 40
0.0
 40
1.0
 40
1.0
 40
1.0
 40
1.0
 10
115.3496876241132
 20
35.01405111719737
 30
0.0
 10
115.1722401241133
 20
34.9540786171973
 30
0.0
 10
115.0357151241133
 20
34.8267261171975
 30
0.0
 10
115.0357151241133
 20
34.63940111719717
 30
0.0
  0
SPLINE
  5
149C
330
2FC6
100
AcDbEntity
  8
TEXT
 62
     5
420
      255
370
    25
100
AcDbSpline
210
0.0
220
0.0
230
1.0
 70
     8
 71
     3
 72
     8
 73
     4
 74
     0
 42
0.000000001
 43
0.001
 12
1.0
 22
0.0
 32
0.0
 13
1.0
 23
0.0
 33
0.0
 40
0.0
 40
0.0
 40
0.0
 40
0.0
 40
1.0
 40
1.0
 40
1.0
 40
1.0
 10
115.0357151241133
 20
34.63940111719717
 30
0.0
 10
115.0357151241133
 20
34.47394861719727
 30
0.0
 10
115.1337876241132
 20
34.30249861719744
 30
0.0
 10
115.3846126241132
 20
34.30249861719744
 30
0.0
  0
SPLINE
  5
149D
330
2FC6
100
AcDbEntity
  8
TEXT
 62
     5
420
      255
370
    25
100
AcDbSpline
210
0.0
220
0.0
230
1.0
 70
     8
 71
     3
 72
     8
 73
     4
 74
     0
 42
0.000000001
 43
0.001
 12
1.0
 22
0.0
 32
0.0
 13
1.0
 23
0.0
 33
0.0
 40
0.0
 40
0.0
 40
0.0
 40
0.0
 40
1.0
 40
1.0
 40
1.0
 40
1.0
 10
115.3846126241132
 20
34.30249861719744
 30
0.0
 10
115.6163876241133
 20
34.30285111719729
 30
0.0
 10
115.7437401241132
 20
34.45525111719758
 30
0.0
 10
115.7437401241132
 20
34.6330511171974
 30
0.0
  0
LWPOLYLINE
  5
149E
330
2FC6
100
AcDbEntity
  8
TEXT
 62
     5
420
      255
370
    25
100
AcDbPolyline
 90
        3
 70
     0
 43
0.0
 10
255.3738901241131
 20
38.50020111719755
 10
255.3738901241131
 20
42.35112361719735
 10
255.3738901241131
 20
266.2048511171972
  0
SPLINE
  5
149F
330
2FC6
100
AcDbEntity
  8
TEXT
 62
     5
420
      255
370
    25
100
AcDbSpline
210
0.0
220
0.0
230
1.0
 70
     8
 71
     3
 72
     8
 73
     4
 74
     0
 42
0.000000001
 43
0.001
 12
1.0
 22
0.0
 32
0.0
 13
1.0
 23
0.0
 33
0.0
 40
0.0
 40
0.0
 40
0.0
 40
0.0
 40
1.0
 40
1.0
 40
1.0
 40
1.0
 10
125.7979076241132
 20
34.8210811171972
 30
0.0
 10
125.7979076241132
 20
35.07790361719719
 30
0.0
 10
125.6426851241132
 20
35.25923111719749
 30
0.0
 10
125.4013851241132
 20
35.25923111719749
 30
0.0
  0
SPLINE
  5
14A0
330
2FC6
100
AcDbEntity
  8
TEXT
 62
     5
420
      255
370
    25
100
AcDbSpline
210
0.0
220
0.0
230
1.0
 70
     8
 71
     3
 72
     8
 73
     4
 74
     0
 42
0.000000001
 43
0.001
 12
1.0
 22
0.0
 32
0.0
 13
1.0
 23
0.0
 33
0.0
 40
0.0
 40
0.0
 40
0.0
 40
0.0
 40
1.0
 40
1.0
 40
1.0
 40
1.0
 10
125.4013851241132
 20
35.25923111719749
 30
0.0
 10
125.2133538741132
 20
35.25923111719749
 30
0.0
 10
125.0676576241133
 20
35.16680361719739
 30
0.0
 10
124.9946326241133
 20
35.04297861719738
 30
0.0
  0
SPLINE
  5
14A1
330
2FC6
100
AcDbEntity
  8
TEXT
 62
     5
420
      255
370
    25
100
AcDbSpline
210
0.0
220
0.0
230
1.0
 70
     8
 71
     3
 72
     8
 73
     4
 74
     0
 42
0.000000001
 43
0.001
 12
1.0
 22
0.0
 32
0.0
 13
1.0
 23
0.0
 33
0.0
 40
0.0
 40
0.0
 40
0.0
 40
0.0
 40
1.0
 40
1.0
 40
1.0
 40
1.0
 10
124.9946326241133
 20
35.04297861719738
 30
0.0
 10
124.9784038741133
 20
35.01440361719756
 30
0.0
 10
124.9692326241133
 20
34.98582861719728
 30
0.0
 10
124.9692326241133
 20
34.93855611719721
 30
0.0
  0
SPLINE
  5
14A2
330
2FC6
100
AcDbEntity
  8
TEXT
 62
     5
420
      255
370
    25
100
AcDbSpline
210
0.0
220
0.0
230
1.0
 70
     8
 71
     3
 72
     8
 73
     4
 74
     0
 42
0.000000001
 43
0.001
 12
1.0
 22
0.0
 32
0.0
 13
1.0
 23
0.0
 33
0.0
 40
0.0
 40
0.0
 40
0.0
 40
0.0
 40
1.0
 40
1.0
 40
1.0
 40
1.0
 10
124.9692326241133
 20
34.93855611719721
 30
0.0
 10
124.9692326241133
 20
34.58648486719744
 30
0.0
 10
125.0994076241133
 20
34.31625611719721
 30
0.0
 10
125.3950351241132
 20
34.31625611719721
 30
0.0
  0
SPLINE
  5
14A3
330
2FC6
100
AcDbEntity
  8
TEXT
 62
     5
420
      255
370
    25
100
AcDbSpline
210
0.0
220
0.0
230
1.0
 70
     8
 71
     3
 72
     8
 73
     4
 74
     0
 42
0.000000001
 43
0.001
 12
1.0
 22
0.0
 32
0.0
 13
1.0
 23
0.0
 33
0.0
 40
0.0
 40
0.0
 40
0.0
 40
0.0
 40
1.0
 40
1.0
 40
1.0
 40
1.0
 10
125.3950351241132
 20
34.31625611719721
 30
0.0
 10
125.6299851241132
 20
34.31590361719736
 30
0.0
 10
125.7979076241132
 20
34.52545361719729
 30
0.0
 10
125.7979076241132
 20
34.8210811171972
 30
0.0
  0
SPLINE
  5
14A5
330
2FC6
100
AcDbEntity
  8
TEXT
 62
     5
420
      255
370
    25
100
AcDbSpline
210
0.0
220
0.0
230
1.0
 70
     8
 71
     3
 72
     8
 73
     4
 74
     0
 42
0.000000001
 43
0.001
 12
1.0
 22
0.0
 32
0.0
 13
1.0
 23
0.0
 33
0.0
 40
0.0
 40
0.0
 40
0.0
 40
0.0
 40
1.0
 40
1.0
 40
1.0
 40
1.0
 10
214.9296826241132
 20
34.6330511171974
 30
0.0
 10
214.9332101241132
 20
34.83907361719741
 30
0.0
 10
214.7741076241132
 20
34.95090361719735
 30
0.0
 10
214.5356288741132
 20
35.01405111719737
 30
0.0
  0
SPLINE
  5
14A6
330
2FC6
100
AcDbEntity
  8
TEXT
 62
     5
420
      255
370
    25
100
AcDbSpline
210
0.0
220
0.0
230
1.0
 70
     8
 71
     3
 72
     8
 73
     4
 74
     0
 42
0.000000001
 43
0.001
 12
1.0
 22
0.0
 32
0.0
 13
1.0
 23
0.0
 33
0.0
 40
0.0
 40
0.0
 40
0.0
 40
0.0
 40
1.0
 40
1.0
 40
1.0
 40
1.0
 10
214.5356288741132
 20
35.01405111719737
 30
0.0
 10
214.3578288741132
 20
34.9540786171973
 30
0.0
 10
214.2213038741131
 20
34.8267261171975
 30
0.0
 10
214.2213038741131
 20
34.63940111719717
 30
0.0
  0
SPLINE
  5
14A7
330
2FC6
100
AcDbEntity
  8
TEXT
 62
     5
420
      255
370
    25
100
AcDbSpline
210
0.0
220
0.0
230
1.0
 70
     8
 71
     3
 72
     8
 73
     4
 74
     0
 42
0.000000001
 43
0.001
 12
1.0
 22
0.0
 32
0.0
 13
1.0
 23
0.0
 33
0.0
 40
0.0
 40
0.0
 40
0.0
 40
0.0
 40
1.0
 40
1.0
 40
1.0
 40
1.0
 10
214.2213038741131
 20
34.63940111719717
 30
0.0
 10
214.2213038741131
 20
34.47394861719727
 30
0.0
 10
214.3193763741133
 20
34.30249861719744
 30
0.0
 10
214.5705538741133
 20
34.30249861719744
 30
0.0
  0
SPLINE
  5
14A8
330
2FC6
100
AcDbEntity
  8
TEXT
 62
     5
420
      255
370
    25
100
AcDbSpline
210
0.0
220
0.0
230
1.0
 70
     8
 71
     3
 72
     8
 73
     4
 74
     0
 42
0.000000001
 43
0.001
 12
1.0
 22
0.0
 32
0.0
 13
1.0
 23
0.0
 33
0.0
 40
0.0
 40
0.0
 40
0.0
 40
0.0
 40
1.0
 40
1.0
 40
1.0
 40
1.0
 10
214.5705538741133
 20
34.30249861719744
 30
0.0
 10
214.8023288741133
 20
34.30285111719729
 30
0.0
 10
214.9296826241132
 20
34.45525111719758
 30
0.0
 10
214.9296826241132
 20
34.6330511171974
 30
0.0
  0
SPLINE
  5
14AA
330
2FC6
100
AcDbEntity
  8
TEXT
 62
     5
420
      255
370
    25
100
AcDbSpline
210
0.0
220
0.0
230
1.0
 70
     8
 71
     3
 72
     8
 73
     4
 74
     0
 42
0.000000001
 43
0.001
 12
1.0
 22
0.0
 32
0.0
 13
1.0
 23
0.0
 33
0.0
 40
0.0
 40
0.0
 40
0.0
 40
0.0
 40
1.0
 40
1.0
 40
1.0
 40
1.0
 10
224.9824376241131
 20
34.8210811171972
 30
0.0
 10
224.9824376241131
 20
35.07790361719719
 30
0.0
 10
224.8272151241133
 20
35.25923111719749
 30
0.0
 10
224.5859151241132
 20
35.25923111719749
 30
0.0
  0
SPLINE
  5
14AB
330
2FC6
100
AcDbEntity
  8
TEXT
 62
     5
420
      255
370
    25
100
AcDbSpline
210
0.0
220
0.0
230
1.0
 70
     8
 71
     3
 72
     8
 73
     4
 74
     0
 42
0.000000001
 43
0.001
 12
1.0
 22
0.0
 32
0.0
 13
1.0
 23
0.0
 33
0.0
 40
0.0
 40
0.0
 40
0.0
 40
0.0
 40
1.0
 40
1.0
 40
1.0
 40
1.0
 10
224.5859151241132
 20
35.25923111719749
 30
0.0
 10
224.3985901241133
 20
35.25923111719749
 30
0.0
 10
224.2521876241133
 20
35.16680361719739
 30
0.0
 10
224.1795151241133
 20
35.04297861719738
 30
0.0
  0
SPLINE
  5
14AC
330
2FC6
100
AcDbEntity
  8
TEXT
 62
     5
420
      255
370
    25
100
AcDbSpline
210
0.0
220
0.0
230
1.0
 70
     8
 71
     3
 72
     8
 73
     4
 74
     0
 42
0.000000001
 43
0.001
 12
1.0
 22
0.0
 32
0.0
 13
1.0
 23
0.0
 33
0.0
 40
0.0
 40
0.0
 40
0.0
 40
0.0
 40
1.0
 40
1.0
 40
1.0
 40
1.0
 10
224.1795151241133
 20
35.04297861719738
 30
0.0
 10
224.1632876241133
 20
35.01440361719756
 30
0.0
 10
224.1534101241132
 20
34.98582861719728
 30
0.0
 10
224.1534101241132
 20
34.93855611719721
 30
0.0
  0
SPLINE
  5
14AD
330
2FC6
100
AcDbEntity
  8
TEXT
 62
     5
420
      255
370
    25
100
AcDbSpline
210
0.0
220
0.0
230
1.0
 70
     8
 71
     3
 72
     8
 73
     4
 74
     0
 42
0.000000001
 43
0.001
 12
1.0
 22
0.0
 32
0.0
 13
1.0
 23
0.0
 33
0.0
 40
0.0
 40
0.0
 40
0.0
 40
0.0
 40
1.0
 40
1.0
 40
1.0
 40
1.0
 10
224.1534101241132
 20
34.93855611719721
 30
0.0
 10
224.1534101241132
 20
34.58648486719744
 30
0.0
 10
224.2839376241132
 20
34.31625611719721
 30
0.0
 10
224.5788601241131
 20
34.31625611719721
 30
0.0
  0
SPLINE
  5
14AE
330
2FC6
100
AcDbEntity
  8
TEXT
 62
     5
420
      255
370
    25
100
AcDbSpline
210
0.0
220
0.0
230
1.0
 70
     8
 71
     3
 72
     8
 73
     4
 74
     0
 42
0.000000001
 43
0.001
 12
1.0
 22
0.0
 32
0.0
 13
1.0
 23
0.0
 33
0.0
 40
0.0
 40
0.0
 40
0.0
 40
0.0
 40
1.0
 40
1.0
 40
1.0
 40
1.0
 10
224.5788601241131
 20
34.31625611719721
 30
0.0
 10
224.8145151241133
 20
34.31590361719736
 30
0.0
 10
224.9824376241131
 20
34.52545361719729
 30
0.0
 10
224.9824376241131
 20
34.8210811171972
 30
0.0
  0
SPLINE
  5
14B0
330
2FC6
100
AcDbEntity
  8
CUTS
 62
     1
420
 16711680
370
    25
100
AcDbSpline
210
0.0
220
0.0
230
1.0
 70
     8
 71
     3
 72
     8
 73
     4
 74
     0
 42
0.000000001
 43
0.001
 12
1.0
 22
0.0
 32
0.0
 13
1.0
 23
0.0
 33
0.0
 40
0.0
 40
0.0
 40
0.0
 40
0.0
 40
1.0
 40
1.0
 40
1.0
 40
1.0
 10
135.6061526241133
 20
163.1990311171974
 30
0.0
 10
135.6061526241133
 20
162.6466873671973
 30
0.0
 10
135.1584063741132
 20
162.1989061171973
 30
0.0
 10
134.6060276241133
 20
162.1989061171973
 30
0.0
  0
SPLINE
  5
14B1
330
2FC6
100
AcDbEntity
  8
CUTS
 62
     1
420
 16711680
370
    25
100
AcDbSpline
210
0.0
220
0.0
230
1.0
 70
     8
 71
     3
 72
     8
 73
     4
 74
     0
 42
0.000000001
 43
0.001
 12
1.0
 22
0.0
 32
0.0
 13
1.0
 23
0.0
 33
0.0
 40
0.0
 40
0.0
 40
0.0
 40
0.0
 40
1.0
 40
1.0
 40
1.0
 40
1.0
 10
134.6060276241133
 20
162.1989061171973
 30
0.0
 10
134.0536826241132
 20
162.1989061171973
 30
0.0
 10
133.6059026241132
 20
162.6466873671973
 30
0.0
 10
133.6059026241132
 20
163.1990311171974
 30
0.0
  0
SPLINE
  5
14B2
330
2FC6
100
AcDbEntity
  8
CUTS
 62
     1
420
 16711680
370
    25
100
AcDbSpline
210
0.0
220
0.0
230
1.0
 70
     8
 71
     3
 72
     8
 73
     4
 74
     0
 42
0.000000001
 43
0.001
 12
1.0
 22
0.0
 32
0.0
 13
1.0
 23
0.0
 33
0.0
 40
0.0
 40
0.0
 40
0.0
 40
0.0
 40
1.0
 40
1.0
 40
1.0
 40
1.0
 10
133.6059026241132
 20
163.1990311171974
 30
0.0
 10
133.6059026241132
 20
163.7513761171974
 30
0.0
 10
134.0536826241132
 20
164.1991561171974
 30
0.0
 10
134.6060276241133
 20
164.1991561171974
 30
0.0
  0
SPLINE
  5
14B3
330
2FC6
100
AcDbEntity
  8
CUTS
 62
     1
420
 16711680
370
    25
100
AcDbSpline
210
0.0
220
0.0
230
1.0
 70
     8
 71
     3
 72
     8
 73
     4
 74
     0
 42
0.000000001
 43
0.001
 12
1.0
 22
0.0
 32
0.0
 13
1.0
 23
0.0
 33
0.0
 40
0.0
 40
0.0
 40
0.0
 40
0.0
 40
1.0
 40
1.0
 40
1.0
 40
1.0
 10
134.6060276241133
 20
164.1991561171974
 30
0.0
 10
135.1584063741132
 20
164.1991561171974
 30
0.0
 10
135.6061526241133
 20
163.7513761171974
 30
0.0
 10
135.6061526241133
 20
163.1990311171974
 30
0.0
  0
SPLINE
  5
14B5
330
2FC6
100
AcDbEntity
  8
CUTS
 62
     1
420
 16711680
370
    25
100
AcDbSpline
210
0.0
220
0.0
230
1.0
 70
     8
 71
     3
 72
     8
 73
     4
 74
     0
 42
0.000000001
 43
0.001
 12
1.0
 22
0.0
 32
0.0
 13
1.0
 23
0.0
 33
0.0
 40
0.0
 40
0.0
 40
0.0
 40
0.0
 40
1.0
 40
1.0
 40
1.0
 40
1.0
 10
157.2036313741132
 20
141.5412986171975
 30
0.0
 10
157.2036313741132
 20
140.9891298671973
 30
0.0
 10
156.7560263741132
 20
140.5415261171972
 30
0.0
 10
156.2038588741132
 20
140.5415261171972
 30
0.0
  0
LINE
  5
2FA1
330
2FC6
100
AcDbEntity
  8
laser bed referance
100
AcDbLine
 10
0.0
 20
304.8000000000001
 30
0.0
 11
609.5999999999999
 21
304.8000000000001
 31
0.0
  0
LINE
  5
2FA2
330
2FC6
100
AcDbEntity
  8
laser bed referance
100
AcDbLine
 10
0.0
 20
0.0000000000000142
 30
0.0
 11
0.0
 21
304.8000000000001
 31
0.0
  0
LINE
  5
2FA3
330
2FC6
100
AcDbEntity
  8
laser bed referance
100
AcDbLine
 10
609.5999999999999
 20
0.0000000000000142
 30
0.0
 11
609.5999999999999
 21
304.8000000000001
 31
0.0
  0
LINE
  5
2FA4
330
2FC6
100
AcDbEntity
  8
laser bed referance
100
AcDbLine
 10
0.0
 20
0.0000000000000142
 30
0.0
 11
609.5999999999999
 21
0.0000000000000142
 31
0.0
  0
LINE
  5
2FA6
330
2FC6
100
AcDbEntity
  8
Referance lines
100
AcDbLine
 10
0.0
 20
152.4
 30
0.0
 11
609.5999999999999
 21
152.4
 31
0.0
  0
LINE
  5
2FA7
330
2FC6
100
AcDbEntity
  8
Referance lines
100
AcDbLine
 10
304.8
 20
304.8000000000001
 30
0.0
 11
304.8
 21
0.0000000000000142
 31
0.0
  0
ENDSEC
  0
SECTION
  2
OBJECTS
  0
DICTIONARY
  5
2FB4
330
0
100
AcDbDictionary
281
     1
  3
ACAD_GROUP
350
2FB5
  3
ACAD_LAYOUT
350
2FC1
  3
ACAD_MATERIAL
350
2FE2
  3
ACAD_MLEADERSTYLE
350
3013
  3
ACAD_MLINESTYLE
350
2FBE
  3
ACAD_PLOTSETTINGS
350
2FC0
  3
ACAD_PLOTSTYLENAME
350
2FB6
  3
ACAD_TABLESTYLE
350
3012
  3
ACAD_VISUALSTYLE
350
2FD1
  3
QCAD_OBJECTS
350
2FE7
  0
DICTIONARY
  5
2FB5
102
{ACAD_REACTORS
330
2FB4
102
}
330
2FB4
100
AcDbDictionary
281
     1
  0
DICTIONARY
  5
2FC1
102
{ACAD_REACTORS
330
2FB4
102
}
330
2FB4
100
AcDbDictionary
281
     1
  3
Layout1
350
2FC5
  3
Layout2
350
2FCD
  3
Model
350
2FC9
  0
DICTIONARY
  5
2FE2
102
{ACAD_REACTORS
330
2FB4
102
}
330
2FB4
100
AcDbDictionary
281
     1
  3
ByBlock
350
2FE4
  3
ByLayer
350
2FE3
  3
Global
350
2FE5
  0
DICTIONARY
  5
3013
102
{ACAD_REACTORS
330
2FB4
102
}
330
2FB4
100
AcDbDictionary
281
     1
  0
DICTIONARY
  5
2FBE
102
{ACAD_REACTORS
330
2FB4
102
}
330
2FB4
100
AcDbDictionary
281
     1
  3
Standard
350
2FBF
  0
DICTIONARY
  5
2FC0
102
{ACAD_REACTORS
330
2FB4
102
}
330
2FB4
100
AcDbDictionary
281
     1
  0
ACDBDICTIONARYWDFLT
  5
2FB6
102
{ACAD_REACTORS
330
2FB4
102
}
330
2FB4
100
AcDbDictionary
281
     1
  3
Normal
350
2FB7
100
AcDbDictionaryWithDefault
340
2FB7
  0
DICTIONARY
  5
3012
102
{ACAD_REACTORS
330
2FB4
102
}
330
2FB4
100
AcDbDictionary
281
     1
  0
DICTIONARY
  5
2FD1
102
{ACAD_REACTORS
330
2FB4
102
}
330
2FB4
100
AcDbDictionary
281
     1
  3
2dWireframe
350
2FD6
  3
3D Hidden
350
2FD8
  3
3dWireframe
350
2FD7
  3
Basic
350
2FD9
  3
Brighten
350
2FDD
  3
ColorChange
350
2FE1
  3
Conceptual
350
2FDB
  3
Dim
350
2FDC
  3
Facepattern
350
2FE0
  3
Flat
350
2FD2
  3
FlatWithEdges
350
2FD3
  3
Gouraud
350
2FD4
  3
GouraudWithEdges
350
2FD5
  3
Linepattern
350
2FDF
  3
Realistic
350
2FDA
  3
Thicken
350
2FDE
  0
DICTIONARY
  5
2FE7
102
{ACAD_REACTORS
330
2FB4
102
}
330
2FB4
100
AcDbDictionary
281
     1
  3
Grid/DisplayGrid
350
2FF6
  3
Grid/GridSpacingX
350
2FEF
  3
Grid/GridSpacingY
350
2FF1
  3
MultiPageSettings/Columns
350
2FEE
  3
MultiPageSettings/GlueMarginBottom
350
2FEB
  3
MultiPageSettings/GlueMarginsLeft
350
2FF2
  3
MultiPageSettings/GlueMarginsRight
350
2FE8
  3
MultiPageSettings/GlueMarginsTop
350
2FFA
  3
MultiPageSettings/PrintCropMarks
350
2FEA
  3
MultiPageSettings/Rows
350
2FF3
  3
PageSettings/OffsetX
350
2FF8
  3
PageSettings/OffsetY
350
2FF9
  3
PageSettings/PageOrientation
350
2FE9
  3
PageSettings/PaperHeight
350
2FED
  3
PageSettings/PaperWidth
350
2FF4
  3
PageSettings/Scale
350
2FEC
  3
PageSettings/ShowBoundingBox
350
2FF0
  3
PageSettings/ShowPageBorders
350
2FF7
  3
UnitSettings/PaperUnit
350
2FF5
  0
LAYOUT
  5
2FC5
102
{ACAD_REACTORS
330
2FC1
102
}
330
2FC1
100
AcDbPlotSettings
  1

  2
none_device
  4

  6

 40
0.0
 41
0.0
 42
0.0
 43
0.0
 44
0.0
 45
0.0
 46
0.0
 47
0.0
 48
0.0
 49
0.0
140
0.0
141
0.0
142
1.0
143
1.0
 70
   688
 72
     0
 73
     0
 74
     5
  7

 75
    16
 76
     0
 77
     2
 78
   300
147
1.0
148
0.0
149
0.0
100
AcDbLayout
  1
Layout1
 70
     1
 71
     1
 10
0.0
 20
0.0
 11
12.0
 21
9.0
 12
0.0
 22
0.0
 32
0.0
 14
1.000000000000000E+20
 24
1.000000000000000E+20
 34
1.000000000000000E+20
 15
-1.000000000000000E+20
 25
-1.000000000000000E+20
 35
-1.000000000000000E+20
146
0.0
 13
0.0
 23
0.0
 33
0.0
 16
1.0
 26
0.0
 36
0.0
 17
0.0
 27
1.0
 37
0.0
 76
     0
330
2FC2
  0
LAYOUT
  5
2FCD
102
{ACAD_REACTORS
330
2FC1
102
}
330
2FC1
100
AcDbPlotSettings
  1

  2
none_device
  4

  6

 40
0.0
 41
0.0
 42
0.0
 43
0.0
 44
0.0
 45
0.0
 46
0.0
 47
0.0
 48
0.0
 49
0.0
140
0.0
141
0.0
142
1.0
143
1.0
 70
   688
 72
     0
 73
     0
 74
     5
  7

 75
    16
 76
     0
 77
     2
 78
   300
147
1.0
148
0.0
149
0.0
100
AcDbLayout
  1
Layout2
 70
     1
 71
     2
 10
0.0
 20
0.0
 11
0.0
 21
0.0
 12
0.0
 22
0.0
 32
0.0
 14
0.0
 24
0.0
 34
0.0
 15
0.0
 25
0.0
 35
0.0
146
0.0
 13
0.0
 23
0.0
 33
0.0
 16
1.0
 26
0.0
 36
0.0
 17
0.0
 27
1.0
 37
0.0
 76
     0
330
2FCA
  0
LAYOUT
  5
2FC9
102
{ACAD_REACTORS
330
2FC1
102
}
330
2FC1
100
AcDbPlotSettings
  1

  2
none_device
  4

  6

 40
0.0
 41
0.0
 42
0.0
 43
0.0
 44
0.0
 45
0.0
 46
0.0
 47
0.0
 48
0.0
 49
0.0
140
0.0
141
0.0
142
1.0
143
1.0
 70
  1712
 72
     0
 73
     0
 74
     0
  7

 75
     0
 76
     0
 77
     2
 78
   300
147
1.0
148
0.0
149
0.0
100
AcDbLayout
  1
Model
 70
     1
 71
     0
 10
0.0
 20
0.0
 11
12.0
 21
9.0
 12
0.0
 22
0.0
 32
0.0
 14
1.000000000000000E+20
 24
1.000000000000000E+20
 34
1.000000000000000E+20
 15
-1.000000000000000E+20
 25
-1.000000000000000E+20
 35
-1.000000000000000E+20
146
0.0
 13
0.0
 23
0.0
 33
0.0
 16
1.0
 26
0.0
 36
0.0
 17
0.0
 27
1.0
 37
0.0
 76
     0
330
2FC6
331
2FD0
  0
MATERIAL
  5
2FE4
102
{ACAD_REACTORS
330
2FE2
102
}
330
2FE2
100
AcDbMaterial
  1
ByBlock
 72
     1
 94
      127
  0
MATERIAL
  5
2FE3
102
{ACAD_REACTORS
330
2FE2
102
}
330
2FE2
100
AcDbMaterial
  1
ByLayer
 72
     1
 94
      127
  0
MATERIAL
  5
2FE5
102
{ACAD_REACTORS
330
2FE2
102
}
330
2FE2
100
AcDbMaterial
  1
Global
 72
     1
 94
      127
  0
MLINESTYLE
  5
2FBF
102
{ACAD_REACTORS
330
2FBE
102
}
330
2FBE
100
AcDbMlineStyle
  2
Standard
 70
     0
  3

 62
   256
 51
90.0
 52
90.0
 71
     2
 49
0.5
 62
   256
  6
BYLAYER
 49
-0.5
 62
   256
  6
BYLAYER
  0
ACDBPLACEHOLDER
  5
2FB7
102
{ACAD_REACTORS
330
2FB6
102
}
330
2FB6
  0
VISUALSTYLE
  5
2FD6
102
{ACAD_REACTORS
330
2FD1
102
}
330
2FD1
100
AcDbVisualStyle
  2
2dWireframe
 70
     4
177
     2
291
     0
 71
     0
176
     1
 72
     2
176
     1
 73
     0
176
     1
 90
        0
176
     1
 40
-0.6
176
     1
 41
-30.0
176
     1
 62
     5
 63
     7
421
 16777215
176
     1
 74
     1
176
     1
 91
        4
176
     1
 64
     7
176
     1
 65
   257
176
     1
 75
     1
176
     1
175
     1
176
     1
 42
1.0
176
     1
 92
        0
176
     1
 66
   257
176
     1
 43
1.0
176
     1
 76
     1
176
     1
 77
     6
176
     1
 78
     2
176
     1
 67
     7
176
     1
 79
     5
176
     1
170
     0
176
     1
171
     0
176
     1
290
     0
176
     1
 93
        1
176
     1
 44
0.0
176
     1
173
     0
176
     1
  0
VISUALSTYLE
  5
2FD8
102
{ACAD_REACTORS
330
2FD1
102
}
330
2FD1
100
AcDbVisualStyle
  2
3D Hidden
 70
     6
177
     2
291
     0
 71
     1
176
     1
 72
     2
176
     1
 73
     2
176
     1
 90
        0
176
     1
 40
-0.6
176
     1
 41
-30.0
176
     1
 62
     5
 63
     7
421
 16777215
176
     1
 74
     2
176
     1
 91
        2
176
     1
 64
     7
176
     1
 65
   257
176
     1
 75
     2
176
     1
175
     1
176
     1
 42
40.0
176
     1
 92
        0
176
     1
 66
   257
176
     1
 43
1.0
176
     1
 76
     1
176
     1
 77
     6
176
     1
 78
     2
176
     1
 67
     7
176
     1
 79
     3
176
     1
170
     0
176
     1
171
     0
176
     1
290
     0
176
     1
 93
        1
176
     1
 44
0.0
176
     1
173
     0
176
     1
  0
VISUALSTYLE
  5
2FD7
102
{ACAD_REACTORS
330
2FD1
102
}
330
2FD1
100
AcDbVisualStyle
  2
3dWireframe
 70
     5
177
     2
291
     0
 71
     0
176
     1
 72
     2
176
     1
 73
     0
176
     1
 90
        0
176
     1
 40
-0.6
176
     1
 41
-30.0
176
     1
 62
     5
 63
     7
421
 16777215
176
     1
 74
     1
176
     1
 91
        4
176
     1
 64
     7
176
     1
 65
   257
176
     1
 75
     1
176
     1
175
     1
176
     1
 42
1.0
176
     1
 92
        0
176
     1
 66
   257
176
     1
 43
1.0
176
     1
 76
     1
176
     1
 77
     6
176
     1
 78
     2
176
     1
 67
     7
176
     1
 79
     5
176
     1
170
     0
176
     1
171
     0
176
     1
290
     0
176
     1
 93
        1
176
     1
 44
0.0
176
     1
173
     0
176
     1
  0
VISUALSTYLE
  5
2FD9
102
{ACAD_REACTORS
330
2FD1
102
}
330
2FD1
100
AcDbVisualStyle
  2
Basic
 70
     7
177
     2
291
     1
 71
     1
176
     1
 72
     0
176
     1
 73
     1
176
     1
 90
        0
176
     1
 40
-0.6
176
     1
 41
-30.0
176
     1
 62
     5
 63
     7
421
 16777215
176
     1
 74
     0
176
     1
 91
        4
176
     1
 64
     7
176
     1
 65
   257
176
     1
 75
     1
176
     1
175
     1
176
     1
 42
1.0
176
     1
 92
        8
176
     1
 66
     7
176
     1
 43
1.0
176
     1
 76
     1
176
     1
 77
     6
176
     1
 78
     2
176
     1
 67
     7
176
     1
 79
     5
176
     1
170
     0
176
     1
171
     0
176
     1
290
     0
176
     1
 93
        1
176
     1
 44
0.0
176
     1
173
     0
176
     1
  0
VISUALSTYLE
  5
2FDD
102
{ACAD_REACTORS
330
2FD1
102
}
330
2FD1
100
AcDbVisualStyle
  2
Brighten
 70
    12
177
     2
291
     1
 71
     2
176
     1
 72
     2
176
     1
 73
     0
176
     1
 90
        0
176
     1
 40
-0.6
176
     1
 41
-30.0
176
     1
 62
     5
 63
     7
421
 16777215
176
     1
 74
     1
176
     1
 91
        4
176
     1
 64
     7
176
     1
 65
   257
176
     1
 75
     1
176
     1
175
     1
176
     1
 42
1.0
176
     1
 92
        8
176
     1
 66
     7
176
     1
 43
1.0
176
     1
 76
     1
176
     1
 77
     6
176
     1
 78
     2
176
     1
 67
     7
176
     1
 79
     5
176
     1
170
     0
176
     1
171
     0
176
     1
290
     0
176
     1
 93
        1
176
     1
 44
50.0
176
     1
173
     0
176
     1
  0
VISUALSTYLE
  5
2FE1
102
{ACAD_REACTORS
330
2FD1
102
}
330
2FD1
100
AcDbVisualStyle
  2
ColorChange
 70
    16
177
     2
291
     1
 71
     2
176
     1
 72
     2
176
     1
 73
     3
176
     1
 90
        0
176
     1
 40
-0.6
176
     1
 41
-30.0
176
     1
 62
     5
 63
     8
421
  8421504
176
     1
 74
     1
176
     1
 91
        4
176
     1
 64
     7
176
     1
 65
   257
176
     1
 75
     1
176
     1
175
     1
176
     1
 42
1.0
176
     1
 92
        8
176
     1
 66
     8
424
  8421504
176
     1
 43
1.0
176
     1
 76
     1
176
     1
 77
     6
176
     1
 78
     2
176
     1
 67
     7
176
     1
 79
     5
176
     1
170
     0
176
     1
171
     0
176
     1
290
     0
176
     1
 93
        1
176
     1
 44
0.0
176
     1
173
     0
176
     1
  0
VISUALSTYLE
  5
2FDB
102
{ACAD_REACTORS
330
2FD1
102
}
330
2FD1
100
AcDbVisualStyle
  2
Conceptual
 70
     9
177
     2
291
     0
 71
     3
176
     1
 72
     2
176
     1
 73
     0
176
     1
 90
        0
176
     1
 40
-0.6
176
     1
 41
-30.0
176
     1
 62
     5
 63
     7
421
 16777215
176
     1
 74
     2
176
     1
 91
        2
176
     1
 64
     7
176
     1
 65
   257
176
     1
 75
     1
176
     1
175
     1
176
     1
 42
40.0
176
     1
 92
        8
176
     1
 66
     7
176
     1
 43
1.0
176
     1
 76
     1
176
     1
 77
     6
176
     1
 78
     2
176
     1
 67
     7
176
     1
 79
     3
176
     1
170
     0
176
     1
171
     0
176
     1
290
     0
176
     1
 93
        1
176
     1
 44
0.0
176
     1
173
     0
176
     1
  0
VISUALSTYLE
  5
2FDC
102
{ACAD_REACTORS
330
2FD1
102
}
330
2FD1
100
AcDbVisualStyle
  2
Dim
 70
    11
177
     2
291
     1
 71
     2
176
     1
 72
     2
176
     1
 73
     0
176
     1
 90
        0
176
     1
 40
-0.6
176
     1
 41
-30.0
176
     1
 62
     5
 63
     7
421
 16777215
176
     1
 74
     1
176
     1
 91
        4
176
     1
 64
     7
176
     1
 65
   257
176
     1
 75
     1
176
     1
175
     1
176
     1
 42
1.0
176
     1
 92
        8
176
     1
 66
     7
176
     1
 43
1.0
176
     1
 76
     1
176
     1
 77
     6
176
     1
 78
     2
176
     1
 67
     7
176
     1
 79
     5
176
     1
170
     0
176
     1
171
     0
176
     1
290
     0
176
     1
 93
        1
176
     1
 44
-50.0
176
     1
173
     0
176
     1
  0
VISUALSTYLE
  5
2FE0
102
{ACAD_REACTORS
330
2FD1
102
}
330
2FD1
100
AcDbVisualStyle
  2
Facepattern
 70
    15
177
     2
291
     1
 71
     2
176
     1
 72
     2
176
     1
 73
     0
176
     1
 90
        0
176
     1
 40
-0.6
176
     1
 41
-30.0
176
     1
 62
     5
 63
     7
421
 16777215
176
     1
 74
     1
176
     1
 91
        4
176
     1
 64
     7
176
     1
 65
   257
176
     1
 75
     1
176
     1
175
     1
176
     1
 42
1.0
176
     1
 92
        8
176
     1
 66
     7
176
     1
 43
1.0
176
     1
 76
     1
176
     1
 77
     6
176
     1
 78
     2
176
     1
 67
     7
176
     1
 79
     5
176
     1
170
     0
176
     1
171
     0
176
     1
290
     0
176
     1
 93
        1
176
     1
 44
0.0
176
     1
173
     0
176
     1
  0
VISUALSTYLE
  5
2FD2
102
{ACAD_REACTORS
330
2FD1
102
}
330
2FD1
100
AcDbVisualStyle
  2
Flat
 70
     0
177
     2
291
     1
 71
     2
176
     1
 72
     1
176
     1
 73
     1
176
     1
 90
        2
176
     1
 40
-0.6
176
     1
 41
30.0
176
     1
 62
     5
 63
     7
421
 16777215
176
     1
 74
     0
176
     1
 91
        4
176
     1
 64
     7
176
     1
 65
   257
176
     1
 75
     1
176
     1
175
     1
176
     1
 42
1.0
176
     1
 92
        8
176
     1
 66
     7
176
     1
 43
1.0
176
     1
 76
     1
176
     1
 77
     6
176
     1
 78
     2
176
     1
 67
     7
176
     1
 79
     5
176
     1
170
     0
176
     1
171
     0
176
     1
290
     0
176
     1
 93
       13
176
     1
 44
0.0
176
     1
173
     0
176
     1
  0
VISUALSTYLE
  5
2FD3
102
{ACAD_REACTORS
330
2FD1
102
}
330
2FD1
100
AcDbVisualStyle
  2
FlatWithEdges
 70
     1
177
     2
291
     1
 71
     2
176
     1
 72
     1
176
     1
 73
     1
176
     1
 90
        2
176
     1
 40
-0.6
176
     1
 41
30.0
176
     1
 62
     5
 63
     7
421
 16777215
176
     1
 74
     1
176
     1
 91
        4
176
     1
 64
     7
176
     1
 65
   257
176
     1
 75
     1
176
     1
175
     1
176
     1
 42
1.0
176
     1
 92
        0
176
     1
 66
   257
176
     1
 43
1.0
176
     1
 76
     1
176
     1
 77
     6
176
     1
 78
     2
176
     1
 67
     7
176
     1
 79
     5
176
     1
170
     0
176
     1
171
     0
176
     1
290
     0
176
     1
 93
       13
176
     1
 44
0.0
176
     1
173
     0
176
     1
  0
VISUALSTYLE
  5
2FD4
102
{ACAD_REACTORS
330
2FD1
102
}
330
2FD1
100
AcDbVisualStyle
  2
Gouraud
 70
     2
177
     2
291
     1
 71
     2
176
     1
 72
     2
176
     1
 73
     1
176
     1
 90
        2
176
     1
 40
-0.6
176
     1
 41
30.0
176
     1
 62
     5
 63
     7
421
 16777215
176
     1
 74
     0
176
     1
 91
        4
176
     1
 64
     7
176
     1
 65
   257
176
     1
 75
     1
176
     1
175
     1
176
     1
 42
1.0
176
     1
 92
        0
176
     1
 66
     7
176
     1
 43
1.0
176
     1
 76
     1
176
     1
 77
     6
176
     1
 78
     2
176
     1
 67
     7
176
     1
 79
     5
176
     1
170
     0
176
     1
171
     0
176
     1
290
     0
176
     1
 93
       13
176
     1
 44
0.0
176
     1
173
     0
176
     1
  0
VISUALSTYLE
  5
2FD5
102
{ACAD_REACTORS
330
2FD1
102
}
330
2FD1
100
AcDbVisualStyle
  2
GouraudWithEdges
 70
     3
177
     2
291
     1
 71
     2
176
     1
 72
     2
176
     1
 73
     1
176
     1
 90
        2
176
     1
 40
-0.6
176
     1
 41
30.0
176
     1
 62
     5
 63
     7
421
 16777215
176
     1
 74
     1
176
     1
 91
        4
176
     1
 64
     7
176
     1
 65
   257
176
     1
 75
     1
176
     1
175
     1
176
     1
 42
1.0
176
     1
 92
        0
176
     1
 66
   257
176
     1
 43
1.0
176
     1
 76
     1
176
     1
 77
     6
176
     1
 78
     2
176
     1
 67
     7
176
     1
 79
     5
176
     1
170
     0
176
     1
171
     0
176
     1
290
     0
176
     1
 93
       13
176
     1
 44
0.0
176
     1
173
     0
176
     1
  0
VISUALSTYLE
  5
2FDF
102
{ACAD_REACTORS
330
2FD1
102
}
330
2FD1
100
AcDbVisualStyle
  2
Linepattern
 70
    14
177
     2
291
     1
 71
     2
176
     1
 72
     2
176
     1
 73
     0
176
     1
 90
        0
176
     1
 40
-0.6
176
     1
 41
-30.0
176
     1
 62
     5
 63
     7
421
 16777215
176
     1
 74
     1
176
     1
 91
        4
176
     1
 64
     7
176
     1
 65
   257
176
     1
 75
     7
176
     1
175
     7
176
     1
 42
1.0
176
     1
 92
        8
176
     1
 66
     7
176
     1
 43
1.0
176
     1
 76
     1
176
     1
 77
     6
176
     1
 78
     2
176
     1
 67
     7
176
     1
 79
     5
176
     1
170
     0
176
     1
171
     0
176
     1
290
     0
176
     1
 93
        1
176
     1
 44
0.0
176
     1
173
     0
176
     1
  0
VISUALSTYLE
  5
2FDA
102
{ACAD_REACTORS
330
2FD1
102
}
330
2FD1
100
AcDbVisualStyle
  2
Realistic
 70
     8
177
     2
291
     0
 71
     2
176
     1
 72
     2
176
     1
 73
     0
176
     1
 90
        0
176
     1
 40
-0.6
176
     1
 41
-30.0
176
     1
 62
     5
 63
     7
421
 16777215
176
     1
 74
     1
176
     1
 91
        0
176
     1
 64
     7
176
     1
 65
   257
176
     1
 75
     1
176
     1
175
     1
176
     1
 42
1.0
176
     1
 92
        8
176
     1
 66
     8
424
  7895160
176
     1
 43
1.0
176
     1
 76
     1
176
     1
 77
     6
176
     1
 78
     2
176
     1
 67
     7
176
     1
 79
     5
176
     1
170
     0
176
     1
171
     0
176
     1
290
     0
176
     1
 93
       13
176
     1
 44
0.0
176
     1
173
     0
176
     1
  0
VISUALSTYLE
  5
2FDE
102
{ACAD_REACTORS
330
2FD1
102
}
330
2FD1
100
AcDbVisualStyle
  2
Thicken
 70
    13
177
     2
291
     1
 71
     2
176
     1
 72
     2
176
     1
 73
     0
176
     1
 90
        0
176
     1
 40
-0.6
176
     1
 41
-30.0
176
     1
 62
     5
 63
     7
421
 16777215
176
     1
 74
     1
176
     1
 91
        4
176
     1
 64
     7
176
     1
 65
   257
176
     1
 75
     1
176
     1
175
     1
176
     1
 42
1.0
176
     1
 92
       12
176
     1
 66
     7
176
     1
 43
1.0
176
     1
 76
     1
176
     1
 77
     6
176
     1
 78
     2
176
     1
 67
     7
176
     1
 79
     5
176
     1
170
     0
176
     1
171
     0
176
     1
290
     0
176
     1
 93
        1
176
     1
 44
0.0
176
     1
173
     0
176
     1
  0
XRECORD
  5
2FF6
102
{ACAD_REACTORS
330
2FE7
102
}
330
2FE7
100
AcDbXrecord
280
     1
290
     1
  0
XRECORD
  5
2FEF
102
{ACAD_REACTORS
330
2FE7
102
}
330
2FE7
100
AcDbXrecord
280
     1
1000
auto
  0
XRECORD
  5
2FF1
102
{ACAD_REACTORS
330
2FE7
102
}
330
2FE7
100
AcDbXrecord
280
     1
1000
auto
  0
XRECORD
  5
2FEE
102
{ACAD_REACTORS
330
2FE7
102
}
330
2FE7
100
AcDbXrecord
280
     1
 90
        1
  0
XRECORD
  5
2FEB
102
{ACAD_REACTORS
330
2FE7
102
}
330
2FE7
100
AcDbXrecord
280
     1
 40
10.0
  0
XRECORD
  5
2FF2
102
{ACAD_REACTORS
330
2FE7
102
}
330
2FE7
100
AcDbXrecord
280
     1
 40
10.0
  0
XRECORD
  5
2FE8
102
{ACAD_REACTORS
330
2FE7
102
}
330
2FE7
100
AcDbXrecord
280
     1
 40
10.0
  0
XRECORD
  5
2FFA
102
{ACAD_REACTORS
330
2FE7
102
}
330
2FE7
100
AcDbXrecord
280
     1
 40
10.0
  0
XRECORD
  5
2FEA
102
{ACAD_REACTORS
330
2FE7
102
}
330
2FE7
100
AcDbXrecord
280
     1
290
     0
  0
XRECORD
  5
2FF3
102
{ACAD_REACTORS
330
2FE7
102
}
330
2FE7
100
AcDbXrecord
280
     1
 90
        1
  0
XRECORD
  5
2FF8
102
{ACAD_REACTORS
330
2FE7
102
}
330
2FE7
100
AcDbXrecord
280
     1
 40
0.0
  0
XRECORD
  5
2FF9
102
{ACAD_REACTORS
330
2FE7
102
}
330
2FE7
100
AcDbXrecord
280
     1
 40
0.0
  0
XRECORD
  5
2FE9
102
{ACAD_REACTORS
330
2FE7
102
}
330
2FE7
100
AcDbXrecord
280
     1
1000
Portrait
  0
XRECORD
  5
2FED
102
{ACAD_REACTORS
330
2FE7
102
}
330
2FE7
100
AcDbXrecord
280
     1
 40
297.0
  0
XRECORD
  5
2FF4
102
{ACAD_REACTORS
330
2FE7
102
}
330
2FE7
100
AcDbXrecord
280
     1
 40
210.0
  0
XRECORD
  5
2FEC
102
{ACAD_REACTORS
330
2FE7
102
}
330
2FE7
100
AcDbXrecord
280
     1
1000
1:1
  0
XRECORD
  5
2FF0
102
{ACAD_REACTORS
330
2FE7
102
}
330
2FE7
100
AcDbXrecord
280
     1
290
     0
  0
XRECORD
  5
2FF7
102
{ACAD_REACTORS
330
2FE7
102
}
330
2FE7
100
AcDbXrecord
280
     1
290
     1
  0
XRECORD
  5
2FF5
102
{ACAD_REACTORS
330
2FE7
102
}
330
2FE7
100
AcDbXrecord
280
     1
 90
        4
  0
ENDSEC
  0
EOF
