  0
SECTION
  2
HEADER
  9
$ACADVER
  1
AC1024
  9
$ACADMAINTVER
 70
     6
  9
$DWGCODEPAGE
  3
ASCII
  9
$INSBASE
 10
0.0
 20
0.0
 30
0.0
  9
$EXTMIN
 10
1.000000000000000E+20
 20
1.000000000000000E+20
 30
1.000000000000000E+20
  9
$EXTMAX
 10
-1.000000000000000E+20
 20
-1.000000000000000E+20
 30
-1.000000000000000E+20
  9
$LIMMIN
 10
0.0
 20
0.0
  9
$LIMMAX
 10
12.0
 20
9.0
  9
$ORTHOMODE
 70
     0
  9
$REGENMODE
 70
     1
  9
$FILLMODE
 70
     1
  9
$QTEXTMODE
 70
     0
  9
$MIRRTEXT
 70
     1
  9
$LTSCALE
 40
1.0
  9
$ATTMODE
 70
     1
  9
$TEXTSIZE
 40
0.2
  9
$TRACEWID
 40
0.05
  9
$TEXTSTYLE
  7
Standard
  9
$CLAYER
  8
0
  9
$CELTYPE
  6
ByLayer
  9
$CECOLOR
 62
    18
  9
$CELTSCALE
 40
1.0
  9
$DISPSILH
 70
     0
  9
$DIMSCALE
 40
1.0
  9
$DIMASZ
 40
2.5
  9
$DIMEXO
 40
0.625
  9
$DIMDLI
 40
0.38
  9
$DIMRND
 40
0.0
  9
$DIMDLE
 40
0.0
  9
$DIMEXE
 40
1.25
  9
$DIMTP
 40
0.0
  9
$DIMTM
 40
0.0
  9
$DIMTXT
 40
2.5
  9
$DIMCEN
 40
0.09
  9
$DIMTSZ
 40
0.0
  9
$DIMTOL
 70
     0
  9
$DIMLIM
 70
     0
  9
$DIMTIH
 70
     1
  9
$DIMTOH
 70
     1
  9
$DIMSE1
 70
     0
  9
$DIMSE2
 70
     0
  9
$DIMTAD
 70
     0
  9
$DIMZIN
 70
     8
  9
$DIMBLK
  1

  9
$DIMASO
 70
     1
  9
$DIMSHO
 70
     1
  9
$DIMPOST
  1

  9
$DIMAPOST
  1

  9
$DIMALT
 70
     0
  9
$DIMALTD
 70
     2
  9
$DIMALTF
 40
25.4
  9
$DIMLFAC
 40
1.0
  9
$DIMTOFL
 70
     0
  9
$DIMTVP
 40
0.0
  9
$DIMTIX
 70
     0
  9
$DIMSOXD
 70
     0
  9
$DIMSAH
 70
     0
  9
$DIMBLK1
  1

  9
$DIMBLK2
  1

  9
$DIMSTYLE
  2
Standard
  9
$DIMCLRD
 70
    18
  9
$DIMCLRE
 70
    18
  9
$DIMCLRT
 70
    18
  9
$DIMTFAC
 40
1.0
  9
$DIMGAP
 40
0.625
  9
$DIMJUST
 70
     0
  9
$DIMSD1
 70
     0
  9
$DIMSD2
 70
     0
  9
$DIMTOLJ
 70
     1
  9
$DIMTZIN
 70
     0
  9
$DIMALTZ
 70
     0
  9
$DIMALTTZ
 70
     0
  9
$DIMUPT
 70
     0
  9
$DIMDEC
 70
     4
  9
$DIMTDEC
 70
     4
  9
$DIMALTU
 70
     2
  9
$DIMALTTD
 70
     2
  9
$DIMTXSTY
  7
Standard
  9
$DIMAUNIT
 70
     0
  9
$DIMADEC
 70
     0
  9
$DIMALTRND
 40
0.0
  9
$DIMAZIN
 70
     2
  9
$DIMDSEP
 70
    46
  9
$DIMATFIT
 70
     3
  9
$DIMFRAC
 70
     0
  9
$DIMLDRBLK
  1

  9
$DIMLUNIT
 70
     2
  9
$DIMLWD
 70
    -2
  9
$DIMLWE
 70
    -2
  9
$DIMTMOVE
 70
     0
  9
$DIMFXL
 40
1.0
  9
$DIMFXLON
 70
     0
  9
$DIMJOGANG
 40
0.7853981633974483
  9
$DIMTFILL
 70
     0
  9
$DIMTFILLCLR
 70
     0
  9
$DIMARCSYM
 70
     0
  9
$DIMLTYPE
  6

  9
$DIMLTEX1
  6

  9
$DIMLTEX2
  6

  9
$DIMTXTDIRECTION
 70
     0
  9
$LUNITS
 70
     2
  9
$LUPREC
 70
     4
  9
$SKETCHINC
 40
0.1
  9
$FILLETRAD
 40
0.5
  9
$AUNITS
 70
     0
  9
$AUPREC
 70
     0
  9
$MENU
  1
.
  9
$ELEVATION
 40
0.0
  9
$PELEVATION
 40
0.0
  9
$THICKNESS
 40
0.0
  9
$LIMCHECK
 70
     0
  9
$CHAMFERA
 40
0.5
  9
$CHAMFERB
 40
0.5
  9
$CHAMFERC
 40
1.0
  9
$CHAMFERD
 40
0.0
  9
$SKPOLY
 70
     0
  9
$TDCREATE
 40
2455883.671760787
  9
$TDUCREATE
 40
2455883.88009412
  9
$TDUPDATE
 40
2455883.671760972
  9
$TDUUPDATE
 40
2455883.880094306
  9
$TDINDWG
 40
0.0000000116
  9
$TDUSRTIMER
 40
0.0000000116
  9
$USRTIMER
 70
     1
  9
$ANGBASE
 50
0.0
  9
$ANGDIR
 70
     0
  9
$PDMODE
 70
     0
  9
$PDSIZE
 40
0.0
  9
$PLINEWID
 40
0.0
  9
$SPLFRAME
 70
     0
  9
$SPLINETYPE
 70
     6
  9
$SPLINESEGS
 70
     8
  9
$HANDSEED
  5
164
  9
$SURFTAB1
 70
     6
  9
$SURFTAB2
 70
     6
  9
$SURFTYPE
 70
     6
  9
$SURFU
 70
     6
  9
$SURFV
 70
     6
  9
$UCSBASE
  2

  9
$UCSNAME
  2

  9
$UCSORG
 10
0.0
 20
0.0
 30
0.0
  9
$UCSXDIR
 10
1.0
 20
0.0
 30
0.0
  9
$UCSYDIR
 10
0.0
 20
1.0
 30
0.0
  9
$UCSORTHOREF
  2

  9
$UCSORTHOVIEW
 70
     0
  9
$UCSORGTOP
 10
0.0
 20
0.0
 30
0.0
  9
$UCSORGBOTTOM
 10
0.0
 20
0.0
 30
0.0
  9
$UCSORGLEFT
 10
0.0
 20
0.0
 30
0.0
  9
$UCSORGRIGHT
 10
0.0
 20
0.0
 30
0.0
  9
$UCSORGFRONT
 10
0.0
 20
0.0
 30
0.0
  9
$UCSORGBACK
 10
0.0
 20
0.0
 30
0.0
  9
$PUCSBASE
  2

  9
$PUCSNAME
  2

  9
$PUCSORG
 10
0.0
 20
0.0
 30
0.0
  9
$PUCSXDIR
 10
1.0
 20
0.0
 30
0.0
  9
$PUCSYDIR
 10
0.0
 20
1.0
 30
0.0
  9
$PUCSORTHOREF
  2

  9
$PUCSORTHOVIEW
 70
     0
  9
$PUCSORGTOP
 10
0.0
 20
0.0
 30
0.0
  9
$PUCSORGBOTTOM
 10
0.0
 20
0.0
 30
0.0
  9
$PUCSORGLEFT
 10
0.0
 20
0.0
 30
0.0
  9
$PUCSORGRIGHT
 10
0.0
 20
0.0
 30
0.0
  9
$PUCSORGFRONT
 10
0.0
 20
0.0
 30
0.0
  9
$PUCSORGBACK
 10
0.0
 20
0.0
 30
0.0
  9
$USERI1
 70
     0
  9
$USERI2
 70
     0
  9
$USERI3
 70
     0
  9
$USERI4
 70
     0
  9
$USERI5
 70
     0
  9
$USERR1
 40
0.0
  9
$USERR2
 40
0.0
  9
$USERR3
 40
0.0
  9
$USERR4
 40
0.0
  9
$USERR5
 40
0.0
  9
$WORLDVIEW
 70
     1
  9
$SHADEDGE
 70
     3
  9
$SHADEDIF
 70
    70
  9
$TILEMODE
 70
     1
  9
$MAXACTVP
 70
    64
  9
$PINSBASE
 10
0.0
 20
0.0
 30
0.0
  9
$PLIMCHECK
 70
     0
  9
$PEXTMIN
 10
1.000000000000000E+20
 20
1.000000000000000E+20
 30
1.000000000000000E+20
  9
$PEXTMAX
 10
-1.000000000000000E+20
 20
-1.000000000000000E+20
 30
-1.000000000000000E+20
  9
$PLIMMIN
 10
0.0
 20
0.0
  9
$PLIMMAX
 10
12.0
 20
9.0
  9
$UNITMODE
 70
     0
  9
$VISRETAIN
 70
     1
  9
$PLINEGEN
 70
     0
  9
$PSLTSCALE
 70
     1
  9
$TREEDEPTH
 70
  3020
  9
$CMLSTYLE
  2
Standard
  9
$CMLJUST
 70
     0
  9
$CMLSCALE
 40
1.0
  9
$PROXYGRAPHICS
 70
     1
  9
$MEASUREMENT
 70
     1
  9
$CELWEIGHT
370
    -1
  9
$ENDCAPS
280
     0
  9
$JOINSTYLE
280
     0
  9
$LWDISPLAY
290
     0
  9
$INSUNITS
 70
     0
  9
$HYPERLINKBASE
  1

  9
$STYLESHEET
  1

  9
$XEDIT
290
     1
  9
$CEPSNTYPE
380
     0
  9
$PSTYLEMODE
290
     1
  9
$FINGERPRINTGUID
  2
{9DF9187E-EF27-4D81-80F3-8D49DF9B7239}
  9
$VERSIONGUID
  2
{FAEB1C32-E019-11D5-929B-00C0DF256EC4}
  9
$EXTNAMES
290
     1
  9
$PSVPSCALE
 40
0.0
  9
$OLESTARTUP
290
     0
  9
$SORTENTS
280
   127
  9
$INDEXCTL
280
     0
  9
$HIDETEXT
280
     1
  9
$XCLIPFRAME
280
     2
  9
$HALOGAP
280
     0
  9
$OBSCOLOR
 70
   257
  9
$OBSLTYPE
280
     0
  9
$INTERSECTIONDISPLAY
280
     0
  9
$INTERSECTIONCOLOR
 70
   257
  9
$DIMASSOC
280
     2
  9
$PROJECTNAME
  1

  9
$CAMERADISPLAY
290
     0
  9
$LENSLENGTH
 40
50.0
  9
$CAMERAHEIGHT
 40
0.0
  9
$STEPSPERSEC
 40
2.0
  9
$STEPSIZE
 40
6.0
  9
$3DDWFPREC
 40
2.0
  9
$PSOLWIDTH
 40
0.25
  9
$PSOLHEIGHT
 40
4.0
  9
$LOFTANG1
 40
1.570796326794897
  9
$LOFTANG2
 40
1.570796326794897
  9
$LOFTMAG1
 40
0.0
  9
$LOFTMAG2
 40
0.0
  9
$LOFTPARAM
 70
     7
  9
$LOFTNORMALS
280
     1
  9
$LATITUDE
 40
37.795
  9
$LONGITUDE
 40
-122.394
  9
$NORTHDIRECTION
 40
0.0
  9
$TIMEZONE
 70
 -8000
  9
$LIGHTGLYPHDISPLAY
280
     1
  9
$TILEMODELIGHTSYNCH
280
     1
  9
$SOLIDHIST
280
     1
  9
$SHOWHIST
280
     1
  9
$DWFFRAME
280
     2
  9
$DGNFRAME
280
     2
  9
$REALWORLDSCALE
290
     1
  9
$INTERFERECOLOR
 62
   256
  9
$CSHADOW
280
     0
  9
$SHADOWPLANELOCATION
 40
0.0
  0
ENDSEC
  0
SECTION
  2
CLASSES
  0
CLASS
  1
ACDBDICTIONARYWDFLT
  2
AcDbDictionaryWithDefault
  3
ObjectDBX Classes
 90
        0
 91
        4
280
     0
281
     0
  0
CLASS
  1
VISUALSTYLE
  2
AcDbVisualStyle
  3
ObjectDBX Classes
 90
     4095
 91
        4
280
     0
281
     0
  0
CLASS
  1
MATERIAL
  2
AcDbMaterial
  3
ObjectDBX Classes
 90
     1153
 91
        4
280
     0
281
     0
  0
ENDSEC
  0
SECTION
  2
TABLES
  0
TABLE
  2
VPORT
  5
A9
330
0
100
AcDbSymbolTable
 70
     1
  0
VPORT
  5
C9
330
A9
100
AcDbSymbolTableRecord
100
AcDbViewportTableRecord
  2
*Active
 70
     0
 10
0.0
 20
0.0
 11
1.0
 21
1.0
 12
10.42990654205607
 22
4.5
 13
0.0
 23
0.0
 14
0.5
 24
0.5
 15
0.5
 25
0.5
 16
0.0
 26
0.0
 36
1.0
 17
0.0
 27
0.0
 37
0.0
 40
9.0
 41
1.972972972850329
 42
50.0
 43
0.0
 44
0.0
 50
0.0
 51
0.0
 71
     0
 72
   100
 73
     1
 74
     3
 75
     0
 76
     0
 77
     0
 78
     0
281
     0
 65
     1
110
0.0
120
0.0
130
0.0
111
1.0
121
0.0
131
0.0
112
0.0
122
1.0
132
0.0
 79
     0
146
0.0
 60
     3
 61
     5
292
     1
282
     1
141
0.0
142
0.0
 63
   250
  0
ENDTAB
  0
TABLE
  2
LTYPE
  5
A6
330
0
100
AcDbSymbolTable
 70
    19
  0
LTYPE
  5
B4
330
A6
100
AcDbSymbolTableRecord
100
AcDbLinetypeTableRecord
  2
ByBlock
 70
     0
  3

 72
    65
 73
     0
 40
0.0
  0
LTYPE
  5
B5
330
A6
100
AcDbSymbolTableRecord
100
AcDbLinetypeTableRecord
  2
ByLayer
 70
     0
  3

 72
    65
 73
     0
 40
0.0
  0
LTYPE
  5
B6
330
A6
100
AcDbSymbolTableRecord
100
AcDbLinetypeTableRecord
  2
Continuous
 70
     0
  3
Solid line
 72
    65
 73
     0
 40
0.0
  0
LTYPE
  5
F5
330
A6
100
AcDbSymbolTableRecord
100
AcDbLinetypeTableRecord
  2
BORDER
 70
     0
  3

 72
    65
 73
     6
 40
42.00000000000001
 49
12.0
 74
     0
 49
-6.0
 74
     0
 49
12.0
 74
     0
 49
-5.95
 74
     0
 49
0.1
 74
     0
 49
-5.95
 74
     0
  0
LTYPE
  5
F6
330
A6
100
AcDbSymbolTableRecord
100
AcDbLinetypeTableRecord
  2
BORDER2
 70
     0
  3

 72
    65
 73
     6
 40
21.0
 49
6.0
 74
     0
 49
-3.0
 74
     0
 49
6.0
 74
     0
 49
-2.95
 74
     0
 49
0.1
 74
     0
 49
-2.95
 74
     0
  0
LTYPE
  5
F7
330
A6
100
AcDbSymbolTableRecord
100
AcDbLinetypeTableRecord
  2
BORDERX2
 70
     0
  3

 72
    65
 73
     6
 40
84.0
 49
24.0
 74
     0
 49
-12.0
 74
     0
 49
24.0
 74
     0
 49
-11.95
 74
     0
 49
0.1
 74
     0
 49
-11.95
 74
     0
  0
LTYPE
  5
F8
330
A6
100
AcDbSymbolTableRecord
100
AcDbLinetypeTableRecord
  2
CENTER
 70
     0
  3

 72
    65
 73
     4
 40
50.0
 49
32.0
 74
     0
 49
-6.0
 74
     0
 49
6.0
 74
     0
 49
-6.0
 74
     0
  0
LTYPE
  5
F9
330
A6
100
AcDbSymbolTableRecord
100
AcDbLinetypeTableRecord
  2
CENTER2
 70
     0
  3

 72
    65
 73
     4
 40
25.0
 49
16.0
 74
     0
 49
-3.0
 74
     0
 49
3.0
 74
     0
 49
-3.0
 74
     0
  0
LTYPE
  5
FA
330
A6
100
AcDbSymbolTableRecord
100
AcDbLinetypeTableRecord
  2
CENTERX2
 70
     0
  3

 72
    65
 73
     4
 40
100.0
 49
64.0
 74
     0
 49
-12.0
 74
     0
 49
12.0
 74
     0
 49
-12.0
 74
     0
  0
LTYPE
  5
FB
330
A6
100
AcDbSymbolTableRecord
100
AcDbLinetypeTableRecord
  2
DASHDOT
 70
     0
  3

 72
    65
 73
     4
 40
24.0
 49
12.0
 74
     0
 49
-5.95
 74
     0
 49
0.1
 74
     0
 49
-5.95
 74
     0
  0
LTYPE
  5
FC
330
A6
100
AcDbSymbolTableRecord
100
AcDbLinetypeTableRecord
  2
DASHDOT2
 70
     0
  3

 72
    65
 73
     4
 40
12.0
 49
6.0
 74
     0
 49
-2.95
 74
     0
 49
0.1
 74
     0
 49
-2.95
 74
     0
  0
LTYPE
  5
FD
330
A6
100
AcDbSymbolTableRecord
100
AcDbLinetypeTableRecord
  2
DASHDOTX2
 70
     0
  3

 72
    65
 73
     4
 40
48.0
 49
24.0
 74
     0
 49
-11.95
 74
     0
 49
0.1
 74
     0
 49
-11.95
 74
     0
  0
LTYPE
  5
FE
330
A6
100
AcDbSymbolTableRecord
100
AcDbLinetypeTableRecord
  2
DASHED
 70
     0
  3

 72
    65
 73
     2
 40
18.0
 49
12.0
 74
     0
 49
-6.0
 74
     0
  0
LTYPE
  5
FF
330
A6
100
AcDbSymbolTableRecord
100
AcDbLinetypeTableRecord
  2
DASHED2
 70
     0
  3

 72
    65
 73
     2
 40
9.0
 49
6.0
 74
     0
 49
-3.0
 74
     0
  0
LTYPE
  5
100
330
A6
100
AcDbSymbolTableRecord
100
AcDbLinetypeTableRecord
  2
DASHEDX2
 70
     0
  3

 72
    65
 73
     2
 40
36.0
 49
24.0
 74
     0
 49
-12.0
 74
     0
  0
LTYPE
  5
101
330
A6
100
AcDbSymbolTableRecord
100
AcDbLinetypeTableRecord
  2
DIVIDE
 70
     0
  3

 72
    65
 73
     6
 40
29.99999999999999
 49
12.0
 74
     0
 49
-5.9
 74
     0
 49
0.15
 74
     0
 49
-5.9
 74
     0
 49
0.15
 74
     0
 49
-5.9
 74
     0
  0
LTYPE
  5
102
330
A6
100
AcDbSymbolTableRecord
100
AcDbLinetypeTableRecord
  2
DIVIDE2
 70
     0
  3

 72
    65
 73
     6
 40
15.0
 49
6.0
 74
     0
 49
-2.9
 74
     0
 49
0.15
 74
     0
 49
-2.9
 74
     0
 49
0.15
 74
     0
 49
-2.9
 74
     0
  0
LTYPE
  5
103
330
A6
100
AcDbSymbolTableRecord
100
AcDbLinetypeTableRecord
  2
DIVIDEX2
 70
     0
  3

 72
    65
 73
     6
 40
59.99999999999999
 49
24.0
 74
     0
 49
-11.9
 74
     0
 49
0.15
 74
     0
 49
-11.9
 74
     0
 49
0.15
 74
     0
 49
-11.9
 74
     0
  0
LTYPE
  5
104
330
A6
100
AcDbSymbolTableRecord
100
AcDbLinetypeTableRecord
  2
DOT
 70
     0
  3

 72
    65
 73
     2
 40
6.3
 49
0.1
 74
     0
 49
-6.2
 74
     0
  0
LTYPE
  5
105
330
A6
100
AcDbSymbolTableRecord
100
AcDbLinetypeTableRecord
  2
DOT2
 70
     0
  3

 72
    65
 73
     2
 40
3.2
 49
0.1
 74
     0
 49
-3.1
 74
     0
  0
LTYPE
  5
106
330
A6
100
AcDbSymbolTableRecord
100
AcDbLinetypeTableRecord
  2
DOTX2
 70
     0
  3

 72
    65
 73
     2
 40
12.5
 49
0.1
 74
     0
 49
-12.4
 74
     0
  0
ENDTAB
  0
TABLE
  2
LAYER
  5
A3
330
0
100
AcDbSymbolTable
 70
     7
  0
LAYER
  5
B1
330
A3
100
AcDbSymbolTableRecord
100
AcDbLayerTableRecord
  2
0
 70
     0
 62
     7
420
 16777215
  6
Continuous
370
    25
390
B0
347
DE
  0
LAYER
  5
107
330
A3
100
AcDbSymbolTableRecord
100
AcDbLayerTableRecord
  2
cut referance
 70
     0
 62
     4
420
    65535
  6
Continuous
370
    25
390
B0
347
DE
  0
LAYER
  5
108
330
A3
100
AcDbSymbolTableRecord
100
AcDbLayerTableRecord
  2
actual parts
 70
     0
 62
     5
420
      255
  6
Continuous
370
    25
390
B0
347
DE
  0
LAYER
  5
109
330
A3
100
AcDbSymbolTableRecord
100
AcDbLayerTableRecord
  2
rev 3 text
 70
     0
 62
     5
420
      255
  6
Continuous
370
    25
390
B0
347
DE
  0
LAYER
  5
10A
330
A3
100
AcDbSymbolTableRecord
100
AcDbLayerTableRecord
  2
rev 3 parts
 70
     0
 62
     4
420
    65535
  6
Continuous
370
    25
390
B0
347
DE
  0
LAYER
  5
10B
330
A3
100
AcDbSymbolTableRecord
100
AcDbLayerTableRecord
  2
referance lines
 70
     0
 62
     3
420
    65280
  6
Continuous
370
    25
390
B0
347
DE
  0
LAYER
  5
10C
330
A3
100
AcDbSymbolTableRecord
100
AcDbLayerTableRecord
  2
Defpoints
 70
     0
 62
     7
420
 16777215
  6
Continuous
290
     0
370
    -3
390
B0
347
DE
  0
ENDTAB
  0
TABLE
  2
STYLE
  5
A4
330
0
100
AcDbSymbolTable
 70
     1
  0
STYLE
  5
B2
330
A4
100
AcDbSymbolTableRecord
100
AcDbTextStyleTableRecord
  2
Standard
 70
     0
 40
0.0
 41
1.0
 50
0.0
 71
     0
 42
0.2
  3
txt
  4

  0
ENDTAB
  0
TABLE
  2
VIEW
  5
A7
330
0
100
AcDbSymbolTable
 70
     0
  0
ENDTAB
  0
TABLE
  2
UCS
  5
A8
330
0
100
AcDbSymbolTable
 70
     0
  0
ENDTAB
  0
TABLE
  2
APPID
  5
AA
330
0
100
AcDbSymbolTable
 70
     2
  0
APPID
  5
B3
330
AA
100
AcDbSymbolTableRecord
100
AcDbRegAppTableRecord
  2
ACAD
 70
     0
  0
APPID
  5
DF
330
AA
100
AcDbSymbolTableRecord
100
AcDbRegAppTableRecord
  2
QCAD
 70
     0
  0
ENDTAB
  0
TABLE
  2
DIMSTYLE
  5
AB
330
0
100
AcDbSymbolTable
 70
     2
100
AcDbDimStyleTable
  0
DIMSTYLE
105
C7
330
AB
100
AcDbSymbolTableRecord
100
AcDbDimStyleTableRecord
  2
Standard
 70
     0
178
     0
340
B2
  0
DIMSTYLE
105
F4
102
{ACAD_REACTORS
330
84
330
8D
330
8E
330
8F
330
9C
330
9D
330
9E
102
}
330
AB
100
AcDbSymbolTableRecord
100
AcDbDimStyleTableRecord
  2
QCADDimStyle
 70
     0
 41
2.5
 42
0.625
 44
1.25
 73
     0
 77
     1
140
2.5
147
0.625
178
     0
340
B2
  0
ENDTAB
  0
TABLE
  2
BLOCK_RECORD
  5
A2
330
0
100
AcDbSymbolTable
 70
     8
  0
BLOCK_RECORD
  5
BF
330
A2
100
AcDbSymbolTableRecord
100
AcDbBlockTableRecord
  2
*Model_Space
340
C2
 70
     0
280
     1
281
     0
  0
BLOCK_RECORD
  5
BB
330
A2
100
AcDbSymbolTableRecord
100
AcDbBlockTableRecord
  2
*Paper_Space
340
BE
 70
     0
280
     1
281
     0
  0
BLOCK_RECORD
  5
C3
330
A2
100
AcDbSymbolTableRecord
100
AcDbBlockTableRecord
  2
*Paper_Space0
340
C6
 70
     0
280
     1
281
     0
  0
BLOCK_RECORD
  5
10D
330
A2
100
AcDbSymbolTableRecord
100
AcDbBlockTableRecord
  2
*D1
340
0
 70
     0
280
     1
281
     0
  0
BLOCK_RECORD
  5
119
330
A2
100
AcDbSymbolTableRecord
100
AcDbBlockTableRecord
  2
*D2
340
0
 70
     0
280
     1
281
     0
  0
BLOCK_RECORD
  5
125
330
A2
100
AcDbSymbolTableRecord
100
AcDbBlockTableRecord
  2
*D3
340
0
 70
     0
280
     1
281
     0
  0
BLOCK_RECORD
  5
131
330
A2
100
AcDbSymbolTableRecord
100
AcDbBlockTableRecord
  2
*D4
340
0
 70
     0
280
     1
281
     0
  0
BLOCK_RECORD
  5
13D
330
A2
100
AcDbSymbolTableRecord
100
AcDbBlockTableRecord
  2
*D5
340
0
 70
     0
280
     1
281
     0
  0
BLOCK_RECORD
  5
149
330
A2
100
AcDbSymbolTableRecord
100
AcDbBlockTableRecord
  2
*D6
340
0
 70
     0
280
     1
281
     0
  0
BLOCK_RECORD
  5
156
330
A2
100
AcDbSymbolTableRecord
100
AcDbBlockTableRecord
  2
*D7
340
0
 70
     0
280
     1
281
     0
  0
ENDTAB
  0
ENDSEC
  0
SECTION
  2
BLOCKS
  0
BLOCK
  5
C0
330
BF
100
AcDbEntity
  8
0
100
AcDbBlockBegin
  2
*Model_Space
 70
     0
 10
0.0
 20
0.0
 30
0.0
  3
*Model_Space
  1

  0
ENDBLK
  5
C1
330
BF
100
AcDbEntity
  8
0
100
AcDbBlockEnd
  0
BLOCK
  5
BC
330
BB
100
AcDbEntity
 67
     1
  8
0
100
AcDbBlockBegin
  2
*Paper_Space
 70
     0
 10
0.0
 20
0.0
 30
0.0
  3
*Paper_Space
  1

  0
ENDBLK
  5
BD
330
BB
100
AcDbEntity
 67
     1
  8
0
100
AcDbBlockEnd
  0
BLOCK
  5
C4
330
C3
100
AcDbEntity
  8
0
100
AcDbBlockBegin
  2
*Paper_Space0
 70
     0
 10
0.0
 20
0.0
 30
0.0
  3
*Paper_Space0
  1

  0
ENDBLK
  5
C5
330
C3
100
AcDbEntity
  8
0
100
AcDbBlockEnd
  0
BLOCK
  5
117
330
10D
100
AcDbEntity
  8
0
100
AcDbBlockBegin
  2
*D1
 70
     1
 10
0.0
 20
0.0
 30
0.0
  3
*D1
  1

  0
LINE
  5
10E
330
10D
100
AcDbEntity
  8
referance lines
 62
     0
370
    -2
100
AcDbLine
 10
1.599112640134458
 20
2.963082158163032
 30
0.0
 11
1.604938249242572
 21
-21.26163817720973
 31
0.0
  0
LINE
  5
10F
330
10D
100
AcDbEntity
  8
referance lines
 62
     0
370
    -2
100
AcDbLine
 10
50.41085589031574
 20
2.974820503626867
 30
0.0
 11
50.41668149942385
 21
-21.24989983174589
 31
0.0
  0
LINE
  5
110
330
10D
100
AcDbEntity
  8
referance lines
 62
     0
370
    -2
100
AcDbLine
 10
4.104637574466299
 20
-20.0110370083809
 30
0.0
 11
47.91638096922655
 21
-20.00050107286421
 31
0.0
  0
SOLID
  5
111
330
10D
100
AcDbEntity
  8
referance lines
 62
     0
100
AcDbTrace
 10
4.10453737363737
 20
-19.59437035376248
 30
0.0
 11
4.104737775295228
 21
-20.42770366299931
 31
0.0
 12
1.604637646755783
 22
-20.01163821335447
 32
0.0
 13
1.604637646755783
 23
-20.01163821335447
 33
0.0
  0
SOLID
  5
112
330
10D
100
AcDbEntity
  8
referance lines
 62
     0
100
AcDbTrace
 10
47.91648117005548
 20
-20.41716772748263
 30
0.0
 11
47.91628076839762
 21
-19.5838344182458
 31
0.0
 12
50.41638089693706
 22
-19.99989986789064
 32
0.0
 13
50.41638089693706
 23
-19.99989986789064
 33
0.0
  0
MTEXT
  5
113
330
10D
100
AcDbEntity
  8
referance lines
 62
     0
100
AcDbMText
 10
26.01005836811624
 20
-18.13076909483967
 30
0.0
 40
2.5
 41
0.0
 46
0.0
 71
     5
 72
     1
  1
\A1;48.8117
 11
0.999999971084206
 21
0.0002404819894312614
 31
0.0
 73
     1
 44
1.0
  0
POINT
  5
114
330
10D
100
AcDbEntity
  8
Defpoints
 62
     0
100
AcDbPoint
 10
1.598962338891063
 20
3.588082140090661
 30
0.0
  0
POINT
  5
115
330
10D
100
AcDbEntity
  8
Defpoints
 62
     0
100
AcDbPoint
 10
50.41070558907234
 20
3.599820485554496
 30
0.0
  0
POINT
  5
116
330
10D
100
AcDbEntity
  8
Defpoints
 62
     0
100
AcDbPoint
 10
50.41638089693706
 20
-19.99989986789064
 30
0.0
  0
ENDBLK
  5
118
330
10D
100
AcDbEntity
  8
0
100
AcDbBlockEnd
  0
BLOCK
  5
123
330
119
100
AcDbEntity
  8
0
100
AcDbBlockBegin
  2
*D2
 70
     1
 10
0.0
 20
0.0
 30
0.0
  3
*D2
  1

  0
LINE
  5
11A
330
119
100
AcDbEntity
  8
referance lines
 62
     0
370
    -2
100
AcDbLine
 10
8.179764693051025
 20
-0.0353720287977456
 30
0.0
 11
8.182549397440459
 21
-11.5169474308082
 31
0.0
  0
LINE
  5
11B
330
119
100
AcDbEntity
  8
referance lines
 62
     0
370
    -2
100
AcDbLine
 10
43.83890641523813
 20
-0.0267233751939887
 30
0.0
 11
43.84169111962756
 21
-11.50829877720444
 31
0.0
  0
LINE
  5
11C
330
119
100
AcDbEntity
  8
referance lines
 62
     0
370
    -2
100
AcDbLine
 10
10.6822461529375
 20
-10.26634112562757
 30
0.0
 11
41.34138802218483
 21
-10.25890515591519
 31
0.0
  0
SOLID
  5
11D
330
119
100
AcDbEntity
  8
referance lines
 62
     0
100
AcDbTrace
 10
10.68214509594656
 20
-9.849674471215922
 30
0.0
 11
10.68234720992845
 21
-10.68300778003922
 31
0.0
 12
8.182246226467615
 22
-10.26694746757326
 32
0.0
 13
8.182246226467615
 23
-10.26694746757326
 33
0.0
  0
SOLID
  5
11E
330
119
100
AcDbEntity
  8
referance lines
 62
     0
100
AcDbTrace
 10
41.34148907917578
 20
-10.67557181032684
 30
0.0
 11
41.34128696519388
 21
-9.842238501503543
 31
0.0
 12
43.84138794865472
 22
-10.2582988139695
 32
0.0
 13
43.84138794865472
 23
-10.2582988139695
 33
0.0
  0
MTEXT
  5
11F
330
119
100
AcDbEntity
  8
referance lines
 62
     0
100
AcDbMText
 10
26.0113623311019
 20
-8.387623195918964
 30
0.0
 40
2.5
 41
0.0
 46
0.0
 71
     5
 72
     1
  1
\A1;35.6591
 11
0.9999999705879552
 21
0.0002425367782758806
 31
0.0
 73
     1
 44
1.0
  0
POINT
  5
120
330
119
100
AcDbEntity
  8
Defpoints
 62
     0
100
AcDbPoint
 10
8.179613107564602
 20
0.5896279528197265
 30
0.0
  0
POINT
  5
121
330
119
100
AcDbEntity
  8
Defpoints
 62
     0
100
AcDbPoint
 10
43.83875482975171
 20
0.5982766064234833
 30
0.0
  0
POINT
  5
122
330
119
100
AcDbEntity
  8
Defpoints
 62
     0
100
AcDbPoint
 10
43.84138794865472
 20
-10.2582988139695
 30
0.0
  0
ENDBLK
  5
124
330
119
100
AcDbEntity
  8
0
100
AcDbBlockEnd
  0
BLOCK
  5
12F
330
125
100
AcDbEntity
  8
0
100
AcDbBlockBegin
  2
*D3
 70
     1
 10
0.0
 20
0.0
 30
0.0
  3
*D3
  1

  0
LINE
  5
126
330
125
100
AcDbEntity
  8
referance lines
 62
     0
370
    -2
100
AcDbLine
 10
51.02684895001563
 20
42.81971324474479
 30
0.0
 11
74.29967638793417
 21
42.82496872579838
 31
0.0
  0
LINE
  5
127
330
125
100
AcDbEntity
  8
referance lines
 62
     0
370
    -2
100
AcDbLine
 10
51.03490135295566
 20
7.161286894587163
 30
0.0
 11
74.30772879087421
 21
7.166542375640753
 31
0.0
  0
LINE
  5
128
330
125
100
AcDbEntity
  8
referance lines
 62
     0
370
    -2
100
AcDbLine
 10
73.05024097099057
 20
40.32468651394969
 30
0.0
 11
73.05716427156142
 21
9.666260036304847
 31
0.0
  0
SOLID
  5
129
330
125
100
AcDbEntity
  8
referance lines
 62
     0
100
AcDbTrace
 10
73.46690762703331
 20
40.32478060581379
 30
0.0
 11
72.63357431494784
 21
40.32459242208559
 31
0.0
 12
73.04967641980598
 22
42.82468645020608
 32
0.0
 13
73.04967641980598
 23
42.82468645020608
 33
0.0
  0
SOLID
  5
12A
330
125
100
AcDbEntity
  8
referance lines
 62
     0
100
AcDbTrace
 10
72.64049761551868
 20
9.666165944440747
 30
0.0
 11
73.47383092760415
 21
9.666354128168946
 31
0.0
 12
73.05772882274601
 22
7.166260100048455
 32
0.0
 13
73.05772882274601
 23
7.166260100048455
 33
0.0
  0
MTEXT
  5
12B
330
125
100
AcDbEntity
  8
referance lines
 62
     0
100
AcDbMText
 10
74.92870257346829
 20
24.99589668851571
 30
0.0
 40
2.5
 41
0.0
 46
0.0
 71
     5
 72
     1
  1
\A1;35.6584
 11
0.0002258204738383433
 21
-0.9999999745025565
 31
0.0
 73
     1
 44
1.0
  0
POINT
  5
12C
330
125
100
AcDbEntity
  8
Defpoints
 62
     0
100
AcDbPoint
 10
50.40184896595153
 20
42.81957210694864
 30
0.0
  0
POINT
  5
12D
330
125
100
AcDbEntity
  8
Defpoints
 62
     0
100
AcDbPoint
 10
50.40990136889157
 20
7.161145756791014
 30
0.0
  0
POINT
  5
12E
330
125
100
AcDbEntity
  8
Defpoints
 62
     0
100
AcDbPoint
 10
73.05772882274601
 20
7.166260100048455
 30
0.0
  0
ENDBLK
  5
130
330
125
100
AcDbEntity
  8
0
100
AcDbBlockEnd
  0
BLOCK
  5
13B
330
131
100
AcDbEntity
  8
0
100
AcDbBlockBegin
  2
*D4
 70
     1
 10
0.0
 20
0.0
 30
0.0
  3
*D4
  1

  0
LINE
  5
132
330
131
100
AcDbEntity
  8
referance lines
 62
     0
370
    -2
100
AcDbLine
 10
7.542774317965487
 20
49.40189862183797
 30
0.0
 11
-11.5149275445657
 21
49.39727642809095
 31
0.0
  0
LINE
  5
133
330
131
100
AcDbEntity
  8
referance lines
 62
     0
370
    -2
100
AcDbLine
 10
7.554613125947131
 20
0.5894763673333042
 30
0.0
 11
-11.50308873658406
 21
0.5848541735862792
 31
0.0
  0
LINE
  5
134
330
131
100
AcDbEntity
  8
referance lines
 62
     0
370
    -2
100
AcDbLine
 10
-10.26432123938507
 20
46.8975796725939
 30
0.0
 11
-10.2536951152948
 21
3.085157271029012
 31
0.0
  0
SOLID
  5
135
330
131
100
AcDbEntity
  8
referance lines
 62
     0
100
AcDbTrace
 10
-9.84765458497342
 20
46.89768072958485
 30
0.0
 11
-10.68098789379671
 21
46.89747861560295
 31
0.0
 12
-10.26492758133076
 22
49.39757959906379
 32
0.0
 13
-10.26492758133076
 23
49.39757959906379
 33
0.0
  0
SOLID
  5
136
330
131
100
AcDbEntity
  8
referance lines
 62
     0
100
AcDbTrace
 10
-10.67036176970645
 20
3.085056214038064
 30
0.0
 11
-9.837028460883154
 21
3.085258328019961
 31
0.0
 12
-10.25308877334911
 22
0.5851573445591238
 32
0.0
 13
-10.25308877334911
 23
0.5851573445591238
 33
0.0
  0
MTEXT
  5
137
330
131
100
AcDbEntity
  8
referance lines
 62
     0
100
AcDbMText
 10
-8.384008232487519
 20
24.99182322827072
 30
0.0
 40
2.5
 41
0.0
 46
0.0
 71
     5
 72
     1
  1
\A1;48.8124
 11
0.0002425367782756834
 21
-0.9999999705879552
 31
0.0
 73
     1
 44
1.0
  0
POINT
  5
138
330
131
100
AcDbEntity
  8
Defpoints
 62
     0
100
AcDbPoint
 10
8.167774299582959
 20
49.40205020732439
 30
0.0
  0
POINT
  5
139
330
131
100
AcDbEntity
  8
Defpoints
 62
     0
100
AcDbPoint
 10
8.179613107564602
 20
0.5896279528197265
 30
0.0
  0
POINT
  5
13A
330
131
100
AcDbEntity
  8
Defpoints
 62
     0
100
AcDbPoint
 10
-10.25308877334911
 20
0.5851573445591238
 30
0.0
  0
ENDBLK
  5
13C
330
131
100
AcDbEntity
  8
0
100
AcDbBlockEnd
  0
BLOCK
  5
147
330
13D
100
AcDbEntity
  8
0
100
AcDbBlockBegin
  2
*D5
 70
     1
 10
0.0
 20
0.0
 30
0.0
  3
*D5
  1

  0
LINE
  5
13E
330
13D
100
AcDbEntity
  8
referance lines
 62
     0
370
    -2
100
AcDbLine
 10
8.17095687500009
 20
36.43661625000004
 30
0.0
 11
8.17095687500009
 21
53.65431563729884
 31
0.0
  0
LINE
  5
13F
330
13D
100
AcDbEntity
  8
referance lines
 62
     0
370
    -2
100
AcDbLine
 10
22.17095687500009
 20
36.43661625000004
 30
0.0
 11
22.17095687500009
 21
53.65431563729884
 31
0.0
  0
LINE
  5
140
330
13D
100
AcDbEntity
  8
referance lines
 62
     0
370
    -2
100
AcDbLine
 10
10.67095687500009
 20
52.40431563729884
 30
0.0
 11
19.67095687500009
 21
52.40431563729884
 31
0.0
  0
SOLID
  5
141
330
13D
100
AcDbEntity
  8
referance lines
 62
     0
100
AcDbTrace
 10
10.67095687500009
 20
52.8209823039655
 30
0.0
 11
10.67095687500009
 21
51.98764897063217
 31
0.0
 12
8.17095687500009
 22
52.40431563729884
 32
0.0
 13
8.17095687500009
 23
52.40431563729884
 33
0.0
  0
SOLID
  5
142
330
13D
100
AcDbEntity
  8
referance lines
 62
     0
100
AcDbTrace
 10
19.67095687500009
 20
51.98764897063217
 30
0.0
 11
19.67095687500009
 21
52.8209823039655
 31
0.0
 12
22.17095687500009
 22
52.40431563729884
 32
0.0
 13
22.17095687500009
 23
52.40431563729884
 33
0.0
  0
MTEXT
  5
143
330
13D
100
AcDbEntity
  8
referance lines
 62
     0
100
AcDbMText
 10
15.17095687500009
 20
54.27931563729884
 30
0.0
 40
2.5
 41
0.0
 46
0.0
 71
     5
 72
     1
  1
\A1;14
 73
     1
 44
1.0
  0
POINT
  5
144
330
13D
100
AcDbEntity
  8
Defpoints
 62
     0
100
AcDbPoint
 10
8.17095687500009
 20
35.81161625000004
 30
0.0
  0
POINT
  5
145
330
13D
100
AcDbEntity
  8
Defpoints
 62
     0
100
AcDbPoint
 10
22.17095687500009
 20
35.81161625000004
 30
0.0
  0
POINT
  5
146
330
13D
100
AcDbEntity
  8
Defpoints
 62
     0
100
AcDbPoint
 10
22.17095687500009
 20
52.40431563729884
 30
0.0
  0
ENDBLK
  5
148
330
13D
100
AcDbEntity
  8
0
100
AcDbBlockEnd
  0
BLOCK
  5
154
330
149
100
AcDbEntity
  8
0
100
AcDbBlockBegin
  2
*D6
 70
     1
 10
0.0
 20
0.0
 30
0.0
  3
*D6
  1

  0
LINE
  5
14A
330
149
100
AcDbEntity
  8
referance lines
 62
     0
370
    -2
100
AcDbLine
 10
47.22880937499986
 20
5.896377499999971
 30
0.0
 11
64.6867152698569
 21
5.896377499999971
 31
0.0
  0
LINE
  5
14B
330
149
100
AcDbEntity
  8
referance lines
 62
     0
370
    -2
100
AcDbLine
 10
47.22880937499986
 20
2.896356249999826
 30
0.0
 11
64.6867152698569
 21
2.896356249999826
 31
0.0
  0
LINE
  5
14C
330
149
100
AcDbEntity
  8
referance lines
 62
     0
370
    -2
100
AcDbLine
 10
63.4367152698569
 20
8.396377499999971
 30
0.0
 11
63.4367152698569
 21
10.89637749999997
 31
0.0
  0
LINE
  5
14D
330
149
100
AcDbEntity
  8
referance lines
 62
     0
370
    -2
100
AcDbLine
 10
63.4367152698569
 20
0.3963562499998261
 30
0.0
 11
63.4367152698569
 21
-2.103643750000174
 31
0.0
  0
SOLID
  5
14E
330
149
100
AcDbEntity
  8
referance lines
 62
     0
100
AcDbTrace
 10
63.02004860319024
 20
8.396377499999971
 30
0.0
 11
63.85338193652357
 21
8.396377499999971
 31
0.0
 12
63.4367152698569
 22
5.896377499999971
 32
0.0
 13
63.4367152698569
 23
5.896377499999971
 33
0.0
  0
SOLID
  5
14F
330
149
100
AcDbEntity
  8
referance lines
 62
     0
100
AcDbTrace
 10
63.85338193652357
 20
0.3963562499998261
 30
0.0
 11
63.02004860319024
 21
0.3963562499998261
 31
0.0
 12
63.4367152698569
 22
2.896356249999826
 32
0.0
 13
63.4367152698569
 23
2.896356249999826
 33
0.0
  0
MTEXT
  5
150
330
149
100
AcDbEntity
  8
referance lines
 62
     0
100
AcDbMText
 10
61.5617152698569
 20
4.396366874999899
 30
0.0
 40
2.5
 41
0.0
 46
0.0
 71
     5
 72
     1
  1
\A1;3
 11
0.0
 21
1.0
 31
0.0
 73
     1
 44
1.0
  0
POINT
  5
151
330
149
100
AcDbEntity
  8
Defpoints
 62
     0
100
AcDbPoint
 10
46.60380937499986
 20
5.896377499999971
 30
0.0
  0
POINT
  5
152
330
149
100
AcDbEntity
  8
Defpoints
 62
     0
100
AcDbPoint
 10
46.60380937499986
 20
2.896356249999826
 30
0.0
  0
POINT
  5
153
330
149
100
AcDbEntity
  8
Defpoints
 62
     0
100
AcDbPoint
 10
63.4367152698569
 20
2.896356249999826
 30
0.0
  0
ENDBLK
  5
155
330
149
100
AcDbEntity
  8
0
100
AcDbBlockEnd
  0
BLOCK
  5
160
330
156
100
AcDbEntity
  8
0
100
AcDbBlockBegin
  2
*D7
 70
     1
 10
0.0
 20
0.0
 30
0.0
  3
*D7
  1

  0
LINE
  5
157
330
156
100
AcDbEntity
  8
referance lines
 62
     0
370
    -2
100
AcDbLine
 10
51.04168149941795
 20
-21.24989983175293
 30
0.0
 11
61.24999999999999
 21
-21.24989983175292
 31
0.0
  0
LINE
  5
158
330
156
100
AcDbEntity
  8
referance lines
 62
     0
370
    -2
100
AcDbLine
 10
51.04168149941796
 20
-29.2498998317459
 30
0.0
 11
61.25
 21
-29.24989983174589
 31
0.0
  0
LINE
  5
159
330
156
100
AcDbEntity
  8
referance lines
 62
     0
370
    -2
100
AcDbLine
 10
59.99999999999999
 20
-23.74989983175292
 30
0.0
 11
60.0
 21
-26.74989983174589
 31
0.0
  0
SOLID
  5
15A
330
156
100
AcDbEntity
  8
referance lines
 62
     0
100
AcDbTrace
 10
60.41666666666666
 20
-23.74989983175292
 30
0.0
 11
59.58333333333333
 21
-23.74989983175292
 31
0.0
 12
59.99999999999999
 22
-21.24989983175292
 32
0.0
 13
59.99999999999999
 23
-21.24989983175292
 33
0.0
  0
SOLID
  5
15B
330
156
100
AcDbEntity
  8
referance lines
 62
     0
100
AcDbTrace
 10
59.58333333333334
 20
-26.74989983174589
 30
0.0
 11
60.41666666666666
 21
-26.74989983174589
 31
0.0
 12
60.0
 22
-29.24989983174589
 32
0.0
 13
60.0
 23
-29.24989983174589
 33
0.0
  0
MTEXT
  5
15C
330
156
100
AcDbEntity
  8
referance lines
 62
     0
100
AcDbMText
 10
58.125
 20
-25.2498998317494
 30
0.0
 40
2.5
 41
0.0
 46
0.0
 71
     5
 72
     1
  1
\A1;8
 11
-8.881784197009058E-16
 21
1.0
 31
0.0
 73
     1
 44
1.0
  0
POINT
  5
15D
330
156
100
AcDbEntity
  8
Defpoints
 62
     0
100
AcDbPoint
 10
50.41668149941795
 20
-21.24989983175293
 30
0.0
  0
POINT
  5
15E
330
156
100
AcDbEntity
  8
Defpoints
 62
     0
100
AcDbPoint
 10
50.41668149941796
 20
-29.2498998317459
 30
0.0
  0
POINT
  5
15F
330
156
100
AcDbEntity
  8
Defpoints
 62
     0
100
AcDbPoint
 10
60.0
 20
-29.24989983174589
 30
0.0
  0
ENDBLK
  5
161
330
156
100
AcDbEntity
  8
0
100
AcDbBlockEnd
  0
ENDSEC
  0
SECTION
  2
ENTITIES
  0
LWPOLYLINE
  5
1E
330
BF
100
AcDbEntity
  8
rev 3 parts
 62
     5
420
      255
100
AcDbPolyline
 90
        2
 70
     0
 43
0.0
 10
48.10382062499997
 20
4.396366250000028
 10
48.10382062499997
 20
4.396366250000028
  0
SPLINE
  5
1F
330
BF
100
AcDbEntity
  8
rev 3 parts
 62
     5
420
      255
100
AcDbSpline
210
0.0
220
0.0
230
1.0
 70
     8
 71
     3
 72
     8
 73
     4
 74
     0
 42
0.000000001
 43
0.001
 12
1.0
 22
0.0
 32
0.0
 13
1.0
 23
0.0
 33
0.0
 40
0.0
 40
0.0
 40
0.0
 40
0.0
 40
1.0
 40
1.0
 40
1.0
 40
1.0
 10
6.896200624999977
 20
45.60359874999995
 30
0.0
 10
6.896200624999977
 20
44.77516999999989
 30
0.0
 10
6.224618124999978
 20
44.10358749999978
 30
0.0
 10
5.396190624999974
 20
44.10358749999978
 30
0.0
  0
SPLINE
  5
20
330
BF
100
AcDbEntity
  8
rev 3 parts
 62
     5
420
      255
100
AcDbSpline
210
0.0
220
0.0
230
1.0
 70
     8
 71
     3
 72
     8
 73
     4
 74
     0
 42
0.000000001
 43
0.001
 12
1.0
 22
0.0
 32
0.0
 13
1.0
 23
0.0
 33
0.0
 40
0.0
 40
0.0
 40
0.0
 40
0.0
 40
1.0
 40
1.0
 40
1.0
 40
1.0
 10
5.396190624999974
 20
44.10358749999978
 30
0.0
 10
4.567761875000087
 20
44.10358749999978
 30
0.0
 10
3.896179375000088
 20
44.77516999999989
 30
0.0
 10
3.896179375000088
 20
45.60359874999995
 30
0.0
  0
SPLINE
  5
21
330
BF
100
AcDbEntity
  8
rev 3 parts
 62
     5
420
      255
100
AcDbSpline
210
0.0
220
0.0
230
1.0
 70
     8
 71
     3
 72
     8
 73
     4
 74
     0
 42
0.000000001
 43
0.001
 12
1.0
 22
0.0
 32
0.0
 13
1.0
 23
0.0
 33
0.0
 40
0.0
 40
0.0
 40
0.0
 40
0.0
 40
1.0
 40
1.0
 40
1.0
 40
1.0
 10
3.896179375000088
 20
45.60359874999995
 30
0.0
 10
3.896179375000088
 20
46.43202625000004
 30
0.0
 10
4.567761875000087
 20
47.10360874999992
 30
0.0
 10
5.396190624999974
 20
47.10360874999992
 30
0.0
  0
SPLINE
  5
22
330
BF
100
AcDbEntity
  8
rev 3 parts
 62
     5
420
      255
100
AcDbSpline
210
0.0
220
0.0
230
1.0
 70
     8
 71
     3
 72
     8
 73
     4
 74
     0
 42
0.000000001
 43
0.001
 12
1.0
 22
0.0
 32
0.0
 13
1.0
 23
0.0
 33
0.0
 40
0.0
 40
0.0
 40
0.0
 40
0.0
 40
1.0
 40
1.0
 40
1.0
 40
1.0
 10
5.396190624999974
 20
47.10360874999992
 30
0.0
 10
6.224618124999978
 20
47.10360874999992
 30
0.0
 10
6.896200624999977
 20
46.43202625000004
 30
0.0
 10
6.896200624999977
 20
45.60359874999995
 30
0.0
  0
LWPOLYLINE
  5
23
330
BF
100
AcDbEntity
  8
rev 3 parts
 62
     5
420
      255
100
AcDbPolyline
 90
        2
 70
     0
 43
0.0
 10
48.10346812499995
 20
45.60402124999973
 10
48.10346812499995
 20
45.60402124999973
  0
LWPOLYLINE
  5
24
330
BF
100
AcDbEntity
  8
rev 3 parts
 62
     5
420
      255
100
AcDbPolyline
 90
        2
 70
     0
 43
0.0
 10
6.896200624999977
 20
45.60359874999995
 10
6.896200624999977
 20
45.60359874999995
  0
SPLINE
  5
54
330
BF
100
AcDbEntity
  8
rev 3 parts
 62
     5
420
      255
100
AcDbSpline
210
0.0
220
0.0
230
1.0
 70
     8
 71
     3
 72
     8
 73
     4
 74
     0
 42
0.000000001
 43
0.001
 12
1.0
 22
0.0
 32
0.0
 13
1.0
 23
0.0
 33
0.0
 40
0.0
 40
0.0
 40
0.0
 40
0.0
 40
1.0
 40
1.0
 40
1.0
 40
1.0
 10
6.896200624999977
 20
4.396366250000028
 30
0.0
 10
6.896200624999977
 20
3.567938749999939
 30
0.0
 10
6.224618124999978
 20
2.896356249999826
 30
0.0
 10
5.396190624999974
 20
2.896356249999826
 30
0.0
  0
SPLINE
  5
55
330
BF
100
AcDbEntity
  8
rev 3 parts
 62
     5
420
      255
100
AcDbSpline
210
0.0
220
0.0
230
1.0
 70
     8
 71
     3
 72
     8
 73
     4
 74
     0
 42
0.000000001
 43
0.001
 12
1.0
 22
0.0
 32
0.0
 13
1.0
 23
0.0
 33
0.0
 40
0.0
 40
0.0
 40
0.0
 40
0.0
 40
1.0
 40
1.0
 40
1.0
 40
1.0
 10
5.396190624999974
 20
2.896356249999826
 30
0.0
 10
4.567761875000087
 20
2.896356249999826
 30
0.0
 10
3.896179375000088
 20
3.567938749999939
 30
0.0
 10
3.896179375000088
 20
4.396366250000028
 30
0.0
  0
SPLINE
  5
56
330
BF
100
AcDbEntity
  8
rev 3 parts
 62
     5
420
      255
100
AcDbSpline
210
0.0
220
0.0
230
1.0
 70
     8
 71
     3
 72
     8
 73
     4
 74
     0
 42
0.000000001
 43
0.001
 12
1.0
 22
0.0
 32
0.0
 13
1.0
 23
0.0
 33
0.0
 40
0.0
 40
0.0
 40
0.0
 40
0.0
 40
1.0
 40
1.0
 40
1.0
 40
1.0
 10
3.896179375000088
 20
4.396366250000028
 30
0.0
 10
3.896179375000088
 20
5.224795000000086
 30
0.0
 10
4.567761875000087
 20
5.896377499999971
 30
0.0
 10
5.396190624999974
 20
5.896377499999971
 30
0.0
  0
SPLINE
  5
57
330
BF
100
AcDbEntity
  8
rev 3 parts
 62
     5
420
      255
100
AcDbSpline
210
0.0
220
0.0
230
1.0
 70
     8
 71
     3
 72
     8
 73
     4
 74
     0
 42
0.000000001
 43
0.001
 12
1.0
 22
0.0
 32
0.0
 13
1.0
 23
0.0
 33
0.0
 40
0.0
 40
0.0
 40
0.0
 40
0.0
 40
1.0
 40
1.0
 40
1.0
 40
1.0
 10
5.396190624999974
 20
5.896377499999971
 30
0.0
 10
6.224618124999978
 20
5.896377499999971
 30
0.0
 10
6.896200624999977
 20
5.224795000000086
 30
0.0
 10
6.896200624999977
 20
4.396366250000028
 30
0.0
  0
SPLINE
  5
58
330
BF
100
AcDbEntity
  8
rev 3 parts
 62
     5
420
      255
100
AcDbSpline
210
0.0
220
0.0
230
1.0
 70
     8
 71
     3
 72
     8
 73
     4
 74
     0
 42
0.000000001
 43
0.001
 12
1.0
 22
0.0
 32
0.0
 13
1.0
 23
0.0
 33
0.0
 40
0.0
 40
0.0
 40
0.0
 40
0.0
 40
1.0
 40
1.0
 40
1.0
 40
1.0
 10
48.10382062499997
 20
4.396366250000028
 30
0.0
 10
48.10382062499997
 20
3.567938749999939
 30
0.0
 10
47.43223812499997
 20
2.896356249999826
 30
0.0
 10
46.60380937499986
 20
2.896356249999826
 30
0.0
  0
SPLINE
  5
59
330
BF
100
AcDbEntity
  8
rev 3 parts
 62
     5
420
      255
100
AcDbSpline
210
0.0
220
0.0
230
1.0
 70
     8
 71
     3
 72
     8
 73
     4
 74
     0
 42
0.000000001
 43
0.001
 12
1.0
 22
0.0
 32
0.0
 13
1.0
 23
0.0
 33
0.0
 40
0.0
 40
0.0
 40
0.0
 40
0.0
 40
1.0
 40
1.0
 40
1.0
 40
1.0
 10
46.60380937499986
 20
2.896356249999826
 30
0.0
 10
45.77538187500005
 20
2.896356249999826
 30
0.0
 10
45.10379812499997
 20
3.567938749999939
 30
0.0
 10
45.10379812499997
 20
4.396366250000028
 30
0.0
  0
SPLINE
  5
5A
330
BF
100
AcDbEntity
  8
rev 3 parts
 62
     5
420
      255
100
AcDbSpline
210
0.0
220
0.0
230
1.0
 70
     8
 71
     3
 72
     8
 73
     4
 74
     0
 42
0.000000001
 43
0.001
 12
1.0
 22
0.0
 32
0.0
 13
1.0
 23
0.0
 33
0.0
 40
0.0
 40
0.0
 40
0.0
 40
0.0
 40
1.0
 40
1.0
 40
1.0
 40
1.0
 10
45.10379812499997
 20
4.396366250000028
 30
0.0
 10
45.10379812499997
 20
5.224795000000086
 30
0.0
 10
45.77538187500005
 20
5.896377499999971
 30
0.0
 10
46.60380937499986
 20
5.896377499999971
 30
0.0
  0
SPLINE
  5
5B
330
BF
100
AcDbEntity
  8
rev 3 parts
 62
     5
420
      255
100
AcDbSpline
210
0.0
220
0.0
230
1.0
 70
     8
 71
     3
 72
     8
 73
     4
 74
     0
 42
0.000000001
 43
0.001
 12
1.0
 22
0.0
 32
0.0
 13
1.0
 23
0.0
 33
0.0
 40
0.0
 40
0.0
 40
0.0
 40
0.0
 40
1.0
 40
1.0
 40
1.0
 40
1.0
 10
46.60380937499986
 20
5.896377499999971
 30
0.0
 10
47.43223812499997
 20
5.896377499999971
 30
0.0
 10
48.10382062499997
 20
5.224795000000086
 30
0.0
 10
48.10382062499997
 20
4.396366250000028
 30
0.0
  0
LWPOLYLINE
  5
5C
330
BF
100
AcDbEntity
  8
rev 3 parts
 62
     5
420
      255
100
AcDbPolyline
 90
        2
 70
     0
 43
0.0
 10
6.896200624999977
 20
4.396366250000028
 10
6.896200624999977
 20
4.396366250000028
  0
SPLINE
  5
5D
330
BF
100
AcDbEntity
  8
rev 3 parts
 62
     5
420
      255
100
AcDbSpline
210
0.0
220
0.0
230
1.0
 70
     8
 71
     3
 72
     8
 73
     4
 74
     0
 42
0.000000001
 43
0.001
 12
1.0
 22
0.0
 32
0.0
 13
1.0
 23
0.0
 33
0.0
 40
0.0
 40
0.0
 40
0.0
 40
0.0
 40
1.0
 40
1.0
 40
1.0
 40
1.0
 10
48.10346812499995
 20
45.60402124999973
 30
0.0
 10
48.10346812499995
 20
44.77576999999974
 30
0.0
 10
47.43202562499999
 20
44.10436374999995
 30
0.0
 10
46.60380937499986
 20
44.10436374999995
 30
0.0
  0
SPLINE
  5
5E
330
BF
100
AcDbEntity
  8
rev 3 parts
 62
     5
420
      255
100
AcDbSpline
210
0.0
220
0.0
230
1.0
 70
     8
 71
     3
 72
     8
 73
     4
 74
     0
 42
0.000000001
 43
0.001
 12
1.0
 22
0.0
 32
0.0
 13
1.0
 23
0.0
 33
0.0
 40
0.0
 40
0.0
 40
0.0
 40
0.0
 40
1.0
 40
1.0
 40
1.0
 40
1.0
 10
46.60380937499986
 20
44.10436374999995
 30
0.0
 10
45.77555812499986
 20
44.10436374999995
 30
0.0
 10
45.10415062499999
 20
44.77576999999974
 30
0.0
 10
45.10415062499999
 20
45.60402124999973
 30
0.0
  0
SPLINE
  5
5F
330
BF
100
AcDbEntity
  8
rev 3 parts
 62
     5
420
      255
100
AcDbSpline
210
0.0
220
0.0
230
1.0
 70
     8
 71
     3
 72
     8
 73
     4
 74
     0
 42
0.000000001
 43
0.001
 12
1.0
 22
0.0
 32
0.0
 13
1.0
 23
0.0
 33
0.0
 40
0.0
 40
0.0
 40
0.0
 40
0.0
 40
1.0
 40
1.0
 40
1.0
 40
1.0
 10
45.10415062499999
 20
45.60402124999973
 30
0.0
 10
45.10415062499999
 20
46.43227375000015
 30
0.0
 10
45.77555812499986
 20
47.10367999999994
 30
0.0
 10
46.60380937499986
 20
47.10367999999994
 30
0.0
  0
SPLINE
  5
60
330
BF
100
AcDbEntity
  8
rev 3 parts
 62
     5
420
      255
100
AcDbSpline
210
0.0
220
0.0
230
1.0
 70
     8
 71
     3
 72
     8
 73
     4
 74
     0
 42
0.000000001
 43
0.001
 12
1.0
 22
0.0
 32
0.0
 13
1.0
 23
0.0
 33
0.0
 40
0.0
 40
0.0
 40
0.0
 40
0.0
 40
1.0
 40
1.0
 40
1.0
 40
1.0
 10
46.60380937499986
 20
47.10367999999994
 30
0.0
 10
47.43202562499999
 20
47.10367999999994
 30
0.0
 10
48.10346812499995
 20
46.43227375000015
 30
0.0
 10
48.10346812499995
 20
45.60402124999973
 30
0.0
  0
CIRCLE
  5
68
330
BF
100
AcDbEntity
  8
actual parts
100
AcDbCircle
 10
15.17095687500009
 20
35.81161625000004
 30
0.0
 40
7.0
  0
CIRCLE
  5
69
330
BF
100
AcDbEntity
  8
actual parts
100
AcDbCircle
 10
36.830100625
 20
35.81161625000004
 30
0.0
 40
7.0
  0
CIRCLE
  5
6A
330
BF
100
AcDbEntity
  8
actual parts
100
AcDbCircle
 10
15.17095687500009
 20
14.15318808144492
 30
0.0
 40
7.0
  0
CIRCLE
  5
6B
330
BF
100
AcDbEntity
  8
actual parts
100
AcDbCircle
 10
36.830100625
 20
14.15344816855496
 30
0.0
 40
7.0
  0
LINE
  5
74
330
BF
100
AcDbEntity
  8
actual parts
100
AcDbLine
 10
1.598157957100939
 20
7.150123065483719
 30
0.0
 11
8.178021585791646
 21
7.151608933444043
 31
0.0
  0
LINE
  5
75
330
BF
100
AcDbEntity
  8
actual parts
100
AcDbLine
 10
8.178021585791646
 20
7.151608933444043
 30
0.0
 11
8.179613107564602
 21
0.5896279528197266
 31
0.0
  0
LINE
  5
76
330
BF
100
AcDbEntity
  8
actual parts
100
AcDbLine
 10
43.83875482975172
 20
0.5982766064234833
 30
0.0
 11
43.8371634525523
 21
7.159661497962469
 31
0.0
  0
LINE
  5
77
330
BF
100
AcDbEntity
  8
actual parts
100
AcDbLine
 10
50.40990136889159
 20
7.161145756791013
 30
0.0
 11
43.8371634525523
 21
7.159661497962481
 31
0.0
  0
LINE
  5
78
330
BF
100
AcDbEntity
  8
actual parts
100
AcDbLine
 10
50.40184896595154
 20
42.81957210694864
 30
0.0
 11
43.82851497248523
 21
42.81808771351368
 31
0.0
  0
LINE
  5
79
330
BF
100
AcDbEntity
  8
actual parts
100
AcDbLine
 10
43.82691609406564
 20
49.41040078011905
 30
0.0
 11
43.82851497248523
 21
42.81808771351368
 31
0.0
  0
LINE
  5
7A
330
BF
100
AcDbEntity
  8
actual parts
100
AcDbLine
 10
8.167774299583028
 20
49.40205020705057
 30
0.0
 11
8.169373105724567
 21
42.81003514899533
 31
0.0
  0
LINE
  5
7B
330
BF
100
AcDbEntity
  8
actual parts
100
AcDbLine
 10
1.590105554160811
 20
42.80854941564142
 30
0.0
 11
8.169373105724567
 21
42.81003514899532
 31
0.0
  0
LINE
  5
7C
330
BF
100
AcDbEntity
  8
actual parts
100
AcDbLine
 10
1.589294410329375
 20
46.4005346637388
 30
0.0
 11
1.598962338891062
 21
3.588082140088687
 31
0.0
  0
LINE
  5
7D
330
BF
100
AcDbEntity
  8
actual parts
100
AcDbLine
 10
4.588591801009938
 20
49.4012120429016
 30
0.0
 11
47.40033528499047
 21
49.4112375949042
 31
0.0
  0
LINE
  5
7E
330
BF
100
AcDbEntity
  8
actual parts
100
AcDbLine
 10
50.40103774132525
 20
46.41191513858445
 30
0.0
 11
50.41070558907234
 21
3.599820485554496
 31
0.0
  0
LINE
  5
7F
330
BF
100
AcDbEntity
  8
actual parts
100
AcDbLine
 10
47.4114332758995
 20
0.5991431123691134
 30
0.0
 11
4.599689872733563
 21
0.5887596897463382
 31
0.0
  0
ARC
  5
80
330
BF
100
AcDbEntity
  8
actual parts
100
AcDbCircle
 10
4.589294333837044
 20
46.40121212516032
 30
0.0
 40
3.0
100
AcDbArc
 50
90.01341738877683
 51
180.0129385601509
  0
ARC
  5
81
330
BF
100
AcDbEntity
  8
actual parts
100
AcDbCircle
 10
47.40103781781757
 20
46.41123767716293
 30
0.0
 40
3.0
100
AcDbArc
 50
0.0129385601508775
 51
90.01341738877683
  0
ARC
  5
82
330
BF
100
AcDbEntity
  8
actual parts
100
AcDbCircle
 10
4.598962262398732
 20
3.588759601510204
 30
0.0
 40
3.0
100
AcDbArc
 50
180.0129385601509
 51
270.0138963339082
  0
ARC
  5
83
330
BF
100
AcDbEntity
  8
actual parts
100
AcDbCircle
 10
47.41070566556467
 20
3.599143024132979
 30
0.0
 40
3.0
100
AcDbArc
 50
270.0138963339081
 51
0.0129385601508775
  0
DIMENSION
  5
84
330
BF
100
AcDbEntity
  8
referance lines
100
AcDbDimension
280
     0
  2
*D1
 10
50.41638089693706
 20
-19.99989986789064
 30
0.0
 11
26.01005836811624
 21
-18.13076909483967
 31
0.0
 70
    33
 71
     5
 42
48.81174466161163
 73
     0
 74
     0
 75
     0
  3
QCADDimStyle
100
AcDbAlignedDimension
 13
1.598962338891063
 23
3.588082140090661
 33
0.0
 14
50.41070558907234
 24
3.599820485554496
 34
0.0
1001
ACAD
1000
DSTYLE
1002
{
1070
   279
1070
     2
1070
    41
1040
2.5
1070
    79
1070
     2
1070
   176
1070
     0
1070
   177
1070
     0
1070
   178
1070
     0
1070
    44
1040
1.25
1070
    42
1040
0.625
1070
   147
1040
0.625
1070
   140
1040
2.5
1070
    78
1070
     8
1002
}
  0
LINE
  5
88
330
BF
100
AcDbEntity
  8
actual parts
100
AcDbLine
 10
8.184867563139312
 20
-21.26005582267226
 30
0.0
 11
1.604938249259628
 21
-21.26163817720973
 31
0.0
  0
LINE
  5
89
330
BF
100
AcDbEntity
  8
actual parts
100
AcDbLine
 10
43.84400930294702
 20
-21.2514804410773
 30
0.0
 11
50.41668149944091
 21
-21.2498998317459
 31
0.0
  0
LINE
  5
8A
330
BF
100
AcDbEntity
  8
actual parts
100
AcDbLine
 10
8.184867563139312
 20
-25.26005582267226
 30
0.0
 11
8.184867563139312
 21
-21.26005582267226
 31
0.0
  0
LINE
  5
8B
330
BF
100
AcDbEntity
  8
actual parts
100
AcDbLine
 10
43.84400930294702
 20
-25.2514804410773
 30
0.0
 11
43.84400930294702
 21
-21.2514804410773
 31
0.0
  0
LINE
  5
8C
330
BF
100
AcDbEntity
  8
actual parts
100
AcDbLine
 10
8.184867563139312
 20
-25.26005582267226
 30
0.0
 11
43.84400930294702
 21
-25.2514804410773
 31
0.0
  0
DIMENSION
  5
8D
330
BF
100
AcDbEntity
  8
referance lines
100
AcDbDimension
280
     0
  2
*D2
 10
43.84138794865472
 20
-10.2582988139695
 30
0.0
 11
26.0113623311019
 21
-8.387623195918964
 31
0.0
 70
    33
 71
     5
 42
35.65914277099541
 73
     0
 74
     0
 75
     0
  3
QCADDimStyle
100
AcDbAlignedDimension
 13
8.179613107564602
 23
0.5896279528197265
 33
0.0
 14
43.83875482975171
 24
0.5982766064234833
 34
0.0
1001
ACAD
1000
DSTYLE
1002
{
1070
   279
1070
     2
1070
    41
1040
2.5
1070
    79
1070
     2
1070
   176
1070
     0
1070
   177
1070
     0
1070
   178
1070
     0
1070
    44
1040
1.25
1070
    42
1040
0.625
1070
   147
1040
0.625
1070
   140
1040
2.5
1070
    78
1070
     8
1002
}
  0
DIMENSION
  5
8E
330
BF
100
AcDbEntity
  8
referance lines
100
AcDbDimension
280
     0
  2
*D3
 10
73.05772882274601
 20
7.166260100048455
 30
0.0
 11
74.92870257346829
 21
24.99589668851571
 31
0.0
 70
    33
 71
     5
 42
35.65842725935637
 73
     0
 74
     0
 75
     0
  3
QCADDimStyle
100
AcDbAlignedDimension
 13
50.40184896595153
 23
42.81957210694864
 33
0.0
 14
50.40990136889157
 24
7.161145756791014
 34
0.0
1001
ACAD
1000
DSTYLE
1002
{
1070
   279
1070
     2
1070
    41
1040
2.5
1070
    79
1070
     2
1070
   176
1070
     0
1070
   177
1070
     0
1070
   178
1070
     0
1070
    44
1040
1.25
1070
    42
1040
0.625
1070
   147
1040
0.625
1070
   140
1040
2.5
1070
    78
1070
     8
1002
}
  0
DIMENSION
  5
8F
330
BF
100
AcDbEntity
  8
referance lines
100
AcDbDimension
280
     0
  2
*D4
 10
-10.25308877334911
 20
0.5851573445591238
 30
0.0
 11
-8.384008232487519
 21
24.99182322827072
 31
0.0
 70
    33
 71
     5
 42
48.81242369017786
 73
     0
 74
     0
 75
     0
  3
QCADDimStyle
100
AcDbAlignedDimension
 13
8.167774299582959
 23
49.40205020732439
 33
0.0
 14
8.179613107564602
 24
0.5896279528197265
 34
0.0
1001
ACAD
1000
DSTYLE
1002
{
1070
   279
1070
     2
1070
    41
1040
2.5
1070
    79
1070
     2
1070
   176
1070
     0
1070
   177
1070
     0
1070
   178
1070
     0
1070
    44
1040
1.25
1070
    42
1040
0.625
1070
   147
1040
0.625
1070
   140
1040
2.5
1070
    78
1070
     8
1002
}
  0
LINE
  5
90
330
BF
100
AcDbEntity
  8
actual parts
100
AcDbLine
 10
1.604938249259628
 20
-29.26163817720973
 30
0.0
 11
1.604938249259628
 21
-21.26163817720973
 31
0.0
  0
LINE
  5
91
330
BF
100
AcDbEntity
  8
actual parts
100
AcDbLine
 10
50.41668149941796
 20
-29.2498998317459
 30
0.0
 11
50.41668149941796
 21
-21.2498998317459
 31
0.0
  0
LINE
  5
92
330
BF
100
AcDbEntity
  8
actual parts
100
AcDbLine
 10
1.604938249259628
 20
-29.26163817720973
 30
0.0
 11
50.41668149941796
 21
-29.2498998317459
 31
0.0
  0
LINE
  5
98
330
BF
100
AcDbEntity
  8
cut referance
100
AcDbLine
 10
8.184867563139312
 20
-25.26005582267226
 30
0.0
 11
8.181396978764415
 21
-29.26005665728531
 31
0.0
  0
LINE
  5
99
330
BF
100
AcDbEntity
  8
cut referance
100
AcDbLine
 10
22.18043424119228
 20
-25.25669014085698
 30
0.0
 11
22.18139616912219
 21
-29.25668990953063
 31
0.0
  0
LINE
  5
9A
330
BF
100
AcDbEntity
  8
cut referance
100
AcDbLine
 10
29.83957761079801
 20
-25.25484825476886
 30
0.0
 11
29.84053953872792
 21
-29.25484802344251
 31
0.0
  0
LINE
  5
9B
330
BF
100
AcDbEntity
  8
cut referance
100
AcDbLine
 10
43.83957680115579
 20
-25.25148150701418
 30
0.0
 11
43.84053872908571
 21
-29.25148127568782
 31
0.0
  0
DIMENSION
  5
9C
330
BF
100
AcDbEntity
  8
referance lines
100
AcDbDimension
280
     0
  2
*D5
 10
22.17095687500009
 20
52.40431563729884
 30
0.0
 11
15.17095687500009
 21
54.27931563729884
 31
0.0
 70
    33
 71
     5
 42
14.0
 73
     0
 74
     0
 75
     0
  3
QCADDimStyle
100
AcDbAlignedDimension
 13
8.17095687500009
 23
35.81161625000004
 33
0.0
 14
22.17095687500009
 24
35.81161625000004
 34
0.0
1001
ACAD
1000
DSTYLE
1002
{
1070
   279
1070
     2
1070
    41
1040
2.5
1070
    79
1070
     2
1070
   176
1070
     0
1070
   177
1070
     0
1070
   178
1070
     0
1070
    44
1040
1.25
1070
    42
1040
0.625
1070
   147
1040
0.625
1070
   140
1040
2.5
1070
    78
1070
     8
1002
}
  0
DIMENSION
  5
9D
330
BF
100
AcDbEntity
  8
referance lines
100
AcDbDimension
280
     0
  2
*D6
 10
63.4367152698569
 20
2.896356249999826
 30
0.0
 11
61.5617152698569
 21
4.396366874999899
 31
0.0
 70
    33
 71
     5
 42
3.000021250000145
 73
     0
 74
     0
 75
     0
  3
QCADDimStyle
100
AcDbAlignedDimension
 13
46.60380937499986
 23
5.896377499999971
 33
0.0
 14
46.60380937499986
 24
2.896356249999826
 34
0.0
1001
ACAD
1000
DSTYLE
1002
{
1070
   279
1070
     2
1070
    41
1040
2.5
1070
    79
1070
     2
1070
   176
1070
     0
1070
   177
1070
     0
1070
   178
1070
     0
1070
    44
1040
1.25
1070
    42
1040
0.625
1070
   147
1040
0.625
1070
   140
1040
2.5
1070
    78
1070
     8
1002
}
  0
DIMENSION
  5
9E
330
BF
100
AcDbEntity
  8
referance lines
100
AcDbDimension
280
     0
  2
*D7
 10
60.0
 20
-29.24989983174589
 30
0.0
 11
58.125
 21
-25.2498998317494
 31
0.0
 70
    33
 71
     5
 42
7.999999999992969
 73
     0
 74
     0
 75
     0
  3
QCADDimStyle
100
AcDbAlignedDimension
 13
50.41668149941795
 23
-21.24989983175293
 33
0.0
 14
50.41668149941796
 24
-29.2498998317459
 34
0.0
1001
ACAD
1000
DSTYLE
1002
{
1070
   279
1070
     2
1070
    41
1040
2.5
1070
    79
1070
     2
1070
   176
1070
     0
1070
   177
1070
     0
1070
   178
1070
     0
1070
    44
1040
1.25
1070
    42
1040
0.625
1070
   147
1040
0.625
1070
   140
1040
2.5
1070
    78
1070
     8
1002
}
  0
LINE
  5
9F
330
BF
100
AcDbEntity
  8
referance lines
100
AcDbLine
 10
8.182549397443955
 20
-11.5169474308082
 30
0.0
 11
8.184867563139312
 21
-21.26005582267226
 31
0.0
  0
LINE
  5
A0
330
BF
100
AcDbEntity
  8
referance lines
100
AcDbLine
 10
43.84169111963106
 20
-11.50829877720444
 30
0.0
 11
43.84400930294702
 21
-21.2514804410773
 31
0.0
  0
ENDSEC
  0
SECTION
  2
OBJECTS
  0
DICTIONARY
  5
AD
330
0
100
AcDbDictionary
281
     1
  3
ACAD_GROUP
350
AE
  3
ACAD_LAYOUT
350
BA
  3
ACAD_MATERIAL
350
DB
  3
ACAD_MLEADERSTYLE
350
163
  3
ACAD_MLINESTYLE
350
B7
  3
ACAD_PLOTSETTINGS
350
B9
  3
ACAD_PLOTSTYLENAME
350
AF
  3
ACAD_TABLESTYLE
350
162
  3
ACAD_VISUALSTYLE
350
CA
  3
QCAD_OBJECTS
350
E0
  0
DICTIONARY
  5
AE
102
{ACAD_REACTORS
330
AD
102
}
330
AD
100
AcDbDictionary
281
     1
  0
DICTIONARY
  5
BA
102
{ACAD_REACTORS
330
AD
102
}
330
AD
100
AcDbDictionary
281
     1
  3
Layout1
350
BE
  3
Layout2
350
C6
  3
Model
350
C2
  0
DICTIONARY
  5
DB
102
{ACAD_REACTORS
330
AD
102
}
330
AD
100
AcDbDictionary
281
     1
  3
ByBlock
350
DD
  3
ByLayer
350
DC
  3
Global
350
DE
  0
DICTIONARY
  5
163
102
{ACAD_REACTORS
330
AD
102
}
330
AD
100
AcDbDictionary
281
     1
  0
DICTIONARY
  5
B7
102
{ACAD_REACTORS
330
AD
102
}
330
AD
100
AcDbDictionary
281
     1
  3
Standard
350
B8
  0
DICTIONARY
  5
B9
102
{ACAD_REACTORS
330
AD
102
}
330
AD
100
AcDbDictionary
281
     1
  0
ACDBDICTIONARYWDFLT
  5
AF
102
{ACAD_REACTORS
330
AD
102
}
330
AD
100
AcDbDictionary
281
     1
  3
Normal
350
B0
100
AcDbDictionaryWithDefault
340
B0
  0
DICTIONARY
  5
162
102
{ACAD_REACTORS
330
AD
102
}
330
AD
100
AcDbDictionary
281
     1
  0
DICTIONARY
  5
CA
102
{ACAD_REACTORS
330
AD
102
}
330
AD
100
AcDbDictionary
281
     1
  3
2dWireframe
350
CF
  3
3D Hidden
350
D1
  3
3dWireframe
350
D0
  3
Basic
350
D2
  3
Brighten
350
D6
  3
ColorChange
350
DA
  3
Conceptual
350
D4
  3
Dim
350
D5
  3
Facepattern
350
D9
  3
Flat
350
CB
  3
FlatWithEdges
350
CC
  3
Gouraud
350
CD
  3
GouraudWithEdges
350
CE
  3
Linepattern
350
D8
  3
Realistic
350
D3
  3
Thicken
350
D7
  0
DICTIONARY
  5
E0
102
{ACAD_REACTORS
330
AD
102
}
330
AD
100
AcDbDictionary
281
     1
  3
Grid/DisplayGrid
350
EF
  3
Grid/GridSpacingX
350
E8
  3
Grid/GridSpacingY
350
EA
  3
MultiPageSettings/Columns
350
E7
  3
MultiPageSettings/GlueMarginBottom
350
E4
  3
MultiPageSettings/GlueMarginsLeft
350
EB
  3
MultiPageSettings/GlueMarginsRight
350
E1
  3
MultiPageSettings/GlueMarginsTop
350
F3
  3
MultiPageSettings/PrintCropMarks
350
E3
  3
MultiPageSettings/Rows
350
EC
  3
PageSettings/OffsetX
350
F1
  3
PageSettings/OffsetY
350
F2
  3
PageSettings/PageOrientation
350
E2
  3
PageSettings/PaperHeight
350
E6
  3
PageSettings/PaperWidth
350
ED
  3
PageSettings/Scale
350
E5
  3
PageSettings/ShowBoundingBox
350
E9
  3
PageSettings/ShowPageBorders
350
F0
  3
UnitSettings/PaperUnit
350
EE
  0
LAYOUT
  5
BE
102
{ACAD_REACTORS
330
BA
102
}
330
BA
100
AcDbPlotSettings
  1

  2
none_device
  4

  6

 40
0.0
 41
0.0
 42
0.0
 43
0.0
 44
0.0
 45
0.0
 46
0.0
 47
0.0
 48
0.0
 49
0.0
140
0.0
141
0.0
142
1.0
143
1.0
 70
   688
 72
     0
 73
     0
 74
     5
  7

 75
    16
 76
     0
 77
     2
 78
   300
147
1.0
148
0.0
149
0.0
100
AcDbLayout
  1
Layout1
 70
     1
 71
     1
 10
0.0
 20
0.0
 11
12.0
 21
9.0
 12
0.0
 22
0.0
 32
0.0
 14
1.000000000000000E+20
 24
1.000000000000000E+20
 34
1.000000000000000E+20
 15
-1.000000000000000E+20
 25
-1.000000000000000E+20
 35
-1.000000000000000E+20
146
0.0
 13
0.0
 23
0.0
 33
0.0
 16
1.0
 26
0.0
 36
0.0
 17
0.0
 27
1.0
 37
0.0
 76
     0
330
BB
  0
LAYOUT
  5
C6
102
{ACAD_REACTORS
330
BA
102
}
330
BA
100
AcDbPlotSettings
  1

  2
none_device
  4

  6

 40
0.0
 41
0.0
 42
0.0
 43
0.0
 44
0.0
 45
0.0
 46
0.0
 47
0.0
 48
0.0
 49
0.0
140
0.0
141
0.0
142
1.0
143
1.0
 70
   688
 72
     0
 73
     0
 74
     5
  7

 75
    16
 76
     0
 77
     2
 78
   300
147
1.0
148
0.0
149
0.0
100
AcDbLayout
  1
Layout2
 70
     1
 71
     2
 10
0.0
 20
0.0
 11
0.0
 21
0.0
 12
0.0
 22
0.0
 32
0.0
 14
0.0
 24
0.0
 34
0.0
 15
0.0
 25
0.0
 35
0.0
146
0.0
 13
0.0
 23
0.0
 33
0.0
 16
1.0
 26
0.0
 36
0.0
 17
0.0
 27
1.0
 37
0.0
 76
     0
330
C3
  0
LAYOUT
  5
C2
102
{ACAD_REACTORS
330
BA
102
}
330
BA
100
AcDbPlotSettings
  1

  2
none_device
  4

  6

 40
0.0
 41
0.0
 42
0.0
 43
0.0
 44
0.0
 45
0.0
 46
0.0
 47
0.0
 48
0.0
 49
0.0
140
0.0
141
0.0
142
1.0
143
1.0
 70
  1712
 72
     0
 73
     0
 74
     0
  7

 75
     0
 76
     0
 77
     2
 78
   300
147
1.0
148
0.0
149
0.0
100
AcDbLayout
  1
Model
 70
     1
 71
     0
 10
0.0
 20
0.0
 11
12.0
 21
9.0
 12
0.0
 22
0.0
 32
0.0
 14
1.000000000000000E+20
 24
1.000000000000000E+20
 34
1.000000000000000E+20
 15
-1.000000000000000E+20
 25
-1.000000000000000E+20
 35
-1.000000000000000E+20
146
0.0
 13
0.0
 23
0.0
 33
0.0
 16
1.0
 26
0.0
 36
0.0
 17
0.0
 27
1.0
 37
0.0
 76
     0
330
BF
331
C9
  0
MATERIAL
  5
DD
102
{ACAD_REACTORS
330
DB
102
}
330
DB
100
AcDbMaterial
  1
ByBlock
 72
     1
 94
      127
  0
MATERIAL
  5
DC
102
{ACAD_REACTORS
330
DB
102
}
330
DB
100
AcDbMaterial
  1
ByLayer
 72
     1
 94
      127
  0
MATERIAL
  5
DE
102
{ACAD_REACTORS
330
DB
102
}
330
DB
100
AcDbMaterial
  1
Global
 72
     1
 94
      127
  0
MLINESTYLE
  5
B8
102
{ACAD_REACTORS
330
B7
102
}
330
B7
100
AcDbMlineStyle
  2
Standard
 70
     0
  3

 62
   256
 51
90.0
 52
90.0
 71
     2
 49
0.5
 62
   256
  6
BYLAYER
 49
-0.5
 62
   256
  6
BYLAYER
  0
ACDBPLACEHOLDER
  5
B0
102
{ACAD_REACTORS
330
AF
102
}
330
AF
  0
VISUALSTYLE
  5
CF
102
{ACAD_REACTORS
330
CA
102
}
330
CA
100
AcDbVisualStyle
  2
2dWireframe
 70
     4
177
     2
291
     0
 71
     0
176
     1
 72
     2
176
     1
 73
     0
176
     1
 90
        0
176
     1
 40
-0.6
176
     1
 41
-30.0
176
     1
 62
     5
 63
     7
421
 16777215
176
     1
 74
     1
176
     1
 91
        4
176
     1
 64
     7
176
     1
 65
   257
176
     1
 75
     1
176
     1
175
     1
176
     1
 42
1.0
176
     1
 92
        0
176
     1
 66
   257
176
     1
 43
1.0
176
     1
 76
     1
176
     1
 77
     6
176
     1
 78
     2
176
     1
 67
     7
176
     1
 79
     5
176
     1
170
     0
176
     1
171
     0
176
     1
290
     0
176
     1
 93
        1
176
     1
 44
0.0
176
     1
173
     0
176
     1
  0
VISUALSTYLE
  5
D1
102
{ACAD_REACTORS
330
CA
102
}
330
CA
100
AcDbVisualStyle
  2
3D Hidden
 70
     6
177
     2
291
     0
 71
     1
176
     1
 72
     2
176
     1
 73
     2
176
     1
 90
        0
176
     1
 40
-0.6
176
     1
 41
-30.0
176
     1
 62
     5
 63
     7
421
 16777215
176
     1
 74
     2
176
     1
 91
        2
176
     1
 64
     7
176
     1
 65
   257
176
     1
 75
     2
176
     1
175
     1
176
     1
 42
40.0
176
     1
 92
        0
176
     1
 66
   257
176
     1
 43
1.0
176
     1
 76
     1
176
     1
 77
     6
176
     1
 78
     2
176
     1
 67
     7
176
     1
 79
     3
176
     1
170
     0
176
     1
171
     0
176
     1
290
     0
176
     1
 93
        1
176
     1
 44
0.0
176
     1
173
     0
176
     1
  0
VISUALSTYLE
  5
D0
102
{ACAD_REACTORS
330
CA
102
}
330
CA
100
AcDbVisualStyle
  2
3dWireframe
 70
     5
177
     2
291
     0
 71
     0
176
     1
 72
     2
176
     1
 73
     0
176
     1
 90
        0
176
     1
 40
-0.6
176
     1
 41
-30.0
176
     1
 62
     5
 63
     7
421
 16777215
176
     1
 74
     1
176
     1
 91
        4
176
     1
 64
     7
176
     1
 65
   257
176
     1
 75
     1
176
     1
175
     1
176
     1
 42
1.0
176
     1
 92
        0
176
     1
 66
   257
176
     1
 43
1.0
176
     1
 76
     1
176
     1
 77
     6
176
     1
 78
     2
176
     1
 67
     7
176
     1
 79
     5
176
     1
170
     0
176
     1
171
     0
176
     1
290
     0
176
     1
 93
        1
176
     1
 44
0.0
176
     1
173
     0
176
     1
  0
VISUALSTYLE
  5
D2
102
{ACAD_REACTORS
330
CA
102
}
330
CA
100
AcDbVisualStyle
  2
Basic
 70
     7
177
     2
291
     1
 71
     1
176
     1
 72
     0
176
     1
 73
     1
176
     1
 90
        0
176
     1
 40
-0.6
176
     1
 41
-30.0
176
     1
 62
     5
 63
     7
421
 16777215
176
     1
 74
     0
176
     1
 91
        4
176
     1
 64
     7
176
     1
 65
   257
176
     1
 75
     1
176
     1
175
     1
176
     1
 42
1.0
176
     1
 92
        8
176
     1
 66
     7
176
     1
 43
1.0
176
     1
 76
     1
176
     1
 77
     6
176
     1
 78
     2
176
     1
 67
     7
176
     1
 79
     5
176
     1
170
     0
176
     1
171
     0
176
     1
290
     0
176
     1
 93
        1
176
     1
 44
0.0
176
     1
173
     0
176
     1
  0
VISUALSTYLE
  5
D6
102
{ACAD_REACTORS
330
CA
102
}
330
CA
100
AcDbVisualStyle
  2
Brighten
 70
    12
177
     2
291
     1
 71
     2
176
     1
 72
     2
176
     1
 73
     0
176
     1
 90
        0
176
     1
 40
-0.6
176
     1
 41
-30.0
176
     1
 62
     5
 63
     7
421
 16777215
176
     1
 74
     1
176
     1
 91
        4
176
     1
 64
     7
176
     1
 65
   257
176
     1
 75
     1
176
     1
175
     1
176
     1
 42
1.0
176
     1
 92
        8
176
     1
 66
     7
176
     1
 43
1.0
176
     1
 76
     1
176
     1
 77
     6
176
     1
 78
     2
176
     1
 67
     7
176
     1
 79
     5
176
     1
170
     0
176
     1
171
     0
176
     1
290
     0
176
     1
 93
        1
176
     1
 44
50.0
176
     1
173
     0
176
     1
  0
VISUALSTYLE
  5
DA
102
{ACAD_REACTORS
330
CA
102
}
330
CA
100
AcDbVisualStyle
  2
ColorChange
 70
    16
177
     2
291
     1
 71
     2
176
     1
 72
     2
176
     1
 73
     3
176
     1
 90
        0
176
     1
 40
-0.6
176
     1
 41
-30.0
176
     1
 62
     5
 63
     8
421
  8421504
176
     1
 74
     1
176
     1
 91
        4
176
     1
 64
     7
176
     1
 65
   257
176
     1
 75
     1
176
     1
175
     1
176
     1
 42
1.0
176
     1
 92
        8
176
     1
 66
     8
424
  8421504
176
     1
 43
1.0
176
     1
 76
     1
176
     1
 77
     6
176
     1
 78
     2
176
     1
 67
     7
176
     1
 79
     5
176
     1
170
     0
176
     1
171
     0
176
     1
290
     0
176
     1
 93
        1
176
     1
 44
0.0
176
     1
173
     0
176
     1
  0
VISUALSTYLE
  5
D4
102
{ACAD_REACTORS
330
CA
102
}
330
CA
100
AcDbVisualStyle
  2
Conceptual
 70
     9
177
     2
291
     0
 71
     3
176
     1
 72
     2
176
     1
 73
     0
176
     1
 90
        0
176
     1
 40
-0.6
176
     1
 41
-30.0
176
     1
 62
     5
 63
     7
421
 16777215
176
     1
 74
     2
176
     1
 91
        2
176
     1
 64
     7
176
     1
 65
   257
176
     1
 75
     1
176
     1
175
     1
176
     1
 42
40.0
176
     1
 92
        8
176
     1
 66
     7
176
     1
 43
1.0
176
     1
 76
     1
176
     1
 77
     6
176
     1
 78
     2
176
     1
 67
     7
176
     1
 79
     3
176
     1
170
     0
176
     1
171
     0
176
     1
290
     0
176
     1
 93
        1
176
     1
 44
0.0
176
     1
173
     0
176
     1
  0
VISUALSTYLE
  5
D5
102
{ACAD_REACTORS
330
CA
102
}
330
CA
100
AcDbVisualStyle
  2
Dim
 70
    11
177
     2
291
     1
 71
     2
176
     1
 72
     2
176
     1
 73
     0
176
     1
 90
        0
176
     1
 40
-0.6
176
     1
 41
-30.0
176
     1
 62
     5
 63
     7
421
 16777215
176
     1
 74
     1
176
     1
 91
        4
176
     1
 64
     7
176
     1
 65
   257
176
     1
 75
     1
176
     1
175
     1
176
     1
 42
1.0
176
     1
 92
        8
176
     1
 66
     7
176
     1
 43
1.0
176
     1
 76
     1
176
     1
 77
     6
176
     1
 78
     2
176
     1
 67
     7
176
     1
 79
     5
176
     1
170
     0
176
     1
171
     0
176
     1
290
     0
176
     1
 93
        1
176
     1
 44
-50.0
176
     1
173
     0
176
     1
  0
VISUALSTYLE
  5
D9
102
{ACAD_REACTORS
330
CA
102
}
330
CA
100
AcDbVisualStyle
  2
Facepattern
 70
    15
177
     2
291
     1
 71
     2
176
     1
 72
     2
176
     1
 73
     0
176
     1
 90
        0
176
     1
 40
-0.6
176
     1
 41
-30.0
176
     1
 62
     5
 63
     7
421
 16777215
176
     1
 74
     1
176
     1
 91
        4
176
     1
 64
     7
176
     1
 65
   257
176
     1
 75
     1
176
     1
175
     1
176
     1
 42
1.0
176
     1
 92
        8
176
     1
 66
     7
176
     1
 43
1.0
176
     1
 76
     1
176
     1
 77
     6
176
     1
 78
     2
176
     1
 67
     7
176
     1
 79
     5
176
     1
170
     0
176
     1
171
     0
176
     1
290
     0
176
     1
 93
        1
176
     1
 44
0.0
176
     1
173
     0
176
     1
  0
VISUALSTYLE
  5
CB
102
{ACAD_REACTORS
330
CA
102
}
330
CA
100
AcDbVisualStyle
  2
Flat
 70
     0
177
     2
291
     1
 71
     2
176
     1
 72
     1
176
     1
 73
     1
176
     1
 90
        2
176
     1
 40
-0.6
176
     1
 41
30.0
176
     1
 62
     5
 63
     7
421
 16777215
176
     1
 74
     0
176
     1
 91
        4
176
     1
 64
     7
176
     1
 65
   257
176
     1
 75
     1
176
     1
175
     1
176
     1
 42
1.0
176
     1
 92
        8
176
     1
 66
     7
176
     1
 43
1.0
176
     1
 76
     1
176
     1
 77
     6
176
     1
 78
     2
176
     1
 67
     7
176
     1
 79
     5
176
     1
170
     0
176
     1
171
     0
176
     1
290
     0
176
     1
 93
       13
176
     1
 44
0.0
176
     1
173
     0
176
     1
  0
VISUALSTYLE
  5
CC
102
{ACAD_REACTORS
330
CA
102
}
330
CA
100
AcDbVisualStyle
  2
FlatWithEdges
 70
     1
177
     2
291
     1
 71
     2
176
     1
 72
     1
176
     1
 73
     1
176
     1
 90
        2
176
     1
 40
-0.6
176
     1
 41
30.0
176
     1
 62
     5
 63
     7
421
 16777215
176
     1
 74
     1
176
     1
 91
        4
176
     1
 64
     7
176
     1
 65
   257
176
     1
 75
     1
176
     1
175
     1
176
     1
 42
1.0
176
     1
 92
        0
176
     1
 66
   257
176
     1
 43
1.0
176
     1
 76
     1
176
     1
 77
     6
176
     1
 78
     2
176
     1
 67
     7
176
     1
 79
     5
176
     1
170
     0
176
     1
171
     0
176
     1
290
     0
176
     1
 93
       13
176
     1
 44
0.0
176
     1
173
     0
176
     1
  0
VISUALSTYLE
  5
CD
102
{ACAD_REACTORS
330
CA
102
}
330
CA
100
AcDbVisualStyle
  2
Gouraud
 70
     2
177
     2
291
     1
 71
     2
176
     1
 72
     2
176
     1
 73
     1
176
     1
 90
        2
176
     1
 40
-0.6
176
     1
 41
30.0
176
     1
 62
     5
 63
     7
421
 16777215
176
     1
 74
     0
176
     1
 91
        4
176
     1
 64
     7
176
     1
 65
   257
176
     1
 75
     1
176
     1
175
     1
176
     1
 42
1.0
176
     1
 92
        0
176
     1
 66
     7
176
     1
 43
1.0
176
     1
 76
     1
176
     1
 77
     6
176
     1
 78
     2
176
     1
 67
     7
176
     1
 79
     5
176
     1
170
     0
176
     1
171
     0
176
     1
290
     0
176
     1
 93
       13
176
     1
 44
0.0
176
     1
173
     0
176
     1
  0
VISUALSTYLE
  5
CE
102
{ACAD_REACTORS
330
CA
102
}
330
CA
100
AcDbVisualStyle
  2
GouraudWithEdges
 70
     3
177
     2
291
     1
 71
     2
176
     1
 72
     2
176
     1
 73
     1
176
     1
 90
        2
176
     1
 40
-0.6
176
     1
 41
30.0
176
     1
 62
     5
 63
     7
421
 16777215
176
     1
 74
     1
176
     1
 91
        4
176
     1
 64
     7
176
     1
 65
   257
176
     1
 75
     1
176
     1
175
     1
176
     1
 42
1.0
176
     1
 92
        0
176
     1
 66
   257
176
     1
 43
1.0
176
     1
 76
     1
176
     1
 77
     6
176
     1
 78
     2
176
     1
 67
     7
176
     1
 79
     5
176
     1
170
     0
176
     1
171
     0
176
     1
290
     0
176
     1
 93
       13
176
     1
 44
0.0
176
     1
173
     0
176
     1
  0
VISUALSTYLE
  5
D8
102
{ACAD_REACTORS
330
CA
102
}
330
CA
100
AcDbVisualStyle
  2
Linepattern
 70
    14
177
     2
291
     1
 71
     2
176
     1
 72
     2
176
     1
 73
     0
176
     1
 90
        0
176
     1
 40
-0.6
176
     1
 41
-30.0
176
     1
 62
     5
 63
     7
421
 16777215
176
     1
 74
     1
176
     1
 91
        4
176
     1
 64
     7
176
     1
 65
   257
176
     1
 75
     7
176
     1
175
     7
176
     1
 42
1.0
176
     1
 92
        8
176
     1
 66
     7
176
     1
 43
1.0
176
     1
 76
     1
176
     1
 77
     6
176
     1
 78
     2
176
     1
 67
     7
176
     1
 79
     5
176
     1
170
     0
176
     1
171
     0
176
     1
290
     0
176
     1
 93
        1
176
     1
 44
0.0
176
     1
173
     0
176
     1
  0
VISUALSTYLE
  5
D3
102
{ACAD_REACTORS
330
CA
102
}
330
CA
100
AcDbVisualStyle
  2
Realistic
 70
     8
177
     2
291
     0
 71
     2
176
     1
 72
     2
176
     1
 73
     0
176
     1
 90
        0
176
     1
 40
-0.6
176
     1
 41
-30.0
176
     1
 62
     5
 63
     7
421
 16777215
176
     1
 74
     1
176
     1
 91
        0
176
     1
 64
     7
176
     1
 65
   257
176
     1
 75
     1
176
     1
175
     1
176
     1
 42
1.0
176
     1
 92
        8
176
     1
 66
     8
424
  7895160
176
     1
 43
1.0
176
     1
 76
     1
176
     1
 77
     6
176
     1
 78
     2
176
     1
 67
     7
176
     1
 79
     5
176
     1
170
     0
176
     1
171
     0
176
     1
290
     0
176
     1
 93
       13
176
     1
 44
0.0
176
     1
173
     0
176
     1
  0
VISUALSTYLE
  5
D7
102
{ACAD_REACTORS
330
CA
102
}
330
CA
100
AcDbVisualStyle
  2
Thicken
 70
    13
177
     2
291
     1
 71
     2
176
     1
 72
     2
176
     1
 73
     0
176
     1
 90
        0
176
     1
 40
-0.6
176
     1
 41
-30.0
176
     1
 62
     5
 63
     7
421
 16777215
176
     1
 74
     1
176
     1
 91
        4
176
     1
 64
     7
176
     1
 65
   257
176
     1
 75
     1
176
     1
175
     1
176
     1
 42
1.0
176
     1
 92
       12
176
     1
 66
     7
176
     1
 43
1.0
176
     1
 76
     1
176
     1
 77
     6
176
     1
 78
     2
176
     1
 67
     7
176
     1
 79
     5
176
     1
170
     0
176
     1
171
     0
176
     1
290
     0
176
     1
 93
        1
176
     1
 44
0.0
176
     1
173
     0
176
     1
  0
XRECORD
  5
EF
102
{ACAD_REACTORS
330
E0
102
}
330
E0
100
AcDbXrecord
280
     1
290
     1
  0
XRECORD
  5
E8
102
{ACAD_REACTORS
330
E0
102
}
330
E0
100
AcDbXrecord
280
     1
1000
auto
  0
XRECORD
  5
EA
102
{ACAD_REACTORS
330
E0
102
}
330
E0
100
AcDbXrecord
280
     1
1000
auto
  0
XRECORD
  5
E7
102
{ACAD_REACTORS
330
E0
102
}
330
E0
100
AcDbXrecord
280
     1
 90
        1
  0
XRECORD
  5
E4
102
{ACAD_REACTORS
330
E0
102
}
330
E0
100
AcDbXrecord
280
     1
 40
10.0
  0
XRECORD
  5
EB
102
{ACAD_REACTORS
330
E0
102
}
330
E0
100
AcDbXrecord
280
     1
 40
10.0
  0
XRECORD
  5
E1
102
{ACAD_REACTORS
330
E0
102
}
330
E0
100
AcDbXrecord
280
     1
 40
10.0
  0
XRECORD
  5
F3
102
{ACAD_REACTORS
330
E0
102
}
330
E0
100
AcDbXrecord
280
     1
 40
10.0
  0
XRECORD
  5
E3
102
{ACAD_REACTORS
330
E0
102
}
330
E0
100
AcDbXrecord
280
     1
290
     0
  0
XRECORD
  5
EC
102
{ACAD_REACTORS
330
E0
102
}
330
E0
100
AcDbXrecord
280
     1
 90
        1
  0
XRECORD
  5
F1
102
{ACAD_REACTORS
330
E0
102
}
330
E0
100
AcDbXrecord
280
     1
 40
0.0
  0
XRECORD
  5
F2
102
{ACAD_REACTORS
330
E0
102
}
330
E0
100
AcDbXrecord
280
     1
 40
0.0
  0
XRECORD
  5
E2
102
{ACAD_REACTORS
330
E0
102
}
330
E0
100
AcDbXrecord
280
     1
1000
Portrait
  0
XRECORD
  5
E6
102
{ACAD_REACTORS
330
E0
102
}
330
E0
100
AcDbXrecord
280
     1
 40
297.0
  0
XRECORD
  5
ED
102
{ACAD_REACTORS
330
E0
102
}
330
E0
100
AcDbXrecord
280
     1
 40
210.0
  0
XRECORD
  5
E5
102
{ACAD_REACTORS
330
E0
102
}
330
E0
100
AcDbXrecord
280
     1
1000
1:1
  0
XRECORD
  5
E9
102
{ACAD_REACTORS
330
E0
102
}
330
E0
100
AcDbXrecord
280
     1
290
     0
  0
XRECORD
  5
F0
102
{ACAD_REACTORS
330
E0
102
}
330
E0
100
AcDbXrecord
280
     1
290
     1
  0
XRECORD
  5
EE
102
{ACAD_REACTORS
330
E0
102
}
330
E0
100
AcDbXrecord
280
     1
 90
        4
  0
ENDSEC
  0
EOF
