  0
SECTION
  2
HEADER
  9
$ACADVER
  1
AC1024
  9
$ACADMAINTVER
 70
     6
  9
$DWGCODEPAGE
  3
ASCII
  9
$INSBASE
 10
0.0
 20
0.0
 30
0.0
  9
$EXTMIN
 10
1.000000000000000E+20
 20
1.000000000000000E+20
 30
1.000000000000000E+20
  9
$EXTMAX
 10
-1.000000000000000E+20
 20
-1.000000000000000E+20
 30
-1.000000000000000E+20
  9
$LIMMIN
 10
0.0
 20
0.0
  9
$LIMMAX
 10
12.0
 20
9.0
  9
$ORTHOMODE
 70
     0
  9
$REGENMODE
 70
     1
  9
$FILLMODE
 70
     1
  9
$QTEXTMODE
 70
     0
  9
$MIRRTEXT
 70
     1
  9
$LTSCALE
 40
1.0
  9
$ATTMODE
 70
     1
  9
$TEXTSIZE
 40
0.2
  9
$TRACEWID
 40
0.05
  9
$TEXTSTYLE
  7
Standard
  9
$CLAYER
  8
0
  9
$CELTYPE
  6
ByLayer
  9
$CECOLOR
 62
    18
  9
$CELTSCALE
 40
1.0
  9
$DISPSILH
 70
     0
  9
$DIMSCALE
 40
1.0
  9
$DIMASZ
 40
2.5
  9
$DIMEXO
 40
0.625
  9
$DIMDLI
 40
0.38
  9
$DIMRND
 40
0.0
  9
$DIMDLE
 40
0.0
  9
$DIMEXE
 40
1.25
  9
$DIMTP
 40
0.0
  9
$DIMTM
 40
0.0
  9
$DIMTXT
 40
2.5
  9
$DIMCEN
 40
0.09
  9
$DIMTSZ
 40
0.0
  9
$DIMTOL
 70
     0
  9
$DIMLIM
 70
     0
  9
$DIMTIH
 70
     1
  9
$DIMTOH
 70
     1
  9
$DIMSE1
 70
     0
  9
$DIMSE2
 70
     0
  9
$DIMTAD
 70
     0
  9
$DIMZIN
 70
     8
  9
$DIMBLK
  1

  9
$DIMASO
 70
     1
  9
$DIMSHO
 70
     1
  9
$DIMPOST
  1

  9
$DIMAPOST
  1

  9
$DIMALT
 70
     0
  9
$DIMALTD
 70
     2
  9
$DIMALTF
 40
25.4
  9
$DIMLFAC
 40
1.0
  9
$DIMTOFL
 70
     0
  9
$DIMTVP
 40
0.0
  9
$DIMTIX
 70
     0
  9
$DIMSOXD
 70
     0
  9
$DIMSAH
 70
     0
  9
$DIMBLK1
  1

  9
$DIMBLK2
  1

  9
$DIMSTYLE
  2
Standard
  9
$DIMCLRD
 70
    18
  9
$DIMCLRE
 70
    18
  9
$DIMCLRT
 70
    18
  9
$DIMTFAC
 40
1.0
  9
$DIMGAP
 40
0.625
  9
$DIMJUST
 70
     0
  9
$DIMSD1
 70
     0
  9
$DIMSD2
 70
     0
  9
$DIMTOLJ
 70
     1
  9
$DIMTZIN
 70
     0
  9
$DIMALTZ
 70
     0
  9
$DIMALTTZ
 70
     0
  9
$DIMUPT
 70
     0
  9
$DIMDEC
 70
     4
  9
$DIMTDEC
 70
     4
  9
$DIMALTU
 70
     2
  9
$DIMALTTD
 70
     2
  9
$DIMTXSTY
  7
Standard
  9
$DIMAUNIT
 70
     0
  9
$DIMADEC
 70
     0
  9
$DIMALTRND
 40
0.0
  9
$DIMAZIN
 70
     2
  9
$DIMDSEP
 70
    46
  9
$DIMATFIT
 70
     3
  9
$DIMFRAC
 70
     0
  9
$DIMLDRBLK
  1

  9
$DIMLUNIT
 70
     2
  9
$DIMLWD
 70
    -2
  9
$DIMLWE
 70
    -2
  9
$DIMTMOVE
 70
     0
  9
$DIMFXL
 40
1.0
  9
$DIMFXLON
 70
     0
  9
$DIMJOGANG
 40
0.7853981633974483
  9
$DIMTFILL
 70
     0
  9
$DIMTFILLCLR
 70
     0
  9
$DIMARCSYM
 70
     0
  9
$DIMLTYPE
  6

  9
$DIMLTEX1
  6

  9
$DIMLTEX2
  6

  9
$DIMTXTDIRECTION
 70
     0
  9
$LUNITS
 70
     2
  9
$LUPREC
 70
     4
  9
$SKETCHINC
 40
0.1
  9
$FILLETRAD
 40
0.5
  9
$AUNITS
 70
     0
  9
$AUPREC
 70
     0
  9
$MENU
  1
.
  9
$ELEVATION
 40
0.0
  9
$PELEVATION
 40
0.0
  9
$THICKNESS
 40
0.0
  9
$LIMCHECK
 70
     0
  9
$CHAMFERA
 40
0.5
  9
$CHAMFERB
 40
0.5
  9
$CHAMFERC
 40
1.0
  9
$CHAMFERD
 40
0.0
  9
$SKPOLY
 70
     0
  9
$TDCREATE
 40
2455866.612212372
  9
$TDUCREATE
 40
2455866.778879039
  9
$TDUPDATE
 40
2455866.612212558
  9
$TDUUPDATE
 40
2455866.778879224
  9
$TDINDWG
 40
0.0000000116
  9
$TDUSRTIMER
 40
0.0000000116
  9
$USRTIMER
 70
     1
  9
$ANGBASE
 50
0.0
  9
$ANGDIR
 70
     0
  9
$PDMODE
 70
     0
  9
$PDSIZE
 40
0.0
  9
$PLINEWID
 40
0.0
  9
$SPLFRAME
 70
     0
  9
$SPLINETYPE
 70
     6
  9
$SPLINESEGS
 70
     8
  9
$HANDSEED
  5
187
  9
$SURFTAB1
 70
     6
  9
$SURFTAB2
 70
     6
  9
$SURFTYPE
 70
     6
  9
$SURFU
 70
     6
  9
$SURFV
 70
     6
  9
$UCSBASE
  2

  9
$UCSNAME
  2

  9
$UCSORG
 10
0.0
 20
0.0
 30
0.0
  9
$UCSXDIR
 10
1.0
 20
0.0
 30
0.0
  9
$UCSYDIR
 10
0.0
 20
1.0
 30
0.0
  9
$UCSORTHOREF
  2

  9
$UCSORTHOVIEW
 70
     0
  9
$UCSORGTOP
 10
0.0
 20
0.0
 30
0.0
  9
$UCSORGBOTTOM
 10
0.0
 20
0.0
 30
0.0
  9
$UCSORGLEFT
 10
0.0
 20
0.0
 30
0.0
  9
$UCSORGRIGHT
 10
0.0
 20
0.0
 30
0.0
  9
$UCSORGFRONT
 10
0.0
 20
0.0
 30
0.0
  9
$UCSORGBACK
 10
0.0
 20
0.0
 30
0.0
  9
$PUCSBASE
  2

  9
$PUCSNAME
  2

  9
$PUCSORG
 10
0.0
 20
0.0
 30
0.0
  9
$PUCSXDIR
 10
1.0
 20
0.0
 30
0.0
  9
$PUCSYDIR
 10
0.0
 20
1.0
 30
0.0
  9
$PUCSORTHOREF
  2

  9
$PUCSORTHOVIEW
 70
     0
  9
$PUCSORGTOP
 10
0.0
 20
0.0
 30
0.0
  9
$PUCSORGBOTTOM
 10
0.0
 20
0.0
 30
0.0
  9
$PUCSORGLEFT
 10
0.0
 20
0.0
 30
0.0
  9
$PUCSORGRIGHT
 10
0.0
 20
0.0
 30
0.0
  9
$PUCSORGFRONT
 10
0.0
 20
0.0
 30
0.0
  9
$PUCSORGBACK
 10
0.0
 20
0.0
 30
0.0
  9
$USERI1
 70
     0
  9
$USERI2
 70
     0
  9
$USERI3
 70
     0
  9
$USERI4
 70
     0
  9
$USERI5
 70
     0
  9
$USERR1
 40
0.0
  9
$USERR2
 40
0.0
  9
$USERR3
 40
0.0
  9
$USERR4
 40
0.0
  9
$USERR5
 40
0.0
  9
$WORLDVIEW
 70
     1
  9
$SHADEDGE
 70
     3
  9
$SHADEDIF
 70
    70
  9
$TILEMODE
 70
     1
  9
$MAXACTVP
 70
    64
  9
$PINSBASE
 10
0.0
 20
0.0
 30
0.0
  9
$PLIMCHECK
 70
     0
  9
$PEXTMIN
 10
1.000000000000000E+20
 20
1.000000000000000E+20
 30
1.000000000000000E+20
  9
$PEXTMAX
 10
-1.000000000000000E+20
 20
-1.000000000000000E+20
 30
-1.000000000000000E+20
  9
$PLIMMIN
 10
0.0
 20
0.0
  9
$PLIMMAX
 10
12.0
 20
9.0
  9
$UNITMODE
 70
     0
  9
$VISRETAIN
 70
     1
  9
$PLINEGEN
 70
     0
  9
$PSLTSCALE
 70
     1
  9
$TREEDEPTH
 70
  3020
  9
$CMLSTYLE
  2
Standard
  9
$CMLJUST
 70
     0
  9
$CMLSCALE
 40
1.0
  9
$PROXYGRAPHICS
 70
     1
  9
$MEASUREMENT
 70
     1
  9
$CELWEIGHT
370
    -1
  9
$ENDCAPS
280
     0
  9
$JOINSTYLE
280
     0
  9
$LWDISPLAY
290
     0
  9
$INSUNITS
 70
     4
  9
$HYPERLINKBASE
  1

  9
$STYLESHEET
  1

  9
$XEDIT
290
     1
  9
$CEPSNTYPE
380
     0
  9
$PSTYLEMODE
290
     1
  9
$FINGERPRINTGUID
  2
{30030146-6147-4C2A-B700-FBBD1D826D45}
  9
$VERSIONGUID
  2
{FAEB1C32-E019-11D5-929B-00C0DF256EC4}
  9
$EXTNAMES
290
     1
  9
$PSVPSCALE
 40
0.0
  9
$OLESTARTUP
290
     0
  9
$SORTENTS
280
   127
  9
$INDEXCTL
280
     0
  9
$HIDETEXT
280
     1
  9
$XCLIPFRAME
280
     2
  9
$HALOGAP
280
     0
  9
$OBSCOLOR
 70
   257
  9
$OBSLTYPE
280
     0
  9
$INTERSECTIONDISPLAY
280
     0
  9
$INTERSECTIONCOLOR
 70
   257
  9
$DIMASSOC
280
     2
  9
$PROJECTNAME
  1

  9
$CAMERADISPLAY
290
     0
  9
$LENSLENGTH
 40
50.0
  9
$CAMERAHEIGHT
 40
0.0
  9
$STEPSPERSEC
 40
2.0
  9
$STEPSIZE
 40
6.0
  9
$3DDWFPREC
 40
2.0
  9
$PSOLWIDTH
 40
0.25
  9
$PSOLHEIGHT
 40
4.0
  9
$LOFTANG1
 40
1.570796326794897
  9
$LOFTANG2
 40
1.570796326794897
  9
$LOFTMAG1
 40
0.0
  9
$LOFTMAG2
 40
0.0
  9
$LOFTPARAM
 70
     7
  9
$LOFTNORMALS
280
     1
  9
$LATITUDE
 40
37.795
  9
$LONGITUDE
 40
-122.394
  9
$NORTHDIRECTION
 40
0.0
  9
$TIMEZONE
 70
 -8000
  9
$LIGHTGLYPHDISPLAY
280
     1
  9
$TILEMODELIGHTSYNCH
280
     1
  9
$SOLIDHIST
280
     1
  9
$SHOWHIST
280
     1
  9
$DWFFRAME
280
     2
  9
$DGNFRAME
280
     2
  9
$REALWORLDSCALE
290
     1
  9
$INTERFERECOLOR
 62
   256
  9
$CSHADOW
280
     0
  9
$SHADOWPLANELOCATION
 40
0.0
  0
ENDSEC
  0
SECTION
  2
CLASSES
  0
CLASS
  1
ACDBDICTIONARYWDFLT
  2
AcDbDictionaryWithDefault
  3
ObjectDBX Classes
 90
        0
 91
        4
280
     0
281
     0
  0
CLASS
  1
VISUALSTYLE
  2
AcDbVisualStyle
  3
ObjectDBX Classes
 90
     4095
 91
        4
280
     0
281
     0
  0
CLASS
  1
MATERIAL
  2
AcDbMaterial
  3
ObjectDBX Classes
 90
     1153
 91
        4
280
     0
281
     0
  0
ENDSEC
  0
SECTION
  2
TABLES
  0
TABLE
  2
VPORT
  5
136
330
0
100
AcDbSymbolTable
 70
     1
  0
VPORT
  5
156
330
136
100
AcDbSymbolTableRecord
100
AcDbViewportTableRecord
  2
*Active
 70
     0
 10
0.0
 20
0.0
 11
1.0
 21
1.0
 12
10.42990654205607
 22
4.5
 13
0.0
 23
0.0
 14
0.5
 24
0.5
 15
0.5
 25
0.5
 16
0.0
 26
0.0
 36
1.0
 17
0.0
 27
0.0
 37
0.0
 40
9.0
 41
1.972972972850329
 42
50.0
 43
0.0
 44
0.0
 50
0.0
 51
0.0
 71
     0
 72
   100
 73
     1
 74
     3
 75
     0
 76
     0
 77
     0
 78
     0
281
     0
 65
     1
110
0.0
120
0.0
130
0.0
111
1.0
121
0.0
131
0.0
112
0.0
122
1.0
132
0.0
 79
     0
146
0.0
 60
     3
 61
     5
292
     1
282
     1
141
0.0
142
0.0
 63
   250
  0
ENDTAB
  0
TABLE
  2
LTYPE
  5
133
330
0
100
AcDbSymbolTable
 70
    19
  0
LTYPE
  5
141
330
133
100
AcDbSymbolTableRecord
100
AcDbLinetypeTableRecord
  2
ByBlock
 70
     0
  3

 72
    65
 73
     0
 40
0.0
  0
LTYPE
  5
142
330
133
100
AcDbSymbolTableRecord
100
AcDbLinetypeTableRecord
  2
ByLayer
 70
     0
  3

 72
    65
 73
     0
 40
0.0
  0
LTYPE
  5
143
330
133
100
AcDbSymbolTableRecord
100
AcDbLinetypeTableRecord
  2
Continuous
 70
     0
  3
Solid line
 72
    65
 73
     0
 40
0.0
  0
LTYPE
  5
171
330
133
100
AcDbSymbolTableRecord
100
AcDbLinetypeTableRecord
  2
BORDER
 70
     0
  3

 72
    65
 73
     6
 40
42.00000000000001
 49
12.0
 74
     0
 49
-6.0
 74
     0
 49
12.0
 74
     0
 49
-5.95
 74
     0
 49
0.1
 74
     0
 49
-5.95
 74
     0
  0
LTYPE
  5
172
330
133
100
AcDbSymbolTableRecord
100
AcDbLinetypeTableRecord
  2
BORDER2
 70
     0
  3

 72
    65
 73
     6
 40
21.0
 49
6.0
 74
     0
 49
-3.0
 74
     0
 49
6.0
 74
     0
 49
-2.95
 74
     0
 49
0.1
 74
     0
 49
-2.95
 74
     0
  0
LTYPE
  5
173
330
133
100
AcDbSymbolTableRecord
100
AcDbLinetypeTableRecord
  2
BORDERX2
 70
     0
  3

 72
    65
 73
     6
 40
84.0
 49
24.0
 74
     0
 49
-12.0
 74
     0
 49
24.0
 74
     0
 49
-11.95
 74
     0
 49
0.1
 74
     0
 49
-11.95
 74
     0
  0
LTYPE
  5
174
330
133
100
AcDbSymbolTableRecord
100
AcDbLinetypeTableRecord
  2
CENTER
 70
     0
  3

 72
    65
 73
     4
 40
50.0
 49
32.0
 74
     0
 49
-6.0
 74
     0
 49
6.0
 74
     0
 49
-6.0
 74
     0
  0
LTYPE
  5
175
330
133
100
AcDbSymbolTableRecord
100
AcDbLinetypeTableRecord
  2
CENTER2
 70
     0
  3

 72
    65
 73
     4
 40
25.0
 49
16.0
 74
     0
 49
-3.0
 74
     0
 49
3.0
 74
     0
 49
-3.0
 74
     0
  0
LTYPE
  5
176
330
133
100
AcDbSymbolTableRecord
100
AcDbLinetypeTableRecord
  2
CENTERX2
 70
     0
  3

 72
    65
 73
     4
 40
100.0
 49
64.0
 74
     0
 49
-12.0
 74
     0
 49
12.0
 74
     0
 49
-12.0
 74
     0
  0
LTYPE
  5
177
330
133
100
AcDbSymbolTableRecord
100
AcDbLinetypeTableRecord
  2
DASHDOT
 70
     0
  3

 72
    65
 73
     4
 40
24.0
 49
12.0
 74
     0
 49
-5.95
 74
     0
 49
0.1
 74
     0
 49
-5.95
 74
     0
  0
LTYPE
  5
178
330
133
100
AcDbSymbolTableRecord
100
AcDbLinetypeTableRecord
  2
DASHDOT2
 70
     0
  3

 72
    65
 73
     4
 40
12.0
 49
6.0
 74
     0
 49
-2.95
 74
     0
 49
0.1
 74
     0
 49
-2.95
 74
     0
  0
LTYPE
  5
179
330
133
100
AcDbSymbolTableRecord
100
AcDbLinetypeTableRecord
  2
DASHDOTX2
 70
     0
  3

 72
    65
 73
     4
 40
48.0
 49
24.0
 74
     0
 49
-11.95
 74
     0
 49
0.1
 74
     0
 49
-11.95
 74
     0
  0
LTYPE
  5
17A
330
133
100
AcDbSymbolTableRecord
100
AcDbLinetypeTableRecord
  2
DASHED
 70
     0
  3

 72
    65
 73
     2
 40
18.0
 49
12.0
 74
     0
 49
-6.0
 74
     0
  0
LTYPE
  5
17B
330
133
100
AcDbSymbolTableRecord
100
AcDbLinetypeTableRecord
  2
DASHED2
 70
     0
  3

 72
    65
 73
     2
 40
9.0
 49
6.0
 74
     0
 49
-3.0
 74
     0
  0
LTYPE
  5
17C
330
133
100
AcDbSymbolTableRecord
100
AcDbLinetypeTableRecord
  2
DASHEDX2
 70
     0
  3

 72
    65
 73
     2
 40
36.0
 49
24.0
 74
     0
 49
-12.0
 74
     0
  0
LTYPE
  5
17D
330
133
100
AcDbSymbolTableRecord
100
AcDbLinetypeTableRecord
  2
DIVIDE
 70
     0
  3

 72
    65
 73
     6
 40
29.99999999999999
 49
12.0
 74
     0
 49
-5.9
 74
     0
 49
0.15
 74
     0
 49
-5.9
 74
     0
 49
0.15
 74
     0
 49
-5.9
 74
     0
  0
LTYPE
  5
17E
330
133
100
AcDbSymbolTableRecord
100
AcDbLinetypeTableRecord
  2
DIVIDE2
 70
     0
  3

 72
    65
 73
     6
 40
15.0
 49
6.0
 74
     0
 49
-2.9
 74
     0
 49
0.15
 74
     0
 49
-2.9
 74
     0
 49
0.15
 74
     0
 49
-2.9
 74
     0
  0
LTYPE
  5
17F
330
133
100
AcDbSymbolTableRecord
100
AcDbLinetypeTableRecord
  2
DIVIDEX2
 70
     0
  3

 72
    65
 73
     6
 40
59.99999999999999
 49
24.0
 74
     0
 49
-11.9
 74
     0
 49
0.15
 74
     0
 49
-11.9
 74
     0
 49
0.15
 74
     0
 49
-11.9
 74
     0
  0
LTYPE
  5
180
330
133
100
AcDbSymbolTableRecord
100
AcDbLinetypeTableRecord
  2
DOT
 70
     0
  3

 72
    65
 73
     2
 40
6.3
 49
0.1
 74
     0
 49
-6.2
 74
     0
  0
LTYPE
  5
181
330
133
100
AcDbSymbolTableRecord
100
AcDbLinetypeTableRecord
  2
DOT2
 70
     0
  3

 72
    65
 73
     2
 40
3.2
 49
0.1
 74
     0
 49
-3.1
 74
     0
  0
LTYPE
  5
182
330
133
100
AcDbSymbolTableRecord
100
AcDbLinetypeTableRecord
  2
DOTX2
 70
     0
  3

 72
    65
 73
     2
 40
12.5
 49
0.1
 74
     0
 49
-12.4
 74
     0
  0
ENDTAB
  0
TABLE
  2
LAYER
  5
130
330
0
100
AcDbSymbolTable
 70
     3
  0
LAYER
  5
13E
330
130
100
AcDbSymbolTableRecord
100
AcDbLayerTableRecord
  2
0
 70
     0
 62
     7
420
 16777215
  6
Continuous
370
    25
390
13D
347
16B
  0
LAYER
  5
183
330
130
100
AcDbSymbolTableRecord
100
AcDbLayerTableRecord
  2
Referance lines
 70
     0
 62
     2
420
 16776960
  6
Continuous
370
     0
390
13D
347
16B
  0
LAYER
  5
184
330
130
100
AcDbSymbolTableRecord
100
AcDbLayerTableRecord
  2
Laser Table
 70
     0
 62
     2
420
 16776960
  6
Continuous
370
     0
390
13D
347
16B
  0
ENDTAB
  0
TABLE
  2
STYLE
  5
131
330
0
100
AcDbSymbolTable
 70
     1
  0
STYLE
  5
13F
330
131
100
AcDbSymbolTableRecord
100
AcDbTextStyleTableRecord
  2
Standard
 70
     0
 40
0.0
 41
1.0
 50
0.0
 71
     0
 42
0.2
  3
txt
  4

  0
ENDTAB
  0
TABLE
  2
VIEW
  5
134
330
0
100
AcDbSymbolTable
 70
     0
  0
ENDTAB
  0
TABLE
  2
UCS
  5
135
330
0
100
AcDbSymbolTable
 70
     0
  0
ENDTAB
  0
TABLE
  2
APPID
  5
137
330
0
100
AcDbSymbolTable
 70
     2
  0
APPID
  5
140
330
137
100
AcDbSymbolTableRecord
100
AcDbRegAppTableRecord
  2
ACAD
 70
     0
  0
APPID
  5
16C
330
137
100
AcDbSymbolTableRecord
100
AcDbRegAppTableRecord
  2
QCAD
 70
     0
  0
ENDTAB
  0
TABLE
  2
DIMSTYLE
  5
138
330
0
100
AcDbSymbolTable
 70
     2
100
AcDbDimStyleTable
  0
DIMSTYLE
105
154
330
138
100
AcDbSymbolTableRecord
100
AcDbDimStyleTableRecord
  2
Standard
 70
     0
178
     0
340
13F
  0
DIMSTYLE
105
170
330
138
100
AcDbSymbolTableRecord
100
AcDbDimStyleTableRecord
  2
QCADDimStyle
 70
     0
 41
2.5
 42
0.625
 44
1.25
 73
     0
 77
     1
140
2.5
147
0.625
178
     0
340
13F
  0
ENDTAB
  0
TABLE
  2
BLOCK_RECORD
  5
12F
330
0
100
AcDbSymbolTable
 70
     1
  0
BLOCK_RECORD
  5
14C
330
12F
100
AcDbSymbolTableRecord
100
AcDbBlockTableRecord
  2
*Model_Space
340
14F
 70
     0
280
     1
281
     0
  0
BLOCK_RECORD
  5
148
330
12F
100
AcDbSymbolTableRecord
100
AcDbBlockTableRecord
  2
*Paper_Space
340
14B
 70
     0
280
     1
281
     0
  0
BLOCK_RECORD
  5
150
330
12F
100
AcDbSymbolTableRecord
100
AcDbBlockTableRecord
  2
*Paper_Space0
340
153
 70
     0
280
     1
281
     0
  0
ENDTAB
  0
ENDSEC
  0
SECTION
  2
BLOCKS
  0
BLOCK
  5
14D
330
14C
100
AcDbEntity
  8
0
100
AcDbBlockBegin
  2
*Model_Space
 70
     0
 10
0.0
 20
0.0
 30
0.0
  3
*Model_Space
  1

  0
ENDBLK
  5
14E
330
14C
100
AcDbEntity
  8
0
100
AcDbBlockEnd
  0
BLOCK
  5
149
330
148
100
AcDbEntity
 67
     1
  8
0
100
AcDbBlockBegin
  2
*Paper_Space
 70
     0
 10
0.0
 20
0.0
 30
0.0
  3
*Paper_Space
  1

  0
ENDBLK
  5
14A
330
148
100
AcDbEntity
 67
     1
  8
0
100
AcDbBlockEnd
  0
BLOCK
  5
151
330
150
100
AcDbEntity
  8
0
100
AcDbBlockBegin
  2
*Paper_Space0
 70
     0
 10
0.0
 20
0.0
 30
0.0
  3
*Paper_Space0
  1

  0
ENDBLK
  5
152
330
150
100
AcDbEntity
  8
0
100
AcDbBlockEnd
  0
ENDSEC
  0
SECTION
  2
ENTITIES
  0
LINE
  5
1B
330
14C
100
AcDbEntity
  8
Referance lines
 62
     2
420
 16776960
100
AcDbLine
 10
153.9126352677358
 20
-1450.2496
 30
0.0
 11
-939.263283732264
 21
-1450.2496
 31
0.0
  0
LINE
  5
1C
330
14C
100
AcDbEntity
  8
Laser Table
 62
     2
420
 16776960
100
AcDbLine
 10
57.3246757677357
 20
-1808.3916
 30
0.0
 11
57.3246757677357
 21
-608.3915999999999
 31
0.0
  0
LINE
  5
1D
330
14C
100
AcDbEntity
  8
Referance lines
 62
     2
420
 16776960
100
AcDbLine
 10
-392.6753242322643
 20
-1600.2496
 30
0.0
 11
-392.6753242322643
 21
-1300.2496
 31
0.0
  0
LINE
  5
1E
330
14C
100
AcDbEntity
  8
Laser Table
 62
     2
420
 16776960
100
AcDbLine
 10
57.3246757677357
 20
-1808.3916
 30
0.0
 11
-842.6753242322643
 21
-1808.3916
 31
0.0
  0
LINE
  5
1F
330
14C
100
AcDbEntity
  8
Referance lines
 62
     2
420
 16776960
100
AcDbLine
 10
153.9126352677358
 20
651.335
 30
0.0
 11
-939.263283732264
 21
651.335
 31
0.0
  0
LINE
  5
20
330
14C
100
AcDbEntity
  8
Laser Table
 62
     2
420
 16776960
100
AcDbLine
 10
-842.6753242322643
 20
-1808.3916
 30
0.0
 11
-842.6753242322643
 21
-608.3915999999999
 31
0.0
  0
LINE
  5
21
330
14C
100
AcDbEntity
  8
Referance lines
 62
     2
420
 16776960
100
AcDbLine
 10
-392.6753242322643
 20
501.335
 30
0.0
 11
-392.6753242322643
 21
801.335
 31
0.0
  0
LINE
  5
22
330
14C
100
AcDbEntity
  8
Laser Table
 62
     2
420
 16776960
100
AcDbLine
 10
-842.6753242322643
 20
-608.3915999999999
 30
0.0
 11
57.3246757677357
 21
-608.3915999999999
 31
0.0
  0
LINE
  5
23
330
14C
100
AcDbEntity
  8
Laser Table
 62
     2
420
 16776960
100
AcDbLine
 10
1888.551263654645
 20
-592.7783
 30
0.0
 11
1888.551263654645
 21
607.2217
 31
0.0
  0
LINE
  5
24
330
14C
100
AcDbEntity
  8
Referance lines
 62
     2
420
 16776960
100
AcDbLine
 10
869.9497363453547
 20
479.2448200000001
 30
0.0
 11
-1949.230263654645
 21
479.2448200000001
 31
0.0
  0
LINE
  5
25
330
14C
100
AcDbEntity
  8
Laser Table
 62
     2
420
 16776960
100
AcDbLine
 10
1888.551263654645
 20
-592.7783
 30
0.0
 11
988.5512636546455
 21
-592.7783
 31
0.0
  0
LINE
  5
26
330
14C
100
AcDbEntity
  8
Referance lines
 62
     2
420
 16776960
100
AcDbLine
 10
869.9497363453547
 20
-414.5020769999998
 30
0.0
 11
-1949.230263654645
 21
-414.5020769999998
 31
0.0
  0
LINE
  5
27
330
14C
100
AcDbEntity
  8
Laser Table
 62
     2
420
 16776960
100
AcDbLine
 10
988.5512636546455
 20
-592.7783
 30
0.0
 11
988.5512636546455
 21
607.2217
 31
0.0
  0
LINE
  5
28
330
14C
100
AcDbEntity
  8
Laser Table
 62
     2
420
 16776960
100
AcDbLine
 10
988.5512636546455
 20
607.2217
 30
0.0
 11
1888.551263654645
 21
607.2217
 31
0.0
  0
LINE
  5
29
330
14C
100
AcDbEntity
  8
Referance lines
 62
     2
420
 16776960
100
AcDbLine
 10
3.434771767735583
 20
-1255.646936
 30
0.0
 11
12.87454076773565
 21
-1255.646936
 31
0.0
  0
LINE
  5
2A
330
14C
100
AcDbEntity
  8
Laser Table
 62
     2
420
 16776960
100
AcDbLine
 10
-858.2886242322643
 20
-592.7783
 30
0.0
 11
-858.2886242322643
 21
607.2217
 31
0.0
  0
LINE
  5
2B
330
14C
100
AcDbEntity
  8
Referance lines
 62
     2
420
 16776960
100
AcDbLine
 10
8.154655767735676
 20
-1250.927052
 30
0.0
 11
8.154655767735676
 21
-1260.366538
 31
0.0
  0
LINE
  5
2C
330
14C
100
AcDbEntity
  8
Laser Table
 62
     2
420
 16776960
100
AcDbLine
 10
-858.2886242322643
 20
-592.7783
 30
0.0
 11
-1758.288624232264
 21
-592.7783
 31
0.0
  0
LINE
  5
2D
330
14C
100
AcDbEntity
  8
Referance lines
 62
     2
420
 16776960
100
AcDbLine
 10
3.434771767735583
 20
-1383.786549
 30
0.0
 11
12.87454076773565
 21
-1383.786549
 31
0.0
  0
LINE
  5
2E
330
14C
100
AcDbEntity
  8
Laser Table
 62
     2
420
 16776960
100
AcDbLine
 10
-1758.288624232264
 20
-592.7783
 30
0.0
 11
-1758.288624232264
 21
607.2217
 31
0.0
  0
LINE
  5
2F
330
14C
100
AcDbEntity
  8
Referance lines
 62
     2
420
 16776960
100
AcDbLine
 10
8.154655767735676
 20
-1379.066665
 30
0.0
 11
8.154655767735676
 21
-1388.506434
 31
0.0
  0
LINE
  5
30
330
14C
100
AcDbEntity
  8
Laser Table
 62
     2
420
 16776960
100
AcDbLine
 10
-1758.288624232264
 20
607.2217
 30
0.0
 11
-858.2886242322643
 21
607.2217
 31
0.0
  0
LINE
  5
31
330
14C
100
AcDbEntity
  8
Referance lines
 62
     2
420
 16776960
100
AcDbLine
 10
8.154373767735706
 20
-1034.8105605
 30
0.0
 11
8.154373767735706
 21
-1052.3303515
 31
0.0
  0
LINE
  5
32
330
14C
100
AcDbEntity
  8
Laser Table
 62
     2
420
 16776960
100
AcDbLine
 10
57.3246757677357
 20
622.835
 30
0.0
 11
57.3246757677357
 21
1822.835
 31
0.0
  0
LINE
  5
33
330
14C
100
AcDbEntity
  8
Referance lines
 62
     2
420
 16776960
100
AcDbLine
 10
8.154373767735706
 20
-1043.5706
 30
0.0
 11
8.154373767735706
 21
-703.3357999999998
 31
0.0
  0
LINE
  5
34
330
14C
100
AcDbEntity
  8
Laser Table
 62
     2
420
 16776960
100
AcDbLine
 10
57.3246757677357
 20
622.835
 30
0.0
 11
-842.6753242322643
 21
622.835
 31
0.0
  0
LINE
  5
35
330
14C
100
AcDbEntity
  8
Referance lines
 62
     2
420
 16776960
100
AcDbLine
 10
8.154373767735706
 20
-1043.5706
 30
0.0
 11
8.154373767735706
 21
-1383.8056
 31
0.0
  0
LINE
  5
36
330
14C
100
AcDbEntity
  8
Laser Table
 62
     2
420
 16776960
100
AcDbLine
 10
-842.6753242322643
 20
622.835
 30
0.0
 11
-842.6753242322643
 21
1822.835
 31
0.0
  0
LINE
  5
37
330
14C
100
AcDbEntity
  8
Referance lines
 62
     2
420
 16776960
100
AcDbLine
 10
8.403646870217017
 20
1062.814035
 30
0.0
 11
8.403646870217017
 21
1053.213964
 31
0.0
  0
LINE
  5
38
330
14C
100
AcDbEntity
  8
Laser Table
 62
     2
420
 16776960
100
AcDbLine
 10
-842.6753242322643
 20
1822.835
 30
0.0
 11
57.3246757677357
 21
1822.835
 31
0.0
  0
LINE
  5
39
330
14C
100
AcDbEntity
  8
Referance lines
 62
     2
420
 16776960
100
AcDbLine
 10
8.403646870217017
 20
1058.014
 30
0.0
 11
8.403646870217017
 21
717.779
 31
0.0
  0
LINE
  5
3A
330
14C
100
AcDbEntity
  8
Referance lines
 62
     2
420
 16776960
100
AcDbLine
 10
8.403646870217017
 20
1058.014
 30
0.0
 11
8.403646870217017
 21
1398.249
 31
0.0
  0
LINE
  5
3B
330
14C
100
AcDbEntity
  8
Referance lines
 62
     2
420
 16776960
100
AcDbLine
 10
-1308.288624232264
 20
607.2217
 30
0.0
 11
-1308.288624232264
 21
-592.7783
 31
0.0
  0
LINE
  5
3C
330
14C
100
AcDbEntity
  8
Referance lines
 62
     2
420
 16776960
100
AcDbLine
 10
-1308.288624232264
 20
-545.5369380000005
 30
0.0
 11
-1308.288624232264
 21
-438.1969380000006
 31
0.0
  0
LINE
  5
3D
330
14C
100
AcDbEntity
  8
Referance lines
 62
     2
420
 16776960
100
AcDbLine
 10
-1710.778624232263
 20
-491.8672999999999
 30
0.0
 11
-908.818624232264
 21
-491.8672999999999
 31
0.0
  0
LINE
  5
3E
330
14C
100
AcDbEntity
  8
Referance lines
 62
     2
420
 16776960
100
AcDbLine
 10
-1308.288624232264
 20
479.2448200000001
 30
0.0
 11
-1308.288624232264
 21
-361.3284278683104
 31
0.0
  0
LINE
  5
3F
330
14C
100
AcDbEntity
  8
Referance lines
 62
     2
420
 16776960
100
AcDbLine
 10
-1576.368624232264
 20
-491.8672999999999
 30
0.0
 11
-1683.708624232264
 21
-491.8672999999999
 31
0.0
  0
LINE
  5
40
330
14C
100
AcDbEntity
  8
Referance lines
 62
     2
420
 16776960
100
AcDbLine
 10
-1645.204044370496
 20
6.388612000000649
 30
0.0
 11
-975.7526917547693
 21
6.388611999999739
 31
0.0
  0
LINE
  5
41
330
14C
100
AcDbEntity
  8
Referance lines
 62
     2
420
 16776960
100
AcDbLine
 10
-1254.618624232264
 20
-491.8669380000006
 30
0.0
 11
-1147.278624232263
 21
-491.8669380000006
 31
0.0
  0
LINE
  5
42
330
14C
100
AcDbEntity
  8
Referance lines
 62
     2
420
 16776960
100
AcDbLine
 10
-740.31678042772
 20
6.876546000000417
 30
0.0
 11
-97.26860823226207
 21
6.876545999999507
 31
0.0
  0
LINE
  5
43
330
14C
100
AcDbEntity
  8
Referance lines
 62
     2
420
 16776960
100
AcDbLine
 10
-1723.244932732264
 20
-491.8669380000006
 30
0.0
 11
-896.3402286932383
 21
-491.8669380000006
 31
0.0
  0
LINE
  5
44
330
14C
100
AcDbEntity
  8
Referance lines
 62
     2
420
 16776960
100
AcDbLine
 10
-392.6753242322643
 20
479.2448200000001
 30
0.0
 11
-392.6753242322643
 21
-414.053986
 31
0.0
  0
LINE
  5
45
330
14C
100
AcDbEntity
  8
Referance lines
 62
     2
420
 16776960
100
AcDbLine
 10
-1147.278624232263
 20
-491.8669380000006
 30
0.0
 11
-1039.938624232263
 21
-491.8669380000006
 31
0.0
  0
LINE
  5
46
330
14C
100
AcDbEntity
  8
Referance lines
 62
     2
420
 16776960
100
AcDbLine
 10
522.937963654646
 20
479.244820000001
 30
0.0
 11
522.937963654646
 21
-413.6207099999996
 31
0.0
  0
LINE
  5
47
330
14C
100
AcDbEntity
  8
Referance lines
 62
     2
420
 16776960
100
AcDbLine
 10
-1039.938624232263
 20
-491.8669380000006
 30
0.0
 11
-932.5986242322633
 21
-491.8669380000006
 31
0.0
  0
LINE
  5
48
330
14C
100
AcDbEntity
  8
Referance lines
 62
     2
420
 16776960
100
AcDbLine
 10
226.330214654643
 20
9.045338999999785
 30
0.0
 11
875.2287451491229
 21
9.045338999998421
 31
0.0
  0
LINE
  5
49
330
14C
100
AcDbEntity
  8
Referance lines
 62
     2
420
 16776960
100
AcDbLine
 10
-1361.958624232264
 20
-491.8669380000006
 30
0.0
 11
-1254.618624232264
 21
-491.8669380000006
 31
0.0
  0
LINE
  5
4A
330
14C
100
AcDbEntity
  8
Referance lines
 62
     2
420
 16776960
100
AcDbLine
 10
-1361.958624232264
 20
-491.8669380000006
 30
0.0
 11
-1469.298624232264
 21
-491.8669380000006
 31
0.0
  0
LINE
  5
4B
330
14C
100
AcDbEntity
  8
Referance lines
 62
     2
420
 16776960
100
AcDbLine
 10
-1469.029879232264
 20
-491.8669380000006
 30
0.0
 11
-1576.369879232264
 21
-491.8669380000006
 31
0.0
  0
LINE
  5
4C
330
14C
100
AcDbEntity
  8
Referance lines
 62
     2
420
 16776960
100
AcDbLine
 10
-890.7858022322644
 20
578.7217
 30
0.0
 11
-890.7886242322643
 21
-564.2783
 31
0.0
  0
LINE
  5
4D
330
14C
100
AcDbEntity
  8
Referance lines
 62
     2
420
 16776960
100
AcDbLine
 10
-890.7886242322643
 20
-564.2783
 30
0.0
 11
-1728.788624232264
 21
-564.2783
 31
0.0
  0
LINE
  5
4E
330
14C
100
AcDbEntity
  8
Referance lines
 62
     2
420
 16776960
100
AcDbLine
 10
-1728.788624232264
 20
-564.2783
 30
0.0
 11
-1728.781934670886
 21
578.7217
 31
0.0
  0
LINE
  5
4F
330
14C
100
AcDbEntity
  8
Referance lines
 62
     2
420
 16776960
100
AcDbLine
 10
1438.551263654645
 20
607.2217
 30
0.0
 11
1438.551263654645
 21
-592.7783
 31
0.0
  0
LINE
  5
50
330
14C
100
AcDbEntity
  8
Referance lines
 62
     2
420
 16776960
100
AcDbLine
 10
1438.551263654645
 20
519.4383
 30
0.0
 11
1438.551263654645
 21
626.7783
 31
0.0
  0
LINE
  5
51
330
14C
100
AcDbEntity
  8
Referance lines
 62
     2
420
 16776960
100
AcDbLine
 10
-392.6753242322643
 20
1822.835
 30
0.0
 11
-392.6753242322643
 21
622.835
 31
0.0
  0
LINE
  5
52
330
14C
100
AcDbEntity
  8
Referance lines
 62
     2
420
 16776960
100
AcDbLine
 10
-939.263283732264
 20
-636.8915999999997
 30
0.0
 11
153.9126352677358
 21
-636.8916000000002
 31
0.0
  0
LINE
  5
53
330
14C
100
AcDbEntity
  8
Referance lines
 62
     2
420
 16776960
100
AcDbLine
 10
-392.6753242322643
 20
1735.0516
 30
0.0
 11
-392.6753242322643
 21
1842.3916
 31
0.0
  0
LINE
  5
54
330
14C
100
AcDbEntity
  8
Referance lines
 62
     2
420
 16776960
100
AcDbLine
 10
-392.6753242322643
 20
-486.8915999999999
 30
0.0
 11
-392.6753242322643
 21
-786.8915999999999
 31
0.0
  0
LINE
  5
55
330
14C
100
AcDbEntity
  8
Referance lines
 62
     2
420
 16776960
100
AcDbLine
 10
-446.3453242322644
 20
1788.7216
 30
0.0
 11
-339.0053242322642
 21
1788.7216
 31
0.0
  0
LINE
  5
56
330
14C
100
AcDbEntity
  8
Referance lines
 62
     2
420
 16776960
100
AcDbLine
 10
-939.263283732264
 20
1464.693
 30
0.0
 11
153.9126352677358
 21
1464.693
 31
0.0
  0
LINE
  5
57
330
14C
100
AcDbEntity
  8
Referance lines
 62
     2
420
 16776960
100
AcDbLine
 10
-339.0053242322642
 20
1788.7216
 30
0.0
 11
-231.6653242322632
 21
1788.7216
 31
0.0
  0
LINE
  5
58
330
14C
100
AcDbEntity
  8
Referance lines
 62
     2
420
 16776960
100
AcDbLine
 10
-392.6753242322643
 20
1614.693
 30
0.0
 11
-392.6753242322643
 21
1314.693
 31
0.0
  0
LINE
  5
59
330
14C
100
AcDbEntity
  8
Referance lines
 62
     2
420
 16776960
100
AcDbLine
 10
-231.6653242322632
 20
1788.7216
 30
0.0
 11
-124.325324232263
 21
1788.7216
 31
0.0
  0
LINE
  5
5A
330
14C
100
AcDbEntity
  8
Referance lines
 62
     2
420
 16776960
100
AcDbLine
 10
-446.3453242322644
 20
1788.7216
 30
0.0
 11
-553.6853242322641
 21
1788.7216
 31
0.0
  0
LINE
  5
5B
330
14C
100
AcDbEntity
  8
Referance lines
 62
     2
420
 16776960
100
AcDbLine
 10
-553.4165792322642
 20
1788.7216
 30
0.0
 11
-660.7565792322644
 21
1788.7216
 31
0.0
  0
LINE
  5
5C
330
14C
100
AcDbEntity
  8
Referance lines
 62
     2
420
 16776960
100
AcDbLine
 10
-660.7565792322644
 20
1788.7216
 30
0.0
 11
-768.096579232264
 21
1788.7216
 31
0.0
  0
LINE
  5
5D
330
14C
100
AcDbEntity
  8
Referance lines
 62
     2
420
 16776960
100
AcDbLine
 10
-795.1678522322632
 20
1788.7216
 30
0.0
 11
6.789828767735798
 21
1788.7216
 31
0.0
  0
LINE
  5
5E
330
14C
100
AcDbEntity
  8
Referance lines
 62
     2
420
 16776960
100
AcDbLine
 10
24.8246757677357
 20
651.335
 30
0.0
 11
-813.1753242322643
 21
651.335
 31
0.0
  0
LINE
  5
5F
330
14C
100
AcDbEntity
  8
Referance lines
 62
     2
420
 16776960
100
AcDbLine
 10
-392.6753242322643
 20
-608.3915999999999
 30
0.0
 11
-392.6753242322643
 21
-1808.3916
 31
0.0
  0
LINE
  5
60
330
14C
100
AcDbEntity
  8
Referance lines
 62
     2
420
 16776960
100
AcDbLine
 10
-392.6753242322643
 20
-1761.150238000001
 30
0.0
 11
-392.6753242322643
 21
-1653.810238000001
 31
0.0
  0
LINE
  5
61
330
14C
100
AcDbEntity
  8
Referance lines
 62
     2
420
 16776960
100
AcDbLine
 10
-392.6753242322643
 20
-696.1750000000002
 30
0.0
 11
-392.6753242322643
 21
-588.835
 31
0.0
  0
LINE
  5
62
330
14C
100
AcDbEntity
  8
Referance lines
 62
     2
420
 16776960
100
AcDbLine
 10
-813.1686346708861
 20
-636.8915999999999
 30
0.0
 11
24.82749776773562
 21
-636.8915999999999
 31
0.0
  0
LINE
  5
63
330
14C
100
AcDbEntity
  8
Referance lines
 62
     2
420
 16776960
100
AcDbLine
 10
-858.2886242322643
 20
7.221700000000055
 30
0.0
 11
-1758.288624232264
 21
7.221700000000055
 31
0.0
  0
LINE
  5
64
330
14C
100
AcDbEntity
  8
Referance lines
 62
     2
420
 16776960
100
AcDbLine
 10
988.5512636546455
 20
7.221700000000055
 30
0.0
 11
1888.551263654645
 21
7.221700000000055
 31
0.0
  0
LINE
  5
65
330
14C
100
AcDbEntity
  8
Referance lines
 62
     2
420
 16776960
100
AcDbLine
 10
1438.551263654645
 20
-545.5369380000005
 30
0.0
 11
1438.551263654645
 21
-438.1969380000006
 31
0.0
  0
LINE
  5
66
330
14C
100
AcDbEntity
  8
Referance lines
 62
     2
420
 16776960
100
AcDbLine
 10
1492.221263654646
 20
-491.8669380000006
 30
0.0
 11
1599.561263654646
 21
-491.8669380000006
 31
0.0
  0
LINE
  5
67
330
14C
100
AcDbEntity
  8
Referance lines
 62
     2
420
 16776960
100
AcDbLine
 10
1599.561263654646
 20
-491.8669380000006
 30
0.0
 11
1706.901263654646
 21
-491.8669380000006
 31
0.0
  0
LINE
  5
68
330
14C
100
AcDbEntity
  8
Referance lines
 62
     2
420
 16776960
100
AcDbLine
 10
1706.901263654646
 20
-491.8669380000006
 30
0.0
 11
1814.241263654646
 21
-491.8669380000006
 31
0.0
  0
LINE
  5
69
330
14C
100
AcDbEntity
  8
Referance lines
 62
     2
420
 16776960
100
AcDbLine
 10
1384.881263654645
 20
-491.8669380000006
 30
0.0
 11
1492.221263654646
 21
-491.8669380000006
 31
0.0
  0
LINE
  5
6A
330
14C
100
AcDbEntity
  8
Referance lines
 62
     2
420
 16776960
100
AcDbLine
 10
1384.881263654645
 20
-491.8669380000006
 30
0.0
 11
1277.541263654644
 21
-491.8669380000006
 31
0.0
  0
LINE
  5
6B
330
14C
100
AcDbEntity
  8
Referance lines
 62
     2
420
 16776960
100
AcDbLine
 10
1277.810008654646
 20
-491.8669380000006
 30
0.0
 11
1170.470008654645
 21
-491.8669380000006
 31
0.0
  0
LINE
  5
6C
330
14C
100
AcDbEntity
  8
Referance lines
 62
     2
420
 16776960
100
AcDbLine
 10
1856.051263654645
 20
-564.2783
 30
0.0
 11
1018.051263654645
 21
-564.2783
 31
0.0
  0
LINE
  5
6D
330
14C
100
AcDbEntity
  8
Referance lines
 62
     2
420
 16776960
100
AcDbLine
 10
1031.872263654645
 20
7.221700000000055
 30
0.0
 11
1845.230263654646
 21
7.221700000000055
 31
0.0
  0
LINE
  5
6E
330
14C
100
AcDbEntity
  8
Referance lines
 62
     2
420
 16776960
100
AcDbLine
 10
1031.872263654645
 20
578.7217
 30
0.0
 11
1845.230263654646
 21
578.7217
 31
0.0
  0
LINE
  5
6F
330
14C
100
AcDbEntity
  8
Referance lines
 62
     2
420
 16776960
100
AcDbLine
 10
1031.872263654645
 20
-564.2783
 30
0.0
 11
1845.230263654646
 21
-564.2783
 31
0.0
  0
LINE
  5
70
330
14C
100
AcDbEntity
  8
Referance lines
 62
     2
420
 16776960
100
AcDbLine
 10
1845.230263654646
 20
578.7217
 30
0.0
 11
1845.230263654646
 21
-564.2783
 31
0.0
  0
LINE
  5
71
330
14C
100
AcDbEntity
  8
Referance lines
 62
     2
420
 16776960
100
AcDbLine
 10
1031.872263654645
 20
578.7217
 30
0.0
 11
1031.872263654645
 21
-564.2783
 31
0.0
  0
LINE
  5
72
330
14C
100
AcDbEntity
  8
Referance lines
 62
     2
420
 16776960
100
AcDbLine
 10
1031.872263654645
 20
578.7217
 30
0.0
 11
1292.901007654645
 21
578.7217
 31
0.0
  0
LINE
  5
73
330
14C
100
AcDbEntity
  8
Referance lines
 62
     2
420
 16776960
100
AcDbLine
 10
1031.872263654645
 20
268.2826180000001
 30
0.0
 11
1031.872263654645
 21
578.7217
 31
0.0
  0
LINE
  5
74
330
14C
100
AcDbEntity
  8
Referance lines
 62
     2
420
 16776960
100
AcDbLine
 10
1584.201519654645
 20
578.7217
 30
0.0
 11
1845.230263654646
 21
578.7217
 31
0.0
  0
LINE
  5
75
330
14C
100
AcDbEntity
  8
Referance lines
 62
     2
420
 16776960
100
AcDbLine
 10
-813.1686346708861
 20
-636.8915999999999
 30
0.0
 11
-813.1686346708861
 21
-1450.2496
 31
0.0
  0
LINE
  5
76
330
14C
100
AcDbEntity
  8
Referance lines
 62
     2
420
 16776960
100
AcDbLine
 10
1845.230263654646
 20
578.7217
 30
0.0
 11
1845.230263654646
 21
268.2826180000001
 31
0.0
  0
LINE
  5
77
330
14C
100
AcDbEntity
  8
Referance lines
 62
     2
420
 16776960
100
AcDbLine
 10
24.82749776773562
 20
-636.8915999999999
 30
0.0
 11
24.82749776773562
 21
-1450.2496
 31
0.0
  0
LINE
  5
78
330
14C
100
AcDbEntity
  8
Referance lines
 62
     2
420
 16776960
100
AcDbLine
 10
1292.901007654645
 20
-564.2783
 30
0.0
 11
1031.872263654645
 21
-564.2783
 31
0.0
  0
LINE
  5
79
330
14C
100
AcDbEntity
  8
Referance lines
 62
     2
420
 16776960
100
AcDbLine
 10
-813.1686346708861
 20
-1450.2496
 30
0.0
 11
24.82749776773562
 21
-1450.2496
 31
0.0
  0
LINE
  5
7A
330
14C
100
AcDbEntity
  8
Referance lines
 62
     2
420
 16776960
100
AcDbLine
 10
1031.872263654645
 20
-564.2783
 30
0.0
 11
1031.872263654645
 21
-253.839218
 31
0.0
  0
LINE
  5
7B
330
14C
100
AcDbEntity
  8
Referance lines
 62
     2
420
 16776960
100
AcDbLine
 10
-813.1686346708861
 20
-1043.5706
 30
0.0
 11
24.82749776773562
 21
-1043.5706
 31
0.0
  0
LINE
  5
7C
330
14C
100
AcDbEntity
  8
Referance lines
 62
     2
420
 16776960
100
AcDbLine
 10
1845.230263654646
 20
-253.839218
 30
0.0
 11
1845.230263654646
 21
-564.2783
 31
0.0
  0
LINE
  5
7D
330
14C
100
AcDbEntity
  8
Referance lines
 62
     2
420
 16776960
100
AcDbLine
 10
-813.1753242322643
 20
651.335
 30
0.0
 11
-813.1753242322643
 21
1464.693
 31
0.0
  0
LINE
  5
7E
330
14C
100
AcDbEntity
  8
Referance lines
 62
     2
420
 16776960
100
AcDbLine
 10
1845.230263654646
 20
-564.2783
 30
0.0
 11
1584.201519654645
 21
-564.2783
 31
0.0
  0
LINE
  5
7F
330
14C
100
AcDbEntity
  8
Referance lines
 62
     2
420
 16776960
100
AcDbLine
 10
24.8246757677357
 20
651.335
 30
0.0
 11
24.8246757677357
 21
1464.693
 31
0.0
  0
LINE
  5
80
330
14C
100
AcDbEntity
  8
Referance lines
 62
     2
420
 16776960
100
AcDbLine
 10
1438.551263654645
 20
-545.5369380000006
 30
0.0
 11
1438.551263654645
 21
-438.1969380000006
 31
0.0
  0
LINE
  5
81
330
14C
100
AcDbEntity
  8
Referance lines
 62
     2
420
 16776960
100
AcDbLine
 10
-813.1753242322643
 20
1464.693
 30
0.0
 11
24.8246757677357
 21
1464.693
 31
0.0
  0
LINE
  5
82
330
14C
100
AcDbEntity
  8
Referance lines
 62
     2
420
 16776960
100
AcDbLine
 10
1384.881263654645
 20
-491.8669380000006
 30
0.0
 11
1492.221263654646
 21
-491.8669380000006
 31
0.0
  0
LINE
  5
83
330
14C
100
AcDbEntity
  8
Referance lines
 62
     2
420
 16776960
100
AcDbLine
 10
-813.1753242322643
 20
651.335
 30
0.0
 11
24.8246757677357
 21
651.335
 31
0.0
  0
LINE
  5
84
330
14C
100
AcDbEntity
  8
Referance lines
 62
     2
420
 16776960
100
AcDbLine
 10
1492.221263654646
 20
-491.8669380000006
 30
0.0
 11
1599.561263654646
 21
-491.8669380000006
 31
0.0
  0
LINE
  5
85
330
14C
100
AcDbEntity
  8
Referance lines
 62
     2
420
 16776960
100
AcDbLine
 10
-813.1753242322643
 20
1058.014
 30
0.0
 11
24.8246757677357
 21
1058.014
 31
0.0
  0
LINE
  5
86
330
14C
100
AcDbEntity
  8
Referance lines
 62
     2
420
 16776960
100
AcDbLine
 10
1599.561263654646
 20
-491.8669380000006
 30
0.0
 11
1706.901263654646
 21
-491.8669380000006
 31
0.0
  0
LINE
  5
87
330
14C
100
AcDbEntity
  8
Referance lines
 62
     2
420
 16776960
100
AcDbLine
 10
-543.1361546708872
 20
-1450.2496
 30
0.0
 11
-813.1686346708861
 21
-1450.2496
 31
0.0
  0
LINE
  5
88
330
14C
100
AcDbEntity
  8
Referance lines
 62
     2
420
 16776960
100
AcDbLine
 10
1706.901263654646
 20
-491.8669380000006
 30
0.0
 11
1814.241263654646
 21
-491.8669380000006
 31
0.0
  0
LINE
  5
89
330
14C
100
AcDbEntity
  8
Referance lines
 62
     2
420
 16776960
100
AcDbLine
 10
-813.1686346708861
 20
-1450.2496
 30
0.0
 11
-813.1686346708861
 21
-1189.184173
 31
0.0
  0
LINE
  5
8A
330
14C
100
AcDbEntity
  8
Referance lines
 62
     2
420
 16776960
100
AcDbLine
 10
1384.881263654645
 20
-491.8669380000006
 30
0.0
 11
1277.541263654644
 21
-491.8669380000006
 31
0.0
  0
LINE
  5
8B
330
14C
100
AcDbEntity
  8
Referance lines
 62
     2
420
 16776960
100
AcDbLine
 10
24.82749776773562
 20
-1189.184173
 30
0.0
 11
24.82749776773562
 21
-1450.2496
 31
0.0
  0
LINE
  5
8C
330
14C
100
AcDbEntity
  8
Referance lines
 62
     2
420
 16776960
100
AcDbLine
 10
1277.810008654646
 20
-491.8669380000006
 30
0.0
 11
1170.470008654645
 21
-491.8669380000006
 31
0.0
  0
LINE
  5
8D
330
14C
100
AcDbEntity
  8
Referance lines
 62
     2
420
 16776960
100
AcDbLine
 10
24.82749776773562
 20
-1450.2496
 30
0.0
 11
-245.2049822322642
 21
-1450.2496
 31
0.0
  0
LINE
  5
8E
330
14C
100
AcDbEntity
  8
Referance lines
 62
     2
420
 16776960
100
AcDbLine
 10
1085.031076654645
 20
573.0868795000001
 30
0.0
 11
1792.072014654645
 21
573.0862585
 31
0.0
  0
LINE
  5
8F
330
14C
100
AcDbEntity
  8
Referance lines
 62
     2
420
 16776960
100
AcDbLine
 10
-813.1686346708861
 20
-636.8915999999999
 30
0.0
 11
-543.1361546708872
 21
-636.8915999999999
 31
0.0
  0
LINE
  5
90
330
14C
100
AcDbEntity
  8
Referance lines
 62
     2
420
 16776960
100
AcDbLine
 10
1438.551263654645
 20
519.416569000248
 30
0.0
 11
1438.551263654645
 21
626.756569000247
 31
0.0
  0
LINE
  5
91
330
14C
100
AcDbEntity
  8
Referance lines
 62
     2
420
 16776960
100
AcDbLine
 10
-813.1686346708861
 20
-897.9570269999999
 30
0.0
 11
-813.1686346708861
 21
-636.8915999999999
 31
0.0
  0
LINE
  5
92
330
14C
100
AcDbEntity
  8
Referance lines
 62
     2
420
 16776960
100
AcDbLine
 10
1384.881263654645
 20
573.0865690002481
 30
0.0
 11
1492.221263654646
 21
573.0865690002481
 31
0.0
  0
LINE
  5
93
330
14C
100
AcDbEntity
  8
Referance lines
 62
     2
420
 16776960
100
AcDbLine
 10
24.82749776773562
 20
-636.8915999999999
 30
0.0
 11
24.82749776773562
 21
-897.9570269999999
 31
0.0
  0
LINE
  5
94
330
14C
100
AcDbEntity
  8
Referance lines
 62
     2
420
 16776960
100
AcDbLine
 10
1492.221263654646
 20
573.0865690002481
 30
0.0
 11
1599.561263654646
 21
573.0865690002481
 31
0.0
  0
LINE
  5
95
330
14C
100
AcDbEntity
  8
Referance lines
 62
     2
420
 16776960
100
AcDbLine
 10
1599.561263654646
 20
573.0865690002481
 30
0.0
 11
1706.901263654646
 21
573.0865690002481
 31
0.0
  0
LINE
  5
96
330
14C
100
AcDbEntity
  8
Referance lines
 62
     2
420
 16776960
100
AcDbLine
 10
-813.1753242322643
 20
1464.693
 30
0.0
 11
-543.1439732322642
 21
1464.693
 31
0.0
  0
LINE
  5
97
330
14C
100
AcDbEntity
  8
Referance lines
 62
     2
420
 16776960
100
AcDbLine
 10
1706.901263654646
 20
573.0865690002481
 30
0.0
 11
1814.241263654646
 21
573.0865690002481
 31
0.0
  0
LINE
  5
98
330
14C
100
AcDbEntity
  8
Referance lines
 62
     2
420
 16776960
100
AcDbLine
 10
-813.1753242322643
 20
1203.628701
 30
0.0
 11
-813.1753242322643
 21
1464.693
 31
0.0
  0
LINE
  5
99
330
14C
100
AcDbEntity
  8
Referance lines
 62
     2
420
 16776960
100
AcDbLine
 10
1036.058735654646
 20
573.0865690002481
 30
0.0
 11
1838.016416654646
 21
573.0865690002481
 31
0.0
  0
LINE
  5
9A
330
14C
100
AcDbEntity
  8
Referance lines
 62
     2
420
 16776960
100
AcDbLine
 10
1384.881263654645
 20
573.0865690002481
 30
0.0
 11
1277.541263654644
 21
573.0865690002481
 31
0.0
  0
LINE
  5
9B
330
14C
100
AcDbEntity
  8
Referance lines
 62
     2
420
 16776960
100
AcDbLine
 10
-245.2066752322644
 20
1464.693
 30
0.0
 11
24.8246757677357
 21
1464.693
 31
0.0
  0
LINE
  5
9C
330
14C
100
AcDbEntity
  8
Referance lines
 62
     2
420
 16776960
100
AcDbLine
 10
1277.810008654646
 20
573.0865690002481
 30
0.0
 11
1170.470008654645
 21
573.0865690002481
 31
0.0
  0
LINE
  5
9D
330
14C
100
AcDbEntity
  8
Referance lines
 62
     2
420
 16776960
100
AcDbLine
 10
24.8246757677357
 20
1464.693
 30
0.0
 11
24.8246757677357
 21
1203.628701
 31
0.0
  0
LINE
  5
9E
330
14C
100
AcDbEntity
  8
Referance lines
 62
     2
420
 16776960
100
AcDbLine
 10
1170.470008654645
 20
573.0865690002481
 30
0.0
 11
1063.130008654644
 21
573.0865690002481
 31
0.0
  0
LINE
  5
9F
330
14C
100
AcDbEntity
  8
Laser Table
 62
     2
420
 16776960
100
AcDbLine
 10
57.3246757677357
 20
-592.7783
 30
0.0
 11
57.3246757677357
 21
607.2217
 31
0.0
  0
LINE
  5
A0
330
14C
100
AcDbEntity
  8
Referance lines
 62
     2
420
 16776960
100
AcDbLine
 10
1031.872263654645
 20
-539.3662595000001
 30
0.0
 11
1031.872263654645
 21
553.8096595
 31
0.0
  0
LINE
  5
A1
330
14C
100
AcDbEntity
  8
Referance lines
 62
     2
420
 16776960
100
AcDbLine
 10
-543.1439732322642
 20
651.335
 30
0.0
 11
-813.1753242322643
 21
651.335
 31
0.0
  0
LINE
  5
A2
330
14C
100
AcDbEntity
  8
Laser Table
 62
     2
420
 16776960
100
AcDbLine
 10
57.3246757677357
 20
-592.7783
 30
0.0
 11
-842.6753242322643
 21
-592.7783
 31
0.0
  0
LINE
  5
A3
330
14C
100
AcDbEntity
  8
Referance lines
 62
     2
420
 16776960
100
AcDbLine
 10
881.8722636546454
 20
7.221700000000055
 30
0.0
 11
1181.872263654645
 21
7.221700000000055
 31
0.0
  0
LINE
  5
A4
330
14C
100
AcDbEntity
  8
Referance lines
 62
     2
420
 16776960
100
AcDbLine
 10
-813.1753242322643
 20
651.335
 30
0.0
 11
-813.1753242322643
 21
912.3992990000002
 31
0.0
  0
LINE
  5
A5
330
14C
100
AcDbEntity
  8
Laser Table
 62
     2
420
 16776960
100
AcDbLine
 10
-842.6753242322643
 20
-592.7783
 30
0.0
 11
-842.6753242322643
 21
607.2217
 31
0.0
  0
LINE
  5
A6
330
14C
100
AcDbEntity
  8
Referance lines
 62
     2
420
 16776960
100
AcDbLine
 10
1845.230263654646
 20
553.8096595
 30
0.0
 11
1845.230263654646
 21
-539.3662595000001
 31
0.0
  0
LINE
  5
A7
330
14C
100
AcDbEntity
  8
Laser Table
 62
     2
420
 16776960
100
AcDbLine
 10
-842.6753242322643
 20
607.2217
 30
0.0
 11
57.3246757677357
 21
607.2217
 31
0.0
  0
LINE
  5
A8
330
14C
100
AcDbEntity
  8
Referance lines
 62
     2
420
 16776960
100
AcDbLine
 10
1995.230263654646
 20
7.221700000000055
 30
0.0
 11
1695.230263654646
 21
7.221700000000055
 31
0.0
  0
LINE
  5
A9
330
14C
100
AcDbEntity
  8
Referance lines
 62
     2
420
 16776960
100
AcDbLine
 10
24.8246757677357
 20
912.3992990000002
 30
0.0
 11
24.8246757677357
 21
651.335
 31
0.0
  0
LINE
  5
AA
330
14C
100
AcDbEntity
  8
Referance lines
 62
     2
420
 16776960
100
AcDbLine
 10
24.8246757677357
 20
651.335
 30
0.0
 11
-245.2066752322644
 21
651.335
 31
0.0
  0
LINE
  5
AB
330
14C
100
AcDbEntity
  8
Referance lines
 62
     2
420
 16776960
100
AcDbLine
 10
-813.1686346708861
 20
578.7217
 30
0.0
 11
24.82749776773562
 21
578.7217
 31
0.0
  0
LINE
  5
AC
330
14C
100
AcDbEntity
  8
Referance lines
 62
     2
420
 16776960
100
AcDbLine
 10
24.82749776773562
 20
578.7217
 30
0.0
 11
24.8246757677357
 21
-564.2783
 31
0.0
  0
LINE
  5
AD
330
14C
100
AcDbEntity
  8
Referance lines
 62
     2
420
 16776960
100
AcDbLine
 10
24.8246757677357
 20
-564.2783
 30
0.0
 11
-813.1753242322643
 21
-564.2783
 31
0.0
  0
LINE
  5
AE
330
14C
100
AcDbEntity
  8
Referance lines
 62
     2
420
 16776960
100
AcDbLine
 10
-813.1753242322643
 20
-564.2783
 30
0.0
 11
-813.1686346708861
 21
578.7217
 31
0.0
  0
LINE
  5
AF
330
14C
100
AcDbEntity
  8
Laser Table
 62
     2
420
 16776960
100
AcDbLine
 10
972.9379636546455
 20
-592.7783
 30
0.0
 11
972.9379636546455
 21
607.2217
 31
0.0
  0
LINE
  5
B0
330
14C
100
AcDbEntity
  8
Laser Table
 62
     2
420
 16776960
100
AcDbLine
 10
972.9379636546455
 20
-592.7783
 30
0.0
 11
72.93796365464596
 21
-592.7783
 31
0.0
  0
LINE
  5
B1
330
14C
100
AcDbEntity
  8
Laser Table
 62
     2
420
 16776960
100
AcDbLine
 10
72.93796365464596
 20
-592.7783
 30
0.0
 11
72.93796365464596
 21
607.2217
 31
0.0
  0
LINE
  5
B2
330
14C
100
AcDbEntity
  8
Laser Table
 62
     2
420
 16776960
100
AcDbLine
 10
72.93796365464596
 20
607.2217
 30
0.0
 11
972.9379636546455
 21
607.2217
 31
0.0
  0
LINE
  5
B3
330
14C
100
AcDbEntity
  8
Referance lines
 62
     2
420
 16776960
100
AcDbLine
 10
522.937963654646
 20
607.2217
 30
0.0
 11
522.937963654646
 21
-592.7783
 31
0.0
  0
LINE
  5
B4
330
14C
100
AcDbEntity
  8
Referance lines
 62
     2
420
 16776960
100
AcDbLine
 10
72.93796365464596
 20
7.221700000000055
 30
0.0
 11
972.9379636546455
 21
7.221700000000055
 31
0.0
  0
LINE
  5
B5
330
14C
100
AcDbEntity
  8
Referance lines
 62
     2
420
 16776960
100
AcDbLine
 10
107.9779636546459
 20
560.7817
 30
0.0
 11
107.9779636546459
 21
-532.3956
 31
0.0
  0
LINE
  5
B6
330
14C
100
AcDbEntity
  8
Referance lines
 62
     2
420
 16776960
100
AcDbLine
 10
934.8879636546462
 20
-532.3956
 30
0.0
 11
934.877963654646
 21
560.7817
 31
0.0
  0
LINE
  5
B7
330
14C
100
AcDbEntity
  8
Referance lines
 62
     2
420
 16776960
100
AcDbLine
 10
522.937963654646
 20
-545.5369380000005
 30
0.0
 11
522.937963654646
 21
-438.1969380000006
 31
0.0
  0
LINE
  5
B8
330
14C
100
AcDbEntity
  8
Referance lines
 62
     2
420
 16776960
100
AcDbLine
 10
120.4479636546457
 20
-491.8672999999999
 30
0.0
 11
922.4079636546448
 21
-491.8672999999999
 31
0.0
  0
LINE
  5
B9
330
14C
100
AcDbEntity
  8
Referance lines
 62
     2
420
 16776960
100
AcDbLine
 10
254.857963654646
 20
-491.8672999999999
 30
0.0
 11
147.5179636546459
 21
-491.8672999999999
 31
0.0
  0
LINE
  5
BA
330
14C
100
AcDbEntity
  8
Referance lines
 62
     2
420
 16776960
100
AcDbLine
 10
576.607963654646
 20
-491.8669380000006
 30
0.0
 11
683.9479636546457
 21
-491.8669380000006
 31
0.0
  0
LINE
  5
BB
330
14C
100
AcDbEntity
  8
Referance lines
 62
     2
420
 16776960
100
AcDbLine
 10
107.981655154646
 20
-491.8669380000006
 30
0.0
 11
934.8863591936715
 21
-491.8669380000006
 31
0.0
  0
LINE
  5
BC
330
14C
100
AcDbEntity
  8
Referance lines
 62
     2
420
 16776960
100
AcDbLine
 10
683.9479636546457
 20
-491.8669380000006
 30
0.0
 11
791.2879636546459
 21
-491.8669380000006
 31
0.0
  0
LINE
  5
BD
330
14C
100
AcDbEntity
  8
Referance lines
 62
     2
420
 16776960
100
AcDbLine
 10
791.2879636546459
 20
-491.8669380000006
 30
0.0
 11
898.627963654646
 21
-491.8669380000006
 31
0.0
  0
LINE
  5
BE
330
14C
100
AcDbEntity
  8
Referance lines
 62
     2
420
 16776960
100
AcDbLine
 10
469.2679636546459
 20
-491.8669380000006
 30
0.0
 11
576.607963654646
 21
-491.8669380000006
 31
0.0
  0
LINE
  5
BF
330
14C
100
AcDbEntity
  8
Referance lines
 62
     2
420
 16776960
100
AcDbLine
 10
469.2679636546459
 20
-491.8669380000006
 30
0.0
 11
361.9279636546448
 21
-491.8669380000006
 31
0.0
  0
LINE
  5
C0
330
14C
100
AcDbEntity
  8
Referance lines
 62
     2
420
 16776960
100
AcDbLine
 10
362.1967086546456
 20
-491.8669380000006
 30
0.0
 11
254.8567086546459
 21
-491.8669380000006
 31
0.0
  0
LINE
  5
C1
330
14C
100
AcDbEntity
  8
Referance lines
 62
     2
420
 16776960
100
AcDbLine
 10
469.2679636546459
 20
573.1083000000001
 30
0.0
 11
576.607963654646
 21
573.1083000000001
 31
0.0
  0
LINE
  5
C2
330
14C
100
AcDbEntity
  8
Referance lines
 62
     2
420
 16776960
100
AcDbLine
 10
576.607963654646
 20
573.1083000000001
 30
0.0
 11
683.9479636546457
 21
573.1083000000001
 31
0.0
  0
LINE
  5
C3
330
14C
100
AcDbEntity
  8
Referance lines
 62
     2
420
 16776960
100
AcDbLine
 10
683.9479636546457
 20
573.1083000000001
 30
0.0
 11
791.2879636546459
 21
573.1083000000001
 31
0.0
  0
LINE
  5
C4
330
14C
100
AcDbEntity
  8
Referance lines
 62
     2
420
 16776960
100
AcDbLine
 10
469.2679636546459
 20
573.1083000000001
 30
0.0
 11
361.9279636546448
 21
573.1083000000001
 31
0.0
  0
LINE
  5
C5
330
14C
100
AcDbEntity
  8
Referance lines
 62
     2
420
 16776960
100
AcDbLine
 10
362.1967086546456
 20
573.1083000000001
 30
0.0
 11
254.8567086546459
 21
573.1083000000001
 31
0.0
  0
LINE
  5
C6
330
14C
100
AcDbEntity
  8
Referance lines
 62
     2
420
 16776960
100
AcDbLine
 10
254.8567086546459
 20
573.1083000000001
 30
0.0
 11
147.5167086546448
 21
573.1083000000001
 31
0.0
  0
LINE
  5
C7
330
14C
100
AcDbEntity
  8
Referance lines
 62
     2
420
 16776960
100
AcDbLine
 10
120.4454356546457
 20
573.1083000000001
 30
0.0
 11
922.4031166546456
 21
573.1083000000001
 31
0.0
  0
LINE
  5
C8
330
14C
100
AcDbEntity
  8
Referance lines
 62
     2
420
 16776960
100
AcDbLine
 10
124.0419551546456
 20
7.221700000000055
 30
0.0
 11
91.92135515464588
 21
7.221700000000055
 31
0.0
  0
LINE
  5
C9
330
14C
100
AcDbEntity
  8
Referance lines
 62
     2
420
 16776960
100
AcDbLine
 10
107.981655154646
 20
-46.44680000000017
 30
0.0
 11
107.981655154646
 21
-153.7868000000004
 31
0.0
  0
LINE
  5
CA
330
14C
100
AcDbEntity
  8
Referance lines
 62
     2
420
 16776960
100
AcDbLine
 10
107.981655154646
 20
-46.44830000000002
 30
0.0
 11
107.981655154646
 21
60.89170000000013
 31
0.0
  0
LINE
  5
CB
330
14C
100
AcDbEntity
  8
Referance lines
 62
     2
420
 16776960
100
AcDbLine
 10
161.6501551546448
 20
7.221700000000055
 30
0.0
 11
54.31315515464576
 21
7.221700000000055
 31
0.0
  0
LINE
  5
CC
330
14C
100
AcDbEntity
  8
Referance lines
 62
     2
420
 16776960
100
AcDbLine
 10
107.981655154646
 20
-539.3662594999996
 30
0.0
 11
107.981655154646
 21
553.8096595
 31
0.0
  0
LINE
  5
CD
330
14C
100
AcDbEntity
  8
Referance lines
 62
     2
420
 16776960
100
AcDbLine
 10
161.6501551546448
 20
7.221700000000055
 30
0.0
 11
54.31315515464576
 21
7.221700000000055
 31
0.0
  0
LINE
  5
CE
330
14C
100
AcDbEntity
  8
Referance lines
 62
     2
420
 16776960
100
AcDbLine
 10
107.981655154646
 20
-46.44680000000017
 30
0.0
 11
107.981655154646
 21
-153.7868000000004
 31
0.0
  0
LINE
  5
CF
330
14C
100
AcDbEntity
  8
Referance lines
 62
     2
420
 16776960
100
AcDbLine
 10
107.981655154646
 20
60.89170000000013
 30
0.0
 11
107.981655154646
 21
168.2317000000003
 31
0.0
  0
LINE
  5
D0
330
14C
100
AcDbEntity
  8
Referance lines
 62
     2
420
 16776960
100
AcDbLine
 10
161.6501551546448
 20
7.221700000000055
 30
0.0
 11
54.31315515464576
 21
7.221700000000055
 31
0.0
  0
LINE
  5
D1
330
14C
100
AcDbEntity
  8
Referance lines
 62
     2
420
 16776960
100
AcDbLine
 10
107.981655154646
 20
-46.44680000000017
 30
0.0
 11
107.981655154646
 21
-153.7868000000004
 31
0.0
  0
LINE
  5
D2
330
14C
100
AcDbEntity
  8
Referance lines
 62
     2
420
 16776960
100
AcDbLine
 10
107.981655154646
 20
-153.7868000000004
 30
0.0
 11
107.981655154646
 21
-261.1268000000005
 31
0.0
  0
LINE
  5
D3
330
14C
100
AcDbEntity
  8
Referance lines
 62
     2
420
 16776960
100
AcDbLine
 10
107.981655154646
 20
-261.1268000000005
 30
0.0
 11
107.981655154646
 21
-368.4668000000006
 31
0.0
  0
LINE
  5
D4
330
14C
100
AcDbEntity
  8
Referance lines
 62
     2
420
 16776960
100
AcDbLine
 10
107.981655154646
 20
168.2317000000003
 30
0.0
 11
107.981655154646
 21
275.5717000000004
 31
0.0
  0
LINE
  5
D5
330
14C
100
AcDbEntity
  8
Referance lines
 62
     2
420
 16776960
100
AcDbLine
 10
107.981655154646
 20
275.5717000000004
 30
0.0
 11
107.981655154646
 21
382.9117000000006
 31
0.0
  0
LINE
  5
D6
330
14C
100
AcDbEntity
  8
Referance lines
 62
     2
420
 16776960
100
AcDbLine
 10
107.981655154646
 20
-368.4668000000006
 30
0.0
 11
107.981655154646
 21
-475.8068000000007
 31
0.0
  0
LINE
  5
D7
330
14C
100
AcDbEntity
  8
Referance lines
 62
     2
420
 16776960
100
AcDbLine
 10
107.981655154646
 20
382.9117000000006
 30
0.0
 11
107.981655154646
 21
490.2517000000012
 31
0.0
  0
LINE
  5
D8
330
14C
100
AcDbEntity
  8
Referance lines
 62
     2
420
 16776960
100
AcDbLine
 10
988.5512515415548
 20
7.221700000000055
 30
0.0
 11
881.2142515415562
 21
7.221700000000055
 31
0.0
  0
LINE
  5
D9
330
14C
100
AcDbEntity
  8
Referance lines
 62
     2
420
 16776960
100
AcDbLine
 10
934.8827515415551
 20
-46.44680000000017
 30
0.0
 11
934.8827515415551
 21
-153.7868000000004
 31
0.0
  0
LINE
  5
DA
330
14C
100
AcDbEntity
  8
Referance lines
 62
     2
420
 16776960
100
AcDbLine
 10
934.8827515415551
 20
-46.44830000000002
 30
0.0
 11
934.8827515415551
 21
60.89170000000013
 31
0.0
  0
LINE
  5
DB
330
14C
100
AcDbEntity
  8
Referance lines
 62
     2
420
 16776960
100
AcDbLine
 10
934.8827515415551
 20
60.89170000000013
 30
0.0
 11
934.8827515415551
 21
168.2317000000003
 31
0.0
  0
LINE
  5
DC
330
14C
100
AcDbEntity
  8
Referance lines
 62
     2
420
 16776960
100
AcDbLine
 10
934.8827515415551
 20
168.2317000000003
 30
0.0
 11
934.8827515415551
 21
275.5717000000004
 31
0.0
  0
LINE
  5
DD
330
14C
100
AcDbEntity
  8
Referance lines
 62
     2
420
 16776960
100
AcDbLine
 10
934.8827515415551
 20
275.5717000000004
 30
0.0
 11
934.8827515415551
 21
382.9117000000006
 31
0.0
  0
LINE
  5
DE
330
14C
100
AcDbEntity
  8
Referance lines
 62
     2
420
 16776960
100
AcDbLine
 10
934.8827515415551
 20
382.9117000000006
 30
0.0
 11
934.8827515415551
 21
490.2517000000012
 31
0.0
  0
LINE
  5
DF
330
14C
100
AcDbEntity
  8
Referance lines
 62
     2
420
 16776960
100
AcDbLine
 10
934.8827515415551
 20
-539.3662594999996
 30
0.0
 11
934.8827515415551
 21
553.8096595
 31
0.0
  0
LINE
  5
E0
330
14C
100
AcDbEntity
  8
Referance lines
 62
     2
420
 16776960
100
AcDbLine
 10
988.5512515415548
 20
7.221700000000055
 30
0.0
 11
881.2142515415562
 21
7.221700000000055
 31
0.0
  0
LINE
  5
E1
330
14C
100
AcDbEntity
  8
Referance lines
 62
     2
420
 16776960
100
AcDbLine
 10
934.8827515415551
 20
-46.44680000000017
 30
0.0
 11
934.8827515415551
 21
-153.7868000000004
 31
0.0
  0
LINE
  5
E2
330
14C
100
AcDbEntity
  8
Referance lines
 62
     2
420
 16776960
100
AcDbLine
 10
934.8827515415551
 20
-153.7868000000004
 30
0.0
 11
934.8827515415551
 21
-261.1268000000005
 31
0.0
  0
LINE
  5
E3
330
14C
100
AcDbEntity
  8
Referance lines
 62
     2
420
 16776960
100
AcDbLine
 10
988.5512515415548
 20
7.221700000000055
 30
0.0
 11
881.2142515415562
 21
7.221700000000055
 31
0.0
  0
LINE
  5
E4
330
14C
100
AcDbEntity
  8
Referance lines
 62
     2
420
 16776960
100
AcDbLine
 10
934.8827515415551
 20
-46.44680000000017
 30
0.0
 11
934.8827515415551
 21
-153.7868000000004
 31
0.0
  0
LINE
  5
E5
330
14C
100
AcDbEntity
  8
Referance lines
 62
     2
420
 16776960
100
AcDbLine
 10
934.8827515415551
 20
-261.1268000000005
 30
0.0
 11
934.8827515415551
 21
-368.4668000000006
 31
0.0
  0
LINE
  5
E6
330
14C
100
AcDbEntity
  8
Referance lines
 62
     2
420
 16776960
100
AcDbLine
 10
934.8827515415551
 20
-368.4668000000006
 30
0.0
 11
934.8827515415551
 21
-475.8068000000007
 31
0.0
  0
LINE
  5
E7
330
14C
100
AcDbEntity
  8
Referance lines
 62
     2
420
 16776960
100
AcDbLine
 10
102.4446532160227
 20
578.7217
 30
0.0
 11
940.4407856546459
 21
578.7217
 31
0.0
  0
LINE
  5
E8
330
14C
100
AcDbEntity
  8
Referance lines
 62
     2
420
 16776960
100
AcDbLine
 10
940.4407856546459
 20
578.7217
 30
0.0
 11
940.4379636546455
 21
-564.2783
 31
0.0
  0
LINE
  5
E9
330
14C
100
AcDbEntity
  8
Referance lines
 62
     2
420
 16776960
100
AcDbLine
 10
940.4379636546455
 20
-564.2783
 30
0.0
 11
102.437963654646
 21
-564.2783
 31
0.0
  0
LINE
  5
EA
330
14C
100
AcDbEntity
  8
Referance lines
 62
     2
420
 16776960
100
AcDbLine
 10
102.437963654646
 20
-564.2783
 30
0.0
 11
102.4446532160227
 21
578.7217
 31
0.0
  0
LINE
  5
EB
330
14C
100
AcDbEntity
  8
Referance lines
 62
     2
420
 16776960
100
AcDbLine
 10
24.82749776773562
 20
-496.9826404999998
 30
0.0
 11
24.82749776773562
 21
-1590.1585595
 31
0.0
  0
LINE
  5
EC
330
14C
100
AcDbEntity
  8
Referance lines
 62
     2
420
 16776960
100
AcDbLine
 10
174.8274977677356
 20
-1043.5706
 30
0.0
 11
-125.1725022322644
 21
-1043.5706
 31
0.0
  0
LINE
  5
ED
330
14C
100
AcDbEntity
  8
Referance lines
 62
     2
420
 16776960
100
AcDbLine
 10
24.8246757677357
 20
1604.6019595
 30
0.0
 11
24.8246757677357
 21
511.4260405
 31
0.0
  0
LINE
  5
EE
330
14C
100
AcDbEntity
  8
Referance lines
 62
     2
420
 16776960
100
AcDbLine
 10
174.8246757677357
 20
1058.014
 30
0.0
 11
-125.1753242322643
 21
1058.014
 31
0.0
  0
LINE
  5
EF
330
14C
100
AcDbEntity
  8
Referance lines
 62
     2
420
 16776960
100
AcDbLine
 10
-392.6753242322643
 20
607.2217
 30
0.0
 11
-392.6753242322643
 21
-592.7783
 31
0.0
  0
LINE
  5
F0
330
14C
100
AcDbEntity
  8
Referance lines
 62
     2
420
 16776960
100
AcDbLine
 10
-842.6753242322643
 20
7.221700000000055
 30
0.0
 11
57.3246757677357
 21
7.221700000000055
 31
0.0
  0
LINE
  5
F1
330
14C
100
AcDbEntity
  8
Referance lines
 62
     2
420
 16776960
100
AcDbLine
 10
-807.6353242322643
 20
560.7817
 30
0.0
 11
-807.6353242322643
 21
-532.3956
 31
0.0
  0
LINE
  5
F2
330
14C
100
AcDbEntity
  8
Referance lines
 62
     2
420
 16776960
100
AcDbLine
 10
19.27467576773597
 20
-532.3956
 30
0.0
 11
19.26467576773575
 21
560.7817
 31
0.0
  0
LINE
  5
F3
330
14C
100
AcDbEntity
  8
Referance lines
 62
     2
420
 16776960
100
AcDbLine
 10
-813.1686346708861
 20
-1590.1585595
 30
0.0
 11
-813.1686346708861
 21
-496.9826404999999
 31
0.0
  0
LINE
  5
F4
330
14C
100
AcDbEntity
  8
Referance lines
 62
     2
420
 16776960
100
AcDbLine
 10
-963.1686346708861
 20
-1043.5706
 30
0.0
 11
-663.1686346708861
 21
-1043.5706
 31
0.0
  0
LINE
  5
F5
330
14C
100
AcDbEntity
  8
Referance lines
 62
     2
420
 16776960
100
AcDbLine
 10
-392.6753242322643
 20
-545.5369380000005
 30
0.0
 11
-392.6753242322643
 21
-438.1969380000006
 31
0.0
  0
LINE
  5
F6
330
14C
100
AcDbEntity
  8
Referance lines
 62
     2
420
 16776960
100
AcDbLine
 10
-795.1653242322632
 20
-491.8672999999999
 30
0.0
 11
6.794675767735953
 21
-491.8672999999999
 31
0.0
  0
LINE
  5
F7
330
14C
100
AcDbEntity
  8
Referance lines
 62
     2
420
 16776960
100
AcDbLine
 10
-660.7553242322642
 20
-491.8672999999999
 30
0.0
 11
-768.0953242322644
 21
-491.8672999999999
 31
0.0
  0
LINE
  5
F8
330
14C
100
AcDbEntity
  8
Referance lines
 62
     2
420
 16776960
100
AcDbLine
 10
-339.0053242322642
 20
-491.8669380000006
 30
0.0
 11
-231.6653242322632
 21
-491.8669380000006
 31
0.0
  0
LINE
  5
F9
330
14C
100
AcDbEntity
  8
Referance lines
 62
     2
420
 16776960
100
AcDbLine
 10
-807.6316327322643
 20
-491.8669380000006
 30
0.0
 11
19.27307130676172
 21
-491.8669380000006
 31
0.0
  0
LINE
  5
FA
330
14C
100
AcDbEntity
  8
Referance lines
 62
     2
420
 16776960
100
AcDbLine
 10
-231.6653242322632
 20
-491.8669380000006
 30
0.0
 11
-124.325324232263
 21
-491.8669380000006
 31
0.0
  0
LINE
  5
FB
330
14C
100
AcDbEntity
  8
Referance lines
 62
     2
420
 16776960
100
AcDbLine
 10
-124.325324232263
 20
-491.8669380000006
 30
0.0
 11
-16.98532423226334
 21
-491.8669380000006
 31
0.0
  0
LINE
  5
FC
330
14C
100
AcDbEntity
  8
Referance lines
 62
     2
420
 16776960
100
AcDbLine
 10
-446.3453242322644
 20
-491.8669380000006
 30
0.0
 11
-339.0053242322642
 21
-491.8669380000006
 31
0.0
  0
LINE
  5
FD
330
14C
100
AcDbEntity
  8
Referance lines
 62
     2
420
 16776960
100
AcDbLine
 10
-446.3453242322644
 20
-491.8669380000006
 30
0.0
 11
-553.6853242322641
 21
-491.8669380000006
 31
0.0
  0
LINE
  5
FE
330
14C
100
AcDbEntity
  8
Referance lines
 62
     2
420
 16776960
100
AcDbLine
 10
-553.4165792322642
 20
-491.8669380000006
 30
0.0
 11
-660.7565792322644
 21
-491.8669380000006
 31
0.0
  0
LINE
  5
FF
330
14C
100
AcDbEntity
  8
Referance lines
 62
     2
420
 16776960
100
AcDbLine
 10
-392.6753242322643
 20
-636.8915999999999
 30
0.0
 11
-392.6753242322643
 21
-1450.2496
 31
0.0
  0
LINE
  5
100
330
14C
100
AcDbEntity
  8
Referance lines
 62
     2
420
 16776960
100
AcDbLine
 10
-813.1686346708861
 20
-1450.2496
 30
0.0
 11
-543.1361546708872
 21
-1450.2496
 31
0.0
  0
LINE
  5
101
330
14C
100
AcDbEntity
  8
Referance lines
 62
     2
420
 16776960
100
AcDbLine
 10
-245.2049822322642
 20
-636.8915999999999
 30
0.0
 11
24.82749776773562
 21
-636.8915999999999
 31
0.0
  0
LINE
  5
102
330
14C
100
AcDbEntity
  8
Referance lines
 62
     2
420
 16776960
100
AcDbLine
 10
-1714.967624232264
 20
578.7217
 30
0.0
 11
-901.6096242322642
 21
578.7217
 31
0.0
  0
LINE
  5
103
330
14C
100
AcDbEntity
  8
Referance lines
 62
     2
420
 16776960
100
AcDbLine
 10
-901.6096242322642
 20
578.7217
 30
0.0
 11
-901.6096242322642
 21
7.221700000000055
 31
0.0
  0
LINE
  5
104
330
14C
100
AcDbEntity
  8
Referance lines
 62
     2
420
 16776960
100
AcDbLine
 10
-901.6096242322642
 20
7.221700000000055
 30
0.0
 11
-901.6096242322642
 21
-564.2783
 31
0.0
  0
LINE
  5
105
330
14C
100
AcDbEntity
  8
Referance lines
 62
     2
420
 16776960
100
AcDbLine
 10
-1714.967624232264
 20
-564.2783
 30
0.0
 11
-1714.967624232264
 21
578.7217
 31
0.0
  0
LINE
  5
106
330
14C
100
AcDbEntity
  8
Referance lines
 62
     2
420
 16776960
100
AcDbLine
 10
-446.3453242322644
 20
573.1083000000001
 30
0.0
 11
-339.0053242322642
 21
573.1083000000001
 31
0.0
  0
LINE
  5
107
330
14C
100
AcDbEntity
  8
Referance lines
 62
     2
420
 16776960
100
AcDbLine
 10
-339.0053242322642
 20
573.1083000000001
 30
0.0
 11
-231.6653242322632
 21
573.1083000000001
 31
0.0
  0
LINE
  5
108
330
14C
100
AcDbEntity
  8
Referance lines
 62
     2
420
 16776960
100
AcDbLine
 10
-231.6653242322632
 20
573.1083000000001
 30
0.0
 11
-124.325324232263
 21
573.1083000000001
 31
0.0
  0
LINE
  5
109
330
14C
100
AcDbEntity
  8
Referance lines
 62
     2
420
 16776960
100
AcDbLine
 10
-446.3453242322644
 20
573.1083000000001
 30
0.0
 11
-553.6853242322641
 21
573.1083000000001
 31
0.0
  0
LINE
  5
10A
330
14C
100
AcDbEntity
  8
Referance lines
 62
     2
420
 16776960
100
AcDbLine
 10
-813.1753242322643
 20
511.4260405
 30
0.0
 11
-813.1753242322643
 21
1604.6019595
 31
0.0
  0
LINE
  5
10B
330
14C
100
AcDbEntity
  8
Referance lines
 62
     2
420
 16776960
100
AcDbLine
 10
-553.4165792322642
 20
573.1083000000001
 30
0.0
 11
-660.7565792322644
 21
573.1083000000001
 31
0.0
  0
LINE
  5
10C
330
14C
100
AcDbEntity
  8
Referance lines
 62
     2
420
 16776960
100
AcDbLine
 10
-963.1753242322643
 20
1058.014
 30
0.0
 11
-663.1753242322643
 21
1058.014
 31
0.0
  0
LINE
  5
10D
330
14C
100
AcDbEntity
  8
Referance lines
 62
     2
420
 16776960
100
AcDbLine
 10
-660.7565792322644
 20
573.1083000000001
 30
0.0
 11
-768.096579232264
 21
573.1083000000001
 31
0.0
  0
LINE
  5
10E
330
14C
100
AcDbEntity
  8
Referance lines
 62
     2
420
 16776960
100
AcDbLine
 10
-795.1678522322632
 20
573.1083000000001
 30
0.0
 11
6.789828767735798
 21
573.1083000000001
 31
0.0
  0
LINE
  5
10F
330
14C
100
AcDbEntity
  8
Referance lines
 62
     2
420
 16776960
100
AcDbLine
 10
-791.5713327322642
 20
7.221700000000055
 30
0.0
 11
-823.6919327322644
 21
7.221700000000055
 31
0.0
  0
LINE
  5
110
330
14C
100
AcDbEntity
  8
Referance lines
 62
     2
420
 16776960
100
AcDbLine
 10
-807.6316327322643
 20
-46.44680000000017
 30
0.0
 11
-807.6316327322643
 21
-153.7868000000004
 31
0.0
  0
LINE
  5
111
330
14C
100
AcDbEntity
  8
Referance lines
 62
     2
420
 16776960
100
AcDbLine
 10
-807.6316327322643
 20
-46.44830000000002
 30
0.0
 11
-807.6316327322643
 21
60.89170000000013
 31
0.0
  0
LINE
  5
112
330
14C
100
AcDbEntity
  8
Referance lines
 62
     2
420
 16776960
100
AcDbLine
 10
-753.9631327322641
 20
7.221700000000055
 30
0.0
 11
-861.3001327322631
 21
7.221700000000055
 31
0.0
  0
LINE
  5
113
330
14C
100
AcDbEntity
  8
Referance lines
 62
     2
420
 16776960
100
AcDbLine
 10
-807.6316327322643
 20
-539.3662594999996
 30
0.0
 11
-807.6316327322643
 21
553.8096595
 31
0.0
  0
LINE
  5
114
330
14C
100
AcDbEntity
  8
Referance lines
 62
     2
420
 16776960
100
AcDbLine
 10
-753.9631327322641
 20
7.221700000000055
 30
0.0
 11
-861.3001327322631
 21
7.221700000000055
 31
0.0
  0
LINE
  5
115
330
14C
100
AcDbEntity
  8
Referance lines
 62
     2
420
 16776960
100
AcDbLine
 10
-807.6316327322643
 20
-46.44680000000017
 30
0.0
 11
-807.6316327322643
 21
-153.7868000000004
 31
0.0
  0
LINE
  5
116
330
14C
100
AcDbEntity
  8
Referance lines
 62
     2
420
 16776960
100
AcDbLine
 10
-807.6316327322643
 20
60.89170000000013
 30
0.0
 11
-807.6316327322643
 21
168.2317000000003
 31
0.0
  0
LINE
  5
117
330
14C
100
AcDbEntity
  8
Referance lines
 62
     2
420
 16776960
100
AcDbLine
 10
-753.9631327322641
 20
7.221700000000055
 30
0.0
 11
-861.3001327322631
 21
7.221700000000055
 31
0.0
  0
LINE
  5
118
330
14C
100
AcDbEntity
  8
Referance lines
 62
     2
420
 16776960
100
AcDbLine
 10
-807.6316327322643
 20
-46.44680000000017
 30
0.0
 11
-807.6316327322643
 21
-153.7868000000004
 31
0.0
  0
LINE
  5
119
330
14C
100
AcDbEntity
  8
Referance lines
 62
     2
420
 16776960
100
AcDbLine
 10
-807.6316327322643
 20
-153.7868000000004
 30
0.0
 11
-807.6316327322643
 21
-261.1268000000005
 31
0.0
  0
LINE
  5
11A
330
14C
100
AcDbEntity
  8
Referance lines
 62
     2
420
 16776960
100
AcDbLine
 10
-807.6316327322643
 20
-261.1268000000005
 30
0.0
 11
-807.6316327322643
 21
-368.4668000000006
 31
0.0
  0
LINE
  5
11B
330
14C
100
AcDbEntity
  8
Referance lines
 62
     2
420
 16776960
100
AcDbLine
 10
-807.6316327322643
 20
168.2317000000003
 30
0.0
 11
-807.6316327322643
 21
275.5717000000004
 31
0.0
  0
LINE
  5
11C
330
14C
100
AcDbEntity
  8
Referance lines
 62
     2
420
 16776960
100
AcDbLine
 10
-807.6316327322643
 20
275.5717000000004
 30
0.0
 11
-807.6316327322643
 21
382.9117000000006
 31
0.0
  0
LINE
  5
11D
330
14C
100
AcDbEntity
  8
Referance lines
 62
     2
420
 16776960
100
AcDbLine
 10
-807.6316327322643
 20
-368.4668000000006
 30
0.0
 11
-807.6316327322643
 21
-475.8068000000007
 31
0.0
  0
LINE
  5
11E
330
14C
100
AcDbEntity
  8
Referance lines
 62
     2
420
 16776960
100
AcDbLine
 10
-807.6316327322643
 20
382.9117000000006
 30
0.0
 11
-807.6316327322643
 21
490.2517000000012
 31
0.0
  0
LINE
  5
11F
330
14C
100
AcDbEntity
  8
Referance lines
 62
     2
420
 16776960
100
AcDbLine
 10
72.93796365464596
 20
7.221700000000055
 30
0.0
 11
-34.39903634535403
 21
7.221700000000055
 31
0.0
  0
LINE
  5
120
330
14C
100
AcDbEntity
  8
Referance lines
 62
     2
420
 16776960
100
AcDbLine
 10
19.26946365464573
 20
-46.44680000000017
 30
0.0
 11
19.26946365464573
 21
-153.7868000000004
 31
0.0
  0
LINE
  5
121
330
14C
100
AcDbEntity
  8
Referance lines
 62
     2
420
 16776960
100
AcDbLine
 10
19.26946365464573
 20
-46.44830000000002
 30
0.0
 11
19.26946365464573
 21
60.89170000000013
 31
0.0
  0
LINE
  5
122
330
14C
100
AcDbEntity
  8
Referance lines
 62
     2
420
 16776960
100
AcDbLine
 10
19.26946365464573
 20
60.89170000000013
 30
0.0
 11
19.26946365464573
 21
168.2317000000003
 31
0.0
  0
LINE
  5
123
330
14C
100
AcDbEntity
  8
Referance lines
 62
     2
420
 16776960
100
AcDbLine
 10
19.26946365464573
 20
168.2317000000003
 30
0.0
 11
19.26946365464573
 21
275.5717000000004
 31
0.0
  0
LINE
  5
124
330
14C
100
AcDbEntity
  8
Referance lines
 62
     2
420
 16776960
100
AcDbLine
 10
19.26946365464573
 20
275.5717000000004
 30
0.0
 11
19.26946365464573
 21
382.9117000000006
 31
0.0
  0
LINE
  5
125
330
14C
100
AcDbEntity
  8
Referance lines
 62
     2
420
 16776960
100
AcDbLine
 10
19.26946365464573
 20
382.9117000000006
 30
0.0
 11
19.26946365464573
 21
490.2517000000012
 31
0.0
  0
LINE
  5
126
330
14C
100
AcDbEntity
  8
Referance lines
 62
     2
420
 16776960
100
AcDbLine
 10
19.26946365464573
 20
-539.3662594999996
 30
0.0
 11
19.26946365464573
 21
553.8096595
 31
0.0
  0
LINE
  5
127
330
14C
100
AcDbEntity
  8
Referance lines
 62
     2
420
 16776960
100
AcDbLine
 10
72.93796365464596
 20
7.221700000000055
 30
0.0
 11
-34.39903634535403
 21
7.221700000000055
 31
0.0
  0
LINE
  5
128
330
14C
100
AcDbEntity
  8
Referance lines
 62
     2
420
 16776960
100
AcDbLine
 10
19.26946365464573
 20
-46.44680000000017
 30
0.0
 11
19.26946365464573
 21
-153.7868000000004
 31
0.0
  0
LINE
  5
129
330
14C
100
AcDbEntity
  8
Referance lines
 62
     2
420
 16776960
100
AcDbLine
 10
19.26946365464573
 20
-153.7868000000004
 30
0.0
 11
19.26946365464573
 21
-261.1268000000005
 31
0.0
  0
LINE
  5
12A
330
14C
100
AcDbEntity
  8
Referance lines
 62
     2
420
 16776960
100
AcDbLine
 10
72.93796365464596
 20
7.221700000000055
 30
0.0
 11
-34.39903634535403
 21
7.221700000000055
 31
0.0
  0
LINE
  5
12B
330
14C
100
AcDbEntity
  8
Referance lines
 62
     2
420
 16776960
100
AcDbLine
 10
19.26946365464573
 20
-46.44680000000017
 30
0.0
 11
19.26946365464573
 21
-153.7868000000004
 31
0.0
  0
LINE
  5
12C
330
14C
100
AcDbEntity
  8
Referance lines
 62
     2
420
 16776960
100
AcDbLine
 10
19.26946365464573
 20
-261.1268000000005
 30
0.0
 11
19.26946365464573
 21
-368.4668000000006
 31
0.0
  0
LINE
  5
12D
330
14C
100
AcDbEntity
  8
Referance lines
 62
     2
420
 16776960
100
AcDbLine
 10
19.26946365464573
 20
-368.4668000000006
 30
0.0
 11
19.26946365464573
 21
-475.8068000000007
 31
0.0
  0
ENDSEC
  0
SECTION
  2
OBJECTS
  0
DICTIONARY
  5
13A
330
0
100
AcDbDictionary
281
     1
  3
ACAD_GROUP
350
13B
  3
ACAD_LAYOUT
350
147
  3
ACAD_MATERIAL
350
168
  3
ACAD_MLEADERSTYLE
350
186
  3
ACAD_MLINESTYLE
350
144
  3
ACAD_PLOTSETTINGS
350
146
  3
ACAD_PLOTSTYLENAME
350
13C
  3
ACAD_TABLESTYLE
350
185
  3
ACAD_VISUALSTYLE
350
157
  3
QCAD_OBJECTS
350
16D
  0
DICTIONARY
  5
13B
102
{ACAD_REACTORS
330
13A
102
}
330
13A
100
AcDbDictionary
281
     1
  0
DICTIONARY
  5
147
102
{ACAD_REACTORS
330
13A
102
}
330
13A
100
AcDbDictionary
281
     1
  3
Layout1
350
14B
  3
Layout2
350
153
  3
Model
350
14F
  0
DICTIONARY
  5
168
102
{ACAD_REACTORS
330
13A
102
}
330
13A
100
AcDbDictionary
281
     1
  3
ByBlock
350
16A
  3
ByLayer
350
169
  3
Global
350
16B
  0
DICTIONARY
  5
186
102
{ACAD_REACTORS
330
13A
102
}
330
13A
100
AcDbDictionary
281
     1
  0
DICTIONARY
  5
144
102
{ACAD_REACTORS
330
13A
102
}
330
13A
100
AcDbDictionary
281
     1
  3
Standard
350
145
  0
DICTIONARY
  5
146
102
{ACAD_REACTORS
330
13A
102
}
330
13A
100
AcDbDictionary
281
     1
  0
ACDBDICTIONARYWDFLT
  5
13C
102
{ACAD_REACTORS
330
13A
102
}
330
13A
100
AcDbDictionary
281
     1
  3
Normal
350
13D
100
AcDbDictionaryWithDefault
340
13D
  0
DICTIONARY
  5
185
102
{ACAD_REACTORS
330
13A
102
}
330
13A
100
AcDbDictionary
281
     1
  0
DICTIONARY
  5
157
102
{ACAD_REACTORS
330
13A
102
}
330
13A
100
AcDbDictionary
281
     1
  3
2dWireframe
350
15C
  3
3D Hidden
350
15E
  3
3dWireframe
350
15D
  3
Basic
350
15F
  3
Brighten
350
163
  3
ColorChange
350
167
  3
Conceptual
350
161
  3
Dim
350
162
  3
Facepattern
350
166
  3
Flat
350
158
  3
FlatWithEdges
350
159
  3
Gouraud
350
15A
  3
GouraudWithEdges
350
15B
  3
Linepattern
350
165
  3
Realistic
350
160
  3
Thicken
350
164
  0
DICTIONARY
  5
16D
102
{ACAD_REACTORS
330
13A
102
}
330
13A
100
AcDbDictionary
281
     1
  3
Grid/DisplayGrid
350
16E
  3
PageSettings/Scale
350
16F
  0
LAYOUT
  5
14B
102
{ACAD_REACTORS
330
147
102
}
330
147
100
AcDbPlotSettings
  1

  2
none_device
  4

  6

 40
0.0
 41
0.0
 42
0.0
 43
0.0
 44
0.0
 45
0.0
 46
0.0
 47
0.0
 48
0.0
 49
0.0
140
0.0
141
0.0
142
1.0
143
1.0
 70
   688
 72
     0
 73
     0
 74
     5
  7

 75
    16
 76
     0
 77
     2
 78
   300
147
1.0
148
0.0
149
0.0
100
AcDbLayout
  1
Layout1
 70
     1
 71
     1
 10
0.0
 20
0.0
 11
12.0
 21
9.0
 12
0.0
 22
0.0
 32
0.0
 14
1.000000000000000E+20
 24
1.000000000000000E+20
 34
1.000000000000000E+20
 15
-1.000000000000000E+20
 25
-1.000000000000000E+20
 35
-1.000000000000000E+20
146
0.0
 13
0.0
 23
0.0
 33
0.0
 16
1.0
 26
0.0
 36
0.0
 17
0.0
 27
1.0
 37
0.0
 76
     0
330
148
  0
LAYOUT
  5
153
102
{ACAD_REACTORS
330
147
102
}
330
147
100
AcDbPlotSettings
  1

  2
none_device
  4

  6

 40
0.0
 41
0.0
 42
0.0
 43
0.0
 44
0.0
 45
0.0
 46
0.0
 47
0.0
 48
0.0
 49
0.0
140
0.0
141
0.0
142
1.0
143
1.0
 70
   688
 72
     0
 73
     0
 74
     5
  7

 75
    16
 76
     0
 77
     2
 78
   300
147
1.0
148
0.0
149
0.0
100
AcDbLayout
  1
Layout2
 70
     1
 71
     2
 10
0.0
 20
0.0
 11
0.0
 21
0.0
 12
0.0
 22
0.0
 32
0.0
 14
0.0
 24
0.0
 34
0.0
 15
0.0
 25
0.0
 35
0.0
146
0.0
 13
0.0
 23
0.0
 33
0.0
 16
1.0
 26
0.0
 36
0.0
 17
0.0
 27
1.0
 37
0.0
 76
     0
330
150
  0
LAYOUT
  5
14F
102
{ACAD_REACTORS
330
147
102
}
330
147
100
AcDbPlotSettings
  1

  2
none_device
  4

  6

 40
0.0
 41
0.0
 42
0.0
 43
0.0
 44
0.0
 45
0.0
 46
0.0
 47
0.0
 48
0.0
 49
0.0
140
0.0
141
0.0
142
1.0
143
1.0
 70
  1712
 72
     0
 73
     0
 74
     0
  7

 75
     0
 76
     0
 77
     2
 78
   300
147
1.0
148
0.0
149
0.0
100
AcDbLayout
  1
Model
 70
     1
 71
     0
 10
0.0
 20
0.0
 11
12.0
 21
9.0
 12
0.0
 22
0.0
 32
0.0
 14
1.000000000000000E+20
 24
1.000000000000000E+20
 34
1.000000000000000E+20
 15
-1.000000000000000E+20
 25
-1.000000000000000E+20
 35
-1.000000000000000E+20
146
0.0
 13
0.0
 23
0.0
 33
0.0
 16
1.0
 26
0.0
 36
0.0
 17
0.0
 27
1.0
 37
0.0
 76
     0
330
14C
331
156
  0
MATERIAL
  5
16A
102
{ACAD_REACTORS
330
168
102
}
330
168
100
AcDbMaterial
  1
ByBlock
 72
     1
 94
      127
  0
MATERIAL
  5
169
102
{ACAD_REACTORS
330
168
102
}
330
168
100
AcDbMaterial
  1
ByLayer
 72
     1
 94
      127
  0
MATERIAL
  5
16B
102
{ACAD_REACTORS
330
168
102
}
330
168
100
AcDbMaterial
  1
Global
 72
     1
 94
      127
  0
MLINESTYLE
  5
145
102
{ACAD_REACTORS
330
144
102
}
330
144
100
AcDbMlineStyle
  2
Standard
 70
     0
  3

 62
   256
 51
90.0
 52
90.0
 71
     2
 49
0.5
 62
   256
  6
BYLAYER
 49
-0.5
 62
   256
  6
BYLAYER
  0
ACDBPLACEHOLDER
  5
13D
102
{ACAD_REACTORS
330
13C
102
}
330
13C
  0
VISUALSTYLE
  5
15C
102
{ACAD_REACTORS
330
157
102
}
330
157
100
AcDbVisualStyle
  2
2dWireframe
 70
     4
177
     2
291
     0
 71
     0
176
     1
 72
     2
176
     1
 73
     0
176
     1
 90
        0
176
     1
 40
-0.6
176
     1
 41
-30.0
176
     1
 62
     5
 63
     7
421
 16777215
176
     1
 74
     1
176
     1
 91
        4
176
     1
 64
     7
176
     1
 65
   257
176
     1
 75
     1
176
     1
175
     1
176
     1
 42
1.0
176
     1
 92
        0
176
     1
 66
   257
176
     1
 43
1.0
176
     1
 76
     1
176
     1
 77
     6
176
     1
 78
     2
176
     1
 67
     7
176
     1
 79
     5
176
     1
170
     0
176
     1
171
     0
176
     1
290
     0
176
     1
 93
        1
176
     1
 44
0.0
176
     1
173
     0
176
     1
  0
VISUALSTYLE
  5
15E
102
{ACAD_REACTORS
330
157
102
}
330
157
100
AcDbVisualStyle
  2
3D Hidden
 70
     6
177
     2
291
     0
 71
     1
176
     1
 72
     2
176
     1
 73
     2
176
     1
 90
        0
176
     1
 40
-0.6
176
     1
 41
-30.0
176
     1
 62
     5
 63
     7
421
 16777215
176
     1
 74
     2
176
     1
 91
        2
176
     1
 64
     7
176
     1
 65
   257
176
     1
 75
     2
176
     1
175
     1
176
     1
 42
40.0
176
     1
 92
        0
176
     1
 66
   257
176
     1
 43
1.0
176
     1
 76
     1
176
     1
 77
     6
176
     1
 78
     2
176
     1
 67
     7
176
     1
 79
     3
176
     1
170
     0
176
     1
171
     0
176
     1
290
     0
176
     1
 93
        1
176
     1
 44
0.0
176
     1
173
     0
176
     1
  0
VISUALSTYLE
  5
15D
102
{ACAD_REACTORS
330
157
102
}
330
157
100
AcDbVisualStyle
  2
3dWireframe
 70
     5
177
     2
291
     0
 71
     0
176
     1
 72
     2
176
     1
 73
     0
176
     1
 90
        0
176
     1
 40
-0.6
176
     1
 41
-30.0
176
     1
 62
     5
 63
     7
421
 16777215
176
     1
 74
     1
176
     1
 91
        4
176
     1
 64
     7
176
     1
 65
   257
176
     1
 75
     1
176
     1
175
     1
176
     1
 42
1.0
176
     1
 92
        0
176
     1
 66
   257
176
     1
 43
1.0
176
     1
 76
     1
176
     1
 77
     6
176
     1
 78
     2
176
     1
 67
     7
176
     1
 79
     5
176
     1
170
     0
176
     1
171
     0
176
     1
290
     0
176
     1
 93
        1
176
     1
 44
0.0
176
     1
173
     0
176
     1
  0
VISUALSTYLE
  5
15F
102
{ACAD_REACTORS
330
157
102
}
330
157
100
AcDbVisualStyle
  2
Basic
 70
     7
177
     2
291
     1
 71
     1
176
     1
 72
     0
176
     1
 73
     1
176
     1
 90
        0
176
     1
 40
-0.6
176
     1
 41
-30.0
176
     1
 62
     5
 63
     7
421
 16777215
176
     1
 74
     0
176
     1
 91
        4
176
     1
 64
     7
176
     1
 65
   257
176
     1
 75
     1
176
     1
175
     1
176
     1
 42
1.0
176
     1
 92
        8
176
     1
 66
     7
176
     1
 43
1.0
176
     1
 76
     1
176
     1
 77
     6
176
     1
 78
     2
176
     1
 67
     7
176
     1
 79
     5
176
     1
170
     0
176
     1
171
     0
176
     1
290
     0
176
     1
 93
        1
176
     1
 44
0.0
176
     1
173
     0
176
     1
  0
VISUALSTYLE
  5
163
102
{ACAD_REACTORS
330
157
102
}
330
157
100
AcDbVisualStyle
  2
Brighten
 70
    12
177
     2
291
     1
 71
     2
176
     1
 72
     2
176
     1
 73
     0
176
     1
 90
        0
176
     1
 40
-0.6
176
     1
 41
-30.0
176
     1
 62
     5
 63
     7
421
 16777215
176
     1
 74
     1
176
     1
 91
        4
176
     1
 64
     7
176
     1
 65
   257
176
     1
 75
     1
176
     1
175
     1
176
     1
 42
1.0
176
     1
 92
        8
176
     1
 66
     7
176
     1
 43
1.0
176
     1
 76
     1
176
     1
 77
     6
176
     1
 78
     2
176
     1
 67
     7
176
     1
 79
     5
176
     1
170
     0
176
     1
171
     0
176
     1
290
     0
176
     1
 93
        1
176
     1
 44
50.0
176
     1
173
     0
176
     1
  0
VISUALSTYLE
  5
167
102
{ACAD_REACTORS
330
157
102
}
330
157
100
AcDbVisualStyle
  2
ColorChange
 70
    16
177
     2
291
     1
 71
     2
176
     1
 72
     2
176
     1
 73
     3
176
     1
 90
        0
176
     1
 40
-0.6
176
     1
 41
-30.0
176
     1
 62
     5
 63
     8
421
  8421504
176
     1
 74
     1
176
     1
 91
        4
176
     1
 64
     7
176
     1
 65
   257
176
     1
 75
     1
176
     1
175
     1
176
     1
 42
1.0
176
     1
 92
        8
176
     1
 66
     8
424
  8421504
176
     1
 43
1.0
176
     1
 76
     1
176
     1
 77
     6
176
     1
 78
     2
176
     1
 67
     7
176
     1
 79
     5
176
     1
170
     0
176
     1
171
     0
176
     1
290
     0
176
     1
 93
        1
176
     1
 44
0.0
176
     1
173
     0
176
     1
  0
VISUALSTYLE
  5
161
102
{ACAD_REACTORS
330
157
102
}
330
157
100
AcDbVisualStyle
  2
Conceptual
 70
     9
177
     2
291
     0
 71
     3
176
     1
 72
     2
176
     1
 73
     0
176
     1
 90
        0
176
     1
 40
-0.6
176
     1
 41
-30.0
176
     1
 62
     5
 63
     7
421
 16777215
176
     1
 74
     2
176
     1
 91
        2
176
     1
 64
     7
176
     1
 65
   257
176
     1
 75
     1
176
     1
175
     1
176
     1
 42
40.0
176
     1
 92
        8
176
     1
 66
     7
176
     1
 43
1.0
176
     1
 76
     1
176
     1
 77
     6
176
     1
 78
     2
176
     1
 67
     7
176
     1
 79
     3
176
     1
170
     0
176
     1
171
     0
176
     1
290
     0
176
     1
 93
        1
176
     1
 44
0.0
176
     1
173
     0
176
     1
  0
VISUALSTYLE
  5
162
102
{ACAD_REACTORS
330
157
102
}
330
157
100
AcDbVisualStyle
  2
Dim
 70
    11
177
     2
291
     1
 71
     2
176
     1
 72
     2
176
     1
 73
     0
176
     1
 90
        0
176
     1
 40
-0.6
176
     1
 41
-30.0
176
     1
 62
     5
 63
     7
421
 16777215
176
     1
 74
     1
176
     1
 91
        4
176
     1
 64
     7
176
     1
 65
   257
176
     1
 75
     1
176
     1
175
     1
176
     1
 42
1.0
176
     1
 92
        8
176
     1
 66
     7
176
     1
 43
1.0
176
     1
 76
     1
176
     1
 77
     6
176
     1
 78
     2
176
     1
 67
     7
176
     1
 79
     5
176
     1
170
     0
176
     1
171
     0
176
     1
290
     0
176
     1
 93
        1
176
     1
 44
-50.0
176
     1
173
     0
176
     1
  0
VISUALSTYLE
  5
166
102
{ACAD_REACTORS
330
157
102
}
330
157
100
AcDbVisualStyle
  2
Facepattern
 70
    15
177
     2
291
     1
 71
     2
176
     1
 72
     2
176
     1
 73
     0
176
     1
 90
        0
176
     1
 40
-0.6
176
     1
 41
-30.0
176
     1
 62
     5
 63
     7
421
 16777215
176
     1
 74
     1
176
     1
 91
        4
176
     1
 64
     7
176
     1
 65
   257
176
     1
 75
     1
176
     1
175
     1
176
     1
 42
1.0
176
     1
 92
        8
176
     1
 66
     7
176
     1
 43
1.0
176
     1
 76
     1
176
     1
 77
     6
176
     1
 78
     2
176
     1
 67
     7
176
     1
 79
     5
176
     1
170
     0
176
     1
171
     0
176
     1
290
     0
176
     1
 93
        1
176
     1
 44
0.0
176
     1
173
     0
176
     1
  0
VISUALSTYLE
  5
158
102
{ACAD_REACTORS
330
157
102
}
330
157
100
AcDbVisualStyle
  2
Flat
 70
     0
177
     2
291
     1
 71
     2
176
     1
 72
     1
176
     1
 73
     1
176
     1
 90
        2
176
     1
 40
-0.6
176
     1
 41
30.0
176
     1
 62
     5
 63
     7
421
 16777215
176
     1
 74
     0
176
     1
 91
        4
176
     1
 64
     7
176
     1
 65
   257
176
     1
 75
     1
176
     1
175
     1
176
     1
 42
1.0
176
     1
 92
        8
176
     1
 66
     7
176
     1
 43
1.0
176
     1
 76
     1
176
     1
 77
     6
176
     1
 78
     2
176
     1
 67
     7
176
     1
 79
     5
176
     1
170
     0
176
     1
171
     0
176
     1
290
     0
176
     1
 93
       13
176
     1
 44
0.0
176
     1
173
     0
176
     1
  0
VISUALSTYLE
  5
159
102
{ACAD_REACTORS
330
157
102
}
330
157
100
AcDbVisualStyle
  2
FlatWithEdges
 70
     1
177
     2
291
     1
 71
     2
176
     1
 72
     1
176
     1
 73
     1
176
     1
 90
        2
176
     1
 40
-0.6
176
     1
 41
30.0
176
     1
 62
     5
 63
     7
421
 16777215
176
     1
 74
     1
176
     1
 91
        4
176
     1
 64
     7
176
     1
 65
   257
176
     1
 75
     1
176
     1
175
     1
176
     1
 42
1.0
176
     1
 92
        0
176
     1
 66
   257
176
     1
 43
1.0
176
     1
 76
     1
176
     1
 77
     6
176
     1
 78
     2
176
     1
 67
     7
176
     1
 79
     5
176
     1
170
     0
176
     1
171
     0
176
     1
290
     0
176
     1
 93
       13
176
     1
 44
0.0
176
     1
173
     0
176
     1
  0
VISUALSTYLE
  5
15A
102
{ACAD_REACTORS
330
157
102
}
330
157
100
AcDbVisualStyle
  2
Gouraud
 70
     2
177
     2
291
     1
 71
     2
176
     1
 72
     2
176
     1
 73
     1
176
     1
 90
        2
176
     1
 40
-0.6
176
     1
 41
30.0
176
     1
 62
     5
 63
     7
421
 16777215
176
     1
 74
     0
176
     1
 91
        4
176
     1
 64
     7
176
     1
 65
   257
176
     1
 75
     1
176
     1
175
     1
176
     1
 42
1.0
176
     1
 92
        0
176
     1
 66
     7
176
     1
 43
1.0
176
     1
 76
     1
176
     1
 77
     6
176
     1
 78
     2
176
     1
 67
     7
176
     1
 79
     5
176
     1
170
     0
176
     1
171
     0
176
     1
290
     0
176
     1
 93
       13
176
     1
 44
0.0
176
     1
173
     0
176
     1
  0
VISUALSTYLE
  5
15B
102
{ACAD_REACTORS
330
157
102
}
330
157
100
AcDbVisualStyle
  2
GouraudWithEdges
 70
     3
177
     2
291
     1
 71
     2
176
     1
 72
     2
176
     1
 73
     1
176
     1
 90
        2
176
     1
 40
-0.6
176
     1
 41
30.0
176
     1
 62
     5
 63
     7
421
 16777215
176
     1
 74
     1
176
     1
 91
        4
176
     1
 64
     7
176
     1
 65
   257
176
     1
 75
     1
176
     1
175
     1
176
     1
 42
1.0
176
     1
 92
        0
176
     1
 66
   257
176
     1
 43
1.0
176
     1
 76
     1
176
     1
 77
     6
176
     1
 78
     2
176
     1
 67
     7
176
     1
 79
     5
176
     1
170
     0
176
     1
171
     0
176
     1
290
     0
176
     1
 93
       13
176
     1
 44
0.0
176
     1
173
     0
176
     1
  0
VISUALSTYLE
  5
165
102
{ACAD_REACTORS
330
157
102
}
330
157
100
AcDbVisualStyle
  2
Linepattern
 70
    14
177
     2
291
     1
 71
     2
176
     1
 72
     2
176
     1
 73
     0
176
     1
 90
        0
176
     1
 40
-0.6
176
     1
 41
-30.0
176
     1
 62
     5
 63
     7
421
 16777215
176
     1
 74
     1
176
     1
 91
        4
176
     1
 64
     7
176
     1
 65
   257
176
     1
 75
     7
176
     1
175
     7
176
     1
 42
1.0
176
     1
 92
        8
176
     1
 66
     7
176
     1
 43
1.0
176
     1
 76
     1
176
     1
 77
     6
176
     1
 78
     2
176
     1
 67
     7
176
     1
 79
     5
176
     1
170
     0
176
     1
171
     0
176
     1
290
     0
176
     1
 93
        1
176
     1
 44
0.0
176
     1
173
     0
176
     1
  0
VISUALSTYLE
  5
160
102
{ACAD_REACTORS
330
157
102
}
330
157
100
AcDbVisualStyle
  2
Realistic
 70
     8
177
     2
291
     0
 71
     2
176
     1
 72
     2
176
     1
 73
     0
176
     1
 90
        0
176
     1
 40
-0.6
176
     1
 41
-30.0
176
     1
 62
     5
 63
     7
421
 16777215
176
     1
 74
     1
176
     1
 91
        0
176
     1
 64
     7
176
     1
 65
   257
176
     1
 75
     1
176
     1
175
     1
176
     1
 42
1.0
176
     1
 92
        8
176
     1
 66
     8
424
  7895160
176
     1
 43
1.0
176
     1
 76
     1
176
     1
 77
     6
176
     1
 78
     2
176
     1
 67
     7
176
     1
 79
     5
176
     1
170
     0
176
     1
171
     0
176
     1
290
     0
176
     1
 93
       13
176
     1
 44
0.0
176
     1
173
     0
176
     1
  0
VISUALSTYLE
  5
164
102
{ACAD_REACTORS
330
157
102
}
330
157
100
AcDbVisualStyle
  2
Thicken
 70
    13
177
     2
291
     1
 71
     2
176
     1
 72
     2
176
     1
 73
     0
176
     1
 90
        0
176
     1
 40
-0.6
176
     1
 41
-30.0
176
     1
 62
     5
 63
     7
421
 16777215
176
     1
 74
     1
176
     1
 91
        4
176
     1
 64
     7
176
     1
 65
   257
176
     1
 75
     1
176
     1
175
     1
176
     1
 42
1.0
176
     1
 92
       12
176
     1
 66
     7
176
     1
 43
1.0
176
     1
 76
     1
176
     1
 77
     6
176
     1
 78
     2
176
     1
 67
     7
176
     1
 79
     5
176
     1
170
     0
176
     1
171
     0
176
     1
290
     0
176
     1
 93
        1
176
     1
 44
0.0
176
     1
173
     0
176
     1
  0
XRECORD
  5
16E
102
{ACAD_REACTORS
330
16D
102
}
330
16D
100
AcDbXrecord
280
     1
290
     1
  0
XRECORD
  5
16F
102
{ACAD_REACTORS
330
16D
102
}
330
16D
100
AcDbXrecord
280
     1
1000
1:1
  0
ENDSEC
  0
EOF
