999
dxflib 2.2.0.0
  0
SECTION
  2
HEADER
  9
$ACADVER
  1
AC1015
  9
$HANDSEED
  5
FFFF
  9
$DIMASZ
 40
2.5
  9
$PLIMMIN
 10
0.0
 20
0.0
  9
$DIMEXE
 40
1.25
  9
$DIMGAP
 40
0.625
  9
$PLIMMAX
 10
210.0
 20
297.0
  9
$INSUNITS
 70
4
  9
$DIMSTYLE
  2
Standard
  9
$MEASUREMENT
 70
1
  9
$DIMEXO
 40
0.625
  9
$DIMTXT
 40
2.5
  9
$CLAYER
  8
0
  0
ENDSEC
  0
SECTION
  2
TABLES
  0
TABLE
  2
VPORT
  5
8
100
AcDbSymbolTable
 70
1
  0
VPORT
  5
30
100
AcDbSymbolTableRecord
100
AcDbViewportTableRecord
  2
*Active
 70
0
 10
0.0
 20
0.0
 11
1.0
 21
1.0
 12
286.30555555555549
 22
148.5
 13
0.0
 23
0.0
 14
10.0
 24
10.0
 15
10.0
 25
10.0
 16
0.0
 26
0.0
 36
1.0
 17
0.0
 27
0.0
 37
0.0
 40
297.0
 41
1.92798353909465
 42
50.0
 43
0.0
 44
0.0
 50
0.0
 51
0.0
 71
0
 72
100
 73
1
 74
3
 75
1
 76
1
 77
0
 78
0
281
0
 65
1
110
0.0
120
0.0
130
0.0
111
1.0
121
0.0
131
0.0
112
0.0
122
1.0
132
0.0
 79
0
146
0.0
  0
ENDTAB
  0
TABLE
  2
LTYPE
  5
5
100
AcDbSymbolTable
 70
21
  0
LTYPE
  5
14
100
AcDbSymbolTableRecord
100
AcDbLinetypeTableRecord
  2
ByBlock
 70
0
  3

 72
65
 73
0
 40
0.0
  0
LTYPE
  5
15
100
AcDbSymbolTableRecord
100
AcDbLinetypeTableRecord
  2
ByLayer
 70
0
  3

 72
65
 73
0
 40
0.0
  0
LTYPE
  5
16
100
AcDbSymbolTableRecord
100
AcDbLinetypeTableRecord
  2
CONTINUOUS
 70
0
  3
Solid line
 72
65
 73
0
 40
0.0
  0
LTYPE
  5
31
100
AcDbSymbolTableRecord
100
AcDbLinetypeTableRecord
  2
DOT
 70
0
  3
Dot . . . . . . . . . . . . . . . . . . . . . .
 72
65
 73
2
 40
6.3499999999999996
 49
0.0
 74
0
 49
-6.3499999999999996
 74
0
  0
LTYPE
  5
32
100
AcDbSymbolTableRecord
100
AcDbLinetypeTableRecord
  2
DOT2
 70
0
  3
Dot (.5x) .....................................
 72
65
 73
2
 40
3.1749999999999998
 49
0.0
 74
0
 49
-3.1749999999999998
 74
0
  0
LTYPE
  5
33
100
AcDbSymbolTableRecord
100
AcDbLinetypeTableRecord
  2
DOTX2
 70
0
  3
Dot (2x) .  .  .  .  .  .  .  .  .  .  .  .  .
 72
65
 73
2
 40
12.699999999999999
 49
0.0
 74
0
 49
-12.699999999999999
 74
0
  0
LTYPE
  5
34
100
AcDbSymbolTableRecord
100
AcDbLinetypeTableRecord
  2
DASHED
 70
0
  3
Dashed __ __ __ __ __ __ __ __ __ __ __ __ __ _
 72
65
 73
2
 40
19.050000000000001
 49
12.699999999999999
 74
0
 49
-6.3499999999999996
 74
0
  0
LTYPE
  5
35
100
AcDbSymbolTableRecord
100
AcDbLinetypeTableRecord
  2
DASHED2
 70
0
  3
Dashed (.5x) _ _ _ _ _ _ _ _ _ _ _ _ _ _ _ _ _
 72
65
 73
2
 40
9.5250000000000004
 49
6.3499999999999996
 74
0
 49
-3.1749999999999998
 74
0
  0
LTYPE
  5
36
100
AcDbSymbolTableRecord
100
AcDbLinetypeTableRecord
  2
DASHEDX2
 70
0
  3
Dashed (2x) ____  ____  ____  ____  ____  ___
 72
65
 73
2
 40
38.100000000000001
 49
25.399999999999999
 74
0
 49
-12.699999999999999
 74
0
  0
LTYPE
  5
37
100
AcDbSymbolTableRecord
100
AcDbLinetypeTableRecord
  2
DASHDOT
 70
0
  3
Dash dot __ . __ . __ . __ . __ . __ . __ . __
 72
65
 73
4
 40
25.399999999999999
 49
12.699999999999999
 74
0
 49
-6.3499999999999996
 74
0
 49
0.0
 74
0
 49
-6.3499999999999996
 74
0
  0
LTYPE
  5
38
100
AcDbSymbolTableRecord
100
AcDbLinetypeTableRecord
  2
DASHDOT2
 70
0
  3
Dash dot (.5x) _._._._._._._._._._._._._._._.
 72
65
 73
4
 40
12.699999999999999
 49
6.3499999999999996
 74
0
 49
-3.1749999999999998
 74
0
 49
0.0
 74
0
 49
-3.1749999999999998
 74
0
  0
LTYPE
  5
39
100
AcDbSymbolTableRecord
100
AcDbLinetypeTableRecord
  2
DASHDOTX2
 70
0
  3
Dash dot (2x) ____  .  ____  .  ____  .  ___
 72
65
 73
4
 40
50.799999999999997
 49
25.399999999999999
 74
0
 49
-12.699999999999999
 74
0
 49
0.0
 74
0
 49
-12.699999999999999
 74
0
  0
LTYPE
  5
3A
100
AcDbSymbolTableRecord
100
AcDbLinetypeTableRecord
  2
DIVIDE
 70
0
  3
Divide ____ . . ____ . . ____ . . ____ . . ____
 72
65
 73
6
 40
31.75
 49
12.699999999999999
 74
0
 49
-6.3499999999999996
 74
0
 49
0.0
 74
0
 49
-6.3499999999999996
 74
0
 49
0.0
 74
0
 49
-6.3499999999999996
 74
0
  0
LTYPE
  5
3B
100
AcDbSymbolTableRecord
100
AcDbLinetypeTableRecord
  2
DIVIDE2
 70
0
  3
Divide (.5x) __..__..__..__..__..__..__..__.._
 72
65
 73
6
 40
15.875
 49
6.3499999999999996
 74
0
 49
-3.1749999999999998
 74
0
 49
0.0
 74
0
 49
-3.1749999999999998
 74
0
 49
0.0
 74
0
 49
-3.1749999999999998
 74
0
  0
LTYPE
  5
3C
100
AcDbSymbolTableRecord
100
AcDbLinetypeTableRecord
  2
DIVIDEX2
 70
0
  3
Divide (2x) ________  .  .  ________  .  .  _
 72
65
 73
6
 40
63.5
 49
25.399999999999999
 74
0
 49
-12.699999999999999
 74
0
 49
0.0
 74
0
 49
-12.699999999999999
 74
0
 49
0.0
 74
0
 49
-12.699999999999999
 74
0
  0
LTYPE
  5
3D
100
AcDbSymbolTableRecord
100
AcDbLinetypeTableRecord
  2
CENTER
 70
0
  3
Center ____ _ ____ _ ____ _ ____ _ ____ _ ____
 72
65
 73
4
 40
50.799999999999997
 49
31.75
 74
0
 49
-6.3499999999999996
 74
0
 49
6.3499999999999996
 74
0
 49
-6.3499999999999996
 74
0
  0
LTYPE
  5
3E
100
AcDbSymbolTableRecord
100
AcDbLinetypeTableRecord
  2
CENTER2
 70
0
  3
Center (.5x) ___ _ ___ _ ___ _ ___ _ ___ _ ___
 72
65
 73
4
 40
28.574999999999999
 49
19.050000000000001
 74
0
 49
-3.1749999999999998
 74
0
 49
3.1749999999999998
 74
0
 49
-3.1749999999999998
 74
0
  0
LTYPE
  5
3F
100
AcDbSymbolTableRecord
100
AcDbLinetypeTableRecord
  2
CENTERX2
 70
0
  3
Center (2x) ________  __  ________  __  _____
 72
65
 73
4
 40
101.59999999999999
 49
63.5
 74
0
 49
-12.699999999999999
 74
0
 49
12.699999999999999
 74
0
 49
-12.699999999999999
 74
0
  0
LTYPE
  5
40
100
AcDbSymbolTableRecord
100
AcDbLinetypeTableRecord
  2
BORDER
 70
0
  3
Border __ __ . __ __ . __ __ . __ __ . __ __ .
 72
65
 73
6
 40
44.450000000000003
 49
12.699999999999999
 74
0
 49
-6.3499999999999996
 74
0
 49
12.699999999999999
 74
0
 49
-6.3499999999999996
 74
0
 49
0.0
 74
0
 49
-6.3499999999999996
 74
0
  0
LTYPE
  5
41
100
AcDbSymbolTableRecord
100
AcDbLinetypeTableRecord
  2
BORDER2
 70
0
  3
Border (.5x) __.__.__.__.__.__.__.__.__.__.__.
 72
65
 73
6
 40
22.225000000000001
 49
6.3499999999999996
 74
0
 49
-3.1749999999999998
 74
0
 49
6.3499999999999996
 74
0
 49
-3.1749999999999998
 74
0
 49
0.0
 74
0
 49
-3.1749999999999998
 74
0
  0
LTYPE
  5
42
100
AcDbSymbolTableRecord
100
AcDbLinetypeTableRecord
  2
BORDERX2
 70
0
  3
Border (2x) ____  ____  .  ____  ____  .  ___
 72
65
 73
6
 40
88.900000000000006
 49
25.399999999999999
 74
0
 49
-12.699999999999999
 74
0
 49
25.399999999999999
 74
0
 49
-12.699999999999999
 74
0
 49
0.0
 74
0
 49
-12.699999999999999
 74
0
  0
ENDTAB
  0
TABLE
  2
LAYER
  5
2
100
AcDbSymbolTable
 70
2
  0
LAYER
  5
10
100
AcDbSymbolTableRecord
100
AcDbLayerTableRecord
  2
0
 70
0
 62
7
  6
CONTINUOUS
390
F
  0
LAYER
  5
43
100
AcDbSymbolTableRecord
100
AcDbLayerTableRecord
  2
Layer_1
 70
0
 62
7
  6
CONTINUOUS
390
F
  0
ENDTAB
  0
TABLE
  2
STYLE
  5
3
100
AcDbSymbolTable
 70
1
  0
STYLE
  5
11
100
AcDbSymbolTableRecord
100
AcDbTextStyleTableRecord
  2
Standard
 70
0
 40
0.0
 41
0.75
 50
0.0
 71
0
 42
2.5
  3
txt
  4

  0
ENDTAB
  0
TABLE
  2
VIEW
  5
6
100
AcDbSymbolTable
 70
0
  0
ENDTAB
  0
TABLE
  2
UCS
  5
7
100
AcDbSymbolTable
 70
0
  0
ENDTAB
  0
TABLE
  2
APPID
  5
9
100
AcDbSymbolTable
 70
1
  0
APPID
  5
12
100
AcDbSymbolTableRecord
100
AcDbRegAppTableRecord
  2
ACAD
 70
0
  0
ENDTAB
  0
TABLE
  2
DIMSTYLE
  5
A
100
AcDbSymbolTable
 70
1
100
AcDbDimStyleTable
 71
0
  0
DIMSTYLE
105
27
100
AcDbSymbolTableRecord
100
AcDbDimStyleTableRecord
  2
Standard
 41
2.5
 42
0.625
 43
3.75
 44
1.25
 70
0
 73
0
 74
0
 77
1
 78
8
140
2.5
141
2.5
143
0.03937007874016
147
0.625
171
3
172
1
271
2
272
2
274
3
278
44
283
0
284
8
340
11
  0
ENDTAB
  0
TABLE
  2
BLOCK_RECORD
  5
1
100
AcDbSymbolTable
 70
1
  0
BLOCK_RECORD
  5
1F
100
AcDbSymbolTableRecord
100
AcDbBlockTableRecord
  2
*Model_Space
340
22
  0
BLOCK_RECORD
  5
1B
100
AcDbSymbolTableRecord
100
AcDbBlockTableRecord
  2
*Paper_Space
340
1E
  0
BLOCK_RECORD
  5
23
100
AcDbSymbolTableRecord
100
AcDbBlockTableRecord
  2
*Paper_Space0
340
26
  0
ENDTAB
  0
ENDSEC
  0
SECTION
  2
BLOCKS
  0
BLOCK
  5
20
100
AcDbEntity
  8
0
100
AcDbBlockBegin
  2
*Model_Space
 70
0
 10
0.0
 20
0.0
 30
0.0
  3
*Model_Space
  1

  0
ENDBLK
  5
21
100
AcDbEntity
  8
0
100
AcDbBlockEnd
  0
BLOCK
  5
1C
100
AcDbEntity
 67
1
  8
0
100
AcDbBlockBegin
  2
*Paper_Space
 70
0
 10
0.0
 20
0.0
 30
0.0
  3
*Paper_Space
  1

  0
ENDBLK
  5
1D
100
AcDbEntity
 67
1
  8
0
100
AcDbBlockEnd
  0
BLOCK
  5
24
100
AcDbEntity
  8
0
100
AcDbBlockBegin
  2
*Paper_Space0
 70
0
 10
0.0
 20
0.0
 30
0.0
  3
*Paper_Space0
  1

  0
ENDBLK
  5
25
100
AcDbEntity
  8
0
100
AcDbBlockEnd
  0
ENDSEC
  0
SECTION
  2
ENTITIES
  0
SPLINE
  5
44
  8
Layer_1
 62
1
420
16711680
370
-1
  6
ByLayer
100
AcDbEntity
100
AcDbSpline
 70
8
 71
3
 72
8
 73
4
 74
0
 40
0.0
 40
0.0
 40
0.0
 40
0.0
 40
1.0
 40
1.0
 40
1.0
 40
1.0
 10
6.0842330000000002
 20
1.286397
 30
0.0
 10
3.432191
 20
1.286397
 30
0.0
 10
1.2833509999999999
 20
3.4355190000000002
 30
0.0
 10
1.2833509999999999
 20
6.0864330000000004
 30
0.0
  0
SPLINE
  5
45
  8
Layer_1
 62
1
420
16711680
370
-1
  6
ByLayer
100
AcDbEntity
100
AcDbSpline
 70
8
 71
3
 72
8
 73
4
 74
0
 40
0.0
 40
0.0
 40
0.0
 40
0.0
 40
1.0
 40
1.0
 40
1.0
 40
1.0
 10
1.2833509999999999
 20
190.08657299999999
 30
0.0
 10
1.2833509999999999
 20
192.73748599999999
 30
0.0
 10
3.4319090000000001
 20
194.886608
 30
0.0
 10
6.0842330000000002
 20
194.886608
 30
0.0
  0
LWPOLYLINE
  5
46
  8
Layer_1
 62
1
420
16711680
370
-1
  6
ByLayer
100
AcDbEntity
100
AcDbPolyline
 90
2
 70
0
 10
1.2833509999999999
 20
6.0864330000000004
 10
1.2833509999999999
 20
190.08657299999999
  0
SPLINE
  5
47
  8
Layer_1
 62
1
420
16711680
370
-1
  6
ByLayer
100
AcDbEntity
100
AcDbSpline
 70
8
 71
3
 72
8
 73
4
 74
0
 40
0.0
 40
0.0
 40
0.0
 40
0.0
 40
1.0
 40
1.0
 40
1.0
 40
1.0
 10
190.08493799999999
 20
194.886608
 30
0.0
 10
192.736133
 20
194.886608
 30
0.0
 10
194.885538
 20
192.73748599999999
 30
0.0
 10
194.885538
 20
190.08657299999999
 30
0.0
  0
LWPOLYLINE
  5
48
  8
Layer_1
 62
1
420
16711680
370
-1
  6
ByLayer
100
AcDbEntity
100
AcDbPolyline
 90
2
 70
0
 10
6.0842330000000002
 20
194.886608
 10
190.08493799999999
 20
194.886608
  0
SPLINE
  5
49
  8
Layer_1
 62
1
420
16711680
370
-1
  6
ByLayer
100
AcDbEntity
100
AcDbSpline
 70
8
 71
3
 72
8
 73
4
 74
0
 40
0.0
 40
0.0
 40
0.0
 40
0.0
 40
1.0
 40
1.0
 40
1.0
 40
1.0
 10
194.885538
 20
6.0864330000000004
 30
0.0
 10
194.885538
 20
3.4355190000000002
 30
0.0
 10
192.736133
 20
1.286397
 30
0.0
 10
190.08493799999999
 20
1.286397
 30
0.0
  0
LWPOLYLINE
  5
4A
  8
Layer_1
 62
1
420
16711680
370
-1
  6
ByLayer
100
AcDbEntity
100
AcDbPolyline
 90
2
 70
0
 10
194.885538
 20
190.08657299999999
 10
194.885538
 20
6.0864330000000004
  0
LWPOLYLINE
  5
4B
  8
Layer_1
 62
1
420
16711680
370
-1
  6
ByLayer
100
AcDbEntity
100
AcDbPolyline
 90
3
 70
0
 10
190.08493799999999
 20
1.286397
 10
6.0842330000000002
 20
1.286397
 10
6.0842330000000002
 20
1.286397
  0
LWPOLYLINE
  5
4C
  8
Layer_1
 62
5
420
255
370
-1
  6
ByLayer
100
AcDbEntity
100
AcDbPolyline
 90
2
 70
0
 10
90.084856000000002
 20
7.0047839999999999
 10
90.084856000000002
 20
10.085521999999999
  0
LWPOLYLINE
  5
4D
  8
Layer_1
 62
5
420
255
370
-1
  6
ByLayer
100
AcDbEntity
100
AcDbPolyline
 90
2
 70
0
 10
82.084701999999993
 20
10.085521999999999
 10
82.084701999999993
 20
7.0047839999999999
  0
LWPOLYLINE
  5
4E
  8
Layer_1
 62
5
420
255
370
-1
  6
ByLayer
100
AcDbEntity
100
AcDbPolyline
 90
2
 70
0
 10
82.084701999999993
 20
186.08691899999999
 10
82.084701999999993
 20
189.16850400000001
  0
LWPOLYLINE
  5
4F
  8
Layer_1
 62
5
420
255
370
-1
  6
ByLayer
100
AcDbEntity
100
AcDbPolyline
 90
2
 70
0
 10
74.084830999999994
 20
189.16850400000001
 10
74.084830999999994
 20
186.08691899999999
  0
LWPOLYLINE
  5
50
  8
Layer_1
 62
5
420
255
370
-1
  6
ByLayer
100
AcDbEntity
100
AcDbPolyline
 90
2
 70
0
 10
74.084830999999994
 20
7.0047839999999999
 10
74.084830999999994
 20
10.085521999999999
  0
LWPOLYLINE
  5
51
  8
Layer_1
 62
5
420
255
370
-1
  6
ByLayer
100
AcDbEntity
100
AcDbPolyline
 90
2
 70
0
 10
66.084677999999997
 20
186.08691899999999
 10
66.084677999999997
 20
189.16850400000001
  0
LWPOLYLINE
  5
52
  8
Layer_1
 62
5
420
255
370
-1
  6
ByLayer
100
AcDbEntity
100
AcDbPolyline
 90
2
 70
0
 10
66.084677999999997
 20
10.085521999999999
 10
66.084677999999997
 20
7.0047839999999999
  0
LWPOLYLINE
  5
53
  8
Layer_1
 62
5
420
255
370
-1
  6
ByLayer
100
AcDbEntity
100
AcDbPolyline
 90
2
 70
0
 10
58.084242000000003
 20
189.16850400000001
 10
58.084242000000003
 20
186.08691899999999
  0
LWPOLYLINE
  5
54
  8
Layer_1
 62
5
420
255
370
-1
  6
ByLayer
100
AcDbEntity
100
AcDbPolyline
 90
2
 70
0
 10
58.084242000000003
 20
7.0047839999999999
 10
58.084242000000003
 20
10.085521999999999
  0
LWPOLYLINE
  5
55
  8
Layer_1
 62
5
420
255
370
-1
  6
ByLayer
100
AcDbEntity
100
AcDbPolyline
 90
2
 70
0
 10
50.084935999999999
 20
186.08691899999999
 10
50.084935999999999
 20
189.16850400000001
  0
LWPOLYLINE
  5
56
  8
Layer_1
 62
5
420
255
370
-1
  6
ByLayer
100
AcDbEntity
100
AcDbPolyline
 90
2
 70
0
 10
50.084935999999999
 20
10.085521999999999
 10
50.084935999999999
 20
7.0047839999999999
  0
LWPOLYLINE
  5
57
  8
Layer_1
 62
5
420
255
370
-1
  6
ByLayer
100
AcDbEntity
100
AcDbPolyline
 90
2
 70
0
 10
42.082807000000003
 20
189.16850400000001
 10
42.082807000000003
 20
186.08691899999999
  0
LWPOLYLINE
  5
58
  8
Layer_1
 62
5
420
255
370
-1
  6
ByLayer
100
AcDbEntity
100
AcDbPolyline
 90
2
 70
0
 10
42.082807000000003
 20
7.0047839999999999
 10
42.082807000000003
 20
10.085521999999999
  0
LWPOLYLINE
  5
59
  8
Layer_1
 62
5
420
255
370
-1
  6
ByLayer
100
AcDbEntity
100
AcDbPolyline
 90
2
 70
0
 10
34.082371000000002
 20
10.085521999999999
 10
34.082371000000002
 20
7.0047839999999999
  0
LWPOLYLINE
  5
5A
  8
Layer_1
 62
5
420
255
370
-1
  6
ByLayer
100
AcDbEntity
100
AcDbPolyline
 90
2
 70
0
 10
34.082371000000002
 20
186.08691899999999
 10
34.082371000000002
 20
189.16850400000001
  0
LWPOLYLINE
  5
5B
  8
Layer_1
 62
5
420
255
370
-1
  6
ByLayer
100
AcDbEntity
100
AcDbPolyline
 90
2
 70
0
 10
26.082218000000001
 20
7.0047839999999999
 10
26.082218000000001
 20
10.085521999999999
  0
LWPOLYLINE
  5
5C
  8
Layer_1
 62
5
420
255
370
-1
  6
ByLayer
100
AcDbEntity
100
AcDbPolyline
 90
2
 70
0
 10
26.082218000000001
 20
189.16850400000001
 10
26.082218000000001
 20
186.08691899999999
  0
LWPOLYLINE
  5
5D
  8
Layer_1
 62
5
420
255
370
-1
  6
ByLayer
100
AcDbEntity
100
AcDbPolyline
 90
2
 70
0
 10
18.082346999999999
 20
10.085521999999999
 10
18.082346999999999
 20
7.0047839999999999
  0
LWPOLYLINE
  5
5E
  8
Layer_1
 62
5
420
255
370
-1
  6
ByLayer
100
AcDbEntity
100
AcDbPolyline
 90
2
 70
0
 10
18.082346999999999
 20
186.08691899999999
 10
18.082346999999999
 20
189.16850400000001
  0
LWPOLYLINE
  5
5F
  8
Layer_1
 62
5
420
255
370
-1
  6
ByLayer
100
AcDbEntity
100
AcDbPolyline
 90
2
 70
0
 10
10.082476
 20
7.0047839999999999
 10
10.082476
 20
189.16850400000001
  0
LWPOLYLINE
  5
60
  8
Layer_1
 62
5
420
255
370
-1
  6
ByLayer
100
AcDbEntity
100
AcDbPolyline
 90
2
 70
0
 10
189.33196899999999
 20
186.08691899999999
 10
6.8352269999999997
 20
186.08691899999999
  0
LWPOLYLINE
  5
61
  8
Layer_1
 62
5
420
255
370
-1
  6
ByLayer
100
AcDbEntity
100
AcDbPolyline
 90
2
 70
0
 10
189.33196899999999
 20
178.08733000000001
 10
186.085002
 20
178.08733000000001
  0
LWPOLYLINE
  5
62
  8
Layer_1
 62
5
420
255
370
-1
  6
ByLayer
100
AcDbEntity
100
AcDbPolyline
 90
2
 70
0
 10
6.8352269999999997
 20
178.08733000000001
 10
10.082476
 20
178.08733000000001
  0
LWPOLYLINE
  5
63
  8
Layer_1
 62
5
420
255
370
-1
  6
ByLayer
100
AcDbEntity
100
AcDbPolyline
 90
2
 70
0
 10
6.8352269999999997
 20
170.087177
 10
10.082476
 20
170.087177
  0
LWPOLYLINE
  5
64
  8
Layer_1
 62
5
420
255
370
-1
  6
ByLayer
100
AcDbEntity
100
AcDbPolyline
 90
2
 70
0
 10
189.33196899999999
 20
170.087177
 10
186.085002
 20
170.087177
  0
LWPOLYLINE
  5
65
  8
Layer_1
 62
5
420
255
370
-1
  6
ByLayer
100
AcDbEntity
100
AcDbPolyline
 90
2
 70
0
 10
189.33196899999999
 20
162.08730600000001
 10
186.085002
 20
162.08730600000001
  0
LWPOLYLINE
  5
66
  8
Layer_1
 62
5
420
255
370
-1
  6
ByLayer
100
AcDbEntity
100
AcDbPolyline
 90
2
 70
0
 10
6.8352269999999997
 20
162.08730600000001
 10
10.082476
 20
162.08730600000001
  0
LWPOLYLINE
  5
67
  8
Layer_1
 62
5
420
255
370
-1
  6
ByLayer
100
AcDbEntity
100
AcDbPolyline
 90
2
 70
0
 10
6.8352269999999997
 20
154.08687
 10
10.082476
 20
154.08687
  0
LWPOLYLINE
  5
68
  8
Layer_1
 62
5
420
255
370
-1
  6
ByLayer
100
AcDbEntity
100
AcDbPolyline
 90
2
 70
0
 10
189.33196899999999
 20
154.08687
 10
186.085002
 20
154.08687
  0
LWPOLYLINE
  5
69
  8
Layer_1
 62
5
420
255
370
-1
  6
ByLayer
100
AcDbEntity
100
AcDbPolyline
 90
2
 70
0
 10
189.33196899999999
 20
146.08699899999999
 10
186.085002
 20
146.08699899999999
  0
LWPOLYLINE
  5
6A
  8
Layer_1
 62
5
420
255
370
-1
  6
ByLayer
100
AcDbEntity
100
AcDbPolyline
 90
2
 70
0
 10
6.8352269999999997
 20
146.08699899999999
 10
10.082476
 20
146.08699899999999
  0
LWPOLYLINE
  5
6B
  8
Layer_1
 62
5
420
255
370
-1
  6
ByLayer
100
AcDbEntity
100
AcDbPolyline
 90
2
 70
0
 10
189.33196899999999
 20
138.08656400000001
 10
186.085002
 20
138.08656400000001
  0
LWPOLYLINE
  5
6C
  8
Layer_1
 62
5
420
255
370
-1
  6
ByLayer
100
AcDbEntity
100
AcDbPolyline
 90
2
 70
0
 10
6.8352269999999997
 20
138.08656400000001
 10
10.082476
 20
138.08656400000001
  0
LWPOLYLINE
  5
6D
  8
Layer_1
 62
5
420
255
370
-1
  6
ByLayer
100
AcDbEntity
100
AcDbPolyline
 90
2
 70
0
 10
6.8352269999999997
 20
130.086693
 10
10.082476
 20
130.086693
  0
LWPOLYLINE
  5
6E
  8
Layer_1
 62
5
420
255
370
-1
  6
ByLayer
100
AcDbEntity
100
AcDbPolyline
 90
2
 70
0
 10
189.33196899999999
 20
130.086693
 10
186.085002
 20
130.086693
  0
LWPOLYLINE
  5
6F
  8
Layer_1
 62
5
420
255
370
-1
  6
ByLayer
100
AcDbEntity
100
AcDbPolyline
 90
2
 70
0
 10
6.8352269999999997
 20
122.086539
 10
10.082476
 20
122.086539
  0
LWPOLYLINE
  5
70
  8
Layer_1
 62
5
420
255
370
-1
  6
ByLayer
100
AcDbEntity
100
AcDbPolyline
 90
2
 70
0
 10
189.33196899999999
 20
122.086539
 10
186.085002
 20
122.086539
  0
LWPOLYLINE
  5
71
  8
Layer_1
 62
5
420
255
370
-1
  6
ByLayer
100
AcDbEntity
100
AcDbPolyline
 90
2
 70
0
 10
189.33196899999999
 20
114.086668
 10
186.085002
 20
114.086668
  0
LWPOLYLINE
  5
72
  8
Layer_1
 62
5
420
255
370
-1
  6
ByLayer
100
AcDbEntity
100
AcDbPolyline
 90
2
 70
0
 10
6.8352269999999997
 20
114.086668
 10
10.082476
 20
114.086668
  0
LWPOLYLINE
  5
73
  8
Layer_1
 62
5
420
255
370
-1
  6
ByLayer
100
AcDbEntity
100
AcDbPolyline
 90
2
 70
0
 10
6.8352269999999997
 20
106.08651500000001
 10
10.082476
 20
106.08651500000001
  0
LWPOLYLINE
  5
74
  8
Layer_1
 62
5
420
255
370
-1
  6
ByLayer
100
AcDbEntity
100
AcDbPolyline
 90
2
 70
0
 10
189.33196899999999
 20
106.08651500000001
 10
186.085002
 20
106.08651500000001
  0
LWPOLYLINE
  5
75
  8
Layer_1
 62
5
420
255
370
-1
  6
ByLayer
100
AcDbEntity
100
AcDbPolyline
 90
2
 70
0
 10
6.8352269999999997
 20
98.086644000000007
 10
10.082476
 20
98.086644000000007
  0
LWPOLYLINE
  5
76
  8
Layer_1
 62
5
420
255
370
-1
  6
ByLayer
100
AcDbEntity
100
AcDbPolyline
 90
2
 70
0
 10
189.33196899999999
 20
98.086644000000007
 10
186.085002
 20
98.086644000000007
  0
LWPOLYLINE
  5
77
  8
Layer_1
 62
5
420
255
370
-1
  6
ByLayer
100
AcDbEntity
100
AcDbPolyline
 90
2
 70
0
 10
6.8352269999999997
 20
90.085926000000001
 10
10.082476
 20
90.085926000000001
  0
LWPOLYLINE
  5
78
  8
Layer_1
 62
5
420
255
370
-1
  6
ByLayer
100
AcDbEntity
100
AcDbPolyline
 90
2
 70
0
 10
189.33196899999999
 20
90.085926000000001
 10
186.085002
 20
90.085926000000001
  0
LWPOLYLINE
  5
79
  8
Layer_1
 62
5
420
255
370
-1
  6
ByLayer
100
AcDbEntity
100
AcDbPolyline
 90
2
 70
0
 10
189.33196899999999
 20
82.086337
 10
186.085002
 20
82.086337
  0
LWPOLYLINE
  5
7A
  8
Layer_1
 62
5
420
255
370
-1
  6
ByLayer
100
AcDbEntity
100
AcDbPolyline
 90
2
 70
0
 10
6.8352269999999997
 20
82.086337
 10
10.082476
 20
82.086337
  0
LWPOLYLINE
  5
7B
  8
Layer_1
 62
5
420
255
370
-1
  6
ByLayer
100
AcDbEntity
100
AcDbPolyline
 90
2
 70
0
 10
6.8352269999999997
 20
74.085902000000004
 10
10.082476
 20
74.085902000000004
  0
LWPOLYLINE
  5
7C
  8
Layer_1
 62
5
420
255
370
-1
  6
ByLayer
100
AcDbEntity
100
AcDbPolyline
 90
2
 70
0
 10
189.33196899999999
 20
74.085902000000004
 10
186.085002
 20
74.085902000000004
  0
LWPOLYLINE
  5
7D
  8
Layer_1
 62
5
420
255
370
-1
  6
ByLayer
100
AcDbEntity
100
AcDbPolyline
 90
2
 70
0
 10
6.8352269999999997
 20
66.086029999999994
 10
10.082476
 20
66.086029999999994
  0
LWPOLYLINE
  5
7E
  8
Layer_1
 62
5
420
255
370
-1
  6
ByLayer
100
AcDbEntity
100
AcDbPolyline
 90
2
 70
0
 10
189.33196899999999
 20
66.086029999999994
 10
186.085002
 20
66.086029999999994
  0
LWPOLYLINE
  5
7F
  8
Layer_1
 62
5
420
255
370
-1
  6
ByLayer
100
AcDbEntity
100
AcDbPolyline
 90
2
 70
0
 10
189.33196899999999
 20
58.085877000000004
 10
186.085002
 20
58.085877000000004
  0
LWPOLYLINE
  5
80
  8
Layer_1
 62
5
420
255
370
-1
  6
ByLayer
100
AcDbEntity
100
AcDbPolyline
 90
2
 70
0
 10
6.8352269999999997
 20
58.085877000000004
 10
10.082476
 20
58.085877000000004
  0
LWPOLYLINE
  5
81
  8
Layer_1
 62
5
420
255
370
-1
  6
ByLayer
100
AcDbEntity
100
AcDbPolyline
 90
2
 70
0
 10
6.8352269999999997
 20
50.086005999999998
 10
10.082476
 20
50.086005999999998
  0
LWPOLYLINE
  5
82
  8
Layer_1
 62
5
420
255
370
-1
  6
ByLayer
100
AcDbEntity
100
AcDbPolyline
 90
2
 70
0
 10
189.33196899999999
 20
50.086005999999998
 10
186.085002
 20
50.086005999999998
  0
LWPOLYLINE
  5
83
  8
Layer_1
 62
5
420
255
370
-1
  6
ByLayer
100
AcDbEntity
100
AcDbPolyline
 90
2
 70
0
 10
6.8352269999999997
 20
42.085569999999997
 10
10.082476
 20
42.085569999999997
  0
LWPOLYLINE
  5
84
  8
Layer_1
 62
5
420
255
370
-1
  6
ByLayer
100
AcDbEntity
100
AcDbPolyline
 90
2
 70
0
 10
189.33196899999999
 20
42.085569999999997
 10
186.085002
 20
42.085569999999997
  0
LWPOLYLINE
  5
85
  8
Layer_1
 62
5
420
255
370
-1
  6
ByLayer
100
AcDbEntity
100
AcDbPolyline
 90
2
 70
0
 10
189.33196899999999
 20
34.085698999999998
 10
186.085002
 20
34.085698999999998
  0
LWPOLYLINE
  5
86
  8
Layer_1
 62
5
420
255
370
-1
  6
ByLayer
100
AcDbEntity
100
AcDbPolyline
 90
2
 70
0
 10
6.8352269999999997
 20
34.085698999999998
 10
10.082476
 20
34.085698999999998
  0
LWPOLYLINE
  5
87
  8
Layer_1
 62
5
420
255
370
-1
  6
ByLayer
100
AcDbEntity
100
AcDbPolyline
 90
2
 70
0
 10
6.8352269999999997
 20
26.085546000000001
 10
10.082476
 20
26.085546000000001
  0
LWPOLYLINE
  5
88
  8
Layer_1
 62
5
420
255
370
-1
  6
ByLayer
100
AcDbEntity
100
AcDbPolyline
 90
2
 70
0
 10
189.33196899999999
 20
26.085546000000001
 10
186.085002
 20
26.085546000000001
  0
LWPOLYLINE
  5
89
  8
Layer_1
 62
5
420
255
370
-1
  6
ByLayer
100
AcDbEntity
100
AcDbPolyline
 90
2
 70
0
 10
6.8352269999999997
 20
18.085957000000001
 10
10.082476
 20
18.085957000000001
  0
LWPOLYLINE
  5
8A
  8
Layer_1
 62
5
420
255
370
-1
  6
ByLayer
100
AcDbEntity
100
AcDbPolyline
 90
2
 70
0
 10
189.33196899999999
 20
18.085957000000001
 10
186.085002
 20
18.085957000000001
  0
SPLINE
  5
8B
  8
Layer_1
 62
5
420
255
370
-1
  6
ByLayer
100
AcDbEntity
100
AcDbSpline
 70
8
 71
3
 72
8
 73
4
 74
0
 40
0.0
 40
0.0
 40
0.0
 40
0.0
 40
1.0
 40
1.0
 40
1.0
 40
1.0
 10
161.77184
 20
4.0612060000000003
 30
0.0
 10
161.77184
 20
4.2666639999999996
 30
0.0
 10
161.647662
 20
4.4117259999999998
 30
0.0
 10
161.454622
 20
4.4117259999999998
 30
0.0
  0
SPLINE
  5
8C
  8
Layer_1
 62
5
420
255
370
-1
  6
ByLayer
100
AcDbEntity
100
AcDbSpline
 70
8
 71
3
 72
8
 73
4
 74
0
 40
0.0
 40
0.0
 40
0.0
 40
0.0
 40
1.0
 40
1.0
 40
1.0
 40
1.0
 10
161.454622
 20
4.4117259999999998
 30
0.0
 10
161.30476200000001
 20
4.4117259999999998
 30
0.0
 10
161.18735799999999
 20
4.3377840000000001
 30
0.0
 10
161.129502
 20
4.2387240000000004
 30
0.0
  0
SPLINE
  5
8D
  8
Layer_1
 62
5
420
255
370
-1
  6
ByLayer
100
AcDbEntity
100
AcDbSpline
 70
8
 71
3
 72
8
 73
4
 74
0
 40
0.0
 40
0.0
 40
0.0
 40
0.0
 40
1.0
 40
1.0
 40
1.0
 40
1.0
 10
161.129502
 20
4.2387240000000004
 30
0.0
 10
161.11623800000001
 20
4.2158639999999998
 30
0.0
 10
161.10861800000001
 20
4.1930040000000002
 30
0.0
 10
161.10861800000001
 20
4.1549040000000002
 30
0.0
  0
SPLINE
  5
8E
  8
Layer_1
 62
5
420
255
370
-1
  6
ByLayer
100
AcDbEntity
100
AcDbSpline
 70
8
 71
3
 72
8
 73
4
 74
0
 40
0.0
 40
0.0
 40
0.0
 40
0.0
 40
1.0
 40
1.0
 40
1.0
 40
1.0
 10
161.10861800000001
 20
4.1549040000000002
 30
0.0
 10
161.10861800000001
 20
3.873246
 30
0.0
 10
161.21304000000001
 20
3.657346
 30
0.0
 10
161.44897800000001
 20
3.657346
 30
0.0
  0
SPLINE
  5
8F
  8
Layer_1
 62
5
420
255
370
-1
  6
ByLayer
100
AcDbEntity
100
AcDbSpline
 70
8
 71
3
 72
8
 73
4
 74
0
 40
0.0
 40
0.0
 40
0.0
 40
0.0
 40
1.0
 40
1.0
 40
1.0
 40
1.0
 10
161.44897800000001
 20
3.657346
 30
0.0
 10
161.63750200000001
 20
3.657346
 30
0.0
 10
161.77184
 20
3.8247040000000001
 30
0.0
 10
161.77184
 20
4.0612060000000003
 30
0.0
  0
LWPOLYLINE
  5
90
  8
Layer_1
 62
5
420
255
370
-1
  6
ByLayer
100
AcDbEntity
100
AcDbPolyline
 90
2
 70
0
 10
6.8352269999999997
 20
10.085521999999999
 10
189.33196899999999
 20
10.085521999999999
  0
SPLINE
  5
91
  8
Layer_1
 62
5
420
255
370
-1
  6
ByLayer
100
AcDbEntity
100
AcDbSpline
 70
8
 71
3
 72
8
 73
4
 74
0
 40
0.0
 40
0.0
 40
0.0
 40
0.0
 40
1.0
 40
1.0
 40
1.0
 40
1.0
 10
153.729918
 20
3.9110640000000001
 30
0.0
 10
153.73274000000001
 20
4.075882
 30
0.0
 10
153.605176
 20
4.1653460000000004
 30
0.0
 10
153.41411099999999
 20
4.2158639999999998
 30
0.0
  0
SPLINE
  5
92
  8
Layer_1
 62
5
420
255
370
-1
  6
ByLayer
100
AcDbEntity
100
AcDbSpline
 70
8
 71
3
 72
8
 73
4
 74
0
 40
0.0
 40
0.0
 40
0.0
 40
0.0
 40
1.0
 40
1.0
 40
1.0
 40
1.0
 10
153.41411099999999
 20
4.2158639999999998
 30
0.0
 10
153.272436
 20
4.1676039999999999
 30
0.0
 10
153.16293300000001
 20
4.0660040000000004
 30
0.0
 10
153.16293300000001
 20
3.9161440000000001
 30
0.0
  0
SPLINE
  5
93
  8
Layer_1
 62
5
420
255
370
-1
  6
ByLayer
100
AcDbEntity
100
AcDbSpline
 70
8
 71
3
 72
8
 73
4
 74
0
 40
0.0
 40
0.0
 40
0.0
 40
0.0
 40
1.0
 40
1.0
 40
1.0
 40
1.0
 10
153.16293300000001
 20
3.9161440000000001
 30
0.0
 10
153.16293300000001
 20
3.783782
 30
0.0
 10
153.24139099999999
 20
3.6466219999999998
 30
0.0
 10
153.44233299999999
 20
3.6466219999999998
 30
0.0
  0
SPLINE
  5
94
  8
Layer_1
 62
5
420
255
370
-1
  6
ByLayer
100
AcDbEntity
100
AcDbSpline
 70
8
 71
3
 72
8
 73
4
 74
0
 40
0.0
 40
0.0
 40
0.0
 40
0.0
 40
1.0
 40
1.0
 40
1.0
 40
1.0
 10
153.44233299999999
 20
3.6466219999999998
 30
0.0
 10
153.62775300000001
 20
3.6469040000000001
 30
0.0
 10
153.729918
 20
3.768824
 30
0.0
 10
153.729918
 20
3.9110640000000001
 30
0.0
  0
LWPOLYLINE
  5
95
  8
Layer_1
 62
5
420
255
370
-1
  6
ByLayer
100
AcDbEntity
100
AcDbPolyline
 90
2
 70
0
 10
161.77184
 20
4.0612060000000003
 10
161.77184
 20
4.0612060000000003
  0
SPLINE
  5
96
  8
Layer_1
 62
5
420
255
370
-1
  6
ByLayer
100
AcDbEntity
100
AcDbSpline
 70
8
 71
3
 72
8
 73
4
 74
0
 40
0.0
 40
0.0
 40
0.0
 40
0.0
 40
1.0
 40
1.0
 40
1.0
 40
1.0
 10
82.424216000000001
 20
4.0612060000000003
 30
0.0
 10
82.424216000000001
 20
4.2666639999999996
 30
0.0
 10
82.300038000000001
 20
4.4117259999999998
 30
0.0
 10
82.106998000000004
 20
4.4117259999999998
 30
0.0
  0
SPLINE
  5
97
  8
Layer_1
 62
5
420
255
370
-1
  6
ByLayer
100
AcDbEntity
100
AcDbSpline
 70
8
 71
3
 72
8
 73
4
 74
0
 40
0.0
 40
0.0
 40
0.0
 40
0.0
 40
1.0
 40
1.0
 40
1.0
 40
1.0
 10
82.106998000000004
 20
4.4117259999999998
 30
0.0
 10
81.956573000000006
 20
4.4117259999999998
 30
0.0
 10
81.840016000000006
 20
4.3377840000000001
 30
0.0
 10
81.781595999999993
 20
4.2387240000000004
 30
0.0
  0
SPLINE
  5
98
  8
Layer_1
 62
5
420
255
370
-1
  6
ByLayer
100
AcDbEntity
100
AcDbSpline
 70
8
 71
3
 72
8
 73
4
 74
0
 40
0.0
 40
0.0
 40
0.0
 40
0.0
 40
1.0
 40
1.0
 40
1.0
 40
1.0
 10
81.781595999999993
 20
4.2387240000000004
 30
0.0
 10
81.768613000000002
 20
4.2158639999999998
 30
0.0
 10
81.761275999999995
 20
4.1930040000000002
 30
0.0
 10
81.761275999999995
 20
4.1549040000000002
 30
0.0
  0
SPLINE
  5
99
  8
Layer_1
 62
5
420
255
370
-1
  6
ByLayer
100
AcDbEntity
100
AcDbSpline
 70
8
 71
3
 72
8
 73
4
 74
0
 40
0.0
 40
0.0
 40
0.0
 40
0.0
 40
1.0
 40
1.0
 40
1.0
 40
1.0
 10
81.761275999999995
 20
4.1549040000000002
 30
0.0
 10
81.761275999999995
 20
3.873246
 30
0.0
 10
81.865415999999996
 20
3.657346
 30
0.0
 10
82.101917999999998
 20
3.657346
 30
0.0
  0
SPLINE
  5
9A
  8
Layer_1
 62
5
420
255
370
-1
  6
ByLayer
100
AcDbEntity
100
AcDbSpline
 70
8
 71
3
 72
8
 73
4
 74
0
 40
0.0
 40
0.0
 40
0.0
 40
0.0
 40
1.0
 40
1.0
 40
1.0
 40
1.0
 10
82.101917999999998
 20
3.657346
 30
0.0
 10
82.289878000000002
 20
3.657346
 30
0.0
 10
82.424216000000001
 20
3.8247040000000001
 30
0.0
 10
82.424216000000001
 20
4.0612060000000003
 30
0.0
  0
LWPOLYLINE
  5
9B
  8
Layer_1
 62
5
420
255
370
-1
  6
ByLayer
100
AcDbEntity
100
AcDbPolyline
 90
2
 70
0
 10
153.729918
 20
3.9110640000000001
 10
153.729918
 20
3.9110640000000001
  0
SPLINE
  5
9C
  8
Layer_1
 62
5
420
255
370
-1
  6
ByLayer
100
AcDbEntity
100
AcDbSpline
 70
8
 71
3
 72
8
 73
4
 74
0
 40
0.0
 40
0.0
 40
0.0
 40
0.0
 40
1.0
 40
1.0
 40
1.0
 40
1.0
 10
74.380882
 20
3.9110640000000001
 30
0.0
 10
74.383703999999994
 20
4.075882
 30
0.0
 10
74.256703999999999
 20
4.1653460000000004
 30
0.0
 10
74.065640000000002
 20
4.2158639999999998
 30
0.0
  0
SPLINE
  5
9D
  8
Layer_1
 62
5
420
255
370
-1
  6
ByLayer
100
AcDbEntity
100
AcDbSpline
 70
8
 71
3
 72
8
 73
4
 74
0
 40
0.0
 40
0.0
 40
0.0
 40
0.0
 40
1.0
 40
1.0
 40
1.0
 40
1.0
 10
74.065640000000002
 20
4.2158639999999998
 30
0.0
 10
73.923681999999999
 20
4.1676039999999999
 30
0.0
 10
73.814462000000006
 20
4.0660040000000004
 30
0.0
 10
73.814462000000006
 20
3.9161440000000001
 30
0.0
  0
SPLINE
  5
9E
  8
Layer_1
 62
5
420
255
370
-1
  6
ByLayer
100
AcDbEntity
100
AcDbSpline
 70
8
 71
3
 72
8
 73
4
 74
0
 40
0.0
 40
0.0
 40
0.0
 40
0.0
 40
1.0
 40
1.0
 40
1.0
 40
1.0
 10
73.814462000000006
 20
3.9161440000000001
 30
0.0
 10
73.814462000000006
 20
3.783782
 30
0.0
 10
73.892920000000004
 20
3.6466219999999998
 30
0.0
 10
74.093580000000003
 20
3.6466219999999998
 30
0.0
  0
SPLINE
  5
9F
  8
Layer_1
 62
5
420
255
370
-1
  6
ByLayer
100
AcDbEntity
100
AcDbSpline
 70
8
 71
3
 72
8
 73
4
 74
0
 40
0.0
 40
0.0
 40
0.0
 40
0.0
 40
1.0
 40
1.0
 40
1.0
 40
1.0
 10
74.093580000000003
 20
3.6466219999999998
 30
0.0
 10
74.278999999999996
 20
3.6469040000000001
 30
0.0
 10
74.380882
 20
3.768824
 30
0.0
 10
74.380882
 20
3.9110640000000001
 30
0.0
  0
LWPOLYLINE
  5
A0
  8
Layer_1
 62
5
420
255
370
-1
  6
ByLayer
100
AcDbEntity
100
AcDbPolyline
 90
2
 70
0
 10
82.424216000000001
 20
4.0612060000000003
 10
82.424216000000001
 20
4.0612060000000003
  0
LWPOLYLINE
  5
A1
  8
Layer_1
 62
5
420
255
370
-1
  6
ByLayer
100
AcDbEntity
100
AcDbPolyline
 90
2
 70
0
 10
74.380882
 20
3.9110640000000001
 10
74.380882
 20
3.9110640000000001
  0
LWPOLYLINE
  5
A2
  8
Layer_1
 62
5
420
255
370
-1
  6
ByLayer
100
AcDbEntity
100
AcDbPolyline
 90
2
 70
0
 10
186.085002
 20
7.0047839999999999
 10
186.085002
 20
189.16850400000001
  0
LWPOLYLINE
  5
A3
  8
Layer_1
 62
5
420
255
370
-1
  6
ByLayer
100
AcDbEntity
100
AcDbPolyline
 90
2
 70
0
 10
178.08541299999999
 20
186.08691899999999
 10
178.08541299999999
 20
189.16850400000001
  0
LWPOLYLINE
  5
A4
  8
Layer_1
 62
5
420
255
370
-1
  6
ByLayer
100
AcDbEntity
100
AcDbPolyline
 90
2
 70
0
 10
178.08541299999999
 20
10.085521999999999
 10
178.08541299999999
 20
7.0047839999999999
  0
LWPOLYLINE
  5
A5
  8
Layer_1
 62
5
420
255
370
-1
  6
ByLayer
100
AcDbEntity
100
AcDbPolyline
 90
2
 70
0
 10
170.08526000000001
 20
189.16850400000001
 10
170.08526000000001
 20
186.08691899999999
  0
LWPOLYLINE
  5
A6
  8
Layer_1
 62
5
420
255
370
-1
  6
ByLayer
100
AcDbEntity
100
AcDbPolyline
 90
2
 70
0
 10
170.08526000000001
 20
7.0047839999999999
 10
170.08526000000001
 20
10.085521999999999
  0
LWPOLYLINE
  5
A7
  8
Layer_1
 62
5
420
255
370
-1
  6
ByLayer
100
AcDbEntity
100
AcDbPolyline
 90
2
 70
0
 10
162.08538899999999
 20
10.085521999999999
 10
162.08538899999999
 20
7.0047839999999999
  0
LWPOLYLINE
  5
A8
  8
Layer_1
 62
5
420
255
370
-1
  6
ByLayer
100
AcDbEntity
100
AcDbPolyline
 90
2
 70
0
 10
162.08538899999999
 20
186.08691899999999
 10
162.08538899999999
 20
189.16850400000001
  0
LWPOLYLINE
  5
A9
  8
Layer_1
 62
5
420
255
370
-1
  6
ByLayer
100
AcDbEntity
100
AcDbPolyline
 90
2
 70
0
 10
154.08467099999999
 20
189.16850400000001
 10
154.08467099999999
 20
186.08691899999999
  0
LWPOLYLINE
  5
AA
  8
Layer_1
 62
5
420
255
370
-1
  6
ByLayer
100
AcDbEntity
100
AcDbPolyline
 90
2
 70
0
 10
154.08467099999999
 20
7.0047839999999999
 10
154.08467099999999
 20
10.085521999999999
  0
LWPOLYLINE
  5
AB
  8
Layer_1
 62
5
420
255
370
-1
  6
ByLayer
100
AcDbEntity
100
AcDbPolyline
 90
2
 70
0
 10
146.085364
 20
10.085521999999999
 10
146.085364
 20
7.0047839999999999
  0
LWPOLYLINE
  5
AC
  8
Layer_1
 62
5
420
255
370
-1
  6
ByLayer
100
AcDbEntity
100
AcDbPolyline
 90
2
 70
0
 10
146.085364
 20
186.08691899999999
 10
146.085364
 20
189.16850400000001
  0
LWPOLYLINE
  5
AD
  8
Layer_1
 62
5
420
255
370
-1
  6
ByLayer
100
AcDbEntity
100
AcDbPolyline
 90
2
 70
0
 10
138.08492899999999
 20
7.0047839999999999
 10
138.08492899999999
 20
10.085521999999999
  0
LWPOLYLINE
  5
AE
  8
Layer_1
 62
5
420
255
370
-1
  6
ByLayer
100
AcDbEntity
100
AcDbPolyline
 90
2
 70
0
 10
138.08492899999999
 20
189.16850400000001
 10
138.08492899999999
 20
186.08691899999999
  0
LWPOLYLINE
  5
AF
  8
Layer_1
 62
5
420
255
370
-1
  6
ByLayer
100
AcDbEntity
100
AcDbPolyline
 90
2
 70
0
 10
130.08534
 20
10.085521999999999
 10
130.08534
 20
7.0047839999999999
  0
LWPOLYLINE
  5
B0
  8
Layer_1
 62
5
420
255
370
-1
  6
ByLayer
100
AcDbEntity
100
AcDbPolyline
 90
2
 70
0
 10
130.08534
 20
186.08691899999999
 10
130.08534
 20
189.16850400000001
  0
LWPOLYLINE
  5
B1
  8
Layer_1
 62
5
420
255
370
-1
  6
ByLayer
100
AcDbEntity
100
AcDbPolyline
 90
2
 70
0
 10
122.08490399999999
 20
189.16850400000001
 10
122.08490399999999
 20
186.08691899999999
  0
LWPOLYLINE
  5
B2
  8
Layer_1
 62
5
420
255
370
-1
  6
ByLayer
100
AcDbEntity
100
AcDbPolyline
 90
2
 70
0
 10
122.08490399999999
 20
7.0047839999999999
 10
122.08490399999999
 20
10.085521999999999
  0
LWPOLYLINE
  5
B3
  8
Layer_1
 62
5
420
255
370
-1
  6
ByLayer
100
AcDbEntity
100
AcDbPolyline
 90
2
 70
0
 10
114.085033
 20
10.085521999999999
 10
114.085033
 20
7.0047839999999999
  0
LWPOLYLINE
  5
B4
  8
Layer_1
 62
5
420
255
370
-1
  6
ByLayer
100
AcDbEntity
100
AcDbPolyline
 90
2
 70
0
 10
114.085033
 20
186.08691899999999
 10
114.085033
 20
189.16850400000001
  0
LWPOLYLINE
  5
B5
  8
Layer_1
 62
5
420
255
370
-1
  6
ByLayer
100
AcDbEntity
100
AcDbPolyline
 90
2
 70
0
 10
106.084598
 20
189.16850400000001
 10
106.084598
 20
186.08691899999999
  0
LWPOLYLINE
  5
B6
  8
Layer_1
 62
5
420
255
370
-1
  6
ByLayer
100
AcDbEntity
100
AcDbPolyline
 90
2
 70
0
 10
106.084598
 20
7.0047839999999999
 10
106.084598
 20
10.085521999999999
  0
LWPOLYLINE
  5
B7
  8
Layer_1
 62
5
420
255
370
-1
  6
ByLayer
100
AcDbEntity
100
AcDbPolyline
 90
2
 70
0
 10
98.085290999999998
 20
10.085521999999999
 10
98.085290999999998
 20
7.0047839999999999
  0
LWPOLYLINE
  5
B8
  8
Layer_1
 62
5
420
255
370
-1
  6
ByLayer
100
AcDbEntity
100
AcDbPolyline
 90
2
 70
0
 10
98.085290999999998
 20
186.08691899999999
 10
98.085290999999998
 20
189.16850400000001
  0
SPLINE
  5
B9
  8
Layer_1
 62
1
420
16711680
370
-1
  6
ByLayer
100
AcDbEntity
100
AcDbSpline
 70
8
 71
3
 72
8
 73
4
 74
0
 40
0.0
 40
0.0
 40
0.0
 40
0.0
 40
1.0
 40
1.0
 40
1.0
 40
1.0
 10
89.421915999999996
 20
90.237478999999993
 30
0.0
 10
89.863592999999995
 20
90.237478999999993
 30
0.0
 10
90.222015999999996
 20
89.879339000000002
 30
0.0
 10
90.222015999999996
 20
89.437944000000002
 30
0.0
  0
SPLINE
  5
BA
  8
Layer_1
 62
1
420
16711680
370
-1
  6
ByLayer
100
AcDbEntity
100
AcDbSpline
 70
8
 71
3
 72
8
 73
4
 74
0
 40
0.0
 40
0.0
 40
0.0
 40
0.0
 40
1.0
 40
1.0
 40
1.0
 40
1.0
 10
90.222015999999996
 20
89.437944000000002
 30
0.0
 10
90.222015999999996
 20
88.995701999999994
 30
0.0
 10
89.863592999999995
 20
88.637562000000003
 30
0.0
 10
89.421915999999996
 20
88.637562000000003
 30
0.0
  0
SPLINE
  5
BB
  8
Layer_1
 62
1
420
16711680
370
-1
  6
ByLayer
100
AcDbEntity
100
AcDbSpline
 70
8
 71
3
 72
8
 73
4
 74
0
 40
0.0
 40
0.0
 40
0.0
 40
0.0
 40
1.0
 40
1.0
 40
1.0
 40
1.0
 10
89.421915999999996
 20
88.637562000000003
 30
0.0
 10
88.980238
 20
88.637562000000003
 30
0.0
 10
88.621815999999995
 20
88.995984000000007
 30
0.0
 10
88.621815999999995
 20
89.437944000000002
 30
0.0
  0
SPLINE
  5
BC
  8
Layer_1
 62
1
420
16711680
370
-1
  6
ByLayer
100
AcDbEntity
100
AcDbSpline
 70
8
 71
3
 72
8
 73
4
 74
0
 40
0.0
 40
0.0
 40
0.0
 40
0.0
 40
1.0
 40
1.0
 40
1.0
 40
1.0
 10
88.621815999999995
 20
89.437944000000002
 30
0.0
 10
88.621815999999995
 20
89.879339000000002
 30
0.0
 10
88.980238
 20
90.237478999999993
 30
0.0
 10
89.421915999999996
 20
90.237478999999993
 30
0.0
  0
LWPOLYLINE
  5
BD
  8
Layer_1
 62
5
420
255
370
-1
  6
ByLayer
100
AcDbEntity
100
AcDbPolyline
 90
2
 70
0
 10
90.084856000000002
 20
189.16850400000001
 10
90.084856000000002
 20
186.08691899999999
  0
SPLINE
  5
BE
  8
Layer_1
 62
1
420
16711680
370
-1
  6
ByLayer
100
AcDbEntity
100
AcDbSpline
 70
8
 71
3
 72
8
 73
4
 74
0
 40
0.0
 40
0.0
 40
0.0
 40
0.0
 40
1.0
 40
1.0
 40
1.0
 40
1.0
 10
106.748949
 20
107.563666
 30
0.0
 10
107.190909
 20
107.563666
 30
0.0
 10
107.549331
 20
107.205808
 30
0.0
 10
107.549331
 20
106.763848
 30
0.0
  0
SPLINE
  5
BF
  8
Layer_1
 62
1
420
16711680
370
-1
  6
ByLayer
100
AcDbEntity
100
AcDbSpline
 70
8
 71
3
 72
8
 73
4
 74
0
 40
0.0
 40
0.0
 40
0.0
 40
0.0
 40
1.0
 40
1.0
 40
1.0
 40
1.0
 10
107.549331
 20
106.763848
 30
0.0
 10
107.549331
 20
106.321606
 30
0.0
 10
107.190909
 20
105.96402999999999
 30
0.0
 10
106.748949
 20
105.96402999999999
 30
0.0
  0
SPLINE
  5
C0
  8
Layer_1
 62
1
420
16711680
370
-1
  6
ByLayer
100
AcDbEntity
100
AcDbSpline
 70
8
 71
3
 72
8
 73
4
 74
0
 40
0.0
 40
0.0
 40
0.0
 40
0.0
 40
1.0
 40
1.0
 40
1.0
 40
1.0
 10
106.748949
 20
105.96402999999999
 30
0.0
 10
106.307271
 20
105.96402999999999
 30
0.0
 10
105.948849
 20
106.321606
 30
0.0
 10
105.948849
 20
106.763848
 30
0.0
  0
SPLINE
  5
C1
  8
Layer_1
 62
1
420
16711680
370
-1
  6
ByLayer
100
AcDbEntity
100
AcDbSpline
 70
8
 71
3
 72
8
 73
4
 74
0
 40
0.0
 40
0.0
 40
0.0
 40
0.0
 40
1.0
 40
1.0
 40
1.0
 40
1.0
 10
105.948849
 20
106.763848
 30
0.0
 10
105.948849
 20
107.205808
 30
0.0
 10
106.306989
 20
107.563666
 30
0.0
 10
106.748949
 20
107.563666
 30
0.0
  0
LWPOLYLINE
  5
C2
  8
Layer_1
 62
1
420
16711680
370
-1
  6
ByLayer
100
AcDbEntity
100
AcDbPolyline
 90
2
 70
0
 10
89.421915999999996
 20
90.237478999999993
 10
89.421915999999996
 20
90.237478999999993
  0
SPLINE
  5
C3
  8
Layer_1
 62
1
420
16711680
370
-1
  6
ByLayer
100
AcDbEntity
100
AcDbSpline
 70
8
 71
3
 72
8
 73
4
 74
0
 40
0.0
 40
0.0
 40
0.0
 40
0.0
 40
1.0
 40
1.0
 40
1.0
 40
1.0
 10
106.748949
 20
90.237478999999993
 30
0.0
 10
107.190344
 20
90.237478999999993
 30
0.0
 10
107.549331
 20
89.879339000000002
 30
0.0
 10
107.549331
 20
89.437379000000007
 30
0.0
  0
SPLINE
  5
C4
  8
Layer_1
 62
1
420
16711680
370
-1
  6
ByLayer
100
AcDbEntity
100
AcDbSpline
 70
8
 71
3
 72
8
 73
4
 74
0
 40
0.0
 40
0.0
 40
0.0
 40
0.0
 40
1.0
 40
1.0
 40
1.0
 40
1.0
 10
107.549331
 20
89.437379000000007
 30
0.0
 10
107.549331
 20
88.995984000000007
 30
0.0
 10
107.19062700000001
 20
88.637562000000003
 30
0.0
 10
106.748949
 20
88.637562000000003
 30
0.0
  0
SPLINE
  5
C5
  8
Layer_1
 62
1
420
16711680
370
-1
  6
ByLayer
100
AcDbEntity
100
AcDbSpline
 70
8
 71
3
 72
8
 73
4
 74
0
 40
0.0
 40
0.0
 40
0.0
 40
0.0
 40
1.0
 40
1.0
 40
1.0
 40
1.0
 10
106.748949
 20
88.637562000000003
 30
0.0
 10
106.307271
 20
88.637562000000003
 30
0.0
 10
105.948849
 20
88.995984000000007
 30
0.0
 10
105.948849
 20
89.437379000000007
 30
0.0
  0
SPLINE
  5
C6
  8
Layer_1
 62
1
420
16711680
370
-1
  6
ByLayer
100
AcDbEntity
100
AcDbSpline
 70
8
 71
3
 72
8
 73
4
 74
0
 40
0.0
 40
0.0
 40
0.0
 40
0.0
 40
1.0
 40
1.0
 40
1.0
 40
1.0
 10
105.948849
 20
89.437379000000007
 30
0.0
 10
105.948849
 20
89.879339000000002
 30
0.0
 10
106.306989
 20
90.237478999999993
 30
0.0
 10
106.748949
 20
90.237478999999993
 30
0.0
  0
LWPOLYLINE
  5
C7
  8
Layer_1
 62
1
420
16711680
370
-1
  6
ByLayer
100
AcDbEntity
100
AcDbPolyline
 90
2
 70
0
 10
106.748949
 20
107.563666
 10
106.748949
 20
107.563666
  0
SPLINE
  5
C8
  8
Layer_1
 62
1
420
16711680
370
-1
  6
ByLayer
100
AcDbEntity
100
AcDbSpline
 70
8
 71
3
 72
8
 73
4
 74
0
 40
0.0
 40
0.0
 40
0.0
 40
0.0
 40
1.0
 40
1.0
 40
1.0
 40
1.0
 10
89.470740000000006
 20
107.563666
 30
0.0
 10
89.913263999999998
 20
107.563666
 30
0.0
 10
90.271122000000005
 20
107.205808
 30
0.0
 10
90.271122000000005
 20
106.763848
 30
0.0
  0
SPLINE
  5
C9
  8
Layer_1
 62
1
420
16711680
370
-1
  6
ByLayer
100
AcDbEntity
100
AcDbSpline
 70
8
 71
3
 72
8
 73
4
 74
0
 40
0.0
 40
0.0
 40
0.0
 40
0.0
 40
1.0
 40
1.0
 40
1.0
 40
1.0
 10
90.271122000000005
 20
106.763848
 30
0.0
 10
90.271122000000005
 20
106.321606
 30
0.0
 10
89.913263999999998
 20
105.963466
 30
0.0
 10
89.470740000000006
 20
105.963466
 30
0.0
  0
SPLINE
  5
CA
  8
Layer_1
 62
1
420
16711680
370
-1
  6
ByLayer
100
AcDbEntity
100
AcDbSpline
 70
8
 71
3
 72
8
 73
4
 74
0
 40
0.0
 40
0.0
 40
0.0
 40
0.0
 40
1.0
 40
1.0
 40
1.0
 40
1.0
 10
89.470740000000006
 20
105.963466
 30
0.0
 10
89.029343999999995
 20
105.963466
 30
0.0
 10
88.670922000000004
 20
106.321606
 30
0.0
 10
88.670922000000004
 20
106.763848
 30
0.0
  0
SPLINE
  5
CB
  8
Layer_1
 62
1
420
16711680
370
-1
  6
ByLayer
100
AcDbEntity
100
AcDbSpline
 70
8
 71
3
 72
8
 73
4
 74
0
 40
0.0
 40
0.0
 40
0.0
 40
0.0
 40
1.0
 40
1.0
 40
1.0
 40
1.0
 10
88.670922000000004
 20
106.763848
 30
0.0
 10
88.670922000000004
 20
107.205808
 30
0.0
 10
89.029343999999995
 20
107.563666
 30
0.0
 10
89.470740000000006
 20
107.563666
 30
0.0
  0
LWPOLYLINE
  5
CC
  8
Layer_1
 62
1
420
16711680
370
-1
  6
ByLayer
100
AcDbEntity
100
AcDbPolyline
 90
2
 70
0
 10
106.748949
 20
90.237478999999993
 10
106.748949
 20
90.237478999999993
  0
SPLINE
  5
CD
  8
Layer_1
 62
7
420
16777215
370
-1
  6
ByLayer
100
AcDbEntity
100
AcDbSpline
 70
8
 71
3
 72
8
 73
4
 74
0
 40
0.0
 40
0.0
 40
0.0
 40
0.0
 40
1.0
 40
1.0
 40
1.0
 40
1.0
 10
8.0332600000000003
 20
141.49157500000001
 30
0.0
 10
8.0332600000000003
 20
140.23258200000001
 30
0.0
 10
7.0118980000000004
 20
139.211502
 30
0.0
 10
5.752904
 20
139.211502
 30
0.0
  0
SPLINE
  5
CE
  8
Layer_1
 62
7
420
16777215
370
-1
  6
ByLayer
100
AcDbEntity
100
AcDbSpline
 70
8
 71
3
 72
8
 73
4
 74
0
 40
0.0
 40
0.0
 40
0.0
 40
0.0
 40
1.0
 40
1.0
 40
1.0
 40
1.0
 10
5.752904
 20
139.211502
 30
0.0
 10
4.4939109999999998
 20
139.211502
 30
0.0
 10
3.4728309999999998
 20
140.23258200000001
 30
0.0
 10
3.4728309999999998
 20
141.49157500000001
 30
0.0
  0
SPLINE
  5
CF
  8
Layer_1
 62
7
420
16777215
370
-1
  6
ByLayer
100
AcDbEntity
100
AcDbSpline
 70
8
 71
3
 72
8
 73
4
 74
0
 40
0.0
 40
0.0
 40
0.0
 40
0.0
 40
1.0
 40
1.0
 40
1.0
 40
1.0
 10
3.4728309999999998
 20
141.49157500000001
 30
0.0
 10
3.4728309999999998
 20
142.75141500000001
 30
0.0
 10
4.4939109999999998
 20
143.77193
 30
0.0
 10
5.752904
 20
143.77193
 30
0.0
  0
SPLINE
  5
D0
  8
Layer_1
 62
7
420
16777215
370
-1
  6
ByLayer
100
AcDbEntity
100
AcDbSpline
 70
8
 71
3
 72
8
 73
4
 74
0
 40
0.0
 40
0.0
 40
0.0
 40
0.0
 40
1.0
 40
1.0
 40
1.0
 40
1.0
 10
5.752904
 20
143.77193
 30
0.0
 10
7.0118980000000004
 20
143.77193
 30
0.0
 10
8.0332600000000003
 20
142.75141500000001
 30
0.0
 10
8.0332600000000003
 20
141.49157500000001
 30
0.0
  0
SPLINE
  5
D1
  8
Layer_1
 62
1
420
16711680
370
-1
  6
ByLayer
100
AcDbEntity
100
AcDbSpline
 70
8
 71
3
 72
8
 73
4
 74
0
 40
0.0
 40
0.0
 40
0.0
 40
0.0
 40
1.0
 40
1.0
 40
1.0
 40
1.0
 10
3.352887
 20
136.05625699999999
 30
0.0
 10
3.352887
 20
134.731224
 30
0.0
 10
4.4278709999999997
 20
133.656239
 30
0.0
 10
5.752904
 20
133.656239
 30
0.0
  0
SPLINE
  5
D2
  8
Layer_1
 62
1
420
16711680
370
-1
  6
ByLayer
100
AcDbEntity
100
AcDbSpline
 70
8
 71
3
 72
8
 73
4
 74
0
 40
0.0
 40
0.0
 40
0.0
 40
0.0
 40
1.0
 40
1.0
 40
1.0
 40
1.0
 10
5.752904
 20
133.656239
 30
0.0
 10
7.0779379999999996
 20
133.656239
 30
0.0
 10
8.1532040000000006
 20
134.731224
 30
0.0
 10
8.1532040000000006
 20
136.05625699999999
 30
0.0
  0
SPLINE
  5
D3
  8
Layer_1
 62
1
420
16711680
370
-1
  6
ByLayer
100
AcDbEntity
100
AcDbSpline
 70
8
 71
3
 72
8
 73
4
 74
0
 40
0.0
 40
0.0
 40
0.0
 40
0.0
 40
1.0
 40
1.0
 40
1.0
 40
1.0
 10
8.1532040000000006
 20
136.05625699999999
 30
0.0
 10
8.1532040000000006
 20
136.94412800000001
 30
0.0
 10
7.5893240000000004
 20
137.71769900000001
 30
0.0
 10
6.8724800000000004
 20
138.132566
 30
0.0
  0
LWPOLYLINE
  5
D4
  8
Layer_1
 62
1
420
16711680
370
-1
  6
ByLayer
100
AcDbEntity
100
AcDbPolyline
 90
2
 70
0
 10
89.470740000000006
 20
107.563666
 10
89.470740000000006
 20
107.563666
  0
SPLINE
  5
D5
  8
Layer_1
 62
1
420
16711680
370
-1
  6
ByLayer
100
AcDbEntity
100
AcDbSpline
 70
8
 71
3
 72
8
 73
4
 74
0
 40
0.0
 40
0.0
 40
0.0
 40
0.0
 40
1.0
 40
1.0
 40
1.0
 40
1.0
 10
6.8724800000000004
 20
141.332966
 30
0.0
 10
6.8724800000000004
 20
141.99562399999999
 30
0.0
 10
6.4161270000000004
 20
142.53297499999999
 30
0.0
 10
5.752904
 20
142.53297499999999
 30
0.0
  0
SPLINE
  5
D6
  8
Layer_1
 62
1
420
16711680
370
-1
  6
ByLayer
100
AcDbEntity
100
AcDbSpline
 70
8
 71
3
 72
8
 73
4
 74
0
 40
0.0
 40
0.0
 40
0.0
 40
0.0
 40
1.0
 40
1.0
 40
1.0
 40
1.0
 10
5.752904
 20
142.53297499999999
 30
0.0
 10
5.0902469999999997
 20
142.53297499999999
 30
0.0
 10
4.6327639999999999
 20
141.99562399999999
 30
0.0
 10
4.6327639999999999
 20
141.332966
 30
0.0
  0
LWPOLYLINE
  5
D7
  8
Layer_1
 62
1
420
16711680
370
-1
  6
ByLayer
100
AcDbEntity
100
AcDbPolyline
 90
2
 70
0
 10
6.8724800000000004
 20
138.132566
 10
6.8724800000000004
 20
141.332966
  0
SPLINE
  5
D8
  8
Layer_1
 62
1
420
16711680
370
-1
  6
ByLayer
100
AcDbEntity
100
AcDbSpline
 70
8
 71
3
 72
8
 73
4
 74
0
 40
0.0
 40
0.0
 40
0.0
 40
0.0
 40
1.0
 40
1.0
 40
1.0
 40
1.0
 10
4.6327639999999999
 20
138.132566
 30
0.0
 10
3.9162020000000002
 20
137.71741700000001
 30
0.0
 10
3.352887
 20
136.94384600000001
 30
0.0
 10
3.352887
 20
136.05625699999999
 30
0.0
  0
LWPOLYLINE
  5
D9
  8
Layer_1
 62
1
420
16711680
370
-1
  6
ByLayer
100
AcDbEntity
100
AcDbPolyline
 90
2
 70
0
 10
4.6327639999999999
 20
141.332966
 10
4.6327639999999999
 20
138.132566
  0
SPLINE
  5
DA
  8
Layer_1
 62
7
420
16777215
370
-1
  6
ByLayer
100
AcDbEntity
100
AcDbSpline
 70
8
 71
3
 72
8
 73
4
 74
0
 40
0.0
 40
0.0
 40
0.0
 40
0.0
 40
1.0
 40
1.0
 40
1.0
 40
1.0
 10
8.0332600000000003
 20
56.106653000000001
 30
0.0
 10
8.0332600000000003
 20
54.846812999999997
 30
0.0
 10
7.0118980000000004
 20
53.826296999999997
 30
0.0
 10
5.752904
 20
53.826296999999997
 30
0.0
  0
SPLINE
  5
DB
  8
Layer_1
 62
7
420
16777215
370
-1
  6
ByLayer
100
AcDbEntity
100
AcDbSpline
 70
8
 71
3
 72
8
 73
4
 74
0
 40
0.0
 40
0.0
 40
0.0
 40
0.0
 40
1.0
 40
1.0
 40
1.0
 40
1.0
 10
5.752904
 20
53.826296999999997
 30
0.0
 10
4.4939109999999998
 20
53.826296999999997
 30
0.0
 10
3.4728309999999998
 20
54.846812999999997
 30
0.0
 10
3.4728309999999998
 20
56.106653000000001
 30
0.0
  0
SPLINE
  5
DC
  8
Layer_1
 62
7
420
16777215
370
-1
  6
ByLayer
100
AcDbEntity
100
AcDbSpline
 70
8
 71
3
 72
8
 73
4
 74
0
 40
0.0
 40
0.0
 40
0.0
 40
0.0
 40
1.0
 40
1.0
 40
1.0
 40
1.0
 10
3.4728309999999998
 20
56.106653000000001
 30
0.0
 10
3.4728309999999998
 20
57.365645999999998
 30
0.0
 10
4.4939109999999998
 20
58.386726000000003
 30
0.0
 10
5.752904
 20
58.386726000000003
 30
0.0
  0
SPLINE
  5
DD
  8
Layer_1
 62
7
420
16777215
370
-1
  6
ByLayer
100
AcDbEntity
100
AcDbSpline
 70
8
 71
3
 72
8
 73
4
 74
0
 40
0.0
 40
0.0
 40
0.0
 40
0.0
 40
1.0
 40
1.0
 40
1.0
 40
1.0
 10
5.752904
 20
58.386726000000003
 30
0.0
 10
7.0118980000000004
 20
58.386726000000003
 30
0.0
 10
8.0332600000000003
 20
57.365645999999998
 30
0.0
 10
8.0332600000000003
 20
56.106653000000001
 30
0.0
  0
SPLINE
  5
DE
  8
Layer_1
 62
1
420
16711680
370
-1
  6
ByLayer
100
AcDbEntity
100
AcDbSpline
 70
8
 71
3
 72
8
 73
4
 74
0
 40
0.0
 40
0.0
 40
0.0
 40
0.0
 40
1.0
 40
1.0
 40
1.0
 40
1.0
 10
3.352887
 20
50.670206
 30
0.0
 10
3.352887
 20
49.345173000000003
 30
0.0
 10
4.4278709999999997
 20
48.270187999999997
 30
0.0
 10
5.752904
 20
48.270187999999997
 30
0.0
  0
SPLINE
  5
DF
  8
Layer_1
 62
1
420
16711680
370
-1
  6
ByLayer
100
AcDbEntity
100
AcDbSpline
 70
8
 71
3
 72
8
 73
4
 74
0
 40
0.0
 40
0.0
 40
0.0
 40
0.0
 40
1.0
 40
1.0
 40
1.0
 40
1.0
 10
5.752904
 20
48.270187999999997
 30
0.0
 10
7.0779379999999996
 20
48.270187999999997
 30
0.0
 10
8.1532040000000006
 20
49.345173000000003
 30
0.0
 10
8.1532040000000006
 20
50.670206
 30
0.0
  0
SPLINE
  5
E0
  8
Layer_1
 62
1
420
16711680
370
-1
  6
ByLayer
100
AcDbEntity
100
AcDbSpline
 70
8
 71
3
 72
8
 73
4
 74
0
 40
0.0
 40
0.0
 40
0.0
 40
0.0
 40
1.0
 40
1.0
 40
1.0
 40
1.0
 10
8.1532040000000006
 20
50.670206
 30
0.0
 10
8.1532040000000006
 20
51.558359000000003
 30
0.0
 10
7.5893240000000004
 20
52.331648000000001
 30
0.0
 10
6.8724800000000004
 20
52.746797000000001
 30
0.0
  0
LWPOLYLINE
  5
E1
  8
Layer_1
 62
1
420
16711680
370
-1
  6
ByLayer
100
AcDbEntity
100
AcDbPolyline
 90
2
 70
0
 10
3.352887
 20
136.05625699999999
 10
3.352887
 20
136.05625699999999
  0
SPLINE
  5
E2
  8
Layer_1
 62
1
420
16711680
370
-1
  6
ByLayer
100
AcDbEntity
100
AcDbSpline
 70
8
 71
3
 72
8
 73
4
 74
0
 40
0.0
 40
0.0
 40
0.0
 40
0.0
 40
1.0
 40
1.0
 40
1.0
 40
1.0
 10
6.8724800000000004
 20
55.947761999999997
 30
0.0
 10
6.8724800000000004
 20
56.610419
 30
0.0
 10
6.4161270000000004
 20
57.147770000000001
 30
0.0
 10
5.752904
 20
57.147770000000001
 30
0.0
  0
SPLINE
  5
E3
  8
Layer_1
 62
1
420
16711680
370
-1
  6
ByLayer
100
AcDbEntity
100
AcDbSpline
 70
8
 71
3
 72
8
 73
4
 74
0
 40
0.0
 40
0.0
 40
0.0
 40
0.0
 40
1.0
 40
1.0
 40
1.0
 40
1.0
 10
5.752904
 20
57.147770000000001
 30
0.0
 10
5.0902469999999997
 20
57.147770000000001
 30
0.0
 10
4.6327639999999999
 20
56.610419
 30
0.0
 10
4.6327639999999999
 20
55.947761999999997
 30
0.0
  0
LWPOLYLINE
  5
E4
  8
Layer_1
 62
1
420
16711680
370
-1
  6
ByLayer
100
AcDbEntity
100
AcDbPolyline
 90
2
 70
0
 10
6.8724800000000004
 20
52.746797000000001
 10
6.8724800000000004
 20
55.947761999999997
  0
SPLINE
  5
E5
  8
Layer_1
 62
1
420
16711680
370
-1
  6
ByLayer
100
AcDbEntity
100
AcDbSpline
 70
8
 71
3
 72
8
 73
4
 74
0
 40
0.0
 40
0.0
 40
0.0
 40
0.0
 40
1.0
 40
1.0
 40
1.0
 40
1.0
 10
4.6327639999999999
 20
52.746797000000001
 30
0.0
 10
3.9162020000000002
 20
52.331648000000001
 30
0.0
 10
3.352887
 20
51.558359000000003
 30
0.0
 10
3.352887
 20
50.670206
 30
0.0
  0
LWPOLYLINE
  5
E6
  8
Layer_1
 62
1
420
16711680
370
-1
  6
ByLayer
100
AcDbEntity
100
AcDbPolyline
 90
2
 70
0
 10
4.6327639999999999
 20
55.947761999999997
 10
4.6327639999999999
 20
52.746797000000001
  0
SPLINE
  5
E7
  8
Layer_1
 62
7
420
16777215
370
-1
  6
ByLayer
100
AcDbEntity
100
AcDbSpline
 70
8
 71
3
 72
8
 73
4
 74
0
 40
0.0
 40
0.0
 40
0.0
 40
0.0
 40
1.0
 40
1.0
 40
1.0
 40
1.0
 10
192.691542
 20
141.60672199999999
 30
0.0
 10
192.691542
 20
140.34744599999999
 30
0.0
 10
191.67074400000001
 20
139.32664800000001
 30
0.0
 10
190.41146900000001
 20
139.32664800000001
 30
0.0
  0
SPLINE
  5
E8
  8
Layer_1
 62
7
420
16777215
370
-1
  6
ByLayer
100
AcDbEntity
100
AcDbSpline
 70
8
 71
3
 72
8
 73
4
 74
0
 40
0.0
 40
0.0
 40
0.0
 40
0.0
 40
1.0
 40
1.0
 40
1.0
 40
1.0
 10
190.41146900000001
 20
139.32664800000001
 30
0.0
 10
189.15219300000001
 20
139.32664800000001
 30
0.0
 10
188.131396
 20
140.34744599999999
 30
0.0
 10
188.131396
 20
141.60672199999999
 30
0.0
  0
SPLINE
  5
E9
  8
Layer_1
 62
7
420
16777215
370
-1
  6
ByLayer
100
AcDbEntity
100
AcDbSpline
 70
8
 71
3
 72
8
 73
4
 74
0
 40
0.0
 40
0.0
 40
0.0
 40
0.0
 40
1.0
 40
1.0
 40
1.0
 40
1.0
 10
188.131396
 20
141.60672199999999
 30
0.0
 10
188.131396
 20
142.86627899999999
 30
0.0
 10
189.15219300000001
 20
143.88679500000001
 30
0.0
 10
190.41146900000001
 20
143.88679500000001
 30
0.0
  0
SPLINE
  5
EA
  8
Layer_1
 62
7
420
16777215
370
-1
  6
ByLayer
100
AcDbEntity
100
AcDbSpline
 70
8
 71
3
 72
8
 73
4
 74
0
 40
0.0
 40
0.0
 40
0.0
 40
0.0
 40
1.0
 40
1.0
 40
1.0
 40
1.0
 10
190.41146900000001
 20
143.88679500000001
 30
0.0
 10
191.67074400000001
 20
143.88679500000001
 30
0.0
 10
192.691542
 20
142.86599699999999
 30
0.0
 10
192.691542
 20
141.60672199999999
 30
0.0
  0
SPLINE
  5
EB
  8
Layer_1
 62
1
420
16711680
370
-1
  6
ByLayer
100
AcDbEntity
100
AcDbSpline
 70
8
 71
3
 72
8
 73
4
 74
0
 40
0.0
 40
0.0
 40
0.0
 40
0.0
 40
1.0
 40
1.0
 40
1.0
 40
1.0
 10
188.01145099999999
 20
136.170557
 30
0.0
 10
188.01145099999999
 20
134.84552400000001
 30
0.0
 10
189.08643599999999
 20
133.77082200000001
 30
0.0
 10
190.41146900000001
 20
133.77082200000001
 30
0.0
  0
SPLINE
  5
EC
  8
Layer_1
 62
1
420
16711680
370
-1
  6
ByLayer
100
AcDbEntity
100
AcDbSpline
 70
8
 71
3
 72
8
 73
4
 74
0
 40
0.0
 40
0.0
 40
0.0
 40
0.0
 40
1.0
 40
1.0
 40
1.0
 40
1.0
 10
190.41146900000001
 20
133.77082200000001
 30
0.0
 10
191.736502
 20
133.77082200000001
 30
0.0
 10
192.811487
 20
134.84552400000001
 30
0.0
 10
192.811487
 20
136.170557
 30
0.0
  0
SPLINE
  5
ED
  8
Layer_1
 62
1
420
16711680
370
-1
  6
ByLayer
100
AcDbEntity
100
AcDbSpline
 70
8
 71
3
 72
8
 73
4
 74
0
 40
0.0
 40
0.0
 40
0.0
 40
0.0
 40
1.0
 40
1.0
 40
1.0
 40
1.0
 10
192.811487
 20
136.170557
 30
0.0
 10
192.811487
 20
137.05870999999999
 30
0.0
 10
192.24760699999999
 20
137.831999
 30
0.0
 10
191.53104400000001
 20
138.24686600000001
 30
0.0
  0
LWPOLYLINE
  5
EE
  8
Layer_1
 62
1
420
16711680
370
-1
  6
ByLayer
100
AcDbEntity
100
AcDbPolyline
 90
2
 70
0
 10
3.352887
 20
50.670206
 10
3.352887
 20
50.670206
  0
SPLINE
  5
EF
  8
Layer_1
 62
1
420
16711680
370
-1
  6
ByLayer
100
AcDbEntity
100
AcDbSpline
 70
8
 71
3
 72
8
 73
4
 74
0
 40
0.0
 40
0.0
 40
0.0
 40
0.0
 40
1.0
 40
1.0
 40
1.0
 40
1.0
 10
191.53104400000001
 20
141.44754800000001
 30
0.0
 10
191.53104400000001
 20
142.11020600000001
 30
0.0
 10
191.074691
 20
142.64755700000001
 30
0.0
 10
190.41146900000001
 20
142.64755700000001
 30
0.0
  0
SPLINE
  5
F0
  8
Layer_1
 62
1
420
16711680
370
-1
  6
ByLayer
100
AcDbEntity
100
AcDbSpline
 70
8
 71
3
 72
8
 73
4
 74
0
 40
0.0
 40
0.0
 40
0.0
 40
0.0
 40
1.0
 40
1.0
 40
1.0
 40
1.0
 10
190.41146900000001
 20
142.64755700000001
 30
0.0
 10
189.74881099999999
 20
142.64755700000001
 30
0.0
 10
189.29132899999999
 20
142.11020600000001
 30
0.0
 10
189.29132899999999
 20
141.44754800000001
 30
0.0
  0
LWPOLYLINE
  5
F1
  8
Layer_1
 62
1
420
16711680
370
-1
  6
ByLayer
100
AcDbEntity
100
AcDbPolyline
 90
2
 70
0
 10
191.53104400000001
 20
138.24686600000001
 10
191.53104400000001
 20
141.44754800000001
  0
SPLINE
  5
F2
  8
Layer_1
 62
1
420
16711680
370
-1
  6
ByLayer
100
AcDbEntity
100
AcDbSpline
 70
8
 71
3
 72
8
 73
4
 74
0
 40
0.0
 40
0.0
 40
0.0
 40
0.0
 40
1.0
 40
1.0
 40
1.0
 40
1.0
 10
189.29132899999999
 20
138.24686600000001
 30
0.0
 10
188.57476700000001
 20
137.831999
 30
0.0
 10
188.01145099999999
 20
137.05870999999999
 30
0.0
 10
188.01145099999999
 20
136.170557
 30
0.0
  0
LWPOLYLINE
  5
F3
  8
Layer_1
 62
1
420
16711680
370
-1
  6
ByLayer
100
AcDbEntity
100
AcDbPolyline
 90
2
 70
0
 10
189.29132899999999
 20
141.44754800000001
 10
189.29132899999999
 20
138.24686600000001
  0
SPLINE
  5
F4
  8
Layer_1
 62
7
420
16777215
370
-1
  6
ByLayer
100
AcDbEntity
100
AcDbSpline
 70
8
 71
3
 72
8
 73
4
 74
0
 40
0.0
 40
0.0
 40
0.0
 40
0.0
 40
1.0
 40
1.0
 40
1.0
 40
1.0
 10
192.691542
 20
56.187367999999999
 30
0.0
 10
192.691542
 20
54.928092999999997
 30
0.0
 10
191.67074400000001
 20
53.907294999999998
 30
0.0
 10
190.41146900000001
 20
53.907294999999998
 30
0.0
  0
SPLINE
  5
F5
  8
Layer_1
 62
7
420
16777215
370
-1
  6
ByLayer
100
AcDbEntity
100
AcDbSpline
 70
8
 71
3
 72
8
 73
4
 74
0
 40
0.0
 40
0.0
 40
0.0
 40
0.0
 40
1.0
 40
1.0
 40
1.0
 40
1.0
 10
190.41146900000001
 20
53.907294999999998
 30
0.0
 10
189.15219300000001
 20
53.907294999999998
 30
0.0
 10
188.131396
 20
54.928092999999997
 30
0.0
 10
188.131396
 20
56.187367999999999
 30
0.0
  0
SPLINE
  5
F6
  8
Layer_1
 62
7
420
16777215
370
-1
  6
ByLayer
100
AcDbEntity
100
AcDbSpline
 70
8
 71
3
 72
8
 73
4
 74
0
 40
0.0
 40
0.0
 40
0.0
 40
0.0
 40
1.0
 40
1.0
 40
1.0
 40
1.0
 10
188.131396
 20
56.187367999999999
 30
0.0
 10
188.131396
 20
57.446925999999998
 30
0.0
 10
189.15219300000001
 20
58.467441999999998
 30
0.0
 10
190.41146900000001
 20
58.467441999999998
 30
0.0
  0
SPLINE
  5
F7
  8
Layer_1
 62
7
420
16777215
370
-1
  6
ByLayer
100
AcDbEntity
100
AcDbSpline
 70
8
 71
3
 72
8
 73
4
 74
0
 40
0.0
 40
0.0
 40
0.0
 40
0.0
 40
1.0
 40
1.0
 40
1.0
 40
1.0
 10
190.41146900000001
 20
58.467441999999998
 30
0.0
 10
191.67074400000001
 20
58.467441999999998
 30
0.0
 10
192.691542
 20
57.446643999999999
 30
0.0
 10
192.691542
 20
56.187367999999999
 30
0.0
  0
SPLINE
  5
F8
  8
Layer_1
 62
1
420
16711680
370
-1
  6
ByLayer
100
AcDbEntity
100
AcDbSpline
 70
8
 71
3
 72
8
 73
4
 74
0
 40
0.0
 40
0.0
 40
0.0
 40
0.0
 40
1.0
 40
1.0
 40
1.0
 40
1.0
 10
188.01145099999999
 20
50.751204000000001
 30
0.0
 10
188.01145099999999
 20
49.426169999999999
 30
0.0
 10
189.08643599999999
 20
48.351185999999998
 30
0.0
 10
190.41146900000001
 20
48.351185999999998
 30
0.0
  0
SPLINE
  5
F9
  8
Layer_1
 62
1
420
16711680
370
-1
  6
ByLayer
100
AcDbEntity
100
AcDbSpline
 70
8
 71
3
 72
8
 73
4
 74
0
 40
0.0
 40
0.0
 40
0.0
 40
0.0
 40
1.0
 40
1.0
 40
1.0
 40
1.0
 10
190.41146900000001
 20
48.351185999999998
 30
0.0
 10
191.736502
 20
48.351185999999998
 30
0.0
 10
192.811487
 20
49.426169999999999
 30
0.0
 10
192.811487
 20
50.751204000000001
 30
0.0
  0
SPLINE
  5
FA
  8
Layer_1
 62
1
420
16711680
370
-1
  6
ByLayer
100
AcDbEntity
100
AcDbSpline
 70
8
 71
3
 72
8
 73
4
 74
0
 40
0.0
 40
0.0
 40
0.0
 40
0.0
 40
1.0
 40
1.0
 40
1.0
 40
1.0
 10
192.811487
 20
50.751204000000001
 30
0.0
 10
192.811487
 20
51.639356999999997
 30
0.0
 10
192.24760699999999
 20
52.412646000000002
 30
0.0
 10
191.53104400000001
 20
52.827795000000002
 30
0.0
  0
LWPOLYLINE
  5
FB
  8
Layer_1
 62
1
420
16711680
370
-1
  6
ByLayer
100
AcDbEntity
100
AcDbPolyline
 90
2
 70
0
 10
188.01145099999999
 20
136.170557
 10
188.01145099999999
 20
136.170557
  0
SPLINE
  5
FC
  8
Layer_1
 62
1
420
16711680
370
-1
  6
ByLayer
100
AcDbEntity
100
AcDbSpline
 70
8
 71
3
 72
8
 73
4
 74
0
 40
0.0
 40
0.0
 40
0.0
 40
0.0
 40
1.0
 40
1.0
 40
1.0
 40
1.0
 10
191.53104400000001
 20
56.028194999999997
 30
0.0
 10
191.53104400000001
 20
56.690852999999997
 30
0.0
 10
191.074691
 20
57.228203999999998
 30
0.0
 10
190.41146900000001
 20
57.228203999999998
 30
0.0
  0
SPLINE
  5
FD
  8
Layer_1
 62
1
420
16711680
370
-1
  6
ByLayer
100
AcDbEntity
100
AcDbSpline
 70
8
 71
3
 72
8
 73
4
 74
0
 40
0.0
 40
0.0
 40
0.0
 40
0.0
 40
1.0
 40
1.0
 40
1.0
 40
1.0
 10
190.41146900000001
 20
57.228203999999998
 30
0.0
 10
189.74881099999999
 20
57.228203999999998
 30
0.0
 10
189.29132899999999
 20
56.690852999999997
 30
0.0
 10
189.29132899999999
 20
56.028194999999997
 30
0.0
  0
LWPOLYLINE
  5
FE
  8
Layer_1
 62
1
420
16711680
370
-1
  6
ByLayer
100
AcDbEntity
100
AcDbPolyline
 90
2
 70
0
 10
191.53104400000001
 20
52.827795000000002
 10
191.53104400000001
 20
56.028194999999997
  0
SPLINE
  5
FF
  8
Layer_1
 62
1
420
16711680
370
-1
  6
ByLayer
100
AcDbEntity
100
AcDbSpline
 70
8
 71
3
 72
8
 73
4
 74
0
 40
0.0
 40
0.0
 40
0.0
 40
0.0
 40
1.0
 40
1.0
 40
1.0
 40
1.0
 10
189.29132899999999
 20
52.827795000000002
 30
0.0
 10
188.57476700000001
 20
52.412646000000002
 30
0.0
 10
188.01145099999999
 20
51.639356999999997
 30
0.0
 10
188.01145099999999
 20
50.751204000000001
 30
0.0
  0
LWPOLYLINE
  5
100
  8
Layer_1
 62
1
420
16711680
370
-1
  6
ByLayer
100
AcDbEntity
100
AcDbPolyline
 90
2
 70
0
 10
189.29132899999999
 20
56.028194999999997
 10
189.29132899999999
 20
52.827795000000002
  0
SPLINE
  5
101
  8
Layer_1
 62
1
420
16711680
370
-1
  6
ByLayer
100
AcDbEntity
100
AcDbSpline
 70
8
 71
3
 72
8
 73
4
 74
0
 40
0.0
 40
0.0
 40
0.0
 40
0.0
 40
1.0
 40
1.0
 40
1.0
 40
1.0
 10
7.8009909999999998
 20
212.14055400000001
 30
0.0
 10
7.3748360000000002
 20
211.58203700000001
 30
0.0
 10
6.7440689999999996
 20
211.191723
 30
0.0
 10
6.0207329999999999
 20
211.075166
 30
0.0
  0
SPLINE
  5
102
  8
Layer_1
 62
1
420
16711680
370
-1
  6
ByLayer
100
AcDbEntity
100
AcDbSpline
 70
8
 71
3
 72
8
 73
4
 74
0
 40
0.0
 40
0.0
 40
0.0
 40
0.0
 40
1.0
 40
1.0
 40
1.0
 40
1.0
 10
6.0207329999999999
 20
211.075166
 30
0.0
 10
5.9611840000000003
 20
211.074883
 30
0.0
 10
5.9027640000000003
 20
211.070932
 30
0.0
 10
5.8443440000000004
 20
211.066981
 30
0.0
  0
SPLINE
  5
103
  8
Layer_1
 62
1
420
16711680
370
-1
  6
ByLayer
100
AcDbEntity
100
AcDbSpline
 70
8
 71
3
 72
8
 73
4
 74
0
 40
0.0
 40
0.0
 40
0.0
 40
0.0
 40
1.0
 40
1.0
 40
1.0
 40
1.0
 10
5.8443440000000004
 20
211.066981
 30
0.0
 10
5.7483890000000004
 20
211.06020799999999
 30
0.0
 10
5.6529980000000002
 20
211.050612
 30
0.0
 10
5.5593000000000004
 20
211.03650099999999
 30
0.0
  0
SPLINE
  5
104
  8
Layer_1
 62
1
420
16711680
370
-1
  6
ByLayer
100
AcDbEntity
100
AcDbSpline
 70
8
 71
3
 72
8
 73
4
 74
0
 40
0.0
 40
0.0
 40
0.0
 40
0.0
 40
1.0
 40
1.0
 40
1.0
 40
1.0
 10
5.5593000000000004
 20
211.03650099999999
 30
0.0
 10
4.1408509999999996
 20
210.82342299999999
 30
0.0
 10
3.0269200000000001
 20
209.68493900000001
 30
0.0
 10
2.8547639999999999
 20
208.25350800000001
 30
0.0
  0
LWPOLYLINE
  5
105
  8
Layer_1
 62
1
420
16711680
370
-1
  6
ByLayer
100
AcDbEntity
100
AcDbPolyline
 90
2
 70
0
 10
188.01145099999999
 20
50.751204000000001
 10
188.01145099999999
 20
50.751204000000001
  0
SPLINE
  5
106
  8
Layer_1
 62
1
420
16711680
370
-1
  6
ByLayer
100
AcDbEntity
100
AcDbSpline
 70
8
 71
3
 72
8
 73
4
 74
0
 40
0.0
 40
0.0
 40
0.0
 40
0.0
 40
1.0
 40
1.0
 40
1.0
 40
1.0
 10
2.8547639999999999
 20
202.10359500000001
 30
0.0
 10
3.0317180000000001
 20
200.63208800000001
 30
0.0
 10
4.2026579999999996
 20
199.46820399999999
 30
0.0
 10
5.6778329999999997
 20
199.30282199999999
 30
0.0
  0
LWPOLYLINE
  5
107
  8
Layer_1
 62
1
420
16711680
370
-1
  6
ByLayer
100
AcDbEntity
100
AcDbPolyline
 90
2
 70
0
 10
2.8547639999999999
 20
208.25350800000001
 10
2.8547639999999999
 20
202.10359500000001
  0
SPLINE
  5
108
  8
Layer_1
 62
1
420
16711680
370
-1
  6
ByLayer
100
AcDbEntity
100
AcDbSpline
 70
8
 71
3
 72
8
 73
4
 74
0
 40
0.0
 40
0.0
 40
0.0
 40
0.0
 40
1.0
 40
1.0
 40
1.0
 40
1.0
 10
5.8000360000000004
 20
199.29181500000001
 30
0.0
 10
5.8434980000000003
 20
199.28842800000001
 30
0.0
 10
5.8872419999999996
 20
199.28729899999999
 30
0.0
 10
5.930987
 20
199.285888
 30
0.0
  0
SPLINE
  5
109
  8
Layer_1
 62
1
420
16711680
370
-1
  6
ByLayer
100
AcDbEntity
100
AcDbSpline
 70
8
 71
3
 72
8
 73
4
 74
0
 40
0.0
 40
0.0
 40
0.0
 40
0.0
 40
1.0
 40
1.0
 40
1.0
 40
1.0
 10
5.930987
 20
199.285888
 30
0.0
 10
6.7011710000000004
 20
199.18767500000001
 30
0.0
 10
7.3722960000000004
 20
198.776477
 30
0.0
 10
7.8162310000000002
 20
198.18380999999999
 30
0.0
  0
LWPOLYLINE
  5
10A
  8
Layer_1
 62
1
420
16711680
370
-1
  6
ByLayer
100
AcDbEntity
100
AcDbPolyline
 90
2
 70
0
 10
5.6778329999999997
 20
199.30282199999999
 10
5.8000360000000004
 20
199.29181500000001
  0
SPLINE
  5
10B
  8
Layer_1
 62
1
420
16711680
370
-1
  6
ByLayer
100
AcDbEntity
100
AcDbSpline
 70
8
 71
3
 72
8
 73
4
 74
0
 40
0.0
 40
0.0
 40
0.0
 40
0.0
 40
1.0
 40
1.0
 40
1.0
 40
1.0
 10
20.046330999999999
 20
198.18380999999999
 30
0.0
 10
20.472204000000001
 20
198.74204599999999
 30
0.0
 10
21.103252999999999
 20
199.13235900000001
 30
0.0
 10
21.826871000000001
 20
199.24891700000001
 30
0.0
  0
SPLINE
  5
10C
  8
Layer_1
 62
1
420
16711680
370
-1
  6
ByLayer
100
AcDbEntity
100
AcDbSpline
 70
8
 71
3
 72
8
 73
4
 74
0
 40
0.0
 40
0.0
 40
0.0
 40
0.0
 40
1.0
 40
1.0
 40
1.0
 40
1.0
 10
21.826871000000001
 20
199.24891700000001
 30
0.0
 10
21.885856
 20
199.24891700000001
 30
0.0
 10
21.944839999999999
 20
199.25315000000001
 30
0.0
 10
22.003260000000001
 20
199.257102
 30
0.0
  0
SPLINE
  5
10D
  8
Layer_1
 62
1
420
16711680
370
-1
  6
ByLayer
100
AcDbEntity
100
AcDbSpline
 70
8
 71
3
 72
8
 73
4
 74
0
 40
0.0
 40
0.0
 40
0.0
 40
0.0
 40
1.0
 40
1.0
 40
1.0
 40
1.0
 10
22.003260000000001
 20
199.257102
 30
0.0
 10
22.098651
 20
199.26415700000001
 30
0.0
 10
22.194042
 20
199.27347
 30
0.0
 10
22.288022000000002
 20
199.28758199999999
 30
0.0
  0
SPLINE
  5
10E
  8
Layer_1
 62
1
420
16711680
370
-1
  6
ByLayer
100
AcDbEntity
100
AcDbSpline
 70
8
 71
3
 72
8
 73
4
 74
0
 40
0.0
 40
0.0
 40
0.0
 40
0.0
 40
1.0
 40
1.0
 40
1.0
 40
1.0
 10
22.288022000000002
 20
199.28758199999999
 30
0.0
 10
23.706471000000001
 20
199.50037699999999
 30
0.0
 10
24.820402000000001
 20
200.63942599999999
 30
0.0
 10
24.992557999999999
 20
202.07085699999999
 30
0.0
  0
LWPOLYLINE
  5
10F
  8
Layer_1
 62
1
420
16711680
370
-1
  6
ByLayer
100
AcDbEntity
100
AcDbPolyline
 90
2
 70
0
 10
7.8162310000000002
 20
198.18380999999999
 10
20.046330999999999
 20
198.18380999999999
  0
SPLINE
  5
110
  8
Layer_1
 62
1
420
16711680
370
-1
  6
ByLayer
100
AcDbEntity
100
AcDbSpline
 70
8
 71
3
 72
8
 73
4
 74
0
 40
0.0
 40
0.0
 40
0.0
 40
0.0
 40
1.0
 40
1.0
 40
1.0
 40
1.0
 10
24.992557999999999
 20
208.22048799999999
 30
0.0
 10
24.81504
 20
209.691712
 30
0.0
 10
23.644100000000002
 20
210.85559699999999
 30
0.0
 10
22.168641999999998
 20
211.02154300000001
 30
0.0
  0
LWPOLYLINE
  5
111
  8
Layer_1
 62
1
420
16711680
370
-1
  6
ByLayer
100
AcDbEntity
100
AcDbPolyline
 90
2
 70
0
 10
24.992557999999999
 20
202.07085699999999
 10
24.992557999999999
 20
208.22048799999999
  0
SPLINE
  5
112
  8
Layer_1
 62
1
420
16711680
370
-1
  6
ByLayer
100
AcDbEntity
100
AcDbSpline
 70
8
 71
3
 72
8
 73
4
 74
0
 40
0.0
 40
0.0
 40
0.0
 40
0.0
 40
1.0
 40
1.0
 40
1.0
 40
1.0
 10
22.047004000000001
 20
211.03254999999999
 30
0.0
 10
22.003824000000002
 20
211.035372
 30
0.0
 10
21.959797999999999
 20
211.03678300000001
 30
0.0
 10
21.916336000000001
 20
211.038477
 30
0.0
  0
SPLINE
  5
113
  8
Layer_1
 62
1
420
16711680
370
-1
  6
ByLayer
100
AcDbEntity
100
AcDbSpline
 70
8
 71
3
 72
8
 73
4
 74
0
 40
0.0
 40
0.0
 40
0.0
 40
0.0
 40
1.0
 40
1.0
 40
1.0
 40
1.0
 10
21.916336000000001
 20
211.038477
 30
0.0
 10
21.146151
 20
211.13640799999999
 30
0.0
 10
20.474744000000001
 20
211.547888
 30
0.0
 10
20.030809000000001
 20
212.14055400000001
 30
0.0
  0
LWPOLYLINE
  5
114
  8
Layer_1
 62
1
420
16711680
370
-1
  6
ByLayer
100
AcDbEntity
100
AcDbPolyline
 90
2
 70
0
 10
22.168641999999998
 20
211.02154300000001
 10
22.047004000000001
 20
211.03254999999999
  0
SPLINE
  5
115
  8
Layer_1
 62
1
420
16711680
370
-1
  6
ByLayer
100
AcDbEntity
100
AcDbSpline
 70
8
 71
3
 72
8
 73
4
 74
0
 40
0.0
 40
0.0
 40
0.0
 40
0.0
 40
1.0
 40
1.0
 40
1.0
 40
1.0
 10
8.5096509999999999
 20
200.18617699999999
 30
0.0
 10
6.9633560000000001
 20
200.18617699999999
 30
0.0
 10
5.7097239999999996
 20
201.44009
 30
0.0
 10
5.7097239999999996
 20
202.98638600000001
 30
0.0
  0
LWPOLYLINE
  5
116
  8
Layer_1
 62
1
420
16711680
370
-1
  6
ByLayer
100
AcDbEntity
100
AcDbPolyline
 90
3
 70
0
 10
20.030809000000001
 20
212.14055400000001
 10
7.8009909999999998
 20
212.14055400000001
 10
7.8009909999999998
 20
212.14055400000001
  0
SPLINE
  5
117
  8
Layer_1
 62
1
420
16711680
370
-1
  6
ByLayer
100
AcDbEntity
100
AcDbSpline
 70
8
 71
3
 72
8
 73
4
 74
0
 40
0.0
 40
0.0
 40
0.0
 40
0.0
 40
1.0
 40
1.0
 40
1.0
 40
1.0
 10
6.0390779999999999
 20
206.78030799999999
 30
0.0
 10
7.2574310000000004
 20
206.78030799999999
 30
0.0
 10
8.2452089999999991
 20
207.76723899999999
 30
0.0
 10
8.2452089999999991
 20
208.98615699999999
 30
0.0
  0
LWPOLYLINE
  5
118
  8
Layer_1
 62
1
420
16711680
370
-1
  6
ByLayer
100
AcDbEntity
100
AcDbPolyline
 90
3
 70
0
 10
5.7097239999999996
 20
202.98638600000001
 10
5.6798089999999997
 20
206.78595200000001
 10
6.0390779999999999
 20
206.78030799999999
  0
SPLINE
  5
119
  8
Layer_1
 62
1
420
16711680
370
-1
  6
ByLayer
100
AcDbEntity
100
AcDbSpline
 70
8
 71
3
 72
8
 73
4
 74
0
 40
0.0
 40
0.0
 40
0.0
 40
0.0
 40
1.0
 40
1.0
 40
1.0
 40
1.0
 10
19.519421999999999
 20
210.18616599999999
 30
0.0
 10
21.065999999999999
 20
210.18616599999999
 30
0.0
 10
22.319913
 20
208.932817
 30
0.0
 10
22.319913
 20
207.38652099999999
 30
0.0
  0
LWPOLYLINE
  5
11A
  8
Layer_1
 62
1
420
16711680
370
-1
  6
ByLayer
100
AcDbEntity
100
AcDbPolyline
 90
3
 70
0
 10
8.2452089999999991
 20
208.98615699999999
 10
8.2392819999999993
 20
210.18616599999999
 10
19.519421999999999
 20
210.18616599999999
  0
SPLINE
  5
11B
  8
Layer_1
 62
1
420
16711680
370
-1
  6
ByLayer
100
AcDbEntity
100
AcDbSpline
 70
8
 71
3
 72
8
 73
4
 74
0
 40
0.0
 40
0.0
 40
0.0
 40
0.0
 40
1.0
 40
1.0
 40
1.0
 40
1.0
 10
20.839376000000001
 20
203.58328599999999
 30
0.0
 10
19.625256
 20
203.58328599999999
 30
0.0
 10
18.641992999999999
 20
202.60030599999999
 30
0.0
 10
18.641992999999999
 20
201.38618600000001
 30
0.0
  0
LWPOLYLINE
  5
11C
  8
Layer_1
 62
1
420
16711680
370
-1
  6
ByLayer
100
AcDbEntity
100
AcDbPolyline
 90
3
 70
0
 10
22.319913
 20
207.38652099999999
 10
22.319913
 20
203.58667299999999
 10
20.839376000000001
 20
203.58328599999999
  0
SPLINE
  5
11D
  8
Layer_1
 62
1
420
16711680
370
-1
  6
ByLayer
100
AcDbEntity
100
AcDbSpline
 70
8
 71
3
 72
8
 73
4
 74
0
 40
0.0
 40
0.0
 40
0.0
 40
0.0
 40
1.0
 40
1.0
 40
1.0
 40
1.0
 10
22.039102
 20
201.38618600000001
 30
0.0
 10
22.039102
 20
202.049126
 30
0.0
 10
21.502033000000001
 20
202.586195
 30
0.0
 10
20.839658
 20
202.586195
 30
0.0
  0
SPLINE
  5
11E
  8
Layer_1
 62
1
420
16711680
370
-1
  6
ByLayer
100
AcDbEntity
100
AcDbSpline
 70
8
 71
3
 72
8
 73
4
 74
0
 40
0.0
 40
0.0
 40
0.0
 40
0.0
 40
1.0
 40
1.0
 40
1.0
 40
1.0
 10
20.839658
 20
202.586195
 30
0.0
 10
20.176718000000001
 20
202.586195
 30
0.0
 10
19.639648999999999
 20
202.049126
 30
0.0
 10
19.639648999999999
 20
201.38618600000001
 30
0.0
  0
SPLINE
  5
11F
  8
Layer_1
 62
1
420
16711680
370
-1
  6
ByLayer
100
AcDbEntity
100
AcDbSpline
 70
8
 71
3
 72
8
 73
4
 74
0
 40
0.0
 40
0.0
 40
0.0
 40
0.0
 40
1.0
 40
1.0
 40
1.0
 40
1.0
 10
19.639648999999999
 20
201.38618600000001
 30
0.0
 10
19.639648999999999
 20
200.72352799999999
 30
0.0
 10
20.176718000000001
 20
200.18617699999999
 30
0.0
 10
20.839658
 20
200.18617699999999
 30
0.0
  0
SPLINE
  5
120
  8
Layer_1
 62
1
420
16711680
370
-1
  6
ByLayer
100
AcDbEntity
100
AcDbSpline
 70
8
 71
3
 72
8
 73
4
 74
0
 40
0.0
 40
0.0
 40
0.0
 40
0.0
 40
1.0
 40
1.0
 40
1.0
 40
1.0
 10
20.839658
 20
200.18617699999999
 30
0.0
 10
21.501750999999999
 20
200.18617699999999
 30
0.0
 10
22.039102
 20
200.72352799999999
 30
0.0
 10
22.039102
 20
201.38618600000001
 30
0.0
  0
LWPOLYLINE
  5
121
  8
Layer_1
 62
1
420
16711680
370
-1
  6
ByLayer
100
AcDbEntity
100
AcDbPolyline
 90
4
 70
0
 10
18.641992999999999
 20
201.38618600000001
 10
18.638888999999999
 20
200.18617699999999
 10
8.5096509999999999
 20
200.18617699999999
 10
8.5096509999999999
 20
200.18617699999999
  0
SPLINE
  5
122
  8
Layer_1
 62
1
420
16711680
370
-1
  6
ByLayer
100
AcDbEntity
100
AcDbSpline
 70
8
 71
3
 72
8
 73
4
 74
0
 40
0.0
 40
0.0
 40
0.0
 40
0.0
 40
1.0
 40
1.0
 40
1.0
 40
1.0
 10
7.2390869999999996
 20
208.98643899999999
 30
0.0
 10
7.2390869999999996
 20
209.64909700000001
 30
0.0
 10
6.7020179999999998
 20
210.18644800000001
 30
0.0
 10
6.0390779999999999
 20
210.18644800000001
 30
0.0
  0
SPLINE
  5
123
  8
Layer_1
 62
1
420
16711680
370
-1
  6
ByLayer
100
AcDbEntity
100
AcDbSpline
 70
8
 71
3
 72
8
 73
4
 74
0
 40
0.0
 40
0.0
 40
0.0
 40
0.0
 40
1.0
 40
1.0
 40
1.0
 40
1.0
 10
6.0390779999999999
 20
210.18644800000001
 30
0.0
 10
5.3761380000000001
 20
210.18644800000001
 30
0.0
 10
4.8390690000000003
 20
209.64909700000001
 30
0.0
 10
4.8390690000000003
 20
208.98643899999999
 30
0.0
  0
SPLINE
  5
124
  8
Layer_1
 62
1
420
16711680
370
-1
  6
ByLayer
100
AcDbEntity
100
AcDbSpline
 70
8
 71
3
 72
8
 73
4
 74
0
 40
0.0
 40
0.0
 40
0.0
 40
0.0
 40
1.0
 40
1.0
 40
1.0
 40
1.0
 10
4.8390690000000003
 20
208.98643899999999
 30
0.0
 10
4.8390690000000003
 20
208.323499
 30
0.0
 10
5.3761380000000001
 20
207.78643
 30
0.0
 10
6.0390779999999999
 20
207.78643
 30
0.0
  0
SPLINE
  5
125
  8
Layer_1
 62
1
420
16711680
370
-1
  6
ByLayer
100
AcDbEntity
100
AcDbSpline
 70
8
 71
3
 72
8
 73
4
 74
0
 40
0.0
 40
0.0
 40
0.0
 40
0.0
 40
1.0
 40
1.0
 40
1.0
 40
1.0
 10
6.0390779999999999
 20
207.78643
 30
0.0
 10
6.7020179999999998
 20
207.78643
 30
0.0
 10
7.2390869999999996
 20
208.323499
 30
0.0
 10
7.2390869999999996
 20
208.98643899999999
 30
0.0
  0
LWPOLYLINE
  5
126
  8
Layer_1
 62
1
420
16711680
370
-1
  6
ByLayer
100
AcDbEntity
100
AcDbPolyline
 90
2
 70
0
 10
22.039102
 20
201.38618600000001
 10
22.039102
 20
201.38618600000001
  0
LWPOLYLINE
  5
127
  8
Layer_1
 62
1
420
16711680
370
-1
  6
ByLayer
100
AcDbEntity
100
AcDbPolyline
 90
2
 70
0
 10
7.2390869999999996
 20
208.98643899999999
 10
7.2390869999999996
 20
208.98643899999999
  0
ENDSEC
  0
SECTION
  2
OBJECTS
  0
DICTIONARY
  5
C
100
AcDbDictionary
280
0
281
1
  3
ACAD_GROUP
350
D
  3
ACAD_LAYOUT
350
1A
  3
ACAD_MLINESTYLE
350
17
  3
ACAD_PLOTSETTINGS
350
19
  3
ACAD_PLOTSTYLENAME
350
E
  3
AcDbVariableDictionary
350
128
  0
DICTIONARY
  5
D
100
AcDbDictionary
280
0
281
1
  0
ACDBDICTIONARYWDFLT
  5
E
100
AcDbDictionary
281
1
  3
Normal
350
F
100
AcDbDictionaryWithDefault
340
F
  0
ACDBPLACEHOLDER
  5
F
  0
DICTIONARY
  5
17
100
AcDbDictionary
280
0
281
1
  3
Standard
350
18
  0
MLINESTYLE
  5
18
100
AcDbMlineStyle
  2
STANDARD
 70
0
  3

 62
256
 51
90.0
 52
90.0
 71
2
 49
0.5
 62
256
  6
BYLAYER
 49
-0.5
 62
256
  6
BYLAYER
  0
DICTIONARY
  5
19
100
AcDbDictionary
280
0
281
1
  0
DICTIONARY
  5
1A
100
AcDbDictionary
281
1
  3
Layout1
350
1E
  3
Layout2
350
26
  3
Model
350
22
  0
LAYOUT
  5
1E
100
AcDbPlotSettings
  1

  2
C:\Program Files\AutoCAD 2002\plotters\DWF ePlot (optimized for plotting).pc3
  4

  6

 40
0.0
 41
0.0
 42
0.0
 43
0.0
 44
0.0
 45
0.0
 46
0.0
 47
0.0
 48
0.0
 49
0.0
140
0.0
141
0.0
142
1.0
143
1.0
 70
688
 72
0
 73
0
 74
5
  7

 75
16
147
1.0
148
0.0
149
0.0
100
AcDbLayout
  1
Layout1
 70
1
 71
1
 10
0.0
 20
0.0
 11
420.0
 21
297.0
 12
0.0
 22
0.0
 32
0.0
 14
100000000000000000000.0
 24
100000000000000000000.0
 34
100000000000000000000.0
 15
-100000000000000000000.0
 25
-100000000000000000000.0
 35
-100000000000000000000.0
146
0.0
 13
0.0
 23
0.0
 33
0.0
 16
1.0
 26
0.0
 36
0.0
 17
0.0
 27
1.0
 37
0.0
 76
0
330
1B
  0
LAYOUT
  5
22
100
AcDbPlotSettings
  1

  2
C:\Program Files\AutoCAD 2002\plotters\DWF ePlot (optimized for plotting).pc3
  4

  6

 40
0.0
 41
0.0
 42
0.0
 43
0.0
 44
0.0
 45
0.0
 46
0.0
 47
0.0
 48
0.0
 49
0.0
140
0.0
141
0.0
142
1.0
143
1.0
 70
1712
 72
0
 73
0
 74
0
  7

 75
0
147
1.0
148
0.0
149
0.0
100
AcDbLayout
  1
Model
 70
1
 71
0
 10
0.0
 20
0.0
 11
12.0
 21
9.0
 12
0.0
 22
0.0
 32
0.0
 14
0.0
 24
0.0
 34
0.0
 15
0.0
 25
0.0
 35
0.0
146
0.0
 13
0.0
 23
0.0
 33
0.0
 16
1.0
 26
0.0
 36
0.0
 17
0.0
 27
1.0
 37
0.0
 76
0
330
1F
  0
LAYOUT
  5
26
100
AcDbPlotSettings
  1

  2
C:\Program Files\AutoCAD 2002\plotters\DWF ePlot (optimized for plotting).pc3
  4

  6

 40
0.0
 41
0.0
 42
0.0
 43
0.0
 44
0.0
 45
0.0
 46
0.0
 47
0.0
 48
0.0
 49
0.0
140
0.0
141
0.0
142
1.0
143
1.0
 70
688
 72
0
 73
0
 74
5
  7

 75
16
147
1.0
148
0.0
149
0.0
100
AcDbLayout
  1
Layout2
 70
1
 71
2
 10
0.0
 20
0.0
 11
12.0
 21
9.0
 12
0.0
 22
0.0
 32
0.0
 14
0.0
 24
0.0
 34
0.0
 15
0.0
 25
0.0
 35
0.0
146
0.0
 13
0.0
 23
0.0
 33
0.0
 16
1.0
 26
0.0
 36
0.0
 17
0.0
 27
1.0
 37
0.0
 76
0
330
23
  0
DICTIONARY
  5
128
100
AcDbDictionary
281
1
  3
DIMASSOC
350
12A
  3
HIDETEXT
350
129
  0
DICTIONARYVAR
  5
129
100
DictionaryVariables
280
0
  1
2
  0
DICTIONARYVAR
  5
12A
100
DictionaryVariables
280
0
  1
1
  0
ENDSEC
  0
EOF
