999
dxflib 2.2.0.0
  0
SECTION
  2
HEADER
  9
$ACADVER
  1
AC1015
  9
$HANDSEED
  5
FFFF
  9
$DIMASZ
 40
2.5
  9
$PLIMMIN
 10
0.0
 20
0.0
  9
$DIMEXE
 40
1.25
  9
$DIMGAP
 40
0.625
  9
$PLIMMAX
 10
210.0
 20
297.0
  9
$INSUNITS
 70
4
  9
$DIMSTYLE
  2
Standard
  9
$MEASUREMENT
 70
1
  9
$CLAYER
  8
Laser cut size
  9
$DIMEXO
 40
0.625
  9
$DIMTXT
 40
2.5
  9
$CLAYER
  8
Laser cut size
  0
ENDSEC
  0
SECTION
  2
TABLES
  0
TABLE
  2
VPORT
  5
8
100
AcDbSymbolTable
 70
1
  0
VPORT
  5
30
100
AcDbSymbolTableRecord
100
AcDbViewportTableRecord
  2
*Active
 70
0
 10
0.0
 20
0.0
 11
1.0
 21
1.0
 12
286.30555555555549
 22
148.5
 13
0.0
 23
0.0
 14
10.0
 24
10.0
 15
10.0
 25
10.0
 16
0.0
 26
0.0
 36
1.0
 17
0.0
 27
0.0
 37
0.0
 40
297.0
 41
1.92798353909465
 42
50.0
 43
0.0
 44
0.0
 50
0.0
 51
0.0
 71
0
 72
100
 73
1
 74
3
 75
1
 76
1
 77
0
 78
0
281
0
 65
1
110
0.0
120
0.0
130
0.0
111
1.0
121
0.0
131
0.0
112
0.0
122
1.0
132
0.0
 79
0
146
0.0
  0
ENDTAB
  0
TABLE
  2
LTYPE
  5
5
100
AcDbSymbolTable
 70
21
  0
LTYPE
  5
14
100
AcDbSymbolTableRecord
100
AcDbLinetypeTableRecord
  2
ByBlock
 70
0
  3

 72
65
 73
0
 40
0.0
  0
LTYPE
  5
15
100
AcDbSymbolTableRecord
100
AcDbLinetypeTableRecord
  2
ByLayer
 70
0
  3

 72
65
 73
0
 40
0.0
  0
LTYPE
  5
16
100
AcDbSymbolTableRecord
100
AcDbLinetypeTableRecord
  2
CONTINUOUS
 70
0
  3
Solid line
 72
65
 73
0
 40
0.0
  0
LTYPE
  5
31
100
AcDbSymbolTableRecord
100
AcDbLinetypeTableRecord
  2
DOT
 70
0
  3
Dot . . . . . . . . . . . . . . . . . . . . . .
 72
65
 73
2
 40
6.3499999999999996
 49
0.0
 74
0
 49
-6.3499999999999996
 74
0
  0
LTYPE
  5
32
100
AcDbSymbolTableRecord
100
AcDbLinetypeTableRecord
  2
DOT2
 70
0
  3
Dot (.5x) .....................................
 72
65
 73
2
 40
3.1749999999999998
 49
0.0
 74
0
 49
-3.1749999999999998
 74
0
  0
LTYPE
  5
33
100
AcDbSymbolTableRecord
100
AcDbLinetypeTableRecord
  2
DOTX2
 70
0
  3
Dot (2x) .  .  .  .  .  .  .  .  .  .  .  .  .
 72
65
 73
2
 40
12.699999999999999
 49
0.0
 74
0
 49
-12.699999999999999
 74
0
  0
LTYPE
  5
34
100
AcDbSymbolTableRecord
100
AcDbLinetypeTableRecord
  2
DASHED
 70
0
  3
Dashed __ __ __ __ __ __ __ __ __ __ __ __ __ _
 72
65
 73
2
 40
19.050000000000001
 49
12.699999999999999
 74
0
 49
-6.3499999999999996
 74
0
  0
LTYPE
  5
35
100
AcDbSymbolTableRecord
100
AcDbLinetypeTableRecord
  2
DASHED2
 70
0
  3
Dashed (.5x) _ _ _ _ _ _ _ _ _ _ _ _ _ _ _ _ _
 72
65
 73
2
 40
9.5250000000000004
 49
6.3499999999999996
 74
0
 49
-3.1749999999999998
 74
0
  0
LTYPE
  5
36
100
AcDbSymbolTableRecord
100
AcDbLinetypeTableRecord
  2
DASHEDX2
 70
0
  3
Dashed (2x) ____  ____  ____  ____  ____  ___
 72
65
 73
2
 40
38.100000000000001
 49
25.399999999999999
 74
0
 49
-12.699999999999999
 74
0
  0
LTYPE
  5
37
100
AcDbSymbolTableRecord
100
AcDbLinetypeTableRecord
  2
DASHDOT
 70
0
  3
Dash dot __ . __ . __ . __ . __ . __ . __ . __
 72
65
 73
4
 40
25.399999999999999
 49
12.699999999999999
 74
0
 49
-6.3499999999999996
 74
0
 49
0.0
 74
0
 49
-6.3499999999999996
 74
0
  0
LTYPE
  5
38
100
AcDbSymbolTableRecord
100
AcDbLinetypeTableRecord
  2
DASHDOT2
 70
0
  3
Dash dot (.5x) _._._._._._._._._._._._._._._.
 72
65
 73
4
 40
12.699999999999999
 49
6.3499999999999996
 74
0
 49
-3.1749999999999998
 74
0
 49
0.0
 74
0
 49
-3.1749999999999998
 74
0
  0
LTYPE
  5
39
100
AcDbSymbolTableRecord
100
AcDbLinetypeTableRecord
  2
DASHDOTX2
 70
0
  3
Dash dot (2x) ____  .  ____  .  ____  .  ___
 72
65
 73
4
 40
50.799999999999997
 49
25.399999999999999
 74
0
 49
-12.699999999999999
 74
0
 49
0.0
 74
0
 49
-12.699999999999999
 74
0
  0
LTYPE
  5
3A
100
AcDbSymbolTableRecord
100
AcDbLinetypeTableRecord
  2
DIVIDE
 70
0
  3
Divide ____ . . ____ . . ____ . . ____ . . ____
 72
65
 73
6
 40
31.75
 49
12.699999999999999
 74
0
 49
-6.3499999999999996
 74
0
 49
0.0
 74
0
 49
-6.3499999999999996
 74
0
 49
0.0
 74
0
 49
-6.3499999999999996
 74
0
  0
LTYPE
  5
3B
100
AcDbSymbolTableRecord
100
AcDbLinetypeTableRecord
  2
DIVIDE2
 70
0
  3
Divide (.5x) __..__..__..__..__..__..__..__.._
 72
65
 73
6
 40
15.875
 49
6.3499999999999996
 74
0
 49
-3.1749999999999998
 74
0
 49
0.0
 74
0
 49
-3.1749999999999998
 74
0
 49
0.0
 74
0
 49
-3.1749999999999998
 74
0
  0
LTYPE
  5
3C
100
AcDbSymbolTableRecord
100
AcDbLinetypeTableRecord
  2
DIVIDEX2
 70
0
  3
Divide (2x) ________  .  .  ________  .  .  _
 72
65
 73
6
 40
63.5
 49
25.399999999999999
 74
0
 49
-12.699999999999999
 74
0
 49
0.0
 74
0
 49
-12.699999999999999
 74
0
 49
0.0
 74
0
 49
-12.699999999999999
 74
0
  0
LTYPE
  5
3D
100
AcDbSymbolTableRecord
100
AcDbLinetypeTableRecord
  2
CENTER
 70
0
  3
Center ____ _ ____ _ ____ _ ____ _ ____ _ ____
 72
65
 73
4
 40
50.799999999999997
 49
31.75
 74
0
 49
-6.3499999999999996
 74
0
 49
6.3499999999999996
 74
0
 49
-6.3499999999999996
 74
0
  0
LTYPE
  5
3E
100
AcDbSymbolTableRecord
100
AcDbLinetypeTableRecord
  2
CENTER2
 70
0
  3
Center (.5x) ___ _ ___ _ ___ _ ___ _ ___ _ ___
 72
65
 73
4
 40
28.574999999999999
 49
19.050000000000001
 74
0
 49
-3.1749999999999998
 74
0
 49
3.1749999999999998
 74
0
 49
-3.1749999999999998
 74
0
  0
LTYPE
  5
3F
100
AcDbSymbolTableRecord
100
AcDbLinetypeTableRecord
  2
CENTERX2
 70
0
  3
Center (2x) ________  __  ________  __  _____
 72
65
 73
4
 40
101.59999999999999
 49
63.5
 74
0
 49
-12.699999999999999
 74
0
 49
12.699999999999999
 74
0
 49
-12.699999999999999
 74
0
  0
LTYPE
  5
40
100
AcDbSymbolTableRecord
100
AcDbLinetypeTableRecord
  2
BORDER
 70
0
  3
Border __ __ . __ __ . __ __ . __ __ . __ __ .
 72
65
 73
6
 40
44.450000000000003
 49
12.699999999999999
 74
0
 49
-6.3499999999999996
 74
0
 49
12.699999999999999
 74
0
 49
-6.3499999999999996
 74
0
 49
0.0
 74
0
 49
-6.3499999999999996
 74
0
  0
LTYPE
  5
41
100
AcDbSymbolTableRecord
100
AcDbLinetypeTableRecord
  2
BORDER2
 70
0
  3
Border (.5x) __.__.__.__.__.__.__.__.__.__.__.
 72
65
 73
6
 40
22.225000000000001
 49
6.3499999999999996
 74
0
 49
-3.1749999999999998
 74
0
 49
6.3499999999999996
 74
0
 49
-3.1749999999999998
 74
0
 49
0.0
 74
0
 49
-3.1749999999999998
 74
0
  0
LTYPE
  5
42
100
AcDbSymbolTableRecord
100
AcDbLinetypeTableRecord
  2
BORDERX2
 70
0
  3
Border (2x) ____  ____  .  ____  ____  .  ___
 72
65
 73
6
 40
88.900000000000006
 49
25.399999999999999
 74
0
 49
-12.699999999999999
 74
0
 49
25.399999999999999
 74
0
 49
-12.699999999999999
 74
0
 49
0.0
 74
0
 49
-12.699999999999999
 74
0
  0
ENDTAB
  0
TABLE
  2
LAYER
  5
2
100
AcDbSymbolTable
 70
3
  0
LAYER
  5
10
100
AcDbSymbolTableRecord
100
AcDbLayerTableRecord
  2
0
 70
0
 62
7
420
16777215
  6
CONTINUOUS
390
F
  0
LAYER
  5
43
100
AcDbSymbolTableRecord
100
AcDbLayerTableRecord
  2
Layer_1
 70
0
 62
7
420
16777215
  6
CONTINUOUS
390
F
  0
LAYER
  5
44
100
AcDbSymbolTableRecord
100
AcDbLayerTableRecord
  2
Laser cut size
 70
1
 62
-3
420
65280
  6
CONTINUOUS
370
0
390
F
  0
ENDTAB
  0
TABLE
  2
STYLE
  5
3
100
AcDbSymbolTable
 70
1
  0
STYLE
  5
11
100
AcDbSymbolTableRecord
100
AcDbTextStyleTableRecord
  2
Standard
 70
0
 40
0.0
 41
0.75
 50
0.0
 71
0
 42
2.5
  3
txt
  4

  0
ENDTAB
  0
TABLE
  2
VIEW
  5
6
100
AcDbSymbolTable
 70
0
  0
ENDTAB
  0
TABLE
  2
UCS
  5
7
100
AcDbSymbolTable
 70
0
  0
ENDTAB
  0
TABLE
  2
APPID
  5
9
100
AcDbSymbolTable
 70
1
  0
APPID
  5
12
100
AcDbSymbolTableRecord
100
AcDbRegAppTableRecord
  2
ACAD
 70
0
  0
ENDTAB
  0
TABLE
  2
DIMSTYLE
  5
A
100
AcDbSymbolTable
 70
1
100
AcDbDimStyleTable
 71
0
  0
DIMSTYLE
105
27
100
AcDbSymbolTableRecord
100
AcDbDimStyleTableRecord
  2
Standard
 41
2.5
 42
0.625
 43
3.75
 44
1.25
 70
0
 73
0
 74
0
 77
1
 78
8
140
2.5
141
2.5
143
0.03937007874016
147
0.625
171
3
172
1
271
2
272
2
274
3
278
44
283
0
284
8
340
11
  0
ENDTAB
  0
TABLE
  2
BLOCK_RECORD
  5
1
100
AcDbSymbolTable
 70
1
  0
BLOCK_RECORD
  5
1F
100
AcDbSymbolTableRecord
100
AcDbBlockTableRecord
  2
*Model_Space
340
22
  0
BLOCK_RECORD
  5
1B
100
AcDbSymbolTableRecord
100
AcDbBlockTableRecord
  2
*Paper_Space
340
1E
  0
BLOCK_RECORD
  5
23
100
AcDbSymbolTableRecord
100
AcDbBlockTableRecord
  2
*Paper_Space0
340
26
  0
ENDTAB
  0
ENDSEC
  0
SECTION
  2
BLOCKS
  0
BLOCK
  5
20
100
AcDbEntity
  8
0
100
AcDbBlockBegin
  2
*Model_Space
 70
0
 10
0.0
 20
0.0
 30
0.0
  3
*Model_Space
  1

  0
ENDBLK
  5
21
100
AcDbEntity
  8
0
100
AcDbBlockEnd
  0
BLOCK
  5
1C
100
AcDbEntity
 67
1
  8
0
100
AcDbBlockBegin
  2
*Paper_Space
 70
0
 10
0.0
 20
0.0
 30
0.0
  3
*Paper_Space
  1

  0
ENDBLK
  5
1D
100
AcDbEntity
 67
1
  8
0
100
AcDbBlockEnd
  0
BLOCK
  5
24
100
AcDbEntity
  8
0
100
AcDbBlockBegin
  2
*Paper_Space0
 70
0
 10
0.0
 20
0.0
 30
0.0
  3
*Paper_Space0
  1

  0
ENDBLK
  5
25
100
AcDbEntity
  8
0
100
AcDbBlockEnd
  0
ENDSEC
  0
SECTION
  2
ENTITIES
  0
SPLINE
  5
45
  8
Layer_1
 62
1
420
16711680
370
-1
  6
ByLayer
100
AcDbEntity
100
AcDbSpline
 70
8
 71
3
 72
8
 73
4
 74
0
 40
0.0
 40
0.0
 40
0.0
 40
0.0
 40
1.0
 40
1.0
 40
1.0
 40
1.0
 10
33.694105
 20
9.5648990000000005
 30
0.0
 10
33.694105
 20
10.344396
 30
0.0
 10
34.328539999999997
 20
10.978267000000001
 30
0.0
 10
35.107474000000003
 20
10.978267000000001
 30
0.0
  0
SPLINE
  5
46
  8
Layer_1
 62
1
420
16711680
370
-1
  6
ByLayer
100
AcDbEntity
100
AcDbSpline
 70
8
 71
3
 72
8
 73
4
 74
0
 40
0.0
 40
0.0
 40
0.0
 40
0.0
 40
1.0
 40
1.0
 40
1.0
 40
1.0
 10
35.814157999999999
 20
10.938473999999999
 30
0.0
 10
35.814157999999999
 20
10.320971999999999
 30
0.0
 10
36.316231000000002
 20
9.8186160000000005
 30
0.0
 10
36.934579999999997
 20
9.8186160000000005
 30
0.0
  0
SPLINE
  5
47
  8
Layer_1
 62
1
420
16711680
370
-1
  6
ByLayer
100
AcDbEntity
100
AcDbSpline
 70
8
 71
3
 72
8
 73
4
 74
0
 40
0.0
 40
0.0
 40
0.0
 40
0.0
 40
1.0
 40
1.0
 40
1.0
 40
1.0
 10
36.934579999999997
 20
9.8186160000000005
 30
0.0
 10
37.5518
 20
9.8186160000000005
 30
0.0
 10
38.054437999999998
 20
10.320971999999999
 30
0.0
 10
38.054437999999998
 20
10.938473999999999
 30
0.0
  0
LWPOLYLINE
  5
48
  8
Layer_1
 62
1
420
16711680
370
-1
  6
ByLayer
100
AcDbEntity
100
AcDbPolyline
 90
3
 70
0
 10
35.107474000000003
 20
10.978267000000001
 10
35.814157999999999
 20
10.978267000000001
 10
35.814157999999999
 20
10.938473999999999
  0
SPLINE
  5
49
  8
Layer_1
 62
1
420
16711680
370
-1
  6
ByLayer
100
AcDbEntity
100
AcDbSpline
 70
8
 71
3
 72
8
 73
4
 74
0
 40
0.0
 40
0.0
 40
0.0
 40
0.0
 40
1.0
 40
1.0
 40
1.0
 40
1.0
 10
38.761122
 20
10.978267000000001
 30
0.0
 10
39.540056
 20
10.978267000000001
 30
0.0
 10
40.173926999999999
 20
10.344396
 30
0.0
 10
40.173926999999999
 20
9.5648990000000005
 30
0.0
  0
LWPOLYLINE
  5
4A
  8
Layer_1
 62
1
420
16711680
370
-1
  6
ByLayer
100
AcDbEntity
100
AcDbPolyline
 90
3
 70
0
 10
38.054437999999998
 20
10.938473999999999
 10
38.054437999999998
 20
10.978267000000001
 10
38.761122
 20
10.978267000000001
  0
SPLINE
  5
4B
  8
Layer_1
 62
1
420
16711680
370
-1
  6
ByLayer
100
AcDbEntity
100
AcDbSpline
 70
8
 71
3
 72
8
 73
4
 74
0
 40
0.0
 40
0.0
 40
0.0
 40
0.0
 40
1.0
 40
1.0
 40
1.0
 40
1.0
 10
40.173926999999999
 20
4.3124609999999999
 30
0.0
 10
40.173926999999999
 20
3.533245
 30
0.0
 10
39.540056
 20
2.8988100000000001
 30
0.0
 10
38.761122
 20
2.8988100000000001
 30
0.0
  0
LWPOLYLINE
  5
4C
  8
Layer_1
 62
1
420
16711680
370
-1
  6
ByLayer
100
AcDbEntity
100
AcDbPolyline
 90
2
 70
0
 10
40.173926999999999
 20
9.5648990000000005
 10
40.173926999999999
 20
4.3124609999999999
  0
SPLINE
  5
4D
  8
Layer_1
 62
1
420
16711680
370
-1
  6
ByLayer
100
AcDbEntity
100
AcDbSpline
 70
8
 71
3
 72
8
 73
4
 74
0
 40
0.0
 40
0.0
 40
0.0
 40
0.0
 40
1.0
 40
1.0
 40
1.0
 40
1.0
 10
38.054437999999998
 20
2.9386030000000001
 30
0.0
 10
38.054437999999998
 20
3.556387
 30
0.0
 10
37.5518
 20
4.0587429999999998
 30
0.0
 10
36.934579999999997
 20
4.0587429999999998
 30
0.0
  0
SPLINE
  5
4E
  8
Layer_1
 62
1
420
16711680
370
-1
  6
ByLayer
100
AcDbEntity
100
AcDbSpline
 70
8
 71
3
 72
8
 73
4
 74
0
 40
0.0
 40
0.0
 40
0.0
 40
0.0
 40
1.0
 40
1.0
 40
1.0
 40
1.0
 10
36.934579999999997
 20
4.0587429999999998
 30
0.0
 10
36.316513999999998
 20
4.0587429999999998
 30
0.0
 10
35.814157999999999
 20
3.55667
 30
0.0
 10
35.814157999999999
 20
2.9386030000000001
 30
0.0
  0
LWPOLYLINE
  5
4F
  8
Layer_1
 62
1
420
16711680
370
-1
  6
ByLayer
100
AcDbEntity
100
AcDbPolyline
 90
3
 70
0
 10
38.761122
 20
2.8988100000000001
 10
38.054437999999998
 20
2.8988100000000001
 10
38.054437999999998
 20
2.9386030000000001
  0
SPLINE
  5
50
  8
Layer_1
 62
1
420
16711680
370
-1
  6
ByLayer
100
AcDbEntity
100
AcDbSpline
 70
8
 71
3
 72
8
 73
4
 74
0
 40
0.0
 40
0.0
 40
0.0
 40
0.0
 40
1.0
 40
1.0
 40
1.0
 40
1.0
 10
35.107474000000003
 20
2.8988100000000001
 30
0.0
 10
34.328539999999997
 20
2.8988100000000001
 30
0.0
 10
33.694105
 20
3.533245
 30
0.0
 10
33.694105
 20
4.3124609999999999
 30
0.0
  0
SPLINE
  5
51
  8
Layer_1
 62
1
420
16711680
370
-1
  6
ByLayer
100
AcDbEntity
100
AcDbSpline
 70
8
 71
3
 72
8
 73
4
 74
0
 40
0.0
 40
0.0
 40
0.0
 40
0.0
 40
1.0
 40
1.0
 40
1.0
 40
1.0
 10
35.934384999999999
 20
6.9385389999999996
 30
0.0
 10
35.934384999999999
 20
7.4905650000000001
 30
0.0
 10
36.381706999999999
 20
7.9384519999999998
 30
0.0
 10
36.934297999999998
 20
7.9384519999999998
 30
0.0
  0
SPLINE
  5
52
  8
Layer_1
 62
1
420
16711680
370
-1
  6
ByLayer
100
AcDbEntity
100
AcDbSpline
 70
8
 71
3
 72
8
 73
4
 74
0
 40
0.0
 40
0.0
 40
0.0
 40
0.0
 40
1.0
 40
1.0
 40
1.0
 40
1.0
 10
36.934297999999998
 20
7.9384519999999998
 30
0.0
 10
37.486041999999998
 20
7.9384519999999998
 30
0.0
 10
37.933928999999999
 20
7.4905650000000001
 30
0.0
 10
37.933928999999999
 20
6.9385389999999996
 30
0.0
  0
SPLINE
  5
53
  8
Layer_1
 62
1
420
16711680
370
-1
  6
ByLayer
100
AcDbEntity
100
AcDbSpline
 70
8
 71
3
 72
8
 73
4
 74
0
 40
0.0
 40
0.0
 40
0.0
 40
0.0
 40
1.0
 40
1.0
 40
1.0
 40
1.0
 10
37.933928999999999
 20
6.9385389999999996
 30
0.0
 10
37.933928999999999
 20
6.3862300000000003
 30
0.0
 10
37.486041999999998
 20
5.9383429999999997
 30
0.0
 10
36.934297999999998
 20
5.9383429999999997
 30
0.0
  0
SPLINE
  5
54
  8
Layer_1
 62
1
420
16711680
370
-1
  6
ByLayer
100
AcDbEntity
100
AcDbSpline
 70
8
 71
3
 72
8
 73
4
 74
0
 40
0.0
 40
0.0
 40
0.0
 40
0.0
 40
1.0
 40
1.0
 40
1.0
 40
1.0
 10
36.934297999999998
 20
5.9383429999999997
 30
0.0
 10
36.381706999999999
 20
5.9383429999999997
 30
0.0
 10
35.934384999999999
 20
6.3862300000000003
 30
0.0
 10
35.934384999999999
 20
6.9385389999999996
 30
0.0
  0
LWPOLYLINE
  5
55
  8
Layer_1
 62
1
420
16711680
370
-1
  6
ByLayer
100
AcDbEntity
100
AcDbPolyline
 90
3
 70
0
 10
35.814157999999999
 20
2.9386030000000001
 10
35.814157999999999
 20
2.8988100000000001
 10
35.107474000000003
 20
2.8988100000000001
  0
SPLINE
  5
56
  8
Layer_1
 62
1
420
16711680
370
-1
  6
ByLayer
100
AcDbEntity
100
AcDbSpline
 70
8
 71
3
 72
8
 73
4
 74
0
 40
0.0
 40
0.0
 40
0.0
 40
0.0
 40
1.0
 40
1.0
 40
1.0
 40
1.0
 10
27.213999999999999
 20
9.5648990000000005
 30
0.0
 10
27.213999999999999
 20
10.344396
 30
0.0
 10
27.848436
 20
10.978267000000001
 30
0.0
 10
28.627369000000002
 20
10.978267000000001
 30
0.0
  0
LWPOLYLINE
  5
57
  8
Layer_1
 62
1
420
16711680
370
-1
  6
ByLayer
100
AcDbEntity
100
AcDbPolyline
 90
2
 70
0
 10
35.934384999999999
 20
6.9385389999999996
 10
35.934384999999999
 20
6.9385389999999996
  0
SPLINE
  5
58
  8
Layer_1
 62
1
420
16711680
370
-1
  6
ByLayer
100
AcDbEntity
100
AcDbSpline
 70
8
 71
3
 72
8
 73
4
 74
0
 40
0.0
 40
0.0
 40
0.0
 40
0.0
 40
1.0
 40
1.0
 40
1.0
 40
1.0
 10
29.334053999999998
 20
10.938473999999999
 30
0.0
 10
29.334053999999998
 20
10.320971999999999
 30
0.0
 10
29.836690999999998
 20
9.8186160000000005
 30
0.0
 10
30.454476
 20
9.8186160000000005
 30
0.0
  0
SPLINE
  5
59
  8
Layer_1
 62
1
420
16711680
370
-1
  6
ByLayer
100
AcDbEntity
100
AcDbSpline
 70
8
 71
3
 72
8
 73
4
 74
0
 40
0.0
 40
0.0
 40
0.0
 40
0.0
 40
1.0
 40
1.0
 40
1.0
 40
1.0
 10
30.454476
 20
9.8186160000000005
 30
0.0
 10
31.071695999999999
 20
9.8186160000000005
 30
0.0
 10
31.574334
 20
10.320971999999999
 30
0.0
 10
31.574334
 20
10.938473999999999
 30
0.0
  0
LWPOLYLINE
  5
5A
  8
Layer_1
 62
1
420
16711680
370
-1
  6
ByLayer
100
AcDbEntity
100
AcDbPolyline
 90
3
 70
0
 10
28.627369000000002
 20
10.978267000000001
 10
29.334053999999998
 20
10.978267000000001
 10
29.334053999999998
 20
10.938473999999999
  0
SPLINE
  5
5B
  8
Layer_1
 62
1
420
16711680
370
-1
  6
ByLayer
100
AcDbEntity
100
AcDbSpline
 70
8
 71
3
 72
8
 73
4
 74
0
 40
0.0
 40
0.0
 40
0.0
 40
0.0
 40
1.0
 40
1.0
 40
1.0
 40
1.0
 10
32.281018000000003
 20
10.978267000000001
 30
0.0
 10
33.059950999999998
 20
10.978267000000001
 30
0.0
 10
33.694386999999999
 20
10.344396
 30
0.0
 10
33.694386999999999
 20
9.5648990000000005
 30
0.0
  0
LWPOLYLINE
  5
5C
  8
Layer_1
 62
1
420
16711680
370
-1
  6
ByLayer
100
AcDbEntity
100
AcDbPolyline
 90
3
 70
0
 10
31.574334
 20
10.938473999999999
 10
31.574334
 20
10.978267000000001
 10
32.281018000000003
 20
10.978267000000001
  0
SPLINE
  5
5D
  8
Layer_1
 62
1
420
16711680
370
-1
  6
ByLayer
100
AcDbEntity
100
AcDbSpline
 70
8
 71
3
 72
8
 73
4
 74
0
 40
0.0
 40
0.0
 40
0.0
 40
0.0
 40
1.0
 40
1.0
 40
1.0
 40
1.0
 10
33.694386999999999
 20
4.3124609999999999
 30
0.0
 10
33.694386999999999
 20
3.533245
 30
0.0
 10
33.059950999999998
 20
2.8988100000000001
 30
0.0
 10
32.281018000000003
 20
2.8988100000000001
 30
0.0
  0
LWPOLYLINE
  5
5E
  8
Layer_1
 62
1
420
16711680
370
-1
  6
ByLayer
100
AcDbEntity
100
AcDbPolyline
 90
2
 70
0
 10
33.694386999999999
 20
9.5648990000000005
 10
33.694386999999999
 20
4.3124609999999999
  0
SPLINE
  5
5F
  8
Layer_1
 62
1
420
16711680
370
-1
  6
ByLayer
100
AcDbEntity
100
AcDbSpline
 70
8
 71
3
 72
8
 73
4
 74
0
 40
0.0
 40
0.0
 40
0.0
 40
0.0
 40
1.0
 40
1.0
 40
1.0
 40
1.0
 10
31.574334
 20
2.9386030000000001
 30
0.0
 10
31.574334
 20
3.556387
 30
0.0
 10
31.071695999999999
 20
4.0587429999999998
 30
0.0
 10
30.454476
 20
4.0587429999999998
 30
0.0
  0
SPLINE
  5
60
  8
Layer_1
 62
1
420
16711680
370
-1
  6
ByLayer
100
AcDbEntity
100
AcDbSpline
 70
8
 71
3
 72
8
 73
4
 74
0
 40
0.0
 40
0.0
 40
0.0
 40
0.0
 40
1.0
 40
1.0
 40
1.0
 40
1.0
 10
30.454476
 20
4.0587429999999998
 30
0.0
 10
29.836974000000001
 20
4.0587429999999998
 30
0.0
 10
29.334053999999998
 20
3.55667
 30
0.0
 10
29.334053999999998
 20
2.9386030000000001
 30
0.0
  0
LWPOLYLINE
  5
61
  8
Layer_1
 62
1
420
16711680
370
-1
  6
ByLayer
100
AcDbEntity
100
AcDbPolyline
 90
3
 70
0
 10
32.281018000000003
 20
2.8988100000000001
 10
31.574334
 20
2.8988100000000001
 10
31.574334
 20
2.9386030000000001
  0
SPLINE
  5
62
  8
Layer_1
 62
1
420
16711680
370
-1
  6
ByLayer
100
AcDbEntity
100
AcDbSpline
 70
8
 71
3
 72
8
 73
4
 74
0
 40
0.0
 40
0.0
 40
0.0
 40
0.0
 40
1.0
 40
1.0
 40
1.0
 40
1.0
 10
28.627369000000002
 20
2.8988100000000001
 30
0.0
 10
27.848436
 20
2.8988100000000001
 30
0.0
 10
27.213999999999999
 20
3.533245
 30
0.0
 10
27.213999999999999
 20
4.3124609999999999
 30
0.0
  0
SPLINE
  5
63
  8
Layer_1
 62
1
420
16711680
370
-1
  6
ByLayer
100
AcDbEntity
100
AcDbSpline
 70
8
 71
3
 72
8
 73
4
 74
0
 40
0.0
 40
0.0
 40
0.0
 40
0.0
 40
1.0
 40
1.0
 40
1.0
 40
1.0
 10
29.454280000000001
 20
6.9385389999999996
 30
0.0
 10
29.454280000000001
 20
7.4905650000000001
 30
0.0
 10
29.901319999999998
 20
7.9384519999999998
 30
0.0
 10
30.454194000000001
 20
7.9384519999999998
 30
0.0
  0
SPLINE
  5
64
  8
Layer_1
 62
1
420
16711680
370
-1
  6
ByLayer
100
AcDbEntity
100
AcDbSpline
 70
8
 71
3
 72
8
 73
4
 74
0
 40
0.0
 40
0.0
 40
0.0
 40
0.0
 40
1.0
 40
1.0
 40
1.0
 40
1.0
 10
30.454194000000001
 20
7.9384519999999998
 30
0.0
 10
31.005938
 20
7.9384519999999998
 30
0.0
 10
31.453541999999999
 20
7.4905650000000001
 30
0.0
 10
31.453541999999999
 20
6.9385389999999996
 30
0.0
  0
SPLINE
  5
65
  8
Layer_1
 62
1
420
16711680
370
-1
  6
ByLayer
100
AcDbEntity
100
AcDbSpline
 70
8
 71
3
 72
8
 73
4
 74
0
 40
0.0
 40
0.0
 40
0.0
 40
0.0
 40
1.0
 40
1.0
 40
1.0
 40
1.0
 10
31.453541999999999
 20
6.9385389999999996
 30
0.0
 10
31.453541999999999
 20
6.3862300000000003
 30
0.0
 10
31.005938
 20
5.9383429999999997
 30
0.0
 10
30.454194000000001
 20
5.9383429999999997
 30
0.0
  0
SPLINE
  5
66
  8
Layer_1
 62
1
420
16711680
370
-1
  6
ByLayer
100
AcDbEntity
100
AcDbSpline
 70
8
 71
3
 72
8
 73
4
 74
0
 40
0.0
 40
0.0
 40
0.0
 40
0.0
 40
1.0
 40
1.0
 40
1.0
 40
1.0
 10
30.454194000000001
 20
5.9383429999999997
 30
0.0
 10
29.901319999999998
 20
5.9383429999999997
 30
0.0
 10
29.454280000000001
 20
6.3862300000000003
 30
0.0
 10
29.454280000000001
 20
6.9385389999999996
 30
0.0
  0
LWPOLYLINE
  5
67
  8
Layer_1
 62
1
420
16711680
370
-1
  6
ByLayer
100
AcDbEntity
100
AcDbPolyline
 90
3
 70
0
 10
29.334053999999998
 20
2.9386030000000001
 10
29.334053999999998
 20
2.8988100000000001
 10
28.627369000000002
 20
2.8988100000000001
  0
SPLINE
  5
68
  8
Layer_1
 62
1
420
16711680
370
-1
  6
ByLayer
100
AcDbEntity
100
AcDbSpline
 70
8
 71
3
 72
8
 73
4
 74
0
 40
0.0
 40
0.0
 40
0.0
 40
0.0
 40
1.0
 40
1.0
 40
1.0
 40
1.0
 10
20.734459999999999
 20
9.5648990000000005
 30
0.0
 10
20.734459999999999
 20
10.344396
 30
0.0
 10
21.368331000000001
 20
10.978267000000001
 30
0.0
 10
22.147265000000001
 20
10.978267000000001
 30
0.0
  0
LWPOLYLINE
  5
69
  8
Layer_1
 62
1
420
16711680
370
-1
  6
ByLayer
100
AcDbEntity
100
AcDbPolyline
 90
2
 70
0
 10
29.454280000000001
 20
6.9385389999999996
 10
29.454280000000001
 20
6.9385389999999996
  0
SPLINE
  5
6A
  8
Layer_1
 62
1
420
16711680
370
-1
  6
ByLayer
100
AcDbEntity
100
AcDbSpline
 70
8
 71
3
 72
8
 73
4
 74
0
 40
0.0
 40
0.0
 40
0.0
 40
0.0
 40
1.0
 40
1.0
 40
1.0
 40
1.0
 10
22.853949
 20
10.938473999999999
 30
0.0
 10
22.853949
 20
10.320971999999999
 30
0.0
 10
23.356587000000001
 20
9.8186160000000005
 30
0.0
 10
23.974371000000001
 20
9.8186160000000005
 30
0.0
  0
SPLINE
  5
6B
  8
Layer_1
 62
1
420
16711680
370
-1
  6
ByLayer
100
AcDbEntity
100
AcDbSpline
 70
8
 71
3
 72
8
 73
4
 74
0
 40
0.0
 40
0.0
 40
0.0
 40
0.0
 40
1.0
 40
1.0
 40
1.0
 40
1.0
 10
23.974371000000001
 20
9.8186160000000005
 30
0.0
 10
24.592155999999999
 20
9.8186160000000005
 30
0.0
 10
25.093947
 20
10.320971999999999
 30
0.0
 10
25.093947
 20
10.938473999999999
 30
0.0
  0
LWPOLYLINE
  5
6C
  8
Layer_1
 62
1
420
16711680
370
-1
  6
ByLayer
100
AcDbEntity
100
AcDbPolyline
 90
3
 70
0
 10
22.147265000000001
 20
10.978267000000001
 10
22.853949
 20
10.978267000000001
 10
22.853949
 20
10.938473999999999
  0
SPLINE
  5
6D
  8
Layer_1
 62
1
420
16711680
370
-1
  6
ByLayer
100
AcDbEntity
100
AcDbSpline
 70
8
 71
3
 72
8
 73
4
 74
0
 40
0.0
 40
0.0
 40
0.0
 40
0.0
 40
1.0
 40
1.0
 40
1.0
 40
1.0
 10
25.800913999999999
 20
10.978267000000001
 30
0.0
 10
26.579847000000001
 20
10.978267000000001
 30
0.0
 10
27.214282000000001
 20
10.344396
 30
0.0
 10
27.214282000000001
 20
9.5648990000000005
 30
0.0
  0
LWPOLYLINE
  5
6E
  8
Layer_1
 62
1
420
16711680
370
-1
  6
ByLayer
100
AcDbEntity
100
AcDbPolyline
 90
3
 70
0
 10
25.093947
 20
10.938473999999999
 10
25.093947
 20
10.978267000000001
 10
25.800913999999999
 20
10.978267000000001
  0
SPLINE
  5
6F
  8
Layer_1
 62
1
420
16711680
370
-1
  6
ByLayer
100
AcDbEntity
100
AcDbSpline
 70
8
 71
3
 72
8
 73
4
 74
0
 40
0.0
 40
0.0
 40
0.0
 40
0.0
 40
1.0
 40
1.0
 40
1.0
 40
1.0
 10
27.214282000000001
 20
4.3124609999999999
 30
0.0
 10
27.214282000000001
 20
3.533245
 30
0.0
 10
26.579847000000001
 20
2.8988100000000001
 30
0.0
 10
25.800913999999999
 20
2.8988100000000001
 30
0.0
  0
LWPOLYLINE
  5
70
  8
Layer_1
 62
1
420
16711680
370
-1
  6
ByLayer
100
AcDbEntity
100
AcDbPolyline
 90
2
 70
0
 10
27.214282000000001
 20
9.5648990000000005
 10
27.214282000000001
 20
4.3124609999999999
  0
SPLINE
  5
71
  8
Layer_1
 62
1
420
16711680
370
-1
  6
ByLayer
100
AcDbEntity
100
AcDbSpline
 70
8
 71
3
 72
8
 73
4
 74
0
 40
0.0
 40
0.0
 40
0.0
 40
0.0
 40
1.0
 40
1.0
 40
1.0
 40
1.0
 10
25.093947
 20
2.9386030000000001
 30
0.0
 10
25.093947
 20
3.556387
 30
0.0
 10
24.592155999999999
 20
4.0587429999999998
 30
0.0
 10
23.974371000000001
 20
4.0587429999999998
 30
0.0
  0
SPLINE
  5
72
  8
Layer_1
 62
1
420
16711680
370
-1
  6
ByLayer
100
AcDbEntity
100
AcDbSpline
 70
8
 71
3
 72
8
 73
4
 74
0
 40
0.0
 40
0.0
 40
0.0
 40
0.0
 40
1.0
 40
1.0
 40
1.0
 40
1.0
 10
23.974371000000001
 20
4.0587429999999998
 30
0.0
 10
23.356587000000001
 20
4.0587429999999998
 30
0.0
 10
22.853949
 20
3.55667
 30
0.0
 10
22.853949
 20
2.9386030000000001
 30
0.0
  0
LWPOLYLINE
  5
73
  8
Layer_1
 62
1
420
16711680
370
-1
  6
ByLayer
100
AcDbEntity
100
AcDbPolyline
 90
3
 70
0
 10
25.800913999999999
 20
2.8988100000000001
 10
25.093947
 20
2.8988100000000001
 10
25.093947
 20
2.9386030000000001
  0
SPLINE
  5
74
  8
Layer_1
 62
1
420
16711680
370
-1
  6
ByLayer
100
AcDbEntity
100
AcDbSpline
 70
8
 71
3
 72
8
 73
4
 74
0
 40
0.0
 40
0.0
 40
0.0
 40
0.0
 40
1.0
 40
1.0
 40
1.0
 40
1.0
 10
22.147265000000001
 20
2.8988100000000001
 30
0.0
 10
21.368331000000001
 20
2.8988100000000001
 30
0.0
 10
20.734459999999999
 20
3.533245
 30
0.0
 10
20.734459999999999
 20
4.3124609999999999
 30
0.0
  0
SPLINE
  5
75
  8
Layer_1
 62
1
420
16711680
370
-1
  6
ByLayer
100
AcDbEntity
100
AcDbSpline
 70
8
 71
3
 72
8
 73
4
 74
0
 40
0.0
 40
0.0
 40
0.0
 40
0.0
 40
1.0
 40
1.0
 40
1.0
 40
1.0
 10
22.974176
 20
6.9385389999999996
 30
0.0
 10
22.974176
 20
7.4905650000000001
 30
0.0
 10
23.421498
 20
7.9384519999999998
 30
0.0
 10
23.974088999999999
 20
7.9384519999999998
 30
0.0
  0
SPLINE
  5
76
  8
Layer_1
 62
1
420
16711680
370
-1
  6
ByLayer
100
AcDbEntity
100
AcDbSpline
 70
8
 71
3
 72
8
 73
4
 74
0
 40
0.0
 40
0.0
 40
0.0
 40
0.0
 40
1.0
 40
1.0
 40
1.0
 40
1.0
 10
23.974088999999999
 20
7.9384519999999998
 30
0.0
 10
24.525834
 20
7.9384519999999998
 30
0.0
 10
24.97372
 20
7.4905650000000001
 30
0.0
 10
24.97372
 20
6.9385389999999996
 30
0.0
  0
SPLINE
  5
77
  8
Layer_1
 62
1
420
16711680
370
-1
  6
ByLayer
100
AcDbEntity
100
AcDbSpline
 70
8
 71
3
 72
8
 73
4
 74
0
 40
0.0
 40
0.0
 40
0.0
 40
0.0
 40
1.0
 40
1.0
 40
1.0
 40
1.0
 10
24.97372
 20
6.9385389999999996
 30
0.0
 10
24.97372
 20
6.3862300000000003
 30
0.0
 10
24.525834
 20
5.9383429999999997
 30
0.0
 10
23.974088999999999
 20
5.9383429999999997
 30
0.0
  0
SPLINE
  5
78
  8
Layer_1
 62
1
420
16711680
370
-1
  6
ByLayer
100
AcDbEntity
100
AcDbSpline
 70
8
 71
3
 72
8
 73
4
 74
0
 40
0.0
 40
0.0
 40
0.0
 40
0.0
 40
1.0
 40
1.0
 40
1.0
 40
1.0
 10
23.974088999999999
 20
5.9383429999999997
 30
0.0
 10
23.421498
 20
5.9383429999999997
 30
0.0
 10
22.974176
 20
6.3862300000000003
 30
0.0
 10
22.974176
 20
6.9385389999999996
 30
0.0
  0
LWPOLYLINE
  5
79
  8
Layer_1
 62
1
420
16711680
370
-1
  6
ByLayer
100
AcDbEntity
100
AcDbPolyline
 90
3
 70
0
 10
22.853949
 20
2.9386030000000001
 10
22.853949
 20
2.8988100000000001
 10
22.147265000000001
 20
2.8988100000000001
  0
LWPOLYLINE
  5
7A
  8
Layer_1
 62
1
420
16711680
370
-1
  6
ByLayer
100
AcDbEntity
100
AcDbPolyline
 90
2
 70
0
 10
22.974176
 20
6.9385389999999996
 10
22.974176
 20
6.9385389999999996
  0
SPLINE
  5
7B
  8
Layer_1
 62
1
420
16711680
370
-1
  6
ByLayer
100
AcDbEntity
100
AcDbSpline
 70
8
 71
3
 72
8
 73
4
 74
0
 40
0.0
 40
0.0
 40
0.0
 40
0.0
 40
1.0
 40
1.0
 40
1.0
 40
1.0
 10
18.613842000000002
 20
2.9383210000000002
 30
0.0
 10
18.613842000000002
 20
3.5561050000000001
 30
0.0
 10
18.111768999999999
 20
4.0584610000000003
 30
0.0
 10
17.493984999999999
 20
4.0584610000000003
 30
0.0
  0
SPLINE
  5
7C
  8
Layer_1
 62
1
420
16711680
370
-1
  6
ByLayer
100
AcDbEntity
100
AcDbSpline
 70
8
 71
3
 72
8
 73
4
 74
0
 40
0.0
 40
0.0
 40
0.0
 40
0.0
 40
1.0
 40
1.0
 40
1.0
 40
1.0
 10
17.493984999999999
 20
4.0584610000000003
 30
0.0
 10
16.876764999999999
 20
4.0584610000000003
 30
0.0
 10
16.372997999999999
 20
3.556387
 30
0.0
 10
16.372997999999999
 20
2.9383210000000002
 30
0.0
  0
LWPOLYLINE
  5
7D
  8
Layer_1
 62
1
420
16711680
370
-1
  6
ByLayer
100
AcDbEntity
100
AcDbPolyline
 90
3
 70
0
 10
19.320245
 20
2.8985270000000001
 10
18.613842000000002
 20
2.8985270000000001
 10
18.613842000000002
 20
2.9383210000000002
  0
SPLINE
  5
7E
  8
Layer_1
 62
1
420
16711680
370
-1
  6
ByLayer
100
AcDbEntity
100
AcDbSpline
 70
8
 71
3
 72
8
 73
4
 74
0
 40
0.0
 40
0.0
 40
0.0
 40
0.0
 40
1.0
 40
1.0
 40
1.0
 40
1.0
 10
15.666878000000001
 20
2.8985270000000001
 30
0.0
 10
14.887945
 20
2.8985270000000001
 30
0.0
 10
14.254073999999999
 20
3.5329630000000001
 30
0.0
 10
14.254073999999999
 20
4.3121790000000004
 30
0.0
  0
LWPOLYLINE
  5
7F
  8
Layer_1
 62
1
420
16711680
370
-1
  6
ByLayer
100
AcDbEntity
100
AcDbPolyline
 90
3
 70
0
 10
16.372997999999999
 20
2.9383210000000002
 10
16.372997999999999
 20
2.8985270000000001
 10
15.666878000000001
 20
2.8985270000000001
  0
SPLINE
  5
80
  8
Layer_1
 62
1
420
16711680
370
-1
  6
ByLayer
100
AcDbEntity
100
AcDbSpline
 70
8
 71
3
 72
8
 73
4
 74
0
 40
0.0
 40
0.0
 40
0.0
 40
0.0
 40
1.0
 40
1.0
 40
1.0
 40
1.0
 10
14.254073999999999
 20
9.5646159999999991
 30
0.0
 10
14.254073999999999
 20
10.344113999999999
 30
0.0
 10
14.887945
 20
10.977985
 30
0.0
 10
15.666878000000001
 20
10.977985
 30
0.0
  0
LWPOLYLINE
  5
81
  8
Layer_1
 62
1
420
16711680
370
-1
  6
ByLayer
100
AcDbEntity
100
AcDbPolyline
 90
2
 70
0
 10
14.254073999999999
 20
4.3121790000000004
 10
14.254073999999999
 20
9.5646159999999991
  0
SPLINE
  5
82
  8
Layer_1
 62
1
420
16711680
370
-1
  6
ByLayer
100
AcDbEntity
100
AcDbSpline
 70
8
 71
3
 72
8
 73
4
 74
0
 40
0.0
 40
0.0
 40
0.0
 40
0.0
 40
1.0
 40
1.0
 40
1.0
 40
1.0
 10
16.372997999999999
 20
10.938192000000001
 30
0.0
 10
16.372997999999999
 20
10.320690000000001
 30
0.0
 10
16.876764999999999
 20
9.8183340000000001
 30
0.0
 10
17.493984999999999
 20
9.8183340000000001
 30
0.0
  0
SPLINE
  5
83
  8
Layer_1
 62
1
420
16711680
370
-1
  6
ByLayer
100
AcDbEntity
100
AcDbSpline
 70
8
 71
3
 72
8
 73
4
 74
0
 40
0.0
 40
0.0
 40
0.0
 40
0.0
 40
1.0
 40
1.0
 40
1.0
 40
1.0
 10
17.493984999999999
 20
9.8183340000000001
 30
0.0
 10
18.111487
 20
9.8183340000000001
 30
0.0
 10
18.613842000000002
 20
10.320690000000001
 30
0.0
 10
18.613842000000002
 20
10.938192000000001
 30
0.0
  0
LWPOLYLINE
  5
84
  8
Layer_1
 62
1
420
16711680
370
-1
  6
ByLayer
100
AcDbEntity
100
AcDbPolyline
 90
3
 70
0
 10
15.666878000000001
 20
10.977985
 10
16.372997999999999
 20
10.977985
 10
16.372997999999999
 20
10.938192000000001
  0
SPLINE
  5
85
  8
Layer_1
 62
1
420
16711680
370
-1
  6
ByLayer
100
AcDbEntity
100
AcDbSpline
 70
8
 71
3
 72
8
 73
4
 74
0
 40
0.0
 40
0.0
 40
0.0
 40
0.0
 40
1.0
 40
1.0
 40
1.0
 40
1.0
 10
19.320245
 20
10.977985
 30
0.0
 10
20.100024999999999
 20
10.977985
 30
0.0
 10
20.734459999999999
 20
10.344113999999999
 30
0.0
 10
20.734459999999999
 20
9.5646159999999991
 30
0.0
  0
LWPOLYLINE
  5
86
  8
Layer_1
 62
1
420
16711680
370
-1
  6
ByLayer
100
AcDbEntity
100
AcDbPolyline
 90
3
 70
0
 10
18.613842000000002
 20
10.938192000000001
 10
18.613842000000002
 20
10.977985
 10
19.320245
 20
10.977985
  0
SPLINE
  5
87
  8
Layer_1
 62
1
420
16711680
370
-1
  6
ByLayer
100
AcDbEntity
100
AcDbSpline
 70
8
 71
3
 72
8
 73
4
 74
0
 40
0.0
 40
0.0
 40
0.0
 40
0.0
 40
1.0
 40
1.0
 40
1.0
 40
1.0
 10
20.734459999999999
 20
4.3121790000000004
 30
0.0
 10
20.734459999999999
 20
3.5329630000000001
 30
0.0
 10
20.100024999999999
 20
2.8985270000000001
 30
0.0
 10
19.320245
 20
2.8985270000000001
 30
0.0
  0
LWPOLYLINE
  5
88
  8
Layer_1
 62
1
420
16711680
370
-1
  6
ByLayer
100
AcDbEntity
100
AcDbPolyline
 90
2
 70
0
 10
20.734459999999999
 20
9.5646159999999991
 10
20.734459999999999
 20
4.3121790000000004
  0
SPLINE
  5
89
  8
Layer_1
 62
1
420
16711680
370
-1
  6
ByLayer
100
AcDbEntity
100
AcDbSpline
 70
8
 71
3
 72
8
 73
4
 74
0
 40
0.0
 40
0.0
 40
0.0
 40
0.0
 40
1.0
 40
1.0
 40
1.0
 40
1.0
 10
16.494071000000002
 20
6.9385389999999996
 30
0.0
 10
16.494071000000002
 20
7.4905650000000001
 30
0.0
 10
16.941393999999999
 20
7.9384519999999998
 30
0.0
 10
17.493984999999999
 20
7.9384519999999998
 30
0.0
  0
SPLINE
  5
8A
  8
Layer_1
 62
1
420
16711680
370
-1
  6
ByLayer
100
AcDbEntity
100
AcDbSpline
 70
8
 71
3
 72
8
 73
4
 74
0
 40
0.0
 40
0.0
 40
0.0
 40
0.0
 40
1.0
 40
1.0
 40
1.0
 40
1.0
 10
17.493984999999999
 20
7.9384519999999998
 30
0.0
 10
18.045729000000001
 20
7.9384519999999998
 30
0.0
 10
18.493615999999999
 20
7.4905650000000001
 30
0.0
 10
18.493615999999999
 20
6.9385389999999996
 30
0.0
  0
SPLINE
  5
8B
  8
Layer_1
 62
1
420
16711680
370
-1
  6
ByLayer
100
AcDbEntity
100
AcDbSpline
 70
8
 71
3
 72
8
 73
4
 74
0
 40
0.0
 40
0.0
 40
0.0
 40
0.0
 40
1.0
 40
1.0
 40
1.0
 40
1.0
 10
18.493615999999999
 20
6.9385389999999996
 30
0.0
 10
18.493615999999999
 20
6.3862300000000003
 30
0.0
 10
18.045729000000001
 20
5.9383429999999997
 30
0.0
 10
17.493984999999999
 20
5.9383429999999997
 30
0.0
  0
SPLINE
  5
8C
  8
Layer_1
 62
1
420
16711680
370
-1
  6
ByLayer
100
AcDbEntity
100
AcDbSpline
 70
8
 71
3
 72
8
 73
4
 74
0
 40
0.0
 40
0.0
 40
0.0
 40
0.0
 40
1.0
 40
1.0
 40
1.0
 40
1.0
 10
17.493984999999999
 20
5.9383429999999997
 30
0.0
 10
16.941393999999999
 20
5.9383429999999997
 30
0.0
 10
16.494071000000002
 20
6.3862300000000003
 30
0.0
 10
16.494071000000002
 20
6.9385389999999996
 30
0.0
  0
LWPOLYLINE
  5
8D
  8
Layer_1
 62
1
420
16711680
370
-1
  6
ByLayer
100
AcDbEntity
100
AcDbPolyline
 90
2
 70
0
 10
19.320245
 20
2.8985270000000001
 10
19.320245
 20
2.8985270000000001
  0
SPLINE
  5
8E
  8
Layer_1
 62
1
420
16711680
370
-1
  6
ByLayer
100
AcDbEntity
100
AcDbSpline
 70
8
 71
3
 72
8
 73
4
 74
0
 40
0.0
 40
0.0
 40
0.0
 40
0.0
 40
1.0
 40
1.0
 40
1.0
 40
1.0
 10
6.793247
 20
4.8825500000000002
 30
0.0
 10
6.2014269999999998
 20
4.8825500000000002
 30
0.0
 10
5.6522220000000001
 20
5.1509429999999998
 30
0.0
 10
5.2853339999999998
 20
5.6185850000000004
 30
0.0
  0
LWPOLYLINE
  5
8F
  8
Layer_1
 62
1
420
16711680
370
-1
  6
ByLayer
100
AcDbEntity
100
AcDbPolyline
 90
2
 70
0
 10
16.494071000000002
 20
6.9385389999999996
 10
16.494071000000002
 20
6.9385389999999996
  0
SPLINE
  5
90
  8
Layer_1
 62
1
420
16711680
370
-1
  6
ByLayer
100
AcDbEntity
100
AcDbSpline
 70
8
 71
3
 72
8
 73
4
 74
0
 40
0.0
 40
0.0
 40
0.0
 40
0.0
 40
1.0
 40
1.0
 40
1.0
 40
1.0
 10
5.2785599999999997
 20
7.9545389999999996
 30
0.0
 10
5.6522220000000001
 20
8.4439119999999992
 30
0.0
 10
6.2017090000000001
 20
8.7123050000000006
 30
0.0
 10
6.793247
 20
8.7123050000000006
 30
0.0
  0
SPLINE
  5
91
  8
Layer_1
 62
1
420
16711680
370
-1
  6
ByLayer
100
AcDbEntity
100
AcDbSpline
 70
8
 71
3
 72
8
 73
4
 74
0
 40
0.0
 40
0.0
 40
0.0
 40
0.0
 40
1.0
 40
1.0
 40
1.0
 40
1.0
 10
6.793247
 20
8.7123050000000006
 30
0.0
 10
7.8484759999999998
 20
8.7123050000000006
 30
0.0
 10
8.7081250000000008
 20
7.8532209999999996
 30
0.0
 10
8.7081250000000008
 20
6.7974269999999999
 30
0.0
  0
SPLINE
  5
92
  8
Layer_1
 62
1
420
16711680
370
-1
  6
ByLayer
100
AcDbEntity
100
AcDbSpline
 70
8
 71
3
 72
8
 73
4
 74
0
 40
0.0
 40
0.0
 40
0.0
 40
0.0
 40
1.0
 40
1.0
 40
1.0
 40
1.0
 10
8.7081250000000008
 20
6.7974269999999999
 30
0.0
 10
8.7081250000000008
 20
5.7416340000000003
 30
0.0
 10
7.8487580000000001
 20
4.8825500000000002
 30
0.0
 10
6.793247
 20
4.8825500000000002
 30
0.0
  0
LWPOLYLINE
  5
93
  8
Layer_1
 62
1
420
16711680
370
-1
  6
ByLayer
100
AcDbEntity
100
AcDbPolyline
 90
2
 70
0
 10
5.2853339999999998
 20
5.6185850000000004
 10
5.2785599999999997
 20
7.9545389999999996
  0
LWPOLYLINE
  5
94
  8
Layer_1
 62
1
420
16711680
370
-1
  6
ByLayer
100
AcDbEntity
100
AcDbPolyline
 90
2
 70
0
 10
6.793247
 20
4.8825500000000002
 10
6.793247
 20
4.8825500000000002
  0
LWPOLYLINE
  5
95
  8
Layer_1
 62
1
420
16711680
370
-1
  6
ByLayer
100
AcDbEntity
100
AcDbPolyline
 90
66
 70
0
 10
5.5198600000000004
 20
1.3225990000000001
 10
4.7832600000000003
 20
1.548376
 10
4.57498
 20
2.948763
 10
4.6542849999999998
 20
3.239452
 10
5.0149650000000001
 20
3.8942070000000002
 10
4.2817509999999999
 20
4.4990100000000002
 10
3.735087
 20
4.0398339999999999
 10
3.43452
 20
3.893643
 10
2.0214340000000002
 20
3.827321
 10
1.6601889999999999
 20
4.5080410000000004
 10
2.5294340000000002
 20
5.6600720000000004
 10
2.765936
 20
5.7952560000000002
 10
3.4830619999999999
 20
6.0029719999999998
 10
3.3921869999999998
 20
6.9495449999999996
 10
2.6812689999999999
 20
7.0110700000000001
 10
2.365745
 20
7.1208539999999996
 10
1.319547
 20
8.0719429999999992
 10
1.545042
 20
8.8091069999999991
 10
2.9457110000000002
 20
9.0171050000000008
 10
3.2366820000000001
 20
8.9380830000000007
 10
3.8911560000000001
 20
8.5774030000000003
 10
4.4956759999999996
 20
9.3111809999999995
 10
4.0370650000000001
 20
9.8569990000000001
 10
3.8911560000000001
 20
10.158412
 10
3.8242690000000001
 20
11.57037
 10
4.5055540000000001
 20
11.931896
 10
5.6575850000000001
 20
11.063216000000001
 10
5.792205
 20
10.827843
 10
6.0004850000000003
 20
10.110151999999999
 10
6.9467759999999998
 20
10.200181000000001
 10
7.0080179999999999
 20
10.910816000000001
 10
7.1180849999999998
 20
11.227187000000001
 10
8.0694560000000006
 20
12.273384999999999
 10
8.8060559999999999
 20
12.047325000000001
 10
9.0140539999999998
 20
10.646939
 10
8.9350310000000004
 20
10.355967
 10
8.574916
 20
9.7014940000000003
 10
9.3084109999999995
 20
9.0966919999999991
 10
9.8542290000000001
 20
9.5558669999999992
 10
10.155078
 20
9.7014940000000003
 10
11.567882000000001
 20
9.7680989999999994
 10
11.929126999999999
 20
9.0870960000000007
 10
11.059882
 20
7.9353470000000002
 10
10.824509000000001
 20
7.8001630000000004
 10
10.106818000000001
 20
7.5924469999999999
 10
10.197129
 20
6.6458740000000001
 10
10.908047
 20
6.5843499999999997
 10
11.224136
 20
6.4745650000000001
 10
12.269769
 20
5.5229119999999998
 10
12.044274
 20
4.7860300000000002
 10
10.643605000000001
 20
4.5783139999999998
 10
10.353198000000001
 20
4.6573359999999999
 10
9.6987249999999996
 20
5.0177339999999999
 10
9.0936400000000006
 20
4.2848030000000001
 10
9.552251
 20
3.738985
 10
9.6981599999999997
 20
3.43729
 10
9.7650469999999991
 20
2.0250499999999998
 10
9.084327
 20
1.663805
 10
7.9317310000000001
 20
2.532203
 10
7.7968289999999998
 20
2.768141
 10
7.5893959999999998
 20
3.4861140000000002
 10
6.6428219999999998
 20
3.3958029999999999
 10
6.5815799999999998
 20
2.684885
 10
6.4712310000000004
 20
2.3685139999999998
 10
5.5198600000000004
 20
1.3225990000000001
 10
5.5198600000000004
 20
1.3225990000000001
  0
SPLINE
  5
96
  8
Layer_1
 62
1
420
16711680
370
-1
  6
ByLayer
100
AcDbEntity
100
AcDbSpline
 70
8
 71
3
 72
8
 73
4
 74
0
 40
0.0
 40
0.0
 40
0.0
 40
0.0
 40
1.0
 40
1.0
 40
1.0
 40
1.0
 10
33.806159999999998
 20
18.666372000000003
 30
0.0
 10
33.806159999999998
 20
19.445869000000002
 30
0.0
 10
34.440594999999995
 20
20.079740000000001
 30
0.0
 10
35.219529000000001
 20
20.079740000000001
 30
0.0
  0
SPLINE
  5
97
  8
Layer_1
 62
1
420
16711680
370
-1
  6
ByLayer
100
AcDbEntity
100
AcDbSpline
 70
8
 71
3
 72
8
 73
4
 74
0
 40
0.0
 40
0.0
 40
0.0
 40
0.0
 40
1.0
 40
1.0
 40
1.0
 40
1.0
 10
35.926212999999997
 20
20.039946999999998
 30
0.0
 10
35.926212999999997
 20
19.422445
 30
0.0
 10
36.428286
 20
18.920089000000001
 30
0.0
 10
37.046634999999995
 20
18.920089000000001
 30
0.0
  0
SPLINE
  5
98
  8
Layer_1
 62
1
420
16711680
370
-1
  6
ByLayer
100
AcDbEntity
100
AcDbSpline
 70
8
 71
3
 72
8
 73
4
 74
0
 40
0.0
 40
0.0
 40
0.0
 40
0.0
 40
1.0
 40
1.0
 40
1.0
 40
1.0
 10
37.046634999999995
 20
18.920089000000001
 30
0.0
 10
37.663854999999998
 20
18.920089000000001
 30
0.0
 10
38.166492999999996
 20
19.422445
 30
0.0
 10
38.166492999999996
 20
20.039946999999998
 30
0.0
  0
LWPOLYLINE
  5
99
  8
Layer_1
 62
1
420
16711680
370
-1
  6
ByLayer
100
AcDbEntity
100
AcDbPolyline
 90
3
 70
0
 10
35.219529000000001
 20
20.079740000000001
 10
35.926212999999997
 20
20.079740000000001
 10
35.926212999999997
 20
20.039946999999998
  0
SPLINE
  5
9A
  8
Layer_1
 62
1
420
16711680
370
-1
  6
ByLayer
100
AcDbEntity
100
AcDbSpline
 70
8
 71
3
 72
8
 73
4
 74
0
 40
0.0
 40
0.0
 40
0.0
 40
0.0
 40
1.0
 40
1.0
 40
1.0
 40
1.0
 10
38.873176999999998
 20
20.079740000000001
 30
0.0
 10
39.652110999999998
 20
20.079740000000001
 30
0.0
 10
40.285981999999997
 20
19.445869000000002
 30
0.0
 10
40.285981999999997
 20
18.666372000000003
 30
0.0
  0
LWPOLYLINE
  5
9B
  8
Layer_1
 62
1
420
16711680
370
-1
  6
ByLayer
100
AcDbEntity
100
AcDbPolyline
 90
3
 70
0
 10
38.166492999999996
 20
20.039946999999998
 10
38.166492999999996
 20
20.079740000000001
 10
38.873176999999998
 20
20.079740000000001
  0
SPLINE
  5
9C
  8
Layer_1
 62
1
420
16711680
370
-1
  6
ByLayer
100
AcDbEntity
100
AcDbSpline
 70
8
 71
3
 72
8
 73
4
 74
0
 40
0.0
 40
0.0
 40
0.0
 40
0.0
 40
1.0
 40
1.0
 40
1.0
 40
1.0
 10
40.285981999999997
 20
13.413934000000001
 30
0.0
 10
40.285981999999997
 20
12.634717999999999
 30
0.0
 10
39.652110999999998
 20
12.000283
 30
0.0
 10
38.873176999999998
 20
12.000283
 30
0.0
  0
LWPOLYLINE
  5
9D
  8
Layer_1
 62
1
420
16711680
370
-1
  6
ByLayer
100
AcDbEntity
100
AcDbPolyline
 90
2
 70
0
 10
40.285981999999997
 20
18.666372000000003
 10
40.285981999999997
 20
13.413934000000001
  0
SPLINE
  5
9E
  8
Layer_1
 62
1
420
16711680
370
-1
  6
ByLayer
100
AcDbEntity
100
AcDbSpline
 70
8
 71
3
 72
8
 73
4
 74
0
 40
0.0
 40
0.0
 40
0.0
 40
0.0
 40
1.0
 40
1.0
 40
1.0
 40
1.0
 10
38.166492999999996
 20
12.040076000000001
 30
0.0
 10
38.166492999999996
 20
12.657859999999999
 30
0.0
 10
37.663854999999998
 20
13.160216
 30
0.0
 10
37.046634999999995
 20
13.160216
 30
0.0
  0
SPLINE
  5
9F
  8
Layer_1
 62
1
420
16711680
370
-1
  6
ByLayer
100
AcDbEntity
100
AcDbSpline
 70
8
 71
3
 72
8
 73
4
 74
0
 40
0.0
 40
0.0
 40
0.0
 40
0.0
 40
1.0
 40
1.0
 40
1.0
 40
1.0
 10
37.046634999999995
 20
13.160216
 30
0.0
 10
36.428568999999996
 20
13.160216
 30
0.0
 10
35.926212999999997
 20
12.658143000000001
 30
0.0
 10
35.926212999999997
 20
12.040076000000001
 30
0.0
  0
LWPOLYLINE
  5
A0
  8
Layer_1
 62
1
420
16711680
370
-1
  6
ByLayer
100
AcDbEntity
100
AcDbPolyline
 90
3
 70
0
 10
38.873176999999998
 20
12.000283
 10
38.166492999999996
 20
12.000283
 10
38.166492999999996
 20
12.040076000000001
  0
SPLINE
  5
A1
  8
Layer_1
 62
1
420
16711680
370
-1
  6
ByLayer
100
AcDbEntity
100
AcDbSpline
 70
8
 71
3
 72
8
 73
4
 74
0
 40
0.0
 40
0.0
 40
0.0
 40
0.0
 40
1.0
 40
1.0
 40
1.0
 40
1.0
 10
35.219529000000001
 20
12.000283
 30
0.0
 10
34.440594999999995
 20
12.000283
 30
0.0
 10
33.806159999999998
 20
12.634717999999999
 30
0.0
 10
33.806159999999998
 20
13.413934000000001
 30
0.0
  0
SPLINE
  5
A2
  8
Layer_1
 62
1
420
16711680
370
-1
  6
ByLayer
100
AcDbEntity
100
AcDbSpline
 70
8
 71
3
 72
8
 73
4
 74
0
 40
0.0
 40
0.0
 40
0.0
 40
0.0
 40
1.0
 40
1.0
 40
1.0
 40
1.0
 10
36.046439999999997
 20
16.040012000000001
 30
0.0
 10
36.046439999999997
 20
16.592038000000002
 30
0.0
 10
36.493761999999997
 20
17.039925
 30
0.0
 10
37.046352999999996
 20
17.039925
 30
0.0
  0
SPLINE
  5
A3
  8
Layer_1
 62
1
420
16711680
370
-1
  6
ByLayer
100
AcDbEntity
100
AcDbSpline
 70
8
 71
3
 72
8
 73
4
 74
0
 40
0.0
 40
0.0
 40
0.0
 40
0.0
 40
1.0
 40
1.0
 40
1.0
 40
1.0
 10
37.046352999999996
 20
17.039925
 30
0.0
 10
37.598096999999996
 20
17.039925
 30
0.0
 10
38.045983999999997
 20
16.592038000000002
 30
0.0
 10
38.045983999999997
 20
16.040012000000001
 30
0.0
  0
SPLINE
  5
A4
  8
Layer_1
 62
1
420
16711680
370
-1
  6
ByLayer
100
AcDbEntity
100
AcDbSpline
 70
8
 71
3
 72
8
 73
4
 74
0
 40
0.0
 40
0.0
 40
0.0
 40
0.0
 40
1.0
 40
1.0
 40
1.0
 40
1.0
 10
38.045983999999997
 20
16.040012000000001
 30
0.0
 10
38.045983999999997
 20
15.487703
 30
0.0
 10
37.598096999999996
 20
15.039816
 30
0.0
 10
37.046352999999996
 20
15.039816
 30
0.0
  0
SPLINE
  5
A5
  8
Layer_1
 62
1
420
16711680
370
-1
  6
ByLayer
100
AcDbEntity
100
AcDbSpline
 70
8
 71
3
 72
8
 73
4
 74
0
 40
0.0
 40
0.0
 40
0.0
 40
0.0
 40
1.0
 40
1.0
 40
1.0
 40
1.0
 10
37.046352999999996
 20
15.039816
 30
0.0
 10
36.493761999999997
 20
15.039816
 30
0.0
 10
36.046439999999997
 20
15.487703
 30
0.0
 10
36.046439999999997
 20
16.040012000000001
 30
0.0
  0
LWPOLYLINE
  5
A6
  8
Layer_1
 62
1
420
16711680
370
-1
  6
ByLayer
100
AcDbEntity
100
AcDbPolyline
 90
3
 70
0
 10
35.926212999999997
 20
12.040076000000001
 10
35.926212999999997
 20
12.000283
 10
35.219529000000001
 20
12.000283
  0
SPLINE
  5
A7
  8
Layer_1
 62
1
420
16711680
370
-1
  6
ByLayer
100
AcDbEntity
100
AcDbSpline
 70
8
 71
3
 72
8
 73
4
 74
0
 40
0.0
 40
0.0
 40
0.0
 40
0.0
 40
1.0
 40
1.0
 40
1.0
 40
1.0
 10
27.326054999999997
 20
18.666372000000003
 30
0.0
 10
27.326054999999997
 20
19.445869000000002
 30
0.0
 10
27.960490999999998
 20
20.079740000000001
 30
0.0
 10
28.739424
 20
20.079740000000001
 30
0.0
  0
LWPOLYLINE
  5
A8
  8
Layer_1
 62
1
420
16711680
370
-1
  6
ByLayer
100
AcDbEntity
100
AcDbPolyline
 90
2
 70
0
 10
36.046439999999997
 20
16.040012000000001
 10
36.046439999999997
 20
16.040012000000001
  0
SPLINE
  5
A9
  8
Layer_1
 62
1
420
16711680
370
-1
  6
ByLayer
100
AcDbEntity
100
AcDbSpline
 70
8
 71
3
 72
8
 73
4
 74
0
 40
0.0
 40
0.0
 40
0.0
 40
0.0
 40
1.0
 40
1.0
 40
1.0
 40
1.0
 10
29.446109
 20
20.039946999999998
 30
0.0
 10
29.446109
 20
19.422445
 30
0.0
 10
29.948746
 20
18.920089000000001
 30
0.0
 10
30.566530999999998
 20
18.920089000000001
 30
0.0
  0
SPLINE
  5
AA
  8
Layer_1
 62
1
420
16711680
370
-1
  6
ByLayer
100
AcDbEntity
100
AcDbSpline
 70
8
 71
3
 72
8
 73
4
 74
0
 40
0.0
 40
0.0
 40
0.0
 40
0.0
 40
1.0
 40
1.0
 40
1.0
 40
1.0
 10
30.566530999999998
 20
18.920089000000001
 30
0.0
 10
31.183751000000001
 20
18.920089000000001
 30
0.0
 10
31.686388999999998
 20
19.422445
 30
0.0
 10
31.686388999999998
 20
20.039946999999998
 30
0.0
  0
LWPOLYLINE
  5
AB
  8
Layer_1
 62
1
420
16711680
370
-1
  6
ByLayer
100
AcDbEntity
100
AcDbPolyline
 90
3
 70
0
 10
28.739424
 20
20.079740000000001
 10
29.446109
 20
20.079740000000001
 10
29.446109
 20
20.039946999999998
  0
SPLINE
  5
AC
  8
Layer_1
 62
1
420
16711680
370
-1
  6
ByLayer
100
AcDbEntity
100
AcDbSpline
 70
8
 71
3
 72
8
 73
4
 74
0
 40
0.0
 40
0.0
 40
0.0
 40
0.0
 40
1.0
 40
1.0
 40
1.0
 40
1.0
 10
32.393073000000001
 20
20.079740000000001
 30
0.0
 10
33.172005999999996
 20
20.079740000000001
 30
0.0
 10
33.806441999999997
 20
19.445869000000002
 30
0.0
 10
33.806441999999997
 20
18.666372000000003
 30
0.0
  0
LWPOLYLINE
  5
AD
  8
Layer_1
 62
1
420
16711680
370
-1
  6
ByLayer
100
AcDbEntity
100
AcDbPolyline
 90
3
 70
0
 10
31.686388999999998
 20
20.039946999999998
 10
31.686388999999998
 20
20.079740000000001
 10
32.393073000000001
 20
20.079740000000001
  0
SPLINE
  5
AE
  8
Layer_1
 62
1
420
16711680
370
-1
  6
ByLayer
100
AcDbEntity
100
AcDbSpline
 70
8
 71
3
 72
8
 73
4
 74
0
 40
0.0
 40
0.0
 40
0.0
 40
0.0
 40
1.0
 40
1.0
 40
1.0
 40
1.0
 10
33.806441999999997
 20
13.413934000000001
 30
0.0
 10
33.806441999999997
 20
12.634717999999999
 30
0.0
 10
33.172005999999996
 20
12.000283
 30
0.0
 10
32.393073000000001
 20
12.000283
 30
0.0
  0
LWPOLYLINE
  5
AF
  8
Layer_1
 62
1
420
16711680
370
-1
  6
ByLayer
100
AcDbEntity
100
AcDbPolyline
 90
2
 70
0
 10
33.806441999999997
 20
18.666372000000003
 10
33.806441999999997
 20
13.413934000000001
  0
SPLINE
  5
B0
  8
Layer_1
 62
1
420
16711680
370
-1
  6
ByLayer
100
AcDbEntity
100
AcDbSpline
 70
8
 71
3
 72
8
 73
4
 74
0
 40
0.0
 40
0.0
 40
0.0
 40
0.0
 40
1.0
 40
1.0
 40
1.0
 40
1.0
 10
31.686388999999998
 20
12.040076000000001
 30
0.0
 10
31.686388999999998
 20
12.657859999999999
 30
0.0
 10
31.183751000000001
 20
13.160216
 30
0.0
 10
30.566530999999998
 20
13.160216
 30
0.0
  0
SPLINE
  5
B1
  8
Layer_1
 62
1
420
16711680
370
-1
  6
ByLayer
100
AcDbEntity
100
AcDbSpline
 70
8
 71
3
 72
8
 73
4
 74
0
 40
0.0
 40
0.0
 40
0.0
 40
0.0
 40
1.0
 40
1.0
 40
1.0
 40
1.0
 10
30.566530999999998
 20
13.160216
 30
0.0
 10
29.949029000000003
 20
13.160216
 30
0.0
 10
29.446109
 20
12.658143000000001
 30
0.0
 10
29.446109
 20
12.040076000000001
 30
0.0
  0
LWPOLYLINE
  5
B2
  8
Layer_1
 62
1
420
16711680
370
-1
  6
ByLayer
100
AcDbEntity
100
AcDbPolyline
 90
3
 70
0
 10
32.393073000000001
 20
12.000283
 10
31.686388999999998
 20
12.000283
 10
31.686388999999998
 20
12.040076000000001
  0
SPLINE
  5
B3
  8
Layer_1
 62
1
420
16711680
370
-1
  6
ByLayer
100
AcDbEntity
100
AcDbSpline
 70
8
 71
3
 72
8
 73
4
 74
0
 40
0.0
 40
0.0
 40
0.0
 40
0.0
 40
1.0
 40
1.0
 40
1.0
 40
1.0
 10
28.739424
 20
12.000283
 30
0.0
 10
27.960490999999998
 20
12.000283
 30
0.0
 10
27.326054999999997
 20
12.634717999999999
 30
0.0
 10
27.326054999999997
 20
13.413934000000001
 30
0.0
  0
SPLINE
  5
B4
  8
Layer_1
 62
1
420
16711680
370
-1
  6
ByLayer
100
AcDbEntity
100
AcDbSpline
 70
8
 71
3
 72
8
 73
4
 74
0
 40
0.0
 40
0.0
 40
0.0
 40
0.0
 40
1.0
 40
1.0
 40
1.0
 40
1.0
 10
29.566335000000002
 20
16.040012000000001
 30
0.0
 10
29.566335000000002
 20
16.592038000000002
 30
0.0
 10
30.013374999999996
 20
17.039925
 30
0.0
 10
30.566248999999999
 20
17.039925
 30
0.0
  0
SPLINE
  5
B5
  8
Layer_1
 62
1
420
16711680
370
-1
  6
ByLayer
100
AcDbEntity
100
AcDbSpline
 70
8
 71
3
 72
8
 73
4
 74
0
 40
0.0
 40
0.0
 40
0.0
 40
0.0
 40
1.0
 40
1.0
 40
1.0
 40
1.0
 10
30.566248999999999
 20
17.039925
 30
0.0
 10
31.117992999999998
 20
17.039925
 30
0.0
 10
31.565596999999997
 20
16.592038000000002
 30
0.0
 10
31.565596999999997
 20
16.040012000000001
 30
0.0
  0
SPLINE
  5
B6
  8
Layer_1
 62
1
420
16711680
370
-1
  6
ByLayer
100
AcDbEntity
100
AcDbSpline
 70
8
 71
3
 72
8
 73
4
 74
0
 40
0.0
 40
0.0
 40
0.0
 40
0.0
 40
1.0
 40
1.0
 40
1.0
 40
1.0
 10
31.565596999999997
 20
16.040012000000001
 30
0.0
 10
31.565596999999997
 20
15.487703
 30
0.0
 10
31.117992999999998
 20
15.039816
 30
0.0
 10
30.566248999999999
 20
15.039816
 30
0.0
  0
SPLINE
  5
B7
  8
Layer_1
 62
1
420
16711680
370
-1
  6
ByLayer
100
AcDbEntity
100
AcDbSpline
 70
8
 71
3
 72
8
 73
4
 74
0
 40
0.0
 40
0.0
 40
0.0
 40
0.0
 40
1.0
 40
1.0
 40
1.0
 40
1.0
 10
30.566248999999999
 20
15.039816
 30
0.0
 10
30.013374999999996
 20
15.039816
 30
0.0
 10
29.566335000000002
 20
15.487703
 30
0.0
 10
29.566335000000002
 20
16.040012000000001
 30
0.0
  0
LWPOLYLINE
  5
B8
  8
Layer_1
 62
1
420
16711680
370
-1
  6
ByLayer
100
AcDbEntity
100
AcDbPolyline
 90
3
 70
0
 10
29.446109
 20
12.040076000000001
 10
29.446109
 20
12.000283
 10
28.739424
 20
12.000283
  0
SPLINE
  5
B9
  8
Layer_1
 62
1
420
16711680
370
-1
  6
ByLayer
100
AcDbEntity
100
AcDbSpline
 70
8
 71
3
 72
8
 73
4
 74
0
 40
0.0
 40
0.0
 40
0.0
 40
0.0
 40
1.0
 40
1.0
 40
1.0
 40
1.0
 10
20.846514999999997
 20
18.666372000000003
 30
0.0
 10
20.846514999999997
 20
19.445869000000002
 30
0.0
 10
21.480386000000003
 20
20.079740000000001
 30
0.0
 10
22.259320000000002
 20
20.079740000000001
 30
0.0
  0
LWPOLYLINE
  5
BA
  8
Layer_1
 62
1
420
16711680
370
-1
  6
ByLayer
100
AcDbEntity
100
AcDbPolyline
 90
2
 70
0
 10
29.566335000000002
 20
16.040012000000001
 10
29.566335000000002
 20
16.040012000000001
  0
SPLINE
  5
BB
  8
Layer_1
 62
1
420
16711680
370
-1
  6
ByLayer
100
AcDbEntity
100
AcDbSpline
 70
8
 71
3
 72
8
 73
4
 74
0
 40
0.0
 40
0.0
 40
0.0
 40
0.0
 40
1.0
 40
1.0
 40
1.0
 40
1.0
 10
22.966003999999998
 20
20.039946999999998
 30
0.0
 10
22.966003999999998
 20
19.422445
 30
0.0
 10
23.468642000000003
 20
18.920089000000001
 30
0.0
 10
24.086426000000003
 20
18.920089000000001
 30
0.0
  0
SPLINE
  5
BC
  8
Layer_1
 62
1
420
16711680
370
-1
  6
ByLayer
100
AcDbEntity
100
AcDbSpline
 70
8
 71
3
 72
8
 73
4
 74
0
 40
0.0
 40
0.0
 40
0.0
 40
0.0
 40
1.0
 40
1.0
 40
1.0
 40
1.0
 10
24.086426000000003
 20
18.920089000000001
 30
0.0
 10
24.704211000000001
 20
18.920089000000001
 30
0.0
 10
25.206001999999998
 20
19.422445
 30
0.0
 10
25.206001999999998
 20
20.039946999999998
 30
0.0
  0
LWPOLYLINE
  5
BD
  8
Layer_1
 62
1
420
16711680
370
-1
  6
ByLayer
100
AcDbEntity
100
AcDbPolyline
 90
3
 70
0
 10
22.259320000000002
 20
20.079740000000001
 10
22.966003999999998
 20
20.079740000000001
 10
22.966003999999998
 20
20.039946999999998
  0
SPLINE
  5
BE
  8
Layer_1
 62
1
420
16711680
370
-1
  6
ByLayer
100
AcDbEntity
100
AcDbSpline
 70
8
 71
3
 72
8
 73
4
 74
0
 40
0.0
 40
0.0
 40
0.0
 40
0.0
 40
1.0
 40
1.0
 40
1.0
 40
1.0
 10
25.912968999999997
 20
20.079740000000001
 30
0.0
 10
26.691901999999999
 20
20.079740000000001
 30
0.0
 10
27.326337000000002
 20
19.445869000000002
 30
0.0
 10
27.326337000000002
 20
18.666372000000003
 30
0.0
  0
LWPOLYLINE
  5
BF
  8
Layer_1
 62
1
420
16711680
370
-1
  6
ByLayer
100
AcDbEntity
100
AcDbPolyline
 90
3
 70
0
 10
25.206001999999998
 20
20.039946999999998
 10
25.206001999999998
 20
20.079740000000001
 10
25.912968999999997
 20
20.079740000000001
  0
SPLINE
  5
C0
  8
Layer_1
 62
1
420
16711680
370
-1
  6
ByLayer
100
AcDbEntity
100
AcDbSpline
 70
8
 71
3
 72
8
 73
4
 74
0
 40
0.0
 40
0.0
 40
0.0
 40
0.0
 40
1.0
 40
1.0
 40
1.0
 40
1.0
 10
27.326337000000002
 20
13.413934000000001
 30
0.0
 10
27.326337000000002
 20
12.634717999999999
 30
0.0
 10
26.691901999999999
 20
12.000283
 30
0.0
 10
25.912968999999997
 20
12.000283
 30
0.0
  0
LWPOLYLINE
  5
C1
  8
Layer_1
 62
1
420
16711680
370
-1
  6
ByLayer
100
AcDbEntity
100
AcDbPolyline
 90
2
 70
0
 10
27.326337000000002
 20
18.666372000000003
 10
27.326337000000002
 20
13.413934000000001
  0
SPLINE
  5
C2
  8
Layer_1
 62
1
420
16711680
370
-1
  6
ByLayer
100
AcDbEntity
100
AcDbSpline
 70
8
 71
3
 72
8
 73
4
 74
0
 40
0.0
 40
0.0
 40
0.0
 40
0.0
 40
1.0
 40
1.0
 40
1.0
 40
1.0
 10
25.206001999999998
 20
12.040076000000001
 30
0.0
 10
25.206001999999998
 20
12.657859999999999
 30
0.0
 10
24.704211000000001
 20
13.160216
 30
0.0
 10
24.086426000000003
 20
13.160216
 30
0.0
  0
SPLINE
  5
C3
  8
Layer_1
 62
1
420
16711680
370
-1
  6
ByLayer
100
AcDbEntity
100
AcDbSpline
 70
8
 71
3
 72
8
 73
4
 74
0
 40
0.0
 40
0.0
 40
0.0
 40
0.0
 40
1.0
 40
1.0
 40
1.0
 40
1.0
 10
24.086426000000003
 20
13.160216
 30
0.0
 10
23.468642000000003
 20
13.160216
 30
0.0
 10
22.966003999999998
 20
12.658143000000001
 30
0.0
 10
22.966003999999998
 20
12.040076000000001
 30
0.0
  0
LWPOLYLINE
  5
C4
  8
Layer_1
 62
1
420
16711680
370
-1
  6
ByLayer
100
AcDbEntity
100
AcDbPolyline
 90
3
 70
0
 10
25.912968999999997
 20
12.000283
 10
25.206001999999998
 20
12.000283
 10
25.206001999999998
 20
12.040076000000001
  0
SPLINE
  5
C5
  8
Layer_1
 62
1
420
16711680
370
-1
  6
ByLayer
100
AcDbEntity
100
AcDbSpline
 70
8
 71
3
 72
8
 73
4
 74
0
 40
0.0
 40
0.0
 40
0.0
 40
0.0
 40
1.0
 40
1.0
 40
1.0
 40
1.0
 10
22.259320000000002
 20
12.000283
 30
0.0
 10
21.480386000000003
 20
12.000283
 30
0.0
 10
20.846514999999997
 20
12.634717999999999
 30
0.0
 10
20.846514999999997
 20
13.413934000000001
 30
0.0
  0
SPLINE
  5
C6
  8
Layer_1
 62
1
420
16711680
370
-1
  6
ByLayer
100
AcDbEntity
100
AcDbSpline
 70
8
 71
3
 72
8
 73
4
 74
0
 40
0.0
 40
0.0
 40
0.0
 40
0.0
 40
1.0
 40
1.0
 40
1.0
 40
1.0
 10
23.086230999999998
 20
16.040012000000001
 30
0.0
 10
23.086230999999998
 20
16.592038000000002
 30
0.0
 10
23.533552999999998
 20
17.039925
 30
0.0
 10
24.086143999999997
 20
17.039925
 30
0.0
  0
SPLINE
  5
C7
  8
Layer_1
 62
1
420
16711680
370
-1
  6
ByLayer
100
AcDbEntity
100
AcDbSpline
 70
8
 71
3
 72
8
 73
4
 74
0
 40
0.0
 40
0.0
 40
0.0
 40
0.0
 40
1.0
 40
1.0
 40
1.0
 40
1.0
 10
24.086143999999997
 20
17.039925
 30
0.0
 10
24.637889000000001
 20
17.039925
 30
0.0
 10
25.085774999999998
 20
16.592038000000002
 30
0.0
 10
25.085774999999998
 20
16.040012000000001
 30
0.0
  0
SPLINE
  5
C8
  8
Layer_1
 62
1
420
16711680
370
-1
  6
ByLayer
100
AcDbEntity
100
AcDbSpline
 70
8
 71
3
 72
8
 73
4
 74
0
 40
0.0
 40
0.0
 40
0.0
 40
0.0
 40
1.0
 40
1.0
 40
1.0
 40
1.0
 10
25.085774999999998
 20
16.040012000000001
 30
0.0
 10
25.085774999999998
 20
15.487703
 30
0.0
 10
24.637889000000001
 20
15.039816
 30
0.0
 10
24.086143999999997
 20
15.039816
 30
0.0
  0
SPLINE
  5
C9
  8
Layer_1
 62
1
420
16711680
370
-1
  6
ByLayer
100
AcDbEntity
100
AcDbSpline
 70
8
 71
3
 72
8
 73
4
 74
0
 40
0.0
 40
0.0
 40
0.0
 40
0.0
 40
1.0
 40
1.0
 40
1.0
 40
1.0
 10
24.086143999999997
 20
15.039816
 30
0.0
 10
23.533552999999998
 20
15.039816
 30
0.0
 10
23.086230999999998
 20
15.487703
 30
0.0
 10
23.086230999999998
 20
16.040012000000001
 30
0.0
  0
LWPOLYLINE
  5
CA
  8
Layer_1
 62
1
420
16711680
370
-1
  6
ByLayer
100
AcDbEntity
100
AcDbPolyline
 90
3
 70
0
 10
22.966003999999998
 20
12.040076000000001
 10
22.966003999999998
 20
12.000283
 10
22.259320000000002
 20
12.000283
  0
LWPOLYLINE
  5
CB
  8
Layer_1
 62
1
420
16711680
370
-1
  6
ByLayer
100
AcDbEntity
100
AcDbPolyline
 90
2
 70
0
 10
23.086230999999998
 20
16.040012000000001
 10
23.086230999999998
 20
16.040012000000001
  0
SPLINE
  5
CC
  8
Layer_1
 62
1
420
16711680
370
-1
  6
ByLayer
100
AcDbEntity
100
AcDbSpline
 70
8
 71
3
 72
8
 73
4
 74
0
 40
0.0
 40
0.0
 40
0.0
 40
0.0
 40
1.0
 40
1.0
 40
1.0
 40
1.0
 10
18.725897000000003
 20
12.039794000000001
 30
0.0
 10
18.725897000000003
 20
12.657578000000001
 30
0.0
 10
18.223824
 20
13.159934
 30
0.0
 10
17.60604
 20
13.159934
 30
0.0
  0
SPLINE
  5
CD
  8
Layer_1
 62
1
420
16711680
370
-1
  6
ByLayer
100
AcDbEntity
100
AcDbSpline
 70
8
 71
3
 72
8
 73
4
 74
0
 40
0.0
 40
0.0
 40
0.0
 40
0.0
 40
1.0
 40
1.0
 40
1.0
 40
1.0
 10
17.60604
 20
13.159934
 30
0.0
 10
16.988819999999997
 20
13.159934
 30
0.0
 10
16.485053000000001
 20
12.657859999999999
 30
0.0
 10
16.485053000000001
 20
12.039794000000001
 30
0.0
  0
LWPOLYLINE
  5
CE
  8
Layer_1
 62
1
420
16711680
370
-1
  6
ByLayer
100
AcDbEntity
100
AcDbPolyline
 90
3
 70
0
 10
19.432299999999998
 20
12.0
 10
18.725897000000003
 20
12.0
 10
18.725897000000003
 20
12.039794000000001
  0
SPLINE
  5
CF
  8
Layer_1
 62
1
420
16711680
370
-1
  6
ByLayer
100
AcDbEntity
100
AcDbSpline
 70
8
 71
3
 72
8
 73
4
 74
0
 40
0.0
 40
0.0
 40
0.0
 40
0.0
 40
1.0
 40
1.0
 40
1.0
 40
1.0
 10
15.778933
 20
12.0
 30
0.0
 10
15.0
 20
12.0
 30
0.0
 10
14.366128999999999
 20
12.634436000000001
 30
0.0
 10
14.366128999999999
 20
13.413652000000001
 30
0.0
  0
LWPOLYLINE
  5
D0
  8
Layer_1
 62
1
420
16711680
370
-1
  6
ByLayer
100
AcDbEntity
100
AcDbPolyline
 90
3
 70
0
 10
16.485053000000001
 20
12.039794000000001
 10
16.485053000000001
 20
12.0
 10
15.778933
 20
12.0
  0
SPLINE
  5
D1
  8
Layer_1
 62
1
420
16711680
370
-1
  6
ByLayer
100
AcDbEntity
100
AcDbSpline
 70
8
 71
3
 72
8
 73
4
 74
0
 40
0.0
 40
0.0
 40
0.0
 40
0.0
 40
1.0
 40
1.0
 40
1.0
 40
1.0
 10
14.366128999999999
 20
18.666088999999999
 30
0.0
 10
14.366128999999999
 20
19.445587
 30
0.0
 10
15.0
 20
20.079458000000002
 30
0.0
 10
15.778933
 20
20.079458000000002
 30
0.0
  0
LWPOLYLINE
  5
D2
  8
Layer_1
 62
1
420
16711680
370
-1
  6
ByLayer
100
AcDbEntity
100
AcDbPolyline
 90
2
 70
0
 10
14.366128999999999
 20
13.413652000000001
 10
14.366128999999999
 20
18.666088999999999
  0
SPLINE
  5
D3
  8
Layer_1
 62
1
420
16711680
370
-1
  6
ByLayer
100
AcDbEntity
100
AcDbSpline
 70
8
 71
3
 72
8
 73
4
 74
0
 40
0.0
 40
0.0
 40
0.0
 40
0.0
 40
1.0
 40
1.0
 40
1.0
 40
1.0
 10
16.485053000000001
 20
20.039664999999999
 30
0.0
 10
16.485053000000001
 20
19.422163000000001
 30
0.0
 10
16.988819999999997
 20
18.919806999999999
 30
0.0
 10
17.60604
 20
18.919806999999999
 30
0.0
  0
SPLINE
  5
D4
  8
Layer_1
 62
1
420
16711680
370
-1
  6
ByLayer
100
AcDbEntity
100
AcDbSpline
 70
8
 71
3
 72
8
 73
4
 74
0
 40
0.0
 40
0.0
 40
0.0
 40
0.0
 40
1.0
 40
1.0
 40
1.0
 40
1.0
 10
17.60604
 20
18.919806999999999
 30
0.0
 10
18.223542000000002
 20
18.919806999999999
 30
0.0
 10
18.725897000000003
 20
19.422163000000001
 30
0.0
 10
18.725897000000003
 20
20.039664999999999
 30
0.0
  0
LWPOLYLINE
  5
D5
  8
Layer_1
 62
1
420
16711680
370
-1
  6
ByLayer
100
AcDbEntity
100
AcDbPolyline
 90
3
 70
0
 10
15.778933
 20
20.079458000000002
 10
16.485053000000001
 20
20.079458000000002
 10
16.485053000000001
 20
20.039664999999999
  0
SPLINE
  5
D6
  8
Layer_1
 62
1
420
16711680
370
-1
  6
ByLayer
100
AcDbEntity
100
AcDbSpline
 70
8
 71
3
 72
8
 73
4
 74
0
 40
0.0
 40
0.0
 40
0.0
 40
0.0
 40
1.0
 40
1.0
 40
1.0
 40
1.0
 10
19.432299999999998
 20
20.079458000000002
 30
0.0
 10
20.21208
 20
20.079458000000002
 30
0.0
 10
20.846514999999997
 20
19.445587
 30
0.0
 10
20.846514999999997
 20
18.666088999999999
 30
0.0
  0
LWPOLYLINE
  5
D7
  8
Layer_1
 62
1
420
16711680
370
-1
  6
ByLayer
100
AcDbEntity
100
AcDbPolyline
 90
3
 70
0
 10
18.725897000000003
 20
20.039664999999999
 10
18.725897000000003
 20
20.079458000000002
 10
19.432299999999998
 20
20.079458000000002
  0
SPLINE
  5
D8
  8
Layer_1
 62
1
420
16711680
370
-1
  6
ByLayer
100
AcDbEntity
100
AcDbSpline
 70
8
 71
3
 72
8
 73
4
 74
0
 40
0.0
 40
0.0
 40
0.0
 40
0.0
 40
1.0
 40
1.0
 40
1.0
 40
1.0
 10
20.846514999999997
 20
13.413652000000001
 30
0.0
 10
20.846514999999997
 20
12.634436000000001
 30
0.0
 10
20.21208
 20
12.0
 30
0.0
 10
19.432299999999998
 20
12.0
 30
0.0
  0
LWPOLYLINE
  5
D9
  8
Layer_1
 62
1
420
16711680
370
-1
  6
ByLayer
100
AcDbEntity
100
AcDbPolyline
 90
2
 70
0
 10
20.846514999999997
 20
18.666088999999999
 10
20.846514999999997
 20
13.413652000000001
  0
SPLINE
  5
DA
  8
Layer_1
 62
1
420
16711680
370
-1
  6
ByLayer
100
AcDbEntity
100
AcDbSpline
 70
8
 71
3
 72
8
 73
4
 74
0
 40
0.0
 40
0.0
 40
0.0
 40
0.0
 40
1.0
 40
1.0
 40
1.0
 40
1.0
 10
16.606126000000003
 20
16.040012000000001
 30
0.0
 10
16.606126000000003
 20
16.592038000000002
 30
0.0
 10
17.053449000000001
 20
17.039925
 30
0.0
 10
17.60604
 20
17.039925
 30
0.0
  0
SPLINE
  5
DB
  8
Layer_1
 62
1
420
16711680
370
-1
  6
ByLayer
100
AcDbEntity
100
AcDbSpline
 70
8
 71
3
 72
8
 73
4
 74
0
 40
0.0
 40
0.0
 40
0.0
 40
0.0
 40
1.0
 40
1.0
 40
1.0
 40
1.0
 10
17.60604
 20
17.039925
 30
0.0
 10
18.157783999999999
 20
17.039925
 30
0.0
 10
18.605671000000001
 20
16.592038000000002
 30
0.0
 10
18.605671000000001
 20
16.040012000000001
 30
0.0
  0
SPLINE
  5
DC
  8
Layer_1
 62
1
420
16711680
370
-1
  6
ByLayer
100
AcDbEntity
100
AcDbSpline
 70
8
 71
3
 72
8
 73
4
 74
0
 40
0.0
 40
0.0
 40
0.0
 40
0.0
 40
1.0
 40
1.0
 40
1.0
 40
1.0
 10
18.605671000000001
 20
16.040012000000001
 30
0.0
 10
18.605671000000001
 20
15.487703
 30
0.0
 10
18.157783999999999
 20
15.039816
 30
0.0
 10
17.60604
 20
15.039816
 30
0.0
  0
SPLINE
  5
DD
  8
Layer_1
 62
1
420
16711680
370
-1
  6
ByLayer
100
AcDbEntity
100
AcDbSpline
 70
8
 71
3
 72
8
 73
4
 74
0
 40
0.0
 40
0.0
 40
0.0
 40
0.0
 40
1.0
 40
1.0
 40
1.0
 40
1.0
 10
17.60604
 20
15.039816
 30
0.0
 10
17.053449000000001
 20
15.039816
 30
0.0
 10
16.606126000000003
 20
15.487703
 30
0.0
 10
16.606126000000003
 20
16.040012000000001
 30
0.0
  0
LWPOLYLINE
  5
DE
  8
Layer_1
 62
1
420
16711680
370
-1
  6
ByLayer
100
AcDbEntity
100
AcDbPolyline
 90
2
 70
0
 10
19.432299999999998
 20
12.0
 10
19.432299999999998
 20
12.0
  0
LWPOLYLINE
  5
DF
  8
Layer_1
 62
1
420
16711680
370
-1
  6
ByLayer
100
AcDbEntity
100
AcDbPolyline
 90
2
 70
0
 10
16.606126000000003
 20
16.040012000000001
 10
16.606126000000003
 20
16.040012000000001
  0
SPLINE
  5
E0
  8
Layer_1
 62
1
420
16711680
370
-1
  6
ByLayer
100
AcDbEntity
100
AcDbSpline
 70
8
 71
3
 72
8
 73
4
 74
0
 40
0.0
 40
0.0
 40
0.0
 40
0.0
 40
1.0
 40
1.0
 40
1.0
 40
1.0
 10
6.7472800000000035
 20
32.440031000000005
 30
0.0
 10
5.9677829999999972
 20
32.440031000000005
 30
0.0
 10
5.333911999999998
 20
33.074466000000001
 30
0.0
 10
5.3339120000000051
 20
33.853399999999993
 30
0.0
  0
SPLINE
  5
E1
  8
Layer_1
 62
1
420
16711680
370
-1
  6
ByLayer
100
AcDbEntity
100
AcDbSpline
 70
8
 71
3
 72
8
 73
4
 74
0
 40
0.0
 40
0.0
 40
0.0
 40
0.0
 40
1.0
 40
1.0
 40
1.0
 40
1.0
 10
5.3737050000000011
 20
34.560083999999989
 30
0.0
 10
5.9912070000000028
 20
34.560083999999989
 30
0.0
 10
6.4935630000000089
 20
35.062156999999999
 30
0.0
 10
6.4935629999999946
 20
35.680505999999994
 30
0.0
  0
SPLINE
  5
E2
  8
Layer_1
 62
1
420
16711680
370
-1
  6
ByLayer
100
AcDbEntity
100
AcDbSpline
 70
8
 71
3
 72
8
 73
4
 74
0
 40
0.0
 40
0.0
 40
0.0
 40
0.0
 40
1.0
 40
1.0
 40
1.0
 40
1.0
 10
6.4935629999999946
 20
35.680505999999994
 30
0.0
 10
6.4935630000000089
 20
36.297725999999997
 30
0.0
 10
5.9912070000000028
 20
36.800364000000002
 30
0.0
 10
5.3737050000000082
 20
36.800364000000002
 30
0.0
  0
LWPOLYLINE
  5
E3
  8
Layer_1
 62
1
420
16711680
370
-1
  6
ByLayer
100
AcDbEntity
100
AcDbPolyline
 90
3
 70
0
 10
5.3339120000000051
 20
33.853399999999993
 10
5.333911999999998
 20
34.560083999999989
 10
5.3737050000000011
 20
34.560083999999989
  0
SPLINE
  5
E4
  8
Layer_1
 62
1
420
16711680
370
-1
  6
ByLayer
100
AcDbEntity
100
AcDbSpline
 70
8
 71
3
 72
8
 73
4
 74
0
 40
0.0
 40
0.0
 40
0.0
 40
0.0
 40
1.0
 40
1.0
 40
1.0
 40
1.0
 10
5.333911999999998
 20
37.507047999999998
 30
0.0
 10
5.333911999999998
 20
38.28598199999999
 30
0.0
 10
5.9677830000000043
 20
38.919852999999989
 30
0.0
 10
6.7472800000000035
 20
38.919852999999989
 30
0.0
  0
LWPOLYLINE
  5
E5
  8
Layer_1
 62
1
420
16711680
370
-1
  6
ByLayer
100
AcDbEntity
100
AcDbPolyline
 90
3
 70
0
 10
5.3737050000000082
 20
36.800364000000002
 10
5.333911999999998
 20
36.800364000000002
 10
5.333911999999998
 20
37.507047999999998
  0
SPLINE
  5
E6
  8
Layer_1
 62
1
420
16711680
370
-1
  6
ByLayer
100
AcDbEntity
100
AcDbSpline
 70
8
 71
3
 72
8
 73
4
 74
0
 40
0.0
 40
0.0
 40
0.0
 40
0.0
 40
1.0
 40
1.0
 40
1.0
 40
1.0
 10
11.999718000000037
 20
38.919852999999989
 30
0.0
 10
12.778933999999978
 20
38.919852999999989
 30
0.0
 10
13.413368999909622
 20
38.28598199999999
 30
0.0
 10
13.413368999753594
 20
37.507047999999998
 30
0.0
  0
LWPOLYLINE
  5
E7
  8
Layer_1
 62
1
420
16711680
370
-1
  6
ByLayer
100
AcDbEntity
100
AcDbPolyline
 90
2
 70
0
 10
6.7472800000000035
 20
38.919852999999989
 10
11.999718000000037
 20
38.919852999999989
  0
SPLINE
  5
E8
  8
Layer_1
 62
1
420
16711680
370
-1
  6
ByLayer
100
AcDbEntity
100
AcDbSpline
 70
8
 71
3
 72
8
 73
4
 74
0
 40
0.0
 40
0.0
 40
0.0
 40
0.0
 40
1.0
 40
1.0
 40
1.0
 40
1.0
 10
13.373576000000654
 20
36.800364000000002
 30
0.0
 10
12.755792000000035
 20
36.800364000000002
 30
0.0
 10
12.253436000000001
 20
36.297725999999997
 30
0.0
 10
12.253436000000008
 20
35.680505999999994
 30
0.0
  0
SPLINE
  5
E9
  8
Layer_1
 62
1
420
16711680
370
-1
  6
ByLayer
100
AcDbEntity
100
AcDbSpline
 70
8
 71
3
 72
8
 73
4
 74
0
 40
0.0
 40
0.0
 40
0.0
 40
0.0
 40
1.0
 40
1.0
 40
1.0
 40
1.0
 10
12.253436000000008
 20
35.680505999999994
 30
0.0
 10
12.253435999999986
 20
35.062439999999995
 30
0.0
 10
12.755509000000032
 20
34.560083999999989
 30
0.0
 10
13.373576000000938
 20
34.560083999999989
 30
0.0
  0
LWPOLYLINE
  5
EA
  8
Layer_1
 62
1
420
16711680
370
-1
  6
ByLayer
100
AcDbEntity
100
AcDbPolyline
 90
3
 70
0
 10
13.413368999753594
 20
37.507047999999998
 10
13.413368999869881
 20
36.800364000000002
 10
13.373576000000654
 20
36.800364000000002
  0
SPLINE
  5
EB
  8
Layer_1
 62
1
420
16711680
370
-1
  6
ByLayer
100
AcDbEntity
100
AcDbSpline
 70
8
 71
3
 72
8
 73
4
 74
0
 40
0.0
 40
0.0
 40
0.0
 40
0.0
 40
1.0
 40
1.0
 40
1.0
 40
1.0
 10
13.413368999967901
 20
33.853399999999993
 30
0.0
 10
13.413368999904897
 20
33.074466000000001
 30
0.0
 10
12.778933999999985
 20
32.440031000000005
 30
0.0
 10
11.999718000000016
 20
32.440031000000005
 30
0.0
  0
SPLINE
  5
EC
  8
Layer_1
 62
1
420
16711680
370
-1
  6
ByLayer
100
AcDbEntity
100
AcDbSpline
 70
8
 71
3
 72
8
 73
4
 74
0
 40
0.0
 40
0.0
 40
0.0
 40
0.0
 40
1.0
 40
1.0
 40
1.0
 40
1.0
 10
9.3736400000000089
 20
34.680310999999989
 30
0.0
 10
8.8216139999999896
 20
34.680310999999989
 30
0.0
 10
8.3737270000000024
 20
35.127633000000003
 30
0.0
 10
8.3737270000000024
 20
35.680223999999995
 30
0.0
  0
SPLINE
  5
ED
  8
Layer_1
 62
1
420
16711680
370
-1
  6
ByLayer
100
AcDbEntity
100
AcDbSpline
 70
8
 71
3
 72
8
 73
4
 74
0
 40
0.0
 40
0.0
 40
0.0
 40
0.0
 40
1.0
 40
1.0
 40
1.0
 40
1.0
 10
8.3737270000000024
 20
35.680223999999995
 30
0.0
 10
8.3737270000000024
 20
36.231967999999995
 30
0.0
 10
8.8216140000000038
 20
36.679855000000003
 30
0.0
 10
9.3736400000000089
 20
36.679855000000003
 30
0.0
  0
SPLINE
  5
EE
  8
Layer_1
 62
1
420
16711680
370
-1
  6
ByLayer
100
AcDbEntity
100
AcDbSpline
 70
8
 71
3
 72
8
 73
4
 74
0
 40
0.0
 40
0.0
 40
0.0
 40
0.0
 40
1.0
 40
1.0
 40
1.0
 40
1.0
 10
9.3736400000000089
 20
36.679855000000003
 30
0.0
 10
9.9259490000000099
 20
36.679855000000003
 30
0.0
 10
10.373835999999997
 20
36.231967999999995
 30
0.0
 10
10.373835999999983
 20
35.680223999999995
 30
0.0
  0
SPLINE
  5
EF
  8
Layer_1
 62
1
420
16711680
370
-1
  6
ByLayer
100
AcDbEntity
100
AcDbSpline
 70
8
 71
3
 72
8
 73
4
 74
0
 40
0.0
 40
0.0
 40
0.0
 40
0.0
 40
1.0
 40
1.0
 40
1.0
 40
1.0
 10
10.373835999999983
 20
35.680223999999995
 30
0.0
 10
10.373836000000018
 20
35.127633000000003
 30
0.0
 10
9.9259490000000099
 20
34.680310999999989
 30
0.0
 10
9.3736400000000089
 20
34.680310999999989
 30
0.0
  0
LWPOLYLINE
  5
F0
  8
Layer_1
 62
1
420
16711680
370
-1
  6
ByLayer
100
AcDbEntity
100
AcDbPolyline
 90
3
 70
0
 10
13.373576000000938
 20
34.560083999999989
 10
13.413369000109057
 20
34.560083999999989
 10
13.413368999967901
 20
33.853399999999993
  0
SPLINE
  5
F1
  8
Layer_1
 62
1
420
16711680
370
-1
  6
ByLayer
100
AcDbEntity
100
AcDbSpline
 70
8
 71
3
 72
8
 73
4
 74
0
 40
0.0
 40
0.0
 40
0.0
 40
0.0
 40
1.0
 40
1.0
 40
1.0
 40
1.0
 10
6.7472799999999964
 20
25.959925999999996
 30
0.0
 10
5.9677829999999972
 20
25.959925999999996
 30
0.0
 10
5.333911999999998
 20
26.59436199999999
 30
0.0
 10
5.333911999999998
 20
27.373294999999999
 30
0.0
  0
LWPOLYLINE
  5
F2
  8
Layer_1
 62
1
420
16711680
370
-1
  6
ByLayer
100
AcDbEntity
100
AcDbPolyline
 90
2
 70
0
 10
9.3736400000000089
 20
34.680310999999989
 10
9.3736400000000089
 20
34.680310999999989
  0
SPLINE
  5
F3
  8
Layer_1
 62
1
420
16711680
370
-1
  6
ByLayer
100
AcDbEntity
100
AcDbSpline
 70
8
 71
3
 72
8
 73
4
 74
0
 40
0.0
 40
0.0
 40
0.0
 40
0.0
 40
1.0
 40
1.0
 40
1.0
 40
1.0
 10
5.3737050000000011
 20
28.079979999999992
 30
0.0
 10
5.9912070000000028
 20
28.079979999999992
 30
0.0
 10
6.4935630000000018
 20
28.582616999999999
 30
0.0
 10
6.4935630000000089
 20
29.200401999999997
 30
0.0
  0
SPLINE
  5
F4
  8
Layer_1
 62
1
420
16711680
370
-1
  6
ByLayer
100
AcDbEntity
100
AcDbSpline
 70
8
 71
3
 72
8
 73
4
 74
0
 40
0.0
 40
0.0
 40
0.0
 40
0.0
 40
1.0
 40
1.0
 40
1.0
 40
1.0
 10
6.4935630000000089
 20
29.200401999999997
 30
0.0
 10
6.4935630000000018
 20
29.817622
 30
0.0
 10
5.9912070000000099
 20
30.32025999999999
 30
0.0
 10
5.373704999999994
 20
30.32025999999999
 30
0.0
  0
LWPOLYLINE
  5
F5
  8
Layer_1
 62
1
420
16711680
370
-1
  6
ByLayer
100
AcDbEntity
100
AcDbPolyline
 90
3
 70
0
 10
5.333911999999998
 20
27.373294999999999
 10
5.333911999999998
 20
28.079979999999992
 10
5.3737050000000011
 20
28.079979999999992
  0
SPLINE
  5
F6
  8
Layer_1
 62
1
420
16711680
370
-1
  6
ByLayer
100
AcDbEntity
100
AcDbSpline
 70
8
 71
3
 72
8
 73
4
 74
0
 40
0.0
 40
0.0
 40
0.0
 40
0.0
 40
1.0
 40
1.0
 40
1.0
 40
1.0
 10
5.3339120000000051
 20
31.026944
 30
0.0
 10
5.333911999999998
 20
31.805876999999995
 30
0.0
 10
5.9677830000000043
 20
32.440313000000003
 30
0.0
 10
6.7472800000000035
 20
32.440313000000003
 30
0.0
  0
LWPOLYLINE
  5
F7
  8
Layer_1
 62
1
420
16711680
370
-1
  6
ByLayer
100
AcDbEntity
100
AcDbPolyline
 90
3
 70
0
 10
5.373704999999994
 20
30.32025999999999
 10
5.333911999999998
 20
30.32025999999999
 10
5.3339120000000051
 20
31.026944
  0
SPLINE
  5
F8
  8
Layer_1
 62
1
420
16711680
370
-1
  6
ByLayer
100
AcDbEntity
100
AcDbSpline
 70
8
 71
3
 72
8
 73
4
 74
0
 40
0.0
 40
0.0
 40
0.0
 40
0.0
 40
1.0
 40
1.0
 40
1.0
 40
1.0
 10
11.99971800000003
 20
32.440313000000003
 30
0.0
 10
12.778934000000085
 20
32.440313000000003
 30
0.0
 10
13.413368999975837
 20
31.805876999999995
 30
0.0
 10
13.413369000116695
 20
31.026944
 30
0.0
  0
LWPOLYLINE
  5
F9
  8
Layer_1
 62
1
420
16711680
370
-1
  6
ByLayer
100
AcDbEntity
100
AcDbPolyline
 90
2
 70
0
 10
6.7472800000000035
 20
32.440313000000003
 10
11.99971800000003
 20
32.440313000000003
  0
SPLINE
  5
FA
  8
Layer_1
 62
1
420
16711680
370
-1
  6
ByLayer
100
AcDbEntity
100
AcDbSpline
 70
8
 71
3
 72
8
 73
4
 74
0
 40
0.0
 40
0.0
 40
0.0
 40
0.0
 40
1.0
 40
1.0
 40
1.0
 40
1.0
 10
13.373575999999431
 20
30.32025999999999
 30
0.0
 10
12.755792
 20
30.32025999999999
 30
0.0
 10
12.253435999999994
 20
29.817622
 30
0.0
 10
12.253435999999994
 20
29.200401999999997
 30
0.0
  0
SPLINE
  5
FB
  8
Layer_1
 62
1
420
16711680
370
-1
  6
ByLayer
100
AcDbEntity
100
AcDbSpline
 70
8
 71
3
 72
8
 73
4
 74
0
 40
0.0
 40
0.0
 40
0.0
 40
0.0
 40
1.0
 40
1.0
 40
1.0
 40
1.0
 10
12.253435999999994
 20
29.200401999999997
 30
0.0
 10
12.253436000000008
 20
28.582899999999995
 30
0.0
 10
12.755509000000004
 20
28.079979999999992
 30
0.0
 10
13.373576
 20
28.079979999999992
 30
0.0
  0
LWPOLYLINE
  5
FC
  8
Layer_1
 62
1
420
16711680
370
-1
  6
ByLayer
100
AcDbEntity
100
AcDbPolyline
 90
3
 70
0
 10
13.413369000116695
 20
31.026944
 10
13.413369000071263
 20
30.32025999999999
 10
13.373575999999431
 20
30.32025999999999
  0
SPLINE
  5
FD
  8
Layer_1
 62
1
420
16711680
370
-1
  6
ByLayer
100
AcDbEntity
100
AcDbSpline
 70
8
 71
3
 72
8
 73
4
 74
0
 40
0.0
 40
0.0
 40
0.0
 40
0.0
 40
1.0
 40
1.0
 40
1.0
 40
1.0
 10
13.413369000014811
 20
27.373294999999999
 30
0.0
 10
13.413369000024922
 20
26.59436199999999
 30
0.0
 10
12.778933999999971
 20
25.959925999999996
 30
0.0
 10
11.999717999999994
 20
25.959925999999996
 30
0.0
  0
SPLINE
  5
FE
  8
Layer_1
 62
1
420
16711680
370
-1
  6
ByLayer
100
AcDbEntity
100
AcDbSpline
 70
8
 71
3
 72
8
 73
4
 74
0
 40
0.0
 40
0.0
 40
0.0
 40
0.0
 40
1.0
 40
1.0
 40
1.0
 40
1.0
 10
9.3736400000000017
 20
28.200205999999994
 30
0.0
 10
8.8216139999999967
 20
28.200205999999994
 30
0.0
 10
8.3737270000000024
 20
28.647245999999996
 30
0.0
 10
8.3737270000000024
 20
29.200119999999998
 30
0.0
  0
SPLINE
  5
FF
  8
Layer_1
 62
1
420
16711680
370
-1
  6
ByLayer
100
AcDbEntity
100
AcDbSpline
 70
8
 71
3
 72
8
 73
4
 74
0
 40
0.0
 40
0.0
 40
0.0
 40
0.0
 40
1.0
 40
1.0
 40
1.0
 40
1.0
 10
8.3737270000000024
 20
29.200119999999998
 30
0.0
 10
8.3737270000000095
 20
29.751863999999998
 30
0.0
 10
8.8216140000000038
 20
30.199467999999996
 30
0.0
 10
9.3736400000000089
 20
30.199467999999996
 30
0.0
  0
SPLINE
  5
100
  8
Layer_1
 62
1
420
16711680
370
-1
  6
ByLayer
100
AcDbEntity
100
AcDbSpline
 70
8
 71
3
 72
8
 73
4
 74
0
 40
0.0
 40
0.0
 40
0.0
 40
0.0
 40
1.0
 40
1.0
 40
1.0
 40
1.0
 10
9.3736400000000089
 20
30.199467999999996
 30
0.0
 10
9.9259490000000028
 20
30.199467999999996
 30
0.0
 10
10.373836000000004
 20
29.751863999999998
 30
0.0
 10
10.373836000000004
 20
29.200119999999998
 30
0.0
  0
SPLINE
  5
101
  8
Layer_1
 62
1
420
16711680
370
-1
  6
ByLayer
100
AcDbEntity
100
AcDbSpline
 70
8
 71
3
 72
8
 73
4
 74
0
 40
0.0
 40
0.0
 40
0.0
 40
0.0
 40
1.0
 40
1.0
 40
1.0
 40
1.0
 10
10.373836000000004
 20
29.200119999999998
 30
0.0
 10
10.37383599999999
 20
28.647245999999996
 30
0.0
 10
9.9259490000000028
 20
28.200205999999994
 30
0.0
 10
9.3736400000000017
 20
28.200205999999994
 30
0.0
  0
LWPOLYLINE
  5
102
  8
Layer_1
 62
1
420
16711680
370
-1
  6
ByLayer
100
AcDbEntity
100
AcDbPolyline
 90
3
 70
0
 10
13.373576
 20
28.079979999999992
 10
13.413368999998205
 20
28.079979999999992
 10
13.413369000014811
 20
27.373294999999999
  0
SPLINE
  5
103
  8
Layer_1
 62
1
420
16711680
370
-1
  6
ByLayer
100
AcDbEntity
100
AcDbSpline
 70
8
 71
3
 72
8
 73
4
 74
0
 40
0.0
 40
0.0
 40
0.0
 40
0.0
 40
1.0
 40
1.0
 40
1.0
 40
1.0
 10
6.7472800000000035
 20
19.480385999999996
 30
0.0
 10
5.9677829999999972
 20
19.480385999999996
 30
0.0
 10
5.333911999999998
 20
20.114256999999995
 30
0.0
 10
5.333911999999998
 20
20.893191000000002
 30
0.0
  0
LWPOLYLINE
  5
104
  8
Layer_1
 62
1
420
16711680
370
-1
  6
ByLayer
100
AcDbEntity
100
AcDbPolyline
 90
2
 70
0
 10
9.3736400000000017
 20
28.200205999999994
 10
9.3736400000000017
 20
28.200205999999994
  0
SPLINE
  5
105
  8
Layer_1
 62
1
420
16711680
370
-1
  6
ByLayer
100
AcDbEntity
100
AcDbSpline
 70
8
 71
3
 72
8
 73
4
 74
0
 40
0.0
 40
0.0
 40
0.0
 40
0.0
 40
1.0
 40
1.0
 40
1.0
 40
1.0
 10
5.3737050000000011
 20
21.599874999999997
 30
0.0
 10
5.9912070000000028
 20
21.599874999999997
 30
0.0
 10
6.4935630000000018
 20
22.102513000000002
 30
0.0
 10
6.4935630000000018
 20
22.720297000000002
 30
0.0
  0
SPLINE
  5
106
  8
Layer_1
 62
1
420
16711680
370
-1
  6
ByLayer
100
AcDbEntity
100
AcDbSpline
 70
8
 71
3
 72
8
 73
4
 74
0
 40
0.0
 40
0.0
 40
0.0
 40
0.0
 40
1.0
 40
1.0
 40
1.0
 40
1.0
 10
6.4935630000000018
 20
22.720297000000002
 30
0.0
 10
6.4935630000000089
 20
23.338082
 30
0.0
 10
5.9912070000000028
 20
23.839872999999997
 30
0.0
 10
5.3737050000000011
 20
23.839872999999997
 30
0.0
  0
LWPOLYLINE
  5
107
  8
Layer_1
 62
1
420
16711680
370
-1
  6
ByLayer
100
AcDbEntity
100
AcDbPolyline
 90
3
 70
0
 10
5.333911999999998
 20
20.893191000000002
 10
5.333911999999998
 20
21.599874999999997
 10
5.3737050000000011
 20
21.599874999999997
  0
SPLINE
  5
108
  8
Layer_1
 62
1
420
16711680
370
-1
  6
ByLayer
100
AcDbEntity
100
AcDbSpline
 70
8
 71
3
 72
8
 73
4
 74
0
 40
0.0
 40
0.0
 40
0.0
 40
0.0
 40
1.0
 40
1.0
 40
1.0
 40
1.0
 10
5.333911999999998
 20
24.546840000000003
 30
0.0
 10
5.3339120000000051
 20
25.325772999999998
 30
0.0
 10
5.9677829999999972
 20
25.960207999999994
 30
0.0
 10
6.7472800000000035
 20
25.960207999999994
 30
0.0
  0
LWPOLYLINE
  5
109
  8
Layer_1
 62
1
420
16711680
370
-1
  6
ByLayer
100
AcDbEntity
100
AcDbPolyline
 90
3
 70
0
 10
5.3737050000000011
 20
23.839872999999997
 10
5.333911999999998
 20
23.839872999999997
 10
5.333911999999998
 20
24.546840000000003
  0
SPLINE
  5
10A
  8
Layer_1
 62
1
420
16711680
370
-1
  6
ByLayer
100
AcDbEntity
100
AcDbSpline
 70
8
 71
3
 72
8
 73
4
 74
0
 40
0.0
 40
0.0
 40
0.0
 40
0.0
 40
1.0
 40
1.0
 40
1.0
 40
1.0
 10
11.999717999999994
 20
25.960207999999994
 30
0.0
 10
12.778934000000021
 20
25.960207999999994
 30
0.0
 10
13.413369000002866
 20
25.325772999999998
 30
0.0
 10
13.413368999966607
 20
24.546840000000003
 30
0.0
  0
LWPOLYLINE
  5
10B
  8
Layer_1
 62
1
420
16711680
370
-1
  6
ByLayer
100
AcDbEntity
100
AcDbPolyline
 90
2
 70
0
 10
6.7472800000000035
 20
25.960207999999994
 10
11.999717999999994
 20
25.960207999999994
  0
SPLINE
  5
10C
  8
Layer_1
 62
1
420
16711680
370
-1
  6
ByLayer
100
AcDbEntity
100
AcDbSpline
 70
8
 71
3
 72
8
 73
4
 74
0
 40
0.0
 40
0.0
 40
0.0
 40
0.0
 40
1.0
 40
1.0
 40
1.0
 40
1.0
 10
13.373576000000092
 20
23.839872999999997
 30
0.0
 10
12.755792000000014
 20
23.839872999999997
 30
0.0
 10
12.253436000000001
 20
23.338082
 30
0.0
 10
12.253436000000008
 20
22.720297000000002
 30
0.0
  0
SPLINE
  5
10D
  8
Layer_1
 62
1
420
16711680
370
-1
  6
ByLayer
100
AcDbEntity
100
AcDbSpline
 70
8
 71
3
 72
8
 73
4
 74
0
 40
0.0
 40
0.0
 40
0.0
 40
0.0
 40
1.0
 40
1.0
 40
1.0
 40
1.0
 10
12.253436000000008
 20
22.720297000000002
 30
0.0
 10
12.253436000000001
 20
22.102513000000002
 30
0.0
 10
12.755509000000004
 20
21.599874999999997
 30
0.0
 10
13.373576000000014
 20
21.599874999999997
 30
0.0
  0
LWPOLYLINE
  5
10E
  8
Layer_1
 62
1
420
16711680
370
-1
  6
ByLayer
100
AcDbEntity
100
AcDbPolyline
 90
3
 70
0
 10
13.413368999966607
 20
24.546840000000003
 10
13.413369000043467
 20
23.839872999999997
 10
13.373576000000092
 20
23.839872999999997
  0
SPLINE
  5
10F
  8
Layer_1
 62
1
420
16711680
370
-1
  6
ByLayer
100
AcDbEntity
100
AcDbSpline
 70
8
 71
3
 72
8
 73
4
 74
0
 40
0.0
 40
0.0
 40
0.0
 40
0.0
 40
1.0
 40
1.0
 40
1.0
 40
1.0
 10
13.413368999996777
 20
20.893191000000002
 30
0.0
 10
13.413368999997417
 20
20.114256999999995
 30
0.0
 10
12.778934
 20
19.480385999999996
 30
0.0
 10
11.999718000000001
 20
19.480385999999996
 30
0.0
  0
SPLINE
  5
110
  8
Layer_1
 62
1
420
16711680
370
-1
  6
ByLayer
100
AcDbEntity
100
AcDbSpline
 70
8
 71
3
 72
8
 73
4
 74
0
 40
0.0
 40
0.0
 40
0.0
 40
0.0
 40
1.0
 40
1.0
 40
1.0
 40
1.0
 10
9.3736400000000017
 20
21.720101999999997
 30
0.0
 10
8.8216139999999967
 20
21.720101999999997
 30
0.0
 10
8.3737270000000095
 20
22.167423999999997
 30
0.0
 10
8.3737270000000024
 20
22.720014999999989
 30
0.0
  0
SPLINE
  5
111
  8
Layer_1
 62
1
420
16711680
370
-1
  6
ByLayer
100
AcDbEntity
100
AcDbSpline
 70
8
 71
3
 72
8
 73
4
 74
0
 40
0.0
 40
0.0
 40
0.0
 40
0.0
 40
1.0
 40
1.0
 40
1.0
 40
1.0
 10
8.3737270000000024
 20
22.720014999999989
 30
0.0
 10
8.3737270000000024
 20
23.27176
 30
0.0
 10
8.8216139999999967
 20
23.719645999999997
 30
0.0
 10
9.3736400000000017
 20
23.719645999999997
 30
0.0
  0
SPLINE
  5
112
  8
Layer_1
 62
1
420
16711680
370
-1
  6
ByLayer
100
AcDbEntity
100
AcDbSpline
 70
8
 71
3
 72
8
 73
4
 74
0
 40
0.0
 40
0.0
 40
0.0
 40
0.0
 40
1.0
 40
1.0
 40
1.0
 40
1.0
 10
9.3736400000000017
 20
23.719645999999997
 30
0.0
 10
9.9259490000000028
 20
23.719645999999997
 30
0.0
 10
10.373835999999997
 20
23.27176
 30
0.0
 10
10.373835999999997
 20
22.720014999999989
 30
0.0
  0
SPLINE
  5
113
  8
Layer_1
 62
1
420
16711680
370
-1
  6
ByLayer
100
AcDbEntity
100
AcDbSpline
 70
8
 71
3
 72
8
 73
4
 74
0
 40
0.0
 40
0.0
 40
0.0
 40
0.0
 40
1.0
 40
1.0
 40
1.0
 40
1.0
 10
10.373835999999997
 20
22.720014999999989
 30
0.0
 10
10.373835999999997
 20
22.167423999999997
 30
0.0
 10
9.9259490000000028
 20
21.720101999999997
 30
0.0
 10
9.3736400000000017
 20
21.720101999999997
 30
0.0
  0
LWPOLYLINE
  5
114
  8
Layer_1
 62
1
420
16711680
370
-1
  6
ByLayer
100
AcDbEntity
100
AcDbPolyline
 90
3
 70
0
 10
13.373576000000014
 20
21.599874999999997
 10
13.413368999993466
 20
21.599874999999997
 10
13.413368999996777
 20
20.893191000000002
  0
LWPOLYLINE
  5
115
  8
Layer_1
 62
1
420
16711680
370
-1
  6
ByLayer
100
AcDbEntity
100
AcDbPolyline
 90
2
 70
0
 10
9.3736400000000017
 20
21.720101999999997
 10
9.3736400000000017
 20
21.720101999999997
  0
SPLINE
  5
116
  8
Layer_1
 62
1
420
16711680
370
-1
  6
ByLayer
100
AcDbEntity
100
AcDbSpline
 70
8
 71
3
 72
8
 73
4
 74
0
 40
0.0
 40
0.0
 40
0.0
 40
0.0
 40
1.0
 40
1.0
 40
1.0
 40
1.0
 10
13.373857999999991
 20
17.359768000000003
 30
0.0
 10
12.756074000000005
 20
17.359768000000003
 30
0.0
 10
12.253717999999999
 20
16.857694999999993
 30
0.0
 10
12.253717999999999
 20
16.239910999999992
 30
0.0
  0
SPLINE
  5
117
  8
Layer_1
 62
1
420
16711680
370
-1
  6
ByLayer
100
AcDbEntity
100
AcDbSpline
 70
8
 71
3
 72
8
 73
4
 74
0
 40
0.0
 40
0.0
 40
0.0
 40
0.0
 40
1.0
 40
1.0
 40
1.0
 40
1.0
 10
12.253717999999999
 20
16.239910999999992
 30
0.0
 10
12.253717999999999
 20
15.622690999999996
 30
0.0
 10
12.755792
 20
15.118923999999993
 30
0.0
 10
13.373857999999998
 20
15.118923999999993
 30
0.0
  0
LWPOLYLINE
  5
118
  8
Layer_1
 62
1
420
16711680
370
-1
  6
ByLayer
100
AcDbEntity
100
AcDbPolyline
 90
3
 70
0
 10
13.413651999999999
 20
18.066170999999997
 10
13.413651999999999
 20
17.359768000000003
 10
13.373857999999991
 20
17.359768000000003
  0
SPLINE
  5
119
  8
Layer_1
 62
1
420
16711680
370
-1
  6
ByLayer
100
AcDbEntity
100
AcDbSpline
 70
8
 71
3
 72
8
 73
4
 74
0
 40
0.0
 40
0.0
 40
0.0
 40
0.0
 40
1.0
 40
1.0
 40
1.0
 40
1.0
 10
13.413651999999999
 20
14.412803999999994
 30
0.0
 10
13.413651999999999
 20
13.633870999999999
 30
0.0
 10
12.779215999999998
 20
13.0
 30
0.0
 10
12.0
 20
13.0
 30
0.0
  0
LWPOLYLINE
  5
11A
  8
Layer_1
 62
1
420
16711680
370
-1
  6
ByLayer
100
AcDbEntity
100
AcDbPolyline
 90
3
 70
0
 10
13.373857999999998
 20
15.118923999999993
 10
13.413651999999999
 20
15.118923999999993
 10
13.413651999999999
 20
14.412803999999994
  0
SPLINE
  5
11B
  8
Layer_1
 62
1
420
16711680
370
-1
  6
ByLayer
100
AcDbEntity
100
AcDbSpline
 70
8
 71
3
 72
8
 73
4
 74
0
 40
0.0
 40
0.0
 40
0.0
 40
0.0
 40
1.0
 40
1.0
 40
1.0
 40
1.0
 10
6.7475629999999995
 20
13.0
 30
0.0
 10
5.9680650000000028
 20
13.0
 30
0.0
 10
5.3341939999999965
 20
13.633870999999999
 30
0.0
 10
5.3341939999999965
 20
14.412803999999994
 30
0.0
  0
LWPOLYLINE
  5
11C
  8
Layer_1
 62
1
420
16711680
370
-1
  6
ByLayer
100
AcDbEntity
100
AcDbPolyline
 90
2
 70
0
 10
12.0
 20
13.0
 10
6.7475629999999995
 20
13.0
  0
SPLINE
  5
11D
  8
Layer_1
 62
1
420
16711680
370
-1
  6
ByLayer
100
AcDbEntity
100
AcDbSpline
 70
8
 71
3
 72
8
 73
4
 74
0
 40
0.0
 40
0.0
 40
0.0
 40
0.0
 40
1.0
 40
1.0
 40
1.0
 40
1.0
 10
5.3739869999999996
 20
15.118923999999993
 30
0.0
 10
5.9914890000000014
 20
15.118923999999993
 30
0.0
 10
6.4938450000000003
 20
15.622690999999996
 30
0.0
 10
6.4938450000000003
 20
16.239910999999992
 30
0.0
  0
SPLINE
  5
11E
  8
Layer_1
 62
1
420
16711680
370
-1
  6
ByLayer
100
AcDbEntity
100
AcDbSpline
 70
8
 71
3
 72
8
 73
4
 74
0
 40
0.0
 40
0.0
 40
0.0
 40
0.0
 40
1.0
 40
1.0
 40
1.0
 40
1.0
 10
6.4938450000000003
 20
16.239910999999992
 30
0.0
 10
6.4938450000000003
 20
16.857412999999994
 30
0.0
 10
5.9914890000000014
 20
17.359768000000003
 30
0.0
 10
5.3739869999999996
 20
17.359768000000006
 30
0.0
  0
LWPOLYLINE
  5
11F
  8
Layer_1
 62
1
420
16711680
370
-1
  6
ByLayer
100
AcDbEntity
100
AcDbPolyline
 90
3
 70
0
 10
5.3341939999999965
 20
14.412803999999994
 10
5.3341939999999965
 20
15.118923999999993
 10
5.3739869999999996
 20
15.118923999999993
  0
SPLINE
  5
120
  8
Layer_1
 62
1
420
16711680
370
-1
  6
ByLayer
100
AcDbEntity
100
AcDbSpline
 70
8
 71
3
 72
8
 73
4
 74
0
 40
0.0
 40
0.0
 40
0.0
 40
0.0
 40
1.0
 40
1.0
 40
1.0
 40
1.0
 10
5.3341939999999965
 20
18.066170999999997
 30
0.0
 10
5.3341939999999965
 20
18.845950999999999
 30
0.0
 10
5.9680650000000028
 20
19.480385999999996
 30
0.0
 10
6.7475629999999995
 20
19.480385999999996
 30
0.0
  0
LWPOLYLINE
  5
121
  8
Layer_1
 62
1
420
16711680
370
-1
  6
ByLayer
100
AcDbEntity
100
AcDbPolyline
 90
3
 70
0
 10
5.3739869999999996
 20
17.359768000000006
 10
5.3341939999999965
 20
17.359768000000003
 10
5.3341939999999965
 20
18.066170999999997
  0
SPLINE
  5
122
  8
Layer_1
 62
1
420
16711680
370
-1
  6
ByLayer
100
AcDbEntity
100
AcDbSpline
 70
8
 71
3
 72
8
 73
4
 74
0
 40
0.0
 40
0.0
 40
0.0
 40
0.0
 40
1.0
 40
1.0
 40
1.0
 40
1.0
 10
12.0
 20
19.480385999999996
 30
0.0
 10
12.779216000000005
 20
19.480385999999996
 30
0.0
 10
13.413651999999999
 20
18.845950999999999
 30
0.0
 10
13.413651999999999
 20
18.066170999999997
 30
0.0
  0
LWPOLYLINE
  5
123
  8
Layer_1
 62
1
420
16711680
370
-1
  6
ByLayer
100
AcDbEntity
100
AcDbPolyline
 90
2
 70
0
 10
6.7475629999999995
 20
19.480385999999996
 10
12.0
 20
19.480385999999996
  0
SPLINE
  5
124
  8
Layer_1
 62
1
420
16711680
370
-1
  6
ByLayer
100
AcDbEntity
100
AcDbSpline
 70
8
 71
3
 72
8
 73
4
 74
0
 40
0.0
 40
0.0
 40
0.0
 40
0.0
 40
1.0
 40
1.0
 40
1.0
 40
1.0
 10
9.3736400000000017
 20
15.239997000000002
 30
0.0
 10
8.8216139999999967
 20
15.239997000000002
 30
0.0
 10
8.3737270000000024
 20
15.68732
 30
0.0
 10
8.3737270000000024
 20
16.239910999999992
 30
0.0
  0
SPLINE
  5
125
  8
Layer_1
 62
1
420
16711680
370
-1
  6
ByLayer
100
AcDbEntity
100
AcDbSpline
 70
8
 71
3
 72
8
 73
4
 74
0
 40
0.0
 40
0.0
 40
0.0
 40
0.0
 40
1.0
 40
1.0
 40
1.0
 40
1.0
 10
8.3737270000000024
 20
16.239910999999992
 30
0.0
 10
8.3737270000000024
 20
16.791654999999999
 30
0.0
 10
8.8216139999999967
 20
17.239542
 30
0.0
 10
9.3736400000000017
 20
17.239542
 30
0.0
  0
SPLINE
  5
126
  8
Layer_1
 62
1
420
16711680
370
-1
  6
ByLayer
100
AcDbEntity
100
AcDbSpline
 70
8
 71
3
 72
8
 73
4
 74
0
 40
0.0
 40
0.0
 40
0.0
 40
0.0
 40
1.0
 40
1.0
 40
1.0
 40
1.0
 10
9.3736400000000017
 20
17.239542
 30
0.0
 10
9.9259490000000028
 20
17.239542
 30
0.0
 10
10.373835999999997
 20
16.791654999999999
 30
0.0
 10
10.373835999999997
 20
16.239910999999992
 30
0.0
  0
SPLINE
  5
127
  8
Layer_1
 62
1
420
16711680
370
-1
  6
ByLayer
100
AcDbEntity
100
AcDbSpline
 70
8
 71
3
 72
8
 73
4
 74
0
 40
0.0
 40
0.0
 40
0.0
 40
0.0
 40
1.0
 40
1.0
 40
1.0
 40
1.0
 10
10.373835999999997
 20
16.239910999999992
 30
0.0
 10
10.373835999999997
 20
15.68732
 30
0.0
 10
9.9259490000000028
 20
15.239997000000002
 30
0.0
 10
9.3736400000000017
 20
15.239997000000002
 30
0.0
  0
LWPOLYLINE
  5
128
  8
Layer_1
 62
1
420
16711680
370
-1
  6
ByLayer
100
AcDbEntity
100
AcDbPolyline
 90
2
 70
0
 10
13.413651999999999
 20
18.066170999999997
 10
13.413651999999999
 20
18.066170999999997
  0
LWPOLYLINE
  5
129
  8
Layer_1
 62
1
420
16711680
370
-1
  6
ByLayer
100
AcDbEntity
100
AcDbPolyline
 90
2
 70
0
 10
9.3736400000000017
 20
15.239997000000002
 10
9.3736400000000017
 20
15.239997000000002
  0
SPLINE
  5
12A
  8
Layer_1
 62
1
420
16711680
370
-1
  6
ByLayer
100
AcDbEntity
100
AcDbSpline
 70
8
 71
3
 72
8
 73
4
 74
0
 40
0.0
 40
0.0
 40
0.0
 40
0.0
 40
1.0
 40
1.0
 40
1.0
 40
1.0
 10
33.806159999999998
 20
27.666371999999999
 30
0.0
 10
33.806159999999998
 20
28.445868999999998
 30
0.0
 10
34.440594999999995
 20
29.079740000000001
 30
0.0
 10
35.219529000000001
 20
29.079740000000001
 30
0.0
  0
SPLINE
  5
12B
  8
Layer_1
 62
1
420
16711680
370
-1
  6
ByLayer
100
AcDbEntity
100
AcDbSpline
 70
8
 71
3
 72
8
 73
4
 74
0
 40
0.0
 40
0.0
 40
0.0
 40
0.0
 40
1.0
 40
1.0
 40
1.0
 40
1.0
 10
35.926212999999997
 20
29.039946999999998
 30
0.0
 10
35.926212999999997
 20
28.422444999999996
 30
0.0
 10
36.428286
 20
27.920088999999997
 30
0.0
 10
37.046634999999995
 20
27.920088999999997
 30
0.0
  0
SPLINE
  5
12C
  8
Layer_1
 62
1
420
16711680
370
-1
  6
ByLayer
100
AcDbEntity
100
AcDbSpline
 70
8
 71
3
 72
8
 73
4
 74
0
 40
0.0
 40
0.0
 40
0.0
 40
0.0
 40
1.0
 40
1.0
 40
1.0
 40
1.0
 10
37.046634999999995
 20
27.920088999999997
 30
0.0
 10
37.663854999999998
 20
27.920088999999997
 30
0.0
 10
38.166492999999996
 20
28.422444999999996
 30
0.0
 10
38.166492999999996
 20
29.039946999999998
 30
0.0
  0
LWPOLYLINE
  5
12D
  8
Layer_1
 62
1
420
16711680
370
-1
  6
ByLayer
100
AcDbEntity
100
AcDbPolyline
 90
3
 70
0
 10
35.219529000000001
 20
29.079740000000001
 10
35.926212999999997
 20
29.079740000000001
 10
35.926212999999997
 20
29.039946999999998
  0
SPLINE
  5
12E
  8
Layer_1
 62
1
420
16711680
370
-1
  6
ByLayer
100
AcDbEntity
100
AcDbSpline
 70
8
 71
3
 72
8
 73
4
 74
0
 40
0.0
 40
0.0
 40
0.0
 40
0.0
 40
1.0
 40
1.0
 40
1.0
 40
1.0
 10
38.873176999999998
 20
29.079740000000001
 30
0.0
 10
39.652110999999998
 20
29.079740000000001
 30
0.0
 10
40.285981999999997
 20
28.445868999999998
 30
0.0
 10
40.285981999999997
 20
27.666371999999999
 30
0.0
  0
LWPOLYLINE
  5
12F
  8
Layer_1
 62
1
420
16711680
370
-1
  6
ByLayer
100
AcDbEntity
100
AcDbPolyline
 90
3
 70
0
 10
38.166492999999996
 20
29.039946999999998
 10
38.166492999999996
 20
29.079740000000001
 10
38.873176999999998
 20
29.079740000000001
  0
SPLINE
  5
130
  8
Layer_1
 62
1
420
16711680
370
-1
  6
ByLayer
100
AcDbEntity
100
AcDbSpline
 70
8
 71
3
 72
8
 73
4
 74
0
 40
0.0
 40
0.0
 40
0.0
 40
0.0
 40
1.0
 40
1.0
 40
1.0
 40
1.0
 10
40.285981999999997
 20
22.413933999999998
 30
0.0
 10
40.285981999999997
 20
21.634717999999999
 30
0.0
 10
39.652110999999998
 20
21.000283
 30
0.0
 10
38.873176999999998
 20
21.000283
 30
0.0
  0
LWPOLYLINE
  5
131
  8
Layer_1
 62
1
420
16711680
370
-1
  6
ByLayer
100
AcDbEntity
100
AcDbPolyline
 90
2
 70
0
 10
40.285981999999997
 20
27.666371999999999
 10
40.285981999999997
 20
22.413933999999998
  0
SPLINE
  5
132
  8
Layer_1
 62
1
420
16711680
370
-1
  6
ByLayer
100
AcDbEntity
100
AcDbSpline
 70
8
 71
3
 72
8
 73
4
 74
0
 40
0.0
 40
0.0
 40
0.0
 40
0.0
 40
1.0
 40
1.0
 40
1.0
 40
1.0
 10
38.166492999999996
 20
21.040075999999999
 30
0.0
 10
38.166492999999996
 20
21.657859999999999
 30
0.0
 10
37.663854999999998
 20
22.160215999999998
 30
0.0
 10
37.046634999999995
 20
22.160215999999998
 30
0.0
  0
SPLINE
  5
133
  8
Layer_1
 62
1
420
16711680
370
-1
  6
ByLayer
100
AcDbEntity
100
AcDbSpline
 70
8
 71
3
 72
8
 73
4
 74
0
 40
0.0
 40
0.0
 40
0.0
 40
0.0
 40
1.0
 40
1.0
 40
1.0
 40
1.0
 10
37.046634999999995
 20
22.160215999999998
 30
0.0
 10
36.428568999999996
 20
22.160215999999998
 30
0.0
 10
35.926212999999997
 20
21.658142999999999
 30
0.0
 10
35.926212999999997
 20
21.040075999999999
 30
0.0
  0
LWPOLYLINE
  5
134
  8
Layer_1
 62
1
420
16711680
370
-1
  6
ByLayer
100
AcDbEntity
100
AcDbPolyline
 90
3
 70
0
 10
38.873176999999998
 20
21.000283
 10
38.166492999999996
 20
21.000283
 10
38.166492999999996
 20
21.040075999999999
  0
SPLINE
  5
135
  8
Layer_1
 62
1
420
16711680
370
-1
  6
ByLayer
100
AcDbEntity
100
AcDbSpline
 70
8
 71
3
 72
8
 73
4
 74
0
 40
0.0
 40
0.0
 40
0.0
 40
0.0
 40
1.0
 40
1.0
 40
1.0
 40
1.0
 10
35.219529000000001
 20
21.000283
 30
0.0
 10
34.440594999999995
 20
21.000283
 30
0.0
 10
33.806159999999998
 20
21.634717999999999
 30
0.0
 10
33.806159999999998
 20
22.413933999999998
 30
0.0
  0
SPLINE
  5
136
  8
Layer_1
 62
1
420
16711680
370
-1
  6
ByLayer
100
AcDbEntity
100
AcDbSpline
 70
8
 71
3
 72
8
 73
4
 74
0
 40
0.0
 40
0.0
 40
0.0
 40
0.0
 40
1.0
 40
1.0
 40
1.0
 40
1.0
 10
36.046439999999997
 20
25.040011999999997
 30
0.0
 10
36.046439999999997
 20
25.592037999999999
 30
0.0
 10
36.493761999999997
 20
26.039924999999997
 30
0.0
 10
37.046352999999996
 20
26.039924999999997
 30
0.0
  0
SPLINE
  5
137
  8
Layer_1
 62
1
420
16711680
370
-1
  6
ByLayer
100
AcDbEntity
100
AcDbSpline
 70
8
 71
3
 72
8
 73
4
 74
0
 40
0.0
 40
0.0
 40
0.0
 40
0.0
 40
1.0
 40
1.0
 40
1.0
 40
1.0
 10
37.046352999999996
 20
26.039924999999997
 30
0.0
 10
37.598096999999996
 20
26.039924999999997
 30
0.0
 10
38.045983999999997
 20
25.592037999999999
 30
0.0
 10
38.045983999999997
 20
25.040011999999997
 30
0.0
  0
SPLINE
  5
138
  8
Layer_1
 62
1
420
16711680
370
-1
  6
ByLayer
100
AcDbEntity
100
AcDbSpline
 70
8
 71
3
 72
8
 73
4
 74
0
 40
0.0
 40
0.0
 40
0.0
 40
0.0
 40
1.0
 40
1.0
 40
1.0
 40
1.0
 10
38.045983999999997
 20
25.040011999999997
 30
0.0
 10
38.045983999999997
 20
24.487703
 30
0.0
 10
37.598096999999996
 20
24.039815999999998
 30
0.0
 10
37.046352999999996
 20
24.039815999999998
 30
0.0
  0
SPLINE
  5
139
  8
Layer_1
 62
1
420
16711680
370
-1
  6
ByLayer
100
AcDbEntity
100
AcDbSpline
 70
8
 71
3
 72
8
 73
4
 74
0
 40
0.0
 40
0.0
 40
0.0
 40
0.0
 40
1.0
 40
1.0
 40
1.0
 40
1.0
 10
37.046352999999996
 20
24.039815999999998
 30
0.0
 10
36.493761999999997
 20
24.039815999999998
 30
0.0
 10
36.046439999999997
 20
24.487703
 30
0.0
 10
36.046439999999997
 20
25.040011999999997
 30
0.0
  0
LWPOLYLINE
  5
13A
  8
Layer_1
 62
1
420
16711680
370
-1
  6
ByLayer
100
AcDbEntity
100
AcDbPolyline
 90
3
 70
0
 10
35.926212999999997
 20
21.040075999999999
 10
35.926212999999997
 20
21.000283
 10
35.219529000000001
 20
21.000283
  0
SPLINE
  5
13B
  8
Layer_1
 62
1
420
16711680
370
-1
  6
ByLayer
100
AcDbEntity
100
AcDbSpline
 70
8
 71
3
 72
8
 73
4
 74
0
 40
0.0
 40
0.0
 40
0.0
 40
0.0
 40
1.0
 40
1.0
 40
1.0
 40
1.0
 10
27.326054999999997
 20
27.666371999999999
 30
0.0
 10
27.326054999999997
 20
28.445868999999998
 30
0.0
 10
27.960490999999998
 20
29.079740000000001
 30
0.0
 10
28.739424
 20
29.079740000000001
 30
0.0
  0
LWPOLYLINE
  5
13C
  8
Layer_1
 62
1
420
16711680
370
-1
  6
ByLayer
100
AcDbEntity
100
AcDbPolyline
 90
2
 70
0
 10
36.046439999999997
 20
25.040011999999997
 10
36.046439999999997
 20
25.040011999999997
  0
SPLINE
  5
13D
  8
Layer_1
 62
1
420
16711680
370
-1
  6
ByLayer
100
AcDbEntity
100
AcDbSpline
 70
8
 71
3
 72
8
 73
4
 74
0
 40
0.0
 40
0.0
 40
0.0
 40
0.0
 40
1.0
 40
1.0
 40
1.0
 40
1.0
 10
29.446109
 20
29.039946999999998
 30
0.0
 10
29.446109
 20
28.422444999999996
 30
0.0
 10
29.948746
 20
27.920088999999997
 30
0.0
 10
30.566530999999998
 20
27.920088999999997
 30
0.0
  0
SPLINE
  5
13E
  8
Layer_1
 62
1
420
16711680
370
-1
  6
ByLayer
100
AcDbEntity
100
AcDbSpline
 70
8
 71
3
 72
8
 73
4
 74
0
 40
0.0
 40
0.0
 40
0.0
 40
0.0
 40
1.0
 40
1.0
 40
1.0
 40
1.0
 10
30.566530999999998
 20
27.920088999999997
 30
0.0
 10
31.183751000000001
 20
27.920088999999997
 30
0.0
 10
31.686388999999998
 20
28.422444999999996
 30
0.0
 10
31.686388999999998
 20
29.039946999999998
 30
0.0
  0
LWPOLYLINE
  5
13F
  8
Layer_1
 62
1
420
16711680
370
-1
  6
ByLayer
100
AcDbEntity
100
AcDbPolyline
 90
3
 70
0
 10
28.739424
 20
29.079740000000001
 10
29.446109
 20
29.079740000000001
 10
29.446109
 20
29.039946999999998
  0
SPLINE
  5
140
  8
Layer_1
 62
1
420
16711680
370
-1
  6
ByLayer
100
AcDbEntity
100
AcDbSpline
 70
8
 71
3
 72
8
 73
4
 74
0
 40
0.0
 40
0.0
 40
0.0
 40
0.0
 40
1.0
 40
1.0
 40
1.0
 40
1.0
 10
32.393073000000001
 20
29.079740000000001
 30
0.0
 10
33.172005999999996
 20
29.079740000000001
 30
0.0
 10
33.806441999999997
 20
28.445868999999998
 30
0.0
 10
33.806441999999997
 20
27.666371999999999
 30
0.0
  0
LWPOLYLINE
  5
141
  8
Layer_1
 62
1
420
16711680
370
-1
  6
ByLayer
100
AcDbEntity
100
AcDbPolyline
 90
3
 70
0
 10
31.686388999999998
 20
29.039946999999998
 10
31.686388999999998
 20
29.079740000000001
 10
32.393073000000001
 20
29.079740000000001
  0
SPLINE
  5
142
  8
Layer_1
 62
1
420
16711680
370
-1
  6
ByLayer
100
AcDbEntity
100
AcDbSpline
 70
8
 71
3
 72
8
 73
4
 74
0
 40
0.0
 40
0.0
 40
0.0
 40
0.0
 40
1.0
 40
1.0
 40
1.0
 40
1.0
 10
33.806441999999997
 20
22.413933999999998
 30
0.0
 10
33.806441999999997
 20
21.634717999999999
 30
0.0
 10
33.172005999999996
 20
21.000283
 30
0.0
 10
32.393073000000001
 20
21.000283
 30
0.0
  0
LWPOLYLINE
  5
143
  8
Layer_1
 62
1
420
16711680
370
-1
  6
ByLayer
100
AcDbEntity
100
AcDbPolyline
 90
2
 70
0
 10
33.806441999999997
 20
27.666371999999999
 10
33.806441999999997
 20
22.413933999999998
  0
SPLINE
  5
144
  8
Layer_1
 62
1
420
16711680
370
-1
  6
ByLayer
100
AcDbEntity
100
AcDbSpline
 70
8
 71
3
 72
8
 73
4
 74
0
 40
0.0
 40
0.0
 40
0.0
 40
0.0
 40
1.0
 40
1.0
 40
1.0
 40
1.0
 10
31.686388999999998
 20
21.040075999999999
 30
0.0
 10
31.686388999999998
 20
21.657859999999999
 30
0.0
 10
31.183751000000001
 20
22.160215999999998
 30
0.0
 10
30.566530999999998
 20
22.160215999999998
 30
0.0
  0
SPLINE
  5
145
  8
Layer_1
 62
1
420
16711680
370
-1
  6
ByLayer
100
AcDbEntity
100
AcDbSpline
 70
8
 71
3
 72
8
 73
4
 74
0
 40
0.0
 40
0.0
 40
0.0
 40
0.0
 40
1.0
 40
1.0
 40
1.0
 40
1.0
 10
30.566530999999998
 20
22.160215999999998
 30
0.0
 10
29.949029000000003
 20
22.160215999999998
 30
0.0
 10
29.446109
 20
21.658142999999999
 30
0.0
 10
29.446109
 20
21.040075999999999
 30
0.0
  0
LWPOLYLINE
  5
146
  8
Layer_1
 62
1
420
16711680
370
-1
  6
ByLayer
100
AcDbEntity
100
AcDbPolyline
 90
3
 70
0
 10
32.393073000000001
 20
21.000283
 10
31.686388999999998
 20
21.000283
 10
31.686388999999998
 20
21.040075999999999
  0
SPLINE
  5
147
  8
Layer_1
 62
1
420
16711680
370
-1
  6
ByLayer
100
AcDbEntity
100
AcDbSpline
 70
8
 71
3
 72
8
 73
4
 74
0
 40
0.0
 40
0.0
 40
0.0
 40
0.0
 40
1.0
 40
1.0
 40
1.0
 40
1.0
 10
28.739424
 20
21.000283
 30
0.0
 10
27.960490999999998
 20
21.000283
 30
0.0
 10
27.326054999999997
 20
21.634717999999999
 30
0.0
 10
27.326054999999997
 20
22.413933999999998
 30
0.0
  0
SPLINE
  5
148
  8
Layer_1
 62
1
420
16711680
370
-1
  6
ByLayer
100
AcDbEntity
100
AcDbSpline
 70
8
 71
3
 72
8
 73
4
 74
0
 40
0.0
 40
0.0
 40
0.0
 40
0.0
 40
1.0
 40
1.0
 40
1.0
 40
1.0
 10
29.566335000000002
 20
25.040011999999997
 30
0.0
 10
29.566335000000002
 20
25.592037999999999
 30
0.0
 10
30.013374999999996
 20
26.039924999999997
 30
0.0
 10
30.566248999999999
 20
26.039924999999997
 30
0.0
  0
SPLINE
  5
149
  8
Layer_1
 62
1
420
16711680
370
-1
  6
ByLayer
100
AcDbEntity
100
AcDbSpline
 70
8
 71
3
 72
8
 73
4
 74
0
 40
0.0
 40
0.0
 40
0.0
 40
0.0
 40
1.0
 40
1.0
 40
1.0
 40
1.0
 10
30.566248999999999
 20
26.039924999999997
 30
0.0
 10
31.117992999999998
 20
26.039924999999997
 30
0.0
 10
31.565596999999997
 20
25.592037999999999
 30
0.0
 10
31.565596999999997
 20
25.040011999999997
 30
0.0
  0
SPLINE
  5
14A
  8
Layer_1
 62
1
420
16711680
370
-1
  6
ByLayer
100
AcDbEntity
100
AcDbSpline
 70
8
 71
3
 72
8
 73
4
 74
0
 40
0.0
 40
0.0
 40
0.0
 40
0.0
 40
1.0
 40
1.0
 40
1.0
 40
1.0
 10
31.565596999999997
 20
25.040011999999997
 30
0.0
 10
31.565596999999997
 20
24.487703
 30
0.0
 10
31.117992999999998
 20
24.039815999999998
 30
0.0
 10
30.566248999999999
 20
24.039815999999998
 30
0.0
  0
SPLINE
  5
14B
  8
Layer_1
 62
1
420
16711680
370
-1
  6
ByLayer
100
AcDbEntity
100
AcDbSpline
 70
8
 71
3
 72
8
 73
4
 74
0
 40
0.0
 40
0.0
 40
0.0
 40
0.0
 40
1.0
 40
1.0
 40
1.0
 40
1.0
 10
30.566248999999999
 20
24.039815999999998
 30
0.0
 10
30.013374999999996
 20
24.039815999999998
 30
0.0
 10
29.566335000000002
 20
24.487703
 30
0.0
 10
29.566335000000002
 20
25.040011999999997
 30
0.0
  0
LWPOLYLINE
  5
14C
  8
Layer_1
 62
1
420
16711680
370
-1
  6
ByLayer
100
AcDbEntity
100
AcDbPolyline
 90
3
 70
0
 10
29.446109
 20
21.040075999999999
 10
29.446109
 20
21.000283
 10
28.739424
 20
21.000283
  0
SPLINE
  5
14D
  8
Layer_1
 62
1
420
16711680
370
-1
  6
ByLayer
100
AcDbEntity
100
AcDbSpline
 70
8
 71
3
 72
8
 73
4
 74
0
 40
0.0
 40
0.0
 40
0.0
 40
0.0
 40
1.0
 40
1.0
 40
1.0
 40
1.0
 10
20.846514999999997
 20
27.666371999999999
 30
0.0
 10
20.846514999999997
 20
28.445868999999998
 30
0.0
 10
21.480386000000003
 20
29.079740000000001
 30
0.0
 10
22.259320000000002
 20
29.079740000000001
 30
0.0
  0
LWPOLYLINE
  5
14E
  8
Layer_1
 62
1
420
16711680
370
-1
  6
ByLayer
100
AcDbEntity
100
AcDbPolyline
 90
2
 70
0
 10
29.566335000000002
 20
25.040011999999997
 10
29.566335000000002
 20
25.040011999999997
  0
SPLINE
  5
14F
  8
Layer_1
 62
1
420
16711680
370
-1
  6
ByLayer
100
AcDbEntity
100
AcDbSpline
 70
8
 71
3
 72
8
 73
4
 74
0
 40
0.0
 40
0.0
 40
0.0
 40
0.0
 40
1.0
 40
1.0
 40
1.0
 40
1.0
 10
22.966003999999998
 20
29.039946999999998
 30
0.0
 10
22.966003999999998
 20
28.422444999999996
 30
0.0
 10
23.468642000000003
 20
27.920088999999997
 30
0.0
 10
24.086426000000003
 20
27.920088999999997
 30
0.0
  0
SPLINE
  5
150
  8
Layer_1
 62
1
420
16711680
370
-1
  6
ByLayer
100
AcDbEntity
100
AcDbSpline
 70
8
 71
3
 72
8
 73
4
 74
0
 40
0.0
 40
0.0
 40
0.0
 40
0.0
 40
1.0
 40
1.0
 40
1.0
 40
1.0
 10
24.086426000000003
 20
27.920088999999997
 30
0.0
 10
24.704211000000001
 20
27.920088999999997
 30
0.0
 10
25.206001999999998
 20
28.422444999999996
 30
0.0
 10
25.206001999999998
 20
29.039946999999998
 30
0.0
  0
LWPOLYLINE
  5
151
  8
Layer_1
 62
1
420
16711680
370
-1
  6
ByLayer
100
AcDbEntity
100
AcDbPolyline
 90
3
 70
0
 10
22.259320000000002
 20
29.079740000000001
 10
22.966003999999998
 20
29.079740000000001
 10
22.966003999999998
 20
29.039946999999998
  0
SPLINE
  5
152
  8
Layer_1
 62
1
420
16711680
370
-1
  6
ByLayer
100
AcDbEntity
100
AcDbSpline
 70
8
 71
3
 72
8
 73
4
 74
0
 40
0.0
 40
0.0
 40
0.0
 40
0.0
 40
1.0
 40
1.0
 40
1.0
 40
1.0
 10
25.912968999999997
 20
29.079740000000001
 30
0.0
 10
26.691901999999999
 20
29.079740000000001
 30
0.0
 10
27.326337000000002
 20
28.445868999999998
 30
0.0
 10
27.326337000000002
 20
27.666371999999999
 30
0.0
  0
LWPOLYLINE
  5
153
  8
Layer_1
 62
1
420
16711680
370
-1
  6
ByLayer
100
AcDbEntity
100
AcDbPolyline
 90
3
 70
0
 10
25.206001999999998
 20
29.039946999999998
 10
25.206001999999998
 20
29.079740000000001
 10
25.912968999999997
 20
29.079740000000001
  0
SPLINE
  5
154
  8
Layer_1
 62
1
420
16711680
370
-1
  6
ByLayer
100
AcDbEntity
100
AcDbSpline
 70
8
 71
3
 72
8
 73
4
 74
0
 40
0.0
 40
0.0
 40
0.0
 40
0.0
 40
1.0
 40
1.0
 40
1.0
 40
1.0
 10
27.326337000000002
 20
22.413933999999998
 30
0.0
 10
27.326337000000002
 20
21.634717999999999
 30
0.0
 10
26.691901999999999
 20
21.000283
 30
0.0
 10
25.912968999999997
 20
21.000283
 30
0.0
  0
LWPOLYLINE
  5
155
  8
Layer_1
 62
1
420
16711680
370
-1
  6
ByLayer
100
AcDbEntity
100
AcDbPolyline
 90
2
 70
0
 10
27.326337000000002
 20
27.666371999999999
 10
27.326337000000002
 20
22.413933999999998
  0
SPLINE
  5
156
  8
Layer_1
 62
1
420
16711680
370
-1
  6
ByLayer
100
AcDbEntity
100
AcDbSpline
 70
8
 71
3
 72
8
 73
4
 74
0
 40
0.0
 40
0.0
 40
0.0
 40
0.0
 40
1.0
 40
1.0
 40
1.0
 40
1.0
 10
25.206001999999998
 20
21.040075999999999
 30
0.0
 10
25.206001999999998
 20
21.657859999999999
 30
0.0
 10
24.704211000000001
 20
22.160215999999998
 30
0.0
 10
24.086426000000003
 20
22.160215999999998
 30
0.0
  0
SPLINE
  5
157
  8
Layer_1
 62
1
420
16711680
370
-1
  6
ByLayer
100
AcDbEntity
100
AcDbSpline
 70
8
 71
3
 72
8
 73
4
 74
0
 40
0.0
 40
0.0
 40
0.0
 40
0.0
 40
1.0
 40
1.0
 40
1.0
 40
1.0
 10
24.086426000000003
 20
22.160215999999998
 30
0.0
 10
23.468642000000003
 20
22.160215999999998
 30
0.0
 10
22.966003999999998
 20
21.658142999999999
 30
0.0
 10
22.966003999999998
 20
21.040075999999999
 30
0.0
  0
LWPOLYLINE
  5
158
  8
Layer_1
 62
1
420
16711680
370
-1
  6
ByLayer
100
AcDbEntity
100
AcDbPolyline
 90
3
 70
0
 10
25.912968999999997
 20
21.000283
 10
25.206001999999998
 20
21.000283
 10
25.206001999999998
 20
21.040075999999999
  0
SPLINE
  5
159
  8
Layer_1
 62
1
420
16711680
370
-1
  6
ByLayer
100
AcDbEntity
100
AcDbSpline
 70
8
 71
3
 72
8
 73
4
 74
0
 40
0.0
 40
0.0
 40
0.0
 40
0.0
 40
1.0
 40
1.0
 40
1.0
 40
1.0
 10
22.259320000000002
 20
21.000283
 30
0.0
 10
21.480386000000003
 20
21.000283
 30
0.0
 10
20.846514999999997
 20
21.634717999999999
 30
0.0
 10
20.846514999999997
 20
22.413933999999998
 30
0.0
  0
SPLINE
  5
15A
  8
Layer_1
 62
1
420
16711680
370
-1
  6
ByLayer
100
AcDbEntity
100
AcDbSpline
 70
8
 71
3
 72
8
 73
4
 74
0
 40
0.0
 40
0.0
 40
0.0
 40
0.0
 40
1.0
 40
1.0
 40
1.0
 40
1.0
 10
23.086230999999998
 20
25.040011999999997
 30
0.0
 10
23.086230999999998
 20
25.592037999999999
 30
0.0
 10
23.533552999999998
 20
26.039924999999997
 30
0.0
 10
24.086143999999997
 20
26.039924999999997
 30
0.0
  0
SPLINE
  5
15B
  8
Layer_1
 62
1
420
16711680
370
-1
  6
ByLayer
100
AcDbEntity
100
AcDbSpline
 70
8
 71
3
 72
8
 73
4
 74
0
 40
0.0
 40
0.0
 40
0.0
 40
0.0
 40
1.0
 40
1.0
 40
1.0
 40
1.0
 10
24.086143999999997
 20
26.039924999999997
 30
0.0
 10
24.637889000000001
 20
26.039924999999997
 30
0.0
 10
25.085774999999998
 20
25.592037999999999
 30
0.0
 10
25.085774999999998
 20
25.040011999999997
 30
0.0
  0
SPLINE
  5
15C
  8
Layer_1
 62
1
420
16711680
370
-1
  6
ByLayer
100
AcDbEntity
100
AcDbSpline
 70
8
 71
3
 72
8
 73
4
 74
0
 40
0.0
 40
0.0
 40
0.0
 40
0.0
 40
1.0
 40
1.0
 40
1.0
 40
1.0
 10
25.085774999999998
 20
25.040011999999997
 30
0.0
 10
25.085774999999998
 20
24.487703
 30
0.0
 10
24.637889000000001
 20
24.039815999999998
 30
0.0
 10
24.086143999999997
 20
24.039815999999998
 30
0.0
  0
SPLINE
  5
15D
  8
Layer_1
 62
1
420
16711680
370
-1
  6
ByLayer
100
AcDbEntity
100
AcDbSpline
 70
8
 71
3
 72
8
 73
4
 74
0
 40
0.0
 40
0.0
 40
0.0
 40
0.0
 40
1.0
 40
1.0
 40
1.0
 40
1.0
 10
24.086143999999997
 20
24.039815999999998
 30
0.0
 10
23.533552999999998
 20
24.039815999999998
 30
0.0
 10
23.086230999999998
 20
24.487703
 30
0.0
 10
23.086230999999998
 20
25.040011999999997
 30
0.0
  0
LWPOLYLINE
  5
15E
  8
Layer_1
 62
1
420
16711680
370
-1
  6
ByLayer
100
AcDbEntity
100
AcDbPolyline
 90
3
 70
0
 10
22.966003999999998
 20
21.040075999999999
 10
22.966003999999998
 20
21.000283
 10
22.259320000000002
 20
21.000283
  0
LWPOLYLINE
  5
15F
  8
Layer_1
 62
1
420
16711680
370
-1
  6
ByLayer
100
AcDbEntity
100
AcDbPolyline
 90
2
 70
0
 10
23.086230999999998
 20
25.040011999999997
 10
23.086230999999998
 20
25.040011999999997
  0
SPLINE
  5
160
  8
Layer_1
 62
1
420
16711680
370
-1
  6
ByLayer
100
AcDbEntity
100
AcDbSpline
 70
8
 71
3
 72
8
 73
4
 74
0
 40
0.0
 40
0.0
 40
0.0
 40
0.0
 40
1.0
 40
1.0
 40
1.0
 40
1.0
 10
18.725897000000003
 20
21.039794000000001
 30
0.0
 10
18.725897000000003
 20
21.657577999999997
 30
0.0
 10
18.223824
 20
22.159934
 30
0.0
 10
17.60604
 20
22.159934
 30
0.0
  0
SPLINE
  5
161
  8
Layer_1
 62
1
420
16711680
370
-1
  6
ByLayer
100
AcDbEntity
100
AcDbSpline
 70
8
 71
3
 72
8
 73
4
 74
0
 40
0.0
 40
0.0
 40
0.0
 40
0.0
 40
1.0
 40
1.0
 40
1.0
 40
1.0
 10
17.60604
 20
22.159934
 30
0.0
 10
16.988819999999997
 20
22.159934
 30
0.0
 10
16.485053000000001
 20
21.657859999999999
 30
0.0
 10
16.485053000000001
 20
21.039794000000001
 30
0.0
  0
LWPOLYLINE
  5
162
  8
Layer_1
 62
1
420
16711680
370
-1
  6
ByLayer
100
AcDbEntity
100
AcDbPolyline
 90
3
 70
0
 10
19.432299999999998
 20
21.0
 10
18.725897000000003
 20
21.0
 10
18.725897000000003
 20
21.039794000000001
  0
SPLINE
  5
163
  8
Layer_1
 62
1
420
16711680
370
-1
  6
ByLayer
100
AcDbEntity
100
AcDbSpline
 70
8
 71
3
 72
8
 73
4
 74
0
 40
0.0
 40
0.0
 40
0.0
 40
0.0
 40
1.0
 40
1.0
 40
1.0
 40
1.0
 10
15.778933
 20
21.0
 30
0.0
 10
15.0
 20
21.0
 30
0.0
 10
14.366128999999999
 20
21.634435999999997
 30
0.0
 10
14.366128999999999
 20
22.413651999999999
 30
0.0
  0
LWPOLYLINE
  5
164
  8
Layer_1
 62
1
420
16711680
370
-1
  6
ByLayer
100
AcDbEntity
100
AcDbPolyline
 90
3
 70
0
 10
16.485053000000001
 20
21.039794000000001
 10
16.485053000000001
 20
21.0
 10
15.778933
 20
21.0
  0
SPLINE
  5
165
  8
Layer_1
 62
1
420
16711680
370
-1
  6
ByLayer
100
AcDbEntity
100
AcDbSpline
 70
8
 71
3
 72
8
 73
4
 74
0
 40
0.0
 40
0.0
 40
0.0
 40
0.0
 40
1.0
 40
1.0
 40
1.0
 40
1.0
 10
14.366128999999999
 20
27.666088999999999
 30
0.0
 10
14.366128999999999
 20
28.445586999999996
 30
0.0
 10
15.0
 20
29.079457999999999
 30
0.0
 10
15.778933
 20
29.079457999999999
 30
0.0
  0
LWPOLYLINE
  5
166
  8
Layer_1
 62
1
420
16711680
370
-1
  6
ByLayer
100
AcDbEntity
100
AcDbPolyline
 90
2
 70
0
 10
14.366128999999999
 20
22.413651999999999
 10
14.366128999999999
 20
27.666088999999999
  0
SPLINE
  5
167
  8
Layer_1
 62
1
420
16711680
370
-1
  6
ByLayer
100
AcDbEntity
100
AcDbSpline
 70
8
 71
3
 72
8
 73
4
 74
0
 40
0.0
 40
0.0
 40
0.0
 40
0.0
 40
1.0
 40
1.0
 40
1.0
 40
1.0
 10
16.485053000000001
 20
29.039664999999999
 30
0.0
 10
16.485053000000001
 20
28.422162999999998
 30
0.0
 10
16.988819999999997
 20
27.919806999999999
 30
0.0
 10
17.60604
 20
27.919806999999999
 30
0.0
  0
SPLINE
  5
168
  8
Layer_1
 62
1
420
16711680
370
-1
  6
ByLayer
100
AcDbEntity
100
AcDbSpline
 70
8
 71
3
 72
8
 73
4
 74
0
 40
0.0
 40
0.0
 40
0.0
 40
0.0
 40
1.0
 40
1.0
 40
1.0
 40
1.0
 10
17.60604
 20
27.919806999999999
 30
0.0
 10
18.223542000000002
 20
27.919806999999999
 30
0.0
 10
18.725897000000003
 20
28.422162999999998
 30
0.0
 10
18.725897000000003
 20
29.039664999999999
 30
0.0
  0
LWPOLYLINE
  5
169
  8
Layer_1
 62
1
420
16711680
370
-1
  6
ByLayer
100
AcDbEntity
100
AcDbPolyline
 90
3
 70
0
 10
15.778933
 20
29.079457999999999
 10
16.485053000000001
 20
29.079457999999999
 10
16.485053000000001
 20
29.039664999999999
  0
SPLINE
  5
16A
  8
Layer_1
 62
1
420
16711680
370
-1
  6
ByLayer
100
AcDbEntity
100
AcDbSpline
 70
8
 71
3
 72
8
 73
4
 74
0
 40
0.0
 40
0.0
 40
0.0
 40
0.0
 40
1.0
 40
1.0
 40
1.0
 40
1.0
 10
19.432299999999998
 20
29.079457999999999
 30
0.0
 10
20.21208
 20
29.079457999999999
 30
0.0
 10
20.846514999999997
 20
28.445586999999996
 30
0.0
 10
20.846514999999997
 20
27.666088999999999
 30
0.0
  0
LWPOLYLINE
  5
16B
  8
Layer_1
 62
1
420
16711680
370
-1
  6
ByLayer
100
AcDbEntity
100
AcDbPolyline
 90
3
 70
0
 10
18.725897000000003
 20
29.039664999999999
 10
18.725897000000003
 20
29.079457999999999
 10
19.432299999999998
 20
29.079457999999999
  0
SPLINE
  5
16C
  8
Layer_1
 62
1
420
16711680
370
-1
  6
ByLayer
100
AcDbEntity
100
AcDbSpline
 70
8
 71
3
 72
8
 73
4
 74
0
 40
0.0
 40
0.0
 40
0.0
 40
0.0
 40
1.0
 40
1.0
 40
1.0
 40
1.0
 10
20.846514999999997
 20
22.413651999999999
 30
0.0
 10
20.846514999999997
 20
21.634435999999997
 30
0.0
 10
20.21208
 20
21.0
 30
0.0
 10
19.432299999999998
 20
21.0
 30
0.0
  0
LWPOLYLINE
  5
16D
  8
Layer_1
 62
1
420
16711680
370
-1
  6
ByLayer
100
AcDbEntity
100
AcDbPolyline
 90
2
 70
0
 10
20.846514999999997
 20
27.666088999999999
 10
20.846514999999997
 20
22.413651999999999
  0
SPLINE
  5
16E
  8
Layer_1
 62
1
420
16711680
370
-1
  6
ByLayer
100
AcDbEntity
100
AcDbSpline
 70
8
 71
3
 72
8
 73
4
 74
0
 40
0.0
 40
0.0
 40
0.0
 40
0.0
 40
1.0
 40
1.0
 40
1.0
 40
1.0
 10
16.606126000000003
 20
25.040011999999997
 30
0.0
 10
16.606126000000003
 20
25.592037999999999
 30
0.0
 10
17.053449000000001
 20
26.039924999999997
 30
0.0
 10
17.60604
 20
26.039924999999997
 30
0.0
  0
SPLINE
  5
16F
  8
Layer_1
 62
1
420
16711680
370
-1
  6
ByLayer
100
AcDbEntity
100
AcDbSpline
 70
8
 71
3
 72
8
 73
4
 74
0
 40
0.0
 40
0.0
 40
0.0
 40
0.0
 40
1.0
 40
1.0
 40
1.0
 40
1.0
 10
17.60604
 20
26.039924999999997
 30
0.0
 10
18.157783999999999
 20
26.039924999999997
 30
0.0
 10
18.605671000000001
 20
25.592037999999999
 30
0.0
 10
18.605671000000001
 20
25.040011999999997
 30
0.0
  0
SPLINE
  5
170
  8
Layer_1
 62
1
420
16711680
370
-1
  6
ByLayer
100
AcDbEntity
100
AcDbSpline
 70
8
 71
3
 72
8
 73
4
 74
0
 40
0.0
 40
0.0
 40
0.0
 40
0.0
 40
1.0
 40
1.0
 40
1.0
 40
1.0
 10
18.605671000000001
 20
25.040011999999997
 30
0.0
 10
18.605671000000001
 20
24.487703
 30
0.0
 10
18.157783999999999
 20
24.039815999999998
 30
0.0
 10
17.60604
 20
24.039815999999998
 30
0.0
  0
SPLINE
  5
171
  8
Layer_1
 62
1
420
16711680
370
-1
  6
ByLayer
100
AcDbEntity
100
AcDbSpline
 70
8
 71
3
 72
8
 73
4
 74
0
 40
0.0
 40
0.0
 40
0.0
 40
0.0
 40
1.0
 40
1.0
 40
1.0
 40
1.0
 10
17.60604
 20
24.039815999999998
 30
0.0
 10
17.053449000000001
 20
24.039815999999998
 30
0.0
 10
16.606126000000003
 20
24.487703
 30
0.0
 10
16.606126000000003
 20
25.040011999999997
 30
0.0
  0
LWPOLYLINE
  5
172
  8
Layer_1
 62
1
420
16711680
370
-1
  6
ByLayer
100
AcDbEntity
100
AcDbPolyline
 90
2
 70
0
 10
19.432299999999998
 20
21.0
 10
19.432299999999998
 20
21.0
  0
LWPOLYLINE
  5
173
  8
Layer_1
 62
1
420
16711680
370
-1
  6
ByLayer
100
AcDbEntity
100
AcDbPolyline
 90
2
 70
0
 10
16.606126000000003
 20
25.040011999999997
 10
16.606126000000003
 20
25.040011999999997
  0
SPLINE
  5
174
  8
Layer_1
 62
1
420
16711680
370
-1
  6
ByLayer
100
AcDbEntity
100
AcDbSpline
 70
8
 71
3
 72
8
 73
4
 74
0
 40
0.0
 40
0.0
 40
0.0
 40
0.0
 40
1.0
 40
1.0
 40
1.0
 40
1.0
 10
33.918214999999996
 20
36.767845000000001
 30
0.0
 10
33.918214999999996
 20
37.547342
 30
0.0
 10
34.552649999999993
 20
38.181213
 30
0.0
 10
35.331583999999999
 20
38.181213
 30
0.0
  0
SPLINE
  5
175
  8
Layer_1
 62
1
420
16711680
370
-1
  6
ByLayer
100
AcDbEntity
100
AcDbSpline
 70
8
 71
3
 72
8
 73
4
 74
0
 40
0.0
 40
0.0
 40
0.0
 40
0.0
 40
1.0
 40
1.0
 40
1.0
 40
1.0
 10
36.038267999999995
 20
38.141419999999997
 30
0.0
 10
36.038267999999995
 20
37.523917999999995
 30
0.0
 10
36.540340999999998
 20
37.021562000000003
 30
0.0
 10
37.158689999999993
 20
37.021562000000003
 30
0.0
  0
SPLINE
  5
176
  8
Layer_1
 62
1
420
16711680
370
-1
  6
ByLayer
100
AcDbEntity
100
AcDbSpline
 70
8
 71
3
 72
8
 73
4
 74
0
 40
0.0
 40
0.0
 40
0.0
 40
0.0
 40
1.0
 40
1.0
 40
1.0
 40
1.0
 10
37.158689999999993
 20
37.021562000000003
 30
0.0
 10
37.775909999999996
 20
37.021562000000003
 30
0.0
 10
38.278547999999994
 20
37.523917999999995
 30
0.0
 10
38.278547999999994
 20
38.141419999999997
 30
0.0
  0
LWPOLYLINE
  5
177
  8
Layer_1
 62
1
420
16711680
370
-1
  6
ByLayer
100
AcDbEntity
100
AcDbPolyline
 90
3
 70
0
 10
35.331583999999999
 20
38.181213
 10
36.038267999999995
 20
38.181213
 10
36.038267999999995
 20
38.141419999999997
  0
SPLINE
  5
178
  8
Layer_1
 62
1
420
16711680
370
-1
  6
ByLayer
100
AcDbEntity
100
AcDbSpline
 70
8
 71
3
 72
8
 73
4
 74
0
 40
0.0
 40
0.0
 40
0.0
 40
0.0
 40
1.0
 40
1.0
 40
1.0
 40
1.0
 10
38.985231999999996
 20
38.181213
 30
0.0
 10
39.764165999999996
 20
38.181213
 30
0.0
 10
40.398036999999995
 20
37.547342
 30
0.0
 10
40.398036999999995
 20
36.767845000000001
 30
0.0
  0
LWPOLYLINE
  5
179
  8
Layer_1
 62
1
420
16711680
370
-1
  6
ByLayer
100
AcDbEntity
100
AcDbPolyline
 90
3
 70
0
 10
38.278547999999994
 20
38.141419999999997
 10
38.278547999999994
 20
38.181213
 10
38.985231999999996
 20
38.181213
  0
SPLINE
  5
17A
  8
Layer_1
 62
1
420
16711680
370
-1
  6
ByLayer
100
AcDbEntity
100
AcDbSpline
 70
8
 71
3
 72
8
 73
4
 74
0
 40
0.0
 40
0.0
 40
0.0
 40
0.0
 40
1.0
 40
1.0
 40
1.0
 40
1.0
 10
40.398036999999995
 20
31.515407
 30
0.0
 10
40.398036999999995
 20
30.736190999999998
 30
0.0
 10
39.764165999999996
 20
30.101755999999998
 30
0.0
 10
38.985231999999996
 20
30.101755999999998
 30
0.0
  0
LWPOLYLINE
  5
17B
  8
Layer_1
 62
1
420
16711680
370
-1
  6
ByLayer
100
AcDbEntity
100
AcDbPolyline
 90
2
 70
0
 10
40.398036999999995
 20
36.767845000000001
 10
40.398036999999995
 20
31.515407
  0
SPLINE
  5
17C
  8
Layer_1
 62
1
420
16711680
370
-1
  6
ByLayer
100
AcDbEntity
100
AcDbSpline
 70
8
 71
3
 72
8
 73
4
 74
0
 40
0.0
 40
0.0
 40
0.0
 40
0.0
 40
1.0
 40
1.0
 40
1.0
 40
1.0
 10
38.278547999999994
 20
30.141548999999998
 30
0.0
 10
38.278547999999994
 20
30.759332999999998
 30
0.0
 10
37.775909999999996
 20
31.261688999999997
 30
0.0
 10
37.158689999999993
 20
31.261688999999997
 30
0.0
  0
SPLINE
  5
17D
  8
Layer_1
 62
1
420
16711680
370
-1
  6
ByLayer
100
AcDbEntity
100
AcDbSpline
 70
8
 71
3
 72
8
 73
4
 74
0
 40
0.0
 40
0.0
 40
0.0
 40
0.0
 40
1.0
 40
1.0
 40
1.0
 40
1.0
 10
37.158689999999993
 20
31.261688999999997
 30
0.0
 10
36.540623999999994
 20
31.261688999999997
 30
0.0
 10
36.038267999999995
 20
30.759616000000001
 30
0.0
 10
36.038267999999995
 20
30.141548999999998
 30
0.0
  0
LWPOLYLINE
  5
17E
  8
Layer_1
 62
1
420
16711680
370
-1
  6
ByLayer
100
AcDbEntity
100
AcDbPolyline
 90
3
 70
0
 10
38.985231999999996
 20
30.101755999999998
 10
38.278547999999994
 20
30.101755999999998
 10
38.278547999999994
 20
30.141548999999998
  0
SPLINE
  5
17F
  8
Layer_1
 62
1
420
16711680
370
-1
  6
ByLayer
100
AcDbEntity
100
AcDbSpline
 70
8
 71
3
 72
8
 73
4
 74
0
 40
0.0
 40
0.0
 40
0.0
 40
0.0
 40
1.0
 40
1.0
 40
1.0
 40
1.0
 10
35.331583999999999
 20
30.101755999999998
 30
0.0
 10
34.552649999999993
 20
30.101755999999998
 30
0.0
 10
33.918214999999996
 20
30.736190999999998
 30
0.0
 10
33.918214999999996
 20
31.515407
 30
0.0
  0
SPLINE
  5
180
  8
Layer_1
 62
1
420
16711680
370
-1
  6
ByLayer
100
AcDbEntity
100
AcDbSpline
 70
8
 71
3
 72
8
 73
4
 74
0
 40
0.0
 40
0.0
 40
0.0
 40
0.0
 40
1.0
 40
1.0
 40
1.0
 40
1.0
 10
36.158494999999995
 20
34.141485000000003
 30
0.0
 10
36.158494999999995
 20
34.693511000000001
 30
0.0
 10
36.605816999999995
 20
35.141397999999995
 30
0.0
 10
37.158407999999994
 20
35.141397999999995
 30
0.0
  0
SPLINE
  5
181
  8
Layer_1
 62
1
420
16711680
370
-1
  6
ByLayer
100
AcDbEntity
100
AcDbSpline
 70
8
 71
3
 72
8
 73
4
 74
0
 40
0.0
 40
0.0
 40
0.0
 40
0.0
 40
1.0
 40
1.0
 40
1.0
 40
1.0
 10
37.158407999999994
 20
35.141397999999995
 30
0.0
 10
37.710151999999994
 20
35.141397999999995
 30
0.0
 10
38.158038999999995
 20
34.693511000000001
 30
0.0
 10
38.158038999999995
 20
34.141485000000003
 30
0.0
  0
SPLINE
  5
182
  8
Layer_1
 62
1
420
16711680
370
-1
  6
ByLayer
100
AcDbEntity
100
AcDbSpline
 70
8
 71
3
 72
8
 73
4
 74
0
 40
0.0
 40
0.0
 40
0.0
 40
0.0
 40
1.0
 40
1.0
 40
1.0
 40
1.0
 10
38.158038999999995
 20
34.141485000000003
 30
0.0
 10
38.158038999999995
 20
33.589175999999995
 30
0.0
 10
37.710151999999994
 20
33.141289
 30
0.0
 10
37.158407999999994
 20
33.141289
 30
0.0
  0
SPLINE
  5
183
  8
Layer_1
 62
1
420
16711680
370
-1
  6
ByLayer
100
AcDbEntity
100
AcDbSpline
 70
8
 71
3
 72
8
 73
4
 74
0
 40
0.0
 40
0.0
 40
0.0
 40
0.0
 40
1.0
 40
1.0
 40
1.0
 40
1.0
 10
37.158407999999994
 20
33.141289
 30
0.0
 10
36.605816999999995
 20
33.141289
 30
0.0
 10
36.158494999999995
 20
33.589175999999995
 30
0.0
 10
36.158494999999995
 20
34.141485000000003
 30
0.0
  0
LWPOLYLINE
  5
184
  8
Layer_1
 62
1
420
16711680
370
-1
  6
ByLayer
100
AcDbEntity
100
AcDbPolyline
 90
3
 70
0
 10
36.038267999999995
 20
30.141548999999998
 10
36.038267999999995
 20
30.101755999999998
 10
35.331583999999999
 20
30.101755999999998
  0
SPLINE
  5
185
  8
Layer_1
 62
1
420
16711680
370
-1
  6
ByLayer
100
AcDbEntity
100
AcDbSpline
 70
8
 71
3
 72
8
 73
4
 74
0
 40
0.0
 40
0.0
 40
0.0
 40
0.0
 40
1.0
 40
1.0
 40
1.0
 40
1.0
 10
27.438109999999995
 20
36.767845000000001
 30
0.0
 10
27.438109999999995
 20
37.547342
 30
0.0
 10
28.072545999999996
 20
38.181213
 30
0.0
 10
28.851478999999998
 20
38.181213
 30
0.0
  0
LWPOLYLINE
  5
186
  8
Layer_1
 62
1
420
16711680
370
-1
  6
ByLayer
100
AcDbEntity
100
AcDbPolyline
 90
2
 70
0
 10
36.158494999999995
 20
34.141485000000003
 10
36.158494999999995
 20
34.141485000000003
  0
SPLINE
  5
187
  8
Layer_1
 62
1
420
16711680
370
-1
  6
ByLayer
100
AcDbEntity
100
AcDbSpline
 70
8
 71
3
 72
8
 73
4
 74
0
 40
0.0
 40
0.0
 40
0.0
 40
0.0
 40
1.0
 40
1.0
 40
1.0
 40
1.0
 10
29.558163999999998
 20
38.141419999999997
 30
0.0
 10
29.558163999999998
 20
37.523917999999995
 30
0.0
 10
30.060800999999998
 20
37.021562000000003
 30
0.0
 10
30.678585999999996
 20
37.021562000000003
 30
0.0
  0
SPLINE
  5
188
  8
Layer_1
 62
1
420
16711680
370
-1
  6
ByLayer
100
AcDbEntity
100
AcDbSpline
 70
8
 71
3
 72
8
 73
4
 74
0
 40
0.0
 40
0.0
 40
0.0
 40
0.0
 40
1.0
 40
1.0
 40
1.0
 40
1.0
 10
30.678585999999996
 20
37.021562000000003
 30
0.0
 10
31.295805999999999
 20
37.021562000000003
 30
0.0
 10
31.798443999999996
 20
37.523917999999995
 30
0.0
 10
31.798443999999996
 20
38.141419999999997
 30
0.0
  0
LWPOLYLINE
  5
189
  8
Layer_1
 62
1
420
16711680
370
-1
  6
ByLayer
100
AcDbEntity
100
AcDbPolyline
 90
3
 70
0
 10
28.851478999999998
 20
38.181213
 10
29.558163999999998
 20
38.181213
 10
29.558163999999998
 20
38.141419999999997
  0
SPLINE
  5
18A
  8
Layer_1
 62
1
420
16711680
370
-1
  6
ByLayer
100
AcDbEntity
100
AcDbSpline
 70
8
 71
3
 72
8
 73
4
 74
0
 40
0.0
 40
0.0
 40
0.0
 40
0.0
 40
1.0
 40
1.0
 40
1.0
 40
1.0
 10
32.505127999999999
 20
38.181213
 30
0.0
 10
33.284060999999994
 20
38.181213
 30
0.0
 10
33.918496999999995
 20
37.547342
 30
0.0
 10
33.918496999999995
 20
36.767845000000001
 30
0.0
  0
LWPOLYLINE
  5
18B
  8
Layer_1
 62
1
420
16711680
370
-1
  6
ByLayer
100
AcDbEntity
100
AcDbPolyline
 90
3
 70
0
 10
31.798443999999996
 20
38.141419999999997
 10
31.798443999999996
 20
38.181213
 10
32.505127999999999
 20
38.181213
  0
SPLINE
  5
18C
  8
Layer_1
 62
1
420
16711680
370
-1
  6
ByLayer
100
AcDbEntity
100
AcDbSpline
 70
8
 71
3
 72
8
 73
4
 74
0
 40
0.0
 40
0.0
 40
0.0
 40
0.0
 40
1.0
 40
1.0
 40
1.0
 40
1.0
 10
33.918496999999995
 20
31.515407
 30
0.0
 10
33.918496999999995
 20
30.736190999999998
 30
0.0
 10
33.284060999999994
 20
30.101755999999998
 30
0.0
 10
32.505127999999999
 20
30.101755999999998
 30
0.0
  0
LWPOLYLINE
  5
18D
  8
Layer_1
 62
1
420
16711680
370
-1
  6
ByLayer
100
AcDbEntity
100
AcDbPolyline
 90
2
 70
0
 10
33.918496999999995
 20
36.767845000000001
 10
33.918496999999995
 20
31.515407
  0
SPLINE
  5
18E
  8
Layer_1
 62
1
420
16711680
370
-1
  6
ByLayer
100
AcDbEntity
100
AcDbSpline
 70
8
 71
3
 72
8
 73
4
 74
0
 40
0.0
 40
0.0
 40
0.0
 40
0.0
 40
1.0
 40
1.0
 40
1.0
 40
1.0
 10
31.798443999999996
 20
30.141548999999998
 30
0.0
 10
31.798443999999996
 20
30.759332999999998
 30
0.0
 10
31.295805999999999
 20
31.261688999999997
 30
0.0
 10
30.678585999999996
 20
31.261688999999997
 30
0.0
  0
SPLINE
  5
18F
  8
Layer_1
 62
1
420
16711680
370
-1
  6
ByLayer
100
AcDbEntity
100
AcDbSpline
 70
8
 71
3
 72
8
 73
4
 74
0
 40
0.0
 40
0.0
 40
0.0
 40
0.0
 40
1.0
 40
1.0
 40
1.0
 40
1.0
 10
30.678585999999996
 20
31.261688999999997
 30
0.0
 10
30.061084000000001
 20
31.261688999999997
 30
0.0
 10
29.558163999999998
 20
30.759616000000001
 30
0.0
 10
29.558163999999998
 20
30.141548999999998
 30
0.0
  0
LWPOLYLINE
  5
190
  8
Layer_1
 62
1
420
16711680
370
-1
  6
ByLayer
100
AcDbEntity
100
AcDbPolyline
 90
3
 70
0
 10
32.505127999999999
 20
30.101755999999998
 10
31.798443999999996
 20
30.101755999999998
 10
31.798443999999996
 20
30.141548999999998
  0
SPLINE
  5
191
  8
Layer_1
 62
1
420
16711680
370
-1
  6
ByLayer
100
AcDbEntity
100
AcDbSpline
 70
8
 71
3
 72
8
 73
4
 74
0
 40
0.0
 40
0.0
 40
0.0
 40
0.0
 40
1.0
 40
1.0
 40
1.0
 40
1.0
 10
28.851478999999998
 20
30.101755999999998
 30
0.0
 10
28.072545999999996
 20
30.101755999999998
 30
0.0
 10
27.438109999999995
 20
30.736190999999998
 30
0.0
 10
27.438109999999995
 20
31.515407
 30
0.0
  0
SPLINE
  5
192
  8
Layer_1
 62
1
420
16711680
370
-1
  6
ByLayer
100
AcDbEntity
100
AcDbSpline
 70
8
 71
3
 72
8
 73
4
 74
0
 40
0.0
 40
0.0
 40
0.0
 40
0.0
 40
1.0
 40
1.0
 40
1.0
 40
1.0
 10
29.67839
 20
34.141485000000003
 30
0.0
 10
29.67839
 20
34.693511000000001
 30
0.0
 10
30.125429999999994
 20
35.141397999999995
 30
0.0
 10
30.678303999999997
 20
35.141397999999995
 30
0.0
  0
SPLINE
  5
193
  8
Layer_1
 62
1
420
16711680
370
-1
  6
ByLayer
100
AcDbEntity
100
AcDbSpline
 70
8
 71
3
 72
8
 73
4
 74
0
 40
0.0
 40
0.0
 40
0.0
 40
0.0
 40
1.0
 40
1.0
 40
1.0
 40
1.0
 10
30.678303999999997
 20
35.141397999999995
 30
0.0
 10
31.230047999999996
 20
35.141397999999995
 30
0.0
 10
31.677651999999995
 20
34.693511000000001
 30
0.0
 10
31.677651999999995
 20
34.141485000000003
 30
0.0
  0
SPLINE
  5
194
  8
Layer_1
 62
1
420
16711680
370
-1
  6
ByLayer
100
AcDbEntity
100
AcDbSpline
 70
8
 71
3
 72
8
 73
4
 74
0
 40
0.0
 40
0.0
 40
0.0
 40
0.0
 40
1.0
 40
1.0
 40
1.0
 40
1.0
 10
31.677651999999995
 20
34.141485000000003
 30
0.0
 10
31.677651999999995
 20
33.589175999999995
 30
0.0
 10
31.230047999999996
 20
33.141289
 30
0.0
 10
30.678303999999997
 20
33.141289
 30
0.0
  0
SPLINE
  5
195
  8
Layer_1
 62
1
420
16711680
370
-1
  6
ByLayer
100
AcDbEntity
100
AcDbSpline
 70
8
 71
3
 72
8
 73
4
 74
0
 40
0.0
 40
0.0
 40
0.0
 40
0.0
 40
1.0
 40
1.0
 40
1.0
 40
1.0
 10
30.678303999999997
 20
33.141289
 30
0.0
 10
30.125429999999994
 20
33.141289
 30
0.0
 10
29.67839
 20
33.589175999999995
 30
0.0
 10
29.67839
 20
34.141485000000003
 30
0.0
  0
LWPOLYLINE
  5
196
  8
Layer_1
 62
1
420
16711680
370
-1
  6
ByLayer
100
AcDbEntity
100
AcDbPolyline
 90
3
 70
0
 10
29.558163999999998
 20
30.141548999999998
 10
29.558163999999998
 20
30.101755999999998
 10
28.851478999999998
 20
30.101755999999998
  0
SPLINE
  5
197
  8
Layer_1
 62
1
420
16711680
370
-1
  6
ByLayer
100
AcDbEntity
100
AcDbSpline
 70
8
 71
3
 72
8
 73
4
 74
0
 40
0.0
 40
0.0
 40
0.0
 40
0.0
 40
1.0
 40
1.0
 40
1.0
 40
1.0
 10
20.958569999999995
 20
36.767845000000001
 30
0.0
 10
20.958569999999995
 20
37.547342
 30
0.0
 10
21.592441000000001
 20
38.181213
 30
0.0
 10
22.371375
 20
38.181213
 30
0.0
  0
LWPOLYLINE
  5
198
  8
Layer_1
 62
1
420
16711680
370
-1
  6
ByLayer
100
AcDbEntity
100
AcDbPolyline
 90
2
 70
0
 10
29.67839
 20
34.141485000000003
 10
29.67839
 20
34.141485000000003
  0
SPLINE
  5
199
  8
Layer_1
 62
1
420
16711680
370
-1
  6
ByLayer
100
AcDbEntity
100
AcDbSpline
 70
8
 71
3
 72
8
 73
4
 74
0
 40
0.0
 40
0.0
 40
0.0
 40
0.0
 40
1.0
 40
1.0
 40
1.0
 40
1.0
 10
23.078058999999996
 20
38.141419999999997
 30
0.0
 10
23.078058999999996
 20
37.523917999999995
 30
0.0
 10
23.580697000000001
 20
37.021562000000003
 30
0.0
 10
24.198481000000001
 20
37.021562000000003
 30
0.0
  0
SPLINE
  5
19A
  8
Layer_1
 62
1
420
16711680
370
-1
  6
ByLayer
100
AcDbEntity
100
AcDbSpline
 70
8
 71
3
 72
8
 73
4
 74
0
 40
0.0
 40
0.0
 40
0.0
 40
0.0
 40
1.0
 40
1.0
 40
1.0
 40
1.0
 10
24.198481000000001
 20
37.021562000000003
 30
0.0
 10
24.816265999999999
 20
37.021562000000003
 30
0.0
 10
25.318056999999996
 20
37.523917999999995
 30
0.0
 10
25.318056999999996
 20
38.141419999999997
 30
0.0
  0
LWPOLYLINE
  5
19B
  8
Layer_1
 62
1
420
16711680
370
-1
  6
ByLayer
100
AcDbEntity
100
AcDbPolyline
 90
3
 70
0
 10
22.371375
 20
38.181213
 10
23.078058999999996
 20
38.181213
 10
23.078058999999996
 20
38.141419999999997
  0
SPLINE
  5
19C
  8
Layer_1
 62
1
420
16711680
370
-1
  6
ByLayer
100
AcDbEntity
100
AcDbSpline
 70
8
 71
3
 72
8
 73
4
 74
0
 40
0.0
 40
0.0
 40
0.0
 40
0.0
 40
1.0
 40
1.0
 40
1.0
 40
1.0
 10
26.025023999999995
 20
38.181213
 30
0.0
 10
26.803956999999997
 20
38.181213
 30
0.0
 10
27.438392
 20
37.547342
 30
0.0
 10
27.438392
 20
36.767845000000001
 30
0.0
  0
LWPOLYLINE
  5
19D
  8
Layer_1
 62
1
420
16711680
370
-1
  6
ByLayer
100
AcDbEntity
100
AcDbPolyline
 90
3
 70
0
 10
25.318056999999996
 20
38.141419999999997
 10
25.318056999999996
 20
38.181213
 10
26.025023999999995
 20
38.181213
  0
SPLINE
  5
19E
  8
Layer_1
 62
1
420
16711680
370
-1
  6
ByLayer
100
AcDbEntity
100
AcDbSpline
 70
8
 71
3
 72
8
 73
4
 74
0
 40
0.0
 40
0.0
 40
0.0
 40
0.0
 40
1.0
 40
1.0
 40
1.0
 40
1.0
 10
27.438392
 20
31.515407
 30
0.0
 10
27.438392
 20
30.736190999999998
 30
0.0
 10
26.803956999999997
 20
30.101755999999998
 30
0.0
 10
26.025023999999995
 20
30.101755999999998
 30
0.0
  0
LWPOLYLINE
  5
19F
  8
Layer_1
 62
1
420
16711680
370
-1
  6
ByLayer
100
AcDbEntity
100
AcDbPolyline
 90
2
 70
0
 10
27.438392
 20
36.767845000000001
 10
27.438392
 20
31.515407
  0
SPLINE
  5
1A0
  8
Layer_1
 62
1
420
16711680
370
-1
  6
ByLayer
100
AcDbEntity
100
AcDbSpline
 70
8
 71
3
 72
8
 73
4
 74
0
 40
0.0
 40
0.0
 40
0.0
 40
0.0
 40
1.0
 40
1.0
 40
1.0
 40
1.0
 10
25.318056999999996
 20
30.141548999999998
 30
0.0
 10
25.318056999999996
 20
30.759332999999998
 30
0.0
 10
24.816265999999999
 20
31.261688999999997
 30
0.0
 10
24.198481000000001
 20
31.261688999999997
 30
0.0
  0
SPLINE
  5
1A1
  8
Layer_1
 62
1
420
16711680
370
-1
  6
ByLayer
100
AcDbEntity
100
AcDbSpline
 70
8
 71
3
 72
8
 73
4
 74
0
 40
0.0
 40
0.0
 40
0.0
 40
0.0
 40
1.0
 40
1.0
 40
1.0
 40
1.0
 10
24.198481000000001
 20
31.261688999999997
 30
0.0
 10
23.580697000000001
 20
31.261688999999997
 30
0.0
 10
23.078058999999996
 20
30.759616000000001
 30
0.0
 10
23.078058999999996
 20
30.141548999999998
 30
0.0
  0
LWPOLYLINE
  5
1A2
  8
Layer_1
 62
1
420
16711680
370
-1
  6
ByLayer
100
AcDbEntity
100
AcDbPolyline
 90
3
 70
0
 10
26.025023999999995
 20
30.101755999999998
 10
25.318056999999996
 20
30.101755999999998
 10
25.318056999999996
 20
30.141548999999998
  0
SPLINE
  5
1A3
  8
Layer_1
 62
1
420
16711680
370
-1
  6
ByLayer
100
AcDbEntity
100
AcDbSpline
 70
8
 71
3
 72
8
 73
4
 74
0
 40
0.0
 40
0.0
 40
0.0
 40
0.0
 40
1.0
 40
1.0
 40
1.0
 40
1.0
 10
22.371375
 20
30.101755999999998
 30
0.0
 10
21.592441000000001
 20
30.101755999999998
 30
0.0
 10
20.958569999999995
 20
30.736190999999998
 30
0.0
 10
20.958569999999995
 20
31.515407
 30
0.0
  0
SPLINE
  5
1A4
  8
Layer_1
 62
1
420
16711680
370
-1
  6
ByLayer
100
AcDbEntity
100
AcDbSpline
 70
8
 71
3
 72
8
 73
4
 74
0
 40
0.0
 40
0.0
 40
0.0
 40
0.0
 40
1.0
 40
1.0
 40
1.0
 40
1.0
 10
23.198285999999996
 20
34.141485000000003
 30
0.0
 10
23.198285999999996
 20
34.693511000000001
 30
0.0
 10
23.645607999999996
 20
35.141397999999995
 30
0.0
 10
24.198198999999995
 20
35.141397999999995
 30
0.0
  0
SPLINE
  5
1A5
  8
Layer_1
 62
1
420
16711680
370
-1
  6
ByLayer
100
AcDbEntity
100
AcDbSpline
 70
8
 71
3
 72
8
 73
4
 74
0
 40
0.0
 40
0.0
 40
0.0
 40
0.0
 40
1.0
 40
1.0
 40
1.0
 40
1.0
 10
24.198198999999995
 20
35.141397999999995
 30
0.0
 10
24.749943999999999
 20
35.141397999999995
 30
0.0
 10
25.197829999999996
 20
34.693511000000001
 30
0.0
 10
25.197829999999996
 20
34.141485000000003
 30
0.0
  0
SPLINE
  5
1A6
  8
Layer_1
 62
1
420
16711680
370
-1
  6
ByLayer
100
AcDbEntity
100
AcDbSpline
 70
8
 71
3
 72
8
 73
4
 74
0
 40
0.0
 40
0.0
 40
0.0
 40
0.0
 40
1.0
 40
1.0
 40
1.0
 40
1.0
 10
25.197829999999996
 20
34.141485000000003
 30
0.0
 10
25.197829999999996
 20
33.589175999999995
 30
0.0
 10
24.749943999999999
 20
33.141289
 30
0.0
 10
24.198198999999995
 20
33.141289
 30
0.0
  0
SPLINE
  5
1A7
  8
Layer_1
 62
1
420
16711680
370
-1
  6
ByLayer
100
AcDbEntity
100
AcDbSpline
 70
8
 71
3
 72
8
 73
4
 74
0
 40
0.0
 40
0.0
 40
0.0
 40
0.0
 40
1.0
 40
1.0
 40
1.0
 40
1.0
 10
24.198198999999995
 20
33.141289
 30
0.0
 10
23.645607999999996
 20
33.141289
 30
0.0
 10
23.198285999999996
 20
33.589175999999995
 30
0.0
 10
23.198285999999996
 20
34.141485000000003
 30
0.0
  0
LWPOLYLINE
  5
1A8
  8
Layer_1
 62
1
420
16711680
370
-1
  6
ByLayer
100
AcDbEntity
100
AcDbPolyline
 90
3
 70
0
 10
23.078058999999996
 20
30.141548999999998
 10
23.078058999999996
 20
30.101755999999998
 10
22.371375
 20
30.101755999999998
  0
LWPOLYLINE
  5
1A9
  8
Layer_1
 62
1
420
16711680
370
-1
  6
ByLayer
100
AcDbEntity
100
AcDbPolyline
 90
2
 70
0
 10
23.198285999999996
 20
34.141485000000003
 10
23.198285999999996
 20
34.141485000000003
  0
SPLINE
  5
1AA
  8
Layer_1
 62
1
420
16711680
370
-1
  6
ByLayer
100
AcDbEntity
100
AcDbSpline
 70
8
 71
3
 72
8
 73
4
 74
0
 40
0.0
 40
0.0
 40
0.0
 40
0.0
 40
1.0
 40
1.0
 40
1.0
 40
1.0
 10
18.837952000000001
 20
30.141266999999999
 30
0.0
 10
18.837952000000001
 20
30.759050999999999
 30
0.0
 10
18.335878999999998
 20
31.261406999999998
 30
0.0
 10
17.718094999999998
 20
31.261406999999998
 30
0.0
  0
SPLINE
  5
1AB
  8
Layer_1
 62
1
420
16711680
370
-1
  6
ByLayer
100
AcDbEntity
100
AcDbSpline
 70
8
 71
3
 72
8
 73
4
 74
0
 40
0.0
 40
0.0
 40
0.0
 40
0.0
 40
1.0
 40
1.0
 40
1.0
 40
1.0
 10
17.718094999999998
 20
31.261406999999998
 30
0.0
 10
17.100874999999995
 20
31.261406999999998
 30
0.0
 10
16.597107999999999
 20
30.759332999999998
 30
0.0
 10
16.597107999999999
 20
30.141266999999999
 30
0.0
  0
LWPOLYLINE
  5
1AC
  8
Layer_1
 62
1
420
16711680
370
-1
  6
ByLayer
100
AcDbEntity
100
AcDbPolyline
 90
3
 70
0
 10
19.544354999999996
 20
30.101472999999999
 10
18.837952000000001
 20
30.101472999999999
 10
18.837952000000001
 20
30.141266999999999
  0
SPLINE
  5
1AD
  8
Layer_1
 62
1
420
16711680
370
-1
  6
ByLayer
100
AcDbEntity
100
AcDbSpline
 70
8
 71
3
 72
8
 73
4
 74
0
 40
0.0
 40
0.0
 40
0.0
 40
0.0
 40
1.0
 40
1.0
 40
1.0
 40
1.0
 10
15.890988
 20
30.101472999999999
 30
0.0
 10
15.112055
 20
30.101472999999999
 30
0.0
 10
14.478183999999999
 20
30.735908999999999
 30
0.0
 10
14.478183999999999
 20
31.515124999999998
 30
0.0
  0
LWPOLYLINE
  5
1AE
  8
Layer_1
 62
1
420
16711680
370
-1
  6
ByLayer
100
AcDbEntity
100
AcDbPolyline
 90
3
 70
0
 10
16.597107999999999
 20
30.141266999999999
 10
16.597107999999999
 20
30.101472999999999
 10
15.890988
 20
30.101472999999999
  0
SPLINE
  5
1AF
  8
Layer_1
 62
1
420
16711680
370
-1
  6
ByLayer
100
AcDbEntity
100
AcDbSpline
 70
8
 71
3
 72
8
 73
4
 74
0
 40
0.0
 40
0.0
 40
0.0
 40
0.0
 40
1.0
 40
1.0
 40
1.0
 40
1.0
 10
14.478183999999999
 20
36.767561999999998
 30
0.0
 10
14.478183999999999
 20
37.547060000000002
 30
0.0
 10
15.112055
 20
38.180931000000001
 30
0.0
 10
15.890988
 20
38.180931000000001
 30
0.0
  0
LWPOLYLINE
  5
1B0
  8
Layer_1
 62
1
420
16711680
370
-1
  6
ByLayer
100
AcDbEntity
100
AcDbPolyline
 90
2
 70
0
 10
14.478183999999999
 20
31.515124999999998
 10
14.478183999999999
 20
36.767561999999998
  0
SPLINE
  5
1B1
  8
Layer_1
 62
1
420
16711680
370
-1
  6
ByLayer
100
AcDbEntity
100
AcDbSpline
 70
8
 71
3
 72
8
 73
4
 74
0
 40
0.0
 40
0.0
 40
0.0
 40
0.0
 40
1.0
 40
1.0
 40
1.0
 40
1.0
 10
16.597107999999999
 20
38.141137999999998
 30
0.0
 10
16.597107999999999
 20
37.523635999999996
 30
0.0
 10
17.100874999999995
 20
37.021279999999997
 30
0.0
 10
17.718094999999998
 20
37.021279999999997
 30
0.0
  0
SPLINE
  5
1B2
  8
Layer_1
 62
1
420
16711680
370
-1
  6
ByLayer
100
AcDbEntity
100
AcDbSpline
 70
8
 71
3
 72
8
 73
4
 74
0
 40
0.0
 40
0.0
 40
0.0
 40
0.0
 40
1.0
 40
1.0
 40
1.0
 40
1.0
 10
17.718094999999998
 20
37.021279999999997
 30
0.0
 10
18.335597
 20
37.021279999999997
 30
0.0
 10
18.837952000000001
 20
37.523635999999996
 30
0.0
 10
18.837952000000001
 20
38.141137999999998
 30
0.0
  0
LWPOLYLINE
  5
1B3
  8
Layer_1
 62
1
420
16711680
370
-1
  6
ByLayer
100
AcDbEntity
100
AcDbPolyline
 90
3
 70
0
 10
15.890988
 20
38.180931000000001
 10
16.597107999999999
 20
38.180931000000001
 10
16.597107999999999
 20
38.141137999999998
  0
SPLINE
  5
1B4
  8
Layer_1
 62
1
420
16711680
370
-1
  6
ByLayer
100
AcDbEntity
100
AcDbSpline
 70
8
 71
3
 72
8
 73
4
 74
0
 40
0.0
 40
0.0
 40
0.0
 40
0.0
 40
1.0
 40
1.0
 40
1.0
 40
1.0
 10
19.544354999999996
 20
38.180931000000001
 30
0.0
 10
20.324134999999998
 20
38.180931000000001
 30
0.0
 10
20.958569999999995
 20
37.547060000000002
 30
0.0
 10
20.958569999999995
 20
36.767561999999998
 30
0.0
  0
LWPOLYLINE
  5
1B5
  8
Layer_1
 62
1
420
16711680
370
-1
  6
ByLayer
100
AcDbEntity
100
AcDbPolyline
 90
3
 70
0
 10
18.837952000000001
 20
38.141137999999998
 10
18.837952000000001
 20
38.180931000000001
 10
19.544354999999996
 20
38.180931000000001
  0
SPLINE
  5
1B6
  8
Layer_1
 62
1
420
16711680
370
-1
  6
ByLayer
100
AcDbEntity
100
AcDbSpline
 70
8
 71
3
 72
8
 73
4
 74
0
 40
0.0
 40
0.0
 40
0.0
 40
0.0
 40
1.0
 40
1.0
 40
1.0
 40
1.0
 10
20.958569999999995
 20
31.515124999999998
 30
0.0
 10
20.958569999999995
 20
30.735908999999999
 30
0.0
 10
20.324134999999998
 20
30.101472999999999
 30
0.0
 10
19.544354999999996
 20
30.101472999999999
 30
0.0
  0
LWPOLYLINE
  5
1B7
  8
Layer_1
 62
1
420
16711680
370
-1
  6
ByLayer
100
AcDbEntity
100
AcDbPolyline
 90
2
 70
0
 10
20.958569999999995
 20
36.767561999999998
 10
20.958569999999995
 20
31.515124999999998
  0
SPLINE
  5
1B8
  8
Layer_1
 62
1
420
16711680
370
-1
  6
ByLayer
100
AcDbEntity
100
AcDbSpline
 70
8
 71
3
 72
8
 73
4
 74
0
 40
0.0
 40
0.0
 40
0.0
 40
0.0
 40
1.0
 40
1.0
 40
1.0
 40
1.0
 10
16.718181000000001
 20
34.141485000000003
 30
0.0
 10
16.718181000000001
 20
34.693511000000001
 30
0.0
 10
17.165503999999999
 20
35.141397999999995
 30
0.0
 10
17.718094999999998
 20
35.141397999999995
 30
0.0
  0
SPLINE
  5
1B9
  8
Layer_1
 62
1
420
16711680
370
-1
  6
ByLayer
100
AcDbEntity
100
AcDbSpline
 70
8
 71
3
 72
8
 73
4
 74
0
 40
0.0
 40
0.0
 40
0.0
 40
0.0
 40
1.0
 40
1.0
 40
1.0
 40
1.0
 10
17.718094999999998
 20
35.141397999999995
 30
0.0
 10
18.269838999999997
 20
35.141397999999995
 30
0.0
 10
18.717725999999999
 20
34.693511000000001
 30
0.0
 10
18.717725999999999
 20
34.141485000000003
 30
0.0
  0
SPLINE
  5
1BA
  8
Layer_1
 62
1
420
16711680
370
-1
  6
ByLayer
100
AcDbEntity
100
AcDbSpline
 70
8
 71
3
 72
8
 73
4
 74
0
 40
0.0
 40
0.0
 40
0.0
 40
0.0
 40
1.0
 40
1.0
 40
1.0
 40
1.0
 10
18.717725999999999
 20
34.141485000000003
 30
0.0
 10
18.717725999999999
 20
33.589175999999995
 30
0.0
 10
18.269838999999997
 20
33.141289
 30
0.0
 10
17.718094999999998
 20
33.141289
 30
0.0
  0
SPLINE
  5
1BB
  8
Layer_1
 62
1
420
16711680
370
-1
  6
ByLayer
100
AcDbEntity
100
AcDbSpline
 70
8
 71
3
 72
8
 73
4
 74
0
 40
0.0
 40
0.0
 40
0.0
 40
0.0
 40
1.0
 40
1.0
 40
1.0
 40
1.0
 10
17.718094999999998
 20
33.141289
 30
0.0
 10
17.165503999999999
 20
33.141289
 30
0.0
 10
16.718181000000001
 20
33.589175999999995
 30
0.0
 10
16.718181000000001
 20
34.141485000000003
 30
0.0
  0
LWPOLYLINE
  5
1BC
  8
Layer_1
 62
1
420
16711680
370
-1
  6
ByLayer
100
AcDbEntity
100
AcDbPolyline
 90
2
 70
0
 10
19.544354999999996
 20
30.101472999999999
 10
19.544354999999996
 20
30.101472999999999
  0
LWPOLYLINE
  5
1BD
  8
Layer_1
 62
1
420
16711680
370
-1
  6
ByLayer
100
AcDbEntity
100
AcDbPolyline
 90
2
 70
0
 10
16.718181000000001
 20
34.141485000000003
 10
16.718181000000001
 20
34.141485000000003
  0
SPLINE
  5
1BE
  8
Layer_1
 62
1
420
16711680
370
-1
  6
ByLayer
100
AcDbEntity
100
AcDbSpline
 70
8
 71
3
 72
8
 73
4
 74
0
 40
0.0
 40
0.0
 40
0.0
 40
0.0
 40
1.0
 40
1.0
 40
1.0
 40
1.0
 10
6.0577549463361606
 20
43.117950386846786
 30
0.0
 10
5.4659349463361622
 20
43.117950386846786
 30
0.0
 10
4.9167299463361616
 20
43.386343386846782
 30
0.0
 10
4.5498419463361586
 20
43.853985386846787
 30
0.0
  0
SPLINE
  5
1BF
  8
Layer_1
 62
1
420
16711680
370
-1
  6
ByLayer
100
AcDbEntity
100
AcDbSpline
 70
8
 71
3
 72
8
 73
4
 74
0
 40
0.0
 40
0.0
 40
0.0
 40
0.0
 40
1.0
 40
1.0
 40
1.0
 40
1.0
 10
4.5430679463361585
 20
46.189939386846788
 30
0.0
 10
4.9167299463361616
 20
46.679312386846782
 30
0.0
 10
5.4662169463361607
 20
46.947705386846785
 30
0.0
 10
6.0577549463361606
 20
46.947705386846785
 30
0.0
  0
SPLINE
  5
1C0
  8
Layer_1
 62
1
420
16711680
370
-1
  6
ByLayer
100
AcDbEntity
100
AcDbSpline
 70
8
 71
3
 72
8
 73
4
 74
0
 40
0.0
 40
0.0
 40
0.0
 40
0.0
 40
1.0
 40
1.0
 40
1.0
 40
1.0
 10
6.0577549463361606
 20
46.947705386846785
 30
0.0
 10
7.1129839463361577
 20
46.947705386846785
 30
0.0
 10
7.9726329463361623
 20
46.088621386846782
 30
0.0
 10
7.9726329463361623
 20
45.032827386846783
 30
0.0
  0
SPLINE
  5
1C1
  8
Layer_1
 62
1
420
16711680
370
-1
  6
ByLayer
100
AcDbEntity
100
AcDbSpline
 70
8
 71
3
 72
8
 73
4
 74
0
 40
0.0
 40
0.0
 40
0.0
 40
0.0
 40
1.0
 40
1.0
 40
1.0
 40
1.0
 10
7.9726329463361623
 20
45.032827386846783
 30
0.0
 10
7.9726329463361623
 20
43.977034386846782
 30
0.0
 10
7.1132659463361598
 20
43.117950386846786
 30
0.0
 10
6.0577549463361606
 20
43.117950386846786
 30
0.0
  0
LWPOLYLINE
  5
1C2
  8
Layer_1
 62
1
420
16711680
370
-1
  6
ByLayer
100
AcDbEntity
100
AcDbPolyline
 90
2
 70
0
 10
4.5498419463361586
 20
43.853985386846787
 10
4.5430679463361585
 20
46.189939386846788
  0
LWPOLYLINE
  5
1C3
  8
Layer_1
 62
1
420
16711680
370
-1
  6
ByLayer
100
AcDbEntity
100
AcDbPolyline
 90
2
 70
0
 10
6.0577549463361606
 20
43.117950386846786
 10
6.0577549463361606
 20
43.117950386846786
  0
LWPOLYLINE
  5
1C4
  8
Layer_1
 62
1
420
16711680
370
-1
  6
ByLayer
100
AcDbEntity
100
AcDbPolyline
 90
66
 70
0
 10
4.784367946336161
 20
39.557999386846788
 10
4.0477679463361582
 20
39.783776386846782
 10
3.8394879463361633
 20
41.184163386846784
 10
3.9187929463361613
 20
41.474852386846784
 10
4.2794729463361563
 20
42.129607386846786
 10
3.5462589463361596
 20
42.734410386846783
 10
2.9995949463361598
 20
42.275234386846783
 10
2.6990279463361588
 20
42.129043386846789
 10
1.285941946336159
 20
42.062721386846789
 10
0.9246969463361623
 20
42.743441386846783
 10
1.7939419463361617
 20
43.895472386846784
 10
2.0304439463361632
 20
44.030656386846786
 10
2.7475699463361565
 20
44.238372386846784
 10
2.6566949463361595
 20
45.184945386846785
 10
1.9457769463361601
 20
45.246470386846781
 10
1.6302529463361566
 20
45.356254386846786
 10
0.5840549463361597
 20
46.307343386846782
 10
0.809549946336162
 20
47.044507386846782
 10
2.2102189463361626
 20
47.252505386846785
 10
2.5011899463361615
 20
47.173483386846783
 10
3.155663946336162
 20
46.812803386846781
 10
3.7601839463361557
 20
47.546581386846782
 10
3.3015729463361581
 20
48.092399386846786
 10
3.155663946336162
 20
48.393812386846783
 10
3.0887769463361607
 20
49.805770386846788
 10
3.7700619463361562
 20
50.167296386846786
 10
4.9220929463361571
 20
49.298616386846788
 10
5.0567129463361624
 20
49.063243386846786
 10
5.2649929463361573
 20
48.345552386846784
 10
6.2112839463361595
 20
48.435581386846785
 10
6.2725259463361596
 20
49.146216386846788
 10
6.3825929463361604
 20
49.462587386846785
 10
7.3339639463361621
 20
50.508785386846782
 10
8.0705639463361578
 20
50.282725386846785
 10
8.2785619463361613
 20
48.88233938684678
 10
8.1995389463361619
 20
48.591367386846784
 10
7.8394239463361615
 20
47.936894386846788
 10
8.5729189463361593
 20
47.332092386846782
 10
9.1187369463361598
 20
47.791267386846783
 10
9.4195859463361593
 20
47.936894386846788
 10
10.832389946336161
 20
48.003499386846784
 10
11.193634946336161
 20
47.322496386846787
 10
10.324389946336161
 20
46.170747386846784
 10
10.089016946336159
 20
46.035563386846789
 10
9.3713259463361602
 20
45.827847386846784
 10
9.46163694633616
 20
44.881274386846783
 10
10.17255494633616
 20
44.819750386846785
 10
10.488643946336161
 20
44.709965386846783
 10
11.53427694633616
 20
43.758312386846782
 10
11.308781946336161
 20
43.021430386846788
 10
9.9081129463361606
 20
42.813714386846783
 10
9.6177059463361587
 20
42.892736386846785
 10
8.9632329463361593
 20
43.253134386846781
 10
8.3581479463361603
 20
42.520203386846788
 10
8.816758946336158
 20
41.974385386846784
 10
8.9626679463361612
 20
41.672690386846782
 10
9.0295549463361588
 20
40.260450386846784
 10
8.3488349463361615
 20
39.899205386846788
 10
7.1962389463361589
 20
40.767603386846787
 10
7.0613369463361586
 20
41.003541386846784
 10
6.8539039463361604
 20
41.721514386846785
 10
5.9073299463361622
 20
41.631203386846785
 10
5.8460879463361621
 20
40.920285386846786
 10
5.7357389463361628
 20
40.603914386846782
 10
4.784367946336161
 20
39.557999386846788
 10
4.784367946336161
 20
39.557999386846788
  0
SPLINE
  5
1C5
  8
Layer_1
 62
1
420
16711680
370
-1
  6
ByLayer
100
AcDbEntity
100
AcDbSpline
 70
8
 71
3
 72
8
 73
4
 74
0
 40
0.0
 40
0.0
 40
0.0
 40
0.0
 40
1.0
 40
1.0
 40
1.0
 40
1.0
 10
19.241913400116779
 20
43.696202950609099
 30
0.0
 10
18.650093400116781
 20
43.696202950609099
 30
0.0
 10
18.10088840011678
 20
43.964595950609095
 30
0.0
 10
17.734000400116777
 20
44.432237950609093
 30
0.0
  0
SPLINE
  5
1C6
  8
Layer_1
 62
1
420
16711680
370
-1
  6
ByLayer
100
AcDbEntity
100
AcDbSpline
 70
8
 71
3
 72
8
 73
4
 74
0
 40
0.0
 40
0.0
 40
0.0
 40
0.0
 40
1.0
 40
1.0
 40
1.0
 40
1.0
 10
17.727226400116777
 20
46.768191950609094
 30
0.0
 10
18.10088840011678
 20
47.257564950609094
 30
0.0
 10
18.650375400116779
 20
47.525957950609097
 30
0.0
 10
19.241913400116779
 20
47.525957950609097
 30
0.0
  0
SPLINE
  5
1C7
  8
Layer_1
 62
1
420
16711680
370
-1
  6
ByLayer
100
AcDbEntity
100
AcDbSpline
 70
8
 71
3
 72
8
 73
4
 74
0
 40
0.0
 40
0.0
 40
0.0
 40
0.0
 40
1.0
 40
1.0
 40
1.0
 40
1.0
 10
19.241913400116779
 20
47.525957950609097
 30
0.0
 10
20.297142400116776
 20
47.525957950609097
 30
0.0
 10
21.156791400116781
 20
46.666873950609094
 30
0.0
 10
21.156791400116781
 20
45.611079950609096
 30
0.0
  0
SPLINE
  5
1C8
  8
Layer_1
 62
1
420
16711680
370
-1
  6
ByLayer
100
AcDbEntity
100
AcDbSpline
 70
8
 71
3
 72
8
 73
4
 74
0
 40
0.0
 40
0.0
 40
0.0
 40
0.0
 40
1.0
 40
1.0
 40
1.0
 40
1.0
 10
21.156791400116781
 20
45.611079950609096
 30
0.0
 10
21.156791400116781
 20
44.555286950609101
 30
0.0
 10
20.297424400116778
 20
43.696202950609099
 30
0.0
 10
19.241913400116779
 20
43.696202950609099
 30
0.0
  0
LWPOLYLINE
  5
1C9
  8
Layer_1
 62
1
420
16711680
370
-1
  6
ByLayer
100
AcDbEntity
100
AcDbPolyline
 90
2
 70
0
 10
17.734000400116777
 20
44.432237950609093
 10
17.727226400116777
 20
46.768191950609094
  0
LWPOLYLINE
  5
1CA
  8
Layer_1
 62
1
420
16711680
370
-1
  6
ByLayer
100
AcDbEntity
100
AcDbPolyline
 90
2
 70
0
 10
19.241913400116779
 20
43.696202950609099
 10
19.241913400116779
 20
43.696202950609099
  0
LWPOLYLINE
  5
1CB
  8
Layer_1
 62
1
420
16711680
370
-1
  6
ByLayer
100
AcDbEntity
100
AcDbPolyline
 90
66
 70
0
 10
17.968526400116779
 20
40.136251950609093
 10
17.231926400116777
 20
40.362028950609094
 10
17.023646400116782
 20
41.762415950609096
 10
17.10295140011678
 20
42.053104950609097
 10
17.463631400116775
 20
42.707859950609098
 10
16.730417400116778
 20
43.312662950609095
 10
16.183753400116778
 20
42.853486950609096
 10
15.883186400116777
 20
42.707295950609094
 10
14.470100400116777
 20
42.640973950609094
 10
14.108855400116781
 20
43.321693950609095
 10
14.97810040011678
 20
44.473724950609096
 10
15.214602400116782
 20
44.608908950609099
 10
15.931728400116775
 20
44.816624950609096
 10
15.840853400116778
 20
45.763197950609097
 10
15.129935400116779
 20
45.8247229506091
 10
14.814411400116775
 20
45.934506950609098
 10
13.768213400116778
 20
46.885595950609094
 10
13.99370840011678
 20
47.622759950609094
 10
15.394377400116781
 20
47.830757950609097
 10
15.68534840011678
 20
47.751735950609095
 10
16.33982240011678
 20
47.3910559506091
 10
16.944342400116774
 20
48.124833950609094
 10
16.485731400116777
 20
48.670651950609098
 10
16.33982240011678
 20
48.972064950609095
 10
16.272935400116779
 20
50.384022950609094
 10
16.954220400116775
 20
50.745548950609098
 10
18.106251400116776
 20
49.876868950609094
 10
18.240871400116781
 20
49.641495950609098
 10
18.449151400116776
 20
48.923804950609096
 10
19.395442400116778
 20
49.013833950609097
 10
19.456684400116778
 20
49.724468950609094
 10
19.566751400116779
 20
50.040839950609097
 10
20.518122400116781
 20
51.087037950609094
 10
21.254722400116776
 20
50.860977950609097
 10
21.46272040011678
 20
49.4605919506091
 10
21.38369740011678
 20
49.169619950609096
 10
21.02358240011678
 20
48.515146950609093
 10
21.757077400116778
 20
47.910344950609094
 10
22.302895400116778
 20
48.369519950609096
 10
22.603744400116778
 20
48.515146950609093
 10
24.016548400116779
 20
48.581751950609096
 10
24.377793400116779
 20
47.900748950609099
 10
23.50854840011678
 20
46.748999950609097
 10
23.273175400116777
 20
46.613815950609094
 10
22.555484400116779
 20
46.406099950609097
 10
22.645795400116778
 20
45.459526950609096
 10
23.356713400116778
 20
45.398002950609097
 10
23.67280240011678
 20
45.288217950609095
 10
24.718435400116778
 20
44.336564950609095
 10
24.49294040011678
 20
43.599682950609093
 10
23.092271400116779
 20
43.391966950609095
 10
22.801864400116777
 20
43.470988950609097
 10
22.147391400116778
 20
43.831386950609101
 10
21.542306400116779
 20
43.098455950609093
 10
22.000917400116776
 20
42.552637950609096
 10
22.14682640011678
 20
42.250942950609101
 10
22.213713400116777
 20
40.838702950609097
 10
21.53299340011678
 20
40.477457950609093
 10
20.380397400116777
 20
41.345855950609092
 10
20.245495400116777
 20
41.581793950609097
 10
20.038062400116779
 20
42.299766950609097
 10
19.091488400116781
 20
42.209455950609097
 10
19.030246400116781
 20
41.498537950609098
 10
18.919897400116781
 20
41.182166950609094
 10
17.968526400116779
 20
40.136251950609093
 10
17.968526400116779
 20
40.136251950609093
  0
SPLINE
  5
1CC
  8
Layer_1
 62
1
420
16711680
370
-1
  6
ByLayer
100
AcDbEntity
100
AcDbSpline
 70
8
 71
3
 72
8
 73
4
 74
0
 40
0.0
 40
0.0
 40
0.0
 40
0.0
 40
1.0
 40
1.0
 40
1.0
 40
1.0
 10
31.273387
 20
43.559950999999998
 30
0.0
 10
30.681567000000001
 20
43.559950999999998
 30
0.0
 10
30.132362000000001
 20
43.828344000000001
 30
0.0
 10
29.765473999999998
 20
44.295985999999999
 30
0.0
  0
SPLINE
  5
1CD
  8
Layer_1
 62
1
420
16711680
370
-1
  6
ByLayer
100
AcDbEntity
100
AcDbSpline
 70
8
 71
3
 72
8
 73
4
 74
0
 40
0.0
 40
0.0
 40
0.0
 40
0.0
 40
1.0
 40
1.0
 40
1.0
 40
1.0
 10
29.758699999999997
 20
46.63194
 30
0.0
 10
30.132362000000001
 20
47.121313000000001
 30
0.0
 10
30.681849
 20
47.389706000000004
 30
0.0
 10
31.273387
 20
47.389706000000004
 30
0.0
  0
SPLINE
  5
1CE
  8
Layer_1
 62
1
420
16711680
370
-1
  6
ByLayer
100
AcDbEntity
100
AcDbSpline
 70
8
 71
3
 72
8
 73
4
 74
0
 40
0.0
 40
0.0
 40
0.0
 40
0.0
 40
1.0
 40
1.0
 40
1.0
 40
1.0
 10
31.273387
 20
47.389706000000004
 30
0.0
 10
32.328615999999997
 20
47.389706000000004
 30
0.0
 10
33.188265000000001
 20
46.530621999999994
 30
0.0
 10
33.188265000000001
 20
45.474828000000002
 30
0.0
  0
SPLINE
  5
1CF
  8
Layer_1
 62
1
420
16711680
370
-1
  6
ByLayer
100
AcDbEntity
100
AcDbSpline
 70
8
 71
3
 72
8
 73
4
 74
0
 40
0.0
 40
0.0
 40
0.0
 40
0.0
 40
1.0
 40
1.0
 40
1.0
 40
1.0
 10
33.188265000000001
 20
45.474828000000002
 30
0.0
 10
33.188265000000001
 20
44.419035000000001
 30
0.0
 10
32.328897999999995
 20
43.559950999999998
 30
0.0
 10
31.273387
 20
43.559950999999998
 30
0.0
  0
LWPOLYLINE
  5
1D0
  8
Layer_1
 62
1
420
16711680
370
-1
  6
ByLayer
100
AcDbEntity
100
AcDbPolyline
 90
2
 70
0
 10
29.765473999999998
 20
44.295985999999999
 10
29.758699999999997
 20
46.63194
  0
LWPOLYLINE
  5
1D1
  8
Layer_1
 62
1
420
16711680
370
-1
  6
ByLayer
100
AcDbEntity
100
AcDbPolyline
 90
2
 70
0
 10
31.273387
 20
43.559950999999998
 10
31.273387
 20
43.559950999999998
  0
LWPOLYLINE
  5
1D2
  8
Layer_1
 62
1
420
16711680
370
-1
  6
ByLayer
100
AcDbEntity
100
AcDbPolyline
 90
66
 70
0
 10
30.0
 20
40.0
 10
29.263399999999997
 20
40.225777000000001
 10
29.055120000000002
 20
41.626164000000003
 10
29.134425
 20
41.916853000000003
 10
29.495104999999995
 20
42.571607999999998
 10
28.761890999999999
 20
43.176411000000002
 10
28.215226999999999
 20
42.717235000000002
 10
27.914659999999998
 20
42.571044000000001
 10
26.501573999999998
 20
42.504722000000001
 10
26.140329000000001
 20
43.185441999999995
 10
27.009574000000001
 20
44.337473000000003
 10
27.246076000000002
 20
44.472656999999998
 10
27.963201999999995
 20
44.680373000000003
 10
27.872326999999999
 20
45.626946000000004
 10
27.161408999999999
 20
45.688471
 10
26.845884999999996
 20
45.798254999999997
 10
25.799686999999999
 20
46.749343999999994
 10
26.025182000000001
 20
47.486508000000001
 10
27.425851000000002
 20
47.694506000000004
 10
27.716822000000001
 20
47.615483999999995
 10
28.371296000000001
 20
47.254804
 10
28.975815999999995
 20
47.988581999999994
 10
28.517204999999997
 20
48.534400000000005
 10
28.371296000000001
 20
48.835813000000002
 10
28.304409
 20
50.247771
 10
28.985693999999995
 20
50.609296999999998
 10
30.137724999999996
 20
49.740617
 10
30.272345000000001
 20
49.505244000000005
 10
30.480624999999996
 20
48.787553000000003
 10
31.426915999999999
 20
48.877582000000004
 10
31.488157999999999
 20
49.588217
 10
31.598224999999999
 20
49.904588000000004
 10
32.549596000000001
 20
50.950785999999994
 10
33.286195999999997
 20
50.724726000000004
 10
33.494194
 20
49.324339999999999
 10
33.415171000000001
 20
49.033367999999996
 10
33.055056
 20
48.378895
 10
33.788550999999998
 20
47.774092999999993
 10
34.334368999999995
 20
48.233267999999995
 10
34.635217999999995
 20
48.378895
 10
36.048022000000003
 20
48.445499999999996
 10
36.409267
 20
47.764497000000006
 10
35.540022
 20
46.612747999999996
 10
35.304648999999998
 20
46.477564000000001
 10
34.586957999999996
 20
46.269847999999996
 10
34.677268999999995
 20
45.323274999999995
 10
35.388187000000002
 20
45.261751000000004
 10
35.704276
 20
45.151966000000002
 10
36.749909000000002
 20
44.200312999999994
 10
36.524414
 20
43.463431
 10
35.123745
 20
43.255714999999995
 10
34.833337999999998
 20
43.334737000000004
 10
34.178865000000002
 20
43.695135000000001
 10
33.573779999999999
 20
42.962204
 10
34.032390999999997
 20
42.416386000000003
 10
34.1783
 20
42.114691000000001
 10
34.245187000000001
 20
40.702450999999996
 10
33.564467
 20
40.341206
 10
32.411870999999998
 20
41.209603999999999
 10
32.276968999999994
 20
41.445542000000003
 10
32.069535999999999
 20
42.163515000000004
 10
31.122962000000001
 20
42.073204000000004
 10
31.061720000000001
 20
41.362285999999997
 10
30.951371000000002
 20
41.045915000000001
 10
30.0
 20
40.0
 10
30.0
 20
40.0
  0
SPLINE
  5
1D3
  8
Layer_1
 62
1
420
16711680
370
-1
  6
ByLayer
100
AcDbEntity
100
AcDbSpline
 70
8
 71
3
 72
8
 73
4
 74
0
 40
0.0
 40
0.0
 40
0.0
 40
0.0
 40
1.0
 40
1.0
 40
1.0
 40
1.0
 10
44.473700000000001
 20
42.810607000000005
 30
0.0
 10
43.881880000000002
 20
42.810607000000005
 30
0.0
 10
43.332675000000002
 20
43.079000000000008
 30
0.0
 10
42.965786999999999
 20
43.546642000000006
 30
0.0
  0
SPLINE
  5
1D4
  8
Layer_1
 62
1
420
16711680
370
-1
  6
ByLayer
100
AcDbEntity
100
AcDbSpline
 70
8
 71
3
 72
8
 73
4
 74
0
 40
0.0
 40
0.0
 40
0.0
 40
0.0
 40
1.0
 40
1.0
 40
1.0
 40
1.0
 10
42.959012999999999
 20
45.882596000000007
 30
0.0
 10
43.332675000000002
 20
46.371969000000007
 30
0.0
 10
43.882162000000001
 20
46.64036200000001
 30
0.0
 10
44.473700000000001
 20
46.64036200000001
 30
0.0
  0
SPLINE
  5
1D5
  8
Layer_1
 62
1
420
16711680
370
-1
  6
ByLayer
100
AcDbEntity
100
AcDbSpline
 70
8
 71
3
 72
8
 73
4
 74
0
 40
0.0
 40
0.0
 40
0.0
 40
0.0
 40
1.0
 40
1.0
 40
1.0
 40
1.0
 10
44.473700000000001
 20
46.64036200000001
 30
0.0
 10
45.528928999999998
 20
46.64036200000001
 30
0.0
 10
46.388578000000003
 20
45.781278
 30
0.0
 10
46.388578000000003
 20
44.725484000000009
 30
0.0
  0
SPLINE
  5
1D6
  8
Layer_1
 62
1
420
16711680
370
-1
  6
ByLayer
100
AcDbEntity
100
AcDbSpline
 70
8
 71
3
 72
8
 73
4
 74
0
 40
0.0
 40
0.0
 40
0.0
 40
0.0
 40
1.0
 40
1.0
 40
1.0
 40
1.0
 10
46.388578000000003
 20
44.725484000000009
 30
0.0
 10
46.388578000000003
 20
43.669691000000007
 30
0.0
 10
45.529210999999997
 20
42.810607000000005
 30
0.0
 10
44.473700000000001
 20
42.810607000000005
 30
0.0
  0
LWPOLYLINE
  5
1D7
  8
Layer_1
 62
1
420
16711680
370
-1
  6
ByLayer
100
AcDbEntity
100
AcDbPolyline
 90
2
 70
0
 10
42.965786999999999
 20
43.546642000000006
 10
42.959012999999999
 20
45.882596000000007
  0
LWPOLYLINE
  5
1D8
  8
Layer_1
 62
1
420
16711680
370
-1
  6
ByLayer
100
AcDbEntity
100
AcDbPolyline
 90
2
 70
0
 10
44.473700000000001
 20
42.810607000000005
 10
44.473700000000001
 20
42.810607000000005
  0
LWPOLYLINE
  5
1D9
  8
Layer_1
 62
1
420
16711680
370
-1
  6
ByLayer
100
AcDbEntity
100
AcDbPolyline
 90
66
 70
0
 10
43.200313000000001
 20
39.250656000000006
 10
42.463712999999998
 20
39.476433000000007
 10
42.255433000000004
 20
40.876820000000009
 10
42.334738000000002
 20
41.16750900000001
 10
42.695417999999997
 20
41.822264000000004
 10
41.962204
 20
42.427067000000008
 10
41.41554
 20
41.967891000000009
 10
41.114972999999999
 20
41.821700000000007
 10
39.701886999999999
 20
41.755378000000007
 10
39.340642000000003
 20
42.436098000000001
 10
40.209887000000002
 20
43.588129000000009
 10
40.446389000000003
 20
43.723313000000005
 10
41.163514999999997
 20
43.931029000000009
 10
41.07264
 20
44.87760200000001
 10
40.361722
 20
44.939127000000006
 10
40.046197999999997
 20
45.048911000000004
 10
39.0
 20
46.0
 10
39.225495000000002
 20
46.737164000000007
 10
40.626164000000003
 20
46.94516200000001
 10
40.917135000000002
 20
46.866140000000001
 10
41.571609000000002
 20
46.505460000000006
 10
42.176128999999996
 20
47.239238
 10
41.717517999999998
 20
47.785056000000012
 10
41.571609000000002
 20
48.086469000000008
 10
41.504722000000001
 20
49.498427000000007
 10
42.186006999999996
 20
49.859953000000004
 10
43.338037999999997
 20
48.991273000000007
 10
43.472658000000003
 20
48.755900000000011
 10
43.680937999999998
 20
48.038209000000009
 10
44.627229
 20
48.12823800000001
 10
44.688471
 20
48.838873000000007
 10
44.798538000000001
 20
49.15524400000001
 10
45.749909000000002
 20
50.201442
 10
46.486508999999998
 20
49.97538200000001
 10
46.694507000000002
 20
48.574996000000006
 10
46.615484000000002
 20
48.284024000000002
 10
46.255369000000002
 20
47.629551000000006
 10
46.988864
 20
47.024749
 10
47.534681999999997
 20
47.483924000000002
 10
47.835530999999996
 20
47.629551000000006
 10
49.248335000000004
 20
47.696156000000002
 10
49.609580000000001
 20
47.015153000000012
 10
48.740335000000002
 20
45.863404000000003
 10
48.504961999999999
 20
45.728220000000007
 10
47.787270999999997
 20
45.520504000000003
 10
47.877581999999997
 20
44.573931000000002
 10
48.588500000000003
 20
44.51240700000001
 10
48.904589000000001
 20
44.402622000000008
 10
49.950222000000004
 20
43.450969000000001
 10
49.724727000000001
 20
42.714087000000006
 10
48.324058000000001
 20
42.506371000000001
 10
48.033650999999999
 20
42.58539300000001
 10
47.379178000000003
 20
42.945791000000007
 10
46.774093000000001
 20
42.212860000000006
 10
47.232703999999998
 20
41.667042000000009
 10
47.378613000000001
 20
41.365347000000007
 10
47.445500000000003
 20
39.953107000000003
 10
46.764780000000002
 20
39.591862000000006
 10
45.612183999999999
 20
40.460260000000005
 10
45.477281999999995
 20
40.69619800000001
 10
45.269849000000001
 20
41.41417100000001
 10
44.323275000000002
 20
41.32386000000001
 10
44.262033000000002
 20
40.612942000000004
 10
44.151684000000003
 20
40.296571000000007
 10
43.200313000000001
 20
39.250656000000006
 10
43.200313000000001
 20
39.250656000000006
  0
SPLINE
  5
1DA
  8
Layer_1
 62
1
420
16711680
370
-1
  6
ByLayer
100
AcDbEntity
100
AcDbSpline
 70
8
 71
3
 72
8
 73
4
 74
0
 40
0.0
 40
0.0
 40
0.0
 40
0.0
 40
1.0
 40
1.0
 40
1.0
 40
1.0
 10
42.783844004115451
 20
31.54823187720563
 30
0.0
 10
42.004347004115445
 20
31.54823187720563
 30
0.0
 10
41.370476004115446
 20
32.182666877205627
 30
0.0
 10
41.370476004115453
 20
32.961600877205619
 30
0.0
  0
SPLINE
  5
1DB
  8
Layer_1
 62
1
420
16711680
370
-1
  6
ByLayer
100
AcDbEntity
100
AcDbSpline
 70
8
 71
3
 72
8
 73
4
 74
0
 40
0.0
 40
0.0
 40
0.0
 40
0.0
 40
1.0
 40
1.0
 40
1.0
 40
1.0
 10
41.410269004115449
 20
33.668284877205615
 30
0.0
 10
42.027771004115451
 20
33.668284877205615
 30
0.0
 10
42.530127004115457
 20
34.170357877205625
 30
0.0
 10
42.530127004115442
 20
34.78870687720562
 30
0.0
  0
SPLINE
  5
1DC
  8
Layer_1
 62
1
420
16711680
370
-1
  6
ByLayer
100
AcDbEntity
100
AcDbSpline
 70
8
 71
3
 72
8
 73
4
 74
0
 40
0.0
 40
0.0
 40
0.0
 40
0.0
 40
1.0
 40
1.0
 40
1.0
 40
1.0
 10
42.530127004115442
 20
34.78870687720562
 30
0.0
 10
42.530127004115457
 20
35.405926877205623
 30
0.0
 10
42.027771004115451
 20
35.908564877205627
 30
0.0
 10
41.410269004115456
 20
35.908564877205627
 30
0.0
  0
LWPOLYLINE
  5
1DD
  8
Layer_1
 62
1
420
16711680
370
-1
  6
ByLayer
100
AcDbEntity
100
AcDbPolyline
 90
3
 70
0
 10
41.370476004115453
 20
32.961600877205619
 10
41.370476004115446
 20
33.668284877205615
 10
41.410269004115449
 20
33.668284877205615
  0
SPLINE
  5
1DE
  8
Layer_1
 62
1
420
16711680
370
-1
  6
ByLayer
100
AcDbEntity
100
AcDbSpline
 70
8
 71
3
 72
8
 73
4
 74
0
 40
0.0
 40
0.0
 40
0.0
 40
0.0
 40
1.0
 40
1.0
 40
1.0
 40
1.0
 10
41.370476004115446
 20
36.615248877205623
 30
0.0
 10
41.370476004115446
 20
37.394182877205616
 30
0.0
 10
42.004347004115452
 20
38.028053877205615
 30
0.0
 10
42.783844004115451
 20
38.028053877205615
 30
0.0
  0
LWPOLYLINE
  5
1DF
  8
Layer_1
 62
1
420
16711680
370
-1
  6
ByLayer
100
AcDbEntity
100
AcDbPolyline
 90
3
 70
0
 10
41.410269004115456
 20
35.908564877205627
 10
41.370476004115446
 20
35.908564877205627
 10
41.370476004115446
 20
36.615248877205623
  0
SPLINE
  5
1E0
  8
Layer_1
 62
1
420
16711680
370
-1
  6
ByLayer
100
AcDbEntity
100
AcDbSpline
 70
8
 71
3
 72
8
 73
4
 74
0
 40
0.0
 40
0.0
 40
0.0
 40
0.0
 40
1.0
 40
1.0
 40
1.0
 40
1.0
 10
48.036282004115485
 20
38.028053877205615
 30
0.0
 10
48.815498004115426
 20
38.028053877205615
 30
0.0
 10
49.44993300402507
 20
37.394182877205616
 30
0.0
 10
49.449933003869042
 20
36.615248877205623
 30
0.0
  0
LWPOLYLINE
  5
1E1
  8
Layer_1
 62
1
420
16711680
370
-1
  6
ByLayer
100
AcDbEntity
100
AcDbPolyline
 90
2
 70
0
 10
42.783844004115451
 20
38.028053877205615
 10
48.036282004115485
 20
38.028053877205615
  0
SPLINE
  5
1E2
  8
Layer_1
 62
1
420
16711680
370
-1
  6
ByLayer
100
AcDbEntity
100
AcDbSpline
 70
8
 71
3
 72
8
 73
4
 74
0
 40
0.0
 40
0.0
 40
0.0
 40
0.0
 40
1.0
 40
1.0
 40
1.0
 40
1.0
 10
49.410140004116101
 20
35.908564877205627
 30
0.0
 10
48.792356004115483
 20
35.908564877205627
 30
0.0
 10
48.290000004115448
 20
35.405926877205623
 30
0.0
 10
48.290000004115456
 20
34.78870687720562
 30
0.0
  0
SPLINE
  5
1E3
  8
Layer_1
 62
1
420
16711680
370
-1
  6
ByLayer
100
AcDbEntity
100
AcDbSpline
 70
8
 71
3
 72
8
 73
4
 74
0
 40
0.0
 40
0.0
 40
0.0
 40
0.0
 40
1.0
 40
1.0
 40
1.0
 40
1.0
 10
48.290000004115456
 20
34.78870687720562
 30
0.0
 10
48.290000004115434
 20
34.170640877205621
 30
0.0
 10
48.79207300411548
 20
33.668284877205615
 30
0.0
 10
49.410140004116386
 20
33.668284877205615
 30
0.0
  0
LWPOLYLINE
  5
1E4
  8
Layer_1
 62
1
420
16711680
370
-1
  6
ByLayer
100
AcDbEntity
100
AcDbPolyline
 90
3
 70
0
 10
49.449933003869042
 20
36.615248877205623
 10
49.449933003985329
 20
35.908564877205627
 10
49.410140004116101
 20
35.908564877205627
  0
SPLINE
  5
1E5
  8
Layer_1
 62
1
420
16711680
370
-1
  6
ByLayer
100
AcDbEntity
100
AcDbSpline
 70
8
 71
3
 72
8
 73
4
 74
0
 40
0.0
 40
0.0
 40
0.0
 40
0.0
 40
1.0
 40
1.0
 40
1.0
 40
1.0
 10
49.449933004083348
 20
32.961600877205619
 30
0.0
 10
49.449933004020345
 20
32.182666877205627
 30
0.0
 10
48.815498004115433
 20
31.54823187720563
 30
0.0
 10
48.036282004115463
 20
31.54823187720563
 30
0.0
  0
SPLINE
  5
1E6
  8
Layer_1
 62
1
420
16711680
370
-1
  6
ByLayer
100
AcDbEntity
100
AcDbSpline
 70
8
 71
3
 72
8
 73
4
 74
0
 40
0.0
 40
0.0
 40
0.0
 40
0.0
 40
1.0
 40
1.0
 40
1.0
 40
1.0
 10
45.410204004115457
 20
33.788511877205615
 30
0.0
 10
44.858178004115437
 20
33.788511877205615
 30
0.0
 10
44.41029100411545
 20
34.235833877205629
 30
0.0
 10
44.41029100411545
 20
34.788424877205621
 30
0.0
  0
SPLINE
  5
1E7
  8
Layer_1
 62
1
420
16711680
370
-1
  6
ByLayer
100
AcDbEntity
100
AcDbSpline
 70
8
 71
3
 72
8
 73
4
 74
0
 40
0.0
 40
0.0
 40
0.0
 40
0.0
 40
1.0
 40
1.0
 40
1.0
 40
1.0
 10
44.41029100411545
 20
34.788424877205621
 30
0.0
 10
44.41029100411545
 20
35.34016887720562
 30
0.0
 10
44.858178004115452
 20
35.788055877205629
 30
0.0
 10
45.410204004115457
 20
35.788055877205629
 30
0.0
  0
SPLINE
  5
1E8
  8
Layer_1
 62
1
420
16711680
370
-1
  6
ByLayer
100
AcDbEntity
100
AcDbSpline
 70
8
 71
3
 72
8
 73
4
 74
0
 40
0.0
 40
0.0
 40
0.0
 40
0.0
 40
1.0
 40
1.0
 40
1.0
 40
1.0
 10
45.410204004115457
 20
35.788055877205629
 30
0.0
 10
45.962513004115458
 20
35.788055877205629
 30
0.0
 10
46.410400004115445
 20
35.34016887720562
 30
0.0
 10
46.410400004115431
 20
34.788424877205621
 30
0.0
  0
SPLINE
  5
1E9
  8
Layer_1
 62
1
420
16711680
370
-1
  6
ByLayer
100
AcDbEntity
100
AcDbSpline
 70
8
 71
3
 72
8
 73
4
 74
0
 40
0.0
 40
0.0
 40
0.0
 40
0.0
 40
1.0
 40
1.0
 40
1.0
 40
1.0
 10
46.410400004115431
 20
34.788424877205621
 30
0.0
 10
46.410400004115466
 20
34.235833877205629
 30
0.0
 10
45.962513004115458
 20
33.788511877205615
 30
0.0
 10
45.410204004115457
 20
33.788511877205615
 30
0.0
  0
LWPOLYLINE
  5
1EA
  8
Layer_1
 62
1
420
16711680
370
-1
  6
ByLayer
100
AcDbEntity
100
AcDbPolyline
 90
3
 70
0
 10
49.410140004116386
 20
33.668284877205615
 10
49.449933004224505
 20
33.668284877205615
 10
49.449933004083348
 20
32.961600877205619
  0
SPLINE
  5
1EB
  8
Layer_1
 62
1
420
16711680
370
-1
  6
ByLayer
100
AcDbEntity
100
AcDbSpline
 70
8
 71
3
 72
8
 73
4
 74
0
 40
0.0
 40
0.0
 40
0.0
 40
0.0
 40
1.0
 40
1.0
 40
1.0
 40
1.0
 10
42.783844004115444
 20
25.068126877205621
 30
0.0
 10
42.004347004115445
 20
25.068126877205621
 30
0.0
 10
41.370476004115446
 20
25.702562877205615
 30
0.0
 10
41.370476004115446
 20
26.481495877205624
 30
0.0
  0
LWPOLYLINE
  5
1EC
  8
Layer_1
 62
1
420
16711680
370
-1
  6
ByLayer
100
AcDbEntity
100
AcDbPolyline
 90
2
 70
0
 10
45.410204004115457
 20
33.788511877205615
 10
45.410204004115457
 20
33.788511877205615
  0
SPLINE
  5
1ED
  8
Layer_1
 62
1
420
16711680
370
-1
  6
ByLayer
100
AcDbEntity
100
AcDbSpline
 70
8
 71
3
 72
8
 73
4
 74
0
 40
0.0
 40
0.0
 40
0.0
 40
0.0
 40
1.0
 40
1.0
 40
1.0
 40
1.0
 10
41.410269004115449
 20
27.188180877205617
 30
0.0
 10
42.027771004115451
 20
27.188180877205617
 30
0.0
 10
42.53012700411545
 20
27.690817877205625
 30
0.0
 10
42.530127004115457
 20
28.308602877205622
 30
0.0
  0
SPLINE
  5
1EE
  8
Layer_1
 62
1
420
16711680
370
-1
  6
ByLayer
100
AcDbEntity
100
AcDbSpline
 70
8
 71
3
 72
8
 73
4
 74
0
 40
0.0
 40
0.0
 40
0.0
 40
0.0
 40
1.0
 40
1.0
 40
1.0
 40
1.0
 10
42.530127004115457
 20
28.308602877205622
 30
0.0
 10
42.53012700411545
 20
28.925822877205626
 30
0.0
 10
42.027771004115458
 20
29.428460877205616
 30
0.0
 10
41.410269004115442
 20
29.428460877205616
 30
0.0
  0
LWPOLYLINE
  5
1EF
  8
Layer_1
 62
1
420
16711680
370
-1
  6
ByLayer
100
AcDbEntity
100
AcDbPolyline
 90
3
 70
0
 10
41.370476004115446
 20
26.481495877205624
 10
41.370476004115446
 20
27.188180877205617
 10
41.410269004115449
 20
27.188180877205617
  0
SPLINE
  5
1F0
  8
Layer_1
 62
1
420
16711680
370
-1
  6
ByLayer
100
AcDbEntity
100
AcDbSpline
 70
8
 71
3
 72
8
 73
4
 74
0
 40
0.0
 40
0.0
 40
0.0
 40
0.0
 40
1.0
 40
1.0
 40
1.0
 40
1.0
 10
41.370476004115453
 20
30.135144877205626
 30
0.0
 10
41.370476004115446
 20
30.914077877205621
 30
0.0
 10
42.004347004115452
 20
31.548513877205629
 30
0.0
 10
42.783844004115451
 20
31.548513877205629
 30
0.0
  0
LWPOLYLINE
  5
1F1
  8
Layer_1
 62
1
420
16711680
370
-1
  6
ByLayer
100
AcDbEntity
100
AcDbPolyline
 90
3
 70
0
 10
41.410269004115442
 20
29.428460877205616
 10
41.370476004115446
 20
29.428460877205616
 10
41.370476004115453
 20
30.135144877205626
  0
SPLINE
  5
1F2
  8
Layer_1
 62
1
420
16711680
370
-1
  6
ByLayer
100
AcDbEntity
100
AcDbSpline
 70
8
 71
3
 72
8
 73
4
 74
0
 40
0.0
 40
0.0
 40
0.0
 40
0.0
 40
1.0
 40
1.0
 40
1.0
 40
1.0
 10
48.036282004115478
 20
31.548513877205629
 30
0.0
 10
48.815498004115533
 20
31.548513877205629
 30
0.0
 10
49.449933004091285
 20
30.914077877205621
 30
0.0
 10
49.449933004232143
 20
30.135144877205626
 30
0.0
  0
LWPOLYLINE
  5
1F3
  8
Layer_1
 62
1
420
16711680
370
-1
  6
ByLayer
100
AcDbEntity
100
AcDbPolyline
 90
2
 70
0
 10
42.783844004115451
 20
31.548513877205629
 10
48.036282004115478
 20
31.548513877205629
  0
SPLINE
  5
1F4
  8
Layer_1
 62
1
420
16711680
370
-1
  6
ByLayer
100
AcDbEntity
100
AcDbSpline
 70
8
 71
3
 72
8
 73
4
 74
0
 40
0.0
 40
0.0
 40
0.0
 40
0.0
 40
1.0
 40
1.0
 40
1.0
 40
1.0
 10
49.410140004114879
 20
29.428460877205616
 30
0.0
 10
48.792356004115447
 20
29.428460877205616
 30
0.0
 10
48.290000004115441
 20
28.925822877205626
 30
0.0
 10
48.290000004115441
 20
28.308602877205622
 30
0.0
  0
SPLINE
  5
1F5
  8
Layer_1
 62
1
420
16711680
370
-1
  6
ByLayer
100
AcDbEntity
100
AcDbSpline
 70
8
 71
3
 72
8
 73
4
 74
0
 40
0.0
 40
0.0
 40
0.0
 40
0.0
 40
1.0
 40
1.0
 40
1.0
 40
1.0
 10
48.290000004115441
 20
28.308602877205622
 30
0.0
 10
48.290000004115456
 20
27.691100877205621
 30
0.0
 10
48.792073004115451
 20
27.188180877205617
 30
0.0
 10
49.410140004115448
 20
27.188180877205617
 30
0.0
  0
LWPOLYLINE
  5
1F6
  8
Layer_1
 62
1
420
16711680
370
-1
  6
ByLayer
100
AcDbEntity
100
AcDbPolyline
 90
3
 70
0
 10
49.449933004232143
 20
30.135144877205626
 10
49.449933004186711
 20
29.428460877205616
 10
49.410140004114879
 20
29.428460877205616
  0
SPLINE
  5
1F7
  8
Layer_1
 62
1
420
16711680
370
-1
  6
ByLayer
100
AcDbEntity
100
AcDbSpline
 70
8
 71
3
 72
8
 73
4
 74
0
 40
0.0
 40
0.0
 40
0.0
 40
0.0
 40
1.0
 40
1.0
 40
1.0
 40
1.0
 10
49.449933004130258
 20
26.481495877205624
 30
0.0
 10
49.44993300414037
 20
25.702562877205615
 30
0.0
 10
48.815498004115419
 20
25.068126877205621
 30
0.0
 10
48.036282004115442
 20
25.068126877205621
 30
0.0
  0
SPLINE
  5
1F8
  8
Layer_1
 62
1
420
16711680
370
-1
  6
ByLayer
100
AcDbEntity
100
AcDbSpline
 70
8
 71
3
 72
8
 73
4
 74
0
 40
0.0
 40
0.0
 40
0.0
 40
0.0
 40
1.0
 40
1.0
 40
1.0
 40
1.0
 10
45.41020400411545
 20
27.30840687720562
 30
0.0
 10
44.858178004115445
 20
27.30840687720562
 30
0.0
 10
44.41029100411545
 20
27.755446877205621
 30
0.0
 10
44.41029100411545
 20
28.308320877205624
 30
0.0
  0
SPLINE
  5
1F9
  8
Layer_1
 62
1
420
16711680
370
-1
  6
ByLayer
100
AcDbEntity
100
AcDbSpline
 70
8
 71
3
 72
8
 73
4
 74
0
 40
0.0
 40
0.0
 40
0.0
 40
0.0
 40
1.0
 40
1.0
 40
1.0
 40
1.0
 10
44.41029100411545
 20
28.308320877205624
 30
0.0
 10
44.410291004115457
 20
28.860064877205623
 30
0.0
 10
44.858178004115452
 20
29.307668877205622
 30
0.0
 10
45.410204004115457
 20
29.307668877205622
 30
0.0
  0
SPLINE
  5
1FA
  8
Layer_1
 62
1
420
16711680
370
-1
  6
ByLayer
100
AcDbEntity
100
AcDbSpline
 70
8
 71
3
 72
8
 73
4
 74
0
 40
0.0
 40
0.0
 40
0.0
 40
0.0
 40
1.0
 40
1.0
 40
1.0
 40
1.0
 10
45.410204004115457
 20
29.307668877205622
 30
0.0
 10
45.962513004115451
 20
29.307668877205622
 30
0.0
 10
46.410400004115452
 20
28.860064877205623
 30
0.0
 10
46.410400004115452
 20
28.308320877205624
 30
0.0
  0
SPLINE
  5
1FB
  8
Layer_1
 62
1
420
16711680
370
-1
  6
ByLayer
100
AcDbEntity
100
AcDbSpline
 70
8
 71
3
 72
8
 73
4
 74
0
 40
0.0
 40
0.0
 40
0.0
 40
0.0
 40
1.0
 40
1.0
 40
1.0
 40
1.0
 10
46.410400004115452
 20
28.308320877205624
 30
0.0
 10
46.410400004115438
 20
27.755446877205621
 30
0.0
 10
45.962513004115451
 20
27.30840687720562
 30
0.0
 10
45.41020400411545
 20
27.30840687720562
 30
0.0
  0
LWPOLYLINE
  5
1FC
  8
Layer_1
 62
1
420
16711680
370
-1
  6
ByLayer
100
AcDbEntity
100
AcDbPolyline
 90
3
 70
0
 10
49.410140004115448
 20
27.188180877205617
 10
49.449933004113653
 20
27.188180877205617
 10
49.449933004130258
 20
26.481495877205624
  0
SPLINE
  5
1FD
  8
Layer_1
 62
1
420
16711680
370
-1
  6
ByLayer
100
AcDbEntity
100
AcDbSpline
 70
8
 71
3
 72
8
 73
4
 74
0
 40
0.0
 40
0.0
 40
0.0
 40
0.0
 40
1.0
 40
1.0
 40
1.0
 40
1.0
 10
42.783844004115451
 20
18.588586877205621
 30
0.0
 10
42.004347004115445
 20
18.588586877205621
 30
0.0
 10
41.370476004115446
 20
19.22245787720562
 30
0.0
 10
41.370476004115446
 20
20.001391877205627
 30
0.0
  0
LWPOLYLINE
  5
1FE
  8
Layer_1
 62
1
420
16711680
370
-1
  6
ByLayer
100
AcDbEntity
100
AcDbPolyline
 90
2
 70
0
 10
45.41020400411545
 20
27.30840687720562
 10
45.41020400411545
 20
27.30840687720562
  0
SPLINE
  5
1FF
  8
Layer_1
 62
1
420
16711680
370
-1
  6
ByLayer
100
AcDbEntity
100
AcDbSpline
 70
8
 71
3
 72
8
 73
4
 74
0
 40
0.0
 40
0.0
 40
0.0
 40
0.0
 40
1.0
 40
1.0
 40
1.0
 40
1.0
 10
41.410269004115449
 20
20.708075877205623
 30
0.0
 10
42.027771004115451
 20
20.708075877205623
 30
0.0
 10
42.53012700411545
 20
21.210713877205627
 30
0.0
 10
42.53012700411545
 20
21.828497877205628
 30
0.0
  0
SPLINE
  5
200
  8
Layer_1
 62
1
420
16711680
370
-1
  6
ByLayer
100
AcDbEntity
100
AcDbSpline
 70
8
 71
3
 72
8
 73
4
 74
0
 40
0.0
 40
0.0
 40
0.0
 40
0.0
 40
1.0
 40
1.0
 40
1.0
 40
1.0
 10
42.53012700411545
 20
21.828497877205628
 30
0.0
 10
42.530127004115457
 20
22.446282877205626
 30
0.0
 10
42.027771004115451
 20
22.948073877205623
 30
0.0
 10
41.410269004115449
 20
22.948073877205623
 30
0.0
  0
LWPOLYLINE
  5
201
  8
Layer_1
 62
1
420
16711680
370
-1
  6
ByLayer
100
AcDbEntity
100
AcDbPolyline
 90
3
 70
0
 10
41.370476004115446
 20
20.001391877205627
 10
41.370476004115446
 20
20.708075877205623
 10
41.410269004115449
 20
20.708075877205623
  0
SPLINE
  5
202
  8
Layer_1
 62
1
420
16711680
370
-1
  6
ByLayer
100
AcDbEntity
100
AcDbSpline
 70
8
 71
3
 72
8
 73
4
 74
0
 40
0.0
 40
0.0
 40
0.0
 40
0.0
 40
1.0
 40
1.0
 40
1.0
 40
1.0
 10
41.370476004115446
 20
23.655040877205629
 30
0.0
 10
41.370476004115453
 20
24.433973877205624
 30
0.0
 10
42.004347004115445
 20
25.06840887720562
 30
0.0
 10
42.783844004115451
 20
25.06840887720562
 30
0.0
  0
LWPOLYLINE
  5
203
  8
Layer_1
 62
1
420
16711680
370
-1
  6
ByLayer
100
AcDbEntity
100
AcDbPolyline
 90
3
 70
0
 10
41.410269004115449
 20
22.948073877205623
 10
41.370476004115446
 20
22.948073877205623
 10
41.370476004115446
 20
23.655040877205629
  0
SPLINE
  5
204
  8
Layer_1
 62
1
420
16711680
370
-1
  6
ByLayer
100
AcDbEntity
100
AcDbSpline
 70
8
 71
3
 72
8
 73
4
 74
0
 40
0.0
 40
0.0
 40
0.0
 40
0.0
 40
1.0
 40
1.0
 40
1.0
 40
1.0
 10
48.036282004115442
 20
25.06840887720562
 30
0.0
 10
48.815498004115469
 20
25.06840887720562
 30
0.0
 10
49.449933004118314
 20
24.433973877205624
 30
0.0
 10
49.449933004082055
 20
23.655040877205629
 30
0.0
  0
LWPOLYLINE
  5
205
  8
Layer_1
 62
1
420
16711680
370
-1
  6
ByLayer
100
AcDbEntity
100
AcDbPolyline
 90
2
 70
0
 10
42.783844004115451
 20
25.06840887720562
 10
48.036282004115442
 20
25.06840887720562
  0
SPLINE
  5
206
  8
Layer_1
 62
1
420
16711680
370
-1
  6
ByLayer
100
AcDbEntity
100
AcDbSpline
 70
8
 71
3
 72
8
 73
4
 74
0
 40
0.0
 40
0.0
 40
0.0
 40
0.0
 40
1.0
 40
1.0
 40
1.0
 40
1.0
 10
49.41014000411554
 20
22.948073877205623
 30
0.0
 10
48.792356004115462
 20
22.948073877205623
 30
0.0
 10
48.290000004115448
 20
22.446282877205626
 30
0.0
 10
48.290000004115456
 20
21.828497877205628
 30
0.0
  0
SPLINE
  5
207
  8
Layer_1
 62
1
420
16711680
370
-1
  6
ByLayer
100
AcDbEntity
100
AcDbSpline
 70
8
 71
3
 72
8
 73
4
 74
0
 40
0.0
 40
0.0
 40
0.0
 40
0.0
 40
1.0
 40
1.0
 40
1.0
 40
1.0
 10
48.290000004115456
 20
21.828497877205628
 30
0.0
 10
48.290000004115448
 20
21.210713877205627
 30
0.0
 10
48.792073004115451
 20
20.708075877205623
 30
0.0
 10
49.410140004115462
 20
20.708075877205623
 30
0.0
  0
LWPOLYLINE
  5
208
  8
Layer_1
 62
1
420
16711680
370
-1
  6
ByLayer
100
AcDbEntity
100
AcDbPolyline
 90
3
 70
0
 10
49.449933004082055
 20
23.655040877205629
 10
49.449933004158915
 20
22.948073877205623
 10
49.41014000411554
 20
22.948073877205623
  0
SPLINE
  5
209
  8
Layer_1
 62
1
420
16711680
370
-1
  6
ByLayer
100
AcDbEntity
100
AcDbSpline
 70
8
 71
3
 72
8
 73
4
 74
0
 40
0.0
 40
0.0
 40
0.0
 40
0.0
 40
1.0
 40
1.0
 40
1.0
 40
1.0
 10
49.449933004112225
 20
20.001391877205627
 30
0.0
 10
49.449933004112864
 20
19.22245787720562
 30
0.0
 10
48.815498004115447
 20
18.588586877205621
 30
0.0
 10
48.036282004115449
 20
18.588586877205621
 30
0.0
  0
SPLINE
  5
20A
  8
Layer_1
 62
1
420
16711680
370
-1
  6
ByLayer
100
AcDbEntity
100
AcDbSpline
 70
8
 71
3
 72
8
 73
4
 74
0
 40
0.0
 40
0.0
 40
0.0
 40
0.0
 40
1.0
 40
1.0
 40
1.0
 40
1.0
 10
45.41020400411545
 20
20.828302877205623
 30
0.0
 10
44.858178004115445
 20
20.828302877205623
 30
0.0
 10
44.410291004115457
 20
21.275624877205622
 30
0.0
 10
44.41029100411545
 20
21.828215877205615
 30
0.0
  0
SPLINE
  5
20B
  8
Layer_1
 62
1
420
16711680
370
-1
  6
ByLayer
100
AcDbEntity
100
AcDbSpline
 70
8
 71
3
 72
8
 73
4
 74
0
 40
0.0
 40
0.0
 40
0.0
 40
0.0
 40
1.0
 40
1.0
 40
1.0
 40
1.0
 10
44.41029100411545
 20
21.828215877205615
 30
0.0
 10
44.41029100411545
 20
22.379960877205626
 30
0.0
 10
44.858178004115445
 20
22.827846877205623
 30
0.0
 10
45.41020400411545
 20
22.827846877205623
 30
0.0
  0
SPLINE
  5
20C
  8
Layer_1
 62
1
420
16711680
370
-1
  6
ByLayer
100
AcDbEntity
100
AcDbSpline
 70
8
 71
3
 72
8
 73
4
 74
0
 40
0.0
 40
0.0
 40
0.0
 40
0.0
 40
1.0
 40
1.0
 40
1.0
 40
1.0
 10
45.41020400411545
 20
22.827846877205623
 30
0.0
 10
45.962513004115451
 20
22.827846877205623
 30
0.0
 10
46.410400004115445
 20
22.379960877205626
 30
0.0
 10
46.410400004115445
 20
21.828215877205615
 30
0.0
  0
SPLINE
  5
20D
  8
Layer_1
 62
1
420
16711680
370
-1
  6
ByLayer
100
AcDbEntity
100
AcDbSpline
 70
8
 71
3
 72
8
 73
4
 74
0
 40
0.0
 40
0.0
 40
0.0
 40
0.0
 40
1.0
 40
1.0
 40
1.0
 40
1.0
 10
46.410400004115445
 20
21.828215877205615
 30
0.0
 10
46.410400004115445
 20
21.275624877205622
 30
0.0
 10
45.962513004115451
 20
20.828302877205623
 30
0.0
 10
45.41020400411545
 20
20.828302877205623
 30
0.0
  0
LWPOLYLINE
  5
20E
  8
Layer_1
 62
1
420
16711680
370
-1
  6
ByLayer
100
AcDbEntity
100
AcDbPolyline
 90
3
 70
0
 10
49.410140004115462
 20
20.708075877205623
 10
49.449933004108914
 20
20.708075877205623
 10
49.449933004112225
 20
20.001391877205627
  0
LWPOLYLINE
  5
20F
  8
Layer_1
 62
1
420
16711680
370
-1
  6
ByLayer
100
AcDbEntity
100
AcDbPolyline
 90
2
 70
0
 10
45.41020400411545
 20
20.828302877205623
 10
45.41020400411545
 20
20.828302877205623
  0
SPLINE
  5
210
  8
Layer_1
 62
1
420
16711680
370
-1
  6
ByLayer
100
AcDbEntity
100
AcDbSpline
 70
8
 71
3
 72
8
 73
4
 74
0
 40
0.0
 40
0.0
 40
0.0
 40
0.0
 40
1.0
 40
1.0
 40
1.0
 40
1.0
 10
49.410422004115439
 20
16.467968877205628
 30
0.0
 10
48.792638004115453
 20
16.467968877205628
 30
0.0
 10
48.290282004115447
 20
15.965895877205618
 30
0.0
 10
48.290282004115447
 20
15.348111877205618
 30
0.0
  0
SPLINE
  5
211
  8
Layer_1
 62
1
420
16711680
370
-1
  6
ByLayer
100
AcDbEntity
100
AcDbSpline
 70
8
 71
3
 72
8
 73
4
 74
0
 40
0.0
 40
0.0
 40
0.0
 40
0.0
 40
1.0
 40
1.0
 40
1.0
 40
1.0
 10
48.290282004115447
 20
15.348111877205618
 30
0.0
 10
48.290282004115447
 20
14.730891877205622
 30
0.0
 10
48.792356004115447
 20
14.227124877205618
 30
0.0
 10
49.410422004115446
 20
14.227124877205618
 30
0.0
  0
LWPOLYLINE
  5
212
  8
Layer_1
 62
1
420
16711680
370
-1
  6
ByLayer
100
AcDbEntity
100
AcDbPolyline
 90
3
 70
0
 10
49.450216004115447
 20
17.174371877205623
 10
49.450216004115447
 20
16.467968877205628
 10
49.410422004115439
 20
16.467968877205628
  0
SPLINE
  5
213
  8
Layer_1
 62
1
420
16711680
370
-1
  6
ByLayer
100
AcDbEntity
100
AcDbSpline
 70
8
 71
3
 72
8
 73
4
 74
0
 40
0.0
 40
0.0
 40
0.0
 40
0.0
 40
1.0
 40
1.0
 40
1.0
 40
1.0
 10
49.450216004115447
 20
13.52100487720562
 30
0.0
 10
49.450216004115447
 20
12.742071877205625
 30
0.0
 10
48.815780004115446
 20
12.108200877205626
 30
0.0
 10
48.036564004115448
 20
12.108200877205626
 30
0.0
  0
LWPOLYLINE
  5
214
  8
Layer_1
 62
1
420
16711680
370
-1
  6
ByLayer
100
AcDbEntity
100
AcDbPolyline
 90
3
 70
0
 10
49.410422004115446
 20
14.227124877205618
 10
49.450216004115447
 20
14.227124877205618
 10
49.450216004115447
 20
13.52100487720562
  0
SPLINE
  5
215
  8
Layer_1
 62
1
420
16711680
370
-1
  6
ByLayer
100
AcDbEntity
100
AcDbSpline
 70
8
 71
3
 72
8
 73
4
 74
0
 40
0.0
 40
0.0
 40
0.0
 40
0.0
 40
1.0
 40
1.0
 40
1.0
 40
1.0
 10
42.784127004115447
 20
12.108200877205626
 30
0.0
 10
42.004629004115451
 20
12.108200877205626
 30
0.0
 10
41.370758004115444
 20
12.742071877205625
 30
0.0
 10
41.370758004115444
 20
13.52100487720562
 30
0.0
  0
LWPOLYLINE
  5
216
  8
Layer_1
 62
1
420
16711680
370
-1
  6
ByLayer
100
AcDbEntity
100
AcDbPolyline
 90
2
 70
0
 10
48.036564004115448
 20
12.108200877205626
 10
42.784127004115447
 20
12.108200877205626
  0
SPLINE
  5
217
  8
Layer_1
 62
1
420
16711680
370
-1
  6
ByLayer
100
AcDbEntity
100
AcDbSpline
 70
8
 71
3
 72
8
 73
4
 74
0
 40
0.0
 40
0.0
 40
0.0
 40
0.0
 40
1.0
 40
1.0
 40
1.0
 40
1.0
 10
41.410551004115447
 20
14.227124877205618
 30
0.0
 10
42.028053004115449
 20
14.227124877205618
 30
0.0
 10
42.530409004115448
 20
14.730891877205622
 30
0.0
 10
42.530409004115448
 20
15.348111877205618
 30
0.0
  0
SPLINE
  5
218
  8
Layer_1
 62
1
420
16711680
370
-1
  6
ByLayer
100
AcDbEntity
100
AcDbSpline
 70
8
 71
3
 72
8
 73
4
 74
0
 40
0.0
 40
0.0
 40
0.0
 40
0.0
 40
1.0
 40
1.0
 40
1.0
 40
1.0
 10
42.530409004115448
 20
15.348111877205618
 30
0.0
 10
42.530409004115448
 20
15.96561387720562
 30
0.0
 10
42.028053004115449
 20
16.467968877205628
 30
0.0
 10
41.410551004115447
 20
16.467968877205632
 30
0.0
  0
LWPOLYLINE
  5
219
  8
Layer_1
 62
1
420
16711680
370
-1
  6
ByLayer
100
AcDbEntity
100
AcDbPolyline
 90
3
 70
0
 10
41.370758004115444
 20
13.52100487720562
 10
41.370758004115444
 20
14.227124877205618
 10
41.410551004115447
 20
14.227124877205618
  0
SPLINE
  5
21A
  8
Layer_1
 62
1
420
16711680
370
-1
  6
ByLayer
100
AcDbEntity
100
AcDbSpline
 70
8
 71
3
 72
8
 73
4
 74
0
 40
0.0
 40
0.0
 40
0.0
 40
0.0
 40
1.0
 40
1.0
 40
1.0
 40
1.0
 10
41.370758004115444
 20
17.174371877205623
 30
0.0
 10
41.370758004115444
 20
17.954151877205625
 30
0.0
 10
42.004629004115451
 20
18.588586877205621
 30
0.0
 10
42.784127004115447
 20
18.588586877205621
 30
0.0
  0
LWPOLYLINE
  5
21B
  8
Layer_1
 62
1
420
16711680
370
-1
  6
ByLayer
100
AcDbEntity
100
AcDbPolyline
 90
3
 70
0
 10
41.410551004115447
 20
16.467968877205632
 10
41.370758004115444
 20
16.467968877205628
 10
41.370758004115444
 20
17.174371877205623
  0
SPLINE
  5
21C
  8
Layer_1
 62
1
420
16711680
370
-1
  6
ByLayer
100
AcDbEntity
100
AcDbSpline
 70
8
 71
3
 72
8
 73
4
 74
0
 40
0.0
 40
0.0
 40
0.0
 40
0.0
 40
1.0
 40
1.0
 40
1.0
 40
1.0
 10
48.036564004115448
 20
18.588586877205621
 30
0.0
 10
48.815780004115453
 20
18.588586877205621
 30
0.0
 10
49.450216004115447
 20
17.954151877205625
 30
0.0
 10
49.450216004115447
 20
17.174371877205623
 30
0.0
  0
LWPOLYLINE
  5
21D
  8
Layer_1
 62
1
420
16711680
370
-1
  6
ByLayer
100
AcDbEntity
100
AcDbPolyline
 90
2
 70
0
 10
42.784127004115447
 20
18.588586877205621
 10
48.036564004115448
 20
18.588586877205621
  0
SPLINE
  5
21E
  8
Layer_1
 62
1
420
16711680
370
-1
  6
ByLayer
100
AcDbEntity
100
AcDbSpline
 70
8
 71
3
 72
8
 73
4
 74
0
 40
0.0
 40
0.0
 40
0.0
 40
0.0
 40
1.0
 40
1.0
 40
1.0
 40
1.0
 10
45.41020400411545
 20
14.348197877205628
 30
0.0
 10
44.858178004115445
 20
14.348197877205628
 30
0.0
 10
44.41029100411545
 20
14.795520877205625
 30
0.0
 10
44.41029100411545
 20
15.348111877205618
 30
0.0
  0
SPLINE
  5
21F
  8
Layer_1
 62
1
420
16711680
370
-1
  6
ByLayer
100
AcDbEntity
100
AcDbSpline
 70
8
 71
3
 72
8
 73
4
 74
0
 40
0.0
 40
0.0
 40
0.0
 40
0.0
 40
1.0
 40
1.0
 40
1.0
 40
1.0
 10
44.41029100411545
 20
15.348111877205618
 30
0.0
 10
44.41029100411545
 20
15.899855877205624
 30
0.0
 10
44.858178004115445
 20
16.347742877205626
 30
0.0
 10
45.41020400411545
 20
16.347742877205626
 30
0.0
  0
SPLINE
  5
220
  8
Layer_1
 62
1
420
16711680
370
-1
  6
ByLayer
100
AcDbEntity
100
AcDbSpline
 70
8
 71
3
 72
8
 73
4
 74
0
 40
0.0
 40
0.0
 40
0.0
 40
0.0
 40
1.0
 40
1.0
 40
1.0
 40
1.0
 10
45.41020400411545
 20
16.347742877205626
 30
0.0
 10
45.962513004115451
 20
16.347742877205626
 30
0.0
 10
46.410400004115445
 20
15.899855877205624
 30
0.0
 10
46.410400004115445
 20
15.348111877205618
 30
0.0
  0
SPLINE
  5
221
  8
Layer_1
 62
1
420
16711680
370
-1
  6
ByLayer
100
AcDbEntity
100
AcDbSpline
 70
8
 71
3
 72
8
 73
4
 74
0
 40
0.0
 40
0.0
 40
0.0
 40
0.0
 40
1.0
 40
1.0
 40
1.0
 40
1.0
 10
46.410400004115445
 20
15.348111877205618
 30
0.0
 10
46.410400004115445
 20
14.795520877205625
 30
0.0
 10
45.962513004115451
 20
14.348197877205628
 30
0.0
 10
45.41020400411545
 20
14.348197877205628
 30
0.0
  0
LWPOLYLINE
  5
222
  8
Layer_1
 62
1
420
16711680
370
-1
  6
ByLayer
100
AcDbEntity
100
AcDbPolyline
 90
2
 70
0
 10
49.450216004115447
 20
17.174371877205623
 10
49.450216004115447
 20
17.174371877205623
  0
LWPOLYLINE
  5
223
  8
Layer_1
 62
1
420
16711680
370
-1
  6
ByLayer
100
AcDbEntity
100
AcDbPolyline
 90
2
 70
0
 10
45.41020400411545
 20
14.348197877205628
 10
45.41020400411545
 20
14.348197877205628
  0
SPLINE
  5
224
  8
Layer_1
 62
1
420
16711680
370
-1
  6
ByLayer
100
AcDbEntity
100
AcDbSpline
 70
8
 71
3
 72
8
 73
4
 74
0
 40
0.0
 40
0.0
 40
0.0
 40
0.0
 40
1.0
 40
1.0
 40
1.0
 40
1.0
 10
46.273387
 20
4.5599509999999981
 30
0.0
 10
45.681567000000001
 20
4.5599509999999981
 30
0.0
 10
45.132362000000001
 20
4.8283439999999942
 30
0.0
 10
44.765473999999998
 20
5.2959859999999992
 30
0.0
  0
SPLINE
  5
225
  8
Layer_1
 62
1
420
16711680
370
-1
  6
ByLayer
100
AcDbEntity
100
AcDbSpline
 70
8
 71
3
 72
8
 73
4
 74
0
 40
0.0
 40
0.0
 40
0.0
 40
0.0
 40
1.0
 40
1.0
 40
1.0
 40
1.0
 10
44.758699999999997
 20
7.6319400000000002
 30
0.0
 10
45.132362000000001
 20
8.1213129999999936
 30
0.0
 10
45.681849
 20
8.3897059999999968
 30
0.0
 10
46.273387
 20
8.3897059999999968
 30
0.0
  0
SPLINE
  5
226
  8
Layer_1
 62
1
420
16711680
370
-1
  6
ByLayer
100
AcDbEntity
100
AcDbSpline
 70
8
 71
3
 72
8
 73
4
 74
0
 40
0.0
 40
0.0
 40
0.0
 40
0.0
 40
1.0
 40
1.0
 40
1.0
 40
1.0
 10
46.273387
 20
8.3897059999999968
 30
0.0
 10
47.328615999999997
 20
8.3897059999999968
 30
0.0
 10
48.188265000000001
 20
7.5306219999999939
 30
0.0
 10
48.188265000000001
 20
6.4748279999999951
 30
0.0
  0
SPLINE
  5
227
  8
Layer_1
 62
1
420
16711680
370
-1
  6
ByLayer
100
AcDbEntity
100
AcDbSpline
 70
8
 71
3
 72
8
 73
4
 74
0
 40
0.0
 40
0.0
 40
0.0
 40
0.0
 40
1.0
 40
1.0
 40
1.0
 40
1.0
 10
48.188265000000001
 20
6.4748279999999951
 30
0.0
 10
48.188265000000001
 20
5.4190349999999938
 30
0.0
 10
47.328897999999995
 20
4.5599509999999981
 30
0.0
 10
46.273387
 20
4.5599509999999981
 30
0.0
  0
LWPOLYLINE
  5
228
  8
Layer_1
 62
1
420
16711680
370
-1
  6
ByLayer
100
AcDbEntity
100
AcDbPolyline
 90
2
 70
0
 10
44.765473999999998
 20
5.2959859999999992
 10
44.758699999999997
 20
7.6319400000000002
  0
LWPOLYLINE
  5
229
  8
Layer_1
 62
1
420
16711680
370
-1
  6
ByLayer
100
AcDbEntity
100
AcDbPolyline
 90
2
 70
0
 10
46.273387
 20
4.5599509999999981
 10
46.273387
 20
4.5599509999999981
  0
LWPOLYLINE
  5
22A
  8
Layer_1
 62
1
420
16711680
370
-1
  6
ByLayer
100
AcDbEntity
100
AcDbPolyline
 90
66
 70
0
 10
45.0
 20
1.0
 10
44.263399999999997
 20
1.2257769999999937
 10
44.055120000000002
 20
2.6261639999999957
 10
44.134425
 20
2.9168529999999961
 10
44.495104999999995
 20
3.5716079999999977
 10
43.761890999999999
 20
4.1764109999999945
 10
43.215226999999999
 20
3.7172349999999952
 10
42.914659999999998
 20
3.5710440000000006
 10
41.501573999999998
 20
3.504722000000001
 10
41.140329000000001
 20
4.1854419999999948
 10
42.009574000000001
 20
5.3374729999999957
 10
42.246076000000002
 20
5.4726569999999981
 10
42.963201999999995
 20
5.6803729999999959
 10
42.872326999999999
 20
6.6269459999999967
 10
42.161408999999999
 20
6.6884709999999927
 10
41.845884999999996
 20
6.7982549999999975
 10
40.799686999999999
 20
7.7493439999999936
 10
41.025182000000001
 20
8.4865079999999935
 10
42.425851000000002
 20
8.694505999999997
 10
42.716822000000001
 20
8.615483999999995
 10
43.371296000000001
 20
8.2548039999999929
 10
43.975815999999995
 20
8.9885819999999939
 10
43.517204999999997
 20
9.534399999999998
 10
43.371296000000001
 20
9.8358129999999946
 10
43.304409
 20
11.247771
 10
43.985693999999995
 20
11.609296999999998
 10
45.137724999999996
 20
10.740617
 10
45.272345000000001
 20
10.505243999999998
 10
45.480624999999996
 20
9.7875529999999955
 10
46.426915999999999
 20
9.8775819999999968
 10
46.488157999999999
 20
10.588217
 10
46.598224999999999
 20
10.904587999999997
 10
47.549596000000001
 20
11.950785999999994
 10
48.286195999999997
 20
11.724725999999997
 10
48.494194
 20
10.324339999999992
 10
48.415171000000001
 20
10.033367999999996
 10
48.055056
 20
9.378895
 10
48.788550999999998
 20
8.7740929999999935
 10
49.334368999999995
 20
9.2332679999999954
 10
49.635217999999995
 20
9.378895
 10
51.048022000000003
 20
9.4454999999999956
 10
51.409267
 20
8.7644969999999986
 10
50.540022
 20
7.6127479999999963
 10
50.304648999999998
 20
7.477564000000001
 10
49.586957999999996
 20
7.2698479999999961
 10
49.677268999999995
 20
6.3232749999999953
 10
50.388187000000002
 20
6.2617509999999967
 10
50.704276
 20
6.1519659999999945
 10
51.749909000000002
 20
5.2003129999999942
 10
51.524414
 20
4.4634309999999999
 10
50.123745
 20
4.255714999999995
 10
49.833337999999998
 20
4.334736999999997
 10
49.178865000000002
 20
4.6951349999999934
 10
48.573779999999999
 20
3.9622039999999998
 10
49.032390999999997
 20
3.4163859999999957
 10
49.1783
 20
3.1146909999999934
 10
49.245187000000001
 20
1.7024509999999964
 10
48.564467
 20
1.3412059999999997
 10
47.411870999999998
 20
2.2096039999999988
 10
47.276968999999994
 20
2.4455419999999961
 10
47.069535999999999
 20
3.1635149999999967
 10
46.122962000000001
 20
3.0732039999999969
 10
46.061720000000001
 20
2.3622859999999974
 10
45.951371000000002
 20
2.0459149999999937
 10
45.0
 20
1.0
 10
45.0
 20
1.0
  0
LINE
  5
22B
100
AcDbEntity
100
AcDbLine
  8
Laser cut size
 62
256
370
-1
  6
ByLayer
 10
0.0
 20
0.0
 30
0.0
 11
52.0
 21
0.0
 31
0.0
  0
LINE
  5
22C
100
AcDbEntity
100
AcDbLine
  8
Laser cut size
 62
256
370
-1
  6
ByLayer
 10
52.0
 20
0.0
 30
0.0
 11
52.0
 21
51.0
 31
0.0
  0
LINE
  5
22D
100
AcDbEntity
100
AcDbLine
  8
Laser cut size
 62
256
370
-1
  6
ByLayer
 10
52.0
 20
51.0
 30
0.0
 11
0.0
 21
51.0
 31
0.0
  0
LINE
  5
22E
100
AcDbEntity
100
AcDbLine
  8
Laser cut size
 62
256
370
-1
  6
ByLayer
 10
0.0
 20
51.0
 30
0.0
 11
0.0
 21
0.0
 31
0.0
  0
ENDSEC
  0
SECTION
  2
OBJECTS
  0
DICTIONARY
  5
C
100
AcDbDictionary
280
0
281
1
  3
ACAD_GROUP
350
D
  3
ACAD_LAYOUT
350
1A
  3
ACAD_MLINESTYLE
350
17
  3
ACAD_PLOTSETTINGS
350
19
  3
ACAD_PLOTSTYLENAME
350
E
  3
AcDbVariableDictionary
350
22F
  0
DICTIONARY
  5
D
100
AcDbDictionary
280
0
281
1
  0
ACDBDICTIONARYWDFLT
  5
E
100
AcDbDictionary
281
1
  3
Normal
350
F
100
AcDbDictionaryWithDefault
340
F
  0
ACDBPLACEHOLDER
  5
F
  0
DICTIONARY
  5
17
100
AcDbDictionary
280
0
281
1
  3
Standard
350
18
  0
MLINESTYLE
  5
18
100
AcDbMlineStyle
  2
STANDARD
 70
0
  3

 62
256
 51
90.0
 52
90.0
 71
2
 49
0.5
 62
256
  6
BYLAYER
 49
-0.5
 62
256
  6
BYLAYER
  0
DICTIONARY
  5
19
100
AcDbDictionary
280
0
281
1
  0
DICTIONARY
  5
1A
100
AcDbDictionary
281
1
  3
Layout1
350
1E
  3
Layout2
350
26
  3
Model
350
22
  0
LAYOUT
  5
1E
100
AcDbPlotSettings
  1

  2
C:\Program Files\AutoCAD 2002\plotters\DWF ePlot (optimized for plotting).pc3
  4

  6

 40
0.0
 41
0.0
 42
0.0
 43
0.0
 44
0.0
 45
0.0
 46
0.0
 47
0.0
 48
0.0
 49
0.0
140
0.0
141
0.0
142
1.0
143
1.0
 70
688
 72
0
 73
0
 74
5
  7

 75
16
147
1.0
148
0.0
149
0.0
100
AcDbLayout
  1
Layout1
 70
1
 71
1
 10
0.0
 20
0.0
 11
420.0
 21
297.0
 12
0.0
 22
0.0
 32
0.0
 14
100000000000000000000.0
 24
100000000000000000000.0
 34
100000000000000000000.0
 15
-100000000000000000000.0
 25
-100000000000000000000.0
 35
-100000000000000000000.0
146
0.0
 13
0.0
 23
0.0
 33
0.0
 16
1.0
 26
0.0
 36
0.0
 17
0.0
 27
1.0
 37
0.0
 76
0
330
1B
  0
LAYOUT
  5
22
100
AcDbPlotSettings
  1

  2
C:\Program Files\AutoCAD 2002\plotters\DWF ePlot (optimized for plotting).pc3
  4

  6

 40
0.0
 41
0.0
 42
0.0
 43
0.0
 44
0.0
 45
0.0
 46
0.0
 47
0.0
 48
0.0
 49
0.0
140
0.0
141
0.0
142
1.0
143
1.0
 70
1712
 72
0
 73
0
 74
0
  7

 75
0
147
1.0
148
0.0
149
0.0
100
AcDbLayout
  1
Model
 70
1
 71
0
 10
0.0
 20
0.0
 11
12.0
 21
9.0
 12
0.0
 22
0.0
 32
0.0
 14
0.0
 24
0.0
 34
0.0
 15
0.0
 25
0.0
 35
0.0
146
0.0
 13
0.0
 23
0.0
 33
0.0
 16
1.0
 26
0.0
 36
0.0
 17
0.0
 27
1.0
 37
0.0
 76
0
330
1F
  0
LAYOUT
  5
26
100
AcDbPlotSettings
  1

  2
C:\Program Files\AutoCAD 2002\plotters\DWF ePlot (optimized for plotting).pc3
  4

  6

 40
0.0
 41
0.0
 42
0.0
 43
0.0
 44
0.0
 45
0.0
 46
0.0
 47
0.0
 48
0.0
 49
0.0
140
0.0
141
0.0
142
1.0
143
1.0
 70
688
 72
0
 73
0
 74
5
  7

 75
16
147
1.0
148
0.0
149
0.0
100
AcDbLayout
  1
Layout2
 70
1
 71
2
 10
0.0
 20
0.0
 11
12.0
 21
9.0
 12
0.0
 22
0.0
 32
0.0
 14
0.0
 24
0.0
 34
0.0
 15
0.0
 25
0.0
 35
0.0
146
0.0
 13
0.0
 23
0.0
 33
0.0
 16
1.0
 26
0.0
 36
0.0
 17
0.0
 27
1.0
 37
0.0
 76
0
330
23
  0
DICTIONARY
  5
22F
100
AcDbDictionary
281
1
  3
DIMASSOC
350
231
  3
HIDETEXT
350
230
  0
DICTIONARYVAR
  5
230
100
DictionaryVariables
280
0
  1
2
  0
DICTIONARYVAR
  5
231
100
DictionaryVariables
280
0
  1
1
  0
ENDSEC
  0
EOF
